<?xml version="1.0" encoding="utf-8" standalone="no"?>
<!DOCTYPE svg PUBLIC "-//W3C//DTD SVG 1.1//EN"
  "http://www.w3.org/Graphics/SVG/1.1/DTD/svg11.dtd">
<svg xmlns:xlink="http://www.w3.org/1999/xlink" width="1440pt" height="1440pt" viewBox="0 0 1440 1440" xmlns="http://www.w3.org/2000/svg" version="1.1">
 <metadata>
  <rdf:RDF xmlns:dc="http://purl.org/dc/elements/1.1/" xmlns:cc="http://creativecommons.org/ns#" xmlns:rdf="http://www.w3.org/1999/02/22-rdf-syntax-ns#">
   <cc:Work>
    <dc:type rdf:resource="http://purl.org/dc/dcmitype/StillImage"/>
    <dc:date>2026-02-27T11:11:42.570423</dc:date>
    <dc:format>image/svg+xml</dc:format>
    <dc:creator>
     <cc:Agent>
      <dc:title>Matplotlib v3.7.3, https://matplotlib.org/</dc:title>
     </cc:Agent>
    </dc:creator>
   </cc:Work>
  </rdf:RDF>
 </metadata>
 <defs>
  <style type="text/css">*{stroke-linejoin: round; stroke-linecap: butt}</style>
 </defs>
 <g id="figure_1">
  <g id="patch_1">
   <path d="M 0 1440 
L 1440 1440 
L 1440 0 
L 0 0 
z
" style="fill: #ffffff"/>
  </g>
  <g id="axes_1">
   <g id="line2d_1">
    <path d="M 122.293206 1441 
L 128.664264 1429.875452 
" clip-path="url(#p5c70138aa5)" style="fill: none; stroke: #7a7a7a; stroke-width: 3; stroke-linecap: square"/>
   </g>
   <g id="line2d_2">
    <path clip-path="url(#p5c70138aa5)" style="fill: none; stroke: #7a7a7a; stroke-width: 3; stroke-linecap: square"/>
   </g>
   <g id="line2d_3">
    <path clip-path="url(#p5c70138aa5)" style="fill: none; stroke: #7a7a7a; stroke-width: 3; stroke-linecap: square"/>
   </g>
   <g id="line2d_4">
    <path clip-path="url(#p5c70138aa5)" style="fill: none; stroke: #7a7a7a; stroke-width: 3; stroke-linecap: square"/>
   </g>
   <g id="line2d_5">
    <path d="M 64.500593 1441 
L 68.088651 1435.085555 
L 73.8483 1425.728635 
" clip-path="url(#p5c70138aa5)" style="fill: none; stroke: #7a7a7a; stroke-width: 3; stroke-linecap: square"/>
   </g>
   <g id="line2d_6">
    <path d="M 122.293206 1441 
L 128.664264 1429.875452 
" clip-path="url(#p5c70138aa5)" style="fill: none; stroke: #7a7a7a; stroke-width: 3; stroke-linecap: square"/>
   </g>
   <g id="line2d_7">
    <path d="M 19.032335 1277.506512 
L -1 1274.194 
" clip-path="url(#p5c70138aa5)" style="fill: none; stroke: #7a7a7a; stroke-width: 3; stroke-linecap: square"/>
   </g>
   <g id="line2d_8">
    <path d="M 52.9944 1222.002963 
L -1 1212.799513 
" clip-path="url(#p5c70138aa5)" style="fill: none; stroke: #7a7a7a; stroke-width: 3; stroke-linecap: square"/>
   </g>
   <g id="line2d_9">
    <path clip-path="url(#p5c70138aa5)" style="fill: none; stroke: #7a7a7a; stroke-width: 3; stroke-linecap: square"/>
   </g>
   <g id="line2d_10">
    <path clip-path="url(#p5c70138aa5)" style="fill: none; stroke: #7a7a7a; stroke-width: 3; stroke-linecap: square"/>
   </g>
   <g id="line2d_11">
    <path d="M 270.073565 1182.555037 
L 345.743429 1058.575844 
L 434.32285 907.695506 
" clip-path="url(#p5c70138aa5)" style="fill: none; stroke: #7a7a7a; stroke-width: 3; stroke-linecap: square"/>
   </g>
   <g id="line2d_12">
    <path d="M 342.962909 1195.208145 
L 503.63724 918.32837 
" clip-path="url(#p5c70138aa5)" style="fill: none; stroke: #7a7a7a; stroke-width: 3; stroke-linecap: square"/>
   </g>
   <g id="line2d_13">
    <path d="M 219.626988 1173.72976 
L 230.749068 1157.036164 
L 311.781364 1018.064633 
L 354.283597 947.675074 
L 381.691579 899.5082 
" clip-path="url(#p5c70138aa5)" style="fill: none; stroke: #7a7a7a; stroke-width: 3; stroke-linecap: square"/>
   </g>
   <g id="line2d_14">
    <path d="M 270.073565 1182.555037 
L 345.743429 1058.575844 
L 434.32285 907.695506 
" clip-path="url(#p5c70138aa5)" style="fill: none; stroke: #7a7a7a; stroke-width: 3; stroke-linecap: square"/>
   </g>
   <g id="line2d_15">
    <path d="M 128.664264 1429.875452 
L 270.073565 1182.555037 
" clip-path="url(#p5c70138aa5)" style="fill: none; stroke: #7a7a7a; stroke-width: 3; stroke-linecap: square"/>
   </g>
   <g id="line2d_16">
    <path d="M 199.652817 1441 
L 342.962909 1195.208145 
" clip-path="url(#p5c70138aa5)" style="fill: none; stroke: #7a7a7a; stroke-width: 3; stroke-linecap: square"/>
   </g>
   <g id="line2d_17">
    <path d="M 410.489822 1207.754925 
L 572.753021 928.961233 
" clip-path="url(#p5c70138aa5)" style="fill: none; stroke: #7a7a7a; stroke-width: 3; stroke-linecap: square"/>
   </g>
   <g id="line2d_18">
    <path d="M 440.876933 1212.8587 
L 459.148921 1183.299338 
L 573.547456 990.312858 
L 605.920652 934.065008 
" clip-path="url(#p5c70138aa5)" style="fill: none; stroke: #7a7a7a; stroke-width: 3; stroke-linecap: square"/>
   </g>
   <g id="line2d_19">
    <path d="M 273.963959 1441 
L 410.489822 1207.754925 
" clip-path="url(#p5c70138aa5)" style="fill: none; stroke: #7a7a7a; stroke-width: 3; stroke-linecap: square"/>
   </g>
   <g id="line2d_20">
    <path d="M 300.193336 1441 
L 440.876933 1212.8587 
" clip-path="url(#p5c70138aa5)" style="fill: none; stroke: #7a7a7a; stroke-width: 3; stroke-linecap: square"/>
   </g>
   <g id="line2d_21">
    <path d="M 342.962909 1195.208145 
L 503.63724 918.32837 
" clip-path="url(#p5c70138aa5)" style="fill: none; stroke: #7a7a7a; stroke-width: 3; stroke-linecap: square"/>
   </g>
   <g id="line2d_22">
    <path d="M 410.489822 1207.754925 
L 572.753021 928.961233 
" clip-path="url(#p5c70138aa5)" style="fill: none; stroke: #7a7a7a; stroke-width: 3; stroke-linecap: square"/>
   </g>
   <g id="line2d_23">
    <path d="M 73.8483 1425.728635 
L 113.371405 1357.146663 
L 114.761665 1338.113836 
L 104.434019 1319.399996 
L 83.778728 1302.600071 
L 54.980486 1286.757104 
L 19.032335 1277.506512 
" clip-path="url(#p5c70138aa5)" style="fill: none; stroke: #7a7a7a; stroke-width: 3; stroke-linecap: square"/>
   </g>
   <g id="line2d_24">
    <path d="M 128.664264 1429.875452 
L 167.988761 1361.399808 
L 174.344235 1333.222719 
L 172.953975 1307.703846 
L 165.009632 1285.162174 
L 151.305641 1265.597705 
L 132.437827 1249.223094 
L 109.200625 1236.144672 
L 82.587077 1226.575094 
L 52.9944 1222.002963 
" clip-path="url(#p5c70138aa5)" style="fill: none; stroke: #7a7a7a; stroke-width: 3; stroke-linecap: square"/>
   </g>
   <g id="line2d_25">
    <path d="M 199.652817 1441 
L 342.962909 1195.208145 
" clip-path="url(#p5c70138aa5)" style="fill: none; stroke: #7a7a7a; stroke-width: 3; stroke-linecap: square"/>
   </g>
   <g id="line2d_26">
    <path d="M 273.963959 1441 
L 410.489822 1207.754925 
" clip-path="url(#p5c70138aa5)" style="fill: none; stroke: #7a7a7a; stroke-width: 3; stroke-linecap: square"/>
   </g>
   <g id="line2d_27">
    <path d="M 486.159686 807.852914 
L 536.010436 728.744406 
" clip-path="url(#p5c70138aa5)" style="fill: none; stroke: #7a7a7a; stroke-width: 3; stroke-linecap: square"/>
   </g>
   <g id="line2d_28">
    <path d="M 561.035116 818.698435 
L 603.338741 740.440556 
" clip-path="url(#p5c70138aa5)" style="fill: none; stroke: #7a7a7a; stroke-width: 3; stroke-linecap: square"/>
   </g>
   <g id="line2d_29">
    <path d="M 19.032335 1277.506512 
L 65.308131 1285.693817 
L 103.440976 1284.843188 
L 133.629479 1278.569798 
L 156.270855 1267.086305 
L 172.358149 1250.605366 
L 219.626988 1173.72976 
" clip-path="url(#p5c70138aa5)" style="fill: none; stroke: #7a7a7a; stroke-width: 3; stroke-linecap: square"/>
   </g>
   <g id="line2d_30">
    <path d="M -1 1339.446575 
L 20.025378 1342.260653 
L 56.172137 1341.091038 
L 92.716114 1335.880935 
L 127.671222 1326.949329 
L 160.243027 1314.508878 
L 189.041269 1298.878569 
L 209.895169 1278.995113 
L 224.592203 1258.580014 
L 270.073565 1182.555037 
" clip-path="url(#p5c70138aa5)" style="fill: none; stroke: #7a7a7a; stroke-width: 3; stroke-linecap: square"/>
   </g>
   <g id="line2d_31">
    <path d="M 572.753021 928.961233 
L 631.342549 829.650285 
" clip-path="url(#p5c70138aa5)" style="fill: none; stroke: #7a7a7a; stroke-width: 3; stroke-linecap: square"/>
   </g>
   <g id="line2d_32">
    <path d="M 605.920652 934.065008 
L 653.983926 849.852726 
L 662.722703 834.754059 
" clip-path="url(#p5c70138aa5)" style="fill: none; stroke: #7a7a7a; stroke-width: 3; stroke-linecap: square"/>
   </g>
   <g id="line2d_33">
    <path d="M 73.8483 1425.728635 
L 79.40934 1412.756541 
L 219.626988 1173.72976 
" clip-path="url(#p5c70138aa5)" style="fill: none; stroke: #7a7a7a; stroke-width: 3; stroke-linecap: square"/>
   </g>
   <g id="line2d_34">
    <path d="M 128.664264 1429.875452 
L 270.073565 1182.555037 
" clip-path="url(#p5c70138aa5)" style="fill: none; stroke: #7a7a7a; stroke-width: 3; stroke-linecap: square"/>
   </g>
   <g id="line2d_35">
    <path d="M 561.035116 818.698435 
L 603.338741 740.440556 
" clip-path="url(#p5c70138aa5)" style="fill: none; stroke: #7a7a7a; stroke-width: 3; stroke-linecap: square"/>
   </g>
   <g id="line2d_36">
    <path d="M 631.342549 829.650285 
L 672.454522 753.731636 
" clip-path="url(#p5c70138aa5)" style="fill: none; stroke: #7a7a7a; stroke-width: 3; stroke-linecap: square"/>
   </g>
   <g id="line2d_37">
    <path d="M 484.769426 719.0685 
L 494.699854 701.949589 
L 498.274809 696.633157 
L 534.024351 633.686603 
L 548.324168 609.337345 
" clip-path="url(#p5c70138aa5)" style="fill: none; stroke: #7a7a7a; stroke-width: 3; stroke-linecap: square"/>
   </g>
   <g id="line2d_38">
    <path d="M 536.010436 728.744406 
L 605.126218 614.760105 
" clip-path="url(#p5c70138aa5)" style="fill: none; stroke: #7a7a7a; stroke-width: 3; stroke-linecap: square"/>
   </g>
   <g id="line2d_39">
    <path d="M 536.010436 728.744406 
L 605.126218 614.760105 
" clip-path="url(#p5c70138aa5)" style="fill: none; stroke: #7a7a7a; stroke-width: 3; stroke-linecap: square"/>
   </g>
   <g id="line2d_40">
    <path d="M 603.338741 740.440556 
L 674.241999 621.246152 
" clip-path="url(#p5c70138aa5)" style="fill: none; stroke: #7a7a7a; stroke-width: 3; stroke-linecap: square"/>
   </g>
   <g id="line2d_41">
    <path d="M 381.691579 899.5082 
L 431.343721 812.212388 
L 432.138156 811.042773 
L 432.336764 810.51113 
L 435.315893 804.450397 
" clip-path="url(#p5c70138aa5)" style="fill: none; stroke: #7a7a7a; stroke-width: 3; stroke-linecap: square"/>
   </g>
   <g id="line2d_42">
    <path d="M 434.32285 907.695506 
L 486.159686 807.852914 
" clip-path="url(#p5c70138aa5)" style="fill: none; stroke: #7a7a7a; stroke-width: 3; stroke-linecap: square"/>
   </g>
   <g id="line2d_43">
    <path d="M 503.63724 918.32837 
L 561.035116 818.698435 
" clip-path="url(#p5c70138aa5)" style="fill: none; stroke: #7a7a7a; stroke-width: 3; stroke-linecap: square"/>
   </g>
   <g id="line2d_44">
    <path d="M 572.753021 928.961233 
L 631.342549 829.650285 
" clip-path="url(#p5c70138aa5)" style="fill: none; stroke: #7a7a7a; stroke-width: 3; stroke-linecap: square"/>
   </g>
   <g id="line2d_45">
    <path d="M 435.315893 804.450397 
L 484.769426 719.0685 
" clip-path="url(#p5c70138aa5)" style="fill: none; stroke: #7a7a7a; stroke-width: 3; stroke-linecap: square"/>
   </g>
   <g id="line2d_46">
    <path d="M 486.159686 807.852914 
L 536.010436 728.744406 
" clip-path="url(#p5c70138aa5)" style="fill: none; stroke: #7a7a7a; stroke-width: 3; stroke-linecap: square"/>
   </g>
   <g id="line2d_47">
    <path d="M 434.32285 907.695506 
L 486.159686 807.852914 
" clip-path="url(#p5c70138aa5)" style="fill: none; stroke: #7a7a7a; stroke-width: 3; stroke-linecap: square"/>
   </g>
   <g id="line2d_48">
    <path d="M 503.63724 918.32837 
L 561.035116 818.698435 
" clip-path="url(#p5c70138aa5)" style="fill: none; stroke: #7a7a7a; stroke-width: 3; stroke-linecap: square"/>
   </g>
   <g id="line2d_49">
    <path d="M 603.338741 740.440556 
L 674.241999 621.246152 
" clip-path="url(#p5c70138aa5)" style="fill: none; stroke: #7a7a7a; stroke-width: 3; stroke-linecap: square"/>
   </g>
   <g id="line2d_50">
    <path d="M 672.454522 753.731636 
L 780.497583 631.985345 
" clip-path="url(#p5c70138aa5)" style="fill: none; stroke: #7a7a7a; stroke-width: 3; stroke-linecap: square"/>
   </g>
   <g id="line2d_51">
    <path d="M 631.342549 829.650285 
L 672.454522 753.731636 
" clip-path="url(#p5c70138aa5)" style="fill: none; stroke: #7a7a7a; stroke-width: 3; stroke-linecap: square"/>
   </g>
   <g id="line2d_52">
    <path d="M 662.722703 834.754059 
L 707.012413 758.516425 
" clip-path="url(#p5c70138aa5)" style="fill: none; stroke: #7a7a7a; stroke-width: 3; stroke-linecap: square"/>
   </g>
   <g id="line2d_53">
    <path d="M 548.324168 609.337345 
L 599.565178 521.616217 
" clip-path="url(#p5c70138aa5)" style="fill: none; stroke: #7a7a7a; stroke-width: 3; stroke-linecap: square"/>
   </g>
   <g id="line2d_54">
    <path d="M 605.126218 614.760105 
L 658.750531 522.785832 
" clip-path="url(#p5c70138aa5)" style="fill: none; stroke: #7a7a7a; stroke-width: 3; stroke-linecap: square"/>
   </g>
   <g id="line2d_55">
    <path d="M 860.536836 366.270076 
L 892.910032 327.67278 
L 908.401501 314.3817 
L 930.248443 303.642507 
L 954.28008 297.156461 
L 982.681105 292.690658 
L 1008.897436 291.7337 
L 1041.866458 292.265343 
L 1068.678615 295.242545 
L 1104.626765 300.665306 
L 1190.227058 315.657644 
" clip-path="url(#p5c70138aa5)" style="fill: none; stroke: #7a7a7a; stroke-width: 3; stroke-linecap: square"/>
   </g>
   <g id="line2d_56">
    <path d="M 929.652617 378.072555 
L 937.398351 364.994132 
L 943.753826 356.913156 
L 953.088428 347.768893 
L 960.436945 342.346132 
L 970.367374 337.136029 
L 982.879713 332.244911 
L 995.193445 328.736066 
L 1007.308567 326.822151 
L 1022.601427 326.07785 
L 1043.653935 327.247465 
L 1071.657743 330.968968 
L 1172.153678 347.768893 
" clip-path="url(#p5c70138aa5)" style="fill: none; stroke: #7a7a7a; stroke-width: 3; stroke-linecap: square"/>
   </g>
   <g id="line2d_57">
    <path d="M 605.126218 614.760105 
L 658.750531 522.785832 
" clip-path="url(#p5c70138aa5)" style="fill: none; stroke: #7a7a7a; stroke-width: 3; stroke-linecap: square"/>
   </g>
   <g id="line2d_58">
    <path d="M 674.241999 621.246152 
L 731.04405 522.785832 
" clip-path="url(#p5c70138aa5)" style="fill: none; stroke: #7a7a7a; stroke-width: 3; stroke-linecap: square"/>
   </g>
   <g id="line2d_59">
    <path d="M 731.04405 522.785832 
L 738.193958 509.920067 
L 738.392567 509.388424 
" clip-path="url(#p5c70138aa5)" style="fill: none; stroke: #7a7a7a; stroke-width: 3; stroke-linecap: square"/>
   </g>
   <g id="line2d_60">
    <path d="M 768.38246 522.785832 
L 775.929586 510.026396 
L 776.326803 509.388424 
" clip-path="url(#p5c70138aa5)" style="fill: none; stroke: #7a7a7a; stroke-width: 3; stroke-linecap: square"/>
   </g>
   <g id="line2d_61">
    <path d="M 672.454522 753.731636 
L 674.241999 621.246152 
" clip-path="url(#p5c70138aa5)" style="fill: none; stroke: #7a7a7a; stroke-width: 3; stroke-linecap: square"/>
   </g>
   <g id="line2d_62">
    <path d="M 707.012413 758.516425 
L 780.497583 631.985345 
" clip-path="url(#p5c70138aa5)" style="fill: none; stroke: #7a7a7a; stroke-width: 3; stroke-linecap: square"/>
   </g>
   <g id="line2d_63">
    <path d="M 1276.621785 175.197512 
L 704.430502 65.679013 
" clip-path="url(#p5c70138aa5)" style="fill: none; stroke: #7a7a7a; stroke-width: 3; stroke-linecap: square"/>
   </g>
   <g id="line2d_64">
    <path d="M 1296.68125 145.319164 
L 723.099707 28.038675 
" clip-path="url(#p5c70138aa5)" style="fill: none; stroke: #7a7a7a; stroke-width: 3; stroke-linecap: square"/>
   </g>
   <g id="line2d_65">
    <path d="M 658.750531 522.785832 
L 666.496265 509.920067 
L 666.694874 509.388424 
" clip-path="url(#p5c70138aa5)" style="fill: none; stroke: #7a7a7a; stroke-width: 3; stroke-linecap: square"/>
   </g>
   <g id="line2d_66">
    <path d="M 731.04405 522.785832 
L 738.193958 509.920067 
L 738.392567 509.388424 
" clip-path="url(#p5c70138aa5)" style="fill: none; stroke: #7a7a7a; stroke-width: 3; stroke-linecap: square"/>
   </g>
   <g id="line2d_67">
    <path d="M 1441 205.013987 
L 1399.759097 197.420197 
L 1276.621785 175.197512 
" clip-path="url(#p5c70138aa5)" style="fill: none; stroke: #7a7a7a; stroke-width: 3; stroke-linecap: square"/>
   </g>
   <g id="line2d_68">
    <path d="M 1441 171.189298 
L 1296.68125 145.319164 
" clip-path="url(#p5c70138aa5)" style="fill: none; stroke: #7a7a7a; stroke-width: 3; stroke-linecap: square"/>
   </g>
   <g id="line2d_69">
    <path d="M 823.992859 360.422001 
L 1102.839288 23.891858 
" clip-path="url(#p5c70138aa5)" style="fill: none; stroke: #7a7a7a; stroke-width: 3; stroke-linecap: square"/>
   </g>
   <g id="line2d_70">
    <path d="M 860.536836 366.270076 
L 1138.58883 30.909548 
" clip-path="url(#p5c70138aa5)" style="fill: none; stroke: #7a7a7a; stroke-width: 3; stroke-linecap: square"/>
   </g>
   <g id="line2d_71">
    <path d="M 704.430502 65.679013 
L 602.941524 47.071502 
L 400.360785 8.474206 
L 343.316346 -1 
" clip-path="url(#p5c70138aa5)" style="fill: none; stroke: #7a7a7a; stroke-width: 3; stroke-linecap: square"/>
   </g>
   <g id="line2d_72">
    <path d="M 723.099707 28.038675 
L 550.5787 -1 
" clip-path="url(#p5c70138aa5)" style="fill: none; stroke: #7a7a7a; stroke-width: 3; stroke-linecap: square"/>
   </g>
   <g id="line2d_73">
    <path d="M 599.565178 521.616217 
L 606.119261 509.920067 
L 606.317869 509.388424 
" clip-path="url(#p5c70138aa5)" style="fill: none; stroke: #7a7a7a; stroke-width: 3; stroke-linecap: square"/>
   </g>
   <g id="line2d_74">
    <path d="M 658.750531 522.785832 
L 666.496265 509.920067 
L 666.694874 509.388424 
" clip-path="url(#p5c70138aa5)" style="fill: none; stroke: #7a7a7a; stroke-width: 3; stroke-linecap: square"/>
   </g>
   <g id="line2d_75">
    <path d="M 617.439949 222.088441 
L 1190.227058 315.657644 
" clip-path="url(#p5c70138aa5)" style="fill: none; stroke: #7a7a7a; stroke-width: 3; stroke-linecap: square"/>
   </g>
   <g id="line2d_76">
    <path d="M 599.36657 254.837662 
L 654.976968 263.556611 
L 661.928268 264.938883 
L 1054.378798 328.629738 
L 1071.657743 330.968968 
L 1172.153678 347.768893 
" clip-path="url(#p5c70138aa5)" style="fill: none; stroke: #7a7a7a; stroke-width: 3; stroke-linecap: square"/>
   </g>
   <g id="line2d_77">
    <path d="M 1296.68125 145.319164 
L 1192.014535 123.521793 
L 1146.93039 112.676272 
L 1108.996154 101.511765 
L 1078.609043 90.347258 
L 1055.570449 78.757436 
L 1039.681764 66.7423 
L 1030.148553 53.770206 
L 1026.772207 39.628497 
L 1027.963858 31.228534 
L 1028.956901 23.998187 
L 1035.908201 10.069135 
" clip-path="url(#p5c70138aa5)" style="fill: none; stroke: #7a7a7a; stroke-width: 3; stroke-linecap: square"/>
   </g>
   <g id="line2d_78">
    <path d="M 1314.158804 116.291446 
L 1270.663528 107.678826 
L 1263.315011 105.871239 
L 1200.951921 91.623201 
L 1154.477516 77.906807 
L 1123.494579 65.785342 
L 1105.619808 55.04615 
L 1097.874074 45.263915 
L 1097.278248 35.906994 
L 1102.839288 23.891858 
" clip-path="url(#p5c70138aa5)" style="fill: none; stroke: #7a7a7a; stroke-width: 3; stroke-linecap: square"/>
   </g>
   <g id="line2d_79">
    <path d="M 666.694874 509.388424 
L 666.893482 509.069438 
L 668.482351 506.411222 
L 761.033943 349.789137 
" clip-path="url(#p5c70138aa5)" style="fill: none; stroke: #7a7a7a; stroke-width: 3; stroke-linecap: square"/>
   </g>
   <g id="line2d_80">
    <path d="M 738.392567 509.388424 
L 738.591175 509.069438 
L 740.180044 506.411222 
L 823.992859 360.422001 
" clip-path="url(#p5c70138aa5)" style="fill: none; stroke: #7a7a7a; stroke-width: 3; stroke-linecap: square"/>
   </g>
   <g id="line2d_81">
    <path d="M 245.644711 59.830938 
L 671.064262 129.901511 
" clip-path="url(#p5c70138aa5)" style="fill: none; stroke: #7a7a7a; stroke-width: 3; stroke-linecap: square"/>
   </g>
   <g id="line2d_82">
    <path d="M 221.811683 90.878901 
L 651.600623 161.374789 
" clip-path="url(#p5c70138aa5)" style="fill: none; stroke: #7a7a7a; stroke-width: 3; stroke-linecap: square"/>
   </g>
   <g id="line2d_83">
    <path d="M 205.128563 118.418018 
L 634.917503 190.296178 
" clip-path="url(#p5c70138aa5)" style="fill: none; stroke: #7a7a7a; stroke-width: 3; stroke-linecap: square"/>
   </g>
   <g id="line2d_84">
    <path d="M 185.466315 150.529267 
L 617.439949 222.088441 
" clip-path="url(#p5c70138aa5)" style="fill: none; stroke: #7a7a7a; stroke-width: 3; stroke-linecap: square"/>
   </g>
   <g id="line2d_85">
    <path d="M 738.392567 509.388424 
L 738.591175 509.069438 
L 740.180044 506.411222 
L 823.992859 360.422001 
" clip-path="url(#p5c70138aa5)" style="fill: none; stroke: #7a7a7a; stroke-width: 3; stroke-linecap: square"/>
   </g>
   <g id="line2d_86">
    <path d="M 776.326803 509.388424 
L 776.525412 509.069438 
L 778.11428 506.411222 
L 860.536836 366.270076 
" clip-path="url(#p5c70138aa5)" style="fill: none; stroke: #7a7a7a; stroke-width: 3; stroke-linecap: square"/>
   </g>
   <g id="line2d_87">
    <path d="M 634.917503 190.296178 
L 1207.704612 284.503352 
" clip-path="url(#p5c70138aa5)" style="fill: none; stroke: #7a7a7a; stroke-width: 3; stroke-linecap: square"/>
   </g>
   <g id="line2d_88">
    <path d="M 617.439949 222.088441 
L 1190.227058 315.657644 
" clip-path="url(#p5c70138aa5)" style="fill: none; stroke: #7a7a7a; stroke-width: 3; stroke-linecap: square"/>
   </g>
   <g id="line2d_89">
    <path d="M 768.38246 522.785832 
L 775.929586 510.026396 
L 776.326803 509.388424 
" clip-path="url(#p5c70138aa5)" style="fill: none; stroke: #7a7a7a; stroke-width: 3; stroke-linecap: square"/>
   </g>
   <g id="line2d_90">
    <path d="M 845.442585 522.679504 
L 852.98971 510.026396 
L 853.386927 509.388424 
" clip-path="url(#p5c70138aa5)" style="fill: none; stroke: #7a7a7a; stroke-width: 3; stroke-linecap: square"/>
   </g>
   <g id="line2d_91">
    <path d="M 776.326803 509.388424 
L 776.525412 509.069438 
L 778.11428 506.411222 
L 860.536836 366.270076 
" clip-path="url(#p5c70138aa5)" style="fill: none; stroke: #7a7a7a; stroke-width: 3; stroke-linecap: square"/>
   </g>
   <g id="line2d_92">
    <path d="M 853.386927 509.388424 
L 853.585536 509.069438 
L 855.174405 506.304893 
L 886.753167 451.86463 
L 896.087769 434.639391 
L 929.652617 378.072555 
" clip-path="url(#p5c70138aa5)" style="fill: none; stroke: #7a7a7a; stroke-width: 3; stroke-linecap: square"/>
   </g>
   <g id="line2d_93">
    <path d="M 185.466315 150.529267 
L 617.439949 222.088441 
" clip-path="url(#p5c70138aa5)" style="fill: none; stroke: #7a7a7a; stroke-width: 3; stroke-linecap: square"/>
   </g>
   <g id="line2d_94">
    <path d="M 166.201284 182.959502 
L 599.36657 254.837662 
" clip-path="url(#p5c70138aa5)" style="fill: none; stroke: #7a7a7a; stroke-width: 3; stroke-linecap: square"/>
   </g>
   <g id="line2d_95">
    <path d="M 674.241999 621.246152 
L 768.38246 522.785832 
" clip-path="url(#p5c70138aa5)" style="fill: none; stroke: #7a7a7a; stroke-width: 3; stroke-linecap: square"/>
   </g>
   <g id="line2d_96">
    <path d="M 780.497583 631.985345 
L 793.208531 609.975316 
L 845.442585 522.679504 
" clip-path="url(#p5c70138aa5)" style="fill: none; stroke: #7a7a7a; stroke-width: 3; stroke-linecap: square"/>
   </g>
   <g id="line2d_97">
    <path d="M 651.600623 161.374789 
L 1223.791906 255.900949 
" clip-path="url(#p5c70138aa5)" style="fill: none; stroke: #7a7a7a; stroke-width: 3; stroke-linecap: square"/>
   </g>
   <g id="line2d_98">
    <path d="M 634.917503 190.296178 
L 1207.704612 284.503352 
" clip-path="url(#p5c70138aa5)" style="fill: none; stroke: #7a7a7a; stroke-width: 3; stroke-linecap: square"/>
   </g>
   <g id="line2d_99">
    <path d="M 1207.704612 284.503352 
L 1441 322.889455 
" clip-path="url(#p5c70138aa5)" style="fill: none; stroke: #7a7a7a; stroke-width: 3; stroke-linecap: square"/>
   </g>
   <g id="line2d_100">
    <path d="M 1190.227058 315.657644 
L 1441 357.123126 
" clip-path="url(#p5c70138aa5)" style="fill: none; stroke: #7a7a7a; stroke-width: 3; stroke-linecap: square"/>
   </g>
   <g id="line2d_101">
    <path d="M 674.241999 621.246152 
L 731.04405 522.785832 
" clip-path="url(#p5c70138aa5)" style="fill: none; stroke: #7a7a7a; stroke-width: 3; stroke-linecap: square"/>
   </g>
   <g id="line2d_102">
    <path d="M 780.497583 631.985345 
L 768.38246 522.785832 
" clip-path="url(#p5c70138aa5)" style="fill: none; stroke: #7a7a7a; stroke-width: 3; stroke-linecap: square"/>
   </g>
   <g id="line2d_103">
    <path d="M 671.660088 128.625568 
L 249.219665 49.942375 
" clip-path="url(#p5c70138aa5)" style="fill: none; stroke: #7a7a7a; stroke-width: 3; stroke-linecap: square"/>
   </g>
   <g id="line2d_104">
    <path d="M 687.945991 96.833305 
L 372.158368 37.07661 
L 268.286087 19.745041 
" clip-path="url(#p5c70138aa5)" style="fill: none; stroke: #7a7a7a; stroke-width: 3; stroke-linecap: square"/>
   </g>
   <g id="line2d_105">
    <path d="M 704.430502 340.219559 
L 711.779019 327.566451 
L 715.353973 319.591803 
L 885.714357 -1 
" clip-path="url(#p5c70138aa5)" style="fill: none; stroke: #7a7a7a; stroke-width: 3; stroke-linecap: square"/>
   </g>
   <g id="line2d_106">
    <path d="M 761.033943 349.789137 
L 963.18991 -1 
" clip-path="url(#p5c70138aa5)" style="fill: none; stroke: #7a7a7a; stroke-width: 3; stroke-linecap: square"/>
   </g>
   <g id="line2d_107">
    <path d="M 704.430502 340.219559 
L 712.772062 326.609494 
L 767.588026 221.663127 
L 771.957415 208.90369 
L 770.765763 194.86831 
L 762.622812 176.473455 
L 746.336909 159.460873 
L 720.517796 144.468535 
L 683.775211 131.921756 
L 671.660088 128.625568 
" clip-path="url(#p5c70138aa5)" style="fill: none; stroke: #7a7a7a; stroke-width: 3; stroke-linecap: square"/>
   </g>
   <g id="line2d_108">
    <path d="M 761.033943 349.789137 
L 817.04156 251.009831 
L 824.191468 231.764348 
L 828.362248 212.944178 
L 828.362248 194.655653 
L 823.794251 177.005098 
L 813.665214 160.098845 
L 797.180703 144.04322 
L 773.546283 129.050882 
L 741.967521 115.015502 
L 701.649982 102.256065 
L 687.945991 96.833305 
" clip-path="url(#p5c70138aa5)" style="fill: none; stroke: #7a7a7a; stroke-width: 3; stroke-linecap: square"/>
   </g>
   <g id="line2d_109">
    <path d="M 221.811683 90.878901 
L 651.600623 161.374789 
" clip-path="url(#p5c70138aa5)" style="fill: none; stroke: #7a7a7a; stroke-width: 3; stroke-linecap: square"/>
   </g>
   <g id="line2d_110">
    <path d="M 205.128563 118.418018 
L 634.917503 190.296178 
" clip-path="url(#p5c70138aa5)" style="fill: none; stroke: #7a7a7a; stroke-width: 3; stroke-linecap: square"/>
   </g>
   <g id="line2d_111">
    <path d="M 1441 269.858746 
L 1259.541448 237.187108 
L 1237.893114 233.14662 
" clip-path="url(#p5c70138aa5)" style="fill: none; stroke: #7a7a7a; stroke-width: 3; stroke-linecap: square"/>
   </g>
   <g id="line2d_112">
    <path d="M 1441 239.606473 
L 1356.26382 223.7897 
L 1256.959537 205.501174 
" clip-path="url(#p5c70138aa5)" style="fill: none; stroke: #7a7a7a; stroke-width: 3; stroke-linecap: square"/>
   </g>
   <g id="line2d_113">
    <path d="M 606.317869 509.388424 
L 606.516478 508.963109 
L 608.105346 506.304893 
L 704.430502 340.219559 
" clip-path="url(#p5c70138aa5)" style="fill: none; stroke: #7a7a7a; stroke-width: 3; stroke-linecap: square"/>
   </g>
   <g id="line2d_114">
    <path d="M 666.694874 509.388424 
L 666.893482 509.069438 
L 668.482351 506.411222 
L 761.033943 349.789137 
" clip-path="url(#p5c70138aa5)" style="fill: none; stroke: #7a7a7a; stroke-width: 3; stroke-linecap: square"/>
   </g>
   <g id="line2d_115">
    <path d="M 687.945991 96.833305 
L 372.158368 37.07661 
L 268.286087 19.745041 
" clip-path="url(#p5c70138aa5)" style="fill: none; stroke: #7a7a7a; stroke-width: 3; stroke-linecap: square"/>
   </g>
   <g id="line2d_116">
    <path d="M 704.430502 65.679013 
L 602.941524 47.071502 
L 400.360785 8.474206 
L 343.316346 -1 
" clip-path="url(#p5c70138aa5)" style="fill: none; stroke: #7a7a7a; stroke-width: 3; stroke-linecap: square"/>
   </g>
   <g id="line2d_117">
    <path d="M 1237.893114 233.14662 
L 671.660088 128.625568 
" clip-path="url(#p5c70138aa5)" style="fill: none; stroke: #7a7a7a; stroke-width: 3; stroke-linecap: square"/>
   </g>
   <g id="line2d_118">
    <path d="M 1256.959537 205.501174 
L 687.945991 96.833305 
" clip-path="url(#p5c70138aa5)" style="fill: none; stroke: #7a7a7a; stroke-width: 3; stroke-linecap: square"/>
   </g>
   <g id="line2d_119">
    <path d="M 671.064262 129.901511 
L 682.384951 131.709098 
L 720.319187 136.174901 
L 759.643684 137.557173 
L 799.564006 136.28123 
L 839.682936 132.559727 
L 879.007433 126.498995 
L 917.338886 118.524347 
L 953.882863 108.742112 
L 988.043536 97.471276 
L 1019.225081 84.924497 
L 1046.831672 71.314431 
L 1070.068875 56.960065 
L 1088.340863 42.074056 
L 1102.839288 23.891858 
" clip-path="url(#p5c70138aa5)" style="fill: none; stroke: #7a7a7a; stroke-width: 3; stroke-linecap: square"/>
   </g>
   <g id="line2d_120">
    <path d="M 651.600623 161.374789 
L 663.11992 163.288704 
L 700.855548 166.372235 
L 739.981435 166.903878 
L 779.901757 165.096291 
L 820.020688 161.055803 
L 859.94101 155.101399 
L 899.066898 147.339408 
L 937.001134 138.088817 
L 973.346502 127.349624 
L 1007.507176 115.440816 
L 1038.887329 102.68138 
L 1067.089746 89.071314 
L 1091.717208 74.823276 
L 1112.173891 60.256253 
L 1127.863968 45.582901 
L 1138.58883 30.909548 
" clip-path="url(#p5c70138aa5)" style="fill: none; stroke: #7a7a7a; stroke-width: 3; stroke-linecap: square"/>
   </g>
   <g id="line2d_121">
    <path d="M 1190.227058 315.657644 
L 1441 357.123126 
" clip-path="url(#p5c70138aa5)" style="fill: none; stroke: #7a7a7a; stroke-width: 3; stroke-linecap: square"/>
   </g>
   <g id="line2d_122">
    <path d="M 1172.153678 347.768893 
L 1441 392.593555 
" clip-path="url(#p5c70138aa5)" style="fill: none; stroke: #7a7a7a; stroke-width: 3; stroke-linecap: square"/>
   </g>
   <g id="line2d_123">
    <path d="M 1223.791906 255.900949 
L 1441 291.103809 
" clip-path="url(#p5c70138aa5)" style="fill: none; stroke: #7a7a7a; stroke-width: 3; stroke-linecap: square"/>
   </g>
   <g id="line2d_124">
    <path d="M 1207.704612 284.503352 
L 1441 322.889455 
" clip-path="url(#p5c70138aa5)" style="fill: none; stroke: #7a7a7a; stroke-width: 3; stroke-linecap: square"/>
   </g>
   <g id="line2d_125">
    <path d="M 1256.959537 205.501174 
L 687.945991 96.833305 
" clip-path="url(#p5c70138aa5)" style="fill: none; stroke: #7a7a7a; stroke-width: 3; stroke-linecap: square"/>
   </g>
   <g id="line2d_126">
    <path d="M 1276.621785 175.197512 
L 704.430502 65.679013 
" clip-path="url(#p5c70138aa5)" style="fill: none; stroke: #7a7a7a; stroke-width: 3; stroke-linecap: square"/>
   </g>
   <g id="line2d_127">
    <path d="M 1441 239.606473 
L 1356.26382 223.7897 
L 1256.959537 205.501174 
" clip-path="url(#p5c70138aa5)" style="fill: none; stroke: #7a7a7a; stroke-width: 3; stroke-linecap: square"/>
   </g>
   <g id="line2d_128">
    <path d="M 1441 205.013987 
L 1399.759097 197.420197 
L 1276.621785 175.197512 
" clip-path="url(#p5c70138aa5)" style="fill: none; stroke: #7a7a7a; stroke-width: 3; stroke-linecap: square"/>
   </g>
   <g id="line2d_129">
    <path d="M 1296.68125 145.319164 
L 1157.258036 115.547145 
L 1131.637531 103.106694 
L 1111.776674 87.582713 
L 1099.065725 69.506844 
L 1095.093554 49.091746 
L 1102.839288 23.891858 
" clip-path="url(#p5c70138aa5)" style="fill: none; stroke: #7a7a7a; stroke-width: 3; stroke-linecap: square"/>
   </g>
   <g id="line2d_130">
    <path d="M 1314.158804 116.291446 
L 1270.663528 107.678826 
L 1197.774184 92.154845 
L 1173.34533 86.094112 
L 1160.038556 79.927051 
L 1149.313693 71.208103 
L 1136.404136 51.430976 
L 1138.58883 30.909548 
" clip-path="url(#p5c70138aa5)" style="fill: none; stroke: #7a7a7a; stroke-width: 3; stroke-linecap: square"/>
   </g>
   <g id="line2d_131">
    <path d="M 671.064262 129.901511 
L 682.980776 132.028084 
L 699.862505 132.559727 
L 733.625961 129.369868 
L 768.38246 121.39522 
L 800.35844 109.69907 
L 825.383119 95.451032 
L 839.881545 79.820722 
L 885.271304 -1 
" clip-path="url(#p5c70138aa5)" style="fill: none; stroke: #7a7a7a; stroke-width: 3; stroke-linecap: square"/>
   </g>
   <g id="line2d_132">
    <path d="M 651.600623 161.374789 
L 688.541816 165.308948 
L 725.681618 165.308948 
L 762.225595 161.587446 
L 797.379311 154.782413 
L 829.752508 145.319164 
L 858.352142 133.623014 
L 882.383778 120.012948 
L 900.655766 105.233267 
L 912.175063 89.496629 
L 963.215892 -1 
" clip-path="url(#p5c70138aa5)" style="fill: none; stroke: #7a7a7a; stroke-width: 3; stroke-linecap: square"/>
   </g>
   <g id="line2d_133">
    <path d="M 761.033943 349.789137 
L 963.18991 -1 
" clip-path="url(#p5c70138aa5)" style="fill: none; stroke: #7a7a7a; stroke-width: 3; stroke-linecap: square"/>
   </g>
   <g id="line2d_134">
    <path d="M 823.992859 360.422001 
L 1035.908201 10.069135 
" clip-path="url(#p5c70138aa5)" style="fill: none; stroke: #7a7a7a; stroke-width: 3; stroke-linecap: square"/>
   </g>
   <g id="line2d_135">
    <path d="M 761.033943 349.789137 
L 1035.908201 10.069135 
" clip-path="url(#p5c70138aa5)" style="fill: none; stroke: #7a7a7a; stroke-width: 3; stroke-linecap: square"/>
   </g>
   <g id="line2d_136">
    <path d="M 823.992859 360.422001 
L 1102.839288 23.891858 
" clip-path="url(#p5c70138aa5)" style="fill: none; stroke: #7a7a7a; stroke-width: 3; stroke-linecap: square"/>
   </g>
   <g id="line2d_137">
    <path d="M -1 1274.194 
L 19.032335 1277.506512 
" clip-path="url(#p5c70138aa5)" style="fill: none; stroke: #7a7a7a; stroke-width: 3; stroke-linecap: square"/>
   </g>
   <g id="line2d_138">
    <path clip-path="url(#p5c70138aa5)" style="fill: none; stroke: #7a7a7a; stroke-width: 3; stroke-linecap: square"/>
   </g>
   <g id="line2d_139">
    <path d="M 19.032335 1277.506512 
L 66.102566 1285.162174 
L 113.570013 1290.478606 
L 159.249984 1291.222907 
L 202.546652 1288.033047 
L 243.261408 1281.653329 
L 280.798427 1272.721723 
L 314.561884 1262.088859 
L 344.15456 1250.392709 
L 368.980631 1238.377573 
L 388.642879 1226.787751 
L 402.744088 1216.154887 
L 410.489822 1207.754925 
" clip-path="url(#p5c70138aa5)" style="fill: none; stroke: #7a7a7a; stroke-width: 3; stroke-linecap: square"/>
   </g>
   <g id="line2d_140">
    <path d="M -1 1339.854563 
L 32.934935 1345.450512 
L 69.876128 1347.896071 
L 107.214539 1347.789742 
L 144.950167 1345.237855 
L 182.288578 1340.346738 
L 218.832554 1333.541705 
L 254.383488 1324.822756 
L 288.345553 1314.508878 
L 320.122924 1302.7064 
L 349.318383 1289.734306 
L 375.534714 1275.698925 
L 398.176091 1260.706587 
L 417.043904 1245.182606 
L 429.754853 1230.934568 
L 440.876933 1212.8587 
" clip-path="url(#p5c70138aa5)" style="fill: none; stroke: #7a7a7a; stroke-width: 3; stroke-linecap: square"/>
   </g>
   <g id="line2d_141">
    <path d="M 1142.087149 53.164319 
L 1131.006939 64.49516 
" clip-path="url(#p5c70138aa5)" style="fill: none; stroke-dasharray: 32,8,5,8; stroke-dashoffset: 0; stroke: #1e90ff; stroke-width: 5"/>
   </g>
   <g id="line2d_142">
    <path d="M 397.217135 1121.014083 
L 538.226309 844.326152 
" clip-path="url(#p5c70138aa5)" style="fill: none; stroke-dasharray: 32,8,5,8; stroke-dashoffset: 0; stroke: #1e90ff; stroke-width: 5"/>
   </g>
   <g id="line2d_143">
    <path d="M 1142.087149 53.164319 
" clip-path="url(#p5c70138aa5)" style="fill: none; stroke: #0000ff; stroke-width: 1.5; stroke-linecap: square"/>
    <defs>
     <path id="mf5306d6f01" d="M 0 10 
C 2.652031 10 5.195799 8.946337 7.071068 7.071068 
C 8.946337 5.195799 10 2.652031 10 0 
C 10 -2.652031 8.946337 -5.195799 7.071068 -7.071068 
C 5.195799 -8.946337 2.652031 -10 0 -10 
C -2.652031 -10 -5.195799 -8.946337 -7.071068 -7.071068 
C -8.946337 -5.195799 -10 -2.652031 -10 0 
C -10 2.652031 -8.946337 5.195799 -7.071068 7.071068 
C -5.195799 8.946337 -2.652031 10 0 10 
z
" style="stroke: #0000ff"/>
    </defs>
    <g clip-path="url(#p5c70138aa5)">
     <use xlink:href="#mf5306d6f01" x="1142.087149" y="53.164319" style="fill: #0000ff; stroke: #0000ff"/>
    </g>
   </g>
   <g id="line2d_144">
    <path d="M 397.217135 1121.014083 
" clip-path="url(#p5c70138aa5)" style="fill: none; stroke: #0000ff; stroke-width: 1.5; stroke-linecap: square"/>
    <g clip-path="url(#p5c70138aa5)">
     <use xlink:href="#mf5306d6f01" x="397.217135" y="1121.014083" style="fill: #0000ff; stroke: #0000ff"/>
    </g>
   </g>
   <g id="line2d_145">
    <path d="M 1131.006939 64.49516 
" clip-path="url(#p5c70138aa5)" style="fill: none; stroke: #ff0000; stroke-width: 1.5; stroke-linecap: square"/>
    <defs>
     <path id="mc3be71ee82" d="M 0 -10 
L -2.24514 -3.09017 
L -9.510565 -3.09017 
L -3.632713 1.18034 
L -5.877853 8.09017 
L -0 3.81966 
L 5.877853 8.09017 
L 3.632713 1.18034 
L 9.510565 -3.09017 
L 2.24514 -3.09017 
z
" style="stroke: #ff0000; stroke-linejoin: bevel"/>
    </defs>
    <g clip-path="url(#p5c70138aa5)">
     <use xlink:href="#mc3be71ee82" x="1131.006939" y="64.49516" style="fill: #ff0000; stroke: #ff0000; stroke-linejoin: bevel"/>
    </g>
   </g>
   <g id="line2d_146">
    <path d="M 538.226309 844.326152 
" clip-path="url(#p5c70138aa5)" style="fill: none; stroke: #ff0000; stroke-width: 1.5; stroke-linecap: square"/>
    <g clip-path="url(#p5c70138aa5)">
     <use xlink:href="#mc3be71ee82" x="538.226309" y="844.326152" style="fill: #ff0000; stroke: #ff0000; stroke-linejoin: bevel"/>
    </g>
   </g>
  </g>
 </g>
 <defs>
  <clipPath id="p5c70138aa5">
   <rect x="0" y="0" width="1440" height="1440"/>
  </clipPath>
 </defs>
</svg>
