<?xml version="1.0" encoding="utf-8" standalone="no"?>
<!DOCTYPE svg PUBLIC "-//W3C//DTD SVG 1.1//EN"
  "http://www.w3.org/Graphics/SVG/1.1/DTD/svg11.dtd">
<svg xmlns:xlink="http://www.w3.org/1999/xlink" width="1440pt" height="1440pt" viewBox="0 0 1440 1440" xmlns="http://www.w3.org/2000/svg" version="1.1">
 <metadata>
  <rdf:RDF xmlns:dc="http://purl.org/dc/elements/1.1/" xmlns:cc="http://creativecommons.org/ns#" xmlns:rdf="http://www.w3.org/1999/02/22-rdf-syntax-ns#">
   <cc:Work>
    <dc:type rdf:resource="http://purl.org/dc/dcmitype/StillImage"/>
    <dc:date>2026-02-27T11:11:30.286510</dc:date>
    <dc:format>image/svg+xml</dc:format>
    <dc:creator>
     <cc:Agent>
      <dc:title>Matplotlib v3.7.3, https://matplotlib.org/</dc:title>
     </cc:Agent>
    </dc:creator>
   </cc:Work>
  </rdf:RDF>
 </metadata>
 <defs>
  <style type="text/css">*{stroke-linejoin: round; stroke-linecap: butt}</style>
 </defs>
 <g id="figure_1">
  <g id="patch_1">
   <path d="M 0 1440 
L 1440 1440 
L 1440 0 
L 0 0 
z
" style="fill: #ffffff"/>
  </g>
  <g id="axes_1">
   <g id="line2d_1">
    <path d="M 908.897506 693.198766 
L 1139.611818 867.859455 
" clip-path="url(#pc9454b41ad)" style="fill: none; stroke: #7a7a7a; stroke-width: 3; stroke-linecap: square"/>
   </g>
   <g id="line2d_2">
    <path d="M 892.258945 746.253845 
L 1093.617325 899.018788 
L 1123.609126 921.58825 
" clip-path="url(#pc9454b41ad)" style="fill: none; stroke: #7a7a7a; stroke-width: 3; stroke-linecap: square"/>
   </g>
   <g id="line2d_3">
    <path d="M 971.53056 1022.140257 
L 840.666955 1441 
" clip-path="url(#pc9454b41ad)" style="fill: none; stroke: #7a7a7a; stroke-width: 3; stroke-linecap: square"/>
   </g>
   <g id="line2d_4">
    <path d="M 934.968117 994.349501 
L 794.975927 1441 
" clip-path="url(#pc9454b41ad)" style="fill: none; stroke: #7a7a7a; stroke-width: 3; stroke-linecap: square"/>
   </g>
   <g id="line2d_5">
    <path d="M 923.416505 645.196552 
L 258.615917 141.931229 
" clip-path="url(#pc9454b41ad)" style="fill: none; stroke: #7a7a7a; stroke-width: 3; stroke-linecap: square"/>
   </g>
   <g id="line2d_6">
    <path d="M 935.603986 606.121065 
L 438.6727 229.00893 
L 258.615917 93.760586 
" clip-path="url(#pc9454b41ad)" style="fill: none; stroke: #7a7a7a; stroke-width: 3; stroke-linecap: square"/>
   </g>
   <g id="line2d_7">
    <path d="M 840.666955 1441 
L 971.53056 1022.140257 
" clip-path="url(#pc9454b41ad)" style="fill: none; stroke: #7a7a7a; stroke-width: 3; stroke-linecap: square"/>
   </g>
   <g id="line2d_8">
    <path d="M 881.762938 1441 
L 987.745208 1103.996665 
L 1005.337572 1047.909867 
" clip-path="url(#pc9454b41ad)" style="fill: none; stroke: #7a7a7a; stroke-width: 3; stroke-linecap: square"/>
   </g>
   <g id="line2d_9">
    <path d="M 908.897506 693.198766 
L 258.615917 202.228748 
" clip-path="url(#pc9454b41ad)" style="fill: none; stroke: #7a7a7a; stroke-width: 3; stroke-linecap: square"/>
   </g>
   <g id="line2d_10">
    <path d="M 923.416505 645.196552 
L 258.615917 141.931229 
" clip-path="url(#pc9454b41ad)" style="fill: none; stroke: #7a7a7a; stroke-width: 3; stroke-linecap: square"/>
   </g>
   <g id="line2d_11">
    <path d="M 1221.956797 871.228032 
L 1153.600926 819.520383 
" clip-path="url(#pc9454b41ad)" style="fill: none; stroke: #7a7a7a; stroke-width: 3; stroke-linecap: square"/>
   </g>
   <g id="line2d_12">
    <path d="M 1234.356235 829.96297 
L 1208.603558 810.425227 
L 1166.424276 778.929037 
" clip-path="url(#pc9454b41ad)" style="fill: none; stroke: #7a7a7a; stroke-width: 3; stroke-linecap: square"/>
   </g>
   <g id="line2d_13">
    <path d="M 1069.136385 564.687574 
L 1067.228779 571.08787 
L 1055.253255 602.920917 
L 1042.747839 628.690527 
L 1029.288621 648.22827 
L 1014.875601 662.039434 
L 999.402799 669.78716 
L 982.552282 671.976734 
L 964.430028 668.439729 
L 944.718102 659.513002 
L 923.416505 645.196552 
" clip-path="url(#pc9454b41ad)" style="fill: none; stroke: #7a7a7a; stroke-width: 3; stroke-linecap: square"/>
   </g>
   <g id="line2d_14">
    <path d="M 1038.508716 539.254822 
L 1030.242424 566.203434 
L 1024.413629 583.046316 
L 1018.478856 596.015335 
L 1011.59028 606.626351 
L 1003.853879 615.38465 
L 997.389215 620.437515 
L 991.454442 623.469233 
L 984.565865 625.490379 
L 977.571311 626.164095 
L 968.987086 625.153522 
L 961.462641 622.963947 
L 954.468087 619.763799 
L 948.003423 615.553079 
L 935.603986 606.121065 
" clip-path="url(#pc9454b41ad)" style="fill: none; stroke: #7a7a7a; stroke-width: 3; stroke-linecap: square"/>
   </g>
   <g id="line2d_15">
    <path d="M 258.615917 202.228748 
L 908.897506 693.198766 
" clip-path="url(#pc9454b41ad)" style="fill: none; stroke: #7a7a7a; stroke-width: 3; stroke-linecap: square"/>
   </g>
   <g id="line2d_16">
    <path d="M 258.615917 269.431848 
L 284.05066 288.632734 
L 470.466129 428.260228 
L 554.506758 491.252608 
L 892.258945 746.253845 
" clip-path="url(#pc9454b41ad)" style="fill: none; stroke: #7a7a7a; stroke-width: 3; stroke-linecap: square"/>
   </g>
   <g id="line2d_17">
    <path d="M 934.968117 994.349501 
L 794.975927 1441 
" clip-path="url(#pc9454b41ad)" style="fill: none; stroke: #7a7a7a; stroke-width: 3; stroke-linecap: square"/>
   </g>
   <g id="line2d_18">
    <path d="M 903.386645 970.26418 
L 755.866011 1441 
" clip-path="url(#pc9454b41ad)" style="fill: none; stroke: #7a7a7a; stroke-width: 3; stroke-linecap: square"/>
   </g>
   <g id="line2d_19">
    <path d="M 908.897506 693.198766 
L 926.383892 705.830928 
L 945.777883 712.904938 
L 966.549589 714.926084 
L 987.851186 712.231223 
L 1009.152783 705.325641 
L 1029.92449 694.546197 
L 1049.424459 680.398176 
L 1067.228779 663.386865 
L 1082.489625 643.849121 
L 1094.677106 622.290232 
L 1103.261331 599.047054 
L 1124.45695 531.507096 
" clip-path="url(#pc9454b41ad)" style="fill: none; stroke: #7a7a7a; stroke-width: 3; stroke-linecap: square"/>
   </g>
   <g id="line2d_20">
    <path d="M 892.258945 746.253845 
L 910.593155 758.043863 
L 930.199103 764.949445 
L 950.546897 768.318021 
L 971.318604 767.981163 
L 992.09031 764.612587 
L 1012.756039 758.043863 
L 1032.997855 748.611849 
L 1052.391846 736.653402 
L 1070.726056 722.505381 
L 1087.78853 706.167785 
L 1103.261331 687.977473 
L 1116.720549 668.2713 
L 1128.060206 647.386126 
L 1136.856387 625.153522 
L 1158.052006 557.613564 
" clip-path="url(#pc9454b41ad)" style="fill: none; stroke: #7a7a7a; stroke-width: 3; stroke-linecap: square"/>
   </g>
   <g id="line2d_21">
    <path d="M 1088.000486 504.895342 
L 1069.136385 564.687574 
" clip-path="url(#pc9454b41ad)" style="fill: none; stroke: #7a7a7a; stroke-width: 3; stroke-linecap: square"/>
   </g>
   <g id="line2d_22">
    <path d="M 1057.16086 479.294161 
L 1038.508716 539.254822 
" clip-path="url(#pc9454b41ad)" style="fill: none; stroke: #7a7a7a; stroke-width: 3; stroke-linecap: square"/>
   </g>
   <g id="line2d_23">
    <path d="M 908.897506 693.198766 
L 948.533313 724.694956 
L 959.449057 738.842977 
L 965.913721 753.664714 
L 972.166428 768.654879 
L 977.253377 790.719055 
L 980.43272 815.64652 
L 980.326742 839.394984 
L 977.041421 861.290731 
L 934.968117 994.349501 
" clip-path="url(#pc9454b41ad)" style="fill: none; stroke: #7a7a7a; stroke-width: 3; stroke-linecap: square"/>
   </g>
   <g id="line2d_24">
    <path d="M 892.258945 746.253845 
L 917.799666 766.802162 
L 929.563234 777.07632 
L 934.120292 782.8029 
L 937.935504 788.866337 
L 941.220825 796.277206 
L 943.658321 803.856503 
L 945.036036 811.604229 
L 945.671905 819.520383 
L 945.565927 827.268109 
L 944.400168 835.857979 
L 941.962671 846.132137 
L 938.253438 858.764299 
L 903.386645 970.26418 
" clip-path="url(#pc9454b41ad)" style="fill: none; stroke: #7a7a7a; stroke-width: 3; stroke-linecap: square"/>
   </g>
   <g id="line2d_25">
    <path d="M 1139.611818 867.859455 
L 1207.437798 919.230246 
" clip-path="url(#pc9454b41ad)" style="fill: none; stroke: #7a7a7a; stroke-width: 3; stroke-linecap: square"/>
   </g>
   <g id="line2d_26">
    <path d="M 1123.609126 921.58825 
L 1191.22315 972.790612 
" clip-path="url(#pc9454b41ad)" style="fill: none; stroke: #7a7a7a; stroke-width: 3; stroke-linecap: square"/>
   </g>
   <g id="line2d_27">
    <path d="M 1207.437798 919.230246 
L 1142.685183 870.891174 
L 1127.000425 857.416868 
L 1107.500455 846.300566 
L 1085.774946 839.226556 
L 1063.625524 838.384411 
L 1043.065774 845.289993 
L 1025.685366 861.796018 
L 1013.497885 889.923631 
L 971.53056 1022.140257 
" clip-path="url(#pc9454b41ad)" style="fill: none; stroke: #7a7a7a; stroke-width: 3; stroke-linecap: square"/>
   </g>
   <g id="line2d_28">
    <path d="M 1221.956797 871.228032 
L 1157.098204 822.88896 
L 1139.293884 811.267371 
L 1120.111849 801.666928 
L 1100.081989 794.592917 
L 1079.522238 790.382197 
L 1059.174444 789.87691 
L 1039.35654 793.582345 
L 1020.810374 802.172214 
L 1003.853879 815.983378 
L 989.016945 835.857979 
L 976.935443 862.132875 
L 934.968117 994.349501 
" clip-path="url(#pc9454b41ad)" style="fill: none; stroke: #7a7a7a; stroke-width: 3; stroke-linecap: square"/>
   </g>
   <g id="line2d_29">
    <path d="M 971.53056 1022.140257 
L 1124.45695 531.507096 
" clip-path="url(#pc9454b41ad)" style="fill: none; stroke: #7a7a7a; stroke-width: 3; stroke-linecap: square"/>
   </g>
   <g id="line2d_30">
    <path d="M 1005.337572 1047.909867 
L 1016.04136 1013.718816 
L 1123.397169 669.113444 
L 1126.788468 657.323427 
L 1158.052006 557.613564 
" clip-path="url(#pc9454b41ad)" style="fill: none; stroke: #7a7a7a; stroke-width: 3; stroke-linecap: square"/>
   </g>
   <g id="line2d_31">
    <path d="M 1069.136385 564.687574 
L 934.968117 994.349501 
" clip-path="url(#pc9454b41ad)" style="fill: none; stroke: #7a7a7a; stroke-width: 3; stroke-linecap: square"/>
   </g>
   <g id="line2d_32">
    <path d="M 1038.508716 539.254822 
L 1030.242424 566.203434 
L 1024.201673 583.383174 
L 903.386645 970.26418 
" clip-path="url(#pc9454b41ad)" style="fill: none; stroke: #7a7a7a; stroke-width: 3; stroke-linecap: square"/>
   </g>
   <g id="line2d_33">
    <path d="M 1124.45695 531.507096 
L 1091.179829 638.29097 
L 1083.019515 663.723722 
L 1079.204304 692.525051 
L 1079.41626 723.010668 
L 1083.125493 754.17 
L 1090.01407 784.318759 
L 1099.44612 812.109515 
L 1111.209689 836.194837 
L 1124.668907 855.395723 
L 1139.611818 867.859455 
" clip-path="url(#pc9454b41ad)" style="fill: none; stroke: #7a7a7a; stroke-width: 3; stroke-linecap: square"/>
   </g>
   <g id="line2d_34">
    <path d="M 1088.000486 504.895342 
L 1054.723364 611.679216 
L 1047.72881 641.322689 
L 1044.019577 672.65045 
L 1043.489686 705.325641 
L 1045.821204 738.506119 
L 1050.802175 771.34974 
L 1058.220641 803.351216 
L 1067.75867 833.331547 
L 1079.41626 860.953874 
L 1092.663522 885.376053 
L 1107.500455 905.924369 
L 1123.609126 921.58825 
" clip-path="url(#pc9454b41ad)" style="fill: none; stroke: #7a7a7a; stroke-width: 3; stroke-linecap: square"/>
   </g>
   <g id="line2d_35">
    <path d="M 1153.600926 819.520383 
L 1127.318359 799.140496 
L 1113.859141 787.350478 
L 1100.717857 770.844453 
L 1089.696135 748.948706 
L 1082.913537 721.157951 
L 1081.959734 686.630042 
L 1088.742333 645.028123 
L 1124.45695 531.507096 
" clip-path="url(#pc9454b41ad)" style="fill: none; stroke: #7a7a7a; stroke-width: 3; stroke-linecap: square"/>
   </g>
   <g id="line2d_36">
    <path d="M 1166.424276 778.929037 
L 1146.818328 764.107301 
L 1133.889001 753.327856 
L 1129.967811 748.780278 
L 1126.68249 744.064271 
L 1123.609126 737.832404 
L 1121.065651 731.095251 
L 1118.946089 722.336952 
L 1117.674352 714.589227 
L 1116.932506 702.63078 
L 1117.886309 691.346049 
L 1120.429783 679.387603 
L 1122.549345 671.976734 
L 1122.443367 671.13459 
L 1158.052006 557.613564 
" clip-path="url(#pc9454b41ad)" style="fill: none; stroke: #7a7a7a; stroke-width: 3; stroke-linecap: square"/>
   </g>
   <g id="line2d_37">
    <path d="M 1124.45695 531.507096 
L 1202.138894 282.737725 
" clip-path="url(#pc9454b41ad)" style="fill: none; stroke: #7a7a7a; stroke-width: 3; stroke-linecap: square"/>
   </g>
   <g id="line2d_38">
    <path d="M 1158.052006 557.613564 
L 1227.679615 334.613802 
L 1235.839928 308.170477 
" clip-path="url(#pc9454b41ad)" style="fill: none; stroke: #7a7a7a; stroke-width: 3; stroke-linecap: square"/>
   </g>
   <g id="line2d_39">
    <path d="M 1153.600926 819.520383 
L 923.416505 645.196552 
" clip-path="url(#pc9454b41ad)" style="fill: none; stroke: #7a7a7a; stroke-width: 3; stroke-linecap: square"/>
   </g>
   <g id="line2d_40">
    <path d="M 1166.424276 778.929037 
L 951.076788 617.574225 
L 948.003423 615.553079 
L 935.603986 606.121065 
" clip-path="url(#pc9454b41ad)" style="fill: none; stroke: #7a7a7a; stroke-width: 3; stroke-linecap: square"/>
   </g>
   <g id="line2d_41">
    <path d="M 1207.437798 919.230246 
L 908.897506 693.198766 
" clip-path="url(#pc9454b41ad)" style="fill: none; stroke: #7a7a7a; stroke-width: 3; stroke-linecap: square"/>
   </g>
   <g id="line2d_42">
    <path d="M 1221.956797 871.228032 
L 923.416505 645.196552 
" clip-path="url(#pc9454b41ad)" style="fill: none; stroke: #7a7a7a; stroke-width: 3; stroke-linecap: square"/>
   </g>
   <g id="line2d_43">
    <path d="M 971.53056 1022.140257 
L 975.875662 1008.160665 
L 983.718041 976.159188 
L 988.275099 942.641853 
L 989.652814 908.450802 
L 988.063143 874.259751 
L 983.612063 840.742415 
L 976.617508 808.57251 
L 967.185458 778.592179 
L 955.527868 751.30671 
L 941.750715 727.558246 
L 926.171935 707.852074 
L 908.897506 693.198766 
" clip-path="url(#pc9454b41ad)" style="fill: none; stroke: #7a7a7a; stroke-width: 3; stroke-linecap: square"/>
   </g>
   <g id="line2d_44">
    <path d="M 1005.337572 1047.909867 
L 1009.682674 1034.098704 
L 1016.147338 1004.62366 
L 1020.49244 973.632756 
L 1022.71798 941.294422 
L 1022.823958 908.282373 
L 1020.916352 874.933466 
L 1016.995162 841.752988 
L 1011.272345 809.414654 
L 1003.747901 778.42375 
L 994.421828 748.948706 
L 983.294128 721.831666 
L 970.682735 697.241058 
L 956.375692 676.019026 
L 940.584956 658.502429 
L 923.416505 645.196552 
" clip-path="url(#pc9454b41ad)" style="fill: none; stroke: #7a7a7a; stroke-width: 3; stroke-linecap: square"/>
   </g>
   <g id="line2d_45">
    <path d="M 1202.138894 282.737725 
L 1124.45695 531.507096 
" clip-path="url(#pc9454b41ad)" style="fill: none; stroke: #7a7a7a; stroke-width: 3; stroke-linecap: square"/>
   </g>
   <g id="line2d_46">
    <path d="M 1166.106342 255.452256 
L 1088.000486 504.895342 
" clip-path="url(#pc9454b41ad)" style="fill: none; stroke: #7a7a7a; stroke-width: 3; stroke-linecap: square"/>
   </g>
   <g id="line2d_47">
    <path d="M 1166.106342 255.452256 
L 1088.000486 504.895342 
" clip-path="url(#pc9454b41ad)" style="fill: none; stroke: #7a7a7a; stroke-width: 3; stroke-linecap: square"/>
   </g>
   <g id="line2d_48">
    <path d="M 1134.524869 231.198505 
L 1102.519485 333.266372 
L 1057.16086 479.294161 
" clip-path="url(#pc9454b41ad)" style="fill: none; stroke: #7a7a7a; stroke-width: 3; stroke-linecap: square"/>
   </g>
   <g id="line2d_49">
    <path d="M 1124.45695 531.507096 
L 971.53056 1022.140257 
" clip-path="url(#pc9454b41ad)" style="fill: none; stroke: #7a7a7a; stroke-width: 3; stroke-linecap: square"/>
   </g>
   <g id="line2d_50">
    <path d="M 1088.000486 504.895342 
L 934.968117 994.349501 
" clip-path="url(#pc9454b41ad)" style="fill: none; stroke: #7a7a7a; stroke-width: 3; stroke-linecap: square"/>
   </g>
   <g id="line2d_51">
    <path d="M 1281.032858 934.713532 
L 1235.655812 914.370796 
" clip-path="url(#pc9454b41ad)" style="fill: none; stroke-dasharray: 32,8,5,8; stroke-dashoffset: 0; stroke: #1e90ff; stroke-width: 5"/>
   </g>
   <g id="line2d_52">
    <path d="M 242.179739 84.214411 
L 211.956189 193.186595 
" clip-path="url(#pc9454b41ad)" style="fill: none; stroke-dasharray: 32,8,5,8; stroke-dashoffset: 0; stroke: #1e90ff; stroke-width: 5"/>
   </g>
   <g id="line2d_53">
    <path d="M 653.725851 556.362015 
L 744.553683 622.549022 
" clip-path="url(#pc9454b41ad)" style="fill: none; stroke-dasharray: 32,8,5,8; stroke-dashoffset: 0; stroke: #1e90ff; stroke-width: 5"/>
   </g>
   <g id="line2d_54">
    <path d="M 1281.032858 934.713532 
" clip-path="url(#pc9454b41ad)" style="fill: none; stroke: #0000ff; stroke-width: 1.5; stroke-linecap: square"/>
    <defs>
     <path id="m74e6ae1bf8" d="M 0 10 
C 2.652031 10 5.195799 8.946337 7.071068 7.071068 
C 8.946337 5.195799 10 2.652031 10 0 
C 10 -2.652031 8.946337 -5.195799 7.071068 -7.071068 
C 5.195799 -8.946337 2.652031 -10 0 -10 
C -2.652031 -10 -5.195799 -8.946337 -7.071068 -7.071068 
C -8.946337 -5.195799 -10 -2.652031 -10 0 
C -10 2.652031 -8.946337 5.195799 -7.071068 7.071068 
C -5.195799 8.946337 -2.652031 10 0 10 
z
" style="stroke: #0000ff"/>
    </defs>
    <g clip-path="url(#pc9454b41ad)">
     <use xlink:href="#m74e6ae1bf8" x="1281.032858" y="934.713532" style="fill: #0000ff; stroke: #0000ff"/>
    </g>
   </g>
   <g id="line2d_55">
    <path d="M 242.179739 84.214411 
" clip-path="url(#pc9454b41ad)" style="fill: none; stroke: #0000ff; stroke-width: 1.5; stroke-linecap: square"/>
    <g clip-path="url(#pc9454b41ad)">
     <use xlink:href="#m74e6ae1bf8" x="242.179739" y="84.214411" style="fill: #0000ff; stroke: #0000ff"/>
    </g>
   </g>
   <g id="line2d_56">
    <path d="M 653.725851 556.362015 
" clip-path="url(#pc9454b41ad)" style="fill: none; stroke: #0000ff; stroke-width: 1.5; stroke-linecap: square"/>
    <g clip-path="url(#pc9454b41ad)">
     <use xlink:href="#m74e6ae1bf8" x="653.725851" y="556.362015" style="fill: #0000ff; stroke: #0000ff"/>
    </g>
   </g>
   <g id="line2d_57">
    <path d="M 1235.655812 914.370796 
" clip-path="url(#pc9454b41ad)" style="fill: none; stroke: #ff0000; stroke-width: 1.5; stroke-linecap: square"/>
    <defs>
     <path id="m512108133b" d="M 0 -10 
L -2.24514 -3.09017 
L -9.510565 -3.09017 
L -3.632713 1.18034 
L -5.877853 8.09017 
L -0 3.81966 
L 5.877853 8.09017 
L 3.632713 1.18034 
L 9.510565 -3.09017 
L 2.24514 -3.09017 
z
" style="stroke: #ff0000; stroke-linejoin: bevel"/>
    </defs>
    <g clip-path="url(#pc9454b41ad)">
     <use xlink:href="#m512108133b" x="1235.655812" y="914.370796" style="fill: #ff0000; stroke: #ff0000; stroke-linejoin: bevel"/>
    </g>
   </g>
   <g id="line2d_58">
    <path d="M 211.956189 193.186595 
" clip-path="url(#pc9454b41ad)" style="fill: none; stroke: #ff0000; stroke-width: 1.5; stroke-linecap: square"/>
    <g clip-path="url(#pc9454b41ad)">
     <use xlink:href="#m512108133b" x="211.956189" y="193.186595" style="fill: #ff0000; stroke: #ff0000; stroke-linejoin: bevel"/>
    </g>
   </g>
   <g id="line2d_59">
    <path d="M 744.553683 622.549022 
" clip-path="url(#pc9454b41ad)" style="fill: none; stroke: #ff0000; stroke-width: 1.5; stroke-linecap: square"/>
    <g clip-path="url(#pc9454b41ad)">
     <use xlink:href="#m512108133b" x="744.553683" y="622.549022" style="fill: #ff0000; stroke: #ff0000; stroke-linejoin: bevel"/>
    </g>
   </g>
  </g>
 </g>
 <defs>
  <clipPath id="pc9454b41ad">
   <rect x="0" y="0" width="1440" height="1440"/>
  </clipPath>
 </defs>
</svg>
