<?xml version="1.0" encoding="utf-8" standalone="no"?>
<!DOCTYPE svg PUBLIC "-//W3C//DTD SVG 1.1//EN"
  "http://www.w3.org/Graphics/SVG/1.1/DTD/svg11.dtd">
<svg xmlns:xlink="http://www.w3.org/1999/xlink" width="1440pt" height="1440pt" viewBox="0 0 1440 1440" xmlns="http://www.w3.org/2000/svg" version="1.1">
 <metadata>
  <rdf:RDF xmlns:dc="http://purl.org/dc/elements/1.1/" xmlns:cc="http://creativecommons.org/ns#" xmlns:rdf="http://www.w3.org/1999/02/22-rdf-syntax-ns#">
   <cc:Work>
    <dc:type rdf:resource="http://purl.org/dc/dcmitype/StillImage"/>
    <dc:date>2026-02-27T11:11:59.372648</dc:date>
    <dc:format>image/svg+xml</dc:format>
    <dc:creator>
     <cc:Agent>
      <dc:title>Matplotlib v3.7.3, https://matplotlib.org/</dc:title>
     </cc:Agent>
    </dc:creator>
   </cc:Work>
  </rdf:RDF>
 </metadata>
 <defs>
  <style type="text/css">*{stroke-linejoin: round; stroke-linecap: butt}</style>
 </defs>
 <g id="figure_1">
  <g id="patch_1">
   <path d="M 0 1440 
L 1440 1440 
L 1440 0 
L 0 0 
z
" style="fill: #ffffff"/>
  </g>
  <g id="axes_1">
   <g id="line2d_1">
    <path d="M 791.087982 761.101064 
L 972.158403 699.386061 
" clip-path="url(#p7ae88b5998)" style="fill: none; stroke: #7a7a7a; stroke-width: 3; stroke-linecap: square"/>
   </g>
   <g id="line2d_2">
    <path d="M 791.087982 807.530175 
L 982.943582 742.815137 
" clip-path="url(#p7ae88b5998)" style="fill: none; stroke: #7a7a7a; stroke-width: 3; stroke-linecap: square"/>
   </g>
   <g id="line2d_3">
    <path d="M 666.020104 706.957577 
L 790.552073 665.099948 
L 791.087982 664.957089 
" clip-path="url(#p7ae88b5998)" style="fill: none; stroke: #7a7a7a; stroke-width: 3; stroke-linecap: square"/>
   </g>
   <g id="line2d_4">
    <path d="M 667.828799 751.243806 
L 790.552073 707.529012 
L 791.087982 707.386154 
" clip-path="url(#p7ae88b5998)" style="fill: none; stroke: #7a7a7a; stroke-width: 3; stroke-linecap: square"/>
   </g>
   <g id="line2d_5">
    <path d="M 188.1898 913.817125 
L 489.102982 812.101657 
" clip-path="url(#p7ae88b5998)" style="fill: none; stroke: #7a7a7a; stroke-width: 3; stroke-linecap: square"/>
   </g>
   <g id="line2d_6">
    <path d="M 188.1898 967.532035 
L 367.183572 905.388456 
L 489.839857 865.102273 
" clip-path="url(#p7ae88b5998)" style="fill: none; stroke: #7a7a7a; stroke-width: 3; stroke-linecap: square"/>
   </g>
   <g id="line2d_7">
    <path d="M 959.631519 648.671185 
L 1163.61207 578.098936 
" clip-path="url(#p7ae88b5998)" style="fill: none; stroke: #7a7a7a; stroke-width: 3; stroke-linecap: square"/>
   </g>
   <g id="line2d_8">
    <path d="M 972.158403 699.386061 
L 1169.975995 630.099541 
" clip-path="url(#p7ae88b5998)" style="fill: none; stroke: #7a7a7a; stroke-width: 3; stroke-linecap: square"/>
   </g>
   <g id="line2d_9">
    <path d="M 1169.975995 630.099541 
L 1393.450255 553.81294 
L 1393.986164 553.670081 
" clip-path="url(#p7ae88b5998)" style="fill: none; stroke: #7a7a7a; stroke-width: 3; stroke-linecap: square"/>
   </g>
   <g id="line2d_10">
    <path d="M 1177.344751 673.528617 
L 1393.450255 599.813474 
L 1393.986164 599.670616 
" clip-path="url(#p7ae88b5998)" style="fill: none; stroke: #7a7a7a; stroke-width: 3; stroke-linecap: square"/>
   </g>
   <g id="line2d_11">
    <path d="M 984.618299 350.524862 
L 1108.413392 861.673662 
" clip-path="url(#p7ae88b5998)" style="fill: none; stroke: #7a7a7a; stroke-width: 3; stroke-linecap: square"/>
   </g>
   <g id="line2d_12">
    <path d="M 953.267593 370.525094 
L 1059.846594 786.529931 
L 1062.727108 794.815741 
L 1066.143531 806.530163 
L 1071.636603 827.958984 
L 1075.187003 843.95917 
L 1085.704227 887.673964 
" clip-path="url(#p7ae88b5998)" style="fill: none; stroke: #7a7a7a; stroke-width: 3; stroke-linecap: square"/>
   </g>
   <g id="line2d_13">
    <path d="M 1393.986164 498.098006 
L 1393.450255 498.240865 
L 1163.61207 578.098936 
" clip-path="url(#p7ae88b5998)" style="fill: none; stroke: #7a7a7a; stroke-width: 3; stroke-linecap: square"/>
   </g>
   <g id="line2d_14">
    <path d="M 1393.986164 455.8118 
L 1393.450255 455.954659 
L 1160.597579 536.527024 
" clip-path="url(#p7ae88b5998)" style="fill: none; stroke: #7a7a7a; stroke-width: 3; stroke-linecap: square"/>
   </g>
   <g id="line2d_15">
    <path d="M 949.918159 609.527873 
L 791.087982 664.957089 
" clip-path="url(#p7ae88b5998)" style="fill: none; stroke: #7a7a7a; stroke-width: 3; stroke-linecap: square"/>
   </g>
   <g id="line2d_16">
    <path d="M 938.195139 562.384468 
L 791.087982 612.813626 
" clip-path="url(#p7ae88b5998)" style="fill: none; stroke: #7a7a7a; stroke-width: 3; stroke-linecap: square"/>
   </g>
   <g id="line2d_17">
    <path d="M 1163.61207 578.098936 
L 1393.450255 498.240865 
L 1393.986164 498.098006 
" clip-path="url(#p7ae88b5998)" style="fill: none; stroke: #7a7a7a; stroke-width: 3; stroke-linecap: square"/>
   </g>
   <g id="line2d_18">
    <path d="M 1169.975995 630.099541 
L 1393.450255 553.81294 
L 1393.986164 553.670081 
" clip-path="url(#p7ae88b5998)" style="fill: none; stroke: #7a7a7a; stroke-width: 3; stroke-linecap: square"/>
   </g>
   <g id="line2d_19">
    <path d="M 1006.657577 336.38184 
L 1034.390893 446.24026 
L 1039.348056 466.669069 
L 1045.578004 486.383584 
L 1053.013748 505.098088 
L 1061.5883 522.66972 
L 1071.234671 538.669906 
L 1081.952861 552.670069 
L 1093.608892 564.384491 
L 1106.068788 573.670313 
L 1119.399537 579.956101 
L 1133.53415 582.956136 
L 1148.271661 582.3847 
L 1163.61207 578.098936 
" clip-path="url(#p7ae88b5998)" style="fill: none; stroke: #7a7a7a; stroke-width: 3; stroke-linecap: square"/>
   </g>
   <g id="line2d_20">
    <path d="M 984.618299 350.524862 
L 1012.418604 460.240423 
L 1018.179631 481.812103 
L 1024.677534 502.098053 
L 1031.845323 521.383991 
L 1039.682999 539.3842 
L 1048.123574 555.955822 
L 1057.301024 571.241714 
L 1067.148361 584.956159 
L 1077.598596 597.099157 
L 1088.785707 607.52785 
L 1100.642705 616.242237 
L 1113.169589 623.099459 
L 1126.36636 627.956659 
L 1140.233018 630.813835 
L 1154.769564 631.528129 
L 1169.975995 630.099541 
" clip-path="url(#p7ae88b5998)" style="fill: none; stroke: #7a7a7a; stroke-width: 3; stroke-linecap: square"/>
   </g>
   <g id="line2d_21">
    <path d="M 1127.9071 839.387688 
L 1006.657577 336.38184 
" clip-path="url(#p7ae88b5998)" style="fill: none; stroke: #7a7a7a; stroke-width: 3; stroke-linecap: square"/>
   </g>
   <g id="line2d_22">
    <path d="M 1148.673593 815.815986 
L 1034.457882 318.667349 
" clip-path="url(#p7ae88b5998)" style="fill: none; stroke: #7a7a7a; stroke-width: 3; stroke-linecap: square"/>
   </g>
   <g id="line2d_23">
    <path d="M 1163.61207 578.098936 
L 1149.678423 582.527559 
L 1137.218528 592.527675 
L 1126.299372 607.52785 
L 1116.987944 626.670929 
L 1109.351234 649.24262 
L 1103.322252 674.38577 
L 1098.967987 701.671801 
L 1096.355429 729.957845 
L 1095.417587 758.815323 
L 1096.28844 787.387084 
L 1098.900999 814.958833 
L 1103.389241 840.673417 
L 1108.413392 861.673662 
" clip-path="url(#p7ae88b5998)" style="fill: none; stroke: #7a7a7a; stroke-width: 3; stroke-linecap: square"/>
   </g>
   <g id="line2d_24">
    <path d="M 1160.597579 536.527024 
L 1146.529955 541.384224 
L 1133.53415 549.527175 
L 1121.677152 560.527303 
L 1110.824985 574.384607 
L 1101.178614 590.670511 
L 1092.738039 609.242155 
L 1085.503261 629.813823 
L 1079.474279 652.242655 
L 1074.785071 676.242934 
L 1071.435637 701.386084 
L 1069.358988 727.814963 
L 1068.75609 754.815276 
L 1069.492965 782.529884 
L 1071.703592 810.53021 
L 1075.454958 838.673394 
L 1080.680076 866.67372 
L 1085.704227 887.673964 
" clip-path="url(#p7ae88b5998)" style="fill: none; stroke: #7a7a7a; stroke-width: 3; stroke-linecap: square"/>
   </g>
   <g id="line2d_25">
    <path d="M 938.195139 562.384468 
L 791.087982 612.813626 
" clip-path="url(#p7ae88b5998)" style="fill: none; stroke: #7a7a7a; stroke-width: 3; stroke-linecap: square"/>
   </g>
   <g id="line2d_26">
    <path d="M 927.811892 520.669697 
L 791.087982 569.384549 
" clip-path="url(#p7ae88b5998)" style="fill: none; stroke: #7a7a7a; stroke-width: 3; stroke-linecap: square"/>
   </g>
   <g id="line2d_27">
    <path d="M 1393.986164 404.954066 
L 1393.450255 405.096925 
L 1156.98019 486.669302 
" clip-path="url(#p7ae88b5998)" style="fill: none; stroke: #7a7a7a; stroke-width: 3; stroke-linecap: square"/>
   </g>
   <g id="line2d_28">
    <path d="M 1393.986164 359.667825 
L 1393.450255 359.810684 
L 1153.831722 442.240214 
" clip-path="url(#p7ae88b5998)" style="fill: none; stroke: #7a7a7a; stroke-width: 3; stroke-linecap: square"/>
   </g>
   <g id="line2d_29">
    <path d="M 1393.986164 455.8118 
L 1393.450255 455.954659 
L 1160.597579 536.527024 
" clip-path="url(#p7ae88b5998)" style="fill: none; stroke: #7a7a7a; stroke-width: 3; stroke-linecap: square"/>
   </g>
   <g id="line2d_30">
    <path d="M 1393.986164 404.954066 
L 1393.450255 405.096925 
L 1156.98019 486.669302 
" clip-path="url(#p7ae88b5998)" style="fill: none; stroke: #7a7a7a; stroke-width: 3; stroke-linecap: square"/>
   </g>
   <g id="line2d_31">
    <path d="M 1186.991122 1068.961786 
L 1162.60724 974.246399 
L 1127.9071 839.387688 
" clip-path="url(#p7ae88b5998)" style="fill: none; stroke: #7a7a7a; stroke-width: 3; stroke-linecap: square"/>
   </g>
   <g id="line2d_32">
    <path d="M 1206.216875 1055.961635 
L 1170.176962 917.102877 
L 1154.367631 839.530547 
L 1148.673593 815.815986 
" clip-path="url(#p7ae88b5998)" style="fill: none; stroke: #7a7a7a; stroke-width: 3; stroke-linecap: square"/>
   </g>
   <g id="line2d_33">
    <path d="M 924.462458 101.664826 
L 924.730413 102.950555 
L 984.618299 350.524862 
" clip-path="url(#p7ae88b5998)" style="fill: none; stroke: #7a7a7a; stroke-width: 3; stroke-linecap: square"/>
   </g>
   <g id="line2d_34">
    <path d="M 891.236069 101.664826 
L 891.571013 102.950555 
L 935.716557 287.666988 
L 938.530082 299.238551 
L 943.21929 322.953113 
L 953.267593 370.525094 
" clip-path="url(#p7ae88b5998)" style="fill: none; stroke: #7a7a7a; stroke-width: 3; stroke-linecap: square"/>
   </g>
   <g id="line2d_35">
    <path d="M 791.087982 664.957089 
L 949.918159 609.527873 
" clip-path="url(#p7ae88b5998)" style="fill: none; stroke: #7a7a7a; stroke-width: 3; stroke-linecap: square"/>
   </g>
   <g id="line2d_36">
    <path d="M 791.087982 707.386154 
L 959.631519 648.671185 
" clip-path="url(#p7ae88b5998)" style="fill: none; stroke: #7a7a7a; stroke-width: 3; stroke-linecap: square"/>
   </g>
   <g id="line2d_37">
    <path d="M 1160.597579 536.527024 
L 949.918159 609.527873 
" clip-path="url(#p7ae88b5998)" style="fill: none; stroke: #7a7a7a; stroke-width: 3; stroke-linecap: square"/>
   </g>
   <g id="line2d_38">
    <path d="M 1156.98019 486.669302 
L 938.195139 562.384468 
" clip-path="url(#p7ae88b5998)" style="fill: none; stroke: #7a7a7a; stroke-width: 3; stroke-linecap: square"/>
   </g>
   <g id="line2d_39">
    <path d="M 1108.413392 861.673662 
L 1116.117091 893.531175 
L 1162.540251 1085.533407 
" clip-path="url(#p7ae88b5998)" style="fill: none; stroke: #7a7a7a; stroke-width: 3; stroke-linecap: square"/>
   </g>
   <g id="line2d_40">
    <path d="M 1085.704227 887.673964 
L 1119.198571 1026.389862 
L 1137.285516 1102.533605 
" clip-path="url(#p7ae88b5998)" style="fill: none; stroke: #7a7a7a; stroke-width: 3; stroke-linecap: square"/>
   </g>
   <g id="line2d_41">
    <path d="M 188.1898 967.532035 
L 367.183572 905.388456 
L 489.839857 865.102273 
" clip-path="url(#p7ae88b5998)" style="fill: none; stroke: #7a7a7a; stroke-width: 3; stroke-linecap: square"/>
   </g>
   <g id="line2d_42">
    <path d="M 188.1898 1014.389723 
L 489.906846 909.67422 
" clip-path="url(#p7ae88b5998)" style="fill: none; stroke: #7a7a7a; stroke-width: 3; stroke-linecap: square"/>
   </g>
   <g id="line2d_43">
    <path d="M 1108.413392 861.673662 
L 1082.421782 751.100948 
L 1074.182173 720.386305 
L 1066.277508 693.100273 
L 1057.635968 669.957147 
L 1048.190563 650.814067 
L 1038.14226 635.385317 
L 1027.625036 623.242318 
L 1016.772869 614.385072 
L 1005.585758 608.242144 
L 994.26467 604.527815 
L 982.943582 603.099227 
L 971.689482 603.670662 
L 960.636349 605.956403 
L 949.918159 609.527873 
" clip-path="url(#p7ae88b5998)" style="fill: none; stroke: #7a7a7a; stroke-width: 3; stroke-linecap: square"/>
   </g>
   <g id="line2d_44">
    <path d="M 1127.9071 839.387688 
L 1100.575716 729.957845 
L 1092.738039 697.386037 
L 1084.967352 668.814277 
L 1076.459789 643.242551 
L 1066.612452 621.956589 
L 1056.028239 603.95638 
L 1044.841128 589.099064 
L 1033.185097 577.241783 
L 1021.194122 568.241679 
L 1008.935192 561.527315 
L 996.676262 557.241551 
L 984.417333 554.95581 
L 972.29238 554.670092 
L 960.502372 555.812963 
L 949.047306 558.52728 
L 938.195139 562.384468 
" clip-path="url(#p7ae88b5998)" style="fill: none; stroke: #7a7a7a; stroke-width: 3; stroke-linecap: square"/>
   </g>
   <g id="line2d_45">
    <path d="M 945.898838 101.664826 
L 946.233781 102.807696 
L 1006.657577 336.38184 
" clip-path="url(#p7ae88b5998)" style="fill: none; stroke: #7a7a7a; stroke-width: 3; stroke-linecap: square"/>
   </g>
   <g id="line2d_46">
    <path d="M 924.462458 101.664826 
L 924.730413 102.950555 
L 984.618299 350.524862 
" clip-path="url(#p7ae88b5998)" style="fill: none; stroke: #7a7a7a; stroke-width: 3; stroke-linecap: square"/>
   </g>
   <g id="line2d_47">
    <path d="M 949.918159 609.527873 
L 970.751641 594.099122 
L 987.498812 577.384642 
L 1000.561606 559.670151 
L 1010.274966 541.098506 
L 1017.040823 521.669709 
L 1021.261111 501.526617 
L 1023.203782 480.812091 
L 1023.404749 459.668988 
L 1022.131963 438.097309 
L 1019.720371 416.239912 
L 1016.638891 394.382515 
L 1009.940022 350.524862 
L 1006.657577 336.38184 
" clip-path="url(#p7ae88b5998)" style="fill: none; stroke: #7a7a7a; stroke-width: 3; stroke-linecap: square"/>
   </g>
   <g id="line2d_48">
    <path d="M 959.631519 648.671185 
L 978.723294 634.813881 
L 995.001545 619.099413 
L 1008.734226 601.813498 
L 1020.055314 583.098994 
L 1029.098787 562.955903 
L 1036.199588 541.955659 
L 1041.357717 519.955403 
L 1044.908117 497.097995 
L 1046.917778 473.954868 
L 1047.587664 450.240307 
L 1047.185732 426.382887 
L 1045.77897 402.525466 
L 1043.635332 378.810905 
L 1040.888796 355.52492 
L 1037.740328 332.81037 
L 1034.457882 318.667349 
" clip-path="url(#p7ae88b5998)" style="fill: none; stroke: #7a7a7a; stroke-width: 3; stroke-linecap: square"/>
   </g>
   <g id="line2d_49">
    <path d="M 1162.540251 1085.533407 
L 1116.117091 893.531175 
L 1108.413392 861.673662 
" clip-path="url(#p7ae88b5998)" style="fill: none; stroke: #7a7a7a; stroke-width: 3; stroke-linecap: square"/>
   </g>
   <g id="line2d_50">
    <path d="M 1186.991122 1068.961786 
L 1162.60724 974.246399 
L 1127.9071 839.387688 
" clip-path="url(#p7ae88b5998)" style="fill: none; stroke: #7a7a7a; stroke-width: 3; stroke-linecap: square"/>
   </g>
   <g id="line2d_51">
    <path d="M 1006.657577 336.38184 
L 946.233781 102.807696 
L 945.898838 101.664826 
" clip-path="url(#p7ae88b5998)" style="fill: none; stroke: #7a7a7a; stroke-width: 3; stroke-linecap: square"/>
   </g>
   <g id="line2d_52">
    <path d="M 1034.457882 318.667349 
L 986.694948 102.807696 
L 986.426993 101.664826 
" clip-path="url(#p7ae88b5998)" style="fill: none; stroke: #7a7a7a; stroke-width: 3; stroke-linecap: square"/>
   </g>
   <g id="line2d_53">
    <path d="M 667.828799 751.243806 
L 790.552073 707.529012 
L 791.087982 707.386154 
" clip-path="url(#p7ae88b5998)" style="fill: none; stroke: #7a7a7a; stroke-width: 3; stroke-linecap: square"/>
   </g>
   <g id="line2d_54">
    <path d="M 670.240391 803.958705 
L 790.552073 761.243923 
L 791.087982 761.101064 
" clip-path="url(#p7ae88b5998)" style="fill: none; stroke: #7a7a7a; stroke-width: 3; stroke-linecap: square"/>
   </g>
   <g id="line2d_55">
    <path d="M 548.521947 998.675254 
L 606.802105 1245.678126 
" clip-path="url(#p7ae88b5998)" style="fill: none; stroke: #7a7a7a; stroke-width: 3; stroke-linecap: square"/>
   </g>
   <g id="line2d_56">
    <path d="M 521.056586 1006.961065 
L 531.908753 1046.96153 
L 571.164123 1195.820403 
L 588.112261 1265.964076 
" clip-path="url(#p7ae88b5998)" style="fill: none; stroke: #7a7a7a; stroke-width: 3; stroke-linecap: square"/>
   </g>
   <g id="line2d_57">
    <path d="M 791.087982 707.386154 
L 959.631519 648.671185 
" clip-path="url(#p7ae88b5998)" style="fill: none; stroke: #7a7a7a; stroke-width: 3; stroke-linecap: square"/>
   </g>
   <g id="line2d_58">
    <path d="M 791.087982 761.101064 
L 972.158403 699.386061 
" clip-path="url(#p7ae88b5998)" style="fill: none; stroke: #7a7a7a; stroke-width: 3; stroke-linecap: square"/>
   </g>
   <g id="line2d_59">
    <path d="M 791.087982 664.957089 
L 790.552073 665.099948 
L 666.020104 706.957577 
" clip-path="url(#p7ae88b5998)" style="fill: none; stroke: #7a7a7a; stroke-width: 3; stroke-linecap: square"/>
   </g>
   <g id="line2d_60">
    <path d="M 791.087982 612.813626 
L 790.552073 613.099343 
L 663.742489 656.385561 
" clip-path="url(#p7ae88b5998)" style="fill: none; stroke: #7a7a7a; stroke-width: 3; stroke-linecap: square"/>
   </g>
   <g id="line2d_61">
    <path d="M 472.958708 773.958356 
L 666.020104 706.957577 
" clip-path="url(#p7ae88b5998)" style="fill: none; stroke: #7a7a7a; stroke-width: 3; stroke-linecap: square"/>
   </g>
   <g id="line2d_62">
    <path d="M 489.102982 812.101657 
L 667.828799 751.243806 
" clip-path="url(#p7ae88b5998)" style="fill: none; stroke: #7a7a7a; stroke-width: 3; stroke-linecap: square"/>
   </g>
   <g id="line2d_63">
    <path d="M 791.087982 612.813626 
L 790.552073 613.099343 
L 663.742489 656.385561 
" clip-path="url(#p7ae88b5998)" style="fill: none; stroke: #7a7a7a; stroke-width: 3; stroke-linecap: square"/>
   </g>
   <g id="line2d_64">
    <path d="M 791.087982 569.384549 
L 790.552073 569.670267 
L 661.866805 613.52792 
" clip-path="url(#p7ae88b5998)" style="fill: none; stroke: #7a7a7a; stroke-width: 3; stroke-linecap: square"/>
   </g>
   <g id="line2d_65">
    <path d="M 666.020104 706.957577 
L 472.958708 773.958356 
" clip-path="url(#p7ae88b5998)" style="fill: none; stroke: #7a7a7a; stroke-width: 3; stroke-linecap: square"/>
   </g>
   <g id="line2d_66">
    <path d="M 663.742489 656.385561 
L 441.942946 733.100738 
" clip-path="url(#p7ae88b5998)" style="fill: none; stroke: #7a7a7a; stroke-width: 3; stroke-linecap: square"/>
   </g>
   <g id="line2d_67">
    <path d="M 489.102982 812.101657 
L 188.1898 912.959972 
" clip-path="url(#p7ae88b5998)" style="fill: none; stroke: #7a7a7a; stroke-width: 3; stroke-linecap: square"/>
   </g>
   <g id="line2d_68">
    <path d="M 472.958708 773.958356 
L 188.1898 870.388049 
" clip-path="url(#p7ae88b5998)" style="fill: none; stroke: #7a7a7a; stroke-width: 3; stroke-linecap: square"/>
   </g>
   <g id="line2d_69">
    <path d="M 663.742489 656.385561 
L 441.942946 733.100738 
" clip-path="url(#p7ae88b5998)" style="fill: none; stroke: #7a7a7a; stroke-width: 3; stroke-linecap: square"/>
   </g>
   <g id="line2d_70">
    <path d="M 661.866805 613.52792 
L 416.353268 697.528896 
" clip-path="url(#p7ae88b5998)" style="fill: none; stroke: #7a7a7a; stroke-width: 3; stroke-linecap: square"/>
   </g>
   <g id="line2d_71">
    <path d="M 606.802105 1245.678126 
L 548.521947 998.675254 
" clip-path="url(#p7ae88b5998)" style="fill: none; stroke: #7a7a7a; stroke-width: 3; stroke-linecap: square"/>
   </g>
   <g id="line2d_72">
    <path d="M 626.563767 1224.249305 
L 585.834646 1031.961356 
L 578.599868 999.389548 
L 577.46106 994.246631 
L 576.992139 990.103726 
" clip-path="url(#p7ae88b5998)" style="fill: none; stroke: #7a7a7a; stroke-width: 3; stroke-linecap: square"/>
   </g>
   <g id="line2d_73">
    <path d="M 188.1898 870.530907 
L 472.958708 773.958356 
" clip-path="url(#p7ae88b5998)" style="fill: none; stroke: #7a7a7a; stroke-width: 3; stroke-linecap: square"/>
   </g>
   <g id="line2d_74">
    <path d="M 188.1898 913.817125 
L 489.102982 812.101657 
" clip-path="url(#p7ae88b5998)" style="fill: none; stroke: #7a7a7a; stroke-width: 3; stroke-linecap: square"/>
   </g>
   <g id="line2d_75">
    <path d="M 666.020104 706.957577 
L 605.462331 727.529245 
L 595.548005 732.672162 
L 585.767657 740.529396 
L 576.322252 751.100948 
L 567.479746 764.243957 
L 559.374114 780.101285 
L 552.206325 798.53007 
L 546.31132 819.673173 
L 541.823078 843.244876 
L 539.009554 869.388037 
L 538.004723 897.959798 
L 539.143531 929.103017 
L 542.559954 962.674836 
L 548.521947 998.675254 
" clip-path="url(#p7ae88b5998)" style="fill: none; stroke: #7a7a7a; stroke-width: 3; stroke-linecap: square"/>
   </g>
   <g id="line2d_76">
    <path d="M 663.742489 656.385561 
L 603.184716 676.957228 
L 592.734481 681.385851 
L 582.284245 688.385933 
L 571.967988 697.957473 
L 561.919685 709.957612 
L 552.340302 724.243492 
L 543.363818 740.815114 
L 535.12421 759.529617 
L 527.889432 780.244143 
L 521.659484 802.958693 
L 516.635332 827.530407 
L 513.017943 853.673569 
L 510.941294 881.531035 
L 510.539362 910.959949 
L 512.013113 941.674592 
L 515.429536 973.817822 
L 521.056586 1006.961065 
" clip-path="url(#p7ae88b5998)" style="fill: none; stroke: #7a7a7a; stroke-width: 3; stroke-linecap: square"/>
   </g>
   <g id="line2d_77">
    <path d="M 670.240391 803.958705 
L 790.552073 761.243923 
L 791.087982 761.101064 
" clip-path="url(#p7ae88b5998)" style="fill: none; stroke: #7a7a7a; stroke-width: 3; stroke-linecap: square"/>
   </g>
   <g id="line2d_78">
    <path d="M 672.250052 850.244957 
L 790.552073 807.673034 
L 791.087982 807.530175 
" clip-path="url(#p7ae88b5998)" style="fill: none; stroke: #7a7a7a; stroke-width: 3; stroke-linecap: square"/>
   </g>
   <g id="line2d_79">
    <path d="M 472.958708 773.958356 
L 188.1898 870.388049 
" clip-path="url(#p7ae88b5998)" style="fill: none; stroke: #7a7a7a; stroke-width: 3; stroke-linecap: square"/>
   </g>
   <g id="line2d_80">
    <path d="M 441.942946 733.100738 
L 188.1898 820.10175 
" clip-path="url(#p7ae88b5998)" style="fill: none; stroke: #7a7a7a; stroke-width: 3; stroke-linecap: square"/>
   </g>
   <g id="line2d_81">
    <path d="M 489.102982 812.101657 
L 667.828799 751.243806 
" clip-path="url(#p7ae88b5998)" style="fill: none; stroke: #7a7a7a; stroke-width: 3; stroke-linecap: square"/>
   </g>
   <g id="line2d_82">
    <path d="M 489.839857 865.102273 
L 670.240391 803.958705 
" clip-path="url(#p7ae88b5998)" style="fill: none; stroke: #7a7a7a; stroke-width: 3; stroke-linecap: square"/>
   </g>
   <g id="line2d_83">
    <path d="M 548.521947 998.675254 
L 512.013113 802.10154 
L 507.256916 791.101413 
L 501.4289 783.958472 
L 495.533896 777.958403 
L 489.571903 774.101215 
L 482.940023 772.672627 
L 472.958708 773.958356 
" clip-path="url(#p7ae88b5998)" style="fill: none; stroke: #7a7a7a; stroke-width: 3; stroke-linecap: square"/>
   </g>
   <g id="line2d_84">
    <path d="M 576.992139 990.103726 
L 538.942565 779.815567 
L 534.856255 765.243969 
L 527.688466 749.958077 
L 518.711981 737.243644 
L 509.467543 727.386386 
L 500.491059 720.386305 
L 490.375767 718.52914 
L 479.255645 720.672022 
L 441.942946 733.100738 
" clip-path="url(#p7ae88b5998)" style="fill: none; stroke: #7a7a7a; stroke-width: 3; stroke-linecap: square"/>
   </g>
   <g id="line2d_85">
    <path d="M 441.942946 733.100738 
L 188.1898 820.10175 
" clip-path="url(#p7ae88b5998)" style="fill: none; stroke: #7a7a7a; stroke-width: 3; stroke-linecap: square"/>
   </g>
   <g id="line2d_86">
    <path d="M 416.353268 697.528896 
L 188.1898 773.386921 
" clip-path="url(#p7ae88b5998)" style="fill: none; stroke: #7a7a7a; stroke-width: 3; stroke-linecap: square"/>
   </g>
   <g id="line2d_87">
    <path d="M 984.618299 350.524862 
L 990.513303 385.810986 
L 992.388986 414.382747 
L 990.647281 437.525873 
L 985.824095 456.383235 
L 979.996079 474.669162 
L 971.622494 491.66936 
L 958.894643 503.955217 
L 942.884347 515.383921 
L 927.811892 520.669697 
" clip-path="url(#p7ae88b5998)" style="fill: none; stroke: #7a7a7a; stroke-width: 3; stroke-linecap: square"/>
   </g>
   <g id="line2d_88">
    <path d="M 953.267593 370.525094 
L 954.674356 376.953741 
L 957.487881 394.239656 
L 958.626688 404.382631 
L 958.760666 413.954171 
L 957.822824 424.097146 
L 956.01413 435.811568 
L 953.602537 445.09739 
L 951.123955 451.526036 
L 947.037645 458.954694 
L 942.951336 464.24047 
L 938.798037 467.526222 
L 932.367123 470.240539 
L 931.831214 471.097692 
L 916.69177 476.383468 
" clip-path="url(#p7ae88b5998)" style="fill: none; stroke: #7a7a7a; stroke-width: 3; stroke-linecap: square"/>
   </g>
   <g id="line2d_89">
    <path d="M 1156.98019 486.669302 
L 938.195139 562.384468 
" clip-path="url(#p7ae88b5998)" style="fill: none; stroke: #7a7a7a; stroke-width: 3; stroke-linecap: square"/>
   </g>
   <g id="line2d_90">
    <path d="M 1153.831722 442.240214 
L 927.811892 520.669697 
" clip-path="url(#p7ae88b5998)" style="fill: none; stroke: #7a7a7a; stroke-width: 3; stroke-linecap: square"/>
   </g>
   <g id="line2d_91">
    <path d="M 791.087982 807.530175 
L 982.943582 742.815137 
" clip-path="url(#p7ae88b5998)" style="fill: none; stroke: #7a7a7a; stroke-width: 3; stroke-linecap: square"/>
   </g>
   <g id="line2d_92">
    <path d="M 791.087982 851.387828 
L 992.388986 779.529849 
" clip-path="url(#p7ae88b5998)" style="fill: none; stroke: #7a7a7a; stroke-width: 3; stroke-linecap: square"/>
   </g>
   <g id="line2d_93">
    <path d="M 972.158403 699.386061 
L 1169.975995 630.099541 
" clip-path="url(#p7ae88b5998)" style="fill: none; stroke: #7a7a7a; stroke-width: 3; stroke-linecap: square"/>
   </g>
   <g id="line2d_94">
    <path d="M 982.943582 742.815137 
L 1177.344751 673.528617 
" clip-path="url(#p7ae88b5998)" style="fill: none; stroke: #7a7a7a; stroke-width: 3; stroke-linecap: square"/>
   </g>
   <g id="line2d_95">
    <path d="M 927.811892 520.669697 
L 791.087982 569.384549 
" clip-path="url(#p7ae88b5998)" style="fill: none; stroke: #7a7a7a; stroke-width: 3; stroke-linecap: square"/>
   </g>
   <g id="line2d_96">
    <path d="M 916.69177 476.383468 
L 791.087982 522.812579 
" clip-path="url(#p7ae88b5998)" style="fill: none; stroke: #7a7a7a; stroke-width: 3; stroke-linecap: square"/>
   </g>
   <g id="line2d_97">
    <path d="M 1177.344751 673.528617 
L 1393.450255 599.813474 
L 1393.986164 599.670616 
" clip-path="url(#p7ae88b5998)" style="fill: none; stroke: #7a7a7a; stroke-width: 3; stroke-linecap: square"/>
   </g>
   <g id="line2d_98">
    <path d="M 1184.110608 713.671941 
L 1346.558174 657.67129 
L 1368.463475 649.814056 
L 1384.272805 645.099715 
L 1393.450255 642.528257 
L 1393.986164 642.385398 
" clip-path="url(#p7ae88b5998)" style="fill: none; stroke: #7a7a7a; stroke-width: 3; stroke-linecap: square"/>
   </g>
   <g id="line2d_99">
    <path d="M 1153.831722 442.240214 
L 1103.791173 458.097541 
L 1089.455594 460.240423 
L 1076.526777 458.954694 
L 1064.803757 454.811789 
L 1054.152556 447.52599 
L 1044.439196 437.097297 
L 1035.59669 423.525711 
L 1027.491058 406.811231 
L 1020.390258 386.382422 
L 1006.657577 336.38184 
" clip-path="url(#p7ae88b5998)" style="fill: none; stroke: #7a7a7a; stroke-width: 3; stroke-linecap: square"/>
   </g>
   <g id="line2d_100">
    <path d="M 1150.616265 398.096844 
L 1116.18408 409.811265 
L 1108.078449 412.8113 
L 1097.628214 415.811335 
L 1085.972182 416.239912 
L 1072.976377 409.811265 
L 1061.521311 398.096844 
L 1051.807952 381.953799 
L 1044.037264 360.239261 
L 1039.482033 342.38191 
L 1034.457882 318.667349 
" clip-path="url(#p7ae88b5998)" style="fill: none; stroke: #7a7a7a; stroke-width: 3; stroke-linecap: square"/>
   </g>
   <g id="line2d_101">
    <path d="M 982.943582 742.815137 
L 1008.399283 733.386456 
L 1020.122303 729.814986 
L 1031.376402 727.814963 
L 1042.094592 728.243539 
L 1052.343861 731.957868 
L 1062.258187 739.529384 
L 1071.904558 751.672383 
L 1081.215985 769.244016 
L 1090.393435 792.958577 
L 1099.436908 823.530361 
L 1108.413392 861.673662 
" clip-path="url(#p7ae88b5998)" style="fill: none; stroke: #7a7a7a; stroke-width: 3; stroke-linecap: square"/>
   </g>
   <g id="line2d_102">
    <path d="M 992.388986 779.529849 
L 1025.88333 770.386886 
L 1030.036629 769.244016 
L 1032.850153 768.815439 
L 1037.204418 767.958286 
L 1044.506185 768.386863 
L 1047.989597 769.386874 
L 1050.803121 771.244039 
L 1052.745793 773.52978 
L 1053.817612 774.815509 
L 1056.832103 779.815567 
L 1057.903922 782.244167 
L 1058.50682 783.244178 
L 1059.846594 786.529931 
L 1063.932904 798.672929 
L 1066.143531 806.530163 
L 1071.636603 827.958984 
L 1073.110354 834.530489 
L 1085.704227 887.673964 
" clip-path="url(#p7ae88b5998)" style="fill: none; stroke: #7a7a7a; stroke-width: 3; stroke-linecap: square"/>
   </g>
   <g id="line2d_103">
    <path d="M 1393.986164 359.667825 
L 1393.450255 359.810684 
L 1153.831722 442.240214 
" clip-path="url(#p7ae88b5998)" style="fill: none; stroke: #7a7a7a; stroke-width: 3; stroke-linecap: square"/>
   </g>
   <g id="line2d_104">
    <path d="M 1393.986164 315.810173 
L 1393.450255 315.953031 
L 1300.135014 344.81051 
L 1150.616265 398.096844 
" clip-path="url(#p7ae88b5998)" style="fill: none; stroke: #7a7a7a; stroke-width: 3; stroke-linecap: square"/>
   </g>
   <g id="line2d_105">
    <path d="M 1127.9071 839.387688 
L 1119.466526 799.8158 
L 1115.849136 779.529849 
L 1114.576351 758.529605 
L 1116.050103 738.243655 
L 1121.007265 719.243434 
L 1130.318693 702.386095 
L 1144.788249 688.385933 
L 1165.219799 677.95724 
L 1177.344751 673.528617 
" clip-path="url(#p7ae88b5998)" style="fill: none; stroke: #7a7a7a; stroke-width: 3; stroke-linecap: square"/>
   </g>
   <g id="line2d_106">
    <path d="M 1148.673593 815.815986 
L 1144.922227 798.672929 
L 1143.984385 790.672836 
L 1143.71643 779.815567 
L 1144.453306 767.101134 
L 1145.927057 756.386723 
L 1148.070695 746.958042 
L 1151.085186 738.81509 
L 1154.501609 731.957868 
L 1158.386953 727.386386 
L 1163.143149 723.814916 
L 1172.253611 719.243434 
L 1184.110608 713.671941 
" clip-path="url(#p7ae88b5998)" style="fill: none; stroke: #7a7a7a; stroke-width: 3; stroke-linecap: square"/>
   </g>
   <g id="line2d_107">
    <path d="M 188.1898 912.959972 
L 187.586902 913.24569 
L 1.49233 980.532186 
" clip-path="url(#p7ae88b5998)" style="fill: none; stroke: #7a7a7a; stroke-width: 3; stroke-linecap: square"/>
   </g>
   <g id="line2d_108">
    <path d="M 188.1898 870.388049 
L 187.586902 870.530907 
L -1 937.39752 
" clip-path="url(#p7ae88b5998)" style="fill: none; stroke: #7a7a7a; stroke-width: 3; stroke-linecap: square"/>
   </g>
   <g id="line2d_109">
    <path d="M 14.421147 1030.24705 
L 187.586902 967.817753 
L 188.1898 967.532035 
" clip-path="url(#p7ae88b5998)" style="fill: none; stroke: #7a7a7a; stroke-width: 3; stroke-linecap: square"/>
   </g>
   <g id="line2d_110">
    <path d="M 26.278144 1073.676126 
L 187.653891 1014.532582 
L 188.1898 1014.389723 
" clip-path="url(#p7ae88b5998)" style="fill: none; stroke: #7a7a7a; stroke-width: 3; stroke-linecap: square"/>
   </g>
   <g id="line2d_111">
    <path d="M 188.1898 773.386921 
L 187.586902 773.52978 
L -1 843.112347 
" clip-path="url(#p7ae88b5998)" style="fill: none; stroke: #7a7a7a; stroke-width: 3; stroke-linecap: square"/>
   </g>
   <g id="line2d_112">
    <path d="M 188.1898 729.529268 
L 187.586902 729.672127 
L -1 798.498527 
" clip-path="url(#p7ae88b5998)" style="fill: none; stroke: #7a7a7a; stroke-width: 3; stroke-linecap: square"/>
   </g>
   <g id="line2d_113">
    <path d="M 188.1898 870.388049 
L 187.586902 870.530907 
L -1 937.39752 
" clip-path="url(#p7ae88b5998)" style="fill: none; stroke: #7a7a7a; stroke-width: 3; stroke-linecap: square"/>
   </g>
   <g id="line2d_114">
    <path d="M 188.1898 820.10175 
L 187.586902 820.244608 
L -1 887.296435 
" clip-path="url(#p7ae88b5998)" style="fill: none; stroke: #7a7a7a; stroke-width: 3; stroke-linecap: square"/>
   </g>
   <g id="line2d_115">
    <path d="M 1.827273 980.532186 
L 187.586902 914.102843 
L 188.1898 913.817125 
" clip-path="url(#p7ae88b5998)" style="fill: none; stroke: #7a7a7a; stroke-width: 3; stroke-linecap: square"/>
   </g>
   <g id="line2d_116">
    <path d="M 14.421147 1030.24705 
L 187.586902 967.817753 
L 188.1898 967.532035 
" clip-path="url(#p7ae88b5998)" style="fill: none; stroke: #7a7a7a; stroke-width: 3; stroke-linecap: square"/>
   </g>
   <g id="line2d_117">
    <path d="M -1 937.819572 
L 187.586902 870.673766 
L 188.1898 870.530907 
" clip-path="url(#p7ae88b5998)" style="fill: none; stroke: #7a7a7a; stroke-width: 3; stroke-linecap: square"/>
   </g>
   <g id="line2d_118">
    <path d="M 1.827273 980.532186 
L 187.586902 914.102843 
L 188.1898 913.817125 
" clip-path="url(#p7ae88b5998)" style="fill: none; stroke: #7a7a7a; stroke-width: 3; stroke-linecap: square"/>
   </g>
   <g id="line2d_119">
    <path d="M 188.1898 820.10175 
L 187.586902 820.244608 
L -1 887.296435 
" clip-path="url(#p7ae88b5998)" style="fill: none; stroke: #7a7a7a; stroke-width: 3; stroke-linecap: square"/>
   </g>
   <g id="line2d_120">
    <path d="M 188.1898 773.386921 
L 187.586902 773.52978 
L -1 843.112347 
" clip-path="url(#p7ae88b5998)" style="fill: none; stroke: #7a7a7a; stroke-width: 3; stroke-linecap: square"/>
   </g>
   <g id="line2d_121">
    <path d="M 26.278144 1073.676126 
L 187.653891 1014.532582 
L 188.1898 1014.389723 
" clip-path="url(#p7ae88b5998)" style="fill: none; stroke: #7a7a7a; stroke-width: 3; stroke-linecap: square"/>
   </g>
   <g id="line2d_122">
    <path d="M 38.805029 1111.819427 
L 43.427248 1109.390827 
L 75.849772 1097.676405 
L 187.653891 1060.533116 
L 188.1898 1060.247399 
" clip-path="url(#p7ae88b5998)" style="fill: none; stroke: #7a7a7a; stroke-width: 3; stroke-linecap: square"/>
   </g>
   <g id="line2d_123">
    <path d="M 416.353268 697.528896 
L 188.1898 773.386921 
" clip-path="url(#p7ae88b5998)" style="fill: none; stroke: #7a7a7a; stroke-width: 3; stroke-linecap: square"/>
   </g>
   <g id="line2d_124">
    <path d="M 388.68694 659.242737 
L 230.660628 714.529094 
L 188.1898 729.529268 
" clip-path="url(#p7ae88b5998)" style="fill: none; stroke: #7a7a7a; stroke-width: 3; stroke-linecap: square"/>
   </g>
   <g id="line2d_125">
    <path d="M 791.087982 569.384549 
L 790.552073 569.670267 
L 661.866805 613.52792 
" clip-path="url(#p7ae88b5998)" style="fill: none; stroke: #7a7a7a; stroke-width: 3; stroke-linecap: square"/>
   </g>
   <g id="line2d_126">
    <path d="M 791.087982 522.812579 
L 790.552073 522.955438 
L 659.857145 567.670244 
" clip-path="url(#p7ae88b5998)" style="fill: none; stroke: #7a7a7a; stroke-width: 3; stroke-linecap: square"/>
   </g>
   <g id="line2d_127">
    <path d="M 661.866805 613.52792 
L 416.353268 697.528896 
" clip-path="url(#p7ae88b5998)" style="fill: none; stroke: #7a7a7a; stroke-width: 3; stroke-linecap: square"/>
   </g>
   <g id="line2d_128">
    <path d="M 659.857145 567.670244 
L 397.127515 656.385561 
L 396.390639 656.671278 
L 388.68694 659.242737 
" clip-path="url(#p7ae88b5998)" style="fill: none; stroke: #7a7a7a; stroke-width: 3; stroke-linecap: square"/>
   </g>
   <g id="line2d_129">
    <path d="M 548.521947 998.675254 
L 546.981207 981.24648 
L 547.115185 966.9606 
L 547.718083 952.960437 
L 549.258823 939.53171 
L 551.871382 926.245841 
L 555.421782 913.959984 
L 562.723549 899.245527 
L 572.302931 888.816834 
L 580.073619 882.531047 
L 587.710329 877.816706 
L 672.250052 850.244957 
" clip-path="url(#p7ae88b5998)" style="fill: none; stroke: #7a7a7a; stroke-width: 3; stroke-linecap: square"/>
   </g>
   <g id="line2d_130">
    <path d="M 576.992139 990.103726 
L 576.188275 983.103645 
L 576.255264 972.817811 
L 576.992139 960.674813 
L 578.063958 951.960426 
L 579.470721 944.674627 
L 582.083279 934.817369 
L 583.490042 931.245899 
L 586.437544 926.960135 
L 588.849137 924.388676 
L 596.418858 919.388618 
L 615.845577 911.817102 
L 674.058746 892.245446 
" clip-path="url(#p7ae88b5998)" style="fill: none; stroke: #7a7a7a; stroke-width: 3; stroke-linecap: square"/>
   </g>
   <g id="line2d_131">
    <path d="M 489.839857 865.102273 
L 670.240391 803.958705 
" clip-path="url(#p7ae88b5998)" style="fill: none; stroke: #7a7a7a; stroke-width: 3; stroke-linecap: square"/>
   </g>
   <g id="line2d_132">
    <path d="M 489.906846 909.67422 
L 672.250052 850.244957 
" clip-path="url(#p7ae88b5998)" style="fill: none; stroke: #7a7a7a; stroke-width: 3; stroke-linecap: square"/>
   </g>
   <g id="line2d_133">
    <path d="M 188.1898 1014.389723 
L 489.906846 909.67422 
" clip-path="url(#p7ae88b5998)" style="fill: none; stroke: #7a7a7a; stroke-width: 3; stroke-linecap: square"/>
   </g>
   <g id="line2d_134">
    <path d="M 188.1898 1060.247399 
L 210.63101 1052.818741 
L 292.826129 1023.389827 
L 489.973835 956.817625 
" clip-path="url(#p7ae88b5998)" style="fill: none; stroke: #7a7a7a; stroke-width: 3; stroke-linecap: square"/>
   </g>
   <g id="line2d_135">
    <path d="M 672.250052 850.244957 
L 790.552073 807.673034 
L 791.087982 807.530175 
" clip-path="url(#p7ae88b5998)" style="fill: none; stroke: #7a7a7a; stroke-width: 3; stroke-linecap: square"/>
   </g>
   <g id="line2d_136">
    <path d="M 674.058746 892.245446 
L 790.552073 851.673545 
L 791.087982 851.387828 
" clip-path="url(#p7ae88b5998)" style="fill: none; stroke: #7a7a7a; stroke-width: 3; stroke-linecap: square"/>
   </g>
   <g id="line2d_137">
    <path d="M 489.906846 909.67422 
L 672.250052 850.244957 
" clip-path="url(#p7ae88b5998)" style="fill: none; stroke: #7a7a7a; stroke-width: 3; stroke-linecap: square"/>
   </g>
   <g id="line2d_138">
    <path d="M 489.973835 956.817625 
L 596.418858 919.388618 
L 615.845577 911.817102 
L 674.058746 892.245446 
" clip-path="url(#p7ae88b5998)" style="fill: none; stroke: #7a7a7a; stroke-width: 3; stroke-linecap: square"/>
   </g>
   <g id="line2d_139">
    <path d="M 489.906846 909.67422 
L 500.759013 909.245643 
L 508.797656 909.531361 
L 516.702321 913.388549 
L 522.86528 918.531465 
L 531.104889 928.103005 
L 535.12421 937.388828 
L 537.803757 945.388921 
L 548.521947 998.675254 
" clip-path="url(#p7ae88b5998)" style="fill: none; stroke: #7a7a7a; stroke-width: 3; stroke-linecap: square"/>
   </g>
   <g id="line2d_140">
    <path d="M 489.973835 956.817625 
L 495.466907 959.103366 
L 496.605715 959.246224 
L 499.084296 960.246236 
L 500.759013 961.389107 
L 501.830832 962.103401 
L 504.51038 965.103435 
L 508.730667 972.103517 
L 514.022773 985.103668 
L 520.453687 1004.818183 
L 521.056586 1006.961065 
" clip-path="url(#p7ae88b5998)" style="fill: none; stroke: #7a7a7a; stroke-width: 3; stroke-linecap: square"/>
   </g>
   <g id="line2d_141">
    <path d="M 570.306616 641.124223 
L 133.977374 811.232924 
" clip-path="url(#p7ae88b5998)" style="fill: none; stroke-dasharray: 32,8,5,8; stroke-dashoffset: 0; stroke: #1e90ff; stroke-width: 5"/>
   </g>
   <g id="line2d_142">
    <path d="M 920.072279 736.413416 
L 912.53278 735.26943 
" clip-path="url(#p7ae88b5998)" style="fill: none; stroke-dasharray: 32,8,5,8; stroke-dashoffset: 0; stroke: #1e90ff; stroke-width: 5"/>
   </g>
   <g id="line2d_143">
    <path d="M 441.893097 973.323258 
L 735.96133 854.627681 
" clip-path="url(#p7ae88b5998)" style="fill: none; stroke-dasharray: 32,8,5,8; stroke-dashoffset: 0; stroke: #1e90ff; stroke-width: 5"/>
   </g>
   <g id="line2d_144">
    <path d="M 133.977374 1011.423589 
L 208.58079 983.437772 
" clip-path="url(#p7ae88b5998)" style="fill: none; stroke-dasharray: 32,8,5,8; stroke-dashoffset: 0; stroke: #1e90ff; stroke-width: 5"/>
   </g>
   <g id="line2d_145">
    <path d="M 521.190301 832.884962 
L 1000.493048 670.327268 
" clip-path="url(#p7ae88b5998)" style="fill: none; stroke-dasharray: 32,8,5,8; stroke-dashoffset: 0; stroke: #1e90ff; stroke-width: 5"/>
   </g>
   <g id="line2d_146">
    <path d="M 1135.015032 697.510899 
L 1339.51697 641.047492 
" clip-path="url(#p7ae88b5998)" style="fill: none; stroke-dasharray: 32,8,5,8; stroke-dashoffset: 0; stroke: #1e90ff; stroke-width: 5"/>
   </g>
   <g id="line2d_147">
    <path d="M 936.675529 71.429402 
L 970.395567 210.500494 
" clip-path="url(#p7ae88b5998)" style="fill: none; stroke-dasharray: 32,8,5,8; stroke-dashoffset: 0; stroke: #1e90ff; stroke-width: 5"/>
   </g>
   <g id="line2d_148">
    <path d="M 1339.51697 397.845725 
L 1248.429691 442.949486 
" clip-path="url(#p7ae88b5998)" style="fill: none; stroke-dasharray: 32,8,5,8; stroke-dashoffset: 0; stroke: #1e90ff; stroke-width: 5"/>
   </g>
   <g id="line2d_149">
    <path d="M 776.376966 617.735279 
L 347.323912 760.712666 
" clip-path="url(#p7ae88b5998)" style="fill: none; stroke-dasharray: 32,8,5,8; stroke-dashoffset: 0; stroke: #1e90ff; stroke-width: 5"/>
   </g>
   <g id="line2d_150">
    <path d="M 570.306616 641.124223 
" clip-path="url(#p7ae88b5998)" style="fill: none; stroke: #0000ff; stroke-width: 1.5; stroke-linecap: square"/>
    <defs>
     <path id="mc84029ba18" d="M 0 10 
C 2.652031 10 5.195799 8.946337 7.071068 7.071068 
C 8.946337 5.195799 10 2.652031 10 0 
C 10 -2.652031 8.946337 -5.195799 7.071068 -7.071068 
C 5.195799 -8.946337 2.652031 -10 0 -10 
C -2.652031 -10 -5.195799 -8.946337 -7.071068 -7.071068 
C -8.946337 -5.195799 -10 -2.652031 -10 0 
C -10 2.652031 -8.946337 5.195799 -7.071068 7.071068 
C -5.195799 8.946337 -2.652031 10 0 10 
z
" style="stroke: #0000ff"/>
    </defs>
    <g clip-path="url(#p7ae88b5998)">
     <use xlink:href="#mc84029ba18" x="570.306616" y="641.124223" style="fill: #0000ff; stroke: #0000ff"/>
    </g>
   </g>
   <g id="line2d_151">
    <path d="M 920.072279 736.413416 
" clip-path="url(#p7ae88b5998)" style="fill: none; stroke: #0000ff; stroke-width: 1.5; stroke-linecap: square"/>
    <g clip-path="url(#p7ae88b5998)">
     <use xlink:href="#mc84029ba18" x="920.072279" y="736.413416" style="fill: #0000ff; stroke: #0000ff"/>
    </g>
   </g>
   <g id="line2d_152">
    <path d="M 441.893097 973.323258 
" clip-path="url(#p7ae88b5998)" style="fill: none; stroke: #0000ff; stroke-width: 1.5; stroke-linecap: square"/>
    <g clip-path="url(#p7ae88b5998)">
     <use xlink:href="#mc84029ba18" x="441.893097" y="973.323258" style="fill: #0000ff; stroke: #0000ff"/>
    </g>
   </g>
   <g id="line2d_153">
    <path d="M 133.977374 1011.423589 
" clip-path="url(#p7ae88b5998)" style="fill: none; stroke: #0000ff; stroke-width: 1.5; stroke-linecap: square"/>
    <g clip-path="url(#p7ae88b5998)">
     <use xlink:href="#mc84029ba18" x="133.977374" y="1011.423589" style="fill: #0000ff; stroke: #0000ff"/>
    </g>
   </g>
   <g id="line2d_154">
    <path d="M 521.190301 832.884962 
" clip-path="url(#p7ae88b5998)" style="fill: none; stroke: #0000ff; stroke-width: 1.5; stroke-linecap: square"/>
    <g clip-path="url(#p7ae88b5998)">
     <use xlink:href="#mc84029ba18" x="521.190301" y="832.884962" style="fill: #0000ff; stroke: #0000ff"/>
    </g>
   </g>
   <g id="line2d_155">
    <path d="M 1135.015032 697.510899 
" clip-path="url(#p7ae88b5998)" style="fill: none; stroke: #0000ff; stroke-width: 1.5; stroke-linecap: square"/>
    <g clip-path="url(#p7ae88b5998)">
     <use xlink:href="#mc84029ba18" x="1135.015032" y="697.510899" style="fill: #0000ff; stroke: #0000ff"/>
    </g>
   </g>
   <g id="line2d_156">
    <path d="M 936.675529 71.429402 
" clip-path="url(#p7ae88b5998)" style="fill: none; stroke: #0000ff; stroke-width: 1.5; stroke-linecap: square"/>
    <g clip-path="url(#p7ae88b5998)">
     <use xlink:href="#mc84029ba18" x="936.675529" y="71.429402" style="fill: #0000ff; stroke: #0000ff"/>
    </g>
   </g>
   <g id="line2d_157">
    <path d="M 1339.51697 397.845725 
" clip-path="url(#p7ae88b5998)" style="fill: none; stroke: #0000ff; stroke-width: 1.5; stroke-linecap: square"/>
    <g clip-path="url(#p7ae88b5998)">
     <use xlink:href="#mc84029ba18" x="1339.51697" y="397.845725" style="fill: #0000ff; stroke: #0000ff"/>
    </g>
   </g>
   <g id="line2d_158">
    <path d="M 776.376966 617.735279 
" clip-path="url(#p7ae88b5998)" style="fill: none; stroke: #0000ff; stroke-width: 1.5; stroke-linecap: square"/>
    <g clip-path="url(#p7ae88b5998)">
     <use xlink:href="#mc84029ba18" x="776.376966" y="617.735279" style="fill: #0000ff; stroke: #0000ff"/>
    </g>
   </g>
   <g id="line2d_159">
    <path d="M 133.977374 811.232924 
" clip-path="url(#p7ae88b5998)" style="fill: none; stroke: #ff0000; stroke-width: 1.5; stroke-linecap: square"/>
    <defs>
     <path id="mf05cdc530d" d="M 0 -10 
L -2.24514 -3.09017 
L -9.510565 -3.09017 
L -3.632713 1.18034 
L -5.877853 8.09017 
L -0 3.81966 
L 5.877853 8.09017 
L 3.632713 1.18034 
L 9.510565 -3.09017 
L 2.24514 -3.09017 
z
" style="stroke: #ff0000; stroke-linejoin: bevel"/>
    </defs>
    <g clip-path="url(#p7ae88b5998)">
     <use xlink:href="#mf05cdc530d" x="133.977374" y="811.232924" style="fill: #ff0000; stroke: #ff0000; stroke-linejoin: bevel"/>
    </g>
   </g>
   <g id="line2d_160">
    <path d="M 912.53278 735.26943 
" clip-path="url(#p7ae88b5998)" style="fill: none; stroke: #ff0000; stroke-width: 1.5; stroke-linecap: square"/>
    <g clip-path="url(#p7ae88b5998)">
     <use xlink:href="#mf05cdc530d" x="912.53278" y="735.26943" style="fill: #ff0000; stroke: #ff0000; stroke-linejoin: bevel"/>
    </g>
   </g>
   <g id="line2d_161">
    <path d="M 735.96133 854.627681 
" clip-path="url(#p7ae88b5998)" style="fill: none; stroke: #ff0000; stroke-width: 1.5; stroke-linecap: square"/>
    <g clip-path="url(#p7ae88b5998)">
     <use xlink:href="#mf05cdc530d" x="735.96133" y="854.627681" style="fill: #ff0000; stroke: #ff0000; stroke-linejoin: bevel"/>
    </g>
   </g>
   <g id="line2d_162">
    <path d="M 208.58079 983.437772 
" clip-path="url(#p7ae88b5998)" style="fill: none; stroke: #ff0000; stroke-width: 1.5; stroke-linecap: square"/>
    <g clip-path="url(#p7ae88b5998)">
     <use xlink:href="#mf05cdc530d" x="208.58079" y="983.437772" style="fill: #ff0000; stroke: #ff0000; stroke-linejoin: bevel"/>
    </g>
   </g>
   <g id="line2d_163">
    <path d="M 1000.493048 670.327268 
" clip-path="url(#p7ae88b5998)" style="fill: none; stroke: #ff0000; stroke-width: 1.5; stroke-linecap: square"/>
    <g clip-path="url(#p7ae88b5998)">
     <use xlink:href="#mf05cdc530d" x="1000.493048" y="670.327268" style="fill: #ff0000; stroke: #ff0000; stroke-linejoin: bevel"/>
    </g>
   </g>
   <g id="line2d_164">
    <path d="M 1339.51697 641.047492 
" clip-path="url(#p7ae88b5998)" style="fill: none; stroke: #ff0000; stroke-width: 1.5; stroke-linecap: square"/>
    <g clip-path="url(#p7ae88b5998)">
     <use xlink:href="#mf05cdc530d" x="1339.51697" y="641.047492" style="fill: #ff0000; stroke: #ff0000; stroke-linejoin: bevel"/>
    </g>
   </g>
   <g id="line2d_165">
    <path d="M 970.395567 210.500494 
" clip-path="url(#p7ae88b5998)" style="fill: none; stroke: #ff0000; stroke-width: 1.5; stroke-linecap: square"/>
    <g clip-path="url(#p7ae88b5998)">
     <use xlink:href="#mf05cdc530d" x="970.395567" y="210.500494" style="fill: #ff0000; stroke: #ff0000; stroke-linejoin: bevel"/>
    </g>
   </g>
   <g id="line2d_166">
    <path d="M 1248.429691 442.949486 
" clip-path="url(#p7ae88b5998)" style="fill: none; stroke: #ff0000; stroke-width: 1.5; stroke-linecap: square"/>
    <g clip-path="url(#p7ae88b5998)">
     <use xlink:href="#mf05cdc530d" x="1248.429691" y="442.949486" style="fill: #ff0000; stroke: #ff0000; stroke-linejoin: bevel"/>
    </g>
   </g>
   <g id="line2d_167">
    <path d="M 347.323912 760.712666 
" clip-path="url(#p7ae88b5998)" style="fill: none; stroke: #ff0000; stroke-width: 1.5; stroke-linecap: square"/>
    <g clip-path="url(#p7ae88b5998)">
     <use xlink:href="#mf05cdc530d" x="347.323912" y="760.712666" style="fill: #ff0000; stroke: #ff0000; stroke-linejoin: bevel"/>
    </g>
   </g>
  </g>
 </g>
 <defs>
  <clipPath id="p7ae88b5998">
   <rect x="0" y="0" width="1440" height="1440"/>
  </clipPath>
 </defs>
</svg>
