<?xml version="1.0" encoding="utf-8" standalone="no"?>
<!DOCTYPE svg PUBLIC "-//W3C//DTD SVG 1.1//EN"
  "http://www.w3.org/Graphics/SVG/1.1/DTD/svg11.dtd">
<svg xmlns:xlink="http://www.w3.org/1999/xlink" width="1440pt" height="1440pt" viewBox="0 0 1440 1440" xmlns="http://www.w3.org/2000/svg" version="1.1">
 <metadata>
  <rdf:RDF xmlns:dc="http://purl.org/dc/elements/1.1/" xmlns:cc="http://creativecommons.org/ns#" xmlns:rdf="http://www.w3.org/1999/02/22-rdf-syntax-ns#">
   <cc:Work>
    <dc:type rdf:resource="http://purl.org/dc/dcmitype/StillImage"/>
    <dc:date>2026-02-27T11:11:45.458031</dc:date>
    <dc:format>image/svg+xml</dc:format>
    <dc:creator>
     <cc:Agent>
      <dc:title>Matplotlib v3.7.3, https://matplotlib.org/</dc:title>
     </cc:Agent>
    </dc:creator>
   </cc:Work>
  </rdf:RDF>
 </metadata>
 <defs>
  <style type="text/css">*{stroke-linejoin: round; stroke-linecap: butt}</style>
 </defs>
 <g id="figure_1">
  <g id="patch_1">
   <path d="M 0 1440 
L 1440 1440 
L 1440 0 
L 0 0 
z
" style="fill: #ffffff"/>
  </g>
  <g id="axes_1">
   <g id="line2d_1">
    <path d="M 539.886069 821.289407 
L 538.52697 822.569207 
L -1 1344.436081 
" clip-path="url(#p0f2b16849a)" style="fill: none; stroke: #7a7a7a; stroke-width: 3; stroke-linecap: square"/>
   </g>
   <g id="line2d_2">
    <path d="M 539.886069 757.791625 
L 538.52697 759.169872 
L -1 1280.132255 
" clip-path="url(#p0f2b16849a)" style="fill: none; stroke: #7a7a7a; stroke-width: 3; stroke-linecap: square"/>
   </g>
   <g id="line2d_3">
    <path d="M 1385.059961 -1 
L 1053.540628 320.887511 
L 1052.861079 321.67508 
L 1052.266473 322.265757 
L 1051.332092 323.151773 
L 1050.652542 323.74245 
L 1049.548274 324.825358 
" clip-path="url(#p0f2b16849a)" style="fill: none; stroke: #7a7a7a; stroke-width: 3; stroke-linecap: square"/>
   </g>
   <g id="line2d_4">
    <path d="M 1318.400327 -1 
L 1053.540628 253.648775 
L 1052.861079 254.337898 
L 1052.266473 254.928575 
L 1051.332092 255.814591 
L 1050.652542 256.503714 
L 1049.548274 257.488176 
" clip-path="url(#p0f2b16849a)" style="fill: none; stroke: #7a7a7a; stroke-width: 3; stroke-linecap: square"/>
   </g>
   <g id="line2d_5">
    <path d="M -1 1371.028837 
L 109.051619 1266.266107 
L 219.563374 1158.073764 
L 341.967247 1040.824372 
L 538.611914 850.331028 
L 539.886069 849.051227 
" clip-path="url(#p0f2b16849a)" style="fill: none; stroke: #7a7a7a; stroke-width: 3; stroke-linecap: square"/>
   </g>
   <g id="line2d_6">
    <path d="M -1 1389.950052 
L 538.611914 866.180862 
L 539.886069 864.901061 
" clip-path="url(#p0f2b16849a)" style="fill: none; stroke: #7a7a7a; stroke-width: 3; stroke-linecap: square"/>
   </g>
   <g id="line2d_7">
    <path d="M 1417.593635 -1 
L 1053.625572 350.322917 
L 1052.861079 351.01204 
L 1052.266473 351.602717 
L 1051.332092 352.488732 
L 1050.652542 353.177856 
L 1049.548274 354.162317 
" clip-path="url(#p0f2b16849a)" style="fill: none; stroke: #7a7a7a; stroke-width: 3; stroke-linecap: square"/>
   </g>
   <g id="line2d_8">
    <path d="M 1397.92137 -1 
L 1053.540628 331.224359 
L 1052.861079 331.913482 
L 1052.266473 332.504159 
L 1051.332092 333.390175 
L 1050.652542 334.079298 
L 1049.548274 335.162206 
" clip-path="url(#p0f2b16849a)" style="fill: none; stroke: #7a7a7a; stroke-width: 3; stroke-linecap: square"/>
   </g>
   <g id="line2d_9">
    <path d="M 539.886069 849.051227 
L 538.611914 850.331028 
L 341.967247 1040.824372 
L 219.563374 1158.073764 
L 109.051619 1266.266107 
L -1 1371.028837 
" clip-path="url(#p0f2b16849a)" style="fill: none; stroke: #7a7a7a; stroke-width: 3; stroke-linecap: square"/>
   </g>
   <g id="line2d_10">
    <path d="M 539.886069 828.869762 
L 538.52697 830.149562 
L -1 1352.135264 
" clip-path="url(#p0f2b16849a)" style="fill: none; stroke: #7a7a7a; stroke-width: 3; stroke-linecap: square"/>
   </g>
   <g id="line2d_11">
    <path d="M 1049.548274 354.162317 
L 1050.652542 353.177856 
L 1051.332092 352.488732 
L 1052.266473 351.602717 
L 1052.861079 351.01204 
L 1053.625572 350.322917 
L 1417.593635 -1 
" clip-path="url(#p0f2b16849a)" style="fill: none; stroke: #7a7a7a; stroke-width: 3; stroke-linecap: square"/>
   </g>
   <g id="line2d_12">
    <path d="M 1049.548274 371.784182 
L 1050.652542 370.799721 
L 1051.332092 370.110597 
L 1052.266473 369.224582 
L 1052.861079 368.633905 
L 1053.625572 367.944782 
L 1377.430959 54.295275 
L 1434.890139 -1 
" clip-path="url(#p0f2b16849a)" style="fill: none; stroke: #7a7a7a; stroke-width: 3; stroke-linecap: square"/>
   </g>
   <g id="line2d_13">
    <path d="M 885.521988 632.66654 
L 902.510728 656.293621 
" clip-path="url(#p0f2b16849a)" style="fill: none; stroke: #7a7a7a; stroke-width: 3; stroke-linecap: square"/>
   </g>
   <g id="line2d_14">
    <path d="M 862.16247 660.723699 
L 874.224476 677.459548 
" clip-path="url(#p0f2b16849a)" style="fill: none; stroke: #7a7a7a; stroke-width: 3; stroke-linecap: square"/>
   </g>
   <g id="line2d_15">
    <path d="M 611.578553 179.518807 
L 601.979915 195.171749 
L 595.609137 211.316921 
L 592.296333 227.757432 
L 591.701727 244.197943 
L 593.655432 260.343115 
L 597.902617 275.799164 
L 604.103507 290.369198 
L 608.690467 296.768199 
" clip-path="url(#p0f2b16849a)" style="fill: none; stroke: #7a7a7a; stroke-width: 3; stroke-linecap: square"/>
   </g>
   <g id="line2d_16">
    <path d="M 595.609137 162.684512 
L 584.396569 178.337453 
L 575.732311 194.974856 
L 569.701308 212.202936 
L 566.048729 229.627909 
L 564.859518 247.052882 
L 566.048729 264.084069 
L 569.531421 280.327688 
L 575.392536 295.389952 
L 583.462188 308.975524 
L 588.049148 315.374525 
" clip-path="url(#p0f2b16849a)" style="fill: none; stroke: #7a7a7a; stroke-width: 3; stroke-linecap: square"/>
   </g>
   <g id="line2d_17">
    <path d="M 1049.548274 324.825358 
L 1048.104231 326.203604 
L 916.271608 454.872752 
" clip-path="url(#p0f2b16849a)" style="fill: none; stroke: #7a7a7a; stroke-width: 3; stroke-linecap: square"/>
   </g>
   <g id="line2d_18">
    <path d="M 1049.548274 257.488176 
L 1048.104231 258.866422 
L 887.220862 416.675637 
" clip-path="url(#p0f2b16849a)" style="fill: none; stroke: #7a7a7a; stroke-width: 3; stroke-linecap: square"/>
   </g>
   <g id="line2d_19">
    <path d="M 736.700624 474.266648 
L 757.002169 502.5207 
L 767.3653 518.665872 
L 774.330684 535.106383 
L 777.813375 551.546894 
L 777.728432 567.692066 
L 773.905965 583.345007 
L 766.176088 598.210379 
L 754.368914 612.09129 
" clip-path="url(#p0f2b16849a)" style="fill: none; stroke: #7a7a7a; stroke-width: 3; stroke-linecap: square"/>
   </g>
   <g id="line2d_20">
    <path d="M 716.39908 494.743452 
L 736.700624 522.899057 
L 742.052077 538.158214 
L 739.418823 556.075418 
L 727.18693 573.795729 
" clip-path="url(#p0f2b16849a)" style="fill: none; stroke: #7a7a7a; stroke-width: 3; stroke-linecap: square"/>
   </g>
   <g id="line2d_21">
    <path d="M 736.700624 474.266648 
L 608.690467 296.768199 
" clip-path="url(#p0f2b16849a)" style="fill: none; stroke: #7a7a7a; stroke-width: 3; stroke-linecap: square"/>
   </g>
   <g id="line2d_22">
    <path d="M 757.172056 453.691398 
L 699.240452 374.737568 
L 651.162318 308.089509 
L 630.520998 278.654103 
" clip-path="url(#p0f2b16849a)" style="fill: none; stroke: #7a7a7a; stroke-width: 3; stroke-linecap: square"/>
   </g>
   <g id="line2d_23">
    <path d="M 539.886069 849.051227 
L 541.160225 847.771427 
L 541.754831 847.18075 
L 542.519324 846.393181 
L 543.283818 845.704058 
L 544.133255 844.818042 
L 756.832281 636.998172 
" clip-path="url(#p0f2b16849a)" style="fill: none; stroke: #7a7a7a; stroke-width: 3; stroke-linecap: square"/>
   </g>
   <g id="line2d_24">
    <path d="M 539.886069 864.901061 
L 541.160225 863.621261 
L 541.839775 863.030584 
L 542.519324 862.341461 
L 543.283818 861.652338 
L 544.133255 860.766322 
L 765.07182 647.531912 
" clip-path="url(#p0f2b16849a)" style="fill: none; stroke: #7a7a7a; stroke-width: 3; stroke-linecap: square"/>
   </g>
   <g id="line2d_25">
    <path d="M 608.690467 296.768199 
L 596.033856 279.24478 
L 528.843388 185.819362 
" clip-path="url(#p0f2b16849a)" style="fill: none; stroke: #7a7a7a; stroke-width: 3; stroke-linecap: square"/>
   </g>
   <g id="line2d_26">
    <path d="M 630.520998 278.654103 
L 549.824482 164.751881 
" clip-path="url(#p0f2b16849a)" style="fill: none; stroke: #7a7a7a; stroke-width: 3; stroke-linecap: square"/>
   </g>
   <g id="line2d_27">
    <path d="M 916.271608 454.872752 
L 875.838406 494.349667 
L 862.926964 504.686515 
L 848.996197 512.365317 
L 834.38588 517.386072 
L 819.265901 519.650334 
L 804.145923 519.256549 
L 789.110888 516.106271 
L 774.585515 510.002609 
L 760.739692 501.044007 
L 748.08308 489.13202 
L 736.700624 474.266648 
" clip-path="url(#p0f2b16849a)" style="fill: none; stroke: #7a7a7a; stroke-width: 3; stroke-linecap: square"/>
   </g>
   <g id="line2d_28">
    <path d="M 887.220862 416.675637 
L 846.78766 456.152552 
L 831.667682 469.147447 
L 814.933773 476.432464 
L 797.945033 478.401387 
L 781.890673 475.152664 
L 778.747756 473.282186 
L 775.265064 471.608601 
L 771.612485 469.049001 
L 767.874962 466.784739 
L 762.013847 459.598168 
L 759.55048 456.841676 
L 757.172056 453.691398 
" clip-path="url(#p0f2b16849a)" style="fill: none; stroke: #7a7a7a; stroke-width: 3; stroke-linecap: square"/>
   </g>
   <g id="line2d_29">
    <path d="M 1185.79797 1051.751897 
L 1069.170269 886.953004 
L 980.064327 763.59995 
L 935.129109 701.381968 
" clip-path="url(#p0f2b16849a)" style="fill: none; stroke: #7a7a7a; stroke-width: 3; stroke-linecap: square"/>
   </g>
   <g id="line2d_30">
    <path d="M 1222.833424 1016.212829 
L 1162.438453 928.005058 
L 1160.99441 925.839242 
L 1155.048351 917.372871 
L 1131.009283 882.916711 
L 1113.425937 858.600506 
L 1052.096585 774.035244 
L 1027.972574 740.268207 
L 974.288155 666.039792 
" clip-path="url(#p0f2b16849a)" style="fill: none; stroke: #7a7a7a; stroke-width: 3; stroke-linecap: square"/>
   </g>
   <g id="line2d_31">
    <path d="M 936.573152 462.65 
L 889.00468 508.624362 
L 878.046942 520.044118 
L 869.892347 533.137459 
L 864.625838 547.707493 
L 862.332358 563.557327 
L 863.096851 580.293176 
L 867.174149 597.521256 
L 874.564251 615.143121 
L 885.521988 632.66654 
" clip-path="url(#p0f2b16849a)" style="fill: none; stroke: #7a7a7a; stroke-width: 3; stroke-linecap: square"/>
   </g>
   <g id="line2d_32">
    <path d="M 928.503501 451.427136 
L 880.935028 497.401499 
L 865.899993 512.857548 
L 854.262706 529.396505 
L 845.938223 546.723031 
L 840.501827 564.443342 
L 838.038459 582.2621 
L 838.208347 599.785518 
L 840.926545 616.816706 
L 845.938223 632.863432 
L 853.073494 647.630358 
L 862.16247 660.723699 
" clip-path="url(#p0f2b16849a)" style="fill: none; stroke: #7a7a7a; stroke-width: 3; stroke-linecap: square"/>
   </g>
   <g id="line2d_33">
    <path d="M 916.271608 454.872752 
L 754.368914 612.09129 
" clip-path="url(#p0f2b16849a)" style="fill: none; stroke: #7a7a7a; stroke-width: 3; stroke-linecap: square"/>
   </g>
   <g id="line2d_34">
    <path d="M 887.220862 416.675637 
L 727.18693 573.795729 
" clip-path="url(#p0f2b16849a)" style="fill: none; stroke: #7a7a7a; stroke-width: 3; stroke-linecap: square"/>
   </g>
   <g id="line2d_35">
    <path d="M 885.521988 632.66654 
L 874.564251 615.143121 
L 867.174149 597.521256 
L 863.096851 580.293176 
L 862.332358 563.557327 
L 864.625838 547.707493 
L 869.892347 533.137459 
L 878.046942 520.044118 
L 889.00468 508.624362 
L 936.573152 462.65 
" clip-path="url(#p0f2b16849a)" style="fill: none; stroke: #7a7a7a; stroke-width: 3; stroke-linecap: square"/>
   </g>
   <g id="line2d_36">
    <path d="M 925.27564 598.308826 
L 904.719264 569.956328 
L 894.271189 555.878525 
L 890.703554 550.562432 
L 888.495018 546.2308 
L 887.050975 542.194507 
L 886.626256 538.059768 
L 887.135918 533.826583 
L 889.00468 529.396505 
L 891.977709 525.163319 
L 896.8195 519.945672 
L 917.46082 499.862653 
L 918.819919 498.38596 
L 944.472916 473.675971 
" clip-path="url(#p0f2b16849a)" style="fill: none; stroke: #7a7a7a; stroke-width: 3; stroke-linecap: square"/>
   </g>
   <g id="line2d_37">
    <path d="M 736.700624 474.266648 
L 770.508217 521.127026 
L 777.728432 535.204829 
L 782.315392 551.743786 
L 784.014266 569.759436 
L 782.570223 588.365762 
L 777.728432 606.381412 
L 769.234062 622.920369 
L 756.832281 636.998172 
" clip-path="url(#p0f2b16849a)" style="fill: none; stroke: #7a7a7a; stroke-width: 3; stroke-linecap: square"/>
   </g>
   <g id="line2d_38">
    <path d="M 716.39908 494.743452 
L 750.206673 541.60383 
L 759.465536 558.142787 
L 764.13744 577.339791 
L 763.967552 596.733687 
L 758.785986 613.863321 
L 748.507799 626.169093 
" clip-path="url(#p0f2b16849a)" style="fill: none; stroke: #7a7a7a; stroke-width: 3; stroke-linecap: square"/>
   </g>
   <g id="line2d_39">
    <path d="M 528.843388 185.819362 
L 596.033856 279.24478 
L 608.690467 296.768199 
" clip-path="url(#p0f2b16849a)" style="fill: none; stroke: #7a7a7a; stroke-width: 3; stroke-linecap: square"/>
   </g>
   <g id="line2d_40">
    <path d="M 507.862294 204.721027 
L 588.049148 315.374525 
" clip-path="url(#p0f2b16849a)" style="fill: none; stroke: #7a7a7a; stroke-width: 3; stroke-linecap: square"/>
   </g>
   <g id="line2d_41">
    <path d="M 936.573152 462.65 
L 1048.104231 355.540564 
L 1049.548274 354.162317 
" clip-path="url(#p0f2b16849a)" style="fill: none; stroke: #7a7a7a; stroke-width: 3; stroke-linecap: square"/>
   </g>
   <g id="line2d_42">
    <path d="M 944.472916 473.675971 
L 1048.104231 373.260875 
L 1049.548274 371.784182 
" clip-path="url(#p0f2b16849a)" style="fill: none; stroke: #7a7a7a; stroke-width: 3; stroke-linecap: square"/>
   </g>
   <g id="line2d_43">
    <path d="M 756.832281 636.998172 
L 857.57551 538.551999 
L 936.573152 462.65 
" clip-path="url(#p0f2b16849a)" style="fill: none; stroke: #7a7a7a; stroke-width: 3; stroke-linecap: square"/>
   </g>
   <g id="line2d_44">
    <path d="M 765.07182 647.531912 
L 937.847308 480.074972 
L 944.472916 473.675971 
" clip-path="url(#p0f2b16849a)" style="fill: none; stroke: #7a7a7a; stroke-width: 3; stroke-linecap: square"/>
   </g>
   <g id="line2d_45">
    <path d="M 1049.548274 354.162317 
L 1048.104231 355.540564 
L 936.573152 462.65 
" clip-path="url(#p0f2b16849a)" style="fill: none; stroke: #7a7a7a; stroke-width: 3; stroke-linecap: square"/>
   </g>
   <g id="line2d_46">
    <path d="M 1049.548274 335.162206 
L 1048.104231 336.540453 
L 928.503501 451.427136 
" clip-path="url(#p0f2b16849a)" style="fill: none; stroke: #7a7a7a; stroke-width: 3; stroke-linecap: square"/>
   </g>
   <g id="line2d_47">
    <path d="M 885.521988 632.66654 
L 880.850085 626.267539 
L 869.127854 614.060213 
L 855.791693 604.11715 
L 841.26632 596.733687 
L 826.061397 591.909824 
L 810.601644 589.842455 
L 795.226834 590.630024 
L 780.44663 594.567871 
L 766.685751 601.655996 
L 754.368914 612.09129 
" clip-path="url(#p0f2b16849a)" style="fill: none; stroke: #7a7a7a; stroke-width: 3; stroke-linecap: square"/>
   </g>
   <g id="line2d_48">
    <path d="M 925.27564 598.308826 
L 920.433849 591.51604 
L 910.070718 578.324253 
L 897.753881 566.412266 
L 883.993001 556.27231 
L 869.04291 547.904385 
L 853.158438 541.60383 
L 836.67936 537.370645 
L 819.860507 535.303275 
L 803.041655 535.401721 
L 786.307746 537.961322 
L 770.168442 542.982077 
L 754.708689 550.562432 
L 740.26826 560.800834 
L 727.18693 573.795729 
" clip-path="url(#p0f2b16849a)" style="fill: none; stroke: #7a7a7a; stroke-width: 3; stroke-linecap: square"/>
   </g>
   <g id="line2d_49">
    <path d="M 608.690467 296.768199 
L 736.700624 474.266648 
" clip-path="url(#p0f2b16849a)" style="fill: none; stroke: #7a7a7a; stroke-width: 3; stroke-linecap: square"/>
   </g>
   <g id="line2d_50">
    <path d="M 588.049148 315.374525 
L 605.717438 339.789176 
L 656.598714 411.654882 
L 716.39908 494.743452 
" clip-path="url(#p0f2b16849a)" style="fill: none; stroke: #7a7a7a; stroke-width: 3; stroke-linecap: square"/>
   </g>
   <g id="line2d_51">
    <path d="M 756.832281 636.998172 
L 544.133255 844.818042 
L 543.283818 845.704058 
L 542.519324 846.393181 
L 541.754831 847.18075 
L 541.160225 847.771427 
L 539.886069 849.051227 
" clip-path="url(#p0f2b16849a)" style="fill: none; stroke: #7a7a7a; stroke-width: 3; stroke-linecap: square"/>
   </g>
   <g id="line2d_52">
    <path d="M 748.507799 626.169093 
L 544.133255 824.735023 
L 543.283818 825.522592 
L 542.519324 826.211715 
L 541.754831 826.999285 
L 541.160225 827.589962 
L 539.886069 828.869762 
" clip-path="url(#p0f2b16849a)" style="fill: none; stroke: #7a7a7a; stroke-width: 3; stroke-linecap: square"/>
   </g>
   <g id="line2d_53">
    <path d="M 916.271608 454.872752 
L 888.664905 481.94545 
L 877.367393 497.89373 
L 869.297741 515.023364 
L 864.116175 533.039013 
L 861.737752 551.251555 
L 861.992583 569.464097 
L 864.625838 587.184408 
L 869.552572 603.920258 
L 876.517956 619.179414 
L 885.521988 632.66654 
" clip-path="url(#p0f2b16849a)" style="fill: none; stroke: #7a7a7a; stroke-width: 3; stroke-linecap: square"/>
   </g>
   <g id="line2d_54">
    <path d="M 887.220862 416.675637 
L 874.224476 429.47364 
L 858.594835 445.618812 
L 846.193055 462.551554 
L 836.849247 479.976526 
L 830.138695 497.89373 
L 826.061397 515.909379 
L 824.192636 534.121921 
L 824.362523 552.137571 
L 826.316229 569.857882 
L 829.79892 587.184408 
L 834.640711 603.821811 
L 840.501827 619.770091 
L 847.212379 634.635463 
L 854.517537 648.319481 
L 862.16247 660.723699 
" clip-path="url(#p0f2b16849a)" style="fill: none; stroke: #7a7a7a; stroke-width: 3; stroke-linecap: square"/>
   </g>
   <g id="line2d_55">
    <path d="M 736.700624 474.266648 
L 748.422855 489.525805 
L 762.013847 502.028469 
L 776.878995 511.676194 
L 792.84841 518.567426 
L 809.327488 522.997504 
L 826.146341 524.769535 
L 842.795307 523.981965 
L 858.93461 520.831688 
L 874.224476 515.417148 
L 888.155243 507.639901 
L 900.472079 497.598391 
L 936.573152 462.65 
" clip-path="url(#p0f2b16849a)" style="fill: none; stroke: #7a7a7a; stroke-width: 3; stroke-linecap: square"/>
   </g>
   <g id="line2d_56">
    <path d="M 716.39908 494.743452 
L 726.847155 508.132131 
L 739.163992 519.354995 
L 753.009815 528.510489 
L 767.959906 535.598614 
L 783.929322 540.520922 
L 800.493344 543.474307 
L 817.39714 544.360323 
L 834.215993 543.277415 
L 850.864958 540.127138 
L 866.834374 535.106383 
L 881.954353 528.116705 
L 895.88512 519.256549 
L 908.2869 508.525916 
L 944.472916 473.675971 
" clip-path="url(#p0f2b16849a)" style="fill: none; stroke: #7a7a7a; stroke-width: 3; stroke-linecap: square"/>
   </g>
   <g id="line2d_57">
    <path d="M 936.573152 462.65 
L 857.57551 538.551999 
L 756.832281 636.998172 
" clip-path="url(#p0f2b16849a)" style="fill: none; stroke: #7a7a7a; stroke-width: 3; stroke-linecap: square"/>
   </g>
   <g id="line2d_58">
    <path d="M 928.503501 451.427136 
L 748.507799 626.169093 
" clip-path="url(#p0f2b16849a)" style="fill: none; stroke: #7a7a7a; stroke-width: 3; stroke-linecap: square"/>
   </g>
   <g id="line2d_59">
    <path d="M 608.690467 296.768199 
L 604.103507 290.369198 
L 597.902617 275.799164 
L 593.655432 260.343115 
L 591.701727 244.197943 
L 592.296333 227.757432 
L 595.609137 211.316921 
L 601.979915 195.171749 
L 611.578553 179.518807 
" clip-path="url(#p0f2b16849a)" style="fill: none; stroke: #7a7a7a; stroke-width: 3; stroke-linecap: square"/>
   </g>
   <g id="line2d_60">
    <path d="M 630.520998 278.654103 
L 627.038306 272.648886 
L 624.914714 267.431239 
L 621.262135 260.047776 
L 616.845062 242.229019 
L 616.760119 225.591616 
L 620.667529 210.430905 
L 628.397406 197.239118 
" clip-path="url(#p0f2b16849a)" style="fill: none; stroke: #7a7a7a; stroke-width: 3; stroke-linecap: square"/>
   </g>
   <g id="line2d_61">
    <path d="M 756.832281 636.998172 
L 786.222802 608.350335 
L 797.520314 597.718149 
L 811.111306 592.894286 
L 826.231285 593.091179 
L 842.030813 597.718149 
L 857.660454 606.381412 
L 872.440658 618.194953 
L 885.521988 632.66654 
" clip-path="url(#p0f2b16849a)" style="fill: none; stroke: #7a7a7a; stroke-width: 3; stroke-linecap: square"/>
   </g>
   <g id="line2d_62">
    <path d="M 765.07182 647.531912 
L 779.512249 633.651002 
L 788.516282 625.479969 
L 793.782791 622.231246 
L 798.624582 621.049892 
L 802.107274 621.246784 
L 805.844797 621.542122 
L 810.771531 623.018815 
L 822.153987 628.03957 
L 833.196668 635.127694 
L 847.976872 645.661435 
L 862.16247 660.723699 
" clip-path="url(#p0f2b16849a)" style="fill: none; stroke: #7a7a7a; stroke-width: 3; stroke-linecap: square"/>
   </g>
   <g id="line2d_63">
    <path d="M 885.521988 632.66654 
L 872.440658 618.194953 
L 857.660454 606.381412 
L 842.030813 597.718149 
L 826.231285 593.091179 
L 811.111306 592.894286 
L 797.520314 597.718149 
L 786.222802 608.350335 
L 756.832281 636.998172 
" clip-path="url(#p0f2b16849a)" style="fill: none; stroke: #7a7a7a; stroke-width: 3; stroke-linecap: square"/>
   </g>
   <g id="line2d_64">
    <path d="M 925.27564 598.308826 
L 915.337227 588.267316 
L 903.360165 579.505607 
L 889.599286 572.417482 
L 874.564251 567.298281 
L 858.594835 564.541788 
L 842.115757 564.443342 
L 825.381848 567.396727 
L 808.817826 573.598836 
L 792.84841 583.5419 
L 777.813375 597.521256 
L 748.507799 626.169093 
" clip-path="url(#p0f2b16849a)" style="fill: none; stroke: #7a7a7a; stroke-width: 3; stroke-linecap: square"/>
   </g>
   <g id="line2d_65">
    <path d="M 885.521988 632.66654 
L 736.700624 474.266648 
" clip-path="url(#p0f2b16849a)" style="fill: none; stroke: #7a7a7a; stroke-width: 3; stroke-linecap: square"/>
   </g>
   <g id="line2d_66">
    <path d="M 925.27564 598.308826 
L 780.616518 473.774417 
L 778.747756 473.282186 
L 775.265064 471.608601 
L 770.932936 468.55677 
L 767.025525 465.111154 
L 759.55048 456.841676 
L 757.172056 453.691398 
" clip-path="url(#p0f2b16849a)" style="fill: none; stroke: #7a7a7a; stroke-width: 3; stroke-linecap: square"/>
   </g>
   <g id="line2d_67">
    <path d="M 717.33346 648.024143 
L 544.133255 817.154668 
L 543.283818 818.040683 
L 542.519324 818.729806 
L 541.754831 819.41893 
L 541.160225 820.108053 
L 539.886069 821.289407 
" clip-path="url(#p0f2b16849a)" style="fill: none; stroke: #7a7a7a; stroke-width: 3; stroke-linecap: square"/>
   </g>
   <g id="line2d_68">
    <path d="M 690.23642 610.122366 
L 544.048311 753.656886 
L 543.198874 754.542902 
L 542.519324 755.133579 
L 541.754831 755.921148 
L 541.075281 756.610271 
L 539.886069 757.791625 
" clip-path="url(#p0f2b16849a)" style="fill: none; stroke: #7a7a7a; stroke-width: 3; stroke-linecap: square"/>
   </g>
   <g id="line2d_69">
    <path d="M 754.368914 612.09129 
L 717.33346 648.024143 
" clip-path="url(#p0f2b16849a)" style="fill: none; stroke: #7a7a7a; stroke-width: 3; stroke-linecap: square"/>
   </g>
   <g id="line2d_70">
    <path d="M 727.18693 573.795729 
L 690.23642 610.122366 
" clip-path="url(#p0f2b16849a)" style="fill: none; stroke: #7a7a7a; stroke-width: 3; stroke-linecap: square"/>
   </g>
   <g id="line2d_71">
    <path d="M 902.510728 656.293621 
L 885.521988 632.66654 
" clip-path="url(#p0f2b16849a)" style="fill: none; stroke: #7a7a7a; stroke-width: 3; stroke-linecap: square"/>
   </g>
   <g id="line2d_72">
    <path d="M 944.472916 624.790846 
L 925.27564 598.308826 
" clip-path="url(#p0f2b16849a)" style="fill: none; stroke: #7a7a7a; stroke-width: 3; stroke-linecap: square"/>
   </g>
   <g id="line2d_73">
    <path d="M 736.700624 474.266648 
L 885.521988 632.66654 
" clip-path="url(#p0f2b16849a)" style="fill: none; stroke: #7a7a7a; stroke-width: 3; stroke-linecap: square"/>
   </g>
   <g id="line2d_74">
    <path d="M 716.39908 494.743452 
L 862.16247 660.723699 
" clip-path="url(#p0f2b16849a)" style="fill: none; stroke: #7a7a7a; stroke-width: 3; stroke-linecap: square"/>
   </g>
   <g id="line2d_75">
    <path d="M 902.510728 656.293621 
L 935.129109 701.381968 
" clip-path="url(#p0f2b16849a)" style="fill: none; stroke: #7a7a7a; stroke-width: 3; stroke-linecap: square"/>
   </g>
   <g id="line2d_76">
    <path d="M 874.224476 677.459548 
L 908.881506 725.304388 
" clip-path="url(#p0f2b16849a)" style="fill: none; stroke: #7a7a7a; stroke-width: 3; stroke-linecap: square"/>
   </g>
   <g id="line2d_77">
    <path d="M 935.129109 701.381968 
L 902.510728 656.293621 
" clip-path="url(#p0f2b16849a)" style="fill: none; stroke: #7a7a7a; stroke-width: 3; stroke-linecap: square"/>
   </g>
   <g id="line2d_78">
    <path d="M 974.288155 666.039792 
L 944.472916 624.790846 
" clip-path="url(#p0f2b16849a)" style="fill: none; stroke: #7a7a7a; stroke-width: 3; stroke-linecap: square"/>
   </g>
   <g id="line2d_79">
    <path d="M 935.129109 701.381968 
L 980.064327 763.59995 
L 1069.170269 886.953004 
L 1185.79797 1051.751897 
" clip-path="url(#p0f2b16849a)" style="fill: none; stroke: #7a7a7a; stroke-width: 3; stroke-linecap: square"/>
   </g>
   <g id="line2d_80">
    <path d="M 908.881506 725.304388 
L 943.028873 804.75045 
L 986.435105 864.704169 
L 1048.613894 951.730586 
L 1061.185561 969.647789 
L 1080.382838 996.425148 
L 1099.919889 1023.005615 
L 1126.082549 1059.233806 
L 1125.912661 1060.119822 
L 1146.29915 1088.669212 
" clip-path="url(#p0f2b16849a)" style="fill: none; stroke: #7a7a7a; stroke-width: 3; stroke-linecap: square"/>
   </g>
   <g id="line2d_81">
    <path d="M 342.973672 993.954236 
L 339.193096 1001.395382 
" clip-path="url(#p0f2b16849a)" style="fill: none; stroke-dasharray: 32,8,5,8; stroke-dashoffset: 0; stroke: #1e90ff; stroke-width: 5"/>
   </g>
   <g id="line2d_82">
    <path d="M 1312.584449 49.223086 
L 1311.836836 49.363689 
" clip-path="url(#p0f2b16849a)" style="fill: none; stroke-dasharray: 32,8,5,8; stroke-dashoffset: 0; stroke: #1e90ff; stroke-width: 5"/>
   </g>
   <g id="line2d_83">
    <path d="M 935.141801 505.925841 
L 849.903618 492.354041 
" clip-path="url(#p0f2b16849a)" style="fill: none; stroke-dasharray: 32,8,5,8; stroke-dashoffset: 0; stroke: #1e90ff; stroke-width: 5"/>
   </g>
   <g id="line2d_84">
    <path d="M 342.973672 993.954236 
" clip-path="url(#p0f2b16849a)" style="fill: none; stroke: #0000ff; stroke-width: 1.5; stroke-linecap: square"/>
    <defs>
     <path id="mfc6a6f2d22" d="M 0 10 
C 2.652031 10 5.195799 8.946337 7.071068 7.071068 
C 8.946337 5.195799 10 2.652031 10 0 
C 10 -2.652031 8.946337 -5.195799 7.071068 -7.071068 
C 5.195799 -8.946337 2.652031 -10 0 -10 
C -2.652031 -10 -5.195799 -8.946337 -7.071068 -7.071068 
C -8.946337 -5.195799 -10 -2.652031 -10 0 
C -10 2.652031 -8.946337 5.195799 -7.071068 7.071068 
C -5.195799 8.946337 -2.652031 10 0 10 
z
" style="stroke: #0000ff"/>
    </defs>
    <g clip-path="url(#p0f2b16849a)">
     <use xlink:href="#mfc6a6f2d22" x="342.973672" y="993.954236" style="fill: #0000ff; stroke: #0000ff"/>
    </g>
   </g>
   <g id="line2d_85">
    <path d="M 1312.584449 49.223086 
" clip-path="url(#p0f2b16849a)" style="fill: none; stroke: #0000ff; stroke-width: 1.5; stroke-linecap: square"/>
    <g clip-path="url(#p0f2b16849a)">
     <use xlink:href="#mfc6a6f2d22" x="1312.584449" y="49.223086" style="fill: #0000ff; stroke: #0000ff"/>
    </g>
   </g>
   <g id="line2d_86">
    <path d="M 935.141801 505.925841 
" clip-path="url(#p0f2b16849a)" style="fill: none; stroke: #0000ff; stroke-width: 1.5; stroke-linecap: square"/>
    <g clip-path="url(#p0f2b16849a)">
     <use xlink:href="#mfc6a6f2d22" x="935.141801" y="505.925841" style="fill: #0000ff; stroke: #0000ff"/>
    </g>
   </g>
   <g id="line2d_87">
    <path d="M 339.193096 1001.395382 
" clip-path="url(#p0f2b16849a)" style="fill: none; stroke: #ff0000; stroke-width: 1.5; stroke-linecap: square"/>
    <defs>
     <path id="m6f657b87e8" d="M 0 -10 
L -2.24514 -3.09017 
L -9.510565 -3.09017 
L -3.632713 1.18034 
L -5.877853 8.09017 
L -0 3.81966 
L 5.877853 8.09017 
L 3.632713 1.18034 
L 9.510565 -3.09017 
L 2.24514 -3.09017 
z
" style="stroke: #ff0000; stroke-linejoin: bevel"/>
    </defs>
    <g clip-path="url(#p0f2b16849a)">
     <use xlink:href="#m6f657b87e8" x="339.193096" y="1001.395382" style="fill: #ff0000; stroke: #ff0000; stroke-linejoin: bevel"/>
    </g>
   </g>
   <g id="line2d_88">
    <path d="M 1311.836836 49.363689 
" clip-path="url(#p0f2b16849a)" style="fill: none; stroke: #ff0000; stroke-width: 1.5; stroke-linecap: square"/>
    <g clip-path="url(#p0f2b16849a)">
     <use xlink:href="#m6f657b87e8" x="1311.836836" y="49.363689" style="fill: #ff0000; stroke: #ff0000; stroke-linejoin: bevel"/>
    </g>
   </g>
   <g id="line2d_89">
    <path d="M 849.903618 492.354041 
" clip-path="url(#p0f2b16849a)" style="fill: none; stroke: #ff0000; stroke-width: 1.5; stroke-linecap: square"/>
    <g clip-path="url(#p0f2b16849a)">
     <use xlink:href="#m6f657b87e8" x="849.903618" y="492.354041" style="fill: #ff0000; stroke: #ff0000; stroke-linejoin: bevel"/>
    </g>
   </g>
  </g>
 </g>
 <defs>
  <clipPath id="p0f2b16849a">
   <rect x="0" y="0" width="1440" height="1440"/>
  </clipPath>
 </defs>
</svg>
