<?xml version="1.0" encoding="utf-8" standalone="no"?>
<!DOCTYPE svg PUBLIC "-//W3C//DTD SVG 1.1//EN"
  "http://www.w3.org/Graphics/SVG/1.1/DTD/svg11.dtd">
<svg xmlns:xlink="http://www.w3.org/1999/xlink" width="1440pt" height="1440pt" viewBox="0 0 1440 1440" xmlns="http://www.w3.org/2000/svg" version="1.1">
 <metadata>
  <rdf:RDF xmlns:dc="http://purl.org/dc/elements/1.1/" xmlns:cc="http://creativecommons.org/ns#" xmlns:rdf="http://www.w3.org/1999/02/22-rdf-syntax-ns#">
   <cc:Work>
    <dc:type rdf:resource="http://purl.org/dc/dcmitype/StillImage"/>
    <dc:date>2026-02-27T11:11:55.597609</dc:date>
    <dc:format>image/svg+xml</dc:format>
    <dc:creator>
     <cc:Agent>
      <dc:title>Matplotlib v3.7.3, https://matplotlib.org/</dc:title>
     </cc:Agent>
    </dc:creator>
   </cc:Work>
  </rdf:RDF>
 </metadata>
 <defs>
  <style type="text/css">*{stroke-linejoin: round; stroke-linecap: butt}</style>
 </defs>
 <g id="figure_1">
  <g id="patch_1">
   <path d="M 0 1440 
L 1440 1440 
L 1440 0 
L 0 0 
z
" style="fill: #ffffff"/>
  </g>
  <g id="axes_1">
   <g id="line2d_1">
    <path d="M 1008.400986 298.965143 
L 1013.706017 284.751019 
L 1013.352348 268.494147 
L 1004.687464 253.343764 
L 988.418701 239.895671 
L 964.54606 228.74567 
L 933.776878 220.659791 
L 926.349834 219.297959 
" clip-path="url(#p04822acdb1)" style="fill: none; stroke: #7a7a7a; stroke-width: 3; stroke-linecap: square"/>
   </g>
   <g id="line2d_2">
    <path d="M 1080.372578 313.179267 
L 1086.384947 303.305983 
L 1090.452138 288.325829 
L 1088.683794 272.664759 
L 1081.964088 256.833459 
L 1070.469853 241.342618 
L 1054.908428 226.702921 
L 1035.456646 213.425057 
L 1012.645011 202.104827 
L 987.004026 193.252918 
L 959.064194 187.294902 
L 951.63715 185.93307 
" clip-path="url(#p04822acdb1)" style="fill: none; stroke: #7a7a7a; stroke-width: 3; stroke-linecap: square"/>
   </g>
   <g id="line2d_3">
    <path d="M 1111.495429 169.931541 
L 1101.415869 182.443375 
L 1084.262935 197.2533 
L 1059.152453 209.084217 
L 1028.383271 217.680783 
L 994.254235 222.53231 
L 959.594697 223.213226 
L 926.349834 219.297959 
" clip-path="url(#p04822acdb1)" style="fill: none; stroke: #7a7a7a; stroke-width: 3; stroke-linecap: square"/>
   </g>
   <g id="line2d_4">
    <path d="M 1043.414193 155.462074 
L 1036.340818 164.569327 
L 1032.096793 169.33574 
L 1025.377086 174.953297 
L 1019.187883 178.783451 
L 1011.053501 182.443375 
L 1003.095954 185.081925 
L 995.66891 186.613986 
L 985.766185 187.805589 
L 976.217129 188.146047 
L 963.308219 187.465131 
L 951.63715 185.93307 
" clip-path="url(#p04822acdb1)" style="fill: none; stroke: #7a7a7a; stroke-width: 3; stroke-linecap: square"/>
   </g>
   <g id="line2d_5">
    <path d="M 1008.400986 298.965143 
L 588.065665 813.227032 
L 587.004659 814.503749 
L 586.65099 814.844208 
L 585.766818 816.035811 
L 585.41315 816.461383 
" clip-path="url(#p04822acdb1)" style="fill: none; stroke: #7a7a7a; stroke-width: 3; stroke-linecap: square"/>
   </g>
   <g id="line2d_6">
    <path d="M 937.667234 286.283081 
L 924.58149 302.369724 
L 920.691133 307.561709 
L 911.318911 318.881939 
L 553.406127 761.647637 
L 545.802249 771.606035 
L 511.673213 813.227032 
L 510.612207 814.503749 
L 510.258538 814.844208 
L 509.374366 816.035811 
L 509.020698 816.461383 
" clip-path="url(#p04822acdb1)" style="fill: none; stroke: #7a7a7a; stroke-width: 3; stroke-linecap: square"/>
   </g>
   <g id="line2d_7">
    <path d="M 1111.495429 169.931541 
L 1008.400986 298.965143 
" clip-path="url(#p04822acdb1)" style="fill: none; stroke: #7a7a7a; stroke-width: 3; stroke-linecap: square"/>
   </g>
   <g id="line2d_8">
    <path d="M 1043.414193 155.462074 
L 1036.340818 164.569327 
L 1032.096793 169.33574 
L 937.667234 286.283081 
" clip-path="url(#p04822acdb1)" style="fill: none; stroke: #7a7a7a; stroke-width: 3; stroke-linecap: square"/>
   </g>
   <g id="line2d_9">
    <path d="M 1111.495429 169.931541 
L 1208.223835 50.430765 
" clip-path="url(#p04822acdb1)" style="fill: none; stroke: #7a7a7a; stroke-width: 3; stroke-linecap: square"/>
   </g>
   <g id="line2d_10">
    <path d="M 1183.113353 184.401008 
L 1291.159159 50.430765 
" clip-path="url(#p04822acdb1)" style="fill: none; stroke: #7a7a7a; stroke-width: 3; stroke-linecap: square"/>
   </g>
   <g id="line2d_11">
    <path d="M 1008.400986 298.965143 
L 1018.303711 285.942623 
L 1032.627296 276.580026 
L 1048.188721 271.388041 
L 1072.945534 265.855598 
L 1102.300041 262.961704 
L 1131.831383 262.706361 
L 1157.295533 263.897964 
L 1201.680963 271.813613 
" clip-path="url(#p04822acdb1)" style="fill: none; stroke: #7a7a7a; stroke-width: 3; stroke-linecap: square"/>
   </g>
   <g id="line2d_12">
    <path d="M 1080.372578 313.179267 
L 1083.201928 310.455602 
L 1089.037463 306.795678 
L 1092.220482 305.008274 
L 1098.056016 302.625067 
L 1104.24522 300.837662 
L 1110.788092 299.731174 
L 1117.330964 299.135372 
L 1128.117861 299.220487 
L 1138.904758 300.156746 
L 1150.575827 301.859037 
L 1153.228343 302.284609 
L 1177.985156 306.625449 
" clip-path="url(#p04822acdb1)" style="fill: none; stroke: #7a7a7a; stroke-width: 3; stroke-linecap: square"/>
   </g>
   <g id="line2d_13">
    <path d="M 926.349834 219.297959 
L 959.594697 223.213226 
L 994.254235 222.53231 
L 1028.383271 217.680783 
L 1059.152453 209.084217 
L 1084.262935 197.2533 
L 1101.415869 182.443375 
L 1111.495429 169.931541 
" clip-path="url(#p04822acdb1)" style="fill: none; stroke: #7a7a7a; stroke-width: 3; stroke-linecap: square"/>
   </g>
   <g id="line2d_14">
    <path d="M 900.885683 254.96094 
L 932.539037 259.642238 
L 965.253397 261.429643 
L 997.790923 260.748727 
L 1029.797946 257.684604 
L 1060.567128 252.407504 
L 1089.391132 245.002542 
L 1115.739454 235.554831 
L 1138.904758 224.149486 
L 1158.533374 211.041851 
L 1173.741131 196.146811 
L 1183.113353 184.401008 
" clip-path="url(#p04822acdb1)" style="fill: none; stroke: #7a7a7a; stroke-width: 3; stroke-linecap: square"/>
   </g>
   <g id="line2d_15">
    <path d="M 1201.680963 271.813613 
L 926.349834 219.297959 
" clip-path="url(#p04822acdb1)" style="fill: none; stroke: #7a7a7a; stroke-width: 3; stroke-linecap: square"/>
   </g>
   <g id="line2d_16">
    <path d="M 1224.669432 237.42735 
L 951.63715 185.93307 
" clip-path="url(#p04822acdb1)" style="fill: none; stroke: #7a7a7a; stroke-width: 3; stroke-linecap: square"/>
   </g>
   <g id="line2d_17">
    <path d="M 1008.400986 298.965143 
L 1111.495429 169.931541 
" clip-path="url(#p04822acdb1)" style="fill: none; stroke: #7a7a7a; stroke-width: 3; stroke-linecap: square"/>
   </g>
   <g id="line2d_18">
    <path d="M 1080.372578 313.179267 
L 1183.113353 184.401008 
" clip-path="url(#p04822acdb1)" style="fill: none; stroke: #7a7a7a; stroke-width: 3; stroke-linecap: square"/>
   </g>
   <g id="line2d_19">
    <path d="M -1 1007.911953 
L 19.3663 1011.714077 
L 20.073638 1011.884306 
L 22.902988 1012.394993 
" clip-path="url(#p04822acdb1)" style="fill: none; stroke: #7a7a7a; stroke-width: 3; stroke-linecap: square"/>
   </g>
   <g id="line2d_20">
    <path d="M -1 1047.043089 
L 19.3663 1051.122096 
L 20.073638 1051.207211 
L 22.902988 1051.717898 
" clip-path="url(#p04822acdb1)" style="fill: none; stroke: #7a7a7a; stroke-width: 3; stroke-linecap: square"/>
   </g>
   <g id="line2d_21">
    <path d="M 926.349834 219.297959 
L 933.776878 220.659791 
L 964.54606 228.74567 
L 988.418701 239.895671 
L 1004.687464 253.343764 
L 1013.352348 268.494147 
L 1013.706017 284.751019 
L 1008.400986 298.965143 
" clip-path="url(#p04822acdb1)" style="fill: none; stroke: #7a7a7a; stroke-width: 3; stroke-linecap: square"/>
   </g>
   <g id="line2d_22">
    <path d="M 900.885683 254.96094 
L 907.251721 256.578116 
L 911.495746 257.259032 
L 920.337465 260.493383 
L 927.234006 263.557506 
L 932.185368 266.536514 
L 936.429393 270.111323 
L 938.551406 273.26056 
L 939.966081 277.941858 
L 938.72824 283.048729 
L 937.667234 286.283081 
" clip-path="url(#p04822acdb1)" style="fill: none; stroke: #7a7a7a; stroke-width: 3; stroke-linecap: square"/>
   </g>
   <g id="line2d_23">
    <path d="M 585.41315 816.461383 
L 585.766818 816.035811 
L 586.65099 814.844208 
L 587.004659 814.503749 
L 588.065665 813.227032 
L 1008.400986 298.965143 
" clip-path="url(#p04822acdb1)" style="fill: none; stroke: #7a7a7a; stroke-width: 3; stroke-linecap: square"/>
   </g>
   <g id="line2d_24">
    <path d="M 674.360843 816.461383 
L 674.714511 816.035811 
L 675.775518 814.844208 
L 675.952352 814.588864 
L 677.013358 813.227032 
L 744.564091 729.474351 
L 758.180339 711.855647 
L 814.060003 642.061746 
L 886.208429 552.606392 
L 1072.061362 322.031176 
L 1080.372578 313.179267 
" clip-path="url(#p04822acdb1)" style="fill: none; stroke: #7a7a7a; stroke-width: 3; stroke-linecap: square"/>
   </g>
   <g id="line2d_25">
    <path d="M 926.349834 219.297959 
L 1201.680963 271.813613 
" clip-path="url(#p04822acdb1)" style="fill: none; stroke: #7a7a7a; stroke-width: 3; stroke-linecap: square"/>
   </g>
   <g id="line2d_26">
    <path d="M 900.885683 254.96094 
L 1150.575827 301.859037 
L 1177.985156 306.625449 
" clip-path="url(#p04822acdb1)" style="fill: none; stroke: #7a7a7a; stroke-width: 3; stroke-linecap: square"/>
   </g>
   <g id="line2d_27">
    <path d="M 1208.223835 50.430765 
L 1111.495429 169.931541 
" clip-path="url(#p04822acdb1)" style="fill: none; stroke: #7a7a7a; stroke-width: 3; stroke-linecap: square"/>
   </g>
   <g id="line2d_28">
    <path d="M 1128.294695 50.430765 
L 1043.414193 155.462074 
" clip-path="url(#p04822acdb1)" style="fill: none; stroke: #7a7a7a; stroke-width: 3; stroke-linecap: square"/>
   </g>
   <g id="line2d_29">
    <path d="M -1 50.366667 
L 926.349834 219.297959 
" clip-path="url(#p04822acdb1)" style="fill: none; stroke: #7a7a7a; stroke-width: 3; stroke-linecap: square"/>
   </g>
   <g id="line2d_30">
    <path d="M -1 87.429895 
L 786.473839 234.107884 
L 900.885683 254.96094 
" clip-path="url(#p04822acdb1)" style="fill: none; stroke: #7a7a7a; stroke-width: 3; stroke-linecap: square"/>
   </g>
   <g id="line2d_31">
    <path d="M 1201.680963 271.813613 
L 1441 316.773039 
" clip-path="url(#p04822acdb1)" style="fill: none; stroke: #7a7a7a; stroke-width: 3; stroke-linecap: square"/>
   </g>
   <g id="line2d_32">
    <path d="M 1177.985156 306.625449 
L 1385.588718 346.118583 
L 1441 356.463172 
" clip-path="url(#p04822acdb1)" style="fill: none; stroke: #7a7a7a; stroke-width: 3; stroke-linecap: square"/>
   </g>
   <g id="line2d_33">
    <path d="M 1201.680963 271.813613 
L 1174.271634 265.259796 
L 1150.045324 255.897199 
L 1129.70937 244.321626 
L 1113.97111 231.128876 
L 1103.361048 216.744523 
L 1098.586519 201.849484 
L 1100.354863 187.039558 
L 1109.196582 172.74032 
L 1111.495429 169.931541 
" clip-path="url(#p04822acdb1)" style="fill: none; stroke: #7a7a7a; stroke-width: 3; stroke-linecap: square"/>
   </g>
   <g id="line2d_34">
    <path d="M 1224.669432 237.42735 
L 1212.998363 235.044144 
L 1203.802975 232.575823 
L 1196.199097 229.767044 
L 1189.125722 225.936891 
L 1183.113353 221.255593 
L 1177.985156 215.127348 
L 1175.155806 209.594904 
L 1174.0948 204.743377 
L 1174.448468 200.828109 
L 1176.216812 196.572384 
L 1179.930334 190.954826 
L 1180.814506 187.209787 
L 1183.113353 184.401008 
" clip-path="url(#p04822acdb1)" style="fill: none; stroke: #7a7a7a; stroke-width: 3; stroke-linecap: square"/>
   </g>
   <g id="line2d_35">
    <path d="M 1111.495429 169.931541 
L 1109.196582 172.74032 
L 1100.354863 187.039558 
L 1098.586519 201.849484 
L 1103.361048 216.744523 
L 1113.97111 231.128876 
L 1129.70937 244.321626 
L 1150.045324 255.897199 
L 1174.271634 265.259796 
L 1201.680963 271.813613 
" clip-path="url(#p04822acdb1)" style="fill: none; stroke: #7a7a7a; stroke-width: 3; stroke-linecap: square"/>
   </g>
   <g id="line2d_36">
    <path d="M 1043.414193 155.462074 
L 1041.822684 157.504822 
L 1032.627296 172.655206 
L 1028.560105 188.912078 
L 1029.797946 205.594522 
L 1035.63348 222.191852 
L 1045.889874 238.36361 
L 1060.213459 253.854451 
L 1078.073731 268.153689 
L 1099.117023 280.920866 
L 1122.989664 291.900639 
L 1149.337986 300.582319 
L 1177.985156 306.625449 
" clip-path="url(#p04822acdb1)" style="fill: none; stroke: #7a7a7a; stroke-width: 3; stroke-linecap: square"/>
   </g>
   <g id="line2d_37">
    <path d="M 22.902988 1012.394993 
L 20.073638 1011.884306 
L 19.3663 1011.714077 
L -1 1007.911953 
" clip-path="url(#p04822acdb1)" style="fill: none; stroke: #7a7a7a; stroke-width: 3; stroke-linecap: square"/>
   </g>
   <g id="line2d_38">
    <path d="M 22.902988 973.412546 
L 20.073638 972.901859 
L -1 968.987523 
" clip-path="url(#p04822acdb1)" style="fill: none; stroke: #7a7a7a; stroke-width: 3; stroke-linecap: square"/>
   </g>
   <g id="line2d_39">
    <path d="M 1441 316.773039 
L 1201.680963 271.813613 
" clip-path="url(#p04822acdb1)" style="fill: none; stroke: #7a7a7a; stroke-width: 3; stroke-linecap: square"/>
   </g>
   <g id="line2d_40">
    <path d="M 1441 277.123033 
L 1325.641863 255.982314 
L 1249.426245 242.108648 
L 1224.669432 237.42735 
" clip-path="url(#p04822acdb1)" style="fill: none; stroke: #7a7a7a; stroke-width: 3; stroke-linecap: square"/>
   </g>
   <g id="line2d_41">
    <path d="M 926.349834 219.297959 
L -1 50.366667 
" clip-path="url(#p04822acdb1)" style="fill: none; stroke: #7a7a7a; stroke-width: 3; stroke-linecap: square"/>
   </g>
   <g id="line2d_42">
    <path d="M 951.63715 185.93307 
L 950.576144 185.762841 
L 906.544383 177.847191 
L 146.863888 37.238015 
L -1 9.566003 
" clip-path="url(#p04822acdb1)" style="fill: none; stroke: #7a7a7a; stroke-width: 3; stroke-linecap: square"/>
   </g>
   <g id="line2d_43">
    <path d="M 1201.680963 271.813613 
L 1157.295533 263.897964 
L 1131.831383 262.706361 
L 1102.300041 262.961704 
L 1072.945534 265.855598 
L 1048.188721 271.388041 
L 1032.627296 276.580026 
L 1018.303711 285.942623 
L 1008.400986 298.965143 
" clip-path="url(#p04822acdb1)" style="fill: none; stroke: #7a7a7a; stroke-width: 3; stroke-linecap: square"/>
   </g>
   <g id="line2d_44">
    <path d="M 1224.669432 237.42735 
L 1195.491759 231.894907 
L 1162.954234 228.234983 
L 1129.532536 227.383838 
L 1095.934004 229.171242 
L 1063.042809 233.512083 
L 1031.56629 240.0659 
L 1002.388617 248.832695 
L 976.570797 259.557124 
L 954.643334 272.068957 
L 937.667234 286.283081 
" clip-path="url(#p04822acdb1)" style="fill: none; stroke: #7a7a7a; stroke-width: 3; stroke-linecap: square"/>
   </g>
   <g id="line2d_45">
    <path d="M 1441 1276.593332 
L 506.014513 1102.446148 
" clip-path="url(#p04822acdb1)" style="fill: none; stroke: #7a7a7a; stroke-width: 3; stroke-linecap: square"/>
   </g>
   <g id="line2d_46">
    <path d="M 1441 1237.644053 
L 1416.888403 1233.18204 
L 1380.814189 1226.287764 
L 683.025727 1096.317903 
L 667.464302 1093.849582 
L 607.340613 1082.274008 
L 532.716504 1068.315228 
" clip-path="url(#p04822acdb1)" style="fill: none; stroke: #7a7a7a; stroke-width: 3; stroke-linecap: square"/>
   </g>
   <g id="line2d_47">
    <path d="M 86.094928 1441 
L 325.289777 1143.556457 
" clip-path="url(#p04822acdb1)" style="fill: none; stroke: #7a7a7a; stroke-width: 3; stroke-linecap: square"/>
   </g>
   <g id="line2d_48">
    <path d="M 165.695602 1441 
L 262.159904 1323.658767 
L 278.251832 1303.741971 
L 384.175626 1168.069437 
L 395.66986 1156.068291 
" clip-path="url(#p04822acdb1)" style="fill: none; stroke: #7a7a7a; stroke-width: 3; stroke-linecap: square"/>
   </g>
   <g id="line2d_49">
    <path d="M 325.289777 1143.556457 
L 329.180133 1138.790045 
L 346.509903 1125.001494 
L 366.492188 1113.936607 
L 389.303823 1105.51027 
L 414.767973 1100.062941 
L 442.88464 1097.59462 
L 473.300153 1098.360651 
L 506.014513 1102.446148 
" clip-path="url(#p04822acdb1)" style="fill: none; stroke: #7a7a7a; stroke-width: 3; stroke-linecap: square"/>
   </g>
   <g id="line2d_50">
    <path d="M 395.66986 1156.068291 
L 398.49921 1152.919054 
L 403.627407 1149.854931 
L 407.694598 1146.705694 
L 413.176464 1143.641572 
L 419.89617 1140.492335 
L 426.615877 1138.109129 
L 434.750258 1136.06638 
L 445.890824 1134.449205 
L 451.37269 1134.193861 
L 459.330237 1134.449205 
L 478.251516 1136.491953 
" clip-path="url(#p04822acdb1)" style="fill: none; stroke: #7a7a7a; stroke-width: 3; stroke-linecap: square"/>
   </g>
   <g id="line2d_51">
    <path d="M 585.41315 816.461383 
L 431.567239 1013.501481 
" clip-path="url(#p04822acdb1)" style="fill: none; stroke: #7a7a7a; stroke-width: 3; stroke-linecap: square"/>
   </g>
   <g id="line2d_52">
    <path d="M 509.020698 816.461383 
L 417.06682 929.919029 
L 362.424997 1000.904533 
L 361.187156 1002.181251 
" clip-path="url(#p04822acdb1)" style="fill: none; stroke: #7a7a7a; stroke-width: 3; stroke-linecap: square"/>
   </g>
   <g id="line2d_53">
    <path d="M 506.014513 1102.446148 
L 261.452566 1056.909883 
" clip-path="url(#p04822acdb1)" style="fill: none; stroke: #7a7a7a; stroke-width: 3; stroke-linecap: square"/>
   </g>
   <g id="line2d_54">
    <path d="M 532.716504 1068.315228 
L 288.508226 1021.417131 
" clip-path="url(#p04822acdb1)" style="fill: none; stroke: #7a7a7a; stroke-width: 3; stroke-linecap: square"/>
   </g>
   <g id="line2d_55">
    <path d="M 506.014513 1102.446148 
L 1441 1276.593332 
" clip-path="url(#p04822acdb1)" style="fill: none; stroke: #7a7a7a; stroke-width: 3; stroke-linecap: square"/>
   </g>
   <g id="line2d_56">
    <path d="M 478.251516 1136.491953 
L 498.587469 1139.896533 
L 615.474994 1161.941192 
L 759.241345 1188.667149 
L 842.884006 1204.498449 
L 1441 1315.779902 
" clip-path="url(#p04822acdb1)" style="fill: none; stroke: #7a7a7a; stroke-width: 3; stroke-linecap: square"/>
   </g>
   <g id="line2d_57">
    <path d="M 506.014513 1102.446148 
L 473.300153 1098.360651 
L 442.88464 1097.59462 
L 414.767973 1100.062941 
L 389.303823 1105.51027 
L 366.492188 1113.936607 
L 346.509903 1125.001494 
L 329.180133 1138.790045 
L 325.289777 1143.556457 
" clip-path="url(#p04822acdb1)" style="fill: none; stroke: #7a7a7a; stroke-width: 3; stroke-linecap: square"/>
   </g>
   <g id="line2d_58">
    <path d="M 532.716504 1068.315228 
L 500.886316 1063.293472 
L 467.995122 1061.080494 
L 434.927093 1061.591181 
L 402.389567 1064.655304 
L 371.089881 1070.102633 
L 341.735374 1077.677824 
L 315.210217 1087.380879 
L 292.044914 1098.956453 
L 273.123635 1112.234317 
L 259.153719 1127.129356 
L 255.263363 1131.810655 
" clip-path="url(#p04822acdb1)" style="fill: none; stroke: #7a7a7a; stroke-width: 3; stroke-linecap: square"/>
   </g>
   <g id="line2d_59">
    <path d="M 325.289777 1143.556457 
L 431.567239 1013.501481 
" clip-path="url(#p04822acdb1)" style="fill: none; stroke: #7a7a7a; stroke-width: 3; stroke-linecap: square"/>
   </g>
   <g id="line2d_60">
    <path d="M 395.66986 1156.068291 
L 504.423004 1025.672857 
" clip-path="url(#p04822acdb1)" style="fill: none; stroke: #7a7a7a; stroke-width: 3; stroke-linecap: square"/>
   </g>
   <g id="line2d_61">
    <path d="M 22.902988 1012.394993 
L 24.140829 1012.650336 
L 261.452566 1056.909883 
" clip-path="url(#p04822acdb1)" style="fill: none; stroke: #7a7a7a; stroke-width: 3; stroke-linecap: square"/>
   </g>
   <g id="line2d_62">
    <path d="M 22.902988 1051.717898 
L 24.140829 1051.973241 
L 112.20435 1067.634312 
L 183.468605 1081.337748 
L 217.420806 1087.21065 
L 235.457912 1091.381261 
" clip-path="url(#p04822acdb1)" style="fill: none; stroke: #7a7a7a; stroke-width: 3; stroke-linecap: square"/>
   </g>
   <g id="line2d_63">
    <path d="M 506.014513 1102.446148 
L 479.666191 1095.296528 
L 457.208224 1086.019047 
L 439.524786 1074.95416 
L 427.14638 1062.272097 
L 420.780342 1048.398432 
L 420.780342 1033.418277 
L 428.030552 1017.757207 
L 431.567239 1013.501481 
" clip-path="url(#p04822acdb1)" style="fill: none; stroke: #7a7a7a; stroke-width: 3; stroke-linecap: square"/>
   </g>
   <g id="line2d_64">
    <path d="M 532.716504 1068.315228 
L 531.832333 1068.059884 
L 523.521117 1066.10225 
L 514.148895 1062.612555 
L 505.837679 1058.186601 
L 501.239985 1054.186219 
L 497.526463 1047.972859 
L 496.819125 1041.078584 
L 499.294807 1033.673621 
L 504.423004 1025.672857 
" clip-path="url(#p04822acdb1)" style="fill: none; stroke: #7a7a7a; stroke-width: 3; stroke-linecap: square"/>
   </g>
   <g id="line2d_65">
    <path d="M 261.452566 1056.909883 
L 294.343761 1066.10225 
L 318.393236 1077.422481 
L 333.777827 1090.700345 
L 340.851203 1105.340041 
L 339.790196 1121.001111 
L 330.771643 1137.257983 
L 325.289777 1143.556457 
" clip-path="url(#p04822acdb1)" style="fill: none; stroke: #7a7a7a; stroke-width: 3; stroke-linecap: square"/>
   </g>
   <g id="line2d_66">
    <path d="M 235.457912 1091.381261 
L 242.708122 1093.594238 
L 250.488835 1096.82859 
L 256.854872 1100.148056 
L 262.690407 1104.148438 
L 266.403929 1107.638133 
L 267.818604 1110.78737 
L 267.641769 1113.936607 
L 266.403929 1117.000729 
L 261.983069 1123.128974 
L 261.6294 1123.980119 
L 255.263363 1131.810655 
" clip-path="url(#p04822acdb1)" style="fill: none; stroke: #7a7a7a; stroke-width: 3; stroke-linecap: square"/>
   </g>
   <g id="line2d_67">
    <path d="M 325.289777 1143.556457 
L 330.771643 1137.257983 
L 339.790196 1121.001111 
L 340.851203 1105.340041 
L 333.777827 1090.700345 
L 318.393236 1077.422481 
L 294.343761 1066.10225 
L 261.452566 1056.909883 
" clip-path="url(#p04822acdb1)" style="fill: none; stroke: #7a7a7a; stroke-width: 3; stroke-linecap: square"/>
   </g>
   <g id="line2d_68">
    <path d="M 395.66986 1156.068291 
L 401.151726 1149.854931 
L 410.523948 1133.768288 
L 413.883801 1117.511416 
L 411.584954 1101.509888 
L 404.511579 1085.933932 
L 393.017345 1071.294236 
L 377.455919 1057.761028 
L 358.711475 1045.844996 
L 336.960846 1035.801484 
L 312.734536 1027.885834 
L 288.508226 1021.417131 
" clip-path="url(#p04822acdb1)" style="fill: none; stroke: #7a7a7a; stroke-width: 3; stroke-linecap: square"/>
   </g>
   <g id="line2d_69">
    <path d="M 261.452566 1056.909883 
L 24.140829 1012.650336 
L 22.902988 1012.394993 
" clip-path="url(#p04822acdb1)" style="fill: none; stroke: #7a7a7a; stroke-width: 3; stroke-linecap: square"/>
   </g>
   <g id="line2d_70">
    <path d="M 288.508226 1021.417131 
L 286.386214 1021.161787 
L 269.586948 1018.438123 
L 243.238625 1013.331252 
L 23.963994 973.667889 
L 22.902988 973.412546 
" clip-path="url(#p04822acdb1)" style="fill: none; stroke: #7a7a7a; stroke-width: 3; stroke-linecap: square"/>
   </g>
   <g id="line2d_71">
    <path d="M 431.567239 1013.501481 
L 585.41315 816.461383 
" clip-path="url(#p04822acdb1)" style="fill: none; stroke: #7a7a7a; stroke-width: 3; stroke-linecap: square"/>
   </g>
   <g id="line2d_72">
    <path d="M 504.423004 1025.672857 
L 674.360843 816.461383 
" clip-path="url(#p04822acdb1)" style="fill: none; stroke: #7a7a7a; stroke-width: 3; stroke-linecap: square"/>
   </g>
   <g id="line2d_73">
    <path d="M 261.452566 1056.909883 
L 506.014513 1102.446148 
" clip-path="url(#p04822acdb1)" style="fill: none; stroke: #7a7a7a; stroke-width: 3; stroke-linecap: square"/>
   </g>
   <g id="line2d_74">
    <path d="M 235.457912 1091.381261 
L 478.251516 1136.491953 
" clip-path="url(#p04822acdb1)" style="fill: none; stroke: #7a7a7a; stroke-width: 3; stroke-linecap: square"/>
   </g>
   <g id="line2d_75">
    <path d="M 325.289777 1143.556457 
L 86.094928 1441 
" clip-path="url(#p04822acdb1)" style="fill: none; stroke: #7a7a7a; stroke-width: 3; stroke-linecap: square"/>
   </g>
   <g id="line2d_76">
    <path d="M 255.263363 1131.810655 
L 187.535795 1213.265244 
L 70.64827 1357.534344 
L 48.01347 1385.962591 
L 3.675216 1441 
" clip-path="url(#p04822acdb1)" style="fill: none; stroke: #7a7a7a; stroke-width: 3; stroke-linecap: square"/>
   </g>
   <g id="line2d_77">
    <path d="M 431.567239 1013.501481 
L 428.030552 1017.757207 
L 420.780342 1033.418277 
L 420.780342 1048.398432 
L 427.14638 1062.272097 
L 439.524786 1074.95416 
L 457.208224 1086.019047 
L 479.666191 1095.296528 
L 506.014513 1102.446148 
" clip-path="url(#p04822acdb1)" style="fill: none; stroke: #7a7a7a; stroke-width: 3; stroke-linecap: square"/>
   </g>
   <g id="line2d_78">
    <path d="M 361.187156 1002.181251 
L 357.650469 1006.436977 
L 347.747743 1021.076673 
L 344.211056 1036.4824 
L 346.156234 1052.313699 
L 353.229609 1068.059884 
L 364.900678 1083.210268 
L 380.992607 1097.509506 
L 400.798057 1110.446912 
L 423.786527 1121.511799 
L 449.78118 1130.363708 
L 478.251516 1136.491953 
" clip-path="url(#p04822acdb1)" style="fill: none; stroke: #7a7a7a; stroke-width: 3; stroke-linecap: square"/>
   </g>
   <g id="line2d_79">
    <path d="M 431.567239 1013.501481 
L 325.289777 1143.556457 
" clip-path="url(#p04822acdb1)" style="fill: none; stroke: #7a7a7a; stroke-width: 3; stroke-linecap: square"/>
   </g>
   <g id="line2d_80">
    <path d="M 361.187156 1002.181251 
L 255.263363 1131.810655 
" clip-path="url(#p04822acdb1)" style="fill: none; stroke: #7a7a7a; stroke-width: 3; stroke-linecap: square"/>
   </g>
   <g id="line2d_81">
    <path d="M 261.452566 1056.909883 
L 300.002461 1060.484693 
L 335.015668 1059.463318 
L 365.431181 1054.526677 
L 390.541663 1046.696141 
L 409.816611 1036.737743 
L 422.018183 1025.417513 
L 431.567239 1013.501481 
" clip-path="url(#p04822acdb1)" style="fill: none; stroke: #7a7a7a; stroke-width: 3; stroke-linecap: square"/>
   </g>
   <g id="line2d_82">
    <path d="M 235.457912 1091.381261 
L 271.355291 1096.147674 
L 307.606339 1097.424391 
L 343.326884 1095.636987 
L 377.632754 1090.955688 
L 409.639776 1083.891184 
L 438.110111 1074.698816 
L 462.513256 1063.719044 
L 481.788203 1051.207211 
L 494.873947 1037.588889 
L 504.423004 1025.672857 
" clip-path="url(#p04822acdb1)" style="fill: none; stroke: #7a7a7a; stroke-width: 3; stroke-linecap: square"/>
   </g>
   <g id="line2d_83">
    <path d="M 431.567239 1013.501481 
L 422.018183 1025.417513 
L 409.816611 1036.737743 
L 390.541663 1046.696141 
L 365.431181 1054.526677 
L 335.015668 1059.463318 
L 300.002461 1060.484693 
L 261.452566 1056.909883 
" clip-path="url(#p04822acdb1)" style="fill: none; stroke: #7a7a7a; stroke-width: 3; stroke-linecap: square"/>
   </g>
   <g id="line2d_84">
    <path d="M 361.187156 1002.181251 
L 354.46745 1010.011786 
L 347.924578 1012.990794 
L 345.448896 1014.437741 
L 334.485165 1018.608352 
L 319.100574 1022.012933 
L 309.905186 1022.778963 
L 298.057283 1022.608734 
L 288.508226 1021.417131 
" clip-path="url(#p04822acdb1)" style="fill: none; stroke: #7a7a7a; stroke-width: 3; stroke-linecap: square"/>
   </g>
   <g id="line2d_85">
    <path d="M 877.139105 395.060384 
L 882.773111 394.230227 
" clip-path="url(#p04822acdb1)" style="fill: none; stroke-dasharray: 32,8,5,8; stroke-dashoffset: 0; stroke: #1e90ff; stroke-width: 5"/>
   </g>
   <g id="line2d_86">
    <path d="M 356.936914 1184.65646 
L 353.668759 1184.070467 
" clip-path="url(#p04822acdb1)" style="fill: none; stroke-dasharray: 32,8,5,8; stroke-dashoffset: 0; stroke: #1e90ff; stroke-width: 5"/>
   </g>
   <g id="line2d_87">
    <path d="M 571.793276 911.726883 
L 567.376734 914.609056 
" clip-path="url(#p04822acdb1)" style="fill: none; stroke-dasharray: 32,8,5,8; stroke-dashoffset: 0; stroke: #1e90ff; stroke-width: 5"/>
   </g>
   <g id="line2d_88">
    <path d="M 356.876473 1013.348957 
L 355.503589 1009.232456 
" clip-path="url(#p04822acdb1)" style="fill: none; stroke-dasharray: 32,8,5,8; stroke-dashoffset: 0; stroke: #1e90ff; stroke-width: 5"/>
   </g>
   <g id="line2d_89">
    <path d="M 487.041428 839.038756 
L 488.82445 842.147431 
" clip-path="url(#p04822acdb1)" style="fill: none; stroke-dasharray: 32,8,5,8; stroke-dashoffset: 0; stroke: #1e90ff; stroke-width: 5"/>
   </g>
   <g id="line2d_90">
    <path d="M 812.363152 599.03079 
L 806.262884 603.404961 
" clip-path="url(#p04822acdb1)" style="fill: none; stroke-dasharray: 32,8,5,8; stroke-dashoffset: 0; stroke: #1e90ff; stroke-width: 5"/>
   </g>
   <g id="line2d_91">
    <path d="M 911.085607 520.248955 
L 872.722563 522.431884 
" clip-path="url(#p04822acdb1)" style="fill: none; stroke-dasharray: 32,8,5,8; stroke-dashoffset: 0; stroke: #1e90ff; stroke-width: 5"/>
   </g>
   <g id="line2d_92">
    <path d="M 1060.980375 189.031728 
L 867.63253 437.592705 
" clip-path="url(#p04822acdb1)" style="fill: none; stroke-dasharray: 32,8,5,8; stroke-dashoffset: 0; stroke: #1e90ff; stroke-width: 5"/>
   </g>
   <g id="line2d_93">
    <path d="M 1169.438218 45.605669 
L 1174.748431 42.557257 
" clip-path="url(#p04822acdb1)" style="fill: none; stroke-dasharray: 32,8,5,8; stroke-dashoffset: 0; stroke: #1e90ff; stroke-width: 5"/>
   </g>
   <g id="line2d_94">
    <path d="M 737.47621 661.599101 
L 1021.00268 309.503259 
" clip-path="url(#p04822acdb1)" style="fill: none; stroke-dasharray: 32,8,5,8; stroke-dashoffset: 0; stroke: #1e90ff; stroke-width: 5"/>
   </g>
   <g id="line2d_95">
    <path d="M 877.139105 395.060384 
" clip-path="url(#p04822acdb1)" style="fill: none; stroke: #0000ff; stroke-width: 1.5; stroke-linecap: square"/>
    <defs>
     <path id="med2bac3443" d="M 0 10 
C 2.652031 10 5.195799 8.946337 7.071068 7.071068 
C 8.946337 5.195799 10 2.652031 10 0 
C 10 -2.652031 8.946337 -5.195799 7.071068 -7.071068 
C 5.195799 -8.946337 2.652031 -10 0 -10 
C -2.652031 -10 -5.195799 -8.946337 -7.071068 -7.071068 
C -8.946337 -5.195799 -10 -2.652031 -10 0 
C -10 2.652031 -8.946337 5.195799 -7.071068 7.071068 
C -5.195799 8.946337 -2.652031 10 0 10 
z
" style="stroke: #0000ff"/>
    </defs>
    <g clip-path="url(#p04822acdb1)">
     <use xlink:href="#med2bac3443" x="877.139105" y="395.060384" style="fill: #0000ff; stroke: #0000ff"/>
    </g>
   </g>
   <g id="line2d_96">
    <path d="M 356.936914 1184.65646 
" clip-path="url(#p04822acdb1)" style="fill: none; stroke: #0000ff; stroke-width: 1.5; stroke-linecap: square"/>
    <g clip-path="url(#p04822acdb1)">
     <use xlink:href="#med2bac3443" x="356.936914" y="1184.65646" style="fill: #0000ff; stroke: #0000ff"/>
    </g>
   </g>
   <g id="line2d_97">
    <path d="M 571.793276 911.726883 
" clip-path="url(#p04822acdb1)" style="fill: none; stroke: #0000ff; stroke-width: 1.5; stroke-linecap: square"/>
    <g clip-path="url(#p04822acdb1)">
     <use xlink:href="#med2bac3443" x="571.793276" y="911.726883" style="fill: #0000ff; stroke: #0000ff"/>
    </g>
   </g>
   <g id="line2d_98">
    <path d="M 356.876473 1013.348957 
" clip-path="url(#p04822acdb1)" style="fill: none; stroke: #0000ff; stroke-width: 1.5; stroke-linecap: square"/>
    <g clip-path="url(#p04822acdb1)">
     <use xlink:href="#med2bac3443" x="356.876473" y="1013.348957" style="fill: #0000ff; stroke: #0000ff"/>
    </g>
   </g>
   <g id="line2d_99">
    <path d="M 487.041428 839.038756 
" clip-path="url(#p04822acdb1)" style="fill: none; stroke: #0000ff; stroke-width: 1.5; stroke-linecap: square"/>
    <g clip-path="url(#p04822acdb1)">
     <use xlink:href="#med2bac3443" x="487.041428" y="839.038756" style="fill: #0000ff; stroke: #0000ff"/>
    </g>
   </g>
   <g id="line2d_100">
    <path d="M 812.363152 599.03079 
" clip-path="url(#p04822acdb1)" style="fill: none; stroke: #0000ff; stroke-width: 1.5; stroke-linecap: square"/>
    <g clip-path="url(#p04822acdb1)">
     <use xlink:href="#med2bac3443" x="812.363152" y="599.03079" style="fill: #0000ff; stroke: #0000ff"/>
    </g>
   </g>
   <g id="line2d_101">
    <path d="M 911.085607 520.248955 
" clip-path="url(#p04822acdb1)" style="fill: none; stroke: #0000ff; stroke-width: 1.5; stroke-linecap: square"/>
    <g clip-path="url(#p04822acdb1)">
     <use xlink:href="#med2bac3443" x="911.085607" y="520.248955" style="fill: #0000ff; stroke: #0000ff"/>
    </g>
   </g>
   <g id="line2d_102">
    <path d="M 1060.980375 189.031728 
" clip-path="url(#p04822acdb1)" style="fill: none; stroke: #0000ff; stroke-width: 1.5; stroke-linecap: square"/>
    <g clip-path="url(#p04822acdb1)">
     <use xlink:href="#med2bac3443" x="1060.980375" y="189.031728" style="fill: #0000ff; stroke: #0000ff"/>
    </g>
   </g>
   <g id="line2d_103">
    <path d="M 1169.438218 45.605669 
" clip-path="url(#p04822acdb1)" style="fill: none; stroke: #0000ff; stroke-width: 1.5; stroke-linecap: square"/>
    <g clip-path="url(#p04822acdb1)">
     <use xlink:href="#med2bac3443" x="1169.438218" y="45.605669" style="fill: #0000ff; stroke: #0000ff"/>
    </g>
   </g>
   <g id="line2d_104">
    <path d="M 737.47621 661.599101 
" clip-path="url(#p04822acdb1)" style="fill: none; stroke: #0000ff; stroke-width: 1.5; stroke-linecap: square"/>
    <g clip-path="url(#p04822acdb1)">
     <use xlink:href="#med2bac3443" x="737.47621" y="661.599101" style="fill: #0000ff; stroke: #0000ff"/>
    </g>
   </g>
   <g id="line2d_105">
    <path d="M 882.773111 394.230227 
" clip-path="url(#p04822acdb1)" style="fill: none; stroke: #ff0000; stroke-width: 1.5; stroke-linecap: square"/>
    <defs>
     <path id="m1366b83b98" d="M 0 -10 
L -2.24514 -3.09017 
L -9.510565 -3.09017 
L -3.632713 1.18034 
L -5.877853 8.09017 
L -0 3.81966 
L 5.877853 8.09017 
L 3.632713 1.18034 
L 9.510565 -3.09017 
L 2.24514 -3.09017 
z
" style="stroke: #ff0000; stroke-linejoin: bevel"/>
    </defs>
    <g clip-path="url(#p04822acdb1)">
     <use xlink:href="#m1366b83b98" x="882.773111" y="394.230227" style="fill: #ff0000; stroke: #ff0000; stroke-linejoin: bevel"/>
    </g>
   </g>
   <g id="line2d_106">
    <path d="M 353.668759 1184.070467 
" clip-path="url(#p04822acdb1)" style="fill: none; stroke: #ff0000; stroke-width: 1.5; stroke-linecap: square"/>
    <g clip-path="url(#p04822acdb1)">
     <use xlink:href="#m1366b83b98" x="353.668759" y="1184.070467" style="fill: #ff0000; stroke: #ff0000; stroke-linejoin: bevel"/>
    </g>
   </g>
   <g id="line2d_107">
    <path d="M 567.376734 914.609056 
" clip-path="url(#p04822acdb1)" style="fill: none; stroke: #ff0000; stroke-width: 1.5; stroke-linecap: square"/>
    <g clip-path="url(#p04822acdb1)">
     <use xlink:href="#m1366b83b98" x="567.376734" y="914.609056" style="fill: #ff0000; stroke: #ff0000; stroke-linejoin: bevel"/>
    </g>
   </g>
   <g id="line2d_108">
    <path d="M 355.503589 1009.232456 
" clip-path="url(#p04822acdb1)" style="fill: none; stroke: #ff0000; stroke-width: 1.5; stroke-linecap: square"/>
    <g clip-path="url(#p04822acdb1)">
     <use xlink:href="#m1366b83b98" x="355.503589" y="1009.232456" style="fill: #ff0000; stroke: #ff0000; stroke-linejoin: bevel"/>
    </g>
   </g>
   <g id="line2d_109">
    <path d="M 488.82445 842.147431 
" clip-path="url(#p04822acdb1)" style="fill: none; stroke: #ff0000; stroke-width: 1.5; stroke-linecap: square"/>
    <g clip-path="url(#p04822acdb1)">
     <use xlink:href="#m1366b83b98" x="488.82445" y="842.147431" style="fill: #ff0000; stroke: #ff0000; stroke-linejoin: bevel"/>
    </g>
   </g>
   <g id="line2d_110">
    <path d="M 806.262884 603.404961 
" clip-path="url(#p04822acdb1)" style="fill: none; stroke: #ff0000; stroke-width: 1.5; stroke-linecap: square"/>
    <g clip-path="url(#p04822acdb1)">
     <use xlink:href="#m1366b83b98" x="806.262884" y="603.404961" style="fill: #ff0000; stroke: #ff0000; stroke-linejoin: bevel"/>
    </g>
   </g>
   <g id="line2d_111">
    <path d="M 872.722563 522.431884 
" clip-path="url(#p04822acdb1)" style="fill: none; stroke: #ff0000; stroke-width: 1.5; stroke-linecap: square"/>
    <g clip-path="url(#p04822acdb1)">
     <use xlink:href="#m1366b83b98" x="872.722563" y="522.431884" style="fill: #ff0000; stroke: #ff0000; stroke-linejoin: bevel"/>
    </g>
   </g>
   <g id="line2d_112">
    <path d="M 867.63253 437.592705 
" clip-path="url(#p04822acdb1)" style="fill: none; stroke: #ff0000; stroke-width: 1.5; stroke-linecap: square"/>
    <g clip-path="url(#p04822acdb1)">
     <use xlink:href="#m1366b83b98" x="867.63253" y="437.592705" style="fill: #ff0000; stroke: #ff0000; stroke-linejoin: bevel"/>
    </g>
   </g>
   <g id="line2d_113">
    <path d="M 1174.748431 42.557257 
" clip-path="url(#p04822acdb1)" style="fill: none; stroke: #ff0000; stroke-width: 1.5; stroke-linecap: square"/>
    <g clip-path="url(#p04822acdb1)">
     <use xlink:href="#m1366b83b98" x="1174.748431" y="42.557257" style="fill: #ff0000; stroke: #ff0000; stroke-linejoin: bevel"/>
    </g>
   </g>
   <g id="line2d_114">
    <path d="M 1021.00268 309.503259 
" clip-path="url(#p04822acdb1)" style="fill: none; stroke: #ff0000; stroke-width: 1.5; stroke-linecap: square"/>
    <g clip-path="url(#p04822acdb1)">
     <use xlink:href="#m1366b83b98" x="1021.00268" y="309.503259" style="fill: #ff0000; stroke: #ff0000; stroke-linejoin: bevel"/>
    </g>
   </g>
  </g>
 </g>
 <defs>
  <clipPath id="p04822acdb1">
   <rect x="0" y="0" width="1440" height="1440"/>
  </clipPath>
 </defs>
</svg>
