<?xml version="1.0" encoding="utf-8" standalone="no"?>
<!DOCTYPE svg PUBLIC "-//W3C//DTD SVG 1.1//EN"
  "http://www.w3.org/Graphics/SVG/1.1/DTD/svg11.dtd">
<svg xmlns:xlink="http://www.w3.org/1999/xlink" width="1440pt" height="1440pt" viewBox="0 0 1440 1440" xmlns="http://www.w3.org/2000/svg" version="1.1">
 <metadata>
  <rdf:RDF xmlns:dc="http://purl.org/dc/elements/1.1/" xmlns:cc="http://creativecommons.org/ns#" xmlns:rdf="http://www.w3.org/1999/02/22-rdf-syntax-ns#">
   <cc:Work>
    <dc:type rdf:resource="http://purl.org/dc/dcmitype/StillImage"/>
    <dc:date>2026-02-27T11:12:06.498535</dc:date>
    <dc:format>image/svg+xml</dc:format>
    <dc:creator>
     <cc:Agent>
      <dc:title>Matplotlib v3.7.3, https://matplotlib.org/</dc:title>
     </cc:Agent>
    </dc:creator>
   </cc:Work>
  </rdf:RDF>
 </metadata>
 <defs>
  <style type="text/css">*{stroke-linejoin: round; stroke-linecap: butt}</style>
 </defs>
 <g id="figure_1">
  <g id="patch_1">
   <path d="M 0 1440 
L 1440 1440 
L 1440 0 
L 0 0 
z
" style="fill: #ffffff"/>
  </g>
  <g id="axes_1">
   <g id="line2d_1">
    <path d="M 175.134359 81.084459 
L 85.539172 -1 
" clip-path="url(#p69b2b0bcc9)" style="fill: none; stroke: #7a7a7a; stroke-width: 3; stroke-linecap: square"/>
   </g>
   <g id="line2d_2">
    <path d="M 191.348124 55.348003 
L 130.626495 -1 
" clip-path="url(#p69b2b0bcc9)" style="fill: none; stroke: #7a7a7a; stroke-width: 3; stroke-linecap: square"/>
   </g>
   <g id="line2d_3">
    <path d="M 160.558349 105.943535 
L 43.425187 -1 
" clip-path="url(#p69b2b0bcc9)" style="fill: none; stroke: #7a7a7a; stroke-width: 3; stroke-linecap: square"/>
   </g>
   <g id="line2d_4">
    <path d="M 175.134359 81.084459 
L 85.539172 -1 
" clip-path="url(#p69b2b0bcc9)" style="fill: none; stroke: #7a7a7a; stroke-width: 3; stroke-linecap: square"/>
   </g>
   <g id="line2d_5">
    <path d="M 2.225849 -1 
L 13.733703 9.529313 
L 145.409124 130.022719 
" clip-path="url(#p69b2b0bcc9)" style="fill: none; stroke: #7a7a7a; stroke-width: 3; stroke-linecap: square"/>
   </g>
   <g id="line2d_6">
    <path d="M -1 43.317967 
L 36.089045 78.452321 
L 105.366039 142.208541 
L 124.855312 160.438531 
" clip-path="url(#p69b2b0bcc9)" style="fill: none; stroke: #7a7a7a; stroke-width: 3; stroke-linecap: square"/>
   </g>
   <g id="line2d_7">
    <path d="M 43.425187 -1 
L 160.558349 105.943535 
" clip-path="url(#p69b2b0bcc9)" style="fill: none; stroke: #7a7a7a; stroke-width: 3; stroke-linecap: square"/>
   </g>
   <g id="line2d_8">
    <path d="M 2.225849 -1 
L 13.733703 9.529313 
L 145.409124 130.022719 
" clip-path="url(#p69b2b0bcc9)" style="fill: none; stroke: #7a7a7a; stroke-width: 3; stroke-linecap: square"/>
   </g>
   <g id="line2d_9">
    <path d="M 1094.651341 933.702044 
L 660.073318 530.400083 
L 659.827655 530.107624 
L 656.715922 527.280513 
L 655.651382 526.305647 
" clip-path="url(#p69b2b0bcc9)" style="fill: none; stroke: #7a7a7a; stroke-width: 3; stroke-linecap: square"/>
   </g>
   <g id="line2d_10">
    <path d="M 1112.011533 907.380669 
L 787.981905 606.342125 
L 660.155205 488.675829 
L 659.909542 488.480856 
L 656.715922 485.556259 
L 655.651382 484.581393 
" clip-path="url(#p69b2b0bcc9)" style="fill: none; stroke: #7a7a7a; stroke-width: 3; stroke-linecap: square"/>
   </g>
   <g id="line2d_11">
    <path d="M 1392.640681 1250.728386 
L 1270.054794 1136.669094 
" clip-path="url(#p69b2b0bcc9)" style="fill: none; stroke: #7a7a7a; stroke-width: 3; stroke-linecap: square"/>
   </g>
   <g id="line2d_12">
    <path d="M 1392.640681 1211.34381 
L 1286.022895 1112.199963 
" clip-path="url(#p69b2b0bcc9)" style="fill: none; stroke: #7a7a7a; stroke-width: 3; stroke-linecap: square"/>
   </g>
   <g id="line2d_13">
    <path d="M 1270.054794 1136.669094 
L 1392.640681 1250.728386 
" clip-path="url(#p69b2b0bcc9)" style="fill: none; stroke: #7a7a7a; stroke-width: 3; stroke-linecap: square"/>
   </g>
   <g id="line2d_14">
    <path d="M 1254.823682 1159.870899 
L 1392.640681 1287.870772 
" clip-path="url(#p69b2b0bcc9)" style="fill: none; stroke: #7a7a7a; stroke-width: 3; stroke-linecap: square"/>
   </g>
   <g id="line2d_15">
    <path d="M 655.651382 569.297227 
L 656.79781 570.369579 
L 659.745767 573.099203 
L 659.99143 573.391663 
L 864.465017 762.515619 
L 1078.273801 958.561121 
" clip-path="url(#p69b2b0bcc9)" style="fill: none; stroke: #7a7a7a; stroke-width: 3; stroke-linecap: square"/>
   </g>
   <g id="line2d_16">
    <path d="M 655.651382 605.464746 
L 656.79781 606.439612 
L 659.663879 609.169236 
L 659.99143 609.461696 
L 1062.960801 981.957899 
" clip-path="url(#p69b2b0bcc9)" style="fill: none; stroke: #7a7a7a; stroke-width: 3; stroke-linecap: square"/>
   </g>
   <g id="line2d_17">
    <path d="M 655.651382 605.464746 
L 656.79781 606.439612 
L 659.663879 609.169236 
L 659.99143 609.461696 
L 1062.960801 981.957899 
" clip-path="url(#p69b2b0bcc9)" style="fill: none; stroke: #7a7a7a; stroke-width: 3; stroke-linecap: square"/>
   </g>
   <g id="line2d_18">
    <path d="M 655.651382 651.965842 
L 656.79781 653.038195 
L 659.663879 655.670332 
L 659.909542 655.962792 
L 781.75844 769.729625 
L 786.835477 774.506467 
L 846.367835 830.268788 
L 846.859161 830.366275 
L 900.168054 879.207049 
L 1043.06209 1011.398845 
" clip-path="url(#p69b2b0bcc9)" style="fill: none; stroke: #7a7a7a; stroke-width: 3; stroke-linecap: square"/>
   </g>
   <g id="line2d_19">
    <path d="M 1078.273801 958.561121 
L 1270.054794 1136.669094 
" clip-path="url(#p69b2b0bcc9)" style="fill: none; stroke: #7a7a7a; stroke-width: 3; stroke-linecap: square"/>
   </g>
   <g id="line2d_20">
    <path d="M 1062.960801 981.957899 
L 1254.823682 1159.870899 
" clip-path="url(#p69b2b0bcc9)" style="fill: none; stroke: #7a7a7a; stroke-width: 3; stroke-linecap: square"/>
   </g>
   <g id="line2d_21">
    <path d="M 1270.054794 1136.669094 
L 1078.273801 958.561121 
" clip-path="url(#p69b2b0bcc9)" style="fill: none; stroke: #7a7a7a; stroke-width: 3; stroke-linecap: square"/>
   </g>
   <g id="line2d_22">
    <path d="M 1286.022895 1112.199963 
L 1168.514046 1002.820026 
L 1094.651341 933.702044 
" clip-path="url(#p69b2b0bcc9)" style="fill: none; stroke: #7a7a7a; stroke-width: 3; stroke-linecap: square"/>
   </g>
   <g id="line2d_23">
    <path d="M 1286.022895 1112.199963 
L 1242.949965 1071.743035 
L 1230.093596 1058.192401 
L 1219.366308 1044.25182 
L 1210.849987 1029.823807 
L 1204.462746 1015.103335 
L 1200.122698 1000.090402 
L 1197.829843 984.78501 
L 1197.58418 969.382131 
L 1199.221934 953.784279 
L 1202.743105 938.283913 
L 1208.229581 922.686061 
L 1215.435698 907.283183 
L 1224.443345 892.075277 
" clip-path="url(#p69b2b0bcc9)" style="fill: none; stroke: #7a7a7a; stroke-width: 3; stroke-linecap: square"/>
   </g>
   <g id="line2d_24">
    <path d="M 1302.072885 1088.120779 
L 1258.918067 1047.566364 
L 1246.389249 1033.918244 
L 1236.562725 1019.977663 
L 1229.520383 1005.647137 
L 1225.262222 990.926664 
L 1223.788244 975.913731 
L 1225.098447 960.510853 
L 1229.110944 944.718027 
L 1235.907623 928.535256 
L 1245.488484 912.060025 
" clip-path="url(#p69b2b0bcc9)" style="fill: none; stroke: #7a7a7a; stroke-width: 3; stroke-linecap: square"/>
   </g>
   <g id="line2d_25">
    <path d="M 1392.640681 631.396175 
L 1224.443345 892.075277 
" clip-path="url(#p69b2b0bcc9)" style="fill: none; stroke: #7a7a7a; stroke-width: 3; stroke-linecap: square"/>
   </g>
   <g id="line2d_26">
    <path d="M 1392.640681 579.630804 
L 1202.497442 871.21315 
" clip-path="url(#p69b2b0bcc9)" style="fill: none; stroke: #7a7a7a; stroke-width: 3; stroke-linecap: square"/>
   </g>
   <g id="line2d_27">
    <path d="M 1078.273801 958.561121 
L 864.465017 762.515619 
L 659.99143 573.391663 
L 659.745767 573.099203 
L 656.79781 570.369579 
L 655.651382 569.297227 
" clip-path="url(#p69b2b0bcc9)" style="fill: none; stroke: #7a7a7a; stroke-width: 3; stroke-linecap: square"/>
   </g>
   <g id="line2d_28">
    <path d="M 1094.651341 933.702044 
L 660.073318 530.400083 
L 659.827655 530.107624 
L 656.715922 527.280513 
L 655.651382 526.305647 
" clip-path="url(#p69b2b0bcc9)" style="fill: none; stroke: #7a7a7a; stroke-width: 3; stroke-linecap: square"/>
   </g>
   <g id="line2d_29">
    <path d="M 1392.640681 1211.34381 
L 1286.022895 1112.199963 
" clip-path="url(#p69b2b0bcc9)" style="fill: none; stroke: #7a7a7a; stroke-width: 3; stroke-linecap: square"/>
   </g>
   <g id="line2d_30">
    <path d="M 1392.640681 1176.931049 
L 1302.072885 1088.120779 
" clip-path="url(#p69b2b0bcc9)" style="fill: none; stroke: #7a7a7a; stroke-width: 3; stroke-linecap: square"/>
   </g>
   <g id="line2d_31">
    <path d="M 1254.823682 1159.870899 
L 1392.640681 1287.870772 
" clip-path="url(#p69b2b0bcc9)" style="fill: none; stroke: #7a7a7a; stroke-width: 3; stroke-linecap: square"/>
   </g>
   <g id="line2d_32">
    <path d="M 1235.416297 1188.921898 
L 1240.493334 1193.796227 
L 1392.640681 1333.689462 
" clip-path="url(#p69b2b0bcc9)" style="fill: none; stroke: #7a7a7a; stroke-width: 3; stroke-linecap: square"/>
   </g>
   <g id="line2d_33">
    <path d="M 1286.022895 1112.199963 
L 1168.514046 1002.820026 
L 1094.651341 933.702044 
" clip-path="url(#p69b2b0bcc9)" style="fill: none; stroke: #7a7a7a; stroke-width: 3; stroke-linecap: square"/>
   </g>
   <g id="line2d_34">
    <path d="M 1302.072885 1088.120779 
L 1112.011533 907.380669 
" clip-path="url(#p69b2b0bcc9)" style="fill: none; stroke: #7a7a7a; stroke-width: 3; stroke-linecap: square"/>
   </g>
   <g id="line2d_35">
    <path d="M 1224.443345 892.075277 
L 1207.738254 917.616759 
L 1198.075506 930.290014 
L 1187.430105 940.721078 
L 1175.883939 948.812463 
L 1163.518896 954.369198 
L 1150.58064 956.903849 
L 1137.069169 956.416416 
L 1123.14826 952.516953 
L 1108.899801 945.010487 
L 1094.651341 933.702044 
" clip-path="url(#p69b2b0bcc9)" style="fill: none; stroke: #7a7a7a; stroke-width: 3; stroke-linecap: square"/>
   </g>
   <g id="line2d_36">
    <path d="M 1202.497442 871.21315 
L 1185.710463 896.852119 
L 1177.357918 907.770615 
L 1168.104608 916.056974 
L 1158.032421 921.418736 
L 1147.305132 923.660927 
L 1136.004629 922.296115 
L 1124.212801 917.03184 
L 1112.011533 907.380669 
" clip-path="url(#p69b2b0bcc9)" style="fill: none; stroke: #7a7a7a; stroke-width: 3; stroke-linecap: square"/>
   </g>
   <g id="line2d_37">
    <path d="M 1224.443345 892.075277 
L 1392.640681 631.396175 
" clip-path="url(#p69b2b0bcc9)" style="fill: none; stroke: #7a7a7a; stroke-width: 3; stroke-linecap: square"/>
   </g>
   <g id="line2d_38">
    <path d="M 1245.488484 912.060025 
L 1392.640681 685.306251 
" clip-path="url(#p69b2b0bcc9)" style="fill: none; stroke: #7a7a7a; stroke-width: 3; stroke-linecap: square"/>
   </g>
   <g id="line2d_39">
    <path d="M 1078.273801 958.561121 
L 1093.341138 969.869564 
L 1108.080924 977.181057 
L 1122.493159 980.690574 
L 1136.250292 980.690574 
L 1149.434212 977.66849 
L 1161.799255 971.721809 
L 1173.181645 963.43545 
L 1183.581383 952.9069 
L 1192.752805 940.526105 
L 1224.443345 892.075277 
" clip-path="url(#p69b2b0bcc9)" style="fill: none; stroke: #7a7a7a; stroke-width: 3; stroke-linecap: square"/>
   </g>
   <g id="line2d_40">
    <path d="M 1062.960801 981.957899 
L 1077.045485 993.363828 
L 1091.13017 1001.942647 
L 1105.214854 1007.694355 
L 1119.217651 1010.911412 
L 1132.892897 1011.691304 
L 1146.240592 1010.131519 
L 1159.178848 1006.427029 
L 1171.625779 1000.675321 
L 1183.33572 993.071369 
L 1194.390559 983.810144 
L 1204.544634 972.891648 
L 1213.797944 960.510853 
L 1245.488484 912.060025 
" clip-path="url(#p69b2b0bcc9)" style="fill: none; stroke: #7a7a7a; stroke-width: 3; stroke-linecap: square"/>
   </g>
   <g id="line2d_41">
    <path d="M 1062.960801 981.957899 
L 1254.823682 1159.870899 
" clip-path="url(#p69b2b0bcc9)" style="fill: none; stroke: #7a7a7a; stroke-width: 3; stroke-linecap: square"/>
   </g>
   <g id="line2d_42">
    <path d="M 1043.06209 1011.398845 
L 1235.416297 1188.921898 
" clip-path="url(#p69b2b0bcc9)" style="fill: none; stroke: #7a7a7a; stroke-width: 3; stroke-linecap: square"/>
   </g>
   <g id="line2d_43">
    <path d="M 1224.443345 892.075277 
L 1214.125495 908.647995 
L 1205.445399 924.733279 
L 1198.321169 940.623591 
L 1192.916581 956.123957 
L 1189.149746 971.331862 
L 1187.020666 986.247308 
L 1186.611228 1000.967781 
L 1187.921431 1015.590767 
L 1190.869388 1029.921294 
L 1195.700762 1044.25182 
L 1202.169891 1058.387374 
L 1210.522436 1072.522927 
L 1220.676511 1086.560994 
L 1232.632115 1100.599061 
L 1246.471136 1114.734614 
L 1270.054794 1136.669094 
" clip-path="url(#p69b2b0bcc9)" style="fill: none; stroke: #7a7a7a; stroke-width: 3; stroke-linecap: square"/>
   </g>
   <g id="line2d_44">
    <path d="M 1202.497442 871.21315 
L 1191.852041 888.56576 
L 1182.762506 905.723397 
L 1175.14695 922.686061 
L 1169.169148 939.356266 
L 1164.665324 955.928983 
L 1161.717367 972.306728 
L 1160.325276 988.392013 
L 1160.407164 1004.282325 
L 1162.126806 1019.977663 
L 1165.320426 1035.478029 
L 1170.069912 1050.783421 
L 1176.375265 1065.89384 
L 1184.236484 1080.7118 
L 1193.65357 1095.334786 
L 1204.626522 1109.762799 
L 1217.15534 1123.995839 
L 1231.240024 1137.936419 
L 1254.823682 1159.870899 
" clip-path="url(#p69b2b0bcc9)" style="fill: none; stroke: #7a7a7a; stroke-width: 3; stroke-linecap: square"/>
   </g>
   <g id="line2d_45">
    <path d="M 655.651382 569.297227 
L 315.162326 250.711099 
" clip-path="url(#p69b2b0bcc9)" style="fill: none; stroke: #7a7a7a; stroke-width: 3; stroke-linecap: square"/>
   </g>
   <g id="line2d_46">
    <path d="M 655.651382 526.305647 
L 331.376091 227.021862 
" clip-path="url(#p69b2b0bcc9)" style="fill: none; stroke: #7a7a7a; stroke-width: 3; stroke-linecap: square"/>
   </g>
   <g id="line2d_47">
    <path d="M 331.376091 227.021862 
L 321.549567 216.298338 
L 312.296256 205.184869 
L 304.107486 193.388993 
L 297.065144 180.910712 
L 291.660556 167.652537 
L 288.057497 153.419498 
L 286.747294 138.211592 
L 287.811834 121.931334 
L 291.824332 104.38375 
L 298.866674 85.568841 
L 309.348299 65.194147 
" clip-path="url(#p69b2b0bcc9)" style="fill: none; stroke: #7a7a7a; stroke-width: 3; stroke-linecap: square"/>
   </g>
   <g id="line2d_48">
    <path d="M 348.244957 202.455245 
L 338.008994 191.926695 
L 329.656449 180.130819 
L 323.432984 167.165105 
L 319.748037 153.224524 
L 319.174823 138.699025 
L 321.959005 123.783579 
L 328.673796 108.575673 
L 339.646748 93.367767 
" clip-path="url(#p69b2b0bcc9)" style="fill: none; stroke: #7a7a7a; stroke-width: 3; stroke-linecap: square"/>
   </g>
   <g id="line2d_49">
    <path d="M 655.651382 526.305647 
L 331.376091 227.021862 
" clip-path="url(#p69b2b0bcc9)" style="fill: none; stroke: #7a7a7a; stroke-width: 3; stroke-linecap: square"/>
   </g>
   <g id="line2d_50">
    <path d="M 655.651382 484.581393 
L 348.244957 202.455245 
" clip-path="url(#p69b2b0bcc9)" style="fill: none; stroke: #7a7a7a; stroke-width: 3; stroke-linecap: square"/>
   </g>
   <g id="line2d_51">
    <path d="M 315.162326 250.711099 
L 160.558349 105.943535 
" clip-path="url(#p69b2b0bcc9)" style="fill: none; stroke: #7a7a7a; stroke-width: 3; stroke-linecap: square"/>
   </g>
   <g id="line2d_52">
    <path d="M 331.376091 227.021862 
L 175.134359 81.084459 
" clip-path="url(#p69b2b0bcc9)" style="fill: none; stroke: #7a7a7a; stroke-width: 3; stroke-linecap: square"/>
   </g>
   <g id="line2d_53">
    <path d="M 160.558349 105.943535 
L 170.057322 112.670109 
L 181.685375 117.446951 
L 194.869295 120.469035 
L 209.117755 121.638874 
L 224.021316 121.053955 
L 239.088653 118.61679 
L 253.746551 114.424867 
L 267.66746 108.478186 
L 280.278166 100.67926 
L 291.087342 91.125576 
L 299.685551 79.91462 
L 309.348299 65.194147 
" clip-path="url(#p69b2b0bcc9)" style="fill: none; stroke: #7a7a7a; stroke-width: 3; stroke-linecap: square"/>
   </g>
   <g id="line2d_54">
    <path d="M 145.409124 130.022719 
L 156.873402 139.381431 
L 169.729771 146.79041 
L 183.486905 152.249659 
L 198.062915 155.954148 
L 213.130252 157.806393 
L 228.52514 158.001367 
L 243.838139 156.539068 
L 258.905476 153.614471 
L 273.481487 149.227575 
L 287.320508 143.475867 
L 300.094989 136.359347 
L 311.641155 128.072988 
L 321.713342 118.61679 
L 329.984 108.08824 
L 339.646748 93.367767 
" clip-path="url(#p69b2b0bcc9)" style="fill: none; stroke: #7a7a7a; stroke-width: 3; stroke-linecap: square"/>
   </g>
   <g id="line2d_55">
    <path d="M 191.266236 258.217566 
L 139.51321 334.257094 
" clip-path="url(#p69b2b0bcc9)" style="fill: none; stroke: #7a7a7a; stroke-width: 3; stroke-linecap: square"/>
   </g>
   <g id="line2d_56">
    <path d="M 146.555552 216.005879 
L 94.884413 291.850434 
" clip-path="url(#p69b2b0bcc9)" style="fill: none; stroke: #7a7a7a; stroke-width: 3; stroke-linecap: square"/>
   </g>
   <g id="line2d_57">
    <path d="M 139.51321 334.257094 
L 191.266236 258.217566 
" clip-path="url(#p69b2b0bcc9)" style="fill: none; stroke: #7a7a7a; stroke-width: 3; stroke-linecap: square"/>
   </g>
   <g id="line2d_58">
    <path d="M 183.568792 376.078835 
L 235.321819 299.94182 
" clip-path="url(#p69b2b0bcc9)" style="fill: none; stroke: #7a7a7a; stroke-width: 3; stroke-linecap: square"/>
   </g>
   <g id="line2d_59">
    <path d="M 315.162326 250.711099 
L 655.651382 569.297227 
" clip-path="url(#p69b2b0bcc9)" style="fill: none; stroke: #7a7a7a; stroke-width: 3; stroke-linecap: square"/>
   </g>
   <g id="line2d_60">
    <path d="M 299.112337 274.302851 
L 655.651382 605.464746 
" clip-path="url(#p69b2b0bcc9)" style="fill: none; stroke: #7a7a7a; stroke-width: 3; stroke-linecap: square"/>
   </g>
   <g id="line2d_61">
    <path d="M 191.266236 258.217566 
L 198.799904 241.352388 
L 204.040717 224.77967 
L 207.070562 208.596899 
L 207.889439 192.90156 
L 206.743011 177.888628 
L 203.549391 163.460615 
L 198.390466 149.909981 
L 191.511899 137.334213 
L 182.831803 125.635824 
L 172.513953 115.20476 
L 160.558349 105.943535 
" clip-path="url(#p69b2b0bcc9)" style="fill: none; stroke: #7a7a7a; stroke-width: 3; stroke-linecap: square"/>
   </g>
   <g id="line2d_62">
    <path d="M 235.321819 299.94182 
L 239.006765 291.460488 
L 242.691712 281.614344 
L 246.130995 270.403388 
L 248.997064 258.120079 
L 251.044257 244.861905 
L 252.108797 230.628865 
L 251.945022 215.615932 
L 250.22538 199.920594 
L 246.786097 183.640336 
L 241.299621 166.970131 
L 233.520289 150.007467 
L 223.284327 132.752344 
L 210.34607 115.49722 
L 194.377969 98.144609 
L 175.134359 81.084459 
" clip-path="url(#p69b2b0bcc9)" style="fill: none; stroke: #7a7a7a; stroke-width: 3; stroke-linecap: square"/>
   </g>
   <g id="line2d_63">
    <path d="M 145.409124 130.022719 
L 299.112337 274.302851 
" clip-path="url(#p69b2b0bcc9)" style="fill: none; stroke: #7a7a7a; stroke-width: 3; stroke-linecap: square"/>
   </g>
   <g id="line2d_64">
    <path d="M 124.855312 160.438531 
L 148.76652 182.567983 
L 261.280219 286.976105 
L 279.623064 303.548823 
" clip-path="url(#p69b2b0bcc9)" style="fill: none; stroke: #7a7a7a; stroke-width: 3; stroke-linecap: square"/>
   </g>
   <g id="line2d_65">
    <path d="M 309.348299 65.194147 
L 296.000604 79.817133 
L 282.98046 91.418036 
L 270.205979 100.191828 
L 257.677161 106.138509 
L 245.394006 109.453052 
L 233.274626 110.330431 
L 221.40091 108.770646 
L 209.690969 104.871183 
L 198.062915 98.924502 
L 186.51675 90.930603 
L 175.134359 81.084459 
" clip-path="url(#p69b2b0bcc9)" style="fill: none; stroke: #7a7a7a; stroke-width: 3; stroke-linecap: square"/>
   </g>
   <g id="line2d_66">
    <path d="M 278.558524 36.533094 
L 270.451642 51.44854 
L 261.771546 63.634362 
L 252.436348 72.700613 
L 242.446049 78.257348 
L 231.71876 79.91462 
L 220.090706 77.282482 
L 207.480001 69.873503 
L 191.348124 55.348003 
" clip-path="url(#p69b2b0bcc9)" style="fill: none; stroke: #7a7a7a; stroke-width: 3; stroke-linecap: square"/>
   </g>
   <g id="line2d_67">
    <path d="M 309.348299 65.194147 
L 191.266236 258.217566 
" clip-path="url(#p69b2b0bcc9)" style="fill: none; stroke: #7a7a7a; stroke-width: 3; stroke-linecap: square"/>
   </g>
   <g id="line2d_68">
    <path d="M 278.558524 36.533094 
L 146.555552 216.005879 
" clip-path="url(#p69b2b0bcc9)" style="fill: none; stroke: #7a7a7a; stroke-width: 3; stroke-linecap: square"/>
   </g>
   <g id="line2d_69">
    <path d="M 309.348299 65.194147 
L 302.387845 75.527724 
L 294.526626 90.248197 
L 288.958262 106.820915 
L 285.600866 124.758444 
L 284.290663 143.475867 
L 284.700102 162.485749 
L 286.747294 181.105685 
L 290.268465 198.945728 
L 295.09984 215.420959 
L 300.913866 229.848972 
L 307.710545 241.839821 
L 315.162326 250.711099 
" clip-path="url(#p69b2b0bcc9)" style="fill: none; stroke: #7a7a7a; stroke-width: 3; stroke-linecap: square"/>
   </g>
   <g id="line2d_70">
    <path d="M 278.558524 36.533094 
L 271.59807 46.866671 
L 264.228177 61.392171 
L 258.496038 77.282482 
L 254.319765 94.44012 
L 251.699359 112.377649 
L 250.634818 130.900099 
L 251.044257 149.812494 
L 252.763899 168.529917 
L 255.793744 187.052366 
L 260.215679 204.892409 
L 265.702155 221.855073 
L 272.498834 237.550412 
L 280.278166 251.685965 
L 289.203925 264.06676 
L 299.112337 274.302851 
" clip-path="url(#p69b2b0bcc9)" style="fill: none; stroke: #7a7a7a; stroke-width: 3; stroke-linecap: square"/>
   </g>
   <g id="line2d_71">
    <path d="M 191.266236 258.217566 
L 196.015723 253.050777 
L 204.368268 246.811636 
L 215.750658 241.254902 
L 229.507792 237.842872 
L 245.23023 238.135331 
L 262.180984 243.887039 
L 280.032503 256.560294 
L 299.112337 274.302851 
" clip-path="url(#p69b2b0bcc9)" style="fill: none; stroke: #7a7a7a; stroke-width: 3; stroke-linecap: square"/>
   </g>
   <g id="line2d_72">
    <path d="M 235.321819 299.94182 
L 235.97692 298.966954 
L 241.954722 291.947921 
L 247.604974 285.513807 
L 253.500888 283.271616 
L 259.642465 286.293699 
L 279.623064 303.548823 
" clip-path="url(#p69b2b0bcc9)" style="fill: none; stroke: #7a7a7a; stroke-width: 3; stroke-linecap: square"/>
   </g>
   <g id="line2d_73">
    <path d="M 191.266236 258.217566 
L 309.348299 65.194147 
" clip-path="url(#p69b2b0bcc9)" style="fill: none; stroke: #7a7a7a; stroke-width: 3; stroke-linecap: square"/>
   </g>
   <g id="line2d_74">
    <path d="M 235.321819 299.94182 
L 339.646748 93.367767 
" clip-path="url(#p69b2b0bcc9)" style="fill: none; stroke: #7a7a7a; stroke-width: 3; stroke-linecap: square"/>
   </g>
   <g id="line2d_75">
    <path d="M 315.162326 250.711099 
L 293.29831 230.628865 
L 275.528679 223.804805 
L 258.086599 221.757587 
L 241.545284 223.512345 
L 226.477947 228.094214 
L 213.375915 234.820788 
L 202.812402 242.7172 
L 195.196846 250.808586 
L 191.266236 258.217566 
" clip-path="url(#p69b2b0bcc9)" style="fill: none; stroke: #7a7a7a; stroke-width: 3; stroke-linecap: square"/>
   </g>
   <g id="line2d_76">
    <path d="M 331.376091 227.021862 
L 309.593962 206.842141 
L 292.806984 193.77894 
L 275.85623 184.517715 
L 258.823588 178.863494 
L 242.03661 176.231356 
L 225.740958 176.231356 
L 210.182295 178.473547 
L 195.606284 182.567983 
L 182.258589 188.027232 
L 170.46676 194.558832 
L 160.394573 201.675352 
L 152.369579 208.986845 
L 146.555552 216.005879 
" clip-path="url(#p69b2b0bcc9)" style="fill: none; stroke: #7a7a7a; stroke-width: 3; stroke-linecap: square"/>
   </g>
   <g id="line2d_77">
    <path d="M 353.376485 -1 
L 309.348299 65.194147 
" clip-path="url(#p69b2b0bcc9)" style="fill: none; stroke: #7a7a7a; stroke-width: 3; stroke-linecap: square"/>
   </g>
   <g id="line2d_78">
    <path d="M 305.159032 -1 
L 278.558524 36.533094 
" clip-path="url(#p69b2b0bcc9)" style="fill: none; stroke: #7a7a7a; stroke-width: 3; stroke-linecap: square"/>
   </g>
   <g id="line2d_79">
    <path d="M 331.376091 227.021862 
L 175.134359 81.084459 
" clip-path="url(#p69b2b0bcc9)" style="fill: none; stroke: #7a7a7a; stroke-width: 3; stroke-linecap: square"/>
   </g>
   <g id="line2d_80">
    <path d="M 348.244957 202.455245 
L 191.348124 55.348003 
" clip-path="url(#p69b2b0bcc9)" style="fill: none; stroke: #7a7a7a; stroke-width: 3; stroke-linecap: square"/>
   </g>
   <g id="line2d_81">
    <path d="M 309.348299 65.194147 
L 353.376485 -1 
" clip-path="url(#p69b2b0bcc9)" style="fill: none; stroke: #7a7a7a; stroke-width: 3; stroke-linecap: square"/>
   </g>
   <g id="line2d_82">
    <path d="M 339.646748 93.367767 
L 401.392581 -1 
" clip-path="url(#p69b2b0bcc9)" style="fill: none; stroke: #7a7a7a; stroke-width: 3; stroke-linecap: square"/>
   </g>
   <g id="line2d_83">
    <path d="M 145.409124 130.022719 
L 173.578493 156.441581 
L 182.176701 164.922913 
L 189.628482 176.816276 
L 195.360621 191.341775 
L 198.881792 207.524547 
L 199.700669 224.682184 
L 197.325926 241.839821 
L 191.266236 258.217566 
" clip-path="url(#p69b2b0bcc9)" style="fill: none; stroke: #7a7a7a; stroke-width: 3; stroke-linecap: square"/>
   </g>
   <g id="line2d_84">
    <path d="M 124.855312 160.438531 
L 153.679782 187.442312 
L 154.662434 190.171936 
L 155.808862 196.118617 
L 155.071873 202.650218 
L 152.451466 208.791872 
L 146.555552 216.005879 
" clip-path="url(#p69b2b0bcc9)" style="fill: none; stroke: #7a7a7a; stroke-width: 3; stroke-linecap: square"/>
   </g>
   <g id="line2d_85">
    <path d="M 299.112337 274.302851 
L 655.651382 605.464746 
" clip-path="url(#p69b2b0bcc9)" style="fill: none; stroke: #7a7a7a; stroke-width: 3; stroke-linecap: square"/>
   </g>
   <g id="line2d_86">
    <path d="M 279.623064 303.548823 
L 655.651382 651.965842 
" clip-path="url(#p69b2b0bcc9)" style="fill: none; stroke: #7a7a7a; stroke-width: 3; stroke-linecap: square"/>
   </g>
   <g id="line2d_87">
    <path d="M 145.409124 130.022719 
L 160.967787 143.865813 
L 315.162326 250.711099 
" clip-path="url(#p69b2b0bcc9)" style="fill: none; stroke: #7a7a7a; stroke-width: 3; stroke-linecap: square"/>
   </g>
   <g id="line2d_88">
    <path d="M 124.855312 160.438531 
L 274.300364 251.685965 
L 287.23862 262.701948 
L 299.112337 274.302851 
" clip-path="url(#p69b2b0bcc9)" style="fill: none; stroke: #7a7a7a; stroke-width: 3; stroke-linecap: square"/>
   </g>
   <g id="line2d_89">
    <path d="M 1163.439088 1091.226069 
L 1159.716556 1077.378977 
" clip-path="url(#p69b2b0bcc9)" style="fill: none; stroke-dasharray: 32,8,5,8; stroke-dashoffset: 0; stroke: #1e90ff; stroke-width: 5"/>
   </g>
   <g id="line2d_90">
    <path d="M 1062.504901 881.073003 
L 833.809109 666.100349 
" clip-path="url(#p69b2b0bcc9)" style="fill: none; stroke-dasharray: 32,8,5,8; stroke-dashoffset: 0; stroke: #1e90ff; stroke-width: 5"/>
   </g>
   <g id="line2d_91">
    <path d="M 1317.16845 1147.540275 
L 1045.663544 894.843934 
" clip-path="url(#p69b2b0bcc9)" style="fill: none; stroke-dasharray: 32,8,5,8; stroke-dashoffset: 0; stroke: #1e90ff; stroke-width: 5"/>
   </g>
   <g id="line2d_92">
    <path d="M 423.548933 425.663611 
L 477.731561 482.791791 
" clip-path="url(#p69b2b0bcc9)" style="fill: none; stroke-dasharray: 32,8,5,8; stroke-dashoffset: 0; stroke: #1e90ff; stroke-width: 5"/>
   </g>
   <g id="line2d_93">
    <path d="M 604.291641 573.071595 
L 614.093774 577.362813 
" clip-path="url(#p69b2b0bcc9)" style="fill: none; stroke-dasharray: 32,8,5,8; stroke-dashoffset: 0; stroke: #1e90ff; stroke-width: 5"/>
   </g>
   <g id="line2d_94">
    <path d="M 798.79492 648.326185 
L 372.671002 256.947099 
" clip-path="url(#p69b2b0bcc9)" style="fill: none; stroke-dasharray: 32,8,5,8; stroke-dashoffset: 0; stroke: #1e90ff; stroke-width: 5"/>
   </g>
   <g id="line2d_95">
    <path d="M 192.731978 74.531057 
L 163.7754 48.743288 
" clip-path="url(#p69b2b0bcc9)" style="fill: none; stroke-dasharray: 32,8,5,8; stroke-dashoffset: 0; stroke: #1e90ff; stroke-width: 5"/>
   </g>
   <g id="line2d_96">
    <path d="M 679.58794 536.537929 
L 432.847266 308.08233 
" clip-path="url(#p69b2b0bcc9)" style="fill: none; stroke-dasharray: 32,8,5,8; stroke-dashoffset: 0; stroke: #1e90ff; stroke-width: 5"/>
   </g>
   <g id="line2d_97">
    <path d="M 1163.439088 1091.226069 
" clip-path="url(#p69b2b0bcc9)" style="fill: none; stroke: #0000ff; stroke-width: 1.5; stroke-linecap: square"/>
    <defs>
     <path id="m05ad9172bd" d="M 0 10 
C 2.652031 10 5.195799 8.946337 7.071068 7.071068 
C 8.946337 5.195799 10 2.652031 10 0 
C 10 -2.652031 8.946337 -5.195799 7.071068 -7.071068 
C 5.195799 -8.946337 2.652031 -10 0 -10 
C -2.652031 -10 -5.195799 -8.946337 -7.071068 -7.071068 
C -8.946337 -5.195799 -10 -2.652031 -10 0 
C -10 2.652031 -8.946337 5.195799 -7.071068 7.071068 
C -5.195799 8.946337 -2.652031 10 0 10 
z
" style="stroke: #0000ff"/>
    </defs>
    <g clip-path="url(#p69b2b0bcc9)">
     <use xlink:href="#m05ad9172bd" x="1163.439088" y="1091.226069" style="fill: #0000ff; stroke: #0000ff"/>
    </g>
   </g>
   <g id="line2d_98">
    <path d="M 1062.504901 881.073003 
" clip-path="url(#p69b2b0bcc9)" style="fill: none; stroke: #0000ff; stroke-width: 1.5; stroke-linecap: square"/>
    <g clip-path="url(#p69b2b0bcc9)">
     <use xlink:href="#m05ad9172bd" x="1062.504901" y="881.073003" style="fill: #0000ff; stroke: #0000ff"/>
    </g>
   </g>
   <g id="line2d_99">
    <path d="M 1317.16845 1147.540275 
" clip-path="url(#p69b2b0bcc9)" style="fill: none; stroke: #0000ff; stroke-width: 1.5; stroke-linecap: square"/>
    <g clip-path="url(#p69b2b0bcc9)">
     <use xlink:href="#m05ad9172bd" x="1317.16845" y="1147.540275" style="fill: #0000ff; stroke: #0000ff"/>
    </g>
   </g>
   <g id="line2d_100">
    <path d="M 423.548933 425.663611 
" clip-path="url(#p69b2b0bcc9)" style="fill: none; stroke: #0000ff; stroke-width: 1.5; stroke-linecap: square"/>
    <g clip-path="url(#p69b2b0bcc9)">
     <use xlink:href="#m05ad9172bd" x="423.548933" y="425.663611" style="fill: #0000ff; stroke: #0000ff"/>
    </g>
   </g>
   <g id="line2d_101">
    <path d="M 604.291641 573.071595 
" clip-path="url(#p69b2b0bcc9)" style="fill: none; stroke: #0000ff; stroke-width: 1.5; stroke-linecap: square"/>
    <g clip-path="url(#p69b2b0bcc9)">
     <use xlink:href="#m05ad9172bd" x="604.291641" y="573.071595" style="fill: #0000ff; stroke: #0000ff"/>
    </g>
   </g>
   <g id="line2d_102">
    <path d="M 798.79492 648.326185 
" clip-path="url(#p69b2b0bcc9)" style="fill: none; stroke: #0000ff; stroke-width: 1.5; stroke-linecap: square"/>
    <g clip-path="url(#p69b2b0bcc9)">
     <use xlink:href="#m05ad9172bd" x="798.79492" y="648.326185" style="fill: #0000ff; stroke: #0000ff"/>
    </g>
   </g>
   <g id="line2d_103">
    <path d="M 192.731978 74.531057 
" clip-path="url(#p69b2b0bcc9)" style="fill: none; stroke: #0000ff; stroke-width: 1.5; stroke-linecap: square"/>
    <g clip-path="url(#p69b2b0bcc9)">
     <use xlink:href="#m05ad9172bd" x="192.731978" y="74.531057" style="fill: #0000ff; stroke: #0000ff"/>
    </g>
   </g>
   <g id="line2d_104">
    <path d="M 679.58794 536.537929 
" clip-path="url(#p69b2b0bcc9)" style="fill: none; stroke: #0000ff; stroke-width: 1.5; stroke-linecap: square"/>
    <g clip-path="url(#p69b2b0bcc9)">
     <use xlink:href="#m05ad9172bd" x="679.58794" y="536.537929" style="fill: #0000ff; stroke: #0000ff"/>
    </g>
   </g>
   <g id="line2d_105">
    <path d="M 1159.716556 1077.378977 
" clip-path="url(#p69b2b0bcc9)" style="fill: none; stroke: #ff0000; stroke-width: 1.5; stroke-linecap: square"/>
    <defs>
     <path id="m206b1631a3" d="M 0 -10 
L -2.24514 -3.09017 
L -9.510565 -3.09017 
L -3.632713 1.18034 
L -5.877853 8.09017 
L -0 3.81966 
L 5.877853 8.09017 
L 3.632713 1.18034 
L 9.510565 -3.09017 
L 2.24514 -3.09017 
z
" style="stroke: #ff0000; stroke-linejoin: bevel"/>
    </defs>
    <g clip-path="url(#p69b2b0bcc9)">
     <use xlink:href="#m206b1631a3" x="1159.716556" y="1077.378977" style="fill: #ff0000; stroke: #ff0000; stroke-linejoin: bevel"/>
    </g>
   </g>
   <g id="line2d_106">
    <path d="M 833.809109 666.100349 
" clip-path="url(#p69b2b0bcc9)" style="fill: none; stroke: #ff0000; stroke-width: 1.5; stroke-linecap: square"/>
    <g clip-path="url(#p69b2b0bcc9)">
     <use xlink:href="#m206b1631a3" x="833.809109" y="666.100349" style="fill: #ff0000; stroke: #ff0000; stroke-linejoin: bevel"/>
    </g>
   </g>
   <g id="line2d_107">
    <path d="M 1045.663544 894.843934 
" clip-path="url(#p69b2b0bcc9)" style="fill: none; stroke: #ff0000; stroke-width: 1.5; stroke-linecap: square"/>
    <g clip-path="url(#p69b2b0bcc9)">
     <use xlink:href="#m206b1631a3" x="1045.663544" y="894.843934" style="fill: #ff0000; stroke: #ff0000; stroke-linejoin: bevel"/>
    </g>
   </g>
   <g id="line2d_108">
    <path d="M 477.731561 482.791791 
" clip-path="url(#p69b2b0bcc9)" style="fill: none; stroke: #ff0000; stroke-width: 1.5; stroke-linecap: square"/>
    <g clip-path="url(#p69b2b0bcc9)">
     <use xlink:href="#m206b1631a3" x="477.731561" y="482.791791" style="fill: #ff0000; stroke: #ff0000; stroke-linejoin: bevel"/>
    </g>
   </g>
   <g id="line2d_109">
    <path d="M 614.093774 577.362813 
" clip-path="url(#p69b2b0bcc9)" style="fill: none; stroke: #ff0000; stroke-width: 1.5; stroke-linecap: square"/>
    <g clip-path="url(#p69b2b0bcc9)">
     <use xlink:href="#m206b1631a3" x="614.093774" y="577.362813" style="fill: #ff0000; stroke: #ff0000; stroke-linejoin: bevel"/>
    </g>
   </g>
   <g id="line2d_110">
    <path d="M 372.671002 256.947099 
" clip-path="url(#p69b2b0bcc9)" style="fill: none; stroke: #ff0000; stroke-width: 1.5; stroke-linecap: square"/>
    <g clip-path="url(#p69b2b0bcc9)">
     <use xlink:href="#m206b1631a3" x="372.671002" y="256.947099" style="fill: #ff0000; stroke: #ff0000; stroke-linejoin: bevel"/>
    </g>
   </g>
   <g id="line2d_111">
    <path d="M 163.7754 48.743288 
" clip-path="url(#p69b2b0bcc9)" style="fill: none; stroke: #ff0000; stroke-width: 1.5; stroke-linecap: square"/>
    <g clip-path="url(#p69b2b0bcc9)">
     <use xlink:href="#m206b1631a3" x="163.7754" y="48.743288" style="fill: #ff0000; stroke: #ff0000; stroke-linejoin: bevel"/>
    </g>
   </g>
   <g id="line2d_112">
    <path d="M 432.847266 308.08233 
" clip-path="url(#p69b2b0bcc9)" style="fill: none; stroke: #ff0000; stroke-width: 1.5; stroke-linecap: square"/>
    <g clip-path="url(#p69b2b0bcc9)">
     <use xlink:href="#m206b1631a3" x="432.847266" y="308.08233" style="fill: #ff0000; stroke: #ff0000; stroke-linejoin: bevel"/>
    </g>
   </g>
  </g>
 </g>
 <defs>
  <clipPath id="p69b2b0bcc9">
   <rect x="0" y="0" width="1440" height="1440"/>
  </clipPath>
 </defs>
</svg>
