<?xml version="1.0" encoding="utf-8" standalone="no"?>
<!DOCTYPE svg PUBLIC "-//W3C//DTD SVG 1.1//EN"
  "http://www.w3.org/Graphics/SVG/1.1/DTD/svg11.dtd">
<svg xmlns:xlink="http://www.w3.org/1999/xlink" width="1440pt" height="1440pt" viewBox="0 0 1440 1440" xmlns="http://www.w3.org/2000/svg" version="1.1">
 <metadata>
  <rdf:RDF xmlns:dc="http://purl.org/dc/elements/1.1/" xmlns:cc="http://creativecommons.org/ns#" xmlns:rdf="http://www.w3.org/1999/02/22-rdf-syntax-ns#">
   <cc:Work>
    <dc:type rdf:resource="http://purl.org/dc/dcmitype/StillImage"/>
    <dc:date>2026-02-27T11:11:20.584695</dc:date>
    <dc:format>image/svg+xml</dc:format>
    <dc:creator>
     <cc:Agent>
      <dc:title>Matplotlib v3.7.3, https://matplotlib.org/</dc:title>
     </cc:Agent>
    </dc:creator>
   </cc:Work>
  </rdf:RDF>
 </metadata>
 <defs>
  <style type="text/css">*{stroke-linejoin: round; stroke-linecap: butt}</style>
 </defs>
 <g id="figure_1">
  <g id="patch_1">
   <path d="M 0 1440 
L 1440 1440 
L 1440 0 
L 0 0 
z
" style="fill: #ffffff"/>
  </g>
  <g id="axes_1">
   <g id="line2d_1">
    <path d="M 85.000229 327.337466 
L 98.768169 301.413501 
L 99.10896 300.796264 
L 99.245276 300.61991 
" clip-path="url(#pc1e72527cf)" style="fill: none; stroke: #7a7a7a; stroke-width: 3; stroke-linecap: square"/>
   </g>
   <g id="line2d_2">
    <path d="M 86.567866 374.688383 
L 98.768169 352.115134 
L 99.10896 351.497897 
L 99.245276 351.233366 
" clip-path="url(#pc1e72527cf)" style="fill: none; stroke: #7a7a7a; stroke-width: 3; stroke-linecap: square"/>
   </g>
   <g id="line2d_3">
    <path d="M 36.335333 420.540294 
L 85.000229 327.337466 
" clip-path="url(#pc1e72527cf)" style="fill: none; stroke: #7a7a7a; stroke-width: 3; stroke-linecap: square"/>
   </g>
   <g id="line2d_4">
    <path d="M 61.758311 419.041289 
L 86.567866 374.688383 
" clip-path="url(#pc1e72527cf)" style="fill: none; stroke: #7a7a7a; stroke-width: 3; stroke-linecap: square"/>
   </g>
   <g id="line2d_5">
    <path d="M 86.567866 374.688383 
L 98.768169 352.115134 
L 99.10896 351.497897 
L 99.245276 351.233366 
" clip-path="url(#pc1e72527cf)" style="fill: none; stroke: #7a7a7a; stroke-width: 3; stroke-linecap: square"/>
   </g>
   <g id="line2d_6">
    <path d="M 88.544451 459.249889 
L 98.768169 439.586473 
L 99.10896 438.969236 
L 99.245276 438.704705 
" clip-path="url(#pc1e72527cf)" style="fill: none; stroke: #7a7a7a; stroke-width: 3; stroke-linecap: square"/>
   </g>
   <g id="line2d_7">
    <path d="M 61.758311 419.041289 
L 86.567866 374.688383 
" clip-path="url(#pc1e72527cf)" style="fill: none; stroke: #7a7a7a; stroke-width: 3; stroke-linecap: square"/>
   </g>
   <g id="line2d_8">
    <path d="M 84.25049 467.273973 
L 88.544451 459.249889 
" clip-path="url(#pc1e72527cf)" style="fill: none; stroke: #7a7a7a; stroke-width: 3; stroke-linecap: square"/>
   </g>
   <g id="line2d_9">
    <path d="M 650.303665 794.233373 
L 649.00866 796.702322 
L 590.597153 909.127682 
" clip-path="url(#pc1e72527cf)" style="fill: none; stroke: #7a7a7a; stroke-width: 3; stroke-linecap: square"/>
   </g>
   <g id="line2d_10">
    <path d="M 577.715268 794.233373 
L 576.352106 796.614146 
L 536.820397 873.151567 
" clip-path="url(#pc1e72527cf)" style="fill: none; stroke: #7a7a7a; stroke-width: 3; stroke-linecap: square"/>
   </g>
   <g id="line2d_11">
    <path d="M 1095.580653 922.089665 
L 917.551647 764.605984 
L 917.142699 764.253277 
" clip-path="url(#pc1e72527cf)" style="fill: none; stroke: #7a7a7a; stroke-width: 3; stroke-linecap: square"/>
   </g>
   <g id="line2d_12">
    <path d="M 1105.259106 897.841058 
L 917.551647 732.333293 
L 917.142699 731.980586 
" clip-path="url(#pc1e72527cf)" style="fill: none; stroke: #7a7a7a; stroke-width: 3; stroke-linecap: square"/>
   </g>
   <g id="line2d_13">
    <path d="M 917.142699 764.253277 
L 917.551647 764.605984 
L 1095.580653 922.089665 
" clip-path="url(#pc1e72527cf)" style="fill: none; stroke: #7a7a7a; stroke-width: 3; stroke-linecap: square"/>
   </g>
   <g id="line2d_14">
    <path d="M 917.142699 799.876686 
L 917.551647 800.229393 
L 1085.425093 947.660924 
" clip-path="url(#pc1e72527cf)" style="fill: none; stroke: #7a7a7a; stroke-width: 3; stroke-linecap: square"/>
   </g>
   <g id="line2d_15">
    <path d="M 578.056059 60.955496 
L 580.714225 49.051634 
L 586.098717 37.147772 
L 594.005059 26.037502 
L 604.296935 16.426235 
L 616.633554 9.195742 
L 630.878601 5.051434 
L 646.759442 4.698727 
L 656.437895 5.933202 
" clip-path="url(#pc1e72527cf)" style="fill: none; stroke: #7a7a7a; stroke-width: 3; stroke-linecap: square"/>
   </g>
   <g id="line2d_16">
    <path d="M 635.717827 67.568752 
L 638.035203 49.668871 
L 638.375994 47.905336 
L 639.330207 44.642796 
L 640.897844 41.997494 
L 643.078904 40.322136 
L 645.532596 39.704898 
L 654.8021 40.763019 
" clip-path="url(#pc1e72527cf)" style="fill: none; stroke: #7a7a7a; stroke-width: 3; stroke-linecap: square"/>
   </g>
   <g id="line2d_17">
    <path d="M 775.033021 606.94595 
L 771.148009 603.242526 
L 680.974818 523.178035 
" clip-path="url(#pc1e72527cf)" style="fill: none; stroke: #7a7a7a; stroke-width: 3; stroke-linecap: square"/>
   </g>
   <g id="line2d_18">
    <path d="M 782.121466 593.63126 
L 687.654314 509.775168 
" clip-path="url(#pc1e72527cf)" style="fill: none; stroke: #7a7a7a; stroke-width: 3; stroke-linecap: square"/>
   </g>
   <g id="line2d_19">
    <path d="M 52.931508 -1 
L 71.913871 15.897175 
" clip-path="url(#pc1e72527cf)" style="fill: none; stroke: #7a7a7a; stroke-width: 3; stroke-linecap: square"/>
   </g>
   <g id="line2d_20">
    <path d="M 15.703374 -1 
L 59.849884 38.02954 
" clip-path="url(#pc1e72527cf)" style="fill: none; stroke: #7a7a7a; stroke-width: 3; stroke-linecap: square"/>
   </g>
   <g id="line2d_21">
    <path d="M 917.142699 799.876686 
L 917.551647 800.229393 
L 1085.425093 947.660924 
" clip-path="url(#pc1e72527cf)" style="fill: none; stroke: #7a7a7a; stroke-width: 3; stroke-linecap: square"/>
   </g>
   <g id="line2d_22">
    <path d="M 917.142699 817.68839 
L 917.551647 818.041097 
L 1080.176918 960.975613 
" clip-path="url(#pc1e72527cf)" style="fill: none; stroke: #7a7a7a; stroke-width: 3; stroke-linecap: square"/>
   </g>
   <g id="line2d_23">
    <path d="M 482.975483 379.890811 
L 279.182709 198.952114 
" clip-path="url(#pc1e72527cf)" style="fill: none; stroke: #7a7a7a; stroke-width: 3; stroke-linecap: square"/>
   </g>
   <g id="line2d_24">
    <path d="M 494.766838 357.846623 
L 290.905905 176.731572 
" clip-path="url(#pc1e72527cf)" style="fill: none; stroke: #7a7a7a; stroke-width: 3; stroke-linecap: square"/>
   </g>
   <g id="line2d_25">
    <path d="M 578.056059 60.955496 
L 578.942114 47.376276 
L 582.278638 -1 
" clip-path="url(#pc1e72527cf)" style="fill: none; stroke: #7a7a7a; stroke-width: 3; stroke-linecap: square"/>
   </g>
   <g id="line2d_26">
    <path d="M 635.717827 67.568752 
L 640.554108 -1 
" clip-path="url(#pc1e72527cf)" style="fill: none; stroke: #7a7a7a; stroke-width: 3; stroke-linecap: square"/>
   </g>
   <g id="line2d_27">
    <path d="M 163.109433 64.041682 
L 90.090447 -1 
" clip-path="url(#pc1e72527cf)" style="fill: none; stroke: #7a7a7a; stroke-width: 3; stroke-linecap: square"/>
   </g>
   <g id="line2d_28">
    <path d="M 170.947617 51.961467 
L 111.595553 -1 
" clip-path="url(#pc1e72527cf)" style="fill: none; stroke: #7a7a7a; stroke-width: 3; stroke-linecap: square"/>
   </g>
   <g id="line2d_29">
    <path d="M 563.197589 265.172856 
L 563.197589 264.467442 
L 563.333905 263.14479 
L 563.333905 262.88026 
L 565.446807 236.779941 
L 576.011315 93.845425 
L 578.056059 60.955496 
" clip-path="url(#pc1e72527cf)" style="fill: none; stroke: #7a7a7a; stroke-width: 3; stroke-linecap: square"/>
   </g>
   <g id="line2d_30">
    <path d="M 622.086203 265.172856 
L 622.154362 264.467442 
L 622.22252 263.14479 
L 622.290678 262.88026 
L 635.717827 67.568752 
" clip-path="url(#pc1e72527cf)" style="fill: none; stroke: #7a7a7a; stroke-width: 3; stroke-linecap: square"/>
   </g>
   <g id="line2d_31">
    <path d="M 680.974818 523.178035 
L 618.269349 467.538504 
" clip-path="url(#pc1e72527cf)" style="fill: none; stroke: #7a7a7a; stroke-width: 3; stroke-linecap: square"/>
   </g>
   <g id="line2d_32">
    <path d="M 687.654314 509.775168 
L 625.221477 454.400167 
" clip-path="url(#pc1e72527cf)" style="fill: none; stroke: #7a7a7a; stroke-width: 3; stroke-linecap: square"/>
   </g>
   <g id="line2d_33">
    <path d="M 470.229915 403.081297 
L 594.482165 512.508648 
" clip-path="url(#pc1e72527cf)" style="fill: none; stroke: #7a7a7a; stroke-width: 3; stroke-linecap: square"/>
   </g>
   <g id="line2d_34">
    <path d="M 464.095685 415.249689 
L 587.938986 524.853393 
" clip-path="url(#pc1e72527cf)" style="fill: none; stroke: #7a7a7a; stroke-width: 3; stroke-linecap: square"/>
   </g>
   <g id="line2d_35">
    <path d="M 750.905048 651.651564 
L 911.826365 795.203318 
L 914.620848 797.672267 
L 916.73375 799.523979 
L 917.142699 799.876686 
" clip-path="url(#pc1e72527cf)" style="fill: none; stroke: #7a7a7a; stroke-width: 3; stroke-linecap: square"/>
   </g>
   <g id="line2d_36">
    <path d="M 745.316082 663.996309 
L 911.826365 813.015022 
L 914.689006 815.483971 
L 916.73375 817.247506 
L 917.142699 817.68839 
" clip-path="url(#pc1e72527cf)" style="fill: none; stroke: #7a7a7a; stroke-width: 3; stroke-linecap: square"/>
   </g>
   <g id="line2d_37">
    <path d="M 1105.259106 897.841058 
L 917.551647 732.333293 
L 917.142699 731.980586 
" clip-path="url(#pc1e72527cf)" style="fill: none; stroke: #7a7a7a; stroke-width: 3; stroke-linecap: square"/>
   </g>
   <g id="line2d_38">
    <path d="M 1111.120704 883.027364 
L 1061.228961 839.644401 
L 917.551647 712.228993 
L 917.142699 711.876286 
" clip-path="url(#pc1e72527cf)" style="fill: none; stroke: #7a7a7a; stroke-width: 3; stroke-linecap: square"/>
   </g>
   <g id="line2d_39">
    <path d="M 658.210006 569.2063 
L 750.905048 651.651564 
" clip-path="url(#pc1e72527cf)" style="fill: none; stroke: #7a7a7a; stroke-width: 3; stroke-linecap: square"/>
   </g>
   <g id="line2d_40">
    <path d="M 652.075776 581.551045 
L 745.316082 663.996309 
" clip-path="url(#pc1e72527cf)" style="fill: none; stroke: #7a7a7a; stroke-width: 3; stroke-linecap: square"/>
   </g>
   <g id="line2d_41">
    <path d="M 658.210006 569.2063 
L 672.455053 581.991929 
L 684.041933 595.747502 
L 693.175121 610.20849 
L 699.854617 625.022184 
L 704.284894 640.012232 
L 706.534112 654.914104 
L 706.670429 669.463268 
L 704.966476 683.395195 
L 701.354095 696.445354 
L 696.10592 708.261039 
L 692.084591 715.84424 
" clip-path="url(#pc1e72527cf)" style="fill: none; stroke: #7a7a7a; stroke-width: 3; stroke-linecap: square"/>
   </g>
   <g id="line2d_42">
    <path d="M 652.075776 581.551045 
L 660.186592 589.83966 
L 664.95766 600.068163 
L 666.184506 612.501085 
L 663.594498 627.57931 
L 660.868173 634.986158 
L 659.913959 639.218642 
L 657.255793 646.360959 
L 642.192848 674.401166 
" clip-path="url(#pc1e72527cf)" style="fill: none; stroke: #7a7a7a; stroke-width: 3; stroke-linecap: square"/>
   </g>
   <g id="line2d_43">
    <path d="M 559.721525 307.762227 
L 562.993115 267.553628 
L 563.197589 265.172856 
" clip-path="url(#pc1e72527cf)" style="fill: none; stroke: #7a7a7a; stroke-width: 3; stroke-linecap: square"/>
   </g>
   <g id="line2d_44">
    <path d="M 618.405665 317.373493 
L 621.949887 267.641805 
L 622.086203 265.172856 
" clip-path="url(#pc1e72527cf)" style="fill: none; stroke: #7a7a7a; stroke-width: 3; stroke-linecap: square"/>
   </g>
   <g id="line2d_45">
    <path d="M 763.105351 628.372901 
L 911.894524 759.668086 
L 914.620848 762.048859 
L 916.73375 763.90057 
L 917.142699 764.253277 
" clip-path="url(#pc1e72527cf)" style="fill: none; stroke: #7a7a7a; stroke-width: 3; stroke-linecap: square"/>
   </g>
   <g id="line2d_46">
    <path d="M 750.905048 651.651564 
L 911.826365 795.203318 
L 914.620848 797.672267 
L 916.73375 799.523979 
L 917.142699 799.876686 
" clip-path="url(#pc1e72527cf)" style="fill: none; stroke: #7a7a7a; stroke-width: 3; stroke-linecap: square"/>
   </g>
   <g id="line2d_47">
    <path d="M 763.105351 628.372901 
L 669.865045 545.663107 
" clip-path="url(#pc1e72527cf)" style="fill: none; stroke: #7a7a7a; stroke-width: 3; stroke-linecap: square"/>
   </g>
   <g id="line2d_48">
    <path d="M 775.033021 606.94595 
L 771.148009 603.242526 
L 680.974818 523.178035 
" clip-path="url(#pc1e72527cf)" style="fill: none; stroke: #7a7a7a; stroke-width: 3; stroke-linecap: square"/>
   </g>
   <g id="line2d_49">
    <path d="M 482.975483 379.890811 
L 494.69868 387.914896 
L 506.694509 389.237547 
L 518.622179 384.916886 
L 529.936427 376.187388 
L 540.091987 364.107172 
L 548.611752 349.910715 
L 555.018615 334.656137 
L 555.700196 331.834481 
L 556.790726 329.189178 
L 557.74494 325.485755 
L 558.08573 322.399568 
L 558.835469 319.489735 
L 559.721525 307.762227 
" clip-path="url(#pc1e72527cf)" style="fill: none; stroke: #7a7a7a; stroke-width: 3; stroke-linecap: square"/>
   </g>
   <g id="line2d_50">
    <path d="M 470.229915 403.081297 
L 482.566535 413.133447 
L 494.834996 421.157532 
L 507.512406 426.536314 
L 520.394291 429.534323 
L 533.276175 430.15156 
L 546.021743 428.476202 
L 558.290204 424.684602 
L 570.013401 418.864936 
L 580.850542 411.017205 
L 590.733469 401.405939 
L 599.38955 390.031138 
L 606.546152 376.980978 
L 612.135118 362.431814 
L 615.883815 346.383645 
L 617.51961 329.012825 
L 618.405665 317.373493 
" clip-path="url(#pc1e72527cf)" style="fill: none; stroke: #7a7a7a; stroke-width: 3; stroke-linecap: square"/>
   </g>
   <g id="line2d_51">
    <path d="M 151.590711 86.879461 
L 71.913871 15.897175 
" clip-path="url(#pc1e72527cf)" style="fill: none; stroke: #7a7a7a; stroke-width: 3; stroke-linecap: square"/>
   </g>
   <g id="line2d_52">
    <path d="M 163.109433 64.041682 
L 90.090447 -1 
" clip-path="url(#pc1e72527cf)" style="fill: none; stroke: #7a7a7a; stroke-width: 3; stroke-linecap: square"/>
   </g>
   <g id="line2d_53">
    <path d="M 917.142699 731.980586 
L 916.73375 731.539702 
L 914.620848 729.68799 
L 911.894524 727.307218 
L 775.033021 606.94595 
" clip-path="url(#pc1e72527cf)" style="fill: none; stroke: #7a7a7a; stroke-width: 3; stroke-linecap: square"/>
   </g>
   <g id="line2d_54">
    <path d="M 917.142699 711.876286 
L 916.73375 711.523579 
L 914.55269 709.671867 
L 911.894524 707.202918 
L 782.121466 593.63126 
" clip-path="url(#pc1e72527cf)" style="fill: none; stroke: #7a7a7a; stroke-width: 3; stroke-linecap: square"/>
   </g>
   <g id="line2d_55">
    <path d="M 151.590711 86.879461 
L 279.182709 198.952114 
" clip-path="url(#pc1e72527cf)" style="fill: none; stroke: #7a7a7a; stroke-width: 3; stroke-linecap: square"/>
   </g>
   <g id="line2d_56">
    <path d="M 140.003831 109.011826 
L 267.459513 221.260833 
" clip-path="url(#pc1e72527cf)" style="fill: none; stroke: #7a7a7a; stroke-width: 3; stroke-linecap: square"/>
   </g>
   <g id="line2d_57">
    <path d="M 140.003831 109.011826 
L 267.459513 221.260833 
" clip-path="url(#pc1e72527cf)" style="fill: none; stroke: #7a7a7a; stroke-width: 3; stroke-linecap: square"/>
   </g>
   <g id="line2d_58">
    <path d="M 132.506438 123.208283 
L 260.30291 234.751876 
" clip-path="url(#pc1e72527cf)" style="fill: none; stroke: #7a7a7a; stroke-width: 3; stroke-linecap: square"/>
   </g>
   <g id="line2d_59">
    <path d="M 692.084591 715.84424 
L 651.462353 792.117131 
L 651.257878 792.381662 
L 650.576297 793.79249 
L 650.439981 794.05702 
L 650.303665 794.233373 
" clip-path="url(#pc1e72527cf)" style="fill: none; stroke: #7a7a7a; stroke-width: 3; stroke-linecap: square"/>
   </g>
   <g id="line2d_60">
    <path d="M 642.192848 674.401166 
L 588.007144 776.068962 
L 578.873956 792.117131 
L 578.73764 792.381662 
L 577.919743 793.79249 
L 577.715268 794.233373 
" clip-path="url(#pc1e72527cf)" style="fill: none; stroke: #7a7a7a; stroke-width: 3; stroke-linecap: square"/>
   </g>
   <g id="line2d_61">
    <path d="M 618.269349 467.538504 
L 494.766838 357.846623 
" clip-path="url(#pc1e72527cf)" style="fill: none; stroke: #7a7a7a; stroke-width: 3; stroke-linecap: square"/>
   </g>
   <g id="line2d_62">
    <path d="M 625.221477 454.400167 
L 501.787124 344.796464 
" clip-path="url(#pc1e72527cf)" style="fill: none; stroke: #7a7a7a; stroke-width: 3; stroke-linecap: square"/>
   </g>
   <g id="line2d_63">
    <path d="M 618.269349 467.538504 
L 600.889029 449.638623 
L 587.121089 434.648575 
L 576.55658 421.951122 
L 568.718397 410.840851 
L 563.197589 400.612348 
L 559.653367 390.648375 
L 557.540465 380.243518 
L 556.518093 368.692364 
L 556.109145 355.465851 
L 559.721525 307.762227 
" clip-path="url(#pc1e72527cf)" style="fill: none; stroke: #7a7a7a; stroke-width: 3; stroke-linecap: square"/>
   </g>
   <g id="line2d_64">
    <path d="M 625.221477 454.400167 
L 619.700669 447.25785 
L 615.951973 439.762826 
L 613.702755 429.88703 
L 612.816699 415.426043 
L 613.225648 394.528152 
L 613.634597 387.562189 
L 613.634597 385.269593 
L 614.111704 378.920867 
L 614.793285 365.077117 
L 618.405665 317.373493 
" clip-path="url(#pc1e72527cf)" style="fill: none; stroke: #7a7a7a; stroke-width: 3; stroke-linecap: square"/>
   </g>
   <g id="line2d_65">
    <path d="M 606.614311 489.582692 
L 590.188204 472.476402 
L 577.510794 458.368121 
L 568.173132 446.552436 
L 561.69811 436.059403 
L 557.472307 426.09543 
L 555.018615 415.955103 
L 553.859927 404.580302 
L 553.450978 391.353789 
L 559.721525 307.762227 
" clip-path="url(#pc1e72527cf)" style="fill: none; stroke: #7a7a7a; stroke-width: 3; stroke-linecap: square"/>
   </g>
   <g id="line2d_66">
    <path d="M 618.269349 467.538504 
L 613.225648 460.396187 
L 610.703798 450.344037 
L 610.431165 432.355979 
L 612.135118 400.965055 
L 618.405665 317.373493 
" clip-path="url(#pc1e72527cf)" style="fill: none; stroke: #7a7a7a; stroke-width: 3; stroke-linecap: square"/>
   </g>
   <g id="line2d_67">
    <path d="M 99.245276 300.61991 
L 99.586067 300.002673 
L 147.364908 210.767799 
" clip-path="url(#pc1e72527cf)" style="fill: none; stroke: #7a7a7a; stroke-width: 3; stroke-linecap: square"/>
   </g>
   <g id="line2d_68">
    <path d="M 99.245276 351.233366 
L 99.586067 350.616129 
L 165.01786 228.314973 
" clip-path="url(#pc1e72527cf)" style="fill: none; stroke: #7a7a7a; stroke-width: 3; stroke-linecap: square"/>
   </g>
   <g id="line2d_69">
    <path d="M 165.01786 228.314973 
L 172.106305 217.469232 
L 180.96686 208.739734 
L 191.326894 202.302831 
L 202.777458 198.070347 
L 214.909603 196.394988 
L 227.314381 197.364933 
L 239.651 200.980179 
L 251.510513 207.505259 
L 267.459513 221.260833 
" clip-path="url(#pc1e72527cf)" style="fill: none; stroke: #7a7a7a; stroke-width: 3; stroke-linecap: square"/>
   </g>
   <g id="line2d_70">
    <path d="M 194.053219 256.884241 
L 198.142706 249.389217 
L 203.118249 240.571542 
L 203.79983 239.24889 
L 204.685885 237.397178 
L 208.50274 233.076518 
L 211.160907 231.577513 
L 214.091706 229.637624 
L 225.474112 223.729782 
L 236.788359 222.318954 
L 247.012077 224.787903 
L 255.463684 230.431215 
L 260.30291 234.751876 
" clip-path="url(#pc1e72527cf)" style="fill: none; stroke: #7a7a7a; stroke-width: 3; stroke-linecap: square"/>
   </g>
   <g id="line2d_71">
    <path d="M 279.182709 198.952114 
L 151.590711 86.879461 
" clip-path="url(#pc1e72527cf)" style="fill: none; stroke: #7a7a7a; stroke-width: 3; stroke-linecap: square"/>
   </g>
   <g id="line2d_72">
    <path d="M 290.905905 176.731572 
L 163.109433 64.041682 
" clip-path="url(#pc1e72527cf)" style="fill: none; stroke: #7a7a7a; stroke-width: 3; stroke-linecap: square"/>
   </g>
   <g id="line2d_73">
    <path d="M 669.865045 545.663107 
L 763.105351 628.372901 
" clip-path="url(#pc1e72527cf)" style="fill: none; stroke: #7a7a7a; stroke-width: 3; stroke-linecap: square"/>
   </g>
   <g id="line2d_74">
    <path d="M 658.210006 569.2063 
L 750.905048 651.651564 
" clip-path="url(#pc1e72527cf)" style="fill: none; stroke: #7a7a7a; stroke-width: 3; stroke-linecap: square"/>
   </g>
   <g id="line2d_75">
    <path d="M 71.913871 15.897175 
L 151.590711 86.879461 
" clip-path="url(#pc1e72527cf)" style="fill: none; stroke: #7a7a7a; stroke-width: 3; stroke-linecap: square"/>
   </g>
   <g id="line2d_76">
    <path d="M 59.849884 38.02954 
L 140.003831 109.011826 
" clip-path="url(#pc1e72527cf)" style="fill: none; stroke: #7a7a7a; stroke-width: 3; stroke-linecap: square"/>
   </g>
   <g id="line2d_77">
    <path d="M 606.614311 489.582692 
L 482.975483 379.890811 
" clip-path="url(#pc1e72527cf)" style="fill: none; stroke: #7a7a7a; stroke-width: 3; stroke-linecap: square"/>
   </g>
   <g id="line2d_78">
    <path d="M 618.269349 467.538504 
L 494.766838 357.846623 
" clip-path="url(#pc1e72527cf)" style="fill: none; stroke: #7a7a7a; stroke-width: 3; stroke-linecap: square"/>
   </g>
   <g id="line2d_79">
    <path d="M 494.766838 357.846623 
L 290.905905 176.731572 
" clip-path="url(#pc1e72527cf)" style="fill: none; stroke: #7a7a7a; stroke-width: 3; stroke-linecap: square"/>
   </g>
   <g id="line2d_80">
    <path d="M 501.787124 344.796464 
L 297.858034 163.505059 
" clip-path="url(#pc1e72527cf)" style="fill: none; stroke: #7a7a7a; stroke-width: 3; stroke-linecap: square"/>
   </g>
   <g id="line2d_81">
    <path d="M 290.905905 176.731572 
L 163.109433 64.041682 
" clip-path="url(#pc1e72527cf)" style="fill: none; stroke: #7a7a7a; stroke-width: 3; stroke-linecap: square"/>
   </g>
   <g id="line2d_82">
    <path d="M 297.858034 163.505059 
L 170.947617 51.961467 
" clip-path="url(#pc1e72527cf)" style="fill: none; stroke: #7a7a7a; stroke-width: 3; stroke-linecap: square"/>
   </g>
   <g id="line2d_83">
    <path d="M 59.849884 38.02954 
L 140.003831 109.011826 
" clip-path="url(#pc1e72527cf)" style="fill: none; stroke: #7a7a7a; stroke-width: 3; stroke-linecap: square"/>
   </g>
   <g id="line2d_84">
    <path d="M 52.420649 51.520583 
L 132.506438 123.208283 
" clip-path="url(#pc1e72527cf)" style="fill: none; stroke: #7a7a7a; stroke-width: 3; stroke-linecap: square"/>
   </g>
   <g id="line2d_85">
    <path d="M 99.245276 351.233366 
L 99.586067 350.616129 
L 165.01786 228.314973 
" clip-path="url(#pc1e72527cf)" style="fill: none; stroke: #7a7a7a; stroke-width: 3; stroke-linecap: square"/>
   </g>
   <g id="line2d_86">
    <path d="M 99.245276 438.704705 
L 99.586067 438.087468 
L 194.053219 256.884241 
" clip-path="url(#pc1e72527cf)" style="fill: none; stroke: #7a7a7a; stroke-width: 3; stroke-linecap: square"/>
   </g>
   <g id="line2d_87">
    <path d="M 763.105351 628.372901 
L 754.040321 624.581301 
L 744.975291 626.962073 
L 735.296838 636.749693 
L 724.527856 655.090457 
L 692.084591 715.84424 
" clip-path="url(#pc1e72527cf)" style="fill: none; stroke: #7a7a7a; stroke-width: 3; stroke-linecap: square"/>
   </g>
   <g id="line2d_88">
    <path d="M 775.033021 606.94595 
L 764.468513 597.863745 
L 752.813475 591.338665 
L 740.340539 587.458888 
L 727.594971 586.136236 
L 715.053877 587.106181 
L 702.98989 590.456897 
L 691.948275 596.012033 
L 682.406138 603.771587 
L 674.636113 613.559207 
L 642.192848 674.401166 
" clip-path="url(#pc1e72527cf)" style="fill: none; stroke: #7a7a7a; stroke-width: 3; stroke-linecap: square"/>
   </g>
   <g id="line2d_89">
    <path d="M 669.865045 545.663107 
L 682.406138 556.685201 
L 692.766172 569.47083 
L 701.013305 583.579111 
L 707.215694 598.833689 
L 711.441497 614.705504 
L 713.758873 630.84185 
L 714.23598 646.978196 
L 712.872817 662.673658 
L 709.87386 677.575529 
L 705.102792 691.419279 
L 692.084591 715.84424 
" clip-path="url(#pc1e72527cf)" style="fill: none; stroke: #7a7a7a; stroke-width: 3; stroke-linecap: square"/>
   </g>
   <g id="line2d_90">
    <path d="M 658.210006 569.2063 
L 666.661613 578.376682 
L 671.637156 589.134246 
L 672.93216 601.655345 
L 670.682942 615.939979 
L 664.821344 631.988148 
L 657.255793 646.360959 
L 642.192848 674.401166 
" clip-path="url(#pc1e72527cf)" style="fill: none; stroke: #7a7a7a; stroke-width: 3; stroke-linecap: square"/>
   </g>
   <g id="line2d_91">
    <path d="M 669.865045 545.663107 
L 606.614311 489.582692 
" clip-path="url(#pc1e72527cf)" style="fill: none; stroke: #7a7a7a; stroke-width: 3; stroke-linecap: square"/>
   </g>
   <g id="line2d_92">
    <path d="M 680.974818 523.178035 
L 618.269349 467.538504 
" clip-path="url(#pc1e72527cf)" style="fill: none; stroke: #7a7a7a; stroke-width: 3; stroke-linecap: square"/>
   </g>
   <g id="line2d_93">
    <path d="M 606.614311 489.582692 
L 669.865045 545.663107 
" clip-path="url(#pc1e72527cf)" style="fill: none; stroke: #7a7a7a; stroke-width: 3; stroke-linecap: square"/>
   </g>
   <g id="line2d_94">
    <path d="M 594.482165 512.508648 
L 658.210006 569.2063 
" clip-path="url(#pc1e72527cf)" style="fill: none; stroke: #7a7a7a; stroke-width: 3; stroke-linecap: square"/>
   </g>
   <g id="line2d_95">
    <path d="M 147.364908 210.767799 
L 164.199963 177.966047 
L 167.130762 161.917878 
L 168.766557 144.458881 
L 168.425766 126.82353 
L 165.7676 110.510831 
L 160.31495 96.755257 
L 151.590711 86.879461 
" clip-path="url(#pc1e72527cf)" style="fill: none; stroke: #7a7a7a; stroke-width: 3; stroke-linecap: square"/>
   </g>
   <g id="line2d_96">
    <path d="M 165.01786 228.314973 
L 182.261864 195.865928 
L 187.782672 182.286708 
L 192.21295 167.737544 
L 195.075591 152.394789 
L 196.234279 136.787503 
L 195.211907 121.003864 
L 191.735843 105.484756 
L 185.397138 90.671061 
L 175.991318 76.739135 
L 163.109433 64.041682 
" clip-path="url(#pc1e72527cf)" style="fill: none; stroke: #7a7a7a; stroke-width: 3; stroke-linecap: square"/>
   </g>
   <g id="line2d_97">
    <path d="M 267.459513 221.260833 
L 470.229915 403.081297 
" clip-path="url(#pc1e72527cf)" style="fill: none; stroke: #7a7a7a; stroke-width: 3; stroke-linecap: square"/>
   </g>
   <g id="line2d_98">
    <path d="M 260.30291 234.751876 
L 464.095685 415.249689 
" clip-path="url(#pc1e72527cf)" style="fill: none; stroke: #7a7a7a; stroke-width: 3; stroke-linecap: square"/>
   </g>
   <g id="line2d_99">
    <path d="M 594.482165 512.508648 
L 658.210006 569.2063 
" clip-path="url(#pc1e72527cf)" style="fill: none; stroke: #7a7a7a; stroke-width: 3; stroke-linecap: square"/>
   </g>
   <g id="line2d_100">
    <path d="M 587.938986 524.853393 
L 652.075776 581.551045 
" clip-path="url(#pc1e72527cf)" style="fill: none; stroke: #7a7a7a; stroke-width: 3; stroke-linecap: square"/>
   </g>
   <g id="line2d_101">
    <path d="M 917.142699 764.253277 
L 916.73375 763.90057 
L 914.620848 762.048859 
L 911.894524 759.668086 
L 763.105351 628.372901 
" clip-path="url(#pc1e72527cf)" style="fill: none; stroke: #7a7a7a; stroke-width: 3; stroke-linecap: square"/>
   </g>
   <g id="line2d_102">
    <path d="M 917.142699 731.980586 
L 916.73375 731.539702 
L 914.620848 729.68799 
L 911.894524 727.307218 
L 775.033021 606.94595 
" clip-path="url(#pc1e72527cf)" style="fill: none; stroke: #7a7a7a; stroke-width: 3; stroke-linecap: square"/>
   </g>
   <g id="line2d_103">
    <path d="M 165.01786 228.314973 
L 171.152091 216.675641 
L 178.172377 204.419073 
L 187.782672 194.366923 
L 199.43771 186.695545 
L 212.455911 181.581294 
L 226.360167 179.112345 
L 240.605214 179.465052 
L 254.50947 182.727592 
L 267.527671 189.252671 
L 279.182709 198.952114 
" clip-path="url(#pc1e72527cf)" style="fill: none; stroke: #7a7a7a; stroke-width: 3; stroke-linecap: square"/>
   </g>
   <g id="line2d_104">
    <path d="M 194.053219 256.884241 
L 200.051133 245.685793 
L 201.482454 242.51143 
L 204.345095 238.455299 
L 210.138535 230.695745 
L 221.452783 220.379065 
L 233.721244 214.559399 
L 245.989705 212.972218 
L 257.576585 215.264813 
L 267.459513 221.260833 
" clip-path="url(#pc1e72527cf)" style="fill: none; stroke: #7a7a7a; stroke-width: 3; stroke-linecap: square"/>
   </g>
   <g id="line2d_105">
    <path d="M 15.703374 -1 
L 59.849884 38.02954 
" clip-path="url(#pc1e72527cf)" style="fill: none; stroke: #7a7a7a; stroke-width: 3; stroke-linecap: square"/>
   </g>
   <g id="line2d_106">
    <path d="M 1.847325 6.374086 
L 52.420649 51.520583 
" clip-path="url(#pc1e72527cf)" style="fill: none; stroke: #7a7a7a; stroke-width: 3; stroke-linecap: square"/>
   </g>
   <g id="line2d_107">
    <path d="M 279.182709 198.952114 
L 482.975483 379.890811 
" clip-path="url(#pc1e72527cf)" style="fill: none; stroke: #7a7a7a; stroke-width: 3; stroke-linecap: square"/>
   </g>
   <g id="line2d_108">
    <path d="M 267.459513 221.260833 
L 470.229915 403.081297 
" clip-path="url(#pc1e72527cf)" style="fill: none; stroke: #7a7a7a; stroke-width: 3; stroke-linecap: square"/>
   </g>
   <g id="line2d_109">
    <path d="M 71.913871 15.897175 
L 52.931508 -1 
" clip-path="url(#pc1e72527cf)" style="fill: none; stroke: #7a7a7a; stroke-width: 3; stroke-linecap: square"/>
   </g>
   <g id="line2d_110">
    <path clip-path="url(#pc1e72527cf)" style="fill: none; stroke: #7a7a7a; stroke-width: 3; stroke-linecap: square"/>
   </g>
   <g id="line2d_111">
    <path d="M 482.975483 379.890811 
L 606.614311 489.582692 
" clip-path="url(#pc1e72527cf)" style="fill: none; stroke: #7a7a7a; stroke-width: 3; stroke-linecap: square"/>
   </g>
   <g id="line2d_112">
    <path d="M 470.229915 403.081297 
L 594.482165 512.508648 
" clip-path="url(#pc1e72527cf)" style="fill: none; stroke: #7a7a7a; stroke-width: 3; stroke-linecap: square"/>
   </g>
   <g id="line2d_113">
    <path clip-path="url(#pc1e72527cf)" style="fill: none; stroke: #7a7a7a; stroke-width: 3; stroke-linecap: square"/>
   </g>
   <g id="line2d_114">
    <path clip-path="url(#pc1e72527cf)" style="fill: none; stroke: #7a7a7a; stroke-width: 3; stroke-linecap: square"/>
   </g>
   <g id="line2d_115">
    <path d="M 147.364908 210.767799 
L 173.810258 159.977989 
L 178.44501 146.134239 
L 181.375809 130.967838 
L 182.398181 115.360552 
L 181.239493 100.017797 
L 177.763429 85.82134 
L 171.765514 73.564771 
L 163.109433 64.041682 
" clip-path="url(#pc1e72527cf)" style="fill: none; stroke: #7a7a7a; stroke-width: 3; stroke-linecap: square"/>
   </g>
   <g id="line2d_116">
    <path d="M 165.01786 228.314973 
L 191.872159 177.789693 
L 197.256651 162.006055 
L 200.119291 144.899765 
L 200.460082 126.999884 
L 198.551655 109.18818 
L 194.462168 92.08189 
L 188.464253 76.298251 
L 180.557911 62.719031 
L 170.947617 51.961467 
" clip-path="url(#pc1e72527cf)" style="fill: none; stroke: #7a7a7a; stroke-width: 3; stroke-linecap: square"/>
   </g>
   <g id="line2d_117">
    <path d="M 1049.10254 941.51503 
L 1337.762822 1175.469741 
" clip-path="url(#pc1e72527cf)" style="fill: none; stroke-dasharray: 32,8,5,8; stroke-dashoffset: 0; stroke: #1e90ff; stroke-width: 5"/>
   </g>
   <g id="line2d_118">
    <path d="M 414.989091 319.975483 
L 264.069445 193.99962 
" clip-path="url(#pc1e72527cf)" style="fill: none; stroke-dasharray: 32,8,5,8; stroke-dashoffset: 0; stroke: #1e90ff; stroke-width: 5"/>
   </g>
   <g id="line2d_119">
    <path d="M 945.477573 833.710553 
L 1095.834782 984.177207 
" clip-path="url(#pc1e72527cf)" style="fill: none; stroke-dasharray: 32,8,5,8; stroke-dashoffset: 0; stroke: #1e90ff; stroke-width: 5"/>
   </g>
   <g id="line2d_120">
    <path d="M 666.691565 601.253082 
L 664.631513 599.106787 
" clip-path="url(#pc1e72527cf)" style="fill: none; stroke-dasharray: 32,8,5,8; stroke-dashoffset: 0; stroke: #1e90ff; stroke-width: 5"/>
   </g>
   <g id="line2d_121">
    <path d="M 363.031838 254.146456 
L 136.316237 44.088376 
" clip-path="url(#pc1e72527cf)" style="fill: none; stroke-dasharray: 32,8,5,8; stroke-dashoffset: 0; stroke: #1e90ff; stroke-width: 5"/>
   </g>
   <g id="line2d_122">
    <path d="M 613.702622 552.645001 
L 607.589025 543.973712 
" clip-path="url(#pc1e72527cf)" style="fill: none; stroke-dasharray: 32,8,5,8; stroke-dashoffset: 0; stroke: #1e90ff; stroke-width: 5"/>
   </g>
   <g id="line2d_123">
    <path d="M 1113.97589 893.927354 
L 1114.688089 887.148335 
" clip-path="url(#pc1e72527cf)" style="fill: none; stroke-dasharray: 32,8,5,8; stroke-dashoffset: 0; stroke: #1e90ff; stroke-width: 5"/>
   </g>
   <g id="line2d_124">
    <path d="M 741.765337 669.085245 
L 749.855785 678.543364 
" clip-path="url(#pc1e72527cf)" style="fill: none; stroke-dasharray: 32,8,5,8; stroke-dashoffset: 0; stroke: #1e90ff; stroke-width: 5"/>
   </g>
   <g id="line2d_125">
    <path d="M 801.147432 716.489937 
L 798.062345 716.83653 
" clip-path="url(#pc1e72527cf)" style="fill: none; stroke-dasharray: 32,8,5,8; stroke-dashoffset: 0; stroke: #1e90ff; stroke-width: 5"/>
   </g>
   <g id="line2d_126">
    <path d="M 518.437673 433.031599 
L 841.91251 715.207972 
" clip-path="url(#pc1e72527cf)" style="fill: none; stroke-dasharray: 32,8,5,8; stroke-dashoffset: 0; stroke: #1e90ff; stroke-width: 5"/>
   </g>
   <g id="line2d_127">
    <path d="M 1049.10254 941.51503 
" clip-path="url(#pc1e72527cf)" style="fill: none; stroke: #0000ff; stroke-width: 1.5; stroke-linecap: square"/>
    <defs>
     <path id="m3908fc2aed" d="M 0 10 
C 2.652031 10 5.195799 8.946337 7.071068 7.071068 
C 8.946337 5.195799 10 2.652031 10 0 
C 10 -2.652031 8.946337 -5.195799 7.071068 -7.071068 
C 5.195799 -8.946337 2.652031 -10 0 -10 
C -2.652031 -10 -5.195799 -8.946337 -7.071068 -7.071068 
C -8.946337 -5.195799 -10 -2.652031 -10 0 
C -10 2.652031 -8.946337 5.195799 -7.071068 7.071068 
C -5.195799 8.946337 -2.652031 10 0 10 
z
" style="stroke: #0000ff"/>
    </defs>
    <g clip-path="url(#pc1e72527cf)">
     <use xlink:href="#m3908fc2aed" x="1049.10254" y="941.51503" style="fill: #0000ff; stroke: #0000ff"/>
    </g>
   </g>
   <g id="line2d_128">
    <path d="M 414.989091 319.975483 
" clip-path="url(#pc1e72527cf)" style="fill: none; stroke: #0000ff; stroke-width: 1.5; stroke-linecap: square"/>
    <g clip-path="url(#pc1e72527cf)">
     <use xlink:href="#m3908fc2aed" x="414.989091" y="319.975483" style="fill: #0000ff; stroke: #0000ff"/>
    </g>
   </g>
   <g id="line2d_129">
    <path d="M 945.477573 833.710553 
" clip-path="url(#pc1e72527cf)" style="fill: none; stroke: #0000ff; stroke-width: 1.5; stroke-linecap: square"/>
    <g clip-path="url(#pc1e72527cf)">
     <use xlink:href="#m3908fc2aed" x="945.477573" y="833.710553" style="fill: #0000ff; stroke: #0000ff"/>
    </g>
   </g>
   <g id="line2d_130">
    <path d="M 666.691565 601.253082 
" clip-path="url(#pc1e72527cf)" style="fill: none; stroke: #0000ff; stroke-width: 1.5; stroke-linecap: square"/>
    <g clip-path="url(#pc1e72527cf)">
     <use xlink:href="#m3908fc2aed" x="666.691565" y="601.253082" style="fill: #0000ff; stroke: #0000ff"/>
    </g>
   </g>
   <g id="line2d_131">
    <path d="M 363.031838 254.146456 
" clip-path="url(#pc1e72527cf)" style="fill: none; stroke: #0000ff; stroke-width: 1.5; stroke-linecap: square"/>
    <g clip-path="url(#pc1e72527cf)">
     <use xlink:href="#m3908fc2aed" x="363.031838" y="254.146456" style="fill: #0000ff; stroke: #0000ff"/>
    </g>
   </g>
   <g id="line2d_132">
    <path d="M 613.702622 552.645001 
" clip-path="url(#pc1e72527cf)" style="fill: none; stroke: #0000ff; stroke-width: 1.5; stroke-linecap: square"/>
    <g clip-path="url(#pc1e72527cf)">
     <use xlink:href="#m3908fc2aed" x="613.702622" y="552.645001" style="fill: #0000ff; stroke: #0000ff"/>
    </g>
   </g>
   <g id="line2d_133">
    <path d="M 1113.97589 893.927354 
" clip-path="url(#pc1e72527cf)" style="fill: none; stroke: #0000ff; stroke-width: 1.5; stroke-linecap: square"/>
    <g clip-path="url(#pc1e72527cf)">
     <use xlink:href="#m3908fc2aed" x="1113.97589" y="893.927354" style="fill: #0000ff; stroke: #0000ff"/>
    </g>
   </g>
   <g id="line2d_134">
    <path d="M 741.765337 669.085245 
" clip-path="url(#pc1e72527cf)" style="fill: none; stroke: #0000ff; stroke-width: 1.5; stroke-linecap: square"/>
    <g clip-path="url(#pc1e72527cf)">
     <use xlink:href="#m3908fc2aed" x="741.765337" y="669.085245" style="fill: #0000ff; stroke: #0000ff"/>
    </g>
   </g>
   <g id="line2d_135">
    <path d="M 801.147432 716.489937 
" clip-path="url(#pc1e72527cf)" style="fill: none; stroke: #0000ff; stroke-width: 1.5; stroke-linecap: square"/>
    <g clip-path="url(#pc1e72527cf)">
     <use xlink:href="#m3908fc2aed" x="801.147432" y="716.489937" style="fill: #0000ff; stroke: #0000ff"/>
    </g>
   </g>
   <g id="line2d_136">
    <path d="M 518.437673 433.031599 
" clip-path="url(#pc1e72527cf)" style="fill: none; stroke: #0000ff; stroke-width: 1.5; stroke-linecap: square"/>
    <g clip-path="url(#pc1e72527cf)">
     <use xlink:href="#m3908fc2aed" x="518.437673" y="433.031599" style="fill: #0000ff; stroke: #0000ff"/>
    </g>
   </g>
   <g id="line2d_137">
    <path d="M 1337.762822 1175.469741 
" clip-path="url(#pc1e72527cf)" style="fill: none; stroke: #ff0000; stroke-width: 1.5; stroke-linecap: square"/>
    <defs>
     <path id="m88a2184328" d="M 0 -10 
L -2.24514 -3.09017 
L -9.510565 -3.09017 
L -3.632713 1.18034 
L -5.877853 8.09017 
L -0 3.81966 
L 5.877853 8.09017 
L 3.632713 1.18034 
L 9.510565 -3.09017 
L 2.24514 -3.09017 
z
" style="stroke: #ff0000; stroke-linejoin: bevel"/>
    </defs>
    <g clip-path="url(#pc1e72527cf)">
     <use xlink:href="#m88a2184328" x="1337.762822" y="1175.469741" style="fill: #ff0000; stroke: #ff0000; stroke-linejoin: bevel"/>
    </g>
   </g>
   <g id="line2d_138">
    <path d="M 264.069445 193.99962 
" clip-path="url(#pc1e72527cf)" style="fill: none; stroke: #ff0000; stroke-width: 1.5; stroke-linecap: square"/>
    <g clip-path="url(#pc1e72527cf)">
     <use xlink:href="#m88a2184328" x="264.069445" y="193.99962" style="fill: #ff0000; stroke: #ff0000; stroke-linejoin: bevel"/>
    </g>
   </g>
   <g id="line2d_139">
    <path d="M 1095.834782 984.177207 
" clip-path="url(#pc1e72527cf)" style="fill: none; stroke: #ff0000; stroke-width: 1.5; stroke-linecap: square"/>
    <g clip-path="url(#pc1e72527cf)">
     <use xlink:href="#m88a2184328" x="1095.834782" y="984.177207" style="fill: #ff0000; stroke: #ff0000; stroke-linejoin: bevel"/>
    </g>
   </g>
   <g id="line2d_140">
    <path d="M 664.631513 599.106787 
" clip-path="url(#pc1e72527cf)" style="fill: none; stroke: #ff0000; stroke-width: 1.5; stroke-linecap: square"/>
    <g clip-path="url(#pc1e72527cf)">
     <use xlink:href="#m88a2184328" x="664.631513" y="599.106787" style="fill: #ff0000; stroke: #ff0000; stroke-linejoin: bevel"/>
    </g>
   </g>
   <g id="line2d_141">
    <path d="M 136.316237 44.088376 
" clip-path="url(#pc1e72527cf)" style="fill: none; stroke: #ff0000; stroke-width: 1.5; stroke-linecap: square"/>
    <g clip-path="url(#pc1e72527cf)">
     <use xlink:href="#m88a2184328" x="136.316237" y="44.088376" style="fill: #ff0000; stroke: #ff0000; stroke-linejoin: bevel"/>
    </g>
   </g>
   <g id="line2d_142">
    <path d="M 607.589025 543.973712 
" clip-path="url(#pc1e72527cf)" style="fill: none; stroke: #ff0000; stroke-width: 1.5; stroke-linecap: square"/>
    <g clip-path="url(#pc1e72527cf)">
     <use xlink:href="#m88a2184328" x="607.589025" y="543.973712" style="fill: #ff0000; stroke: #ff0000; stroke-linejoin: bevel"/>
    </g>
   </g>
   <g id="line2d_143">
    <path d="M 1114.688089 887.148335 
" clip-path="url(#pc1e72527cf)" style="fill: none; stroke: #ff0000; stroke-width: 1.5; stroke-linecap: square"/>
    <g clip-path="url(#pc1e72527cf)">
     <use xlink:href="#m88a2184328" x="1114.688089" y="887.148335" style="fill: #ff0000; stroke: #ff0000; stroke-linejoin: bevel"/>
    </g>
   </g>
   <g id="line2d_144">
    <path d="M 749.855785 678.543364 
" clip-path="url(#pc1e72527cf)" style="fill: none; stroke: #ff0000; stroke-width: 1.5; stroke-linecap: square"/>
    <g clip-path="url(#pc1e72527cf)">
     <use xlink:href="#m88a2184328" x="749.855785" y="678.543364" style="fill: #ff0000; stroke: #ff0000; stroke-linejoin: bevel"/>
    </g>
   </g>
   <g id="line2d_145">
    <path d="M 798.062345 716.83653 
" clip-path="url(#pc1e72527cf)" style="fill: none; stroke: #ff0000; stroke-width: 1.5; stroke-linecap: square"/>
    <g clip-path="url(#pc1e72527cf)">
     <use xlink:href="#m88a2184328" x="798.062345" y="716.83653" style="fill: #ff0000; stroke: #ff0000; stroke-linejoin: bevel"/>
    </g>
   </g>
   <g id="line2d_146">
    <path d="M 841.91251 715.207972 
" clip-path="url(#pc1e72527cf)" style="fill: none; stroke: #ff0000; stroke-width: 1.5; stroke-linecap: square"/>
    <g clip-path="url(#pc1e72527cf)">
     <use xlink:href="#m88a2184328" x="841.91251" y="715.207972" style="fill: #ff0000; stroke: #ff0000; stroke-linejoin: bevel"/>
    </g>
   </g>
  </g>
 </g>
 <defs>
  <clipPath id="pc1e72527cf">
   <rect x="0" y="0" width="1440" height="1440"/>
  </clipPath>
 </defs>
</svg>
