<?xml version="1.0" encoding="utf-8" standalone="no"?>
<!DOCTYPE svg PUBLIC "-//W3C//DTD SVG 1.1//EN"
  "http://www.w3.org/Graphics/SVG/1.1/DTD/svg11.dtd">
<svg xmlns:xlink="http://www.w3.org/1999/xlink" width="1440pt" height="1440pt" viewBox="0 0 1440 1440" xmlns="http://www.w3.org/2000/svg" version="1.1">
 <metadata>
  <rdf:RDF xmlns:dc="http://purl.org/dc/elements/1.1/" xmlns:cc="http://creativecommons.org/ns#" xmlns:rdf="http://www.w3.org/1999/02/22-rdf-syntax-ns#">
   <cc:Work>
    <dc:type rdf:resource="http://purl.org/dc/dcmitype/StillImage"/>
    <dc:date>2026-02-27T11:11:10.967144</dc:date>
    <dc:format>image/svg+xml</dc:format>
    <dc:creator>
     <cc:Agent>
      <dc:title>Matplotlib v3.7.3, https://matplotlib.org/</dc:title>
     </cc:Agent>
    </dc:creator>
   </cc:Work>
  </rdf:RDF>
 </metadata>
 <defs>
  <style type="text/css">*{stroke-linejoin: round; stroke-linecap: butt}</style>
 </defs>
 <g id="figure_1">
  <g id="patch_1">
   <path d="M 0 1440 
L 1440 1440 
L 1440 0 
L 0 0 
z
" style="fill: #ffffff"/>
  </g>
  <g id="axes_1">
   <g id="line2d_1">
    <path d="M 418.106363 169.343756 
L 411.695628 173.25069 
L 379.767658 184.873819 
L 350.605102 192.296994 
L 324.207962 195.910909 
L 300.701936 195.910909 
L 280.212727 192.883035 
L 262.740334 187.022633 
L 248.536158 178.622725 
L 237.348798 168.171676 
" clip-path="url(#p4e2a9bcb55)" style="fill: none; stroke: #7a7a7a; stroke-width: 3; stroke-linecap: square"/>
   </g>
   <g id="line2d_2">
    <path d="M 408.17601 154.204386 
L 401.765275 158.11132 
L 389.57231 161.432214 
L 387.183998 162.506621 
L 379.516257 165.143802 
L 372.979822 166.218208 
L 366.569088 166.218208 
L 350.856504 165.143802 
L 343.188763 163.971721 
L 336.778029 162.408948 
L 326.596274 158.69736 
L 319.682737 155.181119 
L 312.392099 150.199778 
L 306.358466 144.827744 
L 296.805215 135.060408 
" clip-path="url(#p4e2a9bcb55)" style="fill: none; stroke: #7a7a7a; stroke-width: 3; stroke-linecap: square"/>
   </g>
   <g id="line2d_3">
    <path d="M 436.961463 199.329476 
L 405.661996 210.073545 
L 376.499441 216.813007 
L 349.473796 219.547861 
L 324.962166 218.864147 
L 303.090249 214.85954 
L 284.109448 208.022405 
L 268.145462 198.450416 
L 255.575395 186.63194 
L 237.348798 168.171676 
" clip-path="url(#p4e2a9bcb55)" style="fill: none; stroke: #7a7a7a; stroke-width: 3; stroke-linecap: square"/>
   </g>
   <g id="line2d_4">
    <path d="M 418.106363 169.343756 
L 394.348936 176.083217 
L 370.71721 177.352971 
L 348.593892 173.739057 
L 329.48739 165.632168 
L 314.906112 153.520672 
L 296.805215 135.060408 
" clip-path="url(#p4e2a9bcb55)" style="fill: none; stroke: #7a7a7a; stroke-width: 3; stroke-linecap: square"/>
   </g>
   <g id="line2d_5">
    <path d="M 182.794707 311.067795 
L -1 421.036891 
" clip-path="url(#p4e2a9bcb55)" style="fill: none; stroke: #7a7a7a; stroke-width: 3; stroke-linecap: square"/>
   </g>
   <g id="line2d_6">
    <path d="M 165.825117 298.956299 
L 83.365477 349.844117 
L -1 399.697234 
" clip-path="url(#p4e2a9bcb55)" style="fill: none; stroke: #7a7a7a; stroke-width: 3; stroke-linecap: square"/>
   </g>
   <g id="line2d_7">
    <path d="M 556.628502 84.856303 
L 418.106363 169.343756 
" clip-path="url(#p4e2a9bcb55)" style="fill: none; stroke: #7a7a7a; stroke-width: 3; stroke-linecap: square"/>
   </g>
   <g id="line2d_8">
    <path d="M 543.932734 73.1355 
L 408.17601 154.204386 
" clip-path="url(#p4e2a9bcb55)" style="fill: none; stroke: #7a7a7a; stroke-width: 3; stroke-linecap: square"/>
   </g>
   <g id="line2d_9">
    <path d="M 554.49159 488.149589 
L 667.873595 599.985581 
" clip-path="url(#p4e2a9bcb55)" style="fill: none; stroke: #7a7a7a; stroke-width: 3; stroke-linecap: square"/>
   </g>
   <g id="line2d_10">
    <path d="M 522.689321 508.367973 
L 528.094449 511.786541 
L 536.767796 519.600409 
L 566.558855 549.390783 
L 586.29386 570.292881 
L 606.154566 592.074039 
L 616.084919 602.818108 
L 618.22183 605.259942 
" clip-path="url(#p4e2a9bcb55)" style="fill: none; stroke: #7a7a7a; stroke-width: 3; stroke-linecap: square"/>
   </g>
   <g id="line2d_11">
    <path d="M 174.121361 617.371438 
L 174.498463 617.176092 
L 180.154993 613.757524 
L 217.990895 590.511266 
" clip-path="url(#p4e2a9bcb55)" style="fill: none; stroke: #7a7a7a; stroke-width: 3; stroke-linecap: square"/>
   </g>
   <g id="line2d_12">
    <path d="M 207.180637 617.371438 
L 207.68344 617.176092 
L 212.837167 614.050544 
L 213.33997 613.757524 
L 234.457683 600.864641 
" clip-path="url(#p4e2a9bcb55)" style="fill: none; stroke: #7a7a7a; stroke-width: 3; stroke-linecap: square"/>
   </g>
   <g id="line2d_13">
    <path d="M 554.49159 488.149589 
L 535.259388 469.200958 
L 523.820627 456.503422 
L 516.781389 441.461725 
L 514.015974 424.857254 
L 515.398682 407.471397 
L 520.803811 390.280886 
L 530.10566 373.969436 
L 543.17853 359.416106 
L 559.016814 346.034856 
" clip-path="url(#p4e2a9bcb55)" style="fill: none; stroke: #7a7a7a; stroke-width: 3; stroke-linecap: square"/>
   </g>
   <g id="line2d_14">
    <path d="M 589.687778 466.563777 
L 570.581276 447.517473 
L 558.13691 431.401369 
L 556.502801 411.866698 
L 563.416338 392.625047 
L 576.614908 377.485677 
" clip-path="url(#p4e2a9bcb55)" style="fill: none; stroke: #7a7a7a; stroke-width: 3; stroke-linecap: square"/>
   </g>
   <g id="line2d_15">
    <path d="M 237.348798 168.171676 
L 247.656253 180.087825 
L 254.318389 193.762095 
L 256.958103 208.803792 
L 255.575395 225.212915 
L 249.416063 242.794119 
L 238.354404 261.352057 
L 222.013316 280.789055 
L 200.015699 300.812093 
L 182.794707 311.067795 
" clip-path="url(#p4e2a9bcb55)" style="fill: none; stroke: #7a7a7a; stroke-width: 3; stroke-linecap: square"/>
   </g>
   <g id="line2d_16">
    <path d="M 182.669006 201.18527 
L 196.621781 218.864147 
L 197.250284 220.622268 
L 198.25589 221.794348 
L 199.512896 224.333855 
L 199.889998 226.971036 
L 199.764298 227.557076 
L 203.409617 237.812778 
L 203.158216 256.663736 
L 196.244679 274.049593 
L 183.046108 288.700596 
L 165.825117 298.956299 
" clip-path="url(#p4e2a9bcb55)" style="fill: none; stroke: #7a7a7a; stroke-width: 3; stroke-linecap: square"/>
   </g>
   <g id="line2d_17">
    <path d="M 336.652328 478.5776 
L 341.428953 475.647399 
L 362.672367 466.173084 
L 385.047086 459.433622 
L 408.17601 455.135995 
L 431.556334 453.280201 
L 454.936659 453.768568 
L 477.814181 456.503422 
L 499.560397 461.484763 
L 519.923906 468.419571 
L 538.401904 477.307846 
L 554.49159 488.149589 
" clip-path="url(#p4e2a9bcb55)" style="fill: none; stroke: #7a7a7a; stroke-width: 3; stroke-linecap: square"/>
   </g>
   <g id="line2d_18">
    <path d="M 362.043863 504.754059 
L 366.820489 501.823859 
L 391.960623 493.521623 
L 417.60356 488.540282 
L 442.743694 486.782162 
L 466.752522 487.954242 
L 488.624439 492.056523 
L 507.60524 498.893658 
L 522.689321 508.367973 
" clip-path="url(#p4e2a9bcb55)" style="fill: none; stroke: #7a7a7a; stroke-width: 3; stroke-linecap: square"/>
   </g>
   <g id="line2d_19">
    <path d="M 845.9361 -1 
L 613.445205 137.404569 
" clip-path="url(#p4e2a9bcb55)" style="fill: none; stroke: #7a7a7a; stroke-width: 3; stroke-linecap: square"/>
   </g>
   <g id="line2d_20">
    <path d="M 771.37213 -1 
L 584.534051 110.642069 
" clip-path="url(#p4e2a9bcb55)" style="fill: none; stroke: #7a7a7a; stroke-width: 3; stroke-linecap: square"/>
   </g>
   <g id="line2d_21">
    <path d="M 184.303115 571.074268 
L 336.652328 478.5776 
" clip-path="url(#p4e2a9bcb55)" style="fill: none; stroke: #7a7a7a; stroke-width: 3; stroke-linecap: square"/>
   </g>
   <g id="line2d_22">
    <path d="M 217.990895 590.511266 
L 362.043863 504.754059 
" clip-path="url(#p4e2a9bcb55)" style="fill: none; stroke: #7a7a7a; stroke-width: 3; stroke-linecap: square"/>
   </g>
   <g id="line2d_23">
    <path d="M 576.614908 377.485677 
L 1207.880331 -1 
" clip-path="url(#p4e2a9bcb55)" style="fill: none; stroke: #7a7a7a; stroke-width: 3; stroke-linecap: square"/>
   </g>
   <g id="line2d_24">
    <path d="M 591.070485 387.057666 
L 610.931191 372.992702 
L 625.261068 363.518387 
L 658.571746 343.495349 
L 694.270736 323.765331 
L 714.257143 313.021262 
L 733.866447 301.202786 
L 736.003359 300.128379 
L 915.378216 192.492341 
L 922.668855 187.413327 
L 945.294975 173.25069 
L 991.804224 145.218437 
L 1015.310249 132.423227 
L 1020.086874 129.688373 
L 1127.686649 65.126285 
L 1141.639423 55.554296 
L 1150.061368 50.475282 
L 1178.59542 34.554525 
L 1237.992295 -1 
" clip-path="url(#p4e2a9bcb55)" style="fill: none; stroke: #7a7a7a; stroke-width: 3; stroke-linecap: square"/>
   </g>
   <g id="line2d_25">
    <path d="M 362.043863 504.754059 
L 576.614908 377.485677 
" clip-path="url(#p4e2a9bcb55)" style="fill: none; stroke: #7a7a7a; stroke-width: 3; stroke-linecap: square"/>
   </g>
   <g id="line2d_26">
    <path d="M 372.099917 516.865555 
L 392.337725 505.92614 
L 407.044704 497.037864 
L 591.070485 387.057666 
" clip-path="url(#p4e2a9bcb55)" style="fill: none; stroke: #7a7a7a; stroke-width: 3; stroke-linecap: square"/>
   </g>
   <g id="line2d_27">
    <path d="M 771.37213 -1 
L 584.534051 110.642069 
" clip-path="url(#p4e2a9bcb55)" style="fill: none; stroke: #7a7a7a; stroke-width: 3; stroke-linecap: square"/>
   </g>
   <g id="line2d_28">
    <path d="M 701.451121 -1 
L 556.628502 84.856303 
" clip-path="url(#p4e2a9bcb55)" style="fill: none; stroke: #7a7a7a; stroke-width: 3; stroke-linecap: square"/>
   </g>
   <g id="line2d_29">
    <path d="M 538.779006 309.309675 
L 587.676567 280.105341 
L 589.310676 279.323954 
L 614.073708 265.747358 
L 625.63817 258.51953 
L 641.727856 249.924274 
L 649.898399 245.821993 
L 662.091364 237.910452 
L 671.770316 232.05005 
L 685.974492 222.868755 
L 699.801566 214.175826 
L 716.016952 204.506164 
L 732.735141 194.738828 
L 764.788812 175.00881 
L 801.619109 152.739285 
L 836.438195 131.934861 
L 876.78811 108.981622 
L 895.391809 97.163146 
L 923.045957 80.461002 
L 923.297358 80.265655 
L 978.731354 48.912508 
L 1026.246207 21.270949 
L 1063.302753 -1 
" clip-path="url(#p4e2a9bcb55)" style="fill: none; stroke: #7a7a7a; stroke-width: 3; stroke-linecap: square"/>
   </g>
   <g id="line2d_30">
    <path d="M 559.016814 346.034856 
L 1138.601983 -1 
" clip-path="url(#p4e2a9bcb55)" style="fill: none; stroke: #7a7a7a; stroke-width: 3; stroke-linecap: square"/>
   </g>
   <g id="line2d_31">
    <path d="M 215.602582 332.262913 
L -1 462.21576 
" clip-path="url(#p4e2a9bcb55)" style="fill: none; stroke: #7a7a7a; stroke-width: 3; stroke-linecap: square"/>
   </g>
   <g id="line2d_32">
    <path d="M 182.794707 311.067795 
L -1 421.036891 
" clip-path="url(#p4e2a9bcb55)" style="fill: none; stroke: #7a7a7a; stroke-width: 3; stroke-linecap: square"/>
   </g>
   <g id="line2d_33">
    <path d="M 554.49159 488.149589 
L 237.348798 168.171676 
" clip-path="url(#p4e2a9bcb55)" style="fill: none; stroke: #7a7a7a; stroke-width: 3; stroke-linecap: square"/>
   </g>
   <g id="line2d_34">
    <path d="M 589.687778 466.563777 
L 296.805215 135.060408 
" clip-path="url(#p4e2a9bcb55)" style="fill: none; stroke: #7a7a7a; stroke-width: 3; stroke-linecap: square"/>
   </g>
   <g id="line2d_35">
    <path d="M 244.262335 358.537046 
L 170.853143 401.122629 
L 167.082123 403.173769 
L 147.975621 414.406205 
L -1 505.737413 
" clip-path="url(#p4e2a9bcb55)" style="fill: none; stroke: #7a7a7a; stroke-width: 3; stroke-linecap: square"/>
   </g>
   <g id="line2d_36">
    <path d="M 215.602582 332.262913 
L -1 462.21576 
" clip-path="url(#p4e2a9bcb55)" style="fill: none; stroke: #7a7a7a; stroke-width: 3; stroke-linecap: square"/>
   </g>
   <g id="line2d_37">
    <path d="M 554.49159 488.149589 
L 444.880605 379.732164 
L 427.533913 368.695075 
L 406.164799 360.002146 
L 382.155971 353.653378 
L 356.387333 349.35575 
L 330.241594 347.30461 
L 304.850058 347.206937 
L 281.218332 349.06273 
L 260.729123 352.969665 
L 244.262335 358.537046 
" clip-path="url(#p4e2a9bcb55)" style="fill: none; stroke: #7a7a7a; stroke-width: 3; stroke-linecap: square"/>
   </g>
   <g id="line2d_38">
    <path d="M 589.687778 466.563777 
L 480.202494 358.146352 
L 464.615611 345.351143 
L 445.886211 334.80242 
L 424.517097 326.304838 
L 401.262473 319.858397 
L 376.625141 315.365423 
L 351.233606 312.728242 
L 325.590669 311.849182 
L 300.324834 312.728242 
L 276.190305 315.365423 
L 253.564185 319.467704 
L 233.200676 325.132758 
L 215.602582 332.262913 
" clip-path="url(#p4e2a9bcb55)" style="fill: none; stroke: #7a7a7a; stroke-width: 3; stroke-linecap: square"/>
   </g>
   <g id="line2d_39">
    <path d="M 104.985992 617.371438 
L 105.363094 617.176092 
L 111.019624 613.757524 
L 184.303115 571.074268 
" clip-path="url(#p4e2a9bcb55)" style="fill: none; stroke: #7a7a7a; stroke-width: 3; stroke-linecap: square"/>
   </g>
   <g id="line2d_40">
    <path d="M 174.121361 617.371438 
L 174.498463 617.176092 
L 180.154993 613.757524 
L 217.990895 590.511266 
" clip-path="url(#p4e2a9bcb55)" style="fill: none; stroke: #7a7a7a; stroke-width: 3; stroke-linecap: square"/>
   </g>
   <g id="line2d_41">
    <path d="M 418.106363 169.343756 
L 182.794707 311.067795 
" clip-path="url(#p4e2a9bcb55)" style="fill: none; stroke: #7a7a7a; stroke-width: 3; stroke-linecap: square"/>
   </g>
   <g id="line2d_42">
    <path d="M 408.17601 154.204386 
L 165.825117 298.956299 
" clip-path="url(#p4e2a9bcb55)" style="fill: none; stroke: #7a7a7a; stroke-width: 3; stroke-linecap: square"/>
   </g>
   <g id="line2d_43">
    <path d="M 309.375282 449.861633 
L 325.967771 439.117564 
L 338.537838 426.615375 
L 347.336885 412.550412 
L 352.616313 397.215695 
L 354.753225 380.708898 
L 353.999021 363.225367 
L 350.605102 344.960449 
L 344.948572 326.304838 
L 337.155131 307.258534 
L 327.72758 288.016883 
L 316.791622 268.970579 
L 304.724358 250.217294 
L 291.902889 231.952377 
L 278.327217 214.468846 
L 264.625844 197.864376 
L 250.79877 182.334312 
L 237.348798 168.171676 
" clip-path="url(#p4e2a9bcb55)" style="fill: none; stroke: #7a7a7a; stroke-width: 3; stroke-linecap: square"/>
   </g>
   <g id="line2d_44">
    <path d="M 336.652328 478.5776 
L 354.250422 468.810264 
L 368.9574 457.187135 
L 380.773263 443.903559 
L 390.075113 429.154882 
L 396.737249 413.038778 
L 401.136772 395.848268 
L 403.399384 377.681024 
L 403.525085 358.732393 
L 401.765275 339.100048 
L 398.119956 319.174683 
L 392.966228 298.858625 
L 386.304093 278.640241 
L 378.25925 258.421856 
L 369.083101 238.496492 
L 358.901347 219.059494 
L 347.713987 200.208536 
L 335.772423 182.236639 
L 323.202356 165.339148 
L 310.129486 149.516065 
L 296.805215 135.060408 
" clip-path="url(#p4e2a9bcb55)" style="fill: none; stroke: #7a7a7a; stroke-width: 3; stroke-linecap: square"/>
   </g>
   <g id="line2d_45">
    <path d="M 336.652328 478.5776 
L 559.016814 346.034856 
" clip-path="url(#p4e2a9bcb55)" style="fill: none; stroke: #7a7a7a; stroke-width: 3; stroke-linecap: square"/>
   </g>
   <g id="line2d_46">
    <path d="M 362.043863 504.754059 
L 576.614908 377.485677 
" clip-path="url(#p4e2a9bcb55)" style="fill: none; stroke: #7a7a7a; stroke-width: 3; stroke-linecap: square"/>
   </g>
   <g id="line2d_47">
    <path d="M 554.49159 488.149589 
L 512.758968 454.354608 
L 477.56278 427.494435 
L 444.629204 403.759809 
L 413.706839 383.150731 
L 385.047086 365.276507 
L 358.398544 350.137137 
L 333.761213 337.439601 
L 311.135092 327.086225 
L 290.520182 318.881663 
L 271.665081 312.630569 
L 254.56979 308.137594 
L 239.360009 305.207394 
L 225.910037 303.742293 
L 214.094174 303.449273 
L 203.91242 304.23066 
L 195.364774 305.891107 
L 188.325537 308.235268 
L 182.794707 311.067795 
" clip-path="url(#p4e2a9bcb55)" style="fill: none; stroke: #7a7a7a; stroke-width: 3; stroke-linecap: square"/>
   </g>
   <g id="line2d_48">
    <path d="M 589.687778 466.563777 
L 585.539656 462.949863 
L 553.360284 434.136223 
L 521.935117 408.350457 
L 491.389854 385.592565 
L 461.598795 365.764874 
L 432.813341 348.47669 
L 405.159193 333.728013 
L 378.510651 321.323497 
L 352.993415 311.165468 
L 328.733186 302.960906 
L 305.855664 296.612138 
L 284.360849 291.923817 
L 264.248742 288.79827 
L 245.770743 287.040149 
L 228.926853 286.454109 
L 213.717072 286.942476 
L 200.392801 288.21223 
L 188.702639 290.26337 
L 179.149388 292.802877 
L 171.355946 295.830751 
L 165.825117 298.956299 
" clip-path="url(#p4e2a9bcb55)" style="fill: none; stroke: #7a7a7a; stroke-width: 3; stroke-linecap: square"/>
   </g>
   <g id="line2d_49">
    <path d="M 701.451121 -1 
L 556.628502 84.856303 
" clip-path="url(#p4e2a9bcb55)" style="fill: none; stroke: #7a7a7a; stroke-width: 3; stroke-linecap: square"/>
   </g>
   <g id="line2d_50">
    <path d="M 669.410552 -1 
L 655.554929 7.205985 
L 631.420401 20.880255 
L 543.932734 73.1355 
" clip-path="url(#p4e2a9bcb55)" style="fill: none; stroke: #7a7a7a; stroke-width: 3; stroke-linecap: square"/>
   </g>
   <g id="line2d_51">
    <path d="M 237.348798 168.171676 
L 247.907654 178.818071 
L 257.209504 194.738828 
L 264.248742 210.268892 
L 268.522564 225.798955 
L 269.779571 241.524366 
L 267.516959 257.640469 
L 261.231926 274.53796 
L 250.79877 292.412184 
L 235.714689 311.556162 
L 215.602582 332.262913 
" clip-path="url(#p4e2a9bcb55)" style="fill: none; stroke: #7a7a7a; stroke-width: 3; stroke-linecap: square"/>
   </g>
   <g id="line2d_52">
    <path d="M 182.669006 201.18527 
L 193.227863 211.831666 
L 204.415222 226.287322 
L 210.700256 242.012732 
L 211.831562 258.714876 
L 207.809141 276.00306 
L 198.130189 293.584264 
L 182.794707 311.067795 
" clip-path="url(#p4e2a9bcb55)" style="fill: none; stroke: #7a7a7a; stroke-width: 3; stroke-linecap: square"/>
   </g>
   <g id="line2d_53">
    <path d="M 456.94787 230.58495 
L 244.262335 358.537046 
" clip-path="url(#p4e2a9bcb55)" style="fill: none; stroke: #7a7a7a; stroke-width: 3; stroke-linecap: square"/>
   </g>
   <g id="line2d_54">
    <path d="M 436.961463 199.329476 
L 215.602582 332.262913 
" clip-path="url(#p4e2a9bcb55)" style="fill: none; stroke: #7a7a7a; stroke-width: 3; stroke-linecap: square"/>
   </g>
   <g id="line2d_55">
    <path d="M 217.990895 590.511266 
L 362.043863 504.754059 
" clip-path="url(#p4e2a9bcb55)" style="fill: none; stroke: #7a7a7a; stroke-width: 3; stroke-linecap: square"/>
   </g>
   <g id="line2d_56">
    <path d="M 234.457683 600.864641 
L 257.712307 586.702005 
L 285.115053 569.902188 
L 319.305635 548.902416 
L 351.736408 528.391011 
L 372.099917 516.865555 
" clip-path="url(#p4e2a9bcb55)" style="fill: none; stroke: #7a7a7a; stroke-width: 3; stroke-linecap: square"/>
   </g>
   <g id="line2d_57">
    <path d="M 456.94787 230.58495 
L 449.53153 237.324411 
L 443.497898 246.01734 
L 438.972674 256.663736 
L 436.081558 269.068252 
L 434.950252 283.133215 
L 435.830157 298.760952 
L 438.721273 315.853789 
L 443.749299 334.314054 
L 451.165639 353.946398 
L 461.095992 374.750823 
L 473.540358 396.629655 
L 488.750139 419.48522 
L 506.725335 443.122172 
L 527.843048 467.442837 
L 554.49159 488.149589 
" clip-path="url(#p4e2a9bcb55)" style="fill: none; stroke: #7a7a7a; stroke-width: 3; stroke-linecap: square"/>
   </g>
   <g id="line2d_58">
    <path d="M 436.961463 199.329476 
L 421.123179 210.268892 
L 408.930214 223.161775 
L 400.005466 237.812778 
L 394.348936 253.928882 
L 391.45782 271.314739 
L 391.206419 289.775003 
L 393.469031 308.918981 
L 397.868555 328.551326 
L 404.279289 348.379017 
L 412.324132 368.304381 
L 421.751682 388.034399 
L 432.56194 407.27605 
L 444.252102 425.736315 
L 456.696468 443.317519 
L 469.643638 459.628969 
L 482.842208 474.475319 
L 496.040778 487.661222 
L 522.689321 508.367973 
" clip-path="url(#p4e2a9bcb55)" style="fill: none; stroke: #7a7a7a; stroke-width: 3; stroke-linecap: square"/>
   </g>
   <g id="line2d_59">
    <path d="M 27.680079 617.371438 
L 28.057181 617.176092 
L 33.33661 613.952871 
L 33.713712 613.757524 
L 142.19339 549.195436 
" clip-path="url(#p4e2a9bcb55)" style="fill: none; stroke: #7a7a7a; stroke-width: 3; stroke-linecap: square"/>
   </g>
   <g id="line2d_60">
    <path d="M 104.985992 617.371438 
L 105.363094 617.176092 
L 111.019624 613.757524 
L 184.303115 571.074268 
" clip-path="url(#p4e2a9bcb55)" style="fill: none; stroke: #7a7a7a; stroke-width: 3; stroke-linecap: square"/>
   </g>
   <g id="line2d_61">
    <path d="M 613.445205 137.404569 
L 456.94787 230.58495 
" clip-path="url(#p4e2a9bcb55)" style="fill: none; stroke: #7a7a7a; stroke-width: 3; stroke-linecap: square"/>
   </g>
   <g id="line2d_62">
    <path d="M 584.534051 110.642069 
L 436.961463 199.329476 
" clip-path="url(#p4e2a9bcb55)" style="fill: none; stroke: #7a7a7a; stroke-width: 3; stroke-linecap: square"/>
   </g>
   <g id="line2d_63">
    <path d="M 362.043863 504.754059 
L 396.98865 484.144981 
L 422.505886 475.940419 
L 446.640415 471.838138 
L 469.769338 471.154425 
L 491.892656 473.205565 
L 513.387471 477.210173 
L 534.128082 482.386861 
L 554.49159 488.149589 
" clip-path="url(#p4e2a9bcb55)" style="fill: none; stroke: #7a7a7a; stroke-width: 3; stroke-linecap: square"/>
   </g>
   <g id="line2d_64">
    <path d="M 372.099917 516.865555 
L 407.044704 496.158804 
L 425.899804 488.149589 
L 447.268918 484.535675 
L 469.392236 484.926368 
L 490.509949 489.223996 
L 508.862247 497.135538 
L 522.689321 508.367973 
" clip-path="url(#p4e2a9bcb55)" style="fill: none; stroke: #7a7a7a; stroke-width: 3; stroke-linecap: square"/>
   </g>
   <g id="line2d_65">
    <path d="M 237.348798 168.171676 
L 357.770041 289.775003 
L 373.608325 300.226052 
L 391.45782 308.723634 
L 411.318526 314.974729 
L 433.316144 319.07701 
L 457.07357 320.639784 
L 482.590807 319.66305 
L 509.867852 315.951463 
L 538.779006 309.309675 
" clip-path="url(#p4e2a9bcb55)" style="fill: none; stroke: #7a7a7a; stroke-width: 3; stroke-linecap: square"/>
   </g>
   <g id="line2d_66">
    <path d="M 182.669006 201.18527 
L 303.21595 322.788598 
L 323.705159 335.09544 
L 345.199974 345.644163 
L 367.448992 354.337092 
L 390.452215 361.076553 
L 413.83254 365.862547 
L 437.841368 368.499728 
L 462.101597 368.988095 
L 486.487527 367.132301 
L 510.999158 363.03002 
L 535.510789 356.485905 
L 559.016814 346.034856 
" clip-path="url(#p4e2a9bcb55)" style="fill: none; stroke: #7a7a7a; stroke-width: 3; stroke-linecap: square"/>
   </g>
   <g id="line2d_67">
    <path d="M 237.348798 168.171676 
L 265.88285 196.399275 
L 301.45614 230.29193 
L 334.515417 260.082303 
L 365.06068 285.965743 
L 393.091929 308.137594 
L 418.734866 326.890879 
L 442.240891 342.518615 
L 463.358604 355.216152 
L 482.465106 365.276507 
L 499.560397 372.992702 
L 514.644478 378.560084 
L 527.843048 382.271671 
L 539.281809 384.420485 
L 548.960761 385.201872 
L 556.879903 384.908852 
L 563.416338 383.834445 
L 568.318664 382.173998 
L 576.614908 377.485677 
" clip-path="url(#p4e2a9bcb55)" style="fill: none; stroke: #7a7a7a; stroke-width: 3; stroke-linecap: square"/>
   </g>
   <g id="line2d_68">
    <path d="M 182.669006 201.18527 
L 211.203059 229.41287 
L 254.946892 256.370716 
L 294.794005 280.496035 
L 330.995798 302.081846 
L 363.803673 321.030477 
L 393.469031 337.537274 
L 420.117573 351.797584 
L 444.000701 363.90908 
L 465.244114 373.969436 
L 484.224915 382.173998 
L 501.194506 388.522766 
L 516.152886 393.211087 
L 529.477157 396.336634 
L 541.29302 397.997082 
L 551.977577 398.485448 
L 561.530828 397.704061 
L 570.329875 395.945941 
L 578.500418 393.30876 
L 586.29386 389.79252 
L 591.070485 387.057666 
" clip-path="url(#p4e2a9bcb55)" style="fill: none; stroke: #7a7a7a; stroke-width: 3; stroke-linecap: square"/>
   </g>
   <g id="line2d_69">
    <path d="M 237.348798 168.171676 
L 115.92195 44.321861 
" clip-path="url(#p4e2a9bcb55)" style="fill: none; stroke: #7a7a7a; stroke-width: 3; stroke-linecap: square"/>
   </g>
   <g id="line2d_70">
    <path d="M 296.805215 135.060408 
L 260.22632 98.042206 
L 180.154993 17.950054 
" clip-path="url(#p4e2a9bcb55)" style="fill: none; stroke: #7a7a7a; stroke-width: 3; stroke-linecap: square"/>
   </g>
   <g id="line2d_71">
    <path d="M 436.961463 199.329476 
L 215.602582 332.262913 
" clip-path="url(#p4e2a9bcb55)" style="fill: none; stroke: #7a7a7a; stroke-width: 3; stroke-linecap: square"/>
   </g>
   <g id="line2d_72">
    <path d="M 418.106363 169.343756 
L 182.794707 311.067795 
" clip-path="url(#p4e2a9bcb55)" style="fill: none; stroke: #7a7a7a; stroke-width: 3; stroke-linecap: square"/>
   </g>
   <g id="line2d_73">
    <path d="M 685.220288 617.371438 
L 684.968886 617.176092 
L 681.574968 613.659851 
L 667.873595 599.985581 
" clip-path="url(#p4e2a9bcb55)" style="fill: none; stroke: #7a7a7a; stroke-width: 3; stroke-linecap: square"/>
   </g>
   <g id="line2d_74">
    <path d="M 740.277182 617.371438 
L 740.02578 617.078418 
L 736.506161 613.659851 
L 728.83842 606.041329 
L 727.330012 604.478555 
L 712.497333 588.948492 
" clip-path="url(#p4e2a9bcb55)" style="fill: none; stroke: #7a7a7a; stroke-width: 3; stroke-linecap: square"/>
   </g>
   <g id="line2d_75">
    <path d="M 237.348798 168.171676 
L 554.49159 488.149589 
" clip-path="url(#p4e2a9bcb55)" style="fill: none; stroke: #7a7a7a; stroke-width: 3; stroke-linecap: square"/>
   </g>
   <g id="line2d_76">
    <path d="M 182.669006 201.18527 
L 522.689321 508.367973 
" clip-path="url(#p4e2a9bcb55)" style="fill: none; stroke: #7a7a7a; stroke-width: 3; stroke-linecap: square"/>
   </g>
   <g id="line2d_77">
    <path d="M 309.375282 449.861633 
L 538.779006 309.309675 
" clip-path="url(#p4e2a9bcb55)" style="fill: none; stroke: #7a7a7a; stroke-width: 3; stroke-linecap: square"/>
   </g>
   <g id="line2d_78">
    <path d="M 336.652328 478.5776 
L 559.016814 346.034856 
" clip-path="url(#p4e2a9bcb55)" style="fill: none; stroke: #7a7a7a; stroke-width: 3; stroke-linecap: square"/>
   </g>
   <g id="line2d_79">
    <path d="M 584.534051 110.642069 
L 436.961463 199.329476 
" clip-path="url(#p4e2a9bcb55)" style="fill: none; stroke: #7a7a7a; stroke-width: 3; stroke-linecap: square"/>
   </g>
   <g id="line2d_80">
    <path d="M 556.628502 84.856303 
L 418.106363 169.343756 
" clip-path="url(#p4e2a9bcb55)" style="fill: none; stroke: #7a7a7a; stroke-width: 3; stroke-linecap: square"/>
   </g>
   <g id="line2d_81">
    <path d="M 559.016814 346.034856 
L 1138.601983 -1 
" clip-path="url(#p4e2a9bcb55)" style="fill: none; stroke: #7a7a7a; stroke-width: 3; stroke-linecap: square"/>
   </g>
   <g id="line2d_82">
    <path d="M 576.614908 377.485677 
L 1207.880331 -1 
" clip-path="url(#p4e2a9bcb55)" style="fill: none; stroke: #7a7a7a; stroke-width: 3; stroke-linecap: square"/>
   </g>
   <g id="line2d_83">
    <path d="M 554.49159 488.149589 
L 543.807033 475.256706 
L 537.6477 461.875456 
L 535.76219 447.126779 
L 538.276204 431.206022 
L 545.818244 414.210859 
L 558.388311 396.238961 
L 576.614908 377.485677 
" clip-path="url(#p4e2a9bcb55)" style="fill: none; stroke: #7a7a7a; stroke-width: 3; stroke-linecap: square"/>
   </g>
   <g id="line2d_84">
    <path d="M 589.687778 466.563777 
L 588.933574 465.684717 
L 577.746214 450.93604 
L 572.592487 435.50365 
L 570.581276 431.694389 
L 569.44997 428.080475 
L 569.701371 421.145667 
L 571.838283 407.373724 
L 573.723793 402.783076 
L 577.243412 397.801735 
L 583.654146 392.332027 
L 591.070485 387.057666 
" clip-path="url(#p4e2a9bcb55)" style="fill: none; stroke: #7a7a7a; stroke-width: 3; stroke-linecap: square"/>
   </g>
   <g id="line2d_85">
    <path d="M 142.19339 549.195436 
L 192.347958 519.893429 
L 228.424051 497.916924 
L 268.899666 472.717199 
L 309.375282 449.861633 
" clip-path="url(#p4e2a9bcb55)" style="fill: none; stroke: #7a7a7a; stroke-width: 3; stroke-linecap: square"/>
   </g>
   <g id="line2d_86">
    <path d="M 184.303115 571.074268 
L 336.652328 478.5776 
" clip-path="url(#p4e2a9bcb55)" style="fill: none; stroke: #7a7a7a; stroke-width: 3; stroke-linecap: square"/>
   </g>
   <g id="line2d_87">
    <path d="M 1441 1383.780914 
L 685.220288 617.371438 
" clip-path="url(#p4e2a9bcb55)" style="fill: none; stroke: #7a7a7a; stroke-width: 3; stroke-linecap: square"/>
   </g>
   <g id="line2d_88">
    <path d="M 1441 1334.602654 
L 1132.463274 1019.590317 
L 1121.024513 1009.041595 
L 969.052402 857.354873 
L 864.469444 749.230469 
L 841.089119 720.905195 
L 766.674322 643.450224 
L 740.277182 617.371438 
" clip-path="url(#p4e2a9bcb55)" style="fill: none; stroke: #7a7a7a; stroke-width: 3; stroke-linecap: square"/>
   </g>
   <g id="line2d_89">
    <path d="M 685.220288 617.371438 
L 1441 1383.780914 
" clip-path="url(#p4e2a9bcb55)" style="fill: none; stroke: #7a7a7a; stroke-width: 3; stroke-linecap: square"/>
   </g>
   <g id="line2d_90">
    <path d="M 629.786292 617.371438 
L 798.727993 784.392877 
L 799.482197 784.78357 
L 815.194781 800.802 
L 881.816137 867.122209 
L 892.626394 875.717464 
L 910.60159 892.712628 
L 919.526338 902.186944 
L 930.713698 913.224033 
L 946.929084 931.000584 
L 957.990743 941.353959 
L 965.784185 949.558521 
L 1015.43595 998.004506 
L 1059.179783 1042.836576 
L 1087.085332 1072.919969 
L 1113.231071 1098.998755 
L 1125.046934 1110.133518 
L 1136.862797 1122.635707 
L 1153.958089 1139.142505 
L 1162.882836 1148.61682 
L 1288.457806 1273.931735 
L 1314.100743 1299.717501 
L 1314.854947 1300.401215 
L 1318.123165 1303.819782 
L 1441 1427.862127 
" clip-path="url(#p4e2a9bcb55)" style="fill: none; stroke: #7a7a7a; stroke-width: 3; stroke-linecap: square"/>
   </g>
   <g id="line2d_91">
    <path d="M 115.92195 44.321861 
L 237.348798 168.171676 
" clip-path="url(#p4e2a9bcb55)" style="fill: none; stroke: #7a7a7a; stroke-width: 3; stroke-linecap: square"/>
   </g>
   <g id="line2d_92">
    <path d="M 50.683302 69.228566 
L 182.669006 201.18527 
" clip-path="url(#p4e2a9bcb55)" style="fill: none; stroke: #7a7a7a; stroke-width: 3; stroke-linecap: square"/>
   </g>
   <g id="line2d_93">
    <path d="M 667.873595 599.985581 
L 554.49159 488.149589 
" clip-path="url(#p4e2a9bcb55)" style="fill: none; stroke: #7a7a7a; stroke-width: 3; stroke-linecap: square"/>
   </g>
   <g id="line2d_94">
    <path d="M 712.497333 588.948492 
L 589.687778 466.563777 
" clip-path="url(#p4e2a9bcb55)" style="fill: none; stroke: #7a7a7a; stroke-width: 3; stroke-linecap: square"/>
   </g>
   <g id="line2d_95">
    <path d="M 667.873595 599.985581 
L 681.574968 613.659851 
L 684.968886 617.176092 
L 685.220288 617.371438 
" clip-path="url(#p4e2a9bcb55)" style="fill: none; stroke: #7a7a7a; stroke-width: 3; stroke-linecap: square"/>
   </g>
   <g id="line2d_96">
    <path d="M 618.22183 605.259942 
L 626.140973 613.659851 
L 629.534891 617.176092 
L 629.786292 617.371438 
" clip-path="url(#p4e2a9bcb55)" style="fill: none; stroke: #7a7a7a; stroke-width: 3; stroke-linecap: square"/>
   </g>
   <g id="line2d_97">
    <path d="M 1246.435237 1145.020981 
L 1251.448994 1146.979933 
" clip-path="url(#p4e2a9bcb55)" style="fill: none; stroke-dasharray: 32,8,5,8; stroke-dashoffset: 0; stroke: #1e90ff; stroke-width: 5"/>
   </g>
   <g id="line2d_98">
    <path d="M 251.401341 150.411245 
L 274.203768 48.836678 
" clip-path="url(#p4e2a9bcb55)" style="fill: none; stroke-dasharray: 32,8,5,8; stroke-dashoffset: 0; stroke: #1e90ff; stroke-width: 5"/>
   </g>
   <g id="line2d_99">
    <path d="M 1246.435237 1145.020981 
" clip-path="url(#p4e2a9bcb55)" style="fill: none; stroke: #0000ff; stroke-width: 1.5; stroke-linecap: square"/>
    <defs>
     <path id="m602def04a9" d="M 0 10 
C 2.652031 10 5.195799 8.946337 7.071068 7.071068 
C 8.946337 5.195799 10 2.652031 10 0 
C 10 -2.652031 8.946337 -5.195799 7.071068 -7.071068 
C 5.195799 -8.946337 2.652031 -10 0 -10 
C -2.652031 -10 -5.195799 -8.946337 -7.071068 -7.071068 
C -8.946337 -5.195799 -10 -2.652031 -10 0 
C -10 2.652031 -8.946337 5.195799 -7.071068 7.071068 
C -5.195799 8.946337 -2.652031 10 0 10 
z
" style="stroke: #0000ff"/>
    </defs>
    <g clip-path="url(#p4e2a9bcb55)">
     <use xlink:href="#m602def04a9" x="1246.435237" y="1145.020981" style="fill: #0000ff; stroke: #0000ff"/>
    </g>
   </g>
   <g id="line2d_100">
    <path d="M 251.401341 150.411245 
" clip-path="url(#p4e2a9bcb55)" style="fill: none; stroke: #0000ff; stroke-width: 1.5; stroke-linecap: square"/>
    <g clip-path="url(#p4e2a9bcb55)">
     <use xlink:href="#m602def04a9" x="251.401341" y="150.411245" style="fill: #0000ff; stroke: #0000ff"/>
    </g>
   </g>
   <g id="line2d_101">
    <path d="M 1251.448994 1146.979933 
" clip-path="url(#p4e2a9bcb55)" style="fill: none; stroke: #ff0000; stroke-width: 1.5; stroke-linecap: square"/>
    <defs>
     <path id="m848daae521" d="M 0 -10 
L -2.24514 -3.09017 
L -9.510565 -3.09017 
L -3.632713 1.18034 
L -5.877853 8.09017 
L -0 3.81966 
L 5.877853 8.09017 
L 3.632713 1.18034 
L 9.510565 -3.09017 
L 2.24514 -3.09017 
z
" style="stroke: #ff0000; stroke-linejoin: bevel"/>
    </defs>
    <g clip-path="url(#p4e2a9bcb55)">
     <use xlink:href="#m848daae521" x="1251.448994" y="1146.979933" style="fill: #ff0000; stroke: #ff0000; stroke-linejoin: bevel"/>
    </g>
   </g>
   <g id="line2d_102">
    <path d="M 274.203768 48.836678 
" clip-path="url(#p4e2a9bcb55)" style="fill: none; stroke: #ff0000; stroke-width: 1.5; stroke-linecap: square"/>
    <g clip-path="url(#p4e2a9bcb55)">
     <use xlink:href="#m848daae521" x="274.203768" y="48.836678" style="fill: #ff0000; stroke: #ff0000; stroke-linejoin: bevel"/>
    </g>
   </g>
  </g>
 </g>
 <defs>
  <clipPath id="p4e2a9bcb55">
   <rect x="0" y="0" width="1440" height="1440"/>
  </clipPath>
 </defs>
</svg>
