<?xml version="1.0" encoding="utf-8" standalone="no"?>
<!DOCTYPE svg PUBLIC "-//W3C//DTD SVG 1.1//EN"
  "http://www.w3.org/Graphics/SVG/1.1/DTD/svg11.dtd">
<svg xmlns:xlink="http://www.w3.org/1999/xlink" width="1440pt" height="1440pt" viewBox="0 0 1440 1440" xmlns="http://www.w3.org/2000/svg" version="1.1">
 <metadata>
  <rdf:RDF xmlns:dc="http://purl.org/dc/elements/1.1/" xmlns:cc="http://creativecommons.org/ns#" xmlns:rdf="http://www.w3.org/1999/02/22-rdf-syntax-ns#">
   <cc:Work>
    <dc:type rdf:resource="http://purl.org/dc/dcmitype/StillImage"/>
    <dc:date>2026-02-27T11:11:12.304991</dc:date>
    <dc:format>image/svg+xml</dc:format>
    <dc:creator>
     <cc:Agent>
      <dc:title>Matplotlib v3.7.3, https://matplotlib.org/</dc:title>
     </cc:Agent>
    </dc:creator>
   </cc:Work>
  </rdf:RDF>
 </metadata>
 <defs>
  <style type="text/css">*{stroke-linejoin: round; stroke-linecap: butt}</style>
 </defs>
 <g id="figure_1">
  <g id="patch_1">
   <path d="M 0 1440 
L 1440 1440 
L 1440 0 
L 0 0 
z
" style="fill: #ffffff"/>
  </g>
  <g id="axes_1">
   <g id="line2d_1">
    <path d="M 976.811466 602.859926 
L 1173.271572 599.394689 
L 1286.490951 598.340052 
L 1287.490239 598.340052 
L 1288.789314 598.264721 
" clip-path="url(#p3ad31e04e8)" style="fill: none; stroke: #7a7a7a; stroke-width: 3; stroke-linecap: square"/>
   </g>
   <g id="line2d_2">
    <path d="M 965.219721 627.643903 
L 1286.59088 622.747373 
L 1287.490239 622.747373 
L 1288.789314 622.672042 
" clip-path="url(#p3ad31e04e8)" style="fill: none; stroke: #7a7a7a; stroke-width: 3; stroke-linecap: square"/>
   </g>
   <g id="line2d_3">
    <path d="M 1112.714693 449.862184 
L 1066.147852 450.389503 
L 1034.570338 450.540165 
L 1019.68094 450.916821 
L 1017.582434 451.293477 
L 672.128424 456.641995 
" clip-path="url(#p3ad31e04e8)" style="fill: none; stroke: #7a7a7a; stroke-width: 3; stroke-linecap: square"/>
   </g>
   <g id="line2d_4">
    <path d="M 1136.897473 424.02357 
L 690.61526 431.3307 
" clip-path="url(#p3ad31e04e8)" style="fill: none; stroke: #7a7a7a; stroke-width: 3; stroke-linecap: square"/>
   </g>
   <g id="line2d_5">
    <path d="M 271.313835 580.712543 
L 315.482384 580.56188 
L 538.923276 579.883899 
" clip-path="url(#p3ad31e04e8)" style="fill: none; stroke: #7a7a7a; stroke-width: 3; stroke-linecap: square"/>
   </g>
   <g id="line2d_6">
    <path d="M 271.113977 606.927813 
L 320.278968 606.701819 
L 523.634163 605.948507 
" clip-path="url(#p3ad31e04e8)" style="fill: none; stroke: #7a7a7a; stroke-width: 3; stroke-linecap: square"/>
   </g>
   <g id="line2d_7">
    <path d="M 1100.223588 299.727028 
L 1193.357269 195.317934 
" clip-path="url(#p3ad31e04e8)" style="fill: none; stroke: #7a7a7a; stroke-width: 3; stroke-linecap: square"/>
   </g>
   <g id="line2d_8">
    <path d="M 1132.900319 303.49359 
L 1134.099465 300.254347 
L 1138.796121 294.227848 
L 1142.693346 290.837943 
L 1203.450082 221.081217 
L 1216.041117 206.843613 
" clip-path="url(#p3ad31e04e8)" style="fill: none; stroke: #7a7a7a; stroke-width: 3; stroke-linecap: square"/>
   </g>
   <g id="line2d_9">
    <path d="M 271.413764 556.983203 
L 488.359282 557.359859 
L 538.423632 557.284528 
L 552.313741 557.359859 
" clip-path="url(#p3ad31e04e8)" style="fill: none; stroke: #7a7a7a; stroke-width: 3; stroke-linecap: square"/>
   </g>
   <g id="line2d_10">
    <path d="M 271.313835 580.712543 
L 315.482384 580.56188 
L 538.923276 579.883899 
" clip-path="url(#p3ad31e04e8)" style="fill: none; stroke: #7a7a7a; stroke-width: 3; stroke-linecap: square"/>
   </g>
   <g id="line2d_11">
    <path d="M 645.547352 831.113575 
L 646.746498 829.832944 
L 646.946356 829.60695 
L 647.346071 829.154962 
L 647.845715 828.627644 
L 648.145502 828.326319 
L 770.158619 688.662205 
" clip-path="url(#p3ad31e04e8)" style="fill: none; stroke: #7a7a7a; stroke-width: 3; stroke-linecap: square"/>
   </g>
   <g id="line2d_12">
    <path d="M 676.525293 831.113575 
L 677.724439 829.832944 
L 677.924297 829.60695 
L 678.324012 829.154962 
L 678.823657 828.627644 
L 679.123443 828.326319 
L 695.81156 808.89086 
L 722.392632 778.381709 
L 723.591778 776.950415 
L 805.333572 689.490849 
" clip-path="url(#p3ad31e04e8)" style="fill: none; stroke: #7a7a7a; stroke-width: 3; stroke-linecap: square"/>
   </g>
   <g id="line2d_13">
    <path d="M 770.158619 688.662205 
L 783.349226 673.219302 
L 795.540545 659.73501 
L 807.332149 647.983337 
L 818.823966 637.964283 
L 830.715498 629.527184 
L 843.006746 622.446048 
L 856.397211 616.720874 
L 870.986822 612.201 
L 887.375152 608.660432 
L 905.762059 606.09917 
L 926.547258 604.366551 
L 950.130465 603.387245 
L 976.811466 602.859926 
" clip-path="url(#p3ad31e04e8)" style="fill: none; stroke: #7a7a7a; stroke-width: 3; stroke-linecap: square"/>
   </g>
   <g id="line2d_14">
    <path d="M 805.333572 689.490849 
L 807.23222 687.306243 
L 808.731153 684.744981 
L 820.222969 672.014002 
L 827.517775 665.234191 
L 833.813292 660.33766 
L 847.003899 652.352549 
L 863.991803 643.915451 
L 872.385826 640.600876 
L 895.069673 633.595071 
L 901.964763 632.239109 
L 912.55722 630.732484 
L 920.851314 630.581822 
L 942.336016 628.698541 
L 965.219721 627.643903 
" clip-path="url(#p3ad31e04e8)" style="fill: none; stroke: #7a7a7a; stroke-width: 3; stroke-linecap: square"/>
   </g>
   <g id="line2d_15">
    <path d="M 183.876097 1194.059475 
L 160.892463 1219.898089 
L 152.598369 1229.013169 
" clip-path="url(#p3ad31e04e8)" style="fill: none; stroke: #7a7a7a; stroke-width: 3; stroke-linecap: square"/>
   </g>
   <g id="line2d_16">
    <path d="M 156.295737 1184.64307 
L 127.51623 1216.508183 
" clip-path="url(#p3ad31e04e8)" style="fill: none; stroke: #7a7a7a; stroke-width: 3; stroke-linecap: square"/>
   </g>
   <g id="line2d_17">
    <path d="M 1025.576742 299.953022 
L 1156.283668 152.529791 
" clip-path="url(#p3ad31e04e8)" style="fill: none; stroke: #7a7a7a; stroke-width: 3; stroke-linecap: square"/>
   </g>
   <g id="line2d_18">
    <path d="M 1062.750271 301.082991 
L 1167.975343 182.511624 
" clip-path="url(#p3ad31e04e8)" style="fill: none; stroke: #7a7a7a; stroke-width: 3; stroke-linecap: square"/>
   </g>
   <g id="line2d_19">
    <path d="M 1136.897473 424.02357 
L 690.61526 431.3307 
" clip-path="url(#p3ad31e04e8)" style="fill: none; stroke: #7a7a7a; stroke-width: 3; stroke-linecap: square"/>
   </g>
   <g id="line2d_20">
    <path d="M 1159.381463 397.130318 
L 709.60174 405.79341 
" clip-path="url(#p3ad31e04e8)" style="fill: none; stroke: #7a7a7a; stroke-width: 3; stroke-linecap: square"/>
   </g>
   <g id="line2d_21">
    <path d="M 709.60174 405.79341 
L 385.032858 406.245398 
" clip-path="url(#p3ad31e04e8)" style="fill: none; stroke: #7a7a7a; stroke-width: 3; stroke-linecap: square"/>
   </g>
   <g id="line2d_22">
    <path d="M 726.689572 383.420033 
L 622.263932 382.440727 
L 571.699937 382.892714 
L 505.946758 382.516058 
L 457.381341 382.66672 
L 423.605392 382.516058 
L 385.132787 382.591389 
" clip-path="url(#p3ad31e04e8)" style="fill: none; stroke: #7a7a7a; stroke-width: 3; stroke-linecap: square"/>
   </g>
   <g id="line2d_23">
    <path d="M 602.777807 831.113575 
L 603.976953 829.832944 
L 604.176811 829.60695 
L 604.576526 829.154962 
L 604.976242 828.627644 
L 605.276028 828.326319 
L 652.342513 775.217797 
L 689.416114 733.333629 
L 728.688149 689.340187 
" clip-path="url(#p3ad31e04e8)" style="fill: none; stroke: #7a7a7a; stroke-width: 3; stroke-linecap: square"/>
   </g>
   <g id="line2d_24">
    <path d="M 645.547352 831.113575 
L 646.746498 829.832944 
L 646.946356 829.60695 
L 647.346071 829.154962 
L 647.845715 828.627644 
L 648.145502 828.326319 
L 770.158619 688.662205 
" clip-path="url(#p3ad31e04e8)" style="fill: none; stroke: #7a7a7a; stroke-width: 3; stroke-linecap: square"/>
   </g>
   <g id="line2d_25">
    <path d="M 606.475174 681.882394 
L 476.367821 828.326319 
L 476.068034 828.702975 
L 475.668319 829.154962 
L 475.068746 829.757612 
L 473.8696 831.113575 
" clip-path="url(#p3ad31e04e8)" style="fill: none; stroke: #7a7a7a; stroke-width: 3; stroke-linecap: square"/>
   </g>
   <g id="line2d_26">
    <path d="M 558.109614 682.183719 
L 538.523561 704.632428 
L 462.177925 790.886694 
L 428.90162 828.40165 
L 428.601834 828.702975 
L 428.10219 829.230294 
L 427.602545 829.757612 
L 426.403399 831.113575 
" clip-path="url(#p3ad31e04e8)" style="fill: none; stroke: #7a7a7a; stroke-width: 3; stroke-linecap: square"/>
   </g>
   <g id="line2d_27">
    <path d="M 1288.789314 488.356446 
L 1287.290382 488.356446 
L 1286.490951 488.431777 
L 1286.191164 488.431777 
L 1285.891378 488.431777 
L 1228.232435 489.18509 
L 1082.935898 493.704964 
" clip-path="url(#p3ad31e04e8)" style="fill: none; stroke: #7a7a7a; stroke-width: 3; stroke-linecap: square"/>
   </g>
   <g id="line2d_28">
    <path d="M 1288.789314 465.154425 
L 1287.290382 465.229756 
L 1286.490951 465.229756 
L 1286.191164 465.229756 
L 1285.791449 465.229756 
L 1092.828853 471.934236 
" clip-path="url(#p3ad31e04e8)" style="fill: none; stroke: #7a7a7a; stroke-width: 3; stroke-linecap: square"/>
   </g>
   <g id="line2d_29">
    <path d="M 956.026267 295.960467 
L 916.954089 334.379398 
L 898.467254 350.274289 
L 882.478639 363.381924 
L 868.388672 374.078959 
L 855.59778 382.591389 
L 843.606319 389.220538 
L 831.914644 394.1924 
L 819.823254 397.732968 
L 806.932433 400.218899 
L 792.54268 401.876186 
L 776.15435 403.006154 
L 709.60174 405.79341 
" clip-path="url(#p3ad31e04e8)" style="fill: none; stroke: #7a7a7a; stroke-width: 3; stroke-linecap: square"/>
   </g>
   <g id="line2d_30">
    <path d="M 922.150389 293.625198 
L 913.256722 303.794915 
L 905.66213 311.102045 
L 890.572875 324.736999 
L 884.0775 330.085517 
L 876.982552 335.057379 
L 866.889739 342.213846 
L 851.200911 351.630251 
L 835.312225 359.238706 
L 828.117348 361.95063 
L 825.419269 363.15593 
L 814.527025 366.922492 
L 802.635493 370.237066 
L 785.247874 374.229622 
L 777.053709 375.886909 
L 760.465521 378.900159 
L 743.677476 381.461421 
L 739.88018 381.612083 
L 726.689572 383.420033 
" clip-path="url(#p3ad31e04e8)" style="fill: none; stroke: #7a7a7a; stroke-width: 3; stroke-linecap: square"/>
   </g>
   <g id="line2d_31">
    <path d="M 1159.381463 397.130318 
L 1126.80466 394.79505 
L 1110.616187 389.446532 
L 1097.42558 381.988739 
L 1087.332767 372.722997 
L 1080.737463 361.875299 
L 1077.839527 349.596307 
L 1078.838815 336.33801 
L 1084.035115 322.175737 
L 1100.223588 299.727028 
" clip-path="url(#p3ad31e04e8)" style="fill: none; stroke: #7a7a7a; stroke-width: 3; stroke-linecap: square"/>
   </g>
   <g id="line2d_32">
    <path d="M 1181.365808 368.881104 
L 1174.970362 367.751136 
L 1167.975343 365.114542 
L 1162.379328 362.703943 
L 1156.483526 359.238706 
L 1150.587724 355.020156 
L 1143.992421 349.445645 
L 1139.395694 343.419146 
L 1134.199394 334.982047 
L 1132.100888 330.462173 
L 1130.002383 319.991131 
L 1130.701885 312.081351 
L 1132.200817 305.527534 
L 1132.900319 303.49359 
" clip-path="url(#p3ad31e04e8)" style="fill: none; stroke: #7a7a7a; stroke-width: 3; stroke-linecap: square"/>
   </g>
   <g id="line2d_33">
    <path d="M 728.688149 689.340187 
L 746.275626 671.86334 
L 786.447021 629.301191 
L 799.637628 618.604155 
L 812.528449 609.413744 
L 825.519198 601.579295 
L 838.609877 595.100809 
L 851.900413 589.827622 
L 865.790522 585.533742 
L 880.180275 582.294499 
L 895.469388 579.883899 
L 911.657861 578.226612 
L 928.945551 577.171975 
L 947.432387 576.644656 
L 967.418155 576.569325 
L 989.002785 576.719987 
" clip-path="url(#p3ad31e04e8)" style="fill: none; stroke: #7a7a7a; stroke-width: 3; stroke-linecap: square"/>
   </g>
   <g id="line2d_34">
    <path d="M 770.158619 688.662205 
L 783.349226 673.219302 
L 795.540545 659.73501 
L 807.332149 647.983337 
L 818.823966 637.964283 
L 830.715498 629.527184 
L 843.006746 622.446048 
L 856.397211 616.720874 
L 870.986822 612.201 
L 887.375152 608.660432 
L 905.762059 606.09917 
L 926.547258 604.366551 
L 950.130465 603.387245 
L 976.811466 602.859926 
" clip-path="url(#p3ad31e04e8)" style="fill: none; stroke: #7a7a7a; stroke-width: 3; stroke-linecap: square"/>
   </g>
   <g id="line2d_35">
    <path d="M 523.634163 605.948507 
L 561.507195 609.865731 
L 589.487271 614.988256 
L 608.673609 621.240748 
L 620.365284 628.623209 
L 625.661512 637.135639 
L 625.761441 646.702706 
L 621.764287 657.399742 
L 614.969126 669.076084 
L 606.475174 681.882394 
" clip-path="url(#p3ad31e04e8)" style="fill: none; stroke: #7a7a7a; stroke-width: 3; stroke-linecap: square"/>
   </g>
   <g id="line2d_36">
    <path d="M 510.843272 630.355828 
L 517.838291 630.355828 
L 530.029609 630.657153 
L 535.925411 631.71179 
L 542.92043 633.51974 
L 550.914738 636.834314 
L 556.210966 639.62157 
L 557.210255 639.998226 
L 557.410112 640.22422 
L 558.309472 640.676207 
L 562.006839 643.990782 
L 564.205274 647.230025 
L 566.403708 649.414631 
L 566.803424 651.448574 
L 568.102499 653.859174 
L 568.702072 657.927061 
L 568.502214 660.412991 
L 568.00257 664.480878 
L 565.904064 671.336021 
L 562.406555 677.287189 
L 558.109614 682.183719 
" clip-path="url(#p3ad31e04e8)" style="fill: none; stroke: #7a7a7a; stroke-width: 3; stroke-linecap: square"/>
   </g>
   <g id="line2d_37">
    <path d="M 304.490211 1210.481684 
L 364.447517 1144.340858 
" clip-path="url(#p3ad31e04e8)" style="fill: none; stroke: #7a7a7a; stroke-width: 3; stroke-linecap: square"/>
   </g>
   <g id="line2d_38">
    <path d="M 336.867156 1211.762315 
L 363.148442 1182.910452 
L 389.030012 1154.20925 
" clip-path="url(#p3ad31e04e8)" style="fill: none; stroke: #7a7a7a; stroke-width: 3; stroke-linecap: square"/>
   </g>
   <g id="line2d_39">
    <path d="M 364.447517 1144.340858 
L 545.918295 941.549168 
" clip-path="url(#p3ad31e04e8)" style="fill: none; stroke: #7a7a7a; stroke-width: 3; stroke-linecap: square"/>
   </g>
   <g id="line2d_40">
    <path d="M 389.030012 1154.20925 
L 435.696782 1100.950066 
L 485.261488 1045.430944 
L 559.008974 962.566583 
L 567.402997 953.22551 
" clip-path="url(#p3ad31e04e8)" style="fill: none; stroke: #7a7a7a; stroke-width: 3; stroke-linecap: square"/>
   </g>
   <g id="line2d_41">
    <path d="M 538.923276 579.883899 
L 989.002785 576.719987 
" clip-path="url(#p3ad31e04e8)" style="fill: none; stroke: #7a7a7a; stroke-width: 3; stroke-linecap: square"/>
   </g>
   <g id="line2d_42">
    <path d="M 523.634163 605.948507 
L 976.811466 602.859926 
" clip-path="url(#p3ad31e04e8)" style="fill: none; stroke: #7a7a7a; stroke-width: 3; stroke-linecap: square"/>
   </g>
   <g id="line2d_43">
    <path d="M 552.313741 557.359859 
L 636.853543 557.585853 
L 651.543083 557.43519 
L 659.437461 557.058534 
L 665.133405 556.079228 
L 665.333263 555.928566 
L 965.819294 552.387998 
L 975.012747 552.312666 
L 1000.69446 551.93601 
" clip-path="url(#p3ad31e04e8)" style="fill: none; stroke: #7a7a7a; stroke-width: 3; stroke-linecap: square"/>
   </g>
   <g id="line2d_44">
    <path d="M 538.923276 579.883899 
L 989.002785 576.719987 
" clip-path="url(#p3ad31e04e8)" style="fill: none; stroke: #7a7a7a; stroke-width: 3; stroke-linecap: square"/>
   </g>
   <g id="line2d_45">
    <path d="M 1288.789314 506.360612 
L 1287.39031 506.435943 
L 1286.490951 506.435943 
L 1285.891378 506.435943 
L 1213.842682 508.69588 
L 1068.546144 514.496385 
" clip-path="url(#p3ad31e04e8)" style="fill: none; stroke: #7a7a7a; stroke-width: 3; stroke-linecap: square"/>
   </g>
   <g id="line2d_46">
    <path d="M 1288.789314 488.356446 
L 1287.290382 488.356446 
L 1286.490951 488.431777 
L 1286.191164 488.431777 
L 1285.891378 488.431777 
L 1228.232435 489.18509 
L 1082.935898 493.704964 
" clip-path="url(#p3ad31e04e8)" style="fill: none; stroke: #7a7a7a; stroke-width: 3; stroke-linecap: square"/>
   </g>
   <g id="line2d_47">
    <path d="M 1025.576742 299.953022 
L 637.652973 684.895644 
" clip-path="url(#p3ad31e04e8)" style="fill: none; stroke: #7a7a7a; stroke-width: 3; stroke-linecap: square"/>
   </g>
   <g id="line2d_48">
    <path d="M 991.600935 297.843748 
L 606.475174 681.882394 
" clip-path="url(#p3ad31e04e8)" style="fill: none; stroke: #7a7a7a; stroke-width: 3; stroke-linecap: square"/>
   </g>
   <g id="line2d_49">
    <path d="M 672.128424 456.641995 
L 649.044861 456.641995 
L 570.001147 456.190008 
L 459.279989 455.813352 
L 397.224177 455.587358 
L 384.833001 455.662689 
" clip-path="url(#p3ad31e04e8)" style="fill: none; stroke: #7a7a7a; stroke-width: 3; stroke-linecap: square"/>
   </g>
   <g id="line2d_50">
    <path d="M 690.61526 431.3307 
L 384.932929 431.481362 
" clip-path="url(#p3ad31e04e8)" style="fill: none; stroke: #7a7a7a; stroke-width: 3; stroke-linecap: square"/>
   </g>
   <g id="line2d_51">
    <path d="M 239.636392 1192.100863 
L 307.588005 1115.18767 
" clip-path="url(#p3ad31e04e8)" style="fill: none; stroke: #7a7a7a; stroke-width: 3; stroke-linecap: square"/>
   </g>
   <g id="line2d_52">
    <path d="M 267.716397 1206.941116 
L 335.568081 1130.027923 
" clip-path="url(#p3ad31e04e8)" style="fill: none; stroke: #7a7a7a; stroke-width: 3; stroke-linecap: square"/>
   </g>
   <g id="line2d_53">
    <path d="M 1082.935898 493.704964 
L 1064.848777 493.930958 
L 1047.061443 494.307614 
L 1029.573896 494.834932 
L 1012.286206 495.588245 
L 995.198374 496.642882 
L 962.121927 499.279475 
L 945.633667 500.258782 
L 931.143985 500.7861 
L 914.455868 503.1967 
L 897.86768 506.812599 
L 880.879777 511.483136 
L 863.991803 516.906985 
L 849.002476 522.782821 
L 833.11379 528.20667 
L 817.424962 534.157838 
L 801.636205 540.786987 
L 785.847447 548.018786 
L 770.05869 556.079228 
L 754.170004 564.74232 
L 738.281318 574.309388 
L 722.292703 584.554436 
L 706.20416 595.703459 
L 690.015687 607.681126 
L 673.627357 620.638098 
L 657.139098 634.423715 
L 640.450981 649.263968 
L 623.563006 665.008197 
L 606.475174 681.882394 
" clip-path="url(#p3ad31e04e8)" style="fill: none; stroke: #7a7a7a; stroke-width: 3; stroke-linecap: square"/>
   </g>
   <g id="line2d_54">
    <path d="M 1092.828853 471.934236 
L 1077.839527 473.139536 
L 1062.350556 474.269505 
L 1046.361941 475.248811 
L 978.909972 478.940041 
L 961.322496 480.07001 
L 943.535162 481.350641 
L 925.54797 482.857266 
L 907.560778 484.589884 
L 889.373729 486.623828 
L 871.186679 489.034427 
L 852.899701 491.897014 
L 834.712652 495.136257 
L 816.625531 498.827488 
L 798.638339 503.121369 
L 780.751077 508.017899 
L 763.1636 513.517079 
L 745.676053 519.618909 
L 728.488292 526.549383 
L 711.700246 534.233169 
L 695.211987 542.670268 
L 679.023514 552.011341 
L 663.334686 562.181058 
L 648.145502 573.405413 
L 633.455962 585.609073 
L 619.266066 598.79204 
L 605.675744 613.104975 
L 592.784923 628.547878 
L 580.493675 645.196082 
L 568.901929 663.049585 
L 567.802712 665.008197 
L 565.904064 671.336021 
L 562.406555 677.287189 
L 558.109614 682.183719 
" clip-path="url(#p3ad31e04e8)" style="fill: none; stroke: #7a7a7a; stroke-width: 3; stroke-linecap: square"/>
   </g>
   <g id="line2d_55">
    <path d="M 271.113977 606.927813 
L 320.278968 606.701819 
L 523.634163 605.948507 
" clip-path="url(#p3ad31e04e8)" style="fill: none; stroke: #7a7a7a; stroke-width: 3; stroke-linecap: square"/>
   </g>
   <g id="line2d_56">
    <path d="M 271.014048 630.958478 
L 369.543888 630.807815 
L 510.843272 630.355828 
" clip-path="url(#p3ad31e04e8)" style="fill: none; stroke: #7a7a7a; stroke-width: 3; stroke-linecap: square"/>
   </g>
   <g id="line2d_57">
    <path d="M 260.621449 1107.654546 
L 183.876097 1194.059475 
" clip-path="url(#p3ad31e04e8)" style="fill: none; stroke: #7a7a7a; stroke-width: 3; stroke-linecap: square"/>
   </g>
   <g id="line2d_58">
    <path d="M 228.344432 1104.113978 
L 156.295737 1184.64307 
" clip-path="url(#p3ad31e04e8)" style="fill: none; stroke: #7a7a7a; stroke-width: 3; stroke-linecap: square"/>
   </g>
   <g id="line2d_59">
    <path d="M 579.694244 512.236448 
L 651.543083 511.633798 
L 677.224795 509.976511 
L 706.503946 509.223199 
L 719.194909 509.29853 
L 736.882314 508.545218 
L 751.471926 507.641243 
L 768.859544 506.134618 
L 785.947376 504.251337 
L 803.035208 501.38875 
L 820.522756 497.170201 
L 838.31009 491.520358 
L 853.399345 485.870515 
L 868.488601 478.940041 
L 878.681343 473.440861 
L 887.475081 468.318337 
L 899.266684 461.312532 
L 913.256722 452.498777 
L 923.549393 444.588997 
L 935.04121 433.81663 
L 952.3289 416.490446 
L 964.020575 404.964767 
L 974.113388 393.363756 
L 987.403924 379.879465 
L 1003.092752 364.059905 
L 1019.581011 347.035045 
L 1036.868701 328.804886 
L 1062.750271 301.082991 
" clip-path="url(#p3ad31e04e8)" style="fill: none; stroke: #7a7a7a; stroke-width: 3; stroke-linecap: square"/>
   </g>
   <g id="line2d_60">
    <path d="M 560.707764 540.636325 
L 631.257527 537.547744 
L 659.437461 535.815125 
L 685.718747 533.931844 
L 710.301242 531.897901 
L 733.085018 529.713295 
L 754.369862 527.302696 
L 770.858121 525.645408 
L 789.744672 523.084146 
L 808.531295 520.447553 
L 822.021689 517.434304 
L 836.711229 512.989761 
L 847.80333 509.373861 
L 859.794791 505.004649 
L 870.587106 501.012094 
L 882.178852 496.416888 
L 892.971167 491.294364 
L 904.462984 485.117203 
L 915.655015 478.337392 
L 926.547258 471.030262 
L 937.239645 463.04515 
L 947.932031 454.457389 
L 958.624417 445.116316 
L 969.61659 435.097261 
L 980.80862 424.400226 
L 992.400366 412.799215 
L 1017.182719 387.261926 
L 1060.152121 342.289177 
L 1100.223588 299.727028 
" clip-path="url(#p3ad31e04e8)" style="fill: none; stroke: #7a7a7a; stroke-width: 3; stroke-linecap: square"/>
   </g>
   <g id="line2d_61">
    <path d="M 489.158713 912.245317 
L 563.505772 831.113575 
" clip-path="url(#p3ad31e04e8)" style="fill: none; stroke: #7a7a7a; stroke-width: 3; stroke-linecap: square"/>
   </g>
   <g id="line2d_62">
    <path d="M 516.839002 926.784246 
L 602.777807 831.113575 
" clip-path="url(#p3ad31e04e8)" style="fill: none; stroke: #7a7a7a; stroke-width: 3; stroke-linecap: square"/>
   </g>
   <g id="line2d_63">
    <path d="M 1068.546144 514.496385 
L 1028.574607 516.00301 
L 1022.678805 516.680991 
L 1011.486775 517.283641 
L 986.504564 518.940928 
L 963.720788 520.89954 
L 942.935589 523.084146 
L 923.949109 525.645408 
L 906.56149 528.507995 
L 890.572875 531.747239 
L 875.783406 535.363138 
L 862.093155 539.355694 
L 849.302263 543.875568 
L 837.110944 548.772098 
L 825.519198 554.271278 
L 814.227239 560.297777 
L 803.035208 566.851595 
L 791.843178 574.008063 
L 780.45129 581.842511 
L 768.659687 590.27961 
L 713.698823 631.184472 
L 697.110635 643.312801 
L 679.023514 656.269773 
L 659.337532 670.130721 
L 637.652973 684.895644 
" clip-path="url(#p3ad31e04e8)" style="fill: none; stroke: #7a7a7a; stroke-width: 3; stroke-linecap: square"/>
   </g>
   <g id="line2d_64">
    <path d="M 1082.935898 493.704964 
L 1064.848777 493.930958 
L 1047.061443 494.307614 
L 1029.573896 494.834932 
L 1012.286206 495.588245 
L 995.198374 496.642882 
L 962.121927 499.279475 
L 945.633667 500.258782 
L 931.143985 500.7861 
L 914.455868 503.1967 
L 897.86768 506.812599 
L 880.879777 511.483136 
L 863.991803 516.906985 
L 849.002476 522.782821 
L 833.11379 528.20667 
L 817.424962 534.157838 
L 801.636205 540.786987 
L 785.847447 548.018786 
L 770.05869 556.079228 
L 754.170004 564.74232 
L 738.281318 574.309388 
L 722.292703 584.554436 
L 706.20416 595.703459 
L 690.015687 607.681126 
L 673.627357 620.638098 
L 657.139098 634.423715 
L 640.450981 649.263968 
L 623.563006 665.008197 
L 606.475174 681.882394 
" clip-path="url(#p3ad31e04e8)" style="fill: none; stroke: #7a7a7a; stroke-width: 3; stroke-linecap: square"/>
   </g>
   <g id="line2d_65">
    <path d="M 1156.283668 152.529791 
L 1025.576742 299.953022 
" clip-path="url(#p3ad31e04e8)" style="fill: none; stroke: #7a7a7a; stroke-width: 3; stroke-linecap: square"/>
   </g>
   <g id="line2d_66">
    <path d="M 1132.500604 138.744175 
L 991.600935 297.843748 
" clip-path="url(#p3ad31e04e8)" style="fill: none; stroke: #7a7a7a; stroke-width: 3; stroke-linecap: square"/>
   </g>
   <g id="line2d_67">
    <path d="M 508.844695 831.113575 
L 500.550601 840.379317 
L 260.621449 1107.654546 
" clip-path="url(#p3ad31e04e8)" style="fill: none; stroke: #7a7a7a; stroke-width: 3; stroke-linecap: square"/>
   </g>
   <g id="line2d_68">
    <path d="M 473.8696 831.113575 
L 228.344432 1104.113978 
" clip-path="url(#p3ad31e04e8)" style="fill: none; stroke: #7a7a7a; stroke-width: 3; stroke-linecap: square"/>
   </g>
   <g id="line2d_69">
    <path d="M 545.918295 941.549168 
L 645.547352 831.113575 
" clip-path="url(#p3ad31e04e8)" style="fill: none; stroke: #7a7a7a; stroke-width: 3; stroke-linecap: square"/>
   </g>
   <g id="line2d_70">
    <path d="M 567.402997 953.22551 
L 605.276028 910.964686 
L 676.525293 831.113575 
" clip-path="url(#p3ad31e04e8)" style="fill: none; stroke: #7a7a7a; stroke-width: 3; stroke-linecap: square"/>
   </g>
   <g id="line2d_71">
    <path d="M 523.634163 605.948507 
L 976.811466 602.859926 
" clip-path="url(#p3ad31e04e8)" style="fill: none; stroke: #7a7a7a; stroke-width: 3; stroke-linecap: square"/>
   </g>
   <g id="line2d_72">
    <path d="M 510.843272 630.355828 
L 965.219721 627.643903 
" clip-path="url(#p3ad31e04e8)" style="fill: none; stroke: #7a7a7a; stroke-width: 3; stroke-linecap: square"/>
   </g>
   <g id="line2d_73">
    <path d="M 1288.789314 447.300922 
L 1287.290382 447.300922 
L 1286.490951 447.300922 
L 1286.191164 447.300922 
L 1285.791449 447.300922 
L 1112.714693 449.862184 
" clip-path="url(#p3ad31e04e8)" style="fill: none; stroke: #7a7a7a; stroke-width: 3; stroke-linecap: square"/>
   </g>
   <g id="line2d_74">
    <path d="M 1288.789314 422.064957 
L 1287.190453 422.064957 
L 1286.490951 422.064957 
L 1286.191164 422.064957 
L 1285.791449 422.064957 
L 1136.897473 424.02357 
" clip-path="url(#p3ad31e04e8)" style="fill: none; stroke: #7a7a7a; stroke-width: 3; stroke-linecap: square"/>
   </g>
   <g id="line2d_75">
    <path d="M 473.8696 831.113575 
L 228.344432 1104.113978 
" clip-path="url(#p3ad31e04e8)" style="fill: none; stroke: #7a7a7a; stroke-width: 3; stroke-linecap: square"/>
   </g>
   <g id="line2d_76">
    <path d="M 426.403399 831.113575 
L 312.584447 958.72469 
L 190.271543 1096.656185 
" clip-path="url(#p3ad31e04e8)" style="fill: none; stroke: #7a7a7a; stroke-width: 3; stroke-linecap: square"/>
   </g>
   <g id="line2d_77">
    <path d="M 307.588005 1115.18767 
L 489.158713 912.245317 
" clip-path="url(#p3ad31e04e8)" style="fill: none; stroke: #7a7a7a; stroke-width: 3; stroke-linecap: square"/>
   </g>
   <g id="line2d_78">
    <path d="M 335.568081 1130.027923 
L 516.839002 926.784246 
" clip-path="url(#p3ad31e04e8)" style="fill: none; stroke: #7a7a7a; stroke-width: 3; stroke-linecap: square"/>
   </g>
   <g id="line2d_79">
    <path d="M 1000.69446 551.93601 
L 1286.490951 549.299417 
L 1287.39031 549.299417 
L 1288.789314 549.299417 
" clip-path="url(#p3ad31e04e8)" style="fill: none; stroke: #7a7a7a; stroke-width: 3; stroke-linecap: square"/>
   </g>
   <g id="line2d_80">
    <path d="M 989.002785 576.719987 
L 1286.490951 572.727432 
L 1287.490239 572.727432 
L 1288.789314 572.727432 
" clip-path="url(#p3ad31e04e8)" style="fill: none; stroke: #7a7a7a; stroke-width: 3; stroke-linecap: square"/>
   </g>
   <g id="line2d_81">
    <path d="M 267.716397 1206.941116 
L 335.568081 1130.027923 
" clip-path="url(#p3ad31e04e8)" style="fill: none; stroke: #7a7a7a; stroke-width: 3; stroke-linecap: square"/>
   </g>
   <g id="line2d_82">
    <path d="M 304.490211 1210.481684 
L 364.447517 1144.340858 
" clip-path="url(#p3ad31e04e8)" style="fill: none; stroke: #7a7a7a; stroke-width: 3; stroke-linecap: square"/>
   </g>
   <g id="line2d_83">
    <path d="M 991.600935 297.843748 
L 606.475174 681.882394 
" clip-path="url(#p3ad31e04e8)" style="fill: none; stroke: #7a7a7a; stroke-width: 3; stroke-linecap: square"/>
   </g>
   <g id="line2d_84">
    <path d="M 956.026267 295.960467 
L 558.109614 682.183719 
" clip-path="url(#p3ad31e04e8)" style="fill: none; stroke: #7a7a7a; stroke-width: 3; stroke-linecap: square"/>
   </g>
   <g id="line2d_85">
    <path d="M 228.344432 1104.113978 
L 156.295737 1184.64307 
" clip-path="url(#p3ad31e04e8)" style="fill: none; stroke: #7a7a7a; stroke-width: 3; stroke-linecap: square"/>
   </g>
   <g id="line2d_86">
    <path d="M 190.271543 1096.656185 
L 129.115091 1165.659598 
L 121.920215 1173.494047 
" clip-path="url(#p3ad31e04e8)" style="fill: none; stroke: #7a7a7a; stroke-width: 3; stroke-linecap: square"/>
   </g>
   <g id="line2d_87">
    <path d="M 1288.789314 395.548362 
L 1287.190453 395.548362 
L 1286.490951 395.548362 
L 1286.191164 395.548362 
L 1285.791449 395.548362 
L 1159.381463 397.130318 
" clip-path="url(#p3ad31e04e8)" style="fill: none; stroke: #7a7a7a; stroke-width: 3; stroke-linecap: square"/>
   </g>
   <g id="line2d_88">
    <path d="M 1288.789314 369.333092 
L 1287.190453 369.333092 
L 1286.59088 369.333092 
L 1286.191164 369.333092 
L 1285.69152 369.333092 
L 1191.458621 370.161735 
L 1181.365808 368.881104 
" clip-path="url(#p3ad31e04e8)" style="fill: none; stroke: #7a7a7a; stroke-width: 3; stroke-linecap: square"/>
   </g>
   <g id="line2d_89">
    <path d="M 1159.381463 397.130318 
L 709.60174 405.79341 
" clip-path="url(#p3ad31e04e8)" style="fill: none; stroke: #7a7a7a; stroke-width: 3; stroke-linecap: square"/>
   </g>
   <g id="line2d_90">
    <path d="M 1181.365808 368.881104 
L 726.689572 383.420033 
" clip-path="url(#p3ad31e04e8)" style="fill: none; stroke: #7a7a7a; stroke-width: 3; stroke-linecap: square"/>
   </g>
   <g id="line2d_91">
    <path d="M 596.382361 487.904459 
L 624.762153 487.37714 
L 625.461655 487.37714 
L 669.630203 485.56919 
L 689.016399 485.56919 
L 696.111346 485.56919 
L 713.998609 485.192534 
L 728.58822 484.891209 
L 738.381247 483.610578 
L 740.779539 483.007928 
L 743.877333 482.179285 
L 744.17712 482.028622 
L 744.676764 481.727297 
L 749.473349 481.199979 
L 765.561892 479.316698 
L 780.651148 476.906098 
L 794.940972 473.892849 
L 808.631224 470.276949 
L 821.821831 465.907737 
L 834.612723 460.785213 
L 847.203757 454.758714 
L 859.694862 447.828241 
L 872.385826 439.843129 
L 885.276646 430.878712 
L 898.467254 420.708995 
L 912.357363 409.333978 
L 926.847045 396.753662 
L 942.236087 382.742052 
L 958.524488 367.374479 
L 976.111965 350.575613 
L 1025.576742 299.953022 
" clip-path="url(#p3ad31e04e8)" style="fill: none; stroke: #7a7a7a; stroke-width: 3; stroke-linecap: square"/>
   </g>
   <g id="line2d_92">
    <path d="M 579.694244 512.236448 
L 651.543083 511.633798 
L 677.224795 509.976511 
L 706.503946 509.223199 
L 719.194909 509.29853 
L 736.882314 508.545218 
L 751.471926 507.641243 
L 768.859544 506.134618 
L 785.947376 504.251337 
L 803.035208 501.38875 
L 820.522756 497.170201 
L 838.31009 491.520358 
L 853.399345 485.870515 
L 868.488601 478.940041 
L 878.681343 473.440861 
L 887.475081 468.318337 
L 899.266684 461.312532 
L 913.256722 452.498777 
L 923.549393 444.588997 
L 935.04121 433.81663 
L 952.3289 416.490446 
L 964.020575 404.964767 
L 974.113388 393.363756 
L 987.403924 379.879465 
L 1003.092752 364.059905 
L 1019.581011 347.035045 
L 1036.868701 328.804886 
L 1062.750271 301.082991 
" clip-path="url(#p3ad31e04e8)" style="fill: none; stroke: #7a7a7a; stroke-width: 3; stroke-linecap: square"/>
   </g>
   <g id="line2d_93">
    <path d="M 1288.789314 422.064957 
L 1287.190453 422.064957 
L 1286.490951 422.064957 
L 1286.191164 422.064957 
L 1285.791449 422.064957 
L 1136.897473 424.02357 
" clip-path="url(#p3ad31e04e8)" style="fill: none; stroke: #7a7a7a; stroke-width: 3; stroke-linecap: square"/>
   </g>
   <g id="line2d_94">
    <path d="M 1288.789314 395.548362 
L 1287.190453 395.548362 
L 1286.490951 395.548362 
L 1286.191164 395.548362 
L 1285.791449 395.548362 
L 1159.381463 397.130318 
" clip-path="url(#p3ad31e04e8)" style="fill: none; stroke: #7a7a7a; stroke-width: 3; stroke-linecap: square"/>
   </g>
   <g id="line2d_95">
    <path d="M 690.61526 431.3307 
L 384.932929 431.481362 
" clip-path="url(#p3ad31e04e8)" style="fill: none; stroke: #7a7a7a; stroke-width: 3; stroke-linecap: square"/>
   </g>
   <g id="line2d_96">
    <path d="M 709.60174 405.79341 
L 385.032858 406.245398 
" clip-path="url(#p3ad31e04e8)" style="fill: none; stroke: #7a7a7a; stroke-width: 3; stroke-linecap: square"/>
   </g>
   <g id="line2d_97">
    <path d="M 1062.750271 301.082991 
L 1167.975343 182.511624 
" clip-path="url(#p3ad31e04e8)" style="fill: none; stroke: #7a7a7a; stroke-width: 3; stroke-linecap: square"/>
   </g>
   <g id="line2d_98">
    <path d="M 1100.223588 299.727028 
L 1193.357269 195.317934 
" clip-path="url(#p3ad31e04e8)" style="fill: none; stroke: #7a7a7a; stroke-width: 3; stroke-linecap: square"/>
   </g>
   <g id="line2d_99">
    <path d="M 335.568081 1130.027923 
L 516.839002 926.784246 
" clip-path="url(#p3ad31e04e8)" style="fill: none; stroke: #7a7a7a; stroke-width: 3; stroke-linecap: square"/>
   </g>
   <g id="line2d_100">
    <path d="M 364.447517 1144.340858 
L 545.918295 941.549168 
" clip-path="url(#p3ad31e04e8)" style="fill: none; stroke: #7a7a7a; stroke-width: 3; stroke-linecap: square"/>
   </g>
   <g id="line2d_101">
    <path d="M 1132.500604 138.744175 
L 991.600935 297.843748 
" clip-path="url(#p3ad31e04e8)" style="fill: none; stroke: #7a7a7a; stroke-width: 3; stroke-linecap: square"/>
   </g>
   <g id="line2d_102">
    <path d="M 1108.217895 124.807896 
L 956.026267 295.960467 
" clip-path="url(#p3ad31e04e8)" style="fill: none; stroke: #7a7a7a; stroke-width: 3; stroke-linecap: square"/>
   </g>
   <g id="line2d_103">
    <path d="M 1108.217895 124.807896 
L 956.026267 295.960467 
" clip-path="url(#p3ad31e04e8)" style="fill: none; stroke: #7a7a7a; stroke-width: 3; stroke-linecap: square"/>
   </g>
   <g id="line2d_104">
    <path d="M 1084.035115 112.528904 
L 1055.155679 144.54468 
L 1049.659593 150.420517 
L 1047.760945 151.550485 
L 960.722923 248.426456 
L 953.727904 257.993523 
L 937.439502 276.299014 
L 922.150389 293.625198 
" clip-path="url(#p3ad31e04e8)" style="fill: none; stroke: #7a7a7a; stroke-width: 3; stroke-linecap: square"/>
   </g>
   <g id="line2d_105">
    <path d="M 156.295737 1184.64307 
L 127.51623 1216.508183 
" clip-path="url(#p3ad31e04e8)" style="fill: none; stroke: #7a7a7a; stroke-width: 3; stroke-linecap: square"/>
   </g>
   <g id="line2d_106">
    <path d="M 121.920215 1173.494047 
L 94.239925 1203.927867 
" clip-path="url(#p3ad31e04e8)" style="fill: none; stroke: #7a7a7a; stroke-width: 3; stroke-linecap: square"/>
   </g>
   <g id="line2d_107">
    <path d="M 989.002785 576.719987 
L 1286.490951 572.727432 
L 1287.490239 572.727432 
L 1288.789314 572.727432 
" clip-path="url(#p3ad31e04e8)" style="fill: none; stroke: #7a7a7a; stroke-width: 3; stroke-linecap: square"/>
   </g>
   <g id="line2d_108">
    <path d="M 976.811466 602.859926 
L 1173.271572 599.394689 
L 1286.490951 598.340052 
L 1287.490239 598.340052 
L 1288.789314 598.264721 
" clip-path="url(#p3ad31e04e8)" style="fill: none; stroke: #7a7a7a; stroke-width: 3; stroke-linecap: square"/>
   </g>
   <g id="line2d_109">
    <path d="M 516.839002 926.784246 
L 602.777807 831.113575 
" clip-path="url(#p3ad31e04e8)" style="fill: none; stroke: #7a7a7a; stroke-width: 3; stroke-linecap: square"/>
   </g>
   <g id="line2d_110">
    <path d="M 545.918295 941.549168 
L 645.547352 831.113575 
" clip-path="url(#p3ad31e04e8)" style="fill: none; stroke: #7a7a7a; stroke-width: 3; stroke-linecap: square"/>
   </g>
   <g id="line2d_111">
    <path d="M 563.505772 831.113575 
L 564.704918 829.832944 
L 564.804847 829.60695 
L 565.204562 829.154962 
L 565.704206 828.702975 
L 566.003993 828.326319 
L 689.416114 689.415518 
" clip-path="url(#p3ad31e04e8)" style="fill: none; stroke: #7a7a7a; stroke-width: 3; stroke-linecap: square"/>
   </g>
   <g id="line2d_112">
    <path d="M 602.777807 831.113575 
L 603.976953 829.832944 
L 604.176811 829.60695 
L 604.576526 829.154962 
L 604.976242 828.627644 
L 605.276028 828.326319 
L 652.342513 775.217797 
L 689.416114 733.333629 
L 728.688149 689.340187 
" clip-path="url(#p3ad31e04e8)" style="fill: none; stroke: #7a7a7a; stroke-width: 3; stroke-linecap: square"/>
   </g>
   <g id="line2d_113">
    <path d="M 219.450765 1307.432987 
L 304.490211 1210.481684 
" clip-path="url(#p3ad31e04e8)" style="fill: none; stroke: #7a7a7a; stroke-width: 3; stroke-linecap: square"/>
   </g>
   <g id="line2d_114">
    <path d="M 242.834115 1315.945416 
L 302.591563 1249.427934 
L 336.867156 1211.762315 
" clip-path="url(#p3ad31e04e8)" style="fill: none; stroke: #7a7a7a; stroke-width: 3; stroke-linecap: square"/>
   </g>
   <g id="line2d_115">
    <path d="M 24.68945 1438.208014 
L 39.578848 1418.546561 
L 39.878635 1418.169905 
L 48.172729 1405.363595 
L 57.665969 1390.749335 
L 60.863692 1385.777473 
L 62.662411 1383.065549 
L 89.942985 1340.880056 
L 120.521211 1294.174689 
L 137.808901 1269.164718 
" clip-path="url(#p3ad31e04e8)" style="fill: none; stroke: #7a7a7a; stroke-width: 3; stroke-linecap: square"/>
   </g>
   <g id="line2d_116">
    <path d="M 55.830234 1441 
L 60.064261 1434.742777 
L 146.402781 1300.35185 
L 160.392819 1280.464404 
" clip-path="url(#p3ad31e04e8)" style="fill: none; stroke: #7a7a7a; stroke-width: 3; stroke-linecap: square"/>
   </g>
   <g id="line2d_117">
    <path d="M 528.630606 831.113575 
L 529.829752 829.757612 
L 529.929681 829.60695 
L 530.329396 829.154962 
L 530.82904 828.702975 
L 531.128827 828.326319 
L 593.584354 759.096912 
L 615.268913 733.484291 
L 629.858524 717.137413 
L 638.452404 707.419683 
L 638.952048 705.536402 
L 653.741517 688.059555 
" clip-path="url(#p3ad31e04e8)" style="fill: none; stroke: #7a7a7a; stroke-width: 3; stroke-linecap: square"/>
   </g>
   <g id="line2d_118">
    <path d="M 563.505772 831.113575 
L 564.704918 829.832944 
L 564.804847 829.60695 
L 565.204562 829.154962 
L 565.704206 828.702975 
L 566.003993 828.326319 
L 689.416114 689.415518 
" clip-path="url(#p3ad31e04e8)" style="fill: none; stroke: #7a7a7a; stroke-width: 3; stroke-linecap: square"/>
   </g>
   <g id="line2d_119">
    <path d="M 190.371472 1294.024026 
L 267.716397 1206.941116 
" clip-path="url(#p3ad31e04e8)" style="fill: none; stroke: #7a7a7a; stroke-width: 3; stroke-linecap: square"/>
   </g>
   <g id="line2d_120">
    <path d="M 219.450765 1307.432987 
L 304.490211 1210.481684 
" clip-path="url(#p3ad31e04e8)" style="fill: none; stroke: #7a7a7a; stroke-width: 3; stroke-linecap: square"/>
   </g>
   <g id="line2d_121">
    <path d="M 99.701447 1441 
L 219.450765 1307.432987 
" clip-path="url(#p3ad31e04e8)" style="fill: none; stroke: #7a7a7a; stroke-width: 3; stroke-linecap: square"/>
   </g>
   <g id="line2d_122">
    <path d="M 132.536595 1441 
L 208.758379 1353.837029 
L 242.834115 1315.945416 
" clip-path="url(#p3ad31e04e8)" style="fill: none; stroke: #7a7a7a; stroke-width: 3; stroke-linecap: square"/>
   </g>
   <g id="line2d_123">
    <path d="M 160.392819 1280.464404 
L 239.636392 1192.100863 
" clip-path="url(#p3ad31e04e8)" style="fill: none; stroke: #7a7a7a; stroke-width: 3; stroke-linecap: square"/>
   </g>
   <g id="line2d_124">
    <path d="M 190.371472 1294.024026 
L 267.716397 1206.941116 
" clip-path="url(#p3ad31e04e8)" style="fill: none; stroke: #7a7a7a; stroke-width: 3; stroke-linecap: square"/>
   </g>
   <g id="line2d_125">
    <path d="M 24.68945 1438.208014 
L 160.392819 1280.464404 
" clip-path="url(#p3ad31e04e8)" style="fill: none; stroke: #7a7a7a; stroke-width: 3; stroke-linecap: square"/>
   </g>
   <g id="line2d_126">
    <path d="M 57.782284 1441 
L 190.371472 1294.024026 
" clip-path="url(#p3ad31e04e8)" style="fill: none; stroke: #7a7a7a; stroke-width: 3; stroke-linecap: square"/>
   </g>
   <g id="line2d_127">
    <path d="M 637.652973 684.895644 
L 512.342204 827.19635 
L 511.342916 828.326319 
L 511.043129 828.702975 
L 510.543485 829.154962 
L 510.14377 829.60695 
L 510.043841 829.757612 
L 508.844695 831.113575 
" clip-path="url(#p3ad31e04e8)" style="fill: none; stroke: #7a7a7a; stroke-width: 3; stroke-linecap: square"/>
   </g>
   <g id="line2d_128">
    <path d="M 606.475174 681.882394 
L 476.367821 828.326319 
L 476.068034 828.702975 
L 475.668319 829.154962 
L 475.068746 829.757612 
L 473.8696 831.113575 
" clip-path="url(#p3ad31e04e8)" style="fill: none; stroke: #7a7a7a; stroke-width: 3; stroke-linecap: square"/>
   </g>
   <g id="line2d_129">
    <path d="M 137.808901 1269.164718 
L 146.202924 1257.563708 
L 164.989546 1236.320299 
L 194.268697 1203.626542 
L 197.966064 1199.181999 
L 213.954679 1181.253164 
" clip-path="url(#p3ad31e04e8)" style="fill: none; stroke: #7a7a7a; stroke-width: 3; stroke-linecap: square"/>
   </g>
   <g id="line2d_130">
    <path d="M 160.392819 1280.464404 
L 239.636392 1192.100863 
" clip-path="url(#p3ad31e04e8)" style="fill: none; stroke: #7a7a7a; stroke-width: 3; stroke-linecap: square"/>
   </g>
   <g id="line2d_131">
    <path d="M 127.51623 1216.508183 
L 97.437648 1250.708565 
" clip-path="url(#p3ad31e04e8)" style="fill: none; stroke: #7a7a7a; stroke-width: 3; stroke-linecap: square"/>
   </g>
   <g id="line2d_132">
    <path d="M 94.239925 1203.927867 
L 65.960063 1236.018974 
" clip-path="url(#p3ad31e04e8)" style="fill: none; stroke: #7a7a7a; stroke-width: 3; stroke-linecap: square"/>
   </g>
   <g id="line2d_133">
    <path d="M 286.003375 1101.326722 
L 347.059898 1032.699965 
L 457.980914 909.684055 
L 462.57764 904.561531 
L 465.275719 901.623613 
" clip-path="url(#p3ad31e04e8)" style="fill: none; stroke: #7a7a7a; stroke-width: 3; stroke-linecap: square"/>
   </g>
   <g id="line2d_134">
    <path d="M 307.588005 1115.18767 
L 489.158713 912.245317 
" clip-path="url(#p3ad31e04e8)" style="fill: none; stroke: #7a7a7a; stroke-width: 3; stroke-linecap: square"/>
   </g>
   <g id="line2d_135">
    <path d="M 213.954679 1181.253164 
L 271.813479 1117.296944 
L 286.003375 1101.326722 
" clip-path="url(#p3ad31e04e8)" style="fill: none; stroke: #7a7a7a; stroke-width: 3; stroke-linecap: square"/>
   </g>
   <g id="line2d_136">
    <path d="M 239.636392 1192.100863 
L 307.588005 1115.18767 
" clip-path="url(#p3ad31e04e8)" style="fill: none; stroke: #7a7a7a; stroke-width: 3; stroke-linecap: square"/>
   </g>
   <g id="line2d_137">
    <path d="M 465.275719 901.623613 
L 500.65053 862.150044 
L 528.630606 831.113575 
" clip-path="url(#p3ad31e04e8)" style="fill: none; stroke: #7a7a7a; stroke-width: 3; stroke-linecap: square"/>
   </g>
   <g id="line2d_138">
    <path d="M 489.158713 912.245317 
L 563.505772 831.113575 
" clip-path="url(#p3ad31e04e8)" style="fill: none; stroke: #7a7a7a; stroke-width: 3; stroke-linecap: square"/>
   </g>
   <g id="line2d_139">
    <path d="M 57.782284 1441 
L 190.371472 1294.024026 
" clip-path="url(#p3ad31e04e8)" style="fill: none; stroke: #7a7a7a; stroke-width: 3; stroke-linecap: square"/>
   </g>
   <g id="line2d_140">
    <path d="M 99.701447 1441 
L 219.450765 1307.432987 
" clip-path="url(#p3ad31e04e8)" style="fill: none; stroke: #7a7a7a; stroke-width: 3; stroke-linecap: square"/>
   </g>
   <g id="line2d_141">
    <path d="M 152.598369 1229.013169 
L 150.999508 1230.745787 
L 136.010182 1248.448628 
L 123.718934 1263.8162 
" clip-path="url(#p3ad31e04e8)" style="fill: none; stroke: #7a7a7a; stroke-width: 3; stroke-linecap: square"/>
   </g>
   <g id="line2d_142">
    <path d="M 127.51623 1216.508183 
L 97.437648 1250.708565 
" clip-path="url(#p3ad31e04e8)" style="fill: none; stroke: #7a7a7a; stroke-width: 3; stroke-linecap: square"/>
   </g>
   <g id="line2d_143">
    <path d="M 689.416114 689.415518 
L 1062.750271 301.082991 
" clip-path="url(#p3ad31e04e8)" style="fill: none; stroke: #7a7a7a; stroke-width: 3; stroke-linecap: square"/>
   </g>
   <g id="line2d_144">
    <path d="M 728.688149 689.340187 
L 1100.223588 299.727028 
" clip-path="url(#p3ad31e04e8)" style="fill: none; stroke: #7a7a7a; stroke-width: 3; stroke-linecap: square"/>
   </g>
   <g id="line2d_145">
    <path d="M 653.741517 688.059555 
L 1025.576742 299.953022 
" clip-path="url(#p3ad31e04e8)" style="fill: none; stroke: #7a7a7a; stroke-width: 3; stroke-linecap: square"/>
   </g>
   <g id="line2d_146">
    <path d="M 689.416114 689.415518 
L 1062.750271 301.082991 
" clip-path="url(#p3ad31e04e8)" style="fill: none; stroke: #7a7a7a; stroke-width: 3; stroke-linecap: square"/>
   </g>
   <g id="line2d_147">
    <path d="M 123.718934 1263.8162 
L 112.227117 1279.63576 
L 98.237079 1301.029831 
L 90.142843 1311.726867 
L 73.654584 1338.69545 
L 65.460418 1351.652423 
L 57.965755 1364.458733 
L 44.475361 1386.003467 
L 39.279062 1392.255959 
L 5.303255 1430.448897 
" clip-path="url(#p3ad31e04e8)" style="fill: none; stroke: #7a7a7a; stroke-width: 3; stroke-linecap: square"/>
   </g>
   <g id="line2d_148">
    <path d="M 97.437648 1250.708565 
L 78.551097 1276.396517 
L 62.962197 1300.125857 
L 35.781552 1339.072106 
L 6.502401 1381.182268 
L -1 1391.554564 
" clip-path="url(#p3ad31e04e8)" style="fill: none; stroke: #7a7a7a; stroke-width: 3; stroke-linecap: square"/>
   </g>
   <g id="line2d_149">
    <path d="M 97.437648 1250.708565 
L -1 1357.283701 
" clip-path="url(#p3ad31e04e8)" style="fill: none; stroke: #7a7a7a; stroke-width: 3; stroke-linecap: square"/>
   </g>
   <g id="line2d_150">
    <path d="M 65.960063 1236.018974 
L -1 1311.762156 
" clip-path="url(#p3ad31e04e8)" style="fill: none; stroke: #7a7a7a; stroke-width: 3; stroke-linecap: square"/>
   </g>
   <g id="line2d_151">
    <path d="M 97.437648 1250.708565 
L 78.551097 1276.396517 
L 62.962197 1300.125857 
L 35.781552 1339.072106 
L 6.502401 1381.182268 
L -1 1391.554564 
" clip-path="url(#p3ad31e04e8)" style="fill: none; stroke: #7a7a7a; stroke-width: 3; stroke-linecap: square"/>
   </g>
   <g id="line2d_152">
    <path d="M 65.960063 1236.018974 
L -1 1337.928623 
" clip-path="url(#p3ad31e04e8)" style="fill: none; stroke: #7a7a7a; stroke-width: 3; stroke-linecap: square"/>
   </g>
   <g id="line2d_153">
    <path d="M 123.718934 1263.8162 
L -1 1397.456868 
" clip-path="url(#p3ad31e04e8)" style="fill: none; stroke: #7a7a7a; stroke-width: 3; stroke-linecap: square"/>
   </g>
   <g id="line2d_154">
    <path d="M 97.437648 1250.708565 
L -1 1357.283701 
" clip-path="url(#p3ad31e04e8)" style="fill: none; stroke: #7a7a7a; stroke-width: 3; stroke-linecap: square"/>
   </g>
   <g id="line2d_155">
    <path d="M 385.532502 490.616383 
L 388.630297 490.767046 
L 423.605392 490.541052 
L 468.973086 490.013733 
L 499.051668 489.863071 
L 528.830463 489.486415 
L 596.382361 487.904459 
" clip-path="url(#p3ad31e04e8)" style="fill: none; stroke: #7a7a7a; stroke-width: 3; stroke-linecap: square"/>
   </g>
   <g id="line2d_156">
    <path d="M 385.832289 516.454997 
L 445.989452 516.379666 
L 498.951739 515.777016 
L 550.814809 513.59241 
L 579.694244 512.236448 
" clip-path="url(#p3ad31e04e8)" style="fill: none; stroke: #7a7a7a; stroke-width: 3; stroke-linecap: square"/>
   </g>
   <g id="line2d_157">
    <path d="M 385.832289 516.454997 
L 445.989452 516.379666 
L 498.951739 515.777016 
L 550.814809 513.59241 
L 579.694244 512.236448 
" clip-path="url(#p3ad31e04e8)" style="fill: none; stroke: #7a7a7a; stroke-width: 3; stroke-linecap: square"/>
   </g>
   <g id="line2d_158">
    <path d="M 386.531791 542.896262 
L 479.165828 542.745599 
L 499.151597 542.594937 
L 531.7284 541.615631 
L 560.707764 540.636325 
" clip-path="url(#p3ad31e04e8)" style="fill: none; stroke: #7a7a7a; stroke-width: 3; stroke-linecap: square"/>
   </g>
   <g id="line2d_159">
    <path d="M 1056.752394 517.036019 
L 1058.899303 523.677159 
" clip-path="url(#p3ad31e04e8)" style="fill: none; stroke-dasharray: 32,8,5,8; stroke-dashoffset: 0; stroke: #1e90ff; stroke-width: 5"/>
   </g>
   <g id="line2d_160">
    <path d="M 947.845569 330.037626 
L 949.685079 329.279899 
" clip-path="url(#p3ad31e04e8)" style="fill: none; stroke-dasharray: 32,8,5,8; stroke-dashoffset: 0; stroke: #1e90ff; stroke-width: 5"/>
   </g>
   <g id="line2d_161">
    <path d="M 498.917194 899.708036 
L 534.214325 864.00846 
" clip-path="url(#p3ad31e04e8)" style="fill: none; stroke-dasharray: 32,8,5,8; stroke-dashoffset: 0; stroke: #1e90ff; stroke-width: 5"/>
   </g>
   <g id="line2d_162">
    <path d="M 199.857686 1214.006289 
L 288.520137 1122.784869 
" clip-path="url(#p3ad31e04e8)" style="fill: none; stroke-dasharray: 32,8,5,8; stroke-dashoffset: 0; stroke: #1e90ff; stroke-width: 5"/>
   </g>
   <g id="line2d_163">
    <path d="M 776.68327 628.925711 
L 1105.50186 277.395878 
" clip-path="url(#p3ad31e04e8)" style="fill: none; stroke-dasharray: 32,8,5,8; stroke-dashoffset: 0; stroke: #1e90ff; stroke-width: 5"/>
   </g>
   <g id="line2d_164">
    <path d="M 352.488259 1093.419296 
L 604.076687 807.613024 
" clip-path="url(#p3ad31e04e8)" style="fill: none; stroke-dasharray: 32,8,5,8; stroke-dashoffset: 0; stroke: #1e90ff; stroke-width: 5"/>
   </g>
   <g id="line2d_165">
    <path d="M 641.35483 793.918776 
L 914.651432 494.451361 
" clip-path="url(#p3ad31e04e8)" style="fill: none; stroke-dasharray: 32,8,5,8; stroke-dashoffset: 0; stroke: #1e90ff; stroke-width: 5"/>
   </g>
   <g id="line2d_166">
    <path d="M 370.693069 520.101868 
L 364.72076 520.977299 
" clip-path="url(#p3ad31e04e8)" style="fill: none; stroke-dasharray: 32,8,5,8; stroke-dashoffset: 0; stroke: #1e90ff; stroke-width: 5"/>
   </g>
   <g id="line2d_167">
    <path d="M 997.51723 272.474335 
L 988.539248 280.382644 
" clip-path="url(#p3ad31e04e8)" style="fill: none; stroke-dasharray: 32,8,5,8; stroke-dashoffset: 0; stroke: #1e90ff; stroke-width: 5"/>
   </g>
   <g id="line2d_168">
    <path d="M 731.159046 760.117194 
L 735.062517 766.879718 
" clip-path="url(#p3ad31e04e8)" style="fill: none; stroke-dasharray: 32,8,5,8; stroke-dashoffset: 0; stroke: #1e90ff; stroke-width: 5"/>
   </g>
   <g id="line2d_169">
    <path d="M 385.980035 994.653718 
L 401.754935 994.515782 
" clip-path="url(#p3ad31e04e8)" style="fill: none; stroke-dasharray: 32,8,5,8; stroke-dashoffset: 0; stroke: #1e90ff; stroke-width: 5"/>
   </g>
   <g id="line2d_170">
    <path d="M 1056.752394 517.036019 
" clip-path="url(#p3ad31e04e8)" style="fill: none; stroke: #0000ff; stroke-width: 1.5; stroke-linecap: square"/>
    <defs>
     <path id="mdc4ee2296c" d="M 0 10 
C 2.652031 10 5.195799 8.946337 7.071068 7.071068 
C 8.946337 5.195799 10 2.652031 10 0 
C 10 -2.652031 8.946337 -5.195799 7.071068 -7.071068 
C 5.195799 -8.946337 2.652031 -10 0 -10 
C -2.652031 -10 -5.195799 -8.946337 -7.071068 -7.071068 
C -8.946337 -5.195799 -10 -2.652031 -10 0 
C -10 2.652031 -8.946337 5.195799 -7.071068 7.071068 
C -5.195799 8.946337 -2.652031 10 0 10 
z
" style="stroke: #0000ff"/>
    </defs>
    <g clip-path="url(#p3ad31e04e8)">
     <use xlink:href="#mdc4ee2296c" x="1056.752394" y="517.036019" style="fill: #0000ff; stroke: #0000ff"/>
    </g>
   </g>
   <g id="line2d_171">
    <path d="M 947.845569 330.037626 
" clip-path="url(#p3ad31e04e8)" style="fill: none; stroke: #0000ff; stroke-width: 1.5; stroke-linecap: square"/>
    <g clip-path="url(#p3ad31e04e8)">
     <use xlink:href="#mdc4ee2296c" x="947.845569" y="330.037626" style="fill: #0000ff; stroke: #0000ff"/>
    </g>
   </g>
   <g id="line2d_172">
    <path d="M 498.917194 899.708036 
" clip-path="url(#p3ad31e04e8)" style="fill: none; stroke: #0000ff; stroke-width: 1.5; stroke-linecap: square"/>
    <g clip-path="url(#p3ad31e04e8)">
     <use xlink:href="#mdc4ee2296c" x="498.917194" y="899.708036" style="fill: #0000ff; stroke: #0000ff"/>
    </g>
   </g>
   <g id="line2d_173">
    <path d="M 199.857686 1214.006289 
" clip-path="url(#p3ad31e04e8)" style="fill: none; stroke: #0000ff; stroke-width: 1.5; stroke-linecap: square"/>
    <g clip-path="url(#p3ad31e04e8)">
     <use xlink:href="#mdc4ee2296c" x="199.857686" y="1214.006289" style="fill: #0000ff; stroke: #0000ff"/>
    </g>
   </g>
   <g id="line2d_174">
    <path d="M 776.68327 628.925711 
" clip-path="url(#p3ad31e04e8)" style="fill: none; stroke: #0000ff; stroke-width: 1.5; stroke-linecap: square"/>
    <g clip-path="url(#p3ad31e04e8)">
     <use xlink:href="#mdc4ee2296c" x="776.68327" y="628.925711" style="fill: #0000ff; stroke: #0000ff"/>
    </g>
   </g>
   <g id="line2d_175">
    <path d="M 352.488259 1093.419296 
" clip-path="url(#p3ad31e04e8)" style="fill: none; stroke: #0000ff; stroke-width: 1.5; stroke-linecap: square"/>
    <g clip-path="url(#p3ad31e04e8)">
     <use xlink:href="#mdc4ee2296c" x="352.488259" y="1093.419296" style="fill: #0000ff; stroke: #0000ff"/>
    </g>
   </g>
   <g id="line2d_176">
    <path d="M 641.35483 793.918776 
" clip-path="url(#p3ad31e04e8)" style="fill: none; stroke: #0000ff; stroke-width: 1.5; stroke-linecap: square"/>
    <g clip-path="url(#p3ad31e04e8)">
     <use xlink:href="#mdc4ee2296c" x="641.35483" y="793.918776" style="fill: #0000ff; stroke: #0000ff"/>
    </g>
   </g>
   <g id="line2d_177">
    <path d="M 370.693069 520.101868 
" clip-path="url(#p3ad31e04e8)" style="fill: none; stroke: #0000ff; stroke-width: 1.5; stroke-linecap: square"/>
    <g clip-path="url(#p3ad31e04e8)">
     <use xlink:href="#mdc4ee2296c" x="370.693069" y="520.101868" style="fill: #0000ff; stroke: #0000ff"/>
    </g>
   </g>
   <g id="line2d_178">
    <path d="M 997.51723 272.474335 
" clip-path="url(#p3ad31e04e8)" style="fill: none; stroke: #0000ff; stroke-width: 1.5; stroke-linecap: square"/>
    <g clip-path="url(#p3ad31e04e8)">
     <use xlink:href="#mdc4ee2296c" x="997.51723" y="272.474335" style="fill: #0000ff; stroke: #0000ff"/>
    </g>
   </g>
   <g id="line2d_179">
    <path d="M 731.159046 760.117194 
" clip-path="url(#p3ad31e04e8)" style="fill: none; stroke: #0000ff; stroke-width: 1.5; stroke-linecap: square"/>
    <g clip-path="url(#p3ad31e04e8)">
     <use xlink:href="#mdc4ee2296c" x="731.159046" y="760.117194" style="fill: #0000ff; stroke: #0000ff"/>
    </g>
   </g>
   <g id="line2d_180">
    <path d="M 385.980035 994.653718 
" clip-path="url(#p3ad31e04e8)" style="fill: none; stroke: #0000ff; stroke-width: 1.5; stroke-linecap: square"/>
    <g clip-path="url(#p3ad31e04e8)">
     <use xlink:href="#mdc4ee2296c" x="385.980035" y="994.653718" style="fill: #0000ff; stroke: #0000ff"/>
    </g>
   </g>
   <g id="line2d_181">
    <path d="M 1058.899303 523.677159 
" clip-path="url(#p3ad31e04e8)" style="fill: none; stroke: #ff0000; stroke-width: 1.5; stroke-linecap: square"/>
    <defs>
     <path id="m13dc35b327" d="M 0 -10 
L -2.24514 -3.09017 
L -9.510565 -3.09017 
L -3.632713 1.18034 
L -5.877853 8.09017 
L -0 3.81966 
L 5.877853 8.09017 
L 3.632713 1.18034 
L 9.510565 -3.09017 
L 2.24514 -3.09017 
z
" style="stroke: #ff0000; stroke-linejoin: bevel"/>
    </defs>
    <g clip-path="url(#p3ad31e04e8)">
     <use xlink:href="#m13dc35b327" x="1058.899303" y="523.677159" style="fill: #ff0000; stroke: #ff0000; stroke-linejoin: bevel"/>
    </g>
   </g>
   <g id="line2d_182">
    <path d="M 949.685079 329.279899 
" clip-path="url(#p3ad31e04e8)" style="fill: none; stroke: #ff0000; stroke-width: 1.5; stroke-linecap: square"/>
    <g clip-path="url(#p3ad31e04e8)">
     <use xlink:href="#m13dc35b327" x="949.685079" y="329.279899" style="fill: #ff0000; stroke: #ff0000; stroke-linejoin: bevel"/>
    </g>
   </g>
   <g id="line2d_183">
    <path d="M 534.214325 864.00846 
" clip-path="url(#p3ad31e04e8)" style="fill: none; stroke: #ff0000; stroke-width: 1.5; stroke-linecap: square"/>
    <g clip-path="url(#p3ad31e04e8)">
     <use xlink:href="#m13dc35b327" x="534.214325" y="864.00846" style="fill: #ff0000; stroke: #ff0000; stroke-linejoin: bevel"/>
    </g>
   </g>
   <g id="line2d_184">
    <path d="M 288.520137 1122.784869 
" clip-path="url(#p3ad31e04e8)" style="fill: none; stroke: #ff0000; stroke-width: 1.5; stroke-linecap: square"/>
    <g clip-path="url(#p3ad31e04e8)">
     <use xlink:href="#m13dc35b327" x="288.520137" y="1122.784869" style="fill: #ff0000; stroke: #ff0000; stroke-linejoin: bevel"/>
    </g>
   </g>
   <g id="line2d_185">
    <path d="M 1105.50186 277.395878 
" clip-path="url(#p3ad31e04e8)" style="fill: none; stroke: #ff0000; stroke-width: 1.5; stroke-linecap: square"/>
    <g clip-path="url(#p3ad31e04e8)">
     <use xlink:href="#m13dc35b327" x="1105.50186" y="277.395878" style="fill: #ff0000; stroke: #ff0000; stroke-linejoin: bevel"/>
    </g>
   </g>
   <g id="line2d_186">
    <path d="M 604.076687 807.613024 
" clip-path="url(#p3ad31e04e8)" style="fill: none; stroke: #ff0000; stroke-width: 1.5; stroke-linecap: square"/>
    <g clip-path="url(#p3ad31e04e8)">
     <use xlink:href="#m13dc35b327" x="604.076687" y="807.613024" style="fill: #ff0000; stroke: #ff0000; stroke-linejoin: bevel"/>
    </g>
   </g>
   <g id="line2d_187">
    <path d="M 914.651432 494.451361 
" clip-path="url(#p3ad31e04e8)" style="fill: none; stroke: #ff0000; stroke-width: 1.5; stroke-linecap: square"/>
    <g clip-path="url(#p3ad31e04e8)">
     <use xlink:href="#m13dc35b327" x="914.651432" y="494.451361" style="fill: #ff0000; stroke: #ff0000; stroke-linejoin: bevel"/>
    </g>
   </g>
   <g id="line2d_188">
    <path d="M 364.72076 520.977299 
" clip-path="url(#p3ad31e04e8)" style="fill: none; stroke: #ff0000; stroke-width: 1.5; stroke-linecap: square"/>
    <g clip-path="url(#p3ad31e04e8)">
     <use xlink:href="#m13dc35b327" x="364.72076" y="520.977299" style="fill: #ff0000; stroke: #ff0000; stroke-linejoin: bevel"/>
    </g>
   </g>
   <g id="line2d_189">
    <path d="M 988.539248 280.382644 
" clip-path="url(#p3ad31e04e8)" style="fill: none; stroke: #ff0000; stroke-width: 1.5; stroke-linecap: square"/>
    <g clip-path="url(#p3ad31e04e8)">
     <use xlink:href="#m13dc35b327" x="988.539248" y="280.382644" style="fill: #ff0000; stroke: #ff0000; stroke-linejoin: bevel"/>
    </g>
   </g>
   <g id="line2d_190">
    <path d="M 735.062517 766.879718 
" clip-path="url(#p3ad31e04e8)" style="fill: none; stroke: #ff0000; stroke-width: 1.5; stroke-linecap: square"/>
    <g clip-path="url(#p3ad31e04e8)">
     <use xlink:href="#m13dc35b327" x="735.062517" y="766.879718" style="fill: #ff0000; stroke: #ff0000; stroke-linejoin: bevel"/>
    </g>
   </g>
   <g id="line2d_191">
    <path d="M 401.754935 994.515782 
" clip-path="url(#p3ad31e04e8)" style="fill: none; stroke: #ff0000; stroke-width: 1.5; stroke-linecap: square"/>
    <g clip-path="url(#p3ad31e04e8)">
     <use xlink:href="#m13dc35b327" x="401.754935" y="994.515782" style="fill: #ff0000; stroke: #ff0000; stroke-linejoin: bevel"/>
    </g>
   </g>
  </g>
 </g>
 <defs>
  <clipPath id="p3ad31e04e8">
   <rect x="0" y="0" width="1440" height="1440"/>
  </clipPath>
 </defs>
</svg>
