<?xml version="1.0" encoding="utf-8" standalone="no"?>
<!DOCTYPE svg PUBLIC "-//W3C//DTD SVG 1.1//EN"
  "http://www.w3.org/Graphics/SVG/1.1/DTD/svg11.dtd">
<svg xmlns:xlink="http://www.w3.org/1999/xlink" width="1440pt" height="1440pt" viewBox="0 0 1440 1440" xmlns="http://www.w3.org/2000/svg" version="1.1">
 <metadata>
  <rdf:RDF xmlns:dc="http://purl.org/dc/elements/1.1/" xmlns:cc="http://creativecommons.org/ns#" xmlns:rdf="http://www.w3.org/1999/02/22-rdf-syntax-ns#">
   <cc:Work>
    <dc:type rdf:resource="http://purl.org/dc/dcmitype/StillImage"/>
    <dc:date>2026-02-27T11:12:02.237597</dc:date>
    <dc:format>image/svg+xml</dc:format>
    <dc:creator>
     <cc:Agent>
      <dc:title>Matplotlib v3.7.3, https://matplotlib.org/</dc:title>
     </cc:Agent>
    </dc:creator>
   </cc:Work>
  </rdf:RDF>
 </metadata>
 <defs>
  <style type="text/css">*{stroke-linejoin: round; stroke-linecap: butt}</style>
 </defs>
 <g id="figure_1">
  <g id="patch_1">
   <path d="M 0 1440 
L 1440 1440 
L 1440 0 
L 0 0 
z
" style="fill: #ffffff"/>
  </g>
  <g id="axes_1">
   <g id="line2d_1">
    <path d="M 115.968447 818.723466 
L 97.91178 950.61244 
" clip-path="url(#p2c59983b7e)" style="fill: none; stroke: #7a7a7a; stroke-width: 3; stroke-linecap: square"/>
   </g>
   <g id="line2d_2">
    <path d="M 81.464122 818.723466 
L 66.089138 926.904301 
" clip-path="url(#p2c59983b7e)" style="fill: none; stroke: #7a7a7a; stroke-width: 3; stroke-linecap: square"/>
   </g>
   <g id="line2d_3">
    <path d="M 1133.30969 399.946092 
L 1124.638914 458.120684 
L 1118.381653 494.579419 
L 1108.548815 533.42889 
L 1100.950712 548.171766 
L 1088.078632 552.554783 
L 1072.882427 545.781029 
L 1051.965298 534.225802 
L 1036.322145 525.061311 
" clip-path="url(#p2c59983b7e)" style="fill: none; stroke: #7a7a7a; stroke-width: 3; stroke-linecap: square"/>
   </g>
   <g id="line2d_4">
    <path d="M 1112.660729 388.590092 
L 1109.800267 409.907495 
L 1105.777742 438.596335 
L 1103.989953 447.163141 
L 1101.844606 454.136123 
L 1099.788649 459.913737 
L 1095.319177 466.488263 
L 1087.095348 475.851981 
L 1081.642592 480.03577 
L 1078.513962 481.231139 
L 1077.888236 481.430367 
L 1072.882427 481.629595 
L 1070.021965 480.832683 
L 1065.731272 479.438086 
L 1060.725463 477.04735 
L 1045.350479 466.488263 
" clip-path="url(#p2c59983b7e)" style="fill: none; stroke: #7a7a7a; stroke-width: 3; stroke-linecap: square"/>
   </g>
   <g id="line2d_5">
    <path d="M 1178.808916 434.412545 
L 1089.687642 1071.344642 
" clip-path="url(#p2c59983b7e)" style="fill: none; stroke: #7a7a7a; stroke-width: 3; stroke-linecap: square"/>
   </g>
   <g id="line2d_6">
    <path d="M 1146.986275 412.696687 
L 1058.937674 1050.624924 
" clip-path="url(#p2c59983b7e)" style="fill: none; stroke: #7a7a7a; stroke-width: 3; stroke-linecap: square"/>
   </g>
   <g id="line2d_7">
    <path d="M 1010.756765 714.925649 
L 1254.968721 886.859462 
" clip-path="url(#p2c59983b7e)" style="fill: none; stroke: #7a7a7a; stroke-width: 3; stroke-linecap: square"/>
   </g>
   <g id="line2d_8">
    <path d="M 1003.248051 768.916452 
L 1246.566113 939.455669 
" clip-path="url(#p2c59983b7e)" style="fill: none; stroke: #7a7a7a; stroke-width: 3; stroke-linecap: square"/>
   </g>
   <g id="line2d_9">
    <path d="M 123.030213 968.742193 
L 145.020016 818.723466 
" clip-path="url(#p2c59983b7e)" style="fill: none; stroke: #7a7a7a; stroke-width: 3; stroke-linecap: square"/>
   </g>
   <g id="line2d_10">
    <path d="M 146.092689 986.075034 
L 170.406617 829.083325 
L 172.015627 818.723466 
" clip-path="url(#p2c59983b7e)" style="fill: none; stroke: #7a7a7a; stroke-width: 3; stroke-linecap: square"/>
   </g>
   <g id="line2d_11">
    <path d="M 1036.322145 525.061311 
L 715.145879 303.121256 
L 714.788321 302.922028 
" clip-path="url(#p2c59983b7e)" style="fill: none; stroke: #7a7a7a; stroke-width: 3; stroke-linecap: square"/>
   </g>
   <g id="line2d_12">
    <path d="M 1045.350479 466.488263 
L 715.235268 236.778313 
L 714.788321 236.579085 
" clip-path="url(#p2c59983b7e)" style="fill: none; stroke: #7a7a7a; stroke-width: 3; stroke-linecap: square"/>
   </g>
   <g id="line2d_13">
    <path d="M 995.203002 826.891817 
L 1237.090833 998.825629 
" clip-path="url(#p2c59983b7e)" style="fill: none; stroke: #7a7a7a; stroke-width: 3; stroke-linecap: square"/>
   </g>
   <g id="line2d_14">
    <path d="M 986.174668 892.238619 
L 1227.794331 1057.000222 
" clip-path="url(#p2c59983b7e)" style="fill: none; stroke: #7a7a7a; stroke-width: 3; stroke-linecap: square"/>
   </g>
   <g id="line2d_15">
    <path d="M 97.91178 950.61244 
L 115.968447 818.723466 
" clip-path="url(#p2c59983b7e)" style="fill: none; stroke: #7a7a7a; stroke-width: 3; stroke-linecap: square"/>
   </g>
   <g id="line2d_16">
    <path d="M 123.030213 968.742193 
L 145.020016 818.723466 
" clip-path="url(#p2c59983b7e)" style="fill: none; stroke: #7a7a7a; stroke-width: 3; stroke-linecap: square"/>
   </g>
   <g id="line2d_17">
    <path d="M 1274.276841 748.794419 
L 1027.204422 583.833588 
" clip-path="url(#p2c59983b7e)" style="fill: none; stroke: #7a7a7a; stroke-width: 3; stroke-linecap: square"/>
   </g>
   <g id="line2d_18">
    <path d="M 1282.232501 694.803615 
L 1036.322145 525.061311 
" clip-path="url(#p2c59983b7e)" style="fill: none; stroke: #7a7a7a; stroke-width: 3; stroke-linecap: square"/>
   </g>
   <g id="line2d_19">
    <path d="M 1207.145369 453.936895 
L 1118.292264 1090.669764 
" clip-path="url(#p2c59983b7e)" style="fill: none; stroke: #7a7a7a; stroke-width: 3; stroke-linecap: square"/>
   </g>
   <g id="line2d_20">
    <path d="M 1178.808916 434.412545 
L 1089.687642 1071.344642 
" clip-path="url(#p2c59983b7e)" style="fill: none; stroke: #7a7a7a; stroke-width: 3; stroke-linecap: square"/>
   </g>
   <g id="line2d_21">
    <path d="M 1254.164216 485.813384 
L 1250.856807 506.533102 
L 1247.549397 531.635837 
L 1247.370618 534.823486 
L 1166.205005 1123.143937 
" clip-path="url(#p2c59983b7e)" style="fill: none; stroke: #7a7a7a; stroke-width: 3; stroke-linecap: square"/>
   </g>
   <g id="line2d_22">
    <path d="M 1207.145369 453.936895 
L 1118.292264 1090.669764 
" clip-path="url(#p2c59983b7e)" style="fill: none; stroke: #7a7a7a; stroke-width: 3; stroke-linecap: square"/>
   </g>
   <g id="line2d_23">
    <path d="M 714.788321 512.9084 
L 1008.164471 713.730281 
L 1010.756765 714.925649 
" clip-path="url(#p2c59983b7e)" style="fill: none; stroke: #7a7a7a; stroke-width: 3; stroke-linecap: square"/>
   </g>
   <g id="line2d_24">
    <path d="M 714.788321 570.883764 
L 1003.248051 768.916452 
" clip-path="url(#p2c59983b7e)" style="fill: none; stroke: #7a7a7a; stroke-width: 3; stroke-linecap: square"/>
   </g>
   <g id="line2d_25">
    <path d="M 360.627351 59.266115 
L 345.162977 48.707028 
L 323.977679 35.358748 
L 306.725517 16.232855 
L 296.802758 -1 
" clip-path="url(#p2c59983b7e)" style="fill: none; stroke: #7a7a7a; stroke-width: 3; stroke-linecap: square"/>
   </g>
   <g id="line2d_26">
    <path d="M 369.923853 1.489979 
L 366.277139 -1 
" clip-path="url(#p2c59983b7e)" style="fill: none; stroke: #7a7a7a; stroke-width: 3; stroke-linecap: square"/>
   </g>
   <g id="line2d_27">
    <path d="M 1089.687642 1071.344642 
L 1038.147587 1441 
" clip-path="url(#p2c59983b7e)" style="fill: none; stroke: #7a7a7a; stroke-width: 3; stroke-linecap: square"/>
   </g>
   <g id="line2d_28">
    <path d="M 1058.937674 1050.624924 
L 1004.074829 1441 
" clip-path="url(#p2c59983b7e)" style="fill: none; stroke: #7a7a7a; stroke-width: 3; stroke-linecap: square"/>
   </g>
   <g id="line2d_29">
    <path d="M 995.203002 826.891817 
L 1038.288713 856.576797 
L 1054.110644 873.511182 
L 1067.787229 897.418549 
L 1078.87152 926.705073 
L 1087.005959 960.175387 
L 1091.832989 996.235665 
L 1092.816273 1033.889767 
L 1089.687642 1071.344642 
" clip-path="url(#p2c59983b7e)" style="fill: none; stroke: #7a7a7a; stroke-width: 3; stroke-linecap: square"/>
   </g>
   <g id="line2d_30">
    <path d="M 986.174668 892.238619 
L 1029.260379 921.9236 
L 1041.059786 932.283459 
L 1050.713845 955.593141 
L 1057.596832 986.47349 
L 1060.636073 1019.943803 
L 1058.937674 1050.624924 
" clip-path="url(#p2c59983b7e)" style="fill: none; stroke: #7a7a7a; stroke-width: 3; stroke-linecap: square"/>
   </g>
   <g id="line2d_31">
    <path d="M 714.788321 570.883764 
L 1003.248051 768.916452 
" clip-path="url(#p2c59983b7e)" style="fill: none; stroke: #7a7a7a; stroke-width: 3; stroke-linecap: square"/>
   </g>
   <g id="line2d_32">
    <path d="M 714.788321 637.226707 
L 995.203002 826.891817 
" clip-path="url(#p2c59983b7e)" style="fill: none; stroke: #7a7a7a; stroke-width: 3; stroke-linecap: square"/>
   </g>
   <g id="line2d_33">
    <path d="M 1058.937674 1050.624924 
L 1004.074829 1441 
" clip-path="url(#p2c59983b7e)" style="fill: none; stroke: #7a7a7a; stroke-width: 3; stroke-linecap: square"/>
   </g>
   <g id="line2d_34">
    <path d="M 1043.383911 1040.065837 
L 1004.141946 1319.5828 
L 986.985835 1441 
" clip-path="url(#p2c59983b7e)" style="fill: none; stroke: #7a7a7a; stroke-width: 3; stroke-linecap: square"/>
   </g>
   <g id="line2d_35">
    <path d="M 662.227329 330.216272 
L 453.771149 183.584422 
" clip-path="url(#p2c59983b7e)" style="fill: none; stroke: #7a7a7a; stroke-width: 3; stroke-linecap: square"/>
   </g>
   <g id="line2d_36">
    <path d="M 668.216422 271.842451 
L 462.710094 127.601339 
" clip-path="url(#p2c59983b7e)" style="fill: none; stroke: #7a7a7a; stroke-width: 3; stroke-linecap: square"/>
   </g>
   <g id="line2d_37">
    <path clip-path="url(#p2c59983b7e)" style="fill: none; stroke: #7a7a7a; stroke-width: 3; stroke-linecap: square"/>
   </g>
   <g id="line2d_38">
    <path clip-path="url(#p2c59983b7e)" style="fill: none; stroke: #7a7a7a; stroke-width: 3; stroke-linecap: square"/>
   </g>
   <g id="line2d_39">
    <path d="M 1166.205005 1123.143937 
L 1156.729724 1189.088423 
L 1121.155353 1441 
" clip-path="url(#p2c59983b7e)" style="fill: none; stroke: #7a7a7a; stroke-width: 3; stroke-linecap: square"/>
   </g>
   <g id="line2d_40">
    <path d="M 1118.292264 1090.669764 
L 1069.331629 1441 
" clip-path="url(#p2c59983b7e)" style="fill: none; stroke: #7a7a7a; stroke-width: 3; stroke-linecap: square"/>
   </g>
   <g id="line2d_41">
    <path d="M 1174.607612 221.039297 
L 1146.986275 412.696687 
" clip-path="url(#p2c59983b7e)" style="fill: none; stroke: #7a7a7a; stroke-width: 3; stroke-linecap: square"/>
   </g>
   <g id="line2d_42">
    <path d="M 1157.802397 221.039297 
L 1133.399079 399.946092 
" clip-path="url(#p2c59983b7e)" style="fill: none; stroke: #7a7a7a; stroke-width: 3; stroke-linecap: square"/>
   </g>
   <g id="line2d_43">
    <path d="M 1118.292264 1090.669764 
L 1069.331629 1441 
" clip-path="url(#p2c59983b7e)" style="fill: none; stroke: #7a7a7a; stroke-width: 3; stroke-linecap: square"/>
   </g>
   <g id="line2d_44">
    <path d="M 1089.687642 1071.344642 
L 1038.147587 1441 
" clip-path="url(#p2c59983b7e)" style="fill: none; stroke: #7a7a7a; stroke-width: 3; stroke-linecap: square"/>
   </g>
   <g id="line2d_45">
    <path d="M 433.569136 235.782173 
L 335.866475 164.259301 
" clip-path="url(#p2c59983b7e)" style="fill: none; stroke: #7a7a7a; stroke-width: 3; stroke-linecap: square"/>
   </g>
   <g id="line2d_46">
    <path d="M 453.771149 183.584422 
L 348.470386 108.873901 
" clip-path="url(#p2c59983b7e)" style="fill: none; stroke: #7a7a7a; stroke-width: 3; stroke-linecap: square"/>
   </g>
   <g id="line2d_47">
    <path d="M 1266.32118 803.582134 
L 1018.801814 638.222847 
" clip-path="url(#p2c59983b7e)" style="fill: none; stroke: #7a7a7a; stroke-width: 3; stroke-linecap: square"/>
   </g>
   <g id="line2d_48">
    <path d="M 1274.276841 748.794419 
L 1027.204422 583.833588 
" clip-path="url(#p2c59983b7e)" style="fill: none; stroke: #7a7a7a; stroke-width: 3; stroke-linecap: square"/>
   </g>
   <g id="line2d_49">
    <path d="M 1027.204422 583.833588 
L 715.145879 365.878094 
L 714.788321 365.678866 
" clip-path="url(#p2c59983b7e)" style="fill: none; stroke: #7a7a7a; stroke-width: 3; stroke-linecap: square"/>
   </g>
   <g id="line2d_50">
    <path d="M 1036.322145 525.061311 
L 715.145879 303.121256 
L 714.788321 302.922028 
" clip-path="url(#p2c59983b7e)" style="fill: none; stroke: #7a7a7a; stroke-width: 3; stroke-linecap: square"/>
   </g>
   <g id="line2d_51">
    <path d="M 1256.577731 870.124305 
L 1236.912054 856.377569 
L 1220.196228 849.404587 
L 1203.033455 847.412307 
L 1185.513124 849.803043 
L 1167.992794 856.377569 
L 1150.830021 866.737428 
L 1134.292974 880.683392 
L 1118.560432 898.016233 
L 1103.989953 918.138267 
L 1090.939094 940.850265 
L 1079.586635 965.753772 
L 1070.290133 992.450332 
L 1063.317757 1020.939944 
L 1058.937674 1050.624924 
" clip-path="url(#p2c59983b7e)" style="fill: none; stroke: #7a7a7a; stroke-width: 3; stroke-linecap: square"/>
   </g>
   <g id="line2d_52">
    <path d="M 1266.32118 803.582134 
L 1246.655503 789.835398 
L 1230.922961 781.866276 
L 1214.654083 778.479399 
L 1197.848867 779.475539 
L 1180.864873 784.854697 
L 1163.880879 793.819959 
L 1147.075664 806.570555 
L 1130.806786 822.708028 
L 1115.163633 841.833921 
L 1100.414375 863.948235 
L 1086.82718 888.453286 
L 1074.491437 915.349074 
L 1063.854093 944.237142 
L 1054.915149 974.719035 
L 1048.032162 1006.794752 
L 1043.383911 1040.065837 
" clip-path="url(#p2c59983b7e)" style="fill: none; stroke: #7a7a7a; stroke-width: 3; stroke-linecap: square"/>
   </g>
   <g id="line2d_53">
    <path d="M 335.866475 164.259301 
L 108.727902 4.876856 
L 108.370344 4.279172 
L 100.455576 -1 
" clip-path="url(#p2c59983b7e)" style="fill: none; stroke: #7a7a7a; stroke-width: 3; stroke-linecap: square"/>
   </g>
   <g id="line2d_54">
    <path d="M 348.470386 108.873901 
L 180.54676 -1 
" clip-path="url(#p2c59983b7e)" style="fill: none; stroke: #7a7a7a; stroke-width: 3; stroke-linecap: square"/>
   </g>
   <g id="line2d_55">
    <path d="M 1282.232501 694.803615 
L 1036.322145 525.061311 
" clip-path="url(#p2c59983b7e)" style="fill: none; stroke: #7a7a7a; stroke-width: 3; stroke-linecap: square"/>
   </g>
   <g id="line2d_56">
    <path d="M 1291.082056 634.039058 
L 1061.887526 477.645034 
L 1060.725463 477.04735 
L 1045.350479 466.488263 
" clip-path="url(#p2c59983b7e)" style="fill: none; stroke: #7a7a7a; stroke-width: 3; stroke-linecap: square"/>
   </g>
   <g id="line2d_57">
    <path d="M 453.771149 183.584422 
L 348.470386 108.873901 
" clip-path="url(#p2c59983b7e)" style="fill: none; stroke: #7a7a7a; stroke-width: 3; stroke-linecap: square"/>
   </g>
   <g id="line2d_58">
    <path d="M 462.710094 127.601339 
L 360.627351 59.266115 
" clip-path="url(#p2c59983b7e)" style="fill: none; stroke: #7a7a7a; stroke-width: 3; stroke-linecap: square"/>
   </g>
   <g id="line2d_59">
    <path d="M -1 145.951519 
L 86.827489 206.097193 
" clip-path="url(#p2c59983b7e)" style="fill: none; stroke: #7a7a7a; stroke-width: 3; stroke-linecap: square"/>
   </g>
   <g id="line2d_60">
    <path d="M -1 210.949703 
L 81.017175 265.86561 
" clip-path="url(#p2c59983b7e)" style="fill: none; stroke: #7a7a7a; stroke-width: 3; stroke-linecap: square"/>
   </g>
   <g id="line2d_61">
    <path d="M 1146.986275 412.696687 
L 1058.937674 1050.624924 
" clip-path="url(#p2c59983b7e)" style="fill: none; stroke: #7a7a7a; stroke-width: 3; stroke-linecap: square"/>
   </g>
   <g id="line2d_62">
    <path d="M 1133.399079 399.946092 
L 1043.383911 1040.065837 
" clip-path="url(#p2c59983b7e)" style="fill: none; stroke: #7a7a7a; stroke-width: 3; stroke-linecap: square"/>
   </g>
   <g id="line2d_63">
    <path d="M 1256.577731 870.124305 
L 1250.231081 865.741288 
L 1247.817566 865.940516 
L 1242.543589 863.549779 
L 1229.313951 867.733568 
L 1216.978208 881.480304 
L 1205.893917 903.196162 
L 1196.329247 931.685774 
L 1188.641755 965.753772 
L 1166.205005 1123.143937 
" clip-path="url(#p2c59983b7e)" style="fill: none; stroke: #7a7a7a; stroke-width: 3; stroke-linecap: square"/>
   </g>
   <g id="line2d_64">
    <path d="M 1266.32118 803.582134 
L 1247.638787 794.019187 
L 1229.224562 792.226135 
L 1211.346673 797.406064 
L 1194.630847 808.961292 
L 1179.255863 825.895676 
L 1165.758058 847.412307 
L 1154.494988 873.112726 
L 1146.002991 902.000794 
L 1140.639624 933.279599 
L 1118.292264 1090.669764 
" clip-path="url(#p2c59983b7e)" style="fill: none; stroke: #7a7a7a; stroke-width: 3; stroke-linecap: square"/>
   </g>
   <g id="line2d_65">
    <path d="M 247.375107 -1 
L 247.460317 2.884575 
L 250.588947 45.320151 
L 255.773535 84.966534 
L 262.745911 121.624497 
L 271.327298 154.696354 
L 281.428305 183.982879 
L 292.780764 209.085614 
L 305.205896 229.606103 
L 315.932629 241.958243 
L 317.362861 244.946664 
L 332.648455 255.306523 
" clip-path="url(#p2c59983b7e)" style="fill: none; stroke: #7a7a7a; stroke-width: 3; stroke-linecap: square"/>
   </g>
   <g id="line2d_66">
    <path d="M 195.972038 -1 
L 197.938566 17.029767 
L 203.480711 52.492361 
L 210.542477 87.158043 
L 218.945085 120.628357 
L 228.599144 152.704074 
L 239.594046 182.588282 
L 251.66162 210.48021 
L 264.712479 235.582945 
L 278.746621 257.697259 
L 293.674658 276.424697 
L 309.4072 291.566029 
L 325.854858 302.7228 
" clip-path="url(#p2c59983b7e)" style="fill: none; stroke: #7a7a7a; stroke-width: 3; stroke-linecap: square"/>
   </g>
   <g id="line2d_67">
    <path d="M 1018.801814 638.222847 
L 1015.673184 635.035198 
L 715.145879 428.83416 
L 714.788321 428.634932 
" clip-path="url(#p2c59983b7e)" style="fill: none; stroke: #7a7a7a; stroke-width: 3; stroke-linecap: square"/>
   </g>
   <g id="line2d_68">
    <path d="M 1027.204422 583.833588 
L 715.145879 365.878094 
L 714.788321 365.678866 
" clip-path="url(#p2c59983b7e)" style="fill: none; stroke: #7a7a7a; stroke-width: 3; stroke-linecap: square"/>
   </g>
   <g id="line2d_69">
    <path d="M 323.977679 221.437753 
L 310.211705 211.277122 
L 293.853437 201.714176 
L 277.584559 199.323439 
L 259.974839 203.905684 
L 242.365118 214.066315 
L 225.381124 229.008419 
L 209.469804 248.731997 
L 195.346272 272.639364 
L 185.513433 310.293466 
L 173.088301 400.344548 
L 169.512723 437.600194 
" clip-path="url(#p2c59983b7e)" style="fill: none; stroke: #7a7a7a; stroke-width: 3; stroke-linecap: square"/>
   </g>
   <g id="line2d_70">
    <path d="M 335.866475 164.259301 
L 304.312002 142.344215 
L 287.05984 132.58204 
L 271.953024 130.788987 
L 254.96903 136.168145 
L 238.163815 146.129548 
L 221.805547 160.473968 
L 206.251784 178.802949 
L 191.681305 200.917263 
L 178.451667 226.219226 
L 166.83104 254.310382 
L 157.17698 284.991503 
L 149.757656 317.664904 
L 144.841237 352.330586 
L 136.974966 428.83416 
" clip-path="url(#p2c59983b7e)" style="fill: none; stroke: #7a7a7a; stroke-width: 3; stroke-linecap: square"/>
   </g>
   <g id="line2d_71">
    <path d="M 1003.248051 768.916452 
L 1246.566113 939.455669 
" clip-path="url(#p2c59983b7e)" style="fill: none; stroke: #7a7a7a; stroke-width: 3; stroke-linecap: square"/>
   </g>
   <g id="line2d_72">
    <path d="M 995.203002 826.891817 
L 1237.090833 998.825629 
" clip-path="url(#p2c59983b7e)" style="fill: none; stroke: #7a7a7a; stroke-width: 3; stroke-linecap: square"/>
   </g>
   <g id="line2d_73">
    <path d="M 462.710094 127.601339 
L 360.627351 59.266115 
" clip-path="url(#p2c59983b7e)" style="fill: none; stroke: #7a7a7a; stroke-width: 3; stroke-linecap: square"/>
   </g>
   <g id="line2d_74">
    <path d="M 472.98988 72.215939 
L 410.864217 30.378047 
L 369.923853 1.489979 
" clip-path="url(#p2c59983b7e)" style="fill: none; stroke: #7a7a7a; stroke-width: 3; stroke-linecap: square"/>
   </g>
   <g id="line2d_75">
    <path d="M 100.057126 83.771166 
L 316.647745 243.552067 
L 317.362861 244.946664 
L 332.648455 255.306523 
" clip-path="url(#p2c59983b7e)" style="fill: none; stroke: #7a7a7a; stroke-width: 3; stroke-linecap: square"/>
   </g>
   <g id="line2d_76">
    <path d="M 93.978644 144.535723 
L 325.854858 302.7228 
" clip-path="url(#p2c59983b7e)" style="fill: none; stroke: #7a7a7a; stroke-width: 3; stroke-linecap: square"/>
   </g>
   <g id="line2d_77">
    <path d="M 360.627351 59.266115 
L 272.073329 -1 
" clip-path="url(#p2c59983b7e)" style="fill: none; stroke: #7a7a7a; stroke-width: 3; stroke-linecap: square"/>
   </g>
   <g id="line2d_78">
    <path d="M 369.923853 1.489979 
L 366.297437 -1 
" clip-path="url(#p2c59983b7e)" style="fill: none; stroke: #7a7a7a; stroke-width: 3; stroke-linecap: square"/>
   </g>
   <g id="line2d_79">
    <path d="M -1 79.791069 
L 93.978644 144.535723 
" clip-path="url(#p2c59983b7e)" style="fill: none; stroke: #7a7a7a; stroke-width: 3; stroke-linecap: square"/>
   </g>
   <g id="line2d_80">
    <path d="M -1 145.951519 
L 86.827489 206.097193 
" clip-path="url(#p2c59983b7e)" style="fill: none; stroke: #7a7a7a; stroke-width: 3; stroke-linecap: square"/>
   </g>
   <g id="line2d_81">
    <path d="M 115.968447 818.723466 
L 116.504784 815.336589 
L 169.512723 437.600194 
" clip-path="url(#p2c59983b7e)" style="fill: none; stroke: #7a7a7a; stroke-width: 3; stroke-linecap: square"/>
   </g>
   <g id="line2d_82">
    <path d="M 145.020016 818.723466 
L 145.466963 815.336589 
L 194.899325 456.327632 
" clip-path="url(#p2c59983b7e)" style="fill: none; stroke: #7a7a7a; stroke-width: 3; stroke-linecap: square"/>
   </g>
   <g id="line2d_83">
    <path d="M 659.903203 393.172338 
L 630.225909 378.230234 
L 604.213581 367.471919 
L 590.626386 363.088901 
L 429.904168 292.960625 
" clip-path="url(#p2c59983b7e)" style="fill: none; stroke: #7a7a7a; stroke-width: 3; stroke-linecap: square"/>
   </g>
   <g id="line2d_84">
    <path d="M 662.227329 330.216272 
L 433.569136 235.782173 
" clip-path="url(#p2c59983b7e)" style="fill: none; stroke: #7a7a7a; stroke-width: 3; stroke-linecap: square"/>
   </g>
   <g id="line2d_85">
    <path d="M 106.403777 31.772643 
L 125.801286 42.530958 
L 144.3049 50.101625 
L 161.735841 54.285414 
L 178.094109 54.68387 
L 193.290315 51.097765 
L 207.235068 43.327871 
L 219.928368 31.374187 
L 231.370217 14.639031 
L 238.515872 -1 
" clip-path="url(#p2c59983b7e)" style="fill: none; stroke: #7a7a7a; stroke-width: 3; stroke-linecap: square"/>
   </g>
   <g id="line2d_86">
    <path d="M 100.057126 83.771166 
L 124.639223 97.119446 
L 147.791088 106.283936 
L 169.423333 111.663094 
L 189.446569 112.858462 
L 207.950183 110.467726 
L 224.934177 104.092428 
L 240.398551 94.330253 
L 254.343304 80.782745 
L 266.679047 63.84836 
L 277.584559 43.527099 
L 286.881061 20.018188 
L 292.933419 -1 
" clip-path="url(#p2c59983b7e)" style="fill: none; stroke: #7a7a7a; stroke-width: 3; stroke-linecap: square"/>
   </g>
   <g id="line2d_87">
    <path d="M -1 16.031244 
L 100.057126 83.771166 
" clip-path="url(#p2c59983b7e)" style="fill: none; stroke: #7a7a7a; stroke-width: 3; stroke-linecap: square"/>
   </g>
   <g id="line2d_88">
    <path d="M -1 79.791069 
L 93.978644 144.535723 
" clip-path="url(#p2c59983b7e)" style="fill: none; stroke: #7a7a7a; stroke-width: 3; stroke-linecap: square"/>
   </g>
   <g id="line2d_89">
    <path d="M 714.788321 637.226707 
L 995.203002 826.891817 
" clip-path="url(#p2c59983b7e)" style="fill: none; stroke: #7a7a7a; stroke-width: 3; stroke-linecap: square"/>
   </g>
   <g id="line2d_90">
    <path d="M 714.788321 704.366562 
L 986.174668 892.238619 
" clip-path="url(#p2c59983b7e)" style="fill: none; stroke: #7a7a7a; stroke-width: 3; stroke-linecap: square"/>
   </g>
   <g id="line2d_91">
    <path clip-path="url(#p2c59983b7e)" style="fill: none; stroke: #7a7a7a; stroke-width: 3; stroke-linecap: square"/>
   </g>
   <g id="line2d_92">
    <path clip-path="url(#p2c59983b7e)" style="fill: none; stroke: #7a7a7a; stroke-width: 3; stroke-linecap: square"/>
   </g>
   <g id="line2d_93">
    <path d="M 169.512723 437.600194 
L 236.782117 -1 
" clip-path="url(#p2c59983b7e)" style="fill: none; stroke: #7a7a7a; stroke-width: 3; stroke-linecap: square"/>
   </g>
   <g id="line2d_94">
    <path d="M 194.899325 456.327632 
L 201.424754 393.96925 
L 279.205253 -1 
" clip-path="url(#p2c59983b7e)" style="fill: none; stroke: #7a7a7a; stroke-width: 3; stroke-linecap: square"/>
   </g>
   <g id="line2d_95">
    <path d="M 93.978644 144.535723 
L 325.854858 302.7228 
" clip-path="url(#p2c59983b7e)" style="fill: none; stroke: #7a7a7a; stroke-width: 3; stroke-linecap: square"/>
   </g>
   <g id="line2d_96">
    <path d="M 86.827489 206.097193 
L 315.753851 363.088901 
" clip-path="url(#p2c59983b7e)" style="fill: none; stroke: #7a7a7a; stroke-width: 3; stroke-linecap: square"/>
   </g>
   <g id="line2d_97">
    <path d="M 348.470386 108.873901 
L 180.54676 -1 
" clip-path="url(#p2c59983b7e)" style="fill: none; stroke: #7a7a7a; stroke-width: 3; stroke-linecap: square"/>
   </g>
   <g id="line2d_98">
    <path d="M 360.627351 59.266115 
L 272.073329 -1 
" clip-path="url(#p2c59983b7e)" style="fill: none; stroke: #7a7a7a; stroke-width: 3; stroke-linecap: square"/>
   </g>
   <g id="line2d_99">
    <path d="M 169.512723 437.600194 
L 116.504784 815.336589 
L 115.968447 818.723466 
" clip-path="url(#p2c59983b7e)" style="fill: none; stroke: #7a7a7a; stroke-width: 3; stroke-linecap: square"/>
   </g>
   <g id="line2d_100">
    <path d="M 136.974966 428.83416 
L 82.268627 813.145081 
L 82.089848 814.738905 
L 82.000459 815.336589 
L 81.464122 818.723466 
" clip-path="url(#p2c59983b7e)" style="fill: none; stroke: #7a7a7a; stroke-width: 3; stroke-linecap: square"/>
   </g>
   <g id="line2d_101">
    <path d="M 714.788321 365.678866 
L 714.520153 365.479638 
L 712.106638 363.686585 
L 711.123354 363.088901 
L 710.765796 362.889673 
L 662.227329 330.216272 
" clip-path="url(#p2c59983b7e)" style="fill: none; stroke: #7a7a7a; stroke-width: 3; stroke-linecap: square"/>
   </g>
   <g id="line2d_102">
    <path d="M 714.788321 302.922028 
L 714.520153 302.7228 
L 712.196027 301.128976 
L 711.123354 300.332063 
L 710.855186 300.132835 
L 668.216422 271.842451 
" clip-path="url(#p2c59983b7e)" style="fill: none; stroke: #7a7a7a; stroke-width: 3; stroke-linecap: square"/>
   </g>
   <g id="line2d_103">
    <path d="M 86.827489 206.097193 
L 315.753851 363.088901 
" clip-path="url(#p2c59983b7e)" style="fill: none; stroke: #7a7a7a; stroke-width: 3; stroke-linecap: square"/>
   </g>
   <g id="line2d_104">
    <path d="M 81.017175 265.86561 
L 85.754815 268.057118 
L 97.017885 275.627784 
L 100.861631 279.811574 
L 305.027117 422.65809 
" clip-path="url(#p2c59983b7e)" style="fill: none; stroke: #7a7a7a; stroke-width: 3; stroke-linecap: square"/>
   </g>
   <g id="line2d_105">
    <path d="M 714.788321 302.922028 
L 714.520153 302.7228 
L 712.196027 301.128976 
L 711.123354 300.332063 
L 710.855186 300.132835 
L 668.216422 271.842451 
" clip-path="url(#p2c59983b7e)" style="fill: none; stroke: #7a7a7a; stroke-width: 3; stroke-linecap: square"/>
   </g>
   <g id="line2d_106">
    <path d="M 714.788321 236.579085 
L 714.520153 236.379857 
L 712.196027 234.786033 
L 711.212743 233.989121 
L 710.855186 233.789893 
L 676.44025 211.675578 
" clip-path="url(#p2c59983b7e)" style="fill: none; stroke: #7a7a7a; stroke-width: 3; stroke-linecap: square"/>
   </g>
   <g id="line2d_107">
    <path d="M 231.075586 -1 
L 169.512723 437.600194 
" clip-path="url(#p2c59983b7e)" style="fill: none; stroke: #7a7a7a; stroke-width: 3; stroke-linecap: square"/>
   </g>
   <g id="line2d_108">
    <path d="M 180.984611 -1 
L 136.974966 428.83416 
" clip-path="url(#p2c59983b7e)" style="fill: none; stroke: #7a7a7a; stroke-width: 3; stroke-linecap: square"/>
   </g>
   <g id="line2d_109">
    <path clip-path="url(#p2c59983b7e)" style="fill: none; stroke: #7a7a7a; stroke-width: 3; stroke-linecap: square"/>
   </g>
   <g id="line2d_110">
    <path clip-path="url(#p2c59983b7e)" style="fill: none; stroke: #7a7a7a; stroke-width: 3; stroke-linecap: square"/>
   </g>
   <g id="line2d_111">
    <path d="M 315.753851 363.088901 
L 714.788321 637.226707 
" clip-path="url(#p2c59983b7e)" style="fill: none; stroke: #7a7a7a; stroke-width: 3; stroke-linecap: square"/>
   </g>
   <g id="line2d_112">
    <path d="M 305.027117 422.65809 
L 714.788321 704.366562 
" clip-path="url(#p2c59983b7e)" style="fill: none; stroke: #7a7a7a; stroke-width: 3; stroke-linecap: square"/>
   </g>
   <g id="line2d_113">
    <path d="M 1239.683126 221.039297 
L 1239.593737 221.836209 
L 1207.145369 453.936895 
" clip-path="url(#p2c59983b7e)" style="fill: none; stroke: #7a7a7a; stroke-width: 3; stroke-linecap: square"/>
   </g>
   <g id="line2d_114">
    <path d="M 1209.290716 221.039297 
L 1209.201327 221.636981 
L 1178.808916 434.412545 
" clip-path="url(#p2c59983b7e)" style="fill: none; stroke: #7a7a7a; stroke-width: 3; stroke-linecap: square"/>
   </g>
   <g id="line2d_115">
    <path d="M 1209.290716 221.039297 
L 1209.201327 221.636981 
L 1178.808916 434.412545 
" clip-path="url(#p2c59983b7e)" style="fill: none; stroke: #7a7a7a; stroke-width: 3; stroke-linecap: square"/>
   </g>
   <g id="line2d_116">
    <path d="M 1174.607612 221.039297 
L 1146.986275 412.696687 
" clip-path="url(#p2c59983b7e)" style="fill: none; stroke: #7a7a7a; stroke-width: 3; stroke-linecap: square"/>
   </g>
   <g id="line2d_117">
    <path clip-path="url(#p2c59983b7e)" style="fill: none; stroke: #7a7a7a; stroke-width: 3; stroke-linecap: square"/>
   </g>
   <g id="line2d_118">
    <path clip-path="url(#p2c59983b7e)" style="fill: none; stroke: #7a7a7a; stroke-width: 3; stroke-linecap: square"/>
   </g>
   <g id="line2d_119">
    <path clip-path="url(#p2c59983b7e)" style="fill: none; stroke: #7a7a7a; stroke-width: 3; stroke-linecap: square"/>
   </g>
   <g id="line2d_120">
    <path clip-path="url(#p2c59983b7e)" style="fill: none; stroke: #7a7a7a; stroke-width: 3; stroke-linecap: square"/>
   </g>
   <g id="line2d_121">
    <path d="M 659.903203 393.172338 
L 433.569136 235.782173 
" clip-path="url(#p2c59983b7e)" style="fill: none; stroke: #7a7a7a; stroke-width: 3; stroke-linecap: square"/>
   </g>
   <g id="line2d_122">
    <path d="M 662.227329 330.216272 
L 453.771149 183.584422 
" clip-path="url(#p2c59983b7e)" style="fill: none; stroke: #7a7a7a; stroke-width: 3; stroke-linecap: square"/>
   </g>
   <g id="line2d_123">
    <path d="M 145.020016 818.723466 
L 145.466963 815.336589 
L 194.899325 456.327632 
" clip-path="url(#p2c59983b7e)" style="fill: none; stroke: #7a7a7a; stroke-width: 3; stroke-linecap: square"/>
   </g>
   <g id="line2d_124">
    <path d="M 172.015627 818.723466 
L 172.551964 815.336589 
L 172.820132 813.543537 
L 184.35137 727.07856 
L 194.00543 656.551828 
L 214.743781 511.115347 
L 219.749589 474.457385 
" clip-path="url(#p2c59983b7e)" style="fill: none; stroke: #7a7a7a; stroke-width: 3; stroke-linecap: square"/>
   </g>
   <g id="line2d_125">
    <path d="M 995.203002 826.891817 
L 1003.784388 832.868658 
L 1015.136847 840.638553 
L 1028.634653 854.982973 
L 1040.702228 877.296515 
L 1050.624456 905.985355 
L 1058.04378 939.455669 
L 1062.245083 975.914403 
L 1062.78142 1013.568506 
L 1058.937674 1050.624924 
" clip-path="url(#p2c59983b7e)" style="fill: none; stroke: #7a7a7a; stroke-width: 3; stroke-linecap: square"/>
   </g>
   <g id="line2d_126">
    <path d="M 986.174668 892.238619 
L 1006.108514 905.985355 
L 1020.857772 921.525144 
L 1032.746567 946.229423 
L 1040.970396 976.711315 
L 1044.814142 1009.185488 
L 1043.383911 1040.065837 
" clip-path="url(#p2c59983b7e)" style="fill: none; stroke: #7a7a7a; stroke-width: 3; stroke-linecap: square"/>
   </g>
   <g id="line2d_127">
    <path clip-path="url(#p2c59983b7e)" style="fill: none; stroke: #7a7a7a; stroke-width: 3; stroke-linecap: square"/>
   </g>
   <g id="line2d_128">
    <path clip-path="url(#p2c59983b7e)" style="fill: none; stroke: #7a7a7a; stroke-width: 3; stroke-linecap: square"/>
   </g>
   <g id="line2d_129">
    <path d="M 332.648455 255.306523 
L 452.787866 336.990026 
L 495.158461 363.288129 
L 530.914238 386.996268 
L 535.651879 390.582373 
L 541.90914 394.367706 
L 555.675114 403.532197 
L 580.25721 421.66195 
L 714.788321 512.9084 
" clip-path="url(#p2c59983b7e)" style="fill: none; stroke: #7a7a7a; stroke-width: 3; stroke-linecap: square"/>
   </g>
   <g id="line2d_130">
    <path d="M 325.854858 302.7228 
L 714.788321 570.883764 
" clip-path="url(#p2c59983b7e)" style="fill: none; stroke: #7a7a7a; stroke-width: 3; stroke-linecap: square"/>
   </g>
   <g id="line2d_131">
    <path d="M 194.899325 456.327632 
L 203.301932 399.547636 
L 210.900035 369.065743 
L 220.285926 344.560692 
L 234.14129 328.821676 
L 253.36002 322.446378 
L 292.244427 346.951429 
L 315.753851 363.088901 
" clip-path="url(#p2c59983b7e)" style="fill: none; stroke: #7a7a7a; stroke-width: 3; stroke-linecap: square"/>
   </g>
   <g id="line2d_132">
    <path d="M 219.749589 474.457385 
L 223.772114 443.975492 
L 224.934177 439.791703 
L 227.884029 425.845739 
L 231.817164 413.095143 
L 236.107857 404.528337 
L 238.96832 398.949951 
L 244.778633 392.97311 
L 251.393452 390.980829 
L 257.918881 390.781601 
L 270.96974 397.156899 
L 281.517694 406.520618 
L 290.18847 412.497459 
L 305.027117 422.65809 
" clip-path="url(#p2c59983b7e)" style="fill: none; stroke: #7a7a7a; stroke-width: 3; stroke-linecap: square"/>
   </g>
   <g id="line2d_133">
    <path d="M 325.854858 302.7228 
L 714.788321 570.883764 
" clip-path="url(#p2c59983b7e)" style="fill: none; stroke: #7a7a7a; stroke-width: 3; stroke-linecap: square"/>
   </g>
   <g id="line2d_134">
    <path d="M 315.753851 363.088901 
L 714.788321 637.226707 
" clip-path="url(#p2c59983b7e)" style="fill: none; stroke: #7a7a7a; stroke-width: 3; stroke-linecap: square"/>
   </g>
   <g id="line2d_135">
    <path d="M 429.904168 292.960625 
L 323.977679 221.437753 
" clip-path="url(#p2c59983b7e)" style="fill: none; stroke: #7a7a7a; stroke-width: 3; stroke-linecap: square"/>
   </g>
   <g id="line2d_136">
    <path d="M 433.569136 235.782173 
L 335.866475 164.259301 
" clip-path="url(#p2c59983b7e)" style="fill: none; stroke: #7a7a7a; stroke-width: 3; stroke-linecap: square"/>
   </g>
   <g id="line2d_137">
    <path d="M 169.512723 437.600194 
L 179.345562 341.173815 
L 181.669687 308.500414 
L 184.44076 277.221609 
L 185.424044 244.34898 
L 184.530149 210.48021 
L 181.580298 176.61144 
L 176.574489 143.141127 
L 169.244555 111.06541 
L 159.679884 80.981973 
L 147.701699 53.68773 
L 133.220609 29.979591 
L 115.968447 10.455241 
L 109.08546 5.47454 
L 108.370344 4.279172 
L 100.455576 -1 
" clip-path="url(#p2c59983b7e)" style="fill: none; stroke: #7a7a7a; stroke-width: 3; stroke-linecap: square"/>
   </g>
   <g id="line2d_138">
    <path d="M 194.899325 456.327632 
L 206.430563 360.698165 
L 209.469804 329.41936 
L 213.134771 297.742099 
L 215.458896 264.471013 
L 216.263401 230.00456 
L 215.369507 195.13965 
L 212.687824 160.075512 
L 208.039573 125.808286 
L 201.245975 92.537201 
L 192.128252 61.258396 
L 180.507624 32.171099 
L 166.294703 5.872996 
L 161.155088 -1 
" clip-path="url(#p2c59983b7e)" style="fill: none; stroke: #7a7a7a; stroke-width: 3; stroke-linecap: square"/>
   </g>
   <g id="line2d_139">
    <path d="M 59.754612 -1 
L 106.403777 31.772643 
" clip-path="url(#p2c59983b7e)" style="fill: none; stroke: #7a7a7a; stroke-width: 3; stroke-linecap: square"/>
   </g>
   <g id="line2d_140">
    <path d="M -1 16.031244 
L 100.057126 83.771166 
" clip-path="url(#p2c59983b7e)" style="fill: none; stroke: #7a7a7a; stroke-width: 3; stroke-linecap: square"/>
   </g>
   <g id="line2d_141">
    <path d="M 1254.164216 485.813384 
L 1250.856807 506.533102 
L 1247.549397 531.635837 
L 1247.370618 534.823486 
L 1219.92806 733.852314 
L 1216.71004 773.697926 
L 1219.92806 813.344309 
L 1228.151888 848.408447 
L 1240.219463 874.308094 
L 1247.460008 881.679532 
L 1249.784133 883.273357 
L 1254.968721 886.859462 
" clip-path="url(#p2c59983b7e)" style="fill: none; stroke: #7a7a7a; stroke-width: 3; stroke-linecap: square"/>
   </g>
   <g id="line2d_142">
    <path d="M 1207.145369 453.936895 
L 1172.909213 701.776597 
L 1170.13814 731.063122 
L 1171.300203 764.134979 
L 1176.127233 799.398345 
L 1184.440451 834.661711 
L 1195.8823 868.331252 
L 1210.18461 898.215461 
L 1227.168604 922.521284 
L 1246.566113 939.455669 
" clip-path="url(#p2c59983b7e)" style="fill: none; stroke: #7a7a7a; stroke-width: 3; stroke-linecap: square"/>
   </g>
   <g id="line2d_143">
    <path d="M 668.216422 271.842451 
L 462.710094 127.601339 
" clip-path="url(#p2c59983b7e)" style="fill: none; stroke: #7a7a7a; stroke-width: 3; stroke-linecap: square"/>
   </g>
   <g id="line2d_144">
    <path d="M 676.44025 211.675578 
L 655.7019 198.327299 
L 554.334272 127.999795 
L 472.98988 72.215939 
" clip-path="url(#p2c59983b7e)" style="fill: none; stroke: #7a7a7a; stroke-width: 3; stroke-linecap: square"/>
   </g>
   <g id="line2d_145">
    <path d="M 86.827489 206.097193 
L 108.906681 221.238525 
L 123.655939 234.188349 
L 137.153745 254.111154 
L 148.863762 279.612346 
L 158.339043 309.297326 
L 164.953861 341.970727 
L 170.317228 374.843357 
L 170.227838 411.102863 
L 169.512723 437.600194 
" clip-path="url(#p2c59983b7e)" style="fill: none; stroke: #7a7a7a; stroke-width: 3; stroke-linecap: square"/>
   </g>
   <g id="line2d_146">
    <path d="M 81.017175 265.86561 
L 85.754815 268.057118 
L 97.017885 275.627784 
L 99.878347 278.616205 
L 103.096367 281.006942 
L 115.43211 291.167573 
L 125.980064 314.676484 
L 133.846335 347.748341 
L 137.86886 386.79704 
L 136.974966 428.83416 
" clip-path="url(#p2c59983b7e)" style="fill: none; stroke: #7a7a7a; stroke-width: 3; stroke-linecap: square"/>
   </g>
   <g id="line2d_147">
    <path d="M 714.788321 428.634932 
L 714.430763 428.435704 
L 712.017248 426.841879 
L 711.033965 426.044967 
L 710.765796 425.845739 
L 662.406108 394.367706 
L 659.903203 393.172338 
" clip-path="url(#p2c59983b7e)" style="fill: none; stroke: #7a7a7a; stroke-width: 3; stroke-linecap: square"/>
   </g>
   <g id="line2d_148">
    <path d="M 714.788321 365.678866 
L 714.520153 365.479638 
L 712.106638 363.686585 
L 711.123354 363.088901 
L 710.765796 362.889673 
L 662.227329 330.216272 
" clip-path="url(#p2c59983b7e)" style="fill: none; stroke: #7a7a7a; stroke-width: 3; stroke-linecap: square"/>
   </g>
   <g id="line2d_149">
    <path d="M 1179.7922 221.039297 
L 1133.30969 399.946092 
" clip-path="url(#p2c59983b7e)" style="fill: none; stroke: #7a7a7a; stroke-width: 3; stroke-linecap: square"/>
   </g>
   <g id="line2d_150">
    <path d="M 1146.002991 221.039297 
L 1112.660729 388.590092 
" clip-path="url(#p2c59983b7e)" style="fill: none; stroke: #7a7a7a; stroke-width: 3; stroke-linecap: square"/>
   </g>
   <g id="line2d_151">
    <path d="M 178.778885 314.547224 
L 181.234448 319.35495 
" clip-path="url(#p2c59983b7e)" style="fill: none; stroke-dasharray: 32,8,5,8; stroke-dashoffset: 0; stroke: #1e90ff; stroke-width: 5"/>
   </g>
   <g id="line2d_152">
    <path d="M 454.80166 100.348487 
L 449.892988 99.614028 
" clip-path="url(#p2c59983b7e)" style="fill: none; stroke-dasharray: 32,8,5,8; stroke-dashoffset: 0; stroke: #1e90ff; stroke-width: 5"/>
   </g>
   <g id="line2d_153">
    <path d="M 828.598365 802.791241 
L 827.636763 805.372487 
" clip-path="url(#p2c59983b7e)" style="fill: none; stroke-dasharray: 32,8,5,8; stroke-dashoffset: 0; stroke: #1e90ff; stroke-width: 5"/>
   </g>
   <g id="line2d_154">
    <path d="M 945.924736 842.315831 
L 945.399061 839.926103 
" clip-path="url(#p2c59983b7e)" style="fill: none; stroke-dasharray: 32,8,5,8; stroke-dashoffset: 0; stroke: #1e90ff; stroke-width: 5"/>
   </g>
   <g id="line2d_155">
    <path d="M 1002.705364 704.863489 
L 1013.332636 710.851944 
" clip-path="url(#p2c59983b7e)" style="fill: none; stroke-dasharray: 32,8,5,8; stroke-dashoffset: 0; stroke: #1e90ff; stroke-width: 5"/>
   </g>
   <g id="line2d_156">
    <path d="M 1305.915837 653.220632 
L 1299.725574 658.379172 
" clip-path="url(#p2c59983b7e)" style="fill: none; stroke-dasharray: 32,8,5,8; stroke-dashoffset: 0; stroke: #1e90ff; stroke-width: 5"/>
   </g>
   <g id="line2d_157">
    <path d="M 459.599304 450.379864 
L 533.362371 493.02864 
" clip-path="url(#p2c59983b7e)" style="fill: none; stroke-dasharray: 32,8,5,8; stroke-dashoffset: 0; stroke: #1e90ff; stroke-width: 5"/>
   </g>
   <g id="line2d_158">
    <path d="M 178.778885 314.547224 
" clip-path="url(#p2c59983b7e)" style="fill: none; stroke: #0000ff; stroke-width: 1.5; stroke-linecap: square"/>
    <defs>
     <path id="ma6f389dab9" d="M 0 10 
C 2.652031 10 5.195799 8.946337 7.071068 7.071068 
C 8.946337 5.195799 10 2.652031 10 0 
C 10 -2.652031 8.946337 -5.195799 7.071068 -7.071068 
C 5.195799 -8.946337 2.652031 -10 0 -10 
C -2.652031 -10 -5.195799 -8.946337 -7.071068 -7.071068 
C -8.946337 -5.195799 -10 -2.652031 -10 0 
C -10 2.652031 -8.946337 5.195799 -7.071068 7.071068 
C -5.195799 8.946337 -2.652031 10 0 10 
z
" style="stroke: #0000ff"/>
    </defs>
    <g clip-path="url(#p2c59983b7e)">
     <use xlink:href="#ma6f389dab9" x="178.778885" y="314.547224" style="fill: #0000ff; stroke: #0000ff"/>
    </g>
   </g>
   <g id="line2d_159">
    <path d="M 454.80166 100.348487 
" clip-path="url(#p2c59983b7e)" style="fill: none; stroke: #0000ff; stroke-width: 1.5; stroke-linecap: square"/>
    <g clip-path="url(#p2c59983b7e)">
     <use xlink:href="#ma6f389dab9" x="454.80166" y="100.348487" style="fill: #0000ff; stroke: #0000ff"/>
    </g>
   </g>
   <g id="line2d_160">
    <path d="M 828.598365 802.791241 
" clip-path="url(#p2c59983b7e)" style="fill: none; stroke: #0000ff; stroke-width: 1.5; stroke-linecap: square"/>
    <g clip-path="url(#p2c59983b7e)">
     <use xlink:href="#ma6f389dab9" x="828.598365" y="802.791241" style="fill: #0000ff; stroke: #0000ff"/>
    </g>
   </g>
   <g id="line2d_161">
    <path d="M 945.924736 842.315831 
" clip-path="url(#p2c59983b7e)" style="fill: none; stroke: #0000ff; stroke-width: 1.5; stroke-linecap: square"/>
    <g clip-path="url(#p2c59983b7e)">
     <use xlink:href="#ma6f389dab9" x="945.924736" y="842.315831" style="fill: #0000ff; stroke: #0000ff"/>
    </g>
   </g>
   <g id="line2d_162">
    <path d="M 1002.705364 704.863489 
" clip-path="url(#p2c59983b7e)" style="fill: none; stroke: #0000ff; stroke-width: 1.5; stroke-linecap: square"/>
    <g clip-path="url(#p2c59983b7e)">
     <use xlink:href="#ma6f389dab9" x="1002.705364" y="704.863489" style="fill: #0000ff; stroke: #0000ff"/>
    </g>
   </g>
   <g id="line2d_163">
    <path d="M 1305.915837 653.220632 
" clip-path="url(#p2c59983b7e)" style="fill: none; stroke: #0000ff; stroke-width: 1.5; stroke-linecap: square"/>
    <g clip-path="url(#p2c59983b7e)">
     <use xlink:href="#ma6f389dab9" x="1305.915837" y="653.220632" style="fill: #0000ff; stroke: #0000ff"/>
    </g>
   </g>
   <g id="line2d_164">
    <path d="M 459.599304 450.379864 
" clip-path="url(#p2c59983b7e)" style="fill: none; stroke: #0000ff; stroke-width: 1.5; stroke-linecap: square"/>
    <g clip-path="url(#p2c59983b7e)">
     <use xlink:href="#ma6f389dab9" x="459.599304" y="450.379864" style="fill: #0000ff; stroke: #0000ff"/>
    </g>
   </g>
   <g id="line2d_165">
    <path d="M 181.234448 319.35495 
" clip-path="url(#p2c59983b7e)" style="fill: none; stroke: #ff0000; stroke-width: 1.5; stroke-linecap: square"/>
    <defs>
     <path id="mf91a88ca4f" d="M 0 -10 
L -2.24514 -3.09017 
L -9.510565 -3.09017 
L -3.632713 1.18034 
L -5.877853 8.09017 
L -0 3.81966 
L 5.877853 8.09017 
L 3.632713 1.18034 
L 9.510565 -3.09017 
L 2.24514 -3.09017 
z
" style="stroke: #ff0000; stroke-linejoin: bevel"/>
    </defs>
    <g clip-path="url(#p2c59983b7e)">
     <use xlink:href="#mf91a88ca4f" x="181.234448" y="319.35495" style="fill: #ff0000; stroke: #ff0000; stroke-linejoin: bevel"/>
    </g>
   </g>
   <g id="line2d_166">
    <path d="M 449.892988 99.614028 
" clip-path="url(#p2c59983b7e)" style="fill: none; stroke: #ff0000; stroke-width: 1.5; stroke-linecap: square"/>
    <g clip-path="url(#p2c59983b7e)">
     <use xlink:href="#mf91a88ca4f" x="449.892988" y="99.614028" style="fill: #ff0000; stroke: #ff0000; stroke-linejoin: bevel"/>
    </g>
   </g>
   <g id="line2d_167">
    <path d="M 827.636763 805.372487 
" clip-path="url(#p2c59983b7e)" style="fill: none; stroke: #ff0000; stroke-width: 1.5; stroke-linecap: square"/>
    <g clip-path="url(#p2c59983b7e)">
     <use xlink:href="#mf91a88ca4f" x="827.636763" y="805.372487" style="fill: #ff0000; stroke: #ff0000; stroke-linejoin: bevel"/>
    </g>
   </g>
   <g id="line2d_168">
    <path d="M 945.399061 839.926103 
" clip-path="url(#p2c59983b7e)" style="fill: none; stroke: #ff0000; stroke-width: 1.5; stroke-linecap: square"/>
    <g clip-path="url(#p2c59983b7e)">
     <use xlink:href="#mf91a88ca4f" x="945.399061" y="839.926103" style="fill: #ff0000; stroke: #ff0000; stroke-linejoin: bevel"/>
    </g>
   </g>
   <g id="line2d_169">
    <path d="M 1013.332636 710.851944 
" clip-path="url(#p2c59983b7e)" style="fill: none; stroke: #ff0000; stroke-width: 1.5; stroke-linecap: square"/>
    <g clip-path="url(#p2c59983b7e)">
     <use xlink:href="#mf91a88ca4f" x="1013.332636" y="710.851944" style="fill: #ff0000; stroke: #ff0000; stroke-linejoin: bevel"/>
    </g>
   </g>
   <g id="line2d_170">
    <path d="M 1299.725574 658.379172 
" clip-path="url(#p2c59983b7e)" style="fill: none; stroke: #ff0000; stroke-width: 1.5; stroke-linecap: square"/>
    <g clip-path="url(#p2c59983b7e)">
     <use xlink:href="#mf91a88ca4f" x="1299.725574" y="658.379172" style="fill: #ff0000; stroke: #ff0000; stroke-linejoin: bevel"/>
    </g>
   </g>
   <g id="line2d_171">
    <path d="M 533.362371 493.02864 
" clip-path="url(#p2c59983b7e)" style="fill: none; stroke: #ff0000; stroke-width: 1.5; stroke-linecap: square"/>
    <g clip-path="url(#p2c59983b7e)">
     <use xlink:href="#mf91a88ca4f" x="533.362371" y="493.02864" style="fill: #ff0000; stroke: #ff0000; stroke-linejoin: bevel"/>
    </g>
   </g>
  </g>
 </g>
 <defs>
  <clipPath id="p2c59983b7e">
   <rect x="0" y="0" width="1440" height="1440"/>
  </clipPath>
 </defs>
</svg>
