<?xml version="1.0" encoding="utf-8" standalone="no"?>
<!DOCTYPE svg PUBLIC "-//W3C//DTD SVG 1.1//EN"
  "http://www.w3.org/Graphics/SVG/1.1/DTD/svg11.dtd">
<svg xmlns:xlink="http://www.w3.org/1999/xlink" width="1440pt" height="1440pt" viewBox="0 0 1440 1440" xmlns="http://www.w3.org/2000/svg" version="1.1">
 <metadata>
  <rdf:RDF xmlns:dc="http://purl.org/dc/elements/1.1/" xmlns:cc="http://creativecommons.org/ns#" xmlns:rdf="http://www.w3.org/1999/02/22-rdf-syntax-ns#">
   <cc:Work>
    <dc:type rdf:resource="http://purl.org/dc/dcmitype/StillImage"/>
    <dc:date>2026-02-27T11:11:16.427272</dc:date>
    <dc:format>image/svg+xml</dc:format>
    <dc:creator>
     <cc:Agent>
      <dc:title>Matplotlib v3.7.3, https://matplotlib.org/</dc:title>
     </cc:Agent>
    </dc:creator>
   </cc:Work>
  </rdf:RDF>
 </metadata>
 <defs>
  <style type="text/css">*{stroke-linejoin: round; stroke-linecap: butt}</style>
 </defs>
 <g id="figure_1">
  <g id="patch_1">
   <path d="M 0 1440 
L 1440 1440 
L 1440 0 
L 0 0 
z
" style="fill: #ffffff"/>
  </g>
  <g id="axes_1">
   <g id="line2d_1">
    <path d="M 312.564691 865.3167 
L 333.598067 862.577121 
L 334.016642 862.491509 
" clip-path="url(#p4d197e4a6f)" style="fill: none; stroke: #7a7a7a; stroke-width: 3; stroke-linecap: square"/>
   </g>
   <g id="line2d_2">
    <path d="M 312.25076 910.434135 
L 333.598067 907.694557 
L 334.016642 907.608945 
" clip-path="url(#p4d197e4a6f)" style="fill: none; stroke: #7a7a7a; stroke-width: 3; stroke-linecap: square"/>
   </g>
   <g id="line2d_3">
    <path d="M 334.016642 862.491509 
L 333.598067 862.577121 
L 312.564691 865.3167 
" clip-path="url(#p4d197e4a6f)" style="fill: none; stroke: #7a7a7a; stroke-width: 3; stroke-linecap: square"/>
   </g>
   <g id="line2d_4">
    <path d="M 334.016642 817.288462 
L 333.598067 817.374074 
L 308.902163 820.969771 
" clip-path="url(#p4d197e4a6f)" style="fill: none; stroke: #7a7a7a; stroke-width: 3; stroke-linecap: square"/>
   </g>
   <g id="line2d_5">
    <path d="M 876.907959 153.283094 
L 871.257201 45.58341 
" clip-path="url(#p4d197e4a6f)" style="fill: none; stroke: #7a7a7a; stroke-width: 3; stroke-linecap: square"/>
   </g>
   <g id="line2d_6">
    <path d="M 933.206249 152.769423 
L 932.683031 143.095286 
L 932.787675 142.752839 
L 927.346204 45.15535 
" clip-path="url(#p4d197e4a6f)" style="fill: none; stroke: #7a7a7a; stroke-width: 3; stroke-linecap: square"/>
   </g>
   <g id="line2d_7">
    <path d="M -1 906.123396 
L 312.564691 865.3167 
" clip-path="url(#p4d197e4a6f)" style="fill: none; stroke: #7a7a7a; stroke-width: 3; stroke-linecap: square"/>
   </g>
   <g id="line2d_8">
    <path d="M 6.691267 950.414861 
L 129.228995 934.405448 
L 132.891523 933.891777 
L 244.23238 919.252154 
L 312.25076 910.434135 
" clip-path="url(#p4d197e4a6f)" style="fill: none; stroke: #7a7a7a; stroke-width: 3; stroke-linecap: square"/>
   </g>
   <g id="line2d_9">
    <path d="M 876.907959 153.283094 
L 879.733338 206.105594 
" clip-path="url(#p4d197e4a6f)" style="fill: none; stroke: #7a7a7a; stroke-width: 3; stroke-linecap: square"/>
   </g>
   <g id="line2d_10">
    <path d="M 821.237531 154.224824 
L 822.493255 180.764492 
L 823.958266 207.218548 
" clip-path="url(#p4d197e4a6f)" style="fill: none; stroke: #7a7a7a; stroke-width: 3; stroke-linecap: square"/>
   </g>
   <g id="line2d_11">
    <path d="M 895.429887 500.096625 
L 895.429887 499.497342 
L 895.325244 498.555612 
L 890.616279 421.248128 
" clip-path="url(#p4d197e4a6f)" style="fill: none; stroke: #7a7a7a; stroke-width: 3; stroke-linecap: square"/>
   </g>
   <g id="line2d_12">
    <path d="M 952.460683 500.096625 
L 952.460683 499.41173 
L 952.356039 498.555612 
L 948.902799 450.013703 
L 947.333144 418.337326 
" clip-path="url(#p4d197e4a6f)" style="fill: none; stroke: #7a7a7a; stroke-width: 3; stroke-linecap: square"/>
   </g>
   <g id="line2d_13">
    <path d="M 890.616279 421.248128 
L 882.140142 250.366911 
" clip-path="url(#p4d197e4a6f)" style="fill: none; stroke: #7a7a7a; stroke-width: 3; stroke-linecap: square"/>
   </g>
   <g id="line2d_14">
    <path d="M 947.333144 418.337326 
L 943.670615 343.255749 
L 943.356684 332.811106 
L 940.112731 274.680672 
L 938.124501 249.168346 
" clip-path="url(#p4d197e4a6f)" style="fill: none; stroke: #7a7a7a; stroke-width: 3; stroke-linecap: square"/>
   </g>
   <g id="line2d_15">
    <path d="M 312.564691 865.3167 
L -1 906.123396 
" clip-path="url(#p4d197e4a6f)" style="fill: none; stroke: #7a7a7a; stroke-width: 3; stroke-linecap: square"/>
   </g>
   <g id="line2d_16">
    <path d="M 308.902163 820.969771 
L 243.081299 829.274119 
L 206.351374 833.811546 
L -1 860.558035 
" clip-path="url(#p4d197e4a6f)" style="fill: none; stroke: #7a7a7a; stroke-width: 3; stroke-linecap: square"/>
   </g>
   <g id="line2d_17">
    <path d="M 882.140142 250.366911 
L 879.733338 206.105594 
" clip-path="url(#p4d197e4a6f)" style="fill: none; stroke: #7a7a7a; stroke-width: 3; stroke-linecap: square"/>
   </g>
   <g id="line2d_18">
    <path d="M 938.124501 249.168346 
L 935.822341 204.992641 
" clip-path="url(#p4d197e4a6f)" style="fill: none; stroke: #7a7a7a; stroke-width: 3; stroke-linecap: square"/>
   </g>
   <g id="line2d_19">
    <path d="M 871.257201 45.58341 
L 876.907959 153.283094 
" clip-path="url(#p4d197e4a6f)" style="fill: none; stroke: #7a7a7a; stroke-width: 3; stroke-linecap: square"/>
   </g>
   <g id="line2d_20">
    <path d="M 815.168199 46.097081 
L 820.505025 143.009674 
L 821.237531 154.224824 
" clip-path="url(#p4d197e4a6f)" style="fill: none; stroke: #7a7a7a; stroke-width: 3; stroke-linecap: square"/>
   </g>
   <g id="line2d_21">
    <path d="M 890.616279 421.248128 
L 895.325244 498.555612 
L 895.429887 499.497342 
L 895.429887 500.096625 
" clip-path="url(#p4d197e4a6f)" style="fill: none; stroke: #7a7a7a; stroke-width: 3; stroke-linecap: square"/>
   </g>
   <g id="line2d_22">
    <path d="M 835.573713 423.559647 
L 839.131597 498.555612 
L 839.131597 499.497342 
L 839.236241 500.096625 
" clip-path="url(#p4d197e4a6f)" style="fill: none; stroke: #7a7a7a; stroke-width: 3; stroke-linecap: square"/>
   </g>
   <g id="line2d_23">
    <path d="M 882.140142 250.366911 
L 890.616279 421.248128 
" clip-path="url(#p4d197e4a6f)" style="fill: none; stroke: #7a7a7a; stroke-width: 3; stroke-linecap: square"/>
   </g>
   <g id="line2d_24">
    <path d="M 826.469714 252.079148 
L 826.992932 261.154002 
L 833.794771 381.353014 
L 835.573713 423.559647 
" clip-path="url(#p4d197e4a6f)" style="fill: none; stroke: #7a7a7a; stroke-width: 3; stroke-linecap: square"/>
   </g>
   <g id="line2d_25">
    <path d="M 935.822341 1270.603112 
L 935.717697 1269.918217 
L 935.717697 1268.976487 
L 917.195769 906.410379 
" clip-path="url(#p4d197e4a6f)" style="fill: none; stroke: #7a7a7a; stroke-width: 3; stroke-linecap: square"/>
   </g>
   <g id="line2d_26">
    <path d="M 991.911344 1270.603112 
L 991.911344 1269.832606 
L 991.8067 1268.976487 
L 982.911989 1112.734894 
L 981.760908 1071.641215 
L 973.180128 905.04059 
" clip-path="url(#p4d197e4a6f)" style="fill: none; stroke: #7a7a7a; stroke-width: 3; stroke-linecap: square"/>
   </g>
   <g id="line2d_27">
    <path d="M 1035.547751 774.482546 
L 760.439564 807.699937 
" clip-path="url(#p4d197e4a6f)" style="fill: none; stroke: #7a7a7a; stroke-width: 3; stroke-linecap: square"/>
   </g>
   <g id="line2d_28">
    <path d="M 1031.885222 727.90971 
L 768.811057 759.158028 
L 752.277358 761.383936 
" clip-path="url(#p4d197e4a6f)" style="fill: none; stroke: #7a7a7a; stroke-width: 3; stroke-linecap: square"/>
   </g>
   <g id="line2d_29">
    <path d="M 917.195769 906.410379 
L 913.951815 889.031177 
L 907.149977 872.679317 
L 897.313473 857.440411 
L 884.965521 843.742518 
L 870.315408 831.585638 
L 853.990997 821.483442 
L 836.306218 813.43593 
L 817.679647 807.785549 
L 798.6345 804.789135 
L 779.48471 804.703523 
L 760.439564 807.699937 
" clip-path="url(#p4d197e4a6f)" style="fill: none; stroke: #7a7a7a; stroke-width: 3; stroke-linecap: square"/>
   </g>
   <g id="line2d_30">
    <path d="M 973.180128 905.04059 
L 972.866197 888.68873 
L 970.250106 872.593706 
L 965.541141 856.92674 
L 958.739303 841.773446 
L 950.053879 827.305047 
L 939.589513 813.778377 
L 927.346204 801.193438 
L 913.533241 789.807064 
L 898.255266 779.79048 
L 881.616924 771.229297 
L 863.618214 764.38035 
L 844.468424 759.329252 
L 824.272197 756.332838 
L 803.029534 755.391108 
L 781.577583 756.760897 
L 771.636435 758.815581 
L 752.277358 761.383936 
" clip-path="url(#p4d197e4a6f)" style="fill: none; stroke: #7a7a7a; stroke-width: 3; stroke-linecap: square"/>
   </g>
   <g id="line2d_31">
    <path d="M 430.602741 1099.978731 
L 427.254144 926.871607 
" clip-path="url(#p4d197e4a6f)" style="fill: none; stroke: #7a7a7a; stroke-width: 3; stroke-linecap: square"/>
   </g>
   <g id="line2d_32">
    <path d="M 474.134505 1099.122613 
L 469.42554 922.847851 
" clip-path="url(#p4d197e4a6f)" style="fill: none; stroke: #7a7a7a; stroke-width: 3; stroke-linecap: square"/>
   </g>
   <g id="line2d_33">
    <path d="M 393.663529 854.872056 
L 334.016642 862.491509 
" clip-path="url(#p4d197e4a6f)" style="fill: none; stroke: #7a7a7a; stroke-width: 3; stroke-linecap: square"/>
   </g>
   <g id="line2d_34">
    <path d="M 391.675299 809.583397 
L 334.016642 817.288462 
" clip-path="url(#p4d197e4a6f)" style="fill: none; stroke: #7a7a7a; stroke-width: 3; stroke-linecap: square"/>
   </g>
   <g id="line2d_35">
    <path d="M 904.847817 674.915986 
L 905.475679 690.497339 
L 904.219955 705.650633 
L 900.976001 720.290257 
L 895.639175 734.244985 
L 888.209475 747.429207 
L 878.686901 759.586088 
L 866.862168 770.801238 
L 852.944561 780.73221 
L 836.620149 789.293393 
L 817.993578 796.484787 
L 797.064845 802.049556 
L 773.624665 805.9877 
L 760.439564 807.699937 
" clip-path="url(#p4d197e4a6f)" style="fill: none; stroke: #7a7a7a; stroke-width: 3; stroke-linecap: square"/>
   </g>
   <g id="line2d_36">
    <path d="M 848.549527 675.60088 
L 848.130952 682.449827 
L 848.444883 693.408142 
L 846.456654 701.626877 
L 843.421987 709.845613 
L 839.445528 717.550678 
L 834.63192 724.913296 
L 829.085806 731.162959 
L 821.551462 737.75507 
L 814.749624 742.634945 
L 805.959556 747.857267 
L 798.529856 751.452964 
L 791.623375 754.021318 
L 787.646916 755.04866 
L 784.402962 756.332838 
L 777.391837 757.617015 
L 771.636435 758.815581 
L 752.277358 761.383936 
" clip-path="url(#p4d197e4a6f)" style="fill: none; stroke: #7a7a7a; stroke-width: 3; stroke-linecap: square"/>
   </g>
   <g id="line2d_37">
    <path d="M 491.086778 842.372729 
L 478.215608 844.598637 
L 469.320896 851.875642 
L 467.960529 859.580707 
L 469.42554 922.762239 
" clip-path="url(#p4d197e4a6f)" style="fill: none; stroke: #7a7a7a; stroke-width: 3; stroke-linecap: square"/>
   </g>
   <g id="line2d_38">
    <path d="M 488.366043 796.656011 
L 480.936343 796.998458 
L 469.530184 798.539471 
L 455.821864 804.532299 
L 440.753177 816.603568 
L 429.347017 831.585638 
L 423.69626 847.851886 
L 425.789133 863.347628 
L 427.254144 926.785995 
" clip-path="url(#p4d197e4a6f)" style="fill: none; stroke: #7a7a7a; stroke-width: 3; stroke-linecap: square"/>
   </g>
   <g id="line2d_39">
    <path d="M 491.086778 842.372729 
L 393.663529 854.872056 
" clip-path="url(#p4d197e4a6f)" style="fill: none; stroke: #7a7a7a; stroke-width: 3; stroke-linecap: square"/>
   </g>
   <g id="line2d_40">
    <path d="M 488.366043 796.656011 
L 391.675299 809.583397 
" clip-path="url(#p4d197e4a6f)" style="fill: none; stroke: #7a7a7a; stroke-width: 3; stroke-linecap: square"/>
   </g>
   <g id="line2d_41">
    <path d="M 334.016642 862.491509 
L 393.663529 854.872056 
" clip-path="url(#p4d197e4a6f)" style="fill: none; stroke: #7a7a7a; stroke-width: 3; stroke-linecap: square"/>
   </g>
   <g id="line2d_42">
    <path d="M 334.016642 907.608945 
L 395.651758 899.732656 
" clip-path="url(#p4d197e4a6f)" style="fill: none; stroke: #7a7a7a; stroke-width: 3; stroke-linecap: square"/>
   </g>
   <g id="line2d_43">
    <path d="M 760.439564 807.699937 
L 532.316381 837.064795 
" clip-path="url(#p4d197e4a6f)" style="fill: none; stroke: #7a7a7a; stroke-width: 3; stroke-linecap: square"/>
   </g>
   <g id="line2d_44">
    <path d="M 752.277358 761.383936 
L 710.419893 767.119929 
L 703.304124 767.976047 
L 521.956658 792.204196 
" clip-path="url(#p4d197e4a6f)" style="fill: none; stroke: #7a7a7a; stroke-width: 3; stroke-linecap: square"/>
   </g>
   <g id="line2d_45">
    <path d="M 1035.547751 774.482546 
L 1010.014697 780.218539 
L 988.248815 787.581157 
L 969.831531 796.399175 
L 954.6582 806.672595 
L 942.519535 818.230192 
L 932.996962 830.900744 
L 925.985837 844.513025 
L 921.067584 859.067036 
L 918.137562 874.305942 
L 916.986482 890.058519 
L 917.195769 906.410379 
" clip-path="url(#p4d197e4a6f)" style="fill: none; stroke: #7a7a7a; stroke-width: 3; stroke-linecap: square"/>
   </g>
   <g id="line2d_46">
    <path d="M 1031.885222 727.90971 
L 1006.6661 730.135617 
L 983.539851 734.244985 
L 962.611118 739.980978 
L 943.670615 747.343596 
L 926.822986 756.161614 
L 911.858942 766.26381 
L 898.883128 777.47896 
L 887.7909 789.635841 
L 878.582258 802.648839 
L 871.152558 816.432344 
L 865.397156 830.72952 
L 861.420697 845.454755 
L 859.118537 860.351214 
L 858.490675 875.504508 
L 859.327824 890.486579 
L 861.002123 911.803925 
" clip-path="url(#p4d197e4a6f)" style="fill: none; stroke: #7a7a7a; stroke-width: 3; stroke-linecap: square"/>
   </g>
   <g id="line2d_47">
    <path d="M 1275.809598 765.32208 
L 1035.547751 774.482546 
" clip-path="url(#p4d197e4a6f)" style="fill: none; stroke: #7a7a7a; stroke-width: 3; stroke-linecap: square"/>
   </g>
   <g id="line2d_48">
    <path d="M 1275.809598 721.231987 
L 1226.208502 722.858612 
L 1060.871517 727.652874 
L 1048.837496 727.652874 
L 1041.407796 727.224815 
L 1031.885222 727.90971 
" clip-path="url(#p4d197e4a6f)" style="fill: none; stroke: #7a7a7a; stroke-width: 3; stroke-linecap: square"/>
   </g>
   <g id="line2d_49">
    <path d="M 904.847817 674.915986 
L 895.429887 500.610296 
L 895.429887 500.096625 
" clip-path="url(#p4d197e4a6f)" style="fill: none; stroke: #7a7a7a; stroke-width: 3; stroke-linecap: square"/>
   </g>
   <g id="line2d_50">
    <path d="M 961.460038 674.145479 
L 957.483579 598.122173 
L 955.913924 573.465965 
L 952.460683 500.610296 
L 952.460683 500.096625 
" clip-path="url(#p4d197e4a6f)" style="fill: none; stroke: #7a7a7a; stroke-width: 3; stroke-linecap: square"/>
   </g>
   <g id="line2d_51">
    <path d="M 917.195769 906.410379 
L 904.847817 674.915986 
" clip-path="url(#p4d197e4a6f)" style="fill: none; stroke: #7a7a7a; stroke-width: 3; stroke-linecap: square"/>
   </g>
   <g id="line2d_52">
    <path d="M 973.180128 905.04059 
L 961.460038 674.145479 
" clip-path="url(#p4d197e4a6f)" style="fill: none; stroke: #7a7a7a; stroke-width: 3; stroke-linecap: square"/>
   </g>
   <g id="line2d_53">
    <path d="M 427.254144 926.871607 
L 426.83557 910.091688 
L 426.940213 895.537677 
L 433.218833 880.72683 
L 444.206417 866.943325 
L 458.542599 855.128892 
L 474.553079 846.567709 
L 491.086778 842.372729 
" clip-path="url(#p4d197e4a6f)" style="fill: none; stroke: #7a7a7a; stroke-width: 3; stroke-linecap: square"/>
   </g>
   <g id="line2d_54">
    <path d="M 469.42554 922.847851 
L 469.006965 906.067932 
L 469.634827 902.129788 
L 470.158046 895.366453 
L 471.936988 892.712486 
L 475.285585 891.00025 
L 479.99455 889.544848 
L 493.70287 887.062105 
" clip-path="url(#p4d197e4a6f)" style="fill: none; stroke: #7a7a7a; stroke-width: 3; stroke-linecap: square"/>
   </g>
   <g id="line2d_55">
    <path d="M 904.847817 674.915986 
L 917.195769 906.410379 
" clip-path="url(#p4d197e4a6f)" style="fill: none; stroke: #7a7a7a; stroke-width: 3; stroke-linecap: square"/>
   </g>
   <g id="line2d_56">
    <path d="M 848.549527 675.60088 
L 861.002123 911.803925 
" clip-path="url(#p4d197e4a6f)" style="fill: none; stroke: #7a7a7a; stroke-width: 3; stroke-linecap: square"/>
   </g>
   <g id="line2d_57">
    <path d="M 427.254144 926.871607 
L 425.99842 871.480752 
L 421.917317 862.919569 
L 410.511158 856.498681 
L 393.663529 854.872056 
" clip-path="url(#p4d197e4a6f)" style="fill: none; stroke: #7a7a7a; stroke-width: 3; stroke-linecap: square"/>
   </g>
   <g id="line2d_58">
    <path d="M 469.42554 922.847851 
L 468.169816 867.456996 
L 464.716575 851.618807 
L 455.71722 837.064795 
L 442.427475 824.65108 
L 426.312351 815.405002 
L 408.941503 810.097068 
L 391.675299 809.583397 
" clip-path="url(#p4d197e4a6f)" style="fill: none; stroke: #7a7a7a; stroke-width: 3; stroke-linecap: square"/>
   </g>
   <g id="line2d_59">
    <path d="M 760.439564 807.699937 
L 779.48471 804.703523 
L 798.6345 804.789135 
L 817.679647 807.785549 
L 836.306218 813.43593 
L 853.990997 821.483442 
L 870.315408 831.585638 
L 884.965521 843.742518 
L 897.313473 857.440411 
L 907.149977 872.679317 
L 913.951815 889.031177 
L 917.195769 906.410379 
" clip-path="url(#p4d197e4a6f)" style="fill: none; stroke: #7a7a7a; stroke-width: 3; stroke-linecap: square"/>
   </g>
   <g id="line2d_60">
    <path d="M 767.450689 851.361971 
L 783.251882 850.334629 
L 800.518086 854.187162 
L 817.993578 861.721003 
L 834.108701 872.251258 
L 847.607734 884.750586 
L 850.014538 888.175059 
L 854.723503 894.167887 
L 857.025663 898.191643 
L 858.804606 902.814682 
L 861.002123 911.803925 
" clip-path="url(#p4d197e4a6f)" style="fill: none; stroke: #7a7a7a; stroke-width: 3; stroke-linecap: square"/>
   </g>
   <g id="line2d_61">
    <path d="M 532.316381 837.064795 
L 491.086778 842.372729 
" clip-path="url(#p4d197e4a6f)" style="fill: none; stroke: #7a7a7a; stroke-width: 3; stroke-linecap: square"/>
   </g>
   <g id="line2d_62">
    <path d="M 521.956658 792.204196 
L 488.366043 796.656011 
" clip-path="url(#p4d197e4a6f)" style="fill: none; stroke: #7a7a7a; stroke-width: 3; stroke-linecap: square"/>
   </g>
   <g id="line2d_63">
    <path d="M 895.429887 500.096625 
L 895.429887 500.610296 
L 904.847817 674.915986 
" clip-path="url(#p4d197e4a6f)" style="fill: none; stroke: #7a7a7a; stroke-width: 3; stroke-linecap: square"/>
   </g>
   <g id="line2d_64">
    <path d="M 839.236241 500.096625 
L 839.236241 500.695908 
L 848.549527 675.60088 
" clip-path="url(#p4d197e4a6f)" style="fill: none; stroke: #7a7a7a; stroke-width: 3; stroke-linecap: square"/>
   </g>
   <g id="line2d_65">
    <path d="M 532.316381 837.064795 
L 760.439564 807.699937 
" clip-path="url(#p4d197e4a6f)" style="fill: none; stroke: #7a7a7a; stroke-width: 3; stroke-linecap: square"/>
   </g>
   <g id="line2d_66">
    <path d="M 542.362172 880.812442 
L 599.811543 873.449824 
L 749.033404 853.587879 
L 763.264942 852.132478 
L 767.450689 851.361971 
" clip-path="url(#p4d197e4a6f)" style="fill: none; stroke: #7a7a7a; stroke-width: 3; stroke-linecap: square"/>
   </g>
   <g id="line2d_67">
    <path d="M 760.439564 807.699937 
L 773.624665 805.9877 
L 797.064845 802.049556 
L 817.993578 796.484787 
L 836.620149 789.293393 
L 852.944561 780.73221 
L 866.862168 770.801238 
L 878.686901 759.586088 
L 888.209475 747.429207 
L 895.639175 734.244985 
L 900.976001 720.290257 
L 904.219955 705.650633 
L 905.475679 690.497339 
L 904.847817 674.915986 
" clip-path="url(#p4d197e4a6f)" style="fill: none; stroke: #7a7a7a; stroke-width: 3; stroke-linecap: square"/>
   </g>
   <g id="line2d_68">
    <path d="M 767.450689 851.361971 
L 789.111927 848.02311 
L 812.133533 843.656906 
L 833.48084 838.605808 
L 853.153848 832.61298 
L 871.152558 825.849645 
L 887.476969 818.058969 
L 902.231725 809.24095 
L 915.312183 799.395589 
L 926.718342 788.437275 
L 936.450203 776.280395 
L 944.717052 762.753725 
L 951.204959 747.942878 
L 956.123211 731.762242 
L 959.471808 714.126205 
L 961.250751 694.949154 
L 961.460038 674.145479 
" clip-path="url(#p4d197e4a6f)" style="fill: none; stroke: #7a7a7a; stroke-width: 3; stroke-linecap: square"/>
   </g>
   <g id="line2d_69">
    <path d="M 393.663529 854.872056 
L 410.720446 855.300116 
L 427.98665 860.608049 
L 443.99713 869.854127 
L 457.182232 882.182231 
L 466.076943 896.565019 
L 469.216253 912.06076 
L 469.42554 922.762239 
" clip-path="url(#p4d197e4a6f)" style="fill: none; stroke: #7a7a7a; stroke-width: 3; stroke-linecap: square"/>
   </g>
   <g id="line2d_70">
    <path d="M 395.651758 899.732656 
L 414.487617 898.106032 
L 417.940858 899.047762 
L 420.033732 900.417551 
L 422.021961 903.328353 
L 424.219478 907.86578 
L 425.579846 912.916878 
L 427.044857 915.827681 
L 427.254144 926.785995 
" clip-path="url(#p4d197e4a6f)" style="fill: none; stroke: #7a7a7a; stroke-width: 3; stroke-linecap: square"/>
   </g>
   <g id="line2d_71">
    <path d="M 1035.547751 774.482546 
L 1275.809598 765.32208 
" clip-path="url(#p4d197e4a6f)" style="fill: none; stroke: #7a7a7a; stroke-width: 3; stroke-linecap: square"/>
   </g>
   <g id="line2d_72">
    <path d="M 1040.884577 803.847405 
L 1070.39409 800.936602 
L 1131.192057 799.053142 
L 1226.627077 813.007871 
L 1275.495667 811.638081 
L 1275.809598 811.638081 
" clip-path="url(#p4d197e4a6f)" style="fill: none; stroke: #7a7a7a; stroke-width: 3; stroke-linecap: square"/>
   </g>
   <g id="line2d_73">
    <path d="M 904.847817 674.915986 
L 908.510345 702.739831 
L 915.940045 724.827684 
L 926.613699 741.864438 
L 939.694156 754.363766 
L 954.6582 763.181784 
L 970.877968 768.832165 
L 987.620953 772.171027 
L 1004.468583 773.797652 
L 1020.688351 774.311323 
L 1035.547751 774.482546 
" clip-path="url(#p4d197e4a6f)" style="fill: none; stroke: #7a7a7a; stroke-width: 3; stroke-linecap: square"/>
   </g>
   <g id="line2d_74">
    <path d="M 848.549527 675.60088 
L 850.851687 698.544851 
L 855.142078 718.920467 
L 861.316054 736.81334 
L 869.373616 752.480306 
L 878.896189 765.835751 
L 890.093061 777.136513 
L 902.6503 786.553815 
L 916.567907 794.002044 
L 931.636594 799.738037 
L 947.856362 803.847405 
L 965.017922 806.41576 
L 982.911989 807.614325 
L 1001.643204 807.528713 
L 1021.002282 806.158924 
L 1040.884577 803.847405 
" clip-path="url(#p4d197e4a6f)" style="fill: none; stroke: #7a7a7a; stroke-width: 3; stroke-linecap: square"/>
   </g>
   <g id="line2d_75">
    <path d="M 760.439564 807.699937 
L 1035.547751 774.482546 
" clip-path="url(#p4d197e4a6f)" style="fill: none; stroke: #7a7a7a; stroke-width: 3; stroke-linecap: square"/>
   </g>
   <g id="line2d_76">
    <path d="M 767.450689 851.361971 
L 1040.884577 803.847405 
" clip-path="url(#p4d197e4a6f)" style="fill: none; stroke: #7a7a7a; stroke-width: 3; stroke-linecap: square"/>
   </g>
   <g id="line2d_77">
    <path d="M 469.42554 922.762239 
L 474.134505 1099.122613 
" clip-path="url(#p4d197e4a6f)" style="fill: none; stroke: #7a7a7a; stroke-width: 3; stroke-linecap: square"/>
   </g>
   <g id="line2d_78">
    <path d="M 427.254144 926.785995 
L 430.602741 1099.978731 
" clip-path="url(#p4d197e4a6f)" style="fill: none; stroke: #7a7a7a; stroke-width: 3; stroke-linecap: square"/>
   </g>
   <g id="line2d_79">
    <path d="M 491.086778 842.372729 
L 532.316381 837.064795 
" clip-path="url(#p4d197e4a6f)" style="fill: none; stroke: #7a7a7a; stroke-width: 3; stroke-linecap: square"/>
   </g>
   <g id="line2d_80">
    <path d="M 493.70287 887.062105 
L 542.362172 880.812442 
" clip-path="url(#p4d197e4a6f)" style="fill: none; stroke: #7a7a7a; stroke-width: 3; stroke-linecap: square"/>
   </g>
   <g id="line2d_81">
    <path d="M 917.195769 906.410379 
L 916.986482 890.058519 
L 918.137562 874.305942 
L 921.067584 859.067036 
L 925.985837 844.513025 
L 932.996962 830.900744 
L 942.519535 818.230192 
L 954.6582 806.672595 
L 969.831531 796.399175 
L 988.248815 787.581157 
L 1010.014697 780.218539 
L 1035.547751 774.482546 
" clip-path="url(#p4d197e4a6f)" style="fill: none; stroke: #7a7a7a; stroke-width: 3; stroke-linecap: square"/>
   </g>
   <g id="line2d_82">
    <path d="M 973.180128 905.04059 
L 973.284772 876.360626 
L 976.738013 854.700833 
L 983.016632 838.777032 
L 991.702056 827.47627 
L 1002.271066 819.599982 
L 1014.305087 813.778377 
L 1040.884577 803.847405 
" clip-path="url(#p4d197e4a6f)" style="fill: none; stroke: #7a7a7a; stroke-width: 3; stroke-linecap: square"/>
   </g>
   <g id="line2d_83">
    <path d="M 1035.547751 774.482546 
L 1020.688351 774.311323 
L 1004.468583 773.797652 
L 987.620953 772.171027 
L 970.877968 768.832165 
L 954.6582 763.181784 
L 939.694156 754.363766 
L 926.613699 741.864438 
L 915.940045 724.827684 
L 908.510345 702.739831 
L 904.847817 674.915986 
" clip-path="url(#p4d197e4a6f)" style="fill: none; stroke: #7a7a7a; stroke-width: 3; stroke-linecap: square"/>
   </g>
   <g id="line2d_84">
    <path d="M 1031.885222 727.90971 
L 1008.758973 719.177303 
L 990.65562 708.989495 
L 977.156587 698.202404 
L 967.634014 687.415313 
L 961.564682 677.398729 
L 961.460038 674.145479 
" clip-path="url(#p4d197e4a6f)" style="fill: none; stroke: #7a7a7a; stroke-width: 3; stroke-linecap: square"/>
   </g>
   <g id="line2d_85">
    <path d="M 917.195769 906.410379 
L 935.717697 1268.976487 
L 935.717697 1269.918217 
L 935.822341 1270.603112 
" clip-path="url(#p4d197e4a6f)" style="fill: none; stroke: #7a7a7a; stroke-width: 3; stroke-linecap: square"/>
   </g>
   <g id="line2d_86">
    <path d="M 861.002123 911.803925 
L 864.246076 943.223467 
L 867.385386 1015.993524 
L 868.327179 1042.961251 
L 871.361845 1083.198812 
L 874.91973 1145.609838 
L 877.745108 1227.283525 
L 879.942625 1268.976487 
L 879.942625 1269.918217 
L 880.047269 1270.603112 
" clip-path="url(#p4d197e4a6f)" style="fill: none; stroke: #7a7a7a; stroke-width: 3; stroke-linecap: square"/>
   </g>
   <g id="line2d_87">
    <path d="M 393.663529 854.872056 
L 491.086778 842.372729 
" clip-path="url(#p4d197e4a6f)" style="fill: none; stroke: #7a7a7a; stroke-width: 3; stroke-linecap: square"/>
   </g>
   <g id="line2d_88">
    <path d="M 395.651758 899.732656 
L 493.70287 887.062105 
" clip-path="url(#p4d197e4a6f)" style="fill: none; stroke: #7a7a7a; stroke-width: 3; stroke-linecap: square"/>
   </g>
   <g id="line2d_89">
    <path d="M 879.733338 206.105594 
L 882.140142 250.366911 
" clip-path="url(#p4d197e4a6f)" style="fill: none; stroke: #7a7a7a; stroke-width: 3; stroke-linecap: square"/>
   </g>
   <g id="line2d_90">
    <path d="M 823.958266 207.218548 
L 825.946496 242.747458 
L 826.469714 252.079148 
" clip-path="url(#p4d197e4a6f)" style="fill: none; stroke: #7a7a7a; stroke-width: 3; stroke-linecap: square"/>
   </g>
   <g id="line2d_91">
    <path d="M 879.733338 206.105594 
L 876.907959 153.283094 
" clip-path="url(#p4d197e4a6f)" style="fill: none; stroke: #7a7a7a; stroke-width: 3; stroke-linecap: square"/>
   </g>
   <g id="line2d_92">
    <path d="M 935.822341 204.992641 
L 933.206249 152.769423 
" clip-path="url(#p4d197e4a6f)" style="fill: none; stroke: #7a7a7a; stroke-width: 3; stroke-linecap: square"/>
   </g>
   <g id="line2d_93">
    <path d="M 557.421662 863.135939 
L 553.947166 864.672187 
" clip-path="url(#p4d197e4a6f)" style="fill: none; stroke-dasharray: 32,8,5,8; stroke-dashoffset: 0; stroke: #1e90ff; stroke-width: 5"/>
   </g>
   <g id="line2d_94">
    <path d="M 209.287324 851.12656 
L 211.62239 838.953627 
" clip-path="url(#p4d197e4a6f)" style="fill: none; stroke-dasharray: 32,8,5,8; stroke-dashoffset: 0; stroke: #1e90ff; stroke-width: 5"/>
   </g>
   <g id="line2d_95">
    <path d="M 477.508241 869.264208 
L 474.738863 867.493343 
" clip-path="url(#p4d197e4a6f)" style="fill: none; stroke-dasharray: 32,8,5,8; stroke-dashoffset: 0; stroke: #1e90ff; stroke-width: 5"/>
   </g>
   <g id="line2d_96">
    <path d="M 942.319241 536.691712 
L 940.341843 536.648864 
" clip-path="url(#p4d197e4a6f)" style="fill: none; stroke-dasharray: 32,8,5,8; stroke-dashoffset: 0; stroke: #1e90ff; stroke-width: 5"/>
   </g>
   <g id="line2d_97">
    <path d="M 969.967036 1105.472707 
L 969.313013 1106.65729 
" clip-path="url(#p4d197e4a6f)" style="fill: none; stroke-dasharray: 32,8,5,8; stroke-dashoffset: 0; stroke: #1e90ff; stroke-width: 5"/>
   </g>
   <g id="line2d_98">
    <path d="M 1229.251344 730.342499 
L 1225.700204 728.704357 
" clip-path="url(#p4d197e4a6f)" style="fill: none; stroke-dasharray: 32,8,5,8; stroke-dashoffset: 0; stroke: #1e90ff; stroke-width: 5"/>
   </g>
   <g id="line2d_99">
    <path d="M 915.8773 1183.164504 
L 915.570727 1182.368686 
" clip-path="url(#p4d197e4a6f)" style="fill: none; stroke-dasharray: 32,8,5,8; stroke-dashoffset: 0; stroke: #1e90ff; stroke-width: 5"/>
   </g>
   <g id="line2d_100">
    <path d="M 1282.012596 728.402856 
L 1283.034507 725.927616 
" clip-path="url(#p4d197e4a6f)" style="fill: none; stroke-dasharray: 32,8,5,8; stroke-dashoffset: 0; stroke: #1e90ff; stroke-width: 5"/>
   </g>
   <g id="line2d_101">
    <path d="M 899.797534 494.827401 
L 894.391626 42.805916 
" clip-path="url(#p4d197e4a6f)" style="fill: none; stroke-dasharray: 32,8,5,8; stroke-dashoffset: 0; stroke: #1e90ff; stroke-width: 5"/>
   </g>
   <g id="line2d_102">
    <path d="M 1281.797995 800.4236 
L 1276.979686 796.771093 
" clip-path="url(#p4d197e4a6f)" style="fill: none; stroke-dasharray: 32,8,5,8; stroke-dashoffset: 0; stroke: #1e90ff; stroke-width: 5"/>
   </g>
   <g id="line2d_103">
    <path d="M 915.371454 457.163211 
L 909.12247 360.561462 
" clip-path="url(#p4d197e4a6f)" style="fill: none; stroke-dasharray: 32,8,5,8; stroke-dashoffset: 0; stroke: #1e90ff; stroke-width: 5"/>
   </g>
   <g id="line2d_104">
    <path d="M 678.211514 837.127374 
L 726.782933 828.821187 
" clip-path="url(#p4d197e4a6f)" style="fill: none; stroke-dasharray: 32,8,5,8; stroke-dashoffset: 0; stroke: #1e90ff; stroke-width: 5"/>
   </g>
   <g id="line2d_105">
    <path d="M 557.421662 863.135939 
" clip-path="url(#p4d197e4a6f)" style="fill: none; stroke: #0000ff; stroke-width: 1.5; stroke-linecap: square"/>
    <defs>
     <path id="m47eac2b78c" d="M 0 10 
C 2.652031 10 5.195799 8.946337 7.071068 7.071068 
C 8.946337 5.195799 10 2.652031 10 0 
C 10 -2.652031 8.946337 -5.195799 7.071068 -7.071068 
C 5.195799 -8.946337 2.652031 -10 0 -10 
C -2.652031 -10 -5.195799 -8.946337 -7.071068 -7.071068 
C -8.946337 -5.195799 -10 -2.652031 -10 0 
C -10 2.652031 -8.946337 5.195799 -7.071068 7.071068 
C -5.195799 8.946337 -2.652031 10 0 10 
z
" style="stroke: #0000ff"/>
    </defs>
    <g clip-path="url(#p4d197e4a6f)">
     <use xlink:href="#m47eac2b78c" x="557.421662" y="863.135939" style="fill: #0000ff; stroke: #0000ff"/>
    </g>
   </g>
   <g id="line2d_106">
    <path d="M 209.287324 851.12656 
" clip-path="url(#p4d197e4a6f)" style="fill: none; stroke: #0000ff; stroke-width: 1.5; stroke-linecap: square"/>
    <g clip-path="url(#p4d197e4a6f)">
     <use xlink:href="#m47eac2b78c" x="209.287324" y="851.12656" style="fill: #0000ff; stroke: #0000ff"/>
    </g>
   </g>
   <g id="line2d_107">
    <path d="M 477.508241 869.264208 
" clip-path="url(#p4d197e4a6f)" style="fill: none; stroke: #0000ff; stroke-width: 1.5; stroke-linecap: square"/>
    <g clip-path="url(#p4d197e4a6f)">
     <use xlink:href="#m47eac2b78c" x="477.508241" y="869.264208" style="fill: #0000ff; stroke: #0000ff"/>
    </g>
   </g>
   <g id="line2d_108">
    <path d="M 942.319241 536.691712 
" clip-path="url(#p4d197e4a6f)" style="fill: none; stroke: #0000ff; stroke-width: 1.5; stroke-linecap: square"/>
    <g clip-path="url(#p4d197e4a6f)">
     <use xlink:href="#m47eac2b78c" x="942.319241" y="536.691712" style="fill: #0000ff; stroke: #0000ff"/>
    </g>
   </g>
   <g id="line2d_109">
    <path d="M 969.967036 1105.472707 
" clip-path="url(#p4d197e4a6f)" style="fill: none; stroke: #0000ff; stroke-width: 1.5; stroke-linecap: square"/>
    <g clip-path="url(#p4d197e4a6f)">
     <use xlink:href="#m47eac2b78c" x="969.967036" y="1105.472707" style="fill: #0000ff; stroke: #0000ff"/>
    </g>
   </g>
   <g id="line2d_110">
    <path d="M 1229.251344 730.342499 
" clip-path="url(#p4d197e4a6f)" style="fill: none; stroke: #0000ff; stroke-width: 1.5; stroke-linecap: square"/>
    <g clip-path="url(#p4d197e4a6f)">
     <use xlink:href="#m47eac2b78c" x="1229.251344" y="730.342499" style="fill: #0000ff; stroke: #0000ff"/>
    </g>
   </g>
   <g id="line2d_111">
    <path d="M 915.8773 1183.164504 
" clip-path="url(#p4d197e4a6f)" style="fill: none; stroke: #0000ff; stroke-width: 1.5; stroke-linecap: square"/>
    <g clip-path="url(#p4d197e4a6f)">
     <use xlink:href="#m47eac2b78c" x="915.8773" y="1183.164504" style="fill: #0000ff; stroke: #0000ff"/>
    </g>
   </g>
   <g id="line2d_112">
    <path d="M 1282.012596 728.402856 
" clip-path="url(#p4d197e4a6f)" style="fill: none; stroke: #0000ff; stroke-width: 1.5; stroke-linecap: square"/>
    <g clip-path="url(#p4d197e4a6f)">
     <use xlink:href="#m47eac2b78c" x="1282.012596" y="728.402856" style="fill: #0000ff; stroke: #0000ff"/>
    </g>
   </g>
   <g id="line2d_113">
    <path d="M 899.797534 494.827401 
" clip-path="url(#p4d197e4a6f)" style="fill: none; stroke: #0000ff; stroke-width: 1.5; stroke-linecap: square"/>
    <g clip-path="url(#p4d197e4a6f)">
     <use xlink:href="#m47eac2b78c" x="899.797534" y="494.827401" style="fill: #0000ff; stroke: #0000ff"/>
    </g>
   </g>
   <g id="line2d_114">
    <path d="M 1281.797995 800.4236 
" clip-path="url(#p4d197e4a6f)" style="fill: none; stroke: #0000ff; stroke-width: 1.5; stroke-linecap: square"/>
    <g clip-path="url(#p4d197e4a6f)">
     <use xlink:href="#m47eac2b78c" x="1281.797995" y="800.4236" style="fill: #0000ff; stroke: #0000ff"/>
    </g>
   </g>
   <g id="line2d_115">
    <path d="M 915.371454 457.163211 
" clip-path="url(#p4d197e4a6f)" style="fill: none; stroke: #0000ff; stroke-width: 1.5; stroke-linecap: square"/>
    <g clip-path="url(#p4d197e4a6f)">
     <use xlink:href="#m47eac2b78c" x="915.371454" y="457.163211" style="fill: #0000ff; stroke: #0000ff"/>
    </g>
   </g>
   <g id="line2d_116">
    <path d="M 678.211514 837.127374 
" clip-path="url(#p4d197e4a6f)" style="fill: none; stroke: #0000ff; stroke-width: 1.5; stroke-linecap: square"/>
    <g clip-path="url(#p4d197e4a6f)">
     <use xlink:href="#m47eac2b78c" x="678.211514" y="837.127374" style="fill: #0000ff; stroke: #0000ff"/>
    </g>
   </g>
   <g id="line2d_117">
    <path d="M 553.947166 864.672187 
" clip-path="url(#p4d197e4a6f)" style="fill: none; stroke: #ff0000; stroke-width: 1.5; stroke-linecap: square"/>
    <defs>
     <path id="m7d91543494" d="M 0 -10 
L -2.24514 -3.09017 
L -9.510565 -3.09017 
L -3.632713 1.18034 
L -5.877853 8.09017 
L -0 3.81966 
L 5.877853 8.09017 
L 3.632713 1.18034 
L 9.510565 -3.09017 
L 2.24514 -3.09017 
z
" style="stroke: #ff0000; stroke-linejoin: bevel"/>
    </defs>
    <g clip-path="url(#p4d197e4a6f)">
     <use xlink:href="#m7d91543494" x="553.947166" y="864.672187" style="fill: #ff0000; stroke: #ff0000; stroke-linejoin: bevel"/>
    </g>
   </g>
   <g id="line2d_118">
    <path d="M 211.62239 838.953627 
" clip-path="url(#p4d197e4a6f)" style="fill: none; stroke: #ff0000; stroke-width: 1.5; stroke-linecap: square"/>
    <g clip-path="url(#p4d197e4a6f)">
     <use xlink:href="#m7d91543494" x="211.62239" y="838.953627" style="fill: #ff0000; stroke: #ff0000; stroke-linejoin: bevel"/>
    </g>
   </g>
   <g id="line2d_119">
    <path d="M 474.738863 867.493343 
" clip-path="url(#p4d197e4a6f)" style="fill: none; stroke: #ff0000; stroke-width: 1.5; stroke-linecap: square"/>
    <g clip-path="url(#p4d197e4a6f)">
     <use xlink:href="#m7d91543494" x="474.738863" y="867.493343" style="fill: #ff0000; stroke: #ff0000; stroke-linejoin: bevel"/>
    </g>
   </g>
   <g id="line2d_120">
    <path d="M 940.341843 536.648864 
" clip-path="url(#p4d197e4a6f)" style="fill: none; stroke: #ff0000; stroke-width: 1.5; stroke-linecap: square"/>
    <g clip-path="url(#p4d197e4a6f)">
     <use xlink:href="#m7d91543494" x="940.341843" y="536.648864" style="fill: #ff0000; stroke: #ff0000; stroke-linejoin: bevel"/>
    </g>
   </g>
   <g id="line2d_121">
    <path d="M 969.313013 1106.65729 
" clip-path="url(#p4d197e4a6f)" style="fill: none; stroke: #ff0000; stroke-width: 1.5; stroke-linecap: square"/>
    <g clip-path="url(#p4d197e4a6f)">
     <use xlink:href="#m7d91543494" x="969.313013" y="1106.65729" style="fill: #ff0000; stroke: #ff0000; stroke-linejoin: bevel"/>
    </g>
   </g>
   <g id="line2d_122">
    <path d="M 1225.700204 728.704357 
" clip-path="url(#p4d197e4a6f)" style="fill: none; stroke: #ff0000; stroke-width: 1.5; stroke-linecap: square"/>
    <g clip-path="url(#p4d197e4a6f)">
     <use xlink:href="#m7d91543494" x="1225.700204" y="728.704357" style="fill: #ff0000; stroke: #ff0000; stroke-linejoin: bevel"/>
    </g>
   </g>
   <g id="line2d_123">
    <path d="M 915.570727 1182.368686 
" clip-path="url(#p4d197e4a6f)" style="fill: none; stroke: #ff0000; stroke-width: 1.5; stroke-linecap: square"/>
    <g clip-path="url(#p4d197e4a6f)">
     <use xlink:href="#m7d91543494" x="915.570727" y="1182.368686" style="fill: #ff0000; stroke: #ff0000; stroke-linejoin: bevel"/>
    </g>
   </g>
   <g id="line2d_124">
    <path d="M 1283.034507 725.927616 
" clip-path="url(#p4d197e4a6f)" style="fill: none; stroke: #ff0000; stroke-width: 1.5; stroke-linecap: square"/>
    <g clip-path="url(#p4d197e4a6f)">
     <use xlink:href="#m7d91543494" x="1283.034507" y="725.927616" style="fill: #ff0000; stroke: #ff0000; stroke-linejoin: bevel"/>
    </g>
   </g>
   <g id="line2d_125">
    <path d="M 894.391626 42.805916 
" clip-path="url(#p4d197e4a6f)" style="fill: none; stroke: #ff0000; stroke-width: 1.5; stroke-linecap: square"/>
    <g clip-path="url(#p4d197e4a6f)">
     <use xlink:href="#m7d91543494" x="894.391626" y="42.805916" style="fill: #ff0000; stroke: #ff0000; stroke-linejoin: bevel"/>
    </g>
   </g>
   <g id="line2d_126">
    <path d="M 1276.979686 796.771093 
" clip-path="url(#p4d197e4a6f)" style="fill: none; stroke: #ff0000; stroke-width: 1.5; stroke-linecap: square"/>
    <g clip-path="url(#p4d197e4a6f)">
     <use xlink:href="#m7d91543494" x="1276.979686" y="796.771093" style="fill: #ff0000; stroke: #ff0000; stroke-linejoin: bevel"/>
    </g>
   </g>
   <g id="line2d_127">
    <path d="M 909.12247 360.561462 
" clip-path="url(#p4d197e4a6f)" style="fill: none; stroke: #ff0000; stroke-width: 1.5; stroke-linecap: square"/>
    <g clip-path="url(#p4d197e4a6f)">
     <use xlink:href="#m7d91543494" x="909.12247" y="360.561462" style="fill: #ff0000; stroke: #ff0000; stroke-linejoin: bevel"/>
    </g>
   </g>
   <g id="line2d_128">
    <path d="M 726.782933 828.821187 
" clip-path="url(#p4d197e4a6f)" style="fill: none; stroke: #ff0000; stroke-width: 1.5; stroke-linecap: square"/>
    <g clip-path="url(#p4d197e4a6f)">
     <use xlink:href="#m7d91543494" x="726.782933" y="828.821187" style="fill: #ff0000; stroke: #ff0000; stroke-linejoin: bevel"/>
    </g>
   </g>
  </g>
 </g>
 <defs>
  <clipPath id="p4d197e4a6f">
   <rect x="0" y="0" width="1440" height="1440"/>
  </clipPath>
 </defs>
</svg>
