<?xml version="1.0" encoding="utf-8" standalone="no"?>
<!DOCTYPE svg PUBLIC "-//W3C//DTD SVG 1.1//EN"
  "http://www.w3.org/Graphics/SVG/1.1/DTD/svg11.dtd">
<svg xmlns:xlink="http://www.w3.org/1999/xlink" width="1440pt" height="1440pt" viewBox="0 0 1440 1440" xmlns="http://www.w3.org/2000/svg" version="1.1">
 <metadata>
  <rdf:RDF xmlns:dc="http://purl.org/dc/elements/1.1/" xmlns:cc="http://creativecommons.org/ns#" xmlns:rdf="http://www.w3.org/1999/02/22-rdf-syntax-ns#">
   <cc:Work>
    <dc:type rdf:resource="http://purl.org/dc/dcmitype/StillImage"/>
    <dc:date>2026-02-27T11:12:17.593094</dc:date>
    <dc:format>image/svg+xml</dc:format>
    <dc:creator>
     <cc:Agent>
      <dc:title>Matplotlib v3.7.3, https://matplotlib.org/</dc:title>
     </cc:Agent>
    </dc:creator>
   </cc:Work>
  </rdf:RDF>
 </metadata>
 <defs>
  <style type="text/css">*{stroke-linejoin: round; stroke-linecap: butt}</style>
 </defs>
 <g id="figure_1">
  <g id="patch_1">
   <path d="M 0 1440 
L 1440 1440 
L 1440 0 
L 0 0 
z
" style="fill: #ffffff"/>
  </g>
  <g id="axes_1">
   <g id="line2d_1">
    <path d="M 1069.749539 234.324774 
L 1069.358973 234.743303 
L 1068.968406 235.078127 
L 1068.81218 235.245538 
L 1068.265387 235.747773 
L 902.821461 400.983103 
L 815.100248 487.032708 
L 751.750378 550.314323 
L 678.714462 622.385052 
L 601.226089 699.227014 
L 601.069862 699.394426 
" clip-path="url(#pcc9bd0fdc5)" style="fill: none; stroke: #7a7a7a; stroke-width: 3; stroke-linecap: square"/>
   </g>
   <g id="line2d_2">
    <path d="M 1069.749539 205.948494 
L 1069.358973 206.367023 
L 1068.968406 206.701846 
L 1068.81218 206.869258 
L 1068.3435 207.371493 
L 989.214748 286.892042 
L 898.212777 376.792115 
L 859.93727 414.878273 
L 851.11047 423.248857 
L 763.545483 511.725931 
L 687.775602 585.973011 
L 601.226089 670.599617 
L 601.069862 670.767028 
" clip-path="url(#pcc9bd0fdc5)" style="fill: none; stroke: #7a7a7a; stroke-width: 3; stroke-linecap: square"/>
   </g>
   <g id="line2d_3">
    <path d="M 601.069862 767.698392 
L 601.226089 767.53098 
L 758.311894 611.586999 
L 1068.187274 306.395503 
L 1068.81218 305.809562 
L 1068.968406 305.64215 
L 1069.358973 305.307327 
L 1069.749539 304.888798 
" clip-path="url(#pcc9bd0fdc5)" style="fill: none; stroke: #7a7a7a; stroke-width: 3; stroke-linecap: square"/>
   </g>
   <g id="line2d_4">
    <path d="M 601.069862 799.255494 
L 601.226089 799.088082 
L 798.149666 603.30012 
L 862.436895 540.353328 
L 971.795487 430.949794 
L 1015.617036 388.76205 
L 1068.187274 336.948135 
L 1068.81218 336.278488 
L 1068.968406 336.111076 
L 1069.358973 335.776253 
L 1069.749539 335.357724 
" clip-path="url(#pcc9bd0fdc5)" style="fill: none; stroke: #7a7a7a; stroke-width: 3; stroke-linecap: square"/>
   </g>
   <g id="line2d_5">
    <path d="M 601.069862 733.546409 
L 601.226089 733.378997 
L 1068.265387 271.322756 
L 1068.81218 270.736815 
L 1068.968406 270.569403 
L 1069.358973 270.23458 
L 1069.749539 269.81605 
" clip-path="url(#pcc9bd0fdc5)" style="fill: none; stroke: #7a7a7a; stroke-width: 3; stroke-linecap: square"/>
   </g>
   <g id="line2d_6">
    <path d="M 601.069862 767.698392 
L 601.226089 767.53098 
L 758.311894 611.586999 
L 1068.187274 306.395503 
L 1068.81218 305.809562 
L 1068.968406 305.64215 
L 1069.358973 305.307327 
L 1069.749539 304.888798 
" clip-path="url(#pcc9bd0fdc5)" style="fill: none; stroke: #7a7a7a; stroke-width: 3; stroke-linecap: square"/>
   </g>
   <g id="line2d_7">
    <path d="M -1 1323.064101 
L 128.875087 1196.941944 
L 130.671693 1195.267827 
L 131.218486 1194.681886 
L 131.765279 1194.179651 
L 132.155845 1193.761122 
L 132.390185 1193.59371 
" clip-path="url(#pcc9bd0fdc5)" style="fill: none; stroke: #7a7a7a; stroke-width: 3; stroke-linecap: square"/>
   </g>
   <g id="line2d_8">
    <path d="M -1 1354.883092 
L 128.875087 1229.670928 
L 130.671693 1227.913105 
L 131.218486 1227.41087 
L 131.765279 1226.824929 
L 132.155845 1226.4064 
L 132.390185 1226.238988 
" clip-path="url(#pcc9bd0fdc5)" style="fill: none; stroke: #7a7a7a; stroke-width: 3; stroke-linecap: square"/>
   </g>
   <g id="line2d_9">
    <path d="M 1069.749539 269.81605 
L 1069.358973 270.23458 
L 1068.968406 270.569403 
L 1068.81218 270.736815 
L 1068.265387 271.322756 
L 601.226089 733.378997 
L 601.069862 733.546409 
" clip-path="url(#pcc9bd0fdc5)" style="fill: none; stroke: #7a7a7a; stroke-width: 3; stroke-linecap: square"/>
   </g>
   <g id="line2d_10">
    <path d="M 1069.749539 234.324774 
L 1069.358973 234.743303 
L 1068.968406 235.078127 
L 1068.81218 235.245538 
L 1068.265387 235.747773 
L 902.821461 400.983103 
L 815.100248 487.032708 
L 751.750378 550.314323 
L 678.714462 622.385052 
L 601.226089 699.227014 
L 601.069862 699.394426 
" clip-path="url(#pcc9bd0fdc5)" style="fill: none; stroke: #7a7a7a; stroke-width: 3; stroke-linecap: square"/>
   </g>
   <g id="line2d_11">
    <path d="M -1 1354.883092 
L 128.875087 1229.670928 
L 130.671693 1227.913105 
L 131.218486 1227.41087 
L 131.765279 1226.824929 
L 132.155845 1226.4064 
L 132.390185 1226.238988 
" clip-path="url(#pcc9bd0fdc5)" style="fill: none; stroke: #7a7a7a; stroke-width: 3; stroke-linecap: square"/>
   </g>
   <g id="line2d_12">
    <path d="M -1 1383.645452 
L 85.522217 1301.07201 
L 105.83167 1281.484843 
L 126.766029 1261.646559 
L 128.875087 1259.721325 
L 130.671693 1257.963502 
L 131.218486 1257.461267 
L 131.765279 1256.875326 
L 132.155845 1256.456797 
L 132.390185 1256.289385 
" clip-path="url(#pcc9bd0fdc5)" style="fill: none; stroke: #7a7a7a; stroke-width: 3; stroke-linecap: square"/>
   </g>
   <g id="line2d_13">
    <path d="M 132.390185 1193.59371 
L 132.155845 1193.761122 
L 131.765279 1194.179651 
L 131.218486 1194.681886 
L 130.671693 1195.267827 
L 128.875087 1196.941944 
L -1 1323.064101 
" clip-path="url(#pcc9bd0fdc5)" style="fill: none; stroke: #7a7a7a; stroke-width: 3; stroke-linecap: square"/>
   </g>
   <g id="line2d_14">
    <path d="M 132.390185 1158.688375 
L 132.155845 1158.939492 
L 131.765279 1159.274316 
L 131.218486 1159.860256 
L 130.671693 1160.362491 
L 128.953201 1162.120314 
L -1 1288.615251 
" clip-path="url(#pcc9bd0fdc5)" style="fill: none; stroke: #7a7a7a; stroke-width: 3; stroke-linecap: square"/>
   </g>
   <g id="line2d_15">
    <path d="M 132.390185 1193.59371 
L 287.288818 1044.178784 
" clip-path="url(#pcc9bd0fdc5)" style="fill: none; stroke: #7a7a7a; stroke-width: 3; stroke-linecap: square"/>
   </g>
   <g id="line2d_16">
    <path d="M 132.390185 1226.238988 
L 300.724302 1061.924423 
" clip-path="url(#pcc9bd0fdc5)" style="fill: none; stroke: #7a7a7a; stroke-width: 3; stroke-linecap: square"/>
   </g>
   <g id="line2d_17">
    <path d="M 287.288818 1044.178784 
L 407.114589 923.977197 
" clip-path="url(#pcc9bd0fdc5)" style="fill: none; stroke: #7a7a7a; stroke-width: 3; stroke-linecap: square"/>
   </g>
   <g id="line2d_18">
    <path d="M 300.724302 1061.924423 
L 423.205925 941.555423 
" clip-path="url(#pcc9bd0fdc5)" style="fill: none; stroke: #7a7a7a; stroke-width: 3; stroke-linecap: square"/>
   </g>
   <g id="line2d_19">
    <path d="M 132.390185 1226.238988 
L 300.724302 1061.924423 
" clip-path="url(#pcc9bd0fdc5)" style="fill: none; stroke: #7a7a7a; stroke-width: 3; stroke-linecap: square"/>
   </g>
   <g id="line2d_20">
    <path d="M 132.390185 1256.289385 
L 314.706579 1078.414473 
" clip-path="url(#pcc9bd0fdc5)" style="fill: none; stroke: #7a7a7a; stroke-width: 3; stroke-linecap: square"/>
   </g>
   <g id="line2d_21">
    <path d="M 276.743526 885.723628 
L 162.073231 755.393633 
" clip-path="url(#pcc9bd0fdc5)" style="fill: none; stroke: #7a7a7a; stroke-width: 3; stroke-linecap: square"/>
   </g>
   <g id="line2d_22">
    <path d="M 295.568826 868.229107 
L 280.024283 850.567174 
L 278.540131 848.809352 
L 175.743055 732.290821 
" clip-path="url(#pcc9bd0fdc5)" style="fill: none; stroke: #7a7a7a; stroke-width: 3; stroke-linecap: square"/>
   </g>
   <g id="line2d_23">
    <path d="M 381.337207 1047.610724 
L 497.64788 1179.1126 
" clip-path="url(#pcc9bd0fdc5)" style="fill: none; stroke: #7a7a7a; stroke-width: 3; stroke-linecap: square"/>
   </g>
   <g id="line2d_24">
    <path d="M 345.639438 1080.004884 
L 468.433513 1211.255643 
" clip-path="url(#pcc9bd0fdc5)" style="fill: none; stroke: #7a7a7a; stroke-width: 3; stroke-linecap: square"/>
   </g>
   <g id="line2d_25">
    <path d="M 132.390185 1158.688375 
L 132.155845 1158.939492 
L 131.765279 1159.274316 
L 131.218486 1159.860256 
L 130.671693 1160.362491 
L 128.953201 1162.120314 
L -1 1288.615251 
" clip-path="url(#pcc9bd0fdc5)" style="fill: none; stroke: #7a7a7a; stroke-width: 3; stroke-linecap: square"/>
   </g>
   <g id="line2d_26">
    <path d="M 132.390185 1128.554272 
L 132.155845 1128.805389 
L 131.843392 1129.140213 
L 131.218486 1129.726154 
L 130.671693 1130.228389 
L 128.953201 1131.902506 
L 95.83317 1164.21296 
L 70.212014 1188.906183 
L 31.467828 1226.490106 
L 11.548942 1246.160978 
L -1 1258.175104 
" clip-path="url(#pcc9bd0fdc5)" style="fill: none; stroke: #7a7a7a; stroke-width: 3; stroke-linecap: square"/>
   </g>
   <g id="line2d_27">
    <path d="M 407.114589 923.977197 
L 374.228898 956.371357 
L 366.730024 963.988589 
L 361.574547 974.870348 
L 359.153035 988.179577 
L 359.621715 1002.911805 
L 363.293039 1018.313679 
L 370.401348 1033.464437 
L 381.337207 1047.610724 
" clip-path="url(#pcc9bd0fdc5)" style="fill: none; stroke: #7a7a7a; stroke-width: 3; stroke-linecap: square"/>
   </g>
   <g id="line2d_28">
    <path d="M 391.64816 905.813029 
L 358.840582 938.20719 
L 347.59227 948.335597 
L 338.53113 961.226296 
L 331.579048 976.125936 
L 326.892251 992.281163 
L 324.392626 1009.189743 
L 324.080173 1026.098323 
L 326.033005 1042.25355 
L 330.251122 1057.15319 
L 336.734524 1069.960183 
L 345.639438 1080.004884 
" clip-path="url(#pcc9bd0fdc5)" style="fill: none; stroke: #7a7a7a; stroke-width: 3; stroke-linecap: square"/>
   </g>
   <g id="line2d_29">
    <path d="M 276.743526 885.723628 
L 305.254873 918.452611 
L 317.128091 929.250665 
L 330.173009 937.20272 
L 343.842833 942.308776 
L 357.82511 944.568834 
L 371.573047 943.899187 
L 384.617965 940.299836 
L 396.64741 933.687074 
L 407.114589 923.977197 
" clip-path="url(#pcc9bd0fdc5)" style="fill: none; stroke: #7a7a7a; stroke-width: 3; stroke-linecap: square"/>
   </g>
   <g id="line2d_30">
    <path d="M 259.011811 904.473736 
L 286.742025 935.77972 
L 288.304291 938.039778 
L 298.615244 948.586714 
L 311.035255 957.878062 
L 324.392626 964.909353 
L 338.453016 969.513174 
L 352.982086 971.689526 
L 367.745496 971.270997 
L 382.352679 968.173881 
L 396.725523 962.314472 
L 410.395347 953.441653 
L 423.205925 941.555423 
" clip-path="url(#pcc9bd0fdc5)" style="fill: none; stroke: #7a7a7a; stroke-width: 3; stroke-linecap: square"/>
   </g>
   <g id="line2d_31">
    <path d="M 391.64816 905.813029 
L 270.18201 1024.591618 
" clip-path="url(#pcc9bd0fdc5)" style="fill: none; stroke: #7a7a7a; stroke-width: 3; stroke-linecap: square"/>
   </g>
   <g id="line2d_32">
    <path d="M 378.525129 890.327449 
L 367.58927 900.037326 
L 284.554853 981.48311 
L 256.980866 1008.185273 
" clip-path="url(#pcc9bd0fdc5)" style="fill: none; stroke: #7a7a7a; stroke-width: 3; stroke-linecap: square"/>
   </g>
   <g id="line2d_33">
    <path d="M 276.743526 885.723628 
L 291.975615 902.632207 
L 303.692607 917.531847 
L 312.128841 930.673664 
L 317.284318 942.476188 
L 319.315263 953.525359 
L 318.29979 964.072295 
L 314.394126 974.535525 
L 307.676384 985.333578 
L 298.224677 996.884984 
L 286.195232 1009.691978 
L 270.18201 1024.591618 
" clip-path="url(#pcc9bd0fdc5)" style="fill: none; stroke: #7a7a7a; stroke-width: 3; stroke-linecap: square"/>
   </g>
   <g id="line2d_34">
    <path d="M 259.011811 904.473736 
L 275.728053 922.219374 
L 287.523158 935.947132 
L 294.787693 946.66148 
L 297.755998 955.618005 
L 296.818638 963.737471 
L 294.319013 968.424998 
L 294.162787 968.676116 
L 293.850334 969.178351 
L 292.131842 972.359173 
L 290.960142 973.782172 
L 290.17901 975.03776 
L 287.601271 978.05117 
L 284.086174 982.403874 
L 256.980866 1008.185273 
" clip-path="url(#pcc9bd0fdc5)" style="fill: none; stroke: #7a7a7a; stroke-width: 3; stroke-linecap: square"/>
   </g>
   <g id="line2d_35">
    <path d="M 497.64788 1179.1126 
L 381.337207 1047.610724 
" clip-path="url(#pcc9bd0fdc5)" style="fill: none; stroke: #7a7a7a; stroke-width: 3; stroke-linecap: square"/>
   </g>
   <g id="line2d_36">
    <path d="M 533.267535 1144.625793 
L 415.160257 1011.86833 
" clip-path="url(#pcc9bd0fdc5)" style="fill: none; stroke: #7a7a7a; stroke-width: 3; stroke-linecap: square"/>
   </g>
   <g id="line2d_37">
    <path d="M 270.18201 1024.591618 
L 132.390185 1158.688375 
" clip-path="url(#pcc9bd0fdc5)" style="fill: none; stroke: #7a7a7a; stroke-width: 3; stroke-linecap: square"/>
   </g>
   <g id="line2d_38">
    <path d="M 256.980866 1008.185273 
L 132.390185 1128.554272 
" clip-path="url(#pcc9bd0fdc5)" style="fill: none; stroke: #7a7a7a; stroke-width: 3; stroke-linecap: square"/>
   </g>
   <g id="line2d_39">
    <path d="M 381.337207 1047.610724 
L 374.072672 1038.403081 
L 370.245121 1026.34944 
L 370.088895 1012.621682 
L 373.760219 998.140572 
L 381.337207 983.910579 
L 393.054199 971.019879 
L 423.205925 941.555423 
" clip-path="url(#pcc9bd0fdc5)" style="fill: none; stroke: #7a7a7a; stroke-width: 3; stroke-linecap: square"/>
   </g>
   <g id="line2d_40">
    <path d="M 415.160257 1011.86833 
L 403.521378 997.554631 
L 403.130812 996.047926 
L 403.755718 994.457515 
L 405.161757 992.95081 
L 405.161757 992.699692 
L 407.661382 987.928459 
L 437.813108 958.464003 
" clip-path="url(#pcc9bd0fdc5)" style="fill: none; stroke: #7a7a7a; stroke-width: 3; stroke-linecap: square"/>
   </g>
   <g id="line2d_41">
    <path d="M 287.288818 1044.178784 
L 132.390185 1193.59371 
" clip-path="url(#pcc9bd0fdc5)" style="fill: none; stroke: #7a7a7a; stroke-width: 3; stroke-linecap: square"/>
   </g>
   <g id="line2d_42">
    <path d="M 270.18201 1024.591618 
L 132.390185 1158.688375 
" clip-path="url(#pcc9bd0fdc5)" style="fill: none; stroke: #7a7a7a; stroke-width: 3; stroke-linecap: square"/>
   </g>
   <g id="line2d_43">
    <path d="M 391.64816 905.813029 
L 376.572297 917.615553 
L 362.12134 926.572078 
L 350.091895 931.76184 
L 339.077923 933.352251 
L 328.376403 931.259605 
L 317.440544 925.483902 
L 305.645439 916.025142 
L 292.288068 902.715913 
L 276.743526 885.723628 
" clip-path="url(#pcc9bd0fdc5)" style="fill: none; stroke: #7a7a7a; stroke-width: 3; stroke-linecap: square"/>
   </g>
   <g id="line2d_44">
    <path d="M 378.525129 890.327449 
L 374.619465 894.094212 
L 367.58927 900.037326 
L 361.262094 904.808559 
L 354.622465 908.659028 
L 348.217176 911.337615 
L 344.623965 912.174673 
L 341.811887 912.258379 
L 338.53113 911.756144 
L 336.109618 910.751674 
L 333.219427 908.993851 
L 329.704329 906.064147 
L 324.783192 901.209208 
L 295.568826 868.229107 
" clip-path="url(#pcc9bd0fdc5)" style="fill: none; stroke: #7a7a7a; stroke-width: 3; stroke-linecap: square"/>
   </g>
   <g id="line2d_45">
    <path d="M 407.114589 923.977197 
L 598.492124 736.057584 
L 599.741936 734.801996 
L 600.132503 734.383467 
L 600.601182 733.964938 
L 600.835522 733.713821 
L 601.069862 733.546409 
" clip-path="url(#pcc9bd0fdc5)" style="fill: none; stroke: #7a7a7a; stroke-width: 3; stroke-linecap: square"/>
   </g>
   <g id="line2d_46">
    <path d="M 423.205925 941.555423 
L 598.492124 770.293273 
L 599.741936 769.037685 
L 600.132503 768.619156 
L 600.601182 768.200627 
L 600.835522 767.949509 
L 601.069862 767.698392 
" clip-path="url(#pcc9bd0fdc5)" style="fill: none; stroke: #7a7a7a; stroke-width: 3; stroke-linecap: square"/>
   </g>
   <g id="line2d_47">
    <path d="M 601.069862 733.546409 
L 600.835522 733.713821 
L 600.601182 733.964938 
L 600.132503 734.383467 
L 599.741936 734.801996 
L 598.492124 736.057584 
L 407.114589 923.977197 
" clip-path="url(#pcc9bd0fdc5)" style="fill: none; stroke: #7a7a7a; stroke-width: 3; stroke-linecap: square"/>
   </g>
   <g id="line2d_48">
    <path d="M 601.069862 699.394426 
L 600.835522 699.561837 
L 600.601182 699.812955 
L 600.132503 700.231484 
L 599.741936 700.650013 
L 598.804577 701.654484 
L 391.64816 905.813029 
" clip-path="url(#pcc9bd0fdc5)" style="fill: none; stroke: #7a7a7a; stroke-width: 3; stroke-linecap: square"/>
   </g>
   <g id="line2d_49">
    <path d="M 276.743526 885.723628 
L 296.193732 906.901205 
L 310.644689 924.228314 
L 321.111868 938.374601 
L 328.376403 950.093419 
L 333.375653 960.221826 
L 337.046977 969.513174 
L 340.249622 978.553405 
L 343.999059 988.179577 
L 348.998309 999.145042 
L 356.340957 1012.203153 
L 366.808137 1028.107263 
L 381.337207 1047.610724 
" clip-path="url(#pcc9bd0fdc5)" style="fill: none; stroke: #7a7a7a; stroke-width: 3; stroke-linecap: square"/>
   </g>
   <g id="line2d_50">
    <path d="M 259.011811 904.473736 
L 285.335986 934.273015 
L 292.522408 942.894717 
L 296.974865 948.921537 
L 299.396377 953.609064 
L 300.646189 957.961768 
L 302.833361 970.685056 
L 305.411099 981.399404 
L 310.176009 996.550161 
L 317.909224 1017.225504 
L 329.391876 1044.681019 
L 345.639438 1080.004884 
" clip-path="url(#pcc9bd0fdc5)" style="fill: none; stroke: #7a7a7a; stroke-width: 3; stroke-linecap: square"/>
   </g>
   <g id="line2d_51">
    <path d="M 407.114589 923.977197 
L 287.288818 1044.178784 
" clip-path="url(#pcc9bd0fdc5)" style="fill: none; stroke: #7a7a7a; stroke-width: 3; stroke-linecap: square"/>
   </g>
   <g id="line2d_52">
    <path d="M 391.64816 905.813029 
L 270.18201 1024.591618 
" clip-path="url(#pcc9bd0fdc5)" style="fill: none; stroke: #7a7a7a; stroke-width: 3; stroke-linecap: square"/>
   </g>
   <g id="line2d_53">
    <path d="M 601.069862 699.394426 
L 600.835522 699.561837 
L 600.601182 699.812955 
L 600.132503 700.231484 
L 599.741936 700.650013 
L 598.804577 701.654484 
L 391.64816 905.813029 
" clip-path="url(#pcc9bd0fdc5)" style="fill: none; stroke: #7a7a7a; stroke-width: 3; stroke-linecap: square"/>
   </g>
   <g id="line2d_54">
    <path d="M 601.069862 670.767028 
L 600.835522 670.93444 
L 600.601182 671.185557 
L 600.210616 671.604087 
L 599.82005 672.022616 
L 598.570237 673.194498 
L 544.750188 725.259531 
L 459.684826 811.058018 
L 378.525129 890.327449 
" clip-path="url(#pcc9bd0fdc5)" style="fill: none; stroke: #7a7a7a; stroke-width: 3; stroke-linecap: square"/>
   </g>
   <g id="line2d_55">
    <path d="M 300.724302 1061.924423 
L 308.76997 1054.056074 
L 321.502435 1043.174314 
L 335.094145 1036.561553 
L 348.685856 1033.966672 
L 361.418321 1035.138554 
L 372.588519 1039.826081 
L 381.337207 1047.610724 
" clip-path="url(#pcc9bd0fdc5)" style="fill: none; stroke: #7a7a7a; stroke-width: 3; stroke-linecap: square"/>
   </g>
   <g id="line2d_56">
    <path d="M 314.706579 1078.414473 
L 322.752247 1070.546124 
L 330.954142 1064.854127 
L 337.749997 1069.123125 
L 345.639438 1080.004884 
" clip-path="url(#pcc9bd0fdc5)" style="fill: none; stroke: #7a7a7a; stroke-width: 3; stroke-linecap: square"/>
   </g>
   <g id="line2d_57">
    <path d="M 381.337207 1047.610724 
L 369.854555 1035.305965 
L 356.65341 1026.767969 
L 342.749247 1021.829325 
L 328.923196 1020.238914 
L 316.268845 1021.913031 
L 305.489212 1026.600558 
L 287.288818 1044.178784 
" clip-path="url(#pcc9bd0fdc5)" style="fill: none; stroke: #7a7a7a; stroke-width: 3; stroke-linecap: square"/>
   </g>
   <g id="line2d_58">
    <path d="M 415.160257 1011.86833 
L 406.802136 1001.572511 
L 396.256843 993.536751 
L 383.836832 987.761048 
L 370.088895 984.329108 
L 355.247371 983.157226 
L 339.859055 984.49652 
L 324.236399 988.179577 
L 308.926197 994.457515 
L 294.2409 1003.162922 
L 280.649189 1014.546917 
L 270.18201 1024.591618 
" clip-path="url(#pcc9bd0fdc5)" style="fill: none; stroke: #7a7a7a; stroke-width: 3; stroke-linecap: square"/>
   </g>
   <g id="line2d_59">
    <path d="M 287.288818 1044.178784 
L 298.224677 1032.459967 
L 307.363931 1019.150738 
L 314.550353 1004.669627 
L 319.471489 989.351459 
L 321.971114 973.698466 
L 321.814888 957.878062 
L 318.846583 942.392482 
L 312.831861 927.660254 
L 303.614494 913.932496 
L 290.960142 901.711443 
L 276.743526 885.723628 
" clip-path="url(#pcc9bd0fdc5)" style="fill: none; stroke: #7a7a7a; stroke-width: 3; stroke-linecap: square"/>
   </g>
   <g id="line2d_60">
    <path d="M 300.724302 1061.924423 
L 312.988087 1049.033723 
L 323.29904 1035.222259 
L 331.657161 1020.824855 
L 338.140563 1005.841509 
L 342.671133 990.607046 
L 345.248872 975.372583 
L 345.951891 960.221826 
L 344.702079 945.489598 
L 341.499434 931.343311 
L 336.422071 917.86667 
L 329.782442 906.147853 
L 324.783192 901.209208 
L 310.488462 885.053981 
L 309.707329 884.384334 
L 295.568826 868.229107 
" clip-path="url(#pcc9bd0fdc5)" style="fill: none; stroke: #7a7a7a; stroke-width: 3; stroke-linecap: square"/>
   </g>
   <g id="line2d_61">
    <path d="M 162.073231 755.393633 
L 276.743526 885.723628 
" clip-path="url(#pcc9bd0fdc5)" style="fill: none; stroke: #7a7a7a; stroke-width: 3; stroke-linecap: square"/>
   </g>
   <g id="line2d_62">
    <path d="M 140.201513 768.619156 
L 192.30307 827.213245 
L 240.264624 883.128746 
L 259.011811 904.473736 
" clip-path="url(#pcc9bd0fdc5)" style="fill: none; stroke: #7a7a7a; stroke-width: 3; stroke-linecap: square"/>
   </g>
   <g id="line2d_63">
    <path d="M 423.205925 941.555423 
L 598.492124 770.293273 
L 599.741936 769.037685 
L 600.132503 768.619156 
L 600.601182 768.200627 
L 600.835522 767.949509 
L 601.069862 767.698392 
" clip-path="url(#pcc9bd0fdc5)" style="fill: none; stroke: #7a7a7a; stroke-width: 3; stroke-linecap: square"/>
   </g>
   <g id="line2d_64">
    <path d="M 437.813108 958.464003 
L 598.414011 801.850375 
L 599.741936 800.594787 
L 600.132503 800.176258 
L 600.523069 799.757729 
L 600.835522 799.506611 
L 601.069862 799.255494 
" clip-path="url(#pcc9bd0fdc5)" style="fill: none; stroke: #7a7a7a; stroke-width: 3; stroke-linecap: square"/>
   </g>
   <g id="line2d_65">
    <path d="M 381.337207 1047.610724 
L 366.808137 1028.107263 
L 356.340957 1012.203153 
L 348.998309 999.145042 
L 343.999059 988.179577 
L 340.249622 978.553405 
L 337.046977 969.513174 
L 333.375653 960.221826 
L 328.376403 950.093419 
L 321.111868 938.374601 
L 310.644689 924.228314 
L 296.193732 906.901205 
L 276.743526 885.723628 
" clip-path="url(#pcc9bd0fdc5)" style="fill: none; stroke: #7a7a7a; stroke-width: 3; stroke-linecap: square"/>
   </g>
   <g id="line2d_66">
    <path d="M 415.160257 1011.86833 
L 295.568826 868.229107 
" clip-path="url(#pcc9bd0fdc5)" style="fill: none; stroke: #7a7a7a; stroke-width: 3; stroke-linecap: square"/>
   </g>
   <g id="line2d_67">
    <path d="M 300.724302 1061.924423 
L 423.205925 941.555423 
" clip-path="url(#pcc9bd0fdc5)" style="fill: none; stroke: #7a7a7a; stroke-width: 3; stroke-linecap: square"/>
   </g>
   <g id="line2d_68">
    <path d="M 314.706579 1078.414473 
L 437.813108 958.464003 
" clip-path="url(#pcc9bd0fdc5)" style="fill: none; stroke: #7a7a7a; stroke-width: 3; stroke-linecap: square"/>
   </g>
   <g id="line2d_69">
    <path d="M 1184.185494 156.143519 
L 1341.711468 -1 
" clip-path="url(#pcc9bd0fdc5)" style="fill: none; stroke: #7a7a7a; stroke-width: 3; stroke-linecap: square"/>
   </g>
   <g id="line2d_70">
    <path d="M 1200.198716 175.563274 
L 1376.94383 -1 
" clip-path="url(#pcc9bd0fdc5)" style="fill: none; stroke: #7a7a7a; stroke-width: 3; stroke-linecap: square"/>
   </g>
   <g id="line2d_71">
    <path d="M 1341.711468 -1 
L 1184.185494 156.143519 
" clip-path="url(#pcc9bd0fdc5)" style="fill: none; stroke: #7a7a7a; stroke-width: 3; stroke-linecap: square"/>
   </g>
   <g id="line2d_72">
    <path d="M 1307.499122 -1 
L 1165.828873 138.063057 
" clip-path="url(#pcc9bd0fdc5)" style="fill: none; stroke: #7a7a7a; stroke-width: 3; stroke-linecap: square"/>
   </g>
   <g id="line2d_73">
    <path d="M 1069.749539 304.888798 
L 1070.061992 304.63768 
L 1200.198716 175.563274 
" clip-path="url(#pcc9bd0fdc5)" style="fill: none; stroke: #7a7a7a; stroke-width: 3; stroke-linecap: square"/>
   </g>
   <g id="line2d_74">
    <path d="M 1069.749539 335.357724 
L 1069.983879 335.022901 
L 1160.75151 244.704298 
L 1214.649673 192.220736 
" clip-path="url(#pcc9bd0fdc5)" style="fill: none; stroke: #7a7a7a; stroke-width: 3; stroke-linecap: square"/>
   </g>
   <g id="line2d_75">
    <path d="M 1226.647913 -1 
L 1370.798118 150.28411 
" clip-path="url(#pcc9bd0fdc5)" style="fill: none; stroke: #7a7a7a; stroke-width: 3; stroke-linecap: square"/>
   </g>
   <g id="line2d_76">
    <path d="M 1185.04474 25.89723 
L 1332.366385 188.453973 
" clip-path="url(#pcc9bd0fdc5)" style="fill: none; stroke: #7a7a7a; stroke-width: 3; stroke-linecap: square"/>
   </g>
   <g id="line2d_77">
    <path d="M 1370.798118 150.28411 
L 1226.647913 -1 
" clip-path="url(#pcc9bd0fdc5)" style="fill: none; stroke: #7a7a7a; stroke-width: 3; stroke-linecap: square"/>
   </g>
   <g id="line2d_78">
    <path d="M 1418.134766 102.822898 
L 1323.779844 -1 
" clip-path="url(#pcc9bd0fdc5)" style="fill: none; stroke: #7a7a7a; stroke-width: 3; stroke-linecap: square"/>
   </g>
   <g id="line2d_79">
    <path d="M 1200.198716 175.563274 
L 1376.94383 -1 
" clip-path="url(#pcc9bd0fdc5)" style="fill: none; stroke: #7a7a7a; stroke-width: 3; stroke-linecap: square"/>
   </g>
   <g id="line2d_80">
    <path d="M 1214.649673 192.220736 
L 1409.100244 -1 
" clip-path="url(#pcc9bd0fdc5)" style="fill: none; stroke: #7a7a7a; stroke-width: 3; stroke-linecap: square"/>
   </g>
   <g id="line2d_81">
    <path d="M 1370.798118 150.28411 
L 1394.778895 175.563274 
L 1441 229.061319 
" clip-path="url(#pcc9bd0fdc5)" style="fill: none; stroke: #7a7a7a; stroke-width: 3; stroke-linecap: square"/>
   </g>
   <g id="line2d_82">
    <path d="M 1332.366385 188.453973 
L 1422.821563 285.050514 
L 1434.538554 299.029389 
" clip-path="url(#pcc9bd0fdc5)" style="fill: none; stroke: #7a7a7a; stroke-width: 3; stroke-linecap: square"/>
   </g>
   <g id="line2d_83">
    <path d="M 1165.828873 138.063057 
L 1070.061992 234.073656 
L 1069.749539 234.324774 
" clip-path="url(#pcc9bd0fdc5)" style="fill: none; stroke: #7a7a7a; stroke-width: 3; stroke-linecap: square"/>
   </g>
   <g id="line2d_84">
    <path d="M 1150.831123 125.172357 
L 1111.383917 165.937102 
L 1070.061992 205.697376 
L 1069.749539 205.948494 
" clip-path="url(#pcc9bd0fdc5)" style="fill: none; stroke: #7a7a7a; stroke-width: 3; stroke-linecap: square"/>
   </g>
   <g id="line2d_85">
    <path d="M 1184.185494 156.143519 
L 1070.061992 269.564933 
L 1069.749539 269.81605 
" clip-path="url(#pcc9bd0fdc5)" style="fill: none; stroke: #7a7a7a; stroke-width: 3; stroke-linecap: square"/>
   </g>
   <g id="line2d_86">
    <path d="M 1165.828873 138.063057 
L 1070.061992 234.073656 
L 1069.749539 234.324774 
" clip-path="url(#pcc9bd0fdc5)" style="fill: none; stroke: #7a7a7a; stroke-width: 3; stroke-linecap: square"/>
   </g>
   <g id="line2d_87">
    <path d="M 1069.749539 269.81605 
L 1070.061992 269.564933 
L 1184.185494 156.143519 
" clip-path="url(#pcc9bd0fdc5)" style="fill: none; stroke: #7a7a7a; stroke-width: 3; stroke-linecap: square"/>
   </g>
   <g id="line2d_88">
    <path d="M 1069.749539 304.888798 
L 1070.061992 304.63768 
L 1200.198716 175.563274 
" clip-path="url(#pcc9bd0fdc5)" style="fill: none; stroke: #7a7a7a; stroke-width: 3; stroke-linecap: square"/>
   </g>
   <g id="line2d_89">
    <path clip-path="url(#pcc9bd0fdc5)" style="fill: none; stroke: #7a7a7a; stroke-width: 3; stroke-linecap: square"/>
   </g>
   <g id="line2d_90">
    <path clip-path="url(#pcc9bd0fdc5)" style="fill: none; stroke: #7a7a7a; stroke-width: 3; stroke-linecap: square"/>
   </g>
   <g id="line2d_91">
    <path d="M 1307.499122 -1 
L 1165.828873 138.063057 
" clip-path="url(#pcc9bd0fdc5)" style="fill: none; stroke: #7a7a7a; stroke-width: 3; stroke-linecap: square"/>
   </g>
   <g id="line2d_92">
    <path d="M 1278.576197 -1 
L 1195.121353 81.394203 
L 1191.762482 85.244671 
L 1150.831123 125.172357 
" clip-path="url(#pcc9bd0fdc5)" style="fill: none; stroke: #7a7a7a; stroke-width: 3; stroke-linecap: square"/>
   </g>
   <g id="line2d_93">
    <path d="M 1441 229.061319 
L 1394.778895 175.563274 
L 1370.798118 150.28411 
" clip-path="url(#pcc9bd0fdc5)" style="fill: none; stroke: #7a7a7a; stroke-width: 3; stroke-linecap: square"/>
   </g>
   <g id="line2d_94">
    <path d="M 1441 142.925783 
L 1439.537804 140.741644 
L 1431.023457 126.595357 
L 1422.27477 110.774953 
L 1418.134766 102.822898 
" clip-path="url(#pcc9bd0fdc5)" style="fill: none; stroke: #7a7a7a; stroke-width: 3; stroke-linecap: square"/>
   </g>
   <g id="line2d_95">
    <path clip-path="url(#pcc9bd0fdc5)" style="fill: none; stroke: #7a7a7a; stroke-width: 3; stroke-linecap: square"/>
   </g>
   <g id="line2d_96">
    <path d="M 1162.08136 -1 
L 1185.04474 25.89723 
" clip-path="url(#pcc9bd0fdc5)" style="fill: none; stroke: #7a7a7a; stroke-width: 3; stroke-linecap: square"/>
   </g>
   <g id="line2d_97">
    <path d="M 1370.798118 150.28411 
L 1362.518111 139.653468 
L 1355.956595 127.432415 
L 1351.191685 113.955775 
L 1348.145267 99.474664 
L 1347.051681 84.240201 
L 1347.910927 68.419797 
L 1350.801119 52.431982 
L 1355.800369 36.444166 
L 1362.98679 20.623762 
L 1372.438497 5.389299 
L 1377.642688 -1 
" clip-path="url(#pcc9bd0fdc5)" style="fill: none; stroke: #7a7a7a; stroke-width: 3; stroke-linecap: square"/>
   </g>
   <g id="line2d_98">
    <path d="M 1418.134766 102.822898 
L 1407.355133 91.355198 
L 1400.090598 77.794852 
L 1395.950594 62.895212 
L 1394.778895 47.325925 
L 1396.184934 32.007757 
L 1399.934372 17.694058 
L 1405.714754 5.054476 
L 1410.187642 -1 
" clip-path="url(#pcc9bd0fdc5)" style="fill: none; stroke: #7a7a7a; stroke-width: 3; stroke-linecap: square"/>
   </g>
   <g id="line2d_99">
    <path d="M 1304.030474 -1 
L 1296.902956 3.715182 
L 1282.373886 9.909415 
L 1268.625949 12.504296 
L 1255.581031 11.750943 
L 1243.239133 7.900474 
L 1231.522141 1.287713 
L 1228.723493 -1 
" clip-path="url(#pcc9bd0fdc5)" style="fill: none; stroke: #7a7a7a; stroke-width: 3; stroke-linecap: square"/>
   </g>
   <g id="line2d_100">
    <path clip-path="url(#pcc9bd0fdc5)" style="fill: none; stroke: #7a7a7a; stroke-width: 3; stroke-linecap: square"/>
   </g>
   <g id="line2d_101">
    <path d="M 1184.185494 156.143519 
L 1233.084407 107.761543 
L 1241.208188 99.223547 
L 1247.769703 88.844023 
L 1252.534613 76.790381 
L 1255.034238 63.481153 
L 1254.956125 49.418571 
L 1251.75348 34.853755 
L 1245.191965 20.205233 
L 1234.881012 5.891534 
L 1227.525907 -1 
" clip-path="url(#pcc9bd0fdc5)" style="fill: none; stroke: #7a7a7a; stroke-width: 3; stroke-linecap: square"/>
   </g>
   <g id="line2d_102">
    <path d="M 1200.198716 175.563274 
L 1249.019516 127.097592 
L 1261.595754 114.45801 
L 1272.297273 100.56284 
L 1281.2803 85.830612 
L 1288.466722 70.261326 
L 1293.856538 54.357216 
L 1297.449749 38.285695 
L 1299.246354 22.381585 
L 1299.324468 6.728593 
L 1298.473587 -1 
" clip-path="url(#pcc9bd0fdc5)" style="fill: none; stroke: #7a7a7a; stroke-width: 3; stroke-linecap: square"/>
   </g>
   <g id="line2d_103">
    <path d="M 1344.625544 -1 
L 1338.771674 11.081296 
L 1334.16299 25.478701 
L 1331.429025 40.964282 
L 1330.726006 57.203215 
L 1331.975818 73.693265 
L 1335.334689 90.350728 
L 1340.802619 106.589661 
L 1348.45772 122.242653 
L 1358.45622 136.974881 
L 1370.798118 150.28411 
" clip-path="url(#pcc9bd0fdc5)" style="fill: none; stroke: #7a7a7a; stroke-width: 3; stroke-linecap: square"/>
   </g>
   <g id="line2d_104">
    <path d="M 1316.258937 -1 
L 1309.244854 13.257648 
L 1303.073905 29.412876 
L 1298.465222 46.23775 
L 1295.262577 63.313741 
L 1293.465972 80.473438 
L 1293.231632 97.382018 
L 1294.403331 113.872069 
L 1297.059183 129.608767 
L 1301.199186 144.340995 
L 1306.823342 157.901341 
L 1313.853538 169.954982 
L 1322.367885 180.167095 
L 1332.366385 188.453973 
" clip-path="url(#pcc9bd0fdc5)" style="fill: none; stroke: #7a7a7a; stroke-width: 3; stroke-linecap: square"/>
   </g>
   <g id="line2d_105">
    <path d="M 1370.798118 150.28411 
L 1358.9249 134.296294 
L 1346.661115 120.735948 
L 1333.92865 109.686777 
L 1321.039959 100.981369 
L 1307.916928 94.703431 
L 1294.793897 90.852963 
L 1281.74898 89.429963 
L 1268.938402 90.518139 
L 1256.362164 93.950079 
L 1244.176492 99.809488 
L 1232.537614 108.180072 
L 1221.523641 118.978125 
L 1184.185494 156.143519 
" clip-path="url(#pcc9bd0fdc5)" style="fill: none; stroke: #7a7a7a; stroke-width: 3; stroke-linecap: square"/>
   </g>
   <g id="line2d_106">
    <path d="M 1418.134766 102.822898 
L 1407.51136 90.601845 
L 1396.028708 79.887498 
L 1383.764923 70.596149 
L 1370.954345 62.895212 
L 1357.518861 56.784685 
L 1343.69281 52.180864 
L 1329.554307 49.25116 
L 1315.10335 47.995572 
L 1300.57428 48.414101 
L 1285.967097 50.506747 
L 1271.438027 54.357216 
L 1257.065183 59.965507 
L 1242.92668 67.415327 
L 1229.178743 76.706676 
L 1215.899485 87.839552 
L 1203.167021 100.813958 
L 1165.828873 138.063057 
" clip-path="url(#pcc9bd0fdc5)" style="fill: none; stroke: #7a7a7a; stroke-width: 3; stroke-linecap: square"/>
   </g>
   <g id="line2d_107">
    <path d="M 1226.907565 -1 
L 1232.303274 4.468535 
L 1245.816871 13.927295 
L 1260.189715 20.623762 
L 1274.953124 24.641643 
L 1289.560308 25.980936 
L 1303.386358 24.725348 
L 1315.80637 20.958586 
L 1326.429776 14.596942 
L 1334.553557 5.724123 
L 1341.3372 -1 
" clip-path="url(#pcc9bd0fdc5)" style="fill: none; stroke: #7a7a7a; stroke-width: 3; stroke-linecap: square"/>
   </g>
   <g id="line2d_108">
    <path d="M 1185.04474 25.89723 
L 1218.86779 45.568103 
L 1236.365164 52.599393 
L 1254.721785 55.947627 
L 1269.250855 57.70545 
L 1284.482945 59.128449 
L 1300.1056 55.27798 
L 1314.087877 48.665219 
L 1328.070154 42.136163 
L 1340.568279 33.932991 
L 1351.269798 24.139408 
L 1376.631735 -1 
" clip-path="url(#pcc9bd0fdc5)" style="fill: none; stroke: #7a7a7a; stroke-width: 3; stroke-linecap: square"/>
   </g>
   <g id="line2d_109">
    <path d="M 1200.198716 175.563274 
L 1217.774204 158.152459 
L 1230.584782 145.931406 
L 1244.957625 136.38894 
L 1260.424054 129.190238 
L 1276.51539 124.502711 
L 1292.762952 122.075241 
L 1308.854288 121.824124 
L 1324.242604 123.665652 
L 1338.537334 127.516121 
L 1351.347912 133.37553 
L 1362.205658 140.992761 
L 1370.798118 150.28411 
" clip-path="url(#pcc9bd0fdc5)" style="fill: none; stroke: #7a7a7a; stroke-width: 3; stroke-linecap: square"/>
   </g>
   <g id="line2d_110">
    <path d="M 1214.649673 192.220736 
L 1232.225161 174.809921 
L 1241.442527 169.034218 
L 1253.237633 164.597809 
L 1266.75123 161.835516 
L 1281.2803 161.165869 
L 1295.887483 163.174809 
L 1309.791647 168.029748 
L 1322.211659 176.316626 
L 1332.366385 188.453973 
" clip-path="url(#pcc9bd0fdc5)" style="fill: none; stroke: #7a7a7a; stroke-width: 3; stroke-linecap: square"/>
   </g>
   <g id="line2d_111">
    <path d="M 1225.608737 -1 
L 1237.536864 13.592472 
L 1241.676867 24.474231 
L 1239.958375 52.26457 
L 1233.943653 69.591679 
L 1218.555337 84.742436 
L 1165.828873 138.063057 
" clip-path="url(#pcc9bd0fdc5)" style="fill: none; stroke: #7a7a7a; stroke-width: 3; stroke-linecap: square"/>
   </g>
   <g id="line2d_112">
    <path d="M 1185.04474 25.89723 
L 1197.855318 40.210929 
L 1200.120603 46.488867 
L 1201.136075 48.665219 
L 1203.010794 53.520158 
L 1203.245134 55.194275 
L 1204.026267 57.454332 
L 1203.088907 70.428738 
L 1196.996071 80.054909 
L 1192.699841 84.240201 
L 1191.762482 85.244671 
L 1150.831123 125.172357 
" clip-path="url(#pcc9bd0fdc5)" style="fill: none; stroke: #7a7a7a; stroke-width: 3; stroke-linecap: square"/>
   </g>
   <g id="line2d_113">
    <path d="M 1116.783421 218.849084 
L 1322.830081 41.85292 
" clip-path="url(#pcc9bd0fdc5)" style="fill: none; stroke-dasharray: 32,8,5,8; stroke-dashoffset: 0; stroke: #1e90ff; stroke-width: 5"/>
   </g>
   <g id="line2d_114">
    <path d="M 988.127265 423.454279 
L 1018.932045 394.753966 
" clip-path="url(#pcc9bd0fdc5)" style="fill: none; stroke-dasharray: 32,8,5,8; stroke-dashoffset: 0; stroke: #1e90ff; stroke-width: 5"/>
   </g>
   <g id="line2d_115">
    <path d="M 156.226559 1188.882477 
L 537.48077 807.636705 
" clip-path="url(#pcc9bd0fdc5)" style="fill: none; stroke-dasharray: 32,8,5,8; stroke-dashoffset: 0; stroke: #1e90ff; stroke-width: 5"/>
   </g>
   <g id="line2d_116">
    <path d="M 639.470472 719.187669 
L 876.171254 492.053832 
" clip-path="url(#pcc9bd0fdc5)" style="fill: none; stroke-dasharray: 32,8,5,8; stroke-dashoffset: 0; stroke: #1e90ff; stroke-width: 5"/>
   </g>
   <g id="line2d_117">
    <path d="M 1116.783421 218.849084 
" clip-path="url(#pcc9bd0fdc5)" style="fill: none; stroke: #0000ff; stroke-width: 1.5; stroke-linecap: square"/>
    <defs>
     <path id="m110b452571" d="M 0 10 
C 2.652031 10 5.195799 8.946337 7.071068 7.071068 
C 8.946337 5.195799 10 2.652031 10 0 
C 10 -2.652031 8.946337 -5.195799 7.071068 -7.071068 
C 5.195799 -8.946337 2.652031 -10 0 -10 
C -2.652031 -10 -5.195799 -8.946337 -7.071068 -7.071068 
C -8.946337 -5.195799 -10 -2.652031 -10 0 
C -10 2.652031 -8.946337 5.195799 -7.071068 7.071068 
C -5.195799 8.946337 -2.652031 10 0 10 
z
" style="stroke: #0000ff"/>
    </defs>
    <g clip-path="url(#pcc9bd0fdc5)">
     <use xlink:href="#m110b452571" x="1116.783421" y="218.849084" style="fill: #0000ff; stroke: #0000ff"/>
    </g>
   </g>
   <g id="line2d_118">
    <path d="M 988.127265 423.454279 
" clip-path="url(#pcc9bd0fdc5)" style="fill: none; stroke: #0000ff; stroke-width: 1.5; stroke-linecap: square"/>
    <g clip-path="url(#pcc9bd0fdc5)">
     <use xlink:href="#m110b452571" x="988.127265" y="423.454279" style="fill: #0000ff; stroke: #0000ff"/>
    </g>
   </g>
   <g id="line2d_119">
    <path d="M 156.226559 1188.882477 
" clip-path="url(#pcc9bd0fdc5)" style="fill: none; stroke: #0000ff; stroke-width: 1.5; stroke-linecap: square"/>
    <g clip-path="url(#pcc9bd0fdc5)">
     <use xlink:href="#m110b452571" x="156.226559" y="1188.882477" style="fill: #0000ff; stroke: #0000ff"/>
    </g>
   </g>
   <g id="line2d_120">
    <path d="M 639.470472 719.187669 
" clip-path="url(#pcc9bd0fdc5)" style="fill: none; stroke: #0000ff; stroke-width: 1.5; stroke-linecap: square"/>
    <g clip-path="url(#pcc9bd0fdc5)">
     <use xlink:href="#m110b452571" x="639.470472" y="719.187669" style="fill: #0000ff; stroke: #0000ff"/>
    </g>
   </g>
   <g id="line2d_121">
    <path d="M 1322.830081 41.85292 
" clip-path="url(#pcc9bd0fdc5)" style="fill: none; stroke: #ff0000; stroke-width: 1.5; stroke-linecap: square"/>
    <defs>
     <path id="m58920d3e95" d="M 0 -10 
L -2.24514 -3.09017 
L -9.510565 -3.09017 
L -3.632713 1.18034 
L -5.877853 8.09017 
L -0 3.81966 
L 5.877853 8.09017 
L 3.632713 1.18034 
L 9.510565 -3.09017 
L 2.24514 -3.09017 
z
" style="stroke: #ff0000; stroke-linejoin: bevel"/>
    </defs>
    <g clip-path="url(#pcc9bd0fdc5)">
     <use xlink:href="#m58920d3e95" x="1322.830081" y="41.85292" style="fill: #ff0000; stroke: #ff0000; stroke-linejoin: bevel"/>
    </g>
   </g>
   <g id="line2d_122">
    <path d="M 1018.932045 394.753966 
" clip-path="url(#pcc9bd0fdc5)" style="fill: none; stroke: #ff0000; stroke-width: 1.5; stroke-linecap: square"/>
    <g clip-path="url(#pcc9bd0fdc5)">
     <use xlink:href="#m58920d3e95" x="1018.932045" y="394.753966" style="fill: #ff0000; stroke: #ff0000; stroke-linejoin: bevel"/>
    </g>
   </g>
   <g id="line2d_123">
    <path d="M 537.48077 807.636705 
" clip-path="url(#pcc9bd0fdc5)" style="fill: none; stroke: #ff0000; stroke-width: 1.5; stroke-linecap: square"/>
    <g clip-path="url(#pcc9bd0fdc5)">
     <use xlink:href="#m58920d3e95" x="537.48077" y="807.636705" style="fill: #ff0000; stroke: #ff0000; stroke-linejoin: bevel"/>
    </g>
   </g>
   <g id="line2d_124">
    <path d="M 876.171254 492.053832 
" clip-path="url(#pcc9bd0fdc5)" style="fill: none; stroke: #ff0000; stroke-width: 1.5; stroke-linecap: square"/>
    <g clip-path="url(#pcc9bd0fdc5)">
     <use xlink:href="#m58920d3e95" x="876.171254" y="492.053832" style="fill: #ff0000; stroke: #ff0000; stroke-linejoin: bevel"/>
    </g>
   </g>
  </g>
 </g>
 <defs>
  <clipPath id="pcc9bd0fdc5">
   <rect x="0" y="0" width="1440" height="1440"/>
  </clipPath>
 </defs>
</svg>
