<?xml version="1.0" encoding="utf-8" standalone="no"?>
<!DOCTYPE svg PUBLIC "-//W3C//DTD SVG 1.1//EN"
  "http://www.w3.org/Graphics/SVG/1.1/DTD/svg11.dtd">
<svg xmlns:xlink="http://www.w3.org/1999/xlink" width="1440pt" height="1440pt" viewBox="0 0 1440 1440" xmlns="http://www.w3.org/2000/svg" version="1.1">
 <metadata>
  <rdf:RDF xmlns:dc="http://purl.org/dc/elements/1.1/" xmlns:cc="http://creativecommons.org/ns#" xmlns:rdf="http://www.w3.org/1999/02/22-rdf-syntax-ns#">
   <cc:Work>
    <dc:type rdf:resource="http://purl.org/dc/dcmitype/StillImage"/>
    <dc:date>2026-02-27T11:11:47.915213</dc:date>
    <dc:format>image/svg+xml</dc:format>
    <dc:creator>
     <cc:Agent>
      <dc:title>Matplotlib v3.7.3, https://matplotlib.org/</dc:title>
     </cc:Agent>
    </dc:creator>
   </cc:Work>
  </rdf:RDF>
 </metadata>
 <defs>
  <style type="text/css">*{stroke-linejoin: round; stroke-linecap: butt}</style>
 </defs>
 <g id="figure_1">
  <g id="patch_1">
   <path d="M 0 1440 
L 1440 1440 
L 1440 0 
L 0 0 
z
" style="fill: #ffffff"/>
  </g>
  <g id="axes_1">
   <g id="line2d_1">
    <path d="M 1250.313451 -1 
L 1191.806996 5.370765 
L 1098.044773 16.42349 
L 1016.113746 26.830277 
L 945.718133 36.734667 
L 885.674817 46.13666 
L 835.392237 55.108027 
L 793.983053 63.72054 
L 760.559927 71.974199 
L 733.939737 79.869002 
L 713.826705 87.548493 
L 699.037711 95.084442 
L 688.685415 102.405078 
L 682.178258 109.582172 
L 678.333119 116.687495 
L 676.55844 123.792818 
L 675.6711 138.075235 
" clip-path="url(#p0436a2de43)" style="fill: none; stroke: #7a7a7a; stroke-width: 3; stroke-linecap: square"/>
   </g>
   <g id="line2d_2">
    <path d="M 858.532654 -1 
L 833.025998 3.145866 
L 779.489839 13.193798 
L 734.235517 23.169959 
L 696.079912 33.002578 
L 664.727245 42.763426 
L 639.290175 52.23719 
L 619.177143 61.567412 
L 603.796589 70.610551 
L 592.556953 79.438376 
L 584.570896 87.907347 
L 579.246858 95.945693 
L 575.99328 103.696954 
L 574.2186 110.94582 
L 572.443921 124.008131 
" clip-path="url(#p0436a2de43)" style="fill: none; stroke: #7a7a7a; stroke-width: 3; stroke-linecap: square"/>
   </g>
   <g id="line2d_3">
    <path clip-path="url(#p0436a2de43)" style="fill: none; stroke: #7a7a7a; stroke-width: 3; stroke-linecap: square"/>
   </g>
   <g id="line2d_4">
    <path clip-path="url(#p0436a2de43)" style="fill: none; stroke: #7a7a7a; stroke-width: 3; stroke-linecap: square"/>
   </g>
   <g id="line2d_5">
    <path d="M 785.405437 204.750439 
L 783.039198 139.725967 
" clip-path="url(#p0436a2de43)" style="fill: none; stroke: #7a7a7a; stroke-width: 3; stroke-linecap: square"/>
   </g>
   <g id="line2d_6">
    <path d="M 895.435553 204.750439 
L 893.069314 158.960579 
" clip-path="url(#p0436a2de43)" style="fill: none; stroke: #7a7a7a; stroke-width: 3; stroke-linecap: square"/>
   </g>
   <g id="line2d_7">
    <path d="M 893.069314 158.960579 
L 884.69208 -1 
" clip-path="url(#p0436a2de43)" style="fill: none; stroke: #7a7a7a; stroke-width: 3; stroke-linecap: square"/>
   </g>
   <g id="line2d_8">
    <path d="M 1051.607331 176.400918 
L 1012.448443 -1 
" clip-path="url(#p0436a2de43)" style="fill: none; stroke: #7a7a7a; stroke-width: 3; stroke-linecap: square"/>
   </g>
   <g id="line2d_9">
    <path d="M 678.924679 204.750439 
L 675.6711 138.075235 
" clip-path="url(#p0436a2de43)" style="fill: none; stroke: #7a7a7a; stroke-width: 3; stroke-linecap: square"/>
   </g>
   <g id="line2d_10">
    <path d="M 785.405437 204.750439 
L 783.039198 139.725967 
" clip-path="url(#p0436a2de43)" style="fill: none; stroke: #7a7a7a; stroke-width: 3; stroke-linecap: square"/>
   </g>
   <g id="line2d_11">
    <path d="M 572.443921 124.008131 
L 574.81016 204.750439 
" clip-path="url(#p0436a2de43)" style="fill: none; stroke: #7a7a7a; stroke-width: 3; stroke-linecap: square"/>
   </g>
   <g id="line2d_12">
    <path d="M 461.822245 111.950613 
L 465.963163 204.750439 
" clip-path="url(#p0436a2de43)" style="fill: none; stroke: #7a7a7a; stroke-width: 3; stroke-linecap: square"/>
   </g>
   <g id="line2d_13">
    <path clip-path="url(#p0436a2de43)" style="fill: none; stroke: #7a7a7a; stroke-width: 3; stroke-linecap: square"/>
   </g>
   <g id="line2d_14">
    <path clip-path="url(#p0436a2de43)" style="fill: none; stroke: #7a7a7a; stroke-width: 3; stroke-linecap: square"/>
   </g>
   <g id="line2d_15">
    <path d="M 671.143081 -1 
L 675.6711 138.075235 
" clip-path="url(#p0436a2de43)" style="fill: none; stroke: #7a7a7a; stroke-width: 3; stroke-linecap: square"/>
   </g>
   <g id="line2d_16">
    <path d="M 566.846913 -1 
L 572.443921 124.008131 
" clip-path="url(#p0436a2de43)" style="fill: none; stroke: #7a7a7a; stroke-width: 3; stroke-linecap: square"/>
   </g>
   <g id="line2d_17">
    <path clip-path="url(#p0436a2de43)" style="fill: none; stroke: #7a7a7a; stroke-width: 3; stroke-linecap: square"/>
   </g>
   <g id="line2d_18">
    <path clip-path="url(#p0436a2de43)" style="fill: none; stroke: #7a7a7a; stroke-width: 3; stroke-linecap: square"/>
   </g>
   <g id="line2d_19">
    <path d="M 895.435553 204.750439 
L 893.069314 158.960579 
" clip-path="url(#p0436a2de43)" style="fill: none; stroke: #7a7a7a; stroke-width: 3; stroke-linecap: square"/>
   </g>
   <g id="line2d_20">
    <path d="M 1053.973571 204.750439 
L 1051.607331 176.400918 
" clip-path="url(#p0436a2de43)" style="fill: none; stroke: #7a7a7a; stroke-width: 3; stroke-linecap: square"/>
   </g>
   <g id="line2d_21">
    <path d="M 731.277718 1066.001732 
L 678.924679 204.750439 
" clip-path="url(#p0436a2de43)" style="fill: none; stroke: #7a7a7a; stroke-width: 3; stroke-linecap: square"/>
   </g>
   <g id="line2d_22">
    <path d="M 839.533155 1066.001732 
L 785.405437 204.750439 
" clip-path="url(#p0436a2de43)" style="fill: none; stroke: #7a7a7a; stroke-width: 3; stroke-linecap: square"/>
   </g>
   <g id="line2d_23">
    <path d="M 566.846913 -1 
L 572.443921 124.008131 
" clip-path="url(#p0436a2de43)" style="fill: none; stroke: #7a7a7a; stroke-width: 3; stroke-linecap: square"/>
   </g>
   <g id="line2d_24">
    <path d="M 456.789941 -1 
L 461.822245 111.950613 
" clip-path="url(#p0436a2de43)" style="fill: none; stroke: #7a7a7a; stroke-width: 3; stroke-linecap: square"/>
   </g>
   <g id="line2d_25">
    <path clip-path="url(#p0436a2de43)" style="fill: none; stroke: #7a7a7a; stroke-width: 3; stroke-linecap: square"/>
   </g>
   <g id="line2d_26">
    <path clip-path="url(#p0436a2de43)" style="fill: none; stroke: #7a7a7a; stroke-width: 3; stroke-linecap: square"/>
   </g>
   <g id="line2d_27">
    <path d="M 783.039198 139.725967 
L 785.701217 204.750439 
" clip-path="url(#p0436a2de43)" style="fill: none; stroke: #7a7a7a; stroke-width: 3; stroke-linecap: square"/>
   </g>
   <g id="line2d_28">
    <path d="M 675.6711 138.075235 
L 679.220459 204.750439 
" clip-path="url(#p0436a2de43)" style="fill: none; stroke: #7a7a7a; stroke-width: 3; stroke-linecap: square"/>
   </g>
   <g id="line2d_29">
    <path d="M 675.6711 138.075235 
L 679.220459 204.750439 
" clip-path="url(#p0436a2de43)" style="fill: none; stroke: #7a7a7a; stroke-width: 3; stroke-linecap: square"/>
   </g>
   <g id="line2d_30">
    <path d="M 572.443921 124.008131 
L 574.81016 204.750439 
" clip-path="url(#p0436a2de43)" style="fill: none; stroke: #7a7a7a; stroke-width: 3; stroke-linecap: square"/>
   </g>
   <g id="line2d_31">
    <path d="M 574.81016 204.750439 
L 579.246858 251.832177 
L 619.177143 1066.001732 
" clip-path="url(#p0436a2de43)" style="fill: none; stroke: #7a7a7a; stroke-width: 3; stroke-linecap: square"/>
   </g>
   <g id="line2d_32">
    <path d="M 465.963163 204.750439 
L 499.09051 832.243777 
L 505.301888 933.584345 
L 505.597668 960.067823 
L 511.217485 1066.001732 
" clip-path="url(#p0436a2de43)" style="fill: none; stroke: #7a7a7a; stroke-width: 3; stroke-linecap: square"/>
   </g>
   <g id="line2d_33">
    <path d="M 679.220459 204.750439 
L 731.277718 1066.001732 
" clip-path="url(#p0436a2de43)" style="fill: none; stroke: #7a7a7a; stroke-width: 3; stroke-linecap: square"/>
   </g>
   <g id="line2d_34">
    <path d="M 574.81016 204.750439 
L 579.246858 251.832177 
L 619.177143 1066.001732 
" clip-path="url(#p0436a2de43)" style="fill: none; stroke: #7a7a7a; stroke-width: 3; stroke-linecap: square"/>
   </g>
   <g id="line2d_35">
    <path clip-path="url(#p0436a2de43)" style="fill: none; stroke: #7a7a7a; stroke-width: 3; stroke-linecap: square"/>
   </g>
   <g id="line2d_36">
    <path clip-path="url(#p0436a2de43)" style="fill: none; stroke: #7a7a7a; stroke-width: 3; stroke-linecap: square"/>
   </g>
   <g id="line2d_37">
    <path d="M 963.336803 1441 
L 960.802907 1400.956713 
L 958.436668 1280.525074 
L 950.154832 1163.897295 
L 946.605473 1066.001732 
" clip-path="url(#p0436a2de43)" style="fill: none; stroke: #7a7a7a; stroke-width: 3; stroke-linecap: square"/>
   </g>
   <g id="line2d_38">
    <path d="M 1067.250999 1441 
L 1063.734307 1376.841677 
L 1050.424212 1066.001732 
" clip-path="url(#p0436a2de43)" style="fill: none; stroke: #7a7a7a; stroke-width: 3; stroke-linecap: square"/>
   </g>
   <g id="line2d_39">
    <path clip-path="url(#p0436a2de43)" style="fill: none; stroke: #7a7a7a; stroke-width: 3; stroke-linecap: square"/>
   </g>
   <g id="line2d_40">
    <path clip-path="url(#p0436a2de43)" style="fill: none; stroke: #7a7a7a; stroke-width: 3; stroke-linecap: square"/>
   </g>
   <g id="line2d_41">
    <path d="M 839.533155 1066.001732 
L 785.405437 204.750439 
" clip-path="url(#p0436a2de43)" style="fill: none; stroke: #7a7a7a; stroke-width: 3; stroke-linecap: square"/>
   </g>
   <g id="line2d_42">
    <path d="M 946.605473 1066.001732 
L 895.435553 204.750439 
" clip-path="url(#p0436a2de43)" style="fill: none; stroke: #7a7a7a; stroke-width: 3; stroke-linecap: square"/>
   </g>
   <g id="line2d_43">
    <path d="M 783.039198 139.725967 
L 773.768963 -1 
" clip-path="url(#p0436a2de43)" style="fill: none; stroke: #7a7a7a; stroke-width: 3; stroke-linecap: square"/>
   </g>
   <g id="line2d_44">
    <path d="M 893.069314 158.960579 
L 884.69208 -1 
" clip-path="url(#p0436a2de43)" style="fill: none; stroke: #7a7a7a; stroke-width: 3; stroke-linecap: square"/>
   </g>
   <g id="line2d_45">
    <path d="M 619.177143 1066.001732 
L 640.555587 1441 
" clip-path="url(#p0436a2de43)" style="fill: none; stroke: #7a7a7a; stroke-width: 3; stroke-linecap: square"/>
   </g>
   <g id="line2d_46">
    <path d="M 511.217485 1066.001732 
L 526.00648 1356.45873 
L 528.668499 1368.229164 
L 532.326293 1441 
" clip-path="url(#p0436a2de43)" style="fill: none; stroke: #7a7a7a; stroke-width: 3; stroke-linecap: square"/>
   </g>
   <g id="line2d_47">
    <path d="M 893.069314 158.960579 
L 896.027113 146.544206 
L 902.238491 134.63023 
L 911.999227 123.21865 
L 925.309321 112.165926 
L 942.464555 101.472055 
L 963.464926 90.921727 
L 988.310437 80.586711 
L 1017.592645 70.251696 
L 1051.015772 59.988451 
L 1089.171377 49.581665 
L 1131.76368 39.103108 
L 1179.088461 28.337466 
L 1231.4415 17.284742 
L 1288.822798 5.801391 
L 1324.619705 -1 
" clip-path="url(#p0436a2de43)" style="fill: none; stroke: #7a7a7a; stroke-width: 3; stroke-linecap: square"/>
   </g>
   <g id="line2d_48">
    <path d="M 1051.607331 176.400918 
L 1049.536872 148.769105 
L 1049.832652 144.821704 
L 1053.086231 140.874302 
L 1059.001829 137.070442 
L 1069.945684 133.12304 
L 1082.664219 129.678035 
L 1295.329955 72.83545 
L 1390.866857 48.002704 
L 1441 36.430549 
" clip-path="url(#p0436a2de43)" style="fill: none; stroke: #7a7a7a; stroke-width: 3; stroke-linecap: square"/>
   </g>
   <g id="line2d_49">
    <path d="M 946.605473 1066.001732 
L 895.435553 204.750439 
" clip-path="url(#p0436a2de43)" style="fill: none; stroke: #7a7a7a; stroke-width: 3; stroke-linecap: square"/>
   </g>
   <g id="line2d_50">
    <path d="M 1050.424212 1066.001732 
L 1038.297237 853.272662 
L 1025.578702 612.337613 
L 1069.354124 493.556706 
L 1065.804766 441.092148 
L 1061.072288 338.459703 
L 1053.973571 204.750439 
" clip-path="url(#p0436a2de43)" style="fill: none; stroke: #7a7a7a; stroke-width: 3; stroke-linecap: square"/>
   </g>
   <g id="line2d_51">
    <path d="M 859.108598 1441 
L 839.533155 1066.001732 
" clip-path="url(#p0436a2de43)" style="fill: none; stroke: #7a7a7a; stroke-width: 3; stroke-linecap: square"/>
   </g>
   <g id="line2d_52">
    <path d="M 963.336803 1441 
L 960.802907 1400.956713 
L 958.436668 1280.525074 
L 950.154832 1163.897295 
L 946.605473 1066.001732 
" clip-path="url(#p0436a2de43)" style="fill: none; stroke: #7a7a7a; stroke-width: 3; stroke-linecap: square"/>
   </g>
   <g id="line2d_53">
    <path d="M 785.701217 204.750439 
L 835.688017 1066.001732 
" clip-path="url(#p0436a2de43)" style="fill: none; stroke: #7a7a7a; stroke-width: 3; stroke-linecap: square"/>
   </g>
   <g id="line2d_54">
    <path d="M 679.220459 204.750439 
L 731.277718 1066.001732 
" clip-path="url(#p0436a2de43)" style="fill: none; stroke: #7a7a7a; stroke-width: 3; stroke-linecap: square"/>
   </g>
   <g id="line2d_55">
    <path d="M 749.022024 1441 
L 745.770933 1404.329947 
L 745.179373 1297.104162 
L 731.277718 1066.001732 
" clip-path="url(#p0436a2de43)" style="fill: none; stroke: #7a7a7a; stroke-width: 3; stroke-linecap: square"/>
   </g>
   <g id="line2d_56">
    <path d="M 859.108598 1441 
L 839.533155 1066.001732 
" clip-path="url(#p0436a2de43)" style="fill: none; stroke: #7a7a7a; stroke-width: 3; stroke-linecap: square"/>
   </g>
   <g id="line2d_57">
    <path d="M 835.688017 1066.001732 
L 856.392609 1410.286936 
L 857.921403 1441 
" clip-path="url(#p0436a2de43)" style="fill: none; stroke: #7a7a7a; stroke-width: 3; stroke-linecap: square"/>
   </g>
   <g id="line2d_58">
    <path d="M 731.277718 1066.001732 
L 745.179373 1297.104162 
L 745.770933 1404.329947 
L 749.022024 1441 
" clip-path="url(#p0436a2de43)" style="fill: none; stroke: #7a7a7a; stroke-width: 3; stroke-linecap: square"/>
   </g>
   <g id="line2d_59">
    <path d="M 731.277718 1066.001732 
L 745.179373 1297.104162 
L 745.770933 1404.329947 
L 749.022024 1441 
" clip-path="url(#p0436a2de43)" style="fill: none; stroke: #7a7a7a; stroke-width: 3; stroke-linecap: square"/>
   </g>
   <g id="line2d_60">
    <path d="M 619.177143 1066.001732 
L 640.555587 1441 
" clip-path="url(#p0436a2de43)" style="fill: none; stroke: #7a7a7a; stroke-width: 3; stroke-linecap: square"/>
   </g>
   <g id="line2d_61">
    <path d="M 854.065427 147.539572 
L 992.449125 35.885471 
" clip-path="url(#p0436a2de43)" style="fill: none; stroke-dasharray: 32,8,5,8; stroke-dashoffset: 0; stroke: #1e90ff; stroke-width: 5"/>
   </g>
   <g id="line2d_62">
    <path d="M 905.384609 1224.687177 
L 889.612631 898.744425 
" clip-path="url(#p0436a2de43)" style="fill: none; stroke-dasharray: 32,8,5,8; stroke-dashoffset: 0; stroke: #1e90ff; stroke-width: 5"/>
   </g>
   <g id="line2d_63">
    <path d="M 771.867315 758.344274 
L 803.782937 476.120292 
" clip-path="url(#p0436a2de43)" style="fill: none; stroke-dasharray: 32,8,5,8; stroke-dashoffset: 0; stroke: #1e90ff; stroke-width: 5"/>
   </g>
   <g id="line2d_64">
    <path d="M 854.065427 147.539572 
" clip-path="url(#p0436a2de43)" style="fill: none; stroke: #0000ff; stroke-width: 1.5; stroke-linecap: square"/>
    <defs>
     <path id="mbfcb4e31a3" d="M 0 10 
C 2.652031 10 5.195799 8.946337 7.071068 7.071068 
C 8.946337 5.195799 10 2.652031 10 0 
C 10 -2.652031 8.946337 -5.195799 7.071068 -7.071068 
C 5.195799 -8.946337 2.652031 -10 0 -10 
C -2.652031 -10 -5.195799 -8.946337 -7.071068 -7.071068 
C -8.946337 -5.195799 -10 -2.652031 -10 0 
C -10 2.652031 -8.946337 5.195799 -7.071068 7.071068 
C -5.195799 8.946337 -2.652031 10 0 10 
z
" style="stroke: #0000ff"/>
    </defs>
    <g clip-path="url(#p0436a2de43)">
     <use xlink:href="#mbfcb4e31a3" x="854.065427" y="147.539572" style="fill: #0000ff; stroke: #0000ff"/>
    </g>
   </g>
   <g id="line2d_65">
    <path d="M 905.384609 1224.687177 
" clip-path="url(#p0436a2de43)" style="fill: none; stroke: #0000ff; stroke-width: 1.5; stroke-linecap: square"/>
    <g clip-path="url(#p0436a2de43)">
     <use xlink:href="#mbfcb4e31a3" x="905.384609" y="1224.687177" style="fill: #0000ff; stroke: #0000ff"/>
    </g>
   </g>
   <g id="line2d_66">
    <path d="M 771.867315 758.344274 
" clip-path="url(#p0436a2de43)" style="fill: none; stroke: #0000ff; stroke-width: 1.5; stroke-linecap: square"/>
    <g clip-path="url(#p0436a2de43)">
     <use xlink:href="#mbfcb4e31a3" x="771.867315" y="758.344274" style="fill: #0000ff; stroke: #0000ff"/>
    </g>
   </g>
   <g id="line2d_67">
    <path d="M 992.449125 35.885471 
" clip-path="url(#p0436a2de43)" style="fill: none; stroke: #ff0000; stroke-width: 1.5; stroke-linecap: square"/>
    <defs>
     <path id="m7c37096106" d="M 0 -10 
L -2.24514 -3.09017 
L -9.510565 -3.09017 
L -3.632713 1.18034 
L -5.877853 8.09017 
L -0 3.81966 
L 5.877853 8.09017 
L 3.632713 1.18034 
L 9.510565 -3.09017 
L 2.24514 -3.09017 
z
" style="stroke: #ff0000; stroke-linejoin: bevel"/>
    </defs>
    <g clip-path="url(#p0436a2de43)">
     <use xlink:href="#m7c37096106" x="992.449125" y="35.885471" style="fill: #ff0000; stroke: #ff0000; stroke-linejoin: bevel"/>
    </g>
   </g>
   <g id="line2d_68">
    <path d="M 889.612631 898.744425 
" clip-path="url(#p0436a2de43)" style="fill: none; stroke: #ff0000; stroke-width: 1.5; stroke-linecap: square"/>
    <g clip-path="url(#p0436a2de43)">
     <use xlink:href="#m7c37096106" x="889.612631" y="898.744425" style="fill: #ff0000; stroke: #ff0000; stroke-linejoin: bevel"/>
    </g>
   </g>
   <g id="line2d_69">
    <path d="M 803.782937 476.120292 
" clip-path="url(#p0436a2de43)" style="fill: none; stroke: #ff0000; stroke-width: 1.5; stroke-linecap: square"/>
    <g clip-path="url(#p0436a2de43)">
     <use xlink:href="#m7c37096106" x="803.782937" y="476.120292" style="fill: #ff0000; stroke: #ff0000; stroke-linejoin: bevel"/>
    </g>
   </g>
  </g>
 </g>
 <defs>
  <clipPath id="p0436a2de43">
   <rect x="0" y="0" width="1440" height="1440"/>
  </clipPath>
 </defs>
</svg>
