<?xml version="1.0" encoding="utf-8" standalone="no"?>
<!DOCTYPE svg PUBLIC "-//W3C//DTD SVG 1.1//EN"
  "http://www.w3.org/Graphics/SVG/1.1/DTD/svg11.dtd">
<svg xmlns:xlink="http://www.w3.org/1999/xlink" width="1440pt" height="1440pt" viewBox="0 0 1440 1440" xmlns="http://www.w3.org/2000/svg" version="1.1">
 <metadata>
  <rdf:RDF xmlns:dc="http://purl.org/dc/elements/1.1/" xmlns:cc="http://creativecommons.org/ns#" xmlns:rdf="http://www.w3.org/1999/02/22-rdf-syntax-ns#">
   <cc:Work>
    <dc:type rdf:resource="http://purl.org/dc/dcmitype/StillImage"/>
    <dc:date>2026-02-27T11:12:09.177166</dc:date>
    <dc:format>image/svg+xml</dc:format>
    <dc:creator>
     <cc:Agent>
      <dc:title>Matplotlib v3.7.3, https://matplotlib.org/</dc:title>
     </cc:Agent>
    </dc:creator>
   </cc:Work>
  </rdf:RDF>
 </metadata>
 <defs>
  <style type="text/css">*{stroke-linejoin: round; stroke-linecap: butt}</style>
 </defs>
 <g id="figure_1">
  <g id="patch_1">
   <path d="M 0 1440 
L 1440 1440 
L 1440 0 
L 0 0 
z
" style="fill: #ffffff"/>
  </g>
  <g id="axes_1">
   <g id="line2d_1">
    <path d="M 978.609144 742.713824 
L 978.778622 740.28593 
L 979.626012 708.406633 
" clip-path="url(#pfbbc81cdec)" style="fill: none; stroke: #7a7a7a; stroke-width: 3; stroke-linecap: square"/>
   </g>
   <g id="line2d_2">
    <path d="M 1000.810758 742.713824 
L 1000.980236 740.28593 
L 1003.013971 718.223768 
" clip-path="url(#pfbbc81cdec)" style="fill: none; stroke: #7a7a7a; stroke-width: 3; stroke-linecap: square"/>
   </g>
   <g id="line2d_3">
    <path d="M 871.499069 677.1607 
L 853.87336 734.163416 
" clip-path="url(#pfbbc81cdec)" style="fill: none; stroke: #7a7a7a; stroke-width: 3; stroke-linecap: square"/>
   </g>
   <g id="line2d_4">
    <path d="M 847.602676 673.043837 
L 828.790621 737.224673 
" clip-path="url(#pfbbc81cdec)" style="fill: none; stroke: #7a7a7a; stroke-width: 3; stroke-linecap: square"/>
   </g>
   <g id="line2d_5">
    <path d="M 1044.536073 109.350304 
L 871.499069 677.1607 
" clip-path="url(#pfbbc81cdec)" style="fill: none; stroke: #7a7a7a; stroke-width: 3; stroke-linecap: square"/>
   </g>
   <g id="line2d_6">
    <path d="M 1019.453334 109.350304 
L 847.602676 673.043837 
" clip-path="url(#pfbbc81cdec)" style="fill: none; stroke: #7a7a7a; stroke-width: 3; stroke-linecap: square"/>
   </g>
   <g id="line2d_7">
    <path d="M 913.868561 726.668615 
L 908.9537 740.391491 
L 908.10631 742.713824 
" clip-path="url(#pfbbc81cdec)" style="fill: none; stroke: #7a7a7a; stroke-width: 3; stroke-linecap: square"/>
   </g>
   <g id="line2d_8">
    <path d="M 853.87336 734.163416 
L 851.839625 740.391491 
L 851.161713 742.713824 
" clip-path="url(#pfbbc81cdec)" style="fill: none; stroke: #7a7a7a; stroke-width: 3; stroke-linecap: square"/>
   </g>
   <g id="line2d_9">
    <path d="M 853.87336 734.163416 
L 851.839625 740.391491 
L 851.161713 742.713824 
" clip-path="url(#pfbbc81cdec)" style="fill: none; stroke: #7a7a7a; stroke-width: 3; stroke-linecap: square"/>
   </g>
   <g id="line2d_10">
    <path d="M 828.790621 737.224673 
L 828.451665 740.391491 
L 828.282187 742.713824 
" clip-path="url(#pfbbc81cdec)" style="fill: none; stroke: #7a7a7a; stroke-width: 3; stroke-linecap: square"/>
   </g>
   <g id="line2d_11">
    <path d="M 924.206717 688.350122 
L 913.868561 726.668615 
" clip-path="url(#pfbbc81cdec)" style="fill: none; stroke: #7a7a7a; stroke-width: 3; stroke-linecap: square"/>
   </g>
   <g id="line2d_12">
    <path d="M 871.499069 677.1607 
L 853.87336 734.163416 
" clip-path="url(#pfbbc81cdec)" style="fill: none; stroke: #7a7a7a; stroke-width: 3; stroke-linecap: square"/>
   </g>
   <g id="line2d_13">
    <path d="M 979.626012 708.406633 
L 1163.17065 109.350304 
" clip-path="url(#pfbbc81cdec)" style="fill: none; stroke: #7a7a7a; stroke-width: 3; stroke-linecap: square"/>
   </g>
   <g id="line2d_14">
    <path d="M 1003.013971 718.223768 
L 1187.575478 109.350304 
" clip-path="url(#pfbbc81cdec)" style="fill: none; stroke: #7a7a7a; stroke-width: 3; stroke-linecap: square"/>
   </g>
   <g id="line2d_15">
    <path d="M 1103.17545 109.350304 
L 924.206717 688.350122 
" clip-path="url(#pfbbc81cdec)" style="fill: none; stroke: #7a7a7a; stroke-width: 3; stroke-linecap: square"/>
   </g>
   <g id="line2d_16">
    <path d="M 1044.536073 109.350304 
L 871.499069 677.1607 
" clip-path="url(#pfbbc81cdec)" style="fill: none; stroke: #7a7a7a; stroke-width: 3; stroke-linecap: square"/>
   </g>
   <g id="line2d_17">
    <path d="M 924.206717 688.350122 
L 1103.17545 109.350304 
" clip-path="url(#pfbbc81cdec)" style="fill: none; stroke: #7a7a7a; stroke-width: 3; stroke-linecap: square"/>
   </g>
   <g id="line2d_18">
    <path d="M 979.626012 708.406633 
L 1163.17065 109.350304 
" clip-path="url(#pfbbc81cdec)" style="fill: none; stroke: #7a7a7a; stroke-width: 3; stroke-linecap: square"/>
   </g>
   <g id="line2d_19">
    <path d="M 924.376195 742.713824 
L 924.376195 740.391491 
L 924.206717 688.350122 
" clip-path="url(#pfbbc81cdec)" style="fill: none; stroke: #7a7a7a; stroke-width: 3; stroke-linecap: square"/>
   </g>
   <g id="line2d_20">
    <path d="M 978.609144 742.713824 
L 978.778622 740.28593 
L 979.626012 708.406633 
" clip-path="url(#pfbbc81cdec)" style="fill: none; stroke: #7a7a7a; stroke-width: 3; stroke-linecap: square"/>
   </g>
   <g id="line2d_21">
    <path d="M 699.478932 1419.568305 
L 698.834575 1441 
" clip-path="url(#pfbbc81cdec)" style="fill: none; stroke: #7a7a7a; stroke-width: 3; stroke-linecap: square"/>
   </g>
   <g id="line2d_22">
    <path d="M 603.215447 1418.829381 
L 602.690059 1441 
" clip-path="url(#pfbbc81cdec)" style="fill: none; stroke: #7a7a7a; stroke-width: 3; stroke-linecap: square"/>
   </g>
   <g id="line2d_23">
    <path d="M 994.201117 1061.084553 
L 990.64208 1054.645357 
L 983.524005 1041.661405 
L 977.592276 1029.733059 
L 975.728019 1016.537986 
L 978.439666 774.276439 
" clip-path="url(#pfbbc81cdec)" style="fill: none; stroke: #7a7a7a; stroke-width: 3; stroke-linecap: square"/>
   </g>
   <g id="line2d_24">
    <path d="M 1021.656548 1060.240068 
L 1018.605944 1056.96769 
L 1013.013172 1048.945086 
L 1008.267788 1039.972436 
L 1005.386663 1032.477634 
L 1001.658148 1014.954577 
L 1001.319192 934.62297 
L 1001.827626 906.860536 
L 1002.675016 774.170879 
" clip-path="url(#pfbbc81cdec)" style="fill: none; stroke: #7a7a7a; stroke-width: 3; stroke-linecap: square"/>
   </g>
   <g id="line2d_25">
    <path d="M 898.785022 775.332045 
L 822.180981 923.644669 
" clip-path="url(#pfbbc81cdec)" style="fill: none; stroke: #7a7a7a; stroke-width: 3; stroke-linecap: square"/>
   </g>
   <g id="line2d_26">
    <path d="M 837.095042 769.948455 
L 776.252452 885.009495 
L 762.18578 912.560808 
" clip-path="url(#pfbbc81cdec)" style="fill: none; stroke: #7a7a7a; stroke-width: 3; stroke-linecap: square"/>
   </g>
   <g id="line2d_27">
    <path d="M 886.41313 1062.35128 
L 898.446066 1045.883829 
L 912.173781 1021.921576 
L 919.291856 1005.665245 
L 921.664547 996.270353 
L 923.189849 986.875461 
L 923.528805 963.124329 
L 923.528805 915.305383 
L 924.376195 867.169756 
L 924.715151 794.438511 
L 925.054107 774.487561 
" clip-path="url(#pfbbc81cdec)" style="fill: none; stroke: #7a7a7a; stroke-width: 3; stroke-linecap: square"/>
   </g>
   <g id="line2d_28">
    <path d="M 994.201117 1061.084553 
L 990.64208 1054.645357 
L 983.524005 1041.661405 
L 977.592276 1029.733059 
L 975.728019 1016.537986 
L 978.439666 774.276439 
" clip-path="url(#pfbbc81cdec)" style="fill: none; stroke: #7a7a7a; stroke-width: 3; stroke-linecap: square"/>
   </g>
   <g id="line2d_29">
    <path d="M 908.10631 742.713824 
L 898.785022 775.332045 
" clip-path="url(#pfbbc81cdec)" style="fill: none; stroke: #7a7a7a; stroke-width: 3; stroke-linecap: square"/>
   </g>
   <g id="line2d_30">
    <path d="M 851.161713 742.713824 
L 850.992235 743.030506 
L 837.095042 769.948455 
" clip-path="url(#pfbbc81cdec)" style="fill: none; stroke: #7a7a7a; stroke-width: 3; stroke-linecap: square"/>
   </g>
   <g id="line2d_31">
    <path d="M 978.439666 774.276439 
L 978.609144 742.713824 
" clip-path="url(#pfbbc81cdec)" style="fill: none; stroke: #7a7a7a; stroke-width: 3; stroke-linecap: square"/>
   </g>
   <g id="line2d_32">
    <path d="M 1002.675016 774.170879 
L 1000.810758 742.713824 
" clip-path="url(#pfbbc81cdec)" style="fill: none; stroke: #7a7a7a; stroke-width: 3; stroke-linecap: square"/>
   </g>
   <g id="line2d_33">
    <path d="M 457.803351 1180.473577 
L -1 1191.946404 
" clip-path="url(#pfbbc81cdec)" style="fill: none; stroke: #7a7a7a; stroke-width: 3; stroke-linecap: square"/>
   </g>
   <g id="line2d_34">
    <path d="M 457.972829 1144.794098 
L -1 1157.143102 
" clip-path="url(#pfbbc81cdec)" style="fill: none; stroke: #7a7a7a; stroke-width: 3; stroke-linecap: square"/>
   </g>
   <g id="line2d_35">
    <path d="M 925.054107 774.487561 
L 924.376195 742.713824 
" clip-path="url(#pfbbc81cdec)" style="fill: none; stroke: #7a7a7a; stroke-width: 3; stroke-linecap: square"/>
   </g>
   <g id="line2d_36">
    <path d="M 978.439666 774.276439 
L 978.609144 742.713824 
" clip-path="url(#pfbbc81cdec)" style="fill: none; stroke: #7a7a7a; stroke-width: 3; stroke-linecap: square"/>
   </g>
   <g id="line2d_37">
    <path d="M 822.180981 923.644669 
L 814.215516 946.129074 
L 777.777753 1063.090204 
" clip-path="url(#pfbbc81cdec)" style="fill: none; stroke: #7a7a7a; stroke-width: 3; stroke-linecap: square"/>
   </g>
   <g id="line2d_38">
    <path d="M 762.18578 912.560808 
L 753.03397 943.59562 
L 740.153645 982.864158 
L 711.850824 1064.462492 
" clip-path="url(#pfbbc81cdec)" style="fill: none; stroke: #7a7a7a; stroke-width: 3; stroke-linecap: square"/>
   </g>
   <g id="line2d_39">
    <path d="M 837.095042 769.948455 
L 776.252452 885.009495 
L 762.18578 912.560808 
" clip-path="url(#pfbbc81cdec)" style="fill: none; stroke: #7a7a7a; stroke-width: 3; stroke-linecap: square"/>
   </g>
   <g id="line2d_40">
    <path d="M 814.046038 768.153925 
L 794.895028 800.033222 
L 740.153645 908.549506 
" clip-path="url(#pfbbc81cdec)" style="fill: none; stroke: #7a7a7a; stroke-width: 3; stroke-linecap: square"/>
   </g>
   <g id="line2d_41">
    <path d="M 752.398026 1441 
L 752.695014 1419.357184 
" clip-path="url(#pfbbc81cdec)" style="fill: none; stroke: #7a7a7a; stroke-width: 3; stroke-linecap: square"/>
   </g>
   <g id="line2d_42">
    <path d="M 848.273929 1441 
L 848.958499 1420.201669 
" clip-path="url(#pfbbc81cdec)" style="fill: none; stroke: #7a7a7a; stroke-width: 3; stroke-linecap: square"/>
   </g>
   <g id="line2d_43">
    <path d="M 191.892421 1246.132261 
L 453.227446 1238.74302 
" clip-path="url(#pfbbc81cdec)" style="fill: none; stroke: #7a7a7a; stroke-width: 3; stroke-linecap: square"/>
   </g>
   <g id="line2d_44">
    <path d="M 194.095635 1279.067164 
L 454.752748 1271.889045 
" clip-path="url(#pfbbc81cdec)" style="fill: none; stroke: #7a7a7a; stroke-width: 3; stroke-linecap: square"/>
   </g>
   <g id="line2d_45">
    <path d="M 851.161713 742.713824 
L 850.992235 743.030506 
L 837.095042 769.948455 
" clip-path="url(#pfbbc81cdec)" style="fill: none; stroke: #7a7a7a; stroke-width: 3; stroke-linecap: square"/>
   </g>
   <g id="line2d_46">
    <path d="M 828.282187 742.713824 
L 828.282187 743.030506 
L 814.046038 768.153925 
" clip-path="url(#pfbbc81cdec)" style="fill: none; stroke: #7a7a7a; stroke-width: 3; stroke-linecap: square"/>
   </g>
   <g id="line2d_47">
    <path d="M 457.972829 1144.794098 
L -1 1157.143102 
" clip-path="url(#pfbbc81cdec)" style="fill: none; stroke: #7a7a7a; stroke-width: 3; stroke-linecap: square"/>
   </g>
   <g id="line2d_48">
    <path d="M 458.311785 1132.126828 
L -1 1143.795857 
" clip-path="url(#pfbbc81cdec)" style="fill: none; stroke: #7a7a7a; stroke-width: 3; stroke-linecap: square"/>
   </g>
   <g id="line2d_49">
    <path d="M 455.939094 1214.041843 
L 432.381656 1214.358525 
L 390.351121 1215.730812 
L 80.714875 1223.647856 
L -1 1226.245987 
" clip-path="url(#pfbbc81cdec)" style="fill: none; stroke: #7a7a7a; stroke-width: 3; stroke-linecap: square"/>
   </g>
   <g id="line2d_50">
    <path d="M 457.803351 1180.473577 
L -1 1191.946404 
" clip-path="url(#pfbbc81cdec)" style="fill: none; stroke: #7a7a7a; stroke-width: 3; stroke-linecap: square"/>
   </g>
   <g id="line2d_51">
    <path d="M 762.18578 912.560808 
L 753.03397 943.59562 
L 740.153645 982.864158 
L 711.850824 1064.462492 
" clip-path="url(#pfbbc81cdec)" style="fill: none; stroke: #7a7a7a; stroke-width: 3; stroke-linecap: square"/>
   </g>
   <g id="line2d_52">
    <path d="M 740.153645 908.549506 
L 731.510268 934.728531 
L 699.817888 1033.744361 
L 691.682946 1052.323024 
L 684.564871 1064.884734 
" clip-path="url(#pfbbc81cdec)" style="fill: none; stroke: #7a7a7a; stroke-width: 3; stroke-linecap: square"/>
   </g>
   <g id="line2d_53">
    <path d="M 752.695014 1419.357184 
L 753.372926 1409.328928 
L 748.458065 1382.72766 
L 740.492601 1358.448726 
L 729.476533 1335.119836 
L 715.579339 1313.057673 
L 699.309455 1292.473359 
L 680.666878 1273.683575 
L 660.160044 1256.899441 
L 638.127908 1242.33208 
L 614.739949 1230.298173 
L 590.165644 1221.114402 
L 565.082905 1214.886328 
L 539.491732 1211.930631 
L 455.939094 1214.041843 
" clip-path="url(#pfbbc81cdec)" style="fill: none; stroke: #7a7a7a; stroke-width: 3; stroke-linecap: square"/>
   </g>
   <g id="line2d_54">
    <path d="M 848.958499 1420.201669 
L 849.297455 1408.484444 
L 844.891028 1388.850174 
L 837.603476 1368.793663 
L 827.604276 1348.737152 
L 814.893428 1328.891761 
L 799.809889 1309.363053 
L 782.353658 1290.362147 
L 762.863692 1272.205726 
L 741.170512 1254.999351 
L 717.782553 1239.059702 
L 692.699814 1224.597902 
L 666.091773 1211.61395 
L 638.127908 1200.635649 
L 608.80822 1191.557438 
L 578.641142 1184.801561 
L 547.457196 1180.579137 
L 515.764816 1178.995728 
L 457.803351 1180.473577 
" clip-path="url(#pfbbc81cdec)" style="fill: none; stroke: #7a7a7a; stroke-width: 3; stroke-linecap: square"/>
   </g>
   <g id="line2d_55">
    <path d="M 711.850824 1064.462492 
L 701.173712 1079.979898 
L 689.64921 1093.913896 
L 675.921495 1106.264484 
L 658.973698 1116.820543 
L 637.619475 1125.793193 
L 610.841956 1132.971313 
L 577.285318 1138.354903 
L 536.102172 1142.049523 
L 457.972829 1144.794098 
" clip-path="url(#pfbbc81cdec)" style="fill: none; stroke: #7a7a7a; stroke-width: 3; stroke-linecap: square"/>
   </g>
   <g id="line2d_56">
    <path d="M 684.564871 1064.884734 
L 679.988966 1072.907339 
L 672.870892 1083.568958 
L 663.549603 1092.224926 
L 651.686146 1101.197576 
L 637.449997 1110.170226 
L 625.078105 1115.342695 
L 610.841956 1119.459558 
L 594.741549 1123.47086 
L 578.302186 1126.426556 
L 548.474064 1128.85445 
L 517.629074 1130.226737 
L 484.919826 1131.282343 
L 458.311785 1132.126828 
" clip-path="url(#pfbbc81cdec)" style="fill: none; stroke: #7a7a7a; stroke-width: 3; stroke-linecap: square"/>
   </g>
   <g id="line2d_57">
    <path d="M 455.43066 1307.357402 
L 1153.17145 1240.959793 
" clip-path="url(#pfbbc81cdec)" style="fill: none; stroke: #7a7a7a; stroke-width: 3; stroke-linecap: square"/>
   </g>
   <g id="line2d_58">
    <path d="M 457.633874 1324.035974 
L 1155.205186 1274.316938 
" clip-path="url(#pfbbc81cdec)" style="fill: none; stroke: #7a7a7a; stroke-width: 3; stroke-linecap: square"/>
   </g>
   <g id="line2d_59">
    <path d="M 777.777753 1063.090204 
L 705.749617 1358.237604 
L 701.851624 1386.633402 
L 699.817888 1411.545701 
L 699.478932 1419.568305 
" clip-path="url(#pfbbc81cdec)" style="fill: none; stroke: #7a7a7a; stroke-width: 3; stroke-linecap: square"/>
   </g>
   <g id="line2d_60">
    <path d="M 711.850824 1064.462492 
L 612.875691 1355.70415 
L 607.96083 1379.877525 
L 603.215447 1418.829381 
" clip-path="url(#pfbbc81cdec)" style="fill: none; stroke: #7a7a7a; stroke-width: 3; stroke-linecap: square"/>
   </g>
   <g id="line2d_61">
    <path d="M 777.777753 1063.090204 
L 776.252452 1086.207973 
L 779.472533 1108.586817 
L 786.929563 1130.226737 
L 798.454065 1150.599931 
L 813.707082 1169.706397 
L 832.180181 1187.229454 
L 853.703882 1202.957982 
L 877.600276 1216.680858 
L 903.869361 1228.186962 
L 931.833225 1237.159612 
L 961.49187 1243.387686 
L 974.541673 1244.02105 
L 980.473402 1245.076656 
L 988.608344 1244.654413 
L 1022.33446 1243.809929 
L 1055.382663 1243.493247 
L 1153.17145 1240.959793 
" clip-path="url(#pfbbc81cdec)" style="fill: none; stroke: #7a7a7a; stroke-width: 3; stroke-linecap: square"/>
   </g>
   <g id="line2d_62">
    <path d="M 711.850824 1064.462492 
L 713.88456 1088.213624 
L 719.138377 1110.90915 
L 727.442797 1132.337949 
L 738.458865 1152.394461 
L 752.017102 1171.184245 
L 768.117509 1188.601742 
L 786.590608 1204.54139 
L 806.927964 1219.108751 
L 829.299055 1232.092703 
L 853.534405 1243.598807 
L 879.125578 1253.521502 
L 906.242052 1261.755228 
L 934.714351 1268.299985 
L 964.203517 1273.155772 
L 994.540073 1276.217029 
L 1025.724019 1277.589316 
L 1057.416399 1276.955953 
L 1155.205186 1274.316938 
" clip-path="url(#pfbbc81cdec)" style="fill: none; stroke: #7a7a7a; stroke-width: 3; stroke-linecap: square"/>
   </g>
   <g id="line2d_63">
    <path d="M 752.695014 1419.357184 
L 757.948831 1397.611703 
L 765.236384 1374.493935 
L 774.557672 1357.920923 
L 784.72635 1341.347911 
L 793.03077 1331.319655 
L 805.063706 1320.024672 
L 821.503069 1307.568523 
L 837.26452 1297.540267 
L 852.517537 1287.617572 
L 871.838025 1278.856043 
L 886.074174 1273.155772 
L 903.191449 1268.405545 
L 921.495069 1263.972001 
L 945.730419 1259.432895 
L 978.778622 1254.365987 
L 1010.809958 1250.671367 
L 1040.299124 1246.871186 
L 1075.550541 1243.915489 
L 1105.548142 1242.648762 
L 1139.443735 1241.170914 
L 1153.17145 1240.959793 
" clip-path="url(#pfbbc81cdec)" style="fill: none; stroke: #7a7a7a; stroke-width: 3; stroke-linecap: square"/>
   </g>
   <g id="line2d_64">
    <path d="M 848.958499 1420.201669 
L 849.297455 1404.367581 
L 849.805889 1386.527842 
L 851.331191 1380.722009 
L 856.246052 1360.032134 
L 862.516737 1342.192395 
L 875.905496 1323.719293 
L 892.344859 1312.318749 
L 915.56334 1301.762691 
L 942.849293 1294.267889 
L 970.813158 1288.039814 
L 1008.776222 1283.395148 
L 1053.348928 1279.067164 
L 1091.989904 1276.42815 
L 1155.205186 1274.316938 
" clip-path="url(#pfbbc81cdec)" style="fill: none; stroke: #7a7a7a; stroke-width: 3; stroke-linecap: square"/>
   </g>
   <g id="line2d_65">
    <path d="M 455.43066 1307.357402 
L 478.988097 1306.724038 
L 512.714213 1307.14628 
L 545.592938 1311.157583 
L 576.946362 1318.230142 
L 606.096573 1328.047277 
L 632.535136 1340.081183 
L 655.414661 1353.90962 
L 674.226715 1369.215905 
L 688.293387 1385.577796 
L 696.936763 1402.46749 
L 699.478932 1419.568305 
" clip-path="url(#pfbbc81cdec)" style="fill: none; stroke: #7a7a7a; stroke-width: 3; stroke-linecap: square"/>
   </g>
   <g id="line2d_66">
    <path d="M 457.633874 1324.035974 
L 487.800952 1323.085929 
L 512.544735 1323.085929 
L 528.645142 1323.719293 
L 540.000166 1324.98602 
L 551.185711 1327.625034 
L 561.015433 1331.319655 
L 569.150376 1335.964321 
L 576.098972 1341.875713 
L 580.5054 1347.892667 
L 601.859623 1398.561748 
L 603.215447 1418.829381 
" clip-path="url(#pfbbc81cdec)" style="fill: none; stroke: #7a7a7a; stroke-width: 3; stroke-linecap: square"/>
   </g>
   <g id="line2d_67">
    <path d="M 454.752748 1271.889045 
L 492.207379 1273.050211 
L 527.797752 1277.800437 
L 561.184911 1285.611921 
L 592.029901 1296.062419 
L 619.65481 1308.94081 
L 643.890159 1323.508171 
L 664.227515 1339.553381 
L 680.4974 1356.548635 
L 692.021902 1374.177253 
L 698.631543 1391.911432 
L 699.817888 1409.328928 
L 699.478932 1419.568305 
" clip-path="url(#pfbbc81cdec)" style="fill: none; stroke: #7a7a7a; stroke-width: 3; stroke-linecap: square"/>
   </g>
   <g id="line2d_68">
    <path d="M 455.43066 1307.357402 
L 496.105372 1308.201886 
L 528.81462 1313.902158 
L 554.575271 1323.719293 
L 573.895759 1337.019926 
L 587.623474 1352.854014 
L 596.775284 1370.588193 
L 601.859623 1389.483538 
L 603.554403 1408.695565 
L 603.215447 1418.829381 
" clip-path="url(#pfbbc81cdec)" style="fill: none; stroke: #7a7a7a; stroke-width: 3; stroke-linecap: square"/>
   </g>
   <g id="line2d_69">
    <path d="M 1153.17145 1240.959793 
L 1374.848631 1236.209566 
L 1441 1234.653014 
" clip-path="url(#pfbbc81cdec)" style="fill: none; stroke: #7a7a7a; stroke-width: 3; stroke-linecap: square"/>
   </g>
   <g id="line2d_70">
    <path d="M 1155.205186 1274.316938 
L 1289.94017 1270.727878 
L 1441 1267.079962 
" clip-path="url(#pfbbc81cdec)" style="fill: none; stroke: #7a7a7a; stroke-width: 3; stroke-linecap: square"/>
   </g>
   <g id="line2d_71">
    <path d="M 752.695014 1419.357184 
L 753.372926 1409.328928 
L 753.03397 1407.639959 
L 754.389794 1346.7315 
L 750.830756 1327.308353 
L 744.051638 1307.674083 
L 733.88296 1288.145375 
L 721.002634 1268.933348 
L 705.410661 1250.249124 
L 687.445997 1232.303825 
L 667.278119 1215.414131 
L 645.245983 1199.791164 
L 621.519068 1185.540485 
L 596.266851 1173.084336 
L 569.997766 1162.528277 
L 542.711813 1154.188991 
L 514.917426 1148.383158 
L 486.445128 1145.11078 
L 457.972829 1144.794098 
" clip-path="url(#pfbbc81cdec)" style="fill: none; stroke: #7a7a7a; stroke-width: 3; stroke-linecap: square"/>
   </g>
   <g id="line2d_72">
    <path d="M 848.958499 1420.201669 
L 850.653279 1347.575985 
L 848.11111 1329.314004 
L 842.348859 1310.840901 
L 833.197048 1292.367798 
L 821.164113 1274.105817 
L 806.250052 1256.160517 
L 788.624343 1238.74302 
L 768.286987 1222.064448 
L 745.746417 1206.23036 
L 720.833156 1191.451878 
L 693.716682 1177.940122 
L 664.735949 1165.695094 
L 646.601807 1159.46702 
L 633.890959 1155.139036 
L 601.520668 1146.377507 
L 567.625074 1139.410508 
L 532.373657 1134.660282 
L 495.766416 1132.126828 
L 458.311785 1132.126828 
" clip-path="url(#pfbbc81cdec)" style="fill: none; stroke: #7a7a7a; stroke-width: 3; stroke-linecap: square"/>
   </g>
   <g id="line2d_73">
    <path d="M 752.695014 1419.357184 
L 764.050038 1378.399676 
L 774.218716 1349.159394 
L 882.854093 1078.818732 
L 886.41313 1062.35128 
" clip-path="url(#pfbbc81cdec)" style="fill: none; stroke: #7a7a7a; stroke-width: 3; stroke-linecap: square"/>
   </g>
   <g id="line2d_74">
    <path d="M 848.958499 1420.201669 
L 849.805889 1386.527842 
L 851.500669 1379.666403 
L 855.737618 1363.726755 
L 983.524005 1101.408697 
L 991.828426 1076.601959 
L 994.201117 1061.084553 
" clip-path="url(#pfbbc81cdec)" style="fill: none; stroke: #7a7a7a; stroke-width: 3; stroke-linecap: square"/>
   </g>
   <g id="line2d_75">
    <path d="M 1441 1191.699901 
L 1146.053376 1198.207755 
" clip-path="url(#pfbbc81cdec)" style="fill: none; stroke: #7a7a7a; stroke-width: 3; stroke-linecap: square"/>
   </g>
   <g id="line2d_76">
    <path d="M 1441 1138.187572 
L 1399.08398 1139.093827 
L 1356.206055 1137.615978 
L 1258.756224 1130.64898 
L 1191.642949 1125.054269 
L 1150.798759 1119.670679 
L 1140.121647 1117.453906 
" clip-path="url(#pfbbc81cdec)" style="fill: none; stroke: #7a7a7a; stroke-width: 3; stroke-linecap: square"/>
   </g>
   <g id="line2d_77">
    <path d="M 453.227446 1238.74302 
L 470.853155 1238.320778 
L 487.97043 1237.792975 
L 546.440328 1233.781673 
L 546.948762 1233.676112 
L 662.702214 1227.342477 
L 705.749617 1223.014493 
L 744.051638 1217.1031 
L 777.947231 1209.713859 
L 808.114309 1200.84677 
L 834.891828 1190.818514 
L 858.788222 1179.523531 
L 880.142445 1167.278503 
L 904.208317 1153.450066 
L 928.613144 1136.665933 
L 955.221185 1114.603771 
L 977.422798 1093.174971 
L 989.625212 1077.340883 
L 994.201117 1061.084553 
" clip-path="url(#pfbbc81cdec)" style="fill: none; stroke: #7a7a7a; stroke-width: 3; stroke-linecap: square"/>
   </g>
   <g id="line2d_78">
    <path d="M 454.752748 1271.889045 
L 616.265251 1263.127516 
L 667.956031 1259.855138 
L 714.392994 1255.210472 
L 755.57614 1249.5102 
L 792.18338 1242.437641 
L 824.553672 1234.309476 
L 852.856493 1225.020144 
L 877.939232 1214.675207 
L 899.632412 1203.274663 
L 918.783422 1190.924075 
L 935.731219 1177.623441 
L 956.577008 1160.522626 
L 975.050107 1142.471765 
L 994.709551 1123.57642 
L 1011.657348 1102.780985 
L 1020.470202 1085.363488 
L 1022.673416 1073.11846 
L 1021.656548 1060.240068 
" clip-path="url(#pfbbc81cdec)" style="fill: none; stroke: #7a7a7a; stroke-width: 3; stroke-linecap: square"/>
   </g>
   <g id="line2d_79">
    <path d="M 777.777753 1063.090204 
L 773.371326 1076.285278 
L 765.914296 1089.37479 
L 755.067706 1102.358742 
L 740.831556 1115.026013 
L 723.03637 1127.05992 
L 701.512668 1138.354903 
L 676.090973 1148.69984 
L 646.771285 1157.883611 
L 613.214647 1165.800655 
L 575.421061 1172.13429 
L 533.051569 1176.778956 
L 485.936694 1179.523531 
L 457.803351 1180.473577 
" clip-path="url(#pfbbc81cdec)" style="fill: none; stroke: #7a7a7a; stroke-width: 3; stroke-linecap: square"/>
   </g>
   <g id="line2d_80">
    <path d="M 711.850824 1064.462492 
L 701.173712 1079.979898 
L 689.64921 1093.913896 
L 675.921495 1106.264484 
L 658.973698 1116.820543 
L 637.619475 1125.793193 
L 610.841956 1132.971313 
L 577.285318 1138.354903 
L 536.102172 1142.049523 
L 457.972829 1144.794098 
" clip-path="url(#pfbbc81cdec)" style="fill: none; stroke: #7a7a7a; stroke-width: 3; stroke-linecap: square"/>
   </g>
   <g id="line2d_81">
    <path d="M 1146.053376 1198.207755 
L 1121.818026 1197.785513 
L 1100.63328 1197.468831 
L 1069.957768 1197.574392 
L 1039.960168 1194.196453 
L 1011.148914 1187.651696 
L 983.862961 1178.151244 
L 958.9497 1166.222897 
L 936.578608 1152.183339 
L 917.766554 1136.349251 
L 902.683015 1119.037315 
L 892.175381 1100.775334 
L 886.41313 1081.774428 
L 886.41313 1062.35128 
" clip-path="url(#pfbbc81cdec)" style="fill: none; stroke: #7a7a7a; stroke-width: 3; stroke-linecap: square"/>
   </g>
   <g id="line2d_82">
    <path d="M 1140.121647 1117.453906 
L 1094.532074 1116.714982 
L 1060.297524 1112.70368 
L 1034.536873 1103.836591 
L 1015.894297 1091.380441 
L 1003.013971 1076.70752 
L 994.201117 1061.084553 
" clip-path="url(#pfbbc81cdec)" style="fill: none; stroke: #7a7a7a; stroke-width: 3; stroke-linecap: square"/>
   </g>
   <g id="line2d_83">
    <path d="M 711.850824 1064.462492 
L 699.478932 1419.568305 
" clip-path="url(#pfbbc81cdec)" style="fill: none; stroke: #7a7a7a; stroke-width: 3; stroke-linecap: square"/>
   </g>
   <g id="line2d_84">
    <path d="M 684.564871 1064.884734 
L 603.215447 1418.829381 
" clip-path="url(#pfbbc81cdec)" style="fill: none; stroke: #7a7a7a; stroke-width: 3; stroke-linecap: square"/>
   </g>
   <g id="line2d_85">
    <path d="M 453.227446 1238.74302 
L 470.853155 1238.320778 
L 637.111041 1233.676112 
L 665.244383 1230.298173 
L 693.208248 1224.175659 
L 720.833156 1215.519691 
L 747.441197 1204.54139 
L 772.862892 1191.557438 
L 796.928764 1176.673395 
L 818.791421 1160.311505 
L 838.450865 1142.471765 
L 855.398662 1123.57642 
L 869.295855 1103.73103 
L 879.803489 1083.252276 
L 886.41313 1062.35128 
" clip-path="url(#pfbbc81cdec)" style="fill: none; stroke: #7a7a7a; stroke-width: 3; stroke-linecap: square"/>
   </g>
   <g id="line2d_86">
    <path d="M 454.752748 1271.889045 
L 637.788952 1263.549758 
L 677.277319 1261.332986 
L 711.172912 1256.899441 
L 743.712682 1250.776927 
L 775.405062 1242.015399 
L 805.402662 1231.776022 
L 833.366526 1220.269918 
L 859.466133 1207.497087 
L 883.532005 1193.563089 
L 905.56414 1178.890168 
L 925.223585 1163.267201 
L 942.849293 1147.116431 
L 958.10231 1130.332298 
L 970.982636 1113.231483 
L 981.320792 1095.919547 
L 989.116778 1078.396489 
L 994.201117 1061.084553 
" clip-path="url(#pfbbc81cdec)" style="fill: none; stroke: #7a7a7a; stroke-width: 3; stroke-linecap: square"/>
   </g>
   <g id="line2d_87">
    <path d="M 1146.053376 1198.207755 
L 1119.784291 1190.607393 
L 1096.904765 1180.368016 
L 1077.075843 1167.384064 
L 1059.280657 1151.972218 
L 1043.349728 1134.23804 
L 1028.266189 1114.392649 
L 1013.352127 1092.647169 
L 998.268588 1068.896037 
L 994.201117 1061.084553 
" clip-path="url(#pfbbc81cdec)" style="fill: none; stroke: #7a7a7a; stroke-width: 3; stroke-linecap: square"/>
   </g>
   <g id="line2d_88">
    <path d="M 1140.121647 1117.453906 
L 1122.495938 1114.287089 
L 1099.277457 1108.270135 
L 1073.347328 1098.875243 
L 1047.756155 1085.68017 
L 1025.554541 1068.157112 
L 1021.656548 1060.240068 
" clip-path="url(#pfbbc81cdec)" style="fill: none; stroke: #7a7a7a; stroke-width: 3; stroke-linecap: square"/>
   </g>
   <g id="line2d_89">
    <path d="M 1146.053376 1198.207755 
L 1133.681484 1198.418876 
L 1116.225253 1198.418876 
L 1092.498338 1199.05224 
L 1039.621212 1200.424527 
L 995.048507 1201.691254 
L 977.25332 1202.113497 
L 974.541673 1202.535739 
L 957.25492 1203.274663 
L 921.664547 1208.447132 
L 890.141645 1215.20301 
L 862.177781 1223.225614 
L 837.772954 1232.620506 
L 816.41873 1243.176565 
L 797.945631 1254.89379 
L 781.845224 1267.666621 
L 767.948031 1281.495058 
L 755.915096 1296.167979 
L 745.57694 1311.685386 
L 736.425129 1328.047277 
L 728.290187 1345.042531 
L 720.833156 1362.671149 
L 707.783353 1396.767218 
L 707.444397 1396.97834 
L 704.224316 1399.511794 
L 700.834756 1403.311975 
L 699.817888 1411.545701 
L 699.478932 1419.568305 
" clip-path="url(#pfbbc81cdec)" style="fill: none; stroke: #7a7a7a; stroke-width: 3; stroke-linecap: square"/>
   </g>
   <g id="line2d_90">
    <path d="M 1140.121647 1117.453906 
L 1092.32886 1119.98736 
L 1047.247721 1123.681981 
L 1005.047707 1128.537768 
L 965.559341 1134.449161 
L 928.613144 1141.52172 
L 894.039639 1149.438764 
L 862.008303 1158.411414 
L 832.180181 1168.334109 
L 804.72475 1179.101289 
L 779.303055 1190.712953 
L 756.084573 1203.063542 
L 734.73035 1216.258615 
L 715.240383 1230.087052 
L 697.614675 1244.654413 
L 681.853224 1259.749577 
L 667.617075 1275.583665 
L 654.906227 1291.839995 
L 643.720681 1308.624129 
L 634.060437 1325.936065 
L 625.586539 1343.564683 
L 618.298986 1361.615543 
L 612.367257 1380.088646 
L 607.282918 1398.77287 
L 603.384925 1417.773775 
L 603.215447 1418.829381 
" clip-path="url(#pfbbc81cdec)" style="fill: none; stroke: #7a7a7a; stroke-width: 3; stroke-linecap: square"/>
   </g>
   <g id="line2d_91">
    <path d="M 1146.053376 1198.207755 
L 457.803351 1180.473577 
" clip-path="url(#pfbbc81cdec)" style="fill: none; stroke: #7a7a7a; stroke-width: 3; stroke-linecap: square"/>
   </g>
   <g id="line2d_92">
    <path d="M 1140.121647 1117.453906 
L 457.972829 1144.794098 
" clip-path="url(#pfbbc81cdec)" style="fill: none; stroke: #7a7a7a; stroke-width: 3; stroke-linecap: square"/>
   </g>
   <g id="line2d_93">
    <path d="M 454.752748 1271.889045 
L 1153.17145 1240.959793 
" clip-path="url(#pfbbc81cdec)" style="fill: none; stroke: #7a7a7a; stroke-width: 3; stroke-linecap: square"/>
   </g>
   <g id="line2d_94">
    <path d="M 455.43066 1307.357402 
L 1155.205186 1274.316938 
" clip-path="url(#pfbbc81cdec)" style="fill: none; stroke: #7a7a7a; stroke-width: 3; stroke-linecap: square"/>
   </g>
   <g id="line2d_95">
    <path d="M 752.695014 1419.357184 
L 991.319992 1075.335232 
L 993.184249 1068.368234 
L 994.201117 1061.084553 
" clip-path="url(#pfbbc81cdec)" style="fill: none; stroke: #7a7a7a; stroke-width: 3; stroke-linecap: square"/>
   </g>
   <g id="line2d_96">
    <path d="M 848.958499 1420.201669 
L 849.805889 1386.527842 
L 851.500669 1379.666403 
L 855.737618 1363.726755 
L 858.449266 1356.759756 
L 1015.216385 1085.996852 
L 1021.826026 1074.279626 
L 1022.503938 1067.523749 
L 1021.656548 1060.240068 
" clip-path="url(#pfbbc81cdec)" style="fill: none; stroke: #7a7a7a; stroke-width: 3; stroke-linecap: square"/>
   </g>
   <g id="line2d_97">
    <path d="M 453.227446 1238.74302 
L 980.473402 1245.076656 
L 1005.047707 1243.915489 
L 1153.17145 1240.959793 
" clip-path="url(#pfbbc81cdec)" style="fill: none; stroke: #7a7a7a; stroke-width: 3; stroke-linecap: square"/>
   </g>
   <g id="line2d_98">
    <path d="M 454.752748 1271.889045 
L 1155.205186 1274.316938 
" clip-path="url(#pfbbc81cdec)" style="fill: none; stroke: #7a7a7a; stroke-width: 3; stroke-linecap: square"/>
   </g>
   <g id="line2d_99">
    <path d="M 1146.053376 1198.207755 
L 1135.037308 1198.418876 
L 1116.225253 1198.418876 
L 1006.403531 1201.374573 
L 455.939094 1214.041843 
" clip-path="url(#pfbbc81cdec)" style="fill: none; stroke: #7a7a7a; stroke-width: 3; stroke-linecap: square"/>
   </g>
   <g id="line2d_100">
    <path d="M 1140.121647 1117.453906 
L 457.803351 1180.473577 
" clip-path="url(#pfbbc81cdec)" style="fill: none; stroke: #7a7a7a; stroke-width: 3; stroke-linecap: square"/>
   </g>
   <g id="line2d_101">
    <path d="M 1146.053376 1198.207755 
L 457.972829 1144.794098 
" clip-path="url(#pfbbc81cdec)" style="fill: none; stroke: #7a7a7a; stroke-width: 3; stroke-linecap: square"/>
   </g>
   <g id="line2d_102">
    <path d="M 1140.121647 1117.453906 
L 458.311785 1132.126828 
" clip-path="url(#pfbbc81cdec)" style="fill: none; stroke: #7a7a7a; stroke-width: 3; stroke-linecap: square"/>
   </g>
   <g id="line2d_103">
    <path d="M 747.391214 1084.133769 
L 726.893318 1090.661722 
" clip-path="url(#pfbbc81cdec)" style="fill: none; stroke-dasharray: 32,8,5,8; stroke-dashoffset: 0; stroke: #1e90ff; stroke-width: 5"/>
   </g>
   <g id="line2d_104">
    <path d="M 1006.672643 107.348493 
L 1009.519343 109.270412 
" clip-path="url(#pfbbc81cdec)" style="fill: none; stroke-dasharray: 32,8,5,8; stroke-dashoffset: 0; stroke: #1e90ff; stroke-width: 5"/>
   </g>
   <g id="line2d_105">
    <path d="M 837.29398 654.30941 
L 839.735191 653.036936 
" clip-path="url(#pfbbc81cdec)" style="fill: none; stroke-dasharray: 32,8,5,8; stroke-dashoffset: 0; stroke: #1e90ff; stroke-width: 5"/>
   </g>
   <g id="line2d_106">
    <path d="M 955.903731 279.606052 
L 959.445555 280.410771 
" clip-path="url(#pfbbc81cdec)" style="fill: none; stroke-dasharray: 32,8,5,8; stroke-dashoffset: 0; stroke: #1e90ff; stroke-width: 5"/>
   </g>
   <g id="line2d_107">
    <path d="M 841.117164 628.680171 
L 839.048341 626.006364 
" clip-path="url(#pfbbc81cdec)" style="fill: none; stroke-dasharray: 32,8,5,8; stroke-dashoffset: 0; stroke: #1e90ff; stroke-width: 5"/>
   </g>
   <g id="line2d_108">
    <path d="M 765.125164 852.903639 
L 742.831529 856.54968 
" clip-path="url(#pfbbc81cdec)" style="fill: none; stroke-dasharray: 32,8,5,8; stroke-dashoffset: 0; stroke: #1e90ff; stroke-width: 5"/>
   </g>
   <g id="line2d_109">
    <path d="M 1185.154127 204.673112 
L 1185.783049 209.955651 
" clip-path="url(#pfbbc81cdec)" style="fill: none; stroke-dasharray: 32,8,5,8; stroke-dashoffset: 0; stroke: #1e90ff; stroke-width: 5"/>
   </g>
   <g id="line2d_110">
    <path d="M 1067.909799 189.64181 
L 1121.823323 52.780293 
" clip-path="url(#pfbbc81cdec)" style="fill: none; stroke-dasharray: 32,8,5,8; stroke-dashoffset: 0; stroke: #1e90ff; stroke-width: 5"/>
   </g>
   <g id="line2d_111">
    <path d="M 878.513206 509.967678 
L 876.808496 508.268039 
" clip-path="url(#pfbbc81cdec)" style="fill: none; stroke-dasharray: 32,8,5,8; stroke-dashoffset: 0; stroke: #1e90ff; stroke-width: 5"/>
   </g>
   <g id="line2d_112">
    <path d="M 919.095235 392.830476 
L 917.580856 394.274976 
" clip-path="url(#pfbbc81cdec)" style="fill: none; stroke-dasharray: 32,8,5,8; stroke-dashoffset: 0; stroke: #1e90ff; stroke-width: 5"/>
   </g>
   <g id="line2d_113">
    <path d="M 837.111923 750.159891 
L 834.107993 750.705606 
" clip-path="url(#pfbbc81cdec)" style="fill: none; stroke-dasharray: 32,8,5,8; stroke-dashoffset: 0; stroke: #1e90ff; stroke-width: 5"/>
   </g>
   <g id="line2d_114">
    <path d="M 769.055927 813.515572 
L 766.267154 815.527048 
" clip-path="url(#pfbbc81cdec)" style="fill: none; stroke-dasharray: 32,8,5,8; stroke-dashoffset: 0; stroke: #1e90ff; stroke-width: 5"/>
   </g>
   <g id="line2d_115">
    <path d="M 918.011172 311.66338 
L 926.278188 308.452879 
" clip-path="url(#pfbbc81cdec)" style="fill: none; stroke-dasharray: 32,8,5,8; stroke-dashoffset: 0; stroke: #1e90ff; stroke-width: 5"/>
   </g>
   <g id="line2d_116">
    <path d="M 747.647748 964.843348 
L 742.359837 968.643374 
" clip-path="url(#pfbbc81cdec)" style="fill: none; stroke-dasharray: 32,8,5,8; stroke-dashoffset: 0; stroke: #1e90ff; stroke-width: 5"/>
   </g>
   <g id="line2d_117">
    <path d="M 751.429557 1010.416606 
L 752.199159 1011.192976 
" clip-path="url(#pfbbc81cdec)" style="fill: none; stroke-dasharray: 32,8,5,8; stroke-dashoffset: 0; stroke: #1e90ff; stroke-width: 5"/>
   </g>
   <g id="line2d_118">
    <path d="M 839.164196 771.264277 
L 815.074822 775.56234 
" clip-path="url(#pfbbc81cdec)" style="fill: none; stroke-dasharray: 32,8,5,8; stroke-dashoffset: 0; stroke: #1e90ff; stroke-width: 5"/>
   </g>
   <g id="line2d_119">
    <path d="M 747.391214 1084.133769 
" clip-path="url(#pfbbc81cdec)" style="fill: none; stroke: #0000ff; stroke-width: 1.5; stroke-linecap: square"/>
    <defs>
     <path id="ma4b7ec77d8" d="M 0 10 
C 2.652031 10 5.195799 8.946337 7.071068 7.071068 
C 8.946337 5.195799 10 2.652031 10 0 
C 10 -2.652031 8.946337 -5.195799 7.071068 -7.071068 
C 5.195799 -8.946337 2.652031 -10 0 -10 
C -2.652031 -10 -5.195799 -8.946337 -7.071068 -7.071068 
C -8.946337 -5.195799 -10 -2.652031 -10 0 
C -10 2.652031 -8.946337 5.195799 -7.071068 7.071068 
C -5.195799 8.946337 -2.652031 10 0 10 
z
" style="stroke: #0000ff"/>
    </defs>
    <g clip-path="url(#pfbbc81cdec)">
     <use xlink:href="#ma4b7ec77d8" x="747.391214" y="1084.133769" style="fill: #0000ff; stroke: #0000ff"/>
    </g>
   </g>
   <g id="line2d_120">
    <path d="M 1006.672643 107.348493 
" clip-path="url(#pfbbc81cdec)" style="fill: none; stroke: #0000ff; stroke-width: 1.5; stroke-linecap: square"/>
    <g clip-path="url(#pfbbc81cdec)">
     <use xlink:href="#ma4b7ec77d8" x="1006.672643" y="107.348493" style="fill: #0000ff; stroke: #0000ff"/>
    </g>
   </g>
   <g id="line2d_121">
    <path d="M 837.29398 654.30941 
" clip-path="url(#pfbbc81cdec)" style="fill: none; stroke: #0000ff; stroke-width: 1.5; stroke-linecap: square"/>
    <g clip-path="url(#pfbbc81cdec)">
     <use xlink:href="#ma4b7ec77d8" x="837.29398" y="654.30941" style="fill: #0000ff; stroke: #0000ff"/>
    </g>
   </g>
   <g id="line2d_122">
    <path d="M 955.903731 279.606052 
" clip-path="url(#pfbbc81cdec)" style="fill: none; stroke: #0000ff; stroke-width: 1.5; stroke-linecap: square"/>
    <g clip-path="url(#pfbbc81cdec)">
     <use xlink:href="#ma4b7ec77d8" x="955.903731" y="279.606052" style="fill: #0000ff; stroke: #0000ff"/>
    </g>
   </g>
   <g id="line2d_123">
    <path d="M 841.117164 628.680171 
" clip-path="url(#pfbbc81cdec)" style="fill: none; stroke: #0000ff; stroke-width: 1.5; stroke-linecap: square"/>
    <g clip-path="url(#pfbbc81cdec)">
     <use xlink:href="#ma4b7ec77d8" x="841.117164" y="628.680171" style="fill: #0000ff; stroke: #0000ff"/>
    </g>
   </g>
   <g id="line2d_124">
    <path d="M 765.125164 852.903639 
" clip-path="url(#pfbbc81cdec)" style="fill: none; stroke: #0000ff; stroke-width: 1.5; stroke-linecap: square"/>
    <g clip-path="url(#pfbbc81cdec)">
     <use xlink:href="#ma4b7ec77d8" x="765.125164" y="852.903639" style="fill: #0000ff; stroke: #0000ff"/>
    </g>
   </g>
   <g id="line2d_125">
    <path d="M 1185.154127 204.673112 
" clip-path="url(#pfbbc81cdec)" style="fill: none; stroke: #0000ff; stroke-width: 1.5; stroke-linecap: square"/>
    <g clip-path="url(#pfbbc81cdec)">
     <use xlink:href="#ma4b7ec77d8" x="1185.154127" y="204.673112" style="fill: #0000ff; stroke: #0000ff"/>
    </g>
   </g>
   <g id="line2d_126">
    <path d="M 1067.909799 189.64181 
" clip-path="url(#pfbbc81cdec)" style="fill: none; stroke: #0000ff; stroke-width: 1.5; stroke-linecap: square"/>
    <g clip-path="url(#pfbbc81cdec)">
     <use xlink:href="#ma4b7ec77d8" x="1067.909799" y="189.64181" style="fill: #0000ff; stroke: #0000ff"/>
    </g>
   </g>
   <g id="line2d_127">
    <path d="M 878.513206 509.967678 
" clip-path="url(#pfbbc81cdec)" style="fill: none; stroke: #0000ff; stroke-width: 1.5; stroke-linecap: square"/>
    <g clip-path="url(#pfbbc81cdec)">
     <use xlink:href="#ma4b7ec77d8" x="878.513206" y="509.967678" style="fill: #0000ff; stroke: #0000ff"/>
    </g>
   </g>
   <g id="line2d_128">
    <path d="M 919.095235 392.830476 
" clip-path="url(#pfbbc81cdec)" style="fill: none; stroke: #0000ff; stroke-width: 1.5; stroke-linecap: square"/>
    <g clip-path="url(#pfbbc81cdec)">
     <use xlink:href="#ma4b7ec77d8" x="919.095235" y="392.830476" style="fill: #0000ff; stroke: #0000ff"/>
    </g>
   </g>
   <g id="line2d_129">
    <path d="M 837.111923 750.159891 
" clip-path="url(#pfbbc81cdec)" style="fill: none; stroke: #0000ff; stroke-width: 1.5; stroke-linecap: square"/>
    <g clip-path="url(#pfbbc81cdec)">
     <use xlink:href="#ma4b7ec77d8" x="837.111923" y="750.159891" style="fill: #0000ff; stroke: #0000ff"/>
    </g>
   </g>
   <g id="line2d_130">
    <path d="M 769.055927 813.515572 
" clip-path="url(#pfbbc81cdec)" style="fill: none; stroke: #0000ff; stroke-width: 1.5; stroke-linecap: square"/>
    <g clip-path="url(#pfbbc81cdec)">
     <use xlink:href="#ma4b7ec77d8" x="769.055927" y="813.515572" style="fill: #0000ff; stroke: #0000ff"/>
    </g>
   </g>
   <g id="line2d_131">
    <path d="M 918.011172 311.66338 
" clip-path="url(#pfbbc81cdec)" style="fill: none; stroke: #0000ff; stroke-width: 1.5; stroke-linecap: square"/>
    <g clip-path="url(#pfbbc81cdec)">
     <use xlink:href="#ma4b7ec77d8" x="918.011172" y="311.66338" style="fill: #0000ff; stroke: #0000ff"/>
    </g>
   </g>
   <g id="line2d_132">
    <path d="M 747.647748 964.843348 
" clip-path="url(#pfbbc81cdec)" style="fill: none; stroke: #0000ff; stroke-width: 1.5; stroke-linecap: square"/>
    <g clip-path="url(#pfbbc81cdec)">
     <use xlink:href="#ma4b7ec77d8" x="747.647748" y="964.843348" style="fill: #0000ff; stroke: #0000ff"/>
    </g>
   </g>
   <g id="line2d_133">
    <path d="M 751.429557 1010.416606 
" clip-path="url(#pfbbc81cdec)" style="fill: none; stroke: #0000ff; stroke-width: 1.5; stroke-linecap: square"/>
    <g clip-path="url(#pfbbc81cdec)">
     <use xlink:href="#ma4b7ec77d8" x="751.429557" y="1010.416606" style="fill: #0000ff; stroke: #0000ff"/>
    </g>
   </g>
   <g id="line2d_134">
    <path d="M 839.164196 771.264277 
" clip-path="url(#pfbbc81cdec)" style="fill: none; stroke: #0000ff; stroke-width: 1.5; stroke-linecap: square"/>
    <g clip-path="url(#pfbbc81cdec)">
     <use xlink:href="#ma4b7ec77d8" x="839.164196" y="771.264277" style="fill: #0000ff; stroke: #0000ff"/>
    </g>
   </g>
   <g id="line2d_135">
    <path d="M 726.893318 1090.661722 
" clip-path="url(#pfbbc81cdec)" style="fill: none; stroke: #ff0000; stroke-width: 1.5; stroke-linecap: square"/>
    <defs>
     <path id="m25ef2ad015" d="M 0 -10 
L -2.24514 -3.09017 
L -9.510565 -3.09017 
L -3.632713 1.18034 
L -5.877853 8.09017 
L -0 3.81966 
L 5.877853 8.09017 
L 3.632713 1.18034 
L 9.510565 -3.09017 
L 2.24514 -3.09017 
z
" style="stroke: #ff0000; stroke-linejoin: bevel"/>
    </defs>
    <g clip-path="url(#pfbbc81cdec)">
     <use xlink:href="#m25ef2ad015" x="726.893318" y="1090.661722" style="fill: #ff0000; stroke: #ff0000; stroke-linejoin: bevel"/>
    </g>
   </g>
   <g id="line2d_136">
    <path d="M 1009.519343 109.270412 
" clip-path="url(#pfbbc81cdec)" style="fill: none; stroke: #ff0000; stroke-width: 1.5; stroke-linecap: square"/>
    <g clip-path="url(#pfbbc81cdec)">
     <use xlink:href="#m25ef2ad015" x="1009.519343" y="109.270412" style="fill: #ff0000; stroke: #ff0000; stroke-linejoin: bevel"/>
    </g>
   </g>
   <g id="line2d_137">
    <path d="M 839.735191 653.036936 
" clip-path="url(#pfbbc81cdec)" style="fill: none; stroke: #ff0000; stroke-width: 1.5; stroke-linecap: square"/>
    <g clip-path="url(#pfbbc81cdec)">
     <use xlink:href="#m25ef2ad015" x="839.735191" y="653.036936" style="fill: #ff0000; stroke: #ff0000; stroke-linejoin: bevel"/>
    </g>
   </g>
   <g id="line2d_138">
    <path d="M 959.445555 280.410771 
" clip-path="url(#pfbbc81cdec)" style="fill: none; stroke: #ff0000; stroke-width: 1.5; stroke-linecap: square"/>
    <g clip-path="url(#pfbbc81cdec)">
     <use xlink:href="#m25ef2ad015" x="959.445555" y="280.410771" style="fill: #ff0000; stroke: #ff0000; stroke-linejoin: bevel"/>
    </g>
   </g>
   <g id="line2d_139">
    <path d="M 839.048341 626.006364 
" clip-path="url(#pfbbc81cdec)" style="fill: none; stroke: #ff0000; stroke-width: 1.5; stroke-linecap: square"/>
    <g clip-path="url(#pfbbc81cdec)">
     <use xlink:href="#m25ef2ad015" x="839.048341" y="626.006364" style="fill: #ff0000; stroke: #ff0000; stroke-linejoin: bevel"/>
    </g>
   </g>
   <g id="line2d_140">
    <path d="M 742.831529 856.54968 
" clip-path="url(#pfbbc81cdec)" style="fill: none; stroke: #ff0000; stroke-width: 1.5; stroke-linecap: square"/>
    <g clip-path="url(#pfbbc81cdec)">
     <use xlink:href="#m25ef2ad015" x="742.831529" y="856.54968" style="fill: #ff0000; stroke: #ff0000; stroke-linejoin: bevel"/>
    </g>
   </g>
   <g id="line2d_141">
    <path d="M 1185.783049 209.955651 
" clip-path="url(#pfbbc81cdec)" style="fill: none; stroke: #ff0000; stroke-width: 1.5; stroke-linecap: square"/>
    <g clip-path="url(#pfbbc81cdec)">
     <use xlink:href="#m25ef2ad015" x="1185.783049" y="209.955651" style="fill: #ff0000; stroke: #ff0000; stroke-linejoin: bevel"/>
    </g>
   </g>
   <g id="line2d_142">
    <path d="M 1121.823323 52.780293 
" clip-path="url(#pfbbc81cdec)" style="fill: none; stroke: #ff0000; stroke-width: 1.5; stroke-linecap: square"/>
    <g clip-path="url(#pfbbc81cdec)">
     <use xlink:href="#m25ef2ad015" x="1121.823323" y="52.780293" style="fill: #ff0000; stroke: #ff0000; stroke-linejoin: bevel"/>
    </g>
   </g>
   <g id="line2d_143">
    <path d="M 876.808496 508.268039 
" clip-path="url(#pfbbc81cdec)" style="fill: none; stroke: #ff0000; stroke-width: 1.5; stroke-linecap: square"/>
    <g clip-path="url(#pfbbc81cdec)">
     <use xlink:href="#m25ef2ad015" x="876.808496" y="508.268039" style="fill: #ff0000; stroke: #ff0000; stroke-linejoin: bevel"/>
    </g>
   </g>
   <g id="line2d_144">
    <path d="M 917.580856 394.274976 
" clip-path="url(#pfbbc81cdec)" style="fill: none; stroke: #ff0000; stroke-width: 1.5; stroke-linecap: square"/>
    <g clip-path="url(#pfbbc81cdec)">
     <use xlink:href="#m25ef2ad015" x="917.580856" y="394.274976" style="fill: #ff0000; stroke: #ff0000; stroke-linejoin: bevel"/>
    </g>
   </g>
   <g id="line2d_145">
    <path d="M 834.107993 750.705606 
" clip-path="url(#pfbbc81cdec)" style="fill: none; stroke: #ff0000; stroke-width: 1.5; stroke-linecap: square"/>
    <g clip-path="url(#pfbbc81cdec)">
     <use xlink:href="#m25ef2ad015" x="834.107993" y="750.705606" style="fill: #ff0000; stroke: #ff0000; stroke-linejoin: bevel"/>
    </g>
   </g>
   <g id="line2d_146">
    <path d="M 766.267154 815.527048 
" clip-path="url(#pfbbc81cdec)" style="fill: none; stroke: #ff0000; stroke-width: 1.5; stroke-linecap: square"/>
    <g clip-path="url(#pfbbc81cdec)">
     <use xlink:href="#m25ef2ad015" x="766.267154" y="815.527048" style="fill: #ff0000; stroke: #ff0000; stroke-linejoin: bevel"/>
    </g>
   </g>
   <g id="line2d_147">
    <path d="M 926.278188 308.452879 
" clip-path="url(#pfbbc81cdec)" style="fill: none; stroke: #ff0000; stroke-width: 1.5; stroke-linecap: square"/>
    <g clip-path="url(#pfbbc81cdec)">
     <use xlink:href="#m25ef2ad015" x="926.278188" y="308.452879" style="fill: #ff0000; stroke: #ff0000; stroke-linejoin: bevel"/>
    </g>
   </g>
   <g id="line2d_148">
    <path d="M 742.359837 968.643374 
" clip-path="url(#pfbbc81cdec)" style="fill: none; stroke: #ff0000; stroke-width: 1.5; stroke-linecap: square"/>
    <g clip-path="url(#pfbbc81cdec)">
     <use xlink:href="#m25ef2ad015" x="742.359837" y="968.643374" style="fill: #ff0000; stroke: #ff0000; stroke-linejoin: bevel"/>
    </g>
   </g>
   <g id="line2d_149">
    <path d="M 752.199159 1011.192976 
" clip-path="url(#pfbbc81cdec)" style="fill: none; stroke: #ff0000; stroke-width: 1.5; stroke-linecap: square"/>
    <g clip-path="url(#pfbbc81cdec)">
     <use xlink:href="#m25ef2ad015" x="752.199159" y="1011.192976" style="fill: #ff0000; stroke: #ff0000; stroke-linejoin: bevel"/>
    </g>
   </g>
   <g id="line2d_150">
    <path d="M 815.074822 775.56234 
" clip-path="url(#pfbbc81cdec)" style="fill: none; stroke: #ff0000; stroke-width: 1.5; stroke-linecap: square"/>
    <g clip-path="url(#pfbbc81cdec)">
     <use xlink:href="#m25ef2ad015" x="815.074822" y="775.56234" style="fill: #ff0000; stroke: #ff0000; stroke-linejoin: bevel"/>
    </g>
   </g>
  </g>
 </g>
 <defs>
  <clipPath id="pfbbc81cdec">
   <rect x="0" y="0" width="1440" height="1440"/>
  </clipPath>
 </defs>
</svg>
