<?xml version="1.0" encoding="utf-8" standalone="no"?>
<!DOCTYPE svg PUBLIC "-//W3C//DTD SVG 1.1//EN"
  "http://www.w3.org/Graphics/SVG/1.1/DTD/svg11.dtd">
<svg xmlns:xlink="http://www.w3.org/1999/xlink" width="1440pt" height="1440pt" viewBox="0 0 1440 1440" xmlns="http://www.w3.org/2000/svg" version="1.1">
 <metadata>
  <rdf:RDF xmlns:dc="http://purl.org/dc/elements/1.1/" xmlns:cc="http://creativecommons.org/ns#" xmlns:rdf="http://www.w3.org/1999/02/22-rdf-syntax-ns#">
   <cc:Work>
    <dc:type rdf:resource="http://purl.org/dc/dcmitype/StillImage"/>
    <dc:date>2026-02-27T11:11:41.297665</dc:date>
    <dc:format>image/svg+xml</dc:format>
    <dc:creator>
     <cc:Agent>
      <dc:title>Matplotlib v3.7.3, https://matplotlib.org/</dc:title>
     </cc:Agent>
    </dc:creator>
   </cc:Work>
  </rdf:RDF>
 </metadata>
 <defs>
  <style type="text/css">*{stroke-linejoin: round; stroke-linecap: butt}</style>
 </defs>
 <g id="figure_1">
  <g id="patch_1">
   <path d="M 0 1440 
L 1440 1440 
L 1440 0 
L 0 0 
z
" style="fill: #ffffff"/>
  </g>
  <g id="axes_1">
   <g id="line2d_1">
    <path d="M 293.169822 1048.051227 
L 239.941029 1104.726987 
L -1 1349.406297 
" clip-path="url(#p3fe90af154)" style="fill: none; stroke: #7a7a7a; stroke-width: 3; stroke-linecap: square"/>
   </g>
   <g id="line2d_2">
    <path d="M 293.169822 984.728865 
L 209.652867 1070.236509 
L 1.146218 1281.939781 
L -1 1284.171059 
" clip-path="url(#p3fe90af154)" style="fill: none; stroke: #7a7a7a; stroke-width: 3; stroke-linecap: square"/>
   </g>
   <g id="line2d_3">
    <path clip-path="url(#p3fe90af154)" style="fill: none; stroke: #7a7a7a; stroke-width: 3; stroke-linecap: square"/>
   </g>
   <g id="line2d_4">
    <path clip-path="url(#p3fe90af154)" style="fill: none; stroke: #7a7a7a; stroke-width: 3; stroke-linecap: square"/>
   </g>
   <g id="line2d_5">
    <path d="M 645.279914 1094.936721 
L 614.420277 1057.482217 
" clip-path="url(#p3fe90af154)" style="fill: none; stroke: #7a7a7a; stroke-width: 3; stroke-linecap: square"/>
   </g>
   <g id="line2d_6">
    <path d="M 673.527095 1070.416147 
L 662.587435 1057.482217 
" clip-path="url(#p3fe90af154)" style="fill: none; stroke: #7a7a7a; stroke-width: 3; stroke-linecap: square"/>
   </g>
   <g id="line2d_7">
    <path d="M 364.767445 759.283293 
L 195.284359 560.244493 
" clip-path="url(#p3fe90af154)" style="fill: none; stroke: #7a7a7a; stroke-width: 3; stroke-linecap: square"/>
   </g>
   <g id="line2d_8">
    <path d="M 389.667417 732.427426 
L 220.184331 533.119169 
L 218.388267 530.514419 
" clip-path="url(#p3fe90af154)" style="fill: none; stroke: #7a7a7a; stroke-width: 3; stroke-linecap: square"/>
   </g>
   <g id="line2d_9">
    <path d="M 639.075331 1143.349137 
L 617.685847 1118.379468 
" clip-path="url(#p3fe90af154)" style="fill: none; stroke: #7a7a7a; stroke-width: 3; stroke-linecap: square"/>
   </g>
   <g id="line2d_10">
    <path d="M 665.36317 1119.547114 
L 645.279914 1094.936721 
" clip-path="url(#p3fe90af154)" style="fill: none; stroke: #7a7a7a; stroke-width: 3; stroke-linecap: square"/>
   </g>
   <g id="line2d_11">
    <path d="M -1 1349.406297 
L 239.941029 1104.726987 
L 293.169822 1048.051227 
" clip-path="url(#p3fe90af154)" style="fill: none; stroke: #7a7a7a; stroke-width: 3; stroke-linecap: square"/>
   </g>
   <g id="line2d_12">
    <path d="M -1 1413.829305 
L 0.901301 1411.907807 
L 18.3721 1394.033835 
L 22.535702 1390.081801 
L 47.027478 1365.471408 
L 49.395016 1362.866658 
L 69.804829 1342.477756 
L 81.72416 1329.543827 
L 93.888408 1317.148811 
L 131.442464 1277.718291 
L 179.364705 1229.305875 
L 216.428925 1192.83938 
L 260.024285 1148.19936 
L 293.169822 1114.966347 
" clip-path="url(#p3fe90af154)" style="fill: none; stroke: #7a7a7a; stroke-width: 3; stroke-linecap: square"/>
   </g>
   <g id="line2d_13">
    <path d="M 529.188898 957.513722 
L 364.767445 759.283293 
" clip-path="url(#p3fe90af154)" style="fill: none; stroke: #7a7a7a; stroke-width: 3; stroke-linecap: square"/>
   </g>
   <g id="line2d_14">
    <path d="M 555.803294 930.208761 
L 440.365392 793.234857 
L 432.446385 785.061332 
L 429.017536 781.378755 
L 405.178875 751.469044 
L 389.667417 732.427426 
" clip-path="url(#p3fe90af154)" style="fill: none; stroke: #7a7a7a; stroke-width: 3; stroke-linecap: square"/>
   </g>
   <g id="line2d_15">
    <path d="M 783.005332 547.220744 
L 783.658446 546.592012 
L 1220.836638 110.88027 
" clip-path="url(#p3fe90af154)" style="fill: none; stroke: #7a7a7a; stroke-width: 3; stroke-linecap: square"/>
   </g>
   <g id="line2d_16">
    <path d="M 783.005332 615.123873 
L 783.658446 614.405321 
L 819.498077 578.47774 
L 1132.584607 258.632448 
L 1211.039928 179.50195 
L 1248.920541 140.161248 
" clip-path="url(#p3fe90af154)" style="fill: none; stroke: #7a7a7a; stroke-width: 3; stroke-linecap: square"/>
   </g>
   <g id="line2d_17">
    <path d="M 300.680633 1040.236978 
L 655.729738 675.931304 
" clip-path="url(#p3fe90af154)" style="fill: none; stroke: #7a7a7a; stroke-width: 3; stroke-linecap: square"/>
   </g>
   <g id="line2d_18">
    <path d="M 330.642238 1076.793292 
L 385.748733 1020.38699 
L 436.446708 967.663264 
L 441.75326 963.082498 
L 542.414457 860.149977 
L 548.782319 851.976452 
L 621.68617 779.043463 
L 686.262818 712.936713 
" clip-path="url(#p3fe90af154)" style="fill: none; stroke: #7a7a7a; stroke-width: 3; stroke-linecap: square"/>
   </g>
   <g id="line2d_19">
    <path d="M 665.36317 1119.547114 
L 645.279914 1094.936721 
" clip-path="url(#p3fe90af154)" style="fill: none; stroke: #7a7a7a; stroke-width: 3; stroke-linecap: square"/>
   </g>
   <g id="line2d_20">
    <path d="M 693.528712 1093.948712 
L 673.527095 1070.416147 
" clip-path="url(#p3fe90af154)" style="fill: none; stroke: #7a7a7a; stroke-width: 3; stroke-linecap: square"/>
   </g>
   <g id="line2d_21">
    <path d="M 1332.836634 -1 
L 1329.090286 2.73825 
" clip-path="url(#p3fe90af154)" style="fill: none; stroke: #7a7a7a; stroke-width: 3; stroke-linecap: square"/>
   </g>
   <g id="line2d_22">
    <path clip-path="url(#p3fe90af154)" style="fill: none; stroke: #7a7a7a; stroke-width: 3; stroke-linecap: square"/>
   </g>
   <g id="line2d_23">
    <path d="M 529.188898 957.513722 
L 520.371859 943.951061 
L 513.514162 928.502201 
L 508.615807 911.795875 
L 505.840072 894.281179 
L 505.105319 876.497027 
L 506.411547 858.982331 
L 509.840396 842.276006 
L 515.391865 826.827146 
L 522.984315 813.174665 
L 532.781025 801.947296 
L 655.729738 675.931304 
" clip-path="url(#p3fe90af154)" style="fill: none; stroke: #7a7a7a; stroke-width: 3; stroke-linecap: square"/>
   </g>
   <g id="line2d_24">
    <path d="M 555.803294 930.208761 
L 545.924945 918.442478 
L 541.679704 912.963522 
L 538.577412 908.292936 
L 534.903646 900.837963 
L 533.3525 895.808102 
L 532.699386 892.125525 
L 532.617747 887.904034 
L 532.862665 883.323267 
L 534.577089 875.149742 
L 537.107906 868.772597 
L 541.761343 860.958348 
L 548.782319 851.976452 
L 625.441576 775.271066 
L 686.262818 712.936713 
" clip-path="url(#p3fe90af154)" style="fill: none; stroke: #7a7a7a; stroke-width: 3; stroke-linecap: square"/>
   </g>
   <g id="line2d_25">
    <path d="M 614.420277 1057.482217 
L 614.09372 1057.122942 
L 529.188898 957.513722 
" clip-path="url(#p3fe90af154)" style="fill: none; stroke: #7a7a7a; stroke-width: 3; stroke-linecap: square"/>
   </g>
   <g id="line2d_26">
    <path d="M 662.587435 1057.482217 
L 662.342518 1057.212761 
L 659.566783 1054.069097 
L 556.29313 930.747674 
L 555.803294 930.208761 
" clip-path="url(#p3fe90af154)" style="fill: none; stroke: #7a7a7a; stroke-width: 3; stroke-linecap: square"/>
   </g>
   <g id="line2d_27">
    <path d="M 300.680633 1040.236978 
L 294.47605 1046.703943 
L 293.904575 1047.242857 
L 293.659657 1047.512314 
L 293.496379 1047.78177 
L 293.169822 1048.051227 
" clip-path="url(#p3fe90af154)" style="fill: none; stroke: #7a7a7a; stroke-width: 3; stroke-linecap: square"/>
   </g>
   <g id="line2d_28">
    <path d="M 298.884569 978.800814 
L 294.47605 983.381581 
L 293.904575 983.920495 
L 293.659657 984.100133 
L 293.496379 984.369589 
L 293.169822 984.728865 
" clip-path="url(#p3fe90af154)" style="fill: none; stroke: #7a7a7a; stroke-width: 3; stroke-linecap: square"/>
   </g>
   <g id="line2d_29">
    <path d="M 566.498036 1057.482217 
L 566.171479 1057.122942 
L 563.314105 1053.79964 
L 548.863958 1036.913677 
L 503.717452 983.651038 
" clip-path="url(#p3fe90af154)" style="fill: none; stroke: #7a7a7a; stroke-width: 3; stroke-linecap: square"/>
   </g>
   <g id="line2d_30">
    <path d="M 614.420277 1057.482217 
L 614.09372 1057.122942 
L 529.188898 957.513722 
" clip-path="url(#p3fe90af154)" style="fill: none; stroke: #7a7a7a; stroke-width: 3; stroke-linecap: square"/>
   </g>
   <g id="line2d_31">
    <path d="M 617.685847 1118.379468 
L 566.498036 1057.482217 
" clip-path="url(#p3fe90af154)" style="fill: none; stroke: #7a7a7a; stroke-width: 3; stroke-linecap: square"/>
   </g>
   <g id="line2d_32">
    <path d="M 645.279914 1094.936721 
L 614.420277 1057.482217 
" clip-path="url(#p3fe90af154)" style="fill: none; stroke: #7a7a7a; stroke-width: 3; stroke-linecap: square"/>
   </g>
   <g id="line2d_33">
    <path d="M 655.729738 675.931304 
L 783.005332 547.220744 
" clip-path="url(#p3fe90af154)" style="fill: none; stroke: #7a7a7a; stroke-width: 3; stroke-linecap: square"/>
   </g>
   <g id="line2d_34">
    <path d="M 686.262818 712.936713 
L 783.005332 615.123873 
" clip-path="url(#p3fe90af154)" style="fill: none; stroke: #7a7a7a; stroke-width: 3; stroke-linecap: square"/>
   </g>
   <g id="line2d_35">
    <path d="M 783.005332 547.220744 
L 655.729738 675.931304 
" clip-path="url(#p3fe90af154)" style="fill: none; stroke: #7a7a7a; stroke-width: 3; stroke-linecap: square"/>
   </g>
   <g id="line2d_36">
    <path d="M 783.005332 485.78458 
L 628.380589 642.698292 
" clip-path="url(#p3fe90af154)" style="fill: none; stroke: #7a7a7a; stroke-width: 3; stroke-linecap: square"/>
   </g>
   <g id="line2d_37">
    <path d="M 293.169822 1048.051227 
L 293.496379 1047.78177 
L 293.659657 1047.512314 
L 293.904575 1047.242857 
L 294.47605 1046.703943 
L 300.680633 1040.236978 
" clip-path="url(#p3fe90af154)" style="fill: none; stroke: #7a7a7a; stroke-width: 3; stroke-linecap: square"/>
   </g>
   <g id="line2d_38">
    <path d="M 293.169822 1114.966347 
L 293.414739 1114.696891 
L 293.659657 1114.517253 
L 293.904575 1114.157977 
L 294.557689 1113.529244 
L 330.642238 1076.793292 
" clip-path="url(#p3fe90af154)" style="fill: none; stroke: #7a7a7a; stroke-width: 3; stroke-linecap: square"/>
   </g>
   <g id="line2d_39">
    <path d="M 195.284359 560.244493 
L 364.767445 759.283293 
" clip-path="url(#p3fe90af154)" style="fill: none; stroke: #7a7a7a; stroke-width: 3; stroke-linecap: square"/>
   </g>
   <g id="line2d_40">
    <path d="M 180.017819 600.213927 
L 183.854864 604.345599 
L 204.91779 629.764362 
L 337.499935 787.84572 
" clip-path="url(#p3fe90af154)" style="fill: none; stroke: #7a7a7a; stroke-width: 3; stroke-linecap: square"/>
   </g>
   <g id="line2d_41">
    <path d="M 1427.465584 249.111639 
L 1441 264.82936 
" clip-path="url(#p3fe90af154)" style="fill: none; stroke: #7a7a7a; stroke-width: 3; stroke-linecap: square"/>
   </g>
   <g id="line2d_42">
    <path d="M 1386.401041 249.111639 
L 1426.649192 293.212745 
L 1441 311.726164 
" clip-path="url(#p3fe90af154)" style="fill: none; stroke: #7a7a7a; stroke-width: 3; stroke-linecap: square"/>
   </g>
   <g id="line2d_43">
    <path d="M 1441 264.82936 
L 1427.465584 249.111639 
" clip-path="url(#p3fe90af154)" style="fill: none; stroke: #7a7a7a; stroke-width: 3; stroke-linecap: square"/>
   </g>
   <g id="line2d_44">
    <path clip-path="url(#p3fe90af154)" style="fill: none; stroke: #7a7a7a; stroke-width: 3; stroke-linecap: square"/>
   </g>
   <g id="line2d_45">
    <path d="M 364.767445 759.283293 
L 379.135954 778.235092 
L 393.422823 794.043228 
L 407.546413 806.887338 
L 421.506725 816.767423 
L 435.385398 823.773301 
L 449.100792 828.17443 
L 462.734547 829.970809 
L 476.205024 829.342076 
L 489.593861 826.288232 
L 502.81942 821.078733 
L 515.963339 813.623759 
L 528.94398 804.282588 
L 541.842982 792.9654 
L 554.578705 779.851833 
L 567.232789 765.121525 
L 655.729738 675.931304 
" clip-path="url(#p3fe90af154)" style="fill: none; stroke: #7a7a7a; stroke-width: 3; stroke-linecap: square"/>
   </g>
   <g id="line2d_46">
    <path d="M 337.499935 787.84572 
L 365.747116 821.078733 
L 371.625142 827.096602 
L 383.87103 838.054515 
L 396.525114 847.9346 
L 409.505755 856.377581 
L 422.894592 863.473279 
L 436.609987 869.131873 
L 450.48866 873.083906 
L 464.693889 875.419199 
L 479.062398 875.868294 
L 493.675824 874.431191 
L 508.370889 870.928252 
L 523.147594 865.359477 
L 538.087577 857.545228 
L 553.02756 847.395686 
L 555.068541 845.689126 
L 593.35735 807.336433 
L 597.76587 802.126933 
L 686.262818 712.936713 
" clip-path="url(#p3fe90af154)" style="fill: none; stroke: #7a7a7a; stroke-width: 3; stroke-linecap: square"/>
   </g>
   <g id="line2d_47">
    <path d="M 655.729738 675.931304 
L 300.680633 1040.236978 
" clip-path="url(#p3fe90af154)" style="fill: none; stroke: #7a7a7a; stroke-width: 3; stroke-linecap: square"/>
   </g>
   <g id="line2d_48">
    <path d="M 628.380589 642.698292 
L 484.124031 790.899564 
L 478.409284 795.659969 
L 377.421529 898.682308 
L 373.01301 903.532532 
L 362.399907 914.041349 
L 298.884569 978.800814 
" clip-path="url(#p3fe90af154)" style="fill: none; stroke: #7a7a7a; stroke-width: 3; stroke-linecap: square"/>
   </g>
   <g id="line2d_49">
    <path d="M 300.680633 1040.236978 
L 353.33795 988.59108 
L 364.27761 976.914616 
L 374.809073 964.968696 
L 384.850701 952.663499 
L 394.075937 939.999027 
L 402.239862 927.065097 
L 409.260837 913.682073 
L 414.812307 900.029592 
L 418.730991 885.928017 
L 420.771972 871.467165 
L 420.690333 856.647038 
L 418.404434 841.467635 
L 413.506079 825.839137 
L 405.913628 809.851363 
L 364.767445 759.283293 
" clip-path="url(#p3fe90af154)" style="fill: none; stroke: #7a7a7a; stroke-width: 3; stroke-linecap: square"/>
   </g>
   <g id="line2d_50">
    <path d="M 330.642238 1076.793292 
L 337.826492 1069.607776 
L 373.666124 1032.961643 
L 390.238892 1015.626585 
L 394.402494 1010.776362 
L 403.301172 999.010079 
L 411.954933 986.345606 
L 420.200497 972.962582 
L 427.792948 958.950826 
L 434.650645 944.220517 
L 440.61031 929.041114 
L 445.508665 913.412616 
L 449.264071 897.335024 
L 451.631609 880.987974 
L 452.61128 864.371468 
L 451.958166 847.665143 
L 449.508989 830.868998 
L 445.182108 813.983035 
L 438.732607 797.27671 
L 432.446385 785.151151 
L 429.017536 781.378755 
L 389.667417 732.427426 
" clip-path="url(#p3fe90af154)" style="fill: none; stroke: #7a7a7a; stroke-width: 3; stroke-linecap: square"/>
   </g>
   <g id="line2d_51">
    <path d="M 364.767445 759.283293 
L 405.913628 809.851363 
L 413.506079 825.839137 
L 418.404434 841.467635 
L 420.690333 856.647038 
L 420.771972 871.467165 
L 418.730991 885.928017 
L 414.812307 900.029592 
L 409.260837 913.682073 
L 402.239862 927.065097 
L 394.075937 939.999027 
L 384.850701 952.663499 
L 374.809073 964.968696 
L 364.27761 976.914616 
L 353.33795 988.59108 
L 300.680633 1040.236978 
" clip-path="url(#p3fe90af154)" style="fill: none; stroke: #7a7a7a; stroke-width: 3; stroke-linecap: square"/>
   </g>
   <g id="line2d_52">
    <path d="M 337.499935 787.84572 
L 380.932017 838.952704 
L 387.871354 848.922608 
L 390.320531 853.503375 
L 391.055284 854.491383 
L 392.932987 860.868529 
L 393.66774 866.347485 
L 393.74938 870.928252 
L 393.259544 874.610829 
L 391.300202 880.628699 
L 388.034632 886.107655 
L 381.911688 893.832085 
L 373.01301 903.532532 
L 367.379901 909.101307 
L 364.767445 911.975513 
L 347.541563 930.029123 
L 325.662244 952.124585 
L 298.884569 978.800814 
" clip-path="url(#p3fe90af154)" style="fill: none; stroke: #7a7a7a; stroke-width: 3; stroke-linecap: square"/>
   </g>
   <g id="line2d_53">
    <path d="M 1326.151273 127.856052 
L 1316.191284 112.407192 
L 1309.660144 96.149961 
L 1306.312935 79.443636 
L 1305.904739 62.647492 
L 1308.190638 46.210623 
L 1313.007354 30.492307 
L 1320.028329 15.851817 
L 1329.090286 2.73825 
" clip-path="url(#p3fe90af154)" style="fill: none; stroke: #7a7a7a; stroke-width: 3; stroke-linecap: square"/>
   </g>
   <g id="line2d_54">
    <path d="M 1350.643049 104.413305 
L 1345.744694 98.215797 
L 1344.111908 96.329599 
L 1343.132237 94.353582 
L 1335.294869 77.108343 
L 1334.315198 74.323956 
L 1333.335527 70.102465 
L 1333.253888 61.300208 
L 1334.560116 53.575778 
L 1337.172572 45.402253 
L 1342.724041 34.803616 
L 1349.41846 26.180997 
" clip-path="url(#p3fe90af154)" style="fill: none; stroke: #7a7a7a; stroke-width: 3; stroke-linecap: square"/>
   </g>
   <g id="line2d_55">
    <path d="M 503.717452 983.651038 
L 493.02271 969.639281 
L 486.736487 964.429782 
L 485.266981 962.992679 
L 479.960429 958.861007 
L 465.020446 951.226396 
L 448.937514 946.735448 
L 432.364746 945.208526 
L 415.955256 946.55581 
L 400.28052 950.597663 
L 386.07529 957.334085 
L 373.911041 966.585437 
L 364.522528 978.261901 
L 300.680633 1040.236978 
" clip-path="url(#p3fe90af154)" style="fill: none; stroke: #7a7a7a; stroke-width: 3; stroke-linecap: square"/>
   </g>
   <g id="line2d_56">
    <path d="M 529.188898 957.513722 
L 517.106289 943.14269 
L 503.799091 931.017131 
L 489.430583 920.957409 
L 474.40896 913.053341 
L 458.815863 907.304928 
L 442.977848 903.532532 
L 426.976555 901.91579 
L 411.220179 902.275066 
L 395.790361 904.700178 
L 380.932017 909.101307 
L 366.971705 915.478452 
L 353.991064 923.741796 
L 344.60255 932.00514 
L 340.357309 936.31645 
L 332.193384 946.106715 
L 298.884569 978.800814 
" clip-path="url(#p3fe90af154)" style="fill: none; stroke: #7a7a7a; stroke-width: 3; stroke-linecap: square"/>
   </g>
   <g id="line2d_57">
    <path d="M 655.729738 675.931304 
L 567.232789 765.121525 
L 554.578705 779.851833 
L 541.842982 792.9654 
L 528.94398 804.282588 
L 515.963339 813.623759 
L 502.81942 821.078733 
L 489.593861 826.288232 
L 476.205024 829.342076 
L 462.734547 829.970809 
L 449.100792 828.17443 
L 435.385398 823.773301 
L 421.506725 816.767423 
L 407.546413 806.887338 
L 393.422823 794.043228 
L 379.135954 778.235092 
L 364.767445 759.283293 
" clip-path="url(#p3fe90af154)" style="fill: none; stroke: #7a7a7a; stroke-width: 3; stroke-linecap: square"/>
   </g>
   <g id="line2d_58">
    <path d="M 628.380589 642.698292 
L 489.593861 785.061332 
L 484.124031 790.899564 
L 478.001087 796.019245 
L 472.612897 799.252727 
L 466.326674 801.498201 
L 460.856845 802.037115 
L 457.101439 801.677839 
L 453.427673 800.869468 
L 449.998824 799.612003 
L 446.651615 797.905443 
L 440.365392 793.234857 
L 432.446385 785.061332 
L 429.017536 781.378755 
L 419.465744 769.343016 
L 412.199851 761.528767 
L 401.505109 748.325381 
L 389.667417 732.427426 
" clip-path="url(#p3fe90af154)" style="fill: none; stroke: #7a7a7a; stroke-width: 3; stroke-linecap: square"/>
   </g>
   <g id="line2d_59">
    <path d="M 1329.090286 2.73825 
L 1313.905385 12.079421 
L 1298.230649 18.007472 
L 1282.392634 20.79186 
L 1266.881176 20.612222 
L 1252.022833 17.738015 
L 1238.225799 12.348878 
L 1225.979911 4.714267 
L 1219.872298 -1 
" clip-path="url(#p3fe90af154)" style="fill: none; stroke: #7a7a7a; stroke-width: 3; stroke-linecap: square"/>
   </g>
   <g id="line2d_60">
    <path clip-path="url(#p3fe90af154)" style="fill: none; stroke: #7a7a7a; stroke-width: 3; stroke-linecap: square"/>
   </g>
   <g id="line2d_61">
    <path d="M 1326.151273 127.856052 
L 1218.928672 -1 
" clip-path="url(#p3fe90af154)" style="fill: none; stroke: #7a7a7a; stroke-width: 3; stroke-linecap: square"/>
   </g>
   <g id="line2d_62">
    <path d="M 1350.643049 104.413305 
L 1344.111908 96.329599 
L 1267.422977 -1 
" clip-path="url(#p3fe90af154)" style="fill: none; stroke: #7a7a7a; stroke-width: 3; stroke-linecap: square"/>
   </g>
   <g id="line2d_63">
    <path d="M 1427.465584 249.111639 
L 1427.139027 248.752363 
L 1326.151273 127.856052 
" clip-path="url(#p3fe90af154)" style="fill: none; stroke: #7a7a7a; stroke-width: 3; stroke-linecap: square"/>
   </g>
   <g id="line2d_64">
    <path d="M 1441 219.715876 
L 1405.01479 172.406253 
L 1350.643049 104.413305 
" clip-path="url(#p3fe90af154)" style="fill: none; stroke: #7a7a7a; stroke-width: 3; stroke-linecap: square"/>
   </g>
   <g id="line2d_65">
    <path d="M 1220.836638 110.88027 
L 1234.388754 100.910366 
L 1248.349066 94.982315 
L 1262.472657 92.647022 
L 1276.432969 93.635031 
L 1289.821806 97.587065 
L 1302.47589 104.143848 
L 1313.987025 112.946106 
L 1326.151273 127.856052 
" clip-path="url(#p3fe90af154)" style="fill: none; stroke: #7a7a7a; stroke-width: 3; stroke-linecap: square"/>
   </g>
   <g id="line2d_66">
    <path d="M 1248.920541 140.161248 
L 1255.043485 133.784103 
L 1261.08479 128.215328 
L 1265.738227 125.161483 
L 1269.575272 124.263294 
L 1273.493956 124.712389 
L 1278.147393 127.1375 
L 1282.229356 130.460802 
L 1300.679827 150.759885 
L 1301.577858 151.747893 
" clip-path="url(#p3fe90af154)" style="fill: none; stroke: #7a7a7a; stroke-width: 3; stroke-linecap: square"/>
   </g>
   <g id="line2d_67">
    <path d="M 1220.836638 110.88027 
L 1329.090286 2.73825 
" clip-path="url(#p3fe90af154)" style="fill: none; stroke: #7a7a7a; stroke-width: 3; stroke-linecap: square"/>
   </g>
   <g id="line2d_68">
    <path d="M 1248.920541 140.161248 
L 1255.043485 133.784103 
L 1349.41846 26.180997 
" clip-path="url(#p3fe90af154)" style="fill: none; stroke: #7a7a7a; stroke-width: 3; stroke-linecap: square"/>
   </g>
   <g id="line2d_69">
    <path d="M 1219.872298 -1 
L 1225.979911 4.714267 
L 1238.225799 12.348878 
L 1252.022833 17.738015 
L 1266.881176 20.612222 
L 1282.392634 20.79186 
L 1298.230649 18.007472 
L 1313.905385 12.079421 
L 1329.090286 2.73825 
" clip-path="url(#p3fe90af154)" style="fill: none; stroke: #7a7a7a; stroke-width: 3; stroke-linecap: square"/>
   </g>
   <g id="line2d_70">
    <path d="M 1188.017659 19.264937 
L 1199.038958 29.414479 
L 1211.774682 37.94728 
L 1225.898272 44.863339 
L 1241.001534 49.893201 
L 1256.839548 53.126683 
L 1273.00412 54.294329 
L 1289.331971 53.306321 
L 1305.496542 50.072838 
L 1321.08964 44.593882 
L 1335.784705 36.689814 
L 1349.41846 26.180997 
" clip-path="url(#p3fe90af154)" style="fill: none; stroke: #7a7a7a; stroke-width: 3; stroke-linecap: square"/>
   </g>
   <g id="line2d_71">
    <path d="M 1220.836638 110.88027 
L 783.658446 546.592012 
L 783.005332 547.220744 
" clip-path="url(#p3fe90af154)" style="fill: none; stroke: #7a7a7a; stroke-width: 3; stroke-linecap: square"/>
   </g>
   <g id="line2d_72">
    <path d="M 1186.303235 75.222145 
L 1151.93311 107.018055 
L 1028.004726 234.560968 
L 986.858543 277.763885 
L 893.953075 369.828312 
L 841.540675 425.695701 
L 783.821724 484.97621 
L 783.658446 485.155848 
L 783.005332 485.78458 
" clip-path="url(#p3fe90af154)" style="fill: none; stroke: #7a7a7a; stroke-width: 3; stroke-linecap: square"/>
   </g>
   <g id="line2d_73">
    <path d="M 1218.624673 -1 
L 1222.061227 3.546621 
L 1228.102532 16.570369 
L 1231.61302 30.582126 
L 1233.164165 39.294564 
L 1234.307115 51.150666 
L 1234.715311 65.970793 
L 1233.327444 79.98255 
L 1230.47007 93.365574 
L 1225.898272 104.233667 
L 1220.836638 110.88027 
" clip-path="url(#p3fe90af154)" style="fill: none; stroke: #7a7a7a; stroke-width: 3; stroke-linecap: square"/>
   </g>
   <g id="line2d_74">
    <path d="M 1188.017659 19.264937 
L 1190.875033 22.588239 
L 1196.018306 29.773755 
L 1199.365515 36.24072 
L 1201.07994 42.617865 
L 1201.488136 46.300442 
L 1201.488136 49.533925 
L 1200.426826 55.551795 
L 1197.977648 61.12057 
L 1193.650768 67.048621 
L 1186.303235 75.222145 
" clip-path="url(#p3fe90af154)" style="fill: none; stroke: #7a7a7a; stroke-width: 3; stroke-linecap: square"/>
   </g>
   <g id="line2d_75">
    <path clip-path="url(#p3fe90af154)" style="fill: none; stroke: #7a7a7a; stroke-width: 3; stroke-linecap: square"/>
   </g>
   <g id="line2d_76">
    <path clip-path="url(#p3fe90af154)" style="fill: none; stroke: #7a7a7a; stroke-width: 3; stroke-linecap: square"/>
   </g>
   <g id="line2d_77">
    <path d="M 1326.151273 127.856052 
L 1427.139027 248.752363 
L 1427.465584 249.111639 
" clip-path="url(#p3fe90af154)" style="fill: none; stroke: #7a7a7a; stroke-width: 3; stroke-linecap: square"/>
   </g>
   <g id="line2d_78">
    <path d="M 1301.577858 151.747893 
L 1313.578828 164.95128 
L 1330.80471 185.789277 
L 1386.074484 248.752363 
L 1386.401041 249.111639 
" clip-path="url(#p3fe90af154)" style="fill: none; stroke: #7a7a7a; stroke-width: 3; stroke-linecap: square"/>
   </g>
   <g id="line2d_79">
    <path d="M 1329.090286 2.73825 
L 1320.028329 15.851817 
L 1313.007354 30.492307 
L 1308.190638 46.210623 
L 1305.904739 62.647492 
L 1306.312935 79.443636 
L 1309.660144 96.149961 
L 1316.191284 112.407192 
L 1326.151273 127.856052 
" clip-path="url(#p3fe90af154)" style="fill: none; stroke: #7a7a7a; stroke-width: 3; stroke-linecap: square"/>
   </g>
   <g id="line2d_80">
    <path d="M 1283.710217 -1 
L 1278.229032 15.672179 
L 1274.473627 33.63597 
L 1272.595924 52.138674 
L 1272.677563 70.821017 
L 1274.555266 89.323721 
L 1278.392311 107.018055 
L 1284.188698 123.634561 
L 1291.862787 138.724145 
L 1301.577858 151.747893 
" clip-path="url(#p3fe90af154)" style="fill: none; stroke: #7a7a7a; stroke-width: 3; stroke-linecap: square"/>
   </g>
   <g id="line2d_81">
    <path d="M 1326.151273 127.856052 
L 1313.987025 112.946106 
L 1302.47589 104.143848 
L 1289.821806 97.587065 
L 1276.432969 93.635031 
L 1262.472657 92.647022 
L 1248.349066 94.982315 
L 1234.388754 100.910366 
L 1220.836638 110.88027 
" clip-path="url(#p3fe90af154)" style="fill: none; stroke: #7a7a7a; stroke-width: 3; stroke-linecap: square"/>
   </g>
   <g id="line2d_82">
    <path d="M 1350.643049 104.413305 
L 1338.560439 89.503359 
L 1327.702419 78.545447 
L 1314.803417 69.65337 
L 1300.27163 62.82713 
L 1284.760173 58.066725 
L 1268.513961 55.192519 
L 1252.26775 54.294329 
L 1236.348096 55.1027 
L 1221.326474 57.61763 
L 1207.61108 61.92894 
L 1195.773388 67.767172 
L 1186.303235 75.222145 
" clip-path="url(#p3fe90af154)" style="fill: none; stroke: #7a7a7a; stroke-width: 3; stroke-linecap: square"/>
   </g>
   <g id="line2d_83">
    <path clip-path="url(#p3fe90af154)" style="fill: none; stroke: #7a7a7a; stroke-width: 3; stroke-linecap: square"/>
   </g>
   <g id="line2d_84">
    <path clip-path="url(#p3fe90af154)" style="fill: none; stroke: #7a7a7a; stroke-width: 3; stroke-linecap: square"/>
   </g>
   <g id="line2d_85">
    <path clip-path="url(#p3fe90af154)" style="fill: none; stroke: #7a7a7a; stroke-width: 3; stroke-linecap: square"/>
   </g>
   <g id="line2d_86">
    <path clip-path="url(#p3fe90af154)" style="fill: none; stroke: #7a7a7a; stroke-width: 3; stroke-linecap: square"/>
   </g>
   <g id="line2d_87">
    <path d="M 1220.836638 110.88027 
L 1225.898272 104.233667 
L 1230.47007 93.365574 
L 1233.327444 79.98255 
L 1234.715311 65.970793 
L 1234.307115 51.150666 
L 1233.164165 39.294564 
L 1231.61302 30.582126 
L 1228.102532 16.570369 
L 1222.061227 3.546621 
L 1218.624673 -1 
" clip-path="url(#p3fe90af154)" style="fill: none; stroke: #7a7a7a; stroke-width: 3; stroke-linecap: square"/>
   </g>
   <g id="line2d_88">
    <path d="M 1248.920541 140.161248 
L 1258.472333 123.993837 
L 1265.330031 106.479141 
L 1269.656911 88.156075 
L 1271.779532 69.473732 
L 1271.861171 51.060847 
L 1270.146746 33.276694 
L 1267.044455 16.660188 
L 1262.635935 1.750242 
L 1261.483554 -1 
" clip-path="url(#p3fe90af154)" style="fill: none; stroke: #7a7a7a; stroke-width: 3; stroke-linecap: square"/>
   </g>
   <g id="line2d_89">
    <path d="M 1218.928672 -1 
L 1326.151273 127.856052 
" clip-path="url(#p3fe90af154)" style="fill: none; stroke: #7a7a7a; stroke-width: 3; stroke-linecap: square"/>
   </g>
   <g id="line2d_90">
    <path d="M 1188.017659 19.264937 
L 1282.229356 130.460802 
L 1301.577858 151.747893 
" clip-path="url(#p3fe90af154)" style="fill: none; stroke: #7a7a7a; stroke-width: 3; stroke-linecap: square"/>
   </g>
   <g id="line2d_91">
    <path d="M 1329.090286 2.73825 
L 1332.836634 -1 
" clip-path="url(#p3fe90af154)" style="fill: none; stroke: #7a7a7a; stroke-width: 3; stroke-linecap: square"/>
   </g>
   <g id="line2d_92">
    <path d="M 1349.41846 26.180997 
L 1373.280509 -1 
" clip-path="url(#p3fe90af154)" style="fill: none; stroke: #7a7a7a; stroke-width: 3; stroke-linecap: square"/>
   </g>
   <g id="line2d_93">
    <path d="M 1329.090286 2.73825 
L 1220.836638 110.88027 
" clip-path="url(#p3fe90af154)" style="fill: none; stroke: #7a7a7a; stroke-width: 3; stroke-linecap: square"/>
   </g>
   <g id="line2d_94">
    <path d="M 1269.48134 -1 
L 1186.303235 75.222145 
" clip-path="url(#p3fe90af154)" style="fill: none; stroke: #7a7a7a; stroke-width: 3; stroke-linecap: square"/>
   </g>
   <g id="line2d_95">
    <path clip-path="url(#p3fe90af154)" style="fill: none; stroke: #7a7a7a; stroke-width: 3; stroke-linecap: square"/>
   </g>
   <g id="line2d_96">
    <path d="M 1170.433573 -1 
L 1188.017659 19.264937 
" clip-path="url(#p3fe90af154)" style="fill: none; stroke: #7a7a7a; stroke-width: 3; stroke-linecap: square"/>
   </g>
   <g id="line2d_97">
    <path clip-path="url(#p3fe90af154)" style="fill: none; stroke: #7a7a7a; stroke-width: 3; stroke-linecap: square"/>
   </g>
   <g id="line2d_98">
    <path clip-path="url(#p3fe90af154)" style="fill: none; stroke: #7a7a7a; stroke-width: 3; stroke-linecap: square"/>
   </g>
   <g id="line2d_99">
    <path d="M 910.961305 401.490282 
L 523.988063 797.018217 
" clip-path="url(#p3fe90af154)" style="fill: none; stroke-dasharray: 32,8,5,8; stroke-dashoffset: 0; stroke: #1e90ff; stroke-width: 5"/>
   </g>
   <g id="line2d_100">
    <path d="M 1317.541122 44.909477 
L 1308.761315 53.380439 
" clip-path="url(#p3fe90af154)" style="fill: none; stroke-dasharray: 32,8,5,8; stroke-dashoffset: 0; stroke: #1e90ff; stroke-width: 5"/>
   </g>
   <g id="line2d_101">
    <path d="M 602.763164 724.360473 
L 299.880743 1023.640032 
" clip-path="url(#p3fe90af154)" style="fill: none; stroke-dasharray: 32,8,5,8; stroke-dashoffset: 0; stroke: #1e90ff; stroke-width: 5"/>
   </g>
   <g id="line2d_102">
    <path d="M 1035.897663 234.678329 
L 1034.817378 235.755017 
" clip-path="url(#p3fe90af154)" style="fill: none; stroke-dasharray: 32,8,5,8; stroke-dashoffset: 0; stroke: #1e90ff; stroke-width: 5"/>
   </g>
   <g id="line2d_103">
    <path d="M 915.726917 471.341184 
L 913.480642 470.49036 
" clip-path="url(#p3fe90af154)" style="fill: none; stroke-dasharray: 32,8,5,8; stroke-dashoffset: 0; stroke: #1e90ff; stroke-width: 5"/>
   </g>
   <g id="line2d_104">
    <path d="M 1254.181011 98.818391 
L 1250.107021 104.36629 
" clip-path="url(#p3fe90af154)" style="fill: none; stroke-dasharray: 32,8,5,8; stroke-dashoffset: 0; stroke: #1e90ff; stroke-width: 5"/>
   </g>
   <g id="line2d_105">
    <path d="M 728.114097 647.470537 
L 742.239521 649.619526 
" clip-path="url(#p3fe90af154)" style="fill: none; stroke-dasharray: 32,8,5,8; stroke-dashoffset: 0; stroke: #1e90ff; stroke-width: 5"/>
   </g>
   <g id="line2d_106">
    <path d="M 312.495363 740.475695 
L 306.886651 737.103099 
" clip-path="url(#p3fe90af154)" style="fill: none; stroke-dasharray: 32,8,5,8; stroke-dashoffset: 0; stroke: #1e90ff; stroke-width: 5"/>
   </g>
   <g id="line2d_107">
    <path d="M 1056.999098 328.714125 
L 1048.0419 335.380375 
" clip-path="url(#p3fe90af154)" style="fill: none; stroke-dasharray: 32,8,5,8; stroke-dashoffset: 0; stroke: #1e90ff; stroke-width: 5"/>
   </g>
   <g id="line2d_108">
    <path d="M 886.921974 505.049606 
L 887.013659 493.666544 
" clip-path="url(#p3fe90af154)" style="fill: none; stroke-dasharray: 32,8,5,8; stroke-dashoffset: 0; stroke: #1e90ff; stroke-width: 5"/>
   </g>
   <g id="line2d_109">
    <path d="M 749.337113 537.308556 
L 753.86554 534.68372 
" clip-path="url(#p3fe90af154)" style="fill: none; stroke-dasharray: 32,8,5,8; stroke-dashoffset: 0; stroke: #1e90ff; stroke-width: 5"/>
   </g>
   <g id="line2d_110">
    <path d="M 875.764344 423.30471 
L 583.116726 713.972964 
" clip-path="url(#p3fe90af154)" style="fill: none; stroke-dasharray: 32,8,5,8; stroke-dashoffset: 0; stroke: #1e90ff; stroke-width: 5"/>
   </g>
   <g id="line2d_111">
    <path d="M 910.961305 401.490282 
" clip-path="url(#p3fe90af154)" style="fill: none; stroke: #0000ff; stroke-width: 1.5; stroke-linecap: square"/>
    <defs>
     <path id="m6d0a9ef8c0" d="M 0 10 
C 2.652031 10 5.195799 8.946337 7.071068 7.071068 
C 8.946337 5.195799 10 2.652031 10 0 
C 10 -2.652031 8.946337 -5.195799 7.071068 -7.071068 
C 5.195799 -8.946337 2.652031 -10 0 -10 
C -2.652031 -10 -5.195799 -8.946337 -7.071068 -7.071068 
C -8.946337 -5.195799 -10 -2.652031 -10 0 
C -10 2.652031 -8.946337 5.195799 -7.071068 7.071068 
C -5.195799 8.946337 -2.652031 10 0 10 
z
" style="stroke: #0000ff"/>
    </defs>
    <g clip-path="url(#p3fe90af154)">
     <use xlink:href="#m6d0a9ef8c0" x="910.961305" y="401.490282" style="fill: #0000ff; stroke: #0000ff"/>
    </g>
   </g>
   <g id="line2d_112">
    <path d="M 1317.541122 44.909477 
" clip-path="url(#p3fe90af154)" style="fill: none; stroke: #0000ff; stroke-width: 1.5; stroke-linecap: square"/>
    <g clip-path="url(#p3fe90af154)">
     <use xlink:href="#m6d0a9ef8c0" x="1317.541122" y="44.909477" style="fill: #0000ff; stroke: #0000ff"/>
    </g>
   </g>
   <g id="line2d_113">
    <path d="M 602.763164 724.360473 
" clip-path="url(#p3fe90af154)" style="fill: none; stroke: #0000ff; stroke-width: 1.5; stroke-linecap: square"/>
    <g clip-path="url(#p3fe90af154)">
     <use xlink:href="#m6d0a9ef8c0" x="602.763164" y="724.360473" style="fill: #0000ff; stroke: #0000ff"/>
    </g>
   </g>
   <g id="line2d_114">
    <path d="M 1035.897663 234.678329 
" clip-path="url(#p3fe90af154)" style="fill: none; stroke: #0000ff; stroke-width: 1.5; stroke-linecap: square"/>
    <g clip-path="url(#p3fe90af154)">
     <use xlink:href="#m6d0a9ef8c0" x="1035.897663" y="234.678329" style="fill: #0000ff; stroke: #0000ff"/>
    </g>
   </g>
   <g id="line2d_115">
    <path d="M 915.726917 471.341184 
" clip-path="url(#p3fe90af154)" style="fill: none; stroke: #0000ff; stroke-width: 1.5; stroke-linecap: square"/>
    <g clip-path="url(#p3fe90af154)">
     <use xlink:href="#m6d0a9ef8c0" x="915.726917" y="471.341184" style="fill: #0000ff; stroke: #0000ff"/>
    </g>
   </g>
   <g id="line2d_116">
    <path d="M 1254.181011 98.818391 
" clip-path="url(#p3fe90af154)" style="fill: none; stroke: #0000ff; stroke-width: 1.5; stroke-linecap: square"/>
    <g clip-path="url(#p3fe90af154)">
     <use xlink:href="#m6d0a9ef8c0" x="1254.181011" y="98.818391" style="fill: #0000ff; stroke: #0000ff"/>
    </g>
   </g>
   <g id="line2d_117">
    <path d="M 728.114097 647.470537 
" clip-path="url(#p3fe90af154)" style="fill: none; stroke: #0000ff; stroke-width: 1.5; stroke-linecap: square"/>
    <g clip-path="url(#p3fe90af154)">
     <use xlink:href="#m6d0a9ef8c0" x="728.114097" y="647.470537" style="fill: #0000ff; stroke: #0000ff"/>
    </g>
   </g>
   <g id="line2d_118">
    <path d="M 312.495363 740.475695 
" clip-path="url(#p3fe90af154)" style="fill: none; stroke: #0000ff; stroke-width: 1.5; stroke-linecap: square"/>
    <g clip-path="url(#p3fe90af154)">
     <use xlink:href="#m6d0a9ef8c0" x="312.495363" y="740.475695" style="fill: #0000ff; stroke: #0000ff"/>
    </g>
   </g>
   <g id="line2d_119">
    <path d="M 1056.999098 328.714125 
" clip-path="url(#p3fe90af154)" style="fill: none; stroke: #0000ff; stroke-width: 1.5; stroke-linecap: square"/>
    <g clip-path="url(#p3fe90af154)">
     <use xlink:href="#m6d0a9ef8c0" x="1056.999098" y="328.714125" style="fill: #0000ff; stroke: #0000ff"/>
    </g>
   </g>
   <g id="line2d_120">
    <path d="M 886.921974 505.049606 
" clip-path="url(#p3fe90af154)" style="fill: none; stroke: #0000ff; stroke-width: 1.5; stroke-linecap: square"/>
    <g clip-path="url(#p3fe90af154)">
     <use xlink:href="#m6d0a9ef8c0" x="886.921974" y="505.049606" style="fill: #0000ff; stroke: #0000ff"/>
    </g>
   </g>
   <g id="line2d_121">
    <path d="M 749.337113 537.308556 
" clip-path="url(#p3fe90af154)" style="fill: none; stroke: #0000ff; stroke-width: 1.5; stroke-linecap: square"/>
    <g clip-path="url(#p3fe90af154)">
     <use xlink:href="#m6d0a9ef8c0" x="749.337113" y="537.308556" style="fill: #0000ff; stroke: #0000ff"/>
    </g>
   </g>
   <g id="line2d_122">
    <path d="M 875.764344 423.30471 
" clip-path="url(#p3fe90af154)" style="fill: none; stroke: #0000ff; stroke-width: 1.5; stroke-linecap: square"/>
    <g clip-path="url(#p3fe90af154)">
     <use xlink:href="#m6d0a9ef8c0" x="875.764344" y="423.30471" style="fill: #0000ff; stroke: #0000ff"/>
    </g>
   </g>
   <g id="line2d_123">
    <path d="M 523.988063 797.018217 
" clip-path="url(#p3fe90af154)" style="fill: none; stroke: #ff0000; stroke-width: 1.5; stroke-linecap: square"/>
    <defs>
     <path id="m09fbe817c3" d="M 0 -10 
L -2.24514 -3.09017 
L -9.510565 -3.09017 
L -3.632713 1.18034 
L -5.877853 8.09017 
L -0 3.81966 
L 5.877853 8.09017 
L 3.632713 1.18034 
L 9.510565 -3.09017 
L 2.24514 -3.09017 
z
" style="stroke: #ff0000; stroke-linejoin: bevel"/>
    </defs>
    <g clip-path="url(#p3fe90af154)">
     <use xlink:href="#m09fbe817c3" x="523.988063" y="797.018217" style="fill: #ff0000; stroke: #ff0000; stroke-linejoin: bevel"/>
    </g>
   </g>
   <g id="line2d_124">
    <path d="M 1308.761315 53.380439 
" clip-path="url(#p3fe90af154)" style="fill: none; stroke: #ff0000; stroke-width: 1.5; stroke-linecap: square"/>
    <g clip-path="url(#p3fe90af154)">
     <use xlink:href="#m09fbe817c3" x="1308.761315" y="53.380439" style="fill: #ff0000; stroke: #ff0000; stroke-linejoin: bevel"/>
    </g>
   </g>
   <g id="line2d_125">
    <path d="M 299.880743 1023.640032 
" clip-path="url(#p3fe90af154)" style="fill: none; stroke: #ff0000; stroke-width: 1.5; stroke-linecap: square"/>
    <g clip-path="url(#p3fe90af154)">
     <use xlink:href="#m09fbe817c3" x="299.880743" y="1023.640032" style="fill: #ff0000; stroke: #ff0000; stroke-linejoin: bevel"/>
    </g>
   </g>
   <g id="line2d_126">
    <path d="M 1034.817378 235.755017 
" clip-path="url(#p3fe90af154)" style="fill: none; stroke: #ff0000; stroke-width: 1.5; stroke-linecap: square"/>
    <g clip-path="url(#p3fe90af154)">
     <use xlink:href="#m09fbe817c3" x="1034.817378" y="235.755017" style="fill: #ff0000; stroke: #ff0000; stroke-linejoin: bevel"/>
    </g>
   </g>
   <g id="line2d_127">
    <path d="M 913.480642 470.49036 
" clip-path="url(#p3fe90af154)" style="fill: none; stroke: #ff0000; stroke-width: 1.5; stroke-linecap: square"/>
    <g clip-path="url(#p3fe90af154)">
     <use xlink:href="#m09fbe817c3" x="913.480642" y="470.49036" style="fill: #ff0000; stroke: #ff0000; stroke-linejoin: bevel"/>
    </g>
   </g>
   <g id="line2d_128">
    <path d="M 1250.107021 104.36629 
" clip-path="url(#p3fe90af154)" style="fill: none; stroke: #ff0000; stroke-width: 1.5; stroke-linecap: square"/>
    <g clip-path="url(#p3fe90af154)">
     <use xlink:href="#m09fbe817c3" x="1250.107021" y="104.36629" style="fill: #ff0000; stroke: #ff0000; stroke-linejoin: bevel"/>
    </g>
   </g>
   <g id="line2d_129">
    <path d="M 742.239521 649.619526 
" clip-path="url(#p3fe90af154)" style="fill: none; stroke: #ff0000; stroke-width: 1.5; stroke-linecap: square"/>
    <g clip-path="url(#p3fe90af154)">
     <use xlink:href="#m09fbe817c3" x="742.239521" y="649.619526" style="fill: #ff0000; stroke: #ff0000; stroke-linejoin: bevel"/>
    </g>
   </g>
   <g id="line2d_130">
    <path d="M 306.886651 737.103099 
" clip-path="url(#p3fe90af154)" style="fill: none; stroke: #ff0000; stroke-width: 1.5; stroke-linecap: square"/>
    <g clip-path="url(#p3fe90af154)">
     <use xlink:href="#m09fbe817c3" x="306.886651" y="737.103099" style="fill: #ff0000; stroke: #ff0000; stroke-linejoin: bevel"/>
    </g>
   </g>
   <g id="line2d_131">
    <path d="M 1048.0419 335.380375 
" clip-path="url(#p3fe90af154)" style="fill: none; stroke: #ff0000; stroke-width: 1.5; stroke-linecap: square"/>
    <g clip-path="url(#p3fe90af154)">
     <use xlink:href="#m09fbe817c3" x="1048.0419" y="335.380375" style="fill: #ff0000; stroke: #ff0000; stroke-linejoin: bevel"/>
    </g>
   </g>
   <g id="line2d_132">
    <path d="M 887.013659 493.666544 
" clip-path="url(#p3fe90af154)" style="fill: none; stroke: #ff0000; stroke-width: 1.5; stroke-linecap: square"/>
    <g clip-path="url(#p3fe90af154)">
     <use xlink:href="#m09fbe817c3" x="887.013659" y="493.666544" style="fill: #ff0000; stroke: #ff0000; stroke-linejoin: bevel"/>
    </g>
   </g>
   <g id="line2d_133">
    <path d="M 753.86554 534.68372 
" clip-path="url(#p3fe90af154)" style="fill: none; stroke: #ff0000; stroke-width: 1.5; stroke-linecap: square"/>
    <g clip-path="url(#p3fe90af154)">
     <use xlink:href="#m09fbe817c3" x="753.86554" y="534.68372" style="fill: #ff0000; stroke: #ff0000; stroke-linejoin: bevel"/>
    </g>
   </g>
   <g id="line2d_134">
    <path d="M 583.116726 713.972964 
" clip-path="url(#p3fe90af154)" style="fill: none; stroke: #ff0000; stroke-width: 1.5; stroke-linecap: square"/>
    <g clip-path="url(#p3fe90af154)">
     <use xlink:href="#m09fbe817c3" x="583.116726" y="713.972964" style="fill: #ff0000; stroke: #ff0000; stroke-linejoin: bevel"/>
    </g>
   </g>
  </g>
 </g>
 <defs>
  <clipPath id="p3fe90af154">
   <rect x="0" y="0" width="1440" height="1440"/>
  </clipPath>
 </defs>
</svg>
