<?xml version="1.0" encoding="utf-8" standalone="no"?>
<!DOCTYPE svg PUBLIC "-//W3C//DTD SVG 1.1//EN"
  "http://www.w3.org/Graphics/SVG/1.1/DTD/svg11.dtd">
<svg xmlns:xlink="http://www.w3.org/1999/xlink" width="1440pt" height="1440pt" viewBox="0 0 1440 1440" xmlns="http://www.w3.org/2000/svg" version="1.1">
 <metadata>
  <rdf:RDF xmlns:dc="http://purl.org/dc/elements/1.1/" xmlns:cc="http://creativecommons.org/ns#" xmlns:rdf="http://www.w3.org/1999/02/22-rdf-syntax-ns#">
   <cc:Work>
    <dc:type rdf:resource="http://purl.org/dc/dcmitype/StillImage"/>
    <dc:date>2026-02-27T11:11:29.141376</dc:date>
    <dc:format>image/svg+xml</dc:format>
    <dc:creator>
     <cc:Agent>
      <dc:title>Matplotlib v3.7.3, https://matplotlib.org/</dc:title>
     </cc:Agent>
    </dc:creator>
   </cc:Work>
  </rdf:RDF>
 </metadata>
 <defs>
  <style type="text/css">*{stroke-linejoin: round; stroke-linecap: butt}</style>
 </defs>
 <g id="figure_1">
  <g id="patch_1">
   <path d="M 0 1440 
L 1440 1440 
L 1440 0 
L 0 0 
z
" style="fill: #ffffff"/>
  </g>
  <g id="axes_1">
   <g id="line2d_1">
    <path d="M 1269.54681 -1 
L 951.474897 336.461806 
" clip-path="url(#p0492f439c6)" style="fill: none; stroke: #7a7a7a; stroke-width: 3; stroke-linecap: square"/>
   </g>
   <g id="line2d_2">
    <path d="M 1193.608569 -1 
L 951.474897 264.061766 
" clip-path="url(#p0492f439c6)" style="fill: none; stroke: #7a7a7a; stroke-width: 3; stroke-linecap: square"/>
   </g>
   <g id="line2d_3">
    <path d="M 951.474897 336.461806 
L 1269.54681 -1 
" clip-path="url(#p0492f439c6)" style="fill: none; stroke: #7a7a7a; stroke-width: 3; stroke-linecap: square"/>
   </g>
   <g id="line2d_4">
    <path d="M 951.474897 391.957382 
L 986.927625 354.700833 
L 1191.342387 136.166149 
L 1329.390198 -1 
" clip-path="url(#p0492f439c6)" style="fill: none; stroke: #7a7a7a; stroke-width: 3; stroke-linecap: square"/>
   </g>
   <g id="line2d_5">
    <path d="M 72.481653 1266.874613 
L 71.993324 1267.430681 
L 71.211996 1268.097963 
L 70.918999 1268.542817 
L 70.723667 1268.765244 
L 70.040005 1269.432526 
L -1 1344.315576 
" clip-path="url(#p0492f439c6)" style="fill: none; stroke: #7a7a7a; stroke-width: 3; stroke-linecap: square"/>
   </g>
   <g id="line2d_6">
    <path d="M 72.481653 1207.820203 
L 71.895658 1208.37627 
L 71.211996 1209.043552 
L 70.626001 1209.59962 
L 70.040005 1210.266901 
L -1 1285.215042 
" clip-path="url(#p0492f439c6)" style="fill: none; stroke: #7a7a7a; stroke-width: 3; stroke-linecap: square"/>
   </g>
   <g id="line2d_7">
    <path d="M -1 1344.315576 
L 70.040005 1269.432526 
L 70.723667 1268.765244 
L 70.918999 1268.542817 
L 71.211996 1268.097963 
L 71.993324 1267.430681 
L 72.481653 1266.874613 
" clip-path="url(#p0492f439c6)" style="fill: none; stroke: #7a7a7a; stroke-width: 3; stroke-linecap: square"/>
   </g>
   <g id="line2d_8">
    <path d="M -1 1397.439699 
L 46.209522 1347.726886 
L 70.040005 1322.926258 
L 70.723667 1322.258976 
L 70.918999 1322.036549 
L 71.309662 1321.591695 
L 71.993324 1320.8132 
L 72.481653 1320.257132 
" clip-path="url(#p0492f439c6)" style="fill: none; stroke: #7a7a7a; stroke-width: 3; stroke-linecap: square"/>
   </g>
   <g id="line2d_9">
    <path d="M 951.474897 336.461806 
L 950.595904 337.462728 
L 949.912243 338.13001 
L 949.716911 338.46365 
L 507.192645 811.343791 
L 506.704316 811.899859 
" clip-path="url(#p0492f439c6)" style="fill: none; stroke: #7a7a7a; stroke-width: 3; stroke-linecap: square"/>
   </g>
   <g id="line2d_10">
    <path d="M 951.474897 264.061766 
L 950.498238 265.062688 
L 949.912243 265.729969 
L 949.716911 266.174824 
L 921.003132 309.436906 
L 886.527063 350.363504 
L 723.131986 521.076348 
L 448.49543 811.455005 
L 448.0071 811.899859 
" clip-path="url(#p0492f439c6)" style="fill: none; stroke: #7a7a7a; stroke-width: 3; stroke-linecap: square"/>
   </g>
   <g id="line2d_11">
    <path d="M 506.704316 811.899859 
L 507.192645 811.343791 
L 949.716911 338.46365 
L 949.912243 338.13001 
L 950.595904 337.462728 
L 951.474897 336.461806 
" clip-path="url(#p0492f439c6)" style="fill: none; stroke: #7a7a7a; stroke-width: 3; stroke-linecap: square"/>
   </g>
   <g id="line2d_12">
    <path d="M 555.14661 811.899859 
L 555.63494 811.343791 
L 653.984517 706.469386 
L 689.339579 665.876429 
L 773.039269 576.794352 
L 788.665815 562.002946 
L 833.396805 515.515669 
L 835.936119 512.068048 
L 841.112412 507.508292 
L 949.716911 394.737722 
L 949.912243 394.515295 
L 950.595904 392.958305 
L 951.474897 391.957382 
" clip-path="url(#p0492f439c6)" style="fill: none; stroke: #7a7a7a; stroke-width: 3; stroke-linecap: square"/>
   </g>
   <g id="line2d_13">
    <path d="M 533.464777 1419.126004 
L 325.827039 1165.114188 
" clip-path="url(#p0492f439c6)" style="fill: none; stroke: #7a7a7a; stroke-width: 3; stroke-linecap: square"/>
   </g>
   <g id="line2d_14">
    <path d="M 565.108534 1387.096493 
L 526.823495 1339.830722 
L 359.033451 1129.192202 
" clip-path="url(#p0492f439c6)" style="fill: none; stroke: #7a7a7a; stroke-width: 3; stroke-linecap: square"/>
   </g>
   <g id="line2d_15">
    <path d="M 325.827039 1165.114188 
L 533.464777 1419.126004 
" clip-path="url(#p0492f439c6)" style="fill: none; stroke: #7a7a7a; stroke-width: 3; stroke-linecap: square"/>
   </g>
   <g id="line2d_16">
    <path d="M 296.038935 1198.811903 
L 318.697427 1226.05923 
L 458.164356 1400.219695 
L 490.826048 1441 
" clip-path="url(#p0492f439c6)" style="fill: none; stroke: #7a7a7a; stroke-width: 3; stroke-linecap: square"/>
   </g>
   <g id="line2d_17">
    <path d="M 189.97375 998.738673 
L -1 762.840167 
" clip-path="url(#p0492f439c6)" style="fill: none; stroke: #7a7a7a; stroke-width: 3; stroke-linecap: square"/>
   </g>
   <g id="line2d_18">
    <path d="M 221.812839 965.485813 
L 91.819505 804.559763 
L 88.010534 799.888792 
L -1 687.660062 
" clip-path="url(#p0492f439c6)" style="fill: none; stroke: #7a7a7a; stroke-width: 3; stroke-linecap: square"/>
   </g>
   <g id="line2d_19">
    <path d="M 352.196837 973.270763 
L 504.360334 814.346558 
L 504.750997 813.901703 
L 505.336993 813.345636 
L 506.704316 811.899859 
" clip-path="url(#p0492f439c6)" style="fill: none; stroke: #7a7a7a; stroke-width: 3; stroke-linecap: square"/>
   </g>
   <g id="line2d_20">
    <path d="M 374.464666 1003.520857 
L 451.034744 921.222808 
L 521.256537 846.932137 
L 545.380019 822.131508 
L 552.802628 814.346558 
L 553.193292 813.901703 
L 553.779287 813.345636 
L 555.14661 811.899859 
" clip-path="url(#p0492f439c6)" style="fill: none; stroke: #7a7a7a; stroke-width: 3; stroke-linecap: square"/>
   </g>
   <g id="line2d_21">
    <path d="M 506.704316 811.899859 
L 505.336993 813.345636 
L 504.750997 813.901703 
L 504.360334 814.346558 
L 352.196837 973.270763 
" clip-path="url(#p0492f439c6)" style="fill: none; stroke: #7a7a7a; stroke-width: 3; stroke-linecap: square"/>
   </g>
   <g id="line2d_22">
    <path d="M 448.0071 811.899859 
L 446.737443 813.345636 
L 446.151448 813.901703 
L 445.760784 814.346558 
L 327.780358 939.795476 
" clip-path="url(#p0492f439c6)" style="fill: none; stroke: #7a7a7a; stroke-width: 3; stroke-linecap: square"/>
   </g>
   <g id="line2d_23">
    <path d="M 175.909858 1157.662878 
L 188.704093 1144.094821 
L 200.424003 1127.857639 
L 209.213936 1109.729825 
L 214.878559 1090.378662 
L 217.222541 1070.471432 
L 216.148216 1050.786628 
L 211.362586 1031.769106 
L 202.767985 1014.19736 
L 189.97375 998.738673 
" clip-path="url(#p0492f439c6)" style="fill: none; stroke: #7a7a7a; stroke-width: 3; stroke-linecap: square"/>
   </g>
   <g id="line2d_24">
    <path d="M 197.884689 1187.801758 
L 210.678924 1174.233702 
L 234.997737 1148.543365 
L 244.373665 1130.860405 
L 250.72195 1109.173757 
L 254.726252 1085.707692 
L 256.093575 1061.463132 
L 254.823918 1037.552212 
L 250.819616 1014.864642 
L 245.057327 999.962022 
L 238.806708 987.061247 
L 231.286433 976.27353 
L 222.691832 966.597948 
L 221.812839 965.485813 
" clip-path="url(#p0492f439c6)" style="fill: none; stroke: #7a7a7a; stroke-width: 3; stroke-linecap: square"/>
   </g>
   <g id="line2d_25">
    <path d="M 352.196837 973.270763 
L 291.936966 1036.440076 
L 285.100352 1044.669881 
L 279.240397 1053.566968 
L 275.529093 1061.018277 
L 273.575774 1067.691092 
L 271.329458 1081.370363 
L 272.989779 1094.048711 
L 276.31042 1103.168224 
L 280.412388 1109.729825 
L 325.827039 1165.114188 
" clip-path="url(#p0492f439c6)" style="fill: none; stroke: #7a7a7a; stroke-width: 3; stroke-linecap: square"/>
   </g>
   <g id="line2d_26">
    <path d="M 327.780358 939.795476 
L 317.037107 951.250474 
L 297.406258 971.491346 
L 259.316551 1011.417021 
L 248.475634 1027.209349 
L 241.053024 1043.446532 
L 236.85339 1061.129491 
L 235.583733 1076.254538 
L 236.560392 1094.715992 
L 241.346022 1113.28866 
L 249.549959 1132.86225 
L 261.172203 1153.659189 
L 278.068406 1177.125255 
L 286.272343 1187.023263 
L 296.038935 1198.811903 
" clip-path="url(#p0492f439c6)" style="fill: none; stroke: #7a7a7a; stroke-width: 3; stroke-linecap: square"/>
   </g>
   <g id="line2d_27">
    <path d="M 189.97375 998.738673 
L 202.767985 1014.19736 
L 211.362586 1031.769106 
L 216.148216 1050.786628 
L 217.222541 1070.471432 
L 214.878559 1090.378662 
L 209.213936 1109.729825 
L 200.424003 1127.857639 
L 188.704093 1144.094821 
L 175.909858 1157.662878 
" clip-path="url(#p0492f439c6)" style="fill: none; stroke: #7a7a7a; stroke-width: 3; stroke-linecap: square"/>
   </g>
   <g id="line2d_28">
    <path d="M 159.306653 1030.65697 
L 163.896951 1036.440076 
L 168.487249 1043.224105 
L 172.003222 1050.23056 
L 174.347204 1058.682792 
L 175.812192 1068.24716 
L 175.030865 1079.590945 
L 173.761208 1089.822595 
L 170.928897 1097.718759 
L 165.850269 1107.727981 
L 163.213289 1111.954097 
L 151.591045 1124.298804 
" clip-path="url(#p0492f439c6)" style="fill: none; stroke: #7a7a7a; stroke-width: 3; stroke-linecap: square"/>
   </g>
   <g id="line2d_29">
    <path d="M 175.909858 1157.662878 
L 352.196837 973.270763 
" clip-path="url(#p0492f439c6)" style="fill: none; stroke: #7a7a7a; stroke-width: 3; stroke-linecap: square"/>
   </g>
   <g id="line2d_30">
    <path d="M 197.884689 1187.801758 
L 315.474452 1061.796773 
L 337.351617 1039.998911 
L 374.464666 1003.520857 
" clip-path="url(#p0492f439c6)" style="fill: none; stroke: #7a7a7a; stroke-width: 3; stroke-linecap: square"/>
   </g>
   <g id="line2d_31">
    <path d="M 325.827039 1165.114188 
L 280.412388 1109.729825 
L 276.31042 1103.168224 
L 272.989779 1094.048711 
L 271.329458 1081.370363 
L 273.575774 1067.691092 
L 275.529093 1061.018277 
L 279.240397 1053.566968 
L 285.100352 1044.669881 
L 291.936966 1036.440076 
L 352.196837 973.270763 
" clip-path="url(#p0492f439c6)" style="fill: none; stroke: #7a7a7a; stroke-width: 3; stroke-linecap: square"/>
   </g>
   <g id="line2d_32">
    <path d="M 359.033451 1129.192202 
L 333.542647 1098.608467 
L 328.464019 1092.380507 
L 327.975689 1091.824439 
L 323.385391 1086.152546 
L 318.599762 1077.700314 
L 317.818434 1074.919975 
L 317.525436 1074.030266 
L 317.427771 1070.471432 
L 317.427771 1069.915364 
L 318.013766 1066.578956 
L 321.236741 1060.79585 
L 325.924705 1055.680026 
L 344.774227 1032.658815 
L 374.464666 1003.520857 
" clip-path="url(#p0492f439c6)" style="fill: none; stroke: #7a7a7a; stroke-width: 3; stroke-linecap: square"/>
   </g>
   <g id="line2d_33">
    <path d="M 325.827039 1165.114188 
L 189.97375 998.738673 
" clip-path="url(#p0492f439c6)" style="fill: none; stroke: #7a7a7a; stroke-width: 3; stroke-linecap: square"/>
   </g>
   <g id="line2d_34">
    <path d="M 359.033451 1129.192202 
L 221.812839 965.485813 
" clip-path="url(#p0492f439c6)" style="fill: none; stroke: #7a7a7a; stroke-width: 3; stroke-linecap: square"/>
   </g>
   <g id="line2d_35">
    <path d="M 352.196837 973.270763 
L 175.909858 1157.662878 
" clip-path="url(#p0492f439c6)" style="fill: none; stroke: #7a7a7a; stroke-width: 3; stroke-linecap: square"/>
   </g>
   <g id="line2d_36">
    <path d="M 327.780358 939.795476 
L 151.591045 1124.298804 
" clip-path="url(#p0492f439c6)" style="fill: none; stroke: #7a7a7a; stroke-width: 3; stroke-linecap: square"/>
   </g>
   <g id="line2d_37">
    <path d="M 189.97375 998.738673 
L 325.827039 1165.114188 
" clip-path="url(#p0492f439c6)" style="fill: none; stroke: #7a7a7a; stroke-width: 3; stroke-linecap: square"/>
   </g>
   <g id="line2d_38">
    <path d="M 159.306653 1030.65697 
L 296.038935 1198.811903 
" clip-path="url(#p0492f439c6)" style="fill: none; stroke: #7a7a7a; stroke-width: 3; stroke-linecap: square"/>
   </g>
   <g id="line2d_39">
    <path d="M 352.196837 973.270763 
L 320.162416 1006.968478 
L 305.610195 1018.53469 
L 289.104655 1026.430854 
L 271.427124 1030.545757 
L 253.163598 1030.990611 
L 235.290735 1027.987844 
L 218.296866 1021.537457 
L 200.03334 1010.638526 
L 189.97375 998.738673 
" clip-path="url(#p0492f439c6)" style="fill: none; stroke: #7a7a7a; stroke-width: 3; stroke-linecap: square"/>
   </g>
   <g id="line2d_40">
    <path d="M 327.780358 939.795476 
L 317.037107 951.250474 
L 293.108957 975.939889 
L 289.104655 979.38751 
L 283.73303 983.502412 
L 276.505752 986.616393 
L 269.864469 988.39581 
L 261.95353 988.840664 
L 254.921584 988.39581 
L 246.229318 986.505179 
L 239.392704 982.946345 
L 233.630415 979.053869 
L 221.812839 965.485813 
" clip-path="url(#p0492f439c6)" style="fill: none; stroke: #7a7a7a; stroke-width: 3; stroke-linecap: square"/>
   </g>
   <g id="line2d_41">
    <path d="M 189.97375 998.738673 
L 200.03334 1010.638526 
L 218.296866 1021.537457 
L 235.290735 1027.987844 
L 253.163598 1030.990611 
L 271.427124 1030.545757 
L 289.104655 1026.430854 
L 305.610195 1018.53469 
L 320.162416 1006.968478 
L 352.196837 973.270763 
" clip-path="url(#p0492f439c6)" style="fill: none; stroke: #7a7a7a; stroke-width: 3; stroke-linecap: square"/>
   </g>
   <g id="line2d_42">
    <path d="M 159.306653 1030.65697 
L 162.138964 1034.327018 
L 163.310955 1035.772795 
L 175.616861 1049.452065 
L 186.360111 1058.571579 
L 198.080021 1065.578034 
L 215.464554 1072.028422 
L 234.118744 1075.809684 
L 253.456596 1076.810606 
L 272.892113 1074.919975 
L 292.034632 1070.137791 
L 310.200493 1062.241627 
L 324.557382 1052.788473 
L 344.774227 1032.658815 
L 374.464666 1003.520857 
" clip-path="url(#p0492f439c6)" style="fill: none; stroke: #7a7a7a; stroke-width: 3; stroke-linecap: square"/>
   </g>
   <g id="line2d_43">
    <path d="M 72.481653 1266.874613 
L 175.909858 1157.662878 
" clip-path="url(#p0492f439c6)" style="fill: none; stroke: #7a7a7a; stroke-width: 3; stroke-linecap: square"/>
   </g>
   <g id="line2d_44">
    <path d="M 72.481653 1320.257132 
L 140.847794 1247.412237 
L 148.075072 1239.7385 
L 178.449172 1207.820203 
L 181.867479 1204.483795 
L 197.884689 1187.801758 
" clip-path="url(#p0492f439c6)" style="fill: none; stroke: #7a7a7a; stroke-width: 3; stroke-linecap: square"/>
   </g>
   <g id="line2d_45">
    <path d="M 175.909858 1157.662878 
L 72.481653 1266.874613 
" clip-path="url(#p0492f439c6)" style="fill: none; stroke: #7a7a7a; stroke-width: 3; stroke-linecap: square"/>
   </g>
   <g id="line2d_46">
    <path d="M 151.591045 1124.298804 
L 108.129713 1171.119721 
L 72.481653 1207.820203 
" clip-path="url(#p0492f439c6)" style="fill: none; stroke: #7a7a7a; stroke-width: 3; stroke-linecap: square"/>
   </g>
   <g id="line2d_47">
    <path d="M 175.909858 1157.662878 
L 189.97375 1143.872394 
L 206.47929 1134.530454 
L 224.938148 1128.747347 
L 244.471331 1126.411862 
L 264.10218 1127.635212 
L 283.049368 1132.306182 
L 300.238569 1140.091133 
L 314.009464 1151.434918 
L 325.827039 1165.114188 
" clip-path="url(#p0492f439c6)" style="fill: none; stroke: #7a7a7a; stroke-width: 3; stroke-linecap: square"/>
   </g>
   <g id="line2d_48">
    <path d="M 197.884689 1187.801758 
L 217.906202 1169.673945 
L 224.156821 1166.11511 
L 230.895769 1164.335693 
L 236.267394 1164.335693 
L 244.959661 1165.670256 
L 262.44186 1167.783314 
L 267.911151 1169.117877 
L 271.231792 1170.45244 
L 274.943097 1173.455206 
L 296.038935 1198.811903 
" clip-path="url(#p0492f439c6)" style="fill: none; stroke: #7a7a7a; stroke-width: 3; stroke-linecap: square"/>
   </g>
   <g id="line2d_49">
    <path d="M -1 762.840167 
L 189.97375 998.738673 
" clip-path="url(#p0492f439c6)" style="fill: none; stroke: #7a7a7a; stroke-width: 3; stroke-linecap: square"/>
   </g>
   <g id="line2d_50">
    <path d="M -1 833.555858 
L 12.026451 849.601263 
L 122.877266 984.836975 
L 159.306653 1030.65697 
" clip-path="url(#p0492f439c6)" style="fill: none; stroke: #7a7a7a; stroke-width: 3; stroke-linecap: square"/>
   </g>
   <g id="line2d_51">
    <path d="M 325.827039 1165.114188 
L 314.009464 1151.434918 
L 300.238569 1140.091133 
L 283.049368 1132.306182 
L 264.10218 1127.635212 
L 244.471331 1126.411862 
L 224.938148 1128.747347 
L 206.47929 1134.530454 
L 189.97375 1143.872394 
L 175.909858 1157.662878 
" clip-path="url(#p0492f439c6)" style="fill: none; stroke: #7a7a7a; stroke-width: 3; stroke-linecap: square"/>
   </g>
   <g id="line2d_52">
    <path d="M 359.033451 1129.192202 
L 345.65322 1117.403562 
L 333.444981 1104.614001 
L 317.525436 1094.604779 
L 299.652574 1087.153469 
L 280.510054 1082.148858 
L 260.488542 1079.813372 
L 240.174031 1080.0358 
L 220.054852 1083.038566 
L 200.717001 1088.821672 
L 182.551141 1097.496332 
L 166.143267 1109.062544 
L 157.93933 1117.62599 
L 151.591045 1124.298804 
" clip-path="url(#p0492f439c6)" style="fill: none; stroke: #7a7a7a; stroke-width: 3; stroke-linecap: square"/>
   </g>
   <g id="line2d_53">
    <path d="M 1293.501126 55.60679 
L 549.249172 773.903696 
" clip-path="url(#p0492f439c6)" style="fill: none; stroke-dasharray: 32,8,5,8; stroke-dashoffset: 0; stroke: #1e90ff; stroke-width: 5"/>
   </g>
   <g id="line2d_54">
    <path d="M 483.64896 795.87761 
L 1226.625248 119.088946 
" clip-path="url(#p0492f439c6)" style="fill: none; stroke-dasharray: 32,8,5,8; stroke-dashoffset: 0; stroke: #1e90ff; stroke-width: 5"/>
   </g>
   <g id="line2d_55">
    <path d="M 1293.501126 55.60679 
" clip-path="url(#p0492f439c6)" style="fill: none; stroke: #0000ff; stroke-width: 1.5; stroke-linecap: square"/>
    <defs>
     <path id="mbd3f6c4397" d="M 0 10 
C 2.652031 10 5.195799 8.946337 7.071068 7.071068 
C 8.946337 5.195799 10 2.652031 10 0 
C 10 -2.652031 8.946337 -5.195799 7.071068 -7.071068 
C 5.195799 -8.946337 2.652031 -10 0 -10 
C -2.652031 -10 -5.195799 -8.946337 -7.071068 -7.071068 
C -8.946337 -5.195799 -10 -2.652031 -10 0 
C -10 2.652031 -8.946337 5.195799 -7.071068 7.071068 
C -5.195799 8.946337 -2.652031 10 0 10 
z
" style="stroke: #0000ff"/>
    </defs>
    <g clip-path="url(#p0492f439c6)">
     <use xlink:href="#mbd3f6c4397" x="1293.501126" y="55.60679" style="fill: #0000ff; stroke: #0000ff"/>
    </g>
   </g>
   <g id="line2d_56">
    <path d="M 483.64896 795.87761 
" clip-path="url(#p0492f439c6)" style="fill: none; stroke: #0000ff; stroke-width: 1.5; stroke-linecap: square"/>
    <g clip-path="url(#p0492f439c6)">
     <use xlink:href="#mbd3f6c4397" x="483.64896" y="795.87761" style="fill: #0000ff; stroke: #0000ff"/>
    </g>
   </g>
   <g id="line2d_57">
    <path d="M 549.249172 773.903696 
" clip-path="url(#p0492f439c6)" style="fill: none; stroke: #ff0000; stroke-width: 1.5; stroke-linecap: square"/>
    <defs>
     <path id="m774030f74a" d="M 0 -10 
L -2.24514 -3.09017 
L -9.510565 -3.09017 
L -3.632713 1.18034 
L -5.877853 8.09017 
L -0 3.81966 
L 5.877853 8.09017 
L 3.632713 1.18034 
L 9.510565 -3.09017 
L 2.24514 -3.09017 
z
" style="stroke: #ff0000; stroke-linejoin: bevel"/>
    </defs>
    <g clip-path="url(#p0492f439c6)">
     <use xlink:href="#m774030f74a" x="549.249172" y="773.903696" style="fill: #ff0000; stroke: #ff0000; stroke-linejoin: bevel"/>
    </g>
   </g>
   <g id="line2d_58">
    <path d="M 1226.625248 119.088946 
" clip-path="url(#p0492f439c6)" style="fill: none; stroke: #ff0000; stroke-width: 1.5; stroke-linecap: square"/>
    <g clip-path="url(#p0492f439c6)">
     <use xlink:href="#m774030f74a" x="1226.625248" y="119.088946" style="fill: #ff0000; stroke: #ff0000; stroke-linejoin: bevel"/>
    </g>
   </g>
  </g>
 </g>
 <defs>
  <clipPath id="p0492f439c6">
   <rect x="0" y="0" width="1440" height="1440"/>
  </clipPath>
 </defs>
</svg>
