<?xml version="1.0" encoding="utf-8" standalone="no"?>
<!DOCTYPE svg PUBLIC "-//W3C//DTD SVG 1.1//EN"
  "http://www.w3.org/Graphics/SVG/1.1/DTD/svg11.dtd">
<svg xmlns:xlink="http://www.w3.org/1999/xlink" width="1440pt" height="1440pt" viewBox="0 0 1440 1440" xmlns="http://www.w3.org/2000/svg" version="1.1">
 <metadata>
  <rdf:RDF xmlns:dc="http://purl.org/dc/elements/1.1/" xmlns:cc="http://creativecommons.org/ns#" xmlns:rdf="http://www.w3.org/1999/02/22-rdf-syntax-ns#">
   <cc:Work>
    <dc:type rdf:resource="http://purl.org/dc/dcmitype/StillImage"/>
    <dc:date>2026-02-27T11:11:32.825512</dc:date>
    <dc:format>image/svg+xml</dc:format>
    <dc:creator>
     <cc:Agent>
      <dc:title>Matplotlib v3.7.3, https://matplotlib.org/</dc:title>
     </cc:Agent>
    </dc:creator>
   </cc:Work>
  </rdf:RDF>
 </metadata>
 <defs>
  <style type="text/css">*{stroke-linejoin: round; stroke-linecap: butt}</style>
 </defs>
 <g id="figure_1">
  <g id="patch_1">
   <path d="M 0 1440 
L 1440 1440 
L 1440 0 
L 0 0 
z
" style="fill: #ffffff"/>
  </g>
  <g id="axes_1">
   <g id="line2d_1">
    <path d="M 3.644119 1011.395835 
L 3.206825 1011.596594 
L -1 1014.254999 
" clip-path="url(#p191d0504bb)" style="fill: none; stroke: #7a7a7a; stroke-width: 3; stroke-linecap: square"/>
   </g>
   <g id="line2d_2">
    <path d="M 3.644119 932.297048 
L 3.206825 932.497806 
L -1 935.191286 
" clip-path="url(#p191d0504bb)" style="fill: none; stroke: #7a7a7a; stroke-width: 3; stroke-linecap: square"/>
   </g>
   <g id="line2d_3">
    <path d="M 378.405328 770.084306 
L 475.266014 707.246944 
" clip-path="url(#p191d0504bb)" style="fill: none; stroke: #7a7a7a; stroke-width: 3; stroke-linecap: square"/>
   </g>
   <g id="line2d_4">
    <path d="M 385.256272 843.361101 
L 480.149134 781.126014 
" clip-path="url(#p191d0504bb)" style="fill: none; stroke: #7a7a7a; stroke-width: 3; stroke-linecap: square"/>
   </g>
   <g id="line2d_5">
    <path d="M 659.585559 514.719692 
L 659.221147 514.92045 
L 470.018483 634.572423 
" clip-path="url(#p191d0504bb)" style="fill: none; stroke: #7a7a7a; stroke-width: 3; stroke-linecap: square"/>
   </g>
   <g id="line2d_6">
    <path d="M 659.585559 483.200632 
L 659.221147 483.40139 
L 467.904893 605.060947 
" clip-path="url(#p191d0504bb)" style="fill: none; stroke: #7a7a7a; stroke-width: 3; stroke-linecap: square"/>
   </g>
   <g id="line2d_7">
    <path d="M 385.256272 843.361101 
L 480.149134 781.126014 
" clip-path="url(#p191d0504bb)" style="fill: none; stroke: #7a7a7a; stroke-width: 3; stroke-linecap: square"/>
   </g>
   <g id="line2d_8">
    <path d="M 388.390215 871.467269 
L 482.918664 812.444316 
" clip-path="url(#p191d0504bb)" style="fill: none; stroke: #7a7a7a; stroke-width: 3; stroke-linecap: square"/>
   </g>
   <g id="line2d_9">
    <path d="M 659.585559 590.204829 
L 660.022853 590.004071 
L 722.483054 550.253919 
" clip-path="url(#p191d0504bb)" style="fill: none; stroke: #7a7a7a; stroke-width: 3; stroke-linecap: square"/>
   </g>
   <g id="line2d_10">
    <path d="M 659.585559 667.296033 
L 660.022853 666.894517 
L 728.823822 623.932231 
" clip-path="url(#p191d0504bb)" style="fill: none; stroke: #7a7a7a; stroke-width: 3; stroke-linecap: square"/>
   </g>
   <g id="line2d_11">
    <path d="M 3.644119 1084.672631 
L 4.008531 1084.271114 
L 385.256272 843.361101 
" clip-path="url(#p191d0504bb)" style="fill: none; stroke: #7a7a7a; stroke-width: 3; stroke-linecap: square"/>
   </g>
   <g id="line2d_12">
    <path d="M 3.644119 1115.187899 
L 4.008531 1114.987141 
L 105.023513 1047.331579 
L 388.390215 871.467269 
" clip-path="url(#p191d0504bb)" style="fill: none; stroke: #7a7a7a; stroke-width: 3; stroke-linecap: square"/>
   </g>
   <g id="line2d_13">
    <path d="M 3.644119 932.297048 
L 3.206825 932.497806 
L -1 935.191286 
" clip-path="url(#p191d0504bb)" style="fill: none; stroke: #7a7a7a; stroke-width: 3; stroke-linecap: square"/>
   </g>
   <g id="line2d_14">
    <path d="M 3.644119 901.581021 
L 3.206825 901.781779 
L -1 904.449126 
" clip-path="url(#p191d0504bb)" style="fill: none; stroke: #7a7a7a; stroke-width: 3; stroke-linecap: square"/>
   </g>
   <g id="line2d_15">
    <path d="M -1 1014.254999 
L 3.206825 1011.596594 
L 3.644119 1011.395835 
" clip-path="url(#p191d0504bb)" style="fill: none; stroke: #7a7a7a; stroke-width: 3; stroke-linecap: square"/>
   </g>
   <g id="line2d_16">
    <path d="M -1 1087.592931 
L 3.206825 1084.873389 
L 3.644119 1084.672631 
" clip-path="url(#p191d0504bb)" style="fill: none; stroke: #7a7a7a; stroke-width: 3; stroke-linecap: square"/>
   </g>
   <g id="line2d_17">
    <path d="M 378.405328 770.084306 
L 4.008531 1011.195077 
L 3.644119 1011.395835 
" clip-path="url(#p191d0504bb)" style="fill: none; stroke: #7a7a7a; stroke-width: 3; stroke-linecap: square"/>
   </g>
   <g id="line2d_18">
    <path d="M 372.283208 696.405993 
L 4.008531 931.895531 
L 3.644119 932.297048 
" clip-path="url(#p191d0504bb)" style="fill: none; stroke: #7a7a7a; stroke-width: 3; stroke-linecap: square"/>
   </g>
   <g id="line2d_19">
    <path d="M 372.283208 696.405993 
L 4.008531 931.895531 
L 3.644119 932.297048 
" clip-path="url(#p191d0504bb)" style="fill: none; stroke: #7a7a7a; stroke-width: 3; stroke-linecap: square"/>
   </g>
   <g id="line2d_20">
    <path d="M 370.169619 667.296033 
L 4.008531 901.179504 
L 3.644119 901.581021 
" clip-path="url(#p191d0504bb)" style="fill: none; stroke: #7a7a7a; stroke-width: 3; stroke-linecap: square"/>
   </g>
   <g id="line2d_21">
    <path d="M 475.266014 707.246944 
L 378.405328 770.084306 
" clip-path="url(#p191d0504bb)" style="fill: none; stroke: #7a7a7a; stroke-width: 3; stroke-linecap: square"/>
   </g>
   <g id="line2d_22">
    <path d="M 470.018483 634.572423 
L 372.283208 696.405993 
" clip-path="url(#p191d0504bb)" style="fill: none; stroke: #7a7a7a; stroke-width: 3; stroke-linecap: square"/>
   </g>
   <g id="line2d_23">
    <path d="M 1067.945546 438.833038 
L 1124.575157 403.098052 
L 1198.769422 357.124392 
L 1229.744434 336.044765 
L 1262.541506 310.548456 
L 1272.089098 303.722672 
L 1294.755519 283.446079 
L 1339.723949 242.290619 
" clip-path="url(#p191d0504bb)" style="fill: none; stroke: #7a7a7a; stroke-width: 3; stroke-linecap: square"/>
   </g>
   <g id="line2d_24">
    <path d="M 1070.496429 466.939206 
L 1126.688746 431.404979 
L 1200.810128 386.234351 
L 1265.019507 343.272066 
L 1282.802808 329.018223 
L 1314.215115 296.896888 
L 1341.546008 268.991478 
" clip-path="url(#p191d0504bb)" style="fill: none; stroke: #7a7a7a; stroke-width: 3; stroke-linecap: square"/>
   </g>
   <g id="line2d_25">
    <path d="M 470.018483 634.572423 
L 372.283208 696.405993 
" clip-path="url(#p191d0504bb)" style="fill: none; stroke: #7a7a7a; stroke-width: 3; stroke-linecap: square"/>
   </g>
   <g id="line2d_26">
    <path d="M 467.904893 605.060947 
L 370.169619 667.296033 
" clip-path="url(#p191d0504bb)" style="fill: none; stroke: #7a7a7a; stroke-width: 3; stroke-linecap: square"/>
   </g>
   <g id="line2d_27">
    <path d="M -1 1087.592931 
L 3.206825 1084.873389 
L 3.644119 1084.672631 
" clip-path="url(#p191d0504bb)" style="fill: none; stroke: #7a7a7a; stroke-width: 3; stroke-linecap: square"/>
   </g>
   <g id="line2d_28">
    <path d="M -1 1118.144126 
L 3.206825 1115.388658 
L 3.644119 1115.187899 
" clip-path="url(#p191d0504bb)" style="fill: none; stroke: #7a7a7a; stroke-width: 3; stroke-linecap: square"/>
   </g>
   <g id="line2d_29">
    <path d="M 659.585559 590.204829 
L 659.221147 590.405588 
L 475.266014 707.246944 
" clip-path="url(#p191d0504bb)" style="fill: none; stroke: #7a7a7a; stroke-width: 3; stroke-linecap: square"/>
   </g>
   <g id="line2d_30">
    <path d="M 659.585559 514.719692 
L 659.221147 514.92045 
L 470.018483 634.572423 
" clip-path="url(#p191d0504bb)" style="fill: none; stroke: #7a7a7a; stroke-width: 3; stroke-linecap: square"/>
   </g>
   <g id="line2d_31">
    <path d="M 480.149134 781.126014 
L 659.221147 667.496792 
L 659.585559 667.296033 
" clip-path="url(#p191d0504bb)" style="fill: none; stroke: #7a7a7a; stroke-width: 3; stroke-linecap: square"/>
   </g>
   <g id="line2d_32">
    <path d="M 482.918664 812.444316 
L 659.585559 728.125812 
" clip-path="url(#p191d0504bb)" style="fill: none; stroke: #7a7a7a; stroke-width: 3; stroke-linecap: square"/>
   </g>
   <g id="line2d_33">
    <path d="M 3.644119 1011.395835 
L 4.008531 1011.195077 
L 378.405328 770.084306 
" clip-path="url(#p191d0504bb)" style="fill: none; stroke: #7a7a7a; stroke-width: 3; stroke-linecap: square"/>
   </g>
   <g id="line2d_34">
    <path d="M 3.644119 1084.672631 
L 4.008531 1084.271114 
L 385.256272 843.361101 
" clip-path="url(#p191d0504bb)" style="fill: none; stroke: #7a7a7a; stroke-width: 3; stroke-linecap: square"/>
   </g>
   <g id="line2d_35">
    <path d="M 1057.231836 332.631874 
L 1104.605384 303.722672 
L 1116.558095 296.495372 
L 1191.189654 251.123986 
L 1255.107503 212.377625 
L 1333.383182 164.797898 
" clip-path="url(#p191d0504bb)" style="fill: none; stroke: #7a7a7a; stroke-width: 3; stroke-linecap: square"/>
   </g>
   <g id="line2d_36">
    <path d="M 1067.945546 438.833038 
L 1124.575157 403.098052 
L 1198.769422 357.124392 
L 1229.744434 336.044765 
L 1262.541506 310.548456 
L 1272.089098 303.722672 
L 1294.755519 283.446079 
L 1339.723949 242.290619 
" clip-path="url(#p191d0504bb)" style="fill: none; stroke: #7a7a7a; stroke-width: 3; stroke-linecap: square"/>
   </g>
   <g id="line2d_37">
    <path d="M 897.546536 440.037588 
L 826.048919 484.806698 
L 722.483054 550.253919 
" clip-path="url(#p191d0504bb)" style="fill: none; stroke: #7a7a7a; stroke-width: 3; stroke-linecap: square"/>
   </g>
   <g id="line2d_38">
    <path d="M 891.132887 367.162309 
L 715.194816 479.78774 
" clip-path="url(#p191d0504bb)" style="fill: none; stroke: #7a7a7a; stroke-width: 3; stroke-linecap: square"/>
   </g>
   <g id="line2d_39">
    <path d="M 475.266014 707.246944 
L 659.221147 590.405588 
L 659.585559 590.204829 
" clip-path="url(#p191d0504bb)" style="fill: none; stroke: #7a7a7a; stroke-width: 3; stroke-linecap: square"/>
   </g>
   <g id="line2d_40">
    <path d="M 480.149134 781.126014 
L 659.221147 667.496792 
L 659.585559 667.296033 
" clip-path="url(#p191d0504bb)" style="fill: none; stroke: #7a7a7a; stroke-width: 3; stroke-linecap: square"/>
   </g>
   <g id="line2d_41">
    <path d="M 659.585559 649.027024 
L 660.022853 648.826266 
L 728.823822 623.932231 
" clip-path="url(#p191d0504bb)" style="fill: none; stroke: #7a7a7a; stroke-width: 3; stroke-linecap: square"/>
   </g>
   <g id="line2d_42">
    <path d="M 659.585559 716.883344 
L 660.022853 716.682586 
L 732.249294 691.387035 
" clip-path="url(#p191d0504bb)" style="fill: none; stroke: #7a7a7a; stroke-width: 3; stroke-linecap: square"/>
   </g>
   <g id="line2d_43">
    <path d="M 722.483054 550.253919 
L 826.048919 484.806698 
L 897.546536 440.037588 
" clip-path="url(#p191d0504bb)" style="fill: none; stroke: #7a7a7a; stroke-width: 3; stroke-linecap: square"/>
   </g>
   <g id="line2d_44">
    <path d="M 728.823822 623.932231 
L 846.893281 545.435718 
L 902.939833 512.109833 
" clip-path="url(#p191d0504bb)" style="fill: none; stroke: #7a7a7a; stroke-width: 3; stroke-linecap: square"/>
   </g>
   <g id="line2d_45">
    <path d="M 929.721964 -1 
L 936.975905 84.093044 
L 992.658045 583.579804 
L 999.581871 661.6748 
" clip-path="url(#p191d0504bb)" style="fill: none; stroke: #7a7a7a; stroke-width: 3; stroke-linecap: square"/>
   </g>
   <g id="line2d_46">
    <path d="M 905.030509 -1 
L 978.008686 654.849016 
L 978.154451 655.250533 
L 980.122275 673.921059 
" clip-path="url(#p191d0504bb)" style="fill: none; stroke: #7a7a7a; stroke-width: 3; stroke-linecap: square"/>
   </g>
   <g id="line2d_47">
    <path d="M 999.581871 661.6748 
L 992.658045 583.579804 
L 936.975905 84.093044 
L 929.721964 -1 
" clip-path="url(#p191d0504bb)" style="fill: none; stroke: #7a7a7a; stroke-width: 3; stroke-linecap: square"/>
   </g>
   <g id="line2d_48">
    <path d="M 1025.673764 644.61034 
L 1025.455117 642.20124 
L 978.73751 105.373428 
L 970.38782 -1 
" clip-path="url(#p191d0504bb)" style="fill: none; stroke: #7a7a7a; stroke-width: 3; stroke-linecap: square"/>
   </g>
   <g id="line2d_49">
    <path d="M 902.939833 512.109833 
L 910.082306 505.28405 
L 927.64696 490.62869 
L 1057.231836 332.631874 
" clip-path="url(#p191d0504bb)" style="fill: none; stroke: #7a7a7a; stroke-width: 3; stroke-linecap: square"/>
   </g>
   <g id="line2d_50">
    <path d="M 907.895835 574.947195 
L 921.160428 564.708519 
L 971.449272 519.136375 
L 1019.551644 473.965748 
L 1035.804415 459.711905 
L 1067.945546 438.833038 
" clip-path="url(#p191d0504bb)" style="fill: none; stroke: #7a7a7a; stroke-width: 3; stroke-linecap: square"/>
   </g>
   <g id="line2d_51">
    <path d="M 728.823822 623.932231 
L 846.893281 545.435718 
L 902.939833 512.109833 
" clip-path="url(#p191d0504bb)" style="fill: none; stroke: #7a7a7a; stroke-width: 3; stroke-linecap: square"/>
   </g>
   <g id="line2d_52">
    <path d="M 732.249294 691.387035 
L 732.467941 691.387035 
L 907.895835 574.947195 
" clip-path="url(#p191d0504bb)" style="fill: none; stroke: #7a7a7a; stroke-width: 3; stroke-linecap: square"/>
   </g>
   <g id="line2d_53">
    <path d="M 1052.130069 259.756595 
L 1037.845122 270.196029 
L 1012.627818 296.896888 
L 922.399429 410.526111 
L 905.490716 426.787537 
L 897.546536 440.037588 
" clip-path="url(#p191d0504bb)" style="fill: none; stroke: #7a7a7a; stroke-width: 3; stroke-linecap: square"/>
   </g>
   <g id="line2d_54">
    <path d="M 1047.684244 196.718475 
L 1031.941649 210.972317 
L 1017.219408 227.032985 
L 915.329838 348.491783 
L 901.700832 360.336525 
L 891.132887 367.162309 
" clip-path="url(#p191d0504bb)" style="fill: none; stroke: #7a7a7a; stroke-width: 3; stroke-linecap: square"/>
   </g>
   <g id="line2d_55">
    <path d="M 999.581871 661.6748 
L 1033.326414 1060.983146 
" clip-path="url(#p191d0504bb)" style="fill: none; stroke: #7a7a7a; stroke-width: 3; stroke-linecap: square"/>
   </g>
   <g id="line2d_56">
    <path d="M 980.122275 673.921059 
L 988.21222 750.008471 
L 993.678398 802.004882 
L 999.873401 872.069544 
L 1013.210877 1072.62713 
" clip-path="url(#p191d0504bb)" style="fill: none; stroke: #7a7a7a; stroke-width: 3; stroke-linecap: square"/>
   </g>
   <g id="line2d_57">
    <path d="M 1033.326414 1060.983146 
L 999.581871 661.6748 
" clip-path="url(#p191d0504bb)" style="fill: none; stroke: #7a7a7a; stroke-width: 3; stroke-linecap: square"/>
   </g>
   <g id="line2d_58">
    <path d="M 1056.867424 1047.13082 
L 1044.696066 885.319595 
L 1025.673764 644.61034 
" clip-path="url(#p191d0504bb)" style="fill: none; stroke: #7a7a7a; stroke-width: 3; stroke-linecap: square"/>
   </g>
   <g id="line2d_59">
    <path d="M 1057.231836 332.631874 
L 897.546536 440.037588 
" clip-path="url(#p191d0504bb)" style="fill: none; stroke: #7a7a7a; stroke-width: 3; stroke-linecap: square"/>
   </g>
   <g id="line2d_60">
    <path d="M 1052.130069 259.756595 
L 891.132887 367.162309 
" clip-path="url(#p191d0504bb)" style="fill: none; stroke: #7a7a7a; stroke-width: 3; stroke-linecap: square"/>
   </g>
   <g id="line2d_61">
    <path d="M 999.581871 661.6748 
L 999.071695 656.655841 
L 997.322517 633.167115 
L 993.678398 605.663222 
L 988.21222 575.147953 
L 981.069746 543.026618 
L 972.469625 510.503767 
L 962.484739 478.984706 
L 951.260852 449.47323 
L 938.943729 423.173887 
L 925.679136 401.291227 
L 911.612836 385.23056 
L 891.132887 367.162309 
" clip-path="url(#p191d0504bb)" style="fill: none; stroke: #7a7a7a; stroke-width: 3; stroke-linecap: square"/>
   </g>
   <g id="line2d_62">
    <path d="M 1025.673764 644.61034 
L 1021.810998 608.473838 
L 1016.709231 576.553262 
L 1013.575289 560.091078 
L 1010.368464 544.231168 
L 1006.432815 526.965951 
L 1001.98699 512.310592 
L 992.730927 481.393807 
L 982.381629 451.88233 
L 971.157742 424.579195 
L 959.205032 400.086677 
L 946.742144 379.007051 
L 933.914845 361.942592 
L 920.868899 349.294816 
L 907.822952 342.067516 
L 894.922771 340.662207 
L 888.144709 337.450074 
" clip-path="url(#p191d0504bb)" style="fill: none; stroke: #7a7a7a; stroke-width: 3; stroke-linecap: square"/>
   </g>
   <g id="line2d_63">
    <path d="M 1052.130069 259.756595 
L 1036.970533 265.980103 
L 1022.321175 266.38162 
L 1008.40064 260.961145 
L 995.281811 250.722469 
L 983.110453 235.665593 
L 971.959448 216.794309 
L 961.974562 194.108616 
L 953.228676 168.612306 
L 945.940438 140.30538 
L 940.109847 109.99087 
L 935.955552 78.070293 
L 929.495847 -1 
" clip-path="url(#p191d0504bb)" style="fill: none; stroke: #7a7a7a; stroke-width: 3; stroke-linecap: square"/>
   </g>
   <g id="line2d_64">
    <path d="M 1047.684244 196.718475 
L 1041.853653 200.532883 
L 1034.784062 204.146533 
L 1026.47547 206.756392 
L 1018.021114 206.756392 
L 1012.482053 204.347292 
L 1010.951523 203.3435 
L 1005.849756 198.324541 
L 1002.497167 193.907858 
L 998.051341 186.680557 
L 993.605516 177.445674 
L 989.961397 168.21079 
L 987.118984 159.176664 
L 984.640983 148.937989 
L 982.673159 137.695521 
L 980.486687 121.634854 
L 978.73751 105.373428 
L 970.38782 -1 
" clip-path="url(#p191d0504bb)" style="fill: none; stroke: #7a7a7a; stroke-width: 3; stroke-linecap: square"/>
   </g>
   <g id="line2d_65">
    <path d="M 1052.130069 259.756595 
L 891.132887 367.162309 
" clip-path="url(#p191d0504bb)" style="fill: none; stroke: #7a7a7a; stroke-width: 3; stroke-linecap: square"/>
   </g>
   <g id="line2d_66">
    <path d="M 1047.684244 196.718475 
L 888.144709 337.450074 
" clip-path="url(#p191d0504bb)" style="fill: none; stroke: #7a7a7a; stroke-width: 3; stroke-linecap: square"/>
   </g>
   <g id="line2d_67">
    <path d="M 999.581871 661.6748 
L 993.605516 571.132786 
L 993.095339 533.590976 
L 994.115693 498.257508 
L 996.885223 465.333139 
L 1001.476813 435.018629 
L 1008.10911 407.715494 
L 1016.854996 383.624493 
L 1027.933118 362.946384 
L 1057.231836 332.631874 
" clip-path="url(#p191d0504bb)" style="fill: none; stroke: #7a7a7a; stroke-width: 3; stroke-linecap: square"/>
   </g>
   <g id="line2d_68">
    <path d="M 1025.673764 644.61034 
L 1022.685586 610.079905 
L 1022.466939 606.064738 
L 1019.041467 559.087286 
L 1019.405879 521.344717 
L 1023.341528 493.840824 
L 1030.484001 473.965748 
L 1040.54177 459.711905 
L 1053.150422 448.670197 
L 1067.945546 438.833038 
" clip-path="url(#p191d0504bb)" style="fill: none; stroke: #7a7a7a; stroke-width: 3; stroke-linecap: square"/>
   </g>
   <g id="line2d_69">
    <path clip-path="url(#p191d0504bb)" style="fill: none; stroke: #7a7a7a; stroke-width: 3; stroke-linecap: square"/>
   </g>
   <g id="line2d_70">
    <path clip-path="url(#p191d0504bb)" style="fill: none; stroke: #7a7a7a; stroke-width: 3; stroke-linecap: square"/>
   </g>
   <g id="line2d_71">
    <path d="M 999.581871 661.6748 
L 998.853048 651.235366 
L 995.57334 619.114031 
L 990.325809 587.394212 
L 983.256218 556.878944 
L 974.510332 528.371259 
L 964.306798 502.674191 
L 952.7185 480.590773 
L 940.036965 462.522522 
L 926.335077 449.673988 
L 911.758601 442.446688 
L 897.546536 440.037588 
" clip-path="url(#p191d0504bb)" style="fill: none; stroke: #7a7a7a; stroke-width: 3; stroke-linecap: square"/>
   </g>
   <g id="line2d_72">
    <path d="M 1025.673764 644.61034 
L 1024.434764 630.758015 
L 1020.35335 597.43213 
L 1014.23123 561.897903 
L 1006.57858 528.170501 
L 997.614047 496.249924 
L 987.483396 466.939206 
L 976.259509 440.639863 
L 964.233916 417.753412 
L 951.406617 398.681369 
L 938.069141 383.624493 
L 924.221488 373.586576 
L 910.082306 368.366859 
L 895.870242 368.969134 
L 891.132887 367.162309 
" clip-path="url(#p191d0504bb)" style="fill: none; stroke: #7a7a7a; stroke-width: 3; stroke-linecap: square"/>
   </g>
   <g id="line2d_73">
    <path d="M 1333.383182 164.797898 
L 1255.107503 212.377625 
L 1191.189654 251.123986 
L 1116.558095 296.495372 
L 1104.605384 303.722672 
L 1057.231836 332.631874 
" clip-path="url(#p191d0504bb)" style="fill: none; stroke: #7a7a7a; stroke-width: 3; stroke-linecap: square"/>
   </g>
   <g id="line2d_74">
    <path d="M 1327.042414 86.702902 
L 1249.349795 135.687938 
L 1185.723475 175.638848 
L 1111.019034 222.817059 
L 1052.130069 259.756595 
" clip-path="url(#p191d0504bb)" style="fill: none; stroke: #7a7a7a; stroke-width: 3; stroke-linecap: square"/>
   </g>
   <g id="line2d_75">
    <path d="M 999.581871 661.6748 
L 995.57334 591.007863 
L 995.646223 566.515345 
L 997.322517 540.818277 
L 1000.820872 518.132584 
L 1004.683638 502.674191 
L 1009.785405 487.818074 
L 1017.510937 477.780156 
L 1027.277177 468.143756 
L 1036.897651 459.912664 
L 1055.701306 446.863371 
L 1067.945546 438.833038 
" clip-path="url(#p191d0504bb)" style="fill: none; stroke: #7a7a7a; stroke-width: 3; stroke-linecap: square"/>
   </g>
   <g id="line2d_76">
    <path d="M 1025.673764 644.61034 
L 1024.507646 631.159531 
L 1023.122881 615.500381 
L 1022.685586 610.079905 
L 1020.717762 565.310794 
L 1020.790645 560.492594 
L 1020.936409 549.049369 
L 1021.300821 537.204626 
L 1021.373704 535.59856 
L 1021.373704 526.564434 
L 1023.122881 514.719692 
L 1026.621235 503.477224 
L 1032.816238 492.636274 
L 1070.496429 466.939206 
" clip-path="url(#p191d0504bb)" style="fill: none; stroke: #7a7a7a; stroke-width: 3; stroke-linecap: square"/>
   </g>
   <g id="line2d_77">
    <path clip-path="url(#p191d0504bb)" style="fill: none; stroke: #7a7a7a; stroke-width: 3; stroke-linecap: square"/>
   </g>
   <g id="line2d_78">
    <path clip-path="url(#p191d0504bb)" style="fill: none; stroke: #7a7a7a; stroke-width: 3; stroke-linecap: square"/>
   </g>
   <g id="line2d_79">
    <path d="M 902.939833 512.109833 
L 1034.201003 461.920247 
L 1067.945546 438.833038 
" clip-path="url(#p191d0504bb)" style="fill: none; stroke: #7a7a7a; stroke-width: 3; stroke-linecap: square"/>
   </g>
   <g id="line2d_80">
    <path d="M 907.895835 574.947195 
L 1070.496429 466.939206 
" clip-path="url(#p191d0504bb)" style="fill: none; stroke: #7a7a7a; stroke-width: 3; stroke-linecap: square"/>
   </g>
   <g id="line2d_81">
    <path d="M 891.132887 367.162309 
L 715.194816 479.78774 
" clip-path="url(#p191d0504bb)" style="fill: none; stroke: #7a7a7a; stroke-width: 3; stroke-linecap: square"/>
   </g>
   <g id="line2d_82">
    <path d="M 888.144709 337.450074 
L 765.337895 420.162512 
L 714.247345 450.477022 
" clip-path="url(#p191d0504bb)" style="fill: none; stroke: #7a7a7a; stroke-width: 3; stroke-linecap: square"/>
   </g>
   <g id="line2d_83">
    <path d="M 715.194816 479.78774 
L 660.022853 514.318175 
L 659.585559 514.719692 
" clip-path="url(#p191d0504bb)" style="fill: none; stroke: #7a7a7a; stroke-width: 3; stroke-linecap: square"/>
   </g>
   <g id="line2d_84">
    <path d="M 714.247345 450.477022 
L 660.022853 482.999873 
L 659.585559 483.200632 
" clip-path="url(#p191d0504bb)" style="fill: none; stroke: #7a7a7a; stroke-width: 3; stroke-linecap: square"/>
   </g>
   <g id="line2d_85">
    <path d="M 897.546536 440.037588 
L 908.187364 421.166303 
L 916.058661 406.510944 
L 923.05537 388.442693 
L 929.17749 366.760792 
L 934.279257 340.662207 
L 938.142023 310.146939 
L 940.765789 275.014229 
L 941.931907 234.461043 
L 941.567495 188.487382 
L 939.599671 136.69173 
L 930.197844 14.028381 
L 929.07049 -1 
" clip-path="url(#p191d0504bb)" style="fill: none; stroke: #7a7a7a; stroke-width: 3; stroke-linecap: square"/>
   </g>
   <g id="line2d_86">
    <path d="M 902.939833 512.109833 
L 910.665365 501.068124 
L 920.723134 485.408974 
L 931.801256 468.344514 
L 941.71326 449.071713 
L 950.459146 427.59057 
L 958.038914 403.298811 
L 964.452563 376.397193 
L 969.700095 346.684958 
L 973.781508 314.162106 
L 976.696803 278.427121 
L 978.445981 239.480002 
L 978.956157 196.919233 
L 978.373098 151.14633 
L 976.551039 101.559019 
L 973.635743 48.358058 
L 969.98857 -1 
" clip-path="url(#p191d0504bb)" style="fill: none; stroke: #7a7a7a; stroke-width: 3; stroke-linecap: square"/>
   </g>
   <g id="line2d_87">
    <path d="M 902.939833 512.109833 
L 946.159085 498.458266 
L 959.132149 506.890116 
L 969.845859 521.545475 
L 978.664628 541.822068 
L 985.734219 566.716103 
L 991.491927 595.625304 
L 996.083517 627.345123 
L 999.581871 661.6748 
" clip-path="url(#p191d0504bb)" style="fill: none; stroke: #7a7a7a; stroke-width: 3; stroke-linecap: square"/>
   </g>
   <g id="line2d_88">
    <path d="M 907.895835 574.947195 
L 924.804547 566.314586 
L 930.416491 564.909278 
L 936.319964 566.515345 
L 938.6522 568.522928 
L 947.689615 571.93582 
L 960.225385 589.401796 
L 969.700095 614.496589 
L 976.259509 644.008065 
L 977.425627 653.042191 
L 978.154451 655.250533 
L 980.122275 673.921059 
" clip-path="url(#p191d0504bb)" style="fill: none; stroke: #7a7a7a; stroke-width: 3; stroke-linecap: square"/>
   </g>
   <g id="line2d_89">
    <path d="M 1057.231836 332.631874 
L 1027.933118 362.946384 
L 1016.854996 383.624493 
L 1008.10911 407.715494 
L 1001.476813 435.018629 
L 996.885223 465.333139 
L 994.115693 498.257508 
L 993.095339 533.590976 
L 993.605516 571.132786 
L 999.581871 661.6748 
" clip-path="url(#p191d0504bb)" style="fill: none; stroke: #7a7a7a; stroke-width: 3; stroke-linecap: square"/>
   </g>
   <g id="line2d_90">
    <path d="M 1052.130069 259.756595 
L 1038.501063 270.396787 
L 1025.819529 284.650629 
L 1014.304113 302.518122 
L 1003.881932 323.798506 
L 994.844516 348.692541 
L 987.046102 376.798709 
L 980.778217 408.317769 
L 976.113744 443.048963 
L 973.052684 481.193048 
L 971.740801 522.14775 
L 972.250978 566.515345 
L 974.656097 613.693555 
L 979.101922 663.883141 
L 980.122275 673.921059 
" clip-path="url(#p191d0504bb)" style="fill: none; stroke: #7a7a7a; stroke-width: 3; stroke-linecap: square"/>
   </g>
   <g id="line2d_91">
    <path d="M 722.483054 550.253919 
L 660.022853 590.004071 
L 659.585559 590.204829 
" clip-path="url(#p191d0504bb)" style="fill: none; stroke: #7a7a7a; stroke-width: 3; stroke-linecap: square"/>
   </g>
   <g id="line2d_92">
    <path d="M 715.194816 479.78774 
L 660.022853 514.318175 
L 659.585559 514.719692 
" clip-path="url(#p191d0504bb)" style="fill: none; stroke: #7a7a7a; stroke-width: 3; stroke-linecap: square"/>
   </g>
   <g id="line2d_93">
    <path d="M 1327.042414 86.702902 
L 1249.349795 135.687938 
L 1185.723475 175.638848 
L 1111.019034 222.817059 
L 1052.130069 259.756595 
" clip-path="url(#p191d0504bb)" style="fill: none; stroke: #7a7a7a; stroke-width: 3; stroke-linecap: square"/>
   </g>
   <g id="line2d_94">
    <path d="M 1315.672763 26.676157 
L 1244.539558 71.646026 
L 1181.131885 111.998453 
L 1106.281679 159.578181 
L 1047.684244 196.718475 
" clip-path="url(#p191d0504bb)" style="fill: none; stroke: #7a7a7a; stroke-width: 3; stroke-linecap: square"/>
   </g>
   <g id="line2d_95">
    <path d="M 929.07049 -1 
L 930.197844 14.028381 
L 939.599671 136.69173 
L 941.567495 188.487382 
L 941.931907 234.461043 
L 940.765789 275.014229 
L 938.142023 310.146939 
L 934.279257 340.662207 
L 929.17749 366.760792 
L 923.05537 388.442693 
L 916.058661 406.510944 
L 908.187364 421.166303 
L 897.546536 440.037588 
" clip-path="url(#p191d0504bb)" style="fill: none; stroke: #7a7a7a; stroke-width: 3; stroke-linecap: square"/>
   </g>
   <g id="line2d_96">
    <path d="M 903.932224 -1 
L 916.714603 143.91903 
L 917.880721 157.169081 
L 919.192604 177.445674 
L 920.650251 196.517716 
L 921.160428 211.173075 
L 920.28584 227.032985 
L 918.536662 255.339911 
L 916.93325 292.480205 
L 912.997601 321.790923 
L 906.21954 344.275858 
L 895.943124 361.741834 
L 891.132887 367.162309 
" clip-path="url(#p191d0504bb)" style="fill: none; stroke: #7a7a7a; stroke-width: 3; stroke-linecap: square"/>
   </g>
   <g id="line2d_97">
    <path d="M 926.623694 -1 
L 928.084254 38.922416 
L 933.76908 186.881316 
L 932.165668 246.105027 
L 929.031725 283.446079 
L 924.367253 312.154522 
L 916.058661 332.431115 
L 905.92801 351.3024 
L 891.132887 367.162309 
" clip-path="url(#p191d0504bb)" style="fill: none; stroke: #7a7a7a; stroke-width: 3; stroke-linecap: square"/>
   </g>
   <g id="line2d_98">
    <path d="M 903.931626 -1 
L 917.880721 157.169081 
L 919.192604 177.445674 
L 919.265486 182.263874 
L 919.629898 187.282832 
L 919.265486 223.620093 
L 917.662074 248.714886 
L 913.362013 277.222571 
L 908.041599 299.305988 
L 900.170302 318.57879 
L 888.144709 337.450074 
" clip-path="url(#p191d0504bb)" style="fill: none; stroke: #7a7a7a; stroke-width: 3; stroke-linecap: square"/>
   </g>
   <g id="line2d_99">
    <path d="M 929.601394 -1 
L 941.931907 146.930405 
L 946.815027 181.661599 
L 953.447323 213.782934 
L 961.464385 243.093652 
L 970.866213 269.192237 
L 981.361276 291.677171 
L 992.80381 310.146939 
L 1004.902285 324.60154 
L 1017.656702 334.23794 
L 1030.702649 339.056141 
L 1043.967242 338.654624 
L 1057.231836 332.631874 
" clip-path="url(#p191d0504bb)" style="fill: none; stroke: #7a7a7a; stroke-width: 3; stroke-linecap: square"/>
   </g>
   <g id="line2d_100">
    <path d="M 903.931626 -1 
L 917.880721 157.169081 
L 919.192604 178.650224 
L 922.326546 204.54805 
L 928.667313 243.29441 
L 936.174199 279.029396 
L 944.920085 311.953764 
L 954.613442 341.665999 
L 965.181387 367.965342 
L 976.551039 390.851793 
L 988.576632 409.923836 
L 1001.112401 425.382229 
L 1014.158348 436.624696 
L 1027.422941 443.851996 
L 1040.906182 446.863371 
L 1054.462305 445.257305 
L 1067.945546 438.833038 
" clip-path="url(#p191d0504bb)" style="fill: none; stroke: #7a7a7a; stroke-width: 3; stroke-linecap: square"/>
   </g>
   <g id="line2d_101">
    <path d="M 475.266014 707.246944 
L 652.734615 651.235366 
L 659.585559 649.027024 
" clip-path="url(#p191d0504bb)" style="fill: none; stroke: #7a7a7a; stroke-width: 3; stroke-linecap: square"/>
   </g>
   <g id="line2d_102">
    <path d="M 480.149134 781.126014 
L 659.585559 716.883344 
" clip-path="url(#p191d0504bb)" style="fill: none; stroke: #7a7a7a; stroke-width: 3; stroke-linecap: square"/>
   </g>
   <g id="line2d_103">
    <path d="M 659.585559 667.296033 
L 660.022853 666.894517 
L 728.823822 623.932231 
" clip-path="url(#p191d0504bb)" style="fill: none; stroke: #7a7a7a; stroke-width: 3; stroke-linecap: square"/>
   </g>
   <g id="line2d_104">
    <path d="M 659.585559 728.125812 
L 660.022853 727.925053 
L 732.249294 691.387035 
" clip-path="url(#p191d0504bb)" style="fill: none; stroke: #7a7a7a; stroke-width: 3; stroke-linecap: square"/>
   </g>
   <g id="line2d_105">
    <path d="M 929.588559 -1 
L 947.398086 213.180659 
L 952.208323 252.529294 
L 958.330443 289.067313 
L 965.691564 322.393198 
L 974.14592 352.306191 
L 983.62063 378.806293 
L 993.969928 401.090469 
L 1005.04805 419.359478 
L 1016.782114 433.211804 
L 1029.026354 442.446688 
L 1041.707888 446.461855 
L 1054.753835 445.458063 
L 1067.945546 438.833038 
" clip-path="url(#p191d0504bb)" style="fill: none; stroke: #7a7a7a; stroke-width: 3; stroke-linecap: square"/>
   </g>
   <g id="line2d_106">
    <path d="M 903.931626 -1 
L 917.880721 157.169081 
L 919.192604 177.445674 
L 923.857076 229.241326 
L 927.719843 266.783137 
L 932.748727 301.715089 
L 939.672553 334.037182 
L 947.762498 363.548659 
L 956.945678 390.04876 
L 967.149211 413.336728 
L 978.154451 433.412562 
L 989.961397 450.075505 
L 1002.351402 462.924039 
L 1015.324466 471.958164 
L 1028.734824 477.177881 
L 1042.509594 478.181673 
L 1056.430129 474.768781 
L 1070.496429 466.939206 
" clip-path="url(#p191d0504bb)" style="fill: none; stroke: #7a7a7a; stroke-width: 3; stroke-linecap: square"/>
   </g>
   <g id="line2d_107">
    <path d="M 307.69319 679.848331 
L 307.077533 683.548833 
" clip-path="url(#p191d0504bb)" style="fill: none; stroke-dasharray: 32,8,5,8; stroke-dashoffset: 0; stroke: #1e90ff; stroke-width: 5"/>
   </g>
   <g id="line2d_108">
    <path d="M 252.622151 741.997155 
L 253.615032 739.992512 
" clip-path="url(#p191d0504bb)" style="fill: none; stroke-dasharray: 32,8,5,8; stroke-dashoffset: 0; stroke: #1e90ff; stroke-width: 5"/>
   </g>
   <g id="line2d_109">
    <path d="M 145.764764 808.606185 
L 151.106388 806.934833 
" clip-path="url(#p191d0504bb)" style="fill: none; stroke-dasharray: 32,8,5,8; stroke-dashoffset: 0; stroke: #1e90ff; stroke-width: 5"/>
   </g>
   <g id="line2d_110">
    <path d="M 261.494016 837.724967 
L 518.21936 700.835812 
" clip-path="url(#p191d0504bb)" style="fill: none; stroke-dasharray: 32,8,5,8; stroke-dashoffset: 0; stroke: #1e90ff; stroke-width: 5"/>
   </g>
   <g id="line2d_111">
    <path d="M 575.535944 529.794212 
L 574.094667 524.515483 
" clip-path="url(#p191d0504bb)" style="fill: none; stroke-dasharray: 32,8,5,8; stroke-dashoffset: 0; stroke: #1e90ff; stroke-width: 5"/>
   </g>
   <g id="line2d_112">
    <path d="M 681.87376 682.279389 
L 753.1049 617.483849 
" clip-path="url(#p191d0504bb)" style="fill: none; stroke-dasharray: 32,8,5,8; stroke-dashoffset: 0; stroke: #1e90ff; stroke-width: 5"/>
   </g>
   <g id="line2d_113">
    <path d="M 886.552969 532.137047 
L 885.851903 532.690896 
" clip-path="url(#p191d0504bb)" style="fill: none; stroke-dasharray: 32,8,5,8; stroke-dashoffset: 0; stroke: #1e90ff; stroke-width: 5"/>
   </g>
   <g id="line2d_114">
    <path d="M 711.984006 427.08691 
L 710.909275 434.973145 
" clip-path="url(#p191d0504bb)" style="fill: none; stroke-dasharray: 32,8,5,8; stroke-dashoffset: 0; stroke: #1e90ff; stroke-width: 5"/>
   </g>
   <g id="line2d_115">
    <path d="M 854.695397 481.869039 
L 933.342889 431.218729 
" clip-path="url(#p191d0504bb)" style="fill: none; stroke-dasharray: 32,8,5,8; stroke-dashoffset: 0; stroke: #1e90ff; stroke-width: 5"/>
   </g>
   <g id="line2d_116">
    <path d="M 488.546835 573.288586 
L 489.952526 577.841919 
" clip-path="url(#p191d0504bb)" style="fill: none; stroke-dasharray: 32,8,5,8; stroke-dashoffset: 0; stroke: #1e90ff; stroke-width: 5"/>
   </g>
   <g id="line2d_117">
    <path d="M 1064.926194 483.726642 
L 1063.691321 474.267081 
" clip-path="url(#p191d0504bb)" style="fill: none; stroke-dasharray: 32,8,5,8; stroke-dashoffset: 0; stroke: #1e90ff; stroke-width: 5"/>
   </g>
   <g id="line2d_118">
    <path d="M 786.627949 656.49841 
L 785.652863 662.576056 
" clip-path="url(#p191d0504bb)" style="fill: none; stroke-dasharray: 32,8,5,8; stroke-dashoffset: 0; stroke: #1e90ff; stroke-width: 5"/>
   </g>
   <g id="line2d_119">
    <path d="M 1137.876191 272.621597 
L 1139.740956 271.548207 
" clip-path="url(#p191d0504bb)" style="fill: none; stroke-dasharray: 32,8,5,8; stroke-dashoffset: 0; stroke: #1e90ff; stroke-width: 5"/>
   </g>
   <g id="line2d_120">
    <path d="M 699.407524 682.57837 
L 860.819937 551.65413 
" clip-path="url(#p191d0504bb)" style="fill: none; stroke-dasharray: 32,8,5,8; stroke-dashoffset: 0; stroke: #1e90ff; stroke-width: 5"/>
   </g>
   <g id="line2d_121">
    <path d="M 307.69319 679.848331 
" clip-path="url(#p191d0504bb)" style="fill: none; stroke: #0000ff; stroke-width: 1.5; stroke-linecap: square"/>
    <defs>
     <path id="mcaee2befc4" d="M 0 10 
C 2.652031 10 5.195799 8.946337 7.071068 7.071068 
C 8.946337 5.195799 10 2.652031 10 0 
C 10 -2.652031 8.946337 -5.195799 7.071068 -7.071068 
C 5.195799 -8.946337 2.652031 -10 0 -10 
C -2.652031 -10 -5.195799 -8.946337 -7.071068 -7.071068 
C -8.946337 -5.195799 -10 -2.652031 -10 0 
C -10 2.652031 -8.946337 5.195799 -7.071068 7.071068 
C -5.195799 8.946337 -2.652031 10 0 10 
z
" style="stroke: #0000ff"/>
    </defs>
    <g clip-path="url(#p191d0504bb)">
     <use xlink:href="#mcaee2befc4" x="307.69319" y="679.848331" style="fill: #0000ff; stroke: #0000ff"/>
    </g>
   </g>
   <g id="line2d_122">
    <path d="M 252.622151 741.997155 
" clip-path="url(#p191d0504bb)" style="fill: none; stroke: #0000ff; stroke-width: 1.5; stroke-linecap: square"/>
    <g clip-path="url(#p191d0504bb)">
     <use xlink:href="#mcaee2befc4" x="252.622151" y="741.997155" style="fill: #0000ff; stroke: #0000ff"/>
    </g>
   </g>
   <g id="line2d_123">
    <path d="M 145.764764 808.606185 
" clip-path="url(#p191d0504bb)" style="fill: none; stroke: #0000ff; stroke-width: 1.5; stroke-linecap: square"/>
    <g clip-path="url(#p191d0504bb)">
     <use xlink:href="#mcaee2befc4" x="145.764764" y="808.606185" style="fill: #0000ff; stroke: #0000ff"/>
    </g>
   </g>
   <g id="line2d_124">
    <path d="M 261.494016 837.724967 
" clip-path="url(#p191d0504bb)" style="fill: none; stroke: #0000ff; stroke-width: 1.5; stroke-linecap: square"/>
    <g clip-path="url(#p191d0504bb)">
     <use xlink:href="#mcaee2befc4" x="261.494016" y="837.724967" style="fill: #0000ff; stroke: #0000ff"/>
    </g>
   </g>
   <g id="line2d_125">
    <path d="M 575.535944 529.794212 
" clip-path="url(#p191d0504bb)" style="fill: none; stroke: #0000ff; stroke-width: 1.5; stroke-linecap: square"/>
    <g clip-path="url(#p191d0504bb)">
     <use xlink:href="#mcaee2befc4" x="575.535944" y="529.794212" style="fill: #0000ff; stroke: #0000ff"/>
    </g>
   </g>
   <g id="line2d_126">
    <path d="M 681.87376 682.279389 
" clip-path="url(#p191d0504bb)" style="fill: none; stroke: #0000ff; stroke-width: 1.5; stroke-linecap: square"/>
    <g clip-path="url(#p191d0504bb)">
     <use xlink:href="#mcaee2befc4" x="681.87376" y="682.279389" style="fill: #0000ff; stroke: #0000ff"/>
    </g>
   </g>
   <g id="line2d_127">
    <path d="M 886.552969 532.137047 
" clip-path="url(#p191d0504bb)" style="fill: none; stroke: #0000ff; stroke-width: 1.5; stroke-linecap: square"/>
    <g clip-path="url(#p191d0504bb)">
     <use xlink:href="#mcaee2befc4" x="886.552969" y="532.137047" style="fill: #0000ff; stroke: #0000ff"/>
    </g>
   </g>
   <g id="line2d_128">
    <path d="M 711.984006 427.08691 
" clip-path="url(#p191d0504bb)" style="fill: none; stroke: #0000ff; stroke-width: 1.5; stroke-linecap: square"/>
    <g clip-path="url(#p191d0504bb)">
     <use xlink:href="#mcaee2befc4" x="711.984006" y="427.08691" style="fill: #0000ff; stroke: #0000ff"/>
    </g>
   </g>
   <g id="line2d_129">
    <path d="M 854.695397 481.869039 
" clip-path="url(#p191d0504bb)" style="fill: none; stroke: #0000ff; stroke-width: 1.5; stroke-linecap: square"/>
    <g clip-path="url(#p191d0504bb)">
     <use xlink:href="#mcaee2befc4" x="854.695397" y="481.869039" style="fill: #0000ff; stroke: #0000ff"/>
    </g>
   </g>
   <g id="line2d_130">
    <path d="M 488.546835 573.288586 
" clip-path="url(#p191d0504bb)" style="fill: none; stroke: #0000ff; stroke-width: 1.5; stroke-linecap: square"/>
    <g clip-path="url(#p191d0504bb)">
     <use xlink:href="#mcaee2befc4" x="488.546835" y="573.288586" style="fill: #0000ff; stroke: #0000ff"/>
    </g>
   </g>
   <g id="line2d_131">
    <path d="M 1064.926194 483.726642 
" clip-path="url(#p191d0504bb)" style="fill: none; stroke: #0000ff; stroke-width: 1.5; stroke-linecap: square"/>
    <g clip-path="url(#p191d0504bb)">
     <use xlink:href="#mcaee2befc4" x="1064.926194" y="483.726642" style="fill: #0000ff; stroke: #0000ff"/>
    </g>
   </g>
   <g id="line2d_132">
    <path d="M 786.627949 656.49841 
" clip-path="url(#p191d0504bb)" style="fill: none; stroke: #0000ff; stroke-width: 1.5; stroke-linecap: square"/>
    <g clip-path="url(#p191d0504bb)">
     <use xlink:href="#mcaee2befc4" x="786.627949" y="656.49841" style="fill: #0000ff; stroke: #0000ff"/>
    </g>
   </g>
   <g id="line2d_133">
    <path d="M 1137.876191 272.621597 
" clip-path="url(#p191d0504bb)" style="fill: none; stroke: #0000ff; stroke-width: 1.5; stroke-linecap: square"/>
    <g clip-path="url(#p191d0504bb)">
     <use xlink:href="#mcaee2befc4" x="1137.876191" y="272.621597" style="fill: #0000ff; stroke: #0000ff"/>
    </g>
   </g>
   <g id="line2d_134">
    <path d="M 699.407524 682.57837 
" clip-path="url(#p191d0504bb)" style="fill: none; stroke: #0000ff; stroke-width: 1.5; stroke-linecap: square"/>
    <g clip-path="url(#p191d0504bb)">
     <use xlink:href="#mcaee2befc4" x="699.407524" y="682.57837" style="fill: #0000ff; stroke: #0000ff"/>
    </g>
   </g>
   <g id="line2d_135">
    <path d="M 307.077533 683.548833 
" clip-path="url(#p191d0504bb)" style="fill: none; stroke: #ff0000; stroke-width: 1.5; stroke-linecap: square"/>
    <defs>
     <path id="m552fde7c93" d="M 0 -10 
L -2.24514 -3.09017 
L -9.510565 -3.09017 
L -3.632713 1.18034 
L -5.877853 8.09017 
L -0 3.81966 
L 5.877853 8.09017 
L 3.632713 1.18034 
L 9.510565 -3.09017 
L 2.24514 -3.09017 
z
" style="stroke: #ff0000; stroke-linejoin: bevel"/>
    </defs>
    <g clip-path="url(#p191d0504bb)">
     <use xlink:href="#m552fde7c93" x="307.077533" y="683.548833" style="fill: #ff0000; stroke: #ff0000; stroke-linejoin: bevel"/>
    </g>
   </g>
   <g id="line2d_136">
    <path d="M 253.615032 739.992512 
" clip-path="url(#p191d0504bb)" style="fill: none; stroke: #ff0000; stroke-width: 1.5; stroke-linecap: square"/>
    <g clip-path="url(#p191d0504bb)">
     <use xlink:href="#m552fde7c93" x="253.615032" y="739.992512" style="fill: #ff0000; stroke: #ff0000; stroke-linejoin: bevel"/>
    </g>
   </g>
   <g id="line2d_137">
    <path d="M 151.106388 806.934833 
" clip-path="url(#p191d0504bb)" style="fill: none; stroke: #ff0000; stroke-width: 1.5; stroke-linecap: square"/>
    <g clip-path="url(#p191d0504bb)">
     <use xlink:href="#m552fde7c93" x="151.106388" y="806.934833" style="fill: #ff0000; stroke: #ff0000; stroke-linejoin: bevel"/>
    </g>
   </g>
   <g id="line2d_138">
    <path d="M 518.21936 700.835812 
" clip-path="url(#p191d0504bb)" style="fill: none; stroke: #ff0000; stroke-width: 1.5; stroke-linecap: square"/>
    <g clip-path="url(#p191d0504bb)">
     <use xlink:href="#m552fde7c93" x="518.21936" y="700.835812" style="fill: #ff0000; stroke: #ff0000; stroke-linejoin: bevel"/>
    </g>
   </g>
   <g id="line2d_139">
    <path d="M 574.094667 524.515483 
" clip-path="url(#p191d0504bb)" style="fill: none; stroke: #ff0000; stroke-width: 1.5; stroke-linecap: square"/>
    <g clip-path="url(#p191d0504bb)">
     <use xlink:href="#m552fde7c93" x="574.094667" y="524.515483" style="fill: #ff0000; stroke: #ff0000; stroke-linejoin: bevel"/>
    </g>
   </g>
   <g id="line2d_140">
    <path d="M 753.1049 617.483849 
" clip-path="url(#p191d0504bb)" style="fill: none; stroke: #ff0000; stroke-width: 1.5; stroke-linecap: square"/>
    <g clip-path="url(#p191d0504bb)">
     <use xlink:href="#m552fde7c93" x="753.1049" y="617.483849" style="fill: #ff0000; stroke: #ff0000; stroke-linejoin: bevel"/>
    </g>
   </g>
   <g id="line2d_141">
    <path d="M 885.851903 532.690896 
" clip-path="url(#p191d0504bb)" style="fill: none; stroke: #ff0000; stroke-width: 1.5; stroke-linecap: square"/>
    <g clip-path="url(#p191d0504bb)">
     <use xlink:href="#m552fde7c93" x="885.851903" y="532.690896" style="fill: #ff0000; stroke: #ff0000; stroke-linejoin: bevel"/>
    </g>
   </g>
   <g id="line2d_142">
    <path d="M 710.909275 434.973145 
" clip-path="url(#p191d0504bb)" style="fill: none; stroke: #ff0000; stroke-width: 1.5; stroke-linecap: square"/>
    <g clip-path="url(#p191d0504bb)">
     <use xlink:href="#m552fde7c93" x="710.909275" y="434.973145" style="fill: #ff0000; stroke: #ff0000; stroke-linejoin: bevel"/>
    </g>
   </g>
   <g id="line2d_143">
    <path d="M 933.342889 431.218729 
" clip-path="url(#p191d0504bb)" style="fill: none; stroke: #ff0000; stroke-width: 1.5; stroke-linecap: square"/>
    <g clip-path="url(#p191d0504bb)">
     <use xlink:href="#m552fde7c93" x="933.342889" y="431.218729" style="fill: #ff0000; stroke: #ff0000; stroke-linejoin: bevel"/>
    </g>
   </g>
   <g id="line2d_144">
    <path d="M 489.952526 577.841919 
" clip-path="url(#p191d0504bb)" style="fill: none; stroke: #ff0000; stroke-width: 1.5; stroke-linecap: square"/>
    <g clip-path="url(#p191d0504bb)">
     <use xlink:href="#m552fde7c93" x="489.952526" y="577.841919" style="fill: #ff0000; stroke: #ff0000; stroke-linejoin: bevel"/>
    </g>
   </g>
   <g id="line2d_145">
    <path d="M 1063.691321 474.267081 
" clip-path="url(#p191d0504bb)" style="fill: none; stroke: #ff0000; stroke-width: 1.5; stroke-linecap: square"/>
    <g clip-path="url(#p191d0504bb)">
     <use xlink:href="#m552fde7c93" x="1063.691321" y="474.267081" style="fill: #ff0000; stroke: #ff0000; stroke-linejoin: bevel"/>
    </g>
   </g>
   <g id="line2d_146">
    <path d="M 785.652863 662.576056 
" clip-path="url(#p191d0504bb)" style="fill: none; stroke: #ff0000; stroke-width: 1.5; stroke-linecap: square"/>
    <g clip-path="url(#p191d0504bb)">
     <use xlink:href="#m552fde7c93" x="785.652863" y="662.576056" style="fill: #ff0000; stroke: #ff0000; stroke-linejoin: bevel"/>
    </g>
   </g>
   <g id="line2d_147">
    <path d="M 1139.740956 271.548207 
" clip-path="url(#p191d0504bb)" style="fill: none; stroke: #ff0000; stroke-width: 1.5; stroke-linecap: square"/>
    <g clip-path="url(#p191d0504bb)">
     <use xlink:href="#m552fde7c93" x="1139.740956" y="271.548207" style="fill: #ff0000; stroke: #ff0000; stroke-linejoin: bevel"/>
    </g>
   </g>
   <g id="line2d_148">
    <path d="M 860.819937 551.65413 
" clip-path="url(#p191d0504bb)" style="fill: none; stroke: #ff0000; stroke-width: 1.5; stroke-linecap: square"/>
    <g clip-path="url(#p191d0504bb)">
     <use xlink:href="#m552fde7c93" x="860.819937" y="551.65413" style="fill: #ff0000; stroke: #ff0000; stroke-linejoin: bevel"/>
    </g>
   </g>
  </g>
 </g>
 <defs>
  <clipPath id="p191d0504bb">
   <rect x="0" y="0" width="1440" height="1440"/>
  </clipPath>
 </defs>
</svg>
