<?xml version="1.0" encoding="utf-8" standalone="no"?>
<!DOCTYPE svg PUBLIC "-//W3C//DTD SVG 1.1//EN"
  "http://www.w3.org/Graphics/SVG/1.1/DTD/svg11.dtd">
<svg xmlns:xlink="http://www.w3.org/1999/xlink" width="1440pt" height="1440pt" viewBox="0 0 1440 1440" xmlns="http://www.w3.org/2000/svg" version="1.1">
 <metadata>
  <rdf:RDF xmlns:dc="http://purl.org/dc/elements/1.1/" xmlns:cc="http://creativecommons.org/ns#" xmlns:rdf="http://www.w3.org/1999/02/22-rdf-syntax-ns#">
   <cc:Work>
    <dc:type rdf:resource="http://purl.org/dc/dcmitype/StillImage"/>
    <dc:date>2026-02-27T11:11:54.307842</dc:date>
    <dc:format>image/svg+xml</dc:format>
    <dc:creator>
     <cc:Agent>
      <dc:title>Matplotlib v3.7.3, https://matplotlib.org/</dc:title>
     </cc:Agent>
    </dc:creator>
   </cc:Work>
  </rdf:RDF>
 </metadata>
 <defs>
  <style type="text/css">*{stroke-linejoin: round; stroke-linecap: butt}</style>
 </defs>
 <g id="figure_1">
  <g id="patch_1">
   <path d="M 0 1440 
L 1440 1440 
L 1440 0 
L 0 0 
z
" style="fill: #ffffff"/>
  </g>
  <g id="axes_1">
   <g id="line2d_1">
    <path d="M 1186.527464 156.241083 
L 825.00196 475.836823 
" clip-path="url(#p8818b4e424)" style="fill: none; stroke: #7a7a7a; stroke-width: 3; stroke-linecap: square"/>
   </g>
   <g id="line2d_2">
    <path d="M 1186.527464 118.46027 
L 782.944411 475.836823 
" clip-path="url(#p8818b4e424)" style="fill: none; stroke: #7a7a7a; stroke-width: 3; stroke-linecap: square"/>
   </g>
   <g id="line2d_3">
    <path d="M 667.834292 684.908272 
L 904.682082 475.836823 
" clip-path="url(#p8818b4e424)" style="fill: none; stroke: #7a7a7a; stroke-width: 3; stroke-linecap: square"/>
   </g>
   <g id="line2d_4">
    <path d="M 674.860494 715.995981 
L 676.953405 713.882369 
L 684.776907 707.01313 
L 690.059016 702.34557 
L 709.84201 685.084406 
L 757.430826 642.988302 
L 842.54255 567.602809 
L 900.54609 516.259652 
L 947.237944 475.836823 
" clip-path="url(#p8818b4e424)" style="fill: none; stroke: #7a7a7a; stroke-width: 3; stroke-linecap: square"/>
   </g>
   <g id="line2d_5">
    <path d="M 860.232633 475.836823 
L 1079.041522 283.145867 
L 1186.527464 187.592994 
" clip-path="url(#p8818b4e424)" style="fill: none; stroke: #7a7a7a; stroke-width: 3; stroke-linecap: square"/>
   </g>
   <g id="line2d_6">
    <path d="M 904.682082 475.836823 
L 1186.527464 226.606748 
" clip-path="url(#p8818b4e424)" style="fill: none; stroke: #7a7a7a; stroke-width: 3; stroke-linecap: square"/>
   </g>
   <g id="line2d_7">
    <path d="M 447.978948 878.656034 
L 456.500086 871.346459 
L 465.469706 866.326631 
L 474.738313 863.332347 
L 484.156414 862.451676 
L 493.624346 863.508482 
L 502.992615 866.326631 
L 512.111728 870.906123 
L 520.882023 877.070825 
L 529.154006 884.732668 
L 536.778182 893.803586 
L 543.605059 904.107444 
L 549.584806 915.73231 
L 554.468265 928.325915 
L 555.06624 930.439527 
" clip-path="url(#p8818b4e424)" style="fill: none; stroke: #7a7a7a; stroke-width: 3; stroke-linecap: square"/>
   </g>
   <g id="line2d_8">
    <path d="M 457.845529 908.246601 
L 463.924938 903.667109 
L 471.798271 902.169967 
L 480.867553 903.755176 
L 490.385316 908.510803 
L 499.753586 916.436847 
L 508.324555 927.621377 
L 515.45042 941.976325 
L 521.081348 961.70337 
" clip-path="url(#p8818b4e424)" style="fill: none; stroke: #7a7a7a; stroke-width: 3; stroke-linecap: square"/>
   </g>
   <g id="line2d_9">
    <path d="M 904.682082 475.836823 
L 1186.527464 226.606748 
" clip-path="url(#p8818b4e424)" style="fill: none; stroke: #7a7a7a; stroke-width: 3; stroke-linecap: square"/>
   </g>
   <g id="line2d_10">
    <path d="M 947.237944 475.836823 
L 947.387438 475.748756 
L 1186.527464 262.978487 
" clip-path="url(#p8818b4e424)" style="fill: none; stroke: #7a7a7a; stroke-width: 3; stroke-linecap: square"/>
   </g>
   <g id="line2d_11">
    <path d="M 825.00196 475.836823 
L 653.333407 627.664615 
" clip-path="url(#p8818b4e424)" style="fill: none; stroke: #7a7a7a; stroke-width: 3; stroke-linecap: square"/>
   </g>
   <g id="line2d_12">
    <path d="M 782.944411 475.836823 
L 645.559736 597.017242 
" clip-path="url(#p8818b4e424)" style="fill: none; stroke: #7a7a7a; stroke-width: 3; stroke-linecap: square"/>
   </g>
   <g id="line2d_13">
    <path d="M -1 1274.875917 
L 140.071838 1150.695505 
" clip-path="url(#p8818b4e424)" style="fill: none; stroke: #7a7a7a; stroke-width: 3; stroke-linecap: square"/>
   </g>
   <g id="line2d_14">
    <path d="M -1 1311.788958 
L 55.109607 1262.276603 
L 140.071838 1189.004722 
" clip-path="url(#p8818b4e424)" style="fill: none; stroke: #7a7a7a; stroke-width: 3; stroke-linecap: square"/>
   </g>
   <g id="line2d_15">
    <path d="M 140.071838 1112.562423 
L -1 1237.180343 
" clip-path="url(#p8818b4e424)" style="fill: none; stroke: #7a7a7a; stroke-width: 3; stroke-linecap: square"/>
   </g>
   <g id="line2d_16">
    <path d="M 140.071838 1082.355385 
L -1 1205.274725 
" clip-path="url(#p8818b4e424)" style="fill: none; stroke: #7a7a7a; stroke-width: 3; stroke-linecap: square"/>
   </g>
   <g id="line2d_17">
    <path d="M 568.620332 919.519198 
L 566.377927 909.039206 
L 565.032484 897.678541 
L 564.484341 885.525273 
L 564.882991 872.667467 
L 566.128771 859.193191 
L 568.321345 845.278579 
L 571.460712 831.011698 
L 575.49704 816.568683 
L 580.529994 801.949534 
L 586.559571 787.330384 
L 593.585773 772.799302 
L 601.6086 758.444354 
L 610.677882 744.529742 
L 620.79362 730.967399 
L 631.955813 717.933459 
L 644.214293 705.692123 
L 667.834292 684.908272 
" clip-path="url(#p8818b4e424)" style="fill: none; stroke: #7a7a7a; stroke-width: 3; stroke-linecap: square"/>
   </g>
   <g id="line2d_18">
    <path d="M 600.163494 892.394512 
L 598.369571 883.147459 
L 596.974296 873.81234 
L 596.276659 867.119235 
L 596.127166 860.866467 
L 596.475984 855.142101 
L 596.426153 852.67622 
L 597.422777 839.554213 
L 599.615351 826.520272 
L 603.003874 813.486332 
L 607.638178 800.628526 
L 613.568093 787.77072 
L 620.79362 775.000981 
L 629.414421 762.31931 
L 639.430496 749.725705 
L 650.841846 737.1321 
L 674.860494 715.995981 
" clip-path="url(#p8818b4e424)" style="fill: none; stroke: #7a7a7a; stroke-width: 3; stroke-linecap: square"/>
   </g>
   <g id="line2d_19">
    <path d="M -1 1205.553192 
L 140.071838 1082.619587 
" clip-path="url(#p8818b4e424)" style="fill: none; stroke: #7a7a7a; stroke-width: 3; stroke-linecap: square"/>
   </g>
   <g id="line2d_20">
    <path d="M -1 1237.531917 
L 140.071838 1112.914692 
" clip-path="url(#p8818b4e424)" style="fill: none; stroke: #7a7a7a; stroke-width: 3; stroke-linecap: square"/>
   </g>
   <g id="line2d_21">
    <path d="M 782.944411 475.836823 
L 645.559736 597.017242 
" clip-path="url(#p8818b4e424)" style="fill: none; stroke: #7a7a7a; stroke-width: 3; stroke-linecap: square"/>
   </g>
   <g id="line2d_22">
    <path d="M 739.491586 475.836823 
L 637.686403 565.929533 
" clip-path="url(#p8818b4e424)" style="fill: none; stroke: #7a7a7a; stroke-width: 3; stroke-linecap: square"/>
   </g>
   <g id="line2d_23">
    <path d="M 140.071838 1150.695505 
L 447.978948 878.656034 
" clip-path="url(#p8818b4e424)" style="fill: none; stroke: #7a7a7a; stroke-width: 3; stroke-linecap: square"/>
   </g>
   <g id="line2d_24">
    <path d="M 140.071838 1189.004722 
L 457.845529 908.246601 
" clip-path="url(#p8818b4e424)" style="fill: none; stroke: #7a7a7a; stroke-width: 3; stroke-linecap: square"/>
   </g>
   <g id="line2d_25">
    <path d="M 859.983477 475.836823 
L 659.711803 652.851824 
" clip-path="url(#p8818b4e424)" style="fill: none; stroke: #7a7a7a; stroke-width: 3; stroke-linecap: square"/>
   </g>
   <g id="line2d_26">
    <path d="M 825.00196 475.836823 
L 653.333407 627.664615 
" clip-path="url(#p8818b4e424)" style="fill: none; stroke: #7a7a7a; stroke-width: 3; stroke-linecap: square"/>
   </g>
   <g id="line2d_27">
    <path d="M 659.711803 652.851824 
L 580.629656 722.689086 
L 574.051935 731.143533 
L 567.773201 741.711593 
L 561.942949 754.040996 
L 556.611008 767.955608 
L 551.926873 783.191228 
L 547.990207 799.395586 
L 544.85084 816.304481 
L 542.658266 833.653713 
L 541.512148 851.091011 
L 541.512148 868.440243 
L 542.757929 885.349138 
L 545.398983 901.46543 
L 549.435312 916.612982 
L 555.06624 930.439527 
" clip-path="url(#p8818b4e424)" style="fill: none; stroke: #7a7a7a; stroke-width: 3; stroke-linecap: square"/>
   </g>
   <g id="line2d_28">
    <path d="M 653.333407 627.664615 
L 581.078137 691.513309 
L 572.008855 698.999018 
L 563.338223 708.334138 
L 555.116071 719.4306 
L 547.392232 731.936138 
L 540.166705 745.762683 
L 533.588984 760.734101 
L 527.559407 776.498123 
L 522.277297 792.966683 
L 517.692825 809.963646 
L 513.855821 827.136743 
L 510.816117 844.485974 
L 508.623543 861.659071 
L 507.327931 878.567967 
L 507.028944 894.948459 
L 507.67675 910.536347 
L 509.371011 925.243564 
L 512.111728 938.805907 
L 515.998563 951.047243 
L 521.081348 961.70337 
" clip-path="url(#p8818b4e424)" style="fill: none; stroke: #7a7a7a; stroke-width: 3; stroke-linecap: square"/>
   </g>
   <g id="line2d_29">
    <path d="M 589.748769 1001.597796 
L 588.95147 997.194437 
L 568.620332 919.519198 
" clip-path="url(#p8818b4e424)" style="fill: none; stroke: #7a7a7a; stroke-width: 3; stroke-linecap: square"/>
   </g>
   <g id="line2d_30">
    <path d="M 626.474379 979.845206 
L 624.381468 975.001512 
L 618.800371 959.325557 
L 608.883958 925.948101 
L 606.292735 917.053318 
L 602.156743 901.641564 
L 600.661807 895.036526 
L 600.163494 892.394512 
" clip-path="url(#p8818b4e424)" style="fill: none; stroke: #7a7a7a; stroke-width: 3; stroke-linecap: square"/>
   </g>
   <g id="line2d_31">
    <path d="M 824.952129 475.836823 
L 1186.527464 156.241083 
" clip-path="url(#p8818b4e424)" style="fill: none; stroke: #7a7a7a; stroke-width: 3; stroke-linecap: square"/>
   </g>
   <g id="line2d_32">
    <path d="M 860.232633 475.836823 
L 1079.041522 283.145867 
L 1186.527464 187.592994 
" clip-path="url(#p8818b4e424)" style="fill: none; stroke: #7a7a7a; stroke-width: 3; stroke-linecap: square"/>
   </g>
   <g id="line2d_33">
    <path d="M 659.711803 652.851824 
L 438.062535 848.801265 
" clip-path="url(#p8818b4e424)" style="fill: none; stroke: #7a7a7a; stroke-width: 3; stroke-linecap: square"/>
   </g>
   <g id="line2d_34">
    <path d="M 653.333407 627.664615 
L 430.139371 825.023131 
" clip-path="url(#p8818b4e424)" style="fill: none; stroke: #7a7a7a; stroke-width: 3; stroke-linecap: square"/>
   </g>
   <g id="line2d_35">
    <path d="M 140.071838 1082.619587 
L 430.039708 824.670862 
" clip-path="url(#p8818b4e424)" style="fill: none; stroke: #7a7a7a; stroke-width: 3; stroke-linecap: square"/>
   </g>
   <g id="line2d_36">
    <path d="M 140.071838 1112.914692 
L 438.062535 848.801265 
" clip-path="url(#p8818b4e424)" style="fill: none; stroke: #7a7a7a; stroke-width: 3; stroke-linecap: square"/>
   </g>
   <g id="line2d_37">
    <path d="M 438.062535 848.801265 
L 140.071838 1112.562423 
" clip-path="url(#p8818b4e424)" style="fill: none; stroke: #7a7a7a; stroke-width: 3; stroke-linecap: square"/>
   </g>
   <g id="line2d_38">
    <path d="M 430.139371 825.023131 
L 140.071838 1082.355385 
" clip-path="url(#p8818b4e424)" style="fill: none; stroke: #7a7a7a; stroke-width: 3; stroke-linecap: square"/>
   </g>
   <g id="line2d_39">
    <path d="M 438.062535 848.801265 
L 577.340796 725.419168 
L 659.711803 652.851824 
" clip-path="url(#p8818b4e424)" style="fill: none; stroke: #7a7a7a; stroke-width: 3; stroke-linecap: square"/>
   </g>
   <g id="line2d_40">
    <path d="M 447.978948 878.656034 
L 591.144044 752.543854 
L 667.834292 684.908272 
" clip-path="url(#p8818b4e424)" style="fill: none; stroke: #7a7a7a; stroke-width: 3; stroke-linecap: square"/>
   </g>
   <g id="line2d_41">
    <path d="M 140.071838 1082.355385 
L -1 1205.274725 
" clip-path="url(#p8818b4e424)" style="fill: none; stroke: #7a7a7a; stroke-width: 3; stroke-linecap: square"/>
   </g>
   <g id="line2d_42">
    <path d="M 140.071838 1044.134236 
L -1 1167.856186 
" clip-path="url(#p8818b4e424)" style="fill: none; stroke: #7a7a7a; stroke-width: 3; stroke-linecap: square"/>
   </g>
   <g id="line2d_43">
    <path d="M 555.06624 930.439527 
L 560.547674 954.217661 
L 572.756323 1004.063676 
L 574.450585 1010.228378 
L 574.64991 1010.844848 
" clip-path="url(#p8818b4e424)" style="fill: none; stroke: #7a7a7a; stroke-width: 3; stroke-linecap: square"/>
   </g>
   <g id="line2d_44">
    <path d="M 521.081348 961.70337 
L 521.629491 963.376646 
L 523.473246 967.691937 
L 525.317002 973.064034 
L 527.609238 980.990079 
L 527.858394 981.958818 
L 529.851643 989.796796 
L 533.040841 1004.768213 
L 535.03409 1016.745348 
L 535.632064 1021.148706 
L 536.130376 1028.370214 
L 536.329701 1035.767855 
" clip-path="url(#p8818b4e424)" style="fill: none; stroke: #7a7a7a; stroke-width: 3; stroke-linecap: square"/>
   </g>
   <g id="line2d_45">
    <path d="M 1186.527464 187.857195 
L 859.983477 475.836823 
" clip-path="url(#p8818b4e424)" style="fill: none; stroke: #7a7a7a; stroke-width: 3; stroke-linecap: square"/>
   </g>
   <g id="line2d_46">
    <path d="M 1186.527464 156.241083 
L 825.00196 475.836823 
" clip-path="url(#p8818b4e424)" style="fill: none; stroke: #7a7a7a; stroke-width: 3; stroke-linecap: square"/>
   </g>
   <g id="line2d_47">
    <path d="M 447.978948 878.656034 
L 591.144044 752.543854 
L 667.834292 684.908272 
" clip-path="url(#p8818b4e424)" style="fill: none; stroke: #7a7a7a; stroke-width: 3; stroke-linecap: square"/>
   </g>
   <g id="line2d_48">
    <path d="M 457.845529 908.246601 
L 674.860494 715.995981 
" clip-path="url(#p8818b4e424)" style="fill: none; stroke: #7a7a7a; stroke-width: 3; stroke-linecap: square"/>
   </g>
   <g id="line2d_49">
    <path d="M 140.071838 1112.914692 
L 438.062535 848.801265 
" clip-path="url(#p8818b4e424)" style="fill: none; stroke: #7a7a7a; stroke-width: 3; stroke-linecap: square"/>
   </g>
   <g id="line2d_50">
    <path d="M 140.071838 1150.695505 
L 447.978948 878.656034 
" clip-path="url(#p8818b4e424)" style="fill: none; stroke: #7a7a7a; stroke-width: 3; stroke-linecap: square"/>
   </g>
   <g id="line2d_51">
    <path d="M 430.139371 825.023131 
L 140.071838 1082.355385 
" clip-path="url(#p8818b4e424)" style="fill: none; stroke: #7a7a7a; stroke-width: 3; stroke-linecap: square"/>
   </g>
   <g id="line2d_52">
    <path d="M 420.32262 795.432563 
L 140.071838 1044.134236 
" clip-path="url(#p8818b4e424)" style="fill: none; stroke: #7a7a7a; stroke-width: 3; stroke-linecap: square"/>
   </g>
   <g id="line2d_53">
    <path d="M 568.620332 919.519198 
L 565.331472 901.377362 
L 560.79683 884.908803 
L 555.165903 869.849317 
L 548.588181 856.463108 
L 541.113498 844.574041 
L 532.99101 834.182116 
L 524.320377 825.375399 
L 515.201264 818.065825 
L 505.832994 812.165325 
L 496.315231 807.850034 
L 486.797468 805.031884 
L 477.429199 803.62281 
L 468.359917 803.710877 
L 459.739116 805.208019 
L 451.666458 808.114235 
L 444.291437 812.517593 
L 430.139371 825.023131 
" clip-path="url(#p8818b4e424)" style="fill: none; stroke: #7a7a7a; stroke-width: 3; stroke-linecap: square"/>
   </g>
   <g id="line2d_54">
    <path d="M 600.163494 892.394512 
L 596.72514 877.335026 
L 592.290162 863.156213 
L 586.958221 849.770004 
L 580.77915 837.440601 
L 573.802779 825.903802 
L 566.178602 815.42381 
L 558.006282 805.824489 
L 549.285819 797.281974 
L 540.166705 789.796265 
L 530.648942 783.279295 
L 520.931854 777.907198 
L 511.015441 773.679974 
L 500.999366 770.509556 
L 491.033122 768.484011 
L 481.116709 767.603339 
L 471.34979 767.955608 
L 461.832027 769.540817 
L 452.663082 772.447033 
L 443.892788 776.498123 
L 435.620805 781.958287 
L 420.32262 795.432563 
" clip-path="url(#p8818b4e424)" style="fill: none; stroke: #7a7a7a; stroke-width: 3; stroke-linecap: square"/>
   </g>
   <g id="line2d_55">
    <path d="M 430.039708 824.670862 
L 568.171851 702.257503 
L 653.233744 627.312346 
" clip-path="url(#p8818b4e424)" style="fill: none; stroke: #7a7a7a; stroke-width: 3; stroke-linecap: square"/>
   </g>
   <g id="line2d_56">
    <path d="M 438.062535 848.801265 
L 577.340796 725.419168 
L 659.711803 652.851824 
" clip-path="url(#p8818b4e424)" style="fill: none; stroke: #7a7a7a; stroke-width: 3; stroke-linecap: square"/>
   </g>
   <g id="line2d_57">
    <path d="M 659.711803 652.851824 
L 860.232633 475.836823 
" clip-path="url(#p8818b4e424)" style="fill: none; stroke: #7a7a7a; stroke-width: 3; stroke-linecap: square"/>
   </g>
   <g id="line2d_58">
    <path d="M 667.834292 684.908272 
L 904.682082 475.836823 
" clip-path="url(#p8818b4e424)" style="fill: none; stroke: #7a7a7a; stroke-width: 3; stroke-linecap: square"/>
   </g>
   <g id="line2d_59">
    <path d="M 420.32262 795.432563 
L 140.071838 1044.134236 
" clip-path="url(#p8818b4e424)" style="fill: none; stroke: #7a7a7a; stroke-width: 3; stroke-linecap: square"/>
   </g>
   <g id="line2d_60">
    <path d="M 410.555701 766.106198 
L 140.071838 1005.032415 
" clip-path="url(#p8818b4e424)" style="fill: none; stroke: #7a7a7a; stroke-width: 3; stroke-linecap: square"/>
   </g>
   <g id="line2d_61">
    <path d="M 1186.527464 118.46027 
L 782.944411 475.836823 
" clip-path="url(#p8818b4e424)" style="fill: none; stroke: #7a7a7a; stroke-width: 3; stroke-linecap: square"/>
   </g>
   <g id="line2d_62">
    <path d="M 1186.527464 53.290568 
L 971.804735 262.890419 
L 942.653472 289.838972 
L 900.047778 331.142472 
L 877.773223 352.366659 
L 848.920946 378.698741 
L 739.491586 475.836823 
" clip-path="url(#p8818b4e424)" style="fill: none; stroke: #7a7a7a; stroke-width: 3; stroke-linecap: square"/>
   </g>
   <g id="line2d_63">
    <path d="M -1 1237.531917 
L 140.071838 1112.914692 
" clip-path="url(#p8818b4e424)" style="fill: none; stroke: #7a7a7a; stroke-width: 3; stroke-linecap: square"/>
   </g>
   <g id="line2d_64">
    <path d="M -1 1274.875917 
L 140.071838 1150.695505 
" clip-path="url(#p8818b4e424)" style="fill: none; stroke: #7a7a7a; stroke-width: 3; stroke-linecap: square"/>
   </g>
   <g id="line2d_65">
    <path d="M 653.333407 627.664615 
L 430.139371 825.023131 
" clip-path="url(#p8818b4e424)" style="fill: none; stroke: #7a7a7a; stroke-width: 3; stroke-linecap: square"/>
   </g>
   <g id="line2d_66">
    <path d="M 645.559736 597.017242 
L 420.32262 795.432563 
" clip-path="url(#p8818b4e424)" style="fill: none; stroke: #7a7a7a; stroke-width: 3; stroke-linecap: square"/>
   </g>
   <g id="line2d_67">
    <path d="M 140.071838 1044.134236 
L -1 1167.856186 
" clip-path="url(#p8818b4e424)" style="fill: none; stroke: #7a7a7a; stroke-width: 3; stroke-linecap: square"/>
   </g>
   <g id="line2d_68">
    <path d="M 140.071838 1005.032415 
L -1 1129.933019 
" clip-path="url(#p8818b4e424)" style="fill: none; stroke: #7a7a7a; stroke-width: 3; stroke-linecap: square"/>
   </g>
   <g id="line2d_69">
    <path d="M 653.233744 627.312346 
L 824.952129 475.836823 
" clip-path="url(#p8818b4e424)" style="fill: none; stroke: #7a7a7a; stroke-width: 3; stroke-linecap: square"/>
   </g>
   <g id="line2d_70">
    <path d="M 659.711803 652.851824 
L 860.232633 475.836823 
" clip-path="url(#p8818b4e424)" style="fill: none; stroke: #7a7a7a; stroke-width: 3; stroke-linecap: square"/>
   </g>
   <g id="line2d_71">
    <path d="M 645.559736 597.017242 
L 420.32262 795.432563 
" clip-path="url(#p8818b4e424)" style="fill: none; stroke: #7a7a7a; stroke-width: 3; stroke-linecap: square"/>
   </g>
   <g id="line2d_72">
    <path d="M 637.686403 565.929533 
L 602.256406 597.809846 
L 560.746999 633.565115 
L 410.555701 766.106198 
" clip-path="url(#p8818b4e424)" style="fill: none; stroke: #7a7a7a; stroke-width: 3; stroke-linecap: square"/>
   </g>
   <g id="line2d_73">
    <path d="M 656.536668 664.299695 
L 932.012316 438.651506 
" clip-path="url(#p8818b4e424)" style="fill: none; stroke-dasharray: 32,8,5,8; stroke-dashoffset: 0; stroke: #1e90ff; stroke-width: 5"/>
   </g>
   <g id="line2d_74">
    <path d="M 839.540487 543.619621 
L 924.347846 342.789505 
" clip-path="url(#p8818b4e424)" style="fill: none; stroke-dasharray: 32,8,5,8; stroke-dashoffset: 0; stroke: #1e90ff; stroke-width: 5"/>
   </g>
   <g id="line2d_75">
    <path d="M 99.662441 1175.798506 
L 401.736232 911.631414 
" clip-path="url(#p8818b4e424)" style="fill: none; stroke-dasharray: 32,8,5,8; stroke-dashoffset: 0; stroke: #1e90ff; stroke-width: 5"/>
   </g>
   <g id="line2d_76">
    <path d="M 267.101302 1022.729669 
L 654.794522 650.504262 
" clip-path="url(#p8818b4e424)" style="fill: none; stroke-dasharray: 32,8,5,8; stroke-dashoffset: 0; stroke: #1e90ff; stroke-width: 5"/>
   </g>
   <g id="line2d_77">
    <path d="M 409.153128 920.120994 
L 683.664634 720.985945 
" clip-path="url(#p8818b4e424)" style="fill: none; stroke-dasharray: 32,8,5,8; stroke-dashoffset: 0; stroke: #1e90ff; stroke-width: 5"/>
   </g>
   <g id="line2d_78">
    <path d="M 656.536668 664.299695 
" clip-path="url(#p8818b4e424)" style="fill: none; stroke: #0000ff; stroke-width: 1.5; stroke-linecap: square"/>
    <defs>
     <path id="m09da37ea4c" d="M 0 10 
C 2.652031 10 5.195799 8.946337 7.071068 7.071068 
C 8.946337 5.195799 10 2.652031 10 0 
C 10 -2.652031 8.946337 -5.195799 7.071068 -7.071068 
C 5.195799 -8.946337 2.652031 -10 0 -10 
C -2.652031 -10 -5.195799 -8.946337 -7.071068 -7.071068 
C -8.946337 -5.195799 -10 -2.652031 -10 0 
C -10 2.652031 -8.946337 5.195799 -7.071068 7.071068 
C -5.195799 8.946337 -2.652031 10 0 10 
z
" style="stroke: #0000ff"/>
    </defs>
    <g clip-path="url(#p8818b4e424)">
     <use xlink:href="#m09da37ea4c" x="656.536668" y="664.299695" style="fill: #0000ff; stroke: #0000ff"/>
    </g>
   </g>
   <g id="line2d_79">
    <path d="M 839.540487 543.619621 
" clip-path="url(#p8818b4e424)" style="fill: none; stroke: #0000ff; stroke-width: 1.5; stroke-linecap: square"/>
    <g clip-path="url(#p8818b4e424)">
     <use xlink:href="#m09da37ea4c" x="839.540487" y="543.619621" style="fill: #0000ff; stroke: #0000ff"/>
    </g>
   </g>
   <g id="line2d_80">
    <path d="M 99.662441 1175.798506 
" clip-path="url(#p8818b4e424)" style="fill: none; stroke: #0000ff; stroke-width: 1.5; stroke-linecap: square"/>
    <g clip-path="url(#p8818b4e424)">
     <use xlink:href="#m09da37ea4c" x="99.662441" y="1175.798506" style="fill: #0000ff; stroke: #0000ff"/>
    </g>
   </g>
   <g id="line2d_81">
    <path d="M 267.101302 1022.729669 
" clip-path="url(#p8818b4e424)" style="fill: none; stroke: #0000ff; stroke-width: 1.5; stroke-linecap: square"/>
    <g clip-path="url(#p8818b4e424)">
     <use xlink:href="#m09da37ea4c" x="267.101302" y="1022.729669" style="fill: #0000ff; stroke: #0000ff"/>
    </g>
   </g>
   <g id="line2d_82">
    <path d="M 409.153128 920.120994 
" clip-path="url(#p8818b4e424)" style="fill: none; stroke: #0000ff; stroke-width: 1.5; stroke-linecap: square"/>
    <g clip-path="url(#p8818b4e424)">
     <use xlink:href="#m09da37ea4c" x="409.153128" y="920.120994" style="fill: #0000ff; stroke: #0000ff"/>
    </g>
   </g>
   <g id="line2d_83">
    <path d="M 932.012316 438.651506 
" clip-path="url(#p8818b4e424)" style="fill: none; stroke: #ff0000; stroke-width: 1.5; stroke-linecap: square"/>
    <defs>
     <path id="m5eec259140" d="M 0 -10 
L -2.24514 -3.09017 
L -9.510565 -3.09017 
L -3.632713 1.18034 
L -5.877853 8.09017 
L -0 3.81966 
L 5.877853 8.09017 
L 3.632713 1.18034 
L 9.510565 -3.09017 
L 2.24514 -3.09017 
z
" style="stroke: #ff0000; stroke-linejoin: bevel"/>
    </defs>
    <g clip-path="url(#p8818b4e424)">
     <use xlink:href="#m5eec259140" x="932.012316" y="438.651506" style="fill: #ff0000; stroke: #ff0000; stroke-linejoin: bevel"/>
    </g>
   </g>
   <g id="line2d_84">
    <path d="M 924.347846 342.789505 
" clip-path="url(#p8818b4e424)" style="fill: none; stroke: #ff0000; stroke-width: 1.5; stroke-linecap: square"/>
    <g clip-path="url(#p8818b4e424)">
     <use xlink:href="#m5eec259140" x="924.347846" y="342.789505" style="fill: #ff0000; stroke: #ff0000; stroke-linejoin: bevel"/>
    </g>
   </g>
   <g id="line2d_85">
    <path d="M 401.736232 911.631414 
" clip-path="url(#p8818b4e424)" style="fill: none; stroke: #ff0000; stroke-width: 1.5; stroke-linecap: square"/>
    <g clip-path="url(#p8818b4e424)">
     <use xlink:href="#m5eec259140" x="401.736232" y="911.631414" style="fill: #ff0000; stroke: #ff0000; stroke-linejoin: bevel"/>
    </g>
   </g>
   <g id="line2d_86">
    <path d="M 654.794522 650.504262 
" clip-path="url(#p8818b4e424)" style="fill: none; stroke: #ff0000; stroke-width: 1.5; stroke-linecap: square"/>
    <g clip-path="url(#p8818b4e424)">
     <use xlink:href="#m5eec259140" x="654.794522" y="650.504262" style="fill: #ff0000; stroke: #ff0000; stroke-linejoin: bevel"/>
    </g>
   </g>
   <g id="line2d_87">
    <path d="M 683.664634 720.985945 
" clip-path="url(#p8818b4e424)" style="fill: none; stroke: #ff0000; stroke-width: 1.5; stroke-linecap: square"/>
    <g clip-path="url(#p8818b4e424)">
     <use xlink:href="#m5eec259140" x="683.664634" y="720.985945" style="fill: #ff0000; stroke: #ff0000; stroke-linejoin: bevel"/>
    </g>
   </g>
  </g>
 </g>
 <defs>
  <clipPath id="p8818b4e424">
   <rect x="0" y="0" width="1440" height="1440"/>
  </clipPath>
 </defs>
</svg>
