<?xml version="1.0" encoding="utf-8" standalone="no"?>
<!DOCTYPE svg PUBLIC "-//W3C//DTD SVG 1.1//EN"
  "http://www.w3.org/Graphics/SVG/1.1/DTD/svg11.dtd">
<svg xmlns:xlink="http://www.w3.org/1999/xlink" width="1440pt" height="1440pt" viewBox="0 0 1440 1440" xmlns="http://www.w3.org/2000/svg" version="1.1">
 <metadata>
  <rdf:RDF xmlns:dc="http://purl.org/dc/elements/1.1/" xmlns:cc="http://creativecommons.org/ns#" xmlns:rdf="http://www.w3.org/1999/02/22-rdf-syntax-ns#">
   <cc:Work>
    <dc:type rdf:resource="http://purl.org/dc/dcmitype/StillImage"/>
    <dc:date>2026-02-27T11:11:37.173703</dc:date>
    <dc:format>image/svg+xml</dc:format>
    <dc:creator>
     <cc:Agent>
      <dc:title>Matplotlib v3.7.3, https://matplotlib.org/</dc:title>
     </cc:Agent>
    </dc:creator>
   </cc:Work>
  </rdf:RDF>
 </metadata>
 <defs>
  <style type="text/css">*{stroke-linejoin: round; stroke-linecap: butt}</style>
 </defs>
 <g id="figure_1">
  <g id="patch_1">
   <path d="M 0 1440 
L 1440 1440 
L 1440 0 
L 0 0 
z
" style="fill: #ffffff"/>
  </g>
  <g id="axes_1">
   <g id="line2d_1">
    <path d="M 1118.451616 32.979096 
L 1053.257746 183.014104 
" clip-path="url(#pfe9e4cca4c)" style="fill: none; stroke: #7a7a7a; stroke-width: 3; stroke-linecap: square"/>
   </g>
   <g id="line2d_2">
    <path d="M 1086.434698 26.349071 
L 1019.848787 175.483706 
" clip-path="url(#pfe9e4cca4c)" style="fill: none; stroke: #7a7a7a; stroke-width: 3; stroke-linecap: square"/>
   </g>
   <g id="line2d_3">
    <path d="M 1154.180642 202.16751 
L 1141.652282 230.079096 
L 1047.341576 444.204345 
" clip-path="url(#pfe9e4cca4c)" style="fill: none; stroke: #7a7a7a; stroke-width: 3; stroke-linecap: square"/>
   </g>
   <g id="line2d_4">
    <path d="M 1121.119693 195.864893 
L 1014.512634 437.819876 
" clip-path="url(#pfe9e4cca4c)" style="fill: none; stroke: #7a7a7a; stroke-width: 3; stroke-linecap: square"/>
   </g>
   <g id="line2d_5">
    <path d="M 1186.89358 47.057668 
L 1121.119693 195.864893 
" clip-path="url(#pfe9e4cca4c)" style="fill: none; stroke: #7a7a7a; stroke-width: 3; stroke-linecap: square"/>
   </g>
   <g id="line2d_6">
    <path d="M 1154.296645 40.345791 
L 1088.058744 189.562277 
" clip-path="url(#pfe9e4cca4c)" style="fill: none; stroke: #7a7a7a; stroke-width: 3; stroke-linecap: square"/>
   </g>
   <g id="line2d_7">
    <path d="M 980.871669 431.271704 
L 917.765858 574.43113 
L 917.533851 574.922243 
" clip-path="url(#pfe9e4cca4c)" style="fill: none; stroke: #7a7a7a; stroke-width: 3; stroke-linecap: square"/>
   </g>
   <g id="line2d_8">
    <path d="M 948.390737 424.969087 
L 883.080862 574.43113 
L 882.848856 574.922243 
" clip-path="url(#pfe9e4cca4c)" style="fill: none; stroke: #7a7a7a; stroke-width: 3; stroke-linecap: square"/>
   </g>
   <g id="line2d_9">
    <path d="M 1053.257746 183.014104 
L 948.390737 424.969087 
" clip-path="url(#pfe9e4cca4c)" style="fill: none; stroke: #7a7a7a; stroke-width: 3; stroke-linecap: square"/>
   </g>
   <g id="line2d_10">
    <path d="M 1019.848787 175.483706 
L 913.125725 417.929802 
" clip-path="url(#pfe9e4cca4c)" style="fill: none; stroke: #7a7a7a; stroke-width: 3; stroke-linecap: square"/>
   </g>
   <g id="line2d_11">
    <path d="M 948.390737 424.969087 
L 883.080862 574.43113 
L 882.848856 574.922243 
" clip-path="url(#pfe9e4cca4c)" style="fill: none; stroke: #7a7a7a; stroke-width: 3; stroke-linecap: square"/>
   </g>
   <g id="line2d_12">
    <path d="M 913.125725 417.929802 
L 846.771821 574.43113 
L 846.539814 574.922243 
" clip-path="url(#pfe9e4cca4c)" style="fill: none; stroke: #7a7a7a; stroke-width: 3; stroke-linecap: square"/>
   </g>
   <g id="line2d_13">
    <path d="M 1154.296645 40.345791 
L 1088.058744 189.562277 
" clip-path="url(#pfe9e4cca4c)" style="fill: none; stroke: #7a7a7a; stroke-width: 3; stroke-linecap: square"/>
   </g>
   <g id="line2d_14">
    <path d="M 1118.451616 32.979096 
L 1053.257746 183.014104 
" clip-path="url(#pfe9e4cca4c)" style="fill: none; stroke: #7a7a7a; stroke-width: 3; stroke-linecap: square"/>
   </g>
   <g id="line2d_15">
    <path d="M 1047.341576 444.204345 
L 997.924158 556.505507 
L 997.344141 557.487733 
L 990.035932 574.43113 
L 989.803925 574.922243 
" clip-path="url(#pfe9e4cca4c)" style="fill: none; stroke: #7a7a7a; stroke-width: 3; stroke-linecap: square"/>
   </g>
   <g id="line2d_16">
    <path d="M 1014.512634 437.819876 
L 954.886923 574.43113 
L 954.654916 574.922243 
" clip-path="url(#pfe9e4cca4c)" style="fill: none; stroke: #7a7a7a; stroke-width: 3; stroke-linecap: square"/>
   </g>
   <g id="line2d_17">
    <path d="M 1088.058744 189.562277 
L 980.871669 431.271704 
" clip-path="url(#pfe9e4cca4c)" style="fill: none; stroke: #7a7a7a; stroke-width: 3; stroke-linecap: square"/>
   </g>
   <g id="line2d_18">
    <path d="M 1053.257746 183.014104 
L 948.390737 424.969087 
" clip-path="url(#pfe9e4cca4c)" style="fill: none; stroke: #7a7a7a; stroke-width: 3; stroke-linecap: square"/>
   </g>
   <g id="line2d_19">
    <path d="M 1121.119693 195.864893 
L 1014.512634 437.819876 
" clip-path="url(#pfe9e4cca4c)" style="fill: none; stroke: #7a7a7a; stroke-width: 3; stroke-linecap: square"/>
   </g>
   <g id="line2d_20">
    <path d="M 1088.058744 189.562277 
L 980.871669 431.271704 
" clip-path="url(#pfe9e4cca4c)" style="fill: none; stroke: #7a7a7a; stroke-width: 3; stroke-linecap: square"/>
   </g>
   <g id="line2d_21">
    <path d="M 1014.512634 437.819876 
L 954.886923 574.43113 
L 954.654916 574.922243 
" clip-path="url(#pfe9e4cca4c)" style="fill: none; stroke: #7a7a7a; stroke-width: 3; stroke-linecap: square"/>
   </g>
   <g id="line2d_22">
    <path d="M 980.871669 431.271704 
L 917.765858 574.43113 
L 917.533851 574.922243 
" clip-path="url(#pfe9e4cca4c)" style="fill: none; stroke: #7a7a7a; stroke-width: 3; stroke-linecap: square"/>
   </g>
   <g id="line2d_23">
    <path d="M 1219.606519 53.851397 
L 1210.442256 73.332211 
L 1197.217877 104.354179 
L 1158.588768 192.427103 
L 1154.180642 202.16751 
" clip-path="url(#pfe9e4cca4c)" style="fill: none; stroke: #7a7a7a; stroke-width: 3; stroke-linecap: square"/>
   </g>
   <g id="line2d_24">
    <path d="M 1186.89358 47.057668 
L 1121.119693 195.864893 
" clip-path="url(#pfe9e4cca4c)" style="fill: none; stroke: #7a7a7a; stroke-width: 3; stroke-linecap: square"/>
   </g>
   <g id="line2d_25">
    <path d="M 1007.436431 174.092219 
L 913.125725 417.929802 
" clip-path="url(#pfe9e4cca4c)" style="fill: none; stroke: #7a7a7a; stroke-width: 3; stroke-linecap: square"/>
   </g>
   <g id="line2d_26">
    <path d="M 988.991902 170.981837 
L 976.695549 198.647867 
L 973.447456 209.206795 
L 968.111302 219.438315 
L 962.195133 233.762443 
L 950.24679 260.773656 
L 942.93858 274.279262 
L 882.500846 412.200151 
" clip-path="url(#pfe9e4cca4c)" style="fill: none; stroke: #7a7a7a; stroke-width: 3; stroke-linecap: square"/>
   </g>
   <g id="line2d_27">
    <path d="M 1088.058744 189.562277 
L 913.125725 417.929802 
" clip-path="url(#pfe9e4cca4c)" style="fill: none; stroke: #7a7a7a; stroke-width: 3; stroke-linecap: square"/>
   </g>
   <g id="line2d_28">
    <path d="M 1053.257746 183.014104 
L 882.500846 412.200151 
" clip-path="url(#pfe9e4cca4c)" style="fill: none; stroke: #7a7a7a; stroke-width: 3; stroke-linecap: square"/>
   </g>
   <g id="line2d_29">
    <path d="M 1053.257746 183.014104 
L 913.125725 417.929802 
" clip-path="url(#pfe9e4cca4c)" style="fill: none; stroke: #7a7a7a; stroke-width: 3; stroke-linecap: square"/>
   </g>
   <g id="line2d_30">
    <path d="M 1019.848787 175.483706 
L 882.500846 412.200151 
" clip-path="url(#pfe9e4cca4c)" style="fill: none; stroke: #7a7a7a; stroke-width: 3; stroke-linecap: square"/>
   </g>
   <g id="line2d_31">
    <path d="M 556.647495 1311.591677 
L 556.067479 1312.983164 
L 555.835472 1313.474277 
L 546.323199 1335.001395 
" clip-path="url(#pfe9e4cca4c)" style="fill: none; stroke: #7a7a7a; stroke-width: 3; stroke-linecap: square"/>
   </g>
   <g id="line2d_32">
    <path d="M 502.589944 1311.591677 
L 501.661918 1313.065016 
L 501.313908 1313.556129 
L 495.513741 1327.307292 
" clip-path="url(#pfe9e4cca4c)" style="fill: none; stroke: #7a7a7a; stroke-width: 3; stroke-linecap: square"/>
   </g>
   <g id="line2d_33">
    <path d="M 1074.254348 24.79388 
L 1007.436431 174.092219 
" clip-path="url(#pfe9e4cca4c)" style="fill: none; stroke: #7a7a7a; stroke-width: 3; stroke-linecap: square"/>
   </g>
   <g id="line2d_34">
    <path d="M 1056.853849 20.046455 
L 988.991902 170.981837 
" clip-path="url(#pfe9e4cca4c)" style="fill: none; stroke: #7a7a7a; stroke-width: 3; stroke-linecap: square"/>
   </g>
   <g id="line2d_35">
    <path d="M 913.125725 417.929802 
L 846.771821 574.43113 
L 846.539814 574.922243 
" clip-path="url(#pfe9e4cca4c)" style="fill: none; stroke: #7a7a7a; stroke-width: 3; stroke-linecap: square"/>
   </g>
   <g id="line2d_36">
    <path d="M 882.500846 412.200151 
L 811.970822 574.43113 
L 811.738815 574.922243 
" clip-path="url(#pfe9e4cca4c)" style="fill: none; stroke: #7a7a7a; stroke-width: 3; stroke-linecap: square"/>
   </g>
   <g id="line2d_37">
    <path d="M 632.977686 1311.591677 
L 632.397669 1312.983164 
L 632.165662 1313.392425 
L 618.013256 1345.80588 
" clip-path="url(#pfe9e4cca4c)" style="fill: none; stroke: #7a7a7a; stroke-width: 3; stroke-linecap: square"/>
   </g>
   <g id="line2d_38">
    <path d="M 594.116571 1311.591677 
L 593.536554 1312.983164 
L 593.304547 1313.474277 
L 581.588211 1340.321785 
" clip-path="url(#pfe9e4cca4c)" style="fill: none; stroke: #7a7a7a; stroke-width: 3; stroke-linecap: square"/>
   </g>
   <g id="line2d_39">
    <path d="M 594.116571 1311.591677 
L 593.536554 1312.983164 
L 593.304547 1313.474277 
L 581.588211 1340.321785 
" clip-path="url(#pfe9e4cca4c)" style="fill: none; stroke: #7a7a7a; stroke-width: 3; stroke-linecap: square"/>
   </g>
   <g id="line2d_40">
    <path d="M 556.647495 1311.591677 
L 556.067479 1312.983164 
L 555.835472 1313.474277 
L 546.323199 1335.001395 
" clip-path="url(#pfe9e4cca4c)" style="fill: none; stroke: #7a7a7a; stroke-width: 3; stroke-linecap: square"/>
   </g>
   <g id="line2d_41">
    <path d="M 970.663376 789.620457 
L 650.030175 717.017592 
" clip-path="url(#pfe9e4cca4c)" style="fill: none; stroke: #7a7a7a; stroke-width: 3; stroke-linecap: square"/>
   </g>
   <g id="line2d_42">
    <path d="M 982.263709 765.719627 
L 656.526361 692.953057 
" clip-path="url(#pfe9e4cca4c)" style="fill: none; stroke: #7a7a7a; stroke-width: 3; stroke-linecap: square"/>
   </g>
   <g id="line2d_43">
    <path d="M 959.063043 813.766844 
L 642.373955 743.210283 
" clip-path="url(#pfe9e4cca4c)" style="fill: none; stroke: #7a7a7a; stroke-width: 3; stroke-linecap: square"/>
   </g>
   <g id="line2d_44">
    <path d="M 970.663376 789.620457 
L 650.030175 717.017592 
" clip-path="url(#pfe9e4cca4c)" style="fill: none; stroke: #7a7a7a; stroke-width: 3; stroke-linecap: square"/>
   </g>
   <g id="line2d_45">
    <path d="M 682.859117 1311.591677 
L 682.62711 1312.983164 
L 682.62711 1313.392425 
L 664.878601 1352.927018 
" clip-path="url(#pfe9e4cca4c)" style="fill: none; stroke: #7a7a7a; stroke-width: 3; stroke-linecap: square"/>
   </g>
   <g id="line2d_46">
    <path d="M 632.977686 1311.591677 
L 632.397669 1312.983164 
L 632.165662 1313.392425 
L 618.013256 1345.80588 
" clip-path="url(#pfe9e4cca4c)" style="fill: none; stroke: #7a7a7a; stroke-width: 3; stroke-linecap: square"/>
   </g>
   <g id="line2d_47">
    <path d="M 746.080931 965.357043 
L 601.308777 1295.303098 
" clip-path="url(#pfe9e4cca4c)" style="fill: none; stroke: #7a7a7a; stroke-width: 3; stroke-linecap: square"/>
   </g>
   <g id="line2d_48">
    <path d="M 712.555969 959.381836 
L 564.535722 1293.829759 
" clip-path="url(#pfe9e4cca4c)" style="fill: none; stroke: #7a7a7a; stroke-width: 3; stroke-linecap: square"/>
   </g>
   <g id="line2d_49">
    <path d="M 947.926723 838.24064 
L 635.993772 765.719627 
" clip-path="url(#pfe9e4cca4c)" style="fill: none; stroke: #7a7a7a; stroke-width: 3; stroke-linecap: square"/>
   </g>
   <g id="line2d_50">
    <path d="M 959.063043 813.766844 
L 642.373955 743.210283 
" clip-path="url(#pfe9e4cca4c)" style="fill: none; stroke: #7a7a7a; stroke-width: 3; stroke-linecap: square"/>
   </g>
   <g id="line2d_51">
    <path d="M 651.074205 828.827642 
L 965.907239 899.302351 
" clip-path="url(#pfe9e4cca4c)" style="fill: none; stroke: #7a7a7a; stroke-width: 3; stroke-linecap: square"/>
   </g>
   <g id="line2d_52">
    <path d="M 645.738052 854.038107 
L 956.16296 923.366886 
" clip-path="url(#pfe9e4cca4c)" style="fill: none; stroke: #7a7a7a; stroke-width: 3; stroke-linecap: square"/>
   </g>
   <g id="line2d_53">
    <path d="M 800.834502 676.337069 
L 790.742213 696.800109 
L 779.025877 711.615349 
L 765.22148 721.683165 
L 749.561031 727.658373 
L 732.276535 730.19579 
L 713.367993 729.786529 
L 694.343447 727.003555 
L 650.030175 717.017592 
" clip-path="url(#pfe9e4cca4c)" style="fill: none; stroke: #7a7a7a; stroke-width: 3; stroke-linecap: square"/>
   </g>
   <g id="line2d_54">
    <path d="M 769.3976 669.625192 
L 764.989474 677.810408 
L 764.641464 678.383373 
L 761.625377 684.522285 
L 759.305311 686.486736 
L 755.709208 690.333788 
L 749.213021 695.163065 
L 744.688891 697.454926 
L 740.512771 699.173821 
L 737.844695 700.483456 
L 734.712605 701.056421 
L 734.016585 701.220125 
L 729.144445 702.284203 
L 724.388309 702.93902 
L 717.892122 703.348281 
L 706.755803 702.366055 
L 705.015753 702.038647 
L 683.091124 698.600856 
L 656.526361 692.953057 
" clip-path="url(#pfe9e4cca4c)" style="fill: none; stroke: #7a7a7a; stroke-width: 3; stroke-linecap: square"/>
   </g>
   <g id="line2d_55">
    <path d="M 974.491485 878.266346 
L 1370.17884 967.239643 
L 1441 980.318614 
" clip-path="url(#pfe9e4cca4c)" style="fill: none; stroke: #7a7a7a; stroke-width: 3; stroke-linecap: square"/>
   </g>
   <g id="line2d_56">
    <path d="M 965.907239 899.302351 
L 1441 1005.831065 
" clip-path="url(#pfe9e4cca4c)" style="fill: none; stroke: #7a7a7a; stroke-width: 3; stroke-linecap: square"/>
   </g>
   <g id="line2d_57">
    <path d="M 1338.741938 921.811695 
L 1110.099377 874.419294 
" clip-path="url(#pfe9e4cca4c)" style="fill: none; stroke: #7a7a7a; stroke-width: 3; stroke-linecap: square"/>
   </g>
   <g id="line2d_58">
    <path d="M 1347.326184 900.530133 
L 1122.975746 850.436612 
" clip-path="url(#pfe9e4cca4c)" style="fill: none; stroke: #7a7a7a; stroke-width: 3; stroke-linecap: square"/>
   </g>
   <g id="line2d_59">
    <path d="M 635.993772 765.719627 
L 356.309747 703.511986 
L 290.303853 688.287484 
L 239.842405 677.564851 
" clip-path="url(#pfe9e4cca4c)" style="fill: none; stroke: #7a7a7a; stroke-width: 3; stroke-linecap: square"/>
   </g>
   <g id="line2d_60">
    <path d="M 642.373955 743.210283 
L 239.842405 653.25476 
" clip-path="url(#pfe9e4cca4c)" style="fill: none; stroke: #7a7a7a; stroke-width: 3; stroke-linecap: square"/>
   </g>
   <g id="line2d_61">
    <path d="M 1347.326184 900.530133 
L 1122.975746 850.436612 
" clip-path="url(#pfe9e4cca4c)" style="fill: none; stroke: #7a7a7a; stroke-width: 3; stroke-linecap: square"/>
   </g>
   <g id="line2d_62">
    <path d="M 1357.186467 875.974485 
L 1134.460076 826.208372 
" clip-path="url(#pfe9e4cca4c)" style="fill: none; stroke: #7a7a7a; stroke-width: 3; stroke-linecap: square"/>
   </g>
   <g id="line2d_63">
    <path d="M 814.174885 977.471163 
L 809.534752 989.421578 
L 773.689723 1068.900025 
L 762.089391 1094.192342 
L 723.808292 1182.183413 
L 696.54751 1242.426603 
L 693.879433 1249.384036 
L 692.835403 1256.095913 
L 685.179184 1298.740888 
" clip-path="url(#pfe9e4cca4c)" style="fill: none; stroke: #7a7a7a; stroke-width: 3; stroke-linecap: square"/>
   </g>
   <g id="line2d_64">
    <path d="M 781.461947 971.168547 
L 639.357869 1296.858289 
" clip-path="url(#pfe9e4cca4c)" style="fill: none; stroke: #7a7a7a; stroke-width: 3; stroke-linecap: square"/>
   </g>
   <g id="line2d_65">
    <path d="M 1357.186467 875.974485 
L 1134.460076 826.208372 
" clip-path="url(#pfe9e4cca4c)" style="fill: none; stroke: #7a7a7a; stroke-width: 3; stroke-linecap: square"/>
   </g>
   <g id="line2d_66">
    <path d="M 1366.814743 852.073655 
L 1145.596395 802.307542 
" clip-path="url(#pfe9e4cca4c)" style="fill: none; stroke: #7a7a7a; stroke-width: 3; stroke-linecap: square"/>
   </g>
   <g id="line2d_67">
    <path d="M 931.454251 704.985324 
L 883.196866 815.976853 
L 883.196866 828.418381 
L 892.013119 842.005839 
L 906.165525 854.692924 
L 922.057981 864.433331 
L 935.97838 869.098904 
L 974.491485 878.266346 
" clip-path="url(#pfe9e4cca4c)" style="fill: none; stroke: #7a7a7a; stroke-width: 3; stroke-linecap: square"/>
   </g>
   <g id="line2d_68">
    <path d="M 900.829372 698.273447 
L 852.571987 809.264975 
L 849.439897 824.735034 
L 852.33998 839.632127 
L 860.460213 853.383289 
L 872.756566 865.742965 
L 888.649022 876.220042 
L 907.093552 884.48711 
L 927.394134 890.134909 
L 965.907239 899.302351 
" clip-path="url(#pfe9e4cca4c)" style="fill: none; stroke: #7a7a7a; stroke-width: 3; stroke-linecap: square"/>
   </g>
   <g id="line2d_69">
    <path d="M 655.482332 807.627932 
L 974.491485 878.266346 
" clip-path="url(#pfe9e4cca4c)" style="fill: none; stroke: #7a7a7a; stroke-width: 3; stroke-linecap: square"/>
   </g>
   <g id="line2d_70">
    <path d="M 651.074205 828.827642 
L 965.907239 899.302351 
" clip-path="url(#pfe9e4cca4c)" style="fill: none; stroke: #7a7a7a; stroke-width: 3; stroke-linecap: square"/>
   </g>
   <g id="line2d_71">
    <path d="M 834.823478 683.540059 
L 712.555969 959.381836 
" clip-path="url(#pfe9e4cca4c)" style="fill: none; stroke: #7a7a7a; stroke-width: 3; stroke-linecap: square"/>
   </g>
   <g id="line2d_72">
    <path d="M 800.834502 676.337069 
L 691.791373 926.640972 
L 680.307044 953.897741 
" clip-path="url(#pfe9e4cca4c)" style="fill: none; stroke: #7a7a7a; stroke-width: 3; stroke-linecap: square"/>
   </g>
   <g id="line2d_73">
    <path d="M 239.842405 763.264062 
L 645.738052 854.038107 
" clip-path="url(#pfe9e4cca4c)" style="fill: none; stroke: #7a7a7a; stroke-width: 3; stroke-linecap: square"/>
   </g>
   <g id="line2d_74">
    <path d="M 239.842405 790.438979 
L 254.226817 793.631213 
L 320.000705 808.528306 
L 640.169892 880.558206 
" clip-path="url(#pfe9e4cca4c)" style="fill: none; stroke: #7a7a7a; stroke-width: 3; stroke-linecap: square"/>
   </g>
   <g id="line2d_75">
    <path d="M 1122.975746 850.436612 
L 959.063043 813.766844 
" clip-path="url(#pfe9e4cca4c)" style="fill: none; stroke: #7a7a7a; stroke-width: 3; stroke-linecap: square"/>
   </g>
   <g id="line2d_76">
    <path d="M 1134.460076 826.208372 
L 970.663376 789.620457 
" clip-path="url(#pfe9e4cca4c)" style="fill: none; stroke: #7a7a7a; stroke-width: 3; stroke-linecap: square"/>
   </g>
   <g id="line2d_77">
    <path d="M 1098.847054 895.046038 
L 941.19853 859.604053 
" clip-path="url(#pfe9e4cca4c)" style="fill: none; stroke: #7a7a7a; stroke-width: 3; stroke-linecap: square"/>
   </g>
   <g id="line2d_78">
    <path d="M 1110.099377 874.419294 
L 947.926723 838.24064 
" clip-path="url(#pfe9e4cca4c)" style="fill: none; stroke: #7a7a7a; stroke-width: 3; stroke-linecap: square"/>
   </g>
   <g id="line2d_79">
    <path d="M 931.454251 704.985324 
L 825.543211 954.143297 
L 821.251088 961.919253 
L 814.174885 977.471163 
" clip-path="url(#pfe9e4cca4c)" style="fill: none; stroke: #7a7a7a; stroke-width: 3; stroke-linecap: square"/>
   </g>
   <g id="line2d_80">
    <path d="M 900.829372 698.273447 
L 781.461947 971.168547 
" clip-path="url(#pfe9e4cca4c)" style="fill: none; stroke: #7a7a7a; stroke-width: 3; stroke-linecap: square"/>
   </g>
   <g id="line2d_81">
    <path d="M 989.803925 574.922243 
L 989.339912 576.068173 
L 989.107905 576.559286 
L 970.083359 621.005009 
L 960.107073 642.695831 
L 943.6346 680.757085 
L 931.454251 704.985324 
" clip-path="url(#pfe9e4cca4c)" style="fill: none; stroke: #7a7a7a; stroke-width: 3; stroke-linecap: square"/>
   </g>
   <g id="line2d_82">
    <path d="M 954.654916 574.922243 
L 954.0749 576.068173 
L 953.842893 576.559286 
L 900.829372 698.273447 
" clip-path="url(#pfe9e4cca4c)" style="fill: none; stroke: #7a7a7a; stroke-width: 3; stroke-linecap: square"/>
   </g>
   <g id="line2d_83">
    <path d="M 650.030175 717.017592 
L 239.842405 626.652808 
" clip-path="url(#pfe9e4cca4c)" style="fill: none; stroke: #7a7a7a; stroke-width: 3; stroke-linecap: square"/>
   </g>
   <g id="line2d_84">
    <path d="M 656.526361 692.953057 
L 239.842405 599.723448 
" clip-path="url(#pfe9e4cca4c)" style="fill: none; stroke: #7a7a7a; stroke-width: 3; stroke-linecap: square"/>
   </g>
   <g id="line2d_85">
    <path d="M 239.842405 715.707957 
L 269.65526 722.25613 
L 302.484202 730.19579 
L 346.217457 739.199527 
L 655.482332 807.627932 
" clip-path="url(#pfe9e4cca4c)" style="fill: none; stroke: #7a7a7a; stroke-width: 3; stroke-linecap: square"/>
   </g>
   <g id="line2d_86">
    <path d="M 239.842405 736.580258 
L 651.074205 828.827642 
" clip-path="url(#pfe9e4cca4c)" style="fill: none; stroke: #7a7a7a; stroke-width: 3; stroke-linecap: square"/>
   </g>
   <g id="line2d_87">
    <path d="M 239.842405 736.580258 
L 651.074205 828.827642 
" clip-path="url(#pfe9e4cca4c)" style="fill: none; stroke: #7a7a7a; stroke-width: 3; stroke-linecap: square"/>
   </g>
   <g id="line2d_88">
    <path d="M 239.842405 763.264062 
L 645.738052 854.038107 
" clip-path="url(#pfe9e4cca4c)" style="fill: none; stroke: #7a7a7a; stroke-width: 3; stroke-linecap: square"/>
   </g>
   <g id="line2d_89">
    <path d="M 1110.099377 874.419294 
L 947.926723 838.24064 
" clip-path="url(#pfe9e4cca4c)" style="fill: none; stroke: #7a7a7a; stroke-width: 3; stroke-linecap: square"/>
   </g>
   <g id="line2d_90">
    <path d="M 1122.975746 850.436612 
L 959.063043 813.766844 
" clip-path="url(#pfe9e4cca4c)" style="fill: none; stroke: #7a7a7a; stroke-width: 3; stroke-linecap: square"/>
   </g>
   <g id="line2d_91">
    <path d="M 866.724393 690.661197 
L 746.080931 965.357043 
" clip-path="url(#pfe9e4cca4c)" style="fill: none; stroke: #7a7a7a; stroke-width: 3; stroke-linecap: square"/>
   </g>
   <g id="line2d_92">
    <path d="M 834.823478 683.540059 
L 712.555969 959.381836 
" clip-path="url(#pfe9e4cca4c)" style="fill: none; stroke: #7a7a7a; stroke-width: 3; stroke-linecap: square"/>
   </g>
   <g id="line2d_93">
    <path d="M 846.539814 574.922243 
L 846.075801 576.068173 
L 845.843794 576.559286 
L 800.834502 676.337069 
" clip-path="url(#pfe9e4cca4c)" style="fill: none; stroke: #7a7a7a; stroke-width: 3; stroke-linecap: square"/>
   </g>
   <g id="line2d_94">
    <path d="M 811.738815 574.922243 
L 811.274802 575.986321 
L 809.998765 576.559286 
L 777.865843 650.389934 
L 769.3976 669.625192 
" clip-path="url(#pfe9e4cca4c)" style="fill: none; stroke: #7a7a7a; stroke-width: 3; stroke-linecap: square"/>
   </g>
   <g id="line2d_95">
    <path d="M 781.461947 971.168547 
L 639.357869 1296.858289 
" clip-path="url(#pfe9e4cca4c)" style="fill: none; stroke: #7a7a7a; stroke-width: 3; stroke-linecap: square"/>
   </g>
   <g id="line2d_96">
    <path d="M 746.080931 965.357043 
L 601.308777 1295.303098 
" clip-path="url(#pfe9e4cca4c)" style="fill: none; stroke: #7a7a7a; stroke-width: 3; stroke-linecap: square"/>
   </g>
   <g id="line2d_97">
    <path d="M 954.654916 574.922243 
L 954.0749 576.068173 
L 953.842893 576.559286 
L 900.829372 698.273447 
" clip-path="url(#pfe9e4cca4c)" style="fill: none; stroke: #7a7a7a; stroke-width: 3; stroke-linecap: square"/>
   </g>
   <g id="line2d_98">
    <path d="M 917.533851 574.922243 
L 917.069838 576.068173 
L 916.837831 576.559286 
L 866.724393 690.661197 
" clip-path="url(#pfe9e4cca4c)" style="fill: none; stroke: #7a7a7a; stroke-width: 3; stroke-linecap: square"/>
   </g>
   <g id="line2d_99">
    <path d="M 645.738052 854.038107 
L 679.495021 862.059618 
L 694.691457 870.654095 
L 708.379849 883.995997 
L 718.588142 899.466055 
L 724.388309 916.000191 
L 724.388309 932.61618 
L 712.555969 959.381836 
" clip-path="url(#pfe9e4cca4c)" style="fill: none; stroke: #7a7a7a; stroke-width: 3; stroke-linecap: square"/>
   </g>
   <g id="line2d_100">
    <path d="M 640.169892 880.558206 
L 651.422215 883.832293 
L 658.382415 885.63304 
L 668.358701 888.907126 
L 676.246927 892.590474 
L 680.191041 895.046038 
L 683.67114 897.829012 
L 686.919234 901.103098 
L 689.123297 904.131628 
L 691.559367 908.306088 
L 692.951407 912.071288 
L 693.647427 915.017965 
L 693.647427 918.783165 
L 691.791373 926.640972 
L 685.06318 942.847699 
L 680.307044 953.897741 
" clip-path="url(#pfe9e4cca4c)" style="fill: none; stroke: #7a7a7a; stroke-width: 3; stroke-linecap: square"/>
   </g>
   <g id="line2d_101">
    <path d="M 917.533851 574.922243 
L 917.069838 576.068173 
L 916.837831 576.559286 
L 866.724393 690.661197 
" clip-path="url(#pfe9e4cca4c)" style="fill: none; stroke: #7a7a7a; stroke-width: 3; stroke-linecap: square"/>
   </g>
   <g id="line2d_102">
    <path d="M 882.848856 574.922243 
L 882.384842 576.068173 
L 882.152836 576.559286 
L 834.823478 683.540059 
" clip-path="url(#pfe9e4cca4c)" style="fill: none; stroke: #7a7a7a; stroke-width: 3; stroke-linecap: square"/>
   </g>
   <g id="line2d_103">
    <path d="M 642.373955 743.210283 
L 239.842405 653.25476 
" clip-path="url(#pfe9e4cca4c)" style="fill: none; stroke: #7a7a7a; stroke-width: 3; stroke-linecap: square"/>
   </g>
   <g id="line2d_104">
    <path d="M 650.030175 717.017592 
L 239.842405 626.652808 
" clip-path="url(#pfe9e4cca4c)" style="fill: none; stroke: #7a7a7a; stroke-width: 3; stroke-linecap: square"/>
   </g>
   <g id="line2d_105">
    <path d="M 1338.741938 921.811695 
L 1214.850383 914.117592 
L 1098.847054 895.046038 
" clip-path="url(#pfe9e4cca4c)" style="fill: none; stroke: #7a7a7a; stroke-width: 3; stroke-linecap: square"/>
   </g>
   <g id="line2d_106">
    <path d="M 1347.326184 900.530133 
L 1239.559092 893.245291 
L 1205.454113 889.070831 
L 1110.099377 874.419294 
" clip-path="url(#pfe9e4cca4c)" style="fill: none; stroke: #7a7a7a; stroke-width: 3; stroke-linecap: square"/>
   </g>
   <g id="line2d_107">
    <path d="M 900.829372 698.273447 
L 781.461947 971.168547 
" clip-path="url(#pfe9e4cca4c)" style="fill: none; stroke: #7a7a7a; stroke-width: 3; stroke-linecap: square"/>
   </g>
   <g id="line2d_108">
    <path d="M 866.724393 690.661197 
L 746.080931 965.357043 
" clip-path="url(#pfe9e4cca4c)" style="fill: none; stroke: #7a7a7a; stroke-width: 3; stroke-linecap: square"/>
   </g>
   <g id="line2d_109">
    <path d="M 956.16296 923.366886 
L 1441 1031.824285 
" clip-path="url(#pfe9e4cca4c)" style="fill: none; stroke: #7a7a7a; stroke-width: 3; stroke-linecap: square"/>
   </g>
   <g id="line2d_110">
    <path d="M 945.954667 948.331794 
L 983.655748 956.680714 
L 1085.970684 980.745249 
L 1118.335613 988.030091 
L 1143.624339 993.186777 
L 1163.924921 998.097907 
L 1183.181474 1002.190515 
L 1213.574346 1009.475357 
L 1359.506534 1042.379925 
L 1391.871462 1049.419211 
L 1411.012011 1053.102558 
L 1430.732577 1057.604427 
" clip-path="url(#pfe9e4cca4c)" style="fill: none; stroke: #7a7a7a; stroke-width: 3; stroke-linecap: square"/>
   </g>
   <g id="line2d_111">
    <path d="M 941.19853 859.604053 
L 921.245958 857.066637 
L 900.945375 859.031088 
L 881.920829 864.678887 
L 866.144376 873.10966 
L 855.240064 883.668588 
L 851.063944 895.373447 
L 814.174885 977.471163 
" clip-path="url(#pfe9e4cca4c)" style="fill: none; stroke: #7a7a7a; stroke-width: 3; stroke-linecap: square"/>
   </g>
   <g id="line2d_112">
    <path d="M 947.926723 838.24064 
L 926.814117 834.884701 
L 905.005492 835.375814 
L 883.544876 839.059161 
L 863.4763 845.525482 
L 845.843794 854.283663 
L 831.807391 864.760739 
L 822.295118 876.54745 
L 818.351005 889.070831 
L 781.461947 971.168547 
" clip-path="url(#pfe9e4cca4c)" style="fill: none; stroke: #7a7a7a; stroke-width: 3; stroke-linecap: square"/>
   </g>
   <g id="line2d_113">
    <path d="M 1134.460076 826.208372 
L 970.663376 789.620457 
" clip-path="url(#pfe9e4cca4c)" style="fill: none; stroke: #7a7a7a; stroke-width: 3; stroke-linecap: square"/>
   </g>
   <g id="line2d_114">
    <path d="M 1145.596395 802.307542 
L 1120.191666 796.659743 
L 1100.935114 792.485283 
L 1094.786937 790.930092 
L 1062.190002 783.563397 
L 1040.14937 778.897824 
L 1028.66504 776.032999 
L 982.263709 765.719627 
" clip-path="url(#pfe9e4cca4c)" style="fill: none; stroke: #7a7a7a; stroke-width: 3; stroke-linecap: square"/>
   </g>
   <g id="line2d_115">
    <path d="M 712.555969 959.381836 
L 564.535722 1293.829759 
" clip-path="url(#pfe9e4cca4c)" style="fill: none; stroke: #7a7a7a; stroke-width: 3; stroke-linecap: square"/>
   </g>
   <g id="line2d_116">
    <path d="M 680.307044 953.897741 
L 654.902315 1014.304635 
L 649.798168 1025.354676 
L 644.694022 1038.860282 
L 634.485729 1062.597409 
L 622.769393 1088.05343 
L 612.21309 1109.744252 
L 591.216487 1157.218505 
L 566.623782 1211.159078 
L 563.955705 1216.56132 
L 561.171625 1220.817633 
L 515.35031 1291.783455 
" clip-path="url(#pfe9e4cca4c)" style="fill: none; stroke: #7a7a7a; stroke-width: 3; stroke-linecap: square"/>
   </g>
   <g id="line2d_117">
    <path d="M 965.907239 899.302351 
L 1441 1005.831065 
" clip-path="url(#pfe9e4cca4c)" style="fill: none; stroke: #7a7a7a; stroke-width: 3; stroke-linecap: square"/>
   </g>
   <g id="line2d_118">
    <path d="M 956.16296 923.366886 
L 1441 1031.824285 
" clip-path="url(#pfe9e4cca4c)" style="fill: none; stroke: #7a7a7a; stroke-width: 3; stroke-linecap: square"/>
   </g>
   <g id="line2d_119">
    <path d="M 882.848856 574.922243 
L 882.384842 576.068173 
L 882.152836 576.559286 
L 834.823478 683.540059 
" clip-path="url(#pfe9e4cca4c)" style="fill: none; stroke: #7a7a7a; stroke-width: 3; stroke-linecap: square"/>
   </g>
   <g id="line2d_120">
    <path d="M 846.539814 574.922243 
L 846.075801 576.068173 
L 845.843794 576.559286 
L 800.834502 676.337069 
" clip-path="url(#pfe9e4cca4c)" style="fill: none; stroke: #7a7a7a; stroke-width: 3; stroke-linecap: square"/>
   </g>
   <g id="line2d_121">
    <path d="M 645.738052 854.038107 
L 956.16296 923.366886 
" clip-path="url(#pfe9e4cca4c)" style="fill: none; stroke: #7a7a7a; stroke-width: 3; stroke-linecap: square"/>
   </g>
   <g id="line2d_122">
    <path d="M 640.169892 880.558206 
L 879.136749 934.253223 
L 918.693884 942.356587 
L 945.954667 948.331794 
" clip-path="url(#pfe9e4cca4c)" style="fill: none; stroke: #7a7a7a; stroke-width: 3; stroke-linecap: square"/>
   </g>
   <g id="line2d_123">
    <path d="M 581.588211 1340.321785 
L 568.595838 1370.034119 
L 537.454848 1441 
" clip-path="url(#pfe9e4cca4c)" style="fill: none; stroke: #7a7a7a; stroke-width: 3; stroke-linecap: square"/>
   </g>
   <g id="line2d_124">
    <path d="M 546.323199 1335.001395 
L 534.14285 1362.749277 
L 500.095912 1441 
" clip-path="url(#pfe9e4cca4c)" style="fill: none; stroke: #7a7a7a; stroke-width: 3; stroke-linecap: square"/>
   </g>
   <g id="line2d_125">
    <path d="M 664.878601 1352.927018 
L 652.350242 1381.084161 
L 649.218152 1387.304925 
L 639.009859 1406.212774 
L 624.717964 1441 
" clip-path="url(#pfe9e4cca4c)" style="fill: none; stroke: #7a7a7a; stroke-width: 3; stroke-linecap: square"/>
   </g>
   <g id="line2d_126">
    <path d="M 618.013256 1345.80588 
L 604.092857 1377.564518 
L 576.261888 1441 
" clip-path="url(#pfe9e4cca4c)" style="fill: none; stroke: #7a7a7a; stroke-width: 3; stroke-linecap: square"/>
   </g>
   <g id="line2d_127">
    <path d="M 941.19853 859.604053 
L 921.825974 856.739228 
L 900.829372 856.329967 
L 878.904743 858.048862 
L 856.400097 861.814062 
L 834.011454 867.380009 
L 811.970822 874.582999 
L 791.090223 883.259327 
L 771.83367 893.081587 
L 754.549174 903.967924 
L 739.932755 915.672783 
L 728.448425 928.032459 
L 720.560199 940.801396 
L 712.555969 959.381836 
" clip-path="url(#pfe9e4cca4c)" style="fill: none; stroke: #7a7a7a; stroke-width: 3; stroke-linecap: square"/>
   </g>
   <g id="line2d_128">
    <path d="M 947.926723 838.24064 
L 927.626141 835.21211 
L 906.165525 834.229884 
L 883.892886 835.21211 
L 861.272237 837.995083 
L 838.419581 842.4151 
L 815.914935 848.390308 
L 794.106309 855.757002 
L 773.22571 864.433331 
L 753.621148 874.173738 
L 735.756635 884.978223 
L 719.980182 896.601229 
L 706.523796 908.960906 
L 695.85149 921.893547 
L 688.311274 935.317301 
L 680.307044 953.897741 
" clip-path="url(#pfe9e4cca4c)" style="fill: none; stroke: #7a7a7a; stroke-width: 3; stroke-linecap: square"/>
   </g>
   <g id="line2d_129">
    <path d="M 564.535722 1293.829759 
L 556.879502 1311.264269 
L 556.647495 1311.591677 
" clip-path="url(#pfe9e4cca4c)" style="fill: none; stroke: #7a7a7a; stroke-width: 3; stroke-linecap: square"/>
   </g>
   <g id="line2d_130">
    <path d="M 515.35031 1291.783455 
L 502.821951 1311.264269 
L 502.589944 1311.591677 
" clip-path="url(#pfe9e4cca4c)" style="fill: none; stroke: #7a7a7a; stroke-width: 3; stroke-linecap: square"/>
   </g>
   <g id="line2d_131">
    <path d="M 546.323199 1335.001395 
L 534.14285 1362.749277 
L 500.095912 1441 
" clip-path="url(#pfe9e4cca4c)" style="fill: none; stroke: #7a7a7a; stroke-width: 3; stroke-linecap: square"/>
   </g>
   <g id="line2d_132">
    <path d="M 495.513741 1327.307292 
L 484.841435 1352.190348 
L 447.559361 1441 
" clip-path="url(#pfe9e4cca4c)" style="fill: none; stroke: #7a7a7a; stroke-width: 3; stroke-linecap: square"/>
   </g>
   <g id="line2d_133">
    <path d="M 645.738052 854.038107 
L 665.226611 858.458123 
L 684.135154 864.433331 
L 701.07164 873.10966 
L 715.920066 883.995997 
L 728.332422 896.601229 
L 738.192705 910.27054 
L 745.152905 924.512816 
L 748.865011 938.755092 
L 749.329024 952.424402 
L 746.080931 965.357043 
" clip-path="url(#pfe9e4cca4c)" style="fill: none; stroke: #7a7a7a; stroke-width: 3; stroke-linecap: square"/>
   </g>
   <g id="line2d_134">
    <path d="M 640.169892 880.558206 
L 659.658451 884.978223 
L 666.734654 888.334161 
L 668.358701 888.907126 
L 676.246927 892.590474 
L 680.191041 895.046038 
L 683.67114 897.829012 
L 684.01915 898.15642 
L 694.45945 906.587193 
L 705.479766 920.50206 
L 712.207959 934.744336 
L 714.644029 948.16809 
L 712.555969 959.381836 
" clip-path="url(#pfe9e4cca4c)" style="fill: none; stroke: #7a7a7a; stroke-width: 3; stroke-linecap: square"/>
   </g>
   <g id="line2d_135">
    <path d="M 685.179184 1298.740888 
L 682.97512 1311.182417 
L 682.859117 1311.591677 
" clip-path="url(#pfe9e4cca4c)" style="fill: none; stroke: #7a7a7a; stroke-width: 3; stroke-linecap: square"/>
   </g>
   <g id="line2d_136">
    <path d="M 639.357869 1296.858289 
L 633.093689 1311.182417 
L 632.977686 1311.591677 
" clip-path="url(#pfe9e4cca4c)" style="fill: none; stroke: #7a7a7a; stroke-width: 3; stroke-linecap: square"/>
   </g>
   <g id="line2d_137">
    <path d="M 618.013256 1345.80588 
L 604.092857 1377.564518 
L 576.261888 1441 
" clip-path="url(#pfe9e4cca4c)" style="fill: none; stroke: #7a7a7a; stroke-width: 3; stroke-linecap: square"/>
   </g>
   <g id="line2d_138">
    <path d="M 581.588211 1340.321785 
L 568.595838 1370.034119 
L 537.454848 1441 
" clip-path="url(#pfe9e4cca4c)" style="fill: none; stroke: #7a7a7a; stroke-width: 3; stroke-linecap: square"/>
   </g>
   <g id="line2d_139">
    <path d="M 639.357869 1296.858289 
L 633.093689 1311.182417 
L 632.977686 1311.591677 
" clip-path="url(#pfe9e4cca4c)" style="fill: none; stroke: #7a7a7a; stroke-width: 3; stroke-linecap: square"/>
   </g>
   <g id="line2d_140">
    <path d="M 601.308777 1295.303098 
L 594.348577 1311.182417 
L 594.116571 1311.591677 
" clip-path="url(#pfe9e4cca4c)" style="fill: none; stroke: #7a7a7a; stroke-width: 3; stroke-linecap: square"/>
   </g>
   <g id="line2d_141">
    <path d="M 601.308777 1295.303098 
L 594.348577 1311.182417 
L 594.116571 1311.591677 
" clip-path="url(#pfe9e4cca4c)" style="fill: none; stroke: #7a7a7a; stroke-width: 3; stroke-linecap: square"/>
   </g>
   <g id="line2d_142">
    <path d="M 564.535722 1293.829759 
L 556.879502 1311.264269 
L 556.647495 1311.591677 
" clip-path="url(#pfe9e4cca4c)" style="fill: none; stroke: #7a7a7a; stroke-width: 3; stroke-linecap: square"/>
   </g>
   <g id="line2d_143">
    <path d="M 1030.475645 184.314986 
L 1029.688849 182.410814 
" clip-path="url(#pfe9e4cca4c)" style="fill: none; stroke-dasharray: 32,8,5,8; stroke-dashoffset: 0; stroke: #1e90ff; stroke-width: 5"/>
   </g>
   <g id="line2d_144">
    <path d="M 986.701275 480.307662 
L 996.726953 473.840022 
" clip-path="url(#pfe9e4cca4c)" style="fill: none; stroke-dasharray: 32,8,5,8; stroke-dashoffset: 0; stroke: #1e90ff; stroke-width: 5"/>
   </g>
   <g id="line2d_145">
    <path d="M 1218.173902 41.610762 
L 1218.637483 40.92608 
" clip-path="url(#pfe9e4cca4c)" style="fill: none; stroke-dasharray: 32,8,5,8; stroke-dashoffset: 0; stroke: #1e90ff; stroke-width: 5"/>
   </g>
   <g id="line2d_146">
    <path d="M 945.506605 414.859906 
L 950.589362 426.436811 
" clip-path="url(#pfe9e4cca4c)" style="fill: none; stroke-dasharray: 32,8,5,8; stroke-dashoffset: 0; stroke: #1e90ff; stroke-width: 5"/>
   </g>
   <g id="line2d_147">
    <path d="M 984.394696 559.907688 
L 994.342314 568.351189 
" clip-path="url(#pfe9e4cca4c)" style="fill: none; stroke-dasharray: 32,8,5,8; stroke-dashoffset: 0; stroke: #1e90ff; stroke-width: 5"/>
   </g>
   <g id="line2d_148">
    <path d="M 1042.653021 250.09047 
L 1040.54469 246.151735 
" clip-path="url(#pfe9e4cca4c)" style="fill: none; stroke-dasharray: 32,8,5,8; stroke-dashoffset: 0; stroke: #1e90ff; stroke-width: 5"/>
   </g>
   <g id="line2d_149">
    <path d="M 464.399544 835.592695 
L 464.59673 835.434076 
" clip-path="url(#pfe9e4cca4c)" style="fill: none; stroke-dasharray: 32,8,5,8; stroke-dashoffset: 0; stroke: #1e90ff; stroke-width: 5"/>
   </g>
   <g id="line2d_150">
    <path d="M 997.115484 290.663842 
L 997.405598 295.883266 
" clip-path="url(#pfe9e4cca4c)" style="fill: none; stroke-dasharray: 32,8,5,8; stroke-dashoffset: 0; stroke: #1e90ff; stroke-width: 5"/>
   </g>
   <g id="line2d_151">
    <path d="M 556.038563 844.77983 
L 558.601625 848.427557 
" clip-path="url(#pfe9e4cca4c)" style="fill: none; stroke-dasharray: 32,8,5,8; stroke-dashoffset: 0; stroke: #1e90ff; stroke-width: 5"/>
   </g>
   <g id="line2d_152">
    <path d="M 232.304383 775.453789 
L 232.006657 775.827229 
" clip-path="url(#pfe9e4cca4c)" style="fill: none; stroke-dasharray: 32,8,5,8; stroke-dashoffset: 0; stroke: #1e90ff; stroke-width: 5"/>
   </g>
   <g id="line2d_153">
    <path d="M 962.987466 612.911257 
L 955.25509 611.634316 
" clip-path="url(#pfe9e4cca4c)" style="fill: none; stroke-dasharray: 32,8,5,8; stroke-dashoffset: 0; stroke: #1e90ff; stroke-width: 5"/>
   </g>
   <g id="line2d_154">
    <path d="M 1030.475645 184.314986 
" clip-path="url(#pfe9e4cca4c)" style="fill: none; stroke: #0000ff; stroke-width: 1.5; stroke-linecap: square"/>
    <defs>
     <path id="m6e4d8b0c05" d="M 0 10 
C 2.652031 10 5.195799 8.946337 7.071068 7.071068 
C 8.946337 5.195799 10 2.652031 10 0 
C 10 -2.652031 8.946337 -5.195799 7.071068 -7.071068 
C 5.195799 -8.946337 2.652031 -10 0 -10 
C -2.652031 -10 -5.195799 -8.946337 -7.071068 -7.071068 
C -8.946337 -5.195799 -10 -2.652031 -10 0 
C -10 2.652031 -8.946337 5.195799 -7.071068 7.071068 
C -5.195799 8.946337 -2.652031 10 0 10 
z
" style="stroke: #0000ff"/>
    </defs>
    <g clip-path="url(#pfe9e4cca4c)">
     <use xlink:href="#m6e4d8b0c05" x="1030.475645" y="184.314986" style="fill: #0000ff; stroke: #0000ff"/>
    </g>
   </g>
   <g id="line2d_155">
    <path d="M 986.701275 480.307662 
" clip-path="url(#pfe9e4cca4c)" style="fill: none; stroke: #0000ff; stroke-width: 1.5; stroke-linecap: square"/>
    <g clip-path="url(#pfe9e4cca4c)">
     <use xlink:href="#m6e4d8b0c05" x="986.701275" y="480.307662" style="fill: #0000ff; stroke: #0000ff"/>
    </g>
   </g>
   <g id="line2d_156">
    <path d="M 1218.173902 41.610762 
" clip-path="url(#pfe9e4cca4c)" style="fill: none; stroke: #0000ff; stroke-width: 1.5; stroke-linecap: square"/>
    <g clip-path="url(#pfe9e4cca4c)">
     <use xlink:href="#m6e4d8b0c05" x="1218.173902" y="41.610762" style="fill: #0000ff; stroke: #0000ff"/>
    </g>
   </g>
   <g id="line2d_157">
    <path d="M 945.506605 414.859906 
" clip-path="url(#pfe9e4cca4c)" style="fill: none; stroke: #0000ff; stroke-width: 1.5; stroke-linecap: square"/>
    <g clip-path="url(#pfe9e4cca4c)">
     <use xlink:href="#m6e4d8b0c05" x="945.506605" y="414.859906" style="fill: #0000ff; stroke: #0000ff"/>
    </g>
   </g>
   <g id="line2d_158">
    <path d="M 984.394696 559.907688 
" clip-path="url(#pfe9e4cca4c)" style="fill: none; stroke: #0000ff; stroke-width: 1.5; stroke-linecap: square"/>
    <g clip-path="url(#pfe9e4cca4c)">
     <use xlink:href="#m6e4d8b0c05" x="984.394696" y="559.907688" style="fill: #0000ff; stroke: #0000ff"/>
    </g>
   </g>
   <g id="line2d_159">
    <path d="M 1042.653021 250.09047 
" clip-path="url(#pfe9e4cca4c)" style="fill: none; stroke: #0000ff; stroke-width: 1.5; stroke-linecap: square"/>
    <g clip-path="url(#pfe9e4cca4c)">
     <use xlink:href="#m6e4d8b0c05" x="1042.653021" y="250.09047" style="fill: #0000ff; stroke: #0000ff"/>
    </g>
   </g>
   <g id="line2d_160">
    <path d="M 464.399544 835.592695 
" clip-path="url(#pfe9e4cca4c)" style="fill: none; stroke: #0000ff; stroke-width: 1.5; stroke-linecap: square"/>
    <g clip-path="url(#pfe9e4cca4c)">
     <use xlink:href="#m6e4d8b0c05" x="464.399544" y="835.592695" style="fill: #0000ff; stroke: #0000ff"/>
    </g>
   </g>
   <g id="line2d_161">
    <path d="M 997.115484 290.663842 
" clip-path="url(#pfe9e4cca4c)" style="fill: none; stroke: #0000ff; stroke-width: 1.5; stroke-linecap: square"/>
    <g clip-path="url(#pfe9e4cca4c)">
     <use xlink:href="#m6e4d8b0c05" x="997.115484" y="290.663842" style="fill: #0000ff; stroke: #0000ff"/>
    </g>
   </g>
   <g id="line2d_162">
    <path d="M 556.038563 844.77983 
" clip-path="url(#pfe9e4cca4c)" style="fill: none; stroke: #0000ff; stroke-width: 1.5; stroke-linecap: square"/>
    <g clip-path="url(#pfe9e4cca4c)">
     <use xlink:href="#m6e4d8b0c05" x="556.038563" y="844.77983" style="fill: #0000ff; stroke: #0000ff"/>
    </g>
   </g>
   <g id="line2d_163">
    <path d="M 232.304383 775.453789 
" clip-path="url(#pfe9e4cca4c)" style="fill: none; stroke: #0000ff; stroke-width: 1.5; stroke-linecap: square"/>
    <g clip-path="url(#pfe9e4cca4c)">
     <use xlink:href="#m6e4d8b0c05" x="232.304383" y="775.453789" style="fill: #0000ff; stroke: #0000ff"/>
    </g>
   </g>
   <g id="line2d_164">
    <path d="M 962.987466 612.911257 
" clip-path="url(#pfe9e4cca4c)" style="fill: none; stroke: #0000ff; stroke-width: 1.5; stroke-linecap: square"/>
    <g clip-path="url(#pfe9e4cca4c)">
     <use xlink:href="#m6e4d8b0c05" x="962.987466" y="612.911257" style="fill: #0000ff; stroke: #0000ff"/>
    </g>
   </g>
   <g id="line2d_165">
    <path d="M 1029.688849 182.410814 
" clip-path="url(#pfe9e4cca4c)" style="fill: none; stroke: #ff0000; stroke-width: 1.5; stroke-linecap: square"/>
    <defs>
     <path id="mabc3c50381" d="M 0 -10 
L -2.24514 -3.09017 
L -9.510565 -3.09017 
L -3.632713 1.18034 
L -5.877853 8.09017 
L -0 3.81966 
L 5.877853 8.09017 
L 3.632713 1.18034 
L 9.510565 -3.09017 
L 2.24514 -3.09017 
z
" style="stroke: #ff0000; stroke-linejoin: bevel"/>
    </defs>
    <g clip-path="url(#pfe9e4cca4c)">
     <use xlink:href="#mabc3c50381" x="1029.688849" y="182.410814" style="fill: #ff0000; stroke: #ff0000; stroke-linejoin: bevel"/>
    </g>
   </g>
   <g id="line2d_166">
    <path d="M 996.726953 473.840022 
" clip-path="url(#pfe9e4cca4c)" style="fill: none; stroke: #ff0000; stroke-width: 1.5; stroke-linecap: square"/>
    <g clip-path="url(#pfe9e4cca4c)">
     <use xlink:href="#mabc3c50381" x="996.726953" y="473.840022" style="fill: #ff0000; stroke: #ff0000; stroke-linejoin: bevel"/>
    </g>
   </g>
   <g id="line2d_167">
    <path d="M 1218.637483 40.92608 
" clip-path="url(#pfe9e4cca4c)" style="fill: none; stroke: #ff0000; stroke-width: 1.5; stroke-linecap: square"/>
    <g clip-path="url(#pfe9e4cca4c)">
     <use xlink:href="#mabc3c50381" x="1218.637483" y="40.92608" style="fill: #ff0000; stroke: #ff0000; stroke-linejoin: bevel"/>
    </g>
   </g>
   <g id="line2d_168">
    <path d="M 950.589362 426.436811 
" clip-path="url(#pfe9e4cca4c)" style="fill: none; stroke: #ff0000; stroke-width: 1.5; stroke-linecap: square"/>
    <g clip-path="url(#pfe9e4cca4c)">
     <use xlink:href="#mabc3c50381" x="950.589362" y="426.436811" style="fill: #ff0000; stroke: #ff0000; stroke-linejoin: bevel"/>
    </g>
   </g>
   <g id="line2d_169">
    <path d="M 994.342314 568.351189 
" clip-path="url(#pfe9e4cca4c)" style="fill: none; stroke: #ff0000; stroke-width: 1.5; stroke-linecap: square"/>
    <g clip-path="url(#pfe9e4cca4c)">
     <use xlink:href="#mabc3c50381" x="994.342314" y="568.351189" style="fill: #ff0000; stroke: #ff0000; stroke-linejoin: bevel"/>
    </g>
   </g>
   <g id="line2d_170">
    <path d="M 1040.54469 246.151735 
" clip-path="url(#pfe9e4cca4c)" style="fill: none; stroke: #ff0000; stroke-width: 1.5; stroke-linecap: square"/>
    <g clip-path="url(#pfe9e4cca4c)">
     <use xlink:href="#mabc3c50381" x="1040.54469" y="246.151735" style="fill: #ff0000; stroke: #ff0000; stroke-linejoin: bevel"/>
    </g>
   </g>
   <g id="line2d_171">
    <path d="M 464.59673 835.434076 
" clip-path="url(#pfe9e4cca4c)" style="fill: none; stroke: #ff0000; stroke-width: 1.5; stroke-linecap: square"/>
    <g clip-path="url(#pfe9e4cca4c)">
     <use xlink:href="#mabc3c50381" x="464.59673" y="835.434076" style="fill: #ff0000; stroke: #ff0000; stroke-linejoin: bevel"/>
    </g>
   </g>
   <g id="line2d_172">
    <path d="M 997.405598 295.883266 
" clip-path="url(#pfe9e4cca4c)" style="fill: none; stroke: #ff0000; stroke-width: 1.5; stroke-linecap: square"/>
    <g clip-path="url(#pfe9e4cca4c)">
     <use xlink:href="#mabc3c50381" x="997.405598" y="295.883266" style="fill: #ff0000; stroke: #ff0000; stroke-linejoin: bevel"/>
    </g>
   </g>
   <g id="line2d_173">
    <path d="M 558.601625 848.427557 
" clip-path="url(#pfe9e4cca4c)" style="fill: none; stroke: #ff0000; stroke-width: 1.5; stroke-linecap: square"/>
    <g clip-path="url(#pfe9e4cca4c)">
     <use xlink:href="#mabc3c50381" x="558.601625" y="848.427557" style="fill: #ff0000; stroke: #ff0000; stroke-linejoin: bevel"/>
    </g>
   </g>
   <g id="line2d_174">
    <path d="M 232.006657 775.827229 
" clip-path="url(#pfe9e4cca4c)" style="fill: none; stroke: #ff0000; stroke-width: 1.5; stroke-linecap: square"/>
    <g clip-path="url(#pfe9e4cca4c)">
     <use xlink:href="#mabc3c50381" x="232.006657" y="775.827229" style="fill: #ff0000; stroke: #ff0000; stroke-linejoin: bevel"/>
    </g>
   </g>
   <g id="line2d_175">
    <path d="M 955.25509 611.634316 
" clip-path="url(#pfe9e4cca4c)" style="fill: none; stroke: #ff0000; stroke-width: 1.5; stroke-linecap: square"/>
    <g clip-path="url(#pfe9e4cca4c)">
     <use xlink:href="#mabc3c50381" x="955.25509" y="611.634316" style="fill: #ff0000; stroke: #ff0000; stroke-linejoin: bevel"/>
    </g>
   </g>
  </g>
 </g>
 <defs>
  <clipPath id="pfe9e4cca4c">
   <rect x="0" y="0" width="1440" height="1440"/>
  </clipPath>
 </defs>
</svg>
