<?xml version="1.0" encoding="utf-8" standalone="no"?>
<!DOCTYPE svg PUBLIC "-//W3C//DTD SVG 1.1//EN"
  "http://www.w3.org/Graphics/SVG/1.1/DTD/svg11.dtd">
<svg xmlns:xlink="http://www.w3.org/1999/xlink" width="1440pt" height="1440pt" viewBox="0 0 1440 1440" xmlns="http://www.w3.org/2000/svg" version="1.1">
 <metadata>
  <rdf:RDF xmlns:dc="http://purl.org/dc/elements/1.1/" xmlns:cc="http://creativecommons.org/ns#" xmlns:rdf="http://www.w3.org/1999/02/22-rdf-syntax-ns#">
   <cc:Work>
    <dc:type rdf:resource="http://purl.org/dc/dcmitype/StillImage"/>
    <dc:date>2026-02-27T11:11:35.839093</dc:date>
    <dc:format>image/svg+xml</dc:format>
    <dc:creator>
     <cc:Agent>
      <dc:title>Matplotlib v3.7.3, https://matplotlib.org/</dc:title>
     </cc:Agent>
    </dc:creator>
   </cc:Work>
  </rdf:RDF>
 </metadata>
 <defs>
  <style type="text/css">*{stroke-linejoin: round; stroke-linecap: butt}</style>
 </defs>
 <g id="figure_1">
  <g id="patch_1">
   <path d="M 0 1440 
L 1440 1440 
L 1440 0 
L 0 0 
z
" style="fill: #ffffff"/>
  </g>
  <g id="axes_1">
   <g id="line2d_1">
    <path d="M 658.606195 234.170889 
L 643.127156 189.479796 
L 627.743667 142.926574 
L 610.30586 87.594745 
L 594.635722 35.455136 
L 584.71808 -1 
" clip-path="url(#pacdb1323c7)" style="fill: none; stroke: #7a7a7a; stroke-width: 3; stroke-linecap: square"/>
   </g>
   <g id="line2d_2">
    <path d="M 667.39676 169.262397 
L 665.581317 165.40513 
L 662.189306 155.828467 
L 633.619968 64.717162 
L 614.557819 0.872743 
L 614.063935 -1 
" clip-path="url(#pacdb1323c7)" style="fill: none; stroke: #7a7a7a; stroke-width: 3; stroke-linecap: square"/>
   </g>
   <g id="line2d_3">
    <path d="M 753.534745 463.744777 
L 658.606195 234.170889 
" clip-path="url(#pacdb1323c7)" style="fill: none; stroke: #7a7a7a; stroke-width: 3; stroke-linecap: square"/>
   </g>
   <g id="line2d_4">
    <path d="M 760.127669 422.511923 
L 667.39676 169.262397 
" clip-path="url(#pacdb1323c7)" style="fill: none; stroke: #7a7a7a; stroke-width: 3; stroke-linecap: square"/>
   </g>
   <g id="line2d_5">
    <path d="M 559.341747 -1 
L 574.044779 55.406517 
L 594.349073 127.098479 
L 607.152723 168.996378 
L 617.233208 200.253542 
L 627.648117 231.510705 
L 641.550587 269.817356 
L 652.777668 296.286188 
" clip-path="url(#pacdb1323c7)" style="fill: none; stroke: #7a7a7a; stroke-width: 3; stroke-linecap: square"/>
   </g>
   <g id="line2d_6">
    <path d="M 551.925041 52.081287 
L 558.995713 80.279239 
L 565.588637 104.353905 
L 576.959042 143.325602 
L 590.957062 189.346787 
L 605.098406 234.303898 
L 617.94983 271.679485 
L 642.888282 339.913207 
" clip-path="url(#pacdb1323c7)" style="fill: none; stroke: #7a7a7a; stroke-width: 3; stroke-linecap: square"/>
   </g>
   <g id="line2d_7">
    <path d="M 805.083767 581.058896 
L 770.877002 500.455318 
L 753.534745 463.744777 
" clip-path="url(#pacdb1323c7)" style="fill: none; stroke: #7a7a7a; stroke-width: 3; stroke-linecap: square"/>
   </g>
   <g id="line2d_8">
    <path d="M 815.785324 538.894978 
L 806.039263 519.741652 
L 789.12698 484.760231 
L 771.784723 448.049691 
L 760.127669 422.511923 
" clip-path="url(#pacdb1323c7)" style="fill: none; stroke: #7a7a7a; stroke-width: 3; stroke-linecap: square"/>
   </g>
   <g id="line2d_9">
    <path d="M 707.862025 924.887691 
L 692.71741 921.961489 
L 683.019123 919.700332 
L 673.225287 917.306167 
L 663.335901 914.645983 
L 653.303191 911.586771 
L 643.222705 908.39455 
L 632.998896 904.936311 
L 622.631762 901.079044 
L 612.216853 897.088768 
L 601.610845 892.699464 
L 590.909287 888.044142 
L 583.79084 884.851921 
" clip-path="url(#pacdb1323c7)" style="fill: none; stroke: #7a7a7a; stroke-width: 3; stroke-linecap: square"/>
   </g>
   <g id="line2d_10">
    <path d="M 711.827335 881.393681 
L 682.923574 873.413129 
L 664.625821 867.161696 
L 646.662492 861.974337 
L 628.508064 855.855914 
L 610.114761 848.939435 
L 588.807195 840.027818 
" clip-path="url(#pacdb1323c7)" style="fill: none; stroke: #7a7a7a; stroke-width: 3; stroke-linecap: square"/>
   </g>
   <g id="line2d_11">
    <path d="M 967.327026 902.409136 
L 935.126803 910.655706 
L 910.857199 916.242093 
" clip-path="url(#pacdb1323c7)" style="fill: none; stroke: #7a7a7a; stroke-width: 3; stroke-linecap: square"/>
   </g>
   <g id="line2d_12">
    <path d="M 966.132656 857.984061 
L 947.596029 862.905402 
L 909.328405 870.752945 
" clip-path="url(#pacdb1323c7)" style="fill: none; stroke: #7a7a7a; stroke-width: 3; stroke-linecap: square"/>
   </g>
   <g id="line2d_13">
    <path d="M 652.968767 707.816669 
L 646.758042 749.847577 
L 643.413805 773.124188 
L 638.3019 793.341587 
L 631.756751 810.233757 
L 624.065006 823.667686 
L 615.56109 833.643377 
L 606.674975 839.7618 
L 597.597761 841.889947 
L 588.807195 840.027818 
" clip-path="url(#pacdb1323c7)" style="fill: none; stroke: #7a7a7a; stroke-width: 3; stroke-linecap: square"/>
   </g>
   <g id="line2d_14">
    <path d="M 638.063026 693.318665 
L 631.900075 735.349574 
L 628.412514 754.901927 
L 623.061735 771.528078 
L 616.325487 784.429971 
L 608.777066 793.075569 
L 600.894223 796.666818 
L 593.202478 794.804689 
" clip-path="url(#pacdb1323c7)" style="fill: none; stroke: #7a7a7a; stroke-width: 3; stroke-linecap: square"/>
   </g>
   <g id="line2d_15">
    <path d="M 580.11218 932.602225 
L 591.769234 938.58764 
L 601.133097 942.444906 
L 619.669723 949.361385 
L 638.015251 955.479809 
L 656.217454 960.800177 
L 674.324108 965.32249 
L 692.287437 969.046748 
L 702.988995 970.509849 
" clip-path="url(#pacdb1323c7)" style="fill: none; stroke: #7a7a7a; stroke-width: 3; stroke-linecap: square"/>
   </g>
   <g id="line2d_16">
    <path d="M 576.24242 977.293318 
L 583.599741 980.884567 
L 599.031005 987.00299 
L 615.226666 990.727248 
L 620.720769 994.983543 
L 648.047961 1003.097104 
L 661.807107 1007.885435 
L 688.561002 1013.73784 
L 698.880361 1015.599969 
" clip-path="url(#pacdb1323c7)" style="fill: none; stroke: #7a7a7a; stroke-width: 3; stroke-linecap: square"/>
   </g>
   <g id="line2d_17">
    <path d="M 652.968767 707.816669 
L 662.42818 645.169333 
" clip-path="url(#pacdb1323c7)" style="fill: none; stroke: #7a7a7a; stroke-width: 3; stroke-linecap: square"/>
   </g>
   <g id="line2d_18">
    <path d="M 676.091776 730.428233 
L 687.892154 645.169333 
" clip-path="url(#pacdb1323c7)" style="fill: none; stroke: #7a7a7a; stroke-width: 3; stroke-linecap: square"/>
   </g>
   <g id="line2d_19">
    <path d="M 408.600607 773.789234 
L 413.425862 777.646501 
L 426.372836 787.622192 
L 439.128711 797.198854 
L 451.693486 806.37649 
L 464.114937 815.155097 
L 476.393064 823.534677 
L 488.527866 831.648239 
L 500.471569 839.229763 
L 512.271947 846.54527 
L 523.929001 853.461748 
L 535.442731 860.112208 
L 546.813136 866.363641 
L 558.040217 872.216046 
L 569.123973 877.802433 
L 583.79084 884.851921 
" clip-path="url(#pacdb1323c7)" style="fill: none; stroke: #7a7a7a; stroke-width: 3; stroke-linecap: square"/>
   </g>
   <g id="line2d_20">
    <path d="M 408.600607 825.396806 
L 413.616962 829.520091 
L 424.12742 837.766662 
L 434.542329 845.747214 
L 444.909463 853.461748 
L 455.181048 860.910264 
L 465.357083 868.092761 
L 475.485343 875.009239 
L 485.518053 881.6597 
L 495.502989 888.177151 
L 505.392374 894.295574 
L 515.233986 900.147979 
L 524.980047 905.734366 
L 534.726109 911.187743 
L 544.376621 916.375102 
L 553.931583 921.163434 
L 563.486545 925.951765 
L 572.993733 930.341069 
L 580.11218 932.602225 
" clip-path="url(#pacdb1323c7)" style="fill: none; stroke: #7a7a7a; stroke-width: 3; stroke-linecap: square"/>
   </g>
   <g id="line2d_21">
    <path d="M 638.063026 693.318665 
L 626.119323 775.784372 
L 623.061735 797.99691 
L 618.379804 815.421116 
L 612.360177 828.323008 
L 605.24173 836.569579 
L 597.311112 840.559855 
L 588.807195 840.027818 
" clip-path="url(#pacdb1323c7)" style="fill: none; stroke: #7a7a7a; stroke-width: 3; stroke-linecap: square"/>
   </g>
   <g id="line2d_22">
    <path d="M 627.743667 683.209966 
L 615.799964 765.675673 
L 611.404681 782.83386 
L 603.044089 792.011495 
L 593.202478 794.804689 
" clip-path="url(#pacdb1323c7)" style="fill: none; stroke: #7a7a7a; stroke-width: 3; stroke-linecap: square"/>
   </g>
   <g id="line2d_23">
    <path d="M 583.79084 884.851921 
L 569.123973 877.802433 
L 558.040217 872.216046 
L 546.813136 866.363641 
L 535.442731 860.112208 
L 523.929001 853.461748 
L 512.271947 846.54527 
L 500.471569 839.229763 
L 488.527866 831.648239 
L 476.393064 823.534677 
L 464.114937 815.155097 
L 451.693486 806.37649 
L 439.128711 797.198854 
L 426.372836 787.622192 
L 413.425862 777.646501 
L 408.600607 773.789234 
" clip-path="url(#pacdb1323c7)" style="fill: none; stroke: #7a7a7a; stroke-width: 3; stroke-linecap: square"/>
   </g>
   <g id="line2d_24">
    <path d="M 588.807195 840.027818 
L 572.659309 832.446294 
L 553.549384 822.869631 
L 534.105036 812.228895 
L 514.374039 800.657094 
L 494.260843 788.154228 
L 473.765449 774.45428 
L 452.887857 759.823268 
L 431.580291 743.995172 
L 408.600607 723.910782 
" clip-path="url(#pacdb1323c7)" style="fill: none; stroke: #7a7a7a; stroke-width: 3; stroke-linecap: square"/>
   </g>
   <g id="line2d_25">
    <path d="M 662.42818 645.169333 
L 652.968767 707.816669 
" clip-path="url(#pacdb1323c7)" style="fill: none; stroke: #7a7a7a; stroke-width: 3; stroke-linecap: square"/>
   </g>
   <g id="line2d_26">
    <path d="M 644.847049 645.169333 
L 638.063026 693.318665 
" clip-path="url(#pacdb1323c7)" style="fill: none; stroke: #7a7a7a; stroke-width: 3; stroke-linecap: square"/>
   </g>
   <g id="line2d_27">
    <path d="M 644.847049 645.169333 
L 638.063026 693.318665 
" clip-path="url(#pacdb1323c7)" style="fill: none; stroke: #7a7a7a; stroke-width: 3; stroke-linecap: square"/>
   </g>
   <g id="line2d_28">
    <path d="M 633.476644 645.169333 
L 627.743667 683.209966 
" clip-path="url(#pacdb1323c7)" style="fill: none; stroke: #7a7a7a; stroke-width: 3; stroke-linecap: square"/>
   </g>
   <g id="line2d_29">
    <path d="M 966.132656 857.984061 
L 947.596029 862.905402 
L 909.328405 870.752945 
" clip-path="url(#pacdb1323c7)" style="fill: none; stroke: #7a7a7a; stroke-width: 3; stroke-linecap: square"/>
   </g>
   <g id="line2d_30">
    <path d="M 964.98606 814.224033 
L 908.038485 828.988054 
" clip-path="url(#pacdb1323c7)" style="fill: none; stroke: #7a7a7a; stroke-width: 3; stroke-linecap: square"/>
   </g>
   <g id="line2d_31">
    <path d="M 910.857199 916.242093 
L 935.126803 910.655706 
L 967.327026 902.409136 
" clip-path="url(#pacdb1323c7)" style="fill: none; stroke: #7a7a7a; stroke-width: 3; stroke-linecap: square"/>
   </g>
   <g id="line2d_32">
    <path d="M 913.914787 964.524435 
L 968.425847 953.085643 
" clip-path="url(#pacdb1323c7)" style="fill: none; stroke: #7a7a7a; stroke-width: 3; stroke-linecap: square"/>
   </g>
   <g id="line2d_33">
    <path d="M 652.968767 707.816669 
L 651.392198 728.034068 
L 651.153324 750.778642 
L 652.20437 775.119326 
L 654.545336 800.391075 
L 658.080672 825.529815 
L 662.810378 849.73749 
L 668.68668 871.950028 
L 675.661802 891.369372 
L 683.735746 907.197467 
L 692.81296 918.237231 
L 702.893445 923.956627 
L 707.862025 924.887691 
" clip-path="url(#pacdb1323c7)" style="fill: none; stroke: #7a7a7a; stroke-width: 3; stroke-linecap: square"/>
   </g>
   <g id="line2d_34">
    <path d="M 638.063026 693.318665 
L 636.199808 714.600138 
L 635.435411 737.74374 
L 635.72206 762.217433 
L 637.059755 787.622192 
L 639.352946 813.292968 
L 642.601633 838.830736 
L 646.758042 863.437439 
L 651.774397 886.847059 
L 657.650699 908.39455 
L 664.291397 927.680885 
L 671.696493 943.908008 
L 679.818211 956.676891 
L 688.608776 965.455499 
L 698.020414 969.578784 
L 702.988995 970.509849 
" clip-path="url(#pacdb1323c7)" style="fill: none; stroke: #7a7a7a; stroke-width: 3; stroke-linecap: square"/>
   </g>
   <g id="line2d_35">
    <path d="M 711.827335 881.393681 
L 707.9098 880.994654 
L 700.170281 874.87623 
L 692.908509 861.57531 
L 686.411135 842.821012 
L 681.012581 820.342456 
L 676.999497 796.134781 
L 674.658531 771.927105 
L 674.228558 749.44855 
L 676.091776 730.428233 
" clip-path="url(#pacdb1323c7)" style="fill: none; stroke: #7a7a7a; stroke-width: 3; stroke-linecap: square"/>
   </g>
   <g id="line2d_36">
    <path d="M 715.935968 834.042404 
L 704.278914 831.648239 
L 701.937949 830.318147 
L 699.549208 828.589027 
L 697.160468 826.194861 
L 695.153926 823.135649 
L 693.577357 819.67741 
L 690.280895 811.430839 
L 688.9432 806.908526 
L 686.315585 794.67168 
L 685.694513 790.415385 
L 684.786791 784.030943 
L 684.022394 776.582428 
L 683.640196 768.335857 
L 683.735746 758.759194 
L 683.831295 757.163084 
L 683.735746 754.768918 
L 685.742288 739.871887 
" clip-path="url(#pacdb1323c7)" style="fill: none; stroke: #7a7a7a; stroke-width: 3; stroke-linecap: square"/>
   </g>
   <g id="line2d_37">
    <path d="M 583.79084 884.851921 
L 592.676955 887.113077 
L 601.085322 885.383957 
L 609.063715 880.063589 
L 616.421036 871.151973 
L 623.205059 858.915126 
L 629.272461 843.486058 
L 634.575465 825.130788 
L 639.114072 803.849315 
L 642.744957 779.907658 
L 652.968767 707.816669 
" clip-path="url(#pacdb1323c7)" style="fill: none; stroke: #7a7a7a; stroke-width: 3; stroke-linecap: square"/>
   </g>
   <g id="line2d_38">
    <path d="M 580.11218 932.602225 
L 589.237169 935.927455 
L 598.409932 936.193474 
L 607.582696 933.400281 
L 616.516586 927.946903 
L 625.116052 919.700332 
L 633.33332 909.059596 
L 640.929515 896.157703 
L 647.856862 881.127663 
L 653.924263 863.969475 
L 659.036168 845.082168 
L 663.097027 824.598751 
L 665.915741 802.519223 
L 676.091776 730.428233 
" clip-path="url(#pacdb1323c7)" style="fill: none; stroke: #7a7a7a; stroke-width: 3; stroke-linecap: square"/>
   </g>
   <g id="line2d_39">
    <path d="M 913.914787 964.524435 
L 968.425847 953.085643 
" clip-path="url(#pacdb1323c7)" style="fill: none; stroke: #7a7a7a; stroke-width: 3; stroke-linecap: square"/>
   </g>
   <g id="line2d_40">
    <path d="M 913.102615 1011.343675 
L 934.505731 1007.486408 
L 974.349924 997.510717 
" clip-path="url(#pacdb1323c7)" style="fill: none; stroke: #7a7a7a; stroke-width: 3; stroke-linecap: square"/>
   </g>
   <g id="line2d_41">
    <path d="M 702.988995 970.509849 
L 710.155216 971.97295 
L 719.041331 973.303042 
L 727.927446 974.367116 
L 736.813561 975.29818 
L 745.651901 976.096235 
L 754.490241 976.628272 
L 763.328581 977.160309 
L 772.166922 977.426327 
L 780.957487 977.559337 
L 789.795827 977.559337 
L 798.586392 977.426327 
L 807.424732 977.160309 
L 816.215298 976.628272 
L 825.053638 976.096235 
L 833.891978 975.431189 
L 842.730318 974.766143 
L 851.568658 973.835079 
L 860.406998 972.771005 
L 869.293113 971.706932 
L 878.179228 970.509849 
L 887.065343 969.046748 
L 895.999233 967.716655 
L 904.933123 966.120545 
L 913.914787 964.524435 
" clip-path="url(#pacdb1323c7)" style="fill: none; stroke: #7a7a7a; stroke-width: 3; stroke-linecap: square"/>
   </g>
   <g id="line2d_42">
    <path d="M 698.880361 1015.599969 
L 725.204282 1020.122282 
L 778.616521 1023.580522 
L 799.494114 1023.447512 
L 847.030051 1021.186356 
L 886.778694 1015.998997 
L 913.102615 1011.343675 
" clip-path="url(#pacdb1323c7)" style="fill: none; stroke: #7a7a7a; stroke-width: 3; stroke-linecap: square"/>
   </g>
   <g id="line2d_43">
    <path d="M 711.827335 881.393681 
L 693.147383 876.738359 
L 684.213494 869.289844 
L 676.139551 856.121932 
L 669.021104 838.298699 
L 663.049252 817.283244 
L 658.223996 794.405661 
L 654.68866 770.730023 
L 652.586569 747.586421 
L 651.965496 726.171939 
L 652.968767 707.816669 
" clip-path="url(#pacdb1323c7)" style="fill: none; stroke: #7a7a7a; stroke-width: 3; stroke-linecap: square"/>
   </g>
   <g id="line2d_44">
    <path d="M 715.935968 834.042404 
L 704.13559 830.983193 
L 701.985724 830.185137 
L 700.600254 829.254073 
L 697.399342 828.456018 
L 691.093067 824.73176 
L 684.404593 808.637646 
L 678.767165 784.695989 
L 675.518478 757.163084 
L 676.091776 730.428233 
" clip-path="url(#pacdb1323c7)" style="fill: none; stroke: #7a7a7a; stroke-width: 3; stroke-linecap: square"/>
   </g>
   <g id="line2d_45">
    <path d="M 707.862025 924.887691 
L 711.77956 925.552737 
L 721.191198 927.015839 
L 730.507286 928.345931 
L 739.727825 929.410004 
L 748.900588 930.20806 
L 757.977803 930.873106 
L 766.959467 931.272133 
L 775.845582 931.538152 
L 784.683922 931.671161 
L 793.474487 931.538152 
L 802.217278 931.272133 
L 810.864519 930.873106 
L 819.463985 930.341069 
L 827.967901 929.676023 
L 836.471818 928.744958 
L 844.880185 927.813894 
L 853.288551 926.74982 
L 861.601369 925.552737 
L 869.914186 924.222645 
L 878.131453 922.892553 
L 886.396496 921.296443 
L 894.565988 919.700332 
L 902.735481 918.104222 
L 910.857199 916.242093 
" clip-path="url(#pacdb1323c7)" style="fill: none; stroke: #7a7a7a; stroke-width: 3; stroke-linecap: square"/>
   </g>
   <g id="line2d_46">
    <path d="M 702.988995 970.509849 
L 710.155216 971.97295 
L 719.041331 973.303042 
L 727.927446 974.367116 
L 736.813561 975.29818 
L 745.651901 976.096235 
L 754.490241 976.628272 
L 763.328581 977.160309 
L 772.166922 977.426327 
L 780.957487 977.559337 
L 789.795827 977.559337 
L 798.586392 977.426327 
L 807.424732 977.160309 
L 816.215298 976.628272 
L 825.053638 976.096235 
L 833.891978 975.431189 
L 842.730318 974.766143 
L 851.568658 973.835079 
L 860.406998 972.771005 
L 869.293113 971.706932 
L 878.179228 970.509849 
L 887.065343 969.046748 
L 895.999233 967.716655 
L 904.933123 966.120545 
L 913.914787 964.524435 
" clip-path="url(#pacdb1323c7)" style="fill: none; stroke: #7a7a7a; stroke-width: 3; stroke-linecap: square"/>
   </g>
   <g id="line2d_47">
    <path d="M 676.091776 730.428233 
L 687.892154 645.169333 
" clip-path="url(#pacdb1323c7)" style="fill: none; stroke: #7a7a7a; stroke-width: 3; stroke-linecap: square"/>
   </g>
   <g id="line2d_48">
    <path d="M 685.742288 739.871887 
L 699.262559 645.169333 
" clip-path="url(#pacdb1323c7)" style="fill: none; stroke: #7a7a7a; stroke-width: 3; stroke-linecap: square"/>
   </g>
   <g id="line2d_49">
    <path d="M 909.328405 870.752945 
L 884.103305 875.142249 
L 857.492735 878.866506 
L 822.473798 882.723773 
L 787.502636 883.25581 
L 761.417589 882.856783 
L 744.027558 882.856783 
L 726.303103 881.260672 
L 711.827335 881.393681 
" clip-path="url(#pacdb1323c7)" style="fill: none; stroke: #7a7a7a; stroke-width: 3; stroke-linecap: square"/>
   </g>
   <g id="line2d_50">
    <path d="M 908.038485 828.988054 
L 900.53784 830.983193 
L 848.51107 835.904533 
L 822.999321 838.298699 
L 787.311537 838.963745 
L 751.00268 838.03268 
L 723.723263 835.638515 
L 715.935968 834.042404 
" clip-path="url(#pacdb1323c7)" style="fill: none; stroke: #7a7a7a; stroke-width: 3; stroke-linecap: square"/>
   </g>
   <g id="line2d_51">
    <path d="M 583.79084 884.851921 
L 593.059153 888.975206 
L 602.518566 889.507243 
L 611.977979 886.847059 
L 621.341842 880.861644 
L 630.466831 872.083037 
L 639.114072 860.511236 
L 647.23579 846.41226 
L 654.640885 830.052128 
L 661.13826 811.430839 
L 666.680138 791.080431 
L 671.027646 769.000903 
L 674.037459 745.458274 
L 676.091776 730.428233 
" clip-path="url(#pacdb1323c7)" style="fill: none; stroke: #7a7a7a; stroke-width: 3; stroke-linecap: square"/>
   </g>
   <g id="line2d_52">
    <path d="M 580.11218 932.602225 
L 588.902745 936.459492 
L 597.884409 937.390557 
L 606.961624 935.528428 
L 615.991063 930.873106 
L 624.972728 923.690609 
L 633.715518 913.847927 
L 642.123885 901.61108 
L 650.150053 886.980068 
L 657.650699 870.220908 
L 664.482497 851.067583 
L 670.645447 829.919119 
L 675.948451 806.775517 
L 680.343734 781.769787 
L 683.687971 754.768918 
L 685.742288 739.871887 
" clip-path="url(#pacdb1323c7)" style="fill: none; stroke: #7a7a7a; stroke-width: 3; stroke-linecap: square"/>
   </g>
   <g id="line2d_53">
    <path d="M 408.600607 825.396806 
L 413.616962 829.520091 
L 424.12742 837.766662 
L 434.542329 845.747214 
L 444.909463 853.461748 
L 455.181048 860.910264 
L 465.357083 868.092761 
L 475.485343 875.009239 
L 485.518053 881.6597 
L 495.502989 888.177151 
L 505.392374 894.295574 
L 515.233986 900.147979 
L 524.980047 905.734366 
L 534.726109 911.187743 
L 544.376621 916.375102 
L 553.931583 921.163434 
L 563.486545 925.951765 
L 572.993733 930.341069 
L 580.11218 932.602225 
" clip-path="url(#pacdb1323c7)" style="fill: none; stroke: #7a7a7a; stroke-width: 3; stroke-linecap: square"/>
   </g>
   <g id="line2d_54">
    <path d="M 408.600607 876.339332 
L 430.815894 893.098491 
L 460.054078 913.714918 
L 482.460465 928.877968 
L 503.242508 941.380833 
L 524.597849 952.686615 
L 576.24242 977.293318 
" clip-path="url(#pacdb1323c7)" style="fill: none; stroke: #7a7a7a; stroke-width: 3; stroke-linecap: square"/>
   </g>
   <g id="line2d_55">
    <path d="M 588.807195 840.027818 
L 572.659309 832.446294 
L 553.549384 822.869631 
L 534.105036 812.228895 
L 514.374039 800.657094 
L 494.260843 788.154228 
L 473.765449 774.45428 
L 452.887857 759.823268 
L 431.580291 743.995172 
L 408.600607 723.910782 
" clip-path="url(#pacdb1323c7)" style="fill: none; stroke: #7a7a7a; stroke-width: 3; stroke-linecap: square"/>
   </g>
   <g id="line2d_56">
    <path d="M 593.202478 794.804689 
L 565.063114 781.902796 
L 544.949918 772.85817 
L 527.98986 763.414516 
L 508.402188 752.507761 
L 489.340038 739.605869 
L 469.943464 725.373884 
L 449.925818 709.678797 
L 430.003722 695.313803 
L 408.600607 680.283763 
" clip-path="url(#pacdb1323c7)" style="fill: none; stroke: #7a7a7a; stroke-width: 3; stroke-linecap: square"/>
   </g>
   <g id="line2d_57">
    <path d="M 583.79084 884.851921 
L 590.909287 888.044142 
L 601.610845 892.699464 
L 612.216853 897.088768 
L 622.631762 901.079044 
L 632.998896 904.936311 
L 643.222705 908.39455 
L 653.303191 911.586771 
L 663.335901 914.645983 
L 673.225287 917.306167 
L 683.019123 919.700332 
L 692.71741 921.961489 
L 707.862025 924.887691 
" clip-path="url(#pacdb1323c7)" style="fill: none; stroke: #7a7a7a; stroke-width: 3; stroke-linecap: square"/>
   </g>
   <g id="line2d_58">
    <path d="M 580.11218 932.602225 
L 591.769234 938.58764 
L 601.133097 942.444906 
L 619.669723 949.361385 
L 638.015251 955.479809 
L 656.217454 960.800177 
L 674.324108 965.32249 
L 692.287437 969.046748 
L 702.988995 970.509849 
" clip-path="url(#pacdb1323c7)" style="fill: none; stroke: #7a7a7a; stroke-width: 3; stroke-linecap: square"/>
   </g>
   <g id="line2d_59">
    <path d="M 910.857199 916.242093 
L 902.735481 918.104222 
L 894.565988 919.700332 
L 886.396496 921.296443 
L 878.131453 922.892553 
L 869.914186 924.222645 
L 861.601369 925.552737 
L 853.288551 926.74982 
L 844.880185 927.813894 
L 836.471818 928.744958 
L 827.967901 929.676023 
L 819.463985 930.341069 
L 810.864519 930.873106 
L 802.217278 931.272133 
L 793.474487 931.538152 
L 784.683922 931.671161 
L 775.845582 931.538152 
L 766.959467 931.272133 
L 757.977803 930.873106 
L 748.900588 930.20806 
L 739.727825 929.410004 
L 730.507286 928.345931 
L 721.191198 927.015839 
L 711.77956 925.552737 
L 707.862025 924.887691 
" clip-path="url(#pacdb1323c7)" style="fill: none; stroke: #7a7a7a; stroke-width: 3; stroke-linecap: square"/>
   </g>
   <g id="line2d_60">
    <path d="M 909.328405 870.752945 
L 884.103305 875.142249 
L 857.492735 878.866506 
L 822.473798 882.723773 
L 787.502636 883.25581 
L 761.417589 882.856783 
L 744.027558 882.856783 
L 726.303103 881.260672 
L 711.827335 881.393681 
" clip-path="url(#pacdb1323c7)" style="fill: none; stroke: #7a7a7a; stroke-width: 3; stroke-linecap: square"/>
   </g>
   <g id="line2d_61">
    <path d="M 711.827335 881.393681 
L 682.923574 873.413129 
L 664.625821 867.161696 
L 646.662492 861.974337 
L 628.508064 855.855914 
L 610.114761 848.939435 
L 588.807195 840.027818 
" clip-path="url(#pacdb1323c7)" style="fill: none; stroke: #7a7a7a; stroke-width: 3; stroke-linecap: square"/>
   </g>
   <g id="line2d_62">
    <path d="M 715.935968 834.042404 
L 688.84765 828.988054 
L 657.555149 820.076438 
L 625.928224 809.169683 
L 593.202478 794.804689 
" clip-path="url(#pacdb1323c7)" style="fill: none; stroke: #7a7a7a; stroke-width: 3; stroke-linecap: square"/>
   </g>
   <g id="line2d_63">
    <path d="M 728.930717 168.597351 
L 675.900676 549.136687 
" clip-path="url(#pacdb1323c7)" style="fill: none; stroke: #7a7a7a; stroke-width: 3; stroke-linecap: square"/>
   </g>
   <g id="line2d_64">
    <path d="M 713.977201 150.508099 
L 660.947161 529.717343 
" clip-path="url(#pacdb1323c7)" style="fill: none; stroke: #7a7a7a; stroke-width: 3; stroke-linecap: square"/>
   </g>
   <g id="line2d_65">
    <path d="M 713.977201 150.508099 
L 660.947161 529.717343 
" clip-path="url(#pacdb1323c7)" style="fill: none; stroke: #7a7a7a; stroke-width: 3; stroke-linecap: square"/>
   </g>
   <g id="line2d_66">
    <path d="M 704.517789 139.069307 
L 663.7181 436.078862 
L 656.886302 479.306854 
L 651.487748 517.480496 
" clip-path="url(#pacdb1323c7)" style="fill: none; stroke: #7a7a7a; stroke-width: 3; stroke-linecap: square"/>
   </g>
   <g id="line2d_67">
    <path d="M 662.42818 645.169333 
L 662.905928 642.110121 
L 663.049252 641.179057 
L 663.288126 639.316928 
L 663.527 637.720817 
L 675.900676 549.136687 
" clip-path="url(#pacdb1323c7)" style="fill: none; stroke: #7a7a7a; stroke-width: 3; stroke-linecap: square"/>
   </g>
   <g id="line2d_68">
    <path d="M 687.892154 645.169333 
L 688.274353 642.110121 
L 688.417677 641.179057 
L 688.656551 639.449937 
L 688.895425 637.853827 
L 697.351567 576.935611 
" clip-path="url(#pacdb1323c7)" style="fill: none; stroke: #7a7a7a; stroke-width: 3; stroke-linecap: square"/>
   </g>
   <g id="line2d_69">
    <path d="M 753.534745 463.744777 
L 747.085146 446.719599 
L 741.829916 429.428402 
L 737.816832 411.33915 
L 734.998118 392.318834 
L 733.469324 371.835416 
L 733.373775 349.090842 
L 734.185946 325.149185 
L 736.479137 298.281326 
L 740.062248 268.620273 
L 749.951634 194.135118 
" clip-path="url(#pacdb1323c7)" style="fill: none; stroke: #7a7a7a; stroke-width: 3; stroke-linecap: square"/>
   </g>
   <g id="line2d_70">
    <path d="M 760.127669 422.511923 
L 753.773619 404.156653 
L 748.948363 385.934392 
L 745.843 366.515048 
L 744.839729 344.43552 
L 745.795226 326.346268 
L 745.747451 326.08025 
L 746.320749 313.311366 
L 748.040642 297.882298 
L 751.623753 272.344531 
L 755.684612 238.294174 
L 756.831207 235.500981 
L 760.079894 212.623398 
" clip-path="url(#pacdb1323c7)" style="fill: none; stroke: #7a7a7a; stroke-width: 3; stroke-linecap: square"/>
   </g>
   <g id="line2d_71">
    <path d="M 687.892154 645.169333 
L 688.274353 642.110121 
L 688.417677 641.179057 
L 688.656551 639.449937 
L 688.895425 637.853827 
L 697.351567 576.935611 
" clip-path="url(#pacdb1323c7)" style="fill: none; stroke: #7a7a7a; stroke-width: 3; stroke-linecap: square"/>
   </g>
   <g id="line2d_72">
    <path d="M 699.262559 645.169333 
L 699.692533 642.110121 
L 699.835857 641.179057 
L 700.122506 639.449937 
L 700.313605 637.853827 
L 707.097628 589.571485 
" clip-path="url(#pacdb1323c7)" style="fill: none; stroke: #7a7a7a; stroke-width: 3; stroke-linecap: square"/>
   </g>
   <g id="line2d_73">
    <path d="M 728.930717 168.597351 
L 728.548519 171.523553 
L 724.774309 193.603081 
L 719.901278 213.687471 
L 714.024976 231.244686 
L 707.336502 245.609681 
L 700.026956 256.383426 
L 692.144112 262.900877 
L 683.926845 264.496988 
L 675.470703 260.639721 
L 667.014562 250.66403 
L 658.606195 234.170889 
" clip-path="url(#pacdb1323c7)" style="fill: none; stroke: #7a7a7a; stroke-width: 3; stroke-linecap: square"/>
   </g>
   <g id="line2d_74">
    <path d="M 713.977201 150.508099 
L 713.547228 153.434301 
L 709.29527 173.518691 
L 702.988995 188.415722 
L 695.153926 196.928311 
L 686.267811 197.460348 
L 676.856173 188.681741 
L 667.39676 169.262397 
" clip-path="url(#pacdb1323c7)" style="fill: none; stroke: #7a7a7a; stroke-width: 3; stroke-linecap: square"/>
   </g>
   <g id="line2d_75">
    <path d="M 652.777668 296.286188 
L 661.13826 311.582246 
L 669.9766 322.355992 
L 679.101589 328.607425 
L 688.274353 330.735572 
L 697.399342 329.139461 
L 706.333231 323.819093 
L 714.837148 315.306504 
L 722.767767 303.734703 
L 730.029538 289.2367 
L 736.335813 272.344531 
L 741.591042 253.191205 
L 745.651901 231.909732 
L 749.951634 194.135118 
" clip-path="url(#pacdb1323c7)" style="fill: none; stroke: #7a7a7a; stroke-width: 3; stroke-linecap: square"/>
   </g>
   <g id="line2d_76">
    <path d="M 642.888282 339.913207 
L 649.911179 357.204404 
L 657.507374 370.372315 
L 665.629092 379.54995 
L 674.085234 385.136337 
L 682.780249 386.998466 
L 691.618589 385.668374 
L 700.409155 381.013051 
L 709.10417 373.431527 
L 717.512537 362.9238 
L 725.538706 349.888897 
L 733.087126 334.193811 
L 740.014473 316.370578 
L 746.177424 296.286188 
L 751.241554 275.137724 
L 751.623753 272.344531 
L 755.684612 238.294174 
L 756.831207 235.500981 
L 760.079894 212.623398 
" clip-path="url(#pacdb1323c7)" style="fill: none; stroke: #7a7a7a; stroke-width: 3; stroke-linecap: square"/>
   </g>
   <g id="line2d_77">
    <path d="M 675.900676 549.136687 
L 680.917032 512.958183 
L 684.786791 483.29713 
L 687.796605 455.764225 
L 689.850921 430.093448 
L 690.997517 406.018782 
L 691.045292 383.274208 
L 690.089795 361.460698 
L 687.939929 340.179225 
L 684.643467 319.429789 
L 680.10486 298.813363 
L 674.324108 277.797908 
L 667.157886 256.383426 
L 658.606195 234.170889 
" clip-path="url(#pacdb1323c7)" style="fill: none; stroke: #7a7a7a; stroke-width: 3; stroke-linecap: square"/>
   </g>
   <g id="line2d_78">
    <path d="M 697.351567 576.935611 
L 702.367922 540.757107 
L 706.381006 509.100916 
L 709.390819 479.040836 
L 711.397361 450.709875 
L 712.448407 423.842015 
L 712.639506 398.437257 
L 711.970659 374.229582 
L 710.441865 351.08598 
L 708.196449 328.873443 
L 705.234411 307.59197 
L 702.176823 287.773599 
L 697.208242 266.758144 
L 692.287437 247.072782 
L 686.841108 227.520429 
L 680.821482 208.234094 
L 674.324108 188.81475 
L 667.39676 169.262397 
" clip-path="url(#pacdb1323c7)" style="fill: none; stroke: #7a7a7a; stroke-width: 3; stroke-linecap: square"/>
   </g>
   <g id="line2d_79">
    <path d="M 660.947161 529.717343 
L 645.898095 637.720817 
L 645.659221 639.316928 
L 645.420347 641.179057 
L 645.277022 642.110121 
L 644.847049 645.169333 
" clip-path="url(#pacdb1323c7)" style="fill: none; stroke: #7a7a7a; stroke-width: 3; stroke-linecap: square"/>
   </g>
   <g id="line2d_80">
    <path d="M 651.487748 517.480496 
L 634.52769 637.720817 
L 634.336591 639.316928 
L 634.049942 641.179057 
L 633.906617 642.110121 
L 633.476644 645.169333 
" clip-path="url(#pacdb1323c7)" style="fill: none; stroke: #7a7a7a; stroke-width: 3; stroke-linecap: square"/>
   </g>
   <g id="line2d_81">
    <path d="M 697.351567 576.935611 
L 748.183966 209.032149 
L 749.951634 194.135118 
" clip-path="url(#pacdb1323c7)" style="fill: none; stroke: #7a7a7a; stroke-width: 3; stroke-linecap: square"/>
   </g>
   <g id="line2d_82">
    <path d="M 707.097628 589.571485 
L 747.753993 300.409473 
L 748.040642 297.882298 
L 751.623753 272.344531 
L 755.684612 238.294174 
L 756.831207 235.500981 
L 760.079894 212.623398 
" clip-path="url(#pacdb1323c7)" style="fill: none; stroke: #7a7a7a; stroke-width: 3; stroke-linecap: square"/>
   </g>
   <g id="line2d_83">
    <path d="M 753.534745 463.744777 
L 744.696405 446.187562 
L 735.71474 435.413816 
L 726.733076 430.891503 
L 717.942511 431.955577 
L 709.581919 437.940991 
L 701.794624 448.049691 
L 694.771727 461.749639 
L 688.704326 478.37579 
L 683.831295 497.130088 
L 680.295959 517.480496 
L 675.900676 549.136687 
" clip-path="url(#pacdb1323c7)" style="fill: none; stroke: #7a7a7a; stroke-width: 3; stroke-linecap: square"/>
   </g>
   <g id="line2d_84">
    <path d="M 760.127669 422.511923 
L 751.432653 401.230451 
L 742.689863 385.801383 
L 733.899298 375.958702 
L 725.204282 371.17037 
L 716.700365 371.17037 
L 708.483098 375.559674 
L 700.552479 384.072263 
L 693.099609 396.176101 
L 686.172261 411.472159 
L 679.818211 429.694421 
L 674.180783 450.443857 
L 669.307753 473.454449 
L 665.342443 498.194161 
L 660.947161 529.717343 
" clip-path="url(#pacdb1323c7)" style="fill: none; stroke: #7a7a7a; stroke-width: 3; stroke-linecap: square"/>
   </g>
   <g id="line2d_85">
    <path d="M 652.777668 296.286188 
L 658.988393 312.114283 
L 664.864695 328.075388 
L 670.263249 344.568529 
L 674.992955 362.125744 
L 678.958264 381.013051 
L 681.920303 401.762487 
L 683.687971 424.906089 
L 684.165719 450.709875 
L 683.114673 479.705882 
L 680.439284 512.426146 
L 675.900676 549.136687 
" clip-path="url(#pacdb1323c7)" style="fill: none; stroke: #7a7a7a; stroke-width: 3; stroke-linecap: square"/>
   </g>
   <g id="line2d_86">
    <path d="M 642.888282 339.913207 
L 646.805816 350.021907 
L 653.350966 366.781066 
L 658.319546 379.54995 
L 660.564962 386.998466 
L 661.759332 390.988742 
L 662.380405 393.648926 
L 665.915741 407.215865 
L 668.877779 425.305117 
L 669.928825 443.12835 
L 669.403302 461.350611 
L 667.540084 481.301992 
L 664.625821 503.647539 
L 660.947161 529.717343 
" clip-path="url(#pacdb1323c7)" style="fill: none; stroke: #7a7a7a; stroke-width: 3; stroke-linecap: square"/>
   </g>
   <g id="line2d_87">
    <path d="M 753.534745 463.744777 
L 746.607397 446.054553 
L 740.157798 427.433264 
L 734.281496 407.747902 
L 729.121816 387.131475 
L 724.774309 365.317965 
L 721.430072 342.440382 
L 719.136881 318.498725 
L 718.085835 293.492994 
L 718.372484 267.290181 
L 720.092377 239.890285 
L 723.436614 211.426315 
L 728.930717 168.597351 
" clip-path="url(#pacdb1323c7)" style="fill: none; stroke: #7a7a7a; stroke-width: 3; stroke-linecap: square"/>
   </g>
   <g id="line2d_88">
    <path d="M 760.127669 422.511923 
L 754.442466 406.151791 
L 749.282787 388.727585 
L 744.935279 369.57426 
L 741.686592 348.558805 
L 739.727825 325.149185 
L 739.345626 298.946372 
L 740.826645 269.684347 
L 744.409756 236.831073 
L 749.951634 194.135118 
" clip-path="url(#pacdb1323c7)" style="fill: none; stroke: #7a7a7a; stroke-width: 3; stroke-linecap: square"/>
   </g>
   <g id="line2d_89">
    <path d="M 652.777668 296.286188 
L 659.418367 316.104559 
L 664.482497 336.321958 
L 668.065607 357.071394 
L 670.311024 378.485877 
L 671.314295 400.698414 
L 671.17097 423.842015 
L 669.928825 448.1827 
L 667.778959 473.587458 
L 664.721371 500.455318 
L 660.947161 529.717343 
" clip-path="url(#pacdb1323c7)" style="fill: none; stroke: #7a7a7a; stroke-width: 3; stroke-linecap: square"/>
   </g>
   <g id="line2d_90">
    <path d="M 642.888282 339.913207 
L 658.319546 379.54995 
L 661.759332 390.988742 
L 662.905928 396.176101 
L 663.765874 401.496469 
L 664.91247 413.06827 
L 664.530271 427.965301 
L 663.7181 436.078862 
L 661.616008 449.246774 
L 651.487748 517.480496 
" clip-path="url(#pacdb1323c7)" style="fill: none; stroke: #7a7a7a; stroke-width: 3; stroke-linecap: square"/>
   </g>
   <g id="line2d_91">
    <path d="M 652.777668 296.286188 
L 661.854882 311.848265 
L 670.740997 322.089974 
L 679.292688 327.011314 
L 687.414406 326.745296 
L 695.058376 321.424927 
L 702.081273 310.9172 
L 708.387548 295.355123 
L 713.929426 274.738696 
L 718.563583 249.200929 
L 728.930717 168.597351 
" clip-path="url(#pacdb1323c7)" style="fill: none; stroke: #7a7a7a; stroke-width: 3; stroke-linecap: square"/>
   </g>
   <g id="line2d_92">
    <path d="M 642.888282 339.913207 
L 651.248874 359.332551 
L 659.800565 373.963564 
L 668.495581 383.939254 
L 677.238371 389.525641 
L 685.885612 390.855733 
L 694.341754 388.195548 
L 702.511246 381.811107 
L 710.250766 371.702407 
L 717.560312 358.268477 
L 724.201011 341.642327 
L 730.172862 321.956964 
L 735.332542 299.611418 
L 739.536725 274.605687 
L 749.951634 194.135118 
" clip-path="url(#pacdb1323c7)" style="fill: none; stroke: #7a7a7a; stroke-width: 3; stroke-linecap: square"/>
   </g>
   <g id="line2d_93">
    <path d="M 675.900676 549.136687 
L 663.527 637.720817 
L 663.288126 639.316928 
L 663.049252 641.179057 
L 662.905928 642.110121 
L 662.42818 645.169333 
" clip-path="url(#pacdb1323c7)" style="fill: none; stroke: #7a7a7a; stroke-width: 3; stroke-linecap: square"/>
   </g>
   <g id="line2d_94">
    <path d="M 660.947161 529.717343 
L 645.898095 637.720817 
L 645.659221 639.316928 
L 645.420347 641.179057 
L 645.277022 642.110121 
L 644.847049 645.169333 
" clip-path="url(#pacdb1323c7)" style="fill: none; stroke: #7a7a7a; stroke-width: 3; stroke-linecap: square"/>
   </g>
   <g id="line2d_95">
    <path d="M 713.977201 150.508099 
L 710.011892 178.83906 
L 705.52106 201.317615 
L 699.16701 220.60395 
L 691.475265 235.766999 
L 683.066898 245.74269 
L 674.371883 249.466947 
L 666.059065 246.008708 
L 658.606195 234.170889 
" clip-path="url(#pacdb1323c7)" style="fill: none; stroke: #7a7a7a; stroke-width: 3; stroke-linecap: square"/>
   </g>
   <g id="line2d_96">
    <path d="M 704.517789 139.069307 
L 700.552479 167.400268 
L 697.064918 182.03128 
L 691.379715 191.075906 
L 684.070169 192.938035 
L 675.852902 186.154566 
L 671.648718 177.774986 
L 671.362069 177.375958 
L 667.39676 169.262397 
" clip-path="url(#pacdb1323c7)" style="fill: none; stroke: #7a7a7a; stroke-width: 3; stroke-linecap: square"/>
   </g>
   <g id="line2d_97">
    <path d="M 675.900676 549.136687 
L 728.930717 168.597351 
" clip-path="url(#pacdb1323c7)" style="fill: none; stroke: #7a7a7a; stroke-width: 3; stroke-linecap: square"/>
   </g>
   <g id="line2d_98">
    <path d="M 697.351567 576.935611 
L 748.183966 209.032149 
L 749.951634 194.135118 
" clip-path="url(#pacdb1323c7)" style="fill: none; stroke: #7a7a7a; stroke-width: 3; stroke-linecap: square"/>
   </g>
   <g id="line2d_99">
    <path d="M 753.534745 463.744777 
L 742.450989 440.601175 
L 731.892756 425.172108 
L 721.955595 416.526509 
L 712.591732 413.999334 
L 703.896716 416.659518 
L 695.870548 423.709006 
L 688.513227 434.482752 
L 681.920303 448.049691 
L 676.091776 463.611768 
L 671.027646 480.370928 
L 666.775688 497.529115 
L 663.431451 514.288275 
L 660.947161 529.717343 
" clip-path="url(#pacdb1323c7)" style="fill: none; stroke: #7a7a7a; stroke-width: 3; stroke-linecap: square"/>
   </g>
   <g id="line2d_100">
    <path d="M 760.127669 422.511923 
L 751.337104 400.831423 
L 742.403214 385.402355 
L 733.421549 375.692683 
L 724.39211 371.303379 
L 715.505995 371.569398 
L 706.810979 375.958702 
L 698.354838 384.072263 
L 690.32867 395.378046 
L 682.6847 409.211003 
L 675.614028 425.172108 
L 669.164428 442.596313 
L 663.431451 461.084593 
L 658.55842 480.104909 
L 654.497561 499.125226 
L 651.487748 517.480496 
" clip-path="url(#pacdb1323c7)" style="fill: none; stroke: #7a7a7a; stroke-width: 3; stroke-linecap: square"/>
   </g>
   <g id="line2d_101">
    <path d="M -1 387.820432 
L 8.916534 398.03823 
L 67.631777 458.2914 
L 129.547933 524.263965 
L 193.183982 585.980237 
L 269.098157 656.608125 
L 343.10134 720.452543 
L 379.123548 750.911651 
L 407.167362 772.592151 
L 407.501786 772.991179 
L 407.883984 773.257197 
L 408.027309 773.390207 
L 408.600607 773.789234 
" clip-path="url(#pacdb1323c7)" style="fill: none; stroke: #7a7a7a; stroke-width: 3; stroke-linecap: square"/>
   </g>
   <g id="line2d_102">
    <path d="M -1 441.087569 
L 25.972142 469.198154 
L 137.526326 583.453062 
L 246.930645 687.333251 
L 357.672658 783.631915 
L 407.167362 824.199723 
L 407.501786 824.465741 
L 407.883984 824.864769 
L 408.027309 824.997778 
L 408.600607 825.396806 
" clip-path="url(#pacdb1323c7)" style="fill: none; stroke: #7a7a7a; stroke-width: 3; stroke-linecap: square"/>
   </g>
   <g id="line2d_103">
    <path d="M -1 441.087569 
L 25.972142 469.198154 
L 137.526326 583.453062 
L 246.930645 687.333251 
L 357.672658 783.631915 
L 407.167362 824.199723 
L 407.501786 824.465741 
L 407.883984 824.864769 
L 408.027309 824.997778 
L 408.600607 825.396806 
" clip-path="url(#pacdb1323c7)" style="fill: none; stroke: #7a7a7a; stroke-width: 3; stroke-linecap: square"/>
   </g>
   <g id="line2d_104">
    <path d="M -1 489.972094 
L 44.604318 536.766831 
L 95.818916 588.507411 
L 158.403919 653.149885 
L 230.209461 723.112727 
L 288.924704 775.917382 
L 345.346756 824.465741 
L 407.167362 875.275258 
L 407.501786 875.541276 
L 407.883984 875.807295 
L 408.027309 875.940304 
L 408.600607 876.339332 
" clip-path="url(#pacdb1323c7)" style="fill: none; stroke: #7a7a7a; stroke-width: 3; stroke-linecap: square"/>
   </g>
   <g id="line2d_105">
    <path d="M 408.600607 773.789234 
L 408.027309 773.390207 
L 407.883984 773.257197 
L 407.501786 772.991179 
L 407.167362 772.592151 
L 379.123548 750.911651 
L 343.10134 720.452543 
L 269.098157 656.608125 
L 193.183982 585.980237 
L 129.547933 524.263965 
L 67.631777 458.2914 
L 8.916534 398.03823 
L -1 387.820432 
" clip-path="url(#pacdb1323c7)" style="fill: none; stroke: #7a7a7a; stroke-width: 3; stroke-linecap: square"/>
   </g>
   <g id="line2d_106">
    <path d="M 408.600607 723.910782 
L 408.027309 723.511755 
L 407.883984 723.378746 
L 407.501786 722.979718 
L 407.167362 722.7137 
L 355.331692 683.076956 
L 300.10401 635.725679 
L 246.500671 588.77343 
L 188.645375 535.17072 
L 129.165734 475.050559 
L 75.466846 417.457574 
L 23.057878 363.189818 
L -1 338.25638 
" clip-path="url(#pacdb1323c7)" style="fill: none; stroke: #7a7a7a; stroke-width: 3; stroke-linecap: square"/>
   </g>
   <g id="line2d_107">
    <path d="M 408.600607 723.910782 
L 408.027309 723.511755 
L 407.883984 723.378746 
L 407.501786 722.979718 
L 407.167362 722.7137 
L 355.331692 683.076956 
L 300.10401 635.725679 
L 246.500671 588.77343 
L 188.645375 535.17072 
L 129.165734 475.050559 
L 75.466846 417.457574 
L 23.057878 363.189818 
L -1 338.25638 
" clip-path="url(#pacdb1323c7)" style="fill: none; stroke: #7a7a7a; stroke-width: 3; stroke-linecap: square"/>
   </g>
   <g id="line2d_108">
    <path d="M 408.600607 680.283763 
L 408.075084 679.884735 
L 407.931759 679.751726 
L 407.549561 679.485708 
L 407.167362 679.352699 
L 202.452295 498.194161 
L -1 289.089426 
" clip-path="url(#pacdb1323c7)" style="fill: none; stroke: #7a7a7a; stroke-width: 3; stroke-linecap: square"/>
   </g>
   <g id="line2d_109">
    <path d="M 783.186154 1040.972384 
L 785.079184 1040.696364 
" clip-path="url(#pacdb1323c7)" style="fill: none; stroke-dasharray: 32,8,5,8; stroke-dashoffset: 0; stroke: #1e90ff; stroke-width: 5"/>
   </g>
   <g id="line2d_110">
    <path d="M 802.862938 536.699936 
L 802.2086 536.813592 
" clip-path="url(#pacdb1323c7)" style="fill: none; stroke-dasharray: 32,8,5,8; stroke-dashoffset: 0; stroke: #1e90ff; stroke-width: 5"/>
   </g>
   <g id="line2d_111">
    <path d="M 751.914414 219.952283 
L 753.873928 217.156362 
" clip-path="url(#pacdb1323c7)" style="fill: none; stroke-dasharray: 32,8,5,8; stroke-dashoffset: 0; stroke: #1e90ff; stroke-width: 5"/>
   </g>
   <g id="line2d_112">
    <path d="M 604.654623 66.826085 
L 600.928047 66.504603 
" clip-path="url(#pacdb1323c7)" style="fill: none; stroke-dasharray: 32,8,5,8; stroke-dashoffset: 0; stroke: #1e90ff; stroke-width: 5"/>
   </g>
   <g id="line2d_113">
    <path d="M 524.183925 951.282095 
L 522.457686 949.973435 
" clip-path="url(#pacdb1323c7)" style="fill: none; stroke-dasharray: 32,8,5,8; stroke-dashoffset: 0; stroke: #1e90ff; stroke-width: 5"/>
   </g>
   <g id="line2d_114">
    <path d="M 783.186154 1040.972384 
" clip-path="url(#pacdb1323c7)" style="fill: none; stroke: #0000ff; stroke-width: 1.5; stroke-linecap: square"/>
    <defs>
     <path id="m87d63ec973" d="M 0 10 
C 2.652031 10 5.195799 8.946337 7.071068 7.071068 
C 8.946337 5.195799 10 2.652031 10 0 
C 10 -2.652031 8.946337 -5.195799 7.071068 -7.071068 
C 5.195799 -8.946337 2.652031 -10 0 -10 
C -2.652031 -10 -5.195799 -8.946337 -7.071068 -7.071068 
C -8.946337 -5.195799 -10 -2.652031 -10 0 
C -10 2.652031 -8.946337 5.195799 -7.071068 7.071068 
C -5.195799 8.946337 -2.652031 10 0 10 
z
" style="stroke: #0000ff"/>
    </defs>
    <g clip-path="url(#pacdb1323c7)">
     <use xlink:href="#m87d63ec973" x="783.186154" y="1040.972384" style="fill: #0000ff; stroke: #0000ff"/>
    </g>
   </g>
   <g id="line2d_115">
    <path d="M 802.862938 536.699936 
" clip-path="url(#pacdb1323c7)" style="fill: none; stroke: #0000ff; stroke-width: 1.5; stroke-linecap: square"/>
    <g clip-path="url(#pacdb1323c7)">
     <use xlink:href="#m87d63ec973" x="802.862938" y="536.699936" style="fill: #0000ff; stroke: #0000ff"/>
    </g>
   </g>
   <g id="line2d_116">
    <path d="M 751.914414 219.952283 
" clip-path="url(#pacdb1323c7)" style="fill: none; stroke: #0000ff; stroke-width: 1.5; stroke-linecap: square"/>
    <g clip-path="url(#pacdb1323c7)">
     <use xlink:href="#m87d63ec973" x="751.914414" y="219.952283" style="fill: #0000ff; stroke: #0000ff"/>
    </g>
   </g>
   <g id="line2d_117">
    <path d="M 604.654623 66.826085 
" clip-path="url(#pacdb1323c7)" style="fill: none; stroke: #0000ff; stroke-width: 1.5; stroke-linecap: square"/>
    <g clip-path="url(#pacdb1323c7)">
     <use xlink:href="#m87d63ec973" x="604.654623" y="66.826085" style="fill: #0000ff; stroke: #0000ff"/>
    </g>
   </g>
   <g id="line2d_118">
    <path d="M 524.183925 951.282095 
" clip-path="url(#pacdb1323c7)" style="fill: none; stroke: #0000ff; stroke-width: 1.5; stroke-linecap: square"/>
    <g clip-path="url(#pacdb1323c7)">
     <use xlink:href="#m87d63ec973" x="524.183925" y="951.282095" style="fill: #0000ff; stroke: #0000ff"/>
    </g>
   </g>
   <g id="line2d_119">
    <path d="M 785.079184 1040.696364 
" clip-path="url(#pacdb1323c7)" style="fill: none; stroke: #ff0000; stroke-width: 1.5; stroke-linecap: square"/>
    <defs>
     <path id="ma211e519c9" d="M 0 -10 
L -2.24514 -3.09017 
L -9.510565 -3.09017 
L -3.632713 1.18034 
L -5.877853 8.09017 
L -0 3.81966 
L 5.877853 8.09017 
L 3.632713 1.18034 
L 9.510565 -3.09017 
L 2.24514 -3.09017 
z
" style="stroke: #ff0000; stroke-linejoin: bevel"/>
    </defs>
    <g clip-path="url(#pacdb1323c7)">
     <use xlink:href="#ma211e519c9" x="785.079184" y="1040.696364" style="fill: #ff0000; stroke: #ff0000; stroke-linejoin: bevel"/>
    </g>
   </g>
   <g id="line2d_120">
    <path d="M 802.2086 536.813592 
" clip-path="url(#pacdb1323c7)" style="fill: none; stroke: #ff0000; stroke-width: 1.5; stroke-linecap: square"/>
    <g clip-path="url(#pacdb1323c7)">
     <use xlink:href="#ma211e519c9" x="802.2086" y="536.813592" style="fill: #ff0000; stroke: #ff0000; stroke-linejoin: bevel"/>
    </g>
   </g>
   <g id="line2d_121">
    <path d="M 753.873928 217.156362 
" clip-path="url(#pacdb1323c7)" style="fill: none; stroke: #ff0000; stroke-width: 1.5; stroke-linecap: square"/>
    <g clip-path="url(#pacdb1323c7)">
     <use xlink:href="#ma211e519c9" x="753.873928" y="217.156362" style="fill: #ff0000; stroke: #ff0000; stroke-linejoin: bevel"/>
    </g>
   </g>
   <g id="line2d_122">
    <path d="M 600.928047 66.504603 
" clip-path="url(#pacdb1323c7)" style="fill: none; stroke: #ff0000; stroke-width: 1.5; stroke-linecap: square"/>
    <g clip-path="url(#pacdb1323c7)">
     <use xlink:href="#ma211e519c9" x="600.928047" y="66.504603" style="fill: #ff0000; stroke: #ff0000; stroke-linejoin: bevel"/>
    </g>
   </g>
   <g id="line2d_123">
    <path d="M 522.457686 949.973435 
" clip-path="url(#pacdb1323c7)" style="fill: none; stroke: #ff0000; stroke-width: 1.5; stroke-linecap: square"/>
    <g clip-path="url(#pacdb1323c7)">
     <use xlink:href="#ma211e519c9" x="522.457686" y="949.973435" style="fill: #ff0000; stroke: #ff0000; stroke-linejoin: bevel"/>
    </g>
   </g>
  </g>
 </g>
 <defs>
  <clipPath id="pacdb1323c7">
   <rect x="0" y="0" width="1440" height="1440"/>
  </clipPath>
 </defs>
</svg>
