<?xml version="1.0" encoding="utf-8" standalone="no"?>
<!DOCTYPE svg PUBLIC "-//W3C//DTD SVG 1.1//EN"
  "http://www.w3.org/Graphics/SVG/1.1/DTD/svg11.dtd">
<svg xmlns:xlink="http://www.w3.org/1999/xlink" width="1440pt" height="1440pt" viewBox="0 0 1440 1440" xmlns="http://www.w3.org/2000/svg" version="1.1">
 <metadata>
  <rdf:RDF xmlns:dc="http://purl.org/dc/elements/1.1/" xmlns:cc="http://creativecommons.org/ns#" xmlns:rdf="http://www.w3.org/1999/02/22-rdf-syntax-ns#">
   <cc:Work>
    <dc:type rdf:resource="http://purl.org/dc/dcmitype/StillImage"/>
    <dc:date>2026-02-27T11:12:00.940450</dc:date>
    <dc:format>image/svg+xml</dc:format>
    <dc:creator>
     <cc:Agent>
      <dc:title>Matplotlib v3.7.3, https://matplotlib.org/</dc:title>
     </cc:Agent>
    </dc:creator>
   </cc:Work>
  </rdf:RDF>
 </metadata>
 <defs>
  <style type="text/css">*{stroke-linejoin: round; stroke-linecap: butt}</style>
 </defs>
 <g id="figure_1">
  <g id="patch_1">
   <path d="M 0 1440 
L 1440 1440 
L 1440 0 
L 0 0 
z
" style="fill: #ffffff"/>
  </g>
  <g id="axes_1">
   <g id="line2d_1">
    <path d="M 928.937384 617.085019 
L 946.872683 578.694781 
L 1031.424806 399.932361 
L 1031.937243 398.924303 
" clip-path="url(#pb61b8b52df)" style="fill: none; stroke: #7a7a7a; stroke-width: 3; stroke-linecap: square"/>
   </g>
   <g id="line2d_2">
    <path d="M 965.448528 624.393445 
L 986.586559 577.434708 
L 1072.547884 399.932361 
L 1073.060321 398.924303 
" clip-path="url(#pb61b8b52df)" style="fill: none; stroke: #7a7a7a; stroke-width: 3; stroke-linecap: square"/>
   </g>
   <g id="line2d_3">
    <path d="M 992.863913 398.924303 
L 992.351476 399.932361 
L 936.62394 518.043246 
L 894.09166 610.280622 
" clip-path="url(#pb61b8b52df)" style="fill: none; stroke: #7a7a7a; stroke-width: 3; stroke-linecap: square"/>
   </g>
   <g id="line2d_4">
    <path d="M 951.228398 398.924303 
L 950.715961 399.932361 
L 855.915096 602.720182 
" clip-path="url(#pb61b8b52df)" style="fill: none; stroke: #7a7a7a; stroke-width: 3; stroke-linecap: square"/>
   </g>
   <g id="line2d_5">
    <path d="M 1096.504318 754.937054 
L 585.988849 677.064515 
" clip-path="url(#pb61b8b52df)" style="fill: none; stroke: #7a7a7a; stroke-width: 3; stroke-linecap: square"/>
   </g>
   <g id="line2d_6">
    <path d="M 1108.54659 729.48357 
L 1081.259314 723.351213 
L 1049.231995 716.714826 
L 1043.979515 715.202738 
L 616.606966 630.189783 
" clip-path="url(#pb61b8b52df)" style="fill: none; stroke: #7a7a7a; stroke-width: 3; stroke-linecap: square"/>
   </g>
   <g id="line2d_7">
    <path d="M 585.988849 677.064515 
L 1084.333937 779.718498 
" clip-path="url(#pb61b8b52df)" style="fill: none; stroke: #7a7a7a; stroke-width: 3; stroke-linecap: square"/>
   </g>
   <g id="line2d_8">
    <path d="M 573.946577 703.778072 
L 1067.93595 815.000555 
" clip-path="url(#pb61b8b52df)" style="fill: none; stroke: #7a7a7a; stroke-width: 3; stroke-linecap: square"/>
   </g>
   <g id="line2d_9">
    <path d="M 971.853992 625.569513 
L 1080.490659 398.924303 
" clip-path="url(#pb61b8b52df)" style="fill: none; stroke: #7a7a7a; stroke-width: 3; stroke-linecap: square"/>
   </g>
   <g id="line2d_10">
    <path d="M 999.909923 631.533861 
L 1111.236885 399.932361 
L 1111.621213 398.924303 
" clip-path="url(#pb61b8b52df)" style="fill: none; stroke: #7a7a7a; stroke-width: 3; stroke-linecap: square"/>
   </g>
   <g id="line2d_11">
    <path d="M 951.228398 398.924303 
L 950.715961 399.932361 
L 855.915096 602.720182 
" clip-path="url(#pb61b8b52df)" style="fill: none; stroke: #7a7a7a; stroke-width: 3; stroke-linecap: square"/>
   </g>
   <g id="line2d_12">
    <path d="M 910.489648 398.924303 
L 910.10532 399.932361 
L 834.777065 561.389772 
L 818.891515 595.411756 
" clip-path="url(#pb61b8b52df)" style="fill: none; stroke: #7a7a7a; stroke-width: 3; stroke-linecap: square"/>
   </g>
   <g id="line2d_13">
    <path d="M 488.753907 657.07135 
L 585.988849 677.064515 
" clip-path="url(#pb61b8b52df)" style="fill: none; stroke: #7a7a7a; stroke-width: 3; stroke-linecap: square"/>
   </g>
   <g id="line2d_14">
    <path d="M 475.81487 683.196872 
L 573.946577 703.778072 
" clip-path="url(#pb61b8b52df)" style="fill: none; stroke: #7a7a7a; stroke-width: 3; stroke-linecap: square"/>
   </g>
   <g id="line2d_15">
    <path d="M 1426.641926 822.560996 
L 1425.745161 822.392986 
L 1423.439194 821.888957 
L 1420.877008 821.300922 
L 1420.236462 821.216917 
L 1381.67557 813.236452 
L 1096.504318 754.937054 
" clip-path="url(#pb61b8b52df)" style="fill: none; stroke: #7a7a7a; stroke-width: 3; stroke-linecap: square"/>
   </g>
   <g id="line2d_16">
    <path d="M 1426.641926 789.547071 
L 1425.745161 789.379062 
L 1423.567303 788.875032 
L 1420.877008 788.286998 
L 1420.236462 788.202993 
L 1108.54659 729.48357 
" clip-path="url(#pb61b8b52df)" style="fill: none; stroke: #7a7a7a; stroke-width: 3; stroke-linecap: square"/>
   </g>
   <g id="line2d_17">
    <path d="M 273.658431 641.698453 
L 275.451961 642.118478 
L 475.81487 683.196872 
" clip-path="url(#pb61b8b52df)" style="fill: none; stroke: #7a7a7a; stroke-width: 3; stroke-linecap: square"/>
   </g>
   <g id="line2d_18">
    <path d="M 273.658431 672.108226 
L 275.451961 672.444246 
L 462.747724 709.74242 
" clip-path="url(#pb61b8b52df)" style="fill: none; stroke: #7a7a7a; stroke-width: 3; stroke-linecap: square"/>
   </g>
   <g id="line2d_19">
    <path d="M 811.204958 866.663566 
L 928.937384 617.085019 
" clip-path="url(#pb61b8b52df)" style="fill: none; stroke: #7a7a7a; stroke-width: 3; stroke-linecap: square"/>
   </g>
   <g id="line2d_20">
    <path d="M 846.947446 875.98811 
L 965.448528 624.393445 
" clip-path="url(#pb61b8b52df)" style="fill: none; stroke: #7a7a7a; stroke-width: 3; stroke-linecap: square"/>
   </g>
   <g id="line2d_21">
    <path d="M 273.658431 612.716764 
L 274.042759 612.800769 
L 274.427086 612.800769 
L 275.451961 613.052784 
L 488.753907 657.07135 
" clip-path="url(#pb61b8b52df)" style="fill: none; stroke: #7a7a7a; stroke-width: 3; stroke-linecap: square"/>
   </g>
   <g id="line2d_22">
    <path d="M 273.658431 641.698453 
L 275.451961 642.118478 
L 475.81487 683.196872 
" clip-path="url(#pb61b8b52df)" style="fill: none; stroke: #7a7a7a; stroke-width: 3; stroke-linecap: square"/>
   </g>
   <g id="line2d_23">
    <path d="M 776.999781 858.179072 
L 659.907902 1107.25359 
L 638.769871 1151.944195 
L 638.257434 1153.204268 
L 638.129324 1153.456283 
L 637.873106 1154.044317 
L 637.616887 1154.548347 
L 637.360669 1154.968371 
" clip-path="url(#pb61b8b52df)" style="fill: none; stroke: #7a7a7a; stroke-width: 3; stroke-linecap: square"/>
   </g>
   <g id="line2d_24">
    <path d="M 737.926451 848.266494 
L 593.034859 1151.86019 
L 592.522422 1153.120264 
L 592.394312 1153.456283 
L 592.138094 1154.044317 
L 591.881875 1154.464342 
L 591.625657 1154.968371 
" clip-path="url(#pb61b8b52df)" style="fill: none; stroke: #7a7a7a; stroke-width: 3; stroke-linecap: square"/>
   </g>
   <g id="line2d_25">
    <path d="M 902.931201 398.924303 
L 842.463622 522.159486 
L 810.692521 593.479643 
" clip-path="url(#pb61b8b52df)" style="fill: none; stroke: #7a7a7a; stroke-width: 3; stroke-linecap: square"/>
   </g>
   <g id="line2d_26">
    <path d="M 871.672537 398.924303 
L 819.275842 519.807349 
L 782.380371 588.187334 
" clip-path="url(#pb61b8b52df)" style="fill: none; stroke: #7a7a7a; stroke-width: 3; stroke-linecap: square"/>
   </g>
   <g id="line2d_27">
    <path d="M 676.049671 1154.968371 
L 676.17778 1154.548347 
L 676.433998 1154.128322 
L 676.690217 1153.540288 
L 676.818326 1153.204268 
L 677.458873 1151.944195 
L 691.679002 1121.534422 
L 811.204958 866.663566 
" clip-path="url(#pb61b8b52df)" style="fill: none; stroke: #7a7a7a; stroke-width: 3; stroke-linecap: square"/>
   </g>
   <g id="line2d_28">
    <path d="M 716.147874 1154.968371 
L 716.532202 1154.128322 
L 716.660311 1153.876308 
L 716.91653 1153.540288 
L 717.044639 1153.204268 
L 717.557076 1151.944195 
L 846.947446 875.98811 
" clip-path="url(#pb61b8b52df)" style="fill: none; stroke: #7a7a7a; stroke-width: 3; stroke-linecap: square"/>
   </g>
   <g id="line2d_29">
    <path d="M 894.09166 610.280622 
L 936.62394 518.043246 
L 992.351476 399.932361 
L 992.863913 398.924303 
" clip-path="url(#pb61b8b52df)" style="fill: none; stroke: #7a7a7a; stroke-width: 3; stroke-linecap: square"/>
   </g>
   <g id="line2d_30">
    <path d="M 928.937384 617.085019 
L 946.872683 578.694781 
L 1031.424806 399.932361 
L 1031.937243 398.924303 
" clip-path="url(#pb61b8b52df)" style="fill: none; stroke: #7a7a7a; stroke-width: 3; stroke-linecap: square"/>
   </g>
   <g id="line2d_31">
    <path d="M 894.09166 610.280622 
L 776.999781 858.179072 
" clip-path="url(#pb61b8b52df)" style="fill: none; stroke: #7a7a7a; stroke-width: 3; stroke-linecap: square"/>
   </g>
   <g id="line2d_32">
    <path d="M 855.915096 602.720182 
L 737.926451 848.266494 
" clip-path="url(#pb61b8b52df)" style="fill: none; stroke: #7a7a7a; stroke-width: 3; stroke-linecap: square"/>
   </g>
   <g id="line2d_33">
    <path d="M 585.988849 677.064515 
L 488.753907 657.07135 
" clip-path="url(#pb61b8b52df)" style="fill: none; stroke: #7a7a7a; stroke-width: 3; stroke-linecap: square"/>
   </g>
   <g id="line2d_34">
    <path d="M 616.606966 630.189783 
L 576.764981 622.461332 
L 522.959084 611.372686 
L 511.173031 607.340451 
" clip-path="url(#pb61b8b52df)" style="fill: none; stroke: #7a7a7a; stroke-width: 3; stroke-linecap: square"/>
   </g>
   <g id="line2d_35">
    <path d="M 810.692521 593.479643 
L 702.6964 817.856722 
L 702.6964 818.108736 
L 693.088204 837.849887 
" clip-path="url(#pb61b8b52df)" style="fill: none; stroke: #7a7a7a; stroke-width: 3; stroke-linecap: square"/>
   </g>
   <g id="line2d_36">
    <path d="M 782.380371 588.187334 
L 776.103016 601.880133 
L 774.309486 604.736299 
L 694.241188 782.742675 
L 675.793452 809.456232 
L 675.409124 810.296281 
L 675.281015 810.6323 
L 665.672819 830.373451 
" clip-path="url(#pb61b8b52df)" style="fill: none; stroke: #7a7a7a; stroke-width: 3; stroke-linecap: square"/>
   </g>
   <g id="line2d_37">
    <path d="M 724.474977 1154.968371 
L 724.859305 1154.128322 
L 724.859305 1153.876308 
L 725.115524 1153.540288 
L 725.243633 1153.204268 
L 766.879148 1067.771289 
L 774.181377 1051.306329 
L 856.427533 879.432311 
" clip-path="url(#pb61b8b52df)" style="fill: none; stroke: #7a7a7a; stroke-width: 3; stroke-linecap: square"/>
   </g>
   <g id="line2d_38">
    <path d="M 752.4028 1154.968371 
L 752.787128 1154.128322 
L 752.915237 1153.960313 
L 753.171455 1153.540288 
L 753.299565 1153.204268 
L 881.66506 884.640614 
" clip-path="url(#pb61b8b52df)" style="fill: none; stroke: #7a7a7a; stroke-width: 3; stroke-linecap: square"/>
   </g>
   <g id="line2d_39">
    <path d="M 1084.333937 779.718498 
L 1038.983253 772.578082 
L 1008.877573 769.049877 
L 980.693532 766.949754 
L 954.174911 766.36172 
L 929.321712 767.453784 
L 906.262042 770.225945 
L 884.739683 774.5942 
L 864.882745 780.810562 
L 846.563119 788.875032 
L 829.780803 798.78761 
L 814.40769 810.548296 
L 800.571888 824.409103 
L 788.145288 840.202024 
L 776.999781 858.179072 
" clip-path="url(#pb61b8b52df)" style="fill: none; stroke: #7a7a7a; stroke-width: 3; stroke-linecap: square"/>
   </g>
   <g id="line2d_40">
    <path d="M 1096.504318 754.937054 
L 1051.153634 747.796638 
L 1021.81661 744.352437 
L 993.37635 742.084305 
L 966.089074 740.992241 
L 939.954782 741.160251 
L 914.845363 742.588334 
L 891.145147 745.276491 
L 868.726023 749.308726 
L 847.716102 754.685039 
L 828.243492 761.489436 
L 810.180084 769.553906 
L 793.782096 779.130464 
L 778.92142 790.135106 
L 765.982383 802.56783 
L 754.708767 816.512643 
L 745.35679 831.969544 
L 737.926451 848.266494 
" clip-path="url(#pb61b8b52df)" style="fill: none; stroke: #7a7a7a; stroke-width: 3; stroke-linecap: square"/>
   </g>
   <g id="line2d_41">
    <path d="M 776.999781 858.179072 
L 894.09166 610.280622 
" clip-path="url(#pb61b8b52df)" style="fill: none; stroke: #7a7a7a; stroke-width: 3; stroke-linecap: square"/>
   </g>
   <g id="line2d_42">
    <path d="M 811.204958 866.663566 
L 928.937384 617.085019 
" clip-path="url(#pb61b8b52df)" style="fill: none; stroke: #7a7a7a; stroke-width: 3; stroke-linecap: square"/>
   </g>
   <g id="line2d_43">
    <path d="M 585.988849 677.064515 
L 649.146722 687.397117 
L 677.715091 691.093333 
L 705.514804 692.605421 
L 732.417753 692.017387 
L 757.911499 689.49724 
L 782.124152 685.04498 
L 804.671385 678.912623 
L 825.425088 671.016162 
L 844.129042 661.607614 
L 860.52703 650.686977 
L 874.490941 638.506267 
L 885.636448 624.981479 
L 894.09166 610.280622 
" clip-path="url(#pb61b8b52df)" style="fill: none; stroke: #7a7a7a; stroke-width: 3; stroke-linecap: square"/>
   </g>
   <g id="line2d_44">
    <path d="M 573.946577 703.778072 
L 637.488778 713.69065 
L 662.598196 716.546816 
L 687.707615 717.890895 
L 712.817033 717.80689 
L 737.670233 716.210797 
L 762.010996 713.18662 
L 785.583103 708.818366 
L 808.130335 703.190038 
L 829.652694 696.301636 
L 849.76585 688.237166 
L 868.213586 678.996628 
L 884.867792 668.664025 
L 899.47225 657.239359 
L 911.89885 644.806635 
L 921.763264 631.449856 
L 928.937384 617.085019 
" clip-path="url(#pb61b8b52df)" style="fill: none; stroke: #7a7a7a; stroke-width: 3; stroke-linecap: square"/>
   </g>
   <g id="line2d_45">
    <path d="M 776.999781 858.179072 
L 782.636589 843.39421 
L 785.711212 828.441338 
L 786.351758 813.488467 
L 784.30201 798.6196 
L 779.561967 784.002748 
L 772.259738 769.805921 
L 762.139105 755.945113 
L 749.456286 742.756344 
L 733.955064 730.239614 
L 715.763546 718.646939 
L 694.753625 707.978317 
L 670.925299 698.317754 
L 644.27857 689.917264 
L 614.685327 682.944858 
L 585.988849 677.064515 
" clip-path="url(#pb61b8b52df)" style="fill: none; stroke: #7a7a7a; stroke-width: 3; stroke-linecap: square"/>
   </g>
   <g id="line2d_46">
    <path d="M 811.204958 866.663566 
L 818.891515 850.450621 
L 824.143995 834.069667 
L 827.218618 817.604707 
L 827.987273 801.223752 
L 826.578071 785.094812 
L 823.119121 769.133882 
L 817.610422 753.592976 
L 810.180084 738.472094 
L 800.956216 723.939247 
L 789.938818 710.078439 
L 777.12789 697.05768 
L 762.651542 684.87697 
L 746.637882 673.704319 
L 729.086911 663.539727 
L 710.126738 654.635208 
L 689.757363 646.990762 
L 668.106895 640.690395 
L 645.303444 635.986121 
L 616.606966 630.189783 
" clip-path="url(#pb61b8b52df)" style="fill: none; stroke: #7a7a7a; stroke-width: 3; stroke-linecap: square"/>
   </g>
   <g id="line2d_47">
    <path d="M 855.915096 602.720182 
L 737.926451 848.266494 
" clip-path="url(#pb61b8b52df)" style="fill: none; stroke: #7a7a7a; stroke-width: 3; stroke-linecap: square"/>
   </g>
   <g id="line2d_48">
    <path d="M 818.891515 595.411756 
L 701.927745 839.27797 
" clip-path="url(#pb61b8b52df)" style="fill: none; stroke: #7a7a7a; stroke-width: 3; stroke-linecap: square"/>
   </g>
   <g id="line2d_49">
    <path d="M 856.427533 879.432311 
L 971.853992 625.569513 
" clip-path="url(#pb61b8b52df)" style="fill: none; stroke: #7a7a7a; stroke-width: 3; stroke-linecap: square"/>
   </g>
   <g id="line2d_50">
    <path d="M 881.66506 884.640614 
L 975.441051 679.080632 
L 989.9174 652.7871 
L 991.967148 648.082826 
L 999.909923 631.533861 
" clip-path="url(#pb61b8b52df)" style="fill: none; stroke: #7a7a7a; stroke-width: 3; stroke-linecap: square"/>
   </g>
   <g id="line2d_51">
    <path d="M 737.926451 848.266494 
L 593.034859 1151.86019 
L 592.522422 1153.120264 
L 592.394312 1153.456283 
L 592.138094 1154.044317 
L 591.881875 1154.464342 
L 591.625657 1154.968371 
" clip-path="url(#pb61b8b52df)" style="fill: none; stroke: #7a7a7a; stroke-width: 3; stroke-linecap: square"/>
   </g>
   <g id="line2d_52">
    <path d="M 701.927745 839.27797 
L 579.967713 1092.132709 
L 550.758797 1151.86019 
L 550.24636 1153.120264 
L 550.118251 1153.372278 
L 549.733923 1153.960313 
L 549.349595 1154.968371 
" clip-path="url(#pb61b8b52df)" style="fill: none; stroke: #7a7a7a; stroke-width: 3; stroke-linecap: square"/>
   </g>
   <g id="line2d_53">
    <path d="M 637.360669 1154.968371 
L 637.616887 1154.548347 
L 637.873106 1154.044317 
L 638.129324 1153.456283 
L 638.257434 1153.204268 
L 638.769871 1151.944195 
L 659.907902 1107.25359 
L 776.999781 858.179072 
" clip-path="url(#pb61b8b52df)" style="fill: none; stroke: #7a7a7a; stroke-width: 3; stroke-linecap: square"/>
   </g>
   <g id="line2d_54">
    <path d="M 676.049671 1154.968371 
L 676.17778 1154.548347 
L 676.433998 1154.128322 
L 676.690217 1153.540288 
L 676.818326 1153.204268 
L 677.458873 1151.944195 
L 691.679002 1121.534422 
L 811.204958 866.663566 
" clip-path="url(#pb61b8b52df)" style="fill: none; stroke: #7a7a7a; stroke-width: 3; stroke-linecap: square"/>
   </g>
   <g id="line2d_55">
    <path d="M 488.753907 657.07135 
L 275.451961 613.052784 
L 274.427086 612.800769 
L 274.042759 612.800769 
L 273.658431 612.716764 
" clip-path="url(#pb61b8b52df)" style="fill: none; stroke: #7a7a7a; stroke-width: 3; stroke-linecap: square"/>
   </g>
   <g id="line2d_56">
    <path d="M 511.173031 607.340451 
L 495.543699 604.316275 
L 275.451961 577.182693 
L 274.555196 577.098688 
L 274.042759 577.014683 
L 273.658431 577.014683 
" clip-path="url(#pb61b8b52df)" style="fill: none; stroke: #7a7a7a; stroke-width: 3; stroke-linecap: square"/>
   </g>
   <g id="line2d_57">
    <path d="M 1426.641926 851.878705 
L 1425.745161 851.710695 
L 1423.439194 851.206665 
L 1420.877008 850.702636 
L 1420.236462 850.534626 
L 1390.387 844.234259 
L 1084.333937 779.718498 
" clip-path="url(#pb61b8b52df)" style="fill: none; stroke: #7a7a7a; stroke-width: 3; stroke-linecap: square"/>
   </g>
   <g id="line2d_58">
    <path d="M 1426.641926 822.560996 
L 1425.745161 822.392986 
L 1423.439194 821.888957 
L 1420.877008 821.300922 
L 1420.236462 821.216917 
L 1381.67557 813.236452 
L 1096.504318 754.937054 
" clip-path="url(#pb61b8b52df)" style="fill: none; stroke: #7a7a7a; stroke-width: 3; stroke-linecap: square"/>
   </g>
   <g id="line2d_59">
    <path d="M 475.81487 683.196872 
L 573.946577 703.778072 
" clip-path="url(#pb61b8b52df)" style="fill: none; stroke: #7a7a7a; stroke-width: 3; stroke-linecap: square"/>
   </g>
   <g id="line2d_60">
    <path d="M 462.747724 709.74242 
L 528.467783 722.847184 
L 530.261313 722.847184 
L 536.282449 723.939247 
L 561.904304 729.567575 
" clip-path="url(#pb61b8b52df)" style="fill: none; stroke: #7a7a7a; stroke-width: 3; stroke-linecap: square"/>
   </g>
   <g id="line2d_61">
    <path d="M 1084.333937 779.718498 
L 1390.387 844.234259 
L 1420.236462 850.534626 
L 1420.877008 850.702636 
L 1423.439194 851.206665 
L 1425.745161 851.710695 
L 1426.641926 851.878705 
" clip-path="url(#pb61b8b52df)" style="fill: none; stroke: #7a7a7a; stroke-width: 3; stroke-linecap: square"/>
   </g>
   <g id="line2d_62">
    <path d="M 1067.93595 815.000555 
L 1426.641926 886.068697 
" clip-path="url(#pb61b8b52df)" style="fill: none; stroke: #7a7a7a; stroke-width: 3; stroke-linecap: square"/>
   </g>
   <g id="line2d_63">
    <path d="M 693.088204 837.849887 
L 605.461459 1019.048449 
L 541.278711 1153.372278 
L 541.022492 1153.960313 
L 540.510055 1154.968371 
" clip-path="url(#pb61b8b52df)" style="fill: none; stroke: #7a7a7a; stroke-width: 3; stroke-linecap: square"/>
   </g>
   <g id="line2d_64">
    <path d="M 665.672819 830.373451 
L 644.534788 874.896046 
L 629.802221 906.733902 
L 614.300999 939.663821 
L 589.704018 990.066759 
L 550.37447 1073.063597 
L 529.10833 1119.60231 
L 514.247653 1153.372278 
L 513.991435 1153.960313 
L 513.607107 1154.968371 
" clip-path="url(#pb61b8b52df)" style="fill: none; stroke: #7a7a7a; stroke-width: 3; stroke-linecap: square"/>
   </g>
   <g id="line2d_65">
    <path d="M 894.09166 610.280622 
L 888.711071 626.745582 
L 887.04565 642.874522 
L 888.711071 658.667443 
L 893.579223 674.040339 
L 901.393889 688.741196 
L 912.155068 702.854018 
L 925.478433 716.126792 
L 941.107765 728.475512 
L 959.171173 739.816173 
L 979.028111 750.06477 
L 1000.806688 759.137299 
L 1024.250686 766.781744 
L 1084.333937 779.718498 
" clip-path="url(#pb61b8b52df)" style="fill: none; stroke: #7a7a7a; stroke-width: 3; stroke-linecap: square"/>
   </g>
   <g id="line2d_66">
    <path d="M 855.915096 602.720182 
L 849.381523 620.613224 
L 845.410135 638.338258 
L 844.129042 655.811276 
L 845.410135 672.86427 
L 849.253413 689.49724 
L 855.402659 705.542175 
L 863.98598 720.747061 
L 874.74716 735.195903 
L 887.814306 748.636687 
L 902.931201 761.069411 
L 920.225953 772.242063 
L 939.314235 782.15464 
L 960.452266 790.639135 
L 983.255717 797.527537 
L 1067.93595 815.000555 
" clip-path="url(#pb61b8b52df)" style="fill: none; stroke: #7a7a7a; stroke-width: 3; stroke-linecap: square"/>
   </g>
   <g id="line2d_67">
    <path d="M 1181.080317 -1 
L 994.145006 396.152141 
L 993.632569 397.1602 
L 993.37635 397.748234 
L 993.120132 398.168258 
L 992.863913 398.924303 
" clip-path="url(#pb61b8b52df)" style="fill: none; stroke: #7a7a7a; stroke-width: 3; stroke-linecap: square"/>
   </g>
   <g id="line2d_68">
    <path d="M 1141.577309 -1 
L 951.997054 397.1602 
L 951.740835 397.748234 
L 951.484617 398.252263 
L 951.228398 398.924303 
" clip-path="url(#pb61b8b52df)" style="fill: none; stroke: #7a7a7a; stroke-width: 3; stroke-linecap: square"/>
   </g>
   <g id="line2d_69">
    <path d="M 1141.577309 -1 
L 951.997054 397.1602 
L 951.740835 397.748234 
L 951.484617 398.252263 
L 951.228398 398.924303 
" clip-path="url(#pb61b8b52df)" style="fill: none; stroke: #7a7a7a; stroke-width: 3; stroke-linecap: square"/>
   </g>
   <g id="line2d_70">
    <path d="M 1100.07605 -1 
L 1080.23444 41.819487 
L 911.386413 397.1602 
L 911.130194 397.748234 
L 910.873976 398.252263 
L 910.489648 398.924303 
" clip-path="url(#pb61b8b52df)" style="fill: none; stroke: #7a7a7a; stroke-width: 3; stroke-linecap: square"/>
   </g>
   <g id="line2d_71">
    <path d="M 992.863913 398.924303 
L 993.120132 398.168258 
L 993.37635 397.748234 
L 993.632569 397.1602 
L 994.145006 396.152141 
L 1181.080317 -1 
" clip-path="url(#pb61b8b52df)" style="fill: none; stroke: #7a7a7a; stroke-width: 3; stroke-linecap: square"/>
   </g>
   <g id="line2d_72">
    <path d="M 1031.937243 398.924303 
L 1032.321571 398.168258 
L 1032.44968 397.748234 
L 1032.705898 397.1602 
L 1219.831315 -1 
" clip-path="url(#pb61b8b52df)" style="fill: none; stroke: #7a7a7a; stroke-width: 3; stroke-linecap: square"/>
   </g>
   <g id="line2d_73">
    <path d="M 1080.490659 398.924303 
L 1080.746877 398.168258 
L 1081.003096 397.748234 
L 1270.796201 -1 
" clip-path="url(#pb61b8b52df)" style="fill: none; stroke: #7a7a7a; stroke-width: 3; stroke-linecap: square"/>
   </g>
   <g id="line2d_74">
    <path d="M 1111.621213 398.924303 
L 1111.493104 398.168258 
L 1111.621213 397.748234 
L 1111.621213 397.1602 
L 1181.056441 249.983621 
L 1187.461905 237.382887 
L 1230.122295 144.473471 
L 1269.708061 63.492751 
L 1300.454288 -0.770995 
" clip-path="url(#pb61b8b52df)" style="fill: none; stroke: #7a7a7a; stroke-width: 3; stroke-linecap: square"/>
   </g>
   <g id="line2d_75">
    <path d="M 1031.937243 398.924303 
L 1032.321571 398.168258 
L 1032.44968 397.748234 
L 1032.705898 397.1602 
L 1219.831315 -1 
" clip-path="url(#pb61b8b52df)" style="fill: none; stroke: #7a7a7a; stroke-width: 3; stroke-linecap: square"/>
   </g>
   <g id="line2d_76">
    <path d="M 1073.060321 398.924303 
L 1073.444649 398.168258 
L 1073.572758 397.748234 
L 1073.828976 397.1602 
L 1259.733045 -1 
" clip-path="url(#pb61b8b52df)" style="fill: none; stroke: #7a7a7a; stroke-width: 3; stroke-linecap: square"/>
   </g>
   <g id="line2d_77">
    <path d="M 1092.164218 -1 
L 903.443638 397.748234 
L 903.187419 398.252263 
L 902.931201 398.924303 
" clip-path="url(#pb61b8b52df)" style="fill: none; stroke: #7a7a7a; stroke-width: 3; stroke-linecap: square"/>
   </g>
   <g id="line2d_78">
    <path d="M 1061.894074 -1 
L 1043.851405 36.611184 
L 1022.713375 81.973828 
L 982.102734 165.89472 
L 927.656291 287.53381 
L 882.433716 375.234922 
L 878.078001 384.559465 
L 872.313083 396.152141 
L 872.441193 397.1602 
L 872.184974 397.748234 
L 871.928755 398.252263 
L 871.672537 398.924303 
" clip-path="url(#pb61b8b52df)" style="fill: none; stroke: #7a7a7a; stroke-width: 3; stroke-linecap: square"/>
   </g>
   <g id="line2d_79">
    <path d="M 856.427533 879.432311 
L 862.832997 861.539268 
L 872.313083 846.586396 
L 885.636448 832.725588 
L 902.162545 820.040849 
L 921.250827 808.784193 
L 942.516967 798.95562 
L 965.320419 790.807145 
L 989.148744 784.506778 
L 1013.489507 780.054518 
L 1037.830269 777.702381 
L 1061.530486 777.534371 
L 1084.333937 779.718498 
" clip-path="url(#pb61b8b52df)" style="fill: none; stroke: #7a7a7a; stroke-width: 3; stroke-linecap: square"/>
   </g>
   <g id="line2d_80">
    <path d="M 881.66506 884.640614 
L 891.785693 867.167596 
L 893.835442 864.815459 
L 900.625234 853.054773 
L 907.030697 844.990303 
L 914.845363 838.185906 
L 919.201079 835.16173 
L 924.581668 832.137554 
L 935.599066 827.09726 
L 944.694825 824.073084 
L 953.021928 821.888957 
L 959.68361 820.796893 
L 967.498276 820.292864 
L 975.056724 820.292864 
L 997.603956 815.336575 
L 1021.432282 812.648418 
L 1045.132498 812.648418 
L 1067.93595 815.000555 
" clip-path="url(#pb61b8b52df)" style="fill: none; stroke: #7a7a7a; stroke-width: 3; stroke-linecap: square"/>
   </g>
   <g id="line2d_81">
    <path d="M 573.946577 703.778072 
L 652.477564 722.007135 
L 682.327025 736.371972 
L 697.059592 746.872584 
L 710.639175 759.893343 
L 714.226235 763.757568 
L 718.838169 771.570024 
L 719.478716 780.306533 
L 701.287198 817.184682 
L 693.088204 837.849887 
" clip-path="url(#pb61b8b52df)" style="fill: none; stroke: #7a7a7a; stroke-width: 3; stroke-linecap: square"/>
   </g>
   <g id="line2d_82">
    <path d="M 561.904304 729.567575 
L 631.339533 744.268432 
L 638.257434 746.368555 
L 652.221345 752.668922 
L 669.644207 762.5815 
L 690.39791 778.87845 
L 693.984969 782.15464 
L 665.672819 830.373451 
" clip-path="url(#pb61b8b52df)" style="fill: none; stroke: #7a7a7a; stroke-width: 3; stroke-linecap: square"/>
   </g>
   <g id="line2d_83">
    <path d="M 855.915096 602.720182 
L 846.3069 618.681112 
L 833.111644 633.129954 
L 817.097985 645.982703 
L 798.52214 657.155354 
L 777.896546 666.647908 
L 755.605532 674.460363 
L 732.161534 680.424711 
L 708.07699 684.624956 
L 683.608118 687.061098 
L 659.395464 687.565127 
L 635.823357 686.221049 
L 613.276125 682.944858 
L 585.988849 677.064515 
" clip-path="url(#pb61b8b52df)" style="fill: none; stroke: #7a7a7a; stroke-width: 3; stroke-linecap: square"/>
   </g>
   <g id="line2d_84">
    <path d="M 818.891515 595.411756 
L 813.254706 604.568289 
L 800.571888 614.228852 
L 782.50848 623.721406 
L 760.601793 632.37391 
L 736.132922 639.262311 
L 710.639175 643.798576 
L 685.785976 645.310664 
L 643.894242 636.070125 
L 616.606966 630.189783 
" clip-path="url(#pb61b8b52df)" style="fill: none; stroke: #7a7a7a; stroke-width: 3; stroke-linecap: square"/>
   </g>
   <g id="line2d_85">
    <path d="M 1096.504318 754.937054 
L 1065.245655 748.720692 
L 1002.087781 731.331678 
L 985.049247 726.459394 
L 970.829117 718.310919 
L 956.737097 708.566351 
L 948.153775 698.401759 
L 946.616464 688.741196 
L 964.167435 646.906757 
L 971.853992 625.569513 
" clip-path="url(#pb61b8b52df)" style="fill: none; stroke: #7a7a7a; stroke-width: 3; stroke-linecap: square"/>
   </g>
   <g id="line2d_86">
    <path d="M 1108.54659 729.48357 
L 1069.857589 720.999076 
L 1049.231995 716.714826 
L 1040.136236 714.110674 
L 1029.887494 710.582469 
L 989.020635 699.997852 
L 977.106472 690.925323 
L 972.878866 683.616897 
L 988.380088 649.594914 
L 997.347738 636.994179 
L 999.909923 631.533861 
" clip-path="url(#pb61b8b52df)" style="fill: none; stroke: #7a7a7a; stroke-width: 3; stroke-linecap: square"/>
   </g>
   <g id="line2d_87">
    <path d="M 1096.504318 754.937054 
L 1028.734511 741.496271 
L 1008.877573 735.615928 
L 988.764416 728.811531 
L 972.11021 718.730944 
L 955.968441 706.466229 
L 943.157514 696.973675 
L 931.755788 681.768789 
L 923.813013 669.168055 
L 921.635155 657.743389 
L 921.891374 638.506267 
L 928.937384 617.085019 
" clip-path="url(#pb61b8b52df)" style="fill: none; stroke: #7a7a7a; stroke-width: 3; stroke-linecap: square"/>
   </g>
   <g id="line2d_88">
    <path d="M 1108.54659 729.48357 
L 1041.033001 715.538758 
L 1021.81661 708.650356 
L 1000.038033 700.081857 
L 975.69727 683.784907 
L 963.911216 672.69626 
L 957.89008 654.635208 
L 955.968441 644.638625 
L 965.448528 624.393445 
" clip-path="url(#pb61b8b52df)" style="fill: none; stroke: #7a7a7a; stroke-width: 3; stroke-linecap: square"/>
   </g>
   <g id="line2d_89">
    <path d="M 573.946577 703.778072 
L 656.064623 722.931188 
L 674.896687 731.583693 
L 692.319549 742.588334 
L 707.948881 755.525088 
L 721.272245 769.97393 
L 731.777206 785.430831 
L 739.207544 801.475767 
L 742.922713 817.688712 
L 742.666495 833.733647 
L 737.926451 848.266494 
" clip-path="url(#pb61b8b52df)" style="fill: none; stroke: #7a7a7a; stroke-width: 3; stroke-linecap: square"/>
   </g>
   <g id="line2d_90">
    <path d="M 561.904304 729.567575 
L 631.339533 744.268432 
L 641.716384 748.216662 
L 651.32458 752.836932 
L 665.54471 758.885284 
L 690.39791 778.87845 
L 694.497406 781.818621 
L 707.820771 817.940726 
L 707.436443 822.645001 
L 701.927745 839.27797 
" clip-path="url(#pb61b8b52df)" style="fill: none; stroke: #7a7a7a; stroke-width: 3; stroke-linecap: square"/>
   </g>
   <g id="line2d_91">
    <path d="M 811.204958 866.663566 
L 817.86664 854.650866 
L 828.243492 842.638166 
L 841.694966 830.961485 
L 857.964844 819.704829 
L 876.540689 809.204217 
L 897.294392 799.543654 
L 919.585407 791.05916 
L 943.157514 783.918743 
L 967.498276 778.290415 
L 992.351476 774.42619 
L 1017.204676 772.578082 
L 1041.801657 772.914102 
L 1065.758092 775.770268 
L 1084.333937 779.718498 
" clip-path="url(#pb61b8b52df)" style="fill: none; stroke: #7a7a7a; stroke-width: 3; stroke-linecap: square"/>
   </g>
   <g id="line2d_92">
    <path d="M 846.947446 875.98811 
L 854.634003 864.983468 
L 867.188712 853.810817 
L 883.714809 843.05819 
L 903.571747 833.061608 
L 925.99087 824.157089 
L 950.203524 816.848663 
L 975.312942 811.556354 
L 1000.806688 808.700188 
L 1025.787997 808.616183 
L 1049.488214 811.808369 
L 1067.93595 815.000555 
" clip-path="url(#pb61b8b52df)" style="fill: none; stroke: #7a7a7a; stroke-width: 3; stroke-linecap: square"/>
   </g>
   <g id="line2d_93">
    <path d="M 810.692521 593.479643 
L 803.005964 616.748999 
L 793.14155 634.726047 
L 784.430119 645.142654 
L 769.185115 655.643266 
L 748.687631 664.96781 
L 726.012289 672.108226 
L 702.055854 677.31653 
L 677.97131 680.676725 
L 654.271093 682.356823 
L 632.236298 682.608838 
L 612.635578 681.43277 
L 596.237591 679.080632 
L 585.988849 677.064515 
" clip-path="url(#pb61b8b52df)" style="fill: none; stroke: #7a7a7a; stroke-width: 3; stroke-linecap: square"/>
   </g>
   <g id="line2d_94">
    <path d="M 782.380371 588.187334 
L 775.718688 607.67647 
L 763.676416 622.797352 
L 747.534647 633.801993 
L 728.190146 641.026414 
L 707.052116 644.89064 
L 685.145429 645.562679 
L 626.983817 632.289905 
L 616.991294 630.273788 
L 616.606966 630.189783 
" clip-path="url(#pb61b8b52df)" style="fill: none; stroke: #7a7a7a; stroke-width: 3; stroke-linecap: square"/>
   </g>
   <g id="line2d_95">
    <path d="M 585.988849 677.064515 
L 725.75607 706.046204 
L 749.200068 709.322395 
L 773.797049 709.910429 
L 799.162686 708.062322 
L 824.656432 704.030087 
L 849.89396 698.149744 
L 874.234722 690.589303 
L 897.038174 681.684784 
L 918.048095 671.688202 
L 936.495831 660.767565 
L 962.117687 645.982703 
L 971.853992 625.569513 
" clip-path="url(#pb61b8b52df)" style="fill: none; stroke: #7a7a7a; stroke-width: 3; stroke-linecap: square"/>
   </g>
   <g id="line2d_96">
    <path d="M 573.946577 703.778072 
L 713.713798 732.843766 
L 736.773468 735.783938 
L 760.729903 736.623987 
L 785.583103 735.447918 
L 810.692521 732.507747 
L 835.801939 727.803472 
L 860.52703 721.503105 
L 884.483465 713.85866 
L 907.286916 704.870136 
L 928.681165 694.705543 
L 948.025666 683.532892 
L 965.320419 671.520192 
L 979.924876 658.751447 
L 991.58282 645.394669 
L 999.909923 631.533861 
" clip-path="url(#pb61b8b52df)" style="fill: none; stroke: #7a7a7a; stroke-width: 3; stroke-linecap: square"/>
   </g>
   <g id="line2d_97">
    <path d="M 1084.333937 779.718498 
L 950.075415 751.912878 
L 929.321712 748.804697 
L 906.902588 747.964648 
L 883.330481 749.140716 
L 859.245937 752.248897 
L 834.905174 757.121181 
L 810.948739 763.505553 
L 787.88907 771.318009 
L 765.982383 780.306533 
L 745.997336 790.38712 
L 728.190146 801.307757 
L 712.688924 810.716305 
L 702.6964 817.856722 
L 693.088204 837.849887 
" clip-path="url(#pb61b8b52df)" style="fill: none; stroke: #7a7a7a; stroke-width: 3; stroke-linecap: square"/>
   </g>
   <g id="line2d_98">
    <path d="M 1096.504318 754.937054 
L 962.373905 727.047428 
L 941.620202 723.939247 
L 919.585407 722.679174 
L 896.525737 723.267208 
L 872.697411 725.53534 
L 848.484758 729.315561 
L 824.400214 734.691874 
L 800.571888 741.328261 
L 777.512218 749.224721 
L 755.605532 758.29725 
L 734.979938 768.377837 
L 716.147874 779.382479 
L 699.493668 791.143164 
L 685.273538 803.659894 
L 673.871813 816.764658 
L 665.672819 830.373451 
" clip-path="url(#pb61b8b52df)" style="fill: none; stroke: #7a7a7a; stroke-width: 3; stroke-linecap: square"/>
   </g>
   <g id="line2d_99">
    <path d="M 997.152133 405.303629 
L 998.319536 400.894705 
" clip-path="url(#pb61b8b52df)" style="fill: none; stroke-dasharray: 32,8,5,8; stroke-dashoffset: 0; stroke: #1e90ff; stroke-width: 5"/>
   </g>
   <g id="line2d_100">
    <path d="M 862.832872 918.908664 
L 860.198202 915.136545 
" clip-path="url(#pb61b8b52df)" style="fill: none; stroke-dasharray: 32,8,5,8; stroke-dashoffset: 0; stroke: #1e90ff; stroke-width: 5"/>
   </g>
   <g id="line2d_101">
    <path d="M 758.607639 1149.809843 
L 772.626238 1137.239359 
" clip-path="url(#pb61b8b52df)" style="fill: none; stroke-dasharray: 32,8,5,8; stroke-dashoffset: 0; stroke: #1e90ff; stroke-width: 5"/>
   </g>
   <g id="line2d_102">
    <path d="M 598.986717 939.386396 
L 493.571016 1187.98531 
" clip-path="url(#pb61b8b52df)" style="fill: none; stroke-dasharray: 32,8,5,8; stroke-dashoffset: 0; stroke: #1e90ff; stroke-width: 5"/>
   </g>
   <g id="line2d_103">
    <path d="M 1243.875479 44.954207 
L 1247.836084 42.002448 
" clip-path="url(#pb61b8b52df)" style="fill: none; stroke-dasharray: 32,8,5,8; stroke-dashoffset: 0; stroke: #1e90ff; stroke-width: 5"/>
   </g>
   <g id="line2d_104">
    <path d="M 256.218554 653.132943 
L 267.143498 659.694288 
" clip-path="url(#pb61b8b52df)" style="fill: none; stroke-dasharray: 32,8,5,8; stroke-dashoffset: 0; stroke: #1e90ff; stroke-width: 5"/>
   </g>
   <g id="line2d_105">
    <path d="M 876.180194 598.088817 
L 875.153928 604.290741 
" clip-path="url(#pb61b8b52df)" style="fill: none; stroke-dasharray: 32,8,5,8; stroke-dashoffset: 0; stroke: #1e90ff; stroke-width: 5"/>
   </g>
   <g id="line2d_106">
    <path d="M 997.152133 405.303629 
" clip-path="url(#pb61b8b52df)" style="fill: none; stroke: #0000ff; stroke-width: 1.5; stroke-linecap: square"/>
    <defs>
     <path id="mf670e0a0f7" d="M 0 10 
C 2.652031 10 5.195799 8.946337 7.071068 7.071068 
C 8.946337 5.195799 10 2.652031 10 0 
C 10 -2.652031 8.946337 -5.195799 7.071068 -7.071068 
C 5.195799 -8.946337 2.652031 -10 0 -10 
C -2.652031 -10 -5.195799 -8.946337 -7.071068 -7.071068 
C -8.946337 -5.195799 -10 -2.652031 -10 0 
C -10 2.652031 -8.946337 5.195799 -7.071068 7.071068 
C -5.195799 8.946337 -2.652031 10 0 10 
z
" style="stroke: #0000ff"/>
    </defs>
    <g clip-path="url(#pb61b8b52df)">
     <use xlink:href="#mf670e0a0f7" x="997.152133" y="405.303629" style="fill: #0000ff; stroke: #0000ff"/>
    </g>
   </g>
   <g id="line2d_107">
    <path d="M 862.832872 918.908664 
" clip-path="url(#pb61b8b52df)" style="fill: none; stroke: #0000ff; stroke-width: 1.5; stroke-linecap: square"/>
    <g clip-path="url(#pb61b8b52df)">
     <use xlink:href="#mf670e0a0f7" x="862.832872" y="918.908664" style="fill: #0000ff; stroke: #0000ff"/>
    </g>
   </g>
   <g id="line2d_108">
    <path d="M 758.607639 1149.809843 
" clip-path="url(#pb61b8b52df)" style="fill: none; stroke: #0000ff; stroke-width: 1.5; stroke-linecap: square"/>
    <g clip-path="url(#pb61b8b52df)">
     <use xlink:href="#mf670e0a0f7" x="758.607639" y="1149.809843" style="fill: #0000ff; stroke: #0000ff"/>
    </g>
   </g>
   <g id="line2d_109">
    <path d="M 598.986717 939.386396 
" clip-path="url(#pb61b8b52df)" style="fill: none; stroke: #0000ff; stroke-width: 1.5; stroke-linecap: square"/>
    <g clip-path="url(#pb61b8b52df)">
     <use xlink:href="#mf670e0a0f7" x="598.986717" y="939.386396" style="fill: #0000ff; stroke: #0000ff"/>
    </g>
   </g>
   <g id="line2d_110">
    <path d="M 1243.875479 44.954207 
" clip-path="url(#pb61b8b52df)" style="fill: none; stroke: #0000ff; stroke-width: 1.5; stroke-linecap: square"/>
    <g clip-path="url(#pb61b8b52df)">
     <use xlink:href="#mf670e0a0f7" x="1243.875479" y="44.954207" style="fill: #0000ff; stroke: #0000ff"/>
    </g>
   </g>
   <g id="line2d_111">
    <path d="M 256.218554 653.132943 
" clip-path="url(#pb61b8b52df)" style="fill: none; stroke: #0000ff; stroke-width: 1.5; stroke-linecap: square"/>
    <g clip-path="url(#pb61b8b52df)">
     <use xlink:href="#mf670e0a0f7" x="256.218554" y="653.132943" style="fill: #0000ff; stroke: #0000ff"/>
    </g>
   </g>
   <g id="line2d_112">
    <path d="M 876.180194 598.088817 
" clip-path="url(#pb61b8b52df)" style="fill: none; stroke: #0000ff; stroke-width: 1.5; stroke-linecap: square"/>
    <g clip-path="url(#pb61b8b52df)">
     <use xlink:href="#mf670e0a0f7" x="876.180194" y="598.088817" style="fill: #0000ff; stroke: #0000ff"/>
    </g>
   </g>
   <g id="line2d_113">
    <path d="M 998.319536 400.894705 
" clip-path="url(#pb61b8b52df)" style="fill: none; stroke: #ff0000; stroke-width: 1.5; stroke-linecap: square"/>
    <defs>
     <path id="mb80a83d46b" d="M 0 -10 
L -2.24514 -3.09017 
L -9.510565 -3.09017 
L -3.632713 1.18034 
L -5.877853 8.09017 
L -0 3.81966 
L 5.877853 8.09017 
L 3.632713 1.18034 
L 9.510565 -3.09017 
L 2.24514 -3.09017 
z
" style="stroke: #ff0000; stroke-linejoin: bevel"/>
    </defs>
    <g clip-path="url(#pb61b8b52df)">
     <use xlink:href="#mb80a83d46b" x="998.319536" y="400.894705" style="fill: #ff0000; stroke: #ff0000; stroke-linejoin: bevel"/>
    </g>
   </g>
   <g id="line2d_114">
    <path d="M 860.198202 915.136545 
" clip-path="url(#pb61b8b52df)" style="fill: none; stroke: #ff0000; stroke-width: 1.5; stroke-linecap: square"/>
    <g clip-path="url(#pb61b8b52df)">
     <use xlink:href="#mb80a83d46b" x="860.198202" y="915.136545" style="fill: #ff0000; stroke: #ff0000; stroke-linejoin: bevel"/>
    </g>
   </g>
   <g id="line2d_115">
    <path d="M 772.626238 1137.239359 
" clip-path="url(#pb61b8b52df)" style="fill: none; stroke: #ff0000; stroke-width: 1.5; stroke-linecap: square"/>
    <g clip-path="url(#pb61b8b52df)">
     <use xlink:href="#mb80a83d46b" x="772.626238" y="1137.239359" style="fill: #ff0000; stroke: #ff0000; stroke-linejoin: bevel"/>
    </g>
   </g>
   <g id="line2d_116">
    <path d="M 493.571016 1187.98531 
" clip-path="url(#pb61b8b52df)" style="fill: none; stroke: #ff0000; stroke-width: 1.5; stroke-linecap: square"/>
    <g clip-path="url(#pb61b8b52df)">
     <use xlink:href="#mb80a83d46b" x="493.571016" y="1187.98531" style="fill: #ff0000; stroke: #ff0000; stroke-linejoin: bevel"/>
    </g>
   </g>
   <g id="line2d_117">
    <path d="M 1247.836084 42.002448 
" clip-path="url(#pb61b8b52df)" style="fill: none; stroke: #ff0000; stroke-width: 1.5; stroke-linecap: square"/>
    <g clip-path="url(#pb61b8b52df)">
     <use xlink:href="#mb80a83d46b" x="1247.836084" y="42.002448" style="fill: #ff0000; stroke: #ff0000; stroke-linejoin: bevel"/>
    </g>
   </g>
   <g id="line2d_118">
    <path d="M 267.143498 659.694288 
" clip-path="url(#pb61b8b52df)" style="fill: none; stroke: #ff0000; stroke-width: 1.5; stroke-linecap: square"/>
    <g clip-path="url(#pb61b8b52df)">
     <use xlink:href="#mb80a83d46b" x="267.143498" y="659.694288" style="fill: #ff0000; stroke: #ff0000; stroke-linejoin: bevel"/>
    </g>
   </g>
   <g id="line2d_119">
    <path d="M 875.153928 604.290741 
" clip-path="url(#pb61b8b52df)" style="fill: none; stroke: #ff0000; stroke-width: 1.5; stroke-linecap: square"/>
    <g clip-path="url(#pb61b8b52df)">
     <use xlink:href="#mb80a83d46b" x="875.153928" y="604.290741" style="fill: #ff0000; stroke: #ff0000; stroke-linejoin: bevel"/>
    </g>
   </g>
  </g>
 </g>
 <defs>
  <clipPath id="pb61b8b52df">
   <rect x="0" y="0" width="1440" height="1440"/>
  </clipPath>
 </defs>
</svg>
