<?xml version="1.0" encoding="utf-8" standalone="no"?>
<!DOCTYPE svg PUBLIC "-//W3C//DTD SVG 1.1//EN"
  "http://www.w3.org/Graphics/SVG/1.1/DTD/svg11.dtd">
<svg xmlns:xlink="http://www.w3.org/1999/xlink" width="1440pt" height="1440pt" viewBox="0 0 1440 1440" xmlns="http://www.w3.org/2000/svg" version="1.1">
 <metadata>
  <rdf:RDF xmlns:dc="http://purl.org/dc/elements/1.1/" xmlns:cc="http://creativecommons.org/ns#" xmlns:rdf="http://www.w3.org/1999/02/22-rdf-syntax-ns#">
   <cc:Work>
    <dc:type rdf:resource="http://purl.org/dc/dcmitype/StillImage"/>
    <dc:date>2026-02-27T11:11:31.518208</dc:date>
    <dc:format>image/svg+xml</dc:format>
    <dc:creator>
     <cc:Agent>
      <dc:title>Matplotlib v3.7.3, https://matplotlib.org/</dc:title>
     </cc:Agent>
    </dc:creator>
   </cc:Work>
  </rdf:RDF>
 </metadata>
 <defs>
  <style type="text/css">*{stroke-linejoin: round; stroke-linecap: butt}</style>
 </defs>
 <g id="figure_1">
  <g id="patch_1">
   <path d="M 0 1440 
L 1440 1440 
L 1440 0 
L 0 0 
z
" style="fill: #ffffff"/>
  </g>
  <g id="axes_1">
   <g id="line2d_1">
    <path d="M 588.173318 919.539402 
L 469.882196 1441 
" clip-path="url(#p3ec2888685)" style="fill: none; stroke: #7a7a7a; stroke-width: 3; stroke-linecap: square"/>
   </g>
   <g id="line2d_2">
    <path d="M 556.375943 919.539402 
L 546.148716 961.160092 
L 541.592952 981.324154 
L 520.95255 1076.327904 
L 511.004249 1114.329405 
L 428.98203 1441 
" clip-path="url(#p3ec2888685)" style="fill: none; stroke: #7a7a7a; stroke-width: 3; stroke-linecap: square"/>
   </g>
   <g id="line2d_3">
    <path d="M 532.731004 1441 
L 650.838321 919.539402 
" clip-path="url(#p3ec2888685)" style="fill: none; stroke: #7a7a7a; stroke-width: 3; stroke-linecap: square"/>
   </g>
   <g id="line2d_4">
    <path d="M 563.374296 1441 
L 623.78266 1160.086313 
L 678.451832 919.539402 
" clip-path="url(#p3ec2888685)" style="fill: none; stroke: #7a7a7a; stroke-width: 3; stroke-linecap: square"/>
   </g>
   <g id="line2d_5">
    <path d="M 619.691769 919.539402 
L 501.232992 1441 
" clip-path="url(#p3ec2888685)" style="fill: none; stroke: #7a7a7a; stroke-width: 3; stroke-linecap: square"/>
   </g>
   <g id="line2d_6">
    <path d="M 588.173318 919.539402 
L 469.882196 1441 
" clip-path="url(#p3ec2888685)" style="fill: none; stroke: #7a7a7a; stroke-width: 3; stroke-linecap: square"/>
   </g>
   <g id="line2d_7">
    <path d="M 1441 797.414761 
L 1068.109144 638.405854 
" clip-path="url(#p3ec2888685)" style="fill: none; stroke: #7a7a7a; stroke-width: 3; stroke-linecap: square"/>
   </g>
   <g id="line2d_8">
    <path d="M 1441 755.131369 
L 1067.83022 598.206988 
" clip-path="url(#p3ec2888685)" style="fill: none; stroke: #7a7a7a; stroke-width: 3; stroke-linecap: square"/>
   </g>
   <g id="line2d_9">
    <path d="M 501.232992 1441 
L 619.691769 919.539402 
" clip-path="url(#p3ec2888685)" style="fill: none; stroke: #7a7a7a; stroke-width: 3; stroke-linecap: square"/>
   </g>
   <g id="line2d_10">
    <path d="M 532.731004 1441 
L 650.838321 919.539402 
" clip-path="url(#p3ec2888685)" style="fill: none; stroke: #7a7a7a; stroke-width: 3; stroke-linecap: square"/>
   </g>
   <g id="line2d_11">
    <path d="M 1441 838.749576 
L 1068.295094 679.768031 
" clip-path="url(#p3ec2888685)" style="fill: none; stroke: #7a7a7a; stroke-width: 3; stroke-linecap: square"/>
   </g>
   <g id="line2d_12">
    <path d="M 1441 797.414761 
L 1068.109144 638.405854 
" clip-path="url(#p3ec2888685)" style="fill: none; stroke: #7a7a7a; stroke-width: 3; stroke-linecap: square"/>
   </g>
   <g id="line2d_13">
    <path d="M 1441 931.29348 
L 1068.852943 771.928132 
" clip-path="url(#p3ec2888685)" style="fill: none; stroke: #7a7a7a; stroke-width: 3; stroke-linecap: square"/>
   </g>
   <g id="line2d_14">
    <path d="M 1441 882.112237 
L 1068.574018 722.422776 
" clip-path="url(#p3ec2888685)" style="fill: none; stroke: #7a7a7a; stroke-width: 3; stroke-linecap: square"/>
   </g>
   <g id="line2d_15">
    <path d="M 1441 882.112237 
L 1068.574018 722.422776 
" clip-path="url(#p3ec2888685)" style="fill: none; stroke: #7a7a7a; stroke-width: 3; stroke-linecap: square"/>
   </g>
   <g id="line2d_16">
    <path d="M 1441 838.749576 
L 1068.295094 679.768031 
" clip-path="url(#p3ec2888685)" style="fill: none; stroke: #7a7a7a; stroke-width: 3; stroke-linecap: square"/>
   </g>
   <g id="line2d_17">
    <path d="M 584.082428 429.656116 
L 223.247297 273.38464 
" clip-path="url(#p3ec2888685)" style="fill: none; stroke: #7a7a7a; stroke-width: 3; stroke-linecap: square"/>
   </g>
   <g id="line2d_18">
    <path d="M 591.70636 392.559413 
L 512.305896 359.081901 
L 508.215005 356.884536 
L 223.247297 230.729895 
" clip-path="url(#p3ec2888685)" style="fill: none; stroke: #7a7a7a; stroke-width: 3; stroke-linecap: square"/>
   </g>
   <g id="line2d_19">
    <path d="M 636.055331 704.973108 
L 588.731167 917.212779 
L 588.359268 918.893118 
L 588.173318 919.539402 
" clip-path="url(#p3ec2888685)" style="fill: none; stroke: #7a7a7a; stroke-width: 3; stroke-linecap: square"/>
   </g>
   <g id="line2d_20">
    <path d="M 606.396375 692.305941 
L 556.933791 917.212779 
L 556.561892 918.893118 
L 556.375943 919.539402 
" clip-path="url(#p3ec2888685)" style="fill: none; stroke: #7a7a7a; stroke-width: 3; stroke-linecap: square"/>
   </g>
   <g id="line2d_21">
    <path d="M 832.882945 621.214699 
L 567.99779 507.210198 
" clip-path="url(#p3ec2888685)" style="fill: none; stroke: #7a7a7a; stroke-width: 3; stroke-linecap: square"/>
   </g>
   <g id="line2d_22">
    <path d="M 842.180423 581.274347 
L 575.993622 468.691671 
" clip-path="url(#p3ec2888685)" style="fill: none; stroke: #7a7a7a; stroke-width: 3; stroke-linecap: square"/>
   </g>
   <g id="line2d_23">
    <path d="M 823.027618 663.093903 
L 794.391385 650.29748 
L 591.799335 560.593258 
L 584.268377 556.974068 
L 559.908984 546.37501 
" clip-path="url(#p3ec2888685)" style="fill: none; stroke: #7a7a7a; stroke-width: 3; stroke-linecap: square"/>
   </g>
   <g id="line2d_24">
    <path d="M 832.882945 621.214699 
L 567.99779 507.210198 
" clip-path="url(#p3ec2888685)" style="fill: none; stroke: #7a7a7a; stroke-width: 3; stroke-linecap: square"/>
   </g>
   <g id="line2d_25">
    <path d="M 575.993622 468.691671 
L 223.247297 316.814926 
" clip-path="url(#p3ec2888685)" style="fill: none; stroke: #7a7a7a; stroke-width: 3; stroke-linecap: square"/>
   </g>
   <g id="line2d_26">
    <path d="M 584.082428 429.656116 
L 223.247297 273.38464 
" clip-path="url(#p3ec2888685)" style="fill: none; stroke: #7a7a7a; stroke-width: 3; stroke-linecap: square"/>
   </g>
   <g id="line2d_27">
    <path d="M 1060.020338 676.14884 
L 1058.997616 675.76107 
L 1056.394322 674.597759 
L 1055.557549 674.339245 
L 842.180423 581.274347 
" clip-path="url(#p3ec2888685)" style="fill: none; stroke: #7a7a7a; stroke-width: 3; stroke-linecap: square"/>
   </g>
   <g id="line2d_28">
    <path d="M 1060.020338 635.045177 
L 1058.997616 634.657406 
L 1056.301347 633.494095 
L 1055.557549 633.106325 
L 850.734103 544.565414 
" clip-path="url(#p3ec2888685)" style="fill: none; stroke: #7a7a7a; stroke-width: 3; stroke-linecap: square"/>
   </g>
   <g id="line2d_29">
    <path d="M 749.76349 331.550202 
L 663.947766 718.028045 
" clip-path="url(#p3ec2888685)" style="fill: none; stroke: #7a7a7a; stroke-width: 3; stroke-linecap: square"/>
   </g>
   <g id="line2d_30">
    <path d="M 721.871055 319.141549 
L 636.055331 704.973108 
" clip-path="url(#p3ec2888685)" style="fill: none; stroke: #7a7a7a; stroke-width: 3; stroke-linecap: square"/>
   </g>
   <g id="line2d_31">
    <path d="M 850.734103 544.565414 
L 584.082428 429.656116 
" clip-path="url(#p3ec2888685)" style="fill: none; stroke: #7a7a7a; stroke-width: 3; stroke-linecap: square"/>
   </g>
   <g id="line2d_32">
    <path d="M 857.800187 509.666077 
L 822.28382 493.896747 
L 630.662794 408.845771 
L 591.70636 392.559413 
" clip-path="url(#p3ec2888685)" style="fill: none; stroke: #7a7a7a; stroke-width: 3; stroke-linecap: square"/>
   </g>
   <g id="line2d_33">
    <path d="M 619.691769 919.539402 
L 619.877719 918.893118 
L 620.249618 917.083522 
L 663.947766 718.028045 
" clip-path="url(#p3ec2888685)" style="fill: none; stroke: #7a7a7a; stroke-width: 3; stroke-linecap: square"/>
   </g>
   <g id="line2d_34">
    <path d="M 650.838321 919.539402 
L 651.024271 918.893118 
L 651.39617 917.083522 
L 693.141847 729.5319 
" clip-path="url(#p3ec2888685)" style="fill: none; stroke: #7a7a7a; stroke-width: 3; stroke-linecap: square"/>
   </g>
   <g id="line2d_35">
    <path d="M 567.99779 507.210198 
L 223.247297 358.30636 
" clip-path="url(#p3ec2888685)" style="fill: none; stroke: #7a7a7a; stroke-width: 3; stroke-linecap: square"/>
   </g>
   <g id="line2d_36">
    <path d="M 575.993622 468.691671 
L 223.247297 316.814926 
" clip-path="url(#p3ec2888685)" style="fill: none; stroke: #7a7a7a; stroke-width: 3; stroke-linecap: square"/>
   </g>
   <g id="line2d_37">
    <path d="M 749.76349 331.550202 
L 823.675268 -1 
" clip-path="url(#p3ec2888685)" style="fill: none; stroke: #7a7a7a; stroke-width: 3; stroke-linecap: square"/>
   </g>
   <g id="line2d_38">
    <path d="M 778.585672 344.475882 
L 855.364668 -1 
" clip-path="url(#p3ec2888685)" style="fill: none; stroke: #7a7a7a; stroke-width: 3; stroke-linecap: square"/>
   </g>
   <g id="line2d_39">
    <path d="M 1060.020338 768.179685 
L 1058.997616 767.662657 
L 1056.394322 766.628603 
L 1055.650524 766.240833 
L 896.198772 695.408104 
L 891.178134 692.693711 
L 856.684489 678.216949 
L 823.027618 663.093903 
" clip-path="url(#p3ec2888685)" style="fill: none; stroke: #7a7a7a; stroke-width: 3; stroke-linecap: square"/>
   </g>
   <g id="line2d_40">
    <path d="M 1060.020338 718.803586 
L 1058.997616 718.415815 
L 1056.394322 717.252504 
L 1055.650524 716.99399 
L 832.882945 621.214699 
" clip-path="url(#p3ec2888685)" style="fill: none; stroke: #7a7a7a; stroke-width: 3; stroke-linecap: square"/>
   </g>
   <g id="line2d_41">
    <path d="M 842.180423 581.274347 
L 575.993622 468.691671 
" clip-path="url(#p3ec2888685)" style="fill: none; stroke: #7a7a7a; stroke-width: 3; stroke-linecap: square"/>
   </g>
   <g id="line2d_42">
    <path d="M 850.734103 544.565414 
L 584.082428 429.656116 
" clip-path="url(#p3ec2888685)" style="fill: none; stroke: #7a7a7a; stroke-width: 3; stroke-linecap: square"/>
   </g>
   <g id="line2d_43">
    <path d="M 559.908984 546.37501 
L 476.41763 510.053848 
L 223.247297 404.451039 
" clip-path="url(#p3ec2888685)" style="fill: none; stroke: #7a7a7a; stroke-width: 3; stroke-linecap: square"/>
   </g>
   <g id="line2d_44">
    <path d="M 567.99779 507.210198 
L 223.247297 358.30636 
" clip-path="url(#p3ec2888685)" style="fill: none; stroke: #7a7a7a; stroke-width: 3; stroke-linecap: square"/>
   </g>
   <g id="line2d_45">
    <path d="M 1060.020338 635.045177 
L 1058.997616 634.657406 
L 1056.301347 633.494095 
L 1055.557549 633.106325 
L 850.734103 544.565414 
" clip-path="url(#p3ec2888685)" style="fill: none; stroke: #7a7a7a; stroke-width: 3; stroke-linecap: square"/>
   </g>
   <g id="line2d_46">
    <path d="M 1060.020338 594.846311 
L 1059.090591 594.458541 
L 1056.301347 593.295229 
L 1055.464574 593.036716 
L 927.903173 539.007372 
L 857.800187 509.666077 
" clip-path="url(#p3ec2888685)" style="fill: none; stroke: #7a7a7a; stroke-width: 3; stroke-linecap: square"/>
   </g>
   <g id="line2d_47">
    <path d="M 721.871055 319.141549 
L 636.055331 704.973108 
" clip-path="url(#p3ec2888685)" style="fill: none; stroke: #7a7a7a; stroke-width: 3; stroke-linecap: square"/>
   </g>
   <g id="line2d_48">
    <path d="M 690.445579 305.698841 
L 606.396375 692.305941 
" clip-path="url(#p3ec2888685)" style="fill: none; stroke: #7a7a7a; stroke-width: 3; stroke-linecap: square"/>
   </g>
   <g id="line2d_49">
    <path d="M 663.947766 718.028045 
L 749.76349 331.550202 
" clip-path="url(#p3ec2888685)" style="fill: none; stroke: #7a7a7a; stroke-width: 3; stroke-linecap: square"/>
   </g>
   <g id="line2d_50">
    <path d="M 693.141847 729.5319 
L 778.585672 344.475882 
" clip-path="url(#p3ec2888685)" style="fill: none; stroke: #7a7a7a; stroke-width: 3; stroke-linecap: square"/>
   </g>
   <g id="line2d_51">
    <path d="M 1068.574018 722.422776 
L 1060.020338 718.803586 
" clip-path="url(#p3ec2888685)" style="fill: none; stroke: #7a7a7a; stroke-width: 3; stroke-linecap: square"/>
   </g>
   <g id="line2d_52">
    <path d="M 1068.295094 679.768031 
L 1060.020338 676.14884 
" clip-path="url(#p3ec2888685)" style="fill: none; stroke: #7a7a7a; stroke-width: 3; stroke-linecap: square"/>
   </g>
   <g id="line2d_53">
    <path d="M 1060.020338 718.803586 
L 1058.997616 718.415815 
L 1056.394322 717.252504 
L 1055.650524 716.99399 
L 832.882945 621.214699 
" clip-path="url(#p3ec2888685)" style="fill: none; stroke: #7a7a7a; stroke-width: 3; stroke-linecap: square"/>
   </g>
   <g id="line2d_54">
    <path d="M 1060.020338 676.14884 
L 1058.997616 675.76107 
L 1056.394322 674.597759 
L 1055.557549 674.339245 
L 842.180423 581.274347 
" clip-path="url(#p3ec2888685)" style="fill: none; stroke: #7a7a7a; stroke-width: 3; stroke-linecap: square"/>
   </g>
   <g id="line2d_55">
    <path d="M 693.141847 729.5319 
L 778.585672 344.475882 
" clip-path="url(#p3ec2888685)" style="fill: none; stroke: #7a7a7a; stroke-width: 3; stroke-linecap: square"/>
   </g>
   <g id="line2d_56">
    <path d="M 717.780165 740.130958 
L 728.751189 692.305941 
L 789.091823 412.335704 
L 792.34594 396.695631 
L 801.829368 354.945683 
" clip-path="url(#p3ec2888685)" style="fill: none; stroke: #7a7a7a; stroke-width: 3; stroke-linecap: square"/>
   </g>
   <g id="line2d_57">
    <path d="M 778.585672 344.475882 
L 855.364668 -1 
" clip-path="url(#p3ec2888685)" style="fill: none; stroke: #7a7a7a; stroke-width: 3; stroke-linecap: square"/>
   </g>
   <g id="line2d_58">
    <path d="M 801.829368 354.945683 
L 810.197098 317.590467 
L 881.837399 -1 
" clip-path="url(#p3ec2888685)" style="fill: none; stroke: #7a7a7a; stroke-width: 3; stroke-linecap: square"/>
   </g>
   <g id="line2d_59">
    <path d="M 663.947766 718.028045 
L 620.249618 917.083522 
L 619.877719 918.893118 
L 619.691769 919.539402 
" clip-path="url(#p3ec2888685)" style="fill: none; stroke: #7a7a7a; stroke-width: 3; stroke-linecap: square"/>
   </g>
   <g id="line2d_60">
    <path d="M 636.055331 704.973108 
L 588.731167 917.212779 
L 588.359268 918.893118 
L 588.173318 919.539402 
" clip-path="url(#p3ec2888685)" style="fill: none; stroke: #7a7a7a; stroke-width: 3; stroke-linecap: square"/>
   </g>
   <g id="line2d_61">
    <path d="M 1068.852943 771.928132 
L 1060.020338 768.179685 
" clip-path="url(#p3ec2888685)" style="fill: none; stroke: #7a7a7a; stroke-width: 3; stroke-linecap: square"/>
   </g>
   <g id="line2d_62">
    <path d="M 1068.574018 722.422776 
L 1060.020338 718.803586 
" clip-path="url(#p3ec2888685)" style="fill: none; stroke: #7a7a7a; stroke-width: 3; stroke-linecap: square"/>
   </g>
   <g id="line2d_63">
    <path d="M 850.734103 544.565414 
L 822.748694 530.99345 
L 800.89962 516.904458 
L 784.536058 502.169183 
L 773.10016 486.658366 
L 765.941102 470.242752 
L 762.40806 452.793084 
L 762.036161 434.180104 
L 764.081606 414.1453 
L 767.893572 392.68867 
L 778.585672 344.475882 
" clip-path="url(#p3ec2888685)" style="fill: none; stroke: #7a7a7a; stroke-width: 3; stroke-linecap: square"/>
   </g>
   <g id="line2d_64">
    <path d="M 857.800187 509.666077 
L 853.523347 507.856482 
L 822.28382 493.896747 
L 813.451216 489.114246 
L 807.686779 485.107285 
L 802.85209 480.45404 
L 798.296326 474.37897 
L 796.994679 472.052348 
L 792.996764 466.623562 
L 788.440999 452.663827 
L 786.11663 435.601929 
L 787.139352 429.139089 
L 787.883151 420.737396 
L 789.091823 412.335704 
L 792.34594 396.695631 
L 801.829368 354.945683 
" clip-path="url(#p3ec2888685)" style="fill: none; stroke: #7a7a7a; stroke-width: 3; stroke-linecap: square"/>
   </g>
   <g id="line2d_65">
    <path d="M 663.947766 718.028045 
L 667.480807 695.278847 
L 667.945681 672.271136 
L 665.342387 649.780453 
L 659.670926 628.582337 
L 651.024271 608.935303 
L 639.402423 591.744148 
L 624.898357 577.525899 
L 607.512073 566.926841 
L 559.908984 546.37501 
" clip-path="url(#p3ec2888685)" style="fill: none; stroke: #7a7a7a; stroke-width: 3; stroke-linecap: square"/>
   </g>
   <g id="line2d_66">
    <path d="M 693.141847 729.5319 
L 698.069511 700.061349 
L 699.650082 672.271136 
L 698.162486 646.419776 
L 693.699696 622.507267 
L 686.447663 600.662867 
L 676.685311 581.14509 
L 664.505614 563.953935 
L 650.094523 549.218659 
L 633.730961 537.197777 
L 615.600879 527.76203 
L 567.99779 507.210198 
" clip-path="url(#p3ec2888685)" style="fill: none; stroke: #7a7a7a; stroke-width: 3; stroke-linecap: square"/>
   </g>
   <g id="line2d_67">
    <path d="M 650.838321 919.539402 
L 651.024271 918.893118 
L 651.39617 917.083522 
L 693.141847 729.5319 
" clip-path="url(#p3ec2888685)" style="fill: none; stroke: #7a7a7a; stroke-width: 3; stroke-linecap: square"/>
   </g>
   <g id="line2d_68">
    <path d="M 678.451832 919.539402 
L 678.544807 918.893118 
L 679.00968 917.083522 
L 708.389712 781.493135 
L 717.780165 740.130958 
" clip-path="url(#p3ec2888685)" style="fill: none; stroke: #7a7a7a; stroke-width: 3; stroke-linecap: square"/>
   </g>
   <g id="line2d_69">
    <path d="M 1068.109144 638.405854 
L 1060.020338 635.045177 
" clip-path="url(#p3ec2888685)" style="fill: none; stroke: #7a7a7a; stroke-width: 3; stroke-linecap: square"/>
   </g>
   <g id="line2d_70">
    <path d="M 1067.83022 598.206988 
L 1060.020338 594.846311 
" clip-path="url(#p3ec2888685)" style="fill: none; stroke: #7a7a7a; stroke-width: 3; stroke-linecap: square"/>
   </g>
   <g id="line2d_71">
    <path d="M 823.027618 663.093903 
L 794.391385 650.29748 
L 790.579419 648.875655 
L 771.240664 640.344706 
L 755.156027 635.820718 
L 738.699491 636.337745 
L 722.428904 641.37876 
L 706.902115 650.426737 
L 692.769948 663.093903 
L 680.497277 678.99249 
L 670.64195 697.476213 
L 663.947766 718.028045 
" clip-path="url(#p3ec2888685)" style="fill: none; stroke: #7a7a7a; stroke-width: 3; stroke-linecap: square"/>
   </g>
   <g id="line2d_72">
    <path d="M 832.882945 621.214699 
L 781.003017 598.465501 
L 762.59401 593.165973 
L 744.092028 592.390432 
L 725.961945 595.621852 
L 708.482686 602.730976 
L 692.02615 613.200777 
L 676.87126 626.772741 
L 663.389917 643.059099 
L 651.861044 661.801335 
L 642.656541 682.611681 
L 636.055331 704.973108 
" clip-path="url(#p3ec2888685)" style="fill: none; stroke: #7a7a7a; stroke-width: 3; stroke-linecap: square"/>
   </g>
   <g id="line2d_73">
    <path d="M 793.146416 -1 
L 721.871055 319.141549 
" clip-path="url(#p3ec2888685)" style="fill: none; stroke: #7a7a7a; stroke-width: 3; stroke-linecap: square"/>
   </g>
   <g id="line2d_74">
    <path d="M 763.010013 -1 
L 690.445579 305.698841 
" clip-path="url(#p3ec2888685)" style="fill: none; stroke: #7a7a7a; stroke-width: 3; stroke-linecap: square"/>
   </g>
   <g id="line2d_75">
    <path d="M 823.675268 -1 
L 749.76349 331.550202 
" clip-path="url(#p3ec2888685)" style="fill: none; stroke: #7a7a7a; stroke-width: 3; stroke-linecap: square"/>
   </g>
   <g id="line2d_76">
    <path d="M 793.146416 -1 
L 721.871055 319.141549 
" clip-path="url(#p3ec2888685)" style="fill: none; stroke: #7a7a7a; stroke-width: 3; stroke-linecap: square"/>
   </g>
   <g id="line2d_77">
    <path d="M 721.871055 319.141549 
L 717.036366 341.244462 
L 712.201678 362.442578 
L 706.716166 382.348126 
L 700.207931 400.444078 
L 692.119125 416.084152 
L 682.077848 428.751318 
L 669.433278 437.928551 
L 653.813514 443.22808 
L 634.753684 444.003621 
L 611.602963 439.60889 
L 584.082428 429.656116 
" clip-path="url(#p3ec2888685)" style="fill: none; stroke: #7a7a7a; stroke-width: 3; stroke-linecap: square"/>
   </g>
   <g id="line2d_78">
    <path d="M 690.445579 305.698841 
L 678.358857 359.986699 
L 675.011765 372.395352 
L 671.664673 381.055558 
L 666.922959 389.327993 
L 661.344472 396.307861 
L 653.72054 402.641444 
L 646.096607 406.648405 
L 638.007801 408.845771 
L 630.662794 408.845771 
L 591.70636 392.559413 
" clip-path="url(#p3ec2888685)" style="fill: none; stroke: #7a7a7a; stroke-width: 3; stroke-linecap: square"/>
   </g>
   <g id="line2d_79">
    <path d="M 1068.295094 679.768031 
L 1060.020338 676.14884 
" clip-path="url(#p3ec2888685)" style="fill: none; stroke: #7a7a7a; stroke-width: 3; stroke-linecap: square"/>
   </g>
   <g id="line2d_80">
    <path d="M 1068.109144 638.405854 
L 1060.020338 635.045177 
" clip-path="url(#p3ec2888685)" style="fill: none; stroke: #7a7a7a; stroke-width: 3; stroke-linecap: square"/>
   </g>
   <g id="line2d_81">
    <path d="M 620.036362 804.314346 
L 615.822023 803.775513 
" clip-path="url(#p3ec2888685)" style="fill: none; stroke-dasharray: 32,8,5,8; stroke-dashoffset: 0; stroke: #1e90ff; stroke-width: 5"/>
   </g>
   <g id="line2d_82">
    <path d="M 578.292478 846.246281 
L 576.113381 853.121727 
" clip-path="url(#p3ec2888685)" style="fill: none; stroke-dasharray: 32,8,5,8; stroke-dashoffset: 0; stroke: #1e90ff; stroke-width: 5"/>
   </g>
   <g id="line2d_83">
    <path d="M 526.882825 1049.162265 
L 526.742659 1052.229589 
" clip-path="url(#p3ec2888685)" style="fill: none; stroke-dasharray: 32,8,5,8; stroke-dashoffset: 0; stroke: #1e90ff; stroke-width: 5"/>
   </g>
   <g id="line2d_84">
    <path d="M 1216.058967 831.344354 
L 1213.530023 834.864519 
" clip-path="url(#p3ec2888685)" style="fill: none; stroke-dasharray: 32,8,5,8; stroke-dashoffset: 0; stroke: #1e90ff; stroke-width: 5"/>
   </g>
   <g id="line2d_85">
    <path d="M 1022.397727 679.329549 
L 1021.813514 680.275465 
" clip-path="url(#p3ec2888685)" style="fill: none; stroke-dasharray: 32,8,5,8; stroke-dashoffset: 0; stroke: #1e90ff; stroke-width: 5"/>
   </g>
   <g id="line2d_86">
    <path d="M 822.031794 64.628402 
L 769.91734 189.785972 
" clip-path="url(#p3ec2888685)" style="fill: none; stroke-dasharray: 32,8,5,8; stroke-dashoffset: 0; stroke: #1e90ff; stroke-width: 5"/>
   </g>
   <g id="line2d_87">
    <path d="M 1257.065136 675.955334 
L 1254.763749 674.611802 
" clip-path="url(#p3ec2888685)" style="fill: none; stroke-dasharray: 32,8,5,8; stroke-dashoffset: 0; stroke: #1e90ff; stroke-width: 5"/>
   </g>
   <g id="line2d_88">
    <path d="M 363.038322 302.124367 
L 340.221366 290.501984 
" clip-path="url(#p3ec2888685)" style="fill: none; stroke-dasharray: 32,8,5,8; stroke-dashoffset: 0; stroke: #1e90ff; stroke-width: 5"/>
   </g>
   <g id="line2d_89">
    <path d="M 224.305918 289.191586 
L 226.212344 264.134669 
" clip-path="url(#p3ec2888685)" style="fill: none; stroke-dasharray: 32,8,5,8; stroke-dashoffset: 0; stroke: #1e90ff; stroke-width: 5"/>
   </g>
   <g id="line2d_90">
    <path d="M 215.24082 295.087981 
L 185.949565 250.621242 
" clip-path="url(#p3ec2888685)" style="fill: none; stroke-dasharray: 32,8,5,8; stroke-dashoffset: 0; stroke: #1e90ff; stroke-width: 5"/>
   </g>
   <g id="line2d_91">
    <path d="M 991.696017 584.386861 
L 988.238972 583.688666 
" clip-path="url(#p3ec2888685)" style="fill: none; stroke-dasharray: 32,8,5,8; stroke-dashoffset: 0; stroke: #1e90ff; stroke-width: 5"/>
   </g>
   <g id="line2d_92">
    <path d="M 620.036362 804.314346 
" clip-path="url(#p3ec2888685)" style="fill: none; stroke: #0000ff; stroke-width: 1.5; stroke-linecap: square"/>
    <defs>
     <path id="ma83bc7fffc" d="M 0 10 
C 2.652031 10 5.195799 8.946337 7.071068 7.071068 
C 8.946337 5.195799 10 2.652031 10 0 
C 10 -2.652031 8.946337 -5.195799 7.071068 -7.071068 
C 5.195799 -8.946337 2.652031 -10 0 -10 
C -2.652031 -10 -5.195799 -8.946337 -7.071068 -7.071068 
C -8.946337 -5.195799 -10 -2.652031 -10 0 
C -10 2.652031 -8.946337 5.195799 -7.071068 7.071068 
C -5.195799 8.946337 -2.652031 10 0 10 
z
" style="stroke: #0000ff"/>
    </defs>
    <g clip-path="url(#p3ec2888685)">
     <use xlink:href="#ma83bc7fffc" x="620.036362" y="804.314346" style="fill: #0000ff; stroke: #0000ff"/>
    </g>
   </g>
   <g id="line2d_93">
    <path d="M 578.292478 846.246281 
" clip-path="url(#p3ec2888685)" style="fill: none; stroke: #0000ff; stroke-width: 1.5; stroke-linecap: square"/>
    <g clip-path="url(#p3ec2888685)">
     <use xlink:href="#ma83bc7fffc" x="578.292478" y="846.246281" style="fill: #0000ff; stroke: #0000ff"/>
    </g>
   </g>
   <g id="line2d_94">
    <path d="M 526.882825 1049.162265 
" clip-path="url(#p3ec2888685)" style="fill: none; stroke: #0000ff; stroke-width: 1.5; stroke-linecap: square"/>
    <g clip-path="url(#p3ec2888685)">
     <use xlink:href="#ma83bc7fffc" x="526.882825" y="1049.162265" style="fill: #0000ff; stroke: #0000ff"/>
    </g>
   </g>
   <g id="line2d_95">
    <path d="M 1216.058967 831.344354 
" clip-path="url(#p3ec2888685)" style="fill: none; stroke: #0000ff; stroke-width: 1.5; stroke-linecap: square"/>
    <g clip-path="url(#p3ec2888685)">
     <use xlink:href="#ma83bc7fffc" x="1216.058967" y="831.344354" style="fill: #0000ff; stroke: #0000ff"/>
    </g>
   </g>
   <g id="line2d_96">
    <path d="M 1022.397727 679.329549 
" clip-path="url(#p3ec2888685)" style="fill: none; stroke: #0000ff; stroke-width: 1.5; stroke-linecap: square"/>
    <g clip-path="url(#p3ec2888685)">
     <use xlink:href="#ma83bc7fffc" x="1022.397727" y="679.329549" style="fill: #0000ff; stroke: #0000ff"/>
    </g>
   </g>
   <g id="line2d_97">
    <path d="M 822.031794 64.628402 
" clip-path="url(#p3ec2888685)" style="fill: none; stroke: #0000ff; stroke-width: 1.5; stroke-linecap: square"/>
    <g clip-path="url(#p3ec2888685)">
     <use xlink:href="#ma83bc7fffc" x="822.031794" y="64.628402" style="fill: #0000ff; stroke: #0000ff"/>
    </g>
   </g>
   <g id="line2d_98">
    <path d="M 1257.065136 675.955334 
" clip-path="url(#p3ec2888685)" style="fill: none; stroke: #0000ff; stroke-width: 1.5; stroke-linecap: square"/>
    <g clip-path="url(#p3ec2888685)">
     <use xlink:href="#ma83bc7fffc" x="1257.065136" y="675.955334" style="fill: #0000ff; stroke: #0000ff"/>
    </g>
   </g>
   <g id="line2d_99">
    <path d="M 363.038322 302.124367 
" clip-path="url(#p3ec2888685)" style="fill: none; stroke: #0000ff; stroke-width: 1.5; stroke-linecap: square"/>
    <g clip-path="url(#p3ec2888685)">
     <use xlink:href="#ma83bc7fffc" x="363.038322" y="302.124367" style="fill: #0000ff; stroke: #0000ff"/>
    </g>
   </g>
   <g id="line2d_100">
    <path d="M 224.305918 289.191586 
" clip-path="url(#p3ec2888685)" style="fill: none; stroke: #0000ff; stroke-width: 1.5; stroke-linecap: square"/>
    <g clip-path="url(#p3ec2888685)">
     <use xlink:href="#ma83bc7fffc" x="224.305918" y="289.191586" style="fill: #0000ff; stroke: #0000ff"/>
    </g>
   </g>
   <g id="line2d_101">
    <path d="M 215.24082 295.087981 
" clip-path="url(#p3ec2888685)" style="fill: none; stroke: #0000ff; stroke-width: 1.5; stroke-linecap: square"/>
    <g clip-path="url(#p3ec2888685)">
     <use xlink:href="#ma83bc7fffc" x="215.24082" y="295.087981" style="fill: #0000ff; stroke: #0000ff"/>
    </g>
   </g>
   <g id="line2d_102">
    <path d="M 991.696017 584.386861 
" clip-path="url(#p3ec2888685)" style="fill: none; stroke: #0000ff; stroke-width: 1.5; stroke-linecap: square"/>
    <g clip-path="url(#p3ec2888685)">
     <use xlink:href="#ma83bc7fffc" x="991.696017" y="584.386861" style="fill: #0000ff; stroke: #0000ff"/>
    </g>
   </g>
   <g id="line2d_103">
    <path d="M 615.822023 803.775513 
" clip-path="url(#p3ec2888685)" style="fill: none; stroke: #ff0000; stroke-width: 1.5; stroke-linecap: square"/>
    <defs>
     <path id="m8109401474" d="M 0 -10 
L -2.24514 -3.09017 
L -9.510565 -3.09017 
L -3.632713 1.18034 
L -5.877853 8.09017 
L -0 3.81966 
L 5.877853 8.09017 
L 3.632713 1.18034 
L 9.510565 -3.09017 
L 2.24514 -3.09017 
z
" style="stroke: #ff0000; stroke-linejoin: bevel"/>
    </defs>
    <g clip-path="url(#p3ec2888685)">
     <use xlink:href="#m8109401474" x="615.822023" y="803.775513" style="fill: #ff0000; stroke: #ff0000; stroke-linejoin: bevel"/>
    </g>
   </g>
   <g id="line2d_104">
    <path d="M 576.113381 853.121727 
" clip-path="url(#p3ec2888685)" style="fill: none; stroke: #ff0000; stroke-width: 1.5; stroke-linecap: square"/>
    <g clip-path="url(#p3ec2888685)">
     <use xlink:href="#m8109401474" x="576.113381" y="853.121727" style="fill: #ff0000; stroke: #ff0000; stroke-linejoin: bevel"/>
    </g>
   </g>
   <g id="line2d_105">
    <path d="M 526.742659 1052.229589 
" clip-path="url(#p3ec2888685)" style="fill: none; stroke: #ff0000; stroke-width: 1.5; stroke-linecap: square"/>
    <g clip-path="url(#p3ec2888685)">
     <use xlink:href="#m8109401474" x="526.742659" y="1052.229589" style="fill: #ff0000; stroke: #ff0000; stroke-linejoin: bevel"/>
    </g>
   </g>
   <g id="line2d_106">
    <path d="M 1213.530023 834.864519 
" clip-path="url(#p3ec2888685)" style="fill: none; stroke: #ff0000; stroke-width: 1.5; stroke-linecap: square"/>
    <g clip-path="url(#p3ec2888685)">
     <use xlink:href="#m8109401474" x="1213.530023" y="834.864519" style="fill: #ff0000; stroke: #ff0000; stroke-linejoin: bevel"/>
    </g>
   </g>
   <g id="line2d_107">
    <path d="M 1021.813514 680.275465 
" clip-path="url(#p3ec2888685)" style="fill: none; stroke: #ff0000; stroke-width: 1.5; stroke-linecap: square"/>
    <g clip-path="url(#p3ec2888685)">
     <use xlink:href="#m8109401474" x="1021.813514" y="680.275465" style="fill: #ff0000; stroke: #ff0000; stroke-linejoin: bevel"/>
    </g>
   </g>
   <g id="line2d_108">
    <path d="M 769.91734 189.785972 
" clip-path="url(#p3ec2888685)" style="fill: none; stroke: #ff0000; stroke-width: 1.5; stroke-linecap: square"/>
    <g clip-path="url(#p3ec2888685)">
     <use xlink:href="#m8109401474" x="769.91734" y="189.785972" style="fill: #ff0000; stroke: #ff0000; stroke-linejoin: bevel"/>
    </g>
   </g>
   <g id="line2d_109">
    <path d="M 1254.763749 674.611802 
" clip-path="url(#p3ec2888685)" style="fill: none; stroke: #ff0000; stroke-width: 1.5; stroke-linecap: square"/>
    <g clip-path="url(#p3ec2888685)">
     <use xlink:href="#m8109401474" x="1254.763749" y="674.611802" style="fill: #ff0000; stroke: #ff0000; stroke-linejoin: bevel"/>
    </g>
   </g>
   <g id="line2d_110">
    <path d="M 340.221366 290.501984 
" clip-path="url(#p3ec2888685)" style="fill: none; stroke: #ff0000; stroke-width: 1.5; stroke-linecap: square"/>
    <g clip-path="url(#p3ec2888685)">
     <use xlink:href="#m8109401474" x="340.221366" y="290.501984" style="fill: #ff0000; stroke: #ff0000; stroke-linejoin: bevel"/>
    </g>
   </g>
   <g id="line2d_111">
    <path d="M 226.212344 264.134669 
" clip-path="url(#p3ec2888685)" style="fill: none; stroke: #ff0000; stroke-width: 1.5; stroke-linecap: square"/>
    <g clip-path="url(#p3ec2888685)">
     <use xlink:href="#m8109401474" x="226.212344" y="264.134669" style="fill: #ff0000; stroke: #ff0000; stroke-linejoin: bevel"/>
    </g>
   </g>
   <g id="line2d_112">
    <path d="M 185.949565 250.621242 
" clip-path="url(#p3ec2888685)" style="fill: none; stroke: #ff0000; stroke-width: 1.5; stroke-linecap: square"/>
    <g clip-path="url(#p3ec2888685)">
     <use xlink:href="#m8109401474" x="185.949565" y="250.621242" style="fill: #ff0000; stroke: #ff0000; stroke-linejoin: bevel"/>
    </g>
   </g>
   <g id="line2d_113">
    <path d="M 988.238972 583.688666 
" clip-path="url(#p3ec2888685)" style="fill: none; stroke: #ff0000; stroke-width: 1.5; stroke-linecap: square"/>
    <g clip-path="url(#p3ec2888685)">
     <use xlink:href="#m8109401474" x="988.238972" y="583.688666" style="fill: #ff0000; stroke: #ff0000; stroke-linejoin: bevel"/>
    </g>
   </g>
  </g>
 </g>
 <defs>
  <clipPath id="p3ec2888685">
   <rect x="0" y="0" width="1440" height="1440"/>
  </clipPath>
 </defs>
</svg>
