<?xml version="1.0" encoding="utf-8" standalone="no"?>
<!DOCTYPE svg PUBLIC "-//W3C//DTD SVG 1.1//EN"
  "http://www.w3.org/Graphics/SVG/1.1/DTD/svg11.dtd">
<svg xmlns:xlink="http://www.w3.org/1999/xlink" width="1440pt" height="1440pt" viewBox="0 0 1440 1440" xmlns="http://www.w3.org/2000/svg" version="1.1">
 <metadata>
  <rdf:RDF xmlns:dc="http://purl.org/dc/elements/1.1/" xmlns:cc="http://creativecommons.org/ns#" xmlns:rdf="http://www.w3.org/1999/02/22-rdf-syntax-ns#">
   <cc:Work>
    <dc:type rdf:resource="http://purl.org/dc/dcmitype/StillImage"/>
    <dc:date>2026-02-27T11:11:25.338543</dc:date>
    <dc:format>image/svg+xml</dc:format>
    <dc:creator>
     <cc:Agent>
      <dc:title>Matplotlib v3.7.3, https://matplotlib.org/</dc:title>
     </cc:Agent>
    </dc:creator>
   </cc:Work>
  </rdf:RDF>
 </metadata>
 <defs>
  <style type="text/css">*{stroke-linejoin: round; stroke-linecap: butt}</style>
 </defs>
 <g id="figure_1">
  <g id="patch_1">
   <path d="M 0 1440 
L 1440 1440 
L 1440 0 
L 0 0 
z
" style="fill: #ffffff"/>
  </g>
  <g id="axes_1">
   <g id="line2d_1">
    <path d="M 1228.966436 1267.844928 
L 1001.152339 1441 
" clip-path="url(#p2eb854d624)" style="fill: none; stroke: #7a7a7a; stroke-width: 3; stroke-linecap: square"/>
   </g>
   <g id="line2d_2">
    <path d="M 1203.343002 1245.09821 
L 945.02948 1441 
" clip-path="url(#p2eb854d624)" style="fill: none; stroke: #7a7a7a; stroke-width: 3; stroke-linecap: square"/>
   </g>
   <g id="line2d_3">
    <path clip-path="url(#p2eb854d624)" style="fill: none; stroke: #7a7a7a; stroke-width: 3; stroke-linecap: square"/>
   </g>
   <g id="line2d_4">
    <path clip-path="url(#p2eb854d624)" style="fill: none; stroke: #7a7a7a; stroke-width: 3; stroke-linecap: square"/>
   </g>
   <g id="line2d_5">
    <path d="M 1001.152339 1441 
L 1228.966436 1267.844928 
" clip-path="url(#p2eb854d624)" style="fill: none; stroke: #7a7a7a; stroke-width: 3; stroke-linecap: square"/>
   </g>
   <g id="line2d_6">
    <path d="M 1057.643745 1441 
L 1255.112798 1291.128125 
" clip-path="url(#p2eb854d624)" style="fill: none; stroke: #7a7a7a; stroke-width: 3; stroke-linecap: square"/>
   </g>
   <g id="line2d_7">
    <path d="M 715.321167 633.726523 
L 716.105558 634.370298 
L 716.367022 634.58489 
L 716.628485 634.906777 
L 717.412876 635.550552 
L 717.935803 636.087032 
L 718.327999 636.408919 
L 906.843264 807.33119 
" clip-path="url(#p2eb854d624)" style="fill: none; stroke: #7a7a7a; stroke-width: 3; stroke-linecap: square"/>
   </g>
   <g id="line2d_8">
    <path d="M 649.040141 633.726523 
L 649.6938 634.370298 
L 649.955264 634.58489 
L 650.347459 634.906777 
L 651.13185 635.657848 
L 651.654777 636.194327 
L 651.916241 636.516215 
L 864.616891 837.803208 
" clip-path="url(#p2eb854d624)" style="fill: none; stroke: #7a7a7a; stroke-width: 3; stroke-linecap: square"/>
   </g>
   <g id="line2d_9">
    <path d="M 1006.722365 893.060564 
L 1203.343002 1068.381964 
" clip-path="url(#p2eb854d624)" style="fill: none; stroke: #7a7a7a; stroke-width: 3; stroke-linecap: square"/>
   </g>
   <g id="line2d_10">
    <path d="M 962.535014 923.317991 
L 1160.201506 1099.819645 
" clip-path="url(#p2eb854d624)" style="fill: none; stroke: #7a7a7a; stroke-width: 3; stroke-linecap: square"/>
   </g>
   <g id="line2d_11">
    <path d="M 1057.643745 1441 
L 1255.112798 1291.128125 
" clip-path="url(#p2eb854d624)" style="fill: none; stroke: #7a7a7a; stroke-width: 3; stroke-linecap: square"/>
   </g>
   <g id="line2d_12">
    <path d="M 1112.541205 1441 
L 1225.567409 1355.291036 
L 1280.736232 1314.304026 
L 1280.997695 1314.089434 
" clip-path="url(#p2eb854d624)" style="fill: none; stroke: #7a7a7a; stroke-width: 3; stroke-linecap: square"/>
   </g>
   <g id="line2d_13">
    <path d="M 1006.722365 893.060564 
L 906.843264 807.33119 
" clip-path="url(#p2eb854d624)" style="fill: none; stroke: #7a7a7a; stroke-width: 3; stroke-linecap: square"/>
   </g>
   <g id="line2d_14">
    <path d="M 1051.95557 861.944771 
L 1041.10483 852.502737 
L 1033.391653 846.172283 
L 1029.731163 842.63152 
L 976.261854 796.387014 
L 968.02575 789.734672 
L 951.684274 775.142438 
" clip-path="url(#p2eb854d624)" style="fill: none; stroke: #7a7a7a; stroke-width: 3; stroke-linecap: square"/>
   </g>
   <g id="line2d_15">
    <path d="M 1057.969233 804.863385 
L 1040.843366 817.416998 
L 1027.639454 828.039286 
L 1026.070672 830.614386 
L 1025.809208 831.472753 
L 896.38472 938.232112 
" clip-path="url(#p2eb854d624)" style="fill: none; stroke: #7a7a7a; stroke-width: 3; stroke-linecap: square"/>
   </g>
   <g id="line2d_16">
    <path d="M 1021.756522 773.318409 
L 990.119425 795.957831 
L 986.066739 798.211043 
L 985.151617 798.318339 
L 847.098829 892.202198 
" clip-path="url(#p2eb854d624)" style="fill: none; stroke: #7a7a7a; stroke-width: 3; stroke-linecap: square"/>
   </g>
   <g id="line2d_17">
    <path d="M 1441 1062.300774 
L 1416.828043 1080.720986 
" clip-path="url(#p2eb854d624)" style="fill: none; stroke: #7a7a7a; stroke-width: 3; stroke-linecap: square"/>
   </g>
   <g id="line2d_18">
    <path d="M 1441 1027.070781 
L 1394.342172 1062.695285 
" clip-path="url(#p2eb854d624)" style="fill: none; stroke: #7a7a7a; stroke-width: 3; stroke-linecap: square"/>
   </g>
   <g id="line2d_19">
    <path d="M 1203.343002 1068.381964 
L 1006.722365 893.060564 
" clip-path="url(#p2eb854d624)" style="fill: none; stroke: #7a7a7a; stroke-width: 3; stroke-linecap: square"/>
   </g>
   <g id="line2d_20">
    <path d="M 1247.399621 1036.193213 
L 1113.922446 917.41672 
L 1088.952671 895.421073 
L 1066.074605 874.712976 
L 1051.95557 861.944771 
" clip-path="url(#p2eb854d624)" style="fill: none; stroke: #7a7a7a; stroke-width: 3; stroke-linecap: square"/>
   </g>
   <g id="line2d_21">
    <path d="M 1021.625791 773.425705 
L 1158.501992 675.893788 
L 1197.852266 647.674982 
" clip-path="url(#p2eb854d624)" style="fill: none; stroke: #7a7a7a; stroke-width: 3; stroke-linecap: square"/>
   </g>
   <g id="line2d_22">
    <path d="M 1058.099965 804.863385 
L 1248.968403 660.765074 
" clip-path="url(#p2eb854d624)" style="fill: none; stroke: #7a7a7a; stroke-width: 3; stroke-linecap: square"/>
   </g>
   <g id="line2d_23">
    <path d="M 1006.722365 893.060564 
L 991.16528 886.300927 
L 971.816972 886.300927 
L 953.383788 896.386735 
L 934.296944 910.44249 
L 932.989626 910.657082 
L 929.459867 913.232182 
L 926.845231 915.807282 
L 896.38472 938.232112 
" clip-path="url(#p2eb854d624)" style="fill: none; stroke: #7a7a7a; stroke-width: 3; stroke-linecap: square"/>
   </g>
   <g id="line2d_24">
    <path d="M 1051.95557 861.944771 
L 1034.437508 848.425496 
L 1012.736028 839.412645 
L 988.681375 834.584332 
L 963.973064 833.511374 
L 940.441339 836.086474 
L 919.916445 841.773154 
L 904.097896 850.356821 
L 847.098829 892.202198 
" clip-path="url(#p2eb854d624)" style="fill: none; stroke: #7a7a7a; stroke-width: 3; stroke-linecap: square"/>
   </g>
   <g id="line2d_25">
    <path clip-path="url(#p2eb854d624)" style="fill: none; stroke: #7a7a7a; stroke-width: 3; stroke-linecap: square"/>
   </g>
   <g id="line2d_26">
    <path d="M 1441 1062.300774 
L 1416.828043 1080.720986 
" clip-path="url(#p2eb854d624)" style="fill: none; stroke: #7a7a7a; stroke-width: 3; stroke-linecap: square"/>
   </g>
   <g id="line2d_27">
    <path d="M 708.915309 996.922936 
L 814.938804 916.772945 
L 846.968097 892.416789 
" clip-path="url(#p2eb854d624)" style="fill: none; stroke: #7a7a7a; stroke-width: 3; stroke-linecap: square"/>
   </g>
   <g id="line2d_28">
    <path d="M 762.253886 1037.80265 
L 861.740791 962.910155 
L 896.253988 938.339408 
" clip-path="url(#p2eb854d624)" style="fill: none; stroke: #7a7a7a; stroke-width: 3; stroke-linecap: square"/>
   </g>
   <g id="line2d_29">
    <path d="M 1203.343002 1245.09821 
L 945.02948 1441 
" clip-path="url(#p2eb854d624)" style="fill: none; stroke: #7a7a7a; stroke-width: 3; stroke-linecap: square"/>
   </g>
   <g id="line2d_30">
    <path d="M 1180.07274 1224.497409 
L 894.99021 1441 
" clip-path="url(#p2eb854d624)" style="fill: none; stroke: #7a7a7a; stroke-width: 3; stroke-linecap: square"/>
   </g>
   <g id="line2d_31">
    <path d="M 1248.968403 660.765074 
L 1057.969233 804.863385 
" clip-path="url(#p2eb854d624)" style="fill: none; stroke: #7a7a7a; stroke-width: 3; stroke-linecap: square"/>
   </g>
   <g id="line2d_32">
    <path d="M 1197.852266 647.674982 
L 1158.501992 675.893788 
L 1021.756522 773.318409 
" clip-path="url(#p2eb854d624)" style="fill: none; stroke: #7a7a7a; stroke-width: 3; stroke-linecap: square"/>
   </g>
   <g id="line2d_33">
    <path clip-path="url(#p2eb854d624)" style="fill: none; stroke: #7a7a7a; stroke-width: 3; stroke-linecap: square"/>
   </g>
   <g id="line2d_34">
    <path clip-path="url(#p2eb854d624)" style="fill: none; stroke: #7a7a7a; stroke-width: 3; stroke-linecap: square"/>
   </g>
   <g id="line2d_35">
    <path d="M 1228.966436 1267.844928 
L 1441 1105.648892 
" clip-path="url(#p2eb854d624)" style="fill: none; stroke: #7a7a7a; stroke-width: 3; stroke-linecap: square"/>
   </g>
   <g id="line2d_36">
    <path d="M 1255.112798 1291.128125 
L 1441 1149.219119 
" clip-path="url(#p2eb854d624)" style="fill: none; stroke: #7a7a7a; stroke-width: 3; stroke-linecap: square"/>
   </g>
   <g id="line2d_37">
    <path d="M 896.38472 938.232112 
L 861.740791 962.910155 
L 762.253886 1037.80265 
" clip-path="url(#p2eb854d624)" style="fill: none; stroke: #7a7a7a; stroke-width: 3; stroke-linecap: square"/>
   </g>
   <g id="line2d_38">
    <path d="M 847.098829 892.202198 
L 814.938804 916.772945 
L 708.915309 996.922936 
" clip-path="url(#p2eb854d624)" style="fill: none; stroke: #7a7a7a; stroke-width: 3; stroke-linecap: square"/>
   </g>
   <g id="line2d_39">
    <path d="M 906.843264 807.33119 
L 718.327999 636.408919 
L 717.935803 636.087032 
L 717.412876 635.550552 
L 716.628485 634.906777 
L 716.367022 634.58489 
L 716.105558 634.370298 
L 715.321167 633.726523 
" clip-path="url(#p2eb854d624)" style="fill: none; stroke: #7a7a7a; stroke-width: 3; stroke-linecap: square"/>
   </g>
   <g id="line2d_40">
    <path d="M 951.684274 775.142438 
L 797.812937 636.301623 
L 797.420742 636.087032 
L 796.897815 635.550552 
L 796.244156 634.906777 
L 795.85196 634.58489 
L 795.590497 634.370298 
L 794.936838 633.726523 
" clip-path="url(#p2eb854d624)" style="fill: none; stroke: #7a7a7a; stroke-width: 3; stroke-linecap: square"/>
   </g>
   <g id="line2d_41">
    <path d="M 906.843264 807.33119 
L 1006.722365 893.060564 
" clip-path="url(#p2eb854d624)" style="fill: none; stroke: #7a7a7a; stroke-width: 3; stroke-linecap: square"/>
   </g>
   <g id="line2d_42">
    <path d="M 864.616891 837.803208 
L 876.513485 847.674425 
L 880.304708 851.000596 
L 880.958367 852.073554 
L 956.652083 918.167791 
L 959.005255 919.884524 
L 962.535014 923.317991 
" clip-path="url(#p2eb854d624)" style="fill: none; stroke: #7a7a7a; stroke-width: 3; stroke-linecap: square"/>
   </g>
   <g id="line2d_43">
    <path d="M 1416.828043 1080.720986 
L 1387.544118 1103.360407 
L 1360.22117 1118.381825 
L 1336.427981 1127.180084 
L 1314.334306 1129.647888 
L 1294.593803 1128.574929 
L 1276.029887 1123.102842 
L 1258.250361 1113.8754 
L 1240.601567 1101.321787 
L 1222.429846 1085.978482 
L 1203.343002 1068.381964 
" clip-path="url(#p2eb854d624)" style="fill: none; stroke: #7a7a7a; stroke-width: 3; stroke-linecap: square"/>
   </g>
   <g id="line2d_44">
    <path d="M 1394.342172 1062.695285 
L 1375.124596 1077.394815 
L 1364.666052 1084.47634 
L 1353.292384 1090.163019 
L 1344.533353 1092.416232 
L 1339.696277 1092.738119 
L 1333.42115 1093.167303 
L 1331.590905 1092.952711 
L 1321.263092 1091.987049 
L 1319.825042 1091.557865 
L 1316.556747 1090.91409 
L 1314.726501 1090.270315 
L 1311.196743 1089.090061 
L 1302.699175 1084.798227 
L 1293.678681 1077.931294 
L 1289.756726 1074.390531 
L 1287.665017 1072.781094 
L 1269.493296 1056.472126 
L 1247.399621 1036.193213 
" clip-path="url(#p2eb854d624)" style="fill: none; stroke: #7a7a7a; stroke-width: 3; stroke-linecap: square"/>
   </g>
   <g id="line2d_45">
    <path d="M 356.070162 311.839008 
L 356.854553 312.590079 
L 357.37748 313.126558 
L 358.292603 313.877629 
L 358.81553 314.414108 
L 359.207726 314.735996 
L 472.682934 419.993213 
" clip-path="url(#p2eb854d624)" style="fill: none; stroke: #7a7a7a; stroke-width: 3; stroke-linecap: square"/>
   </g>
   <g id="line2d_46">
    <path d="M 272.401806 311.839008 
L 273.186197 312.590079 
L 273.839856 313.126558 
L 274.754978 313.984925 
L 275.408638 314.521404 
L 275.800833 314.843292 
L 386.138478 412.911688 
L 447.190232 437.911618 
L 449.804868 439.950239 
" clip-path="url(#p2eb854d624)" style="fill: none; stroke: #7a7a7a; stroke-width: 3; stroke-linecap: square"/>
   </g>
   <g id="line2d_47">
    <path d="M 1441 1105.648892 
L 1228.966436 1267.844928 
" clip-path="url(#p2eb854d624)" style="fill: none; stroke: #7a7a7a; stroke-width: 3; stroke-linecap: square"/>
   </g>
   <g id="line2d_48">
    <path d="M 1416.828043 1080.720986 
L 1203.343002 1245.09821 
" clip-path="url(#p2eb854d624)" style="fill: none; stroke: #7a7a7a; stroke-width: 3; stroke-linecap: square"/>
   </g>
   <g id="line2d_49">
    <path d="M 906.843264 807.33119 
L 923.18474 823.854749 
L 933.774017 841.34397 
L 938.872557 859.476967 
L 938.480362 877.931851 
L 932.466698 896.494031 
L 921.093031 914.734324 
L 904.490092 932.330841 
L 896.38472 938.232112 
" clip-path="url(#p2eb854d624)" style="fill: none; stroke: #7a7a7a; stroke-width: 3; stroke-linecap: square"/>
   </g>
   <g id="line2d_50">
    <path d="M 864.616891 837.803208 
L 872.722263 844.45555 
L 876.513485 847.674425 
L 877.167144 848.210904 
L 878.605194 849.498454 
L 880.304708 851.000596 
L 882.65788 854.326767 
L 882.788612 854.970542 
L 882.919344 855.399725 
L 884.09593 858.940488 
L 883.573003 863.446913 
L 880.435439 866.88038 
L 878.474462 868.275226 
L 878.212999 868.489817 
L 847.098829 892.202198 
" clip-path="url(#p2eb854d624)" style="fill: none; stroke: #7a7a7a; stroke-width: 3; stroke-linecap: square"/>
   </g>
   <g id="line2d_51">
    <path d="M 676.363089 595.100021 
L 714.667508 633.082748 
L 715.321167 633.726523 
" clip-path="url(#p2eb854d624)" style="fill: none; stroke: #7a7a7a; stroke-width: 3; stroke-linecap: square"/>
   </g>
   <g id="line2d_52">
    <path d="M 645.510383 617.739443 
L 648.517214 633.190044 
L 649.040141 633.726523 
" clip-path="url(#p2eb854d624)" style="fill: none; stroke: #7a7a7a; stroke-width: 3; stroke-linecap: square"/>
   </g>
   <g id="line2d_53">
    <path d="M 846.968097 892.416789 
L 899.26082 853.897583 
L 913.379855 840.914787 
L 916.255954 824.06934 
L 906.843264 807.33119 
" clip-path="url(#p2eb854d624)" style="fill: none; stroke: #7a7a7a; stroke-width: 3; stroke-linecap: square"/>
   </g>
   <g id="line2d_54">
    <path d="M 896.253988 938.339408 
L 926.975963 915.807282 
L 929.459867 913.232182 
L 932.989626 910.657082 
L 934.296944 910.44249 
L 948.546711 899.927498 
L 962.796478 887.695772 
L 972.732095 871.172213 
L 978.222831 851.858962 
L 979.007222 831.150866 
L 974.954536 810.442769 
L 965.934041 791.236814 
L 951.684274 775.142438 
" clip-path="url(#p2eb854d624)" style="fill: none; stroke: #7a7a7a; stroke-width: 3; stroke-linecap: square"/>
   </g>
   <g id="line2d_55">
    <path d="M 676.363089 595.100021 
L 652.962096 581.044267 
L 630.606957 573.318966 
L 609.428404 571.280345 
L 589.034242 574.070037 
L 569.163007 580.829675 
L 549.683968 591.02278 
L 530.335661 603.683688 
L 511.118085 618.168627 
L 491.508314 633.619227 
" clip-path="url(#p2eb854d624)" style="fill: none; stroke: #7a7a7a; stroke-width: 3; stroke-linecap: square"/>
   </g>
   <g id="line2d_56">
    <path d="M 717.805072 564.842595 
L 693.227492 545.958527 
L 666.819667 535.014352 
L 639.365988 530.615223 
L 611.389381 531.795477 
L 583.674238 537.267565 
L 557.135681 546.065823 
L 532.42737 556.795407 
L 510.072231 568.597949 
L 490.985387 580.078604 
L 475.951229 590.164413 
L 465.623416 597.675121 
L 460.655608 601.430476 
" clip-path="url(#p2eb854d624)" style="fill: none; stroke: #7a7a7a; stroke-width: 3; stroke-linecap: square"/>
   </g>
   <g id="line2d_57">
    <path d="M 906.843264 807.33119 
L 929.198403 818.168069 
L 953.383788 816.558632 
L 975.085267 807.33119 
L 1021.625791 773.425705 
" clip-path="url(#p2eb854d624)" style="fill: none; stroke: #7a7a7a; stroke-width: 3; stroke-linecap: square"/>
   </g>
   <g id="line2d_58">
    <path d="M 864.616891 837.803208 
L 881.350562 848.747383 
L 902.267651 855.614317 
L 925.930108 858.6186 
L 950.376956 858.082121 
L 974.039413 854.434063 
L 994.956502 847.889016 
L 1011.42871 838.76887 
L 1058.099965 804.863385 
" clip-path="url(#p2eb854d624)" style="fill: none; stroke: #7a7a7a; stroke-width: 3; stroke-linecap: square"/>
   </g>
   <g id="line2d_59">
    <path d="M 846.968097 892.416789 
L 985.151617 798.318339 
L 986.066739 798.211043 
L 990.119425 795.957831 
L 1021.625791 773.425705 
" clip-path="url(#p2eb854d624)" style="fill: none; stroke: #7a7a7a; stroke-width: 3; stroke-linecap: square"/>
   </g>
   <g id="line2d_60">
    <path d="M 896.253988 938.339408 
L 1025.809208 831.472753 
L 1026.070672 830.614386 
L 1027.639454 828.039286 
L 1040.843366 817.416998 
L 1058.099965 804.863385 
" clip-path="url(#p2eb854d624)" style="fill: none; stroke: #7a7a7a; stroke-width: 3; stroke-linecap: square"/>
   </g>
   <g id="line2d_61">
    <path d="M 1416.828043 1080.720986 
L 1203.343002 1245.09821 
" clip-path="url(#p2eb854d624)" style="fill: none; stroke: #7a7a7a; stroke-width: 3; stroke-linecap: square"/>
   </g>
   <g id="line2d_62">
    <path d="M 1394.342172 1062.695285 
L 1375.124596 1077.394815 
L 1372.640692 1079.004252 
L 1213.017156 1199.71207 
L 1211.317642 1201.321508 
L 1180.07274 1224.497409 
" clip-path="url(#p2eb854d624)" style="fill: none; stroke: #7a7a7a; stroke-width: 3; stroke-linecap: square"/>
   </g>
   <g id="line2d_63">
    <path d="M 1057.969233 804.863385 
L 1049.471666 811.086544 
L 1048.818006 811.623023 
L 1026.332136 825.249595 
L 1004.107729 834.047853 
L 982.667712 838.125095 
L 962.142819 837.266728 
L 942.533048 831.901937 
L 924.099863 821.816128 
L 906.843264 807.33119 
" clip-path="url(#p2eb854d624)" style="fill: none; stroke: #7a7a7a; stroke-width: 3; stroke-linecap: square"/>
   </g>
   <g id="line2d_64">
    <path d="M 1021.756522 773.318409 
L 1012.997491 779.756159 
L 997.832602 790.485743 
L 990.119425 795.957831 
L 986.066739 798.211043 
L 982.144785 798.425635 
L 978.353563 797.889156 
L 975.085267 795.528647 
L 973.385754 794.133801 
L 968.02575 789.734672 
L 951.684274 775.142438 
" clip-path="url(#p2eb854d624)" style="fill: none; stroke: #7a7a7a; stroke-width: 3; stroke-linecap: square"/>
   </g>
   <g id="line2d_65">
    <path d="M 1228.966436 1267.844928 
L 1255.504993 1247.67331 
L 1265.44061 1236.407247 
L 1272.892323 1219.239913 
L 1277.206473 1198.102633 
L 1277.860132 1175.034027 
L 1274.461105 1151.965422 
L 1266.355733 1130.935438 
L 1253.021089 1113.8754 
L 1203.343002 1068.381964 
" clip-path="url(#p2eb854d624)" style="fill: none; stroke: #7a7a7a; stroke-width: 3; stroke-linecap: square"/>
   </g>
   <g id="line2d_66">
    <path d="M 1255.112798 1291.128125 
L 1281.651354 1270.849211 
L 1296.685512 1256.149681 
L 1308.189911 1238.338572 
L 1316.556747 1218.27425 
L 1321.786019 1196.600491 
L 1324.00846 1174.390252 
L 1323.485533 1152.28731 
L 1320.347969 1131.15003 
L 1314.857233 1111.836779 
L 1307.013325 1094.991332 
L 1297.077708 1081.686648 
L 1247.399621 1036.193213 
" clip-path="url(#p2eb854d624)" style="fill: none; stroke: #7a7a7a; stroke-width: 3; stroke-linecap: square"/>
   </g>
   <g id="line2d_67">
    <path d="M 702.901646 473.426541 
L 672.964062 503.683967 
L 656.230391 527.718235 
L 650.085996 546.816894 
L 651.654777 561.945607 
L 658.452831 574.284629 
L 676.363089 595.100021 
" clip-path="url(#p2eb854d624)" style="fill: none; stroke: #7a7a7a; stroke-width: 3; stroke-linecap: square"/>
   </g>
   <g id="line2d_68">
    <path d="M 668.126985 445.207735 
L 636.751351 472.782766 
L 616.35719 497.997288 
L 605.375718 520.958597 
L 601.845959 541.559398 
L 604.329863 559.799691 
L 610.866454 575.894066 
L 620.01768 589.627934 
L 629.953298 601.215884 
L 639.104524 610.550622 
L 645.510383 617.739443 
" clip-path="url(#p2eb854d624)" style="fill: none; stroke: #7a7a7a; stroke-width: 3; stroke-linecap: square"/>
   </g>
   <g id="line2d_69">
    <path d="M 1255.112798 1291.128125 
L 1441 1149.219119 
" clip-path="url(#p2eb854d624)" style="fill: none; stroke: #7a7a7a; stroke-width: 3; stroke-linecap: square"/>
   </g>
   <g id="line2d_70">
    <path d="M 1280.997695 1314.089434 
L 1441 1192.116622 
" clip-path="url(#p2eb854d624)" style="fill: none; stroke: #7a7a7a; stroke-width: 3; stroke-linecap: square"/>
   </g>
   <g id="line2d_71">
    <path d="M 472.682934 419.993213 
L 518.70053 459.370786 
L 534.519079 478.684037 
L 543.147378 495.744075 
L 545.50055 511.409267 
L 542.101523 525.894206 
L 533.473224 539.94996 
L 520.400043 554.005715 
L 503.53564 568.597949 
L 483.402942 584.263142 
L 460.655608 601.430476 
" clip-path="url(#p2eb854d624)" style="fill: none; stroke: #7a7a7a; stroke-width: 3; stroke-linecap: square"/>
   </g>
   <g id="line2d_72">
    <path d="M 449.804868 439.950239 
L 485.625383 477.82567 
L 495.561 493.168975 
L 497.521977 506.151771 
L 491.90051 518.705384 
L 478.958061 532.546548 
L 458.825362 549.713882 
L 431.763878 571.92412 
" clip-path="url(#p2eb854d624)" style="fill: none; stroke: #7a7a7a; stroke-width: 3; stroke-linecap: square"/>
   </g>
   <g id="line2d_73">
    <path d="M 1006.722365 893.060564 
L 992.995525 879.433993 
L 982.929176 863.876096 
L 977.307708 846.708762 
L 977.046245 828.897653 
L 982.929176 810.871952 
L 995.610161 793.490026 
L 1016.265787 777.395651 
L 1021.625791 773.425705 
" clip-path="url(#p2eb854d624)" style="fill: none; stroke: #7a7a7a; stroke-width: 3; stroke-linecap: square"/>
   </g>
   <g id="line2d_74">
    <path d="M 1051.95557 861.944771 
L 1037.052144 849.498454 
L 1033.653117 846.494171 
L 1033.391653 846.172283 
L 1029.992626 843.060704 
L 1027.770186 840.271012 
L 1027.116527 839.519941 
L 1026.855063 839.198054 
L 1025.417013 835.871883 
L 1025.547745 832.974895 
L 1026.070672 830.614386 
L 1027.639454 828.039286 
L 1028.554576 827.288215 
L 1029.600431 826.429849 
L 1040.843366 817.416998 
L 1058.099965 804.863385 
" clip-path="url(#p2eb854d624)" style="fill: none; stroke: #7a7a7a; stroke-width: 3; stroke-linecap: square"/>
   </g>
   <g id="line2d_75">
    <path d="M 1057.969233 804.863385 
L 1007.506756 842.095041 
L 996.917479 858.082121 
L 996.133088 877.073484 
L 1006.722365 893.060564 
" clip-path="url(#p2eb854d624)" style="fill: none; stroke: #7a7a7a; stroke-width: 3; stroke-linecap: square"/>
   </g>
   <g id="line2d_76">
    <path d="M 1021.756522 773.318409 
L 971.294045 810.442769 
L 956.782814 826.215257 
L 947.239393 845.313916 
L 943.055975 866.236605 
L 944.101829 887.159293 
L 950.507688 906.794432 
L 962.535014 923.317991 
" clip-path="url(#p2eb854d624)" style="fill: none; stroke: #7a7a7a; stroke-width: 3; stroke-linecap: square"/>
   </g>
   <g id="line2d_77">
    <path d="M 846.968097 892.416789 
L 862.002255 881.258022 
L 882.265685 871.172213 
L 904.228628 864.949055 
L 926.975963 862.695842 
L 949.461833 864.30528 
L 970.90185 869.884663 
L 990.250157 879.433993 
L 1006.722365 893.060564 
" clip-path="url(#p2eb854d624)" style="fill: none; stroke: #7a7a7a; stroke-width: 3; stroke-linecap: square"/>
   </g>
   <g id="line2d_78">
    <path d="M 896.253988 938.339408 
L 911.288146 927.287937 
L 926.322304 916.343761 
L 929.459867 913.232182 
L 932.989626 910.657082 
L 938.480362 909.584123 
L 939.78768 909.798715 
L 942.271584 910.120603 
L 943.709634 910.227899 
L 948.154515 911.944632 
L 959.005255 919.884524 
L 962.535014 923.317991 
" clip-path="url(#p2eb854d624)" style="fill: none; stroke: #7a7a7a; stroke-width: 3; stroke-linecap: square"/>
   </g>
   <g id="line2d_79">
    <path d="M 491.508314 633.619227 
L -1 1006.715796 
" clip-path="url(#p2eb854d624)" style="fill: none; stroke: #7a7a7a; stroke-width: 3; stroke-linecap: square"/>
   </g>
   <g id="line2d_80">
    <path d="M 460.655608 601.430476 
L -1 952.421526 
" clip-path="url(#p2eb854d624)" style="fill: none; stroke: #7a7a7a; stroke-width: 3; stroke-linecap: square"/>
   </g>
   <g id="line2d_81">
    <path d="M 1203.343002 1068.381964 
L 1227.266923 1089.733836 
L 1245.569376 1105.720916 
L 1266.094269 1118.167233 
L 1288.187945 1127.072788 
L 1311.327475 1132.759467 
L 1335.120663 1135.119976 
L 1359.044584 1134.476201 
L 1382.445577 1130.828142 
L 1404.800716 1124.283096 
L 1425.717805 1114.948358 
L 1441 1105.212499 
" clip-path="url(#p2eb854d624)" style="fill: none; stroke: #7a7a7a; stroke-width: 3; stroke-linecap: square"/>
   </g>
   <g id="line2d_82">
    <path d="M 1160.201506 1099.819645 
L 1184.125427 1121.278812 
L 1201.643489 1135.441863 
L 1221.122528 1147.458997 
L 1242.431812 1157.222918 
L 1265.048415 1164.733627 
L 1288.710872 1169.991123 
L 1312.896256 1172.995407 
L 1337.604568 1173.531886 
L 1362.182147 1171.707856 
L 1386.367532 1167.523319 
L 1409.768525 1160.763681 
L 1432.123664 1151.536239 
L 1441 1146.527735 
" clip-path="url(#p2eb854d624)" style="fill: none; stroke: #7a7a7a; stroke-width: 3; stroke-linecap: square"/>
   </g>
   <g id="line2d_83">
    <path d="M 472.682934 419.993213 
L 359.207726 314.735996 
L 358.81553 314.414108 
L 358.292603 313.877629 
L 357.37748 313.126558 
L 356.854553 312.590079 
L 356.070162 311.839008 
" clip-path="url(#p2eb854d624)" style="fill: none; stroke: #7a7a7a; stroke-width: 3; stroke-linecap: square"/>
   </g>
   <g id="line2d_84">
    <path d="M 500.921004 399.7143 
L 498.960027 397.461087 
L 485.233187 358.941881 
L 435.032174 314.735996 
L 434.639978 314.414108 
L 434.117051 313.877629 
L 433.201928 313.126558 
L 432.809733 312.804671 
L 432.548269 312.590079 
L 431.763878 311.839008 
" clip-path="url(#p2eb854d624)" style="fill: none; stroke: #7a7a7a; stroke-width: 3; stroke-linecap: square"/>
   </g>
   <g id="line2d_85">
    <path d="M 668.126985 445.207735 
L 649.955264 455.293544 
L 629.299638 463.018844 
L 606.9445 467.847157 
L 583.543506 469.671186 
L 559.881049 467.954453 
L 536.872251 462.267774 
L 515.432235 452.503852 
L 472.682934 419.993213 
" clip-path="url(#p2eb854d624)" style="fill: none; stroke: #7a7a7a; stroke-width: 3; stroke-linecap: square"/>
   </g>
   <g id="line2d_86">
    <path d="M 629.038175 416.237859 
L 612.173772 429.220655 
L 592.302537 435.980293 
L 570.07813 436.302181 
L 546.9386 430.293614 
L 523.668339 417.740001 
L 500.921004 399.7143 
" clip-path="url(#p2eb854d624)" style="fill: none; stroke: #7a7a7a; stroke-width: 3; stroke-linecap: square"/>
   </g>
   <g id="line2d_87">
    <path d="M 702.901646 473.426541 
L 491.508314 633.619227 
" clip-path="url(#p2eb854d624)" style="fill: none; stroke: #7a7a7a; stroke-width: 3; stroke-linecap: square"/>
   </g>
   <g id="line2d_88">
    <path d="M 668.126985 445.207735 
L 460.655608 601.430476 
" clip-path="url(#p2eb854d624)" style="fill: none; stroke: #7a7a7a; stroke-width: 3; stroke-linecap: square"/>
   </g>
   <g id="line2d_89">
    <path d="M 1203.343002 1068.381964 
L 1255.504993 1116.665091 
L 1269.231833 1135.978342 
L 1274.722569 1154.86241 
L 1274.722569 1171.493265 
L 1267.924515 1187.373049 
L 1257.335238 1201.5361 
L 1244.392789 1213.982417 
L 1203.343002 1245.09821 
" clip-path="url(#p2eb854d624)" style="fill: none; stroke: #7a7a7a; stroke-width: 3; stroke-linecap: square"/>
   </g>
   <g id="line2d_90">
    <path d="M 1160.201506 1099.819645 
L 1176.020054 1114.519175 
L 1206.872761 1140.270176 
L 1215.370328 1148.639251 
L 1221.906919 1157.330214 
L 1225.436677 1165.484698 
L 1226.3518 1173.209998 
L 1225.959605 1178.682086 
L 1225.044482 1182.652032 
L 1223.083505 1187.373049 
L 1220.338137 1191.664882 
L 1216.023987 1196.815083 
L 1211.317642 1201.321508 
L 1180.07274 1224.497409 
" clip-path="url(#p2eb854d624)" style="fill: none; stroke: #7a7a7a; stroke-width: 3; stroke-linecap: square"/>
   </g>
   <g id="line2d_91">
    <path d="M 715.321167 633.726523 
L 714.667508 633.082748 
L 676.363089 595.100021 
" clip-path="url(#p2eb854d624)" style="fill: none; stroke: #7a7a7a; stroke-width: 3; stroke-linecap: square"/>
   </g>
   <g id="line2d_92">
    <path d="M 794.936838 633.726523 
L 794.152447 632.975452 
L 717.805072 564.842595 
" clip-path="url(#p2eb854d624)" style="fill: none; stroke: #7a7a7a; stroke-width: 3; stroke-linecap: square"/>
   </g>
   <g id="line2d_93">
    <path d="M 676.363089 595.100021 
L 472.682934 419.993213 
" clip-path="url(#p2eb854d624)" style="fill: none; stroke: #7a7a7a; stroke-width: 3; stroke-linecap: square"/>
   </g>
   <g id="line2d_94">
    <path d="M 717.805072 564.842595 
L 500.921004 399.7143 
" clip-path="url(#p2eb854d624)" style="fill: none; stroke: #7a7a7a; stroke-width: 3; stroke-linecap: square"/>
   </g>
   <g id="line2d_95">
    <path d="M 843.307606 311.839008 
L 842.523215 312.375487 
L 842.261752 312.590079 
L 841.738825 313.019262 
L 841.085165 313.555742 
L 840.300775 314.092221 
L 839.908579 314.414108 
L 668.126985 445.207735 
" clip-path="url(#p2eb854d624)" style="fill: none; stroke: #7a7a7a; stroke-width: 3; stroke-linecap: square"/>
   </g>
   <g id="line2d_96">
    <path d="M 772.320235 311.839008 
L 771.535844 312.375487 
L 771.274381 312.697375 
L 770.751453 313.019262 
L 769.836331 313.663037 
L 769.182672 314.199517 
L 768.790476 314.414108 
L 629.038175 416.237859 
" clip-path="url(#p2eb854d624)" style="fill: none; stroke: #7a7a7a; stroke-width: 3; stroke-linecap: square"/>
   </g>
   <g id="line2d_97">
    <path d="M 472.682934 419.993213 
L 676.363089 595.100021 
" clip-path="url(#p2eb854d624)" style="fill: none; stroke: #7a7a7a; stroke-width: 3; stroke-linecap: square"/>
   </g>
   <g id="line2d_98">
    <path d="M 449.804868 439.950239 
L 645.510383 617.739443 
" clip-path="url(#p2eb854d624)" style="fill: none; stroke: #7a7a7a; stroke-width: 3; stroke-linecap: square"/>
   </g>
   <g id="line2d_99">
    <path d="M 914.033514 311.839008 
L 913.379855 312.375487 
L 913.118391 312.590079 
L 912.464732 313.019262 
L 911.941805 313.448446 
L 911.288146 313.984925 
L 910.89595 314.306812 
L 702.901646 473.426541 
" clip-path="url(#p2eb854d624)" style="fill: none; stroke: #7a7a7a; stroke-width: 3; stroke-linecap: square"/>
   </g>
   <g id="line2d_100">
    <path d="M 843.307606 311.839008 
L 842.523215 312.375487 
L 842.261752 312.590079 
L 841.738825 313.019262 
L 841.085165 313.555742 
L 840.300775 314.092221 
L 839.908579 314.414108 
L 668.126985 445.207735 
" clip-path="url(#p2eb854d624)" style="fill: none; stroke: #7a7a7a; stroke-width: 3; stroke-linecap: square"/>
   </g>
   <g id="line2d_101">
    <path d="M 460.655608 601.430476 
L -1 952.421526 
" clip-path="url(#p2eb854d624)" style="fill: none; stroke: #7a7a7a; stroke-width: 3; stroke-linecap: square"/>
   </g>
   <g id="line2d_102">
    <path d="M 431.763878 571.92412 
L -1 901.554726 
" clip-path="url(#p2eb854d624)" style="fill: none; stroke: #7a7a7a; stroke-width: 3; stroke-linecap: square"/>
   </g>
   <g id="line2d_103">
    <path d="M 668.126985 445.207735 
L 460.655608 601.430476 
" clip-path="url(#p2eb854d624)" style="fill: none; stroke: #7a7a7a; stroke-width: 3; stroke-linecap: square"/>
   </g>
   <g id="line2d_104">
    <path d="M 629.038175 416.237859 
L 431.763878 571.92412 
" clip-path="url(#p2eb854d624)" style="fill: none; stroke: #7a7a7a; stroke-width: 3; stroke-linecap: square"/>
   </g>
   <g id="line2d_105">
    <path d="M 1326.546262 -1 
L 915.2101 310.980642 
L 914.033514 311.839008 
" clip-path="url(#p2eb854d624)" style="fill: none; stroke: #7a7a7a; stroke-width: 3; stroke-linecap: square"/>
   </g>
   <g id="line2d_106">
    <path d="M 1255.327852 -1 
L 844.222729 311.087937 
L 843.307606 311.839008 
" clip-path="url(#p2eb854d624)" style="fill: none; stroke: #7a7a7a; stroke-width: 3; stroke-linecap: square"/>
   </g>
   <g id="line2d_107">
    <path d="M 1255.327852 -1 
L 844.222729 311.087937 
L 843.307606 311.839008 
" clip-path="url(#p2eb854d624)" style="fill: none; stroke: #7a7a7a; stroke-width: 3; stroke-linecap: square"/>
   </g>
   <g id="line2d_108">
    <path d="M 1184.862427 -1 
L 773.235358 311.195233 
L 772.320235 311.839008 
" clip-path="url(#p2eb854d624)" style="fill: none; stroke: #7a7a7a; stroke-width: 3; stroke-linecap: square"/>
   </g>
   <g id="line2d_109">
    <path d="M 681.71722 571.528467 
L 678.445733 572.89586 
" clip-path="url(#p2eb854d624)" style="fill: none; stroke-dasharray: 32,8,5,8; stroke-dashoffset: 0; stroke: #1e90ff; stroke-width: 5"/>
   </g>
   <g id="line2d_110">
    <path d="M 1243.832073 1114.320719 
L 1243.90229 1118.112485 
" clip-path="url(#p2eb854d624)" style="fill: none; stroke-dasharray: 32,8,5,8; stroke-dashoffset: 0; stroke: #1e90ff; stroke-width: 5"/>
   </g>
   <g id="line2d_111">
    <path d="M 313.098847 289.848077 
L 313.568026 290.891958 
" clip-path="url(#p2eb854d624)" style="fill: none; stroke-dasharray: 32,8,5,8; stroke-dashoffset: 0; stroke: #1e90ff; stroke-width: 5"/>
   </g>
   <g id="line2d_112">
    <path d="M 1095.657655 1004.75768 
L 1078.936368 989.133509 
" clip-path="url(#p2eb854d624)" style="fill: none; stroke-dasharray: 32,8,5,8; stroke-dashoffset: 0; stroke: #1e90ff; stroke-width: 5"/>
   </g>
   <g id="line2d_113">
    <path d="M 269.340716 279.650257 
L 261.463614 275.528431 
" clip-path="url(#p2eb854d624)" style="fill: none; stroke-dasharray: 32,8,5,8; stroke-dashoffset: 0; stroke: #1e90ff; stroke-width: 5"/>
   </g>
   <g id="line2d_114">
    <path d="M 983.06744 933.257682 
L 983.118507 934.843806 
" clip-path="url(#p2eb854d624)" style="fill: none; stroke-dasharray: 32,8,5,8; stroke-dashoffset: 0; stroke: #1e90ff; stroke-width: 5"/>
   </g>
   <g id="line2d_115">
    <path d="M 1192.512817 57.116173 
L 1183.413296 53.647919 
" clip-path="url(#p2eb854d624)" style="fill: none; stroke-dasharray: 32,8,5,8; stroke-dashoffset: 0; stroke: #1e90ff; stroke-width: 5"/>
   </g>
   <g id="line2d_116">
    <path d="M 709.877541 582.881498 
L 712.156411 581.085812 
" clip-path="url(#p2eb854d624)" style="fill: none; stroke-dasharray: 32,8,5,8; stroke-dashoffset: 0; stroke: #1e90ff; stroke-width: 5"/>
   </g>
   <g id="line2d_117">
    <path d="M 681.71722 571.528467 
" clip-path="url(#p2eb854d624)" style="fill: none; stroke: #0000ff; stroke-width: 1.5; stroke-linecap: square"/>
    <defs>
     <path id="m7ca03cccaf" d="M 0 10 
C 2.652031 10 5.195799 8.946337 7.071068 7.071068 
C 8.946337 5.195799 10 2.652031 10 0 
C 10 -2.652031 8.946337 -5.195799 7.071068 -7.071068 
C 5.195799 -8.946337 2.652031 -10 0 -10 
C -2.652031 -10 -5.195799 -8.946337 -7.071068 -7.071068 
C -8.946337 -5.195799 -10 -2.652031 -10 0 
C -10 2.652031 -8.946337 5.195799 -7.071068 7.071068 
C -5.195799 8.946337 -2.652031 10 0 10 
z
" style="stroke: #0000ff"/>
    </defs>
    <g clip-path="url(#p2eb854d624)">
     <use xlink:href="#m7ca03cccaf" x="681.71722" y="571.528467" style="fill: #0000ff; stroke: #0000ff"/>
    </g>
   </g>
   <g id="line2d_118">
    <path d="M 1243.832073 1114.320719 
" clip-path="url(#p2eb854d624)" style="fill: none; stroke: #0000ff; stroke-width: 1.5; stroke-linecap: square"/>
    <g clip-path="url(#p2eb854d624)">
     <use xlink:href="#m7ca03cccaf" x="1243.832073" y="1114.320719" style="fill: #0000ff; stroke: #0000ff"/>
    </g>
   </g>
   <g id="line2d_119">
    <path d="M 313.098847 289.848077 
" clip-path="url(#p2eb854d624)" style="fill: none; stroke: #0000ff; stroke-width: 1.5; stroke-linecap: square"/>
    <g clip-path="url(#p2eb854d624)">
     <use xlink:href="#m7ca03cccaf" x="313.098847" y="289.848077" style="fill: #0000ff; stroke: #0000ff"/>
    </g>
   </g>
   <g id="line2d_120">
    <path d="M 1095.657655 1004.75768 
" clip-path="url(#p2eb854d624)" style="fill: none; stroke: #0000ff; stroke-width: 1.5; stroke-linecap: square"/>
    <g clip-path="url(#p2eb854d624)">
     <use xlink:href="#m7ca03cccaf" x="1095.657655" y="1004.75768" style="fill: #0000ff; stroke: #0000ff"/>
    </g>
   </g>
   <g id="line2d_121">
    <path d="M 269.340716 279.650257 
" clip-path="url(#p2eb854d624)" style="fill: none; stroke: #0000ff; stroke-width: 1.5; stroke-linecap: square"/>
    <g clip-path="url(#p2eb854d624)">
     <use xlink:href="#m7ca03cccaf" x="269.340716" y="279.650257" style="fill: #0000ff; stroke: #0000ff"/>
    </g>
   </g>
   <g id="line2d_122">
    <path d="M 983.06744 933.257682 
" clip-path="url(#p2eb854d624)" style="fill: none; stroke: #0000ff; stroke-width: 1.5; stroke-linecap: square"/>
    <g clip-path="url(#p2eb854d624)">
     <use xlink:href="#m7ca03cccaf" x="983.06744" y="933.257682" style="fill: #0000ff; stroke: #0000ff"/>
    </g>
   </g>
   <g id="line2d_123">
    <path d="M 1192.512817 57.116173 
" clip-path="url(#p2eb854d624)" style="fill: none; stroke: #0000ff; stroke-width: 1.5; stroke-linecap: square"/>
    <g clip-path="url(#p2eb854d624)">
     <use xlink:href="#m7ca03cccaf" x="1192.512817" y="57.116173" style="fill: #0000ff; stroke: #0000ff"/>
    </g>
   </g>
   <g id="line2d_124">
    <path d="M 709.877541 582.881498 
" clip-path="url(#p2eb854d624)" style="fill: none; stroke: #0000ff; stroke-width: 1.5; stroke-linecap: square"/>
    <g clip-path="url(#p2eb854d624)">
     <use xlink:href="#m7ca03cccaf" x="709.877541" y="582.881498" style="fill: #0000ff; stroke: #0000ff"/>
    </g>
   </g>
   <g id="line2d_125">
    <path d="M 678.445733 572.89586 
" clip-path="url(#p2eb854d624)" style="fill: none; stroke: #ff0000; stroke-width: 1.5; stroke-linecap: square"/>
    <defs>
     <path id="m5f8fd349ca" d="M 0 -10 
L -2.24514 -3.09017 
L -9.510565 -3.09017 
L -3.632713 1.18034 
L -5.877853 8.09017 
L -0 3.81966 
L 5.877853 8.09017 
L 3.632713 1.18034 
L 9.510565 -3.09017 
L 2.24514 -3.09017 
z
" style="stroke: #ff0000; stroke-linejoin: bevel"/>
    </defs>
    <g clip-path="url(#p2eb854d624)">
     <use xlink:href="#m5f8fd349ca" x="678.445733" y="572.89586" style="fill: #ff0000; stroke: #ff0000; stroke-linejoin: bevel"/>
    </g>
   </g>
   <g id="line2d_126">
    <path d="M 1243.90229 1118.112485 
" clip-path="url(#p2eb854d624)" style="fill: none; stroke: #ff0000; stroke-width: 1.5; stroke-linecap: square"/>
    <g clip-path="url(#p2eb854d624)">
     <use xlink:href="#m5f8fd349ca" x="1243.90229" y="1118.112485" style="fill: #ff0000; stroke: #ff0000; stroke-linejoin: bevel"/>
    </g>
   </g>
   <g id="line2d_127">
    <path d="M 313.568026 290.891958 
" clip-path="url(#p2eb854d624)" style="fill: none; stroke: #ff0000; stroke-width: 1.5; stroke-linecap: square"/>
    <g clip-path="url(#p2eb854d624)">
     <use xlink:href="#m5f8fd349ca" x="313.568026" y="290.891958" style="fill: #ff0000; stroke: #ff0000; stroke-linejoin: bevel"/>
    </g>
   </g>
   <g id="line2d_128">
    <path d="M 1078.936368 989.133509 
" clip-path="url(#p2eb854d624)" style="fill: none; stroke: #ff0000; stroke-width: 1.5; stroke-linecap: square"/>
    <g clip-path="url(#p2eb854d624)">
     <use xlink:href="#m5f8fd349ca" x="1078.936368" y="989.133509" style="fill: #ff0000; stroke: #ff0000; stroke-linejoin: bevel"/>
    </g>
   </g>
   <g id="line2d_129">
    <path d="M 261.463614 275.528431 
" clip-path="url(#p2eb854d624)" style="fill: none; stroke: #ff0000; stroke-width: 1.5; stroke-linecap: square"/>
    <g clip-path="url(#p2eb854d624)">
     <use xlink:href="#m5f8fd349ca" x="261.463614" y="275.528431" style="fill: #ff0000; stroke: #ff0000; stroke-linejoin: bevel"/>
    </g>
   </g>
   <g id="line2d_130">
    <path d="M 983.118507 934.843806 
" clip-path="url(#p2eb854d624)" style="fill: none; stroke: #ff0000; stroke-width: 1.5; stroke-linecap: square"/>
    <g clip-path="url(#p2eb854d624)">
     <use xlink:href="#m5f8fd349ca" x="983.118507" y="934.843806" style="fill: #ff0000; stroke: #ff0000; stroke-linejoin: bevel"/>
    </g>
   </g>
   <g id="line2d_131">
    <path d="M 1183.413296 53.647919 
" clip-path="url(#p2eb854d624)" style="fill: none; stroke: #ff0000; stroke-width: 1.5; stroke-linecap: square"/>
    <g clip-path="url(#p2eb854d624)">
     <use xlink:href="#m5f8fd349ca" x="1183.413296" y="53.647919" style="fill: #ff0000; stroke: #ff0000; stroke-linejoin: bevel"/>
    </g>
   </g>
   <g id="line2d_132">
    <path d="M 712.156411 581.085812 
" clip-path="url(#p2eb854d624)" style="fill: none; stroke: #ff0000; stroke-width: 1.5; stroke-linecap: square"/>
    <g clip-path="url(#p2eb854d624)">
     <use xlink:href="#m5f8fd349ca" x="712.156411" y="581.085812" style="fill: #ff0000; stroke: #ff0000; stroke-linejoin: bevel"/>
    </g>
   </g>
  </g>
 </g>
 <defs>
  <clipPath id="p2eb854d624">
   <rect x="0" y="0" width="1440" height="1440"/>
  </clipPath>
 </defs>
</svg>
