<?xml version="1.0" encoding="utf-8" standalone="no"?>
<!DOCTYPE svg PUBLIC "-//W3C//DTD SVG 1.1//EN"
  "http://www.w3.org/Graphics/SVG/1.1/DTD/svg11.dtd">
<svg xmlns:xlink="http://www.w3.org/1999/xlink" width="1440pt" height="1440pt" viewBox="0 0 1440 1440" xmlns="http://www.w3.org/2000/svg" version="1.1">
 <metadata>
  <rdf:RDF xmlns:dc="http://purl.org/dc/elements/1.1/" xmlns:cc="http://creativecommons.org/ns#" xmlns:rdf="http://www.w3.org/1999/02/22-rdf-syntax-ns#">
   <cc:Work>
    <dc:type rdf:resource="http://purl.org/dc/dcmitype/StillImage"/>
    <dc:date>2026-02-27T11:11:50.334753</dc:date>
    <dc:format>image/svg+xml</dc:format>
    <dc:creator>
     <cc:Agent>
      <dc:title>Matplotlib v3.7.3, https://matplotlib.org/</dc:title>
     </cc:Agent>
    </dc:creator>
   </cc:Work>
  </rdf:RDF>
 </metadata>
 <defs>
  <style type="text/css">*{stroke-linejoin: round; stroke-linecap: butt}</style>
 </defs>
 <g id="figure_1">
  <g id="patch_1">
   <path d="M 0 1440 
L 1440 1440 
L 1440 0 
L 0 0 
z
" style="fill: #ffffff"/>
  </g>
  <g id="axes_1">
   <g id="line2d_1">
    <path d="M 994.831025 287.0677 
L 994.652903 287.259383 
L 994.059163 287.738589 
L 891.995204 381.567201 
L 871.095545 400.927139 
L 737.444601 524.179023 
L 639.714945 615.324079 
L 639.418075 615.611603 
L 638.586839 616.378333 
" clip-path="url(#p20a8a99c83)" style="fill: none; stroke: #7a7a7a; stroke-width: 3; stroke-linecap: square"/>
   </g>
   <g id="line2d_2">
    <path d="M 994.831025 247.676935 
L 994.652903 247.868617 
L 994.059163 248.347824 
L 639.714945 576.220837 
L 639.358701 576.508361 
L 638.586839 577.275091 
" clip-path="url(#p20a8a99c83)" style="fill: none; stroke: #7a7a7a; stroke-width: 3; stroke-linecap: square"/>
   </g>
   <g id="line2d_3">
    <path d="M 994.831025 247.676935 
L 994.652903 247.868617 
L 994.059163 248.347824 
L 639.714945 576.220837 
L 639.358701 576.508361 
L 638.586839 577.275091 
" clip-path="url(#p20a8a99c83)" style="fill: none; stroke: #7a7a7a; stroke-width: 3; stroke-linecap: square"/>
   </g>
   <g id="line2d_4">
    <path d="M 994.831025 211.928138 
L 994.652903 212.023979 
L 994.059163 212.599027 
L 937.713208 263.77827 
L 895.795142 303.5524 
L 738.691455 447.601842 
L 639.714945 540.088675 
L 639.358701 540.376199 
L 638.586839 541.142929 
" clip-path="url(#p20a8a99c83)" style="fill: none; stroke: #7a7a7a; stroke-width: 3; stroke-linecap: square"/>
   </g>
   <g id="line2d_5">
    <path d="M 638.586839 630.275318 
L 639.418075 629.508588 
L 639.774319 629.221064 
L 798.837349 481.721337 
L 898.110729 388.371932 
L 993.999789 301.635575 
L 994.593529 301.156368 
L 994.831025 300.964686 
" clip-path="url(#p20a8a99c83)" style="fill: none; stroke: #7a7a7a; stroke-width: 3; stroke-linecap: square"/>
   </g>
   <g id="line2d_6">
    <path d="M 638.586839 668.324306 
L 639.477449 667.461735 
L 639.774319 667.174211 
L 795.156159 526.287531 
L 994.059163 344.668309 
L 994.593529 344.189102 
L 994.831025 343.901578 
" clip-path="url(#p20a8a99c83)" style="fill: none; stroke: #7a7a7a; stroke-width: 3; stroke-linecap: square"/>
   </g>
   <g id="line2d_7">
    <path d="M 853.283335 589.542775 
L 953.150456 529.737817 
" clip-path="url(#p20a8a99c83)" style="fill: none; stroke: #7a7a7a; stroke-width: 3; stroke-linecap: square"/>
   </g>
   <g id="line2d_8">
    <path d="M 863.317547 625.86662 
L 916.10106 592.034648 
L 929.816461 582.354679 
L 959.740973 564.144836 
" clip-path="url(#p20a8a99c83)" style="fill: none; stroke: #7a7a7a; stroke-width: 3; stroke-linecap: square"/>
   </g>
   <g id="line2d_9">
    <path d="M 638.586839 668.324306 
L 639.477449 667.461735 
L 639.774319 667.174211 
L 795.156159 526.287531 
L 994.059163 344.668309 
L 994.593529 344.189102 
L 994.831025 343.901578 
" clip-path="url(#p20a8a99c83)" style="fill: none; stroke: #7a7a7a; stroke-width: 3; stroke-linecap: square"/>
   </g>
   <g id="line2d_10">
    <path d="M 638.586839 708.38596 
L 638.824335 708.194278 
L 639.536823 707.523389 
L 639.893067 707.140024 
L 863.376921 501.560481 
L 994.118537 380.704629 
L 994.593529 380.225423 
L 994.831025 380.03374 
" clip-path="url(#p20a8a99c83)" style="fill: none; stroke: #7a7a7a; stroke-width: 3; stroke-linecap: square"/>
   </g>
   <g id="line2d_11">
    <path d="M 638.586839 725.541549 
L 638.824335 725.349867 
L 639.536823 724.87066 
L 639.952442 724.678978 
L 853.283335 589.542775 
" clip-path="url(#p20a8a99c83)" style="fill: none; stroke: #7a7a7a; stroke-width: 3; stroke-linecap: square"/>
   </g>
   <g id="line2d_12">
    <path d="M 638.586839 770.299426 
L 638.943083 770.107744 
L 639.655571 769.628537 
L 640.011816 769.341014 
L 694.27968 732.537963 
L 762.441068 690.271959 
L 863.317547 625.86662 
" clip-path="url(#p20a8a99c83)" style="fill: none; stroke: #7a7a7a; stroke-width: 3; stroke-linecap: square"/>
   </g>
   <g id="line2d_13">
    <path d="M 1293.662645 -1 
L 1273.888972 9.798882 
L 1252.811191 22.066565 
L 1223.183549 43.343329 
L 1158.228359 96.343556 
L 995.365392 247.197728 
L 995.127896 247.389411 
L 994.831025 247.676935 
" clip-path="url(#p20a8a99c83)" style="fill: none; stroke: #7a7a7a; stroke-width: 3; stroke-linecap: square"/>
   </g>
   <g id="line2d_14">
    <path d="M 1229.521114 -1 
L 1202.521386 20.245581 
L 1145.58169 71.520665 
L 1125.453894 91.35981 
L 1050.464493 161.803149 
L 995.365392 211.448931 
L 995.127896 211.640614 
L 994.831025 211.928138 
" clip-path="url(#p20a8a99c83)" style="fill: none; stroke: #7a7a7a; stroke-width: 3; stroke-linecap: square"/>
   </g>
   <g id="line2d_15">
    <path d="M 994.831025 343.901578 
L 995.18727 343.614055 
L 995.365392 343.422372 
L 1020.836851 318.216116 
L 1154.903413 194.197501 
L 1229.714693 130.079686 
L 1291.226189 87.334476 
L 1364.553117 48.231234 
L 1421.017821 28.104566 
L 1441 21.780029 
" clip-path="url(#p20a8a99c83)" style="fill: none; stroke: #7a7a7a; stroke-width: 3; stroke-linecap: square"/>
   </g>
   <g id="line2d_16">
    <path d="M 994.831025 380.03374 
L 995.246644 379.650375 
L 995.424766 379.458693 
L 1062.636169 319.366211 
L 1123.672673 262.724015 
L 1218.849245 178.479532 
L 1257.204869 148.481212 
L 1287.129381 127.108606 
L 1318.953861 107.652827 
L 1346.503412 92.509905 
L 1373.815466 79.37965 
L 1434.733222 57.431997 
L 1441 55.596033 
" clip-path="url(#p20a8a99c83)" style="fill: none; stroke: #7a7a7a; stroke-width: 3; stroke-linecap: square"/>
   </g>
   <g id="line2d_17">
    <path d="M 994.831025 300.964686 
L 995.127896 300.677162 
L 995.365392 300.485479 
L 1153.062818 156.723561 
L 1200.680791 115.607653 
L 1234.167745 90.784762 
L 1275.313948 62.319902 
L 1339.437902 25.996058 
L 1380.227861 6.540278 
L 1401.832303 -1 
" clip-path="url(#p20a8a99c83)" style="fill: none; stroke: #7a7a7a; stroke-width: 3; stroke-linecap: square"/>
   </g>
   <g id="line2d_18">
    <path d="M 994.831025 343.901578 
L 995.18727 343.614055 
L 995.365392 343.422372 
L 1020.836851 318.216116 
L 1154.903413 194.197501 
L 1229.714693 130.079686 
L 1291.226189 87.334476 
L 1364.553117 48.231234 
L 1421.017821 28.104566 
L 1441 21.780029 
" clip-path="url(#p20a8a99c83)" style="fill: none; stroke: #7a7a7a; stroke-width: 3; stroke-linecap: square"/>
   </g>
   <g id="line2d_19">
    <path d="M 1378.090886 -1 
L 1366.51246 4.048405 
L 1337.062941 19.287168 
L 1309.988383 34.046725 
L 1282.201336 49.860536 
L 1254.473663 67.39949 
L 1232.208402 81.871523 
L 1207.865049 100.464731 
L 1189.696596 115.128447 
L 1157.812741 141.868163 
L 1106.39483 188.351183 
L 995.365392 286.588494 
L 995.18727 286.780176 
L 994.831025 287.0677 
" clip-path="url(#p20a8a99c83)" style="fill: none; stroke: #7a7a7a; stroke-width: 3; stroke-linecap: square"/>
   </g>
   <g id="line2d_20">
    <path d="M 1293.662645 -1 
L 1273.888972 9.798882 
L 1252.811191 22.066565 
L 1223.183549 43.343329 
L 1158.228359 96.343556 
L 995.365392 247.197728 
L 995.127896 247.389411 
L 994.831025 247.676935 
" clip-path="url(#p20a8a99c83)" style="fill: none; stroke: #7a7a7a; stroke-width: 3; stroke-linecap: square"/>
   </g>
   <g id="line2d_21">
    <path d="M 113.779778 1149.92673 
L 528.863629 770.491109 
" clip-path="url(#p20a8a99c83)" style="fill: none; stroke: #7a7a7a; stroke-width: 3; stroke-linecap: square"/>
   </g>
   <g id="line2d_22">
    <path d="M 115.917243 1186.442257 
L 420.862267 906.777407 
L 538.066604 800.393588 
" clip-path="url(#p20a8a99c83)" style="fill: none; stroke: #7a7a7a; stroke-width: 3; stroke-linecap: square"/>
   </g>
   <g id="line2d_23">
    <path d="M 638.586839 577.275091 
L 638.289969 577.562615 
L 371.878691 822.532923 
" clip-path="url(#p20a8a99c83)" style="fill: none; stroke: #7a7a7a; stroke-width: 3; stroke-linecap: square"/>
   </g>
   <g id="line2d_24">
    <path d="M 638.586839 541.142929 
L 638.289969 541.334612 
L 361.963228 795.122317 
" clip-path="url(#p20a8a99c83)" style="fill: none; stroke: #7a7a7a; stroke-width: 3; stroke-linecap: square"/>
   </g>
   <g id="line2d_25">
    <path d="M 538.422848 800.489429 
L 582.953372 765.603204 
L 638.289969 725.829073 
L 638.586839 725.541549 
" clip-path="url(#p20a8a99c83)" style="fill: none; stroke: #7a7a7a; stroke-width: 3; stroke-linecap: square"/>
   </g>
   <g id="line2d_26">
    <path d="M 548.338312 838.82594 
L 582.300257 810.936128 
L 638.289969 770.58695 
L 638.586839 770.299426 
" clip-path="url(#p20a8a99c83)" style="fill: none; stroke: #7a7a7a; stroke-width: 3; stroke-linecap: square"/>
   </g>
   <g id="line2d_27">
    <path d="M 520.491891 740.780313 
L 638.289969 630.562842 
L 638.586839 630.275318 
" clip-path="url(#p20a8a99c83)" style="fill: none; stroke: #7a7a7a; stroke-width: 3; stroke-linecap: square"/>
   </g>
   <g id="line2d_28">
    <path d="M 528.863629 770.491109 
L 638.289969 668.61183 
L 638.586839 668.324306 
" clip-path="url(#p20a8a99c83)" style="fill: none; stroke: #7a7a7a; stroke-width: 3; stroke-linecap: square"/>
   </g>
   <g id="line2d_29">
    <path d="M 112.473549 1112.548632 
L 160.922759 1069.70758 
L 193.103483 1039.70926 
L 340.588577 906.681566 
L 370.988081 879.366801 
L 407.740606 844.576417 
L 465.39279 791.096984 
L 520.491891 740.780313 
" clip-path="url(#p20a8a99c83)" style="fill: none; stroke: #7a7a7a; stroke-width: 3; stroke-linecap: square"/>
   </g>
   <g id="line2d_30">
    <path d="M 113.779778 1149.92673 
L 528.863629 770.491109 
" clip-path="url(#p20a8a99c83)" style="fill: none; stroke: #7a7a7a; stroke-width: 3; stroke-linecap: square"/>
   </g>
   <g id="line2d_31">
    <path d="M 528.863629 770.491109 
L 638.289969 668.61183 
L 638.586839 668.324306 
" clip-path="url(#p20a8a99c83)" style="fill: none; stroke: #7a7a7a; stroke-width: 3; stroke-linecap: square"/>
   </g>
   <g id="line2d_32">
    <path d="M 538.066604 800.393588 
L 638.289969 708.673484 
L 638.586839 708.38596 
" clip-path="url(#p20a8a99c83)" style="fill: none; stroke: #7a7a7a; stroke-width: 3; stroke-linecap: square"/>
   </g>
   <g id="line2d_33">
    <path d="M 638.586839 616.378333 
L 638.289969 616.665857 
L 381.912902 850.997783 
" clip-path="url(#p20a8a99c83)" style="fill: none; stroke: #7a7a7a; stroke-width: 3; stroke-linecap: square"/>
   </g>
   <g id="line2d_34">
    <path d="M 638.586839 577.275091 
L 638.289969 577.562615 
L 371.878691 822.532923 
" clip-path="url(#p20a8a99c83)" style="fill: none; stroke: #7a7a7a; stroke-width: 3; stroke-linecap: square"/>
   </g>
   <g id="line2d_35">
    <path d="M 113.779778 1149.92673 
L 538.422848 800.489429 
" clip-path="url(#p20a8a99c83)" style="fill: none; stroke: #7a7a7a; stroke-width: 3; stroke-linecap: square"/>
   </g>
   <g id="line2d_36">
    <path d="M 115.917243 1186.442257 
L 189.897286 1132.100253 
L 418.427931 943.867982 
L 422.168495 940.801061 
L 548.338312 838.82594 
" clip-path="url(#p20a8a99c83)" style="fill: none; stroke: #7a7a7a; stroke-width: 3; stroke-linecap: square"/>
   </g>
   <g id="line2d_37">
    <path clip-path="url(#p20a8a99c83)" style="fill: none; stroke: #7a7a7a; stroke-width: 3; stroke-linecap: square"/>
   </g>
   <g id="line2d_38">
    <path clip-path="url(#p20a8a99c83)" style="fill: none; stroke: #7a7a7a; stroke-width: 3; stroke-linecap: square"/>
   </g>
   <g id="line2d_39">
    <path clip-path="url(#p20a8a99c83)" style="fill: none; stroke: #7a7a7a; stroke-width: 3; stroke-linecap: square"/>
   </g>
   <g id="line2d_40">
    <path clip-path="url(#p20a8a99c83)" style="fill: none; stroke: #7a7a7a; stroke-width: 3; stroke-linecap: square"/>
   </g>
   <g id="line2d_41">
    <path clip-path="url(#p20a8a99c83)" style="fill: none; stroke: #7a7a7a; stroke-width: 3; stroke-linecap: square"/>
   </g>
   <g id="line2d_42">
    <path clip-path="url(#p20a8a99c83)" style="fill: none; stroke: #7a7a7a; stroke-width: 3; stroke-linecap: square"/>
   </g>
   <g id="line2d_43">
    <path clip-path="url(#p20a8a99c83)" style="fill: none; stroke: #7a7a7a; stroke-width: 3; stroke-linecap: square"/>
   </g>
   <g id="line2d_44">
    <path clip-path="url(#p20a8a99c83)" style="fill: none; stroke: #7a7a7a; stroke-width: 3; stroke-linecap: square"/>
   </g>
   <g id="line2d_45">
    <path clip-path="url(#p20a8a99c83)" style="fill: none; stroke: #7a7a7a; stroke-width: 3; stroke-linecap: square"/>
   </g>
   <g id="line2d_46">
    <path clip-path="url(#p20a8a99c83)" style="fill: none; stroke: #7a7a7a; stroke-width: 3; stroke-linecap: square"/>
   </g>
   <g id="line2d_47">
    <path clip-path="url(#p20a8a99c83)" style="fill: none; stroke: #7a7a7a; stroke-width: 3; stroke-linecap: square"/>
   </g>
   <g id="line2d_48">
    <path clip-path="url(#p20a8a99c83)" style="fill: none; stroke: #7a7a7a; stroke-width: 3; stroke-linecap: square"/>
   </g>
   <g id="line2d_49">
    <path d="M 1013.101296 321.455532 
L 1077.186402 304.902087 
" clip-path="url(#p20a8a99c83)" style="fill: none; stroke-dasharray: 32,8,5,8; stroke-dashoffset: 0; stroke: #1e90ff; stroke-width: 5"/>
   </g>
   <g id="line2d_50">
    <path d="M 523.607636 711.998213 
L 118.748062 1149.708092 
" clip-path="url(#p20a8a99c83)" style="fill: none; stroke-dasharray: 32,8,5,8; stroke-dashoffset: 0; stroke: #1e90ff; stroke-width: 5"/>
   </g>
   <g id="line2d_51">
    <path d="M 254.56036 1038.746542 
L 792.393991 658.881881 
" clip-path="url(#p20a8a99c83)" style="fill: none; stroke-dasharray: 32,8,5,8; stroke-dashoffset: 0; stroke: #1e90ff; stroke-width: 5"/>
   </g>
   <g id="line2d_52">
    <path d="M 818.477397 466.366329 
L 1138.076674 108.360779 
" clip-path="url(#p20a8a99c83)" style="fill: none; stroke-dasharray: 32,8,5,8; stroke-dashoffset: 0; stroke: #1e90ff; stroke-width: 5"/>
   </g>
   <g id="line2d_53">
    <path d="M 1013.101296 321.455532 
" clip-path="url(#p20a8a99c83)" style="fill: none; stroke: #0000ff; stroke-width: 1.5; stroke-linecap: square"/>
    <defs>
     <path id="ma1d71a1f2f" d="M 0 10 
C 2.652031 10 5.195799 8.946337 7.071068 7.071068 
C 8.946337 5.195799 10 2.652031 10 0 
C 10 -2.652031 8.946337 -5.195799 7.071068 -7.071068 
C 5.195799 -8.946337 2.652031 -10 0 -10 
C -2.652031 -10 -5.195799 -8.946337 -7.071068 -7.071068 
C -8.946337 -5.195799 -10 -2.652031 -10 0 
C -10 2.652031 -8.946337 5.195799 -7.071068 7.071068 
C -5.195799 8.946337 -2.652031 10 0 10 
z
" style="stroke: #0000ff"/>
    </defs>
    <g clip-path="url(#p20a8a99c83)">
     <use xlink:href="#ma1d71a1f2f" x="1013.101296" y="321.455532" style="fill: #0000ff; stroke: #0000ff"/>
    </g>
   </g>
   <g id="line2d_54">
    <path d="M 523.607636 711.998213 
" clip-path="url(#p20a8a99c83)" style="fill: none; stroke: #0000ff; stroke-width: 1.5; stroke-linecap: square"/>
    <g clip-path="url(#p20a8a99c83)">
     <use xlink:href="#ma1d71a1f2f" x="523.607636" y="711.998213" style="fill: #0000ff; stroke: #0000ff"/>
    </g>
   </g>
   <g id="line2d_55">
    <path d="M 254.56036 1038.746542 
" clip-path="url(#p20a8a99c83)" style="fill: none; stroke: #0000ff; stroke-width: 1.5; stroke-linecap: square"/>
    <g clip-path="url(#p20a8a99c83)">
     <use xlink:href="#ma1d71a1f2f" x="254.56036" y="1038.746542" style="fill: #0000ff; stroke: #0000ff"/>
    </g>
   </g>
   <g id="line2d_56">
    <path d="M 818.477397 466.366329 
" clip-path="url(#p20a8a99c83)" style="fill: none; stroke: #0000ff; stroke-width: 1.5; stroke-linecap: square"/>
    <g clip-path="url(#p20a8a99c83)">
     <use xlink:href="#ma1d71a1f2f" x="818.477397" y="466.366329" style="fill: #0000ff; stroke: #0000ff"/>
    </g>
   </g>
   <g id="line2d_57">
    <path d="M 1077.186402 304.902087 
" clip-path="url(#p20a8a99c83)" style="fill: none; stroke: #ff0000; stroke-width: 1.5; stroke-linecap: square"/>
    <defs>
     <path id="m5b08cae124" d="M 0 -10 
L -2.24514 -3.09017 
L -9.510565 -3.09017 
L -3.632713 1.18034 
L -5.877853 8.09017 
L -0 3.81966 
L 5.877853 8.09017 
L 3.632713 1.18034 
L 9.510565 -3.09017 
L 2.24514 -3.09017 
z
" style="stroke: #ff0000; stroke-linejoin: bevel"/>
    </defs>
    <g clip-path="url(#p20a8a99c83)">
     <use xlink:href="#m5b08cae124" x="1077.186402" y="304.902087" style="fill: #ff0000; stroke: #ff0000; stroke-linejoin: bevel"/>
    </g>
   </g>
   <g id="line2d_58">
    <path d="M 118.748062 1149.708092 
" clip-path="url(#p20a8a99c83)" style="fill: none; stroke: #ff0000; stroke-width: 1.5; stroke-linecap: square"/>
    <g clip-path="url(#p20a8a99c83)">
     <use xlink:href="#m5b08cae124" x="118.748062" y="1149.708092" style="fill: #ff0000; stroke: #ff0000; stroke-linejoin: bevel"/>
    </g>
   </g>
   <g id="line2d_59">
    <path d="M 792.393991 658.881881 
" clip-path="url(#p20a8a99c83)" style="fill: none; stroke: #ff0000; stroke-width: 1.5; stroke-linecap: square"/>
    <g clip-path="url(#p20a8a99c83)">
     <use xlink:href="#m5b08cae124" x="792.393991" y="658.881881" style="fill: #ff0000; stroke: #ff0000; stroke-linejoin: bevel"/>
    </g>
   </g>
   <g id="line2d_60">
    <path d="M 1138.076674 108.360779 
" clip-path="url(#p20a8a99c83)" style="fill: none; stroke: #ff0000; stroke-width: 1.5; stroke-linecap: square"/>
    <g clip-path="url(#p20a8a99c83)">
     <use xlink:href="#m5b08cae124" x="1138.076674" y="108.360779" style="fill: #ff0000; stroke: #ff0000; stroke-linejoin: bevel"/>
    </g>
   </g>
  </g>
 </g>
 <defs>
  <clipPath id="p20a8a99c83">
   <rect x="0" y="0" width="1440" height="1440"/>
  </clipPath>
 </defs>
</svg>
