<?xml version="1.0" encoding="utf-8" standalone="no"?>
<!DOCTYPE svg PUBLIC "-//W3C//DTD SVG 1.1//EN"
  "http://www.w3.org/Graphics/SVG/1.1/DTD/svg11.dtd">
<svg xmlns:xlink="http://www.w3.org/1999/xlink" width="1440pt" height="1440pt" viewBox="0 0 1440 1440" xmlns="http://www.w3.org/2000/svg" version="1.1">
 <metadata>
  <rdf:RDF xmlns:dc="http://purl.org/dc/elements/1.1/" xmlns:cc="http://creativecommons.org/ns#" xmlns:rdf="http://www.w3.org/1999/02/22-rdf-syntax-ns#">
   <cc:Work>
    <dc:type rdf:resource="http://purl.org/dc/dcmitype/StillImage"/>
    <dc:date>2026-02-27T11:10:30.660613</dc:date>
    <dc:format>image/svg+xml</dc:format>
    <dc:creator>
     <cc:Agent>
      <dc:title>Matplotlib v3.7.3, https://matplotlib.org/</dc:title>
     </cc:Agent>
    </dc:creator>
   </cc:Work>
  </rdf:RDF>
 </metadata>
 <defs>
  <style type="text/css">*{stroke-linejoin: round; stroke-linecap: butt}</style>
 </defs>
 <g id="figure_1">
  <g id="patch_1">
   <path d="M 0 1440 
L 1440 1440 
L 1440 0 
L 0 0 
z
" style="fill: #ffffff"/>
  </g>
  <g id="axes_1">
   <g id="line2d_1">
    <path d="M 1363.1563 865.315396 
L 1321.619161 842.072932 
" clip-path="url(#p2c9f6b2425)" style="fill: none; stroke: #7a7a7a; stroke-width: 3; stroke-linecap: square"/>
   </g>
   <g id="line2d_2">
    <path d="M 1370.054164 826.319707 
L 1328.816933 804.368491 
" clip-path="url(#p2c9f6b2425)" style="fill: none; stroke: #7a7a7a; stroke-width: 3; stroke-linecap: square"/>
   </g>
   <g id="line2d_3">
    <path d="M 1218.076221 878.61525 
L 1218.376128 878.744375 
L 1219.575756 879.389999 
L 1305.499152 926.133176 
" clip-path="url(#p2c9f6b2425)" style="fill: none; stroke: #7a7a7a; stroke-width: 3; stroke-linecap: square"/>
   </g>
   <g id="line2d_4">
    <path d="M 1218.076221 923.29243 
L 1218.376128 923.55068 
L 1219.575756 924.196304 
L 1297.701567 966.678362 
" clip-path="url(#p2c9f6b2425)" style="fill: none; stroke: #7a7a7a; stroke-width: 3; stroke-linecap: square"/>
   </g>
   <g id="line2d_5">
    <path d="M 1218.076221 923.29243 
L 1218.376128 923.55068 
L 1219.575756 924.196304 
L 1297.701567 966.678362 
" clip-path="url(#p2c9f6b2425)" style="fill: none; stroke: #7a7a7a; stroke-width: 3; stroke-linecap: square"/>
   </g>
   <g id="line2d_6">
    <path d="M 1218.076221 966.290988 
L 1218.376128 966.420113 
L 1219.650733 967.065737 
L 1290.428818 1004.382803 
" clip-path="url(#p2c9f6b2425)" style="fill: none; stroke: #7a7a7a; stroke-width: 3; stroke-linecap: square"/>
   </g>
   <g id="line2d_7">
    <path d="M 1218.076221 832.775947 
L 1218.376128 832.905072 
L 1219.50078 833.550696 
L 1313.521668 884.296741 
" clip-path="url(#p2c9f6b2425)" style="fill: none; stroke: #7a7a7a; stroke-width: 3; stroke-linecap: square"/>
   </g>
   <g id="line2d_8">
    <path d="M 1218.076221 878.61525 
L 1218.376128 878.744375 
L 1219.575756 879.389999 
L 1305.499152 926.133176 
" clip-path="url(#p2c9f6b2425)" style="fill: none; stroke: #7a7a7a; stroke-width: 3; stroke-linecap: square"/>
   </g>
   <g id="line2d_9">
    <path d="M 1357.008204 907.797454 
L 1313.521668 884.296741 
" clip-path="url(#p2c9f6b2425)" style="fill: none; stroke: #7a7a7a; stroke-width: 3; stroke-linecap: square"/>
   </g>
   <g id="line2d_10">
    <path d="M 1363.1563 865.315396 
L 1321.619161 842.072932 
" clip-path="url(#p2c9f6b2425)" style="fill: none; stroke: #7a7a7a; stroke-width: 3; stroke-linecap: square"/>
   </g>
   <g id="line2d_11">
    <path d="M 1218.076221 966.290988 
L 1218.376128 966.420113 
L 1219.650733 967.065737 
L 1290.428818 1004.382803 
" clip-path="url(#p2c9f6b2425)" style="fill: none; stroke: #7a7a7a; stroke-width: 3; stroke-linecap: square"/>
   </g>
   <g id="line2d_12">
    <path d="M 1218.076221 1012.130291 
L 1218.376128 1012.388541 
L 1219.650733 1013.034165 
L 1282.631233 1045.18624 
" clip-path="url(#p2c9f6b2425)" style="fill: none; stroke: #7a7a7a; stroke-width: 3; stroke-linecap: square"/>
   </g>
   <g id="line2d_13">
    <path d="M 1441 948.557797 
L 1357.008204 907.797454 
" clip-path="url(#p2c9f6b2425)" style="fill: none; stroke: #7a7a7a; stroke-width: 3; stroke-linecap: square"/>
   </g>
   <g id="line2d_14">
    <path d="M 1441 905.743525 
L 1363.1563 865.315396 
" clip-path="url(#p2c9f6b2425)" style="fill: none; stroke: #7a7a7a; stroke-width: 3; stroke-linecap: square"/>
   </g>
   <g id="line2d_15">
    <path d="M 1341.338056 990.437325 
L 1441 1034.994527 
" clip-path="url(#p2c9f6b2425)" style="fill: none; stroke: #7a7a7a; stroke-width: 3; stroke-linecap: square"/>
   </g>
   <g id="line2d_16">
    <path d="M 1334.215261 1027.367017 
L 1441 1074.347157 
" clip-path="url(#p2c9f6b2425)" style="fill: none; stroke: #7a7a7a; stroke-width: 3; stroke-linecap: square"/>
   </g>
   <g id="line2d_17">
    <path d="M 1348.685781 949.633889 
L 1441 991.319026 
" clip-path="url(#p2c9f6b2425)" style="fill: none; stroke: #7a7a7a; stroke-width: 3; stroke-linecap: square"/>
   </g>
   <g id="line2d_18">
    <path d="M 1341.338056 990.437325 
L 1441 1034.994527 
" clip-path="url(#p2c9f6b2425)" style="fill: none; stroke: #7a7a7a; stroke-width: 3; stroke-linecap: square"/>
   </g>
   <g id="line2d_19">
    <path d="M 1218.076221 1018.715656 
L 1218.376128 1018.973906 
L 1219.650733 1020.006904 
L 1239.519581 1036.018379 
L 1272.059506 1067.653954 
" clip-path="url(#p2c9f6b2425)" style="fill: none; stroke: #7a7a7a; stroke-width: 3; stroke-linecap: square"/>
   </g>
   <g id="line2d_20">
    <path d="M 1218.076221 1083.665429 
L 1218.376128 1084.052804 
L 1219.650733 1085.344052 
L 1241.319024 1107.424392 
L 1257.588987 1125.889238 
" clip-path="url(#p2c9f6b2425)" style="fill: none; stroke: #7a7a7a; stroke-width: 3; stroke-linecap: square"/>
   </g>
   <g id="line2d_21">
    <path d="M 1334.215261 1027.367017 
L 1441 1074.347157 
" clip-path="url(#p2c9f6b2425)" style="fill: none; stroke: #7a7a7a; stroke-width: 3; stroke-linecap: square"/>
   </g>
   <g id="line2d_22">
    <path d="M 1326.642606 1069.590826 
L 1441 1119.698981 
" clip-path="url(#p2c9f6b2425)" style="fill: none; stroke: #7a7a7a; stroke-width: 3; stroke-linecap: square"/>
   </g>
   <g id="line2d_23">
    <path d="M 1063.773997 705.84627 
L 1039.031658 692.417291 
" clip-path="url(#p2c9f6b2425)" style="fill: none; stroke: #7a7a7a; stroke-width: 3; stroke-linecap: square"/>
   </g>
   <g id="line2d_24">
    <path d="M 1072.621257 668.529204 
L 1046.90422 655.487599 
" clip-path="url(#p2c9f6b2425)" style="fill: none; stroke: #7a7a7a; stroke-width: 3; stroke-linecap: square"/>
   </g>
   <g id="line2d_25">
    <path d="M 1441 905.743525 
L 1363.1563 865.315396 
" clip-path="url(#p2c9f6b2425)" style="fill: none; stroke: #7a7a7a; stroke-width: 3; stroke-linecap: square"/>
   </g>
   <g id="line2d_26">
    <path d="M 1441 864.203839 
L 1425.462009 855.889286 
L 1422.38796 855.372786 
L 1416.989632 853.565039 
L 1406.492882 848.012673 
L 1392.622177 839.103062 
L 1382.875195 834.067195 
L 1370.054164 826.319707 
" clip-path="url(#p2c9f6b2425)" style="fill: none; stroke: #7a7a7a; stroke-width: 3; stroke-linecap: square"/>
   </g>
   <g id="line2d_27">
    <path d="M 1029.359652 734.511975 
L 1054.027015 747.037081 
" clip-path="url(#p2c9f6b2425)" style="fill: none; stroke: #7a7a7a; stroke-width: 3; stroke-linecap: square"/>
   </g>
   <g id="line2d_28">
    <path d="M 1020.512392 774.024164 
L 1044.654917 786.678394 
" clip-path="url(#p2c9f6b2425)" style="fill: none; stroke: #7a7a7a; stroke-width: 3; stroke-linecap: square"/>
   </g>
   <g id="line2d_29">
    <path d="M 1026.135651 864.282397 
L 1214.327381 964.224991 
L 1214.627289 964.483241 
L 1217.551383 966.032738 
L 1218.076221 966.290988 
" clip-path="url(#p2c9f6b2425)" style="fill: none; stroke: #7a7a7a; stroke-width: 3; stroke-linecap: square"/>
   </g>
   <g id="line2d_30">
    <path d="M 1016.913506 907.022706 
L 1214.327381 1010.322544 
L 1214.627289 1010.451669 
L 1217.551383 1011.872042 
L 1218.076221 1012.130291 
" clip-path="url(#p2c9f6b2425)" style="fill: none; stroke: #7a7a7a; stroke-width: 3; stroke-linecap: square"/>
   </g>
   <g id="line2d_31">
    <path d="M 1218.076221 784.999771 
L 1217.551383 784.741522 
L 1214.627289 783.192024 
L 1214.327381 783.062899 
L 1063.773997 705.84627 
" clip-path="url(#p2c9f6b2425)" style="fill: none; stroke: #7a7a7a; stroke-width: 3; stroke-linecap: square"/>
   </g>
   <g id="line2d_32">
    <path d="M 1218.076221 745.487583 
L 1217.551383 745.100209 
L 1214.552312 743.679836 
L 1214.252405 743.421586 
L 1111.98407 688.543547 
L 1072.621257 668.529204 
" clip-path="url(#p2c9f6b2425)" style="fill: none; stroke: #7a7a7a; stroke-width: 3; stroke-linecap: square"/>
   </g>
   <g id="line2d_33">
    <path d="M 1054.027015 747.037081 
L 1214.252405 830.70995 
L 1214.627289 830.839075 
L 1217.551383 832.388572 
L 1218.076221 832.775947 
" clip-path="url(#p2c9f6b2425)" style="fill: none; stroke: #7a7a7a; stroke-width: 3; stroke-linecap: square"/>
   </g>
   <g id="line2d_34">
    <path d="M 1044.654917 786.678394 
L 1214.327381 876.549253 
L 1214.627289 876.678378 
L 1217.551383 878.357 
L 1218.076221 878.61525 
" clip-path="url(#p2c9f6b2425)" style="fill: none; stroke: #7a7a7a; stroke-width: 3; stroke-linecap: square"/>
   </g>
   <g id="line2d_35">
    <path d="M 1020.512392 774.024164 
L 1044.654917 786.678394 
" clip-path="url(#p2c9f6b2425)" style="fill: none; stroke: #7a7a7a; stroke-width: 3; stroke-linecap: square"/>
   </g>
   <g id="line2d_36">
    <path d="M 1011.815085 812.632478 
L 1035.357795 825.415833 
" clip-path="url(#p2c9f6b2425)" style="fill: none; stroke: #7a7a7a; stroke-width: 3; stroke-linecap: square"/>
   </g>
   <g id="line2d_37">
    <path d="M 1054.027015 747.037081 
L 1029.359652 734.511975 
" clip-path="url(#p2c9f6b2425)" style="fill: none; stroke: #7a7a7a; stroke-width: 3; stroke-linecap: square"/>
   </g>
   <g id="line2d_38">
    <path d="M 1063.773997 705.84627 
L 1039.031658 692.417291 
" clip-path="url(#p2c9f6b2425)" style="fill: none; stroke: #7a7a7a; stroke-width: 3; stroke-linecap: square"/>
   </g>
   <g id="line2d_39">
    <path d="M 1002.967824 851.886417 
L 1026.135651 864.282397 
" clip-path="url(#p2c9f6b2425)" style="fill: none; stroke: #7a7a7a; stroke-width: 3; stroke-linecap: square"/>
   </g>
   <g id="line2d_40">
    <path d="M 992.845958 894.368475 
L 1016.913506 907.022706 
" clip-path="url(#p2c9f6b2425)" style="fill: none; stroke: #7a7a7a; stroke-width: 3; stroke-linecap: square"/>
   </g>
   <g id="line2d_41">
    <path d="M 768.215509 727.022737 
L 769.565092 727.797486 
L 775.788165 731.542105 
" clip-path="url(#p2c9f6b2425)" style="fill: none; stroke: #7a7a7a; stroke-width: 3; stroke-linecap: square"/>
   </g>
   <g id="line2d_42">
    <path d="M 768.215509 774.411538 
L 768.44044 774.540663 
L 769.565092 775.315412 
L 776.387979 779.57653 
" clip-path="url(#p2c9f6b2425)" style="fill: none; stroke: #7a7a7a; stroke-width: 3; stroke-linecap: square"/>
   </g>
   <g id="line2d_43">
    <path d="M 768.215509 628.629641 
L 769.415138 628.887891 
L 774.663513 630.308263 
" clip-path="url(#p2c9f6b2425)" style="fill: none; stroke: #7a7a7a; stroke-width: 3; stroke-linecap: square"/>
   </g>
   <g id="line2d_44">
    <path d="M 768.215509 680.408685 
L 769.490115 681.054309 
L 771.739418 682.216432 
" clip-path="url(#p2c9f6b2425)" style="fill: none; stroke: #7a7a7a; stroke-width: 3; stroke-linecap: square"/>
   </g>
   <g id="line2d_45">
    <path d="M 1044.654917 786.678394 
L 1214.327381 876.549253 
L 1214.627289 876.678378 
L 1217.551383 878.357 
L 1218.076221 878.61525 
" clip-path="url(#p2c9f6b2425)" style="fill: none; stroke: #7a7a7a; stroke-width: 3; stroke-linecap: square"/>
   </g>
   <g id="line2d_46">
    <path d="M 1035.357795 825.415833 
L 1214.327381 921.226433 
L 1214.627289 921.484683 
L 1217.551383 923.034181 
L 1218.076221 923.29243 
" clip-path="url(#p2c9f6b2425)" style="fill: none; stroke: #7a7a7a; stroke-width: 3; stroke-linecap: square"/>
   </g>
   <g id="line2d_47">
    <path d="M 1035.357795 825.415833 
L 1214.327381 921.226433 
L 1214.627289 921.484683 
L 1217.551383 923.034181 
L 1218.076221 923.29243 
" clip-path="url(#p2c9f6b2425)" style="fill: none; stroke: #7a7a7a; stroke-width: 3; stroke-linecap: square"/>
   </g>
   <g id="line2d_48">
    <path d="M 1026.135651 864.282397 
L 1214.327381 964.224991 
L 1214.627289 964.483241 
L 1217.551383 966.032738 
L 1218.076221 966.290988 
" clip-path="url(#p2c9f6b2425)" style="fill: none; stroke: #7a7a7a; stroke-width: 3; stroke-linecap: square"/>
   </g>
   <g id="line2d_49">
    <path d="M 1218.076221 832.775947 
L 1217.551383 832.388572 
L 1214.627289 830.839075 
L 1214.252405 830.70995 
L 1054.027015 747.037081 
" clip-path="url(#p2c9f6b2425)" style="fill: none; stroke: #7a7a7a; stroke-width: 3; stroke-linecap: square"/>
   </g>
   <g id="line2d_50">
    <path d="M 1218.076221 784.999771 
L 1217.551383 784.741522 
L 1214.627289 783.192024 
L 1214.327381 783.062899 
L 1063.773997 705.84627 
" clip-path="url(#p2c9f6b2425)" style="fill: none; stroke: #7a7a7a; stroke-width: 3; stroke-linecap: square"/>
   </g>
   <g id="line2d_51">
    <path d="M 1016.913506 907.022706 
L 1197.982442 1005.415802 
L 1214.327381 1015.745786 
L 1214.627289 1016.004035 
L 1217.551383 1018.328282 
L 1218.076221 1018.715656 
" clip-path="url(#p2c9f6b2425)" style="fill: none; stroke: #7a7a7a; stroke-width: 3; stroke-linecap: square"/>
   </g>
   <g id="line2d_52">
    <path d="M 1008.816013 945.63102 
L 1036.482447 962.675494 
L 1100.587598 997.926563 
L 1124.58017 1011.742917 
L 1140.325294 1021.943776 
L 1161.693678 1036.922252 
L 1173.764941 1045.960988 
L 1187.260762 1056.936596 
L 1205.405144 1071.915073 
L 1214.327381 1079.92081 
L 1214.627289 1080.17906 
L 1217.551383 1083.278055 
L 1218.076221 1083.665429 
" clip-path="url(#p2c9f6b2425)" style="fill: none; stroke: #7a7a7a; stroke-width: 3; stroke-linecap: square"/>
   </g>
   <g id="line2d_53">
    <path d="M 992.845958 894.368475 
L 1016.913506 907.022706 
" clip-path="url(#p2c9f6b2425)" style="fill: none; stroke: #7a7a7a; stroke-width: 3; stroke-linecap: square"/>
   </g>
   <g id="line2d_54">
    <path d="M 984.898419 930.910793 
L 1008.816013 945.63102 
" clip-path="url(#p2c9f6b2425)" style="fill: none; stroke: #7a7a7a; stroke-width: 3; stroke-linecap: square"/>
   </g>
   <g id="line2d_55">
    <path d="M 1039.031658 692.417291 
L 912.920705 631.212137 
L 828.871729 591.570824 
L 773.913745 567.553612 
" clip-path="url(#p2c9f6b2425)" style="fill: none; stroke: #7a7a7a; stroke-width: 3; stroke-linecap: square"/>
   </g>
   <g id="line2d_56">
    <path d="M 1046.90422 655.487599 
L 990.896562 629.14614 
L 955.132635 610.681294 
L 882.48013 575.301099 
L 773.463884 527.395799 
" clip-path="url(#p2c9f6b2425)" style="fill: none; stroke: #7a7a7a; stroke-width: 3; stroke-linecap: square"/>
   </g>
   <g id="line2d_57">
    <path d="M 768.215509 680.408685 
L 769.490115 681.054309 
L 771.739418 682.216432 
" clip-path="url(#p2c9f6b2425)" style="fill: none; stroke: #7a7a7a; stroke-width: 3; stroke-linecap: square"/>
   </g>
   <g id="line2d_58">
    <path d="M 768.215509 727.022737 
L 769.565092 727.797486 
L 775.788165 731.542105 
" clip-path="url(#p2c9f6b2425)" style="fill: none; stroke: #7a7a7a; stroke-width: 3; stroke-linecap: square"/>
   </g>
   <g id="line2d_59">
    <path d="M 1011.815085 812.632478 
L 1035.357795 825.415833 
" clip-path="url(#p2c9f6b2425)" style="fill: none; stroke: #7a7a7a; stroke-width: 3; stroke-linecap: square"/>
   </g>
   <g id="line2d_60">
    <path d="M 1002.967824 851.886417 
L 1026.135651 864.282397 
" clip-path="url(#p2c9f6b2425)" style="fill: none; stroke: #7a7a7a; stroke-width: 3; stroke-linecap: square"/>
   </g>
   <g id="line2d_61">
    <path d="M 1029.359652 734.511975 
L 919.743592 681.054309 
L 873.932777 658.715719 
L 827.822054 637.410127 
L 792.208081 623.077275 
L 774.438583 614.038539 
" clip-path="url(#p2c9f6b2425)" style="fill: none; stroke: #7a7a7a; stroke-width: 3; stroke-linecap: square"/>
   </g>
   <g id="line2d_62">
    <path d="M 1039.031658 692.417291 
L 912.920705 631.212137 
L 828.871729 591.570824 
L 773.913745 567.553612 
" clip-path="url(#p2c9f6b2425)" style="fill: none; stroke: #7a7a7a; stroke-width: 3; stroke-linecap: square"/>
   </g>
   <g id="line2d_63">
    <path d="M 661.14866 560.322623 
L 409.076708 429.648327 
" clip-path="url(#p2c9f6b2425)" style="fill: none; stroke: #7a7a7a; stroke-width: 3; stroke-linecap: square"/>
   </g>
   <g id="line2d_64">
    <path d="M 669.920944 519.390062 
L 415.749642 385.875021 
" clip-path="url(#p2c9f6b2425)" style="fill: none; stroke: #7a7a7a; stroke-width: 3; stroke-linecap: square"/>
   </g>
   <g id="line2d_65">
    <path d="M 655.975262 665.559333 
L 752.770292 718.5005 
" clip-path="url(#p2c9f6b2425)" style="fill: none; stroke: #7a7a7a; stroke-width: 3; stroke-linecap: square"/>
   </g>
   <g id="line2d_66">
    <path d="M 649.752189 704.942397 
L 671.945317 716.951003 
L 704.260312 734.511975 
L 734.62591 752.460322 
L 750.595965 762.919431 
" clip-path="url(#p2c9f6b2425)" style="fill: none; stroke: #7a7a7a; stroke-width: 3; stroke-linecap: square"/>
   </g>
   <g id="line2d_67">
    <path d="M 648.1027 613.134665 
L 662.648196 620.753028 
" clip-path="url(#p2c9f6b2425)" style="fill: none; stroke: #7a7a7a; stroke-width: 3; stroke-linecap: square"/>
   </g>
   <g id="line2d_68">
    <path d="M 638.505671 657.037097 
L 655.975262 665.559333 
" clip-path="url(#p2c9f6b2425)" style="fill: none; stroke: #7a7a7a; stroke-width: 3; stroke-linecap: square"/>
   </g>
   <g id="line2d_69">
    <path d="M 401.279123 532.173417 
L 638.505671 657.037097 
" clip-path="url(#p2c9f6b2425)" style="fill: none; stroke: #7a7a7a; stroke-width: 3; stroke-linecap: square"/>
   </g>
   <g id="line2d_70">
    <path d="M 394.981073 570.006983 
L 631.982691 695.516286 
" clip-path="url(#p2c9f6b2425)" style="fill: none; stroke: #7a7a7a; stroke-width: 3; stroke-linecap: square"/>
   </g>
   <g id="line2d_71">
    <path d="M 768.215509 565.10024 
L 767.765649 564.841991 
L 764.616624 563.550743 
L 764.316717 563.292493 
L 752.770292 557.998376 
" clip-path="url(#p2c9f6b2425)" style="fill: none; stroke: #7a7a7a; stroke-width: 3; stroke-linecap: square"/>
   </g>
   <g id="line2d_72">
    <path d="M 768.215509 525.071553 
L 767.690672 524.942428 
L 764.616624 523.522055 
L 764.24174 523.392931 
L 753.220152 517.840564 
" clip-path="url(#p2c9f6b2425)" style="fill: none; stroke: #7a7a7a; stroke-width: 3; stroke-linecap: square"/>
   </g>
   <g id="line2d_73">
    <path d="M 630.939489 -1 
L 576.574846 303.106025 
" clip-path="url(#p2c9f6b2425)" style="fill: none; stroke: #7a7a7a; stroke-width: 3; stroke-linecap: square"/>
   </g>
   <g id="line2d_74">
    <path d="M 602.571962 -1 
L 549.808134 296.133286 
" clip-path="url(#p2c9f6b2425)" style="fill: none; stroke: #7a7a7a; stroke-width: 3; stroke-linecap: square"/>
   </g>
   <g id="line2d_75">
    <path d="M 409.376615 487.237987 
L 648.1027 613.134665 
" clip-path="url(#p2c9f6b2425)" style="fill: none; stroke: #7a7a7a; stroke-width: 3; stroke-linecap: square"/>
   </g>
   <g id="line2d_76">
    <path d="M 401.279123 532.173417 
L 638.505671 657.037097 
" clip-path="url(#p2c9f6b2425)" style="fill: none; stroke: #7a7a7a; stroke-width: 3; stroke-linecap: square"/>
   </g>
   <g id="line2d_77">
    <path d="M 549.808134 296.133286 
L 544.709713 320.666998 
L 539.386361 343.005588 
L 531.363845 363.019931 
L 521.541886 380.19353 
L 509.995461 392.84776 
L 497.249408 402.402995 
L 483.153772 407.955361 
L 468.608276 408.600985 
L 453.088081 405.76024 
L 437.567887 397.367128 
L 415.749642 385.875021 
" clip-path="url(#p2c9f6b2425)" style="fill: none; stroke: #7a7a7a; stroke-width: 3; stroke-linecap: square"/>
   </g>
   <g id="line2d_78">
    <path d="M 523.941143 287.3528 
L 520.867095 307.883643 
L 516.743372 318.471876 
L 514.044208 326.348489 
L 509.695554 335.645474 
L 504.297225 344.167711 
L 499.498711 349.978327 
L 493.875452 355.530693 
L 489.301868 359.017063 
L 483.303726 362.116058 
L 478.280281 363.665555 
L 477.905397 363.665555 
L 474.906326 365.344178 
L 460.58576 363.536431 
L 447.539799 356.434567 
L 425.721555 344.94246 
" clip-path="url(#p2c9f6b2425)" style="fill: none; stroke: #7a7a7a; stroke-width: 3; stroke-linecap: square"/>
   </g>
   <g id="line2d_79">
    <path d="M 602.571962 -1 
L 549.808134 296.133286 
" clip-path="url(#p2c9f6b2425)" style="fill: none; stroke: #7a7a7a; stroke-width: 3; stroke-linecap: square"/>
   </g>
   <g id="line2d_80">
    <path d="M 576.294447 -1 
L 523.941143 287.3528 
" clip-path="url(#p2c9f6b2425)" style="fill: none; stroke: #7a7a7a; stroke-width: 3; stroke-linecap: square"/>
   </g>
   <g id="line2d_81">
    <path d="M 662.648196 620.753028 
L 754.569735 673.306821 
" clip-path="url(#p2c9f6b2425)" style="fill: none; stroke: #7a7a7a; stroke-width: 3; stroke-linecap: square"/>
   </g>
   <g id="line2d_82">
    <path d="M 655.975262 665.559333 
L 752.770292 718.5005 
" clip-path="url(#p2c9f6b2425)" style="fill: none; stroke: #7a7a7a; stroke-width: 3; stroke-linecap: square"/>
   </g>
   <g id="line2d_83">
    <path d="M 191.719008 372.575166 
L 409.376615 487.237987 
" clip-path="url(#p2c9f6b2425)" style="fill: none; stroke: #7a7a7a; stroke-width: 3; stroke-linecap: square"/>
   </g>
   <g id="line2d_84">
    <path d="M 180.847374 415.315475 
L 401.279123 532.173417 
" clip-path="url(#p2c9f6b2425)" style="fill: none; stroke: #7a7a7a; stroke-width: 3; stroke-linecap: square"/>
   </g>
   <g id="line2d_85">
    <path d="M 202.740595 336.032849 
L 417.024247 447.725799 
" clip-path="url(#p2c9f6b2425)" style="fill: none; stroke: #7a7a7a; stroke-width: 3; stroke-linecap: square"/>
   </g>
   <g id="line2d_86">
    <path d="M 191.719008 372.575166 
L 409.376615 487.237987 
" clip-path="url(#p2c9f6b2425)" style="fill: none; stroke: #7a7a7a; stroke-width: 3; stroke-linecap: square"/>
   </g>
   <g id="line2d_87">
    <path d="M 768.215509 610.939544 
L 767.765649 610.681294 
L 764.616624 609.131797 
L 764.316717 608.873547 
L 752.320431 603.450305 
" clip-path="url(#p2c9f6b2425)" style="fill: none; stroke: #7a7a7a; stroke-width: 3; stroke-linecap: square"/>
   </g>
   <g id="line2d_88">
    <path d="M 768.215509 565.10024 
L 767.765649 564.841991 
L 764.616624 563.550743 
L 764.316717 563.292493 
L 752.770292 557.998376 
" clip-path="url(#p2c9f6b2425)" style="fill: none; stroke: #7a7a7a; stroke-width: 3; stroke-linecap: square"/>
   </g>
   <g id="line2d_89">
    <path d="M 669.920944 519.390062 
L 631.232923 499.504843 
L 620.061382 490.466107 
L 609.489655 479.103125 
L 599.592719 462.187776 
L 590.895412 442.560807 
L 583.622664 420.867841 
L 577.924429 397.625377 
L 574.100613 373.608165 
L 572.451123 349.461828 
L 573.200891 325.702865 
L 576.574846 303.106025 
" clip-path="url(#p2c9f6b2425)" style="fill: none; stroke: #7a7a7a; stroke-width: 3; stroke-linecap: square"/>
   </g>
   <g id="line2d_90">
    <path d="M 676.218994 479.490499 
L 671.42048 477.037128 
L 642.329487 461.800402 
L 636.856182 457.797533 
L 636.181391 456.89366 
L 627.55906 448.371423 
L 617.962032 433.134697 
L 610.014493 412.603854 
L 604.091327 389.36139 
L 600.792348 364.311179 
L 600.492441 338.615345 
L 603.641466 313.306884 
" clip-path="url(#p2c9f6b2425)" style="fill: none; stroke: #7a7a7a; stroke-width: 3; stroke-linecap: square"/>
   </g>
   <g id="line2d_91">
    <path d="M 415.749642 385.875021 
L 231.681634 286.707176 
L 154.605499 247.065863 
" clip-path="url(#p2c9f6b2425)" style="fill: none; stroke: #7a7a7a; stroke-width: 3; stroke-linecap: square"/>
   </g>
   <g id="line2d_92">
    <path d="M 425.721555 344.94246 
L 407.277265 335.516349 
L 399.554657 331.255231 
L 273.818588 265.143335 
L 158.954153 203.163431 
" clip-path="url(#p2c9f6b2425)" style="fill: none; stroke: #7a7a7a; stroke-width: 3; stroke-linecap: square"/>
   </g>
   <g id="line2d_93">
    <path d="M 662.648196 620.753028 
L 709.808594 619.332656 
L 734.251026 621.269528 
L 754.269827 625.143271 
" clip-path="url(#p2c9f6b2425)" style="fill: none; stroke: #7a7a7a; stroke-width: 3; stroke-linecap: square"/>
   </g>
   <g id="line2d_94">
    <path d="M 655.975262 665.559333 
L 668.046524 670.724325 
L 680.342717 672.790322 
L 754.569735 673.306821 
" clip-path="url(#p2c9f6b2425)" style="fill: none; stroke: #7a7a7a; stroke-width: 3; stroke-linecap: square"/>
   </g>
   <g id="line2d_95">
    <path d="M 576.574846 303.106025 
L 568.027493 352.431698 
L 566.078096 380.19353 
L 565.928143 407.438862 
L 567.202748 433.522071 
L 569.976889 458.572282 
L 574.025636 482.20212 
L 579.423964 504.54071 
L 586.021921 525.329803 
L 593.74453 544.569397 
L 602.666768 562.13037 
L 612.563703 577.883595 
L 623.510314 591.699949 
L 635.356646 603.450305 
L 648.1027 613.134665 
" clip-path="url(#p2c9f6b2425)" style="fill: none; stroke: #7a7a7a; stroke-width: 3; stroke-linecap: square"/>
   </g>
   <g id="line2d_96">
    <path d="M 549.808134 296.133286 
L 540.58599 345.200709 
L 537.886825 373.349915 
L 537.511941 401.369996 
L 538.48664 428.486204 
L 540.735943 454.698538 
L 544.259852 479.877874 
L 548.983389 504.153336 
L 554.906555 527.13755 
L 561.879397 548.830516 
L 569.976889 569.232234 
L 579.124057 588.084454 
L 589.245923 605.387177 
L 600.267511 621.011278 
L 612.188819 634.956756 
L 624.934873 646.965362 
L 638.505671 657.037097 
" clip-path="url(#p2c9f6b2425)" style="fill: none; stroke: #7a7a7a; stroke-width: 3; stroke-linecap: square"/>
   </g>
   <g id="line2d_97">
    <path d="M 180.847374 415.315475 
L 401.279123 532.173417 
" clip-path="url(#p2c9f6b2425)" style="fill: none; stroke: #7a7a7a; stroke-width: 3; stroke-linecap: square"/>
   </g>
   <g id="line2d_98">
    <path d="M 173.424672 453.66554 
L 207.464133 471.484762 
L 257.998486 497.567971 
L 349.470164 545.731521 
L 394.981073 570.006983 
" clip-path="url(#p2c9f6b2425)" style="fill: none; stroke: #7a7a7a; stroke-width: 3; stroke-linecap: square"/>
   </g>
   <g id="line2d_99">
    <path d="M 576.574846 303.106025 
L 630.939489 -1 
" clip-path="url(#p2c9f6b2425)" style="fill: none; stroke: #7a7a7a; stroke-width: 3; stroke-linecap: square"/>
   </g>
   <g id="line2d_100">
    <path d="M 603.641466 313.306884 
L 658.96676 -1 
" clip-path="url(#p2c9f6b2425)" style="fill: none; stroke: #7a7a7a; stroke-width: 3; stroke-linecap: square"/>
   </g>
   <g id="line2d_101">
    <path d="M 409.076708 429.648327 
L 301.335068 372.058667 
L 153.030987 292.517792 
" clip-path="url(#p2c9f6b2425)" style="fill: none; stroke: #7a7a7a; stroke-width: 3; stroke-linecap: square"/>
   </g>
   <g id="line2d_102">
    <path d="M 415.749642 385.875021 
L 231.681634 286.707176 
L 154.605499 247.065863 
" clip-path="url(#p2c9f6b2425)" style="fill: none; stroke: #7a7a7a; stroke-width: 3; stroke-linecap: square"/>
   </g>
   <g id="line2d_103">
    <path d="M 638.505671 657.037097 
L 655.975262 665.559333 
" clip-path="url(#p2c9f6b2425)" style="fill: none; stroke: #7a7a7a; stroke-width: 3; stroke-linecap: square"/>
   </g>
   <g id="line2d_104">
    <path d="M 631.982691 695.516286 
L 649.752189 704.942397 
" clip-path="url(#p2c9f6b2425)" style="fill: none; stroke: #7a7a7a; stroke-width: 3; stroke-linecap: square"/>
   </g>
   <g id="line2d_105">
    <path d="M 669.920944 519.390062 
L 415.749642 385.875021 
" clip-path="url(#p2c9f6b2425)" style="fill: none; stroke: #7a7a7a; stroke-width: 3; stroke-linecap: square"/>
   </g>
   <g id="line2d_106">
    <path d="M 676.218994 479.490499 
L 642.329487 461.800402 
L 639.630323 459.86353 
L 425.721555 344.94246 
" clip-path="url(#p2c9f6b2425)" style="fill: none; stroke: #7a7a7a; stroke-width: 3; stroke-linecap: square"/>
   </g>
   <g id="line2d_107">
    <path d="M 417.024247 447.725799 
L 434.568815 457.410159 
L 450.838778 462.704276 
L 466.658879 464.253773 
L 482.02912 462.446026 
L 496.649593 457.410159 
L 510.520299 449.404421 
L 523.491282 438.557938 
L 535.337615 425.128959 
L 545.984318 409.375734 
L 555.356416 391.427387 
L 563.228979 371.671293 
L 569.452052 350.236576 
L 573.950659 327.252362 
L 576.574846 303.106025 
" clip-path="url(#p2c9f6b2425)" style="fill: none; stroke: #7a7a7a; stroke-width: 3; stroke-linecap: square"/>
   </g>
   <g id="line2d_108">
    <path d="M 409.376615 487.237987 
L 428.720626 498.471845 
L 444.615704 505.444584 
L 460.060922 509.963952 
L 474.906326 512.159073 
L 489.226892 511.900824 
L 502.947643 509.318328 
L 515.918627 504.54071 
L 528.289797 497.438846 
L 539.836222 488.270986 
L 550.632879 476.908003 
L 560.604791 463.3499 
L 569.751959 447.854924 
L 577.924429 430.164826 
L 585.1222 410.666982 
L 591.345273 389.103141 
L 596.518671 365.731552 
L 600.642394 340.423092 
L 603.641466 313.306884 
" clip-path="url(#p2c9f6b2425)" style="fill: none; stroke: #7a7a7a; stroke-width: 3; stroke-linecap: square"/>
   </g>
   <g id="line2d_109">
    <path d="M 774.663513 630.308263 
L 1020.512392 774.024164 
" clip-path="url(#p2c9f6b2425)" style="fill: none; stroke: #7a7a7a; stroke-width: 3; stroke-linecap: square"/>
   </g>
   <g id="line2d_110">
    <path d="M 771.739418 682.216432 
L 1011.815085 812.632478 
" clip-path="url(#p2c9f6b2425)" style="fill: none; stroke: #7a7a7a; stroke-width: 3; stroke-linecap: square"/>
   </g>
   <g id="line2d_111">
    <path d="M 774.663513 630.308263 
L 803.154691 638.443126 
L 825.047913 645.415865 
L 850.015182 655.616724 
L 872.283287 663.751586 
L 894.176509 672.402948 
L 929.415598 686.99405 
L 948.384724 695.645411 
L 1029.359652 734.511975 
" clip-path="url(#p2c9f6b2425)" style="fill: none; stroke: #7a7a7a; stroke-width: 3; stroke-linecap: square"/>
   </g>
   <g id="line2d_112">
    <path d="M 771.739418 682.216432 
L 800.15562 687.639674 
L 840.2682 696.936659 
L 890.802553 716.692753 
L 930.240342 733.995476 
L 956.782124 744.841959 
L 1020.512392 774.024164 
" clip-path="url(#p2c9f6b2425)" style="fill: none; stroke: #7a7a7a; stroke-width: 3; stroke-linecap: square"/>
   </g>
   <g id="line2d_113">
    <path d="M 771.739418 682.216432 
L 1011.815085 812.632478 
" clip-path="url(#p2c9f6b2425)" style="fill: none; stroke: #7a7a7a; stroke-width: 3; stroke-linecap: square"/>
   </g>
   <g id="line2d_114">
    <path d="M 775.788165 731.542105 
L 1002.967824 851.886417 
" clip-path="url(#p2c9f6b2425)" style="fill: none; stroke: #7a7a7a; stroke-width: 3; stroke-linecap: square"/>
   </g>
   <g id="line2d_115">
    <path d="M 754.269827 625.143271 
L 764.316717 627.596643 
L 764.616624 627.596643 
L 767.765649 628.500516 
L 768.215509 628.629641 
" clip-path="url(#p2c9f6b2425)" style="fill: none; stroke: #7a7a7a; stroke-width: 3; stroke-linecap: square"/>
   </g>
   <g id="line2d_116">
    <path d="M 754.569735 673.306821 
L 764.316717 678.342688 
L 764.691601 678.600938 
L 767.765649 680.150435 
L 768.215509 680.408685 
" clip-path="url(#p2c9f6b2425)" style="fill: none; stroke: #7a7a7a; stroke-width: 3; stroke-linecap: square"/>
   </g>
   <g id="line2d_117">
    <path d="M 775.788165 731.542105 
L 816.425582 756.075817 
L 842.36755 775.702786 
L 879.705989 805.917989 
L 915.020055 836.133191 
L 958.356637 869.963889 
L 992.845958 894.368475 
" clip-path="url(#p2c9f6b2425)" style="fill: none; stroke: #7a7a7a; stroke-width: 3; stroke-linecap: square"/>
   </g>
   <g id="line2d_118">
    <path d="M 776.387979 779.57653 
L 790.558591 788.744391 
L 821.37405 810.566481 
L 857.28793 837.940939 
L 906.472701 877.194877 
L 971.702505 922.259432 
L 984.898419 930.910793 
" clip-path="url(#p2c9f6b2425)" style="fill: none; stroke: #7a7a7a; stroke-width: 3; stroke-linecap: square"/>
   </g>
   <g id="line2d_119">
    <path d="M 752.320431 603.450305 
L 712.657712 585.501958 
L 661.14866 560.322623 
" clip-path="url(#p2c9f6b2425)" style="fill: none; stroke: #7a7a7a; stroke-width: 3; stroke-linecap: square"/>
   </g>
   <g id="line2d_120">
    <path d="M 752.770292 557.998376 
L 669.920944 519.390062 
" clip-path="url(#p2c9f6b2425)" style="fill: none; stroke: #7a7a7a; stroke-width: 3; stroke-linecap: square"/>
   </g>
   <g id="line2d_121">
    <path d="M 752.770292 718.5005 
L 764.316717 724.698491 
L 764.691601 724.827616 
L 767.765649 726.764488 
L 768.215509 727.022737 
" clip-path="url(#p2c9f6b2425)" style="fill: none; stroke: #7a7a7a; stroke-width: 3; stroke-linecap: square"/>
   </g>
   <g id="line2d_122">
    <path d="M 750.595965 762.919431 
L 764.391693 771.958167 
L 764.691601 772.216416 
L 767.765649 774.153288 
L 768.215509 774.411538 
" clip-path="url(#p2c9f6b2425)" style="fill: none; stroke: #7a7a7a; stroke-width: 3; stroke-linecap: square"/>
   </g>
   <g id="line2d_123">
    <path d="M 775.788165 731.542105 
L 1002.967824 851.886417 
" clip-path="url(#p2c9f6b2425)" style="fill: none; stroke: #7a7a7a; stroke-width: 3; stroke-linecap: square"/>
   </g>
   <g id="line2d_124">
    <path d="M 776.387979 779.57653 
L 992.845958 894.368475 
" clip-path="url(#p2c9f6b2425)" style="fill: none; stroke: #7a7a7a; stroke-width: 3; stroke-linecap: square"/>
   </g>
   <g id="line2d_125">
    <path d="M 754.569735 673.306821 
L 764.316717 678.342688 
L 764.691601 678.600938 
L 767.765649 680.150435 
L 768.215509 680.408685 
" clip-path="url(#p2c9f6b2425)" style="fill: none; stroke: #7a7a7a; stroke-width: 3; stroke-linecap: square"/>
   </g>
   <g id="line2d_126">
    <path d="M 752.770292 718.5005 
L 764.316717 724.698491 
L 764.691601 724.827616 
L 767.765649 726.764488 
L 768.215509 727.022737 
" clip-path="url(#p2c9f6b2425)" style="fill: none; stroke: #7a7a7a; stroke-width: 3; stroke-linecap: square"/>
   </g>
   <g id="line2d_127">
    <path d="M 1272.059506 1067.653954 
L 1278.882394 1074.368444 
L 1311.122411 1116.075754 
L 1347.486152 1167.854798 
L 1372.678352 1210.98248 
" clip-path="url(#p2c9f6b2425)" style="fill: none; stroke: #7a7a7a; stroke-width: 3; stroke-linecap: square"/>
   </g>
   <g id="line2d_128">
    <path d="M 1257.588987 1125.889238 
L 1275.883322 1147.840454 
L 1291.778401 1169.79167 
L 1315.021204 1204.655365 
L 1331.066236 1231.384198 
L 1339.163729 1245.587926 
L 1345.161872 1257.209158 
L 1349.360572 1266.893518 
L 1352.134713 1275.28663 
" clip-path="url(#p2c9f6b2425)" style="fill: none; stroke: #7a7a7a; stroke-width: 3; stroke-linecap: square"/>
   </g>
   <g id="line2d_129">
    <path d="M 773.913745 567.553612 
L 769.340161 565.61674 
L 768.215509 565.10024 
" clip-path="url(#p2c9f6b2425)" style="fill: none; stroke: #7a7a7a; stroke-width: 3; stroke-linecap: square"/>
   </g>
   <g id="line2d_130">
    <path d="M 773.463884 527.395799 
L 769.340161 525.588052 
L 768.215509 525.071553 
" clip-path="url(#p2c9f6b2425)" style="fill: none; stroke: #7a7a7a; stroke-width: 3; stroke-linecap: square"/>
   </g>
   <g id="line2d_131">
    <path d="M 752.770292 557.998376 
L 669.920944 519.390062 
" clip-path="url(#p2c9f6b2425)" style="fill: none; stroke: #7a7a7a; stroke-width: 3; stroke-linecap: square"/>
   </g>
   <g id="line2d_132">
    <path d="M 753.220152 517.840564 
L 704.935103 493.823352 
L 696.462726 489.820483 
L 676.218994 479.490499 
" clip-path="url(#p2c9f6b2425)" style="fill: none; stroke: #7a7a7a; stroke-width: 3; stroke-linecap: square"/>
   </g>
   <g id="line2d_133">
    <path d="M 774.438583 614.038539 
L 769.415138 611.456043 
L 768.215509 610.939544 
" clip-path="url(#p2c9f6b2425)" style="fill: none; stroke: #7a7a7a; stroke-width: 3; stroke-linecap: square"/>
   </g>
   <g id="line2d_134">
    <path d="M 773.913745 567.553612 
L 769.340161 565.61674 
L 768.215509 565.10024 
" clip-path="url(#p2c9f6b2425)" style="fill: none; stroke: #7a7a7a; stroke-width: 3; stroke-linecap: square"/>
   </g>
   <g id="line2d_135">
    <path d="M 1441 878.885813 
L 1429.060894 882.230744 
L 1412.865909 884.684116 
L 1363.1563 865.315396 
" clip-path="url(#p2c9f6b2425)" style="fill: none; stroke: #7a7a7a; stroke-width: 3; stroke-linecap: square"/>
   </g>
   <g id="line2d_136">
    <path d="M 1441 852.866157 
L 1439.332714 853.823289 
L 1433.784432 855.631036 
L 1428.46108 856.27666 
L 1422.38796 855.372786 
L 1392.622177 839.103062 
L 1370.054164 826.319707 
" clip-path="url(#p2c9f6b2425)" style="fill: none; stroke: #7a7a7a; stroke-width: 3; stroke-linecap: square"/>
   </g>
   <g id="line2d_137">
    <path d="M 1357.008204 907.797454 
L 1408.742186 932.072916 
L 1417.7394 938.270907 
L 1431.160244 938.916531 
L 1441 936.933488 
" clip-path="url(#p2c9f6b2425)" style="fill: none; stroke: #7a7a7a; stroke-width: 3; stroke-linecap: square"/>
   </g>
   <g id="line2d_138">
    <path d="M 1348.685781 949.633889 
L 1401.394461 971.068605 
L 1412.865909 975.975348 
L 1435.958759 981.915088 
L 1441 980.701474 
" clip-path="url(#p2c9f6b2425)" style="fill: none; stroke: #7a7a7a; stroke-width: 3; stroke-linecap: square"/>
   </g>
   <g id="line2d_139">
    <path d="M 1357.008204 907.797454 
L 1441 947.042774 
" clip-path="url(#p2c9f6b2425)" style="fill: none; stroke: #7a7a7a; stroke-width: 3; stroke-linecap: square"/>
   </g>
   <g id="line2d_140">
    <path d="M 1348.685781 949.633889 
L 1441 988.019983 
" clip-path="url(#p2c9f6b2425)" style="fill: none; stroke: #7a7a7a; stroke-width: 3; stroke-linecap: square"/>
   </g>
   <g id="line2d_141">
    <path d="M 1441 888.511034 
L 1438.95783 888.945234 
L 1411.591303 888.428735 
L 1363.1563 865.315396 
" clip-path="url(#p2c9f6b2425)" style="fill: none; stroke: #7a7a7a; stroke-width: 3; stroke-linecap: square"/>
   </g>
   <g id="line2d_142">
    <path d="M 1441 852.866157 
L 1439.332714 853.823289 
L 1433.784432 855.631036 
L 1428.46108 856.27666 
L 1422.38796 855.372786 
L 1392.622177 839.103062 
L 1370.054164 826.319707 
" clip-path="url(#p2c9f6b2425)" style="fill: none; stroke: #7a7a7a; stroke-width: 3; stroke-linecap: square"/>
   </g>
   <g id="line2d_143">
    <path d="M 1372.678352 1210.98248 
L 1394.946457 1252.173291 
L 1400.869623 1274.124506 
L 1407.46758 1308.600828 
L 1406.492882 1345.143145 
L 1401.16953 1374.454475 
" clip-path="url(#p2c9f6b2425)" style="fill: none; stroke: #7a7a7a; stroke-width: 3; stroke-linecap: square"/>
   </g>
   <g id="line2d_144">
    <path d="M 1352.134713 1275.28663 
L 1377.176959 1310.27945 
L 1380.101054 1321.513307 
L 1383.250079 1338.557781 
L 1379.276309 1361.41287 
" clip-path="url(#p2c9f6b2425)" style="fill: none; stroke: #7a7a7a; stroke-width: 3; stroke-linecap: square"/>
   </g>
   <g id="line2d_145">
    <path d="M 1372.678352 1210.98248 
L 1383.92487 1236.161816 
L 1390.297896 1260.049903 
L 1381.82552 1326.678299 
L 1377.176959 1356.247878 
" clip-path="url(#p2c9f6b2425)" style="fill: none; stroke: #7a7a7a; stroke-width: 3; stroke-linecap: square"/>
   </g>
   <g id="line2d_146">
    <path d="M 1352.134713 1275.28663 
L 1359.632391 1282.517618 
L 1365.48058 1292.201978 
L 1367.954814 1296.850471 
L 1369.67928 1305.372708 
L 1365.855464 1329.260795 
L 1360.007275 1346.950893 
" clip-path="url(#p2c9f6b2425)" style="fill: none; stroke: #7a7a7a; stroke-width: 3; stroke-linecap: square"/>
   </g>
   <g id="line2d_147">
    <path d="M 1441 959.852171 
L 1440.082482 958.672625 
L 1427.561359 946.147519 
L 1413.015862 934.784537 
L 1396.52097 924.583678 
L 1377.85175 915.544942 
L 1357.008204 907.797454 
" clip-path="url(#p2c9f6b2425)" style="fill: none; stroke: #7a7a7a; stroke-width: 3; stroke-linecap: square"/>
   </g>
   <g id="line2d_148">
    <path d="M 1441 913.207956 
L 1438.358016 910.89645 
L 1422.462937 899.016968 
L 1404.693439 887.524861 
L 1384.974545 876.291004 
L 1363.1563 865.315396 
" clip-path="url(#p2c9f6b2425)" style="fill: none; stroke: #7a7a7a; stroke-width: 3; stroke-linecap: square"/>
   </g>
   <g id="line2d_149">
    <path d="M 1313.521668 884.296741 
L 1219.50078 833.550696 
L 1218.376128 832.905072 
L 1218.076221 832.775947 
" clip-path="url(#p2c9f6b2425)" style="fill: none; stroke: #7a7a7a; stroke-width: 3; stroke-linecap: square"/>
   </g>
   <g id="line2d_150">
    <path d="M 1321.619161 842.072932 
L 1231.422089 791.585136 
L 1219.50078 785.645395 
L 1218.301151 785.128896 
L 1218.076221 784.999771 
" clip-path="url(#p2c9f6b2425)" style="fill: none; stroke: #7a7a7a; stroke-width: 3; stroke-linecap: square"/>
   </g>
   <g id="line2d_151">
    <path d="M 1321.619161 842.072932 
L 1231.422089 791.585136 
L 1219.50078 785.645395 
L 1218.301151 785.128896 
L 1218.076221 784.999771 
" clip-path="url(#p2c9f6b2425)" style="fill: none; stroke: #7a7a7a; stroke-width: 3; stroke-linecap: square"/>
   </g>
   <g id="line2d_152">
    <path d="M 1328.816933 804.368491 
L 1219.50078 746.133207 
L 1218.301151 745.616708 
L 1218.076221 745.487583 
" clip-path="url(#p2c9f6b2425)" style="fill: none; stroke: #7a7a7a; stroke-width: 3; stroke-linecap: square"/>
   </g>
   <g id="line2d_153">
    <path d="M 1297.701567 966.678362 
L 1341.338056 990.437325 
" clip-path="url(#p2c9f6b2425)" style="fill: none; stroke: #7a7a7a; stroke-width: 3; stroke-linecap: square"/>
   </g>
   <g id="line2d_154">
    <path d="M 1290.428818 1004.382803 
L 1334.215261 1027.367017 
" clip-path="url(#p2c9f6b2425)" style="fill: none; stroke: #7a7a7a; stroke-width: 3; stroke-linecap: square"/>
   </g>
   <g id="line2d_155">
    <path d="M 1305.499152 926.133176 
L 1348.685781 949.633889 
" clip-path="url(#p2c9f6b2425)" style="fill: none; stroke: #7a7a7a; stroke-width: 3; stroke-linecap: square"/>
   </g>
   <g id="line2d_156">
    <path d="M 1297.701567 966.678362 
L 1341.338056 990.437325 
" clip-path="url(#p2c9f6b2425)" style="fill: none; stroke: #7a7a7a; stroke-width: 3; stroke-linecap: square"/>
   </g>
   <g id="line2d_157">
    <path d="M 1290.428818 1004.382803 
L 1334.215261 1027.367017 
" clip-path="url(#p2c9f6b2425)" style="fill: none; stroke: #7a7a7a; stroke-width: 3; stroke-linecap: square"/>
   </g>
   <g id="line2d_158">
    <path d="M 1282.631233 1045.18624 
L 1305.274222 1056.807471 
L 1326.642606 1069.590826 
" clip-path="url(#p2c9f6b2425)" style="fill: none; stroke: #7a7a7a; stroke-width: 3; stroke-linecap: square"/>
   </g>
   <g id="line2d_159">
    <path d="M 1313.521668 884.296741 
L 1357.008204 907.797454 
" clip-path="url(#p2c9f6b2425)" style="fill: none; stroke: #7a7a7a; stroke-width: 3; stroke-linecap: square"/>
   </g>
   <g id="line2d_160">
    <path d="M 1305.499152 926.133176 
L 1348.685781 949.633889 
" clip-path="url(#p2c9f6b2425)" style="fill: none; stroke: #7a7a7a; stroke-width: 3; stroke-linecap: square"/>
   </g>
   <g id="line2d_161">
    <path d="M 678.116377 708.967963 
L 834.046033 790.277811 
" clip-path="url(#p2c9f6b2425)" style="fill: none; stroke-dasharray: 32,8,5,8; stroke-dashoffset: 0; stroke: #1e90ff; stroke-width: 5"/>
   </g>
   <g id="line2d_162">
    <path d="M 650.719922 507.511526 
L 447.308554 417.611223 
" clip-path="url(#p2c9f6b2425)" style="fill: none; stroke-dasharray: 32,8,5,8; stroke-dashoffset: 0; stroke: #1e90ff; stroke-width: 5"/>
   </g>
   <g id="line2d_163">
    <path d="M 1198.567338 974.241242 
L 1327.534822 1052.625606 
" clip-path="url(#p2c9f6b2425)" style="fill: none; stroke-dasharray: 32,8,5,8; stroke-dashoffset: 0; stroke: #1e90ff; stroke-width: 5"/>
   </g>
   <g id="line2d_164">
    <path d="M 623.098775 64.562399 
L 626.620633 106.513772 
" clip-path="url(#p2c9f6b2425)" style="fill: none; stroke-dasharray: 32,8,5,8; stroke-dashoffset: 0; stroke: #1e90ff; stroke-width: 5"/>
   </g>
   <g id="line2d_165">
    <path d="M 246.494876 336.318714 
L 149.95357 277.050873 
" clip-path="url(#p2c9f6b2425)" style="fill: none; stroke-dasharray: 32,8,5,8; stroke-dashoffset: 0; stroke: #1e90ff; stroke-width: 5"/>
   </g>
   <g id="line2d_166">
    <path d="M 829.146274 796.70095 
L 956.347566 837.321984 
" clip-path="url(#p2c9f6b2425)" style="fill: none; stroke-dasharray: 32,8,5,8; stroke-dashoffset: 0; stroke: #1e90ff; stroke-width: 5"/>
   </g>
   <g id="line2d_167">
    <path d="M 678.116377 708.967963 
" clip-path="url(#p2c9f6b2425)" style="fill: none; stroke: #0000ff; stroke-width: 1.5; stroke-linecap: square"/>
    <defs>
     <path id="m018ddcbb26" d="M 0 10 
C 2.652031 10 5.195799 8.946337 7.071068 7.071068 
C 8.946337 5.195799 10 2.652031 10 0 
C 10 -2.652031 8.946337 -5.195799 7.071068 -7.071068 
C 5.195799 -8.946337 2.652031 -10 0 -10 
C -2.652031 -10 -5.195799 -8.946337 -7.071068 -7.071068 
C -8.946337 -5.195799 -10 -2.652031 -10 0 
C -10 2.652031 -8.946337 5.195799 -7.071068 7.071068 
C -5.195799 8.946337 -2.652031 10 0 10 
z
" style="stroke: #0000ff"/>
    </defs>
    <g clip-path="url(#p2c9f6b2425)">
     <use xlink:href="#m018ddcbb26" x="678.116377" y="708.967963" style="fill: #0000ff; stroke: #0000ff"/>
    </g>
   </g>
   <g id="line2d_168">
    <path d="M 650.719922 507.511526 
" clip-path="url(#p2c9f6b2425)" style="fill: none; stroke: #0000ff; stroke-width: 1.5; stroke-linecap: square"/>
    <g clip-path="url(#p2c9f6b2425)">
     <use xlink:href="#m018ddcbb26" x="650.719922" y="507.511526" style="fill: #0000ff; stroke: #0000ff"/>
    </g>
   </g>
   <g id="line2d_169">
    <path d="M 1198.567338 974.241242 
" clip-path="url(#p2c9f6b2425)" style="fill: none; stroke: #0000ff; stroke-width: 1.5; stroke-linecap: square"/>
    <g clip-path="url(#p2c9f6b2425)">
     <use xlink:href="#m018ddcbb26" x="1198.567338" y="974.241242" style="fill: #0000ff; stroke: #0000ff"/>
    </g>
   </g>
   <g id="line2d_170">
    <path d="M 623.098775 64.562399 
" clip-path="url(#p2c9f6b2425)" style="fill: none; stroke: #0000ff; stroke-width: 1.5; stroke-linecap: square"/>
    <g clip-path="url(#p2c9f6b2425)">
     <use xlink:href="#m018ddcbb26" x="623.098775" y="64.562399" style="fill: #0000ff; stroke: #0000ff"/>
    </g>
   </g>
   <g id="line2d_171">
    <path d="M 246.494876 336.318714 
" clip-path="url(#p2c9f6b2425)" style="fill: none; stroke: #0000ff; stroke-width: 1.5; stroke-linecap: square"/>
    <g clip-path="url(#p2c9f6b2425)">
     <use xlink:href="#m018ddcbb26" x="246.494876" y="336.318714" style="fill: #0000ff; stroke: #0000ff"/>
    </g>
   </g>
   <g id="line2d_172">
    <path d="M 829.146274 796.70095 
" clip-path="url(#p2c9f6b2425)" style="fill: none; stroke: #0000ff; stroke-width: 1.5; stroke-linecap: square"/>
    <g clip-path="url(#p2c9f6b2425)">
     <use xlink:href="#m018ddcbb26" x="829.146274" y="796.70095" style="fill: #0000ff; stroke: #0000ff"/>
    </g>
   </g>
   <g id="line2d_173">
    <path d="M 834.046033 790.277811 
" clip-path="url(#p2c9f6b2425)" style="fill: none; stroke: #ff0000; stroke-width: 1.5; stroke-linecap: square"/>
    <defs>
     <path id="mf73cde269e" d="M 0 -10 
L -2.24514 -3.09017 
L -9.510565 -3.09017 
L -3.632713 1.18034 
L -5.877853 8.09017 
L -0 3.81966 
L 5.877853 8.09017 
L 3.632713 1.18034 
L 9.510565 -3.09017 
L 2.24514 -3.09017 
z
" style="stroke: #ff0000; stroke-linejoin: bevel"/>
    </defs>
    <g clip-path="url(#p2c9f6b2425)">
     <use xlink:href="#mf73cde269e" x="834.046033" y="790.277811" style="fill: #ff0000; stroke: #ff0000; stroke-linejoin: bevel"/>
    </g>
   </g>
   <g id="line2d_174">
    <path d="M 447.308554 417.611223 
" clip-path="url(#p2c9f6b2425)" style="fill: none; stroke: #ff0000; stroke-width: 1.5; stroke-linecap: square"/>
    <g clip-path="url(#p2c9f6b2425)">
     <use xlink:href="#mf73cde269e" x="447.308554" y="417.611223" style="fill: #ff0000; stroke: #ff0000; stroke-linejoin: bevel"/>
    </g>
   </g>
   <g id="line2d_175">
    <path d="M 1327.534822 1052.625606 
" clip-path="url(#p2c9f6b2425)" style="fill: none; stroke: #ff0000; stroke-width: 1.5; stroke-linecap: square"/>
    <g clip-path="url(#p2c9f6b2425)">
     <use xlink:href="#mf73cde269e" x="1327.534822" y="1052.625606" style="fill: #ff0000; stroke: #ff0000; stroke-linejoin: bevel"/>
    </g>
   </g>
   <g id="line2d_176">
    <path d="M 626.620633 106.513772 
" clip-path="url(#p2c9f6b2425)" style="fill: none; stroke: #ff0000; stroke-width: 1.5; stroke-linecap: square"/>
    <g clip-path="url(#p2c9f6b2425)">
     <use xlink:href="#mf73cde269e" x="626.620633" y="106.513772" style="fill: #ff0000; stroke: #ff0000; stroke-linejoin: bevel"/>
    </g>
   </g>
   <g id="line2d_177">
    <path d="M 149.95357 277.050873 
" clip-path="url(#p2c9f6b2425)" style="fill: none; stroke: #ff0000; stroke-width: 1.5; stroke-linecap: square"/>
    <g clip-path="url(#p2c9f6b2425)">
     <use xlink:href="#mf73cde269e" x="149.95357" y="277.050873" style="fill: #ff0000; stroke: #ff0000; stroke-linejoin: bevel"/>
    </g>
   </g>
   <g id="line2d_178">
    <path d="M 956.347566 837.321984 
" clip-path="url(#p2c9f6b2425)" style="fill: none; stroke: #ff0000; stroke-width: 1.5; stroke-linecap: square"/>
    <g clip-path="url(#p2c9f6b2425)">
     <use xlink:href="#mf73cde269e" x="956.347566" y="837.321984" style="fill: #ff0000; stroke: #ff0000; stroke-linejoin: bevel"/>
    </g>
   </g>
  </g>
 </g>
 <defs>
  <clipPath id="p2c9f6b2425">
   <rect x="0" y="0" width="1440" height="1440"/>
  </clipPath>
 </defs>
</svg>
