<?xml version="1.0" encoding="utf-8" standalone="no"?>
<!DOCTYPE svg PUBLIC "-//W3C//DTD SVG 1.1//EN"
  "http://www.w3.org/Graphics/SVG/1.1/DTD/svg11.dtd">
<svg xmlns:xlink="http://www.w3.org/1999/xlink" width="1440pt" height="1440pt" viewBox="0 0 1440 1440" xmlns="http://www.w3.org/2000/svg" version="1.1">
 <metadata>
  <rdf:RDF xmlns:dc="http://purl.org/dc/elements/1.1/" xmlns:cc="http://creativecommons.org/ns#" xmlns:rdf="http://www.w3.org/1999/02/22-rdf-syntax-ns#">
   <cc:Work>
    <dc:type rdf:resource="http://purl.org/dc/dcmitype/StillImage"/>
    <dc:date>2026-02-27T11:10:03.036451</dc:date>
    <dc:format>image/svg+xml</dc:format>
    <dc:creator>
     <cc:Agent>
      <dc:title>Matplotlib v3.7.3, https://matplotlib.org/</dc:title>
     </cc:Agent>
    </dc:creator>
   </cc:Work>
  </rdf:RDF>
 </metadata>
 <defs>
  <style type="text/css">*{stroke-linejoin: round; stroke-linecap: butt}</style>
 </defs>
 <g id="figure_1">
  <g id="patch_1">
   <path d="M 0 1440 
L 1440 1440 
L 1440 0 
L 0 0 
z
" style="fill: #ffffff"/>
  </g>
  <g id="axes_1">
   <g id="line2d_1">
    <path d="M 1282.284359 878.706442 
L 1276.892436 876.152521 
L 1263.671144 872.792098 
L 1249.711232 875.211602 
L 1236.416078 882.335698 
L 1224.081129 893.492299 
L 1213.001834 907.874907 
L 1203.47364 925.080269 
L 1195.865858 944.301884 
L 1190.473934 965.002085 
" clip-path="url(#pcc75c5f5a3)" style="fill: none; stroke: #7a7a7a; stroke-width: 3; stroke-linecap: square"/>
   </g>
   <g id="line2d_2">
    <path d="M 1296.761305 805.449237 
L 1283.909323 798.997226 
L 1270.540306 796.980973 
L 1256.949705 798.862809 
L 1243.285241 804.373902 
L 1229.842363 813.110999 
L 1216.916518 824.536435 
L 1204.729294 838.381375 
L 1193.428413 854.242568 
L 1183.383185 871.582346 
L 1174.741335 890.131877 
L 1167.872172 909.353492 
L 1162.92342 928.843941 
L 1159.082598 948.737641 
" clip-path="url(#pcc75c5f5a3)" style="fill: none; stroke: #7a7a7a; stroke-width: 3; stroke-linecap: square"/>
   </g>
   <g id="line2d_3">
    <path d="M 1282.284359 878.706442 
L 1269.580101 865.80242 
L 1259.239426 849.40356 
L 1251.188471 829.913111 
L 1245.5011 808.003158 
L 1242.177311 784.211368 
L 1241.069382 759.07541 
L 1242.325035 733.13295 
L 1245.796547 706.921657 
L 1246.830615 702.082649 
" clip-path="url(#pcc75c5f5a3)" style="fill: none; stroke: #7a7a7a; stroke-width: 3; stroke-linecap: square"/>
   </g>
   <g id="line2d_4">
    <path d="M 1296.761305 805.449237 
L 1290.409176 800.072561 
L 1285.238838 793.62055 
L 1282.136635 788.243875 
L 1279.846914 783.539284 
L 1276.079954 772.785933 
L 1273.125475 759.209827 
L 1271.79596 747.515557 
L 1271.574374 741.33238 
L 1271.79596 734.611536 
L 1272.312994 728.966027 
L 1272.239132 727.08419 
L 1273.347061 722.245182 
" clip-path="url(#pcc75c5f5a3)" style="fill: none; stroke: #7a7a7a; stroke-width: 3; stroke-linecap: square"/>
   </g>
   <g id="line2d_5">
    <path d="M 1246.830615 702.082649 
L 1245.796547 706.921657 
L 1242.325035 733.13295 
L 1241.069382 759.07541 
L 1242.177311 784.211368 
L 1245.5011 808.003158 
L 1251.188471 829.913111 
L 1259.239426 849.40356 
L 1269.580101 865.80242 
L 1282.284359 878.706442 
" clip-path="url(#pcc75c5f5a3)" style="fill: none; stroke: #7a7a7a; stroke-width: 3; stroke-linecap: square"/>
   </g>
   <g id="line2d_6">
    <path d="M 1215.734727 688.237709 
L 1213.075696 699.394311 
L 1209.013288 725.202354 
L 1207.388325 752.220148 
L 1208.053082 779.506777 
L 1210.564389 806.927823 
L 1214.848383 833.945617 
L 1220.535755 859.75366 
L 1227.404918 884.083117 
L 1235.234286 906.396321 
L 1243.802274 926.155604 
L 1252.813434 942.823298 
L 1262.04618 955.996153 
L 1271.278926 965.136502 
" clip-path="url(#pcc75c5f5a3)" style="fill: none; stroke: #7a7a7a; stroke-width: 3; stroke-linecap: square"/>
   </g>
   <g id="line2d_7">
    <path d="M 1153.542951 787.975041 
L 1169.570997 793.889384 
L 1184.417253 794.561469 
L 1198.081717 790.394545 
L 1210.416665 781.657447 
L 1221.348236 768.619009 
L 1230.950292 751.548064 
L 1239.14897 730.847863 
L 1245.796547 706.518406 
L 1246.830615 702.082649 
" clip-path="url(#pcc75c5f5a3)" style="fill: none; stroke: #7a7a7a; stroke-width: 3; stroke-linecap: square"/>
   </g>
   <g id="line2d_8">
    <path d="M 1135.963802 871.716763 
L 1151.400953 874.539518 
L 1166.468795 874.539518 
L 1181.093464 871.985597 
L 1195.127238 866.743338 
L 1208.496254 858.812742 
L 1221.052788 848.059391 
L 1232.575255 834.617702 
L 1243.063655 818.487675 
L 1252.296401 799.534894 
L 1260.125769 777.759358 
L 1266.55176 753.161067 
L 1273.347061 722.245182 
" clip-path="url(#pcc75c5f5a3)" style="fill: none; stroke: #7a7a7a; stroke-width: 3; stroke-linecap: square"/>
   </g>
   <g id="line2d_9">
    <path d="M 1282.284359 878.706442 
L 1153.542951 787.975041 
" clip-path="url(#pcc75c5f5a3)" style="fill: none; stroke: #7a7a7a; stroke-width: 3; stroke-linecap: square"/>
   </g>
   <g id="line2d_10">
    <path d="M 1296.761305 805.449237 
L 1290.409176 800.072561 
L 1172.525476 713.911335 
" clip-path="url(#pcc75c5f5a3)" style="fill: none; stroke: #7a7a7a; stroke-width: 3; stroke-linecap: square"/>
   </g>
   <g id="line2d_11">
    <path d="M 763.625626 517.528259 
L 763.847212 517.797093 
L 796.05103 542.529801 
L 1153.542951 787.975041 
" clip-path="url(#pcc75c5f5a3)" style="fill: none; stroke: #7a7a7a; stroke-width: 3; stroke-linecap: square"/>
   </g>
   <g id="line2d_12">
    <path d="M 763.625626 611.888916 
L 763.847212 612.023333 
L 836.970559 662.429666 
L 946.064685 739.18171 
L 946.286271 740.122628 
L 1073.402716 828.703359 
L 1135.963802 871.716763 
" clip-path="url(#pcc75c5f5a3)" style="fill: none; stroke: #7a7a7a; stroke-width: 3; stroke-linecap: square"/>
   </g>
   <g id="line2d_13">
    <path d="M 1428.38333 980.460027 
L 1426.979953 979.519109 
L 1426.093609 978.847024 
L 1358.879219 931.801113 
L 1282.284359 878.706442 
" clip-path="url(#pcc75c5f5a3)" style="fill: none; stroke: #7a7a7a; stroke-width: 3; stroke-linecap: square"/>
   </g>
   <g id="line2d_14">
    <path d="M 1428.38333 893.89555 
L 1426.979953 892.954632 
L 1426.167471 892.148131 
L 1342.555724 833.8112 
L 1319.658515 820.503928 
L 1296.761305 805.449237 
" clip-path="url(#pcc75c5f5a3)" style="fill: none; stroke: #7a7a7a; stroke-width: 3; stroke-linecap: square"/>
   </g>
   <g id="line2d_15">
    <path d="M 1120.452789 1283.973364 
L 1120.748237 1282.360361 
L 1121.117547 1280.612942 
L 1121.339133 1279.80644 
L 1121.782305 1277.924604 
L 1122.225476 1275.90835 
L 1140.100073 1200.231642 
L 1190.473934 965.002085 
" clip-path="url(#pcc75c5f5a3)" style="fill: none; stroke: #7a7a7a; stroke-width: 3; stroke-linecap: square"/>
   </g>
   <g id="line2d_16">
    <path d="M 1154.28157 1283.973364 
L 1154.65088 1282.360361 
L 1155.02019 1280.612942 
L 1155.167914 1279.80644 
L 1155.611086 1277.924604 
L 1156.054257 1276.042767 
L 1211.820043 1018.903258 
L 1216.177899 998.337473 
L 1219.723273 980.056776 
" clip-path="url(#pcc75c5f5a3)" style="fill: none; stroke: #7a7a7a; stroke-width: 3; stroke-linecap: square"/>
   </g>
   <g id="line2d_17">
    <path d="M 1384.213874 74.221357 
L 1340.709175 264.421256 
L 1246.830615 702.082649 
" clip-path="url(#pcc75c5f5a3)" style="fill: none; stroke: #7a7a7a; stroke-width: 3; stroke-linecap: square"/>
   </g>
   <g id="line2d_18">
    <path d="M 1349.12944 74.221357 
L 1272.830027 426.124774 
L 1262.41549 476.127857 
L 1262.193904 476.127857 
L 1241.438691 574.52102 
L 1221.274374 667.268674 
L 1215.734727 688.237709 
" clip-path="url(#pcc75c5f5a3)" style="fill: none; stroke: #7a7a7a; stroke-width: 3; stroke-linecap: square"/>
   </g>
   <g id="line2d_19">
    <path d="M 1190.473934 965.002085 
L 1191.581864 959.222159 
L 1195.644272 931.263445 
L 1196.530615 903.304732 
L 1194.46248 876.286938 
L 1189.883038 851.150979 
L 1183.087737 828.837776 
L 1174.593611 810.288245 
L 1164.622246 796.308888 
L 1153.542951 787.975041 
" clip-path="url(#pcc75c5f5a3)" style="fill: none; stroke: #7a7a7a; stroke-width: 3; stroke-linecap: square"/>
   </g>
   <g id="line2d_20">
    <path d="M 1219.723273 980.056776 
L 1225.63223 950.619478 
L 1229.399191 923.467266 
L 1231.024154 896.449471 
L 1230.728706 869.834927 
L 1228.660571 844.026884 
L 1224.819749 819.428593 
L 1219.427825 796.174471 
L 1212.558662 774.667769 
L 1204.286122 755.446154 
L 1194.83179 738.644043 
L 1184.195667 724.664686 
L 1172.525476 713.911335 
" clip-path="url(#pcc75c5f5a3)" style="fill: none; stroke: #7a7a7a; stroke-width: 3; stroke-linecap: square"/>
   </g>
   <g id="line2d_21">
    <path d="M 1190.473934 965.002085 
L 1140.100073 1200.231642 
L 1122.225476 1275.90835 
L 1121.782305 1277.924604 
L 1121.339133 1279.80644 
L 1121.117547 1280.612942 
L 1120.748237 1282.360361 
L 1120.452789 1283.973364 
" clip-path="url(#pcc75c5f5a3)" style="fill: none; stroke: #7a7a7a; stroke-width: 3; stroke-linecap: square"/>
   </g>
   <g id="line2d_22">
    <path d="M 1159.082598 948.737641 
L 1156.645153 962.716998 
L 1132.12298 1074.283016 
L 1120.600513 1125.764685 
L 1088.027386 1275.90835 
L 1087.584214 1277.924604 
L 1087.214904 1279.80644 
L 1086.993318 1280.612942 
L 1086.624008 1282.360361 
L 1086.254698 1283.973364 
" clip-path="url(#pcc75c5f5a3)" style="fill: none; stroke: #7a7a7a; stroke-width: 3; stroke-linecap: square"/>
   </g>
   <g id="line2d_23">
    <path d="M 1153.542951 787.975041 
L 796.05103 542.529801 
L 763.847212 517.797093 
L 763.625626 517.528259 
" clip-path="url(#pcc75c5f5a3)" style="fill: none; stroke: #7a7a7a; stroke-width: 3; stroke-linecap: square"/>
   </g>
   <g id="line2d_24">
    <path d="M 1172.525476 713.911335 
L 763.921074 427.065692 
L 763.625626 426.796859 
" clip-path="url(#pcc75c5f5a3)" style="fill: none; stroke: #7a7a7a; stroke-width: 3; stroke-linecap: square"/>
   </g>
   <g id="line2d_25">
    <path d="M 1246.830615 702.082649 
L 1245.796547 706.518406 
L 1239.14897 730.847863 
L 1230.950292 751.548064 
L 1221.348236 768.619009 
L 1210.416665 781.657447 
L 1198.081717 790.394545 
L 1184.417253 794.561469 
L 1169.570997 793.889384 
L 1153.542951 787.975041 
" clip-path="url(#pcc75c5f5a3)" style="fill: none; stroke: #7a7a7a; stroke-width: 3; stroke-linecap: square"/>
   </g>
   <g id="line2d_26">
    <path d="M 1215.734727 688.237709 
L 1214.626797 692.673466 
L 1213.814316 693.883218 
L 1211.155285 700.335229 
L 1207.683772 707.19049 
L 1204.58157 711.895082 
L 1201.553229 715.389921 
L 1197.786269 718.347092 
L 1193.280689 720.228929 
L 1188.331937 720.497763 
L 1183.457047 719.556844 
L 1177.474228 716.465256 
L 1175.701541 715.121087 
L 1172.525476 713.911335 
" clip-path="url(#pcc75c5f5a3)" style="fill: none; stroke: #7a7a7a; stroke-width: 3; stroke-linecap: square"/>
   </g>
   <g id="line2d_27">
    <path d="M 1282.284359 878.706442 
L 1358.879219 931.801113 
L 1426.093609 978.847024 
L 1426.979953 979.519109 
L 1428.38333 980.460027 
" clip-path="url(#pcc75c5f5a3)" style="fill: none; stroke: #7a7a7a; stroke-width: 3; stroke-linecap: square"/>
   </g>
   <g id="line2d_28">
    <path d="M 1271.278926 965.136502 
L 1288.562626 978.981441 
L 1329.186708 1007.746656 
L 1346.174961 1019.172091 
L 1376.606091 1040.947627 
L 1426.093609 1075.761602 
L 1426.979953 1076.433686 
L 1428.38333 1077.374604 
" clip-path="url(#pcc75c5f5a3)" style="fill: none; stroke: #7a7a7a; stroke-width: 3; stroke-linecap: square"/>
   </g>
   <g id="line2d_29">
    <path d="M 1190.473934 965.002085 
L 1195.865858 944.301884 
L 1203.47364 925.080269 
L 1213.001834 907.874907 
L 1224.081129 893.492299 
L 1236.416078 882.335698 
L 1249.711232 875.211602 
L 1263.671144 872.792098 
L 1276.892436 876.152521 
L 1282.284359 878.706442 
" clip-path="url(#pcc75c5f5a3)" style="fill: none; stroke: #7a7a7a; stroke-width: 3; stroke-linecap: square"/>
   </g>
   <g id="line2d_30">
    <path d="M 1219.723273 980.056776 
L 1222.160718 971.991763 
L 1226.00154 965.270919 
L 1228.956019 962.044913 
L 1233.904771 958.146823 
L 1237.597869 955.592902 
L 1243.211379 952.904565 
L 1247.347649 951.694813 
L 1251.853229 951.157145 
L 1254.881569 951.963646 
L 1257.90991 953.576649 
L 1271.278926 965.136502 
" clip-path="url(#pcc75c5f5a3)" style="fill: none; stroke: #7a7a7a; stroke-width: 3; stroke-linecap: square"/>
   </g>
   <g id="line2d_31">
    <path d="M 1153.542951 787.975041 
L 1164.622246 796.308888 
L 1174.593611 810.288245 
L 1183.087737 828.837776 
L 1189.883038 851.150979 
L 1194.46248 876.286938 
L 1196.530615 903.304732 
L 1195.644272 931.263445 
L 1191.581864 959.222159 
L 1190.473934 965.002085 
" clip-path="url(#pcc75c5f5a3)" style="fill: none; stroke: #7a7a7a; stroke-width: 3; stroke-linecap: square"/>
   </g>
   <g id="line2d_32">
    <path d="M 1135.963802 871.716763 
L 1140.321658 875.480436 
L 1143.867033 879.109692 
L 1148.741923 883.814283 
L 1157.383773 902.229397 
L 1161.446181 923.198432 
L 1160.190528 942.957715 
L 1159.082598 948.737641 
" clip-path="url(#pcc75c5f5a3)" style="fill: none; stroke: #7a7a7a; stroke-width: 3; stroke-linecap: square"/>
   </g>
   <g id="line2d_33">
    <path d="M 1246.830615 702.082649 
L 1340.709175 264.421256 
L 1384.213874 74.221357 
" clip-path="url(#pcc75c5f5a3)" style="fill: none; stroke: #7a7a7a; stroke-width: 3; stroke-linecap: square"/>
   </g>
   <g id="line2d_34">
    <path d="M 1273.347061 722.245182 
L 1275.045886 714.852253 
L 1290.704624 654.49907 
L 1297.869234 623.179934 
L 1417.230173 74.221357 
" clip-path="url(#pcc75c5f5a3)" style="fill: none; stroke: #7a7a7a; stroke-width: 3; stroke-linecap: square"/>
   </g>
   <g id="line2d_35">
    <path d="M 1153.542951 787.975041 
L 1282.284359 878.706442 
" clip-path="url(#pcc75c5f5a3)" style="fill: none; stroke: #7a7a7a; stroke-width: 3; stroke-linecap: square"/>
   </g>
   <g id="line2d_36">
    <path d="M 1135.963802 871.716763 
L 1254.881569 951.963646 
L 1257.90991 953.576649 
L 1271.278926 965.136502 
" clip-path="url(#pcc75c5f5a3)" style="fill: none; stroke: #7a7a7a; stroke-width: 3; stroke-linecap: square"/>
   </g>
   <g id="line2d_37">
    <path d="M 1190.473934 965.002085 
L 1246.830615 702.082649 
" clip-path="url(#pcc75c5f5a3)" style="fill: none; stroke: #7a7a7a; stroke-width: 3; stroke-linecap: square"/>
   </g>
   <g id="line2d_38">
    <path d="M 1219.723273 980.056776 
L 1273.347061 722.245182 
" clip-path="url(#pcc75c5f5a3)" style="fill: none; stroke: #7a7a7a; stroke-width: 3; stroke-linecap: square"/>
   </g>
   <g id="line2d_39">
    <path d="M 1246.830615 702.082649 
L 1190.473934 965.002085 
" clip-path="url(#pcc75c5f5a3)" style="fill: none; stroke: #7a7a7a; stroke-width: 3; stroke-linecap: square"/>
   </g>
   <g id="line2d_40">
    <path d="M 1215.734727 688.237709 
L 1159.082598 948.737641 
" clip-path="url(#pcc75c5f5a3)" style="fill: none; stroke: #7a7a7a; stroke-width: 3; stroke-linecap: square"/>
   </g>
   <g id="line2d_41">
    <path d="M 272.015627 1441 
L 393.872618 880.722695 
" clip-path="url(#pcc75c5f5a3)" style="fill: none; stroke: #7a7a7a; stroke-width: 3; stroke-linecap: square"/>
   </g>
   <g id="line2d_42">
    <path d="M 295.889058 1441 
L 416.991414 880.722695 
" clip-path="url(#pcc75c5f5a3)" style="fill: none; stroke: #7a7a7a; stroke-width: 3; stroke-linecap: square"/>
   </g>
   <g id="line2d_43">
    <path d="M 367.725482 880.722695 
L 245.705512 1440.703457 
" clip-path="url(#pcc75c5f5a3)" style="fill: none; stroke: #7a7a7a; stroke-width: 3; stroke-linecap: square"/>
   </g>
   <g id="line2d_44">
    <path d="M 343.055585 880.722695 
L 329.908155 943.226549 
L 308.635908 1043.770382 
L 289.505659 1125.361434 
L 225.024162 1426.32085 
" clip-path="url(#pcc75c5f5a3)" style="fill: none; stroke: #7a7a7a; stroke-width: 3; stroke-linecap: square"/>
   </g>
   <g id="line2d_45">
    <path d="M 393.872618 880.722695 
L 272.015627 1441 
" clip-path="url(#pcc75c5f5a3)" style="fill: none; stroke: #7a7a7a; stroke-width: 3; stroke-linecap: square"/>
   </g>
   <g id="line2d_46">
    <path d="M 367.725482 880.722695 
L 245.705512 1440.703457 
" clip-path="url(#pcc75c5f5a3)" style="fill: none; stroke: #7a7a7a; stroke-width: 3; stroke-linecap: square"/>
   </g>
   <g id="line2d_47">
    <path d="M 295.889058 1441 
L 416.991414 880.722695 
" clip-path="url(#pcc75c5f5a3)" style="fill: none; stroke: #7a7a7a; stroke-width: 3; stroke-linecap: square"/>
   </g>
   <g id="line2d_48">
    <path d="M 323.786213 1441 
L 337.589799 1375.511266 
L 345.271444 1341.234959 
L 357.606393 1278.059021 
L 368.981136 1224.964349 
L 374.520783 1201.979061 
L 379.691121 1177.784021 
L 386.190974 1152.244812 
L 392.099931 1126.705603 
L 397.270269 1101.838478 
L 401.923573 1082.348029 
L 402.736055 1078.85319 
L 415.735761 1019.037674 
L 423.712853 980.863278 
L 434.644424 932.069947 
L 444.837376 880.722695 
" clip-path="url(#pcc75c5f5a3)" style="fill: none; stroke: #7a7a7a; stroke-width: 3; stroke-linecap: square"/>
   </g>
   <g id="line2d_49">
    <path d="M 583.241201 -1 
L 541.005657 190.895217 
" clip-path="url(#pcc75c5f5a3)" style="fill: none; stroke: #7a7a7a; stroke-width: 3; stroke-linecap: square"/>
   </g>
   <g id="line2d_50">
    <path d="M 560.496349 -1 
L 522.170855 177.050278 
" clip-path="url(#pcc75c5f5a3)" style="fill: none; stroke: #7a7a7a; stroke-width: 3; stroke-linecap: square"/>
   </g>
   <g id="line2d_51">
    <path d="M 541.005657 190.895217 
L 583.241201 -1 
" clip-path="url(#pcc75c5f5a3)" style="fill: none; stroke: #7a7a7a; stroke-width: 3; stroke-linecap: square"/>
   </g>
   <g id="line2d_52">
    <path d="M 566.26645 206.621994 
L 611.428028 -1 
" clip-path="url(#pcc75c5f5a3)" style="fill: none; stroke: #7a7a7a; stroke-width: 3; stroke-linecap: square"/>
   </g>
   <g id="line2d_53">
    <path d="M 560.496349 -1 
L 522.170855 177.050278 
" clip-path="url(#pcc75c5f5a3)" style="fill: none; stroke: #7a7a7a; stroke-width: 3; stroke-linecap: square"/>
   </g>
   <g id="line2d_54">
    <path d="M 534.918446 -1 
L 499.199784 160.248167 
" clip-path="url(#pcc75c5f5a3)" style="fill: none; stroke: #7a7a7a; stroke-width: 3; stroke-linecap: square"/>
   </g>
   <g id="line2d_55">
    <path d="M 594.998755 400.182315 
L 428.735467 286.73446 
" clip-path="url(#pcc75c5f5a3)" style="fill: none; stroke: #7a7a7a; stroke-width: 3; stroke-linecap: square"/>
   </g>
   <g id="line2d_56">
    <path d="M 611.396112 322.220519 
L 461.160871 220.735767 
L 456.212119 217.778595 
L 445.575995 210.116833 
" clip-path="url(#pcc75c5f5a3)" style="fill: none; stroke: #7a7a7a; stroke-width: 3; stroke-linecap: square"/>
   </g>
   <g id="line2d_57">
    <path d="M 475.194644 505.027488 
L 395.571444 872.926515 
L 395.202134 874.808352 
L 394.906686 876.286938 
L 394.6851 877.227856 
L 394.389652 878.572025 
L 393.872618 880.722695 
" clip-path="url(#pcc75c5f5a3)" style="fill: none; stroke: #7a7a7a; stroke-width: 3; stroke-linecap: square"/>
   </g>
   <g id="line2d_58">
    <path d="M 452.371296 490.241631 
L 369.424307 872.926515 
L 368.981136 874.808352 
L 368.685688 876.286938 
L 368.464102 877.227856 
L 368.168654 878.572025 
L 367.725482 880.722695 
" clip-path="url(#pcc75c5f5a3)" style="fill: none; stroke: #7a7a7a; stroke-width: 3; stroke-linecap: square"/>
   </g>
   <g id="line2d_59">
    <path d="M 418.32093 309.719748 
L 432.797875 317.381511 
L 447.348683 320.607516 
L 461.825628 319.666598 
L 475.78554 315.096423 
L 488.93297 307.03141 
L 501.120195 296.009225 
L 511.83018 282.164285 
L 520.915202 266.034259 
L 528.079813 247.887979 
L 532.880841 227.994279 
L 541.005657 190.895217 
" clip-path="url(#pcc75c5f5a3)" style="fill: none; stroke: #7a7a7a; stroke-width: 3; stroke-linecap: square"/>
   </g>
   <g id="line2d_60">
    <path d="M 406.576877 366.981343 
L 418.542515 375.31519 
L 426.59347 381.498367 
L 431.320636 383.649037 
L 445.502133 384.724372 
L 460.274527 381.767201 
L 475.342368 375.046356 
L 490.262486 364.965089 
L 504.665569 352.329902 
L 518.108447 337.140793 
L 530.295672 320.338682 
L 540.784071 302.057985 
L 549.204335 282.83637 
L 555.113293 263.211504 
L 558.141633 243.721055 
L 566.26645 206.621994 
" clip-path="url(#pcc75c5f5a3)" style="fill: none; stroke: #7a7a7a; stroke-width: 3; stroke-linecap: square"/>
   </g>
   <g id="line2d_61">
    <path d="M 393.872618 880.722695 
L 394.389652 878.572025 
L 394.6851 877.227856 
L 394.906686 876.286938 
L 395.202134 874.808352 
L 395.571444 872.926515 
L 475.194644 505.027488 
" clip-path="url(#pcc75c5f5a3)" style="fill: none; stroke: #7a7a7a; stroke-width: 3; stroke-linecap: square"/>
   </g>
   <g id="line2d_62">
    <path d="M 416.991414 880.722695 
L 417.434586 878.572025 
L 417.730034 877.227856 
L 417.95162 876.286938 
L 418.247068 874.808352 
L 418.690239 872.926515 
L 497.796406 519.813346 
" clip-path="url(#pcc75c5f5a3)" style="fill: none; stroke: #7a7a7a; stroke-width: 3; stroke-linecap: square"/>
   </g>
   <g id="line2d_63">
    <path d="M 416.991414 880.722695 
L 417.434586 878.572025 
L 417.730034 877.227856 
L 417.95162 876.286938 
L 418.247068 874.808352 
L 418.690239 872.926515 
L 497.796406 519.813346 
" clip-path="url(#pcc75c5f5a3)" style="fill: none; stroke: #7a7a7a; stroke-width: 3; stroke-linecap: square"/>
   </g>
   <g id="line2d_64">
    <path d="M 444.837376 880.722695 
L 445.280548 878.572025 
L 445.502133 877.227856 
L 445.723719 876.286938 
L 446.093029 874.808352 
L 446.462339 872.926515 
L 520.989064 534.733621 
" clip-path="url(#pcc75c5f5a3)" style="fill: none; stroke: #7a7a7a; stroke-width: 3; stroke-linecap: square"/>
   </g>
   <g id="line2d_65">
    <path d="M 566.26645 206.621994 
L 611.428028 -1 
" clip-path="url(#pcc75c5f5a3)" style="fill: none; stroke: #7a7a7a; stroke-width: 3; stroke-linecap: square"/>
   </g>
   <g id="line2d_66">
    <path d="M 587.390972 221.542268 
L 595.515789 182.830204 
L 627.350297 43.708723 
L 633.924012 10.911002 
L 636.596715 -1 
" clip-path="url(#pcc75c5f5a3)" style="fill: none; stroke: #7a7a7a; stroke-width: 3; stroke-linecap: square"/>
   </g>
   <g id="line2d_67">
    <path d="M 120.287892 73.280439 
L 418.32093 309.719748 
" clip-path="url(#pcc75c5f5a3)" style="fill: none; stroke: #7a7a7a; stroke-width: 3; stroke-linecap: square"/>
   </g>
   <g id="line2d_68">
    <path d="M 103.151916 151.511069 
L 406.576877 366.981343 
" clip-path="url(#pcc75c5f5a3)" style="fill: none; stroke: #7a7a7a; stroke-width: 3; stroke-linecap: square"/>
   </g>
   <g id="line2d_69">
    <path d="M 428.735467 286.73446 
L 120.287892 73.280439 
" clip-path="url(#pcc75c5f5a3)" style="fill: none; stroke: #7a7a7a; stroke-width: 3; stroke-linecap: square"/>
   </g>
   <g id="line2d_70">
    <path d="M 445.575995 210.116833 
L 341.430622 136.725211 
L 334.339873 132.02062 
L 323.629888 124.22444 
L 222.882165 53.386739 
L 185.951181 27.44428 
L 146.602233 -1 
" clip-path="url(#pcc75c5f5a3)" style="fill: none; stroke: #7a7a7a; stroke-width: 3; stroke-linecap: square"/>
   </g>
   <g id="line2d_71">
    <path d="M 594.998755 400.182315 
L 762.222249 516.452924 
L 763.625626 517.528259 
" clip-path="url(#pcc75c5f5a3)" style="fill: none; stroke: #7a7a7a; stroke-width: 3; stroke-linecap: square"/>
   </g>
   <g id="line2d_72">
    <path d="M 577.715055 482.311034 
L 587.464834 489.031879 
L 624.543542 514.839921 
L 762.222249 610.947998 
L 763.625626 611.888916 
" clip-path="url(#pcc75c5f5a3)" style="fill: none; stroke: #7a7a7a; stroke-width: 3; stroke-linecap: square"/>
   </g>
   <g id="line2d_73">
    <path d="M 522.170855 177.050278 
L 452.371296 490.241631 
" clip-path="url(#pcc75c5f5a3)" style="fill: none; stroke: #7a7a7a; stroke-width: 3; stroke-linecap: square"/>
   </g>
   <g id="line2d_74">
    <path d="M 499.199784 160.248167 
L 439.888624 433.920954 
L 439.076142 439.297629 
L 430.72974 476.262274 
" clip-path="url(#pcc75c5f5a3)" style="fill: none; stroke: #7a7a7a; stroke-width: 3; stroke-linecap: square"/>
   </g>
   <g id="line2d_75">
    <path d="M 541.005657 190.895217 
L 537.534145 206.890827 
L 533.545598 228.39753 
L 532.142221 251.651652 
L 533.028565 275.577858 
L 536.204629 299.638481 
L 541.448829 322.892603 
L 548.687302 344.668139 
L 557.772324 364.024171 
L 568.630033 380.154198 
L 581.038843 392.520552 
L 594.998755 400.182315 
" clip-path="url(#pcc75c5f5a3)" style="fill: none; stroke: #7a7a7a; stroke-width: 3; stroke-linecap: square"/>
   </g>
   <g id="line2d_76">
    <path d="M 522.170855 177.050278 
L 513.011971 219.929266 
L 509.909769 247.484728 
L 509.023425 275.577858 
L 510.131355 303.402154 
L 513.159695 330.8232 
L 517.739137 357.437744 
L 523.795819 382.573702 
L 531.034291 406.096658 
L 539.23297 427.334526 
L 548.24413 446.018474 
L 557.772324 461.74525 
L 567.669827 473.84277 
L 577.715055 482.311034 
" clip-path="url(#pcc75c5f5a3)" style="fill: none; stroke: #7a7a7a; stroke-width: 3; stroke-linecap: square"/>
   </g>
   <g id="line2d_77">
    <path d="M 541.005657 190.895217 
L 475.194644 505.027488 
" clip-path="url(#pcc75c5f5a3)" style="fill: none; stroke: #7a7a7a; stroke-width: 3; stroke-linecap: square"/>
   </g>
   <g id="line2d_78">
    <path d="M 522.170855 177.050278 
L 452.371296 490.241631 
" clip-path="url(#pcc75c5f5a3)" style="fill: none; stroke: #7a7a7a; stroke-width: 3; stroke-linecap: square"/>
   </g>
   <g id="line2d_79">
    <path d="M 594.998755 400.182315 
L 581.703601 389.025713 
L 567.448241 383.649037 
L 552.675848 383.380203 
L 537.903454 387.681544 
L 523.721957 395.880974 
L 510.796112 407.30641 
L 499.495231 421.689017 
L 490.557933 438.087877 
L 484.42739 456.099741 
L 481.620635 475.186939 
L 475.194644 505.027488 
" clip-path="url(#pcc75c5f5a3)" style="fill: none; stroke: #7a7a7a; stroke-width: 3; stroke-linecap: square"/>
   </g>
   <g id="line2d_80">
    <path d="M 611.396112 322.220519 
L 598.396405 315.096423 
L 584.731942 311.601584 
L 570.624306 311.467167 
L 556.221222 314.558756 
L 541.892001 320.741933 
L 527.858227 329.747864 
L 514.341487 341.442134 
L 501.637229 355.824741 
L 489.967038 372.492435 
L 479.5525 391.579634 
L 470.762926 412.548668 
L 463.746039 435.668373 
L 458.797288 460.401081 
L 452.371296 490.241631 
" clip-path="url(#pcc75c5f5a3)" style="fill: none; stroke: #7a7a7a; stroke-width: 3; stroke-linecap: square"/>
   </g>
   <g id="line2d_81">
    <path d="M 475.194644 505.027488 
L 541.005657 190.895217 
" clip-path="url(#pcc75c5f5a3)" style="fill: none; stroke: #7a7a7a; stroke-width: 3; stroke-linecap: square"/>
   </g>
   <g id="line2d_82">
    <path d="M 497.796406 519.813346 
L 566.26645 206.621994 
" clip-path="url(#pcc75c5f5a3)" style="fill: none; stroke: #7a7a7a; stroke-width: 3; stroke-linecap: square"/>
   </g>
   <g id="line2d_83">
    <path d="M 418.32093 309.719748 
L 594.998755 400.182315 
" clip-path="url(#pcc75c5f5a3)" style="fill: none; stroke: #7a7a7a; stroke-width: 3; stroke-linecap: square"/>
   </g>
   <g id="line2d_84">
    <path d="M 406.576877 366.981343 
L 560.726802 470.885599 
L 563.238109 472.229767 
L 577.715055 482.311034 
" clip-path="url(#pcc75c5f5a3)" style="fill: none; stroke: #7a7a7a; stroke-width: 3; stroke-linecap: square"/>
   </g>
   <g id="line2d_85">
    <path d="M 475.194644 505.027488 
L 481.842221 474.649271 
L 486.273939 453.814654 
L 487.529593 430.022864 
L 485.830768 404.752489 
L 481.546773 378.944446 
L 474.825334 354.077321 
L 465.961898 331.092033 
L 455.104189 311.467167 
L 442.621517 296.278059 
L 428.735467 286.73446 
" clip-path="url(#pcc75c5f5a3)" style="fill: none; stroke: #7a7a7a; stroke-width: 3; stroke-linecap: square"/>
   </g>
   <g id="line2d_86">
    <path d="M 497.796406 519.813346 
L 504.517845 489.435129 
L 510.279079 464.568005 
L 513.676729 438.491128 
L 515.006245 411.473333 
L 514.341487 384.052288 
L 511.904042 356.900076 
L 507.767772 330.554366 
L 502.154262 305.418407 
L 495.137375 282.029869 
L 486.938697 260.926417 
L 477.779813 242.780137 
L 467.660724 227.859862 
L 460.126803 220.063682 
L 456.212119 217.778595 
L 445.575995 210.116833 
" clip-path="url(#pcc75c5f5a3)" style="fill: none; stroke: #7a7a7a; stroke-width: 3; stroke-linecap: square"/>
   </g>
   <g id="line2d_87">
    <path d="M 594.998755 400.182315 
L 583.106978 389.966631 
L 572.692441 376.256108 
L 564.050591 359.31958 
L 557.698462 339.157047 
L 553.857639 315.634091 
L 552.971296 289.288381 
L 555.482603 259.851082 
L 561.76087 227.591028 
L 566.26645 206.621994 
" clip-path="url(#pcc75c5f5a3)" style="fill: none; stroke: #7a7a7a; stroke-width: 3; stroke-linecap: square"/>
   </g>
   <g id="line2d_88">
    <path d="M 611.396112 322.220519 
L 603.862191 317.112677 
L 598.322544 312.676919 
L 594.333997 308.913247 
L 590.714761 304.343072 
L 587.464834 299.23523 
L 584.362632 292.78322 
L 582.294497 286.331209 
L 580.891119 280.148032 
L 580.004776 272.486269 
L 579.857052 267.109594 
L 580.004776 262.270586 
L 581.260429 252.59257 
L 582.959254 243.721055 
L 582.959254 242.511303 
L 587.390972 221.542268 
" clip-path="url(#pcc75c5f5a3)" style="fill: none; stroke: #7a7a7a; stroke-width: 3; stroke-linecap: square"/>
   </g>
   <g id="line2d_89">
    <path d="M 418.32093 309.719748 
L 433.093323 319.12893 
L 445.132824 330.285532 
L 454.513293 343.32397 
L 461.234732 358.781913 
L 465.223279 376.793776 
L 466.552794 397.493977 
L 465.297141 421.420183 
L 461.308594 448.706812 
L 452.371296 490.241631 
" clip-path="url(#pcc75c5f5a3)" style="fill: none; stroke: #7a7a7a; stroke-width: 3; stroke-linecap: square"/>
   </g>
   <g id="line2d_90">
    <path d="M 406.576877 366.981343 
L 418.542515 375.31519 
L 425.928712 380.960699 
L 430.138844 384.858789 
L 433.905805 389.697797 
L 436.860283 395.20889 
L 438.485247 399.375813 
L 439.888624 404.349238 
L 440.701106 408.516162 
L 441.218139 414.027254 
L 441.070415 425.721524 
L 439.076142 439.297629 
L 430.72974 476.262274 
" clip-path="url(#pcc75c5f5a3)" style="fill: none; stroke: #7a7a7a; stroke-width: 3; stroke-linecap: square"/>
   </g>
   <g id="line2d_91">
    <path d="M 497.796406 519.813346 
L 504.665569 489.166296 
L 513.159695 463.223836 
L 522.835613 440.910632 
L 533.397874 422.495518 
L 544.772617 408.381745 
L 556.812118 398.838146 
L 569.29479 393.999138 
L 582.072911 394.402388 
L 594.998755 400.182315 
" clip-path="url(#pcc75c5f5a3)" style="fill: none; stroke: #7a7a7a; stroke-width: 3; stroke-linecap: square"/>
   </g>
   <g id="line2d_92">
    <path d="M 520.989064 534.733621 
L 529.11388 494.542971 
L 531.772911 484.192871 
L 535.539871 475.321356 
L 537.164835 472.364184 
L 539.750004 469.003762 
L 542.556758 466.718675 
L 545.289651 465.777757 
L 547.948682 465.777757 
L 556.88598 468.734928 
L 563.238109 472.229767 
L 577.715055 482.311034 
" clip-path="url(#pcc75c5f5a3)" style="fill: none; stroke: #7a7a7a; stroke-width: 3; stroke-linecap: square"/>
   </g>
   <g id="line2d_93">
    <path d="M 763.625626 517.528259 
L 762.222249 516.452924 
L 594.998755 400.182315 
" clip-path="url(#pcc75c5f5a3)" style="fill: none; stroke: #7a7a7a; stroke-width: 3; stroke-linecap: square"/>
   </g>
   <g id="line2d_94">
    <path d="M 763.625626 426.796859 
L 762.222249 425.85594 
L 761.483629 425.318273 
L 611.396112 322.220519 
" clip-path="url(#pcc75c5f5a3)" style="fill: none; stroke: #7a7a7a; stroke-width: 3; stroke-linecap: square"/>
   </g>
   <g id="line2d_95">
    <path d="M 452.371296 490.241631 
L 369.424307 872.926515 
L 368.981136 874.808352 
L 368.685688 876.286938 
L 368.464102 877.227856 
L 368.168654 878.572025 
L 367.725482 880.722695 
" clip-path="url(#pcc75c5f5a3)" style="fill: none; stroke: #7a7a7a; stroke-width: 3; stroke-linecap: square"/>
   </g>
   <g id="line2d_96">
    <path d="M 430.72974 476.262274 
L 344.680548 872.926515 
L 344.311239 874.808352 
L 344.015791 876.286938 
L 343.794205 877.227856 
L 343.498757 878.572025 
L 343.055585 880.722695 
" clip-path="url(#pcc75c5f5a3)" style="fill: none; stroke: #7a7a7a; stroke-width: 3; stroke-linecap: square"/>
   </g>
   <g id="line2d_97">
    <path d="M 497.796406 519.813346 
L 566.26645 206.621994 
" clip-path="url(#pcc75c5f5a3)" style="fill: none; stroke: #7a7a7a; stroke-width: 3; stroke-linecap: square"/>
   </g>
   <g id="line2d_98">
    <path d="M 520.989064 534.733621 
L 529.11388 494.542971 
L 531.403601 485.805873 
L 587.390972 221.542268 
" clip-path="url(#pcc75c5f5a3)" style="fill: none; stroke: #7a7a7a; stroke-width: 3; stroke-linecap: square"/>
   </g>
   <g id="line2d_99">
    <path d="M 522.170855 177.050278 
L 516.631208 202.589487 
L 510.574527 228.263113 
L 502.301986 250.576316 
L 492.256759 268.857013 
L 480.734292 282.83637 
L 468.177757 291.976718 
L 455.104189 296.009225 
L 441.809035 294.396222 
L 428.735467 286.73446 
" clip-path="url(#pcc75c5f5a3)" style="fill: none; stroke: #7a7a7a; stroke-width: 3; stroke-linecap: square"/>
   </g>
   <g id="line2d_100">
    <path d="M 499.199784 160.248167 
L 493.660136 185.787376 
L 491.296553 196.137476 
L 488.93297 205.008991 
L 486.126215 212.40192 
L 482.950151 217.778595 
L 479.995672 220.870184 
L 477.262779 222.617603 
L 474.973058 223.558522 
L 472.01858 224.230606 
L 469.285687 224.096189 
L 464.410797 222.617603 
L 456.212119 217.778595 
L 445.575995 210.116833 
" clip-path="url(#pcc75c5f5a3)" style="fill: none; stroke: #7a7a7a; stroke-width: 3; stroke-linecap: square"/>
   </g>
   <g id="line2d_101">
    <path d="M 147.723934 67.208445 
L 279.18417 114.490636 
" clip-path="url(#pcc75c5f5a3)" style="fill: none; stroke-dasharray: 32,8,5,8; stroke-dashoffset: 0; stroke: #1e90ff; stroke-width: 5"/>
   </g>
   <g id="line2d_102">
    <path d="M 835.020719 639.192346 
L 809.993125 617.576037 
" clip-path="url(#pcc75c5f5a3)" style="fill: none; stroke-dasharray: 32,8,5,8; stroke-dashoffset: 0; stroke: #1e90ff; stroke-width: 5"/>
   </g>
   <g id="line2d_103">
    <path d="M 1257.532449 881.195254 
L 1329.207049 968.553106 
" clip-path="url(#pcc75c5f5a3)" style="fill: none; stroke-dasharray: 32,8,5,8; stroke-dashoffset: 0; stroke: #1e90ff; stroke-width: 5"/>
   </g>
   <g id="line2d_104">
    <path d="M 327.012319 1036.749331 
L 371.746054 852.54306 
" clip-path="url(#pcc75c5f5a3)" style="fill: none; stroke-dasharray: 32,8,5,8; stroke-dashoffset: 0; stroke: #1e90ff; stroke-width: 5"/>
   </g>
   <g id="line2d_105">
    <path d="M 579.053659 408.179726 
L 972.152241 733.494196 
" clip-path="url(#pcc75c5f5a3)" style="fill: none; stroke-dasharray: 32,8,5,8; stroke-dashoffset: 0; stroke: #1e90ff; stroke-width: 5"/>
   </g>
   <g id="line2d_106">
    <path d="M 147.723934 67.208445 
" clip-path="url(#pcc75c5f5a3)" style="fill: none; stroke: #0000ff; stroke-width: 1.5; stroke-linecap: square"/>
    <defs>
     <path id="m62b8b16bf2" d="M 0 10 
C 2.652031 10 5.195799 8.946337 7.071068 7.071068 
C 8.946337 5.195799 10 2.652031 10 0 
C 10 -2.652031 8.946337 -5.195799 7.071068 -7.071068 
C 5.195799 -8.946337 2.652031 -10 0 -10 
C -2.652031 -10 -5.195799 -8.946337 -7.071068 -7.071068 
C -8.946337 -5.195799 -10 -2.652031 -10 0 
C -10 2.652031 -8.946337 5.195799 -7.071068 7.071068 
C -5.195799 8.946337 -2.652031 10 0 10 
z
" style="stroke: #0000ff"/>
    </defs>
    <g clip-path="url(#pcc75c5f5a3)">
     <use xlink:href="#m62b8b16bf2" x="147.723934" y="67.208445" style="fill: #0000ff; stroke: #0000ff"/>
    </g>
   </g>
   <g id="line2d_107">
    <path d="M 835.020719 639.192346 
" clip-path="url(#pcc75c5f5a3)" style="fill: none; stroke: #0000ff; stroke-width: 1.5; stroke-linecap: square"/>
    <g clip-path="url(#pcc75c5f5a3)">
     <use xlink:href="#m62b8b16bf2" x="835.020719" y="639.192346" style="fill: #0000ff; stroke: #0000ff"/>
    </g>
   </g>
   <g id="line2d_108">
    <path d="M 1257.532449 881.195254 
" clip-path="url(#pcc75c5f5a3)" style="fill: none; stroke: #0000ff; stroke-width: 1.5; stroke-linecap: square"/>
    <g clip-path="url(#pcc75c5f5a3)">
     <use xlink:href="#m62b8b16bf2" x="1257.532449" y="881.195254" style="fill: #0000ff; stroke: #0000ff"/>
    </g>
   </g>
   <g id="line2d_109">
    <path d="M 327.012319 1036.749331 
" clip-path="url(#pcc75c5f5a3)" style="fill: none; stroke: #0000ff; stroke-width: 1.5; stroke-linecap: square"/>
    <g clip-path="url(#pcc75c5f5a3)">
     <use xlink:href="#m62b8b16bf2" x="327.012319" y="1036.749331" style="fill: #0000ff; stroke: #0000ff"/>
    </g>
   </g>
   <g id="line2d_110">
    <path d="M 579.053659 408.179726 
" clip-path="url(#pcc75c5f5a3)" style="fill: none; stroke: #0000ff; stroke-width: 1.5; stroke-linecap: square"/>
    <g clip-path="url(#pcc75c5f5a3)">
     <use xlink:href="#m62b8b16bf2" x="579.053659" y="408.179726" style="fill: #0000ff; stroke: #0000ff"/>
    </g>
   </g>
   <g id="line2d_111">
    <path d="M 279.18417 114.490636 
" clip-path="url(#pcc75c5f5a3)" style="fill: none; stroke: #ff0000; stroke-width: 1.5; stroke-linecap: square"/>
    <defs>
     <path id="m3ef8a74e55" d="M 0 -10 
L -2.24514 -3.09017 
L -9.510565 -3.09017 
L -3.632713 1.18034 
L -5.877853 8.09017 
L -0 3.81966 
L 5.877853 8.09017 
L 3.632713 1.18034 
L 9.510565 -3.09017 
L 2.24514 -3.09017 
z
" style="stroke: #ff0000; stroke-linejoin: bevel"/>
    </defs>
    <g clip-path="url(#pcc75c5f5a3)">
     <use xlink:href="#m3ef8a74e55" x="279.18417" y="114.490636" style="fill: #ff0000; stroke: #ff0000; stroke-linejoin: bevel"/>
    </g>
   </g>
   <g id="line2d_112">
    <path d="M 809.993125 617.576037 
" clip-path="url(#pcc75c5f5a3)" style="fill: none; stroke: #ff0000; stroke-width: 1.5; stroke-linecap: square"/>
    <g clip-path="url(#pcc75c5f5a3)">
     <use xlink:href="#m3ef8a74e55" x="809.993125" y="617.576037" style="fill: #ff0000; stroke: #ff0000; stroke-linejoin: bevel"/>
    </g>
   </g>
   <g id="line2d_113">
    <path d="M 1329.207049 968.553106 
" clip-path="url(#pcc75c5f5a3)" style="fill: none; stroke: #ff0000; stroke-width: 1.5; stroke-linecap: square"/>
    <g clip-path="url(#pcc75c5f5a3)">
     <use xlink:href="#m3ef8a74e55" x="1329.207049" y="968.553106" style="fill: #ff0000; stroke: #ff0000; stroke-linejoin: bevel"/>
    </g>
   </g>
   <g id="line2d_114">
    <path d="M 371.746054 852.54306 
" clip-path="url(#pcc75c5f5a3)" style="fill: none; stroke: #ff0000; stroke-width: 1.5; stroke-linecap: square"/>
    <g clip-path="url(#pcc75c5f5a3)">
     <use xlink:href="#m3ef8a74e55" x="371.746054" y="852.54306" style="fill: #ff0000; stroke: #ff0000; stroke-linejoin: bevel"/>
    </g>
   </g>
   <g id="line2d_115">
    <path d="M 972.152241 733.494196 
" clip-path="url(#pcc75c5f5a3)" style="fill: none; stroke: #ff0000; stroke-width: 1.5; stroke-linecap: square"/>
    <g clip-path="url(#pcc75c5f5a3)">
     <use xlink:href="#m3ef8a74e55" x="972.152241" y="733.494196" style="fill: #ff0000; stroke: #ff0000; stroke-linejoin: bevel"/>
    </g>
   </g>
  </g>
 </g>
 <defs>
  <clipPath id="pcc75c5f5a3">
   <rect x="0" y="0" width="1440" height="1440"/>
  </clipPath>
 </defs>
</svg>
