<?xml version="1.0" encoding="utf-8" standalone="no"?>
<!DOCTYPE svg PUBLIC "-//W3C//DTD SVG 1.1//EN"
  "http://www.w3.org/Graphics/SVG/1.1/DTD/svg11.dtd">
<svg xmlns:xlink="http://www.w3.org/1999/xlink" width="1440pt" height="1440pt" viewBox="0 0 1440 1440" xmlns="http://www.w3.org/2000/svg" version="1.1">
 <metadata>
  <rdf:RDF xmlns:dc="http://purl.org/dc/elements/1.1/" xmlns:cc="http://creativecommons.org/ns#" xmlns:rdf="http://www.w3.org/1999/02/22-rdf-syntax-ns#">
   <cc:Work>
    <dc:type rdf:resource="http://purl.org/dc/dcmitype/StillImage"/>
    <dc:date>2026-02-27T11:09:31.424668</dc:date>
    <dc:format>image/svg+xml</dc:format>
    <dc:creator>
     <cc:Agent>
      <dc:title>Matplotlib v3.7.3, https://matplotlib.org/</dc:title>
     </cc:Agent>
    </dc:creator>
   </cc:Work>
  </rdf:RDF>
 </metadata>
 <defs>
  <style type="text/css">*{stroke-linejoin: round; stroke-linecap: butt}</style>
 </defs>
 <g id="figure_1">
  <g id="patch_1">
   <path d="M 0 1440 
L 1440 1440 
L 1440 0 
L 0 0 
z
" style="fill: #ffffff"/>
  </g>
  <g id="axes_1">
   <g id="line2d_1">
    <path d="M 1126.621096 1385.930716 
L 1126.28232 1388.308665 
L 1126.214565 1388.942785 
L 1119.316759 1441 
" clip-path="url(#p2ece0c45f6)" style="fill: none; stroke: #7a7a7a; stroke-width: 3; stroke-linecap: square"/>
   </g>
   <g id="line2d_2">
    <path d="M 1085.087212 1385.930716 
L 1084.748437 1388.467195 
L 1084.680681 1388.942785 
L 1077.931488 1441 
" clip-path="url(#p2ece0c45f6)" style="fill: none; stroke: #7a7a7a; stroke-width: 3; stroke-linecap: square"/>
   </g>
   <g id="line2d_3">
    <path d="M 408.958953 249.746766 
L 560.527138 368.644207 
" clip-path="url(#p2ece0c45f6)" style="fill: none; stroke: #7a7a7a; stroke-width: 3; stroke-linecap: square"/>
   </g>
   <g id="line2d_4">
    <path d="M 401.980176 301.74458 
L 552.59979 422.86144 
" clip-path="url(#p2ece0c45f6)" style="fill: none; stroke: #7a7a7a; stroke-width: 3; stroke-linecap: square"/>
   </g>
   <g id="line2d_5">
    <path d="M 408.958953 249.746766 
L 320.064246 179.04242 
L 319.251185 178.408301 
L 318.709144 177.932711 
" clip-path="url(#p2ece0c45f6)" style="fill: none; stroke: #7a7a7a; stroke-width: 3; stroke-linecap: square"/>
   </g>
   <g id="line2d_6">
    <path d="M 416.818546 194.261293 
L 320.064246 117.215751 
L 319.251185 116.581631 
L 318.709144 116.106041 
" clip-path="url(#p2ece0c45f6)" style="fill: none; stroke: #7a7a7a; stroke-width: 3; stroke-linecap: square"/>
   </g>
   <g id="line2d_7">
    <path d="M 464.043859 517.979394 
L 466.144267 502.126401 
L 467.567124 463.76216 
L 467.567124 428.251458 
L 466.144267 395.752824 
L 463.095287 366.107728 
L 458.48794 339.474701 
L 452.254469 315.695213 
L 444.191611 294.927793 
L 434.36712 276.855382 
L 422.57773 261.95357 
L 408.958953 249.746766 
" clip-path="url(#p2ece0c45f6)" style="fill: none; stroke: #7a7a7a; stroke-width: 3; stroke-linecap: square"/>
   </g>
   <g id="line2d_8">
    <path d="M 499.344272 526.698539 
L 501.783456 491.663426 
L 502.664272 457.896553 
L 502.122231 425.714979 
L 500.225088 394.960174 
L 496.972843 365.949198 
L 492.501006 338.523522 
L 486.877331 313.158734 
L 480.10182 289.854836 
L 472.309982 268.453296 
L 463.637328 249.429706 
L 454.016102 232.625534 
L 443.64957 218.199311 
L 432.469977 206.468097 
L 416.818546 194.261293 
" clip-path="url(#p2ece0c45f6)" style="fill: none; stroke: #7a7a7a; stroke-width: 3; stroke-linecap: square"/>
   </g>
   <g id="line2d_9">
    <path d="M 518.857744 107.386896 
L 533.30563 -1 
" clip-path="url(#p2ece0c45f6)" style="fill: none; stroke: #7a7a7a; stroke-width: 3; stroke-linecap: square"/>
   </g>
   <g id="line2d_10">
    <path d="M 552.532034 134.812572 
L 570.531558 -1 
" clip-path="url(#p2ece0c45f6)" style="fill: none; stroke: #7a7a7a; stroke-width: 3; stroke-linecap: square"/>
   </g>
   <g id="line2d_11">
    <path d="M 347.572822 1385.930716 
L 347.776087 1384.345417 
L 347.979352 1383.077177 
L 464.043859 517.979394 
" clip-path="url(#p2ece0c45f6)" style="fill: none; stroke: #7a7a7a; stroke-width: 3; stroke-linecap: square"/>
   </g>
   <g id="line2d_12">
    <path d="M 385.244664 1385.930716 
L 385.447929 1384.345417 
L 385.583439 1383.077177 
L 499.344272 526.698539 
" clip-path="url(#p2ece0c45f6)" style="fill: none; stroke: #7a7a7a; stroke-width: 3; stroke-linecap: square"/>
   </g>
   <g id="line2d_13">
    <path d="M 464.043859 517.979394 
L 518.857744 107.386896 
" clip-path="url(#p2ece0c45f6)" style="fill: none; stroke: #7a7a7a; stroke-width: 3; stroke-linecap: square"/>
   </g>
   <g id="line2d_14">
    <path d="M 499.344272 526.698539 
L 552.532034 134.812572 
" clip-path="url(#p2ece0c45f6)" style="fill: none; stroke: #7a7a7a; stroke-width: 3; stroke-linecap: square"/>
   </g>
   <g id="line2d_15">
    <path d="M 1119.316759 1441 
L 1126.214565 1388.942785 
L 1126.28232 1388.308665 
L 1126.621096 1385.930716 
" clip-path="url(#p2ece0c45f6)" style="fill: none; stroke: #7a7a7a; stroke-width: 3; stroke-linecap: square"/>
   </g>
   <g id="line2d_16">
    <path d="M 1161.340342 1441 
L 1168.358244 1388.942785 
L 1168.493755 1388.308665 
L 1168.69702 1385.930716 
" clip-path="url(#p2ece0c45f6)" style="fill: none; stroke: #7a7a7a; stroke-width: 3; stroke-linecap: square"/>
   </g>
   <g id="line2d_17">
    <path d="M 408.958953 249.746766 
L 419.732016 259.258561 
L 431.114874 262.587689 
L 443.243039 260.84386 
L 455.70998 254.027074 
L 468.109165 243.088509 
L 480.10182 228.028166 
L 491.145903 209.321636 
L 501.03815 187.603036 
L 509.168763 163.030898 
L 515.266723 136.239342 
L 518.857744 107.386896 
" clip-path="url(#p2ece0c45f6)" style="fill: none; stroke: #7a7a7a; stroke-width: 3; stroke-linecap: square"/>
   </g>
   <g id="line2d_18">
    <path d="M 401.980176 301.74458 
L 414.853648 313.317264 
L 427.523853 320.134051 
L 440.532835 322.67053 
L 453.677327 321.40229 
L 466.754063 316.329333 
L 479.559779 307.610187 
L 492.02672 295.720443 
L 503.883864 280.50157 
L 514.927948 262.429159 
L 525.091214 241.66174 
L 534.034889 218.199311 
L 541.758972 192.517464 
L 547.992442 164.616198 
L 552.532034 134.812572 
" clip-path="url(#p2ece0c45f6)" style="fill: none; stroke: #7a7a7a; stroke-width: 3; stroke-linecap: square"/>
   </g>
   <g id="line2d_19">
    <path d="M 518.857744 107.386896 
L 515.266723 136.239342 
L 509.168763 163.030898 
L 501.03815 187.603036 
L 491.145903 209.321636 
L 480.10182 228.028166 
L 468.109165 243.088509 
L 455.70998 254.027074 
L 443.243039 260.84386 
L 431.114874 262.587689 
L 419.732016 259.258561 
L 408.958953 249.746766 
" clip-path="url(#p2ece0c45f6)" style="fill: none; stroke: #7a7a7a; stroke-width: 3; stroke-linecap: square"/>
   </g>
   <g id="line2d_20">
    <path d="M 483.354066 80.912399 
L 479.356514 109.764845 
L 478.678963 113.252503 
L 477.459371 122.130178 
L 475.968758 130.215205 
L 474.071615 138.45876 
L 472.987533 144.324368 
L 464.043859 169.530625 
L 453.270796 186.493327 
L 441.278141 195.688062 
L 428.878956 198.066011 
L 416.818546 194.261293 
" clip-path="url(#p2ece0c45f6)" style="fill: none; stroke: #7a7a7a; stroke-width: 3; stroke-linecap: square"/>
   </g>
   <g id="line2d_21">
    <path d="M 518.857744 107.386896 
L 514.589172 138.141701 
L 510.117335 166.360027 
L 508.626722 196.322182 
L 509.914069 226.759927 
L 513.708356 257.039142 
L 519.670805 285.891588 
L 527.598153 312.524615 
L 537.219379 335.828513 
L 548.331218 354.852104 
L 560.527138 368.644207 
" clip-path="url(#p2ece0c45f6)" style="fill: none; stroke: #7a7a7a; stroke-width: 3; stroke-linecap: square"/>
   </g>
   <g id="line2d_22">
    <path d="M 483.354066 80.912399 
L 479.085493 111.667204 
L 476.375289 138.141701 
L 475.358962 166.201497 
L 475.968758 195.212473 
L 478.069167 224.857568 
L 481.592433 254.344133 
L 486.538556 283.355109 
L 492.704271 311.097845 
L 500.157333 337.255283 
L 508.694477 361.034771 
L 518.247948 382.11925 
L 528.817745 399.716072 
L 540.336114 413.508175 
L 552.59979 422.86144 
" clip-path="url(#p2ece0c45f6)" style="fill: none; stroke: #7a7a7a; stroke-width: 3; stroke-linecap: square"/>
   </g>
   <g id="line2d_23">
    <path d="M 533.30563 -1 
L 518.857744 107.386896 
" clip-path="url(#p2ece0c45f6)" style="fill: none; stroke: #7a7a7a; stroke-width: 3; stroke-linecap: square"/>
   </g>
   <g id="line2d_24">
    <path d="M 494.759032 -1 
L 489.181005 40.328739 
L 483.354066 80.912399 
" clip-path="url(#p2ece0c45f6)" style="fill: none; stroke: #7a7a7a; stroke-width: 3; stroke-linecap: square"/>
   </g>
   <g id="line2d_25">
    <path d="M 560.527138 368.644207 
L 725.917365 488.968418 
" clip-path="url(#p2ece0c45f6)" style="fill: none; stroke: #7a7a7a; stroke-width: 3; stroke-linecap: square"/>
   </g>
   <g id="line2d_26">
    <path d="M 552.59979 422.86144 
L 718.870834 544.77095 
" clip-path="url(#p2ece0c45f6)" style="fill: none; stroke: #7a7a7a; stroke-width: 3; stroke-linecap: square"/>
   </g>
   <g id="line2d_27">
    <path d="M 518.857744 107.386896 
L 464.043859 517.979394 
" clip-path="url(#p2ece0c45f6)" style="fill: none; stroke: #7a7a7a; stroke-width: 3; stroke-linecap: square"/>
   </g>
   <g id="line2d_28">
    <path d="M 483.354066 80.912399 
L 440.532835 511.796727 
" clip-path="url(#p2ece0c45f6)" style="fill: none; stroke: #7a7a7a; stroke-width: 3; stroke-linecap: square"/>
   </g>
   <g id="line2d_29">
    <path d="M 560.527138 368.644207 
L 548.060197 359.449472 
L 535.254481 357.547113 
L 522.51652 361.98595 
L 510.18509 371.973335 
L 498.734476 386.558088 
L 488.503454 405.264619 
L 479.96631 426.983218 
L 473.529574 450.921237 
L 469.599778 476.444554 
L 464.043859 517.979394 
" clip-path="url(#p2ece0c45f6)" style="fill: none; stroke: #7a7a7a; stroke-width: 3; stroke-linecap: square"/>
   </g>
   <g id="line2d_30">
    <path d="M 568.454486 310.939316 
L 552.328769 303.963999 
L 537.287134 302.53723 
L 523.397336 306.024888 
L 510.523865 313.951384 
L 498.802231 325.682598 
L 488.164678 340.742941 
L 478.543453 358.498292 
L 470.006309 378.156002 
L 462.553246 399.557542 
L 456.184266 421.910261 
L 450.831612 444.58004 
L 446.495285 467.091289 
L 440.532835 511.796727 
" clip-path="url(#p2ece0c45f6)" style="fill: none; stroke: #7a7a7a; stroke-width: 3; stroke-linecap: square"/>
   </g>
   <g id="line2d_31">
    <path d="M 560.527138 368.644207 
L 408.958953 249.746766 
" clip-path="url(#p2ece0c45f6)" style="fill: none; stroke: #7a7a7a; stroke-width: 3; stroke-linecap: square"/>
   </g>
   <g id="line2d_32">
    <path d="M 568.454486 310.939316 
L 416.818546 194.261293 
" clip-path="url(#p2ece0c45f6)" style="fill: none; stroke: #7a7a7a; stroke-width: 3; stroke-linecap: square"/>
   </g>
   <g id="line2d_33">
    <path d="M 408.958953 249.746766 
L 422.57773 261.95357 
L 434.36712 276.855382 
L 444.191611 294.927793 
L 452.254469 315.695213 
L 458.48794 339.474701 
L 463.095287 366.107728 
L 466.144267 395.752824 
L 467.567124 428.251458 
L 467.567124 463.76216 
L 466.144267 502.126401 
L 464.043859 517.979394 
" clip-path="url(#p2ece0c45f6)" style="fill: none; stroke: #7a7a7a; stroke-width: 3; stroke-linecap: square"/>
   </g>
   <g id="line2d_34">
    <path d="M 401.980176 301.74458 
L 411.872423 311.256375 
L 420.816097 325.048479 
L 428.472425 343.12089 
L 434.841406 365.632139 
L 439.584263 392.106636 
L 442.565488 422.70291 
L 443.64957 457.420963 
L 442.633243 495.943734 
L 440.532835 511.796727 
" clip-path="url(#p2ece0c45f6)" style="fill: none; stroke: #7a7a7a; stroke-width: 3; stroke-linecap: square"/>
   </g>
   <g id="line2d_35">
    <path d="M 928.505149 637.035365 
L 927.353312 636.084185 
L 927.150047 635.925655 
L 926.946781 635.767126 
L 725.917365 488.968418 
" clip-path="url(#p2ece0c45f6)" style="fill: none; stroke: #7a7a7a; stroke-width: 3; stroke-linecap: square"/>
   </g>
   <g id="line2d_36">
    <path d="M 928.505149 574.574576 
L 927.353312 573.623396 
L 927.150047 573.464866 
L 926.946781 573.306336 
L 764.673289 456.628314 
L 749.631654 449.018877 
L 746.447164 446.957989 
L 743.669204 443.94592 
L 743.465939 443.62886 
L 731.67655 430.629407 
" clip-path="url(#p2ece0c45f6)" style="fill: none; stroke: #7a7a7a; stroke-width: 3; stroke-linecap: square"/>
   </g>
   <g id="line2d_37">
    <path d="M 560.527138 368.644207 
L 548.331218 354.852104 
L 537.219379 335.828513 
L 527.598153 312.524615 
L 519.670805 285.891588 
L 513.708356 257.039142 
L 509.914069 226.759927 
L 508.626722 196.322182 
L 510.117335 166.360027 
L 514.589172 138.141701 
L 518.857744 107.386896 
" clip-path="url(#p2ece0c45f6)" style="fill: none; stroke: #7a7a7a; stroke-width: 3; stroke-linecap: square"/>
   </g>
   <g id="line2d_38">
    <path d="M 568.454486 310.939316 
L 556.800607 291.915725 
L 548.805503 267.819177 
L 544.265911 241.02762 
L 543.046319 214.553123 
L 545.011217 191.090695 
L 552.532034 134.812572 
" clip-path="url(#p2ece0c45f6)" style="fill: none; stroke: #7a7a7a; stroke-width: 3; stroke-linecap: square"/>
   </g>
   <g id="line2d_39">
    <path d="M 464.043859 517.979394 
L 347.979352 1383.077177 
L 347.776087 1384.345417 
L 347.572822 1385.930716 
" clip-path="url(#p2ece0c45f6)" style="fill: none; stroke: #7a7a7a; stroke-width: 3; stroke-linecap: square"/>
   </g>
   <g id="line2d_40">
    <path d="M 440.532835 511.796727 
L 324.874859 1383.077177 
L 324.671594 1384.345417 
L 324.468329 1385.930716 
" clip-path="url(#p2ece0c45f6)" style="fill: none; stroke: #7a7a7a; stroke-width: 3; stroke-linecap: square"/>
   </g>
   <g id="line2d_41">
    <path d="M 464.043859 517.979394 
L 469.599778 476.444554 
L 473.529574 450.921237 
L 479.96631 426.983218 
L 488.503454 405.264619 
L 498.734476 386.558088 
L 510.18509 371.973335 
L 522.51652 361.98595 
L 535.254481 357.547113 
L 548.060197 359.449472 
L 560.527138 368.644207 
" clip-path="url(#p2ece0c45f6)" style="fill: none; stroke: #7a7a7a; stroke-width: 3; stroke-linecap: square"/>
   </g>
   <g id="line2d_42">
    <path d="M 499.344272 526.698539 
L 504.832436 485.1637 
L 508.965498 463.4451 
L 514.860192 442.202091 
L 523.397336 425.556449 
L 535.661012 417.629953 
L 552.59979 422.86144 
" clip-path="url(#p2ece0c45f6)" style="fill: none; stroke: #7a7a7a; stroke-width: 3; stroke-linecap: square"/>
   </g>
   <g id="line2d_43">
    <path d="M 318.709144 177.932711 
L 319.251185 178.408301 
L 320.064246 179.04242 
L 408.958953 249.746766 
" clip-path="url(#p2ece0c45f6)" style="fill: none; stroke: #7a7a7a; stroke-width: 3; stroke-linecap: square"/>
   </g>
   <g id="line2d_44">
    <path d="M 318.709144 239.442321 
L 319.251185 239.91791 
L 320.064246 240.55203 
L 401.980176 301.74458 
" clip-path="url(#p2ece0c45f6)" style="fill: none; stroke: #7a7a7a; stroke-width: 3; stroke-linecap: square"/>
   </g>
   <g id="line2d_45">
    <path clip-path="url(#p2ece0c45f6)" style="fill: none; stroke: #7a7a7a; stroke-width: 3; stroke-linecap: square"/>
   </g>
   <g id="line2d_46">
    <path clip-path="url(#p2ece0c45f6)" style="fill: none; stroke: #7a7a7a; stroke-width: 3; stroke-linecap: square"/>
   </g>
   <g id="line2d_47">
    <path clip-path="url(#p2ece0c45f6)" style="fill: none; stroke: #7a7a7a; stroke-width: 3; stroke-linecap: square"/>
   </g>
   <g id="line2d_48">
    <path clip-path="url(#p2ece0c45f6)" style="fill: none; stroke: #7a7a7a; stroke-width: 3; stroke-linecap: square"/>
   </g>
   <g id="line2d_49">
    <path d="M 94.700834 -1 
L 317.015266 176.664472 
L 317.218532 176.823002 
L 317.421797 176.981531 
L 318.709144 177.932711 
" clip-path="url(#p2ece0c45f6)" style="fill: none; stroke: #7a7a7a; stroke-width: 3; stroke-linecap: square"/>
   </g>
   <g id="line2d_50">
    <path d="M 16.440379 -1 
L 36.780125 15.281011 
L 169.173613 119.27664 
L 317.015266 238.174081 
L 317.218532 238.332611 
L 317.421797 238.491141 
L 318.709144 239.442321 
" clip-path="url(#p2ece0c45f6)" style="fill: none; stroke: #7a7a7a; stroke-width: 3; stroke-linecap: square"/>
   </g>
   <g id="line2d_51">
    <path d="M 318.709144 177.932711 
L 317.421797 176.981531 
L 317.218532 176.823002 
L 317.015266 176.664472 
L 94.700834 -1 
" clip-path="url(#p2ece0c45f6)" style="fill: none; stroke: #7a7a7a; stroke-width: 3; stroke-linecap: square"/>
   </g>
   <g id="line2d_52">
    <path d="M 318.709144 116.106041 
L 317.421797 115.154862 
L 317.218532 114.996332 
L 317.015266 114.837802 
L 172.464718 -1 
" clip-path="url(#p2ece0c45f6)" style="fill: none; stroke: #7a7a7a; stroke-width: 3; stroke-linecap: square"/>
   </g>
   <g id="line2d_53">
    <path d="M 1161.853754 877.366727 
L 1167.274163 916.523617 
L 1169.035795 945.851653 
L 1169.239061 978.667347 
L 1167.951714 1014.970699 
" clip-path="url(#p2ece0c45f6)" style="fill: none; stroke: #7a7a7a; stroke-width: 3; stroke-linecap: square"/>
   </g>
   <g id="line2d_54">
    <path d="M 1133.870892 906.853292 
L 1138.071709 930.79131 
L 1140.781914 956.790217 
L 1142.408037 985.642663 
L 1143.221098 1017.824237 
" clip-path="url(#p2ece0c45f6)" style="fill: none; stroke: #7a7a7a; stroke-width: 3; stroke-linecap: square"/>
   </g>
   <g id="line2d_55">
    <path d="M 1238.41703 797.943236 
L 1236.316621 783.992603 
L 1233.199886 759.896054 
L 1231.438253 731.202139 
L 1230.963967 697.118205 
L 1231.980294 657.168665 
L 1234.487233 610.560868 
L 1238.68805 556.502165 
" clip-path="url(#p2ece0c45f6)" style="fill: none; stroke: #7a7a7a; stroke-width: 3; stroke-linecap: square"/>
   </g>
   <g id="line2d_56">
    <path d="M 1267.145197 767.82255 
L 1263.147646 742.457763 
L 1262.605605 739.128635 
L 1258.675808 705.044701 
L 1257.998257 692.837897 
L 1258.201522 686.338171 
L 1258.743563 680.631093 
L 1262.94438 653.205417 
L 1266.603156 630.218578 
L 1270.465198 607.865859 
L 1273.852953 586.14726 
" clip-path="url(#p2ece0c45f6)" style="fill: none; stroke: #7a7a7a; stroke-width: 3; stroke-linecap: square"/>
   </g>
   <g id="line2d_57">
    <path d="M 1376.163172 965.033773 
L 1441 1012.115614 
" clip-path="url(#p2ece0c45f6)" style="fill: none; stroke: #7a7a7a; stroke-width: 3; stroke-linecap: square"/>
   </g>
   <g id="line2d_58">
    <path d="M 1365.593374 1019.726596 
L 1441 1074.248076 
" clip-path="url(#p2ece0c45f6)" style="fill: none; stroke: #7a7a7a; stroke-width: 3; stroke-linecap: square"/>
   </g>
   <g id="line2d_59">
    <path d="M 1441 1012.115614 
L 1376.163172 965.033773 
" clip-path="url(#p2ece0c45f6)" style="fill: none; stroke: #7a7a7a; stroke-width: 3; stroke-linecap: square"/>
   </g>
   <g id="line2d_60">
    <path d="M 1441 950.392731 
L 1385.039091 909.389771 
" clip-path="url(#p2ece0c45f6)" style="fill: none; stroke: #7a7a7a; stroke-width: 3; stroke-linecap: square"/>
   </g>
   <g id="line2d_61">
    <path d="M 1161.853754 877.366727 
L 1162.937835 882.281154 
L 1165.851305 892.110009 
L 1169.306816 904.950933 
L 1180.147634 923.023344 
L 1193.563146 933.486319 
L 1207.452944 933.961909 
L 1212.805598 929.047481 
L 1214.363965 928.096302 
L 1218.158251 924.767173 
L 1219.919884 922.547754 
" clip-path="url(#p2ece0c45f6)" style="fill: none; stroke: #7a7a7a; stroke-width: 3; stroke-linecap: square"/>
   </g>
   <g id="line2d_62">
    <path d="M 1133.870892 906.853292 
L 1135.022729 910.97507 
L 1139.359057 934.120439 
L 1146.947629 955.046388 
L 1157.043141 973.118799 
L 1169.035795 987.703552 
L 1182.180287 998.325057 
L 1195.799065 1004.190664 
L 1209.282332 1004.666254 
L 1221.884783 999.276236 
L 1232.928866 987.386492 
" clip-path="url(#p2ece0c45f6)" style="fill: none; stroke: #7a7a7a; stroke-width: 3; stroke-linecap: square"/>
   </g>
   <g id="line2d_63">
    <path d="M 1376.163172 965.033773 
L 1359.359904 946.961362 
L 1342.488881 933.644849 
L 1334.019492 927.303652 
L 1303.529692 903.999753 
L 1290.317445 888.146761 
L 1285.777853 882.439684 
" clip-path="url(#p2ece0c45f6)" style="fill: none; stroke: #7a7a7a; stroke-width: 3; stroke-linecap: square"/>
   </g>
   <g id="line2d_64">
    <path d="M 1385.039091 909.389771 
L 1349.332148 892.585599 
L 1344.58929 889.89059 
L 1339.710922 885.768812 
L 1320.061939 869.44023 
L 1312.608877 861.672264 
L 1297.634997 841.538964 
" clip-path="url(#p2ece0c45f6)" style="fill: none; stroke: #7a7a7a; stroke-width: 3; stroke-linecap: square"/>
   </g>
   <g id="line2d_65">
    <path d="M 1120.658646 795.248227 
L 1122.555789 797.784706 
L 1132.990076 810.30857 
L 1143.356608 827.112741 
L 1151.961507 845.819272 
L 1158.737018 866.745222 
L 1161.853754 877.366727 
" clip-path="url(#p2ece0c45f6)" style="fill: none; stroke: #7a7a7a; stroke-width: 3; stroke-linecap: square"/>
   </g>
   <g id="line2d_66">
    <path d="M 1109.546807 841.856024 
L 1114.22191 850.41664 
L 1120.116605 863.257563 
L 1124.385177 874.037598 
L 1126.959871 881.964094 
L 1127.908443 884.500573 
L 1128.518239 886.719992 
L 1128.653749 887.037052 
L 1131.838239 899.402386 
L 1133.870892 906.853292 
" clip-path="url(#p2ece0c45f6)" style="fill: none; stroke: #7a7a7a; stroke-width: 3; stroke-linecap: square"/>
   </g>
   <g id="line2d_67">
    <path d="M 1310.039349 -1 
L 1250.88397 446.482399 
" clip-path="url(#p2ece0c45f6)" style="fill: none; stroke: #7a7a7a; stroke-width: 3; stroke-linecap: square"/>
   </g>
   <g id="line2d_68">
    <path d="M 1269.453745 -1 
L 1232.861111 271.940955 
L 1217.887231 387.192208 
L 1213.686414 415.252004 
" clip-path="url(#p2ece0c45f6)" style="fill: none; stroke: #7a7a7a; stroke-width: 3; stroke-linecap: square"/>
   </g>
   <g id="line2d_69">
    <path d="M 1147.963956 1225.656965 
L 1152.910079 1211.389272 
L 1154.468446 1196.804519 
L 1165.580285 1115.637199 
L 1165.851305 1113.89337 
L 1173.914163 1058.090838 
L 1181.773756 1027.653092 
" clip-path="url(#p2ece0c45f6)" style="fill: none; stroke: #7a7a7a; stroke-width: 3; stroke-linecap: square"/>
   </g>
   <g id="line2d_70">
    <path d="M 1183.332124 1250.863223 
L 1176.963143 1219.949888 
L 1175.404776 1208.535733 
L 1174.998245 1196.328929 
L 1175.675796 1184.914775 
L 1177.640695 1168.269133 
L 1179.808858 1153.84291 
L 1181.773756 1142.745816 
L 1185.703553 1122.929576 
L 1188.346002 1105.491284 
L 1190.785186 1093.44301 
L 1197.221922 1067.919693 
" clip-path="url(#p2ece0c45f6)" style="fill: none; stroke: #7a7a7a; stroke-width: 3; stroke-linecap: square"/>
   </g>
   <g id="line2d_71">
    <path d="M 1238.68805 556.502165 
L 1251.154991 469.310707 
L 1250.951725 460.433032 
L 1250.88397 446.482399 
" clip-path="url(#p2ece0c45f6)" style="fill: none; stroke: #7a7a7a; stroke-width: 3; stroke-linecap: square"/>
   </g>
   <g id="line2d_72">
    <path d="M 1273.852953 586.14726 
L 1284.693771 506.882299 
L 1288.894588 476.920144 
" clip-path="url(#p2ece0c45f6)" style="fill: none; stroke: #7a7a7a; stroke-width: 3; stroke-linecap: square"/>
   </g>
   <g id="line2d_73">
    <path d="M 1285.777853 882.439684 
L 1276.359892 871.02553 
L 1267.619483 859.928435 
L 1259.556625 848.355751 
L 1252.306828 835.673357 
L 1245.937847 821.247134 
L 1238.41703 797.943236 
" clip-path="url(#p2ece0c45f6)" style="fill: none; stroke: #7a7a7a; stroke-width: 3; stroke-linecap: square"/>
   </g>
   <g id="line2d_74">
    <path d="M 1297.634997 841.538964 
L 1289.233363 827.588331 
L 1285.100302 819.661835 
L 1277.376219 801.589424 
L 1272.565606 788.7485 
L 1271.074994 783.834073 
L 1270.397442 781.931714 
L 1270.126422 780.504944 
L 1269.652136 779.078175 
L 1267.145197 767.82255 
" clip-path="url(#p2ece0c45f6)" style="fill: none; stroke: #7a7a7a; stroke-width: 3; stroke-linecap: square"/>
   </g>
   <g id="line2d_75">
    <path d="M 1234.216213 552.697446 
L 1226.085599 603.902611 
L 1221.952538 626.25533 
L 1217.4807 643.852152 
L 1214.906006 653.839537 
L 1202.981106 706.154411 
L 1195.189269 726.129181 
L 1183.80641 745.311302 
" clip-path="url(#p2ece0c45f6)" style="fill: none; stroke: #7a7a7a; stroke-width: 3; stroke-linecap: square"/>
   </g>
   <g id="line2d_76">
    <path d="M 1216.193353 539.856523 
L 1213.008863 558.563054 
L 1209.553352 574.733106 
L 1209.282332 576.318405 
L 1208.943556 577.745174 
L 1208.266005 580.915773 
L 1205.691311 591.220217 
L 1202.032535 606.91468 
L 1194.443962 632.120937 
L 1193.156615 635.291536 
L 1192.208044 638.145074 
L 1187.194165 650.510408 
L 1186.448859 652.412767 
L 1185.026002 655.107776 
L 1182.451308 660.497793 
L 1179.334572 665.729281 
L 1177.911715 668.424289 
L 1177.234164 669.375469 
L 1176.895388 670.009589 
L 1169.781102 679.838444 
L 1168.96804 680.789623 
" clip-path="url(#p2ece0c45f6)" style="fill: none; stroke: #7a7a7a; stroke-width: 3; stroke-linecap: square"/>
   </g>
   <g id="line2d_77">
    <path d="M 1219.919884 922.547754 
L 1224.594987 918.108916 
L 1235.571315 911.29213 
L 1248.715807 907.804472 
L 1264.502748 907.645942 
L 1283.338669 910.81654 
" clip-path="url(#p2ece0c45f6)" style="fill: none; stroke: #7a7a7a; stroke-width: 3; stroke-linecap: square"/>
   </g>
   <g id="line2d_78">
    <path d="M 1232.928866 987.386492 
L 1234.283968 986.276783 
L 1241.194989 980.411176 
L 1246.954174 977.240577 
L 1251.426011 975.655278 
L 1256.439889 974.228509 
L 1261.657033 972.48468 
L 1264.299482 972.32615 
L 1264.638258 972.16762 
L 1273.107647 970.89938 
L 1280.221934 970.89938 
" clip-path="url(#p2ece0c45f6)" style="fill: none; stroke: #7a7a7a; stroke-width: 3; stroke-linecap: square"/>
   </g>
   <g id="line2d_79">
    <path d="M 1126.621096 1385.930716 
L 1126.756606 1384.503947 
L 1126.959871 1383.394237 
L 1147.963956 1225.656965 
" clip-path="url(#p2ece0c45f6)" style="fill: none; stroke: #7a7a7a; stroke-width: 3; stroke-linecap: square"/>
   </g>
   <g id="line2d_80">
    <path d="M 1168.69702 1385.930716 
L 1168.83253 1384.503947 
L 1168.96804 1383.394237 
L 1183.332124 1250.863223 
" clip-path="url(#p2ece0c45f6)" style="fill: none; stroke: #7a7a7a; stroke-width: 3; stroke-linecap: square"/>
   </g>
   <g id="line2d_81">
    <path d="M 1122.352523 759.103405 
L 1112.866808 757.042516 
L 1096.470071 752.128088 
L 1091.591703 748.64043 
L 1091.320682 748.4819 
L 1088.271702 746.262481 
L 1075.059456 736.909216 
L 1059.679045 726.129181 
L 1040.436594 712.971197 
L 1037.319858 712.971197 
L 1034.338633 715.349146 
" clip-path="url(#p2ece0c45f6)" style="fill: none; stroke: #7a7a7a; stroke-width: 3; stroke-linecap: square"/>
   </g>
   <g id="line2d_82">
    <path d="M 1126.485585 702.666753 
L 1110.563134 702.825282 
L 1102.364766 702.032633 
L 1089.83007 698.386445 
L 1081.360681 694.898786 
L 1070.384353 688.716119 
L 1066.183536 684.594341 
L 1041.927206 656.376015 
" clip-path="url(#p2ece0c45f6)" style="fill: none; stroke: #7a7a7a; stroke-width: 3; stroke-linecap: square"/>
   </g>
   <g id="line2d_83">
    <path d="M 1283.338669 910.81654 
L 1297.363977 915.413908 
L 1324.872552 934.913088 
L 1350.55174 953.619619 
L 1357.395006 958.534047 
L 1376.163172 965.033773 
" clip-path="url(#p2ece0c45f6)" style="fill: none; stroke: #7a7a7a; stroke-width: 3; stroke-linecap: square"/>
   </g>
   <g id="line2d_84">
    <path d="M 1280.221934 970.89938 
L 1293.16316 970.89938 
L 1308.13704 974.862628 
L 1325.482348 982.789125 
L 1332.66439 988.179142 
L 1335.71337 991.6668 
L 1365.593374 1019.726596 
" clip-path="url(#p2ece0c45f6)" style="fill: none; stroke: #7a7a7a; stroke-width: 3; stroke-linecap: square"/>
   </g>
   <g id="line2d_85">
    <path d="M 1250.88397 446.482399 
L 1310.039349 -1 
" clip-path="url(#p2ece0c45f6)" style="fill: none; stroke: #7a7a7a; stroke-width: 3; stroke-linecap: square"/>
   </g>
   <g id="line2d_86">
    <path d="M 1288.894588 476.920144 
L 1352.04937 -1 
" clip-path="url(#p2ece0c45f6)" style="fill: none; stroke: #7a7a7a; stroke-width: 3; stroke-linecap: square"/>
   </g>
   <g id="line2d_87">
    <path d="M 1250.88397 446.482399 
L 1247.360704 458.213613 
L 1246.208868 463.4451 
L 1238.213764 524.95471 
L 1236.113356 539.697993 
L 1234.216213 552.697446 
" clip-path="url(#p2ece0c45f6)" style="fill: none; stroke: #7a7a7a; stroke-width: 3; stroke-linecap: square"/>
   </g>
   <g id="line2d_88">
    <path d="M 1213.686414 415.252004 
L 1223.510905 472.005716 
L 1224.052946 479.615152 
L 1223.57866 488.492828 
L 1222.020293 501.333752 
L 1216.193353 539.856523 
" clip-path="url(#p2ece0c45f6)" style="fill: none; stroke: #7a7a7a; stroke-width: 3; stroke-linecap: square"/>
   </g>
   <g id="line2d_89">
    <path d="M 1181.773756 1027.653092 
L 1183.6709 1022.263075 
L 1185.093757 1014.019519 
L 1188.210492 1001.495655 
L 1194.443962 978.350287 
L 1200.745188 958.534047 
L 1207.588454 941.729875 
L 1219.919884 922.547754 
" clip-path="url(#p2ece0c45f6)" style="fill: none; stroke: #7a7a7a; stroke-width: 3; stroke-linecap: square"/>
   </g>
   <g id="line2d_90">
    <path d="M 1197.221922 1067.919693 
L 1205.01376 1040.969606 
L 1208.401515 1031.299281 
L 1212.737842 1020.360716 
L 1215.041516 1015.287759 
L 1216.193353 1012.43422 
L 1217.412945 1010.214801 
L 1221.478252 1002.922425 
L 1222.088048 1001.971245 
L 1224.459477 997.849467 
L 1226.424375 995.471518 
L 1227.101926 994.361809 
L 1232.928866 987.386492 
" clip-path="url(#p2ece0c45f6)" style="fill: none; stroke: #7a7a7a; stroke-width: 3; stroke-linecap: square"/>
   </g>
   <g id="line2d_91">
    <path d="M 1034.338633 715.349146 
L 929.928006 637.986544 
L 929.1827 637.510955 
L 928.77617 637.193895 
L 928.505149 637.035365 
" clip-path="url(#p2ece0c45f6)" style="fill: none; stroke: #7a7a7a; stroke-width: 3; stroke-linecap: square"/>
   </g>
   <g id="line2d_92">
    <path d="M 1041.927206 656.376015 
L 929.928006 575.525755 
L 929.1827 575.050165 
L 928.843925 574.733106 
L 928.505149 574.574576 
" clip-path="url(#p2ece0c45f6)" style="fill: none; stroke: #7a7a7a; stroke-width: 3; stroke-linecap: square"/>
   </g>
   <g id="line2d_93">
    <path d="M 1183.80641 745.311302 
L 1178.453756 750.067199 
L 1169.171306 755.932806 
L 1159.143549 758.944875 
L 1148.099466 759.896054 
L 1122.352523 759.103405 
" clip-path="url(#p2ece0c45f6)" style="fill: none; stroke: #7a7a7a; stroke-width: 3; stroke-linecap: square"/>
   </g>
   <g id="line2d_94">
    <path d="M 1168.96804 680.789623 
L 1164.292938 685.862581 
L 1157.110896 691.728188 
L 1151.351711 695.374376 
L 1142.475792 699.020564 
L 1138.410485 700.288804 
L 1134.683954 701.398513 
L 1126.485585 702.666753 
" clip-path="url(#p2ece0c45f6)" style="fill: none; stroke: #7a7a7a; stroke-width: 3; stroke-linecap: square"/>
   </g>
   <g id="line2d_95">
    <path d="M 1034.338633 715.349146 
L 1038.065165 720.897694 
L 1067.403128 744.201592 
L 1078.311701 752.920738 
L 1092.065989 762.908123 
L 1095.318234 766.395781 
L 1098.8415 770.517559 
L 1105.481501 777.492876 
L 1120.658646 795.248227 
" clip-path="url(#p2ece0c45f6)" style="fill: none; stroke: #7a7a7a; stroke-width: 3; stroke-linecap: square"/>
   </g>
   <g id="line2d_96">
    <path d="M 1027.766388 771.151679 
L 1050.261085 779.870825 
L 1053.039044 780.663474 
L 1059.204759 784.468192 
L 1068.419455 791.919099 
L 1086.035784 809.67445 
L 1092.87905 817.759476 
L 1099.315786 826.478622 
L 1109.546807 841.856024 
" clip-path="url(#p2ece0c45f6)" style="fill: none; stroke: #7a7a7a; stroke-width: 3; stroke-linecap: square"/>
   </g>
   <g id="line2d_97">
    <path d="M 1167.951714 1014.970699 
L 1166.596611 1055.078769 
L 1158.872529 1126.892824 
L 1150.945181 1179.049168 
L 1148.980282 1191.890092 
L 1147.421915 1208.694263 
L 1147.963956 1225.656965 
" clip-path="url(#p2ece0c45f6)" style="fill: none; stroke: #7a7a7a; stroke-width: 3; stroke-linecap: square"/>
   </g>
   <g id="line2d_98">
    <path d="M 1143.221098 1017.824237 
L 1142.814567 1049.847282 
L 1139.630077 1109.296002 
L 1138.34273 1124.514875 
L 1136.242321 1142.270226 
L 1134.480688 1150.355252 
L 1132.10926 1156.220859 
L 1110.563134 1199.023938 
" clip-path="url(#p2ece0c45f6)" style="fill: none; stroke: #7a7a7a; stroke-width: 3; stroke-linecap: square"/>
   </g>
   <g id="line2d_99">
    <path d="M 1219.919884 922.547754 
L 1221.613762 920.328335 
L 1224.594987 915.730968 
L 1229.54111 908.438591 
L 1236.655397 886.244402 
L 1240.923969 859.452845 
L 1242.075806 832.185699 
L 1241.398255 824.100673 
L 1241.262744 820.454485 
L 1240.720704 813.003578 
L 1239.568867 804.284433 
L 1238.41703 797.943236 
" clip-path="url(#p2ece0c45f6)" style="fill: none; stroke: #7a7a7a; stroke-width: 3; stroke-linecap: square"/>
   </g>
   <g id="line2d_100">
    <path d="M 1232.928866 987.386492 
L 1244.311724 972.48468 
L 1253.865195 951.08314 
L 1261.589278 924.767173 
L 1267.348462 895.122078 
L 1271.007238 864.050213 
L 1272.565606 832.978348 
L 1271.8203 803.808843 
L 1268.77132 777.968465 
L 1267.145197 767.82255 
" clip-path="url(#p2ece0c45f6)" style="fill: none; stroke: #7a7a7a; stroke-width: 3; stroke-linecap: square"/>
   </g>
   <g id="line2d_101">
    <path d="M 1147.963956 1225.656965 
L 1126.959871 1383.394237 
L 1126.756606 1384.503947 
L 1126.621096 1385.930716 
" clip-path="url(#p2ece0c45f6)" style="fill: none; stroke: #7a7a7a; stroke-width: 3; stroke-linecap: square"/>
   </g>
   <g id="line2d_102">
    <path d="M 1110.563134 1199.023938 
L 1085.425988 1383.394237 
L 1085.290477 1384.503947 
L 1085.087212 1385.930716 
" clip-path="url(#p2ece0c45f6)" style="fill: none; stroke: #7a7a7a; stroke-width: 3; stroke-linecap: square"/>
   </g>
   <g id="line2d_103">
    <path d="M 1183.80641 745.311302 
L 1182.925593 746.262481 
L 1179.402328 750.384259 
L 1176.014572 755.615746 
L 1172.626816 761.639884 
L 1169.103551 769.09079 
L 1165.851305 777.651406 
L 1163.818652 784.151132 
L 1161.853754 792.236158 
L 1160.498651 799.528535 
L 1158.872529 811.418279 
L 1158.194978 819.503305 
L 1157.788447 829.17363 
L 1157.788447 839.478075 
L 1158.127222 848.831341 
L 1158.059467 850.89223 
L 1158.601508 854.221358 
L 1158.804774 857.233426 
L 1159.95661 866.903752 
L 1161.514978 875.781427 
L 1161.853754 877.366727 
" clip-path="url(#p2ece0c45f6)" style="fill: none; stroke: #7a7a7a; stroke-width: 3; stroke-linecap: square"/>
   </g>
   <g id="line2d_104">
    <path d="M 1168.96804 680.789623 
L 1167.206407 683.167572 
L 1156.77212 696.325556 
L 1147.62518 715.349146 
L 1139.968853 739.128635 
L 1133.870892 766.237251 
L 1129.534565 795.406757 
L 1127.163136 825.368912 
L 1127.027626 854.855478 
L 1129.19579 882.439684 
L 1133.870892 906.853292 
" clip-path="url(#p2ece0c45f6)" style="fill: none; stroke: #7a7a7a; stroke-width: 3; stroke-linecap: square"/>
   </g>
   <g id="line2d_105">
    <path d="M 1238.41703 797.943236 
L 1237.874989 794.614107 
L 1235.977846 786.529081 
L 1233.538662 777.809936 
L 1231.980294 773.688158 
L 1230.354171 767.664021 
L 1219.513354 748.4819 
L 1213.754169 743.567472 
L 1207.181923 738.177455 
L 1194.782738 737.226276 
L 1188.955798 741.506583 
L 1185.974573 743.408942 
L 1183.80641 745.311302 
" clip-path="url(#p2ece0c45f6)" style="fill: none; stroke: #7a7a7a; stroke-width: 3; stroke-linecap: square"/>
   </g>
   <g id="line2d_106">
    <path d="M 1267.145197 767.82255 
L 1266.806422 765.761661 
L 1260.708461 740.555404 
L 1252.103562 718.361215 
L 1241.533765 699.496154 
L 1229.608865 684.435812 
L 1216.870904 673.655777 
L 1203.861923 667.47311 
L 1191.191717 666.3634 
L 1179.334572 670.643708 
L 1168.96804 680.789623 
" clip-path="url(#p2ece0c45f6)" style="fill: none; stroke: #7a7a7a; stroke-width: 3; stroke-linecap: square"/>
   </g>
   <g id="line2d_107">
    <path d="M 928.505149 637.035365 
L 928.77617 637.193895 
L 929.1827 637.510955 
L 929.928006 637.986544 
L 1034.338633 715.349146 
" clip-path="url(#p2ece0c45f6)" style="fill: none; stroke: #7a7a7a; stroke-width: 3; stroke-linecap: square"/>
   </g>
   <g id="line2d_108">
    <path d="M 928.505149 698.862034 
L 928.77617 699.020564 
L 929.114945 699.337624 
L 929.928006 699.813214 
L 1027.766388 771.151679 
" clip-path="url(#p2ece0c45f6)" style="fill: none; stroke: #7a7a7a; stroke-width: 3; stroke-linecap: square"/>
   </g>
   <g id="line2d_109">
    <path d="M 725.917365 488.968418 
L 926.946781 635.767126 
L 927.150047 635.925655 
L 927.353312 636.084185 
L 928.505149 637.035365 
" clip-path="url(#p2ece0c45f6)" style="fill: none; stroke: #7a7a7a; stroke-width: 3; stroke-linecap: square"/>
   </g>
   <g id="line2d_110">
    <path d="M 718.870834 544.77095 
L 926.946781 697.752325 
L 927.150047 697.752325 
L 927.353312 697.910855 
L 928.505149 698.862034 
" clip-path="url(#p2ece0c45f6)" style="fill: none; stroke: #7a7a7a; stroke-width: 3; stroke-linecap: square"/>
   </g>
   <g id="line2d_111">
    <path d="M 725.917365 488.968418 
L 560.527138 368.644207 
" clip-path="url(#p2ece0c45f6)" style="fill: none; stroke: #7a7a7a; stroke-width: 3; stroke-linecap: square"/>
   </g>
   <g id="line2d_112">
    <path d="M 731.67655 430.629407 
L 568.454486 310.939316 
" clip-path="url(#p2ece0c45f6)" style="fill: none; stroke: #7a7a7a; stroke-width: 3; stroke-linecap: square"/>
   </g>
   <g id="line2d_113">
    <path d="M 135.510223 79.264961 
L 531.464082 372.401388 
" clip-path="url(#p2ece0c45f6)" style="fill: none; stroke-dasharray: 32,8,5,8; stroke-dashoffset: 0; stroke: #1e90ff; stroke-width: 5"/>
   </g>
   <g id="line2d_114">
    <path d="M 950.86508 603.220431 
L 920.229712 578.103492 
" clip-path="url(#p2ece0c45f6)" style="fill: none; stroke-dasharray: 32,8,5,8; stroke-dashoffset: 0; stroke: #1e90ff; stroke-width: 5"/>
   </g>
   <g id="line2d_115">
    <path d="M 1314.682819 954.10129 
L 1338.367333 964.410234 
" clip-path="url(#p2ece0c45f6)" style="fill: none; stroke-dasharray: 32,8,5,8; stroke-dashoffset: 0; stroke: #1e90ff; stroke-width: 5"/>
   </g>
   <g id="line2d_116">
    <path d="M 701.43041 513.218972 
L 1253.658555 924.581575 
" clip-path="url(#p2ece0c45f6)" style="fill: none; stroke-dasharray: 32,8,5,8; stroke-dashoffset: 0; stroke: #1e90ff; stroke-width: 5"/>
   </g>
   <g id="line2d_117">
    <path d="M 135.510223 79.264961 
" clip-path="url(#p2ece0c45f6)" style="fill: none; stroke: #0000ff; stroke-width: 1.5; stroke-linecap: square"/>
    <defs>
     <path id="md54fe1c69c" d="M 0 10 
C 2.652031 10 5.195799 8.946337 7.071068 7.071068 
C 8.946337 5.195799 10 2.652031 10 0 
C 10 -2.652031 8.946337 -5.195799 7.071068 -7.071068 
C 5.195799 -8.946337 2.652031 -10 0 -10 
C -2.652031 -10 -5.195799 -8.946337 -7.071068 -7.071068 
C -8.946337 -5.195799 -10 -2.652031 -10 0 
C -10 2.652031 -8.946337 5.195799 -7.071068 7.071068 
C -5.195799 8.946337 -2.652031 10 0 10 
z
" style="stroke: #0000ff"/>
    </defs>
    <g clip-path="url(#p2ece0c45f6)">
     <use xlink:href="#md54fe1c69c" x="135.510223" y="79.264961" style="fill: #0000ff; stroke: #0000ff"/>
    </g>
   </g>
   <g id="line2d_118">
    <path d="M 950.86508 603.220431 
" clip-path="url(#p2ece0c45f6)" style="fill: none; stroke: #0000ff; stroke-width: 1.5; stroke-linecap: square"/>
    <g clip-path="url(#p2ece0c45f6)">
     <use xlink:href="#md54fe1c69c" x="950.86508" y="603.220431" style="fill: #0000ff; stroke: #0000ff"/>
    </g>
   </g>
   <g id="line2d_119">
    <path d="M 1314.682819 954.10129 
" clip-path="url(#p2ece0c45f6)" style="fill: none; stroke: #0000ff; stroke-width: 1.5; stroke-linecap: square"/>
    <g clip-path="url(#p2ece0c45f6)">
     <use xlink:href="#md54fe1c69c" x="1314.682819" y="954.10129" style="fill: #0000ff; stroke: #0000ff"/>
    </g>
   </g>
   <g id="line2d_120">
    <path d="M 701.43041 513.218972 
" clip-path="url(#p2ece0c45f6)" style="fill: none; stroke: #0000ff; stroke-width: 1.5; stroke-linecap: square"/>
    <g clip-path="url(#p2ece0c45f6)">
     <use xlink:href="#md54fe1c69c" x="701.43041" y="513.218972" style="fill: #0000ff; stroke: #0000ff"/>
    </g>
   </g>
   <g id="line2d_121">
    <path d="M 531.464082 372.401388 
" clip-path="url(#p2ece0c45f6)" style="fill: none; stroke: #ff0000; stroke-width: 1.5; stroke-linecap: square"/>
    <defs>
     <path id="mbcfc74e824" d="M 0 -10 
L -2.24514 -3.09017 
L -9.510565 -3.09017 
L -3.632713 1.18034 
L -5.877853 8.09017 
L -0 3.81966 
L 5.877853 8.09017 
L 3.632713 1.18034 
L 9.510565 -3.09017 
L 2.24514 -3.09017 
z
" style="stroke: #ff0000; stroke-linejoin: bevel"/>
    </defs>
    <g clip-path="url(#p2ece0c45f6)">
     <use xlink:href="#mbcfc74e824" x="531.464082" y="372.401388" style="fill: #ff0000; stroke: #ff0000; stroke-linejoin: bevel"/>
    </g>
   </g>
   <g id="line2d_122">
    <path d="M 920.229712 578.103492 
" clip-path="url(#p2ece0c45f6)" style="fill: none; stroke: #ff0000; stroke-width: 1.5; stroke-linecap: square"/>
    <g clip-path="url(#p2ece0c45f6)">
     <use xlink:href="#mbcfc74e824" x="920.229712" y="578.103492" style="fill: #ff0000; stroke: #ff0000; stroke-linejoin: bevel"/>
    </g>
   </g>
   <g id="line2d_123">
    <path d="M 1338.367333 964.410234 
" clip-path="url(#p2ece0c45f6)" style="fill: none; stroke: #ff0000; stroke-width: 1.5; stroke-linecap: square"/>
    <g clip-path="url(#p2ece0c45f6)">
     <use xlink:href="#mbcfc74e824" x="1338.367333" y="964.410234" style="fill: #ff0000; stroke: #ff0000; stroke-linejoin: bevel"/>
    </g>
   </g>
   <g id="line2d_124">
    <path d="M 1253.658555 924.581575 
" clip-path="url(#p2ece0c45f6)" style="fill: none; stroke: #ff0000; stroke-width: 1.5; stroke-linecap: square"/>
    <g clip-path="url(#p2ece0c45f6)">
     <use xlink:href="#mbcfc74e824" x="1253.658555" y="924.581575" style="fill: #ff0000; stroke: #ff0000; stroke-linejoin: bevel"/>
    </g>
   </g>
  </g>
 </g>
 <defs>
  <clipPath id="p2ece0c45f6">
   <rect x="0" y="0" width="1440" height="1440"/>
  </clipPath>
 </defs>
</svg>
