<?xml version="1.0" encoding="utf-8" standalone="no"?>
<!DOCTYPE svg PUBLIC "-//W3C//DTD SVG 1.1//EN"
  "http://www.w3.org/Graphics/SVG/1.1/DTD/svg11.dtd">
<svg xmlns:xlink="http://www.w3.org/1999/xlink" width="1440pt" height="1440pt" viewBox="0 0 1440 1440" xmlns="http://www.w3.org/2000/svg" version="1.1">
 <metadata>
  <rdf:RDF xmlns:dc="http://purl.org/dc/elements/1.1/" xmlns:cc="http://creativecommons.org/ns#" xmlns:rdf="http://www.w3.org/1999/02/22-rdf-syntax-ns#">
   <cc:Work>
    <dc:type rdf:resource="http://purl.org/dc/dcmitype/StillImage"/>
    <dc:date>2026-02-27T11:09:42.849085</dc:date>
    <dc:format>image/svg+xml</dc:format>
    <dc:creator>
     <cc:Agent>
      <dc:title>Matplotlib v3.7.3, https://matplotlib.org/</dc:title>
     </cc:Agent>
    </dc:creator>
   </cc:Work>
  </rdf:RDF>
 </metadata>
 <defs>
  <style type="text/css">*{stroke-linejoin: round; stroke-linecap: butt}</style>
 </defs>
 <g id="figure_1">
  <g id="patch_1">
   <path d="M 0 1440 
L 1440 1440 
L 1440 0 
L 0 0 
z
" style="fill: #ffffff"/>
  </g>
  <g id="axes_1">
   <g id="line2d_1">
    <path d="M 1361.92185 -1 
L 1044.844785 306.763971 
" clip-path="url(#p2c2ef99e07)" style="fill: none; stroke: #7a7a7a; stroke-width: 3; stroke-linecap: square"/>
   </g>
   <g id="line2d_2">
    <path d="M 1299.188909 -1 
L 1044.844785 253.722464 
" clip-path="url(#p2c2ef99e07)" style="fill: none; stroke: #7a7a7a; stroke-width: 3; stroke-linecap: square"/>
   </g>
   <g id="line2d_3">
    <path d="M 1044.844785 306.763971 
L 1361.92185 -1 
" clip-path="url(#p2c2ef99e07)" style="fill: none; stroke: #7a7a7a; stroke-width: 3; stroke-linecap: square"/>
   </g>
   <g id="line2d_4">
    <path d="M 1044.844785 347.420978 
L 1073.235286 320.126194 
L 1236.930379 160.02395 
L 1386.078273 24.446273 
" clip-path="url(#p2c2ef99e07)" style="fill: none; stroke: #7a7a7a; stroke-width: 3; stroke-linecap: square"/>
   </g>
   <g id="line2d_5">
    <path d="M 340.948065 988.400293 
L 340.557011 988.807678 
L 339.931325 989.29654 
L 339.696693 989.622448 
L 339.540271 989.785402 
L 338.992796 990.274264 
L -1 1318.145936 
" clip-path="url(#p2c2ef99e07)" style="fill: none; stroke: #7a7a7a; stroke-width: 3; stroke-linecap: square"/>
   </g>
   <g id="line2d_6">
    <path d="M 340.948065 945.136023 
L 340.4788 945.543408 
L 339.931325 946.03227 
L 339.46206 946.439654 
L 338.992796 946.928516 
L 150.661318 1128.703634 
L 115.779325 1162.435099 
L 57.746951 1218.002392 
L 44.685756 1230.95723 
L -1 1274.526071 
" clip-path="url(#p2c2ef99e07)" style="fill: none; stroke: #7a7a7a; stroke-width: 3; stroke-linecap: square"/>
   </g>
   <g id="line2d_7">
    <path d="M -1 1318.145936 
L 338.992796 990.274264 
L 339.540271 989.785402 
L 339.696693 989.622448 
L 339.931325 989.29654 
L 340.557011 988.807678 
L 340.948065 988.400293 
" clip-path="url(#p2c2ef99e07)" style="fill: none; stroke: #7a7a7a; stroke-width: 3; stroke-linecap: square"/>
   </g>
   <g id="line2d_8">
    <path d="M -1 1355.581834 
L 41.166272 1316.671001 
L 179.599294 1182.804341 
L 319.909374 1047.63405 
L 338.992796 1029.464686 
L 339.540271 1028.975824 
L 339.696693 1028.81287 
L 340.009536 1028.486962 
L 340.557011 1027.916623 
L 340.948065 1027.509239 
" clip-path="url(#p2c2ef99e07)" style="fill: none; stroke: #7a7a7a; stroke-width: 3; stroke-linecap: square"/>
   </g>
   <g id="line2d_9">
    <path d="M 1044.844785 306.763971 
L 1044.140888 307.497264 
L 1043.593413 307.986125 
L 1043.436991 308.230556 
L 689.064098 654.670628 
L 688.673044 655.078013 
" clip-path="url(#p2c2ef99e07)" style="fill: none; stroke: #7a7a7a; stroke-width: 3; stroke-linecap: square"/>
   </g>
   <g id="line2d_10">
    <path d="M 1044.844785 253.722464 
L 1044.062677 254.455757 
L 1043.593413 254.944619 
L 1043.436991 255.270527 
L 1020.443032 286.965067 
L 992.834638 316.948592 
L 861.988059 442.015739 
L 642.059439 654.752105 
L 641.668386 655.078013 
" clip-path="url(#p2c2ef99e07)" style="fill: none; stroke: #7a7a7a; stroke-width: 3; stroke-linecap: square"/>
   </g>
   <g id="line2d_11">
    <path d="M 688.673044 655.078013 
L 689.064098 654.670628 
L 1043.436991 308.230556 
L 1043.593413 307.986125 
L 1044.140888 307.497264 
L 1044.844785 306.763971 
" clip-path="url(#p2c2ef99e07)" style="fill: none; stroke: #7a7a7a; stroke-width: 3; stroke-linecap: square"/>
   </g>
   <g id="line2d_12">
    <path d="M 727.465575 655.078013 
L 727.856628 654.670628 
L 806.61485 577.837847 
L 834.927141 548.098753 
L 901.953751 482.835701 
L 914.46747 471.999264 
L 950.287992 437.941891 
L 952.321472 435.416105 
L 956.466641 432.075549 
L 1043.436991 349.457903 
L 1043.593413 349.294949 
L 1044.140888 348.154271 
L 1044.844785 347.420978 
" clip-path="url(#p2c2ef99e07)" style="fill: none; stroke: #7a7a7a; stroke-width: 3; stroke-linecap: square"/>
   </g>
   <g id="line2d_13">
    <path d="M 710.102789 1099.942264 
L 543.826741 913.848867 
" clip-path="url(#p2c2ef99e07)" style="fill: none; stroke: #7a7a7a; stroke-width: 3; stroke-linecap: square"/>
   </g>
   <g id="line2d_14">
    <path d="M 735.443071 1076.476897 
L 704.784458 1041.849185 
L 570.418395 887.531806 
" clip-path="url(#p2c2ef99e07)" style="fill: none; stroke: #7a7a7a; stroke-width: 3; stroke-linecap: square"/>
   </g>
   <g id="line2d_15">
    <path d="M 543.826741 913.848867 
L 710.102789 1099.942264 
" clip-path="url(#p2c2ef99e07)" style="fill: none; stroke: #7a7a7a; stroke-width: 3; stroke-linecap: square"/>
   </g>
   <g id="line2d_16">
    <path d="M 519.972464 938.536388 
L 538.117357 958.498246 
L 649.802303 1086.091179 
L 683.041871 1124.059447 
" clip-path="url(#p2c2ef99e07)" style="fill: none; stroke: #7a7a7a; stroke-width: 3; stroke-linecap: square"/>
   </g>
   <g id="line2d_17">
    <path d="M 435.035593 791.959321 
L 253.273817 586.555882 
" clip-path="url(#p2c2ef99e07)" style="fill: none; stroke: #7a7a7a; stroke-width: 3; stroke-linecap: square"/>
   </g>
   <g id="line2d_18">
    <path d="M 460.532296 767.597707 
L 356.433792 649.700533 
L 353.383573 646.278501 
L 279.005153 560.483252 
" clip-path="url(#p2c2ef99e07)" style="fill: none; stroke: #7a7a7a; stroke-width: 3; stroke-linecap: square"/>
   </g>
   <g id="line2d_19">
    <path d="M 564.943643 773.301095 
L 686.795986 656.870507 
L 687.108829 656.544599 
L 687.578094 656.137214 
L 688.673044 655.078013 
" clip-path="url(#p2c2ef99e07)" style="fill: none; stroke: #7a7a7a; stroke-width: 3; stroke-linecap: square"/>
   </g>
   <g id="line2d_20">
    <path d="M 582.775693 795.462831 
L 644.092919 735.169874 
L 700.326446 680.743259 
L 719.6445 662.573894 
L 725.588517 656.870507 
L 725.90136 656.544599 
L 726.370624 656.137214 
L 727.465575 655.078013 
" clip-path="url(#p2c2ef99e07)" style="fill: none; stroke: #7a7a7a; stroke-width: 3; stroke-linecap: square"/>
   </g>
   <g id="line2d_21">
    <path d="M 688.673044 655.078013 
L 687.578094 656.137214 
L 687.108829 656.544599 
L 686.795986 656.870507 
L 564.943643 773.301095 
" clip-path="url(#p2c2ef99e07)" style="fill: none; stroke: #7a7a7a; stroke-width: 3; stroke-linecap: square"/>
   </g>
   <g id="line2d_22">
    <path d="M 641.668386 655.078013 
L 640.651646 656.137214 
L 640.182381 656.544599 
L 639.869538 656.870507 
L 545.390956 748.776528 
" clip-path="url(#p2c2ef99e07)" style="fill: none; stroke: #7a7a7a; stroke-width: 3; stroke-linecap: square"/>
   </g>
   <g id="line2d_23">
    <path d="M 423.773245 908.38991 
L 434.018853 898.44972 
L 443.404143 886.554082 
L 450.44311 873.273336 
L 454.979333 859.096344 
L 456.856391 844.511966 
L 455.996073 830.090543 
L 452.163746 816.157981 
L 445.281201 803.28462 
L 435.035593 791.959321 
" clip-path="url(#p2c2ef99e07)" style="fill: none; stroke: #7a7a7a; stroke-width: 3; stroke-linecap: square"/>
   </g>
   <g id="line2d_24">
    <path d="M 441.370663 930.470168 
L 451.616271 920.529978 
L 471.090747 901.708798 
L 478.598979 888.75396 
L 483.682677 872.865951 
L 486.889318 855.674311 
L 487.984268 837.912332 
L 486.967529 820.394783 
L 483.760888 803.773482 
L 479.146454 792.855568 
L 474.140966 783.404239 
L 468.118739 775.500973 
L 461.236193 768.412477 
L 460.532296 767.597707 
" clip-path="url(#p2c2ef99e07)" style="fill: none; stroke: #7a7a7a; stroke-width: 3; stroke-linecap: square"/>
   </g>
   <g id="line2d_25">
    <path d="M 564.943643 773.301095 
L 516.687612 819.580014 
L 511.21286 825.609309 
L 506.520215 832.127467 
L 503.548207 837.586424 
L 501.983992 842.475042 
L 500.185145 852.496709 
L 501.514728 861.785084 
L 504.173893 868.466195 
L 507.458744 873.273336 
L 543.826741 913.848867 
" clip-path="url(#p2c2ef99e07)" style="fill: none; stroke: #7a7a7a; stroke-width: 3; stroke-linecap: square"/>
   </g>
   <g id="line2d_26">
    <path d="M 545.390956 748.776528 
L 536.787774 757.168655 
L 521.067414 771.997464 
L 490.565223 801.247696 
L 481.88383 812.817425 
L 475.939813 824.713063 
L 472.576751 837.667901 
L 471.560012 848.748769 
L 472.342119 862.273945 
L 476.174446 875.880599 
L 482.744148 890.220546 
L 492.051227 905.456739 
L 505.581686 922.648379 
L 512.151389 929.89983 
L 519.972464 938.536388 
" clip-path="url(#p2c2ef99e07)" style="fill: none; stroke: #7a7a7a; stroke-width: 3; stroke-linecap: square"/>
   </g>
   <g id="line2d_27">
    <path d="M 435.035593 791.959321 
L 445.281201 803.28462 
L 452.163746 816.157981 
L 455.996073 830.090543 
L 456.856391 844.511966 
L 454.979333 859.096344 
L 450.44311 873.273336 
L 443.404143 886.554082 
L 434.018853 898.44972 
L 423.773245 908.38991 
" clip-path="url(#p2c2ef99e07)" style="fill: none; stroke: #7a7a7a; stroke-width: 3; stroke-linecap: square"/>
   </g>
   <g id="line2d_28">
    <path d="M 410.477418 815.343211 
L 414.153323 819.580014 
L 417.829229 824.550109 
L 420.644815 829.683158 
L 422.521873 835.875407 
L 423.695035 842.882427 
L 423.069349 851.193078 
L 422.052609 858.688959 
L 419.784497 864.473824 
L 415.717538 871.806751 
L 413.605848 874.902876 
L 404.298769 883.946819 
" clip-path="url(#p2c2ef99e07)" style="fill: none; stroke: #7a7a7a; stroke-width: 3; stroke-linecap: square"/>
   </g>
   <g id="line2d_29">
    <path d="M 423.773245 908.38991 
L 564.943643 773.301095 
" clip-path="url(#p2c2ef99e07)" style="fill: none; stroke: #7a7a7a; stroke-width: 3; stroke-linecap: square"/>
   </g>
   <g id="line2d_30">
    <path d="M 441.370663 930.470168 
L 535.536402 838.156763 
L 553.05561 822.187277 
L 582.775693 795.462831 
" clip-path="url(#p2c2ef99e07)" style="fill: none; stroke: #7a7a7a; stroke-width: 3; stroke-linecap: square"/>
   </g>
   <g id="line2d_31">
    <path d="M 543.826741 913.848867 
L 507.458744 873.273336 
L 504.173893 868.466195 
L 501.514728 861.785084 
L 500.185145 852.496709 
L 501.983992 842.475042 
L 503.548207 837.586424 
L 506.520215 832.127467 
L 511.21286 825.609309 
L 516.687612 819.580014 
L 564.943643 773.301095 
" clip-path="url(#p2c2ef99e07)" style="fill: none; stroke: #7a7a7a; stroke-width: 3; stroke-linecap: square"/>
   </g>
   <g id="line2d_32">
    <path d="M 570.418395 887.531806 
L 550.00539 865.125639 
L 545.938432 860.562929 
L 545.547378 860.155544 
L 541.871473 856.000219 
L 538.039146 849.807969 
L 537.41346 847.771045 
L 537.178828 847.119229 
L 537.100617 844.511966 
L 537.100617 844.104581 
L 537.569882 841.660272 
L 540.150836 837.42347 
L 543.904952 833.675529 
L 558.999626 816.809797 
L 582.775693 795.462831 
" clip-path="url(#p2c2ef99e07)" style="fill: none; stroke: #7a7a7a; stroke-width: 3; stroke-linecap: square"/>
   </g>
   <g id="line2d_33">
    <path d="M 543.826741 913.848867 
L 435.035593 791.959321 
" clip-path="url(#p2c2ef99e07)" style="fill: none; stroke: #7a7a7a; stroke-width: 3; stroke-linecap: square"/>
   </g>
   <g id="line2d_34">
    <path d="M 570.418395 887.531806 
L 460.532296 767.597707 
" clip-path="url(#p2c2ef99e07)" style="fill: none; stroke: #7a7a7a; stroke-width: 3; stroke-linecap: square"/>
   </g>
   <g id="line2d_35">
    <path d="M 564.943643 773.301095 
L 423.773245 908.38991 
" clip-path="url(#p2c2ef99e07)" style="fill: none; stroke: #7a7a7a; stroke-width: 3; stroke-linecap: square"/>
   </g>
   <g id="line2d_36">
    <path d="M 545.390956 748.776528 
L 404.298769 883.946819 
" clip-path="url(#p2c2ef99e07)" style="fill: none; stroke: #7a7a7a; stroke-width: 3; stroke-linecap: square"/>
   </g>
   <g id="line2d_37">
    <path d="M 435.035593 791.959321 
L 543.826741 913.848867 
" clip-path="url(#p2c2ef99e07)" style="fill: none; stroke: #7a7a7a; stroke-width: 3; stroke-linecap: square"/>
   </g>
   <g id="line2d_38">
    <path d="M 410.477418 815.343211 
L 519.972464 938.536388 
" clip-path="url(#p2c2ef99e07)" style="fill: none; stroke: #7a7a7a; stroke-width: 3; stroke-linecap: square"/>
   </g>
   <g id="line2d_39">
    <path d="M 564.943643 773.301095 
L 539.290518 797.988617 
L 527.637117 806.462222 
L 514.419501 812.247086 
L 500.263356 815.261734 
L 485.637946 815.587642 
L 471.325379 813.387764 
L 457.716709 808.6621 
L 443.0913 800.677357 
L 435.035593 791.959321 
" clip-path="url(#p2c2ef99e07)" style="fill: none; stroke: #7a7a7a; stroke-width: 3; stroke-linecap: square"/>
   </g>
   <g id="line2d_40">
    <path d="M 545.390956 748.776528 
L 536.787774 757.168655 
L 517.626141 775.256543 
L 514.419501 777.782329 
L 510.11791 780.796976 
L 504.330314 783.078332 
L 499.011984 784.381963 
L 492.676913 784.707871 
L 487.045739 784.381963 
L 480.084983 782.996855 
L 474.610231 780.389592 
L 469.995797 777.537898 
L 460.532296 767.597707 
" clip-path="url(#p2c2ef99e07)" style="fill: none; stroke: #7a7a7a; stroke-width: 3; stroke-linecap: square"/>
   </g>
   <g id="line2d_41">
    <path d="M 435.035593 791.959321 
L 443.0913 800.677357 
L 457.716709 808.6621 
L 471.325379 813.387764 
L 485.637946 815.587642 
L 500.263356 815.261734 
L 514.419501 812.247086 
L 527.637117 806.462222 
L 539.290518 797.988617 
L 564.943643 773.301095 
" clip-path="url(#p2c2ef99e07)" style="fill: none; stroke: #7a7a7a; stroke-width: 3; stroke-linecap: square"/>
   </g>
   <g id="line2d_42">
    <path d="M 410.477418 815.343211 
L 412.74553 818.031951 
L 413.684059 819.091152 
L 423.538613 829.112819 
L 432.141795 835.793931 
L 441.527085 840.92698 
L 455.448598 845.652644 
L 470.38685 848.422861 
L 485.872578 849.156153 
L 501.436517 847.771045 
L 516.765823 844.267535 
L 531.313022 838.48267 
L 542.810002 831.557128 
L 558.999626 816.809797 
L 582.775693 795.462831 
" clip-path="url(#p2c2ef99e07)" style="fill: none; stroke: #7a7a7a; stroke-width: 3; stroke-linecap: square"/>
   </g>
   <g id="line2d_43">
    <path d="M 340.948065 988.400293 
L 423.773245 908.38991 
" clip-path="url(#p2c2ef99e07)" style="fill: none; stroke: #7a7a7a; stroke-width: 3; stroke-linecap: square"/>
   </g>
   <g id="line2d_44">
    <path d="M 340.948065 1027.509239 
L 395.695587 974.141824 
L 401.483182 968.519913 
L 425.806725 945.136023 
L 428.544101 942.691714 
L 441.370663 930.470168 
" clip-path="url(#p2c2ef99e07)" style="fill: none; stroke: #7a7a7a; stroke-width: 3; stroke-linecap: square"/>
   </g>
   <g id="line2d_45">
    <path d="M 423.773245 908.38991 
L 340.948065 988.400293 
" clip-path="url(#p2c2ef99e07)" style="fill: none; stroke: #7a7a7a; stroke-width: 3; stroke-linecap: square"/>
   </g>
   <g id="line2d_46">
    <path d="M 404.298769 883.946819 
L 369.494987 918.248623 
L 340.948065 945.136023 
" clip-path="url(#p2c2ef99e07)" style="fill: none; stroke: #7a7a7a; stroke-width: 3; stroke-linecap: square"/>
   </g>
   <g id="line2d_47">
    <path d="M 423.773245 908.38991 
L 435.035593 898.286766 
L 448.253209 891.4427 
L 463.03504 887.205898 
L 478.677189 885.494882 
L 494.39755 886.391128 
L 509.570434 889.813161 
L 523.335526 895.516549 
L 534.363241 903.8272 
L 543.826741 913.848867 
" clip-path="url(#p2c2ef99e07)" style="fill: none; stroke: #7a7a7a; stroke-width: 3; stroke-linecap: square"/>
   </g>
   <g id="line2d_48">
    <path d="M 441.370663 930.470168 
L 457.403866 917.189423 
L 462.409354 914.58216 
L 467.805896 913.278528 
L 472.107487 913.278528 
L 479.068243 914.256252 
L 493.067967 915.804314 
L 497.447769 916.782038 
L 500.106934 917.759761 
L 503.078942 919.959639 
L 519.972464 938.536388 
" clip-path="url(#p2c2ef99e07)" style="fill: none; stroke: #7a7a7a; stroke-width: 3; stroke-linecap: square"/>
   </g>
   <g id="line2d_49">
    <path d="M 253.273817 586.555882 
L 435.035593 791.959321 
" clip-path="url(#p2c2ef99e07)" style="fill: none; stroke: #7a7a7a; stroke-width: 3; stroke-linecap: square"/>
   </g>
   <g id="line2d_50">
    <path d="M 228.4028 610.428634 
L 292.535612 682.698706 
L 381.30481 781.7747 
L 410.477418 815.343211 
" clip-path="url(#p2c2ef99e07)" style="fill: none; stroke: #7a7a7a; stroke-width: 3; stroke-linecap: square"/>
   </g>
   <g id="line2d_51">
    <path d="M 543.826741 913.848867 
L 534.363241 903.8272 
L 523.335526 895.516549 
L 509.570434 889.813161 
L 494.39755 886.391128 
L 478.677189 885.494882 
L 463.03504 887.205898 
L 448.253209 891.4427 
L 435.035593 898.286766 
L 423.773245 908.38991 
" clip-path="url(#p2c2ef99e07)" style="fill: none; stroke: #7a7a7a; stroke-width: 3; stroke-linecap: square"/>
   </g>
   <g id="line2d_52">
    <path d="M 570.418395 887.531806 
L 559.703523 878.895247 
L 549.92718 869.525396 
L 537.178828 862.192468 
L 522.866261 856.733512 
L 507.536955 853.067048 
L 491.503752 851.356032 
L 475.235917 851.518986 
L 459.124503 853.718864 
L 443.638775 857.955666 
L 429.091576 864.31087 
L 415.952171 872.784474 
L 409.382468 879.058201 
L 404.298769 883.946819 
" clip-path="url(#p2c2ef99e07)" style="fill: none; stroke: #7a7a7a; stroke-width: 3; stroke-linecap: square"/>
   </g>
   <g id="line2d_53">
    <path d="M 959.863157 397.098775 
L 1322.68388 40.738484 
" clip-path="url(#p2c2ef99e07)" style="fill: none; stroke-dasharray: 32,8,5,8; stroke-dashoffset: 0; stroke: #1e90ff; stroke-width: 5"/>
   </g>
   <g id="line2d_54">
    <path d="M 156.421493 1195.569093 
L 523.549918 828.402561 
" clip-path="url(#p2c2ef99e07)" style="fill: none; stroke-dasharray: 32,8,5,8; stroke-dashoffset: 0; stroke: #1e90ff; stroke-width: 5"/>
   </g>
   <g id="line2d_55">
    <path d="M 959.863157 397.098775 
" clip-path="url(#p2c2ef99e07)" style="fill: none; stroke: #0000ff; stroke-width: 1.5; stroke-linecap: square"/>
    <defs>
     <path id="m560a77964c" d="M 0 10 
C 2.652031 10 5.195799 8.946337 7.071068 7.071068 
C 8.946337 5.195799 10 2.652031 10 0 
C 10 -2.652031 8.946337 -5.195799 7.071068 -7.071068 
C 5.195799 -8.946337 2.652031 -10 0 -10 
C -2.652031 -10 -5.195799 -8.946337 -7.071068 -7.071068 
C -8.946337 -5.195799 -10 -2.652031 -10 0 
C -10 2.652031 -8.946337 5.195799 -7.071068 7.071068 
C -5.195799 8.946337 -2.652031 10 0 10 
z
" style="stroke: #0000ff"/>
    </defs>
    <g clip-path="url(#p2c2ef99e07)">
     <use xlink:href="#m560a77964c" x="959.863157" y="397.098775" style="fill: #0000ff; stroke: #0000ff"/>
    </g>
   </g>
   <g id="line2d_56">
    <path d="M 156.421493 1195.569093 
" clip-path="url(#p2c2ef99e07)" style="fill: none; stroke: #0000ff; stroke-width: 1.5; stroke-linecap: square"/>
    <g clip-path="url(#p2c2ef99e07)">
     <use xlink:href="#m560a77964c" x="156.421493" y="1195.569093" style="fill: #0000ff; stroke: #0000ff"/>
    </g>
   </g>
   <g id="line2d_57">
    <path d="M 1322.68388 40.738484 
" clip-path="url(#p2c2ef99e07)" style="fill: none; stroke: #ff0000; stroke-width: 1.5; stroke-linecap: square"/>
    <defs>
     <path id="m5b0d09cb06" d="M 0 -10 
L -2.24514 -3.09017 
L -9.510565 -3.09017 
L -3.632713 1.18034 
L -5.877853 8.09017 
L -0 3.81966 
L 5.877853 8.09017 
L 3.632713 1.18034 
L 9.510565 -3.09017 
L 2.24514 -3.09017 
z
" style="stroke: #ff0000; stroke-linejoin: bevel"/>
    </defs>
    <g clip-path="url(#p2c2ef99e07)">
     <use xlink:href="#m5b0d09cb06" x="1322.68388" y="40.738484" style="fill: #ff0000; stroke: #ff0000; stroke-linejoin: bevel"/>
    </g>
   </g>
   <g id="line2d_58">
    <path d="M 523.549918 828.402561 
" clip-path="url(#p2c2ef99e07)" style="fill: none; stroke: #ff0000; stroke-width: 1.5; stroke-linecap: square"/>
    <g clip-path="url(#p2c2ef99e07)">
     <use xlink:href="#m5b0d09cb06" x="523.549918" y="828.402561" style="fill: #ff0000; stroke: #ff0000; stroke-linejoin: bevel"/>
    </g>
   </g>
  </g>
 </g>
 <defs>
  <clipPath id="p2c2ef99e07">
   <rect x="0" y="0" width="1440" height="1440"/>
  </clipPath>
 </defs>
</svg>
