<?xml version="1.0" encoding="utf-8" standalone="no"?>
<!DOCTYPE svg PUBLIC "-//W3C//DTD SVG 1.1//EN"
  "http://www.w3.org/Graphics/SVG/1.1/DTD/svg11.dtd">
<svg xmlns:xlink="http://www.w3.org/1999/xlink" width="1440pt" height="1440pt" viewBox="0 0 1440 1440" xmlns="http://www.w3.org/2000/svg" version="1.1">
 <metadata>
  <rdf:RDF xmlns:dc="http://purl.org/dc/elements/1.1/" xmlns:cc="http://creativecommons.org/ns#" xmlns:rdf="http://www.w3.org/1999/02/22-rdf-syntax-ns#">
   <cc:Work>
    <dc:type rdf:resource="http://purl.org/dc/dcmitype/StillImage"/>
    <dc:date>2026-02-27T11:09:24.502517</dc:date>
    <dc:format>image/svg+xml</dc:format>
    <dc:creator>
     <cc:Agent>
      <dc:title>Matplotlib v3.7.3, https://matplotlib.org/</dc:title>
     </cc:Agent>
    </dc:creator>
   </cc:Work>
  </rdf:RDF>
 </metadata>
 <defs>
  <style type="text/css">*{stroke-linejoin: round; stroke-linecap: butt}</style>
 </defs>
 <g id="figure_1">
  <g id="patch_1">
   <path d="M 0 1440 
L 1440 1440 
L 1440 0 
L 0 0 
z
" style="fill: #ffffff"/>
  </g>
  <g id="axes_1">
   <g id="line2d_1">
    <path d="M 374.420434 132.905071 
L 368.919552 136.285207 
L 341.523002 146.341111 
L 316.499381 152.76337 
L 293.84869 155.889995 
L 273.678789 155.889995 
L 256.097538 153.27039 
L 241.104937 148.200186 
L 228.916708 140.932894 
L 219.31713 131.89103 
" clip-path="url(#p1c614543ef)" style="fill: none; stroke: #7a7a7a; stroke-width: 3; stroke-linecap: square"/>
   </g>
   <g id="line2d_2">
    <path d="M 365.89946 119.807044 
L 360.398578 123.18718 
L 349.936116 126.060296 
L 347.886768 126.989833 
L 341.307281 129.271425 
L 335.698539 130.200962 
L 330.197656 130.200962 
L 316.715102 129.271425 
L 310.135616 128.257384 
L 304.634733 126.90533 
L 295.898038 123.694201 
L 289.965714 120.652078 
L 283.709809 116.342405 
L 278.532508 111.694718 
L 270.335115 103.244378 
" clip-path="url(#p1c614543ef)" style="fill: none; stroke: #7a7a7a; stroke-width: 3; stroke-linecap: square"/>
   </g>
   <g id="line2d_3">
    <path d="M 390.5995 158.847614 
L 363.742251 168.142988 
L 338.718631 173.973722 
L 315.528637 176.339818 
L 294.495853 175.748294 
L 275.728137 172.283655 
L 259.441211 166.368417 
L 245.742936 158.087084 
L 234.956893 147.862173 
L 219.31713 131.89103 
" clip-path="url(#p1c614543ef)" style="fill: none; stroke: #7a7a7a; stroke-width: 3; stroke-linecap: square"/>
   </g>
   <g id="line2d_4">
    <path d="M 374.420434 132.905071 
L 354.034812 138.735806 
L 333.757051 139.83435 
L 314.773614 136.707724 
L 298.378828 129.693942 
L 285.867018 119.215521 
L 270.335115 103.244378 
" clip-path="url(#p1c614543ef)" style="fill: none; stroke: #7a7a7a; stroke-width: 3; stroke-linecap: square"/>
   </g>
   <g id="line2d_5">
    <path d="M 172.505701 255.519502 
L -1 360.190145 
" clip-path="url(#p1c614543ef)" style="fill: none; stroke: #7a7a7a; stroke-width: 3; stroke-linecap: square"/>
   </g>
   <g id="line2d_6">
    <path d="M 157.944542 245.04108 
L 87.188097 289.067351 
L -1 341.609886 
" clip-path="url(#p1c614543ef)" style="fill: none; stroke: #7a7a7a; stroke-width: 3; stroke-linecap: square"/>
   </g>
   <g id="line2d_7">
    <path d="M 493.282633 59.809632 
L 374.420434 132.905071 
" clip-path="url(#p1c614543ef)" style="fill: none; stroke: #7a7a7a; stroke-width: 3; stroke-linecap: square"/>
   </g>
   <g id="line2d_8">
    <path d="M 482.388729 49.669224 
L 365.89946 119.807044 
" clip-path="url(#p1c614543ef)" style="fill: none; stroke: #7a7a7a; stroke-width: 3; stroke-linecap: square"/>
   </g>
   <g id="line2d_9">
    <path d="M 491.449006 408.724162 
L 588.739118 505.480553 
" clip-path="url(#p1c614543ef)" style="fill: none; stroke: #7a7a7a; stroke-width: 3; stroke-linecap: square"/>
   </g>
   <g id="line2d_10">
    <path d="M 464.160316 426.216365 
L 468.798315 429.173984 
L 476.240685 435.934256 
L 501.803608 461.707793 
L 518.737696 479.79152 
L 535.779645 498.635778 
L 544.300619 507.931151 
L 546.134246 510.043736 
" clip-path="url(#p1c614543ef)" style="fill: none; stroke: #7a7a7a; stroke-width: 3; stroke-linecap: square"/>
   </g>
   <g id="line2d_11">
    <path d="M 165.063331 520.522158 
L 165.386912 520.353151 
L 170.240632 517.395532 
L 202.706623 497.283723 
" clip-path="url(#p1c614543ef)" style="fill: none; stroke: #7a7a7a; stroke-width: 3; stroke-linecap: square"/>
   </g>
   <g id="line2d_12">
    <path d="M 193.430625 520.522158 
L 193.862067 520.353151 
L 198.284345 517.649042 
L 198.715787 517.395532 
L 216.83634 506.241083 
" clip-path="url(#p1c614543ef)" style="fill: none; stroke: #7a7a7a; stroke-width: 3; stroke-linecap: square"/>
   </g>
   <g id="line2d_13">
    <path d="M 491.449006 408.724162 
L 474.946359 392.330503 
L 465.13106 381.345061 
L 459.090876 368.331538 
L 456.717946 353.96596 
L 457.904411 338.924355 
L 462.542409 324.051757 
L 470.524082 309.93969 
L 481.741567 297.348684 
L 495.331982 285.771718 
" clip-path="url(#p1c614543ef)" style="fill: none; stroke: #7a7a7a; stroke-width: 3; stroke-linecap: square"/>
   </g>
   <g id="line2d_14">
    <path d="M 521.649928 390.048911 
L 505.255142 373.570749 
L 494.576959 359.627688 
L 493.174773 342.727008 
L 499.107097 326.079839 
L 510.432442 312.981812 
" clip-path="url(#p1c614543ef)" style="fill: none; stroke: #7a7a7a; stroke-width: 3; stroke-linecap: square"/>
   </g>
   <g id="line2d_15">
    <path d="M 219.31713 131.89103 
L 228.161685 142.200445 
L 233.878288 154.030921 
L 236.143357 167.044444 
L 234.956893 181.241015 
L 229.671731 196.451626 
L 220.180013 212.507272 
L 206.158157 229.323448 
L 187.282581 246.646645 
L 172.505701 255.519502 
" clip-path="url(#p1c614543ef)" style="fill: none; stroke: #7a7a7a; stroke-width: 3; stroke-linecap: square"/>
   </g>
   <g id="line2d_16">
    <path d="M 172.397841 160.453179 
L 184.370349 175.748294 
L 184.909651 177.269355 
L 185.772535 178.283396 
L 186.851139 180.480484 
L 187.17472 182.762076 
L 187.06686 183.269096 
L 190.194812 192.141953 
L 189.979092 208.451109 
L 184.046768 223.492714 
L 172.721422 236.168223 
L 157.944542 245.04108 
" clip-path="url(#p1c614543ef)" style="fill: none; stroke: #7a7a7a; stroke-width: 3; stroke-linecap: square"/>
   </g>
   <g id="line2d_17">
    <path d="M 304.526873 400.442829 
L 308.625569 397.907727 
L 326.853983 389.710898 
L 346.05314 383.880163 
L 365.89946 380.162014 
L 385.961501 378.556449 
L 406.023542 378.978966 
L 425.654141 381.345061 
L 444.313996 385.654734 
L 461.787386 391.654476 
L 477.64287 399.344285 
L 491.449006 408.724162 
" clip-path="url(#p1c614543ef)" style="fill: none; stroke: #7a7a7a; stroke-width: 3; stroke-linecap: square"/>
   </g>
   <g id="line2d_18">
    <path d="M 326.314681 423.08974 
L 330.413377 420.554638 
L 351.985464 413.371849 
L 373.988993 409.062176 
L 395.56108 407.541115 
L 416.162423 408.555155 
L 434.930138 412.104298 
L 451.217064 418.019536 
L 464.160316 426.216365 
" clip-path="url(#p1c614543ef)" style="fill: none; stroke: #7a7a7a; stroke-width: 3; stroke-linecap: square"/>
   </g>
   <g id="line2d_19">
    <path d="M 719.088335 -1 
L 542.03555 105.27246 
" clip-path="url(#p1c614543ef)" style="fill: none; stroke: #7a7a7a; stroke-width: 3; stroke-linecap: square"/>
   </g>
   <g id="line2d_20">
    <path d="M 655.190409 -1 
L 517.22765 82.118529 
" clip-path="url(#p1c614543ef)" style="fill: none; stroke: #7a7a7a; stroke-width: 3; stroke-linecap: square"/>
   </g>
   <g id="line2d_21">
    <path d="M 173.800026 480.467547 
L 304.526873 400.442829 
" clip-path="url(#p1c614543ef)" style="fill: none; stroke: #7a7a7a; stroke-width: 3; stroke-linecap: square"/>
   </g>
   <g id="line2d_22">
    <path d="M 202.706623 497.283723 
L 326.314681 423.08974 
" clip-path="url(#p1c614543ef)" style="fill: none; stroke: #7a7a7a; stroke-width: 3; stroke-linecap: square"/>
   </g>
   <g id="line2d_23">
    <path d="M 510.432442 312.981812 
L 1029.822403 -1 
" clip-path="url(#p1c614543ef)" style="fill: none; stroke: #7a7a7a; stroke-width: 3; stroke-linecap: square"/>
   </g>
   <g id="line2d_24">
    <path d="M 522.836392 321.263145 
L 539.878341 309.094656 
L 552.174431 300.897826 
L 580.757446 283.57463 
L 611.389809 266.504943 
L 628.539618 257.209569 
L 645.365846 246.984658 
L 647.199473 246.055121 
L 801.116313 152.932376 
L 807.372219 148.5382 
L 826.787097 136.285207 
L 866.695458 112.032732 
L 886.865359 100.962787 
L 890.964055 98.596691 
L 983.292587 42.739945 
L 995.265095 34.458612 
L 1002.491745 30.064436 
L 1026.976063 16.290382 
L 1055.624426 -1 
" clip-path="url(#p1c614543ef)" style="fill: none; stroke: #7a7a7a; stroke-width: 3; stroke-linecap: square"/>
   </g>
   <g id="line2d_25">
    <path d="M 326.314681 423.08974 
L 510.432442 312.981812 
" clip-path="url(#p1c614543ef)" style="fill: none; stroke: #7a7a7a; stroke-width: 3; stroke-linecap: square"/>
   </g>
   <g id="line2d_26">
    <path d="M 334.943515 433.568161 
L 352.309045 424.103781 
L 364.928716 416.413971 
L 522.836392 321.263145 
" clip-path="url(#p1c614543ef)" style="fill: none; stroke: #7a7a7a; stroke-width: 3; stroke-linecap: square"/>
   </g>
   <g id="line2d_27">
    <path d="M 655.190409 -1 
L 517.22765 82.118529 
" clip-path="url(#p1c614543ef)" style="fill: none; stroke: #7a7a7a; stroke-width: 3; stroke-linecap: square"/>
   </g>
   <g id="line2d_28">
    <path d="M 595.015924 -1 
L 493.282633 59.809632 
" clip-path="url(#p1c614543ef)" style="fill: none; stroke: #7a7a7a; stroke-width: 3; stroke-linecap: square"/>
   </g>
   <g id="line2d_29">
    <path d="M 477.966452 253.99844 
L 519.924161 228.731924 
L 521.326346 228.055897 
L 542.574852 216.309925 
L 552.498012 210.056673 
L 566.304147 202.620374 
L 573.315076 199.071232 
L 583.777538 192.226456 
L 592.082791 187.156253 
L 604.27102 179.212933 
L 616.135668 171.692131 
L 630.049664 163.326294 
L 644.395102 154.875955 
L 671.899513 137.806268 
L 703.50262 118.539493 
L 733.379961 100.54027 
L 768.00316 80.681971 
L 783.966504 70.45706 
L 807.6958 56.006979 
L 807.911521 55.837972 
L 855.477972 28.712381 
L 896.249217 4.79792 
L 905.817299 -1 
" clip-path="url(#p1c614543ef)" style="fill: none; stroke: #7a7a7a; stroke-width: 3; stroke-linecap: square"/>
   </g>
   <g id="line2d_30">
    <path d="M 495.331982 285.771718 
L 970.346617 -1 
" clip-path="url(#p1c614543ef)" style="fill: none; stroke: #7a7a7a; stroke-width: 3; stroke-linecap: square"/>
   </g>
   <g id="line2d_31">
    <path d="M 200.657275 273.856739 
L -1 395.842617 
" clip-path="url(#p1c614543ef)" style="fill: none; stroke: #7a7a7a; stroke-width: 3; stroke-linecap: square"/>
   </g>
   <g id="line2d_32">
    <path d="M 172.505701 255.519502 
L -1 360.190145 
" clip-path="url(#p1c614543ef)" style="fill: none; stroke: #7a7a7a; stroke-width: 3; stroke-linecap: square"/>
   </g>
   <g id="line2d_33">
    <path d="M 491.449006 408.724162 
L 219.31713 131.89103 
" clip-path="url(#p1c614543ef)" style="fill: none; stroke: #7a7a7a; stroke-width: 3; stroke-linecap: square"/>
   </g>
   <g id="line2d_34">
    <path d="M 521.649928 390.048911 
L 270.335115 103.244378 
" clip-path="url(#p1c614543ef)" style="fill: none; stroke: #7a7a7a; stroke-width: 3; stroke-linecap: square"/>
   </g>
   <g id="line2d_35">
    <path d="M 225.249454 296.588153 
L 162.25896 333.431634 
L 159.023147 335.206206 
L 142.628361 344.924097 
L -1 433.704618 
" clip-path="url(#p1c614543ef)" style="fill: none; stroke: #7a7a7a; stroke-width: 3; stroke-linecap: square"/>
   </g>
   <g id="line2d_36">
    <path d="M 200.657275 273.856739 
L -1 395.842617 
" clip-path="url(#p1c614543ef)" style="fill: none; stroke: #7a7a7a; stroke-width: 3; stroke-linecap: square"/>
   </g>
   <g id="line2d_37">
    <path d="M 491.449006 408.724162 
L 397.394707 314.92539 
L 382.509967 305.376506 
L 364.173693 297.855704 
L 343.57235 292.362983 
L 321.460961 288.644834 
L 299.025991 286.870262 
L 277.238183 286.785759 
L 256.960421 288.391323 
L 239.379171 291.771459 
L 225.249454 296.588153 
" clip-path="url(#p1c614543ef)" style="fill: none; stroke: #7a7a7a; stroke-width: 3; stroke-linecap: square"/>
   </g>
   <g id="line2d_38">
    <path d="M 521.649928 390.048911 
L 427.703489 296.250139 
L 414.328795 285.180194 
L 398.257591 276.053827 
L 379.921317 268.702032 
L 359.967136 263.124807 
L 338.826491 259.237651 
L 317.038683 256.956059 
L 295.035155 256.195529 
L 273.355207 256.956059 
L 252.646004 259.237651 
L 233.231126 262.786794 
L 215.757735 267.687991 
L 200.657275 273.856739 
" clip-path="url(#p1c614543ef)" style="fill: none; stroke: #7a7a7a; stroke-width: 3; stroke-linecap: square"/>
   </g>
   <g id="line2d_39">
    <path d="M 105.740092 520.522158 
L 106.063673 520.353151 
L 110.917393 517.395532 
L 173.800026 480.467547 
" clip-path="url(#p1c614543ef)" style="fill: none; stroke: #7a7a7a; stroke-width: 3; stroke-linecap: square"/>
   </g>
   <g id="line2d_40">
    <path d="M 165.063331 520.522158 
L 165.386912 520.353151 
L 170.240632 517.395532 
L 202.706623 497.283723 
" clip-path="url(#p1c614543ef)" style="fill: none; stroke: #7a7a7a; stroke-width: 3; stroke-linecap: square"/>
   </g>
   <g id="line2d_41">
    <path d="M 374.420434 132.905071 
L 172.505701 255.519502 
" clip-path="url(#p1c614543ef)" style="fill: none; stroke: #7a7a7a; stroke-width: 3; stroke-linecap: square"/>
   </g>
   <g id="line2d_42">
    <path d="M 365.89946 119.807044 
L 157.944542 245.04108 
" clip-path="url(#p1c614543ef)" style="fill: none; stroke: #7a7a7a; stroke-width: 3; stroke-linecap: square"/>
   </g>
   <g id="line2d_43">
    <path d="M 281.121159 375.59883 
L 295.358736 366.303456 
L 306.144779 355.487021 
L 313.69501 343.318532 
L 318.225148 330.051499 
L 320.058776 315.770424 
L 319.411613 300.644316 
L 316.499381 284.842181 
L 311.645662 268.702032 
L 304.958315 252.223869 
L 296.868782 235.5767 
L 287.484924 219.098537 
L 277.130323 202.873885 
L 266.128558 187.071749 
L 254.479631 171.945641 
L 242.722844 157.580063 
L 230.858196 144.144023 
L 219.31713 131.89103 
" clip-path="url(#p1c614543ef)" style="fill: none; stroke: #7a7a7a; stroke-width: 3; stroke-linecap: square"/>
   </g>
   <g id="line2d_44">
    <path d="M 304.526873 400.442829 
L 319.627334 391.992489 
L 332.247005 381.936585 
L 342.385885 370.444123 
L 350.367558 357.68411 
L 356.084161 343.741049 
L 359.859276 328.868451 
L 361.800764 313.150819 
L 361.908624 296.75716 
L 360.398578 279.771977 
L 357.270625 262.533284 
L 352.848348 244.956577 
L 347.131745 227.464373 
L 340.228677 209.97217 
L 332.354865 192.733477 
L 323.61817 175.917301 
L 314.018591 159.608145 
L 303.77185 144.05952 
L 292.985806 129.440432 
L 281.768321 115.750881 
L 270.335115 103.244378 
" clip-path="url(#p1c614543ef)" style="fill: none; stroke: #7a7a7a; stroke-width: 3; stroke-linecap: square"/>
   </g>
   <g id="line2d_45">
    <path d="M 304.526873 400.442829 
L 495.331982 285.771718 
" clip-path="url(#p1c614543ef)" style="fill: none; stroke: #7a7a7a; stroke-width: 3; stroke-linecap: square"/>
   </g>
   <g id="line2d_46">
    <path d="M 326.314681 423.08974 
L 510.432442 312.981812 
" clip-path="url(#p1c614543ef)" style="fill: none; stroke: #7a7a7a; stroke-width: 3; stroke-linecap: square"/>
   </g>
   <g id="line2d_47">
    <path d="M 491.449006 408.724162 
L 455.639342 379.485986 
L 425.43842 356.247552 
L 397.178986 335.713226 
L 370.645319 317.883009 
L 346.05314 302.418887 
L 323.186728 289.320861 
L 302.046083 278.335419 
L 282.631205 269.378059 
L 264.942093 262.279773 
L 248.763028 256.871556 
L 234.094009 252.9844 
L 221.042897 250.449298 
L 209.50183 249.181747 
L 199.362949 248.928236 
L 190.626254 249.604264 
L 183.291745 251.040821 
L 177.25156 253.068903 
L 172.505701 255.519502 
" clip-path="url(#p1c614543ef)" style="fill: none; stroke: #7a7a7a; stroke-width: 3; stroke-linecap: square"/>
   </g>
   <g id="line2d_48">
    <path d="M 521.649928 390.048911 
L 518.090533 386.922285 
L 490.478262 361.993783 
L 463.513153 339.684886 
L 437.303068 319.995594 
L 411.740145 302.841404 
L 387.040105 287.884303 
L 363.31081 275.12429 
L 340.444398 264.392358 
L 318.548729 255.604005 
L 297.731666 248.50572 
L 278.101066 243.012999 
L 259.656932 238.956836 
L 242.399263 236.252727 
L 226.543779 234.731666 
L 212.090481 234.224645 
L 199.039368 234.647162 
L 187.606162 235.745706 
L 177.575142 237.520278 
L 169.377749 239.717366 
L 162.690402 242.336971 
L 157.944542 245.04108 
" clip-path="url(#p1c614543ef)" style="fill: none; stroke: #7a7a7a; stroke-width: 3; stroke-linecap: square"/>
   </g>
   <g id="line2d_49">
    <path d="M 595.015924 -1 
L 493.282633 59.809632 
" clip-path="url(#p1c614543ef)" style="fill: none; stroke: #7a7a7a; stroke-width: 3; stroke-linecap: square"/>
   </g>
   <g id="line2d_50">
    <path d="M 567.017137 -1 
L 557.459592 4.459906 
L 482.388729 49.669224 
" clip-path="url(#p1c614543ef)" style="fill: none; stroke: #7a7a7a; stroke-width: 3; stroke-linecap: square"/>
   </g>
   <g id="line2d_51">
    <path d="M 219.31713 131.89103 
L 228.377406 141.101901 
L 236.359078 154.875955 
L 242.399263 168.311995 
L 246.066517 181.748035 
L 247.145122 195.353082 
L 245.203634 209.296143 
L 239.810612 223.915231 
L 230.858196 239.379353 
L 217.914944 255.942019 
L 200.657275 273.856739 
" clip-path="url(#p1c614543ef)" style="fill: none; stroke: #7a7a7a; stroke-width: 3; stroke-linecap: square"/>
   </g>
   <g id="line2d_52">
    <path d="M 172.397841 160.453179 
L 181.458117 169.664049 
L 191.057696 182.170552 
L 196.450718 195.775599 
L 197.421461 210.22568 
L 193.969928 225.182782 
L 185.664674 240.393393 
L 172.505701 255.519502 
" clip-path="url(#p1c614543ef)" style="fill: none; stroke: #7a7a7a; stroke-width: 3; stroke-linecap: square"/>
   </g>
   <g id="line2d_53">
    <path d="M 407.749309 185.888702 
L 225.249454 296.588153 
" clip-path="url(#p1c614543ef)" style="fill: none; stroke: #7a7a7a; stroke-width: 3; stroke-linecap: square"/>
   </g>
   <g id="line2d_54">
    <path d="M 390.5995 158.847614 
L 200.657275 273.856739 
" clip-path="url(#p1c614543ef)" style="fill: none; stroke: #7a7a7a; stroke-width: 3; stroke-linecap: square"/>
   </g>
   <g id="line2d_55">
    <path d="M 202.706623 497.283723 
L 326.314681 423.08974 
" clip-path="url(#p1c614543ef)" style="fill: none; stroke: #7a7a7a; stroke-width: 3; stroke-linecap: square"/>
   </g>
   <g id="line2d_56">
    <path d="M 216.83634 506.241083 
L 236.79052 493.988091 
L 260.304095 479.453506 
L 289.642133 461.285276 
L 317.470125 443.539562 
L 334.943515 433.568161 
" clip-path="url(#p1c614543ef)" style="fill: none; stroke: #7a7a7a; stroke-width: 3; stroke-linecap: square"/>
   </g>
   <g id="line2d_57">
    <path d="M 407.749309 185.888702 
L 401.385543 191.719436 
L 396.208242 199.240238 
L 392.325267 208.451109 
L 389.844477 219.18304 
L 388.873733 231.35153 
L 389.628756 244.872073 
L 392.109546 259.660168 
L 396.423963 275.63131 
L 402.787729 292.616493 
L 411.308703 310.615717 
L 421.986886 329.544478 
L 435.037999 349.318273 
L 450.462041 369.768096 
L 468.582594 390.809442 
L 491.449006 408.724162 
" clip-path="url(#p1c614543ef)" style="fill: none; stroke: #7a7a7a; stroke-width: 3; stroke-linecap: square"/>
   </g>
   <g id="line2d_58">
    <path d="M 390.5995 158.847614 
L 377.009085 168.311995 
L 366.546623 179.466443 
L 358.888532 192.141953 
L 354.034812 206.085014 
L 351.554022 221.126619 
L 351.338302 237.097761 
L 353.279789 253.660427 
L 357.054905 270.64561 
L 362.555787 287.7998 
L 369.458855 305.038493 
L 377.548387 322.108179 
L 386.824384 338.755349 
L 396.855405 354.726491 
L 407.533588 369.937102 
L 418.643213 384.04917 
L 429.968558 396.893686 
L 441.293904 408.301645 
L 464.160316 426.216365 
" clip-path="url(#p1c614543ef)" style="fill: none; stroke: #7a7a7a; stroke-width: 3; stroke-linecap: square"/>
   </g>
   <g id="line2d_59">
    <path d="M 39.405925 520.522158 
L 39.729506 520.353151 
L 44.259645 517.564539 
L 44.583226 517.395532 
L 137.666781 461.538786 
" clip-path="url(#p1c614543ef)" style="fill: none; stroke: #7a7a7a; stroke-width: 3; stroke-linecap: square"/>
   </g>
   <g id="line2d_60">
    <path d="M 105.740092 520.522158 
L 106.063673 520.353151 
L 110.917393 517.395532 
L 173.800026 480.467547 
" clip-path="url(#p1c614543ef)" style="fill: none; stroke: #7a7a7a; stroke-width: 3; stroke-linecap: square"/>
   </g>
   <g id="line2d_61">
    <path d="M 542.03555 105.27246 
L 407.749309 185.888702 
" clip-path="url(#p1c614543ef)" style="fill: none; stroke: #7a7a7a; stroke-width: 3; stroke-linecap: square"/>
   </g>
   <g id="line2d_62">
    <path d="M 517.22765 82.118529 
L 390.5995 158.847614 
" clip-path="url(#p1c614543ef)" style="fill: none; stroke: #7a7a7a; stroke-width: 3; stroke-linecap: square"/>
   </g>
   <g id="line2d_63">
    <path d="M 326.314681 423.08974 
L 356.299882 405.259523 
L 378.19555 398.161237 
L 398.904753 394.612095 
L 418.751073 394.020571 
L 437.73451 395.795142 
L 456.178644 399.259782 
L 473.975616 403.738462 
L 491.449006 408.724162 
" clip-path="url(#p1c614543ef)" style="fill: none; stroke: #7a7a7a; stroke-width: 3; stroke-linecap: square"/>
   </g>
   <g id="line2d_64">
    <path d="M 334.943515 433.568161 
L 364.928716 415.653441 
L 381.107781 408.724162 
L 399.444055 405.597536 
L 418.427492 405.93555 
L 436.548045 409.653699 
L 452.295668 416.498475 
L 464.160316 426.216365 
" clip-path="url(#p1c614543ef)" style="fill: none; stroke: #7a7a7a; stroke-width: 3; stroke-linecap: square"/>
   </g>
   <g id="line2d_65">
    <path d="M 219.31713 131.89103 
L 322.647426 237.097761 
L 336.237841 246.139624 
L 351.554022 253.49142 
L 368.595971 258.899637 
L 387.471547 262.44878 
L 407.857169 263.800835 
L 429.752837 262.955801 
L 453.158552 259.744671 
L 477.966452 253.99844 
" clip-path="url(#p1c614543ef)" style="fill: none; stroke: #7a7a7a; stroke-width: 3; stroke-linecap: square"/>
   </g>
   <g id="line2d_66">
    <path d="M 172.397841 160.453179 
L 275.835997 265.659909 
L 293.417248 276.307337 
L 311.861382 285.433704 
L 330.952679 292.954507 
L 350.691139 298.785241 
L 370.75318 302.925908 
L 391.354523 305.2075 
L 412.171587 305.630017 
L 433.096511 304.024452 
L 454.129296 300.475309 
L 475.16208 294.813582 
L 495.331982 285.771718 
" clip-path="url(#p1c614543ef)" style="fill: none; stroke: #7a7a7a; stroke-width: 3; stroke-linecap: square"/>
   </g>
   <g id="line2d_67">
    <path d="M 219.31713 131.89103 
L 243.801448 156.312512 
L 274.325951 185.635191 
L 302.693246 211.408728 
L 328.903331 233.802128 
L 352.956208 252.9844 
L 374.959737 269.209052 
L 395.129638 282.729596 
L 413.250191 293.715037 
L 429.644977 302.418887 
L 444.313996 309.094656 
L 457.257248 313.91135 
L 468.582594 317.122479 
L 478.397893 318.981553 
L 486.703147 319.657581 
L 493.498354 319.40407 
L 499.107097 318.474533 
L 503.313654 317.037975 
L 510.432442 312.981812 
" clip-path="url(#p1c614543ef)" style="fill: none; stroke: #7a7a7a; stroke-width: 3; stroke-linecap: square"/>
   </g>
   <g id="line2d_68">
    <path d="M 172.397841 160.453179 
L 196.882159 184.874661 
L 234.417591 208.197599 
L 268.609348 229.069938 
L 299.673153 247.745189 
L 327.824727 264.138848 
L 353.279789 278.419922 
L 376.146201 290.757418 
L 396.639684 301.23584 
L 414.868097 309.93969 
L 431.155023 317.037975 
L 445.716182 322.530696 
L 458.551573 326.586859 
L 469.984779 329.290968 
L 480.12366 330.727526 
L 489.291797 331.150043 
L 497.48919 330.474016 
L 505.039421 328.952954 
L 512.050349 326.671363 
L 518.737696 323.62924 
L 522.836392 321.263145 
" clip-path="url(#p1c614543ef)" style="fill: none; stroke: #7a7a7a; stroke-width: 3; stroke-linecap: square"/>
   </g>
   <g id="line2d_69">
    <path d="M 219.31713 131.89103 
L 115.12395 24.740722 
" clip-path="url(#p1c614543ef)" style="fill: none; stroke: #7a7a7a; stroke-width: 3; stroke-linecap: square"/>
   </g>
   <g id="line2d_70">
    <path d="M 270.335115 103.244378 
L 238.947729 71.217591 
L 170.240632 1.924804 
" clip-path="url(#p1c614543ef)" style="fill: none; stroke: #7a7a7a; stroke-width: 3; stroke-linecap: square"/>
   </g>
   <g id="line2d_71">
    <path d="M 390.5995 158.847614 
L 200.657275 273.856739 
" clip-path="url(#p1c614543ef)" style="fill: none; stroke: #7a7a7a; stroke-width: 3; stroke-linecap: square"/>
   </g>
   <g id="line2d_72">
    <path d="M 374.420434 132.905071 
L 172.505701 255.519502 
" clip-path="url(#p1c614543ef)" style="fill: none; stroke: #7a7a7a; stroke-width: 3; stroke-linecap: square"/>
   </g>
   <g id="line2d_73">
    <path d="M 603.623858 520.522158 
L 603.408137 520.353151 
L 600.495905 517.311028 
L 588.739118 505.480553 
" clip-path="url(#p1c614543ef)" style="fill: none; stroke: #7a7a7a; stroke-width: 3; stroke-linecap: square"/>
   </g>
   <g id="line2d_74">
    <path d="M 650.866728 520.522158 
L 650.651007 520.268647 
L 647.630915 517.311028 
L 641.051429 510.719763 
L 639.757103 509.367709 
L 627.029572 495.931669 
" clip-path="url(#p1c614543ef)" style="fill: none; stroke: #7a7a7a; stroke-width: 3; stroke-linecap: square"/>
   </g>
   <g id="line2d_75">
    <path d="M 219.31713 131.89103 
L 491.449006 408.724162 
" clip-path="url(#p1c614543ef)" style="fill: none; stroke: #7a7a7a; stroke-width: 3; stroke-linecap: square"/>
   </g>
   <g id="line2d_76">
    <path d="M 172.397841 160.453179 
L 464.160316 426.216365 
" clip-path="url(#p1c614543ef)" style="fill: none; stroke: #7a7a7a; stroke-width: 3; stroke-linecap: square"/>
   </g>
   <g id="line2d_77">
    <path d="M 281.121159 375.59883 
L 477.966452 253.99844 
" clip-path="url(#p1c614543ef)" style="fill: none; stroke: #7a7a7a; stroke-width: 3; stroke-linecap: square"/>
   </g>
   <g id="line2d_78">
    <path d="M 304.526873 400.442829 
L 495.331982 285.771718 
" clip-path="url(#p1c614543ef)" style="fill: none; stroke: #7a7a7a; stroke-width: 3; stroke-linecap: square"/>
   </g>
   <g id="line2d_79">
    <path d="M 517.22765 82.118529 
L 390.5995 158.847614 
" clip-path="url(#p1c614543ef)" style="fill: none; stroke: #7a7a7a; stroke-width: 3; stroke-linecap: square"/>
   </g>
   <g id="line2d_80">
    <path d="M 493.282633 59.809632 
L 374.420434 132.905071 
" clip-path="url(#p1c614543ef)" style="fill: none; stroke: #7a7a7a; stroke-width: 3; stroke-linecap: square"/>
   </g>
   <g id="line2d_81">
    <path d="M 495.331982 285.771718 
L 970.346617 -1 
" clip-path="url(#p1c614543ef)" style="fill: none; stroke: #7a7a7a; stroke-width: 3; stroke-linecap: square"/>
   </g>
   <g id="line2d_82">
    <path d="M 510.432442 312.981812 
L 1029.822403 -1 
" clip-path="url(#p1c614543ef)" style="fill: none; stroke: #7a7a7a; stroke-width: 3; stroke-linecap: square"/>
   </g>
   <g id="line2d_83">
    <path d="M 491.449006 408.724162 
L 482.280869 397.569714 
L 476.995708 385.992748 
L 475.377801 373.232735 
L 477.53501 359.458681 
L 484.006636 344.75509 
L 494.792679 329.206465 
L 510.432442 312.981812 
" clip-path="url(#p1c614543ef)" style="fill: none; stroke: #7a7a7a; stroke-width: 3; stroke-linecap: square"/>
   </g>
   <g id="line2d_84">
    <path d="M 521.649928 390.048911 
L 521.002765 389.288381 
L 511.403186 376.528367 
L 506.980908 363.176831 
L 505.255142 359.881198 
L 504.284398 356.754572 
L 504.500118 350.754831 
L 506.333746 338.839852 
L 507.951652 334.868192 
L 510.971745 330.558519 
L 516.472627 325.826329 
L 522.836392 321.263145 
" clip-path="url(#p1c614543ef)" style="fill: none; stroke: #7a7a7a; stroke-width: 3; stroke-linecap: square"/>
   </g>
   <g id="line2d_85">
    <path d="M 137.666781 461.538786 
L 180.703094 436.187766 
L 211.659039 417.174502 
L 246.390099 395.372625 
L 281.121159 375.59883 
" clip-path="url(#p1c614543ef)" style="fill: none; stroke: #7a7a7a; stroke-width: 3; stroke-linecap: square"/>
   </g>
   <g id="line2d_86">
    <path d="M 173.800026 480.467547 
L 304.526873 400.442829 
" clip-path="url(#p1c614543ef)" style="fill: none; stroke: #7a7a7a; stroke-width: 3; stroke-linecap: square"/>
   </g>
   <g id="line2d_87">
    <path d="M 1338.369138 1271.757366 
L 603.623858 520.522158 
" clip-path="url(#p1c614543ef)" style="fill: none; stroke: #7a7a7a; stroke-width: 3; stroke-linecap: square"/>
   </g>
   <g id="line2d_88">
    <path d="M 1365.981409 1258.236822 
L 987.391284 868.50715 
L 977.575984 859.380783 
L 847.172719 728.147006 
L 757.432837 634.601745 
L 737.370797 610.095759 
L 673.517419 543.084565 
L 650.866728 520.522158 
" clip-path="url(#p1c614543ef)" style="fill: none; stroke: #7a7a7a; stroke-width: 3; stroke-linecap: square"/>
   </g>
   <g id="line2d_89">
    <path d="M 603.623858 520.522158 
L 1338.369138 1271.757366 
" clip-path="url(#p1c614543ef)" style="fill: none; stroke: #7a7a7a; stroke-width: 3; stroke-linecap: square"/>
   </g>
   <g id="line2d_90">
    <path d="M 556.057406 520.522158 
L 701.02183 665.022968 
L 701.668993 665.360982 
L 715.151547 679.219539 
L 772.317577 736.597346 
L 781.593575 744.033645 
L 797.017617 758.737237 
L 804.675708 766.934066 
L 814.275286 776.48295 
L 828.189282 791.862569 
L 837.681001 800.819929 
L 844.368348 807.918214 
L 886.973219 849.8319 
L 924.50865 888.618959 
L 948.453667 914.646006 
L 970.888637 937.208413 
L 981.027518 946.8418 
L 991.166399 957.658235 
L 1005.835418 971.93931 
L 1013.493509 980.136139 
L 1121.246083 1088.553999 
L 1143.249612 1110.862896 
L 1143.896774 1111.45442 
L 1146.701145 1114.412039 
L 1312.914075 1283.587841 
" clip-path="url(#p1c614543ef)" style="fill: none; stroke: #7a7a7a; stroke-width: 3; stroke-linecap: square"/>
   </g>
   <g id="line2d_91">
    <path d="M 115.12395 24.740722 
L 219.31713 131.89103 
" clip-path="url(#p1c614543ef)" style="fill: none; stroke: #7a7a7a; stroke-width: 3; stroke-linecap: square"/>
   </g>
   <g id="line2d_92">
    <path d="M 59.144384 46.289088 
L 172.397841 160.453179 
" clip-path="url(#p1c614543ef)" style="fill: none; stroke: #7a7a7a; stroke-width: 3; stroke-linecap: square"/>
   </g>
   <g id="line2d_93">
    <path d="M 588.739118 505.480553 
L 491.449006 408.724162 
" clip-path="url(#p1c614543ef)" style="fill: none; stroke: #7a7a7a; stroke-width: 3; stroke-linecap: square"/>
   </g>
   <g id="line2d_94">
    <path d="M 627.029572 495.931669 
L 521.649928 390.048911 
" clip-path="url(#p1c614543ef)" style="fill: none; stroke: #7a7a7a; stroke-width: 3; stroke-linecap: square"/>
   </g>
   <g id="line2d_95">
    <path d="M 588.739118 505.480553 
L 600.495905 517.311028 
L 603.408137 520.353151 
L 603.623858 520.522158 
" clip-path="url(#p1c614543ef)" style="fill: none; stroke: #7a7a7a; stroke-width: 3; stroke-linecap: square"/>
   </g>
   <g id="line2d_96">
    <path d="M 546.134246 510.043736 
L 552.929454 517.311028 
L 555.841685 520.353151 
L 556.057406 520.522158 
" clip-path="url(#p1c614543ef)" style="fill: none; stroke: #7a7a7a; stroke-width: 3; stroke-linecap: square"/>
   </g>
   <g id="line2d_97">
    <path d="M 980.280448 999.240303 
L 1278.209348 1186.489806 
" clip-path="url(#p1c614543ef)" style="fill: none; stroke-dasharray: 32,8,5,8; stroke-dashoffset: 0; stroke: #1e90ff; stroke-width: 5"/>
   </g>
   <g id="line2d_98">
    <path d="M 273.867018 42.251699 
L 215.720869 102.170509 
" clip-path="url(#p1c614543ef)" style="fill: none; stroke-dasharray: 32,8,5,8; stroke-dashoffset: 0; stroke: #1e90ff; stroke-width: 5"/>
   </g>
   <g id="line2d_99">
    <path d="M 980.280448 999.240303 
" clip-path="url(#p1c614543ef)" style="fill: none; stroke: #0000ff; stroke-width: 1.5; stroke-linecap: square"/>
    <defs>
     <path id="m83d17b9c1e" d="M 0 10 
C 2.652031 10 5.195799 8.946337 7.071068 7.071068 
C 8.946337 5.195799 10 2.652031 10 0 
C 10 -2.652031 8.946337 -5.195799 7.071068 -7.071068 
C 5.195799 -8.946337 2.652031 -10 0 -10 
C -2.652031 -10 -5.195799 -8.946337 -7.071068 -7.071068 
C -8.946337 -5.195799 -10 -2.652031 -10 0 
C -10 2.652031 -8.946337 5.195799 -7.071068 7.071068 
C -5.195799 8.946337 -2.652031 10 0 10 
z
" style="stroke: #0000ff"/>
    </defs>
    <g clip-path="url(#p1c614543ef)">
     <use xlink:href="#m83d17b9c1e" x="980.280448" y="999.240303" style="fill: #0000ff; stroke: #0000ff"/>
    </g>
   </g>
   <g id="line2d_100">
    <path d="M 273.867018 42.251699 
" clip-path="url(#p1c614543ef)" style="fill: none; stroke: #0000ff; stroke-width: 1.5; stroke-linecap: square"/>
    <g clip-path="url(#p1c614543ef)">
     <use xlink:href="#m83d17b9c1e" x="273.867018" y="42.251699" style="fill: #0000ff; stroke: #0000ff"/>
    </g>
   </g>
   <g id="line2d_101">
    <path d="M 1278.209348 1186.489806 
" clip-path="url(#p1c614543ef)" style="fill: none; stroke: #ff0000; stroke-width: 1.5; stroke-linecap: square"/>
    <defs>
     <path id="m717c77b19b" d="M 0 -10 
L -2.24514 -3.09017 
L -9.510565 -3.09017 
L -3.632713 1.18034 
L -5.877853 8.09017 
L -0 3.81966 
L 5.877853 8.09017 
L 3.632713 1.18034 
L 9.510565 -3.09017 
L 2.24514 -3.09017 
z
" style="stroke: #ff0000; stroke-linejoin: bevel"/>
    </defs>
    <g clip-path="url(#p1c614543ef)">
     <use xlink:href="#m717c77b19b" x="1278.209348" y="1186.489806" style="fill: #ff0000; stroke: #ff0000; stroke-linejoin: bevel"/>
    </g>
   </g>
   <g id="line2d_102">
    <path d="M 215.720869 102.170509 
" clip-path="url(#p1c614543ef)" style="fill: none; stroke: #ff0000; stroke-width: 1.5; stroke-linecap: square"/>
    <g clip-path="url(#p1c614543ef)">
     <use xlink:href="#m717c77b19b" x="215.720869" y="102.170509" style="fill: #ff0000; stroke: #ff0000; stroke-linejoin: bevel"/>
    </g>
   </g>
  </g>
 </g>
 <defs>
  <clipPath id="p1c614543ef">
   <rect x="0" y="0" width="1440" height="1440"/>
  </clipPath>
 </defs>
</svg>
