<?xml version="1.0" encoding="utf-8" standalone="no"?>
<!DOCTYPE svg PUBLIC "-//W3C//DTD SVG 1.1//EN"
  "http://www.w3.org/Graphics/SVG/1.1/DTD/svg11.dtd">
<svg xmlns:xlink="http://www.w3.org/1999/xlink" width="1440pt" height="1440pt" viewBox="0 0 1440 1440" xmlns="http://www.w3.org/2000/svg" version="1.1">
 <metadata>
  <rdf:RDF xmlns:dc="http://purl.org/dc/elements/1.1/" xmlns:cc="http://creativecommons.org/ns#" xmlns:rdf="http://www.w3.org/1999/02/22-rdf-syntax-ns#">
   <cc:Work>
    <dc:type rdf:resource="http://purl.org/dc/dcmitype/StillImage"/>
    <dc:date>2026-02-27T11:09:30.152601</dc:date>
    <dc:format>image/svg+xml</dc:format>
    <dc:creator>
     <cc:Agent>
      <dc:title>Matplotlib v3.7.3, https://matplotlib.org/</dc:title>
     </cc:Agent>
    </dc:creator>
   </cc:Work>
  </rdf:RDF>
 </metadata>
 <defs>
  <style type="text/css">*{stroke-linejoin: round; stroke-linecap: butt}</style>
 </defs>
 <g id="figure_1">
  <g id="patch_1">
   <path d="M 0 1440 
L 1440 1440 
L 1440 0 
L 0 0 
z
" style="fill: #ffffff"/>
  </g>
  <g id="axes_1">
   <g id="line2d_1">
    <path d="M 367.75541 705.512573 
L 387.497536 702.413796 
L 387.890414 702.31696 
" clip-path="url(#p273600ae3a)" style="fill: none; stroke: #7a7a7a; stroke-width: 3; stroke-linecap: square"/>
   </g>
   <g id="line2d_2">
    <path d="M 367.460752 756.545546 
L 387.497536 753.44677 
L 387.890414 753.349933 
" clip-path="url(#p273600ae3a)" style="fill: none; stroke: #7a7a7a; stroke-width: 3; stroke-linecap: square"/>
   </g>
   <g id="line2d_3">
    <path d="M 387.890414 702.31696 
L 387.497536 702.413796 
L 367.75541 705.512573 
" clip-path="url(#p273600ae3a)" style="fill: none; stroke: #7a7a7a; stroke-width: 3; stroke-linecap: square"/>
   </g>
   <g id="line2d_4">
    <path d="M 387.890414 651.187149 
L 387.497536 651.283986 
L 364.317727 655.35113 
" clip-path="url(#p273600ae3a)" style="fill: none; stroke: #7a7a7a; stroke-width: 3; stroke-linecap: square"/>
   </g>
   <g id="line2d_5">
    <path clip-path="url(#p273600ae3a)" style="fill: none; stroke: #7a7a7a; stroke-width: 3; stroke-linecap: square"/>
   </g>
   <g id="line2d_6">
    <path clip-path="url(#p273600ae3a)" style="fill: none; stroke: #7a7a7a; stroke-width: 3; stroke-linecap: square"/>
   </g>
   <g id="line2d_7">
    <path d="M 72.605719 751.800545 
L 367.75541 705.512573 
" clip-path="url(#p273600ae3a)" style="fill: none; stroke: #7a7a7a; stroke-width: 3; stroke-linecap: square"/>
   </g>
   <g id="line2d_8">
    <path d="M 80.659721 801.768314 
L 195.674792 783.659839 
L 199.112475 783.078819 
L 303.618056 766.519733 
L 367.460752 756.545546 
" clip-path="url(#p273600ae3a)" style="fill: none; stroke: #7a7a7a; stroke-width: 3; stroke-linecap: square"/>
   </g>
   <g id="line2d_9">
    <path clip-path="url(#p273600ae3a)" style="fill: none; stroke: #7a7a7a; stroke-width: 3; stroke-linecap: square"/>
   </g>
   <g id="line2d_10">
    <path clip-path="url(#p273600ae3a)" style="fill: none; stroke: #7a7a7a; stroke-width: 3; stroke-linecap: square"/>
   </g>
   <g id="line2d_11">
    <path d="M 914.838199 292.406947 
L 914.838199 291.72909 
L 914.73998 290.663886 
L 910.320101 203.22029 
" clip-path="url(#p273600ae3a)" style="fill: none; stroke: #7a7a7a; stroke-width: 3; stroke-linecap: square"/>
   </g>
   <g id="line2d_12">
    <path d="M 968.367844 292.406947 
L 968.367844 291.632253 
L 968.269624 290.663886 
L 965.02838 235.757442 
L 963.555087 199.92784 
" clip-path="url(#p273600ae3a)" style="fill: none; stroke: #7a7a7a; stroke-width: 3; stroke-linecap: square"/>
   </g>
   <g id="line2d_13">
    <path d="M 910.320101 203.22029 
L 902.364319 9.934114 
" clip-path="url(#p273600ae3a)" style="fill: none; stroke: #7a7a7a; stroke-width: 3; stroke-linecap: square"/>
   </g>
   <g id="line2d_14">
    <path d="M 963.555087 199.92784 
L 960.117403 115.002 
L 959.822744 103.187915 
L 956.777939 37.435754 
L 954.911768 8.578399 
" clip-path="url(#p273600ae3a)" style="fill: none; stroke: #7a7a7a; stroke-width: 3; stroke-linecap: square"/>
   </g>
   <g id="line2d_15">
    <path d="M 367.75541 705.512573 
L 72.605719 751.800545 
" clip-path="url(#p273600ae3a)" style="fill: none; stroke: #7a7a7a; stroke-width: 3; stroke-linecap: square"/>
   </g>
   <g id="line2d_16">
    <path d="M 364.317727 655.35113 
L 302.537642 664.744296 
L 268.062586 669.876644 
L 64.355278 701.542265 
" clip-path="url(#p273600ae3a)" style="fill: none; stroke: #7a7a7a; stroke-width: 3; stroke-linecap: square"/>
   </g>
   <g id="line2d_17">
    <path d="M 902.364319 9.934114 
L 901.870942 -1 
" clip-path="url(#p273600ae3a)" style="fill: none; stroke: #7a7a7a; stroke-width: 3; stroke-linecap: square"/>
   </g>
   <g id="line2d_18">
    <path d="M 954.911768 8.578399 
L 954.497555 -1 
" clip-path="url(#p273600ae3a)" style="fill: none; stroke: #7a7a7a; stroke-width: 3; stroke-linecap: square"/>
   </g>
   <g id="line2d_19">
    <path clip-path="url(#p273600ae3a)" style="fill: none; stroke: #7a7a7a; stroke-width: 3; stroke-linecap: square"/>
   </g>
   <g id="line2d_20">
    <path clip-path="url(#p273600ae3a)" style="fill: none; stroke: #7a7a7a; stroke-width: 3; stroke-linecap: square"/>
   </g>
   <g id="line2d_21">
    <path d="M 910.320101 203.22029 
L 914.73998 290.663886 
L 914.838199 291.72909 
L 914.838199 292.406947 
" clip-path="url(#p273600ae3a)" style="fill: none; stroke: #7a7a7a; stroke-width: 3; stroke-linecap: square"/>
   </g>
   <g id="line2d_22">
    <path d="M 858.656627 205.834882 
L 861.996091 290.663886 
L 861.996091 291.72909 
L 862.094311 292.406947 
" clip-path="url(#p273600ae3a)" style="fill: none; stroke: #7a7a7a; stroke-width: 3; stroke-linecap: square"/>
   </g>
   <g id="line2d_23">
    <path d="M 902.364319 9.934114 
L 910.320101 203.22029 
" clip-path="url(#p273600ae3a)" style="fill: none; stroke: #7a7a7a; stroke-width: 3; stroke-linecap: square"/>
   </g>
   <g id="line2d_24">
    <path d="M 850.111528 11.870849 
L 850.602626 22.135546 
L 856.986895 158.094359 
L 858.656627 205.834882 
" clip-path="url(#p273600ae3a)" style="fill: none; stroke: #7a7a7a; stroke-width: 3; stroke-linecap: square"/>
   </g>
   <g id="line2d_25">
    <path d="M 952.750938 1163.937802 
L 952.652719 1163.163108 
L 952.652719 1162.097904 
L 935.267862 751.994218 
" clip-path="url(#p273600ae3a)" style="fill: none; stroke: #7a7a7a; stroke-width: 3; stroke-linecap: square"/>
   </g>
   <g id="line2d_26">
    <path d="M 1005.396607 1163.937802 
L 1005.396607 1163.066272 
L 1005.298387 1162.097904 
L 996.949727 985.370814 
L 995.869312 938.889168 
L 987.815311 750.44483 
" clip-path="url(#p273600ae3a)" style="fill: none; stroke: #7a7a7a; stroke-width: 3; stroke-linecap: square"/>
   </g>
   <g id="line2d_27">
    <path d="M 1046.354151 602.768769 
L 788.135004 640.341432 
" clip-path="url(#p273600ae3a)" style="fill: none; stroke: #7a7a7a; stroke-width: 3; stroke-linecap: square"/>
   </g>
   <g id="line2d_28">
    <path d="M 1042.916468 550.08957 
L 795.992566 585.434988 
L 780.47388 587.952744 
" clip-path="url(#p273600ae3a)" style="fill: none; stroke: #7a7a7a; stroke-width: 3; stroke-linecap: square"/>
   </g>
   <g id="line2d_29">
    <path d="M 935.267862 751.994218 
L 932.223056 732.336356 
L 925.838787 713.840534 
L 916.606151 696.603591 
L 905.016246 681.109709 
L 891.265512 667.358889 
L 875.943265 655.932151 
L 859.344164 646.829495 
L 841.861087 640.438269 
L 823.985133 637.048982 
L 806.010959 636.952145 
L 788.135004 640.341432 
" clip-path="url(#p273600ae3a)" style="fill: none; stroke: #7a7a7a; stroke-width: 3; stroke-linecap: square"/>
   </g>
   <g id="line2d_30">
    <path d="M 987.815311 750.44483 
L 987.520652 731.949009 
L 985.065164 713.743697 
L 980.645285 696.02257 
L 974.261016 678.882463 
L 966.108794 662.51705 
L 956.286841 647.216842 
L 944.795156 632.981838 
L 931.830178 620.102549 
L 917.490126 608.772648 
L 901.873221 599.088972 
L 884.979462 591.342031 
L 867.005287 585.628662 
L 848.048918 582.239375 
L 828.110353 581.174171 
L 807.975349 582.723559 
L 798.644494 585.047641 
L 780.47388 587.952744 
" clip-path="url(#p273600ae3a)" style="fill: none; stroke: #7a7a7a; stroke-width: 3; stroke-linecap: square"/>
   </g>
   <g id="line2d_31">
    <path d="M 478.547042 970.942136 
L 475.404017 775.138204 
" clip-path="url(#p273600ae3a)" style="fill: none; stroke: #7a7a7a; stroke-width: 3; stroke-linecap: square"/>
   </g>
   <g id="line2d_32">
    <path d="M 519.406367 969.973769 
L 514.986488 770.586877 
" clip-path="url(#p273600ae3a)" style="fill: none; stroke: #7a7a7a; stroke-width: 3; stroke-linecap: square"/>
   </g>
   <g id="line2d_33">
    <path d="M 443.875547 693.698488 
L 387.890414 702.31696 
" clip-path="url(#p273600ae3a)" style="fill: none; stroke: #7a7a7a; stroke-width: 3; stroke-linecap: square"/>
   </g>
   <g id="line2d_34">
    <path d="M 442.009376 642.471841 
L 387.890414 651.187149 
" clip-path="url(#p273600ae3a)" style="fill: none; stroke: #7a7a7a; stroke-width: 3; stroke-linecap: square"/>
   </g>
   <g id="line2d_35">
    <path d="M 923.677957 490.147615 
L 924.267274 507.771905 
L 923.08864 524.912012 
L 920.043834 541.471098 
L 915.034638 557.255491 
L 908.061051 572.168352 
L 899.123074 585.919172 
L 888.024267 598.604788 
L 874.961069 609.837852 
L 859.638823 619.521528 
L 842.155746 627.655816 
L 822.51184 633.950206 
L 800.510665 638.404697 
L 788.135004 640.341432 
" clip-path="url(#p273600ae3a)" style="fill: none; stroke: #7a7a7a; stroke-width: 3; stroke-linecap: square"/>
   </g>
   <g id="line2d_36">
    <path d="M 870.835849 490.922309 
L 870.442971 498.66925 
L 870.73763 511.064355 
L 868.871459 520.360684 
L 866.023092 529.657013 
L 862.29075 538.372322 
L 857.772652 546.700284 
L 852.567016 553.769367 
L 845.49521 561.225798 
L 839.110941 566.745493 
L 830.8605 572.652536 
L 823.886913 576.71968 
L 817.404424 579.624783 
L 813.672082 580.786824 
L 810.627277 582.239375 
L 804.046568 583.691926 
L 798.644494 585.047641 
L 780.47388 587.952744 
" clip-path="url(#p273600ae3a)" style="fill: none; stroke: #7a7a7a; stroke-width: 3; stroke-linecap: square"/>
   </g>
   <g id="line2d_37">
    <path d="M 535.317931 679.560321 
L 523.236928 682.078076 
L 514.888268 690.309201 
L 513.611414 699.02451 
L 514.986488 770.49004 
" clip-path="url(#p273600ae3a)" style="fill: none; stroke: #7a7a7a; stroke-width: 3; stroke-linecap: square"/>
   </g>
   <g id="line2d_38">
    <path d="M 532.764223 627.84949 
L 525.790636 628.236837 
L 515.084707 629.979899 
L 502.217949 636.758472 
L 488.074336 650.412455 
L 477.368407 667.358889 
L 472.064552 685.757873 
L 474.028943 703.285327 
L 475.404017 775.041368 
" clip-path="url(#p273600ae3a)" style="fill: none; stroke: #7a7a7a; stroke-width: 3; stroke-linecap: square"/>
   </g>
   <g id="line2d_39">
    <path d="M 535.317931 679.560321 
L 443.875547 693.698488 
" clip-path="url(#p273600ae3a)" style="fill: none; stroke: #7a7a7a; stroke-width: 3; stroke-linecap: square"/>
   </g>
   <g id="line2d_40">
    <path d="M 532.764223 627.84949 
L 442.009376 642.471841 
" clip-path="url(#p273600ae3a)" style="fill: none; stroke: #7a7a7a; stroke-width: 3; stroke-linecap: square"/>
   </g>
   <g id="line2d_41">
    <path d="M 387.890414 702.31696 
L 443.875547 693.698488 
" clip-path="url(#p273600ae3a)" style="fill: none; stroke: #7a7a7a; stroke-width: 3; stroke-linecap: square"/>
   </g>
   <g id="line2d_42">
    <path d="M 387.890414 753.349933 
L 445.741718 744.440951 
" clip-path="url(#p273600ae3a)" style="fill: none; stroke: #7a7a7a; stroke-width: 3; stroke-linecap: square"/>
   </g>
   <g id="line2d_43">
    <path d="M 788.135004 640.341432 
L 574.016426 673.556441 
" clip-path="url(#p273600ae3a)" style="fill: none; stroke: #7a7a7a; stroke-width: 3; stroke-linecap: square"/>
   </g>
   <g id="line2d_44">
    <path d="M 780.47388 587.952744 
L 741.186068 594.440807 
L 734.50714 595.409175 
L 564.292692 622.813978 
" clip-path="url(#p273600ae3a)" style="fill: none; stroke: #7a7a7a; stroke-width: 3; stroke-linecap: square"/>
   </g>
   <g id="line2d_45">
    <path d="M 1046.354151 602.768769 
L 1022.388586 609.256832 
L 1001.958923 617.584793 
L 984.672286 627.55898 
L 970.430454 639.179391 
L 959.036988 652.252354 
L 950.099011 666.584194 
L 943.518302 681.98124 
L 938.901984 698.443489 
L 936.151837 715.680433 
L 935.071423 733.498397 
L 935.267862 751.994218 
" clip-path="url(#p273600ae3a)" style="fill: none; stroke: #7a7a7a; stroke-width: 3; stroke-linecap: square"/>
   </g>
   <g id="line2d_46">
    <path d="M 1042.916468 550.08957 
L 1019.245561 552.607326 
L 997.539044 557.255491 
L 977.895138 563.743554 
L 960.117403 572.071515 
L 944.304059 582.045702 
L 930.258666 593.472439 
L 918.079444 606.158055 
L 907.668173 619.908875 
L 899.024855 634.628063 
L 892.051268 650.218782 
L 886.649194 666.390521 
L 882.916852 683.046444 
L 880.756022 699.89604 
L 880.166705 717.036147 
L 880.952461 733.982581 
L 882.523973 758.094934 
" clip-path="url(#p273600ae3a)" style="fill: none; stroke: #7a7a7a; stroke-width: 3; stroke-linecap: square"/>
   </g>
   <g id="line2d_47">
    <path d="M 1271.866195 592.407235 
L 1046.354151 602.768769 
" clip-path="url(#p273600ae3a)" style="fill: none; stroke: #7a7a7a; stroke-width: 3; stroke-linecap: square"/>
   </g>
   <g id="line2d_48">
    <path d="M 1271.866195 542.536303 
L 1225.310137 544.376201 
L 1070.123278 549.79906 
L 1058.828032 549.79906 
L 1051.854445 549.314876 
L 1042.916468 550.08957 
" clip-path="url(#p273600ae3a)" style="fill: none; stroke: #7a7a7a; stroke-width: 3; stroke-linecap: square"/>
   </g>
   <g id="line2d_49">
    <path d="M 923.677957 490.147615 
L 914.838199 292.987968 
L 914.838199 292.406947 
" clip-path="url(#p273600ae3a)" style="fill: none; stroke: #7a7a7a; stroke-width: 3; stroke-linecap: square"/>
   </g>
   <g id="line2d_50">
    <path d="M 976.814723 489.276084 
L 973.082381 403.28504 
L 971.609088 375.396052 
L 968.367844 292.987968 
L 968.367844 292.406947 
" clip-path="url(#p273600ae3a)" style="fill: none; stroke: #7a7a7a; stroke-width: 3; stroke-linecap: square"/>
   </g>
   <g id="line2d_51">
    <path d="M 935.267862 751.994218 
L 923.677957 490.147615 
" clip-path="url(#p273600ae3a)" style="fill: none; stroke: #7a7a7a; stroke-width: 3; stroke-linecap: square"/>
   </g>
   <g id="line2d_52">
    <path d="M 987.815311 750.44483 
L 976.814723 489.276084 
" clip-path="url(#p273600ae3a)" style="fill: none; stroke: #7a7a7a; stroke-width: 3; stroke-linecap: square"/>
   </g>
   <g id="line2d_53">
    <path d="M 475.404017 775.138204 
L 475.011138 756.158199 
L 475.109358 739.69595 
L 481.00253 722.94319 
L 491.315581 707.352471 
L 504.771656 693.988998 
L 519.799245 684.305322 
L 535.317931 679.560321 
" clip-path="url(#p273600ae3a)" style="fill: none; stroke: #7a7a7a; stroke-width: 3; stroke-linecap: square"/>
   </g>
   <g id="line2d_54">
    <path d="M 514.986488 770.586877 
L 514.593609 751.606871 
L 515.182927 747.15238 
L 515.674024 739.502276 
L 517.343756 736.500336 
L 520.486781 734.563601 
L 524.90666 732.917376 
L 537.773419 730.10911 
" clip-path="url(#p273600ae3a)" style="fill: none; stroke: #7a7a7a; stroke-width: 3; stroke-linecap: square"/>
   </g>
   <g id="line2d_55">
    <path d="M 923.677957 490.147615 
L 935.267862 751.994218 
" clip-path="url(#p273600ae3a)" style="fill: none; stroke: #7a7a7a; stroke-width: 3; stroke-linecap: square"/>
   </g>
   <g id="line2d_56">
    <path d="M 870.835849 490.922309 
L 882.523973 758.094934 
" clip-path="url(#p273600ae3a)" style="fill: none; stroke: #7a7a7a; stroke-width: 3; stroke-linecap: square"/>
   </g>
   <g id="line2d_57">
    <path d="M 475.404017 775.138204 
L 474.225382 712.48482 
L 470.39482 702.801143 
L 459.688892 695.538386 
L 443.875547 693.698488 
" clip-path="url(#p273600ae3a)" style="fill: none; stroke: #7a7a7a; stroke-width: 3; stroke-linecap: square"/>
   </g>
   <g id="line2d_58">
    <path d="M 514.986488 770.586877 
L 513.807853 707.933492 
L 510.566609 690.018691 
L 502.119729 673.556441 
L 489.645849 659.515111 
L 474.520041 649.056741 
L 458.215599 643.052861 
L 442.009376 642.471841 
" clip-path="url(#p273600ae3a)" style="fill: none; stroke: #7a7a7a; stroke-width: 3; stroke-linecap: square"/>
   </g>
   <g id="line2d_59">
    <path d="M 788.135004 640.341432 
L 806.010959 636.952145 
L 823.985133 637.048982 
L 841.861087 640.438269 
L 859.344164 646.829495 
L 875.943265 655.932151 
L 891.265512 667.358889 
L 905.016246 681.109709 
L 916.606151 696.603591 
L 925.838787 713.840534 
L 932.223056 732.336356 
L 935.267862 751.994218 
" clip-path="url(#p273600ae3a)" style="fill: none; stroke: #7a7a7a; stroke-width: 3; stroke-linecap: square"/>
   </g>
   <g id="line2d_60">
    <path d="M 794.715712 689.728181 
L 809.546862 688.566139 
L 825.753084 692.923794 
L 842.155746 701.445429 
L 857.281554 713.35635 
L 869.951873 727.494518 
L 872.210923 731.367988 
L 876.630802 738.146561 
L 878.791631 742.697889 
L 880.461363 747.927074 
L 882.523973 758.094934 
" clip-path="url(#p273600ae3a)" style="fill: none; stroke: #7a7a7a; stroke-width: 3; stroke-linecap: square"/>
   </g>
   <g id="line2d_61">
    <path d="M 574.016426 673.556441 
L 535.317931 679.560321 
" clip-path="url(#p273600ae3a)" style="fill: none; stroke: #7a7a7a; stroke-width: 3; stroke-linecap: square"/>
   </g>
   <g id="line2d_62">
    <path d="M 564.292692 622.813978 
L 532.764223 627.84949 
" clip-path="url(#p273600ae3a)" style="fill: none; stroke: #7a7a7a; stroke-width: 3; stroke-linecap: square"/>
   </g>
   <g id="line2d_63">
    <path d="M 914.838199 292.406947 
L 914.838199 292.987968 
L 923.677957 490.147615 
" clip-path="url(#p273600ae3a)" style="fill: none; stroke: #7a7a7a; stroke-width: 3; stroke-linecap: square"/>
   </g>
   <g id="line2d_64">
    <path d="M 862.094311 292.406947 
L 862.094311 293.084805 
L 870.835849 490.922309 
" clip-path="url(#p273600ae3a)" style="fill: none; stroke: #7a7a7a; stroke-width: 3; stroke-linecap: square"/>
   </g>
   <g id="line2d_65">
    <path d="M 574.016426 673.556441 
L 788.135004 640.341432 
" clip-path="url(#p273600ae3a)" style="fill: none; stroke: #7a7a7a; stroke-width: 3; stroke-linecap: square"/>
   </g>
   <g id="line2d_66">
    <path d="M 583.445501 723.040027 
L 637.368023 714.712065 
L 777.429075 692.245936 
L 790.786931 690.599711 
L 794.715712 689.728181 
" clip-path="url(#p273600ae3a)" style="fill: none; stroke: #7a7a7a; stroke-width: 3; stroke-linecap: square"/>
   </g>
   <g id="line2d_67">
    <path d="M 788.135004 640.341432 
L 800.510665 638.404697 
L 822.51184 633.950206 
L 842.155746 627.655816 
L 859.638823 619.521528 
L 874.961069 609.837852 
L 888.024267 598.604788 
L 899.123074 585.919172 
L 908.061051 572.168352 
L 915.034638 557.255491 
L 920.043834 541.471098 
L 923.08864 524.912012 
L 924.267274 507.771905 
L 923.677957 490.147615 
" clip-path="url(#p273600ae3a)" style="fill: none; stroke: #7a7a7a; stroke-width: 3; stroke-linecap: square"/>
   </g>
   <g id="line2d_68">
    <path d="M 794.715712 689.728181 
L 815.047155 685.951547 
L 836.655452 681.012872 
L 856.692237 675.299503 
L 875.157509 668.52093 
L 892.051268 660.870826 
L 907.373515 652.05868 
L 921.222469 642.084494 
L 933.49991 630.948266 
L 944.205839 618.553161 
L 953.340255 604.802341 
L 961.099598 589.502132 
L 967.189209 572.749372 
L 971.805527 554.447224 
L 974.948552 534.498852 
L 976.618284 512.807417 
L 976.814723 489.276084 
" clip-path="url(#p273600ae3a)" style="fill: none; stroke: #7a7a7a; stroke-width: 3; stroke-linecap: square"/>
   </g>
   <g id="line2d_69">
    <path d="M 443.875547 693.698488 
L 459.885331 694.182672 
L 476.091553 700.186551 
L 491.119142 710.644921 
L 503.494802 724.589415 
L 511.843463 740.857991 
L 514.790049 758.385445 
L 514.986488 770.49004 
" clip-path="url(#p273600ae3a)" style="fill: none; stroke: #7a7a7a; stroke-width: 3; stroke-linecap: square"/>
   </g>
   <g id="line2d_70">
    <path d="M 445.741718 744.440951 
L 463.421234 742.601052 
L 466.662478 743.666257 
L 468.626869 745.215645 
L 470.49304 748.508095 
L 472.55565 753.640443 
L 473.832504 759.353812 
L 475.207577 762.646262 
L 475.404017 775.041368 
" clip-path="url(#p273600ae3a)" style="fill: none; stroke: #7a7a7a; stroke-width: 3; stroke-linecap: square"/>
   </g>
   <g id="line2d_71">
    <path d="M 1046.354151 602.768769 
L 1271.866195 592.407235 
" clip-path="url(#p273600ae3a)" style="fill: none; stroke: #7a7a7a; stroke-width: 3; stroke-linecap: square"/>
   </g>
   <g id="line2d_72">
    <path d="M 1051.363348 635.983778 
L 1079.061255 632.691328 
L 1136.126803 630.560919 
L 1225.703015 646.345311 
L 1271.571536 644.795923 
L 1271.866195 644.795923 
" clip-path="url(#p273600ae3a)" style="fill: none; stroke: #7a7a7a; stroke-width: 3; stroke-linecap: square"/>
   </g>
   <g id="line2d_73">
    <path d="M 923.677957 490.147615 
L 927.115641 521.619562 
L 934.089227 546.603447 
L 944.107619 565.873962 
L 956.385061 580.01213 
L 970.430454 589.986316 
L 985.654481 596.377542 
L 1001.369606 600.154176 
L 1017.182951 601.994074 
L 1032.406978 602.575095 
L 1046.354151 602.768769 
" clip-path="url(#p273600ae3a)" style="fill: none; stroke: #7a7a7a; stroke-width: 3; stroke-linecap: square"/>
   </g>
   <g id="line2d_74">
    <path d="M 870.835849 490.922309 
L 872.996679 516.874561 
L 877.02368 539.92171 
L 882.818632 560.160593 
L 890.381536 577.881721 
L 899.319513 592.988256 
L 909.829003 605.770708 
L 921.615347 616.422752 
L 934.678544 624.84755 
L 948.822157 631.335613 
L 964.046184 635.983778 
L 980.154187 638.888881 
L 996.949727 640.244595 
L 1014.531023 640.147759 
L 1032.701637 638.59837 
L 1051.363348 635.983778 
" clip-path="url(#p273600ae3a)" style="fill: none; stroke: #7a7a7a; stroke-width: 3; stroke-linecap: square"/>
   </g>
   <g id="line2d_75">
    <path d="M 788.135004 640.341432 
L 1046.354151 602.768769 
" clip-path="url(#p273600ae3a)" style="fill: none; stroke: #7a7a7a; stroke-width: 3; stroke-linecap: square"/>
   </g>
   <g id="line2d_76">
    <path d="M 794.715712 689.728181 
L 1051.363348 635.983778 
" clip-path="url(#p273600ae3a)" style="fill: none; stroke: #7a7a7a; stroke-width: 3; stroke-linecap: square"/>
   </g>
   <g id="line2d_77">
    <path d="M 514.986488 770.49004 
L 519.406367 969.973769 
" clip-path="url(#p273600ae3a)" style="fill: none; stroke: #7a7a7a; stroke-width: 3; stroke-linecap: square"/>
   </g>
   <g id="line2d_78">
    <path d="M 475.404017 775.041368 
L 478.547042 970.942136 
" clip-path="url(#p273600ae3a)" style="fill: none; stroke: #7a7a7a; stroke-width: 3; stroke-linecap: square"/>
   </g>
   <g id="line2d_79">
    <path d="M 535.317931 679.560321 
L 574.016426 673.556441 
" clip-path="url(#p273600ae3a)" style="fill: none; stroke: #7a7a7a; stroke-width: 3; stroke-linecap: square"/>
   </g>
   <g id="line2d_80">
    <path d="M 537.773419 730.10911 
L 583.445501 723.040027 
" clip-path="url(#p273600ae3a)" style="fill: none; stroke: #7a7a7a; stroke-width: 3; stroke-linecap: square"/>
   </g>
   <g id="line2d_81">
    <path d="M 935.267862 751.994218 
L 935.071423 733.498397 
L 936.151837 715.680433 
L 938.901984 698.443489 
L 943.518302 681.98124 
L 950.099011 666.584194 
L 959.036988 652.252354 
L 970.430454 639.179391 
L 984.672286 627.55898 
L 1001.958923 617.584793 
L 1022.388586 609.256832 
L 1046.354151 602.768769 
" clip-path="url(#p273600ae3a)" style="fill: none; stroke: #7a7a7a; stroke-width: 3; stroke-linecap: square"/>
   </g>
   <g id="line2d_82">
    <path d="M 987.815311 750.44483 
L 987.91353 718.004515 
L 991.154775 693.504814 
L 997.047947 675.493177 
L 1005.200168 662.710724 
L 1015.120341 653.801742 
L 1026.415587 647.216842 
L 1051.363348 635.983778 
" clip-path="url(#p273600ae3a)" style="fill: none; stroke: #7a7a7a; stroke-width: 3; stroke-linecap: square"/>
   </g>
   <g id="line2d_83">
    <path d="M 1046.354151 602.768769 
L 1032.406978 602.575095 
L 1017.182951 601.994074 
L 1001.369606 600.154176 
L 985.654481 596.377542 
L 970.430454 589.986316 
L 956.385061 580.01213 
L 944.107619 565.873962 
L 934.089227 546.603447 
L 927.115641 521.619562 
L 923.677957 490.147615 
" clip-path="url(#p273600ae3a)" style="fill: none; stroke: #7a7a7a; stroke-width: 3; stroke-linecap: square"/>
   </g>
   <g id="line2d_84">
    <path d="M 1042.916468 550.08957 
L 1021.209951 540.212221 
L 1004.217973 528.688646 
L 991.547653 516.487214 
L 982.609676 504.285782 
L 976.912943 492.955881 
L 976.814723 489.276084 
" clip-path="url(#p273600ae3a)" style="fill: none; stroke: #7a7a7a; stroke-width: 3; stroke-linecap: square"/>
   </g>
   <g id="line2d_85">
    <path d="M 935.267862 751.994218 
L 952.652719 1162.097904 
L 952.652719 1163.163108 
L 952.750938 1163.937802 
" clip-path="url(#p273600ae3a)" style="fill: none; stroke: #7a7a7a; stroke-width: 3; stroke-linecap: square"/>
   </g>
   <g id="line2d_86">
    <path d="M 882.523973 758.094934 
L 885.568779 793.634026 
L 888.515365 875.945273 
L 889.399341 906.448853 
L 892.247707 951.962131 
L 895.587171 1022.55613 
L 898.239098 1114.938401 
L 900.301709 1162.097904 
L 900.301709 1163.163108 
L 900.399928 1163.937802 
" clip-path="url(#p273600ae3a)" style="fill: none; stroke: #7a7a7a; stroke-width: 3; stroke-linecap: square"/>
   </g>
   <g id="line2d_87">
    <path d="M 443.875547 693.698488 
L 535.317931 679.560321 
" clip-path="url(#p273600ae3a)" style="fill: none; stroke: #7a7a7a; stroke-width: 3; stroke-linecap: square"/>
   </g>
   <g id="line2d_88">
    <path d="M 445.741718 744.440951 
L 537.773419 730.10911 
" clip-path="url(#p273600ae3a)" style="fill: none; stroke: #7a7a7a; stroke-width: 3; stroke-linecap: square"/>
   </g>
   <g id="line2d_89">
    <path d="M 901.870942 -1 
L 902.364319 9.934114 
" clip-path="url(#p273600ae3a)" style="fill: none; stroke: #7a7a7a; stroke-width: 3; stroke-linecap: square"/>
   </g>
   <g id="line2d_90">
    <path d="M 849.512899 -1 
L 849.62043 1.315642 
L 850.111528 11.870849 
" clip-path="url(#p273600ae3a)" style="fill: none; stroke: #7a7a7a; stroke-width: 3; stroke-linecap: square"/>
   </g>
   <g id="line2d_91">
    <path clip-path="url(#p273600ae3a)" style="fill: none; stroke: #7a7a7a; stroke-width: 3; stroke-linecap: square"/>
   </g>
   <g id="line2d_92">
    <path clip-path="url(#p273600ae3a)" style="fill: none; stroke: #7a7a7a; stroke-width: 3; stroke-linecap: square"/>
   </g>
   <g id="line2d_93">
    <path d="M 620.734968 698.459967 
L 889.136143 654.585538 
" clip-path="url(#p273600ae3a)" style="fill: none; stroke-dasharray: 32,8,5,8; stroke-dashoffset: 0; stroke: #1e90ff; stroke-width: 5"/>
   </g>
   <g id="line2d_94">
    <path d="M 196.597326 766.248065 
L 196.439062 767.590327 
" clip-path="url(#p273600ae3a)" style="fill: none; stroke-dasharray: 32,8,5,8; stroke-dashoffset: 0; stroke: #1e90ff; stroke-width: 5"/>
   </g>
   <g id="line2d_95">
    <path d="M 361.153408 739.260373 
L 359.575565 749.921637 
" clip-path="url(#p273600ae3a)" style="fill: none; stroke-dasharray: 32,8,5,8; stroke-dashoffset: 0; stroke: #1e90ff; stroke-width: 5"/>
   </g>
   <g id="line2d_96">
    <path d="M 667.413225 701.606098 
L 660.914813 703.679483 
" clip-path="url(#p273600ae3a)" style="fill: none; stroke-dasharray: 32,8,5,8; stroke-dashoffset: 0; stroke: #1e90ff; stroke-width: 5"/>
   </g>
   <g id="line2d_97">
    <path d="M 458.169175 657.786045 
L 456.394701 646.32096 
" clip-path="url(#p273600ae3a)" style="fill: none; stroke-dasharray: 32,8,5,8; stroke-dashoffset: 0; stroke: #1e90ff; stroke-width: 5"/>
   </g>
   <g id="line2d_98">
    <path d="M 869.017445 126.70816 
L 863.804328 119.255678 
" clip-path="url(#p273600ae3a)" style="fill: none; stroke-dasharray: 32,8,5,8; stroke-dashoffset: 0; stroke: #1e90ff; stroke-width: 5"/>
   </g>
   <g id="line2d_99">
    <path d="M 950.465799 324.812746 
L 950.739164 321.43788 
" clip-path="url(#p273600ae3a)" style="fill: none; stroke-dasharray: 32,8,5,8; stroke-dashoffset: 0; stroke: #1e90ff; stroke-width: 5"/>
   </g>
   <g id="line2d_100">
    <path d="M 880.887237 51.391927 
L 880.839278 48.418381 
" clip-path="url(#p273600ae3a)" style="fill: none; stroke-dasharray: 32,8,5,8; stroke-dashoffset: 0; stroke: #1e90ff; stroke-width: 5"/>
   </g>
   <g id="line2d_101">
    <path d="M 880.98795 236.344586 
L 879.304598 236.000598 
" clip-path="url(#p273600ae3a)" style="fill: none; stroke-dasharray: 32,8,5,8; stroke-dashoffset: 0; stroke: #1e90ff; stroke-width: 5"/>
   </g>
   <g id="line2d_102">
    <path d="M 1290.761945 569.926661 
L 1292.670703 569.993449 
" clip-path="url(#p273600ae3a)" style="fill: none; stroke-dasharray: 32,8,5,8; stroke-dashoffset: 0; stroke: #1e90ff; stroke-width: 5"/>
   </g>
   <g id="line2d_103">
    <path d="M 997.407829 1146.671023 
L 996.784365 1149.489715 
" clip-path="url(#p273600ae3a)" style="fill: none; stroke-dasharray: 32,8,5,8; stroke-dashoffset: 0; stroke: #1e90ff; stroke-width: 5"/>
   </g>
   <g id="line2d_104">
    <path d="M 797.544512 650.204715 
L 946.298184 477.415756 
" clip-path="url(#p273600ae3a)" style="fill: none; stroke-dasharray: 32,8,5,8; stroke-dashoffset: 0; stroke: #1e90ff; stroke-width: 5"/>
   </g>
   <g id="line2d_105">
    <path d="M 620.734968 698.459967 
" clip-path="url(#p273600ae3a)" style="fill: none; stroke: #0000ff; stroke-width: 1.5; stroke-linecap: square"/>
    <defs>
     <path id="m15bd70d604" d="M 0 10 
C 2.652031 10 5.195799 8.946337 7.071068 7.071068 
C 8.946337 5.195799 10 2.652031 10 0 
C 10 -2.652031 8.946337 -5.195799 7.071068 -7.071068 
C 5.195799 -8.946337 2.652031 -10 0 -10 
C -2.652031 -10 -5.195799 -8.946337 -7.071068 -7.071068 
C -8.946337 -5.195799 -10 -2.652031 -10 0 
C -10 2.652031 -8.946337 5.195799 -7.071068 7.071068 
C -5.195799 8.946337 -2.652031 10 0 10 
z
" style="stroke: #0000ff"/>
    </defs>
    <g clip-path="url(#p273600ae3a)">
     <use xlink:href="#m15bd70d604" x="620.734968" y="698.459967" style="fill: #0000ff; stroke: #0000ff"/>
    </g>
   </g>
   <g id="line2d_106">
    <path d="M 196.597326 766.248065 
" clip-path="url(#p273600ae3a)" style="fill: none; stroke: #0000ff; stroke-width: 1.5; stroke-linecap: square"/>
    <g clip-path="url(#p273600ae3a)">
     <use xlink:href="#m15bd70d604" x="196.597326" y="766.248065" style="fill: #0000ff; stroke: #0000ff"/>
    </g>
   </g>
   <g id="line2d_107">
    <path d="M 361.153408 739.260373 
" clip-path="url(#p273600ae3a)" style="fill: none; stroke: #0000ff; stroke-width: 1.5; stroke-linecap: square"/>
    <g clip-path="url(#p273600ae3a)">
     <use xlink:href="#m15bd70d604" x="361.153408" y="739.260373" style="fill: #0000ff; stroke: #0000ff"/>
    </g>
   </g>
   <g id="line2d_108">
    <path d="M 667.413225 701.606098 
" clip-path="url(#p273600ae3a)" style="fill: none; stroke: #0000ff; stroke-width: 1.5; stroke-linecap: square"/>
    <g clip-path="url(#p273600ae3a)">
     <use xlink:href="#m15bd70d604" x="667.413225" y="701.606098" style="fill: #0000ff; stroke: #0000ff"/>
    </g>
   </g>
   <g id="line2d_109">
    <path d="M 458.169175 657.786045 
" clip-path="url(#p273600ae3a)" style="fill: none; stroke: #0000ff; stroke-width: 1.5; stroke-linecap: square"/>
    <g clip-path="url(#p273600ae3a)">
     <use xlink:href="#m15bd70d604" x="458.169175" y="657.786045" style="fill: #0000ff; stroke: #0000ff"/>
    </g>
   </g>
   <g id="line2d_110">
    <path d="M 869.017445 126.70816 
" clip-path="url(#p273600ae3a)" style="fill: none; stroke: #0000ff; stroke-width: 1.5; stroke-linecap: square"/>
    <g clip-path="url(#p273600ae3a)">
     <use xlink:href="#m15bd70d604" x="869.017445" y="126.70816" style="fill: #0000ff; stroke: #0000ff"/>
    </g>
   </g>
   <g id="line2d_111">
    <path d="M 950.465799 324.812746 
" clip-path="url(#p273600ae3a)" style="fill: none; stroke: #0000ff; stroke-width: 1.5; stroke-linecap: square"/>
    <g clip-path="url(#p273600ae3a)">
     <use xlink:href="#m15bd70d604" x="950.465799" y="324.812746" style="fill: #0000ff; stroke: #0000ff"/>
    </g>
   </g>
   <g id="line2d_112">
    <path d="M 880.887237 51.391927 
" clip-path="url(#p273600ae3a)" style="fill: none; stroke: #0000ff; stroke-width: 1.5; stroke-linecap: square"/>
    <g clip-path="url(#p273600ae3a)">
     <use xlink:href="#m15bd70d604" x="880.887237" y="51.391927" style="fill: #0000ff; stroke: #0000ff"/>
    </g>
   </g>
   <g id="line2d_113">
    <path d="M 880.98795 236.344586 
" clip-path="url(#p273600ae3a)" style="fill: none; stroke: #0000ff; stroke-width: 1.5; stroke-linecap: square"/>
    <g clip-path="url(#p273600ae3a)">
     <use xlink:href="#m15bd70d604" x="880.98795" y="236.344586" style="fill: #0000ff; stroke: #0000ff"/>
    </g>
   </g>
   <g id="line2d_114">
    <path d="M 1290.761945 569.926661 
" clip-path="url(#p273600ae3a)" style="fill: none; stroke: #0000ff; stroke-width: 1.5; stroke-linecap: square"/>
    <g clip-path="url(#p273600ae3a)">
     <use xlink:href="#m15bd70d604" x="1290.761945" y="569.926661" style="fill: #0000ff; stroke: #0000ff"/>
    </g>
   </g>
   <g id="line2d_115">
    <path d="M 997.407829 1146.671023 
" clip-path="url(#p273600ae3a)" style="fill: none; stroke: #0000ff; stroke-width: 1.5; stroke-linecap: square"/>
    <g clip-path="url(#p273600ae3a)">
     <use xlink:href="#m15bd70d604" x="997.407829" y="1146.671023" style="fill: #0000ff; stroke: #0000ff"/>
    </g>
   </g>
   <g id="line2d_116">
    <path d="M 797.544512 650.204715 
" clip-path="url(#p273600ae3a)" style="fill: none; stroke: #0000ff; stroke-width: 1.5; stroke-linecap: square"/>
    <g clip-path="url(#p273600ae3a)">
     <use xlink:href="#m15bd70d604" x="797.544512" y="650.204715" style="fill: #0000ff; stroke: #0000ff"/>
    </g>
   </g>
   <g id="line2d_117">
    <path d="M 889.136143 654.585538 
" clip-path="url(#p273600ae3a)" style="fill: none; stroke: #ff0000; stroke-width: 1.5; stroke-linecap: square"/>
    <defs>
     <path id="m572f05a387" d="M 0 -10 
L -2.24514 -3.09017 
L -9.510565 -3.09017 
L -3.632713 1.18034 
L -5.877853 8.09017 
L -0 3.81966 
L 5.877853 8.09017 
L 3.632713 1.18034 
L 9.510565 -3.09017 
L 2.24514 -3.09017 
z
" style="stroke: #ff0000; stroke-linejoin: bevel"/>
    </defs>
    <g clip-path="url(#p273600ae3a)">
     <use xlink:href="#m572f05a387" x="889.136143" y="654.585538" style="fill: #ff0000; stroke: #ff0000; stroke-linejoin: bevel"/>
    </g>
   </g>
   <g id="line2d_118">
    <path d="M 196.439062 767.590327 
" clip-path="url(#p273600ae3a)" style="fill: none; stroke: #ff0000; stroke-width: 1.5; stroke-linecap: square"/>
    <g clip-path="url(#p273600ae3a)">
     <use xlink:href="#m572f05a387" x="196.439062" y="767.590327" style="fill: #ff0000; stroke: #ff0000; stroke-linejoin: bevel"/>
    </g>
   </g>
   <g id="line2d_119">
    <path d="M 359.575565 749.921637 
" clip-path="url(#p273600ae3a)" style="fill: none; stroke: #ff0000; stroke-width: 1.5; stroke-linecap: square"/>
    <g clip-path="url(#p273600ae3a)">
     <use xlink:href="#m572f05a387" x="359.575565" y="749.921637" style="fill: #ff0000; stroke: #ff0000; stroke-linejoin: bevel"/>
    </g>
   </g>
   <g id="line2d_120">
    <path d="M 660.914813 703.679483 
" clip-path="url(#p273600ae3a)" style="fill: none; stroke: #ff0000; stroke-width: 1.5; stroke-linecap: square"/>
    <g clip-path="url(#p273600ae3a)">
     <use xlink:href="#m572f05a387" x="660.914813" y="703.679483" style="fill: #ff0000; stroke: #ff0000; stroke-linejoin: bevel"/>
    </g>
   </g>
   <g id="line2d_121">
    <path d="M 456.394701 646.32096 
" clip-path="url(#p273600ae3a)" style="fill: none; stroke: #ff0000; stroke-width: 1.5; stroke-linecap: square"/>
    <g clip-path="url(#p273600ae3a)">
     <use xlink:href="#m572f05a387" x="456.394701" y="646.32096" style="fill: #ff0000; stroke: #ff0000; stroke-linejoin: bevel"/>
    </g>
   </g>
   <g id="line2d_122">
    <path d="M 863.804328 119.255678 
" clip-path="url(#p273600ae3a)" style="fill: none; stroke: #ff0000; stroke-width: 1.5; stroke-linecap: square"/>
    <g clip-path="url(#p273600ae3a)">
     <use xlink:href="#m572f05a387" x="863.804328" y="119.255678" style="fill: #ff0000; stroke: #ff0000; stroke-linejoin: bevel"/>
    </g>
   </g>
   <g id="line2d_123">
    <path d="M 950.739164 321.43788 
" clip-path="url(#p273600ae3a)" style="fill: none; stroke: #ff0000; stroke-width: 1.5; stroke-linecap: square"/>
    <g clip-path="url(#p273600ae3a)">
     <use xlink:href="#m572f05a387" x="950.739164" y="321.43788" style="fill: #ff0000; stroke: #ff0000; stroke-linejoin: bevel"/>
    </g>
   </g>
   <g id="line2d_124">
    <path d="M 880.839278 48.418381 
" clip-path="url(#p273600ae3a)" style="fill: none; stroke: #ff0000; stroke-width: 1.5; stroke-linecap: square"/>
    <g clip-path="url(#p273600ae3a)">
     <use xlink:href="#m572f05a387" x="880.839278" y="48.418381" style="fill: #ff0000; stroke: #ff0000; stroke-linejoin: bevel"/>
    </g>
   </g>
   <g id="line2d_125">
    <path d="M 879.304598 236.000598 
" clip-path="url(#p273600ae3a)" style="fill: none; stroke: #ff0000; stroke-width: 1.5; stroke-linecap: square"/>
    <g clip-path="url(#p273600ae3a)">
     <use xlink:href="#m572f05a387" x="879.304598" y="236.000598" style="fill: #ff0000; stroke: #ff0000; stroke-linejoin: bevel"/>
    </g>
   </g>
   <g id="line2d_126">
    <path d="M 1292.670703 569.993449 
" clip-path="url(#p273600ae3a)" style="fill: none; stroke: #ff0000; stroke-width: 1.5; stroke-linecap: square"/>
    <g clip-path="url(#p273600ae3a)">
     <use xlink:href="#m572f05a387" x="1292.670703" y="569.993449" style="fill: #ff0000; stroke: #ff0000; stroke-linejoin: bevel"/>
    </g>
   </g>
   <g id="line2d_127">
    <path d="M 996.784365 1149.489715 
" clip-path="url(#p273600ae3a)" style="fill: none; stroke: #ff0000; stroke-width: 1.5; stroke-linecap: square"/>
    <g clip-path="url(#p273600ae3a)">
     <use xlink:href="#m572f05a387" x="996.784365" y="1149.489715" style="fill: #ff0000; stroke: #ff0000; stroke-linejoin: bevel"/>
    </g>
   </g>
   <g id="line2d_128">
    <path d="M 946.298184 477.415756 
" clip-path="url(#p273600ae3a)" style="fill: none; stroke: #ff0000; stroke-width: 1.5; stroke-linecap: square"/>
    <g clip-path="url(#p273600ae3a)">
     <use xlink:href="#m572f05a387" x="946.298184" y="477.415756" style="fill: #ff0000; stroke: #ff0000; stroke-linejoin: bevel"/>
    </g>
   </g>
  </g>
 </g>
 <defs>
  <clipPath id="p273600ae3a">
   <rect x="0" y="0" width="1440" height="1440"/>
  </clipPath>
 </defs>
</svg>
