<?xml version="1.0" encoding="utf-8" standalone="no"?>
<!DOCTYPE svg PUBLIC "-//W3C//DTD SVG 1.1//EN"
  "http://www.w3.org/Graphics/SVG/1.1/DTD/svg11.dtd">
<svg xmlns:xlink="http://www.w3.org/1999/xlink" width="1440pt" height="1440pt" viewBox="0 0 1440 1440" xmlns="http://www.w3.org/2000/svg" version="1.1">
 <metadata>
  <rdf:RDF xmlns:dc="http://purl.org/dc/elements/1.1/" xmlns:cc="http://creativecommons.org/ns#" xmlns:rdf="http://www.w3.org/1999/02/22-rdf-syntax-ns#">
   <cc:Work>
    <dc:type rdf:resource="http://purl.org/dc/dcmitype/StillImage"/>
    <dc:date>2026-02-27T11:09:40.259944</dc:date>
    <dc:format>image/svg+xml</dc:format>
    <dc:creator>
     <cc:Agent>
      <dc:title>Matplotlib v3.7.3, https://matplotlib.org/</dc:title>
     </cc:Agent>
    </dc:creator>
   </cc:Work>
  </rdf:RDF>
 </metadata>
 <defs>
  <style type="text/css">*{stroke-linejoin: round; stroke-linecap: butt}</style>
 </defs>
 <g id="figure_1">
  <g id="patch_1">
   <path d="M 0 1440 
L 1440 1440 
L 1440 0 
L 0 0 
z
" style="fill: #ffffff"/>
  </g>
  <g id="axes_1">
   <g id="line2d_1">
    <path d="M 1189.912886 1067.373317 
L 1073.679812 960.048741 
" clip-path="url(#p2ae0e65fd9)" style="fill: none; stroke: #7a7a7a; stroke-width: 3; stroke-linecap: square"/>
   </g>
   <g id="line2d_2">
    <path d="M 1213.103282 1031.879486 
L 1211.346434 1030.277627 
L 1206.567807 1026.062207 
L 1205.443424 1024.797581 
L 1097.713495 924.892144 
" clip-path="url(#p2ae0e65fd9)" style="fill: none; stroke: #7a7a7a; stroke-width: 3; stroke-linecap: square"/>
   </g>
   <g id="line2d_3">
    <path d="M 1073.679812 960.048741 
L 995.183836 887.037678 
" clip-path="url(#p2ae0e65fd9)" style="fill: none; stroke: #7a7a7a; stroke-width: 3; stroke-linecap: square"/>
   </g>
   <g id="line2d_4">
    <path d="M 1097.713495 924.892144 
L 1027.369294 860.058995 
L 1018.022862 851.375231 
" clip-path="url(#p2ae0e65fd9)" style="fill: none; stroke: #7a7a7a; stroke-width: 3; stroke-linecap: square"/>
   </g>
   <g id="line2d_5">
    <path d="M 1180.355632 945.547698 
L 1174.101253 956.170555 
L 1169.603722 968.732505 
L 1166.792765 982.643388 
L 1165.668382 997.313048 
L 1166.371121 1012.31994 
L 1168.760434 1027.073908 
L 1172.97687 1041.0691 
L 1178.87988 1053.63105 
L 1186.610012 1064.338215 
L 1189.912886 1067.373317 
" clip-path="url(#p2ae0e65fd9)" style="fill: none; stroke: #7a7a7a; stroke-width: 3; stroke-linecap: square"/>
   </g>
   <g id="line2d_6">
    <path d="M 1164.543999 930.793731 
L 1155.267841 945.126156 
L 1148.45127 956.676405 
L 1143.391547 969.828514 
L 1139.948125 984.245248 
L 1138.050728 999.420757 
L 1137.629085 1015.102117 
L 1138.61292 1030.867785 
L 1140.791412 1046.211912 
L 1144.234834 1060.881571 
L 1148.662091 1074.370913 
L 1154.143458 1086.427012 
L 1160.468111 1096.544018 
L 1167.636052 1104.469007 
" clip-path="url(#p2ae0e65fd9)" style="fill: none; stroke: #7a7a7a; stroke-width: 3; stroke-linecap: square"/>
   </g>
   <g id="line2d_7">
    <path d="M 1088.718432 1087.270096 
L 1097.99459 1075.382613 
L 1108.465405 1066.108691 
L 1119.779508 1059.36402 
L 1131.515253 1055.064292 
L 1143.391547 1052.872274 
L 1155.057019 1052.787966 
L 1166.160299 1054.64275 
L 1176.350019 1058.183702 
L 1185.274807 1063.326514 
L 1189.912886 1067.373317 
" clip-path="url(#p2ae0e65fd9)" style="fill: none; stroke: #7a7a7a; stroke-width: 3; stroke-linecap: square"/>
   </g>
   <g id="line2d_8">
    <path d="M 1105.232805 1102.614222 
L 1110.503349 1098.230186 
L 1118.444303 1093.930458 
L 1128.282653 1090.811048 
L 1137.418263 1089.462114 
L 1143.391547 1089.377805 
L 1147.959352 1089.883656 
L 1151.613596 1091.316898 
L 1161.592494 1099.494812 
L 1162.997972 1100.422204 
L 1167.636052 1104.469007 
" clip-path="url(#p2ae0e65fd9)" style="fill: none; stroke: #7a7a7a; stroke-width: 3; stroke-linecap: square"/>
   </g>
   <g id="line2d_9">
    <path d="M 1088.718432 1087.270096 
L 968.128374 1274.181788 
" clip-path="url(#p2ae0e65fd9)" style="fill: none; stroke: #7a7a7a; stroke-width: 3; stroke-linecap: square"/>
   </g>
   <g id="line2d_10">
    <path d="M 1072.766251 1072.43182 
L 1062.646805 1088.11318 
L 952.035645 1259.259204 
" clip-path="url(#p2ae0e65fd9)" style="fill: none; stroke: #7a7a7a; stroke-width: 3; stroke-linecap: square"/>
   </g>
   <g id="line2d_11">
    <path d="M 1180.355632 945.547698 
L 1338.120598 702.486621 
" clip-path="url(#p2ae0e65fd9)" style="fill: none; stroke: #7a7a7a; stroke-width: 3; stroke-linecap: square"/>
   </g>
   <g id="line2d_12">
    <path d="M 1196.799731 960.891825 
L 1354.494423 717.746438 
" clip-path="url(#p2ae0e65fd9)" style="fill: none; stroke: #7a7a7a; stroke-width: 3; stroke-linecap: square"/>
   </g>
   <g id="line2d_13">
    <path d="M 1322.449512 687.90127 
L 1164.543999 930.793731 
" clip-path="url(#p2ae0e65fd9)" style="fill: none; stroke: #7a7a7a; stroke-width: 3; stroke-linecap: square"/>
   </g>
   <g id="line2d_14">
    <path d="M 1306.427057 672.894377 
L 1148.591817 915.955455 
" clip-path="url(#p2ae0e65fd9)" style="fill: none; stroke: #7a7a7a; stroke-width: 3; stroke-linecap: square"/>
   </g>
   <g id="line2d_15">
    <path d="M 1180.355632 945.547698 
L 1088.718432 1087.270096 
" clip-path="url(#p2ae0e65fd9)" style="fill: none; stroke: #7a7a7a; stroke-width: 3; stroke-linecap: square"/>
   </g>
   <g id="line2d_16">
    <path d="M 1164.543999 930.793731 
L 1072.766251 1072.43182 
" clip-path="url(#p2ae0e65fd9)" style="fill: none; stroke: #7a7a7a; stroke-width: 3; stroke-linecap: square"/>
   </g>
   <g id="line2d_17">
    <path d="M 995.183836 887.037678 
L 872.766655 771.113647 
" clip-path="url(#p2ae0e65fd9)" style="fill: none; stroke: #7a7a7a; stroke-width: 3; stroke-linecap: square"/>
   </g>
   <g id="line2d_18">
    <path d="M 1018.022862 851.375231 
L 982.112885 818.326343 
L 872.766655 714.711337 
" clip-path="url(#p2ae0e65fd9)" style="fill: none; stroke: #7a7a7a; stroke-width: 3; stroke-linecap: square"/>
   </g>
   <g id="line2d_19">
    <path d="M 872.766655 771.113647 
L 575.297123 496.942775 
L 405.726138 339.201784 
" clip-path="url(#p2ae0e65fd9)" style="fill: none; stroke: #7a7a7a; stroke-width: 3; stroke-linecap: square"/>
   </g>
   <g id="line2d_20">
    <path d="M 872.766655 714.711337 
L 713.596211 568.604903 
L 428.635438 304.38242 
" clip-path="url(#p2ae0e65fd9)" style="fill: none; stroke: #7a7a7a; stroke-width: 3; stroke-linecap: square"/>
   </g>
   <g id="line2d_21">
    <path d="M 1338.120598 702.486621 
L 1180.355632 945.547698 
" clip-path="url(#p2ae0e65fd9)" style="fill: none; stroke: #7a7a7a; stroke-width: 3; stroke-linecap: square"/>
   </g>
   <g id="line2d_22">
    <path d="M 1322.449512 687.90127 
L 1164.543999 930.793731 
" clip-path="url(#p2ae0e65fd9)" style="fill: none; stroke: #7a7a7a; stroke-width: 3; stroke-linecap: square"/>
   </g>
   <g id="line2d_23">
    <path d="M 1189.912886 1067.373317 
L 1185.274807 1063.326514 
L 1176.350019 1058.183702 
L 1166.160299 1054.64275 
L 1155.057019 1052.787966 
L 1143.391547 1052.872274 
L 1131.515253 1055.064292 
L 1119.779508 1059.36402 
L 1108.465405 1066.108691 
L 1097.99459 1075.382613 
L 1088.718432 1087.270096 
" clip-path="url(#p2ae0e65fd9)" style="fill: none; stroke: #7a7a7a; stroke-width: 3; stroke-linecap: square"/>
   </g>
   <g id="line2d_24">
    <path d="M 1213.103282 1031.879486 
L 1205.865068 1026.483749 
L 1197.010553 1022.015405 
L 1186.820834 1018.727378 
L 1175.506731 1016.619668 
L 1163.419616 1015.860893 
L 1150.840583 1016.619668 
L 1138.050728 1018.980303 
L 1125.401422 1023.027105 
L 1113.103485 1028.928692 
L 1101.508287 1036.769372 
L 1090.82665 1046.80207 
L 1081.480217 1059.026786 
L 1072.766251 1072.43182 
" clip-path="url(#p2ae0e65fd9)" style="fill: none; stroke: #7a7a7a; stroke-width: 3; stroke-linecap: square"/>
   </g>
   <g id="line2d_25">
    <path d="M 1189.912886 1067.373317 
L 1267.354754 1140.047146 
" clip-path="url(#p2ae0e65fd9)" style="fill: none; stroke: #7a7a7a; stroke-width: 3; stroke-linecap: square"/>
   </g>
   <g id="line2d_26">
    <path d="M 1167.636052 1104.469007 
L 1170.868652 1107.082567 
L 1192.794117 1127.738121 
L 1244.37518 1175.625285 
" clip-path="url(#p2ae0e65fd9)" style="fill: none; stroke: #7a7a7a; stroke-width: 3; stroke-linecap: square"/>
   </g>
   <g id="line2d_27">
    <path d="M 1267.354754 1140.047146 
L 1189.912886 1067.373317 
" clip-path="url(#p2ae0e65fd9)" style="fill: none; stroke: #7a7a7a; stroke-width: 3; stroke-linecap: square"/>
   </g>
   <g id="line2d_28">
    <path d="M 1290.474876 1104.553315 
L 1213.103282 1031.879486 
" clip-path="url(#p2ae0e65fd9)" style="fill: none; stroke: #7a7a7a; stroke-width: 3; stroke-linecap: square"/>
   </g>
   <g id="line2d_29">
    <path d="M 1073.679812 960.048741 
L 1080.918026 971.346065 
L 1086.329118 983.823706 
L 1089.842815 997.144431 
L 1091.529389 1010.971006 
L 1091.248293 1024.966198 
L 1088.929254 1038.708465 
L 1084.642544 1051.944882 
L 1078.177343 1064.169598 
L 1072.766251 1072.43182 
" clip-path="url(#p2ae0e65fd9)" style="fill: none; stroke: #7a7a7a; stroke-width: 3; stroke-linecap: square"/>
   </g>
   <g id="line2d_30">
    <path d="M 1050.138046 994.615179 
L 1057.235713 1000.938308 
L 1062.506257 1005.996811 
L 1065.387488 1011.476856 
L 1067.284884 1016.113818 
L 1069.041732 1021.76248 
L 1068.971459 1027.579758 
L 1068.128171 1033.481345 
L 1064.755023 1044.525744 
L 1062.857627 1047.476537 
L 1062.365709 1049.41563 
L 1056.954617 1057.762161 
" clip-path="url(#p2ae0e65fd9)" style="fill: none; stroke: #7a7a7a; stroke-width: 3; stroke-linecap: square"/>
   </g>
   <g id="line2d_31">
    <path d="M 1441 1302.856404 
L 1267.354754 1140.047146 
" clip-path="url(#p2ae0e65fd9)" style="fill: none; stroke: #7a7a7a; stroke-width: 3; stroke-linecap: square"/>
   </g>
   <g id="line2d_32">
    <path d="M 1441 1245.351919 
L 1385.274403 1193.751588 
L 1290.474876 1104.553315 
" clip-path="url(#p2ae0e65fd9)" style="fill: none; stroke: #7a7a7a; stroke-width: 3; stroke-linecap: square"/>
   </g>
   <g id="line2d_33">
    <path d="M 1088.718432 1087.270096 
L 1094.340346 1077.827556 
L 1098.767603 1066.277308 
L 1101.789382 1053.209508 
L 1103.265135 1039.130007 
L 1103.054313 1024.291731 
L 1101.086643 1009.369147 
L 1097.081029 994.783796 
L 1090.967198 980.957221 
L 1082.674874 968.395271 
L 1073.679812 960.048741 
" clip-path="url(#p2ae0e65fd9)" style="fill: none; stroke: #7a7a7a; stroke-width: 3; stroke-linecap: square"/>
   </g>
   <g id="line2d_34">
    <path d="M 1105.232805 1102.614222 
L 1109.519514 1096.122476 
L 1115.422524 1086.174087 
L 1120.341699 1074.792455 
L 1124.136491 1062.146197 
L 1126.877174 1048.572546 
L 1128.423201 1034.240121 
L 1128.844844 1019.570462 
L 1128.142105 1004.563569 
L 1126.174435 989.725293 
L 1123.012108 975.139942 
L 1118.584851 961.14475 
L 1112.962937 947.908333 
L 1106.005818 935.767926 
L 1097.713495 924.892144 
" clip-path="url(#p2ae0e65fd9)" style="fill: none; stroke: #7a7a7a; stroke-width: 3; stroke-linecap: square"/>
   </g>
   <g id="line2d_35">
    <path d="M 1105.232805 1102.614222 
L 1196.799731 960.891825 
" clip-path="url(#p2ae0e65fd9)" style="fill: none; stroke: #7a7a7a; stroke-width: 3; stroke-linecap: square"/>
   </g>
   <g id="line2d_36">
    <path d="M 1115.844168 1112.478303 
L 1207.34082 970.671597 
" clip-path="url(#p2ae0e65fd9)" style="fill: none; stroke: #7a7a7a; stroke-width: 3; stroke-linecap: square"/>
   </g>
   <g id="line2d_37">
    <path d="M 311.699624 353.618518 
L 262.507876 431.8567 
L 187.736418 546.263181 
" clip-path="url(#p2ae0e65fd9)" style="fill: none; stroke: #7a7a7a; stroke-width: 3; stroke-linecap: square"/>
   </g>
   <g id="line2d_38">
    <path d="M 280.919645 325.79675 
L 215.986536 430.001916 
L 139.036587 546.263181 
" clip-path="url(#p2ae0e65fd9)" style="fill: none; stroke: #7a7a7a; stroke-width: 3; stroke-linecap: square"/>
   </g>
   <g id="line2d_39">
    <path d="M 1164.543999 930.793731 
L 1072.766251 1072.43182 
" clip-path="url(#p2ae0e65fd9)" style="fill: none; stroke: #7a7a7a; stroke-width: 3; stroke-linecap: square"/>
   </g>
   <g id="line2d_40">
    <path d="M 1148.591817 915.955455 
L 1056.954617 1057.762161 
" clip-path="url(#p2ae0e65fd9)" style="fill: none; stroke: #7a7a7a; stroke-width: 3; stroke-linecap: square"/>
   </g>
   <g id="line2d_41">
    <path d="M 1105.232805 1102.614222 
L 1112.541293 1091.316898 
L 1122.660739 1078.333407 
L 1133.412649 1069.228101 
L 1144.305108 1063.410822 
L 1155.057019 1060.544337 
L 1165.387286 1059.954179 
L 1174.803992 1061.303113 
L 1183.096316 1063.916673 
L 1189.912886 1067.373317 
" clip-path="url(#p2ae0e65fd9)" style="fill: none; stroke: #7a7a7a; stroke-width: 3; stroke-linecap: square"/>
   </g>
   <g id="line2d_42">
    <path d="M 1115.844168 1112.478303 
L 1123.152656 1101.180979 
L 1126.666352 1098.988961 
L 1129.266488 1096.122476 
L 1133.764019 1092.918758 
L 1138.050728 1090.305198 
L 1143.391547 1089.377805 
L 1147.959352 1089.883656 
L 1151.613596 1091.316898 
L 1167.636052 1104.469007 
" clip-path="url(#p2ae0e65fd9)" style="fill: none; stroke: #7a7a7a; stroke-width: 3; stroke-linecap: square"/>
   </g>
   <g id="line2d_43">
    <path d="M 1088.718432 1087.270096 
L 1180.355632 945.547698 
" clip-path="url(#p2ae0e65fd9)" style="fill: none; stroke: #7a7a7a; stroke-width: 3; stroke-linecap: square"/>
   </g>
   <g id="line2d_44">
    <path d="M 1105.232805 1102.614222 
L 1196.799731 960.891825 
" clip-path="url(#p2ae0e65fd9)" style="fill: none; stroke: #7a7a7a; stroke-width: 3; stroke-linecap: square"/>
   </g>
   <g id="line2d_45">
    <path d="M 1072.766251 1072.43182 
L 1062.646805 1088.11318 
L 952.035645 1259.259204 
" clip-path="url(#p2ae0e65fd9)" style="fill: none; stroke: #7a7a7a; stroke-width: 3; stroke-linecap: square"/>
   </g>
   <g id="line2d_46">
    <path d="M 1056.954617 1057.762161 
L 986.750964 1166.435671 
L 984.291377 1170.313856 
L 936.294285 1244.673853 
" clip-path="url(#p2ae0e65fd9)" style="fill: none; stroke: #7a7a7a; stroke-width: 3; stroke-linecap: square"/>
   </g>
   <g id="line2d_47">
    <path d="M 1196.799731 960.891825 
L 1354.494423 717.746438 
" clip-path="url(#p2ae0e65fd9)" style="fill: none; stroke: #7a7a7a; stroke-width: 3; stroke-linecap: square"/>
   </g>
   <g id="line2d_48">
    <path d="M 1207.34082 970.671597 
L 1364.894964 727.441903 
" clip-path="url(#p2ae0e65fd9)" style="fill: none; stroke: #7a7a7a; stroke-width: 3; stroke-linecap: square"/>
   </g>
   <g id="line2d_49">
    <path d="M 1073.679812 960.048741 
L 1082.674874 968.395271 
L 1090.967198 980.957221 
L 1097.081029 994.783796 
L 1101.086643 1009.369147 
L 1103.054313 1024.291731 
L 1103.265135 1039.130007 
L 1101.789382 1053.209508 
L 1098.767603 1066.277308 
L 1094.340346 1077.827556 
L 1088.718432 1087.270096 
" clip-path="url(#p2ae0e65fd9)" style="fill: none; stroke: #7a7a7a; stroke-width: 3; stroke-linecap: square"/>
   </g>
   <g id="line2d_50">
    <path d="M 1050.138046 994.615179 
L 1057.235713 1000.938308 
L 1062.506257 1005.996811 
L 1064.755023 1010.296539 
L 1068.830911 1015.607967 
L 1074.312277 1029.940393 
L 1076.420495 1044.272819 
L 1076.209673 1057.172002 
L 1074.663647 1067.036083 
L 1072.766251 1072.43182 
" clip-path="url(#p2ae0e65fd9)" style="fill: none; stroke: #7a7a7a; stroke-width: 3; stroke-linecap: square"/>
   </g>
   <g id="line2d_51">
    <path d="M 405.726138 339.201784 
L 402.70436 336.419607 
L 395.676967 327.482918 
L 389.984779 315.426819 
L 385.908891 301.347318 
L 383.449304 286.0875 
L 382.67629 270.574757 
L 383.730399 255.652173 
L 386.681904 242.331448 
L 391.601079 231.455666 
" clip-path="url(#p2ae0e65fd9)" style="fill: none; stroke: #7a7a7a; stroke-width: 3; stroke-linecap: square"/>
   </g>
   <g id="line2d_52">
    <path d="M 428.635438 304.38242 
L 425.121742 300.841468 
L 423.224346 298.227908 
L 421.467498 295.108498 
L 418.515993 288.70106 
L 417.532158 283.305324 
L 416.618597 276.982195 
L 416.478049 269.90029 
L 417.883528 266.612263 
L 420.553937 260.879293 
L 421.818868 258.771583 
" clip-path="url(#p2ae0e65fd9)" style="fill: none; stroke: #7a7a7a; stroke-width: 3; stroke-linecap: square"/>
   </g>
   <g id="line2d_53">
    <path d="M 1164.543999 930.793731 
L 1158.570715 939.983345 
L 1150.770309 950.859127 
L 1140.721138 959.289965 
L 1129.196214 965.360169 
L 1116.898277 968.901121 
L 1104.459792 970.165747 
L 1092.724046 969.069738 
L 1082.182957 965.697403 
L 1073.679812 960.048741 
" clip-path="url(#p2ae0e65fd9)" style="fill: none; stroke: #7a7a7a; stroke-width: 3; stroke-linecap: square"/>
   </g>
   <g id="line2d_54">
    <path d="M 1148.591817 915.955455 
L 1142.688808 925.145069 
L 1141.915794 925.650919 
L 1138.472372 929.866338 
L 1132.991006 934.418991 
L 1126.385257 937.62271 
L 1119.428138 938.044252 
L 1113.454854 936.526701 
L 1108.324857 934.081758 
L 1103.475957 930.28788 
L 1097.713495 924.892144 
" clip-path="url(#p2ae0e65fd9)" style="fill: none; stroke: #7a7a7a; stroke-width: 3; stroke-linecap: square"/>
   </g>
   <g id="line2d_55">
    <path d="M 1189.912886 1067.373317 
L 1183.236863 1056.919077 
L 1178.598784 1044.862977 
L 1175.928375 1031.879486 
L 1175.085088 1018.390144 
L 1176.068923 1005.238036 
L 1178.739332 992.844703 
L 1183.026042 982.05323 
L 1188.858777 973.285157 
L 1196.799731 960.891825 
" clip-path="url(#p2ae0e65fd9)" style="fill: none; stroke: #7a7a7a; stroke-width: 3; stroke-linecap: square"/>
   </g>
   <g id="line2d_56">
    <path d="M 1213.103282 1031.879486 
L 1206.567807 1026.062207 
L 1203.75685 1022.942797 
L 1201.226989 1020.076312 
L 1199.118771 1015.776584 
L 1197.50247 1009.622072 
L 1196.23754 997.397356 
L 1196.448362 994.193637 
L 1196.378088 992.338853 
L 1199.399866 983.06493 
L 1207.34082 970.671597 
" clip-path="url(#p2ae0e65fd9)" style="fill: none; stroke: #7a7a7a; stroke-width: 3; stroke-linecap: square"/>
   </g>
   <g id="line2d_57">
    <path d="M 391.601079 231.455666 
L 404.742303 210.631495 
L 423.083798 181.966643 
L 480.989514 92.178212 
L 541.651962 -1 
" clip-path="url(#p2ae0e65fd9)" style="fill: none; stroke: #7a7a7a; stroke-width: 3; stroke-linecap: square"/>
   </g>
   <g id="line2d_58">
    <path d="M 421.818868 258.771583 
L 426.105577 251.521062 
L 430.532834 244.692083 
L 589.555385 -1 
" clip-path="url(#p2ae0e65fd9)" style="fill: none; stroke: #7a7a7a; stroke-width: 3; stroke-linecap: square"/>
   </g>
   <g id="line2d_59">
    <path d="M 1073.679812 960.048741 
L 1189.912886 1067.373317 
" clip-path="url(#p2ae0e65fd9)" style="fill: none; stroke: #7a7a7a; stroke-width: 3; stroke-linecap: square"/>
   </g>
   <g id="line2d_60">
    <path d="M 1050.138046 994.615179 
L 1057.235713 1000.938308 
L 1062.576531 1006.165428 
L 1167.636052 1104.469007 
" clip-path="url(#p2ae0e65fd9)" style="fill: none; stroke: #7a7a7a; stroke-width: 3; stroke-linecap: square"/>
   </g>
   <g id="line2d_61">
    <path d="M 872.766655 771.113647 
L 995.183836 887.037678 
" clip-path="url(#p2ae0e65fd9)" style="fill: none; stroke: #7a7a7a; stroke-width: 3; stroke-linecap: square"/>
   </g>
   <g id="line2d_62">
    <path d="M 872.766655 829.202125 
L 972.485357 922.109967 
" clip-path="url(#p2ae0e65fd9)" style="fill: none; stroke: #7a7a7a; stroke-width: 3; stroke-linecap: square"/>
   </g>
   <g id="line2d_63">
    <path d="M 968.128374 1274.181788 
L 1088.718432 1087.270096 
" clip-path="url(#p2ae0e65fd9)" style="fill: none; stroke: #7a7a7a; stroke-width: 3; stroke-linecap: square"/>
   </g>
   <g id="line2d_64">
    <path d="M 984.853568 1289.610223 
L 1074.523099 1150.24846 
L 1105.232805 1102.614222 
" clip-path="url(#p2ae0e65fd9)" style="fill: none; stroke: #7a7a7a; stroke-width: 3; stroke-linecap: square"/>
   </g>
   <g id="line2d_65">
    <path d="M 984.853568 1289.610223 
L 1074.523099 1150.24846 
L 1105.232805 1102.614222 
" clip-path="url(#p2ae0e65fd9)" style="fill: none; stroke: #7a7a7a; stroke-width: 3; stroke-linecap: square"/>
   </g>
   <g id="line2d_66">
    <path d="M 995.254109 1299.221379 
L 1027.790937 1248.46773 
L 1058.641191 1201.170726 
L 1115.844168 1112.478303 
" clip-path="url(#p2ae0e65fd9)" style="fill: none; stroke: #7a7a7a; stroke-width: 3; stroke-linecap: square"/>
   </g>
   <g id="line2d_67">
    <path d="M 1073.679812 960.048741 
L 1079.02063 965.613094 
L 1087.594049 970.165747 
L 1098.69733 973.538083 
L 1111.557458 975.308559 
L 1125.54197 975.308559 
L 1139.737303 973.200849 
L 1153.581266 968.563888 
L 1166.160299 961.313367 
L 1176.841936 950.943435 
L 1180.355632 945.547698 
" clip-path="url(#p2ae0e65fd9)" style="fill: none; stroke: #7a7a7a; stroke-width: 3; stroke-linecap: square"/>
   </g>
   <g id="line2d_68">
    <path d="M 1050.138046 994.615179 
L 1057.797904 1000.432458 
L 1066.863241 1005.238036 
L 1077.193508 1008.863296 
L 1088.437336 1011.30824 
L 1100.454178 1012.488557 
L 1112.962937 1012.235632 
L 1125.682517 1010.633773 
L 1138.402098 1007.514362 
L 1150.840583 1002.708784 
L 1162.857425 996.301347 
L 1174.030979 988.123433 
L 1184.290972 978.175044 
L 1193.286035 966.287561 
L 1196.799731 960.891825 
" clip-path="url(#p2ae0e65fd9)" style="fill: none; stroke: #7a7a7a; stroke-width: 3; stroke-linecap: square"/>
   </g>
   <g id="line2d_69">
    <path d="M 298.347578 238.959113 
L 223.084203 170.922245 
L 109.240442 63.091819 
L 83.520184 40.412863 
" clip-path="url(#p2ae0e65fd9)" style="fill: none; stroke: #7a7a7a; stroke-width: 3; stroke-linecap: square"/>
   </g>
   <g id="line2d_70">
    <path d="M 320.975783 204.139749 
L 314.861951 199.418479 
L 145.642336 40.412863 
" clip-path="url(#p2ae0e65fd9)" style="fill: none; stroke: #7a7a7a; stroke-width: 3; stroke-linecap: square"/>
   </g>
   <g id="line2d_71">
    <path d="M 1189.912886 1067.373317 
L 1185.274807 1063.073589 
L 1176.279745 1055.317217 
L 1165.317012 1049.921481 
L 1152.808253 1046.80207 
L 1139.456207 1045.621753 
L 1125.823065 1046.380528 
L 1112.471019 1048.825472 
L 1099.891986 1052.787966 
L 1088.718432 1058.183702 
L 1079.512548 1064.759757 
L 1072.766251 1072.43182 
" clip-path="url(#p2ae0e65fd9)" style="fill: none; stroke: #7a7a7a; stroke-width: 3; stroke-linecap: square"/>
   </g>
   <g id="line2d_72">
    <path d="M 1213.103282 1031.879486 
L 1207.059725 1026.483749 
L 1199.751236 1020.919396 
L 1189.491243 1015.776584 
L 1177.966319 1011.982707 
L 1165.45756 1009.70638 
L 1152.246062 1008.947605 
L 1138.61292 1009.622072 
L 1124.979778 1011.898398 
L 1111.41691 1015.607967 
L 1098.416234 1020.919396 
L 1086.188571 1027.748375 
L 1075.015016 1036.179214 
L 1065.176667 1046.127603 
L 1056.954617 1057.762161 
" clip-path="url(#p2ae0e65fd9)" style="fill: none; stroke: #7a7a7a; stroke-width: 3; stroke-linecap: square"/>
   </g>
   <g id="line2d_73">
    <path d="M 1267.354754 1140.047146 
L 1441 1302.856404 
" clip-path="url(#p2ae0e65fd9)" style="fill: none; stroke: #7a7a7a; stroke-width: 3; stroke-linecap: square"/>
   </g>
   <g id="line2d_74">
    <path d="M 1244.37518 1175.625285 
L 1291.950628 1219.634262 
L 1378.949749 1301.076163 
L 1441 1358.403511 
" clip-path="url(#p2ae0e65fd9)" style="fill: none; stroke: #7a7a7a; stroke-width: 3; stroke-linecap: square"/>
   </g>
   <g id="line2d_75">
    <path d="M 298.347578 238.959113 
L 306.499354 248.48596 
L 313.034829 260.036209 
L 318.024278 272.935392 
L 321.327152 286.846276 
L 323.013727 301.26301 
L 322.873179 315.595436 
L 320.975783 329.422011 
L 317.321539 342.321194 
L 311.699624 353.618518 
" clip-path="url(#p2ae0e65fd9)" style="fill: none; stroke: #7a7a7a; stroke-width: 3; stroke-linecap: square"/>
   </g>
   <g id="line2d_76">
    <path d="M 274.735539 275.043102 
L 282.184575 282.209315 
L 284.292793 285.918884 
L 286.401011 290.80877 
L 287.10375 294.012489 
L 288.087585 299.914076 
L 288.649776 305.899971 
L 287.876763 312.054483 
L 284.784711 319.642238 
L 280.919645 325.79675 
" clip-path="url(#p2ae0e65fd9)" style="fill: none; stroke: #7a7a7a; stroke-width: 3; stroke-linecap: square"/>
   </g>
   <g id="line2d_77">
    <path d="M 1073.679812 960.048741 
L 1082.745148 968.479579 
L 1087.664323 974.21255 
L 1095.535003 979.186744 
L 1105.935544 983.149239 
L 1118.092933 985.847107 
L 1131.515253 987.027424 
L 1145.640313 986.437266 
L 1159.835646 983.739397 
L 1173.468788 978.765203 
L 1185.977546 971.261756 
L 1196.799731 960.891825 
" clip-path="url(#p2ae0e65fd9)" style="fill: none; stroke: #7a7a7a; stroke-width: 3; stroke-linecap: square"/>
   </g>
   <g id="line2d_78">
    <path d="M 1050.138046 994.615179 
L 1057.235713 1000.938308 
L 1059.835848 1003.46756 
L 1066.230775 1008.357446 
L 1075.015016 1012.910099 
L 1085.134462 1016.53536 
L 1096.448564 1018.980303 
L 1108.676227 1020.329237 
L 1121.466082 1020.244929 
L 1134.747854 1018.727378 
L 1148.029626 1015.523659 
L 1161.241124 1010.633773 
L 1174.030979 1003.804793 
L 1186.118094 994.952413 
L 1197.361923 983.992323 
L 1207.34082 970.671597 
" clip-path="url(#p2ae0e65fd9)" style="fill: none; stroke: #7a7a7a; stroke-width: 3; stroke-linecap: square"/>
   </g>
   <g id="line2d_79">
    <path d="M 995.183836 887.037678 
L 1073.679812 960.048741 
" clip-path="url(#p2ae0e65fd9)" style="fill: none; stroke: #7a7a7a; stroke-width: 3; stroke-linecap: square"/>
   </g>
   <g id="line2d_80">
    <path d="M 972.485357 922.109967 
L 988.929456 937.454093 
L 1003.054515 950.606202 
L 1050.138046 994.615179 
" clip-path="url(#p2ae0e65fd9)" style="fill: none; stroke: #7a7a7a; stroke-width: 3; stroke-linecap: square"/>
   </g>
   <g id="line2d_81">
    <path d="M 1189.912886 1067.373317 
L 1186.610012 1064.338215 
L 1178.87988 1053.63105 
L 1172.97687 1041.0691 
L 1168.760434 1027.073908 
L 1166.371121 1012.31994 
L 1165.668382 997.313048 
L 1166.792765 982.643388 
L 1169.603722 968.732505 
L 1174.101253 956.170555 
L 1180.355632 945.547698 
" clip-path="url(#p2ae0e65fd9)" style="fill: none; stroke: #7a7a7a; stroke-width: 3; stroke-linecap: square"/>
   </g>
   <g id="line2d_82">
    <path d="M 1213.103282 1031.879486 
L 1206.567807 1026.062207 
L 1203.75685 1022.942797 
L 1201.226989 1020.076312 
L 1199.118771 1015.776584 
L 1197.50247 1009.622072 
L 1197.291649 1008.104521 
L 1195.323979 1002.793093 
L 1193.215761 988.797901 
L 1193.426583 976.151643 
L 1194.902335 966.37187 
L 1196.799731 960.891825 
" clip-path="url(#p2ae0e65fd9)" style="fill: none; stroke: #7a7a7a; stroke-width: 3; stroke-linecap: square"/>
   </g>
   <g id="line2d_83">
    <path d="M 405.726138 339.201784 
L 575.297123 496.942775 
L 872.766655 771.113647 
" clip-path="url(#p2ae0e65fd9)" style="fill: none; stroke: #7a7a7a; stroke-width: 3; stroke-linecap: square"/>
   </g>
   <g id="line2d_84">
    <path d="M 382.114099 375.032848 
L 481.059788 466.001597 
L 872.766655 829.202125 
" clip-path="url(#p2ae0e65fd9)" style="fill: none; stroke: #7a7a7a; stroke-width: 3; stroke-linecap: square"/>
   </g>
   <g id="line2d_85">
    <path d="M 311.699624 353.618518 
L 318.937839 343.670128 
L 327.651806 335.154981 
L 337.560429 328.157385 
L 348.31234 323.267499 
L 359.696716 320.56963 
L 371.432462 320.56963 
L 383.238482 323.436116 
L 394.763406 329.506319 
L 405.726138 339.201784 
" clip-path="url(#p2ae0e65fd9)" style="fill: none; stroke: #7a7a7a; stroke-width: 3; stroke-linecap: square"/>
   </g>
   <g id="line2d_86">
    <path d="M 342.128235 381.103052 
L 344.798644 376.634707 
L 347.328505 373.852531 
L 350.490832 371.238971 
L 358.361512 366.517701 
L 362.367126 365.843234 
L 367.356574 366.517701 
L 371.502736 367.782327 
L 375.50835 369.974345 
L 379.09232 372.250671 
L 382.114099 375.032848 
" clip-path="url(#p2ae0e65fd9)" style="fill: none; stroke: #7a7a7a; stroke-width: 3; stroke-linecap: square"/>
   </g>
   <g id="line2d_87">
    <path d="M 541.651962 -1 
L 480.989514 92.178212 
L 423.083798 181.966643 
L 404.742303 210.631495 
L 391.601079 231.455666 
" clip-path="url(#p2ae0e65fd9)" style="fill: none; stroke: #7a7a7a; stroke-width: 3; stroke-linecap: square"/>
   </g>
   <g id="line2d_88">
    <path d="M 493.609718 -1 
L 363.069865 199.502788 
L 362.718495 200.092946 
L 360.540003 203.465282 
" clip-path="url(#p2ae0e65fd9)" style="fill: none; stroke: #7a7a7a; stroke-width: 3; stroke-linecap: square"/>
   </g>
   <g id="line2d_89">
    <path d="M 298.347578 238.959113 
L 405.726138 339.201784 
" clip-path="url(#p2ae0e65fd9)" style="fill: none; stroke: #7a7a7a; stroke-width: 3; stroke-linecap: square"/>
   </g>
   <g id="line2d_90">
    <path d="M 274.735539 275.043102 
L 382.114099 375.032848 
" clip-path="url(#p2ae0e65fd9)" style="fill: none; stroke: #7a7a7a; stroke-width: 3; stroke-linecap: square"/>
   </g>
   <g id="line2d_91">
    <path d="M 83.520184 40.412863 
L 109.240442 63.091819 
L 223.084203 170.922245 
L 298.347578 238.959113 
" clip-path="url(#p2ae0e65fd9)" style="fill: none; stroke: #7a7a7a; stroke-width: 3; stroke-linecap: square"/>
   </g>
   <g id="line2d_92">
    <path d="M 20.835842 40.412863 
L 149.999319 158.697529 
L 242.409533 244.607774 
L 274.735539 275.043102 
" clip-path="url(#p2ae0e65fd9)" style="fill: none; stroke: #7a7a7a; stroke-width: 3; stroke-linecap: square"/>
   </g>
   <g id="line2d_93">
    <path d="M 405.726138 339.201784 
L 394.763406 329.506319 
L 383.238482 323.436116 
L 371.432462 320.56963 
L 359.696716 320.56963 
L 348.31234 323.267499 
L 337.560429 328.157385 
L 327.651806 335.154981 
L 318.937839 343.670128 
L 311.699624 353.618518 
" clip-path="url(#p2ae0e65fd9)" style="fill: none; stroke: #7a7a7a; stroke-width: 3; stroke-linecap: square"/>
   </g>
   <g id="line2d_94">
    <path d="M 428.635438 304.38242 
L 425.121742 300.841468 
L 423.224346 298.227908 
L 422.310785 296.626049 
L 415.353666 290.640153 
L 406.007234 284.991491 
L 395.185049 280.523147 
L 383.308756 277.403737 
L 370.518901 275.801877 
L 357.166855 275.970494 
L 343.533713 278.078204 
L 329.900571 282.377931 
L 316.548525 289.122602 
L 303.688397 298.480833 
L 291.741829 310.621241 
L 280.919645 325.79675 
" clip-path="url(#p2ae0e65fd9)" style="fill: none; stroke: #7a7a7a; stroke-width: 3; stroke-linecap: square"/>
   </g>
   <g id="line2d_95">
    <path d="M 405.726138 339.201784 
L 298.347578 238.959113 
" clip-path="url(#p2ae0e65fd9)" style="fill: none; stroke: #7a7a7a; stroke-width: 3; stroke-linecap: square"/>
   </g>
   <g id="line2d_96">
    <path d="M 428.635438 304.38242 
L 320.975783 204.139749 
" clip-path="url(#p2ae0e65fd9)" style="fill: none; stroke: #7a7a7a; stroke-width: 3; stroke-linecap: square"/>
   </g>
   <g id="line2d_97">
    <path d="M 391.601079 231.455666 
L 384.433139 240.476663 
L 375.438076 247.895801 
L 365.037535 253.544463 
L 353.653159 257.254032 
L 341.706591 258.518658 
L 329.619476 257.254032 
L 317.743182 253.038613 
L 306.499354 245.788092 
L 298.347578 238.959113 
" clip-path="url(#p2ae0e65fd9)" style="fill: none; stroke: #7a7a7a; stroke-width: 3; stroke-linecap: square"/>
   </g>
   <g id="line2d_98">
    <path d="M 360.540003 203.465282 
L 359.415621 205.067141 
L 358.50206 206.078842 
L 355.691103 209.704102 
L 353.372063 210.209953 
L 352.528776 210.800111 
L 346.555492 212.99213 
L 341.706591 213.582288 
L 334.398103 212.570588 
L 330.814132 210.968728 
L 329.127558 210.88442 
L 320.975783 204.139749 
" clip-path="url(#p2ae0e65fd9)" style="fill: none; stroke: #7a7a7a; stroke-width: 3; stroke-linecap: square"/>
   </g>
   <g id="line2d_99">
    <path d="M 298.347578 238.959113 
L 306.499354 245.788092 
L 317.743182 253.038613 
L 329.619476 257.254032 
L 341.706591 258.518658 
L 353.653159 257.254032 
L 365.037535 253.544463 
L 375.438076 247.895801 
L 384.433139 240.476663 
L 391.601079 231.455666 
" clip-path="url(#p2ae0e65fd9)" style="fill: none; stroke: #7a7a7a; stroke-width: 3; stroke-linecap: square"/>
   </g>
   <g id="line2d_100">
    <path d="M 274.735539 275.043102 
L 282.676493 282.377931 
L 293.287856 290.218611 
L 304.81278 296.204507 
L 317.110717 300.335618 
L 329.830298 302.696253 
L 342.830974 303.286411 
L 355.83165 302.106094 
L 368.621505 299.239609 
L 381.05999 294.518339 
L 392.795736 288.110902 
L 403.617921 280.017297 
L 413.385996 270.237524 
L 421.818868 258.771583 
" clip-path="url(#p2ae0e65fd9)" style="fill: none; stroke: #7a7a7a; stroke-width: 3; stroke-linecap: square"/>
   </g>
   <g id="line2d_101">
    <path d="M 311.699624 353.618518 
L 317.321539 342.321194 
L 320.975783 329.422011 
L 322.873179 315.595436 
L 323.013727 301.26301 
L 321.327152 286.846276 
L 318.024278 272.935392 
L 313.034829 260.036209 
L 306.499354 248.48596 
L 298.347578 238.959113 
" clip-path="url(#p2ae0e65fd9)" style="fill: none; stroke: #7a7a7a; stroke-width: 3; stroke-linecap: square"/>
   </g>
   <g id="line2d_102">
    <path d="M 342.128235 381.103052 
L 348.523162 369.974345 
L 353.442337 357.075162 
L 356.956033 342.911353 
L 359.064251 327.651535 
L 359.837264 311.801558 
L 359.275073 295.614348 
L 357.447951 279.511446 
L 354.285624 263.830086 
L 349.928641 248.907502 
L 344.447274 235.080927 
L 337.700977 222.856211 
L 329.900571 212.317662 
L 320.975783 204.139749 
" clip-path="url(#p2ae0e65fd9)" style="fill: none; stroke: #7a7a7a; stroke-width: 3; stroke-linecap: square"/>
   </g>
   <g id="line2d_103">
    <path d="M 391.601079 231.455666 
L 386.681904 242.331448 
L 383.730399 255.652173 
L 382.67629 270.574757 
L 383.449304 286.0875 
L 385.908891 301.347318 
L 389.984779 315.426819 
L 395.676967 327.482918 
L 402.70436 336.419607 
L 405.726138 339.201784 
" clip-path="url(#p2ae0e65fd9)" style="fill: none; stroke: #7a7a7a; stroke-width: 3; stroke-linecap: square"/>
   </g>
   <g id="line2d_104">
    <path d="M 360.540003 203.465282 
L 354.145076 215.774306 
L 349.436723 229.516573 
L 346.133849 244.354849 
L 344.377 259.951901 
L 344.095905 275.886186 
L 345.150014 291.989088 
L 347.609601 307.839064 
L 351.404393 323.098882 
L 356.53439 337.515616 
L 362.859043 350.752033 
L 370.378353 362.470898 
L 379.09232 372.250671 
L 382.114099 375.032848 
" clip-path="url(#p2ae0e65fd9)" style="fill: none; stroke: #7a7a7a; stroke-width: 3; stroke-linecap: square"/>
   </g>
   <g id="line2d_105">
    <path d="M 187.736418 546.263181 
L 262.507876 431.8567 
L 311.699624 353.618518 
" clip-path="url(#p2ae0e65fd9)" style="fill: none; stroke: #7a7a7a; stroke-width: 3; stroke-linecap: square"/>
   </g>
   <g id="line2d_106">
    <path d="M 235.874058 546.263181 
L 319.078387 418.451667 
L 342.128235 381.103052 
" clip-path="url(#p2ae0e65fd9)" style="fill: none; stroke: #7a7a7a; stroke-width: 3; stroke-linecap: square"/>
   </g>
   <g id="line2d_107">
    <path d="M 311.699624 353.618518 
L 391.601079 231.455666 
" clip-path="url(#p2ae0e65fd9)" style="fill: none; stroke: #7a7a7a; stroke-width: 3; stroke-linecap: square"/>
   </g>
   <g id="line2d_108">
    <path d="M 342.128235 381.103052 
L 421.818868 258.771583 
" clip-path="url(#p2ae0e65fd9)" style="fill: none; stroke: #7a7a7a; stroke-width: 3; stroke-linecap: square"/>
   </g>
   <g id="line2d_109">
    <path d="M 391.601079 231.455666 
L 311.699624 353.618518 
" clip-path="url(#p2ae0e65fd9)" style="fill: none; stroke: #7a7a7a; stroke-width: 3; stroke-linecap: square"/>
   </g>
   <g id="line2d_110">
    <path d="M 360.540003 203.465282 
L 280.919645 325.79675 
" clip-path="url(#p2ae0e65fd9)" style="fill: none; stroke: #7a7a7a; stroke-width: 3; stroke-linecap: square"/>
   </g>
   <g id="line2d_111">
    <path d="M 1053.510989 987.237619 
L 1057.484485 994.31409 
" clip-path="url(#p2ae0e65fd9)" style="fill: none; stroke-dasharray: 32,8,5,8; stroke-dashoffset: 0; stroke: #1e90ff; stroke-width: 5"/>
   </g>
   <g id="line2d_112">
    <path d="M 1334.58911 1187.074841 
L 999.771422 863.907788 
" clip-path="url(#p2ae0e65fd9)" style="fill: none; stroke-dasharray: 32,8,5,8; stroke-dashoffset: 0; stroke: #1e90ff; stroke-width: 5"/>
   </g>
   <g id="line2d_113">
    <path d="M 956.623557 811.464102 
L 749.112167 606.699285 
" clip-path="url(#p2ae0e65fd9)" style="fill: none; stroke-dasharray: 32,8,5,8; stroke-dashoffset: 0; stroke: #1e90ff; stroke-width: 5"/>
   </g>
   <g id="line2d_114">
    <path d="M 463.670662 358.537056 
L 444.995572 346.121329 
" clip-path="url(#p2ae0e65fd9)" style="fill: none; stroke-dasharray: 32,8,5,8; stroke-dashoffset: 0; stroke: #1e90ff; stroke-width: 5"/>
   </g>
   <g id="line2d_115">
    <path d="M 140.547853 49.350046 
L 140.547853 42.154193 
" clip-path="url(#p2ae0e65fd9)" style="fill: none; stroke-dasharray: 32,8,5,8; stroke-dashoffset: 0; stroke: #1e90ff; stroke-width: 5"/>
   </g>
   <g id="line2d_116">
    <path d="M 241.884451 166.36704 
L 232.134716 159.267928 
" clip-path="url(#p2ae0e65fd9)" style="fill: none; stroke-dasharray: 32,8,5,8; stroke-dashoffset: 0; stroke: #1e90ff; stroke-width: 5"/>
   </g>
   <g id="line2d_117">
    <path d="M 551.924832 508.200908 
L 741.452549 672.892483 
" clip-path="url(#p2ae0e65fd9)" style="fill: none; stroke-dasharray: 32,8,5,8; stroke-dashoffset: 0; stroke: #1e90ff; stroke-width: 5"/>
   </g>
   <g id="line2d_118">
    <path d="M 1053.510989 987.237619 
" clip-path="url(#p2ae0e65fd9)" style="fill: none; stroke: #0000ff; stroke-width: 1.5; stroke-linecap: square"/>
    <defs>
     <path id="m02818ab4db" d="M 0 10 
C 2.652031 10 5.195799 8.946337 7.071068 7.071068 
C 8.946337 5.195799 10 2.652031 10 0 
C 10 -2.652031 8.946337 -5.195799 7.071068 -7.071068 
C 5.195799 -8.946337 2.652031 -10 0 -10 
C -2.652031 -10 -5.195799 -8.946337 -7.071068 -7.071068 
C -8.946337 -5.195799 -10 -2.652031 -10 0 
C -10 2.652031 -8.946337 5.195799 -7.071068 7.071068 
C -5.195799 8.946337 -2.652031 10 0 10 
z
" style="stroke: #0000ff"/>
    </defs>
    <g clip-path="url(#p2ae0e65fd9)">
     <use xlink:href="#m02818ab4db" x="1053.510989" y="987.237619" style="fill: #0000ff; stroke: #0000ff"/>
    </g>
   </g>
   <g id="line2d_119">
    <path d="M 1334.58911 1187.074841 
" clip-path="url(#p2ae0e65fd9)" style="fill: none; stroke: #0000ff; stroke-width: 1.5; stroke-linecap: square"/>
    <g clip-path="url(#p2ae0e65fd9)">
     <use xlink:href="#m02818ab4db" x="1334.58911" y="1187.074841" style="fill: #0000ff; stroke: #0000ff"/>
    </g>
   </g>
   <g id="line2d_120">
    <path d="M 956.623557 811.464102 
" clip-path="url(#p2ae0e65fd9)" style="fill: none; stroke: #0000ff; stroke-width: 1.5; stroke-linecap: square"/>
    <g clip-path="url(#p2ae0e65fd9)">
     <use xlink:href="#m02818ab4db" x="956.623557" y="811.464102" style="fill: #0000ff; stroke: #0000ff"/>
    </g>
   </g>
   <g id="line2d_121">
    <path d="M 463.670662 358.537056 
" clip-path="url(#p2ae0e65fd9)" style="fill: none; stroke: #0000ff; stroke-width: 1.5; stroke-linecap: square"/>
    <g clip-path="url(#p2ae0e65fd9)">
     <use xlink:href="#m02818ab4db" x="463.670662" y="358.537056" style="fill: #0000ff; stroke: #0000ff"/>
    </g>
   </g>
   <g id="line2d_122">
    <path d="M 140.547853 49.350046 
" clip-path="url(#p2ae0e65fd9)" style="fill: none; stroke: #0000ff; stroke-width: 1.5; stroke-linecap: square"/>
    <g clip-path="url(#p2ae0e65fd9)">
     <use xlink:href="#m02818ab4db" x="140.547853" y="49.350046" style="fill: #0000ff; stroke: #0000ff"/>
    </g>
   </g>
   <g id="line2d_123">
    <path d="M 241.884451 166.36704 
" clip-path="url(#p2ae0e65fd9)" style="fill: none; stroke: #0000ff; stroke-width: 1.5; stroke-linecap: square"/>
    <g clip-path="url(#p2ae0e65fd9)">
     <use xlink:href="#m02818ab4db" x="241.884451" y="166.36704" style="fill: #0000ff; stroke: #0000ff"/>
    </g>
   </g>
   <g id="line2d_124">
    <path d="M 551.924832 508.200908 
" clip-path="url(#p2ae0e65fd9)" style="fill: none; stroke: #0000ff; stroke-width: 1.5; stroke-linecap: square"/>
    <g clip-path="url(#p2ae0e65fd9)">
     <use xlink:href="#m02818ab4db" x="551.924832" y="508.200908" style="fill: #0000ff; stroke: #0000ff"/>
    </g>
   </g>
   <g id="line2d_125">
    <path d="M 1057.484485 994.31409 
" clip-path="url(#p2ae0e65fd9)" style="fill: none; stroke: #ff0000; stroke-width: 1.5; stroke-linecap: square"/>
    <defs>
     <path id="m65878f9abf" d="M 0 -10 
L -2.24514 -3.09017 
L -9.510565 -3.09017 
L -3.632713 1.18034 
L -5.877853 8.09017 
L -0 3.81966 
L 5.877853 8.09017 
L 3.632713 1.18034 
L 9.510565 -3.09017 
L 2.24514 -3.09017 
z
" style="stroke: #ff0000; stroke-linejoin: bevel"/>
    </defs>
    <g clip-path="url(#p2ae0e65fd9)">
     <use xlink:href="#m65878f9abf" x="1057.484485" y="994.31409" style="fill: #ff0000; stroke: #ff0000; stroke-linejoin: bevel"/>
    </g>
   </g>
   <g id="line2d_126">
    <path d="M 999.771422 863.907788 
" clip-path="url(#p2ae0e65fd9)" style="fill: none; stroke: #ff0000; stroke-width: 1.5; stroke-linecap: square"/>
    <g clip-path="url(#p2ae0e65fd9)">
     <use xlink:href="#m65878f9abf" x="999.771422" y="863.907788" style="fill: #ff0000; stroke: #ff0000; stroke-linejoin: bevel"/>
    </g>
   </g>
   <g id="line2d_127">
    <path d="M 749.112167 606.699285 
" clip-path="url(#p2ae0e65fd9)" style="fill: none; stroke: #ff0000; stroke-width: 1.5; stroke-linecap: square"/>
    <g clip-path="url(#p2ae0e65fd9)">
     <use xlink:href="#m65878f9abf" x="749.112167" y="606.699285" style="fill: #ff0000; stroke: #ff0000; stroke-linejoin: bevel"/>
    </g>
   </g>
   <g id="line2d_128">
    <path d="M 444.995572 346.121329 
" clip-path="url(#p2ae0e65fd9)" style="fill: none; stroke: #ff0000; stroke-width: 1.5; stroke-linecap: square"/>
    <g clip-path="url(#p2ae0e65fd9)">
     <use xlink:href="#m65878f9abf" x="444.995572" y="346.121329" style="fill: #ff0000; stroke: #ff0000; stroke-linejoin: bevel"/>
    </g>
   </g>
   <g id="line2d_129">
    <path d="M 140.547853 42.154193 
" clip-path="url(#p2ae0e65fd9)" style="fill: none; stroke: #ff0000; stroke-width: 1.5; stroke-linecap: square"/>
    <g clip-path="url(#p2ae0e65fd9)">
     <use xlink:href="#m65878f9abf" x="140.547853" y="42.154193" style="fill: #ff0000; stroke: #ff0000; stroke-linejoin: bevel"/>
    </g>
   </g>
   <g id="line2d_130">
    <path d="M 232.134716 159.267928 
" clip-path="url(#p2ae0e65fd9)" style="fill: none; stroke: #ff0000; stroke-width: 1.5; stroke-linecap: square"/>
    <g clip-path="url(#p2ae0e65fd9)">
     <use xlink:href="#m65878f9abf" x="232.134716" y="159.267928" style="fill: #ff0000; stroke: #ff0000; stroke-linejoin: bevel"/>
    </g>
   </g>
   <g id="line2d_131">
    <path d="M 741.452549 672.892483 
" clip-path="url(#p2ae0e65fd9)" style="fill: none; stroke: #ff0000; stroke-width: 1.5; stroke-linecap: square"/>
    <g clip-path="url(#p2ae0e65fd9)">
     <use xlink:href="#m65878f9abf" x="741.452549" y="672.892483" style="fill: #ff0000; stroke: #ff0000; stroke-linejoin: bevel"/>
    </g>
   </g>
  </g>
 </g>
 <defs>
  <clipPath id="p2ae0e65fd9">
   <rect x="0" y="0" width="1440" height="1440"/>
  </clipPath>
 </defs>
</svg>
