<?xml version="1.0" encoding="utf-8" standalone="no"?>
<!DOCTYPE svg PUBLIC "-//W3C//DTD SVG 1.1//EN"
  "http://www.w3.org/Graphics/SVG/1.1/DTD/svg11.dtd">
<svg xmlns:xlink="http://www.w3.org/1999/xlink" width="1440pt" height="1440pt" viewBox="0 0 1440 1440" xmlns="http://www.w3.org/2000/svg" version="1.1">
 <metadata>
  <rdf:RDF xmlns:dc="http://purl.org/dc/elements/1.1/" xmlns:cc="http://creativecommons.org/ns#" xmlns:rdf="http://www.w3.org/1999/02/22-rdf-syntax-ns#">
   <cc:Work>
    <dc:type rdf:resource="http://purl.org/dc/dcmitype/StillImage"/>
    <dc:date>2026-02-27T11:09:45.314136</dc:date>
    <dc:format>image/svg+xml</dc:format>
    <dc:creator>
     <cc:Agent>
      <dc:title>Matplotlib v3.7.3, https://matplotlib.org/</dc:title>
     </cc:Agent>
    </dc:creator>
   </cc:Work>
  </rdf:RDF>
 </metadata>
 <defs>
  <style type="text/css">*{stroke-linejoin: round; stroke-linecap: butt}</style>
 </defs>
 <g id="figure_1">
  <g id="patch_1">
   <path d="M 0 1440 
L 1440 1440 
L 1440 0 
L 0 0 
z
" style="fill: #ffffff"/>
  </g>
  <g id="axes_1">
   <g id="line2d_1">
    <path d="M 552.498971 884.98186 
L 389.55516 1441 
" clip-path="url(#pbd25ff2eb1)" style="fill: none; stroke: #7a7a7a; stroke-width: 3; stroke-linecap: square"/>
   </g>
   <g id="line2d_2">
    <path d="M 519.369927 884.98186 
L 508.714387 918.54856 
L 503.967828 934.810689 
L 482.46301 1011.430331 
L 472.098075 1042.078188 
L 342.700091 1441 
" clip-path="url(#pbd25ff2eb1)" style="fill: none; stroke: #7a7a7a; stroke-width: 3; stroke-linecap: square"/>
   </g>
   <g id="line2d_3">
    <path d="M 455.097749 1441 
L 617.788373 884.98186 
" clip-path="url(#pbd25ff2eb1)" style="fill: none; stroke: #7a7a7a; stroke-width: 3; stroke-linecap: square"/>
   </g>
   <g id="line2d_4">
    <path d="M 489.028307 1441 
L 589.599625 1078.980709 
L 646.558332 884.98186 
" clip-path="url(#pbd25ff2eb1)" style="fill: none; stroke: #7a7a7a; stroke-width: 3; stroke-linecap: square"/>
   </g>
   <g id="line2d_5">
    <path d="M 585.337409 884.98186 
L 422.162655 1441 
" clip-path="url(#pbd25ff2eb1)" style="fill: none; stroke: #7a7a7a; stroke-width: 3; stroke-linecap: square"/>
   </g>
   <g id="line2d_6">
    <path d="M 552.498971 884.98186 
L 389.55516 1441 
" clip-path="url(#pbd25ff2eb1)" style="fill: none; stroke: #7a7a7a; stroke-width: 3; stroke-linecap: square"/>
   </g>
   <g id="line2d_7">
    <path d="M 1441 786.475648 
L 1052.534423 658.250266 
" clip-path="url(#pbd25ff2eb1)" style="fill: none; stroke: #7a7a7a; stroke-width: 3; stroke-linecap: square"/>
   </g>
   <g id="line2d_8">
    <path d="M 1441 752.374676 
L 1052.243817 625.830254 
" clip-path="url(#pbd25ff2eb1)" style="fill: none; stroke: #7a7a7a; stroke-width: 3; stroke-linecap: square"/>
   </g>
   <g id="line2d_9">
    <path d="M 422.162655 1441 
L 585.337409 884.98186 
" clip-path="url(#pbd25ff2eb1)" style="fill: none; stroke: #7a7a7a; stroke-width: 3; stroke-linecap: square"/>
   </g>
   <g id="line2d_10">
    <path d="M 455.097749 1441 
L 617.788373 884.98186 
" clip-path="url(#pbd25ff2eb1)" style="fill: none; stroke: #7a7a7a; stroke-width: 3; stroke-linecap: square"/>
   </g>
   <g id="line2d_11">
    <path d="M 1441 819.811788 
L 1052.72816 691.608477 
" clip-path="url(#pbd25ff2eb1)" style="fill: none; stroke: #7a7a7a; stroke-width: 3; stroke-linecap: square"/>
   </g>
   <g id="line2d_12">
    <path d="M 1441 786.475648 
L 1052.534423 658.250266 
" clip-path="url(#pbd25ff2eb1)" style="fill: none; stroke: #7a7a7a; stroke-width: 3; stroke-linecap: square"/>
   </g>
   <g id="line2d_13">
    <path d="M 1441 894.447533 
L 1053.309371 765.934742 
" clip-path="url(#pbd25ff2eb1)" style="fill: none; stroke: #7a7a7a; stroke-width: 3; stroke-linecap: square"/>
   </g>
   <g id="line2d_14">
    <path d="M 1441 854.7833 
L 1053.018766 726.009133 
" clip-path="url(#pbd25ff2eb1)" style="fill: none; stroke: #7a7a7a; stroke-width: 3; stroke-linecap: square"/>
   </g>
   <g id="line2d_15">
    <path d="M 1441 854.7833 
L 1053.018766 726.009133 
" clip-path="url(#pbd25ff2eb1)" style="fill: none; stroke: #7a7a7a; stroke-width: 3; stroke-linecap: square"/>
   </g>
   <g id="line2d_16">
    <path d="M 1441 819.811788 
L 1052.72816 691.608477 
" clip-path="url(#pbd25ff2eb1)" style="fill: none; stroke: #7a7a7a; stroke-width: 3; stroke-linecap: square"/>
   </g>
   <g id="line2d_17">
    <path d="M 548.236755 489.895542 
L 172.289915 363.864048 
" clip-path="url(#pbd25ff2eb1)" style="fill: none; stroke: #7a7a7a; stroke-width: 3; stroke-linecap: square"/>
   </g>
   <g id="line2d_18">
    <path d="M 556.179976 459.977396 
L 473.454235 432.978093 
L 469.192019 431.205938 
L 172.289915 329.463393 
" clip-path="url(#pbd25ff2eb1)" style="fill: none; stroke: #7a7a7a; stroke-width: 3; stroke-linecap: square"/>
   </g>
   <g id="line2d_19">
    <path d="M 602.386274 711.936137 
L 553.080182 883.105461 
L 552.692708 884.460638 
L 552.498971 884.98186 
" clip-path="url(#pbd25ff2eb1)" style="fill: none; stroke: #7a7a7a; stroke-width: 3; stroke-linecap: square"/>
   </g>
   <g id="line2d_20">
    <path d="M 571.485207 701.720185 
L 519.951138 883.105461 
L 519.563664 884.460638 
L 519.369927 884.98186 
" clip-path="url(#pbd25ff2eb1)" style="fill: none; stroke: #7a7a7a; stroke-width: 3; stroke-linecap: square"/>
   </g>
   <g id="line2d_21">
    <path d="M 807.456993 644.385759 
L 531.478496 552.442188 
" clip-path="url(#pbd25ff2eb1)" style="fill: none; stroke: #7a7a7a; stroke-width: 3; stroke-linecap: square"/>
   </g>
   <g id="line2d_22">
    <path d="M 817.143848 612.174236 
L 539.809191 521.377354 
" clip-path="url(#pbd25ff2eb1)" style="fill: none; stroke: #7a7a7a; stroke-width: 3; stroke-linecap: square"/>
   </g>
   <g id="line2d_23">
    <path d="M 797.188927 678.160948 
L 767.353413 667.840751 
L 556.276844 595.49513 
L 548.430492 592.576287 
L 523.050932 584.028245 
" clip-path="url(#pbd25ff2eb1)" style="fill: none; stroke: #7a7a7a; stroke-width: 3; stroke-linecap: square"/>
   </g>
   <g id="line2d_24">
    <path d="M 807.456993 644.385759 
L 531.478496 552.442188 
" clip-path="url(#pbd25ff2eb1)" style="fill: none; stroke: #7a7a7a; stroke-width: 3; stroke-linecap: square"/>
   </g>
   <g id="line2d_25">
    <path d="M 539.809191 521.377354 
L 172.289915 398.890171 
" clip-path="url(#pbd25ff2eb1)" style="fill: none; stroke: #7a7a7a; stroke-width: 3; stroke-linecap: square"/>
   </g>
   <g id="line2d_26">
    <path d="M 548.236755 489.895542 
L 172.289915 363.864048 
" clip-path="url(#pbd25ff2eb1)" style="fill: none; stroke: #7a7a7a; stroke-width: 3; stroke-linecap: square"/>
   </g>
   <g id="line2d_27">
    <path d="M 1044.106859 688.689634 
L 1043.041305 688.3769 
L 1040.328986 687.438701 
L 1039.457169 687.230212 
L 817.143848 612.174236 
" clip-path="url(#pbd25ff2eb1)" style="fill: none; stroke: #7a7a7a; stroke-width: 3; stroke-linecap: square"/>
   </g>
   <g id="line2d_28">
    <path d="M 1044.106859 655.539911 
L 1043.041305 655.227178 
L 1040.232117 654.288978 
L 1039.457169 653.976245 
L 826.055754 582.568823 
" clip-path="url(#pbd25ff2eb1)" style="fill: none; stroke: #7a7a7a; stroke-width: 3; stroke-linecap: square"/>
   </g>
   <g id="line2d_29">
    <path d="M 720.85651 410.774033 
L 631.446839 722.464823 
" clip-path="url(#pbd25ff2eb1)" style="fill: none; stroke: #7a7a7a; stroke-width: 3; stroke-linecap: square"/>
   </g>
   <g id="line2d_30">
    <path d="M 691.795945 400.76657 
L 602.386274 711.936137 
" clip-path="url(#pbd25ff2eb1)" style="fill: none; stroke: #7a7a7a; stroke-width: 3; stroke-linecap: square"/>
   </g>
   <g id="line2d_31">
    <path d="M 826.055754 582.568823 
L 548.236755 489.895542 
" clip-path="url(#pbd25ff2eb1)" style="fill: none; stroke: #7a7a7a; stroke-width: 3; stroke-linecap: square"/>
   </g>
   <g id="line2d_32">
    <path d="M 833.417764 554.422832 
L 796.413978 541.705014 
L 596.767898 473.112191 
L 556.179976 459.977396 
" clip-path="url(#pbd25ff2eb1)" style="fill: none; stroke: #7a7a7a; stroke-width: 3; stroke-linecap: square"/>
   </g>
   <g id="line2d_33">
    <path d="M 585.337409 884.98186 
L 585.531146 884.460638 
L 585.918621 883.001216 
L 631.446839 722.464823 
" clip-path="url(#pbd25ff2eb1)" style="fill: none; stroke: #7a7a7a; stroke-width: 3; stroke-linecap: square"/>
   </g>
   <g id="line2d_34">
    <path d="M 617.788373 884.98186 
L 617.98211 884.460638 
L 618.369585 883.001216 
L 661.863563 731.742576 
" clip-path="url(#pbd25ff2eb1)" style="fill: none; stroke: #7a7a7a; stroke-width: 3; stroke-linecap: square"/>
   </g>
   <g id="line2d_35">
    <path d="M 531.478496 552.442188 
L 172.289915 432.352627 
" clip-path="url(#pbd25ff2eb1)" style="fill: none; stroke: #7a7a7a; stroke-width: 3; stroke-linecap: square"/>
   </g>
   <g id="line2d_36">
    <path d="M 539.809191 521.377354 
L 172.289915 398.890171 
" clip-path="url(#pbd25ff2eb1)" style="fill: none; stroke: #7a7a7a; stroke-width: 3; stroke-linecap: square"/>
   </g>
   <g id="line2d_37">
    <path d="M 720.85651 410.774033 
L 839.088132 -1 
" clip-path="url(#pbd25ff2eb1)" style="fill: none; stroke: #7a7a7a; stroke-width: 3; stroke-linecap: square"/>
   </g>
   <g id="line2d_38">
    <path d="M 750.88576 421.198475 
L 870.034076 6.201474 
" clip-path="url(#pbd25ff2eb1)" style="fill: none; stroke: #7a7a7a; stroke-width: 3; stroke-linecap: square"/>
   </g>
   <g id="line2d_39">
    <path d="M 1044.106859 762.911655 
L 1043.041305 762.494677 
L 1040.328986 761.660722 
L 1039.554037 761.347988 
L 873.424475 704.222051 
L 868.193573 702.032918 
L 832.255342 690.357544 
L 797.188927 678.160948 
" clip-path="url(#pbd25ff2eb1)" style="fill: none; stroke: #7a7a7a; stroke-width: 3; stroke-linecap: square"/>
   </g>
   <g id="line2d_40">
    <path d="M 1044.106859 723.090289 
L 1043.041305 722.777556 
L 1040.328986 721.839356 
L 1039.554037 721.630868 
L 807.456993 644.385759 
" clip-path="url(#pbd25ff2eb1)" style="fill: none; stroke: #7a7a7a; stroke-width: 3; stroke-linecap: square"/>
   </g>
   <g id="line2d_41">
    <path d="M 817.143848 612.174236 
L 539.809191 521.377354 
" clip-path="url(#pbd25ff2eb1)" style="fill: none; stroke: #7a7a7a; stroke-width: 3; stroke-linecap: square"/>
   </g>
   <g id="line2d_42">
    <path d="M 826.055754 582.568823 
L 548.236755 489.895542 
" clip-path="url(#pbd25ff2eb1)" style="fill: none; stroke: #7a7a7a; stroke-width: 3; stroke-linecap: square"/>
   </g>
   <g id="line2d_43">
    <path d="M 523.050932 584.028245 
L 436.062975 554.735565 
L 172.289915 469.567881 
" clip-path="url(#pbd25ff2eb1)" style="fill: none; stroke: #7a7a7a; stroke-width: 3; stroke-linecap: square"/>
   </g>
   <g id="line2d_44">
    <path d="M 531.478496 552.442188 
L 172.289915 432.352627 
" clip-path="url(#pbd25ff2eb1)" style="fill: none; stroke: #7a7a7a; stroke-width: 3; stroke-linecap: square"/>
   </g>
   <g id="line2d_45">
    <path d="M 1044.106859 655.539911 
L 1043.041305 655.227178 
L 1040.232117 654.288978 
L 1039.457169 653.976245 
L 826.055754 582.568823 
" clip-path="url(#pbd25ff2eb1)" style="fill: none; stroke: #7a7a7a; stroke-width: 3; stroke-linecap: square"/>
   </g>
   <g id="line2d_46">
    <path d="M 1044.106859 623.119899 
L 1043.138174 622.807166 
L 1040.232117 621.868966 
L 1039.3603 621.660477 
L 906.45665 578.086313 
L 833.417764 554.422832 
" clip-path="url(#pbd25ff2eb1)" style="fill: none; stroke: #7a7a7a; stroke-width: 3; stroke-linecap: square"/>
   </g>
   <g id="line2d_47">
    <path d="M 691.795945 400.76657 
L 602.386274 711.936137 
" clip-path="url(#pbd25ff2eb1)" style="fill: none; stroke: #7a7a7a; stroke-width: 3; stroke-linecap: square"/>
   </g>
   <g id="line2d_48">
    <path d="M 659.054375 389.925151 
L 571.485207 701.720185 
" clip-path="url(#pbd25ff2eb1)" style="fill: none; stroke: #7a7a7a; stroke-width: 3; stroke-linecap: square"/>
   </g>
   <g id="line2d_49">
    <path d="M 631.446839 722.464823 
L 720.85651 410.774033 
" clip-path="url(#pbd25ff2eb1)" style="fill: none; stroke: #7a7a7a; stroke-width: 3; stroke-linecap: square"/>
   </g>
   <g id="line2d_50">
    <path d="M 661.863563 731.742576 
L 750.88576 421.198475 
" clip-path="url(#pbd25ff2eb1)" style="fill: none; stroke: #7a7a7a; stroke-width: 3; stroke-linecap: square"/>
   </g>
   <g id="line2d_51">
    <path d="M 1053.018766 726.009133 
L 1044.106859 723.090289 
" clip-path="url(#pbd25ff2eb1)" style="fill: none; stroke: #7a7a7a; stroke-width: 3; stroke-linecap: square"/>
   </g>
   <g id="line2d_52">
    <path d="M 1052.72816 691.608477 
L 1044.106859 688.689634 
" clip-path="url(#pbd25ff2eb1)" style="fill: none; stroke: #7a7a7a; stroke-width: 3; stroke-linecap: square"/>
   </g>
   <g id="line2d_53">
    <path d="M 1044.106859 723.090289 
L 1043.041305 722.777556 
L 1040.328986 721.839356 
L 1039.554037 721.630868 
L 807.456993 644.385759 
" clip-path="url(#pbd25ff2eb1)" style="fill: none; stroke: #7a7a7a; stroke-width: 3; stroke-linecap: square"/>
   </g>
   <g id="line2d_54">
    <path d="M 1044.106859 688.689634 
L 1043.041305 688.3769 
L 1040.328986 687.438701 
L 1039.457169 687.230212 
L 817.143848 612.174236 
" clip-path="url(#pbd25ff2eb1)" style="fill: none; stroke: #7a7a7a; stroke-width: 3; stroke-linecap: square"/>
   </g>
   <g id="line2d_55">
    <path d="M 661.863563 731.742576 
L 750.88576 421.198475 
" clip-path="url(#pbd25ff2eb1)" style="fill: none; stroke: #7a7a7a; stroke-width: 3; stroke-linecap: square"/>
   </g>
   <g id="line2d_56">
    <path d="M 687.533729 740.290617 
L 698.964218 701.720185 
L 761.831906 475.92679 
L 765.222305 463.313217 
L 775.102897 429.642272 
" clip-path="url(#pbd25ff2eb1)" style="fill: none; stroke: #7a7a7a; stroke-width: 3; stroke-linecap: square"/>
   </g>
   <g id="line2d_57">
    <path d="M 750.88576 421.198475 
L 870.034076 6.201474 
" clip-path="url(#pbd25ff2eb1)" style="fill: none; stroke: #7a7a7a; stroke-width: 3; stroke-linecap: square"/>
   </g>
   <g id="line2d_58">
    <path d="M 775.102897 429.642272 
L 783.821067 399.515637 
L 896.866664 10.37125 
" clip-path="url(#pbd25ff2eb1)" style="fill: none; stroke: #7a7a7a; stroke-width: 3; stroke-linecap: square"/>
   </g>
   <g id="line2d_59">
    <path d="M 631.446839 722.464823 
L 585.918621 883.001216 
L 585.531146 884.460638 
L 585.337409 884.98186 
" clip-path="url(#pbd25ff2eb1)" style="fill: none; stroke: #7a7a7a; stroke-width: 3; stroke-linecap: square"/>
   </g>
   <g id="line2d_60">
    <path d="M 602.386274 711.936137 
L 553.080182 883.105461 
L 552.692708 884.460638 
L 552.498971 884.98186 
" clip-path="url(#pbd25ff2eb1)" style="fill: none; stroke: #7a7a7a; stroke-width: 3; stroke-linecap: square"/>
   </g>
   <g id="line2d_61">
    <path d="M 1053.309371 765.934742 
L 1044.106859 762.911655 
" clip-path="url(#pbd25ff2eb1)" style="fill: none; stroke: #7a7a7a; stroke-width: 3; stroke-linecap: square"/>
   </g>
   <g id="line2d_62">
    <path d="M 1053.018766 726.009133 
L 1044.106859 723.090289 
" clip-path="url(#pbd25ff2eb1)" style="fill: none; stroke: #7a7a7a; stroke-width: 3; stroke-linecap: square"/>
   </g>
   <g id="line2d_63">
    <path d="M 826.055754 582.568823 
L 796.898321 571.62316 
L 774.134212 560.260519 
L 757.085347 548.376656 
L 745.170516 535.867327 
L 737.711637 522.628287 
L 734.030632 508.555291 
L 733.643158 493.544096 
L 735.774266 477.386212 
L 739.745877 460.08164 
L 750.88576 421.198475 
" clip-path="url(#pbd25ff2eb1)" style="fill: none; stroke: #7a7a7a; stroke-width: 3; stroke-linecap: square"/>
   </g>
   <g id="line2d_64">
    <path d="M 833.417764 554.422832 
L 828.961811 552.96341 
L 796.413978 541.705014 
L 787.211466 537.847971 
L 781.205616 534.616394 
L 776.168451 530.863595 
L 771.421893 525.964108 
L 770.065733 524.087708 
L 765.900385 519.709443 
L 761.153826 508.451047 
L 758.732113 494.690784 
L 759.797667 489.478564 
L 760.572615 482.702677 
L 761.831906 475.92679 
L 765.222305 463.313217 
L 775.102897 429.642272 
" clip-path="url(#pbd25ff2eb1)" style="fill: none; stroke: #7a7a7a; stroke-width: 3; stroke-linecap: square"/>
   </g>
   <g id="line2d_65">
    <path d="M 631.446839 722.464823 
L 635.127844 704.117807 
L 635.612186 685.562301 
L 632.899867 667.423774 
L 626.990885 650.32769 
L 617.98211 634.48254 
L 605.873542 620.618033 
L 590.762048 609.151148 
L 572.647629 600.603106 
L 523.050932 584.028245 
" clip-path="url(#pbd25ff2eb1)" style="fill: none; stroke: #7a7a7a; stroke-width: 3; stroke-linecap: square"/>
   </g>
   <g id="line2d_66">
    <path d="M 661.863563 731.742576 
L 666.997596 707.97485 
L 668.644362 685.562301 
L 667.094465 664.713419 
L 662.444775 645.428203 
L 654.889028 627.810898 
L 644.71783 612.069991 
L 632.02805 598.205485 
L 617.013425 586.321622 
L 599.96456 576.626892 
L 581.075193 569.01705 
L 531.478496 552.442188 
" clip-path="url(#pbd25ff2eb1)" style="fill: none; stroke: #7a7a7a; stroke-width: 3; stroke-linecap: square"/>
   </g>
   <g id="line2d_67">
    <path d="M 617.788373 884.98186 
L 617.98211 884.460638 
L 618.369585 883.001216 
L 661.863563 731.742576 
" clip-path="url(#pbd25ff2eb1)" style="fill: none; stroke: #7a7a7a; stroke-width: 3; stroke-linecap: square"/>
   </g>
   <g id="line2d_68">
    <path d="M 646.558332 884.98186 
L 646.655201 884.460638 
L 647.139544 883.001216 
L 677.750005 773.648829 
L 687.533729 740.290617 
" clip-path="url(#pbd25ff2eb1)" style="fill: none; stroke: #7a7a7a; stroke-width: 3; stroke-linecap: square"/>
   </g>
   <g id="line2d_69">
    <path d="M 1052.534423 658.250266 
L 1044.106859 655.539911 
" clip-path="url(#pbd25ff2eb1)" style="fill: none; stroke: #7a7a7a; stroke-width: 3; stroke-linecap: square"/>
   </g>
   <g id="line2d_70">
    <path d="M 1052.243817 625.830254 
L 1044.106859 623.119899 
" clip-path="url(#pbd25ff2eb1)" style="fill: none; stroke: #7a7a7a; stroke-width: 3; stroke-linecap: square"/>
   </g>
   <g id="line2d_71">
    <path d="M 797.188927 678.160948 
L 767.353413 667.840751 
L 763.381803 666.694063 
L 743.233145 659.813932 
L 726.474886 656.165377 
L 709.329152 656.582355 
L 692.377156 660.647887 
L 676.200109 667.944996 
L 661.476089 678.160948 
L 648.68944 690.983011 
L 638.421374 705.889962 
L 631.446839 722.464823 
" clip-path="url(#pbd25ff2eb1)" style="fill: none; stroke: #7a7a7a; stroke-width: 3; stroke-linecap: square"/>
   </g>
   <g id="line2d_72">
    <path d="M 807.456993 644.385759 
L 753.404342 626.038743 
L 734.22437 621.764722 
L 714.947528 621.139255 
L 696.058161 623.745366 
L 677.846874 629.478808 
L 660.701141 637.922605 
L 644.911567 648.868269 
L 630.865627 662.003064 
L 618.853927 677.118504 
L 609.263941 693.901854 
L 602.386274 711.936137 
" clip-path="url(#pbd25ff2eb1)" style="fill: none; stroke: #7a7a7a; stroke-width: 3; stroke-linecap: square"/>
   </g>
   <g id="line2d_73">
    <path d="M 807.351131 -1 
L 691.795945 400.76657 
" clip-path="url(#pbd25ff2eb1)" style="fill: none; stroke: #7a7a7a; stroke-width: 3; stroke-linecap: square"/>
   </g>
   <g id="line2d_74">
    <path d="M 778.542171 -1 
L 659.054375 389.925151 
" clip-path="url(#pbd25ff2eb1)" style="fill: none; stroke: #7a7a7a; stroke-width: 3; stroke-linecap: square"/>
   </g>
   <g id="line2d_75">
    <path d="M 839.088132 -1 
L 720.85651 410.774033 
" clip-path="url(#pbd25ff2eb1)" style="fill: none; stroke: #7a7a7a; stroke-width: 3; stroke-linecap: square"/>
   </g>
   <g id="line2d_76">
    <path d="M 807.351131 -1 
L 691.795945 400.76657 
" clip-path="url(#pbd25ff2eb1)" style="fill: none; stroke: #7a7a7a; stroke-width: 3; stroke-linecap: square"/>
   </g>
   <g id="line2d_77">
    <path d="M 691.795945 400.76657 
L 686.75878 418.592364 
L 681.721616 435.688448 
L 676.006371 451.742087 
L 669.225573 466.336305 
L 660.798009 478.949878 
L 650.336206 489.165831 
L 637.162083 496.567184 
L 620.888167 500.841205 
L 601.030114 501.466671 
L 576.909845 497.922361 
L 548.236755 489.895542 
" clip-path="url(#pbd25ff2eb1)" style="fill: none; stroke: #7a7a7a; stroke-width: 3; stroke-linecap: square"/>
   </g>
   <g id="line2d_78">
    <path d="M 659.054375 389.925151 
L 646.461464 433.707804 
L 642.974196 443.715267 
L 639.486928 450.699643 
L 634.546632 457.371285 
L 628.734519 463.000483 
L 620.791298 468.10846 
L 612.848077 471.340036 
L 604.420513 473.112191 
L 596.767898 473.112191 
L 556.179976 459.977396 
" clip-path="url(#pbd25ff2eb1)" style="fill: none; stroke: #7a7a7a; stroke-width: 3; stroke-linecap: square"/>
   </g>
   <g id="line2d_79">
    <path d="M 1052.72816 691.608477 
L 1044.106859 688.689634 
" clip-path="url(#pbd25ff2eb1)" style="fill: none; stroke: #7a7a7a; stroke-width: 3; stroke-linecap: square"/>
   </g>
   <g id="line2d_80">
    <path d="M 1052.534423 658.250266 
L 1044.106859 655.539911 
" clip-path="url(#pbd25ff2eb1)" style="fill: none; stroke: #7a7a7a; stroke-width: 3; stroke-linecap: square"/>
   </g>
   <g id="line2d_81">
    <path d="M 822.534538 672.839011 
L 830.837007 667.75786 
" clip-path="url(#pbd25ff2eb1)" style="fill: none; stroke-dasharray: 32,8,5,8; stroke-dashoffset: 0; stroke: #1e90ff; stroke-width: 5"/>
   </g>
   <g id="line2d_82">
    <path d="M 965.828333 718.486026 
L 965.438115 714.641758 
" clip-path="url(#pbd25ff2eb1)" style="fill: none; stroke-dasharray: 32,8,5,8; stroke-dashoffset: 0; stroke: #1e90ff; stroke-width: 5"/>
   </g>
   <g id="line2d_83">
    <path d="M 240.495803 443.352423 
L 239.872933 439.177938 
" clip-path="url(#pbd25ff2eb1)" style="fill: none; stroke-dasharray: 32,8,5,8; stroke-dashoffset: 0; stroke: #1e90ff; stroke-width: 5"/>
   </g>
   <g id="line2d_84">
    <path d="M 1214.57635 788.633403 
L 1215.213705 794.52451 
" clip-path="url(#pbd25ff2eb1)" style="fill: none; stroke-dasharray: 32,8,5,8; stroke-dashoffset: 0; stroke: #1e90ff; stroke-width: 5"/>
   </g>
   <g id="line2d_85">
    <path d="M 477.545571 1124.118565 
L 479.561991 1127.266766 
" clip-path="url(#pbd25ff2eb1)" style="fill: none; stroke-dasharray: 32,8,5,8; stroke-dashoffset: 0; stroke: #1e90ff; stroke-width: 5"/>
   </g>
   <g id="line2d_86">
    <path d="M 1172.366636 668.251596 
L 1168.800876 666.339642 
" clip-path="url(#pbd25ff2eb1)" style="fill: none; stroke-dasharray: 32,8,5,8; stroke-dashoffset: 0; stroke: #1e90ff; stroke-width: 5"/>
   </g>
   <g id="line2d_87">
    <path d="M 476.320524 553.080736 
L 456.055818 1083.520253 
" clip-path="url(#pbd25ff2eb1)" style="fill: none; stroke-dasharray: 32,8,5,8; stroke-dashoffset: 0; stroke: #1e90ff; stroke-width: 5"/>
   </g>
   <g id="line2d_88">
    <path d="M 680.105725 428.656786 
L 586.910837 693.297232 
" clip-path="url(#pbd25ff2eb1)" style="fill: none; stroke-dasharray: 32,8,5,8; stroke-dashoffset: 0; stroke: #1e90ff; stroke-width: 5"/>
   </g>
   <g id="line2d_89">
    <path d="M 859.034363 52.122206 
L 860.591095 56.350136 
" clip-path="url(#pbd25ff2eb1)" style="fill: none; stroke-dasharray: 32,8,5,8; stroke-dashoffset: 0; stroke: #1e90ff; stroke-width: 5"/>
   </g>
   <g id="line2d_90">
    <path d="M 871.79566 614.28997 
L 469.337995 480.751632 
" clip-path="url(#pbd25ff2eb1)" style="fill: none; stroke-dasharray: 32,8,5,8; stroke-dashoffset: 0; stroke: #1e90ff; stroke-width: 5"/>
   </g>
   <g id="line2d_91">
    <path d="M 879.012911 645.453857 
L 762.691425 587.117962 
" clip-path="url(#pbd25ff2eb1)" style="fill: none; stroke-dasharray: 32,8,5,8; stroke-dashoffset: 0; stroke: #1e90ff; stroke-width: 5"/>
   </g>
   <g id="line2d_92">
    <path d="M 822.534538 672.839011 
" clip-path="url(#pbd25ff2eb1)" style="fill: none; stroke: #0000ff; stroke-width: 1.5; stroke-linecap: square"/>
    <defs>
     <path id="m576e8ce70b" d="M 0 10 
C 2.652031 10 5.195799 8.946337 7.071068 7.071068 
C 8.946337 5.195799 10 2.652031 10 0 
C 10 -2.652031 8.946337 -5.195799 7.071068 -7.071068 
C 5.195799 -8.946337 2.652031 -10 0 -10 
C -2.652031 -10 -5.195799 -8.946337 -7.071068 -7.071068 
C -8.946337 -5.195799 -10 -2.652031 -10 0 
C -10 2.652031 -8.946337 5.195799 -7.071068 7.071068 
C -5.195799 8.946337 -2.652031 10 0 10 
z
" style="stroke: #0000ff"/>
    </defs>
    <g clip-path="url(#pbd25ff2eb1)">
     <use xlink:href="#m576e8ce70b" x="822.534538" y="672.839011" style="fill: #0000ff; stroke: #0000ff"/>
    </g>
   </g>
   <g id="line2d_93">
    <path d="M 965.828333 718.486026 
" clip-path="url(#pbd25ff2eb1)" style="fill: none; stroke: #0000ff; stroke-width: 1.5; stroke-linecap: square"/>
    <g clip-path="url(#pbd25ff2eb1)">
     <use xlink:href="#m576e8ce70b" x="965.828333" y="718.486026" style="fill: #0000ff; stroke: #0000ff"/>
    </g>
   </g>
   <g id="line2d_94">
    <path d="M 240.495803 443.352423 
" clip-path="url(#pbd25ff2eb1)" style="fill: none; stroke: #0000ff; stroke-width: 1.5; stroke-linecap: square"/>
    <g clip-path="url(#pbd25ff2eb1)">
     <use xlink:href="#m576e8ce70b" x="240.495803" y="443.352423" style="fill: #0000ff; stroke: #0000ff"/>
    </g>
   </g>
   <g id="line2d_95">
    <path d="M 1214.57635 788.633403 
" clip-path="url(#pbd25ff2eb1)" style="fill: none; stroke: #0000ff; stroke-width: 1.5; stroke-linecap: square"/>
    <g clip-path="url(#pbd25ff2eb1)">
     <use xlink:href="#m576e8ce70b" x="1214.57635" y="788.633403" style="fill: #0000ff; stroke: #0000ff"/>
    </g>
   </g>
   <g id="line2d_96">
    <path d="M 477.545571 1124.118565 
" clip-path="url(#pbd25ff2eb1)" style="fill: none; stroke: #0000ff; stroke-width: 1.5; stroke-linecap: square"/>
    <g clip-path="url(#pbd25ff2eb1)">
     <use xlink:href="#m576e8ce70b" x="477.545571" y="1124.118565" style="fill: #0000ff; stroke: #0000ff"/>
    </g>
   </g>
   <g id="line2d_97">
    <path d="M 1172.366636 668.251596 
" clip-path="url(#pbd25ff2eb1)" style="fill: none; stroke: #0000ff; stroke-width: 1.5; stroke-linecap: square"/>
    <g clip-path="url(#pbd25ff2eb1)">
     <use xlink:href="#m576e8ce70b" x="1172.366636" y="668.251596" style="fill: #0000ff; stroke: #0000ff"/>
    </g>
   </g>
   <g id="line2d_98">
    <path d="M 476.320524 553.080736 
" clip-path="url(#pbd25ff2eb1)" style="fill: none; stroke: #0000ff; stroke-width: 1.5; stroke-linecap: square"/>
    <g clip-path="url(#pbd25ff2eb1)">
     <use xlink:href="#m576e8ce70b" x="476.320524" y="553.080736" style="fill: #0000ff; stroke: #0000ff"/>
    </g>
   </g>
   <g id="line2d_99">
    <path d="M 680.105725 428.656786 
" clip-path="url(#pbd25ff2eb1)" style="fill: none; stroke: #0000ff; stroke-width: 1.5; stroke-linecap: square"/>
    <g clip-path="url(#pbd25ff2eb1)">
     <use xlink:href="#m576e8ce70b" x="680.105725" y="428.656786" style="fill: #0000ff; stroke: #0000ff"/>
    </g>
   </g>
   <g id="line2d_100">
    <path d="M 859.034363 52.122206 
" clip-path="url(#pbd25ff2eb1)" style="fill: none; stroke: #0000ff; stroke-width: 1.5; stroke-linecap: square"/>
    <g clip-path="url(#pbd25ff2eb1)">
     <use xlink:href="#m576e8ce70b" x="859.034363" y="52.122206" style="fill: #0000ff; stroke: #0000ff"/>
    </g>
   </g>
   <g id="line2d_101">
    <path d="M 871.79566 614.28997 
" clip-path="url(#pbd25ff2eb1)" style="fill: none; stroke: #0000ff; stroke-width: 1.5; stroke-linecap: square"/>
    <g clip-path="url(#pbd25ff2eb1)">
     <use xlink:href="#m576e8ce70b" x="871.79566" y="614.28997" style="fill: #0000ff; stroke: #0000ff"/>
    </g>
   </g>
   <g id="line2d_102">
    <path d="M 879.012911 645.453857 
" clip-path="url(#pbd25ff2eb1)" style="fill: none; stroke: #0000ff; stroke-width: 1.5; stroke-linecap: square"/>
    <g clip-path="url(#pbd25ff2eb1)">
     <use xlink:href="#m576e8ce70b" x="879.012911" y="645.453857" style="fill: #0000ff; stroke: #0000ff"/>
    </g>
   </g>
   <g id="line2d_103">
    <path d="M 830.837007 667.75786 
" clip-path="url(#pbd25ff2eb1)" style="fill: none; stroke: #ff0000; stroke-width: 1.5; stroke-linecap: square"/>
    <defs>
     <path id="m9e1f4a4dfb" d="M 0 -10 
L -2.24514 -3.09017 
L -9.510565 -3.09017 
L -3.632713 1.18034 
L -5.877853 8.09017 
L -0 3.81966 
L 5.877853 8.09017 
L 3.632713 1.18034 
L 9.510565 -3.09017 
L 2.24514 -3.09017 
z
" style="stroke: #ff0000; stroke-linejoin: bevel"/>
    </defs>
    <g clip-path="url(#pbd25ff2eb1)">
     <use xlink:href="#m9e1f4a4dfb" x="830.837007" y="667.75786" style="fill: #ff0000; stroke: #ff0000; stroke-linejoin: bevel"/>
    </g>
   </g>
   <g id="line2d_104">
    <path d="M 965.438115 714.641758 
" clip-path="url(#pbd25ff2eb1)" style="fill: none; stroke: #ff0000; stroke-width: 1.5; stroke-linecap: square"/>
    <g clip-path="url(#pbd25ff2eb1)">
     <use xlink:href="#m9e1f4a4dfb" x="965.438115" y="714.641758" style="fill: #ff0000; stroke: #ff0000; stroke-linejoin: bevel"/>
    </g>
   </g>
   <g id="line2d_105">
    <path d="M 239.872933 439.177938 
" clip-path="url(#pbd25ff2eb1)" style="fill: none; stroke: #ff0000; stroke-width: 1.5; stroke-linecap: square"/>
    <g clip-path="url(#pbd25ff2eb1)">
     <use xlink:href="#m9e1f4a4dfb" x="239.872933" y="439.177938" style="fill: #ff0000; stroke: #ff0000; stroke-linejoin: bevel"/>
    </g>
   </g>
   <g id="line2d_106">
    <path d="M 1215.213705 794.52451 
" clip-path="url(#pbd25ff2eb1)" style="fill: none; stroke: #ff0000; stroke-width: 1.5; stroke-linecap: square"/>
    <g clip-path="url(#pbd25ff2eb1)">
     <use xlink:href="#m9e1f4a4dfb" x="1215.213705" y="794.52451" style="fill: #ff0000; stroke: #ff0000; stroke-linejoin: bevel"/>
    </g>
   </g>
   <g id="line2d_107">
    <path d="M 479.561991 1127.266766 
" clip-path="url(#pbd25ff2eb1)" style="fill: none; stroke: #ff0000; stroke-width: 1.5; stroke-linecap: square"/>
    <g clip-path="url(#pbd25ff2eb1)">
     <use xlink:href="#m9e1f4a4dfb" x="479.561991" y="1127.266766" style="fill: #ff0000; stroke: #ff0000; stroke-linejoin: bevel"/>
    </g>
   </g>
   <g id="line2d_108">
    <path d="M 1168.800876 666.339642 
" clip-path="url(#pbd25ff2eb1)" style="fill: none; stroke: #ff0000; stroke-width: 1.5; stroke-linecap: square"/>
    <g clip-path="url(#pbd25ff2eb1)">
     <use xlink:href="#m9e1f4a4dfb" x="1168.800876" y="666.339642" style="fill: #ff0000; stroke: #ff0000; stroke-linejoin: bevel"/>
    </g>
   </g>
   <g id="line2d_109">
    <path d="M 456.055818 1083.520253 
" clip-path="url(#pbd25ff2eb1)" style="fill: none; stroke: #ff0000; stroke-width: 1.5; stroke-linecap: square"/>
    <g clip-path="url(#pbd25ff2eb1)">
     <use xlink:href="#m9e1f4a4dfb" x="456.055818" y="1083.520253" style="fill: #ff0000; stroke: #ff0000; stroke-linejoin: bevel"/>
    </g>
   </g>
   <g id="line2d_110">
    <path d="M 586.910837 693.297232 
" clip-path="url(#pbd25ff2eb1)" style="fill: none; stroke: #ff0000; stroke-width: 1.5; stroke-linecap: square"/>
    <g clip-path="url(#pbd25ff2eb1)">
     <use xlink:href="#m9e1f4a4dfb" x="586.910837" y="693.297232" style="fill: #ff0000; stroke: #ff0000; stroke-linejoin: bevel"/>
    </g>
   </g>
   <g id="line2d_111">
    <path d="M 860.591095 56.350136 
" clip-path="url(#pbd25ff2eb1)" style="fill: none; stroke: #ff0000; stroke-width: 1.5; stroke-linecap: square"/>
    <g clip-path="url(#pbd25ff2eb1)">
     <use xlink:href="#m9e1f4a4dfb" x="860.591095" y="56.350136" style="fill: #ff0000; stroke: #ff0000; stroke-linejoin: bevel"/>
    </g>
   </g>
   <g id="line2d_112">
    <path d="M 469.337995 480.751632 
" clip-path="url(#pbd25ff2eb1)" style="fill: none; stroke: #ff0000; stroke-width: 1.5; stroke-linecap: square"/>
    <g clip-path="url(#pbd25ff2eb1)">
     <use xlink:href="#m9e1f4a4dfb" x="469.337995" y="480.751632" style="fill: #ff0000; stroke: #ff0000; stroke-linejoin: bevel"/>
    </g>
   </g>
   <g id="line2d_113">
    <path d="M 762.691425 587.117962 
" clip-path="url(#pbd25ff2eb1)" style="fill: none; stroke: #ff0000; stroke-width: 1.5; stroke-linecap: square"/>
    <g clip-path="url(#pbd25ff2eb1)">
     <use xlink:href="#m9e1f4a4dfb" x="762.691425" y="587.117962" style="fill: #ff0000; stroke: #ff0000; stroke-linejoin: bevel"/>
    </g>
   </g>
  </g>
 </g>
 <defs>
  <clipPath id="pbd25ff2eb1">
   <rect x="0" y="0" width="1440" height="1440"/>
  </clipPath>
 </defs>
</svg>
