<?xml version="1.0" encoding="utf-8" standalone="no"?>
<!DOCTYPE svg PUBLIC "-//W3C//DTD SVG 1.1//EN"
  "http://www.w3.org/Graphics/SVG/1.1/DTD/svg11.dtd">
<svg xmlns:xlink="http://www.w3.org/1999/xlink" width="1440pt" height="1440pt" viewBox="0 0 1440 1440" xmlns="http://www.w3.org/2000/svg" version="1.1">
 <metadata>
  <rdf:RDF xmlns:dc="http://purl.org/dc/elements/1.1/" xmlns:cc="http://creativecommons.org/ns#" xmlns:rdf="http://www.w3.org/1999/02/22-rdf-syntax-ns#">
   <cc:Work>
    <dc:type rdf:resource="http://purl.org/dc/dcmitype/StillImage"/>
    <dc:date>2026-02-27T11:10:13.639350</dc:date>
    <dc:format>image/svg+xml</dc:format>
    <dc:creator>
     <cc:Agent>
      <dc:title>Matplotlib v3.7.3, https://matplotlib.org/</dc:title>
     </cc:Agent>
    </dc:creator>
   </cc:Work>
  </rdf:RDF>
 </metadata>
 <defs>
  <style type="text/css">*{stroke-linejoin: round; stroke-linecap: butt}</style>
 </defs>
 <g id="figure_1">
  <g id="patch_1">
   <path d="M 0 1440 
L 1440 1440 
L 1440 0 
L 0 0 
z
" style="fill: #ffffff"/>
  </g>
  <g id="axes_1">
   <g id="line2d_1">
    <path d="M 822.549108 657.937589 
L 1010.820598 580.058994 
" clip-path="url(#p2571e8813e)" style="fill: none; stroke: #7a7a7a; stroke-width: 3; stroke-linecap: square"/>
   </g>
   <g id="line2d_2">
    <path d="M 822.549108 716.526811 
L 1022.034697 634.86245 
" clip-path="url(#p2571e8813e)" style="fill: none; stroke: #7a7a7a; stroke-width: 3; stroke-linecap: square"/>
   </g>
   <g id="line2d_3">
    <path d="M 692.50735 589.613544 
L 821.991886 536.793107 
L 822.549108 536.612833 
" clip-path="url(#p2571e8813e)" style="fill: none; stroke: #7a7a7a; stroke-width: 3; stroke-linecap: square"/>
   </g>
   <g id="line2d_4">
    <path d="M 694.387976 645.498647 
L 821.991886 590.334642 
L 822.549108 590.154367 
" clip-path="url(#p2571e8813e)" style="fill: none; stroke: #7a7a7a; stroke-width: 3; stroke-linecap: square"/>
   </g>
   <g id="line2d_5">
    <path d="M 195.674003 850.651059 
L 508.554333 722.295595 
" clip-path="url(#p2571e8813e)" style="fill: none; stroke: #7a7a7a; stroke-width: 3; stroke-linecap: square"/>
   </g>
   <g id="line2d_6">
    <path d="M 195.674003 918.434281 
L 381.786257 840.014861 
L 509.320514 789.177445 
" clip-path="url(#p2571e8813e)" style="fill: none; stroke: #7a7a7a; stroke-width: 3; stroke-linecap: square"/>
   </g>
   <g id="line2d_7">
    <path d="M 997.795526 516.061537 
L 1209.88827 427.00592 
" clip-path="url(#p2571e8813e)" style="fill: none; stroke: #7a7a7a; stroke-width: 3; stroke-linecap: square"/>
   </g>
   <g id="line2d_8">
    <path d="M 1010.820598 580.058994 
L 1216.505285 492.625848 
" clip-path="url(#p2571e8813e)" style="fill: none; stroke: #7a7a7a; stroke-width: 3; stroke-linecap: square"/>
   </g>
   <g id="line2d_9">
    <path d="M 1216.505285 492.625848 
L 1441 399.618516 
" clip-path="url(#p2571e8813e)" style="fill: none; stroke: #7a7a7a; stroke-width: 3; stroke-linecap: square"/>
   </g>
   <g id="line2d_10">
    <path d="M 1224.167092 547.429304 
L 1441 457.664439 
" clip-path="url(#p2571e8813e)" style="fill: none; stroke: #7a7a7a; stroke-width: 3; stroke-linecap: square"/>
   </g>
   <g id="line2d_11">
    <path d="M 1023.776017 139.828599 
L 1152.494372 784.850856 
" clip-path="url(#p2571e8813e)" style="fill: none; stroke: #7a7a7a; stroke-width: 3; stroke-linecap: square"/>
   </g>
   <g id="line2d_12">
    <path d="M 991.178511 165.067033 
L 1101.996099 690.026455 
L 1104.991169 700.482378 
L 1108.543461 715.264889 
L 1114.25499 742.306068 
L 1117.946588 762.496815 
L 1128.882076 817.66082 
" clip-path="url(#p2571e8813e)" style="fill: none; stroke: #7a7a7a; stroke-width: 3; stroke-linecap: square"/>
   </g>
   <g id="line2d_13">
    <path d="M 1441 329.549842 
L 1209.88827 427.00592 
" clip-path="url(#p2571e8813e)" style="fill: none; stroke: #7a7a7a; stroke-width: 3; stroke-linecap: square"/>
   </g>
   <g id="line2d_14">
    <path d="M 1441 276.174924 
L 1206.753895 374.546033 
" clip-path="url(#p2571e8813e)" style="fill: none; stroke: #7a7a7a; stroke-width: 3; stroke-linecap: square"/>
   </g>
   <g id="line2d_15">
    <path d="M 987.695872 466.666316 
L 822.549108 536.612833 
" clip-path="url(#p2571e8813e)" style="fill: none; stroke: #7a7a7a; stroke-width: 3; stroke-linecap: square"/>
   </g>
   <g id="line2d_16">
    <path d="M 975.506634 407.175722 
L 822.549108 470.81263 
" clip-path="url(#p2571e8813e)" style="fill: none; stroke: #7a7a7a; stroke-width: 3; stroke-linecap: square"/>
   </g>
   <g id="line2d_17">
    <path d="M 1209.88827 427.00592 
L 1441 329.549842 
" clip-path="url(#p2571e8813e)" style="fill: none; stroke: #7a7a7a; stroke-width: 3; stroke-linecap: square"/>
   </g>
   <g id="line2d_18">
    <path d="M 1216.505285 492.625848 
L 1441 399.618516 
" clip-path="url(#p2571e8813e)" style="fill: none; stroke: #7a7a7a; stroke-width: 3; stroke-linecap: square"/>
   </g>
   <g id="line2d_19">
    <path d="M 1046.691784 121.981421 
L 1075.528039 260.612532 
L 1080.682346 286.391789 
L 1087.160055 311.269674 
L 1094.891515 334.885637 
L 1103.807072 357.059404 
L 1113.837073 377.250151 
L 1124.98152 394.917054 
L 1137.101105 409.699566 
L 1150.056524 421.41741 
L 1163.917429 429.349489 
L 1178.614168 433.135254 
L 1193.937781 432.414156 
L 1209.88827 427.00592 
" clip-path="url(#p2571e8813e)" style="fill: none; stroke: #7a7a7a; stroke-width: 3; stroke-linecap: square"/>
   </g>
   <g id="line2d_20">
    <path d="M 1023.776017 139.828599 
L 1052.681924 278.279436 
L 1058.672064 305.500889 
L 1065.428385 331.099872 
L 1072.881233 355.436933 
L 1081.03061 378.151523 
L 1089.806861 399.063369 
L 1099.349293 418.352743 
L 1109.588253 435.659098 
L 1120.454088 450.982432 
L 1132.086104 464.142473 
L 1144.414648 475.139219 
L 1157.43972 483.792396 
L 1171.161319 489.92173 
L 1185.579447 493.527221 
L 1200.694102 494.428593 
L 1216.505285 492.625848 
" clip-path="url(#p2571e8813e)" style="fill: none; stroke: #7a7a7a; stroke-width: 3; stroke-linecap: square"/>
   </g>
   <g id="line2d_21">
    <path d="M 1172.763333 756.72803 
L 1046.691784 121.981421 
" clip-path="url(#p2571e8813e)" style="fill: none; stroke: #7a7a7a; stroke-width: 3; stroke-linecap: square"/>
   </g>
   <g id="line2d_22">
    <path d="M 1194.355698 726.982733 
L 1075.597692 99.627379 
" clip-path="url(#p2571e8813e)" style="fill: none; stroke: #7a7a7a; stroke-width: 3; stroke-linecap: square"/>
   </g>
   <g id="line2d_23">
    <path d="M 1209.88827 427.00592 
L 1195.40049 432.594431 
L 1182.445071 445.213647 
L 1171.091666 464.142473 
L 1161.409929 488.299259 
L 1153.469511 516.782635 
L 1147.20076 548.510951 
L 1142.673328 582.943386 
L 1139.956869 618.637742 
L 1138.98173 655.053197 
L 1139.887217 691.108102 
L 1142.603675 725.901086 
L 1147.270412 758.350501 
L 1152.494372 784.850856 
" clip-path="url(#p2571e8813e)" style="fill: none; stroke: #7a7a7a; stroke-width: 3; stroke-linecap: square"/>
   </g>
   <g id="line2d_24">
    <path d="M 1206.753895 374.546033 
L 1192.126809 380.675367 
L 1178.614168 390.951015 
L 1166.285624 404.832153 
L 1155.001872 422.318783 
L 1144.97187 442.870079 
L 1136.195619 466.305767 
L 1128.673118 492.265299 
L 1122.404367 520.5684 
L 1117.528671 550.85452 
L 1114.046032 582.582837 
L 1111.886795 615.933625 
L 1111.25992 650.00551 
L 1112.026101 684.978768 
L 1114.324643 720.312576 
L 1118.225199 755.826657 
L 1123.658117 791.160465 
L 1128.882076 817.66082 
" clip-path="url(#p2571e8813e)" style="fill: none; stroke: #7a7a7a; stroke-width: 3; stroke-linecap: square"/>
   </g>
   <g id="line2d_25">
    <path d="M 975.506634 407.175722 
L 822.549108 470.81263 
" clip-path="url(#p2571e8813e)" style="fill: none; stroke: #7a7a7a; stroke-width: 3; stroke-linecap: square"/>
   </g>
   <g id="line2d_26">
    <path d="M 964.710451 354.53556 
L 822.549108 416.009174 
" clip-path="url(#p2571e8813e)" style="fill: none; stroke: #7a7a7a; stroke-width: 3; stroke-linecap: square"/>
   </g>
   <g id="line2d_27">
    <path d="M 1441 211.98703 
L 1202.992644 311.630223 
" clip-path="url(#p2571e8813e)" style="fill: none; stroke: #7a7a7a; stroke-width: 3; stroke-linecap: square"/>
   </g>
   <g id="line2d_28">
    <path d="M 1441 154.830883 
L 1199.718963 255.564845 
" clip-path="url(#p2571e8813e)" style="fill: none; stroke: #7a7a7a; stroke-width: 3; stroke-linecap: square"/>
   </g>
   <g id="line2d_29">
    <path d="M 1441 276.174924 
L 1206.753895 374.546033 
" clip-path="url(#p2571e8813e)" style="fill: none; stroke: #7a7a7a; stroke-width: 3; stroke-linecap: square"/>
   </g>
   <g id="line2d_30">
    <path d="M 1441 211.98703 
L 1202.992644 311.630223 
" clip-path="url(#p2571e8813e)" style="fill: none; stroke: #7a7a7a; stroke-width: 3; stroke-linecap: square"/>
   </g>
   <g id="line2d_31">
    <path d="M 1234.197094 1046.429195 
L 1208.843478 926.907183 
L 1172.763333 756.72803 
" clip-path="url(#p2571e8813e)" style="fill: none; stroke: #7a7a7a; stroke-width: 3; stroke-linecap: square"/>
   </g>
   <g id="line2d_32">
    <path d="M 1254.187444 1030.024213 
L 1216.714243 854.797373 
L 1200.276185 756.908305 
L 1194.355698 726.982733 
" clip-path="url(#p2571e8813e)" style="fill: none; stroke: #7a7a7a; stroke-width: 3; stroke-linecap: square"/>
   </g>
   <g id="line2d_33">
    <path d="M 995.706563 -1 
L 1023.776017 139.828599 
" clip-path="url(#p2571e8813e)" style="fill: none; stroke: #7a7a7a; stroke-width: 3; stroke-linecap: square"/>
   </g>
   <g id="line2d_34">
    <path d="M 960.817329 -1 
L 972.92948 60.507807 
L 975.854898 75.110044 
L 980.730593 105.035615 
L 991.178511 165.067033 
" clip-path="url(#p2571e8813e)" style="fill: none; stroke: #7a7a7a; stroke-width: 3; stroke-linecap: square"/>
   </g>
   <g id="line2d_35">
    <path d="M 822.549108 536.612833 
L 987.695872 466.666316 
" clip-path="url(#p2571e8813e)" style="fill: none; stroke: #7a7a7a; stroke-width: 3; stroke-linecap: square"/>
   </g>
   <g id="line2d_36">
    <path d="M 822.549108 590.154367 
L 997.795526 516.061537 
" clip-path="url(#p2571e8813e)" style="fill: none; stroke: #7a7a7a; stroke-width: 3; stroke-linecap: square"/>
   </g>
   <g id="line2d_37">
    <path d="M 1206.753895 374.546033 
L 987.695872 466.666316 
" clip-path="url(#p2571e8813e)" style="fill: none; stroke: #7a7a7a; stroke-width: 3; stroke-linecap: square"/>
   </g>
   <g id="line2d_38">
    <path d="M 1202.992644 311.630223 
L 975.506634 407.175722 
" clip-path="url(#p2571e8813e)" style="fill: none; stroke: #7a7a7a; stroke-width: 3; stroke-linecap: square"/>
   </g>
   <g id="line2d_39">
    <path d="M 1152.494372 784.850856 
L 1160.504442 825.052076 
L 1208.773825 1067.34104 
" clip-path="url(#p2571e8813e)" style="fill: none; stroke: #7a7a7a; stroke-width: 3; stroke-linecap: square"/>
   </g>
   <g id="line2d_40">
    <path d="M 1128.882076 817.66082 
L 1163.708471 992.707386 
L 1182.514724 1088.793709 
" clip-path="url(#p2571e8813e)" style="fill: none; stroke: #7a7a7a; stroke-width: 3; stroke-linecap: square"/>
   </g>
   <g id="line2d_41">
    <path d="M 195.674003 918.434281 
L 381.786257 840.014861 
L 509.320514 789.177445 
" clip-path="url(#p2571e8813e)" style="fill: none; stroke: #7a7a7a; stroke-width: 3; stroke-linecap: square"/>
   </g>
   <g id="line2d_42">
    <path d="M 195.674003 977.564326 
L 509.390167 845.423097 
" clip-path="url(#p2571e8813e)" style="fill: none; stroke: #7a7a7a; stroke-width: 3; stroke-linecap: square"/>
   </g>
   <g id="line2d_43">
    <path d="M 1152.494372 784.850856 
L 1125.469089 645.318372 
L 1116.901796 606.559349 
L 1108.682767 572.126914 
L 1099.697557 542.922441 
L 1089.876514 518.765654 
L 1079.428595 499.296006 
L 1068.493108 483.972671 
L 1057.209356 472.79565 
L 1045.57734 465.043845 
L 1033.806018 460.356708 
L 1022.034697 458.553962 
L 1010.333028 459.275061 
L 998.840318 462.159453 
L 987.695872 466.666316 
" clip-path="url(#p2571e8813e)" style="fill: none; stroke: #7a7a7a; stroke-width: 3; stroke-linecap: square"/>
   </g>
   <g id="line2d_44">
    <path d="M 1172.763333 756.72803 
L 1144.344995 618.637742 
L 1136.195619 577.53515 
L 1128.115895 541.480245 
L 1119.269991 509.211105 
L 1109.031031 482.3502 
L 1098.02589 459.63561 
L 1086.393874 440.887059 
L 1074.274289 425.924273 
L 1061.80644 414.566978 
L 1049.059979 406.094075 
L 1036.313519 400.685839 
L 1023.567058 397.801447 
L 1010.959903 397.440898 
L 998.701013 398.883094 
L 986.790386 402.30831 
L 975.506634 407.175722 
" clip-path="url(#p2571e8813e)" style="fill: none; stroke: #7a7a7a; stroke-width: 3; stroke-linecap: square"/>
   </g>
   <g id="line2d_45">
    <path d="M 1020.477836 -1 
L 1046.691784 121.981421 
" clip-path="url(#p2571e8813e)" style="fill: none; stroke: #7a7a7a; stroke-width: 3; stroke-linecap: square"/>
   </g>
   <g id="line2d_46">
    <path d="M 995.706563 -1 
L 1023.776017 139.828599 
" clip-path="url(#p2571e8813e)" style="fill: none; stroke: #7a7a7a; stroke-width: 3; stroke-linecap: square"/>
   </g>
   <g id="line2d_47">
    <path d="M 987.695872 466.666316 
L 1009.357889 447.196667 
L 1026.771087 426.104548 
L 1040.353381 403.750506 
L 1050.453035 380.314818 
L 1057.487967 355.797482 
L 1061.876093 330.378774 
L 1063.896023 304.238967 
L 1064.104982 277.558337 
L 1062.781579 250.336884 
L 1060.274078 222.754881 
L 1057.07005 195.172879 
L 1050.104771 139.828599 
L 1046.691784 121.981421 
" clip-path="url(#p2571e8813e)" style="fill: none; stroke: #7a7a7a; stroke-width: 3; stroke-linecap: square"/>
   </g>
   <g id="line2d_48">
    <path d="M 997.795526 516.061537 
L 1017.646571 498.574907 
L 1034.572199 478.74471 
L 1048.851021 456.931492 
L 1060.622342 433.315529 
L 1070.025469 407.89682 
L 1077.408665 381.396465 
L 1082.771929 353.634188 
L 1086.463527 324.790263 
L 1088.553111 295.58579 
L 1089.249639 265.660219 
L 1088.831722 235.554373 
L 1087.369013 205.448527 
L 1085.140124 175.522955 
L 1082.28436 146.138207 
L 1079.010679 117.474558 
L 1075.597692 99.627379 
" clip-path="url(#p2571e8813e)" style="fill: none; stroke: #7a7a7a; stroke-width: 3; stroke-linecap: square"/>
   </g>
   <g id="line2d_49">
    <path d="M 1208.773825 1067.34104 
L 1160.504442 825.052076 
L 1152.494372 784.850856 
" clip-path="url(#p2571e8813e)" style="fill: none; stroke: #7a7a7a; stroke-width: 3; stroke-linecap: square"/>
   </g>
   <g id="line2d_50">
    <path d="M 1234.197094 1046.429195 
L 1208.843478 926.907183 
L 1172.763333 756.72803 
" clip-path="url(#p2571e8813e)" style="fill: none; stroke: #7a7a7a; stroke-width: 3; stroke-linecap: square"/>
   </g>
   <g id="line2d_51">
    <path d="M 1046.691784 121.981421 
L 1020.477836 -1 
" clip-path="url(#p2571e8813e)" style="fill: none; stroke: #7a7a7a; stroke-width: 3; stroke-linecap: square"/>
   </g>
   <g id="line2d_52">
    <path d="M 1075.597692 99.627379 
L 1057.251524 -1 
" clip-path="url(#p2571e8813e)" style="fill: none; stroke: #7a7a7a; stroke-width: 3; stroke-linecap: square"/>
   </g>
   <g id="line2d_53">
    <path d="M 694.387976 645.498647 
L 821.991886 590.334642 
L 822.549108 590.154367 
" clip-path="url(#p2571e8813e)" style="fill: none; stroke: #7a7a7a; stroke-width: 3; stroke-linecap: square"/>
   </g>
   <g id="line2d_54">
    <path d="M 696.895476 712.019947 
L 821.991886 658.117864 
L 822.549108 657.937589 
" clip-path="url(#p2571e8813e)" style="fill: none; stroke: #7a7a7a; stroke-width: 3; stroke-linecap: square"/>
   </g>
   <g id="line2d_55">
    <path d="M 570.336358 957.734128 
L 630.934284 1269.428785 
" clip-path="url(#p2571e8813e)" style="fill: none; stroke: #7a7a7a; stroke-width: 3; stroke-linecap: square"/>
   </g>
   <g id="line2d_56">
    <path d="M 541.778714 968.19005 
L 553.062466 1018.666918 
L 593.879 1206.512975 
L 611.501156 1295.027768 
" clip-path="url(#p2571e8813e)" style="fill: none; stroke: #7a7a7a; stroke-width: 3; stroke-linecap: square"/>
   </g>
   <g id="line2d_57">
    <path d="M 822.549108 590.154367 
L 997.795526 516.061537 
" clip-path="url(#p2571e8813e)" style="fill: none; stroke: #7a7a7a; stroke-width: 3; stroke-linecap: square"/>
   </g>
   <g id="line2d_58">
    <path d="M 822.549108 657.937589 
L 1010.820598 580.058994 
" clip-path="url(#p2571e8813e)" style="fill: none; stroke: #7a7a7a; stroke-width: 3; stroke-linecap: square"/>
   </g>
   <g id="line2d_59">
    <path d="M 822.549108 536.612833 
L 821.991886 536.793107 
L 692.50735 589.613544 
" clip-path="url(#p2571e8813e)" style="fill: none; stroke: #7a7a7a; stroke-width: 3; stroke-linecap: square"/>
   </g>
   <g id="line2d_60">
    <path d="M 822.549108 470.81263 
L 821.991886 471.173179 
L 690.139155 525.796361 
" clip-path="url(#p2571e8813e)" style="fill: none; stroke: #7a7a7a; stroke-width: 3; stroke-linecap: square"/>
   </g>
   <g id="line2d_61">
    <path d="M 491.768011 674.162297 
L 692.50735 589.613544 
" clip-path="url(#p2571e8813e)" style="fill: none; stroke: #7a7a7a; stroke-width: 3; stroke-linecap: square"/>
   </g>
   <g id="line2d_62">
    <path d="M 508.554333 722.295595 
L 694.387976 645.498647 
" clip-path="url(#p2571e8813e)" style="fill: none; stroke: #7a7a7a; stroke-width: 3; stroke-linecap: square"/>
   </g>
   <g id="line2d_63">
    <path d="M 822.549108 470.81263 
L 821.991886 471.173179 
L 690.139155 525.796361 
" clip-path="url(#p2571e8813e)" style="fill: none; stroke: #7a7a7a; stroke-width: 3; stroke-linecap: square"/>
   </g>
   <g id="line2d_64">
    <path d="M 822.549108 416.009174 
L 821.991886 416.369723 
L 688.188877 471.714003 
" clip-path="url(#p2571e8813e)" style="fill: none; stroke: #7a7a7a; stroke-width: 3; stroke-linecap: square"/>
   </g>
   <g id="line2d_65">
    <path d="M 692.50735 589.613544 
L 491.768011 674.162297 
" clip-path="url(#p2571e8813e)" style="fill: none; stroke: #7a7a7a; stroke-width: 3; stroke-linecap: square"/>
   </g>
   <g id="line2d_66">
    <path d="M 690.139155 525.796361 
L 459.51877 622.603782 
" clip-path="url(#p2571e8813e)" style="fill: none; stroke: #7a7a7a; stroke-width: 3; stroke-linecap: square"/>
   </g>
   <g id="line2d_67">
    <path d="M 508.554333 722.295595 
L 195.674003 849.569411 
" clip-path="url(#p2571e8813e)" style="fill: none; stroke: #7a7a7a; stroke-width: 3; stroke-linecap: square"/>
   </g>
   <g id="line2d_68">
    <path d="M 491.768011 674.162297 
L 195.674003 795.847602 
" clip-path="url(#p2571e8813e)" style="fill: none; stroke: #7a7a7a; stroke-width: 3; stroke-linecap: square"/>
   </g>
   <g id="line2d_69">
    <path d="M 690.139155 525.796361 
L 459.51877 622.603782 
" clip-path="url(#p2571e8813e)" style="fill: none; stroke: #7a7a7a; stroke-width: 3; stroke-linecap: square"/>
   </g>
   <g id="line2d_70">
    <path d="M 688.188877 471.714003 
L 432.911404 577.715425 
" clip-path="url(#p2571e8813e)" style="fill: none; stroke: #7a7a7a; stroke-width: 3; stroke-linecap: square"/>
   </g>
   <g id="line2d_71">
    <path d="M 630.934284 1269.428785 
L 570.336358 957.734128 
" clip-path="url(#p2571e8813e)" style="fill: none; stroke: #7a7a7a; stroke-width: 3; stroke-linecap: square"/>
   </g>
   <g id="line2d_72">
    <path d="M 651.481857 1242.387606 
L 609.132961 999.738092 
L 601.61046 958.6355 
L 600.426363 952.145617 
L 599.938793 946.917656 
" clip-path="url(#p2571e8813e)" style="fill: none; stroke: #7a7a7a; stroke-width: 3; stroke-linecap: square"/>
   </g>
   <g id="line2d_73">
    <path d="M 195.674003 796.027877 
L 491.768011 674.162297 
" clip-path="url(#p2571e8813e)" style="fill: none; stroke: #7a7a7a; stroke-width: 3; stroke-linecap: square"/>
   </g>
   <g id="line2d_74">
    <path d="M 195.674003 850.651059 
L 508.554333 722.295595 
" clip-path="url(#p2571e8813e)" style="fill: none; stroke: #7a7a7a; stroke-width: 3; stroke-linecap: square"/>
   </g>
   <g id="line2d_75">
    <path d="M 692.50735 589.613544 
L 629.541229 615.573075 
L 619.232616 622.062958 
L 609.063308 631.978057 
L 599.242265 645.318372 
L 590.048097 661.903629 
L 581.620109 681.914101 
L 574.167261 705.169515 
L 568.037816 731.850145 
L 563.371079 761.595442 
L 560.445661 794.585681 
L 559.40087 830.640586 
L 560.584967 869.940433 
L 564.137259 912.304947 
L 570.336358 957.734128 
" clip-path="url(#p2571e8813e)" style="fill: none; stroke: #7a7a7a; stroke-width: 3; stroke-linecap: square"/>
   </g>
   <g id="line2d_76">
    <path d="M 690.139155 525.796361 
L 627.173034 551.755893 
L 616.307199 557.344403 
L 605.441363 566.177855 
L 594.714834 578.256248 
L 584.266915 593.399309 
L 574.306567 611.426761 
L 564.973093 632.338606 
L 556.4058 655.954569 
L 548.883298 682.094376 
L 542.405589 710.758026 
L 537.18163 741.765244 
L 533.420379 774.755483 
L 531.261143 809.909015 
L 530.843226 847.045568 
L 532.375587 885.804591 
L 535.92788 926.36636 
L 541.778714 968.19005 
" clip-path="url(#p2571e8813e)" style="fill: none; stroke: #7a7a7a; stroke-width: 3; stroke-linecap: square"/>
   </g>
   <g id="line2d_77">
    <path d="M 696.895476 712.019947 
L 821.991886 658.117864 
L 822.549108 657.937589 
" clip-path="url(#p2571e8813e)" style="fill: none; stroke: #7a7a7a; stroke-width: 3; stroke-linecap: square"/>
   </g>
   <g id="line2d_78">
    <path d="M 698.98506 770.428894 
L 821.991886 716.707085 
L 822.549108 716.526811 
" clip-path="url(#p2571e8813e)" style="fill: none; stroke: #7a7a7a; stroke-width: 3; stroke-linecap: square"/>
   </g>
   <g id="line2d_79">
    <path d="M 491.768011 674.162297 
L 195.674003 795.847602 
" clip-path="url(#p2571e8813e)" style="fill: none; stroke: #7a7a7a; stroke-width: 3; stroke-linecap: square"/>
   </g>
   <g id="line2d_80">
    <path d="M 459.51877 622.603782 
L 195.674003 732.390969 
" clip-path="url(#p2571e8813e)" style="fill: none; stroke: #7a7a7a; stroke-width: 3; stroke-linecap: square"/>
   </g>
   <g id="line2d_81">
    <path d="M 508.554333 722.295595 
L 694.387976 645.498647 
" clip-path="url(#p2571e8813e)" style="fill: none; stroke: #7a7a7a; stroke-width: 3; stroke-linecap: square"/>
   </g>
   <g id="line2d_82">
    <path d="M 509.320514 789.177445 
L 696.895476 712.019947 
" clip-path="url(#p2571e8813e)" style="fill: none; stroke: #7a7a7a; stroke-width: 3; stroke-linecap: square"/>
   </g>
   <g id="line2d_83">
    <path d="M 570.336358 957.734128 
L 532.375587 709.676379 
L 527.430239 695.79524 
L 521.370447 686.781514 
L 515.241001 679.209983 
L 509.041903 674.342571 
L 502.146277 672.539826 
L 491.768011 674.162297 
" clip-path="url(#p2571e8813e)" style="fill: none; stroke: #7a7a7a; stroke-width: 3; stroke-linecap: square"/>
   </g>
   <g id="line2d_84">
    <path d="M 599.938793 946.917656 
L 560.376009 681.553552 
L 556.127189 663.165551 
L 548.67434 643.876176 
L 539.340866 627.831743 
L 529.728781 615.392801 
L 520.395308 606.559349 
L 509.877736 604.21578 
L 498.315373 606.919898 
L 459.51877 622.603782 
" clip-path="url(#p2571e8813e)" style="fill: none; stroke: #7a7a7a; stroke-width: 3; stroke-linecap: square"/>
   </g>
   <g id="line2d_85">
    <path d="M 459.51877 622.603782 
L 195.674003 732.390969 
" clip-path="url(#p2571e8813e)" style="fill: none; stroke: #7a7a7a; stroke-width: 3; stroke-linecap: square"/>
   </g>
   <g id="line2d_86">
    <path d="M 432.911404 577.715425 
L 195.674003 673.441199 
" clip-path="url(#p2571e8813e)" style="fill: none; stroke: #7a7a7a; stroke-width: 3; stroke-linecap: square"/>
   </g>
   <g id="line2d_87">
    <path d="M 1023.776017 139.828599 
L 1029.905462 184.356407 
L 1031.85574 220.411312 
L 1030.044768 249.615786 
L 1025.029767 273.412023 
L 1018.969974 296.487163 
L 1010.263376 317.939831 
L 997.029346 333.443441 
L 980.382329 347.865403 
L 964.710451 354.53556 
" clip-path="url(#p2571e8813e)" style="fill: none; stroke: #7a7a7a; stroke-width: 3; stroke-linecap: square"/>
   </g>
   <g id="line2d_88">
    <path d="M 991.178511 165.067033 
L 992.64122 173.179386 
L 995.566637 194.992604 
L 996.750734 207.792096 
L 996.89004 219.870489 
L 995.914901 232.66998 
L 994.034276 247.452491 
L 991.526775 259.170336 
L 988.949622 267.282689 
L 984.700802 276.656965 
L 980.451982 283.327122 
L 976.133509 287.473436 
L 969.446841 290.898652 
L 968.889619 291.9803 
L 953.148088 298.650457 
" clip-path="url(#p2571e8813e)" style="fill: none; stroke: #7a7a7a; stroke-width: 3; stroke-linecap: square"/>
   </g>
   <g id="line2d_89">
    <path d="M 1202.992644 311.630223 
L 975.506634 407.175722 
" clip-path="url(#p2571e8813e)" style="fill: none; stroke: #7a7a7a; stroke-width: 3; stroke-linecap: square"/>
   </g>
   <g id="line2d_90">
    <path d="M 1199.718963 255.564845 
L 964.710451 354.53556 
" clip-path="url(#p2571e8813e)" style="fill: none; stroke: #7a7a7a; stroke-width: 3; stroke-linecap: square"/>
   </g>
   <g id="line2d_91">
    <path d="M 822.549108 716.526811 
L 1022.034697 634.86245 
" clip-path="url(#p2571e8813e)" style="fill: none; stroke: #7a7a7a; stroke-width: 3; stroke-linecap: square"/>
   </g>
   <g id="line2d_92">
    <path d="M 822.549108 771.87109 
L 1031.85574 681.193003 
" clip-path="url(#p2571e8813e)" style="fill: none; stroke: #7a7a7a; stroke-width: 3; stroke-linecap: square"/>
   </g>
   <g id="line2d_93">
    <path d="M 1010.820598 580.058994 
L 1216.505285 492.625848 
" clip-path="url(#p2571e8813e)" style="fill: none; stroke: #7a7a7a; stroke-width: 3; stroke-linecap: square"/>
   </g>
   <g id="line2d_94">
    <path d="M 1022.034697 634.86245 
L 1224.167092 547.429304 
" clip-path="url(#p2571e8813e)" style="fill: none; stroke: #7a7a7a; stroke-width: 3; stroke-linecap: square"/>
   </g>
   <g id="line2d_95">
    <path d="M 964.710451 354.53556 
L 822.549108 416.009174 
" clip-path="url(#p2571e8813e)" style="fill: none; stroke: #7a7a7a; stroke-width: 3; stroke-linecap: square"/>
   </g>
   <g id="line2d_96">
    <path d="M 953.148088 298.650457 
L 822.549108 357.239678 
" clip-path="url(#p2571e8813e)" style="fill: none; stroke: #7a7a7a; stroke-width: 3; stroke-linecap: square"/>
   </g>
   <g id="line2d_97">
    <path d="M 1224.167092 547.429304 
L 1441 457.664439 
" clip-path="url(#p2571e8813e)" style="fill: none; stroke: #7a7a7a; stroke-width: 3; stroke-linecap: square"/>
   </g>
   <g id="line2d_98">
    <path d="M 1231.202024 598.086446 
L 1400.110038 527.418832 
L 1422.8865 517.503733 
L 1439.324558 511.554673 
L 1441 510.984933 
" clip-path="url(#p2571e8813e)" style="fill: none; stroke: #7a7a7a; stroke-width: 3; stroke-linecap: square"/>
   </g>
   <g id="line2d_99">
    <path d="M 1199.718963 255.564845 
L 1147.688329 275.575318 
L 1132.782632 278.279436 
L 1119.339644 276.656965 
L 1107.150406 271.429004 
L 1096.075612 262.235003 
L 1085.975958 249.074962 
L 1076.781789 231.948882 
L 1068.353802 210.856762 
L 1060.970606 185.077505 
L 1046.691784 121.981421 
" clip-path="url(#p2571e8813e)" style="fill: none; stroke: #7a7a7a; stroke-width: 3; stroke-linecap: square"/>
   </g>
   <g id="line2d_100">
    <path d="M 1196.375629 199.860016 
L 1160.574095 214.642528 
L 1152.146108 218.428293 
L 1141.280272 222.214058 
L 1129.160687 222.754881 
L 1115.648046 214.642528 
L 1103.737419 199.860016 
L 1093.637764 179.488995 
L 1085.558041 152.087267 
L 1080.821651 129.552951 
L 1075.597692 99.627379 
" clip-path="url(#p2571e8813e)" style="fill: none; stroke: #7a7a7a; stroke-width: 3; stroke-linecap: square"/>
   </g>
   <g id="line2d_101">
    <path d="M 1022.034697 634.86245 
L 1048.502757 622.964331 
L 1060.691995 618.457468 
L 1072.393664 615.933625 
L 1083.53811 616.474448 
L 1094.194987 621.161586 
L 1104.5036 630.716136 
L 1114.533601 646.039471 
L 1124.215339 668.213237 
L 1133.757771 698.138809 
L 1143.160898 736.717558 
L 1152.494372 784.850856 
" clip-path="url(#p2571e8813e)" style="fill: none; stroke: #7a7a7a; stroke-width: 3; stroke-linecap: square"/>
   </g>
   <g id="line2d_102">
    <path d="M 1031.85574 681.193003 
L 1066.682135 669.655434 
L 1071.000608 668.213237 
L 1073.926025 667.672414 
L 1078.453456 666.590767 
L 1086.04561 667.13159 
L 1089.667555 668.393512 
L 1092.592973 670.737081 
L 1094.612904 673.621473 
L 1095.727348 675.243944 
L 1098.861724 681.553552 
L 1099.976168 684.618219 
L 1100.603043 685.880141 
L 1101.996099 690.026455 
L 1106.244919 705.34979 
L 1108.543461 715.264889 
L 1114.25499 742.306068 
L 1115.787352 750.598696 
L 1128.882076 817.66082 
" clip-path="url(#p2571e8813e)" style="fill: none; stroke: #7a7a7a; stroke-width: 3; stroke-linecap: square"/>
   </g>
   <g id="line2d_103">
    <path d="M 1441 154.830883 
L 1199.718963 255.564845 
" clip-path="url(#p2571e8813e)" style="fill: none; stroke: #7a7a7a; stroke-width: 3; stroke-linecap: square"/>
   </g>
   <g id="line2d_104">
    <path d="M 1441 99.154764 
L 1351.840655 132.617618 
L 1196.375629 199.860016 
" clip-path="url(#p2571e8813e)" style="fill: none; stroke: #7a7a7a; stroke-width: 3; stroke-linecap: square"/>
   </g>
   <g id="line2d_105">
    <path d="M 1172.763333 756.72803 
L 1163.987082 706.791986 
L 1160.225831 681.193003 
L 1158.902428 654.692648 
L 1160.43479 629.093665 
L 1165.589096 605.117153 
L 1175.270834 583.844759 
L 1190.315836 566.177855 
L 1211.559937 553.017815 
L 1224.167092 547.429304 
" clip-path="url(#p2571e8813e)" style="fill: none; stroke: #7a7a7a; stroke-width: 3; stroke-linecap: square"/>
   </g>
   <g id="line2d_106">
    <path d="M 1194.355698 726.982733 
L 1190.455142 705.34979 
L 1189.480003 695.254416 
L 1189.201392 681.553552 
L 1189.967572 665.509119 
L 1191.499934 651.98853 
L 1193.728823 640.090411 
L 1196.863198 629.814763 
L 1200.415491 621.161586 
L 1204.455352 615.392801 
L 1209.400701 610.885938 
L 1218.87348 605.117153 
L 1231.202024 598.086446 
" clip-path="url(#p2571e8813e)" style="fill: none; stroke: #7a7a7a; stroke-width: 3; stroke-linecap: square"/>
   </g>
   <g id="line2d_107">
    <path d="M 195.674003 849.569411 
L 195.047128 849.92996 
L 1.551679 934.839263 
" clip-path="url(#p2571e8813e)" style="fill: none; stroke: #7a7a7a; stroke-width: 3; stroke-linecap: square"/>
   </g>
   <g id="line2d_108">
    <path d="M 195.674003 795.847602 
L 195.047128 796.027877 
L -1 880.390212 
" clip-path="url(#p2571e8813e)" style="fill: none; stroke: #7a7a7a; stroke-width: 3; stroke-linecap: square"/>
   </g>
   <g id="line2d_109">
    <path d="M 14.994667 997.574798 
L 195.047128 918.79483 
L 195.674003 918.434281 
" clip-path="url(#p2571e8813e)" style="fill: none; stroke: #7a7a7a; stroke-width: 3; stroke-linecap: square"/>
   </g>
   <g id="line2d_110">
    <path d="M 27.323211 1052.378254 
L 195.116781 977.7446 
L 195.674003 977.564326 
" clip-path="url(#p2571e8813e)" style="fill: none; stroke: #7a7a7a; stroke-width: 3; stroke-linecap: square"/>
   </g>
   <g id="line2d_111">
    <path d="M 195.674003 673.441199 
L 195.047128 673.621473 
L -1 761.410394 
" clip-path="url(#p2571e8813e)" style="fill: none; stroke: #7a7a7a; stroke-width: 3; stroke-linecap: square"/>
   </g>
   <g id="line2d_112">
    <path d="M 195.674003 618.096919 
L 195.047128 618.277193 
L -1 705.112096 
" clip-path="url(#p2571e8813e)" style="fill: none; stroke: #7a7a7a; stroke-width: 3; stroke-linecap: square"/>
   </g>
   <g id="line2d_113">
    <path d="M 195.674003 795.847602 
L 195.047128 796.027877 
L -1 880.390212 
" clip-path="url(#p2571e8813e)" style="fill: none; stroke: #7a7a7a; stroke-width: 3; stroke-linecap: square"/>
   </g>
   <g id="line2d_114">
    <path d="M 195.674003 732.390969 
L 195.047128 732.571243 
L -1 817.167252 
" clip-path="url(#p2571e8813e)" style="fill: none; stroke: #7a7a7a; stroke-width: 3; stroke-linecap: square"/>
   </g>
   <g id="line2d_115">
    <path d="M 1.899943 934.839263 
L 195.047128 851.011608 
L 195.674003 850.651059 
" clip-path="url(#p2571e8813e)" style="fill: none; stroke: #7a7a7a; stroke-width: 3; stroke-linecap: square"/>
   </g>
   <g id="line2d_116">
    <path d="M 14.994667 997.574798 
L 195.047128 918.79483 
L 195.674003 918.434281 
" clip-path="url(#p2571e8813e)" style="fill: none; stroke: #7a7a7a; stroke-width: 3; stroke-linecap: square"/>
   </g>
   <g id="line2d_117">
    <path d="M -1 880.92273 
L 195.047128 796.208151 
L 195.674003 796.027877 
" clip-path="url(#p2571e8813e)" style="fill: none; stroke: #7a7a7a; stroke-width: 3; stroke-linecap: square"/>
   </g>
   <g id="line2d_118">
    <path d="M 1.899943 934.839263 
L 195.047128 851.011608 
L 195.674003 850.651059 
" clip-path="url(#p2571e8813e)" style="fill: none; stroke: #7a7a7a; stroke-width: 3; stroke-linecap: square"/>
   </g>
   <g id="line2d_119">
    <path d="M 195.674003 732.390969 
L 195.047128 732.571243 
L -1 817.167252 
" clip-path="url(#p2571e8813e)" style="fill: none; stroke: #7a7a7a; stroke-width: 3; stroke-linecap: square"/>
   </g>
   <g id="line2d_120">
    <path d="M 195.674003 673.441199 
L 195.047128 673.621473 
L -1 761.410394 
" clip-path="url(#p2571e8813e)" style="fill: none; stroke: #7a7a7a; stroke-width: 3; stroke-linecap: square"/>
   </g>
   <g id="line2d_121">
    <path d="M 27.323211 1052.378254 
L 195.116781 977.7446 
L 195.674003 977.564326 
" clip-path="url(#p2571e8813e)" style="fill: none; stroke: #7a7a7a; stroke-width: 3; stroke-linecap: square"/>
   </g>
   <g id="line2d_122">
    <path d="M 40.348283 1100.511553 
L 45.154325 1097.446886 
L 78.866275 1082.664375 
L 195.116781 1035.792998 
L 195.674003 1035.432449 
" clip-path="url(#p2571e8813e)" style="fill: none; stroke: #7a7a7a; stroke-width: 3; stroke-linecap: square"/>
   </g>
   <g id="line2d_123">
    <path d="M 432.911404 577.715425 
L 195.674003 673.441199 
" clip-path="url(#p2571e8813e)" style="fill: none; stroke: #7a7a7a; stroke-width: 3; stroke-linecap: square"/>
   </g>
   <g id="line2d_124">
    <path d="M 404.144802 529.401852 
L 239.833872 599.168094 
L 195.674003 618.096919 
" clip-path="url(#p2571e8813e)" style="fill: none; stroke: #7a7a7a; stroke-width: 3; stroke-linecap: square"/>
   </g>
   <g id="line2d_125">
    <path d="M 822.549108 416.009174 
L 821.991886 416.369723 
L 688.188877 471.714003 
" clip-path="url(#p2571e8813e)" style="fill: none; stroke: #7a7a7a; stroke-width: 3; stroke-linecap: square"/>
   </g>
   <g id="line2d_126">
    <path d="M 822.549108 357.239678 
L 821.991886 357.419953 
L 686.099294 413.84588 
" clip-path="url(#p2571e8813e)" style="fill: none; stroke: #7a7a7a; stroke-width: 3; stroke-linecap: square"/>
   </g>
   <g id="line2d_127">
    <path d="M 688.188877 471.714003 
L 432.911404 577.715425 
" clip-path="url(#p2571e8813e)" style="fill: none; stroke: #7a7a7a; stroke-width: 3; stroke-linecap: square"/>
   </g>
   <g id="line2d_128">
    <path d="M 686.099294 413.84588 
L 412.921053 525.796361 
L 412.154873 526.15691 
L 404.144802 529.401852 
" clip-path="url(#p2571e8813e)" style="fill: none; stroke: #7a7a7a; stroke-width: 3; stroke-linecap: square"/>
   </g>
   <g id="line2d_129">
    <path d="M 570.336358 957.734128 
L 568.734343 935.740635 
L 568.873649 917.713183 
L 569.500524 900.046279 
L 571.102538 883.100473 
L 573.818997 866.334942 
L 577.510595 850.831333 
L 585.102749 832.263057 
L 595.063098 819.103016 
L 603.142821 811.170937 
L 611.083239 805.221878 
L 698.98506 770.428894 
" clip-path="url(#p2571e8813e)" style="fill: none; stroke: #7a7a7a; stroke-width: 3; stroke-linecap: square"/>
   </g>
   <g id="line2d_130">
    <path d="M 599.938793 946.917656 
L 599.10296 938.084204 
L 599.172612 925.104438 
L 599.938793 909.781103 
L 601.053238 898.784357 
L 602.515946 889.590356 
L 605.232405 877.151414 
L 606.695114 872.644551 
L 609.759836 867.236315 
L 612.267337 863.991374 
L 620.138102 857.681765 
L 640.337411 848.127215 
L 700.865685 823.429605 
" clip-path="url(#p2571e8813e)" style="fill: none; stroke: #7a7a7a; stroke-width: 3; stroke-linecap: square"/>
   </g>
   <g id="line2d_131">
    <path d="M 509.320514 789.177445 
L 696.895476 712.019947 
" clip-path="url(#p2571e8813e)" style="fill: none; stroke: #7a7a7a; stroke-width: 3; stroke-linecap: square"/>
   </g>
   <g id="line2d_132">
    <path d="M 509.390167 845.423097 
L 698.98506 770.428894 
" clip-path="url(#p2571e8813e)" style="fill: none; stroke: #7a7a7a; stroke-width: 3; stroke-linecap: square"/>
   </g>
   <g id="line2d_133">
    <path d="M 195.674003 977.564326 
L 509.390167 845.423097 
" clip-path="url(#p2571e8813e)" style="fill: none; stroke: #7a7a7a; stroke-width: 3; stroke-linecap: square"/>
   </g>
   <g id="line2d_134">
    <path d="M 195.674003 1035.432449 
L 219.007688 1026.058173 
L 304.47166 988.921621 
L 509.45982 904.913691 
" clip-path="url(#p2571e8813e)" style="fill: none; stroke: #7a7a7a; stroke-width: 3; stroke-linecap: square"/>
   </g>
   <g id="line2d_135">
    <path d="M 698.98506 770.428894 
L 821.991886 716.707085 
L 822.549108 716.526811 
" clip-path="url(#p2571e8813e)" style="fill: none; stroke: #7a7a7a; stroke-width: 3; stroke-linecap: square"/>
   </g>
   <g id="line2d_136">
    <path d="M 700.865685 823.429605 
L 821.991886 772.231639 
L 822.549108 771.87109 
" clip-path="url(#p2571e8813e)" style="fill: none; stroke: #7a7a7a; stroke-width: 3; stroke-linecap: square"/>
   </g>
   <g id="line2d_137">
    <path d="M 509.390167 845.423097 
L 698.98506 770.428894 
" clip-path="url(#p2571e8813e)" style="fill: none; stroke: #7a7a7a; stroke-width: 3; stroke-linecap: square"/>
   </g>
   <g id="line2d_138">
    <path d="M 509.45982 904.913691 
L 620.138102 857.681765 
L 640.337411 848.127215 
L 700.865685 823.429605 
" clip-path="url(#p2571e8813e)" style="fill: none; stroke: #7a7a7a; stroke-width: 3; stroke-linecap: square"/>
   </g>
   <g id="line2d_139">
    <path d="M 509.390167 845.423097 
L 520.673919 844.882274 
L 529.032253 845.242823 
L 537.251283 850.110235 
L 543.659339 856.600118 
L 552.226632 868.678511 
L 556.4058 880.396356 
L 559.191911 890.491729 
L 570.336358 957.734128 
" clip-path="url(#p2571e8813e)" style="fill: none; stroke: #7a7a7a; stroke-width: 3; stroke-linecap: square"/>
   </g>
   <g id="line2d_140">
    <path d="M 509.45982 904.913691 
L 515.171348 907.798084 
L 516.355446 907.978358 
L 518.932599 909.24028 
L 520.673919 910.682476 
L 521.788363 911.583849 
L 524.574475 915.369614 
L 528.962601 924.203066 
L 534.465171 940.608048 
L 541.151839 965.485932 
L 541.778714 968.19005 
" clip-path="url(#p2571e8813e)" style="fill: none; stroke: #7a7a7a; stroke-width: 3; stroke-linecap: square"/>
   </g>
   <g id="line2d_141">
    <path d="M 885.202608 428.710958 
L 500.379449 613.760824 
" clip-path="url(#p2571e8813e)" style="fill: none; stroke-dasharray: 32,8,5,8; stroke-dashoffset: 0; stroke: #1e90ff; stroke-width: 5"/>
   </g>
   <g id="line2d_142">
    <path d="M 971.421742 336.41709 
L 609.618354 487.986772 
" clip-path="url(#p2571e8813e)" style="fill: none; stroke-dasharray: 32,8,5,8; stroke-dashoffset: 0; stroke: #1e90ff; stroke-width: 5"/>
   </g>
   <g id="line2d_143">
    <path d="M 1019.639634 691.587837 
L 1176.684908 494.557814 
" clip-path="url(#p2571e8813e)" style="fill: none; stroke-dasharray: 32,8,5,8; stroke-dashoffset: 0; stroke: #1e90ff; stroke-width: 5"/>
   </g>
   <g id="line2d_144">
    <path d="M 561.096072 758.583414 
L 920.154841 596.868889 
" clip-path="url(#p2571e8813e)" style="fill: none; stroke-dasharray: 32,8,5,8; stroke-dashoffset: 0; stroke: #1e90ff; stroke-width: 5"/>
   </g>
   <g id="line2d_145">
    <path d="M 1102.876078 357.670647 
L 688.084874 537.562267 
" clip-path="url(#p2571e8813e)" style="fill: none; stroke-dasharray: 32,8,5,8; stroke-dashoffset: 0; stroke: #1e90ff; stroke-width: 5"/>
   </g>
   <g id="line2d_146">
    <path d="M 426.1693 616.014255 
L 139.305579 770.053029 
" clip-path="url(#p2571e8813e)" style="fill: none; stroke-dasharray: 32,8,5,8; stroke-dashoffset: 0; stroke: #1e90ff; stroke-width: 5"/>
   </g>
   <g id="line2d_147">
    <path d="M 1335.520816 176.955997 
L 970.770448 311.919824 
" clip-path="url(#p2571e8813e)" style="fill: none; stroke-dasharray: 32,8,5,8; stroke-dashoffset: 0; stroke: #1e90ff; stroke-width: 5"/>
   </g>
   <g id="line2d_148">
    <path d="M 587.890969 519.543617 
L 168.340045 716.278757 
" clip-path="url(#p2571e8813e)" style="fill: none; stroke-dasharray: 32,8,5,8; stroke-dashoffset: 0; stroke: #1e90ff; stroke-width: 5"/>
   </g>
   <g id="line2d_149">
    <path d="M 664.401906 531.2597 
L 219.715779 733.087068 
" clip-path="url(#p2571e8813e)" style="fill: none; stroke-dasharray: 32,8,5,8; stroke-dashoffset: 0; stroke: #1e90ff; stroke-width: 5"/>
   </g>
   <g id="line2d_150">
    <path d="M 885.202608 428.710958 
" clip-path="url(#p2571e8813e)" style="fill: none; stroke: #0000ff; stroke-width: 1.5; stroke-linecap: square"/>
    <defs>
     <path id="m5717d704f6" d="M 0 10 
C 2.652031 10 5.195799 8.946337 7.071068 7.071068 
C 8.946337 5.195799 10 2.652031 10 0 
C 10 -2.652031 8.946337 -5.195799 7.071068 -7.071068 
C 5.195799 -8.946337 2.652031 -10 0 -10 
C -2.652031 -10 -5.195799 -8.946337 -7.071068 -7.071068 
C -8.946337 -5.195799 -10 -2.652031 -10 0 
C -10 2.652031 -8.946337 5.195799 -7.071068 7.071068 
C -5.195799 8.946337 -2.652031 10 0 10 
z
" style="stroke: #0000ff"/>
    </defs>
    <g clip-path="url(#p2571e8813e)">
     <use xlink:href="#m5717d704f6" x="885.202608" y="428.710958" style="fill: #0000ff; stroke: #0000ff"/>
    </g>
   </g>
   <g id="line2d_151">
    <path d="M 971.421742 336.41709 
" clip-path="url(#p2571e8813e)" style="fill: none; stroke: #0000ff; stroke-width: 1.5; stroke-linecap: square"/>
    <g clip-path="url(#p2571e8813e)">
     <use xlink:href="#m5717d704f6" x="971.421742" y="336.41709" style="fill: #0000ff; stroke: #0000ff"/>
    </g>
   </g>
   <g id="line2d_152">
    <path d="M 1019.639634 691.587837 
" clip-path="url(#p2571e8813e)" style="fill: none; stroke: #0000ff; stroke-width: 1.5; stroke-linecap: square"/>
    <g clip-path="url(#p2571e8813e)">
     <use xlink:href="#m5717d704f6" x="1019.639634" y="691.587837" style="fill: #0000ff; stroke: #0000ff"/>
    </g>
   </g>
   <g id="line2d_153">
    <path d="M 561.096072 758.583414 
" clip-path="url(#p2571e8813e)" style="fill: none; stroke: #0000ff; stroke-width: 1.5; stroke-linecap: square"/>
    <g clip-path="url(#p2571e8813e)">
     <use xlink:href="#m5717d704f6" x="561.096072" y="758.583414" style="fill: #0000ff; stroke: #0000ff"/>
    </g>
   </g>
   <g id="line2d_154">
    <path d="M 1102.876078 357.670647 
" clip-path="url(#p2571e8813e)" style="fill: none; stroke: #0000ff; stroke-width: 1.5; stroke-linecap: square"/>
    <g clip-path="url(#p2571e8813e)">
     <use xlink:href="#m5717d704f6" x="1102.876078" y="357.670647" style="fill: #0000ff; stroke: #0000ff"/>
    </g>
   </g>
   <g id="line2d_155">
    <path d="M 426.1693 616.014255 
" clip-path="url(#p2571e8813e)" style="fill: none; stroke: #0000ff; stroke-width: 1.5; stroke-linecap: square"/>
    <g clip-path="url(#p2571e8813e)">
     <use xlink:href="#m5717d704f6" x="426.1693" y="616.014255" style="fill: #0000ff; stroke: #0000ff"/>
    </g>
   </g>
   <g id="line2d_156">
    <path d="M 1335.520816 176.955997 
" clip-path="url(#p2571e8813e)" style="fill: none; stroke: #0000ff; stroke-width: 1.5; stroke-linecap: square"/>
    <g clip-path="url(#p2571e8813e)">
     <use xlink:href="#m5717d704f6" x="1335.520816" y="176.955997" style="fill: #0000ff; stroke: #0000ff"/>
    </g>
   </g>
   <g id="line2d_157">
    <path d="M 587.890969 519.543617 
" clip-path="url(#p2571e8813e)" style="fill: none; stroke: #0000ff; stroke-width: 1.5; stroke-linecap: square"/>
    <g clip-path="url(#p2571e8813e)">
     <use xlink:href="#m5717d704f6" x="587.890969" y="519.543617" style="fill: #0000ff; stroke: #0000ff"/>
    </g>
   </g>
   <g id="line2d_158">
    <path d="M 664.401906 531.2597 
" clip-path="url(#p2571e8813e)" style="fill: none; stroke: #0000ff; stroke-width: 1.5; stroke-linecap: square"/>
    <g clip-path="url(#p2571e8813e)">
     <use xlink:href="#m5717d704f6" x="664.401906" y="531.2597" style="fill: #0000ff; stroke: #0000ff"/>
    </g>
   </g>
   <g id="line2d_159">
    <path d="M 500.379449 613.760824 
" clip-path="url(#p2571e8813e)" style="fill: none; stroke: #ff0000; stroke-width: 1.5; stroke-linecap: square"/>
    <defs>
     <path id="med92036b04" d="M 0 -10 
L -2.24514 -3.09017 
L -9.510565 -3.09017 
L -3.632713 1.18034 
L -5.877853 8.09017 
L -0 3.81966 
L 5.877853 8.09017 
L 3.632713 1.18034 
L 9.510565 -3.09017 
L 2.24514 -3.09017 
z
" style="stroke: #ff0000; stroke-linejoin: bevel"/>
    </defs>
    <g clip-path="url(#p2571e8813e)">
     <use xlink:href="#med92036b04" x="500.379449" y="613.760824" style="fill: #ff0000; stroke: #ff0000; stroke-linejoin: bevel"/>
    </g>
   </g>
   <g id="line2d_160">
    <path d="M 609.618354 487.986772 
" clip-path="url(#p2571e8813e)" style="fill: none; stroke: #ff0000; stroke-width: 1.5; stroke-linecap: square"/>
    <g clip-path="url(#p2571e8813e)">
     <use xlink:href="#med92036b04" x="609.618354" y="487.986772" style="fill: #ff0000; stroke: #ff0000; stroke-linejoin: bevel"/>
    </g>
   </g>
   <g id="line2d_161">
    <path d="M 1176.684908 494.557814 
" clip-path="url(#p2571e8813e)" style="fill: none; stroke: #ff0000; stroke-width: 1.5; stroke-linecap: square"/>
    <g clip-path="url(#p2571e8813e)">
     <use xlink:href="#med92036b04" x="1176.684908" y="494.557814" style="fill: #ff0000; stroke: #ff0000; stroke-linejoin: bevel"/>
    </g>
   </g>
   <g id="line2d_162">
    <path d="M 920.154841 596.868889 
" clip-path="url(#p2571e8813e)" style="fill: none; stroke: #ff0000; stroke-width: 1.5; stroke-linecap: square"/>
    <g clip-path="url(#p2571e8813e)">
     <use xlink:href="#med92036b04" x="920.154841" y="596.868889" style="fill: #ff0000; stroke: #ff0000; stroke-linejoin: bevel"/>
    </g>
   </g>
   <g id="line2d_163">
    <path d="M 688.084874 537.562267 
" clip-path="url(#p2571e8813e)" style="fill: none; stroke: #ff0000; stroke-width: 1.5; stroke-linecap: square"/>
    <g clip-path="url(#p2571e8813e)">
     <use xlink:href="#med92036b04" x="688.084874" y="537.562267" style="fill: #ff0000; stroke: #ff0000; stroke-linejoin: bevel"/>
    </g>
   </g>
   <g id="line2d_164">
    <path d="M 139.305579 770.053029 
" clip-path="url(#p2571e8813e)" style="fill: none; stroke: #ff0000; stroke-width: 1.5; stroke-linecap: square"/>
    <g clip-path="url(#p2571e8813e)">
     <use xlink:href="#med92036b04" x="139.305579" y="770.053029" style="fill: #ff0000; stroke: #ff0000; stroke-linejoin: bevel"/>
    </g>
   </g>
   <g id="line2d_165">
    <path d="M 970.770448 311.919824 
" clip-path="url(#p2571e8813e)" style="fill: none; stroke: #ff0000; stroke-width: 1.5; stroke-linecap: square"/>
    <g clip-path="url(#p2571e8813e)">
     <use xlink:href="#med92036b04" x="970.770448" y="311.919824" style="fill: #ff0000; stroke: #ff0000; stroke-linejoin: bevel"/>
    </g>
   </g>
   <g id="line2d_166">
    <path d="M 168.340045 716.278757 
" clip-path="url(#p2571e8813e)" style="fill: none; stroke: #ff0000; stroke-width: 1.5; stroke-linecap: square"/>
    <g clip-path="url(#p2571e8813e)">
     <use xlink:href="#med92036b04" x="168.340045" y="716.278757" style="fill: #ff0000; stroke: #ff0000; stroke-linejoin: bevel"/>
    </g>
   </g>
   <g id="line2d_167">
    <path d="M 219.715779 733.087068 
" clip-path="url(#p2571e8813e)" style="fill: none; stroke: #ff0000; stroke-width: 1.5; stroke-linecap: square"/>
    <g clip-path="url(#p2571e8813e)">
     <use xlink:href="#med92036b04" x="219.715779" y="733.087068" style="fill: #ff0000; stroke: #ff0000; stroke-linejoin: bevel"/>
    </g>
   </g>
  </g>
 </g>
 <defs>
  <clipPath id="p2571e8813e">
   <rect x="0" y="0" width="1440" height="1440"/>
  </clipPath>
 </defs>
</svg>
