<?xml version="1.0" encoding="utf-8" standalone="no"?>
<!DOCTYPE svg PUBLIC "-//W3C//DTD SVG 1.1//EN"
  "http://www.w3.org/Graphics/SVG/1.1/DTD/svg11.dtd">
<svg xmlns:xlink="http://www.w3.org/1999/xlink" width="1440pt" height="1440pt" viewBox="0 0 1440 1440" xmlns="http://www.w3.org/2000/svg" version="1.1">
 <metadata>
  <rdf:RDF xmlns:dc="http://purl.org/dc/elements/1.1/" xmlns:cc="http://creativecommons.org/ns#" xmlns:rdf="http://www.w3.org/1999/02/22-rdf-syntax-ns#">
   <cc:Work>
    <dc:type rdf:resource="http://purl.org/dc/dcmitype/StillImage"/>
    <dc:date>2026-02-27T11:10:26.727179</dc:date>
    <dc:format>image/svg+xml</dc:format>
    <dc:creator>
     <cc:Agent>
      <dc:title>Matplotlib v3.7.3, https://matplotlib.org/</dc:title>
     </cc:Agent>
    </dc:creator>
   </cc:Work>
  </rdf:RDF>
 </metadata>
 <defs>
  <style type="text/css">*{stroke-linejoin: round; stroke-linecap: butt}</style>
 </defs>
 <g id="figure_1">
  <g id="patch_1">
   <path d="M 0 1440 
L 1440 1440 
L 1440 0 
L 0 0 
z
" style="fill: #ffffff"/>
  </g>
  <g id="axes_1">
   <g id="line2d_1">
    <path clip-path="url(#pec55dafcb8)" style="fill: none; stroke: #7a7a7a; stroke-width: 3; stroke-linecap: square"/>
   </g>
   <g id="line2d_2">
    <path clip-path="url(#pec55dafcb8)" style="fill: none; stroke: #7a7a7a; stroke-width: 3; stroke-linecap: square"/>
   </g>
   <g id="line2d_3">
    <path clip-path="url(#pec55dafcb8)" style="fill: none; stroke: #7a7a7a; stroke-width: 3; stroke-linecap: square"/>
   </g>
   <g id="line2d_4">
    <path clip-path="url(#pec55dafcb8)" style="fill: none; stroke: #7a7a7a; stroke-width: 3; stroke-linecap: square"/>
   </g>
   <g id="line2d_5">
    <path clip-path="url(#pec55dafcb8)" style="fill: none; stroke: #7a7a7a; stroke-width: 3; stroke-linecap: square"/>
   </g>
   <g id="line2d_6">
    <path clip-path="url(#pec55dafcb8)" style="fill: none; stroke: #7a7a7a; stroke-width: 3; stroke-linecap: square"/>
   </g>
   <g id="line2d_7">
    <path clip-path="url(#pec55dafcb8)" style="fill: none; stroke: #7a7a7a; stroke-width: 3; stroke-linecap: square"/>
   </g>
   <g id="line2d_8">
    <path clip-path="url(#pec55dafcb8)" style="fill: none; stroke: #7a7a7a; stroke-width: 3; stroke-linecap: square"/>
   </g>
   <g id="line2d_9">
    <path clip-path="url(#pec55dafcb8)" style="fill: none; stroke: #7a7a7a; stroke-width: 3; stroke-linecap: square"/>
   </g>
   <g id="line2d_10">
    <path clip-path="url(#pec55dafcb8)" style="fill: none; stroke: #7a7a7a; stroke-width: 3; stroke-linecap: square"/>
   </g>
   <g id="line2d_11">
    <path clip-path="url(#pec55dafcb8)" style="fill: none; stroke: #7a7a7a; stroke-width: 3; stroke-linecap: square"/>
   </g>
   <g id="line2d_12">
    <path clip-path="url(#pec55dafcb8)" style="fill: none; stroke: #7a7a7a; stroke-width: 3; stroke-linecap: square"/>
   </g>
   <g id="line2d_13">
    <path clip-path="url(#pec55dafcb8)" style="fill: none; stroke: #7a7a7a; stroke-width: 3; stroke-linecap: square"/>
   </g>
   <g id="line2d_14">
    <path clip-path="url(#pec55dafcb8)" style="fill: none; stroke: #7a7a7a; stroke-width: 3; stroke-linecap: square"/>
   </g>
   <g id="line2d_15">
    <path d="M 1401.602231 1117.844171 
L 1306.400281 1041.345625 
" clip-path="url(#pec55dafcb8)" style="fill: none; stroke: #7a7a7a; stroke-width: 3; stroke-linecap: square"/>
   </g>
   <g id="line2d_16">
    <path d="M 1414.752832 1049.717164 
L 1374.251781 1017.53004 
L 1347.390981 995.590834 
L 1319.480931 972.20826 
" clip-path="url(#pec55dafcb8)" style="fill: none; stroke: #7a7a7a; stroke-width: 3; stroke-linecap: square"/>
   </g>
   <g id="line2d_17">
    <path d="M 1306.400281 1041.345625 
L 1316.263231 1049.284153 
L 1325.006981 1065.16121 
L 1332.211831 1086.811742 
L 1337.388131 1112.215033 
L 1339.836381 1138.917356 
L 1339.276781 1165.042331 
L 1331.232531 1209.353753 
" clip-path="url(#pec55dafcb8)" style="fill: none; stroke: #7a7a7a; stroke-width: 3; stroke-linecap: square"/>
   </g>
   <g id="line2d_18">
    <path d="M 1292.550181 1114.524423 
L 1303.112631 1127.659079 
L 1308.498781 1148.154916 
L 1307.519481 1166.774374 
L 1303.742181 1187.847558 
" clip-path="url(#pec55dafcb8)" style="fill: none; stroke: #7a7a7a; stroke-width: 3; stroke-linecap: square"/>
   </g>
   <g id="line2d_19">
    <path d="M 579.270026 457.069935 
L 1011.141329 803.622784 
L 1306.400281 1041.345625 
" clip-path="url(#pec55dafcb8)" style="fill: none; stroke: #7a7a7a; stroke-width: 3; stroke-linecap: square"/>
   </g>
   <g id="line2d_20">
    <path d="M 579.270026 540.640988 
L 1292.550181 1114.524423 
" clip-path="url(#pec55dafcb8)" style="fill: none; stroke: #7a7a7a; stroke-width: 3; stroke-linecap: square"/>
   </g>
   <g id="line2d_21">
    <path d="M 1401.602231 1117.844171 
L 1390.270331 1109.039622 
L 1376.909881 1109.616969 
L 1363.269631 1117.844171 
L 1351.028381 1132.277859 
L 1342.004831 1151.041654 
L 1337.807831 1172.547849 
L 1331.232531 1209.353753 
" clip-path="url(#pec55dafcb8)" style="fill: none; stroke: #7a7a7a; stroke-width: 3; stroke-linecap: square"/>
   </g>
   <g id="line2d_22">
    <path d="M 1414.752832 1049.717164 
L 1399.573681 1037.592866 
L 1393.138281 1035.283476 
L 1380.267481 1036.438171 
L 1366.907031 1042.50032 
L 1353.546581 1052.892575 
L 1340.955581 1067.03759 
L 1329.693631 1084.502352 
L 1320.390281 1104.709515 
L 1313.745031 1127.081732 
L 1310.247531 1151.041654 
L 1303.742181 1187.847558 
" clip-path="url(#pec55dafcb8)" style="fill: none; stroke: #7a7a7a; stroke-width: 3; stroke-linecap: square"/>
   </g>
   <g id="line2d_23">
    <path d="M 1306.400281 1041.345625 
L 1401.602231 1117.844171 
" clip-path="url(#pec55dafcb8)" style="fill: none; stroke: #7a7a7a; stroke-width: 3; stroke-linecap: square"/>
   </g>
   <g id="line2d_24">
    <path d="M 1292.550181 1114.524423 
L 1390.550131 1193.188023 
" clip-path="url(#pec55dafcb8)" style="fill: none; stroke: #7a7a7a; stroke-width: 3; stroke-linecap: square"/>
   </g>
   <g id="line2d_25">
    <path d="M 1401.602231 1117.844171 
L 1441 1150.335982 
" clip-path="url(#pec55dafcb8)" style="fill: none; stroke: #7a7a7a; stroke-width: 3; stroke-linecap: square"/>
   </g>
   <g id="line2d_26">
    <path d="M 1390.550131 1193.188023 
L 1391.039781 1193.33236 
L 1398.104731 1197.806803 
L 1415.592232 1212.962175 
L 1419.229632 1215.848913 
L 1441 1233.478904 
" clip-path="url(#pec55dafcb8)" style="fill: none; stroke: #7a7a7a; stroke-width: 3; stroke-linecap: square"/>
   </g>
   <g id="line2d_27">
    <path d="M 1331.232531 1209.353753 
L 1337.807831 1172.547849 
L 1342.004831 1151.041654 
L 1351.028381 1132.277859 
L 1363.269631 1117.844171 
L 1376.909881 1109.616969 
L 1390.270331 1109.039622 
L 1401.602231 1117.844171 
" clip-path="url(#pec55dafcb8)" style="fill: none; stroke: #7a7a7a; stroke-width: 3; stroke-linecap: square"/>
   </g>
   <g id="line2d_28">
    <path d="M 1359.352431 1231.292959 
L 1364.598681 1207.333037 
L 1368.935581 1195.064402 
L 1378.099031 1189.002253 
L 1390.550131 1193.188023 
" clip-path="url(#pec55dafcb8)" style="fill: none; stroke: #7a7a7a; stroke-width: 3; stroke-linecap: square"/>
   </g>
   <g id="line2d_29">
    <path d="M 1286.718464 1441 
L 1331.232531 1209.353753 
" clip-path="url(#pec55dafcb8)" style="fill: none; stroke: #7a7a7a; stroke-width: 3; stroke-linecap: square"/>
   </g>
   <g id="line2d_30">
    <path d="M 1319.56932 1441 
L 1322.208981 1427.446779 
L 1323.747881 1418.497893 
L 1328.924181 1392.22858 
L 1335.709331 1356.14436 
L 1348.020531 1288.739037 
L 1358.023381 1236.777761 
L 1359.352431 1231.292959 
" clip-path="url(#pec55dafcb8)" style="fill: none; stroke: #7a7a7a; stroke-width: 3; stroke-linecap: square"/>
   </g>
   <g id="line2d_31">
    <path d="M 1306.400281 1041.345625 
L 1011.141329 803.622784 
L 579.270026 457.069935 
" clip-path="url(#pec55dafcb8)" style="fill: none; stroke: #7a7a7a; stroke-width: 3; stroke-linecap: square"/>
   </g>
   <g id="line2d_32">
    <path d="M 1319.480931 972.20826 
L 1301.643681 957.341561 
L 1146.14483 834.510876 
L 1124.11058 815.169734 
L 909.434028 642.398489 
L 579.270026 374.653576 
" clip-path="url(#pec55dafcb8)" style="fill: none; stroke: #7a7a7a; stroke-width: 3; stroke-linecap: square"/>
   </g>
   <g id="line2d_33">
    <path d="M 1331.232531 1209.353753 
L 1339.276781 1165.042331 
L 1339.836381 1138.917356 
L 1337.388131 1112.215033 
L 1332.211831 1086.811742 
L 1325.006981 1065.16121 
L 1316.263231 1049.284153 
L 1306.400281 1041.345625 
" clip-path="url(#pec55dafcb8)" style="fill: none; stroke: #7a7a7a; stroke-width: 3; stroke-linecap: square"/>
   </g>
   <g id="line2d_34">
    <path d="M 1359.352431 1231.292959 
L 1369.914881 1182.362757 
L 1372.433081 1153.928391 
L 1372.293181 1123.90632 
L 1369.705031 1093.739912 
L 1365.018381 1064.439526 
L 1358.443081 1037.304192 
L 1350.328881 1013.34427 
L 1340.955581 993.714455 
L 1334.170431 984.621231 
L 1319.480931 972.20826 
" clip-path="url(#pec55dafcb8)" style="fill: none; stroke: #7a7a7a; stroke-width: 3; stroke-linecap: square"/>
   </g>
   <g id="line2d_35">
    <path d="M 1331.232531 1209.353753 
L 1286.718464 1441 
" clip-path="url(#pec55dafcb8)" style="fill: none; stroke: #7a7a7a; stroke-width: 3; stroke-linecap: square"/>
   </g>
   <g id="line2d_36">
    <path d="M 1303.742181 1187.847558 
L 1303.042681 1192.033328 
L 1292.620131 1245.293637 
L 1255.477058 1441 
" clip-path="url(#pec55dafcb8)" style="fill: none; stroke: #7a7a7a; stroke-width: 3; stroke-linecap: square"/>
   </g>
   <g id="line2d_37">
    <path d="M 176.917623 136.497724 
L 219.796973 168.540512 
L 240.082474 177.922409 
L 253.722724 181.386494 
L 266.103874 179.654451 
L 280.513574 170.128217 
L 296.741974 151.653097 
L 307.724124 135.920377 
L 315.558524 114.414182 
L 322.413624 90.598596 
L 328.429324 64.762295 
" clip-path="url(#pec55dafcb8)" style="fill: none; stroke: #7a7a7a; stroke-width: 3; stroke-linecap: square"/>
   </g>
   <g id="line2d_38">
    <path d="M 160.759173 204.769068 
L 189.228823 231.615728 
L 206.156723 243.307015 
L 222.315173 251.389881 
L 237.634224 256.008661 
L 252.113874 257.163356 
L 265.754124 255.14264 
L 278.624924 250.090849 
L 290.656324 242.007983 
L 301.848324 231.182717 
L 312.200924 217.615051 
L 321.644174 201.44932 
L 330.317974 182.829863 
L 338.152374 161.901015 
L 345.147374 138.807114 
L 351.233024 113.692497 
L 356.479274 86.557164 
" clip-path="url(#pec55dafcb8)" style="fill: none; stroke: #7a7a7a; stroke-width: 3; stroke-linecap: square"/>
   </g>
   <g id="line2d_39">
    <path d="M 328.429324 64.762295 
L 318.846174 115.85755 
L 314.649174 143.281558 
L 313.739824 170.416891 
L 315.768374 196.253193 
L 320.385074 219.924441 
L 327.240174 240.997625 
L 335.983924 258.318051 
L 346.266574 271.30837 
" clip-path="url(#pec55dafcb8)" style="fill: none; stroke: #7a7a7a; stroke-width: 3; stroke-linecap: square"/>
   </g>
   <g id="line2d_40">
    <path d="M 300.169524 42.678752 
L 286.948974 113.11515 
L 283.101724 144.436253 
L 281.702724 174.891334 
L 282.402224 203.903047 
L 285.060324 231.182717 
L 289.607074 256.586008 
L 295.832624 279.535572 
L 303.457174 299.887072 
L 312.410774 317.351835 
L 322.483574 331.496849 
L 333.535674 342.033441 
" clip-path="url(#pec55dafcb8)" style="fill: none; stroke: #7a7a7a; stroke-width: 3; stroke-linecap: square"/>
   </g>
   <g id="line2d_41">
    <path d="M 346.266574 271.30837 
L 577.311426 455.482229 
L 577.451326 455.626566 
L 577.731126 455.770903 
L 579.270026 457.069935 
" clip-path="url(#pec55dafcb8)" style="fill: none; stroke: #7a7a7a; stroke-width: 3; stroke-linecap: square"/>
   </g>
   <g id="line2d_42">
    <path d="M 333.535674 342.033441 
L 370.679124 372.344186 
L 399.918225 396.159771 
L 515.195825 488.391038 
L 577.241476 539.053283 
L 577.381376 539.197619 
L 577.731126 539.486293 
L 579.270026 540.640988 
" clip-path="url(#pec55dafcb8)" style="fill: none; stroke: #7a7a7a; stroke-width: 3; stroke-linecap: square"/>
   </g>
   <g id="line2d_43">
    <path d="M 196.153873 317.063161 
L 204.827673 279.246899 
L 209.234523 269.431991 
L 310.941824 134.043997 
L 314.159524 129.569554 
L 316.607774 122.785721 
L 328.429324 64.762295 
" clip-path="url(#pec55dafcb8)" style="fill: none; stroke: #7a7a7a; stroke-width: 3; stroke-linecap: square"/>
   </g>
   <g id="line2d_44">
    <path d="M 224.833373 340.590073 
L 228.121024 324.424342 
L 231.408674 312.733055 
L 234.346574 304.650189 
L 237.494324 297.577682 
L 240.292324 292.525891 
L 243.230224 288.628796 
L 328.149524 176.623377 
L 336.613474 165.509437 
L 341.020324 157.859582 
L 344.168074 150.065391 
L 348.644874 128.84787 
L 350.253724 119.465972 
L 356.479274 86.557164 
" clip-path="url(#pec55dafcb8)" style="fill: none; stroke: #7a7a7a; stroke-width: 3; stroke-linecap: square"/>
   </g>
   <g id="line2d_45">
    <path d="M 328.429324 64.762295 
L 316.607774 122.785721 
L 314.159524 129.569554 
L 310.941824 134.043997 
L 209.234523 269.431991 
L 204.827673 279.246899 
L 196.153873 317.063161 
" clip-path="url(#pec55dafcb8)" style="fill: none; stroke: #7a7a7a; stroke-width: 3; stroke-linecap: square"/>
   </g>
   <g id="line2d_46">
    <path d="M 300.169524 42.678752 
L 291.705574 82.804405 
L 289.746974 90.598596 
L 287.648474 97.526767 
L 284.570674 104.887947 
L 281.283024 110.950096 
L 276.946124 116.434898 
L 187.340173 226.852611 
L 183.772723 235.079813 
L 179.295923 246.626764 
L 173.839823 273.473423 
L 169.432973 295.268292 
" clip-path="url(#pec55dafcb8)" style="fill: none; stroke: #7a7a7a; stroke-width: 3; stroke-linecap: square"/>
   </g>
   <g id="line2d_47">
    <path d="M 328.429324 64.762295 
L 322.413624 90.598596 
L 315.558524 114.414182 
L 307.724124 135.920377 
L 296.741974 151.653097 
L 280.513574 170.128217 
L 266.103874 179.654451 
L 253.722724 181.386494 
L 240.082474 177.922409 
L 219.796973 168.540512 
L 176.917623 136.497724 
" clip-path="url(#pec55dafcb8)" style="fill: none; stroke: #7a7a7a; stroke-width: 3; stroke-linecap: square"/>
   </g>
   <g id="line2d_48">
    <path d="M 300.169524 42.678752 
L 291.705574 82.804405 
L 289.746974 90.598596 
L 287.648474 97.526767 
L 284.570674 104.887947 
L 281.283024 110.950096 
L 276.946124 116.434898 
L 273.378674 119.610309 
L 269.811224 121.342352 
L 266.943274 121.775362 
L 264.425074 121.631026 
L 260.507874 120.187657 
L 254.492174 116.579235 
L 237.354424 103.011568 
L 191.047523 64.617958 
" clip-path="url(#pec55dafcb8)" style="fill: none; stroke: #7a7a7a; stroke-width: 3; stroke-linecap: square"/>
   </g>
   <g id="line2d_49">
    <path d="M 579.270026 457.069935 
L 577.731126 455.770903 
L 577.451326 455.626566 
L 577.311426 455.482229 
L 346.266574 271.30837 
" clip-path="url(#pec55dafcb8)" style="fill: none; stroke: #7a7a7a; stroke-width: 3; stroke-linecap: square"/>
   </g>
   <g id="line2d_50">
    <path d="M 579.270026 374.653576 
L 577.801076 373.354544 
L 577.311426 373.065871 
L 420.833275 247.637122 
L 392.433575 225.264905 
L 370.749074 208.954838 
L 367.041724 206.0681 
L 362.844724 201.737994 
L 361.445724 200.005951 
" clip-path="url(#pec55dafcb8)" style="fill: none; stroke: #7a7a7a; stroke-width: 3; stroke-linecap: square"/>
   </g>
   <g id="line2d_51">
    <path d="M 196.153873 317.063161 
L 202.729173 284.010016 
L 210.423673 258.029377 
L 219.027523 238.543898 
L 228.680624 224.976232 
L 239.243074 216.749029 
L 250.644924 213.429281 
L 262.816224 214.295303 
L 275.756974 218.769746 
L 289.467174 226.4196 
L 346.266574 271.30837 
" clip-path="url(#pec55dafcb8)" style="fill: none; stroke: #7a7a7a; stroke-width: 3; stroke-linecap: square"/>
   </g>
   <g id="line2d_52">
    <path d="M 224.833373 340.590073 
L 228.121024 324.424342 
L 231.408674 312.733055 
L 234.346574 304.650189 
L 237.494324 297.577682 
L 240.292324 292.525891 
L 243.230224 288.628796 
L 246.098174 285.886395 
L 249.595674 283.721342 
L 252.813374 282.710984 
L 256.101024 282.566647 
L 261.766974 284.587363 
L 270.580674 290.793849 
L 333.535674 342.033441 
" clip-path="url(#pec55dafcb8)" style="fill: none; stroke: #7a7a7a; stroke-width: 3; stroke-linecap: square"/>
   </g>
   <g id="line2d_53">
    <path d="M 346.266574 271.30837 
L 335.983924 258.318051 
L 327.240174 240.997625 
L 320.385074 219.924441 
L 315.768374 196.253193 
L 313.739824 170.416891 
L 314.649174 143.281558 
L 318.846174 115.85755 
L 328.429324 64.762295 
" clip-path="url(#pec55dafcb8)" style="fill: none; stroke: #7a7a7a; stroke-width: 3; stroke-linecap: square"/>
   </g>
   <g id="line2d_54">
    <path d="M 361.445724 200.005951 
L 359.557074 197.552224 
L 355.989624 191.778749 
L 353.121674 185.860937 
L 350.953224 180.087462 
L 349.204474 173.592302 
L 348.225174 167.818827 
L 347.315824 159.591625 
L 346.966074 150.065391 
L 347.105974 145.879621 
L 346.896124 137.796756 
L 350.253724 119.465972 
L 356.479274 86.557164 
" clip-path="url(#pec55dafcb8)" style="fill: none; stroke: #7a7a7a; stroke-width: 3; stroke-linecap: square"/>
   </g>
   <g id="line2d_55">
    <path d="M 346.266574 271.30837 
L 176.917623 136.497724 
" clip-path="url(#pec55dafcb8)" style="fill: none; stroke: #7a7a7a; stroke-width: 3; stroke-linecap: square"/>
   </g>
   <g id="line2d_56">
    <path d="M 361.445724 200.005951 
L 262.956124 121.053678 
L 260.507874 120.187657 
L 254.492174 116.579235 
L 237.354424 103.011568 
L 191.047523 64.617958 
" clip-path="url(#pec55dafcb8)" style="fill: none; stroke: #7a7a7a; stroke-width: 3; stroke-linecap: square"/>
   </g>
   <g id="line2d_57">
    <path d="M 346.266574 271.30837 
L 289.467174 226.4196 
L 275.756974 218.769746 
L 262.816224 214.295303 
L 250.644924 213.429281 
L 239.243074 216.749029 
L 228.680624 224.976232 
L 219.027523 238.543898 
L 210.423673 258.029377 
L 202.729173 284.010016 
L 196.153873 317.063161 
" clip-path="url(#pec55dafcb8)" style="fill: none; stroke: #7a7a7a; stroke-width: 3; stroke-linecap: square"/>
   </g>
   <g id="line2d_58">
    <path d="M 361.445724 200.005951 
L 304.576374 155.117182 
L 289.467174 144.869263 
L 275.127424 138.662777 
L 261.557124 136.353387 
L 248.756274 137.941093 
L 236.724874 143.137221 
L 225.532874 151.797433 
L 215.110323 163.633058 
L 205.457223 178.644093 
L 196.643523 196.686203 
L 188.599273 217.615051 
L 181.394423 240.997625 
L 175.028973 266.978264 
L 174.329473 270.442349 
L 173.839823 273.473423 
L 169.432973 295.268292 
" clip-path="url(#pec55dafcb8)" style="fill: none; stroke: #7a7a7a; stroke-width: 3; stroke-linecap: square"/>
   </g>
   <g id="line2d_59">
    <path d="M 176.917623 136.497724 
L 346.266574 271.30837 
" clip-path="url(#pec55dafcb8)" style="fill: none; stroke: #7a7a7a; stroke-width: 3; stroke-linecap: square"/>
   </g>
   <g id="line2d_60">
    <path d="M 160.759173 204.769068 
L 259.178824 283.721342 
L 261.766974 284.587363 
L 270.580674 290.793849 
L 333.535674 342.033441 
" clip-path="url(#pec55dafcb8)" style="fill: none; stroke: #7a7a7a; stroke-width: 3; stroke-linecap: square"/>
   </g>
   <g id="line2d_61">
    <path clip-path="url(#pec55dafcb8)" style="fill: none; stroke: #7a7a7a; stroke-width: 3; stroke-linecap: square"/>
   </g>
   <g id="line2d_62">
    <path clip-path="url(#pec55dafcb8)" style="fill: none; stroke: #7a7a7a; stroke-width: 3; stroke-linecap: square"/>
   </g>
   <g id="line2d_63">
    <path d="M 1441 1150.335982 
L 1401.602231 1117.844171 
" clip-path="url(#pec55dafcb8)" style="fill: none; stroke: #7a7a7a; stroke-width: 3; stroke-linecap: square"/>
   </g>
   <g id="line2d_64">
    <path d="M 1441 1070.55834 
L 1414.752832 1049.717164 
" clip-path="url(#pec55dafcb8)" style="fill: none; stroke: #7a7a7a; stroke-width: 3; stroke-linecap: square"/>
   </g>
   <g id="line2d_65">
    <path clip-path="url(#pec55dafcb8)" style="fill: none; stroke: #7a7a7a; stroke-width: 3; stroke-linecap: square"/>
   </g>
   <g id="line2d_66">
    <path clip-path="url(#pec55dafcb8)" style="fill: none; stroke: #7a7a7a; stroke-width: 3; stroke-linecap: square"/>
   </g>
   <g id="line2d_67">
    <path d="M 1335.074999 986.068265 
L 841.299039 603.476865 
" clip-path="url(#pec55dafcb8)" style="fill: none; stroke-dasharray: 32,8,5,8; stroke-dashoffset: 0; stroke: #1e90ff; stroke-width: 5"/>
   </g>
   <g id="line2d_68">
    <path d="M 660.322198 442.944372 
L 234.701379 154.274136 
" clip-path="url(#pec55dafcb8)" style="fill: none; stroke-dasharray: 32,8,5,8; stroke-dashoffset: 0; stroke: #1e90ff; stroke-width: 5"/>
   </g>
   <g id="line2d_69">
    <path d="M 1175.153177 1005.269721 
L 1188.268802 1006.98936 
" clip-path="url(#pec55dafcb8)" style="fill: none; stroke-dasharray: 32,8,5,8; stroke-dashoffset: 0; stroke: #1e90ff; stroke-width: 5"/>
   </g>
   <g id="line2d_70">
    <path d="M 645.673001 602.324566 
L 674.672536 612.321727 
" clip-path="url(#pec55dafcb8)" style="fill: none; stroke-dasharray: 32,8,5,8; stroke-dashoffset: 0; stroke: #1e90ff; stroke-width: 5"/>
   </g>
   <g id="line2d_71">
    <path d="M 993.966281 726.723505 
L 449.582452 301.299713 
" clip-path="url(#pec55dafcb8)" style="fill: none; stroke-dasharray: 32,8,5,8; stroke-dashoffset: 0; stroke: #1e90ff; stroke-width: 5"/>
   </g>
   <g id="line2d_72">
    <path d="M 1335.074999 986.068265 
" clip-path="url(#pec55dafcb8)" style="fill: none; stroke: #0000ff; stroke-width: 1.5; stroke-linecap: square"/>
    <defs>
     <path id="m7d6a63c21a" d="M 0 10 
C 2.652031 10 5.195799 8.946337 7.071068 7.071068 
C 8.946337 5.195799 10 2.652031 10 0 
C 10 -2.652031 8.946337 -5.195799 7.071068 -7.071068 
C 5.195799 -8.946337 2.652031 -10 0 -10 
C -2.652031 -10 -5.195799 -8.946337 -7.071068 -7.071068 
C -8.946337 -5.195799 -10 -2.652031 -10 0 
C -10 2.652031 -8.946337 5.195799 -7.071068 7.071068 
C -5.195799 8.946337 -2.652031 10 0 10 
z
" style="stroke: #0000ff"/>
    </defs>
    <g clip-path="url(#pec55dafcb8)">
     <use xlink:href="#m7d6a63c21a" x="1335.074999" y="986.068265" style="fill: #0000ff; stroke: #0000ff"/>
    </g>
   </g>
   <g id="line2d_73">
    <path d="M 660.322198 442.944372 
" clip-path="url(#pec55dafcb8)" style="fill: none; stroke: #0000ff; stroke-width: 1.5; stroke-linecap: square"/>
    <g clip-path="url(#pec55dafcb8)">
     <use xlink:href="#m7d6a63c21a" x="660.322198" y="442.944372" style="fill: #0000ff; stroke: #0000ff"/>
    </g>
   </g>
   <g id="line2d_74">
    <path d="M 1175.153177 1005.269721 
" clip-path="url(#pec55dafcb8)" style="fill: none; stroke: #0000ff; stroke-width: 1.5; stroke-linecap: square"/>
    <g clip-path="url(#pec55dafcb8)">
     <use xlink:href="#m7d6a63c21a" x="1175.153177" y="1005.269721" style="fill: #0000ff; stroke: #0000ff"/>
    </g>
   </g>
   <g id="line2d_75">
    <path d="M 645.673001 602.324566 
" clip-path="url(#pec55dafcb8)" style="fill: none; stroke: #0000ff; stroke-width: 1.5; stroke-linecap: square"/>
    <g clip-path="url(#pec55dafcb8)">
     <use xlink:href="#m7d6a63c21a" x="645.673001" y="602.324566" style="fill: #0000ff; stroke: #0000ff"/>
    </g>
   </g>
   <g id="line2d_76">
    <path d="M 993.966281 726.723505 
" clip-path="url(#pec55dafcb8)" style="fill: none; stroke: #0000ff; stroke-width: 1.5; stroke-linecap: square"/>
    <g clip-path="url(#pec55dafcb8)">
     <use xlink:href="#m7d6a63c21a" x="993.966281" y="726.723505" style="fill: #0000ff; stroke: #0000ff"/>
    </g>
   </g>
   <g id="line2d_77">
    <path d="M 841.299039 603.476865 
" clip-path="url(#pec55dafcb8)" style="fill: none; stroke: #ff0000; stroke-width: 1.5; stroke-linecap: square"/>
    <defs>
     <path id="me9a85cf9f7" d="M 0 -10 
L -2.24514 -3.09017 
L -9.510565 -3.09017 
L -3.632713 1.18034 
L -5.877853 8.09017 
L -0 3.81966 
L 5.877853 8.09017 
L 3.632713 1.18034 
L 9.510565 -3.09017 
L 2.24514 -3.09017 
z
" style="stroke: #ff0000; stroke-linejoin: bevel"/>
    </defs>
    <g clip-path="url(#pec55dafcb8)">
     <use xlink:href="#me9a85cf9f7" x="841.299039" y="603.476865" style="fill: #ff0000; stroke: #ff0000; stroke-linejoin: bevel"/>
    </g>
   </g>
   <g id="line2d_78">
    <path d="M 234.701379 154.274136 
" clip-path="url(#pec55dafcb8)" style="fill: none; stroke: #ff0000; stroke-width: 1.5; stroke-linecap: square"/>
    <g clip-path="url(#pec55dafcb8)">
     <use xlink:href="#me9a85cf9f7" x="234.701379" y="154.274136" style="fill: #ff0000; stroke: #ff0000; stroke-linejoin: bevel"/>
    </g>
   </g>
   <g id="line2d_79">
    <path d="M 1188.268802 1006.98936 
" clip-path="url(#pec55dafcb8)" style="fill: none; stroke: #ff0000; stroke-width: 1.5; stroke-linecap: square"/>
    <g clip-path="url(#pec55dafcb8)">
     <use xlink:href="#me9a85cf9f7" x="1188.268802" y="1006.98936" style="fill: #ff0000; stroke: #ff0000; stroke-linejoin: bevel"/>
    </g>
   </g>
   <g id="line2d_80">
    <path d="M 674.672536 612.321727 
" clip-path="url(#pec55dafcb8)" style="fill: none; stroke: #ff0000; stroke-width: 1.5; stroke-linecap: square"/>
    <g clip-path="url(#pec55dafcb8)">
     <use xlink:href="#me9a85cf9f7" x="674.672536" y="612.321727" style="fill: #ff0000; stroke: #ff0000; stroke-linejoin: bevel"/>
    </g>
   </g>
   <g id="line2d_81">
    <path d="M 449.582452 301.299713 
" clip-path="url(#pec55dafcb8)" style="fill: none; stroke: #ff0000; stroke-width: 1.5; stroke-linecap: square"/>
    <g clip-path="url(#pec55dafcb8)">
     <use xlink:href="#me9a85cf9f7" x="449.582452" y="301.299713" style="fill: #ff0000; stroke: #ff0000; stroke-linejoin: bevel"/>
    </g>
   </g>
  </g>
 </g>
 <defs>
  <clipPath id="pec55dafcb8">
   <rect x="0" y="0" width="1440" height="1440"/>
  </clipPath>
 </defs>
</svg>
