<?xml version="1.0" encoding="utf-8" standalone="no"?>
<!DOCTYPE svg PUBLIC "-//W3C//DTD SVG 1.1//EN"
  "http://www.w3.org/Graphics/SVG/1.1/DTD/svg11.dtd">
<svg xmlns:xlink="http://www.w3.org/1999/xlink" width="1440pt" height="1440pt" viewBox="0 0 1440 1440" xmlns="http://www.w3.org/2000/svg" version="1.1">
 <metadata>
  <rdf:RDF xmlns:dc="http://purl.org/dc/elements/1.1/" xmlns:cc="http://creativecommons.org/ns#" xmlns:rdf="http://www.w3.org/1999/02/22-rdf-syntax-ns#">
   <cc:Work>
    <dc:type rdf:resource="http://purl.org/dc/dcmitype/StillImage"/>
    <dc:date>2026-02-27T11:10:23.618528</dc:date>
    <dc:format>image/svg+xml</dc:format>
    <dc:creator>
     <cc:Agent>
      <dc:title>Matplotlib v3.7.3, https://matplotlib.org/</dc:title>
     </cc:Agent>
    </dc:creator>
   </cc:Work>
  </rdf:RDF>
 </metadata>
 <defs>
  <style type="text/css">*{stroke-linejoin: round; stroke-linecap: butt}</style>
 </defs>
 <g id="figure_1">
  <g id="patch_1">
   <path d="M 0 1440 
L 1440 1440 
L 1440 0 
L 0 0 
z
" style="fill: #ffffff"/>
  </g>
  <g id="axes_1">
   <g id="line2d_1">
    <path d="M 990.163967 679.845549 
L 990.29925 677.67787 
L 990.975663 649.215304 
" clip-path="url(#pe026e634ed)" style="fill: none; stroke: #7a7a7a; stroke-width: 3; stroke-linecap: square"/>
   </g>
   <g id="line2d_2">
    <path d="M 1007.885987 679.845549 
L 1008.02127 677.67787 
L 1009.644661 657.980266 
" clip-path="url(#pe026e634ed)" style="fill: none; stroke: #7a7a7a; stroke-width: 3; stroke-linecap: square"/>
   </g>
   <g id="line2d_3">
    <path d="M 904.665367 621.31822 
L 890.595977 672.211549 
" clip-path="url(#pe026e634ed)" style="fill: none; stroke: #7a7a7a; stroke-width: 3; stroke-linecap: square"/>
   </g>
   <g id="line2d_4">
    <path d="M 885.590521 617.642591 
L 870.574153 674.94471 
" clip-path="url(#pe026e634ed)" style="fill: none; stroke: #7a7a7a; stroke-width: 3; stroke-linecap: square"/>
   </g>
   <g id="line2d_5">
    <path d="M 1042.788897 114.364111 
L 904.665367 621.31822 
" clip-path="url(#pe026e634ed)" style="fill: none; stroke: #7a7a7a; stroke-width: 3; stroke-linecap: square"/>
   </g>
   <g id="line2d_6">
    <path d="M 1022.767073 114.364111 
L 885.590521 617.642591 
" clip-path="url(#pe026e634ed)" style="fill: none; stroke: #7a7a7a; stroke-width: 3; stroke-linecap: square"/>
   </g>
   <g id="line2d_7">
    <path d="M 938.486016 665.520019 
L 934.562821 677.772117 
L 933.886408 679.845549 
" clip-path="url(#pe026e634ed)" style="fill: none; stroke: #7a7a7a; stroke-width: 3; stroke-linecap: square"/>
   </g>
   <g id="line2d_8">
    <path d="M 890.595977 672.211549 
L 888.972586 677.772117 
L 888.431455 679.845549 
" clip-path="url(#pe026e634ed)" style="fill: none; stroke: #7a7a7a; stroke-width: 3; stroke-linecap: square"/>
   </g>
   <g id="line2d_9">
    <path d="M 890.595977 672.211549 
L 888.972586 677.772117 
L 888.431455 679.845549 
" clip-path="url(#pe026e634ed)" style="fill: none; stroke: #7a7a7a; stroke-width: 3; stroke-linecap: square"/>
   </g>
   <g id="line2d_10">
    <path d="M 870.574153 674.94471 
L 870.303588 677.772117 
L 870.168305 679.845549 
" clip-path="url(#pe026e634ed)" style="fill: none; stroke: #7a7a7a; stroke-width: 3; stroke-linecap: square"/>
   </g>
   <g id="line2d_11">
    <path d="M 946.738254 631.308392 
L 938.486016 665.520019 
" clip-path="url(#pe026e634ed)" style="fill: none; stroke: #7a7a7a; stroke-width: 3; stroke-linecap: square"/>
   </g>
   <g id="line2d_12">
    <path d="M 904.665367 621.31822 
L 890.595977 672.211549 
" clip-path="url(#pe026e634ed)" style="fill: none; stroke: #7a7a7a; stroke-width: 3; stroke-linecap: square"/>
   </g>
   <g id="line2d_13">
    <path d="M 990.975663 649.215304 
L 1137.486714 114.364111 
" clip-path="url(#pe026e634ed)" style="fill: none; stroke: #7a7a7a; stroke-width: 3; stroke-linecap: square"/>
   </g>
   <g id="line2d_14">
    <path d="M 1009.644661 657.980266 
L 1156.967408 114.364111 
" clip-path="url(#pe026e634ed)" style="fill: none; stroke: #7a7a7a; stroke-width: 3; stroke-linecap: square"/>
   </g>
   <g id="line2d_15">
    <path d="M 1089.596675 114.364111 
L 946.738254 631.308392 
" clip-path="url(#pe026e634ed)" style="fill: none; stroke: #7a7a7a; stroke-width: 3; stroke-linecap: square"/>
   </g>
   <g id="line2d_16">
    <path d="M 1042.788897 114.364111 
L 904.665367 621.31822 
" clip-path="url(#pe026e634ed)" style="fill: none; stroke: #7a7a7a; stroke-width: 3; stroke-linecap: square"/>
   </g>
   <g id="line2d_17">
    <path d="M 946.738254 631.308392 
L 1089.596675 114.364111 
" clip-path="url(#pe026e634ed)" style="fill: none; stroke: #7a7a7a; stroke-width: 3; stroke-linecap: square"/>
   </g>
   <g id="line2d_18">
    <path d="M 990.975663 649.215304 
L 1137.486714 114.364111 
" clip-path="url(#pe026e634ed)" style="fill: none; stroke: #7a7a7a; stroke-width: 3; stroke-linecap: square"/>
   </g>
   <g id="line2d_19">
    <path d="M 946.873537 679.845549 
L 946.873537 677.772117 
L 946.738254 631.308392 
" clip-path="url(#pe026e634ed)" style="fill: none; stroke: #7a7a7a; stroke-width: 3; stroke-linecap: square"/>
   </g>
   <g id="line2d_20">
    <path d="M 990.163967 679.845549 
L 990.29925 677.67787 
L 990.975663 649.215304 
" clip-path="url(#pe026e634ed)" style="fill: none; stroke: #7a7a7a; stroke-width: 3; stroke-linecap: square"/>
   </g>
   <g id="line2d_21">
    <path d="M 767.353532 1284.156712 
L 766.677119 1309.320636 
" clip-path="url(#pe026e634ed)" style="fill: none; stroke: #7a7a7a; stroke-width: 3; stroke-linecap: square"/>
   </g>
   <g id="line2d_22">
    <path d="M 690.513018 1283.496984 
L 689.971888 1309.037895 
" clip-path="url(#pe026e634ed)" style="fill: none; stroke: #7a7a7a; stroke-width: 3; stroke-linecap: square"/>
   </g>
   <g id="line2d_23">
    <path d="M 1002.609966 964.094218 
L 999.769032 958.345157 
L 994.087163 946.752787 
L 989.352272 936.102887 
L 987.864163 924.322024 
L 990.028685 708.025374 
" clip-path="url(#pe026e634ed)" style="fill: none; stroke: #7a7a7a; stroke-width: 3; stroke-linecap: square"/>
   </g>
   <g id="line2d_24">
    <path d="M 1024.525747 963.340243 
L 1022.09066 960.418589 
L 1017.626334 953.255824 
L 1013.838422 945.244837 
L 1011.538618 938.553307 
L 1008.5624 922.90832 
L 1008.291835 851.186424 
L 1008.697683 826.399488 
L 1009.374096 707.931127 
" clip-path="url(#pe026e634ed)" style="fill: none; stroke: #7a7a7a; stroke-width: 3; stroke-linecap: square"/>
   </g>
   <g id="line2d_25">
    <path d="M 926.445865 708.967843 
L 865.298132 841.384746 
" clip-path="url(#pe026e634ed)" style="fill: none; stroke: #7a7a7a; stroke-width: 3; stroke-linecap: square"/>
   </g>
   <g id="line2d_26">
    <path d="M 877.203 704.161251 
L 828.636548 806.890378 
L 817.408093 831.488821 
" clip-path="url(#pe026e634ed)" style="fill: none; stroke: #7a7a7a; stroke-width: 3; stroke-linecap: square"/>
   </g>
   <g id="line2d_27">
    <path d="M 916.570235 965.225181 
L 926.1753 950.522664 
L 937.13319 929.128616 
L 942.815059 914.614592 
L 944.709015 906.226618 
L 945.926559 897.838643 
L 946.197124 876.633089 
L 946.197124 833.939241 
L 946.873537 790.962651 
L 947.144102 726.026533 
L 947.414667 708.213868 
" clip-path="url(#pe026e634ed)" style="fill: none; stroke: #7a7a7a; stroke-width: 3; stroke-linecap: square"/>
   </g>
   <g id="line2d_28">
    <path d="M 1002.609966 964.094218 
L 999.769032 958.345157 
L 994.087163 946.752787 
L 989.352272 936.102887 
L 987.864163 924.322024 
L 990.028685 708.025374 
" clip-path="url(#pe026e634ed)" style="fill: none; stroke: #7a7a7a; stroke-width: 3; stroke-linecap: square"/>
   </g>
   <g id="line2d_29">
    <path d="M 933.886408 679.845549 
L 926.445865 708.967843 
" clip-path="url(#pe026e634ed)" style="fill: none; stroke: #7a7a7a; stroke-width: 3; stroke-linecap: square"/>
   </g>
   <g id="line2d_30">
    <path d="M 888.431455 679.845549 
L 888.296173 680.128289 
L 877.203 704.161251 
" clip-path="url(#pe026e634ed)" style="fill: none; stroke: #7a7a7a; stroke-width: 3; stroke-linecap: square"/>
   </g>
   <g id="line2d_31">
    <path d="M 990.028685 708.025374 
L 990.163967 679.845549 
" clip-path="url(#pe026e634ed)" style="fill: none; stroke: #7a7a7a; stroke-width: 3; stroke-linecap: square"/>
   </g>
   <g id="line2d_32">
    <path d="M 1009.374096 707.931127 
L 1007.885987 679.845549 
" clip-path="url(#pe026e634ed)" style="fill: none; stroke: #7a7a7a; stroke-width: 3; stroke-linecap: square"/>
   </g>
   <g id="line2d_33">
    <path d="M 574.440551 1070.687469 
L 170.080873 1081.997098 
" clip-path="url(#pe026e634ed)" style="fill: none; stroke: #7a7a7a; stroke-width: 3; stroke-linecap: square"/>
   </g>
   <g id="line2d_34">
    <path d="M 574.575834 1038.832015 
L 176.845002 1050.801372 
L 174.409916 1050.801372 
L 172.651242 1050.895619 
L 171.704264 1050.895619 
L 170.080873 1050.989866 
" clip-path="url(#pe026e634ed)" style="fill: none; stroke: #7a7a7a; stroke-width: 3; stroke-linecap: square"/>
   </g>
   <g id="line2d_35">
    <path d="M 947.414667 708.213868 
L 946.873537 679.845549 
" clip-path="url(#pe026e634ed)" style="fill: none; stroke: #7a7a7a; stroke-width: 3; stroke-linecap: square"/>
   </g>
   <g id="line2d_36">
    <path d="M 990.028685 708.025374 
L 990.163967 679.845549 
" clip-path="url(#pe026e634ed)" style="fill: none; stroke: #7a7a7a; stroke-width: 3; stroke-linecap: square"/>
   </g>
   <g id="line2d_37">
    <path d="M 865.298132 841.384746 
L 858.93985 861.459337 
L 829.854092 965.884909 
" clip-path="url(#pe026e634ed)" style="fill: none; stroke: #7a7a7a; stroke-width: 3; stroke-linecap: square"/>
   </g>
   <g id="line2d_38">
    <path d="M 817.408093 831.488821 
L 810.102833 859.197411 
L 799.821355 894.257261 
L 777.229162 967.110119 
" clip-path="url(#pe026e634ed)" style="fill: none; stroke: #7a7a7a; stroke-width: 3; stroke-linecap: square"/>
   </g>
   <g id="line2d_39">
    <path d="M 877.203 704.161251 
L 828.636548 806.890378 
L 817.408093 831.488821 
" clip-path="url(#pe026e634ed)" style="fill: none; stroke: #7a7a7a; stroke-width: 3; stroke-linecap: square"/>
   </g>
   <g id="line2d_40">
    <path d="M 858.804567 702.559053 
L 843.517634 731.021619 
L 799.821355 827.907439 
" clip-path="url(#pe026e634ed)" style="fill: none; stroke: #7a7a7a; stroke-width: 3; stroke-linecap: square"/>
   </g>
   <g id="line2d_41">
    <path d="M 809.96755 1407.337418 
L 809.561702 1306.021994 
L 809.832267 1283.968218 
" clip-path="url(#pe026e634ed)" style="fill: none; stroke: #7a7a7a; stroke-width: 3; stroke-linecap: square"/>
   </g>
   <g id="line2d_42">
    <path d="M 883.020152 1408.845369 
L 886.672782 1284.722193 
" clip-path="url(#pe026e634ed)" style="fill: none; stroke: #7a7a7a; stroke-width: 3; stroke-linecap: square"/>
   </g>
   <g id="line2d_43">
    <path d="M 362.182158 1129.309045 
L 570.787921 1122.711761 
" clip-path="url(#pe026e634ed)" style="fill: none; stroke: #7a7a7a; stroke-width: 3; stroke-linecap: square"/>
   </g>
   <g id="line2d_44">
    <path d="M 363.940832 1158.71408 
L 572.005464 1152.30529 
" clip-path="url(#pe026e634ed)" style="fill: none; stroke: #7a7a7a; stroke-width: 3; stroke-linecap: square"/>
   </g>
   <g id="line2d_45">
    <path d="M 888.431455 679.845549 
L 888.296173 680.128289 
L 877.203 704.161251 
" clip-path="url(#pe026e634ed)" style="fill: none; stroke: #7a7a7a; stroke-width: 3; stroke-linecap: square"/>
   </g>
   <g id="line2d_46">
    <path d="M 870.168305 679.845549 
L 870.168305 680.128289 
L 858.804567 702.559053 
" clip-path="url(#pe026e634ed)" style="fill: none; stroke: #7a7a7a; stroke-width: 3; stroke-linecap: square"/>
   </g>
   <g id="line2d_47">
    <path d="M 574.575834 1038.832015 
L 176.845002 1050.801372 
L 174.409916 1050.801372 
L 172.651242 1050.895619 
L 171.704264 1050.895619 
L 170.080873 1050.989866 
" clip-path="url(#pe026e634ed)" style="fill: none; stroke: #7a7a7a; stroke-width: 3; stroke-linecap: square"/>
   </g>
   <g id="line2d_48">
    <path d="M 574.846399 1027.522386 
L 176.845002 1038.832015 
L 174.409916 1038.926262 
L 172.651242 1039.020509 
L 171.704264 1039.020509 
L 170.080873 1039.020509 
" clip-path="url(#pe026e634ed)" style="fill: none; stroke: #7a7a7a; stroke-width: 3; stroke-linecap: square"/>
   </g>
   <g id="line2d_49">
    <path d="M 572.952442 1100.657985 
L 554.148162 1100.940726 
L 520.598078 1102.165936 
L 273.436776 1109.234454 
L 170.080873 1112.910083 
" clip-path="url(#pe026e634ed)" style="fill: none; stroke: #7a7a7a; stroke-width: 3; stroke-linecap: square"/>
   </g>
   <g id="line2d_50">
    <path d="M 574.440551 1070.687469 
L 170.080873 1081.997098 
" clip-path="url(#pe026e634ed)" style="fill: none; stroke: #7a7a7a; stroke-width: 3; stroke-linecap: square"/>
   </g>
   <g id="line2d_51">
    <path d="M 817.408093 831.488821 
L 810.102833 859.197411 
L 799.821355 894.257261 
L 777.229162 967.110119 
" clip-path="url(#pe026e634ed)" style="fill: none; stroke: #7a7a7a; stroke-width: 3; stroke-linecap: square"/>
   </g>
   <g id="line2d_52">
    <path d="M 799.821355 827.907439 
L 792.921943 851.280671 
L 767.624098 939.684269 
L 761.130533 956.271725 
L 755.448664 967.487107 
" clip-path="url(#pe026e634ed)" style="fill: none; stroke: #7a7a7a; stroke-width: 3; stroke-linecap: square"/>
   </g>
   <g id="line2d_53">
    <path d="M 809.832267 1283.968218 
L 810.373398 1275.014762 
L 806.450203 1251.264542 
L 800.091921 1229.587753 
L 791.298552 1208.759187 
L 780.205379 1189.061583 
L 767.21825 1170.683437 
L 752.337164 1153.907487 
L 735.96797 1138.922229 
L 718.381233 1125.916156 
L 699.712235 1115.172009 
L 680.096258 1106.972528 
L 660.074434 1101.411961 
L 639.646762 1098.773047 
L 572.952442 1100.657985 
" clip-path="url(#pe026e634ed)" style="fill: none; stroke: #7a7a7a; stroke-width: 3; stroke-linecap: square"/>
   </g>
   <g id="line2d_54">
    <path d="M 886.672782 1284.722193 
L 886.943347 1274.260787 
L 883.425999 1256.730862 
L 877.608848 1238.82395 
L 869.627175 1220.917038 
L 859.48098 1203.198619 
L 847.440829 1185.762942 
L 833.506722 1168.798499 
L 817.949223 1152.588031 
L 800.633051 1137.225785 
L 781.964053 1122.994502 
L 761.942229 1110.082676 
L 740.702861 1098.490307 
L 718.381233 1088.688628 
L 694.977344 1080.583394 
L 670.897042 1074.551592 
L 646.005044 1070.781716 
L 620.707199 1069.368012 
L 574.440551 1070.687469 
" clip-path="url(#pe026e634ed)" style="fill: none; stroke: #7a7a7a; stroke-width: 3; stroke-linecap: square"/>
   </g>
   <g id="line2d_55">
    <path d="M 777.229162 967.110119 
L 768.706358 980.964414 
L 759.507142 993.405006 
L 748.549252 1004.431894 
L 735.020992 1013.856585 
L 717.975385 1021.867572 
L 696.600735 1028.276361 
L 669.814781 1033.082954 
L 636.94111 1036.381595 
L 574.575834 1038.832015 
" clip-path="url(#pe026e634ed)" style="fill: none; stroke: #7a7a7a; stroke-width: 3; stroke-linecap: square"/>
   </g>
   <g id="line2d_56">
    <path d="M 755.448664 967.487107 
L 751.796034 974.649872 
L 746.114165 984.168809 
L 738.673622 991.897056 
L 729.20384 999.908043 
L 717.840102 1007.91903 
L 707.964473 1012.537128 
L 696.600735 1016.212757 
L 683.748888 1019.79414 
L 670.626477 1022.433053 
L 646.81674 1024.600732 
L 622.195307 1025.825942 
L 596.085766 1026.768411 
L 574.846399 1027.522386 
" clip-path="url(#pe026e634ed)" style="fill: none; stroke: #7a7a7a; stroke-width: 3; stroke-linecap: square"/>
   </g>
   <g id="line2d_57">
    <path d="M 572.546595 1183.972251 
L 1129.505041 1124.690946 
" clip-path="url(#pe026e634ed)" style="fill: none; stroke: #7a7a7a; stroke-width: 3; stroke-linecap: square"/>
   </g>
   <g id="line2d_58">
    <path d="M 574.305268 1198.863262 
L 1131.128432 1154.472969 
" clip-path="url(#pe026e634ed)" style="fill: none; stroke: #7a7a7a; stroke-width: 3; stroke-linecap: square"/>
   </g>
   <g id="line2d_59">
    <path d="M 829.854092 965.884909 
L 772.358988 1229.399259 
L 769.247489 1254.751677 
L 767.624098 1276.993947 
L 767.353532 1284.156712 
" clip-path="url(#pe026e634ed)" style="fill: none; stroke: #7a7a7a; stroke-width: 3; stroke-linecap: square"/>
   </g>
   <g id="line2d_60">
    <path d="M 777.229162 967.110119 
L 698.224126 1227.137334 
L 694.300931 1248.719875 
L 690.513018 1283.496984 
" clip-path="url(#pe026e634ed)" style="fill: none; stroke: #7a7a7a; stroke-width: 3; stroke-linecap: square"/>
   </g>
   <g id="line2d_61">
    <path d="M 829.854092 965.884909 
L 828.636548 986.524982 
L 831.206918 1006.505326 
L 837.159352 1025.825942 
L 846.358568 1044.015595 
L 858.534002 1061.074285 
L 873.279805 1076.719271 
L 890.460694 1090.76206 
L 909.53554 1103.014158 
L 930.504343 1113.287071 
L 952.825971 1121.298058 
L 976.500425 1126.858625 
L 986.917185 1127.424107 
L 991.652076 1128.366576 
L 998.145641 1127.989588 
L 1025.066877 1127.235613 
L 1051.446983 1126.952872 
L 1129.505041 1124.690946 
" clip-path="url(#pe026e634ed)" style="fill: none; stroke: #7a7a7a; stroke-width: 3; stroke-linecap: square"/>
   </g>
   <g id="line2d_62">
    <path d="M 777.229162 967.110119 
L 778.852553 988.315673 
L 783.046313 1008.578758 
L 789.675161 1027.71088 
L 798.468529 1045.617792 
L 809.291137 1062.393741 
L 822.142984 1077.944481 
L 836.888787 1092.175764 
L 853.122698 1105.181837 
L 870.980001 1116.774206 
L 890.325412 1127.047119 
L 910.753084 1135.906328 
L 932.398299 1143.257587 
L 955.125775 1149.100895 
L 978.664947 1153.436253 
L 1002.880531 1156.169413 
L 1027.772529 1157.394623 
L 1053.070374 1156.829142 
L 1131.128432 1154.472969 
" clip-path="url(#pe026e634ed)" style="fill: none; stroke: #7a7a7a; stroke-width: 3; stroke-linecap: square"/>
   </g>
   <g id="line2d_63">
    <path d="M 809.832267 1283.968218 
L 814.026028 1264.553355 
L 819.843179 1243.913283 
L 827.283722 1229.116519 
L 835.400678 1214.319754 
L 842.029525 1205.366298 
L 851.634589 1195.281879 
L 864.757001 1184.160744 
L 877.338283 1175.207288 
L 889.513716 1166.348079 
L 904.935932 1158.525586 
L 916.29967 1153.436253 
L 929.963212 1149.195142 
L 944.573733 1145.236772 
L 963.919144 1141.184155 
L 990.29925 1136.660304 
L 1015.867661 1133.361662 
L 1039.406832 1129.968773 
L 1067.545612 1127.32986 
L 1091.490632 1126.198897 
L 1118.547151 1124.87944 
L 1129.505041 1124.690946 
" clip-path="url(#pe026e634ed)" style="fill: none; stroke: #7a7a7a; stroke-width: 3; stroke-linecap: square"/>
   </g>
   <g id="line2d_64">
    <path d="M 886.672782 1284.722193 
L 886.943347 1270.585157 
L 887.349195 1254.65743 
L 888.566738 1249.47385 
L 892.489933 1231.001457 
L 897.495389 1215.07373 
L 908.182714 1198.580521 
L 921.305126 1188.401855 
L 939.838842 1178.977165 
L 961.61934 1172.285634 
L 983.940968 1166.725067 
L 1014.244269 1162.578203 
L 1049.823592 1158.71408 
L 1080.668024 1156.357907 
L 1131.128432 1154.472969 
" clip-path="url(#pe026e634ed)" style="fill: none; stroke: #7a7a7a; stroke-width: 3; stroke-linecap: square"/>
   </g>
   <g id="line2d_65">
    <path d="M 572.546595 1183.972251 
L 591.350875 1183.406769 
L 618.272112 1183.783757 
L 644.516936 1187.365139 
L 669.544216 1193.679682 
L 692.812822 1202.444644 
L 713.916907 1213.188791 
L 732.180058 1225.535136 
L 747.196426 1239.200938 
L 758.424881 1253.809208 
L 765.324293 1268.888713 
L 767.353532 1284.156712 
" clip-path="url(#pe026e634ed)" style="fill: none; stroke: #7a7a7a; stroke-width: 3; stroke-linecap: square"/>
   </g>
   <g id="line2d_66">
    <path d="M 574.305268 1198.863262 
L 598.38557 1198.01504 
L 618.136829 1198.01504 
L 630.988676 1198.580521 
L 640.05261 1199.711484 
L 648.981261 1202.067657 
L 656.827652 1205.366298 
L 663.321216 1209.513162 
L 668.867803 1214.790989 
L 672.38515 1220.163063 
L 689.430757 1265.401578 
L 690.513018 1283.496984 
" clip-path="url(#pe026e634ed)" style="fill: none; stroke: #7a7a7a; stroke-width: 3; stroke-linecap: square"/>
   </g>
   <g id="line2d_67">
    <path d="M 572.005464 1152.30529 
L 601.902918 1153.342006 
L 630.312263 1157.583117 
L 656.962934 1164.557388 
L 681.584367 1173.887832 
L 703.63543 1185.385954 
L 722.980841 1198.392027 
L 739.214752 1212.717557 
L 752.201882 1227.891309 
L 761.401098 1243.630542 
L 766.677119 1259.464022 
L 767.624098 1275.014762 
L 767.353532 1284.156712 
" clip-path="url(#pe026e634ed)" style="fill: none; stroke: #7a7a7a; stroke-width: 3; stroke-linecap: square"/>
   </g>
   <g id="line2d_68">
    <path d="M 572.546595 1183.972251 
L 605.014418 1184.726226 
L 631.123959 1189.815559 
L 651.686913 1198.580521 
L 667.109129 1210.455631 
L 678.067019 1224.592667 
L 685.372279 1240.426147 
L 689.430757 1257.296344 
L 690.783583 1274.449281 
L 690.513018 1283.496984 
" clip-path="url(#pe026e634ed)" style="fill: none; stroke: #7a7a7a; stroke-width: 3; stroke-linecap: square"/>
   </g>
   <g id="line2d_69">
    <path d="M 1129.505041 1124.690946 
L 1306.454676 1120.449836 
L 1441 1116.908801 
" clip-path="url(#pe026e634ed)" style="fill: none; stroke: #7a7a7a; stroke-width: 3; stroke-linecap: square"/>
   </g>
   <g id="line2d_70">
    <path d="M 1131.128432 1154.472969 
L 1238.678096 1151.268574 
L 1441 1145.803759 
" clip-path="url(#pe026e634ed)" style="fill: none; stroke: #7a7a7a; stroke-width: 3; stroke-linecap: square"/>
   </g>
   <g id="line2d_71">
    <path d="M 809.832267 1283.968218 
L 810.373398 1275.014762 
L 810.102833 1273.506812 
L 811.185093 1219.126347 
L 808.344159 1201.784916 
L 802.932855 1184.254991 
L 794.815899 1166.819314 
L 784.534422 1149.666377 
L 772.088423 1132.984674 
L 757.748468 1116.9627 
L 741.649839 1101.883195 
L 724.063102 1087.934653 
L 705.123538 1075.211321 
L 684.966432 1064.090186 
L 663.997629 1054.665495 
L 642.217131 1047.21999 
L 620.030786 1042.03641 
L 597.30331 1039.114756 
L 574.575834 1038.832015 
" clip-path="url(#pe026e634ed)" style="fill: none; stroke: #7a7a7a; stroke-width: 3; stroke-linecap: square"/>
   </g>
   <g id="line2d_72">
    <path d="M 886.672782 1284.722193 
L 888.025608 1219.880322 
L 885.996369 1203.575607 
L 881.396761 1187.082398 
L 874.0915 1170.58919 
L 864.486436 1154.284475 
L 852.581568 1138.262501 
L 838.512178 1122.711761 
L 822.278266 1107.82075 
L 804.285681 1093.683714 
L 784.399139 1080.489147 
L 762.753924 1068.425543 
L 739.6206 1057.492902 
L 725.145363 1051.932335 
L 714.999168 1048.068212 
L 689.160192 1040.245718 
L 662.103673 1034.025423 
L 633.964893 1029.784312 
L 604.743852 1027.522386 
L 574.846399 1027.522386 
" clip-path="url(#pe026e634ed)" style="fill: none; stroke: #7a7a7a; stroke-width: 3; stroke-linecap: square"/>
   </g>
   <g id="line2d_73">
    <path d="M 809.832267 1283.968218 
L 818.896201 1247.400418 
L 827.013157 1221.294025 
L 913.729301 979.927698 
L 916.570235 965.225181 
" clip-path="url(#pe026e634ed)" style="fill: none; stroke: #7a7a7a; stroke-width: 3; stroke-linecap: square"/>
   </g>
   <g id="line2d_74">
    <path d="M 886.672782 1284.722193 
L 887.349195 1254.65743 
L 888.702021 1248.531381 
L 892.084086 1234.300099 
L 994.087163 1000.096536 
L 1000.71601 977.948513 
L 1002.609966 964.094218 
" clip-path="url(#pe026e634ed)" style="fill: none; stroke: #7a7a7a; stroke-width: 3; stroke-linecap: square"/>
   </g>
   <g id="line2d_75">
    <path d="M 1441 1078.692369 
L 1440.790293 1078.698456 
L 1123.823172 1086.520949 
" clip-path="url(#pe026e634ed)" style="fill: none; stroke: #7a7a7a; stroke-width: 3; stroke-linecap: square"/>
   </g>
   <g id="line2d_76">
    <path d="M 1441 1030.956823 
L 1325.800087 1033.742682 
L 1291.57359 1032.423225 
L 1213.786098 1026.202929 
L 1160.21419 1021.207843 
L 1127.611085 1016.401251 
L 1119.088281 1014.422066 
" clip-path="url(#pe026e634ed)" style="fill: none; stroke: #7a7a7a; stroke-width: 3; stroke-linecap: square"/>
   </g>
   <g id="line2d_77">
    <path d="M 570.787921 1122.711761 
L 584.857311 1122.334774 
L 598.520853 1121.863539 
L 645.193349 1118.282157 
L 645.599196 1118.18791 
L 737.997209 1112.533096 
L 772.358988 1108.668972 
L 802.932855 1103.391146 
L 829.989374 1096.793862 
L 854.069676 1088.877122 
L 875.444326 1079.923666 
L 894.519172 1069.839247 
L 911.564779 1058.906606 
L 930.774908 1046.560261 
L 950.255602 1031.575003 
L 971.494969 1011.8774 
L 989.216989 992.745278 
L 998.957336 978.608242 
L 1002.609966 964.094218 
" clip-path="url(#pe026e634ed)" style="fill: none; stroke: #7a7a7a; stroke-width: 3; stroke-linecap: square"/>
   </g>
   <g id="line2d_78">
    <path d="M 572.005464 1152.30529 
L 700.929778 1144.482797 
L 742.19097 1141.561143 
L 779.258401 1137.414279 
L 812.132072 1132.324946 
L 841.353112 1126.010403 
L 867.192088 1118.753391 
L 889.784281 1110.459664 
L 909.806106 1101.223467 
L 927.122278 1091.044801 
L 942.409211 1080.017913 
L 955.937471 1068.142803 
L 972.57723 1052.874804 
L 987.323033 1036.758583 
L 1003.015814 1019.888387 
L 1016.544074 1001.321746 
L 1023.578769 985.771007 
L 1025.337442 974.838365 
L 1024.525747 963.340243 
" clip-path="url(#pe026e634ed)" style="fill: none; stroke: #7a7a7a; stroke-width: 3; stroke-linecap: square"/>
   </g>
   <g id="line2d_79">
    <path d="M 829.854092 965.884909 
L 826.336744 977.665773 
L 820.38431 989.352389 
L 811.726224 1000.944759 
L 800.362486 1012.254387 
L 786.157813 1022.998535 
L 768.976924 1033.082954 
L 748.684534 1042.31915 
L 725.280645 1050.518631 
L 698.494691 1057.587149 
L 668.326672 1063.241964 
L 634.506023 1067.388827 
L 596.897462 1069.839247 
L 574.440551 1070.687469 
" clip-path="url(#pe026e634ed)" style="fill: none; stroke: #7a7a7a; stroke-width: 3; stroke-linecap: square"/>
   </g>
   <g id="line2d_80">
    <path d="M 777.229162 967.110119 
L 768.706358 980.964414 
L 759.507142 993.405006 
L 748.549252 1004.431894 
L 735.020992 1013.856585 
L 717.975385 1021.867572 
L 696.600735 1028.276361 
L 669.814781 1033.082954 
L 636.94111 1036.381595 
L 574.575834 1038.832015 
" clip-path="url(#pe026e634ed)" style="fill: none; stroke: #7a7a7a; stroke-width: 3; stroke-linecap: square"/>
   </g>
   <g id="line2d_81">
    <path d="M 1123.823172 1086.520949 
L 1104.477761 1086.143962 
L 1087.567436 1085.861221 
L 1063.081286 1085.955468 
L 1039.136267 1082.939567 
L 1016.138226 1077.096259 
L 994.357728 1068.614037 
L 974.471186 1057.964137 
L 956.613884 1045.429298 
L 941.597516 1031.292262 
L 929.557365 1015.83577 
L 921.169844 999.531055 
L 916.570235 982.566612 
L 916.570235 965.225181 
" clip-path="url(#pe026e634ed)" style="fill: none; stroke: #7a7a7a; stroke-width: 3; stroke-linecap: square"/>
   </g>
   <g id="line2d_82">
    <path d="M 1119.088281 1014.422066 
L 1082.697263 1013.762338 
L 1055.370178 1010.180955 
L 1034.807224 1002.264215 
L 1019.926138 991.14308 
L 1009.644661 978.04276 
L 1002.609966 964.094218 
" clip-path="url(#pe026e634ed)" style="fill: none; stroke: #7a7a7a; stroke-width: 3; stroke-linecap: square"/>
   </g>
   <g id="line2d_83">
    <path d="M 777.229162 967.110119 
L 767.353532 1284.156712 
" clip-path="url(#pe026e634ed)" style="fill: none; stroke: #7a7a7a; stroke-width: 3; stroke-linecap: square"/>
   </g>
   <g id="line2d_84">
    <path d="M 755.448664 967.487107 
L 690.513018 1283.496984 
" clip-path="url(#pe026e634ed)" style="fill: none; stroke: #7a7a7a; stroke-width: 3; stroke-linecap: square"/>
   </g>
   <g id="line2d_85">
    <path d="M 570.787921 1122.711761 
L 584.857311 1122.334774 
L 717.569537 1118.18791 
L 740.026448 1115.172009 
L 762.348076 1109.705688 
L 784.399139 1101.977442 
L 805.638507 1092.175764 
L 825.930896 1080.583394 
L 845.141025 1067.294581 
L 862.59248 1052.68631 
L 878.285261 1036.758583 
L 891.81352 1019.888387 
L 902.906693 1002.169968 
L 911.294214 983.886068 
L 916.570235 965.225181 
" clip-path="url(#pe026e634ed)" style="fill: none; stroke: #7a7a7a; stroke-width: 3; stroke-linecap: square"/>
   </g>
   <g id="line2d_86">
    <path d="M 572.005464 1152.30529 
L 718.110668 1144.859784 
L 749.631512 1142.880599 
L 776.688031 1138.922229 
L 802.66229 1133.455909 
L 827.960135 1125.633416 
L 851.905155 1116.491466 
L 874.226783 1106.218553 
L 895.060303 1094.814677 
L 914.270431 1082.374086 
L 931.857169 1069.273766 
L 947.54995 1055.325223 
L 961.61934 1040.905447 
L 973.794773 1025.920189 
L 984.076251 1010.65219 
L 992.328489 995.195697 
L 998.551488 979.550711 
L 1002.609966 964.094218 
" clip-path="url(#pe026e634ed)" style="fill: none; stroke: #7a7a7a; stroke-width: 3; stroke-linecap: square"/>
   </g>
   <g id="line2d_87">
    <path d="M 1123.823172 1086.520949 
L 1102.85437 1079.735172 
L 1084.591219 1070.593222 
L 1068.763155 1059.000853 
L 1054.558483 1045.240804 
L 1041.841919 1029.407324 
L 1029.801768 1011.688906 
L 1017.896899 992.274043 
L 1005.856748 971.068489 
L 1002.609966 964.094218 
" clip-path="url(#pe026e634ed)" style="fill: none; stroke: #7a7a7a; stroke-width: 3; stroke-linecap: square"/>
   </g>
   <g id="line2d_88">
    <path d="M 1119.088281 1014.422066 
L 1105.018891 1011.594659 
L 1086.485175 1006.222585 
L 1065.786938 997.834611 
L 1045.359266 986.053747 
L 1027.637246 970.408761 
L 1024.525747 963.340243 
" clip-path="url(#pe026e634ed)" style="fill: none; stroke: #7a7a7a; stroke-width: 3; stroke-linecap: square"/>
   </g>
   <g id="line2d_89">
    <path d="M 1123.823172 1086.520949 
L 1113.947542 1086.709443 
L 1100.013435 1086.709443 
L 1081.073872 1087.274925 
L 1038.865702 1088.500134 
L 1003.286379 1089.631097 
L 989.081707 1090.008085 
L 986.917185 1090.385073 
L 973.11836 1091.044801 
L 944.709015 1095.662899 
L 919.546452 1101.694701 
L 897.224824 1108.857466 
L 877.74413 1117.245441 
L 860.698523 1126.670132 
L 845.95272 1137.131538 
L 833.100874 1148.535414 
L 822.007701 1160.881759 
L 812.402637 1173.982078 
L 804.150398 1187.836374 
L 796.845138 1202.444644 
L 790.351574 1217.618396 
L 784.399139 1233.357629 
L 773.98238 1263.79938 
L 773.711814 1263.987874 
L 771.141445 1266.2498 
L 768.435793 1269.642688 
L 767.624098 1276.993947 
L 767.353532 1284.156712 
" clip-path="url(#pe026e634ed)" style="fill: none; stroke: #7a7a7a; stroke-width: 3; stroke-linecap: square"/>
   </g>
   <g id="line2d_90">
    <path d="M 1119.088281 1014.422066 
L 1080.938589 1016.683992 
L 1044.953419 1019.982634 
L 1011.268052 1024.317991 
L 979.747208 1029.595818 
L 950.255602 1035.910361 
L 922.657952 1042.978879 
L 897.089542 1050.989866 
L 873.279805 1059.849075 
L 851.364024 1069.462259 
L 831.071635 1079.829419 
L 812.537919 1090.856307 
L 795.492312 1102.63717 
L 779.934814 1114.983515 
L 765.865424 1127.989588 
L 753.284142 1141.466896 
L 741.920404 1155.603932 
L 731.77421 1170.117955 
L 722.845558 1185.103213 
L 715.13445 1200.559706 
L 708.370321 1216.298939 
L 702.553169 1232.41516 
L 697.818278 1248.908369 
L 693.7598 1265.590071 
L 690.648301 1282.554515 
L 690.513018 1283.496984 
" clip-path="url(#pe026e634ed)" style="fill: none; stroke: #7a7a7a; stroke-width: 3; stroke-linecap: square"/>
   </g>
   <g id="line2d_91">
    <path d="M 1123.823172 1086.520949 
L 574.440551 1070.687469 
" clip-path="url(#pe026e634ed)" style="fill: none; stroke: #7a7a7a; stroke-width: 3; stroke-linecap: square"/>
   </g>
   <g id="line2d_92">
    <path d="M 1119.088281 1014.422066 
L 574.575834 1038.832015 
" clip-path="url(#pe026e634ed)" style="fill: none; stroke: #7a7a7a; stroke-width: 3; stroke-linecap: square"/>
   </g>
   <g id="line2d_93">
    <path d="M 572.005464 1152.30529 
L 1129.505041 1124.690946 
" clip-path="url(#pe026e634ed)" style="fill: none; stroke: #7a7a7a; stroke-width: 3; stroke-linecap: square"/>
   </g>
   <g id="line2d_94">
    <path d="M 572.546595 1183.972251 
L 1131.128432 1154.472969 
" clip-path="url(#pe026e634ed)" style="fill: none; stroke: #7a7a7a; stroke-width: 3; stroke-linecap: square"/>
   </g>
   <g id="line2d_95">
    <path d="M 809.832267 1283.968218 
L 1000.310162 976.81755 
L 1001.798271 970.597255 
L 1002.609966 964.094218 
" clip-path="url(#pe026e634ed)" style="fill: none; stroke: #7a7a7a; stroke-width: 3; stroke-linecap: square"/>
   </g>
   <g id="line2d_96">
    <path d="M 886.672782 1284.722193 
L 887.349195 1254.65743 
L 888.702021 1248.531381 
L 892.084086 1234.300099 
L 894.248607 1228.079803 
L 1019.385008 986.336488 
L 1024.661029 975.875081 
L 1025.20216 969.843279 
L 1024.525747 963.340243 
" clip-path="url(#pe026e634ed)" style="fill: none; stroke: #7a7a7a; stroke-width: 3; stroke-linecap: square"/>
   </g>
   <g id="line2d_97">
    <path d="M 570.787921 1122.711761 
L 991.652076 1128.366576 
L 1011.268052 1127.32986 
L 1129.505041 1124.690946 
" clip-path="url(#pe026e634ed)" style="fill: none; stroke: #7a7a7a; stroke-width: 3; stroke-linecap: square"/>
   </g>
   <g id="line2d_98">
    <path d="M 572.005464 1152.30529 
L 1131.128432 1154.472969 
" clip-path="url(#pe026e634ed)" style="fill: none; stroke: #7a7a7a; stroke-width: 3; stroke-linecap: square"/>
   </g>
   <g id="line2d_99">
    <path d="M 1123.823172 1086.520949 
L 1115.029803 1086.709443 
L 1100.013435 1086.709443 
L 1012.350313 1089.348357 
L 572.952442 1100.657985 
" clip-path="url(#pe026e634ed)" style="fill: none; stroke: #7a7a7a; stroke-width: 3; stroke-linecap: square"/>
   </g>
   <g id="line2d_100">
    <path d="M 1119.088281 1014.422066 
L 574.440551 1070.687469 
" clip-path="url(#pe026e634ed)" style="fill: none; stroke: #7a7a7a; stroke-width: 3; stroke-linecap: square"/>
   </g>
   <g id="line2d_101">
    <path d="M 1123.823172 1086.520949 
L 574.575834 1038.832015 
" clip-path="url(#pe026e634ed)" style="fill: none; stroke: #7a7a7a; stroke-width: 3; stroke-linecap: square"/>
   </g>
   <g id="line2d_102">
    <path d="M 1119.088281 1014.422066 
L 574.846399 1027.522386 
" clip-path="url(#pe026e634ed)" style="fill: none; stroke: #7a7a7a; stroke-width: 3; stroke-linecap: square"/>
   </g>
   <g id="line2d_103">
    <path d="M 1196.39885 47.123453 
L 1193.644316 47.247704 
" clip-path="url(#pe026e634ed)" style="fill: none; stroke-dasharray: 32,8,5,8; stroke-dashoffset: 0; stroke: #1e90ff; stroke-width: 5"/>
   </g>
   <g id="line2d_104">
    <path d="M 1067.569921 96.507014 
L 1067.517076 97.984799 
" clip-path="url(#pe026e634ed)" style="fill: none; stroke-dasharray: 32,8,5,8; stroke-dashoffset: 0; stroke: #1e90ff; stroke-width: 5"/>
   </g>
   <g id="line2d_105">
    <path d="M 954.667083 297.303431 
L 955.816456 299.692967 
" clip-path="url(#pe026e634ed)" style="fill: none; stroke-dasharray: 32,8,5,8; stroke-dashoffset: 0; stroke: #1e90ff; stroke-width: 5"/>
   </g>
   <g id="line2d_106">
    <path d="M 918.580714 450.637579 
L 919.888622 450.959137 
" clip-path="url(#pe026e634ed)" style="fill: none; stroke-dasharray: 32,8,5,8; stroke-dashoffset: 0; stroke: #1e90ff; stroke-width: 5"/>
   </g>
   <g id="line2d_107">
    <path d="M 989.775823 586.615662 
L 997.385469 588.241859 
" clip-path="url(#pe026e634ed)" style="fill: none; stroke-dasharray: 32,8,5,8; stroke-dashoffset: 0; stroke: #1e90ff; stroke-width: 5"/>
   </g>
   <g id="line2d_108">
    <path d="M 884.119323 565.496394 
L 889.945458 562.811185 
" clip-path="url(#pe026e634ed)" style="fill: none; stroke-dasharray: 32,8,5,8; stroke-dashoffset: 0; stroke: #1e90ff; stroke-width: 5"/>
   </g>
   <g id="line2d_109">
    <path d="M 868.312133 636.494503 
L 874.481759 626.075227 
" clip-path="url(#pe026e634ed)" style="fill: none; stroke-dasharray: 32,8,5,8; stroke-dashoffset: 0; stroke: #1e90ff; stroke-width: 5"/>
   </g>
   <g id="line2d_110">
    <path d="M 1237.076107 1145.137877 
L 1235.431313 1152.753446 
" clip-path="url(#pe026e634ed)" style="fill: none; stroke-dasharray: 32,8,5,8; stroke-dashoffset: 0; stroke: #1e90ff; stroke-width: 5"/>
   </g>
   <g id="line2d_111">
    <path d="M 270.565191 1079.261107 
L 271.463552 1080.937925 
" clip-path="url(#pe026e634ed)" style="fill: none; stroke-dasharray: 32,8,5,8; stroke-dashoffset: 0; stroke: #1e90ff; stroke-width: 5"/>
   </g>
   <g id="line2d_112">
    <path d="M 317.41868 1105.694995 
L 311.92943 1104.190749 
" clip-path="url(#pe026e634ed)" style="fill: none; stroke-dasharray: 32,8,5,8; stroke-dashoffset: 0; stroke: #1e90ff; stroke-width: 5"/>
   </g>
   <g id="line2d_113">
    <path d="M 1093.331743 412.724828 
L 1091.68695 415.768985 
" clip-path="url(#pe026e634ed)" style="fill: none; stroke-dasharray: 32,8,5,8; stroke-dashoffset: 0; stroke: #1e90ff; stroke-width: 5"/>
   </g>
   <g id="line2d_114">
    <path d="M 540.423584 1142.169077 
L 541.691858 1139.836489 
" clip-path="url(#pe026e634ed)" style="fill: none; stroke-dasharray: 32,8,5,8; stroke-dashoffset: 0; stroke: #1e90ff; stroke-width: 5"/>
   </g>
   <g id="line2d_115">
    <path d="M 1035.592233 617.824596 
L 1035.215714 618.156508 
" clip-path="url(#pe026e634ed)" style="fill: none; stroke-dasharray: 32,8,5,8; stroke-dashoffset: 0; stroke: #1e90ff; stroke-width: 5"/>
   </g>
   <g id="line2d_116">
    <path d="M 355.552783 1155.240773 
L 352.520815 1153.979852 
" clip-path="url(#pe026e634ed)" style="fill: none; stroke-dasharray: 32,8,5,8; stroke-dashoffset: 0; stroke: #1e90ff; stroke-width: 5"/>
   </g>
   <g id="line2d_117">
    <path d="M 342.031129 1150.876446 
L 360.744781 1157.259281 
" clip-path="url(#pe026e634ed)" style="fill: none; stroke-dasharray: 32,8,5,8; stroke-dashoffset: 0; stroke: #1e90ff; stroke-width: 5"/>
   </g>
   <g id="line2d_118">
    <path d="M 871.793282 812.916382 
L 831.743556 925.633588 
" clip-path="url(#pe026e634ed)" style="fill: none; stroke-dasharray: 32,8,5,8; stroke-dashoffset: 0; stroke: #1e90ff; stroke-width: 5"/>
   </g>
   <g id="line2d_119">
    <path d="M 1196.39885 47.123453 
" clip-path="url(#pe026e634ed)" style="fill: none; stroke: #0000ff; stroke-width: 1.5; stroke-linecap: square"/>
    <defs>
     <path id="mc462811c93" d="M 0 10 
C 2.652031 10 5.195799 8.946337 7.071068 7.071068 
C 8.946337 5.195799 10 2.652031 10 0 
C 10 -2.652031 8.946337 -5.195799 7.071068 -7.071068 
C 5.195799 -8.946337 2.652031 -10 0 -10 
C -2.652031 -10 -5.195799 -8.946337 -7.071068 -7.071068 
C -8.946337 -5.195799 -10 -2.652031 -10 0 
C -10 2.652031 -8.946337 5.195799 -7.071068 7.071068 
C -5.195799 8.946337 -2.652031 10 0 10 
z
" style="stroke: #0000ff"/>
    </defs>
    <g clip-path="url(#pe026e634ed)">
     <use xlink:href="#mc462811c93" x="1196.39885" y="47.123453" style="fill: #0000ff; stroke: #0000ff"/>
    </g>
   </g>
   <g id="line2d_120">
    <path d="M 1067.569921 96.507014 
" clip-path="url(#pe026e634ed)" style="fill: none; stroke: #0000ff; stroke-width: 1.5; stroke-linecap: square"/>
    <g clip-path="url(#pe026e634ed)">
     <use xlink:href="#mc462811c93" x="1067.569921" y="96.507014" style="fill: #0000ff; stroke: #0000ff"/>
    </g>
   </g>
   <g id="line2d_121">
    <path d="M 954.667083 297.303431 
" clip-path="url(#pe026e634ed)" style="fill: none; stroke: #0000ff; stroke-width: 1.5; stroke-linecap: square"/>
    <g clip-path="url(#pe026e634ed)">
     <use xlink:href="#mc462811c93" x="954.667083" y="297.303431" style="fill: #0000ff; stroke: #0000ff"/>
    </g>
   </g>
   <g id="line2d_122">
    <path d="M 918.580714 450.637579 
" clip-path="url(#pe026e634ed)" style="fill: none; stroke: #0000ff; stroke-width: 1.5; stroke-linecap: square"/>
    <g clip-path="url(#pe026e634ed)">
     <use xlink:href="#mc462811c93" x="918.580714" y="450.637579" style="fill: #0000ff; stroke: #0000ff"/>
    </g>
   </g>
   <g id="line2d_123">
    <path d="M 989.775823 586.615662 
" clip-path="url(#pe026e634ed)" style="fill: none; stroke: #0000ff; stroke-width: 1.5; stroke-linecap: square"/>
    <g clip-path="url(#pe026e634ed)">
     <use xlink:href="#mc462811c93" x="989.775823" y="586.615662" style="fill: #0000ff; stroke: #0000ff"/>
    </g>
   </g>
   <g id="line2d_124">
    <path d="M 884.119323 565.496394 
" clip-path="url(#pe026e634ed)" style="fill: none; stroke: #0000ff; stroke-width: 1.5; stroke-linecap: square"/>
    <g clip-path="url(#pe026e634ed)">
     <use xlink:href="#mc462811c93" x="884.119323" y="565.496394" style="fill: #0000ff; stroke: #0000ff"/>
    </g>
   </g>
   <g id="line2d_125">
    <path d="M 868.312133 636.494503 
" clip-path="url(#pe026e634ed)" style="fill: none; stroke: #0000ff; stroke-width: 1.5; stroke-linecap: square"/>
    <g clip-path="url(#pe026e634ed)">
     <use xlink:href="#mc462811c93" x="868.312133" y="636.494503" style="fill: #0000ff; stroke: #0000ff"/>
    </g>
   </g>
   <g id="line2d_126">
    <path d="M 1237.076107 1145.137877 
" clip-path="url(#pe026e634ed)" style="fill: none; stroke: #0000ff; stroke-width: 1.5; stroke-linecap: square"/>
    <g clip-path="url(#pe026e634ed)">
     <use xlink:href="#mc462811c93" x="1237.076107" y="1145.137877" style="fill: #0000ff; stroke: #0000ff"/>
    </g>
   </g>
   <g id="line2d_127">
    <path d="M 270.565191 1079.261107 
" clip-path="url(#pe026e634ed)" style="fill: none; stroke: #0000ff; stroke-width: 1.5; stroke-linecap: square"/>
    <g clip-path="url(#pe026e634ed)">
     <use xlink:href="#mc462811c93" x="270.565191" y="1079.261107" style="fill: #0000ff; stroke: #0000ff"/>
    </g>
   </g>
   <g id="line2d_128">
    <path d="M 317.41868 1105.694995 
" clip-path="url(#pe026e634ed)" style="fill: none; stroke: #0000ff; stroke-width: 1.5; stroke-linecap: square"/>
    <g clip-path="url(#pe026e634ed)">
     <use xlink:href="#mc462811c93" x="317.41868" y="1105.694995" style="fill: #0000ff; stroke: #0000ff"/>
    </g>
   </g>
   <g id="line2d_129">
    <path d="M 1093.331743 412.724828 
" clip-path="url(#pe026e634ed)" style="fill: none; stroke: #0000ff; stroke-width: 1.5; stroke-linecap: square"/>
    <g clip-path="url(#pe026e634ed)">
     <use xlink:href="#mc462811c93" x="1093.331743" y="412.724828" style="fill: #0000ff; stroke: #0000ff"/>
    </g>
   </g>
   <g id="line2d_130">
    <path d="M 540.423584 1142.169077 
" clip-path="url(#pe026e634ed)" style="fill: none; stroke: #0000ff; stroke-width: 1.5; stroke-linecap: square"/>
    <g clip-path="url(#pe026e634ed)">
     <use xlink:href="#mc462811c93" x="540.423584" y="1142.169077" style="fill: #0000ff; stroke: #0000ff"/>
    </g>
   </g>
   <g id="line2d_131">
    <path d="M 1035.592233 617.824596 
" clip-path="url(#pe026e634ed)" style="fill: none; stroke: #0000ff; stroke-width: 1.5; stroke-linecap: square"/>
    <g clip-path="url(#pe026e634ed)">
     <use xlink:href="#mc462811c93" x="1035.592233" y="617.824596" style="fill: #0000ff; stroke: #0000ff"/>
    </g>
   </g>
   <g id="line2d_132">
    <path d="M 355.552783 1155.240773 
" clip-path="url(#pe026e634ed)" style="fill: none; stroke: #0000ff; stroke-width: 1.5; stroke-linecap: square"/>
    <g clip-path="url(#pe026e634ed)">
     <use xlink:href="#mc462811c93" x="355.552783" y="1155.240773" style="fill: #0000ff; stroke: #0000ff"/>
    </g>
   </g>
   <g id="line2d_133">
    <path d="M 342.031129 1150.876446 
" clip-path="url(#pe026e634ed)" style="fill: none; stroke: #0000ff; stroke-width: 1.5; stroke-linecap: square"/>
    <g clip-path="url(#pe026e634ed)">
     <use xlink:href="#mc462811c93" x="342.031129" y="1150.876446" style="fill: #0000ff; stroke: #0000ff"/>
    </g>
   </g>
   <g id="line2d_134">
    <path d="M 871.793282 812.916382 
" clip-path="url(#pe026e634ed)" style="fill: none; stroke: #0000ff; stroke-width: 1.5; stroke-linecap: square"/>
    <g clip-path="url(#pe026e634ed)">
     <use xlink:href="#mc462811c93" x="871.793282" y="812.916382" style="fill: #0000ff; stroke: #0000ff"/>
    </g>
   </g>
   <g id="line2d_135">
    <path d="M 1193.644316 47.247704 
" clip-path="url(#pe026e634ed)" style="fill: none; stroke: #ff0000; stroke-width: 1.5; stroke-linecap: square"/>
    <defs>
     <path id="m0c9da6d786" d="M 0 -10 
L -2.24514 -3.09017 
L -9.510565 -3.09017 
L -3.632713 1.18034 
L -5.877853 8.09017 
L -0 3.81966 
L 5.877853 8.09017 
L 3.632713 1.18034 
L 9.510565 -3.09017 
L 2.24514 -3.09017 
z
" style="stroke: #ff0000; stroke-linejoin: bevel"/>
    </defs>
    <g clip-path="url(#pe026e634ed)">
     <use xlink:href="#m0c9da6d786" x="1193.644316" y="47.247704" style="fill: #ff0000; stroke: #ff0000; stroke-linejoin: bevel"/>
    </g>
   </g>
   <g id="line2d_136">
    <path d="M 1067.517076 97.984799 
" clip-path="url(#pe026e634ed)" style="fill: none; stroke: #ff0000; stroke-width: 1.5; stroke-linecap: square"/>
    <g clip-path="url(#pe026e634ed)">
     <use xlink:href="#m0c9da6d786" x="1067.517076" y="97.984799" style="fill: #ff0000; stroke: #ff0000; stroke-linejoin: bevel"/>
    </g>
   </g>
   <g id="line2d_137">
    <path d="M 955.816456 299.692967 
" clip-path="url(#pe026e634ed)" style="fill: none; stroke: #ff0000; stroke-width: 1.5; stroke-linecap: square"/>
    <g clip-path="url(#pe026e634ed)">
     <use xlink:href="#m0c9da6d786" x="955.816456" y="299.692967" style="fill: #ff0000; stroke: #ff0000; stroke-linejoin: bevel"/>
    </g>
   </g>
   <g id="line2d_138">
    <path d="M 919.888622 450.959137 
" clip-path="url(#pe026e634ed)" style="fill: none; stroke: #ff0000; stroke-width: 1.5; stroke-linecap: square"/>
    <g clip-path="url(#pe026e634ed)">
     <use xlink:href="#m0c9da6d786" x="919.888622" y="450.959137" style="fill: #ff0000; stroke: #ff0000; stroke-linejoin: bevel"/>
    </g>
   </g>
   <g id="line2d_139">
    <path d="M 997.385469 588.241859 
" clip-path="url(#pe026e634ed)" style="fill: none; stroke: #ff0000; stroke-width: 1.5; stroke-linecap: square"/>
    <g clip-path="url(#pe026e634ed)">
     <use xlink:href="#m0c9da6d786" x="997.385469" y="588.241859" style="fill: #ff0000; stroke: #ff0000; stroke-linejoin: bevel"/>
    </g>
   </g>
   <g id="line2d_140">
    <path d="M 889.945458 562.811185 
" clip-path="url(#pe026e634ed)" style="fill: none; stroke: #ff0000; stroke-width: 1.5; stroke-linecap: square"/>
    <g clip-path="url(#pe026e634ed)">
     <use xlink:href="#m0c9da6d786" x="889.945458" y="562.811185" style="fill: #ff0000; stroke: #ff0000; stroke-linejoin: bevel"/>
    </g>
   </g>
   <g id="line2d_141">
    <path d="M 874.481759 626.075227 
" clip-path="url(#pe026e634ed)" style="fill: none; stroke: #ff0000; stroke-width: 1.5; stroke-linecap: square"/>
    <g clip-path="url(#pe026e634ed)">
     <use xlink:href="#m0c9da6d786" x="874.481759" y="626.075227" style="fill: #ff0000; stroke: #ff0000; stroke-linejoin: bevel"/>
    </g>
   </g>
   <g id="line2d_142">
    <path d="M 1235.431313 1152.753446 
" clip-path="url(#pe026e634ed)" style="fill: none; stroke: #ff0000; stroke-width: 1.5; stroke-linecap: square"/>
    <g clip-path="url(#pe026e634ed)">
     <use xlink:href="#m0c9da6d786" x="1235.431313" y="1152.753446" style="fill: #ff0000; stroke: #ff0000; stroke-linejoin: bevel"/>
    </g>
   </g>
   <g id="line2d_143">
    <path d="M 271.463552 1080.937925 
" clip-path="url(#pe026e634ed)" style="fill: none; stroke: #ff0000; stroke-width: 1.5; stroke-linecap: square"/>
    <g clip-path="url(#pe026e634ed)">
     <use xlink:href="#m0c9da6d786" x="271.463552" y="1080.937925" style="fill: #ff0000; stroke: #ff0000; stroke-linejoin: bevel"/>
    </g>
   </g>
   <g id="line2d_144">
    <path d="M 311.92943 1104.190749 
" clip-path="url(#pe026e634ed)" style="fill: none; stroke: #ff0000; stroke-width: 1.5; stroke-linecap: square"/>
    <g clip-path="url(#pe026e634ed)">
     <use xlink:href="#m0c9da6d786" x="311.92943" y="1104.190749" style="fill: #ff0000; stroke: #ff0000; stroke-linejoin: bevel"/>
    </g>
   </g>
   <g id="line2d_145">
    <path d="M 1091.68695 415.768985 
" clip-path="url(#pe026e634ed)" style="fill: none; stroke: #ff0000; stroke-width: 1.5; stroke-linecap: square"/>
    <g clip-path="url(#pe026e634ed)">
     <use xlink:href="#m0c9da6d786" x="1091.68695" y="415.768985" style="fill: #ff0000; stroke: #ff0000; stroke-linejoin: bevel"/>
    </g>
   </g>
   <g id="line2d_146">
    <path d="M 541.691858 1139.836489 
" clip-path="url(#pe026e634ed)" style="fill: none; stroke: #ff0000; stroke-width: 1.5; stroke-linecap: square"/>
    <g clip-path="url(#pe026e634ed)">
     <use xlink:href="#m0c9da6d786" x="541.691858" y="1139.836489" style="fill: #ff0000; stroke: #ff0000; stroke-linejoin: bevel"/>
    </g>
   </g>
   <g id="line2d_147">
    <path d="M 1035.215714 618.156508 
" clip-path="url(#pe026e634ed)" style="fill: none; stroke: #ff0000; stroke-width: 1.5; stroke-linecap: square"/>
    <g clip-path="url(#pe026e634ed)">
     <use xlink:href="#m0c9da6d786" x="1035.215714" y="618.156508" style="fill: #ff0000; stroke: #ff0000; stroke-linejoin: bevel"/>
    </g>
   </g>
   <g id="line2d_148">
    <path d="M 352.520815 1153.979852 
" clip-path="url(#pe026e634ed)" style="fill: none; stroke: #ff0000; stroke-width: 1.5; stroke-linecap: square"/>
    <g clip-path="url(#pe026e634ed)">
     <use xlink:href="#m0c9da6d786" x="352.520815" y="1153.979852" style="fill: #ff0000; stroke: #ff0000; stroke-linejoin: bevel"/>
    </g>
   </g>
   <g id="line2d_149">
    <path d="M 360.744781 1157.259281 
" clip-path="url(#pe026e634ed)" style="fill: none; stroke: #ff0000; stroke-width: 1.5; stroke-linecap: square"/>
    <g clip-path="url(#pe026e634ed)">
     <use xlink:href="#m0c9da6d786" x="360.744781" y="1157.259281" style="fill: #ff0000; stroke: #ff0000; stroke-linejoin: bevel"/>
    </g>
   </g>
   <g id="line2d_150">
    <path d="M 831.743556 925.633588 
" clip-path="url(#pe026e634ed)" style="fill: none; stroke: #ff0000; stroke-width: 1.5; stroke-linecap: square"/>
    <g clip-path="url(#pe026e634ed)">
     <use xlink:href="#m0c9da6d786" x="831.743556" y="925.633588" style="fill: #ff0000; stroke: #ff0000; stroke-linejoin: bevel"/>
    </g>
   </g>
  </g>
 </g>
 <defs>
  <clipPath id="pe026e634ed">
   <rect x="0" y="0" width="1440" height="1440"/>
  </clipPath>
 </defs>
</svg>
