<?xml version="1.0" encoding="utf-8" standalone="no"?>
<!DOCTYPE svg PUBLIC "-//W3C//DTD SVG 1.1//EN"
  "http://www.w3.org/Graphics/SVG/1.1/DTD/svg11.dtd">
<svg xmlns:xlink="http://www.w3.org/1999/xlink" width="1440pt" height="1440pt" viewBox="0 0 1440 1440" xmlns="http://www.w3.org/2000/svg" version="1.1">
 <metadata>
  <rdf:RDF xmlns:dc="http://purl.org/dc/elements/1.1/" xmlns:cc="http://creativecommons.org/ns#" xmlns:rdf="http://www.w3.org/1999/02/22-rdf-syntax-ns#">
   <cc:Work>
    <dc:type rdf:resource="http://purl.org/dc/dcmitype/StillImage"/>
    <dc:date>2026-02-27T11:10:16.516744</dc:date>
    <dc:format>image/svg+xml</dc:format>
    <dc:creator>
     <cc:Agent>
      <dc:title>Matplotlib v3.7.3, https://matplotlib.org/</dc:title>
     </cc:Agent>
    </dc:creator>
   </cc:Work>
  </rdf:RDF>
 </metadata>
 <defs>
  <style type="text/css">*{stroke-linejoin: round; stroke-linecap: butt}</style>
 </defs>
 <g id="figure_1">
  <g id="patch_1">
   <path d="M 0 1440 
L 1440 1440 
L 1440 0 
L 0 0 
z
" style="fill: #ffffff"/>
  </g>
  <g id="axes_1">
   <g id="line2d_1">
    <path d="M 245.044123 486.21928 
L 228.535983 551.359687 
" clip-path="url(#pefe2a41e3a)" style="fill: none; stroke: #7a7a7a; stroke-width: 3; stroke-linecap: square"/>
   </g>
   <g id="line2d_2">
    <path d="M 213.498865 486.21928 
L 199.442429 539.650158 
" clip-path="url(#pefe2a41e3a)" style="fill: none; stroke: #7a7a7a; stroke-width: 3; stroke-linecap: square"/>
   </g>
   <g id="line2d_3">
    <path d="M 1175.138894 279.383728 
L 1167.211718 308.116354 
L 1161.491075 326.123446 
L 1152.501494 345.31133 
L 1145.554999 352.592886 
L 1133.78682 354.757673 
L 1119.893831 351.412093 
L 1100.77054 345.704928 
L 1086.468933 341.178555 
" clip-path="url(#pefe2a41e3a)" style="fill: none; stroke: #7a7a7a; stroke-width: 3; stroke-linecap: square"/>
   </g>
   <g id="line2d_4">
    <path d="M 1156.260773 273.774962 
L 1153.645623 284.303698 
L 1149.968067 298.473213 
L 1148.333597 302.704387 
L 1146.372234 306.148366 
L 1144.492594 309.001949 
L 1140.406421 312.24913 
L 1132.887862 316.873902 
L 1127.902731 318.940289 
L 1125.042409 319.530686 
L 1124.470345 319.629085 
L 1119.893831 319.727484 
L 1117.27868 319.333887 
L 1113.355954 318.645091 
L 1108.779439 317.464298 
L 1094.723003 312.24913 
" clip-path="url(#pefe2a41e3a)" style="fill: none; stroke: #7a7a7a; stroke-width: 3; stroke-linecap: square"/>
   </g>
   <g id="line2d_5">
    <path d="M 1216.736139 296.406825 
L 1135.257843 610.989727 
" clip-path="url(#pefe2a41e3a)" style="fill: none; stroke: #7a7a7a; stroke-width: 3; stroke-linecap: square"/>
   </g>
   <g id="line2d_6">
    <path d="M 1187.642585 285.68129 
L 1107.14497 600.756189 
" clip-path="url(#pefe2a41e3a)" style="fill: none; stroke: #7a7a7a; stroke-width: 3; stroke-linecap: square"/>
   </g>
   <g id="line2d_7">
    <path d="M 1063.096022 434.953189 
L 1286.364532 519.871877 
" clip-path="url(#pefe2a41e3a)" style="fill: none; stroke: #7a7a7a; stroke-width: 3; stroke-linecap: square"/>
   </g>
   <g id="line2d_8">
    <path d="M 1056.231251 461.619429 
L 1278.682526 545.84932 
" clip-path="url(#pefe2a41e3a)" style="fill: none; stroke: #7a7a7a; stroke-width: 3; stroke-linecap: square"/>
   </g>
   <g id="line2d_9">
    <path d="M 251.500277 560.314033 
L 271.60425 486.21928 
" clip-path="url(#pefe2a41e3a)" style="fill: none; stroke: #7a7a7a; stroke-width: 3; stroke-linecap: square"/>
   </g>
   <g id="line2d_10">
    <path d="M 272.584931 568.874782 
L 294.813714 491.336049 
L 296.284736 486.21928 
" clip-path="url(#pefe2a41e3a)" style="fill: none; stroke: #7a7a7a; stroke-width: 3; stroke-linecap: square"/>
   </g>
   <g id="line2d_11">
    <path d="M 1086.468933 341.178555 
L 792.836518 231.561616 
L 792.509624 231.463217 
" clip-path="url(#pefe2a41e3a)" style="fill: none; stroke: #7a7a7a; stroke-width: 3; stroke-linecap: square"/>
   </g>
   <g id="line2d_12">
    <path d="M 1094.723003 312.24913 
L 792.918242 198.794614 
L 792.509624 198.696215 
" clip-path="url(#pefe2a41e3a)" style="fill: none; stroke: #7a7a7a; stroke-width: 3; stroke-linecap: square"/>
   </g>
   <g id="line2d_13">
    <path d="M 1048.876139 490.253656 
L 1270.019839 575.172344 
" clip-path="url(#pefe2a41e3a)" style="fill: none; stroke: #7a7a7a; stroke-width: 3; stroke-linecap: square"/>
   </g>
   <g id="line2d_14">
    <path d="M 1040.622068 522.528661 
L 1261.520598 603.90497 
" clip-path="url(#pefe2a41e3a)" style="fill: none; stroke: #7a7a7a; stroke-width: 3; stroke-linecap: square"/>
   </g>
   <g id="line2d_15">
    <path d="M 228.535983 551.359687 
L 245.044123 486.21928 
" clip-path="url(#pefe2a41e3a)" style="fill: none; stroke: #7a7a7a; stroke-width: 3; stroke-linecap: square"/>
   </g>
   <g id="line2d_16">
    <path d="M 251.500277 560.314033 
L 271.60425 486.21928 
" clip-path="url(#pefe2a41e3a)" style="fill: none; stroke: #7a7a7a; stroke-width: 3; stroke-linecap: square"/>
   </g>
   <g id="line2d_17">
    <path d="M 1304.016801 451.681088 
L 1078.13314 370.20638 
" clip-path="url(#pefe2a41e3a)" style="fill: none; stroke: #7a7a7a; stroke-width: 3; stroke-linecap: square"/>
   </g>
   <g id="line2d_18">
    <path d="M 1311.290189 425.014849 
L 1086.468933 341.178555 
" clip-path="url(#pefe2a41e3a)" style="fill: none; stroke: #7a7a7a; stroke-width: 3; stroke-linecap: square"/>
   </g>
   <g id="line2d_19">
    <path d="M 1242.642477 306.049967 
L 1161.409352 620.53447 
" clip-path="url(#pefe2a41e3a)" style="fill: none; stroke: #7a7a7a; stroke-width: 3; stroke-linecap: square"/>
   </g>
   <g id="line2d_20">
    <path d="M 1216.736139 296.406825 
L 1135.257843 610.989727 
" clip-path="url(#pefe2a41e3a)" style="fill: none; stroke: #7a7a7a; stroke-width: 3; stroke-linecap: square"/>
   </g>
   <g id="line2d_21">
    <path d="M 1285.629021 321.793872 
L 1282.605253 332.02741 
L 1279.581484 344.425735 
L 1279.418037 346.000126 
L 1205.21313 636.573573 
" clip-path="url(#pefe2a41e3a)" style="fill: none; stroke: #7a7a7a; stroke-width: 3; stroke-linecap: square"/>
   </g>
   <g id="line2d_22">
    <path d="M 1242.642477 306.049967 
L 1161.409352 620.53447 
" clip-path="url(#pefe2a41e3a)" style="fill: none; stroke: #7a7a7a; stroke-width: 3; stroke-linecap: square"/>
   </g>
   <g id="line2d_23">
    <path d="M 792.509624 335.176191 
L 1060.726041 434.362793 
L 1063.096022 434.953189 
" clip-path="url(#pefe2a41e3a)" style="fill: none; stroke: #7a7a7a; stroke-width: 3; stroke-linecap: square"/>
   </g>
   <g id="line2d_24">
    <path d="M 792.509624 363.810419 
L 1056.231251 461.619429 
" clip-path="url(#pefe2a41e3a)" style="fill: none; stroke: #7a7a7a; stroke-width: 3; stroke-linecap: square"/>
   </g>
   <g id="line2d_25">
    <path d="M 468.72125 111.120743 
L 454.583091 105.905574 
L 435.214629 99.312814 
L 419.442 89.866471 
L 406.856586 78.058542 
L 397.213217 64.282625 
L 390.348446 49.129117 
L 386.017102 32.893215 
L 383.892292 15.968517 
L 383.729369 -1 
" clip-path="url(#pefe2a41e3a)" style="fill: none; stroke: #7a7a7a; stroke-width: 3; stroke-linecap: square"/>
   </g>
   <g id="line2d_26">
    <path d="M 477.220491 82.584915 
L 463.082331 77.369746 
L 445.756956 68.808998 
L 433.253266 55.525078 
L 425.32609 39.387576 
L 421.730257 22.167679 
L 422.302322 5.833378 
L 424.547949 -1 
" clip-path="url(#pefe2a41e3a)" style="fill: none; stroke: #7a7a7a; stroke-width: 3; stroke-linecap: square"/>
   </g>
   <g id="line2d_27">
    <path d="M 1135.257843 610.989727 
L 1038.170364 987.170658 
L 1014.307112 1073.860535 
L 1014.061942 1075.041328 
L 1013.898495 1075.336526 
L 1013.735048 1076.123722 
L 1013.571601 1076.615719 
" clip-path="url(#pefe2a41e3a)" style="fill: none; stroke: #7a7a7a; stroke-width: 3; stroke-linecap: square"/>
   </g>
   <g id="line2d_28">
    <path d="M 1107.14497 600.756189 
L 984.06943 1073.860535 
L 983.742536 1074.942929 
L 983.660812 1075.336526 
L 983.497365 1076.123722 
L 983.333919 1076.615719 
" clip-path="url(#pefe2a41e3a)" style="fill: none; stroke: #7a7a7a; stroke-width: 3; stroke-linecap: square"/>
   </g>
   <g id="line2d_29">
    <path d="M 1048.876139 490.253656 
L 1088.266849 504.915167 
L 1102.731903 513.279117 
L 1115.235593 525.087046 
L 1125.369303 539.551758 
L 1132.806139 556.082859 
L 1137.219206 573.893151 
L 1138.118164 592.490639 
L 1135.257843 610.989727 
" clip-path="url(#pefe2a41e3a)" style="fill: none; stroke: #7a7a7a; stroke-width: 3; stroke-linecap: square"/>
   </g>
   <g id="line2d_30">
    <path d="M 1040.622068 522.528661 
L 1080.012779 537.190173 
L 1090.800277 542.306942 
L 1099.626411 553.819672 
L 1105.919118 569.07158 
L 1108.697716 585.602681 
L 1107.14497 600.756189 
" clip-path="url(#pefe2a41e3a)" style="fill: none; stroke: #7a7a7a; stroke-width: 3; stroke-linecap: square"/>
   </g>
   <g id="line2d_31">
    <path d="M 792.509624 363.810419 
L 1056.231251 461.619429 
" clip-path="url(#pefe2a41e3a)" style="fill: none; stroke: #7a7a7a; stroke-width: 3; stroke-linecap: square"/>
   </g>
   <g id="line2d_32">
    <path d="M 792.509624 396.577421 
L 1048.876139 490.253656 
" clip-path="url(#pefe2a41e3a)" style="fill: none; stroke: #7a7a7a; stroke-width: 3; stroke-linecap: square"/>
   </g>
   <g id="line2d_33">
    <path d="M 1107.14497 600.756189 
L 984.06943 1073.860535 
L 983.742536 1074.942929 
L 983.660812 1075.336526 
L 983.497365 1076.123722 
L 983.333919 1076.615719 
" clip-path="url(#pefe2a41e3a)" style="fill: none; stroke: #7a7a7a; stroke-width: 3; stroke-linecap: square"/>
   </g>
   <g id="line2d_34">
    <path d="M 1092.925087 595.541021 
L 1057.048485 733.595388 
L 968.05163 1073.860535 
L 967.80646 1074.942929 
L 967.643013 1075.336526 
L 967.479566 1076.025322 
L 967.316119 1076.615719 
" clip-path="url(#pefe2a41e3a)" style="fill: none; stroke: #7a7a7a; stroke-width: 3; stroke-linecap: square"/>
   </g>
   <g id="line2d_35">
    <path d="M 744.456226 244.943936 
L 553.877102 172.521972 
" clip-path="url(#pefe2a41e3a)" style="fill: none; stroke: #7a7a7a; stroke-width: 3; stroke-linecap: square"/>
   </g>
   <g id="line2d_36">
    <path d="M 749.931698 216.112909 
L 562.049449 144.871739 
" clip-path="url(#pefe2a41e3a)" style="fill: none; stroke: #7a7a7a; stroke-width: 3; stroke-linecap: square"/>
   </g>
   <g id="line2d_37">
    <path d="M 245.779634 29.154037 
L 162.565021 -1 
" clip-path="url(#pefe2a41e3a)" style="fill: none; stroke: #7a7a7a; stroke-width: 3; stroke-linecap: square"/>
   </g>
   <g id="line2d_38">
    <path d="M 262.614668 2.979795 
L 251.421614 -1 
" clip-path="url(#pefe2a41e3a)" style="fill: none; stroke: #7a7a7a; stroke-width: 3; stroke-linecap: square"/>
   </g>
   <g id="line2d_39">
    <path d="M 1205.21313 636.573573 
L 1196.550442 669.143777 
L 1151.357365 842.031534 
L 1132.315798 916.224686 
L 1091.454065 1073.860535 
L 1091.127171 1075.139728 
L 1091.045447 1075.336526 
L 1090.882 1076.222121 
L 1090.800277 1076.615719 
" clip-path="url(#pefe2a41e3a)" style="fill: none; stroke: #7a7a7a; stroke-width: 3; stroke-linecap: square"/>
   </g>
   <g id="line2d_40">
    <path d="M 1161.409352 620.53447 
L 1044.136178 1073.860535 
L 1043.809284 1075.041328 
L 1043.72756 1075.336526 
L 1043.48239 1076.222121 
L 1043.400666 1076.615719 
" clip-path="url(#pefe2a41e3a)" style="fill: none; stroke: #7a7a7a; stroke-width: 3; stroke-linecap: square"/>
   </g>
   <g id="line2d_41">
    <path d="M 1212.895136 191.021061 
L 1187.642585 285.68129 
" clip-path="url(#pefe2a41e3a)" style="fill: none; stroke: #7a7a7a; stroke-width: 3; stroke-linecap: square"/>
   </g>
   <g id="line2d_42">
    <path d="M 1197.531124 191.021061 
L 1175.220618 279.383728 
" clip-path="url(#pefe2a41e3a)" style="fill: none; stroke: #7a7a7a; stroke-width: 3; stroke-linecap: square"/>
   </g>
   <g id="line2d_43">
    <path d="M 1161.409352 620.53447 
L 1044.136178 1073.860535 
L 1043.809284 1075.041328 
L 1043.72756 1075.336526 
L 1043.48239 1076.222121 
L 1043.400666 1076.615719 
" clip-path="url(#pefe2a41e3a)" style="fill: none; stroke: #7a7a7a; stroke-width: 3; stroke-linecap: square"/>
   </g>
   <g id="line2d_44">
    <path d="M 1135.257843 610.989727 
L 1038.170364 987.170658 
L 1014.307112 1073.860535 
L 1014.061942 1075.041328 
L 1013.898495 1075.336526 
L 1013.735048 1076.123722 
L 1013.571601 1076.615719 
" clip-path="url(#pefe2a41e3a)" style="fill: none; stroke: #7a7a7a; stroke-width: 3; stroke-linecap: square"/>
   </g>
   <g id="line2d_45">
    <path d="M 535.407599 198.302617 
L 446.08385 162.97723 
" clip-path="url(#pefe2a41e3a)" style="fill: none; stroke: #7a7a7a; stroke-width: 3; stroke-linecap: square"/>
   </g>
   <g id="line2d_46">
    <path d="M 553.877102 172.521972 
L 457.606859 135.622195 
" clip-path="url(#pefe2a41e3a)" style="fill: none; stroke: #7a7a7a; stroke-width: 3; stroke-linecap: square"/>
   </g>
   <g id="line2d_47">
    <path d="M 1296.743412 478.740925 
L 1070.451134 397.069418 
" clip-path="url(#pefe2a41e3a)" style="fill: none; stroke: #7a7a7a; stroke-width: 3; stroke-linecap: square"/>
   </g>
   <g id="line2d_48">
    <path d="M 1304.016801 451.681088 
L 1078.13314 370.20638 
" clip-path="url(#pefe2a41e3a)" style="fill: none; stroke: #7a7a7a; stroke-width: 3; stroke-linecap: square"/>
   </g>
   <g id="line2d_49">
    <path d="M 1078.13314 370.20638 
L 792.836518 262.557429 
L 792.509624 262.45903 
" clip-path="url(#pefe2a41e3a)" style="fill: none; stroke: #7a7a7a; stroke-width: 3; stroke-linecap: square"/>
   </g>
   <g id="line2d_50">
    <path d="M 1086.468933 341.178555 
L 792.836518 231.561616 
L 792.509624 231.463217 
" clip-path="url(#pefe2a41e3a)" style="fill: none; stroke: #7a7a7a; stroke-width: 3; stroke-linecap: square"/>
   </g>
   <g id="line2d_51">
    <path d="M 1287.835554 511.606327 
L 1269.856392 504.816768 
L 1254.574104 501.372789 
L 1238.883198 500.388795 
L 1222.865399 501.569588 
L 1206.847599 504.816768 
L 1191.156694 509.933537 
L 1176.037852 516.821496 
L 1161.654522 525.382244 
L 1148.333597 535.320584 
L 1136.401971 546.538116 
L 1126.023091 558.838042 
L 1117.52385 572.023563 
L 1111.14942 586.094678 
L 1107.14497 600.756189 
" clip-path="url(#pefe2a41e3a)" style="fill: none; stroke: #7a7a7a; stroke-width: 3; stroke-linecap: square"/>
   </g>
   <g id="line2d_52">
    <path d="M 1296.743412 478.740925 
L 1278.76425 471.951366 
L 1264.380919 468.01539 
L 1249.507249 466.3426 
L 1234.143237 466.834597 
L 1218.615778 469.491381 
L 1203.08832 473.919354 
L 1187.724308 480.216916 
L 1172.850637 488.187268 
L 1158.54903 497.633611 
L 1145.064659 508.555945 
L 1132.642692 520.659072 
L 1121.364853 533.942992 
L 1111.639761 548.210906 
L 1103.467414 563.266015 
L 1097.174707 579.10832 
L 1092.925087 595.541021 
" clip-path="url(#pefe2a41e3a)" style="fill: none; stroke: #7a7a7a; stroke-width: 3; stroke-linecap: square"/>
   </g>
   <g id="line2d_53">
    <path d="M 446.08385 162.97723 
L 238.424522 84.257705 
L 238.097628 83.962507 
L 226.901513 79.928131 
" clip-path="url(#pefe2a41e3a)" style="fill: none; stroke: #7a7a7a; stroke-width: 3; stroke-linecap: square"/>
   </g>
   <g id="line2d_54">
    <path d="M 457.606859 135.622195 
L 236.299712 57.394667 
" clip-path="url(#pefe2a41e3a)" style="fill: none; stroke: #7a7a7a; stroke-width: 3; stroke-linecap: square"/>
   </g>
   <g id="line2d_55">
    <path d="M 1311.290189 425.014849 
L 1086.468933 341.178555 
" clip-path="url(#pefe2a41e3a)" style="fill: none; stroke: #7a7a7a; stroke-width: 3; stroke-linecap: square"/>
   </g>
   <g id="line2d_56">
    <path d="M 1319.380812 395.00303 
L 1109.841845 317.759496 
L 1108.779439 317.464298 
L 1094.723003 312.24913 
" clip-path="url(#pefe2a41e3a)" style="fill: none; stroke: #7a7a7a; stroke-width: 3; stroke-linecap: square"/>
   </g>
   <g id="line2d_57">
    <path d="M 553.877102 172.521972 
L 457.606859 135.622195 
" clip-path="url(#pefe2a41e3a)" style="fill: none; stroke: #7a7a7a; stroke-width: 3; stroke-linecap: square"/>
   </g>
   <g id="line2d_58">
    <path d="M 562.049449 144.871739 
L 468.72125 111.120743 
" clip-path="url(#pefe2a41e3a)" style="fill: none; stroke: #7a7a7a; stroke-width: 3; stroke-linecap: square"/>
   </g>
   <g id="line2d_59">
    <path d="M 56.998427 123.912666 
L 57.488767 124.109464 
L 218.402273 183.641105 
" clip-path="url(#pefe2a41e3a)" style="fill: none; stroke: #7a7a7a; stroke-width: 3; stroke-linecap: square"/>
   </g>
   <g id="line2d_60">
    <path d="M 56.998427 156.679668 
L 57.488767 156.876467 
L 213.090248 213.160927 
" clip-path="url(#pefe2a41e3a)" style="fill: none; stroke: #7a7a7a; stroke-width: 3; stroke-linecap: square"/>
   </g>
   <g id="line2d_61">
    <path d="M 1187.642585 285.68129 
L 1107.14497 600.756189 
" clip-path="url(#pefe2a41e3a)" style="fill: none; stroke: #7a7a7a; stroke-width: 3; stroke-linecap: square"/>
   </g>
   <g id="line2d_62">
    <path d="M 1175.220618 279.383728 
L 1092.925087 595.541021 
" clip-path="url(#pefe2a41e3a)" style="fill: none; stroke: #7a7a7a; stroke-width: 3; stroke-linecap: square"/>
   </g>
   <g id="line2d_63">
    <path d="M 1287.835554 511.606327 
L 1282.033188 509.44154 
L 1279.826655 509.539939 
L 1275.00497 508.359147 
L 1262.909897 510.425534 
L 1251.632059 517.215093 
L 1241.498349 527.940628 
L 1232.753938 542.011744 
L 1225.72572 558.838042 
L 1205.21313 636.573573 
" clip-path="url(#pefe2a41e3a)" style="fill: none; stroke: #7a7a7a; stroke-width: 3; stroke-linecap: square"/>
   </g>
   <g id="line2d_64">
    <path d="M 1296.743412 478.740925 
L 1279.663208 474.017754 
L 1262.828174 473.132159 
L 1246.48348 475.690544 
L 1231.201192 481.397709 
L 1217.144756 489.761659 
L 1204.804512 500.388795 
L 1194.507356 513.082318 
L 1186.743626 527.350232 
L 1181.840218 542.798939 
L 1161.409352 620.53447 
" clip-path="url(#pefe2a41e3a)" style="fill: none; stroke: #7a7a7a; stroke-width: 3; stroke-linecap: square"/>
   </g>
   <g id="line2d_65">
    <path d="M 372.776058 -1 
L 369.345515 14.197327 
L 365.667959 38.009984 
L 364.360384 61.133844 
L 365.259342 83.273711 
L 368.119663 104.232784 
L 372.859624 123.814266 
L 379.234055 141.919757 
L 387.079508 158.254058 
L 396.314259 172.718771 
L 406.693139 185.117096 
L 418.052701 195.252235 
L 427.859517 201.352999 
L 429.167093 202.82899 
L 443.141806 207.945759 
" clip-path="url(#pefe2a41e3a)" style="fill: none; stroke: #7a7a7a; stroke-width: 3; stroke-linecap: square"/>
   </g>
   <g id="line2d_66">
    <path d="M 318.485203 -1 
L 317.696285 2.487798 
L 314.835963 19.510895 
L 313.691835 36.92759 
L 314.263899 54.639484 
L 316.388709 72.449776 
L 319.984542 90.260069 
L 325.051397 107.775163 
L 331.50755 124.89666 
L 339.189556 141.42776 
L 348.015691 157.270064 
L 358.067677 172.029975 
L 369.100345 185.805892 
L 381.031971 198.204218 
L 393.862555 209.126552 
L 407.510374 218.376096 
L 421.893704 225.854451 
L 436.930822 231.364817 
" clip-path="url(#pefe2a41e3a)" style="fill: none; stroke: #7a7a7a; stroke-width: 3; stroke-linecap: square"/>
   </g>
   <g id="line2d_67">
    <path d="M 1070.451134 397.069418 
L 1067.590812 395.495027 
L 792.836518 293.651642 
L 792.509624 293.553242 
" clip-path="url(#pefe2a41e3a)" style="fill: none; stroke: #7a7a7a; stroke-width: 3; stroke-linecap: square"/>
   </g>
   <g id="line2d_68">
    <path d="M 1078.13314 370.20638 
L 792.836518 262.557429 
L 792.509624 262.45903 
" clip-path="url(#pefe2a41e3a)" style="fill: none; stroke: #7a7a7a; stroke-width: 3; stroke-linecap: square"/>
   </g>
   <g id="line2d_69">
    <path d="M 435.214629 191.21786 
L 422.629215 186.19949 
L 407.673821 181.476318 
L 392.80015 180.295526 
L 376.700627 182.558712 
L 360.601104 187.577082 
L 345.073646 194.957037 
L 330.526869 204.698578 
L 317.614561 216.506507 
L 308.62498 235.103995 
L 297.265418 279.580527 
L 293.996479 297.981216 
" clip-path="url(#pefe2a41e3a)" style="fill: none; stroke: #7a7a7a; stroke-width: 3; stroke-linecap: square"/>
   </g>
   <g id="line2d_70">
    <path d="M 446.08385 162.97723 
L 417.235467 152.153295 
L 401.462838 147.331724 
L 387.651572 146.44613 
L 372.124113 149.102914 
L 356.760102 154.022884 
L 341.804707 161.107641 
L 327.584824 170.160387 
L 314.263899 181.082721 
L 302.168826 193.579445 
L 291.544775 207.453762 
L 282.718641 222.60727 
L 275.935593 238.744773 
L 271.440803 255.86627 
L 264.249138 293.651642 
" clip-path="url(#pefe2a41e3a)" style="fill: none; stroke: #7a7a7a; stroke-width: 3; stroke-linecap: square"/>
   </g>
   <g id="line2d_71">
    <path d="M 1056.231251 461.619429 
L 1278.682526 545.84932 
" clip-path="url(#pefe2a41e3a)" style="fill: none; stroke: #7a7a7a; stroke-width: 3; stroke-linecap: square"/>
   </g>
   <g id="line2d_72">
    <path d="M 1048.876139 490.253656 
L 1270.019839 575.172344 
" clip-path="url(#pefe2a41e3a)" style="fill: none; stroke: #7a7a7a; stroke-width: 3; stroke-linecap: square"/>
   </g>
   <g id="line2d_73">
    <path d="M 562.049449 144.871739 
L 468.72125 111.120743 
" clip-path="url(#pefe2a41e3a)" style="fill: none; stroke: #7a7a7a; stroke-width: 3; stroke-linecap: square"/>
   </g>
   <g id="line2d_74">
    <path d="M 571.447648 117.516704 
L 514.649839 96.852829 
L 477.220491 82.584915 
" clip-path="url(#pefe2a41e3a)" style="fill: none; stroke: #7a7a7a; stroke-width: 3; stroke-linecap: square"/>
   </g>
   <g id="line2d_75">
    <path d="M 230.497346 123.22387 
L 428.513305 202.140194 
L 429.167093 202.82899 
L 443.141806 207.945759 
" clip-path="url(#pefe2a41e3a)" style="fill: none; stroke: #7a7a7a; stroke-width: 3; stroke-linecap: square"/>
   </g>
   <g id="line2d_76">
    <path d="M 224.94015 153.235689 
L 436.930822 231.364817 
" clip-path="url(#pefe2a41e3a)" style="fill: none; stroke: #7a7a7a; stroke-width: 3; stroke-linecap: square"/>
   </g>
   <g id="line2d_77">
    <path d="M 468.72125 111.120743 
L 245.779634 29.154037 
" clip-path="url(#pefe2a41e3a)" style="fill: none; stroke: #7a7a7a; stroke-width: 3; stroke-linecap: square"/>
   </g>
   <g id="line2d_78">
    <path d="M 477.220491 82.584915 
L 262.614668 2.979795 
" clip-path="url(#pefe2a41e3a)" style="fill: none; stroke: #7a7a7a; stroke-width: 3; stroke-linecap: square"/>
   </g>
   <g id="line2d_79">
    <path d="M 56.998427 91.342462 
L 57.407044 91.539261 
L 224.94015 153.235689 
" clip-path="url(#pefe2a41e3a)" style="fill: none; stroke: #7a7a7a; stroke-width: 3; stroke-linecap: square"/>
   </g>
   <g id="line2d_80">
    <path d="M 56.998427 123.912666 
L 57.488767 124.109464 
L 218.402273 183.641105 
" clip-path="url(#pefe2a41e3a)" style="fill: none; stroke: #7a7a7a; stroke-width: 3; stroke-linecap: square"/>
   </g>
   <g id="line2d_81">
    <path d="M 245.044123 486.21928 
L 245.534464 484.54649 
L 293.996479 297.981216 
" clip-path="url(#pefe2a41e3a)" style="fill: none; stroke: #7a7a7a; stroke-width: 3; stroke-linecap: square"/>
   </g>
   <g id="line2d_82">
    <path d="M 271.60425 486.21928 
L 272.012867 484.54649 
L 317.205944 307.23076 
" clip-path="url(#pefe2a41e3a)" style="fill: none; stroke: #7a7a7a; stroke-width: 3; stroke-linecap: square"/>
   </g>
   <g id="line2d_83">
    <path d="M 742.331416 276.038148 
L 715.199225 268.658193 
L 691.417696 263.344625 
L 678.99573 261.179838 
L 532.056937 226.543247 
" clip-path="url(#pefe2a41e3a)" style="fill: none; stroke: #7a7a7a; stroke-width: 3; stroke-linecap: square"/>
   </g>
   <g id="line2d_84">
    <path d="M 744.456226 244.943936 
L 535.407599 198.302617 
" clip-path="url(#pefe2a41e3a)" style="fill: none; stroke: #7a7a7a; stroke-width: 3; stroke-linecap: square"/>
   </g>
   <g id="line2d_85">
    <path d="M 236.299712 97.541625 
L 254.033704 102.855193 
L 270.950462 106.59437 
L 286.886538 108.660758 
L 301.841932 108.857556 
L 315.734921 107.086367 
L 328.483782 103.24879 
L 340.088514 97.344826 
L 350.549118 89.079276 
L 359.620423 78.35374 
L 367.384152 65.16822 
L 373.758583 49.325916 
L 378.661991 30.826827 
L 382.094376 9.375757 
L 382.890357 -1 
" clip-path="url(#pefe2a41e3a)" style="fill: none; stroke: #7a7a7a; stroke-width: 3; stroke-linecap: square"/>
   </g>
   <g id="line2d_86">
    <path d="M 230.497346 123.22387 
L 252.971299 129.81663 
L 274.137677 134.343003 
L 293.914756 136.999787 
L 312.220812 137.590183 
L 329.13757 136.40939 
L 344.665028 133.260609 
L 358.803188 128.439038 
L 371.552049 121.747879 
L 382.829887 113.383929 
L 392.80015 103.34719 
L 401.299391 91.73606 
L 408.327609 78.550539 
L 413.966528 63.790628 
L 418.216148 47.554726 
L 421.07647 29.941233 
L 422.465769 10.950147 
L 424.835749 0.51981 
L 425.078488 -1 
" clip-path="url(#pefe2a41e3a)" style="fill: none; stroke: #7a7a7a; stroke-width: 3; stroke-linecap: square"/>
   </g>
   <g id="line2d_87">
    <path d="M 56.998427 60.346649 
L 57.407044 60.543448 
L 230.497346 123.22387 
" clip-path="url(#pefe2a41e3a)" style="fill: none; stroke: #7a7a7a; stroke-width: 3; stroke-linecap: square"/>
   </g>
   <g id="line2d_88">
    <path d="M 56.998427 91.342462 
L 57.407044 91.539261 
L 224.94015 153.235689 
" clip-path="url(#pefe2a41e3a)" style="fill: none; stroke: #7a7a7a; stroke-width: 3; stroke-linecap: square"/>
   </g>
   <g id="line2d_89">
    <path d="M 792.509624 396.577421 
L 1048.876139 490.253656 
" clip-path="url(#pefe2a41e3a)" style="fill: none; stroke: #7a7a7a; stroke-width: 3; stroke-linecap: square"/>
   </g>
   <g id="line2d_90">
    <path d="M 792.509624 429.738021 
L 1040.622068 522.528661 
" clip-path="url(#pefe2a41e3a)" style="fill: none; stroke: #7a7a7a; stroke-width: 3; stroke-linecap: square"/>
   </g>
   <g id="line2d_91">
    <path d="M 236.299712 57.394667 
L 77.13477 -1 
" clip-path="url(#pefe2a41e3a)" style="fill: none; stroke: #7a7a7a; stroke-width: 3; stroke-linecap: square"/>
   </g>
   <g id="line2d_92">
    <path d="M 245.779634 29.154037 
L 162.565021 -1 
" clip-path="url(#pefe2a41e3a)" style="fill: none; stroke: #7a7a7a; stroke-width: 3; stroke-linecap: square"/>
   </g>
   <g id="line2d_93">
    <path d="M 293.996479 297.981216 
L 378.877613 -1 
" clip-path="url(#pefe2a41e3a)" style="fill: none; stroke: #7a7a7a; stroke-width: 3; stroke-linecap: square"/>
   </g>
   <g id="line2d_94">
    <path d="M 317.205944 307.23076 
L 323.171757 276.431746 
L 424.30226 -1 
" clip-path="url(#pefe2a41e3a)" style="fill: none; stroke: #7a7a7a; stroke-width: 3; stroke-linecap: square"/>
   </g>
   <g id="line2d_95">
    <path d="M 224.94015 153.235689 
L 436.930822 231.364817 
" clip-path="url(#pefe2a41e3a)" style="fill: none; stroke: #7a7a7a; stroke-width: 3; stroke-linecap: square"/>
   </g>
   <g id="line2d_96">
    <path d="M 218.402273 183.641105 
L 427.69607 261.179838 
" clip-path="url(#pefe2a41e3a)" style="fill: none; stroke: #7a7a7a; stroke-width: 3; stroke-linecap: square"/>
   </g>
   <g id="line2d_97">
    <path d="M 457.606859 135.622195 
L 236.299712 57.394667 
" clip-path="url(#pefe2a41e3a)" style="fill: none; stroke: #7a7a7a; stroke-width: 3; stroke-linecap: square"/>
   </g>
   <g id="line2d_98">
    <path d="M 468.72125 111.120743 
L 245.779634 29.154037 
" clip-path="url(#pefe2a41e3a)" style="fill: none; stroke: #7a7a7a; stroke-width: 3; stroke-linecap: square"/>
   </g>
   <g id="line2d_99">
    <path d="M 293.996479 297.981216 
L 245.534464 484.54649 
L 245.044123 486.21928 
" clip-path="url(#pefe2a41e3a)" style="fill: none; stroke: #7a7a7a; stroke-width: 3; stroke-linecap: square"/>
   </g>
   <g id="line2d_100">
    <path d="M 264.249138 293.651642 
L 214.234376 483.464097 
L 214.070929 484.251292 
L 213.989206 484.54649 
L 213.498865 486.21928 
" clip-path="url(#pefe2a41e3a)" style="fill: none; stroke: #7a7a7a; stroke-width: 3; stroke-linecap: square"/>
   </g>
   <g id="line2d_101">
    <path d="M 792.509624 262.45903 
L 792.264454 262.36063 
L 790.05792 261.475036 
L 789.158962 261.179838 
L 788.832068 261.081438 
L 744.456226 244.943936 
" clip-path="url(#pefe2a41e3a)" style="fill: none; stroke: #7a7a7a; stroke-width: 3; stroke-linecap: square"/>
   </g>
   <g id="line2d_102">
    <path d="M 792.509624 231.463217 
L 792.264454 231.364817 
L 790.139644 230.577622 
L 789.158962 230.184025 
L 788.913792 230.085625 
L 749.931698 216.112909 
" clip-path="url(#pefe2a41e3a)" style="fill: none; stroke: #7a7a7a; stroke-width: 3; stroke-linecap: square"/>
   </g>
   <g id="line2d_103">
    <path d="M 218.402273 183.641105 
L 427.69607 261.179838 
" clip-path="url(#pefe2a41e3a)" style="fill: none; stroke: #7a7a7a; stroke-width: 3; stroke-linecap: square"/>
   </g>
   <g id="line2d_104">
    <path d="M 213.090248 213.160927 
L 217.421591 214.243321 
L 227.718748 217.982498 
L 231.232857 220.048886 
L 417.889254 290.60126 
" clip-path="url(#pefe2a41e3a)" style="fill: none; stroke: #7a7a7a; stroke-width: 3; stroke-linecap: square"/>
   </g>
   <g id="line2d_105">
    <path d="M 792.509624 231.463217 
L 792.264454 231.364817 
L 790.139644 230.577622 
L 789.158962 230.184025 
L 788.913792 230.085625 
L 749.931698 216.112909 
" clip-path="url(#pefe2a41e3a)" style="fill: none; stroke: #7a7a7a; stroke-width: 3; stroke-linecap: square"/>
   </g>
   <g id="line2d_106">
    <path d="M 792.509624 198.696215 
L 792.264454 198.597815 
L 790.139644 197.81062 
L 789.240686 197.417022 
L 788.913792 197.318623 
L 757.450257 186.396289 
" clip-path="url(#pefe2a41e3a)" style="fill: none; stroke: #7a7a7a; stroke-width: 3; stroke-linecap: square"/>
   </g>
   <g id="line2d_107">
    <path d="M 371.67706 -1 
L 293.996479 297.981216 
" clip-path="url(#pefe2a41e3a)" style="fill: none; stroke: #7a7a7a; stroke-width: 3; stroke-linecap: square"/>
   </g>
   <g id="line2d_108">
    <path d="M 320.092863 -1 
L 264.249138 293.651642 
" clip-path="url(#pefe2a41e3a)" style="fill: none; stroke: #7a7a7a; stroke-width: 3; stroke-linecap: square"/>
   </g>
   <g id="line2d_109">
    <path d="M 226.901513 79.928131 
L 122.785817 42.04436 
L 73.751737 24.627665 
L 57.407044 19.412496 
L 56.998427 19.314097 
" clip-path="url(#pefe2a41e3a)" style="fill: none; stroke: #7a7a7a; stroke-width: 3; stroke-linecap: square"/>
   </g>
   <g id="line2d_110">
    <path d="M 236.299712 57.394667 
L 77.13477 -1 
" clip-path="url(#pefe2a41e3a)" style="fill: none; stroke: #7a7a7a; stroke-width: 3; stroke-linecap: square"/>
   </g>
   <g id="line2d_111">
    <path d="M 427.69607 261.179838 
L 792.509624 396.577421 
" clip-path="url(#pefe2a41e3a)" style="fill: none; stroke: #7a7a7a; stroke-width: 3; stroke-linecap: square"/>
   </g>
   <g id="line2d_112">
    <path d="M 417.889254 290.60126 
L 792.509624 429.738021 
" clip-path="url(#pefe2a41e3a)" style="fill: none; stroke: #7a7a7a; stroke-width: 3; stroke-linecap: square"/>
   </g>
   <g id="line2d_113">
    <path d="M 1272.389819 191.021061 
L 1272.308096 191.414658 
L 1242.642477 306.049967 
" clip-path="url(#pefe2a41e3a)" style="fill: none; stroke: #7a7a7a; stroke-width: 3; stroke-linecap: square"/>
   </g>
   <g id="line2d_114">
    <path d="M 1244.603841 191.021061 
L 1244.522117 191.316259 
L 1216.736139 296.406825 
" clip-path="url(#pefe2a41e3a)" style="fill: none; stroke: #7a7a7a; stroke-width: 3; stroke-linecap: square"/>
   </g>
   <g id="line2d_115">
    <path d="M 1244.603841 191.021061 
L 1244.522117 191.316259 
L 1216.736139 296.406825 
" clip-path="url(#pefe2a41e3a)" style="fill: none; stroke: #7a7a7a; stroke-width: 3; stroke-linecap: square"/>
   </g>
   <g id="line2d_116">
    <path d="M 1212.895136 191.021061 
L 1187.642585 285.68129 
" clip-path="url(#pefe2a41e3a)" style="fill: none; stroke: #7a7a7a; stroke-width: 3; stroke-linecap: square"/>
   </g>
   <g id="line2d_117">
    <path d="M 368.473837 -1 
L 366.403471 3.570192 
L 356.678378 18.526901 
L 345.40054 30.826827 
L 332.815126 40.174771 
L 319.00386 46.275534 
L 304.048466 47.554726 
L 281.492789 41.94596 
L 257.384366 33.385212 
L 245.779634 29.154037 
" clip-path="url(#pefe2a41e3a)" style="fill: none; stroke: #7a7a7a; stroke-width: 3; stroke-linecap: square"/>
   </g>
   <g id="line2d_118">
    <path d="M 313.704601 -1 
L 313.610111 -0.759382 
L 306.091552 10.261351 
L 297.592312 14.886123 
L 287.213432 13.606931 
L 274.137677 7.11257 
L 262.614668 2.979795 
" clip-path="url(#pefe2a41e3a)" style="fill: none; stroke: #7a7a7a; stroke-width: 3; stroke-linecap: square"/>
   </g>
   <g id="line2d_119">
    <path clip-path="url(#pefe2a41e3a)" style="fill: none; stroke: #7a7a7a; stroke-width: 3; stroke-linecap: square"/>
   </g>
   <g id="line2d_120">
    <path clip-path="url(#pefe2a41e3a)" style="fill: none; stroke: #7a7a7a; stroke-width: 3; stroke-linecap: square"/>
   </g>
   <g id="line2d_121">
    <path d="M 742.331416 276.038148 
L 535.407599 198.302617 
" clip-path="url(#pefe2a41e3a)" style="fill: none; stroke: #7a7a7a; stroke-width: 3; stroke-linecap: square"/>
   </g>
   <g id="line2d_122">
    <path d="M 744.456226 244.943936 
L 553.877102 172.521972 
" clip-path="url(#pefe2a41e3a)" style="fill: none; stroke: #7a7a7a; stroke-width: 3; stroke-linecap: square"/>
   </g>
   <g id="line2d_123">
    <path d="M 271.60425 486.21928 
L 272.012867 484.54649 
L 317.205944 307.23076 
" clip-path="url(#pefe2a41e3a)" style="fill: none; stroke: #7a7a7a; stroke-width: 3; stroke-linecap: square"/>
   </g>
   <g id="line2d_124">
    <path d="M 296.284736 486.21928 
L 296.775077 484.54649 
L 297.020248 483.660896 
L 307.562575 440.955553 
L 316.388709 406.122163 
L 335.348553 334.290597 
L 339.925067 316.185106 
" clip-path="url(#pefe2a41e3a)" style="fill: none; stroke: #7a7a7a; stroke-width: 3; stroke-linecap: square"/>
   </g>
   <g id="line2d_125">
    <path d="M 1048.876139 490.253656 
L 1056.721591 493.205638 
L 1067.100472 497.043215 
L 1079.440715 504.127972 
L 1090.473383 515.148706 
L 1099.544688 529.31822 
L 1106.327735 545.84932 
L 1110.168738 563.856412 
L 1110.659079 582.4539 
L 1107.14497 600.756189 
" clip-path="url(#pefe2a41e3a)" style="fill: none; stroke: #7a7a7a; stroke-width: 3; stroke-linecap: square"/>
   </g>
   <g id="line2d_126">
    <path d="M 1040.622068 522.528661 
L 1058.846401 529.31822 
L 1072.330773 536.993374 
L 1083.199994 549.1949 
L 1090.718553 564.250009 
L 1094.232662 580.289113 
L 1092.925087 595.541021 
" clip-path="url(#pefe2a41e3a)" style="fill: none; stroke: #7a7a7a; stroke-width: 3; stroke-linecap: square"/>
   </g>
   <g id="line2d_127">
    <path clip-path="url(#pefe2a41e3a)" style="fill: none; stroke: #7a7a7a; stroke-width: 3; stroke-linecap: square"/>
   </g>
   <g id="line2d_128">
    <path clip-path="url(#pefe2a41e3a)" style="fill: none; stroke: #7a7a7a; stroke-width: 3; stroke-linecap: square"/>
   </g>
   <g id="line2d_129">
    <path d="M 443.141806 207.945759 
L 552.978144 248.289515 
L 591.715067 261.278237 
L 624.404454 272.987766 
L 628.735798 274.758956 
L 634.45644 276.628544 
L 647.041854 281.154917 
L 669.515807 290.109263 
L 792.509624 335.176191 
" clip-path="url(#pefe2a41e3a)" style="fill: none; stroke: #7a7a7a; stroke-width: 3; stroke-linecap: square"/>
   </g>
   <g id="line2d_130">
    <path d="M 436.930822 231.364817 
L 792.509624 363.810419 
" clip-path="url(#pefe2a41e3a)" style="fill: none; stroke: #7a7a7a; stroke-width: 3; stroke-linecap: square"/>
   </g>
   <g id="line2d_131">
    <path d="M 317.205944 307.23076 
L 324.88795 279.186929 
L 331.834444 264.13182 
L 340.415408 252.028693 
L 353.082546 244.25514 
L 370.653091 241.106359 
L 406.202799 253.209486 
L 427.69607 261.179838 
" clip-path="url(#pefe2a41e3a)" style="fill: none; stroke: #7a7a7a; stroke-width: 3; stroke-linecap: square"/>
   </g>
   <g id="line2d_132">
    <path d="M 339.925067 316.185106 
L 343.602623 301.129997 
L 344.665028 299.063609 
L 347.361903 292.175651 
L 350.957735 285.878089 
L 354.880462 281.646914 
L 357.495613 278.891731 
L 362.807638 275.939749 
L 368.855175 274.955755 
L 374.820988 274.857355 
L 386.752614 278.006136 
L 396.395983 282.630908 
L 404.323159 285.58289 
L 417.889254 290.60126 
" clip-path="url(#pefe2a41e3a)" style="fill: none; stroke: #7a7a7a; stroke-width: 3; stroke-linecap: square"/>
   </g>
   <g id="line2d_133">
    <path d="M 436.930822 231.364817 
L 792.509624 363.810419 
" clip-path="url(#pefe2a41e3a)" style="fill: none; stroke: #7a7a7a; stroke-width: 3; stroke-linecap: square"/>
   </g>
   <g id="line2d_134">
    <path d="M 427.69607 261.179838 
L 792.509624 396.577421 
" clip-path="url(#pefe2a41e3a)" style="fill: none; stroke: #7a7a7a; stroke-width: 3; stroke-linecap: square"/>
   </g>
   <g id="line2d_135">
    <path d="M 532.056937 226.543247 
L 435.214629 191.21786 
" clip-path="url(#pefe2a41e3a)" style="fill: none; stroke: #7a7a7a; stroke-width: 3; stroke-linecap: square"/>
   </g>
   <g id="line2d_136">
    <path d="M 535.407599 198.302617 
L 446.08385 162.97723 
" clip-path="url(#pefe2a41e3a)" style="fill: none; stroke: #7a7a7a; stroke-width: 3; stroke-linecap: square"/>
   </g>
   <g id="line2d_137">
    <path d="M 293.996479 297.981216 
L 302.986061 250.355903 
L 305.110871 234.2184 
L 307.644298 218.769693 
L 308.543256 202.533791 
L 307.726022 185.805892 
L 305.029147 169.077993 
L 300.452633 152.546893 
L 293.751309 136.704588 
L 285.006898 121.846278 
L 274.055953 108.365559 
L 260.816752 96.65603 
L 245.044123 87.012888 
L 238.751416 84.552903 
L 238.097628 83.962507 
L 226.901513 79.928131 
" clip-path="url(#pefe2a41e3a)" style="fill: none; stroke: #7a7a7a; stroke-width: 3; stroke-linecap: square"/>
   </g>
   <g id="line2d_138">
    <path d="M 317.205944 307.23076 
L 327.748271 259.999045 
L 330.526869 244.550338 
L 333.877531 228.904832 
L 336.002341 212.472131 
L 336.737852 195.449034 
L 335.920618 178.229138 
L 333.468914 160.910842 
L 329.219293 143.986145 
L 323.00831 127.553444 
L 314.672516 112.104737 
L 304.048466 97.738424 
L 291.054435 84.749702 
L 275.526976 73.53217 
L 257.384366 64.381025 
L 236.299712 57.394667 
" clip-path="url(#pefe2a41e3a)" style="fill: none; stroke: #7a7a7a; stroke-width: 3; stroke-linecap: square"/>
   </g>
   <g id="line2d_139">
    <path d="M 56.998427 29.547635 
L 57.407044 29.646034 
L 236.299712 97.541625 
" clip-path="url(#pefe2a41e3a)" style="fill: none; stroke: #7a7a7a; stroke-width: 3; stroke-linecap: square"/>
   </g>
   <g id="line2d_140">
    <path d="M 56.998427 60.346649 
L 57.407044 60.543448 
L 230.497346 123.22387 
" clip-path="url(#pefe2a41e3a)" style="fill: none; stroke: #7a7a7a; stroke-width: 3; stroke-linecap: square"/>
   </g>
   <g id="line2d_141">
    <path d="M 1285.629021 321.793872 
L 1282.605253 332.02741 
L 1279.581484 344.425735 
L 1279.418037 346.000126 
L 1254.328933 444.301133 
L 1251.386888 463.981014 
L 1254.328933 483.562496 
L 1261.847492 500.880792 
L 1272.88016 513.672715 
L 1279.499761 517.313493 
L 1281.624571 518.100688 
L 1286.364532 519.871877 
" clip-path="url(#pefe2a41e3a)" style="fill: none; stroke: #7a7a7a; stroke-width: 3; stroke-linecap: square"/>
   </g>
   <g id="line2d_142">
    <path d="M 1242.642477 306.049967 
L 1211.34239 428.458829 
L 1208.808962 442.923541 
L 1209.871367 459.257843 
L 1214.284435 476.674538 
L 1221.884717 494.091233 
L 1232.345321 510.720732 
L 1245.421075 525.480643 
L 1260.948534 537.485371 
L 1278.682526 545.84932 
" clip-path="url(#pefe2a41e3a)" style="fill: none; stroke: #7a7a7a; stroke-width: 3; stroke-linecap: square"/>
   </g>
   <g id="line2d_143">
    <path d="M 749.931698 216.112909 
L 562.049449 144.871739 
" clip-path="url(#pefe2a41e3a)" style="fill: none; stroke: #7a7a7a; stroke-width: 3; stroke-linecap: square"/>
   </g>
   <g id="line2d_144">
    <path d="M 757.450257 186.396289 
L 738.490413 179.803529 
L 645.816002 145.068538 
L 571.447648 117.516704 
" clip-path="url(#pefe2a41e3a)" style="fill: none; stroke: #7a7a7a; stroke-width: 3; stroke-linecap: square"/>
   </g>
   <g id="line2d_145">
    <path d="M 218.402273 183.641105 
L 238.587969 191.11946 
L 252.072341 197.515422 
L 264.412584 207.355362 
L 275.118359 219.950486 
L 283.781046 234.611998 
L 289.828583 250.749501 
L 294.73199 266.985403 
L 294.650267 284.894095 
L 293.996479 297.981216 
" clip-path="url(#pefe2a41e3a)" style="fill: none; stroke: #7a7a7a; stroke-width: 3; stroke-linecap: square"/>
   </g>
   <g id="line2d_146">
    <path d="M 213.090248 213.160927 
L 217.421591 214.243321 
L 227.718748 217.982498 
L 230.333899 219.458489 
L 233.275944 220.639282 
L 244.553782 225.657652 
L 254.197151 237.268782 
L 261.388816 253.603083 
L 265.066372 272.889367 
L 264.249138 293.651642 
" clip-path="url(#pefe2a41e3a)" style="fill: none; stroke: #7a7a7a; stroke-width: 3; stroke-linecap: square"/>
   </g>
   <g id="line2d_147">
    <path d="M 792.509624 293.553242 
L 792.182731 293.454843 
L 789.976197 292.667648 
L 789.077239 292.27405 
L 788.832068 292.175651 
L 744.619673 276.628544 
L 742.331416 276.038148 
" clip-path="url(#pefe2a41e3a)" style="fill: none; stroke: #7a7a7a; stroke-width: 3; stroke-linecap: square"/>
   </g>
   <g id="line2d_148">
    <path d="M 792.509624 262.45903 
L 792.264454 262.36063 
L 790.05792 261.475036 
L 789.158962 261.179838 
L 788.832068 261.081438 
L 744.456226 244.943936 
" clip-path="url(#pefe2a41e3a)" style="fill: none; stroke: #7a7a7a; stroke-width: 3; stroke-linecap: square"/>
   </g>
   <g id="line2d_149">
    <path d="M 1217.635097 191.021061 
L 1175.138894 279.383728 
" clip-path="url(#pefe2a41e3a)" style="fill: none; stroke: #7a7a7a; stroke-width: 3; stroke-linecap: square"/>
   </g>
   <g id="line2d_150">
    <path d="M 1186.743626 191.021061 
L 1156.260773 273.774962 
" clip-path="url(#pefe2a41e3a)" style="fill: none; stroke: #7a7a7a; stroke-width: 3; stroke-linecap: square"/>
   </g>
   <g id="line2d_151">
    <path d="M 694.886644 375.486015 
L 993.220193 491.393897 
" clip-path="url(#pefe2a41e3a)" style="fill: none; stroke-dasharray: 32,8,5,8; stroke-dashoffset: 0; stroke: #1e90ff; stroke-width: 5"/>
   </g>
   <g id="line2d_152">
    <path d="M 481.432971 274.515666 
L 817.246885 396.466457 
" clip-path="url(#pefe2a41e3a)" style="fill: none; stroke-dasharray: 32,8,5,8; stroke-dashoffset: 0; stroke: #1e90ff; stroke-width: 5"/>
   </g>
   <g id="line2d_153">
    <path d="M 1230.916317 631.819652 
L 1188.428993 1144.801781 
" clip-path="url(#pefe2a41e3a)" style="fill: none; stroke-dasharray: 32,8,5,8; stroke-dashoffset: 0; stroke: #1e90ff; stroke-width: 5"/>
   </g>
   <g id="line2d_154">
    <path d="M 385.345049 49.199703 
L 384.839016 76.350528 
" clip-path="url(#pefe2a41e3a)" style="fill: none; stroke-dasharray: 32,8,5,8; stroke-dashoffset: 0; stroke: #1e90ff; stroke-width: 5"/>
   </g>
   <g id="line2d_155">
    <path d="M 1309.361418 354.394765 
L 1317.4148 349.24252 
" clip-path="url(#pefe2a41e3a)" style="fill: none; stroke-dasharray: 32,8,5,8; stroke-dashoffset: 0; stroke: #1e90ff; stroke-width: 5"/>
   </g>
   <g id="line2d_156">
    <path d="M 163.446933 171.777653 
L 519.471992 299.223622 
" clip-path="url(#pefe2a41e3a)" style="fill: none; stroke-dasharray: 32,8,5,8; stroke-dashoffset: 0; stroke: #1e90ff; stroke-width: 5"/>
   </g>
   <g id="line2d_157">
    <path d="M 845.904717 389.823116 
L 1122.070077 548.427897 
" clip-path="url(#pefe2a41e3a)" style="fill: none; stroke-dasharray: 32,8,5,8; stroke-dashoffset: 0; stroke: #1e90ff; stroke-width: 5"/>
   </g>
   <g id="line2d_158">
    <path d="M 694.886644 375.486015 
" clip-path="url(#pefe2a41e3a)" style="fill: none; stroke: #0000ff; stroke-width: 1.5; stroke-linecap: square"/>
    <defs>
     <path id="ma859ce14ac" d="M 0 10 
C 2.652031 10 5.195799 8.946337 7.071068 7.071068 
C 8.946337 5.195799 10 2.652031 10 0 
C 10 -2.652031 8.946337 -5.195799 7.071068 -7.071068 
C 5.195799 -8.946337 2.652031 -10 0 -10 
C -2.652031 -10 -5.195799 -8.946337 -7.071068 -7.071068 
C -8.946337 -5.195799 -10 -2.652031 -10 0 
C -10 2.652031 -8.946337 5.195799 -7.071068 7.071068 
C -5.195799 8.946337 -2.652031 10 0 10 
z
" style="stroke: #0000ff"/>
    </defs>
    <g clip-path="url(#pefe2a41e3a)">
     <use xlink:href="#ma859ce14ac" x="694.886644" y="375.486015" style="fill: #0000ff; stroke: #0000ff"/>
    </g>
   </g>
   <g id="line2d_159">
    <path d="M 481.432971 274.515666 
" clip-path="url(#pefe2a41e3a)" style="fill: none; stroke: #0000ff; stroke-width: 1.5; stroke-linecap: square"/>
    <g clip-path="url(#pefe2a41e3a)">
     <use xlink:href="#ma859ce14ac" x="481.432971" y="274.515666" style="fill: #0000ff; stroke: #0000ff"/>
    </g>
   </g>
   <g id="line2d_160">
    <path d="M 1230.916317 631.819652 
" clip-path="url(#pefe2a41e3a)" style="fill: none; stroke: #0000ff; stroke-width: 1.5; stroke-linecap: square"/>
    <g clip-path="url(#pefe2a41e3a)">
     <use xlink:href="#ma859ce14ac" x="1230.916317" y="631.819652" style="fill: #0000ff; stroke: #0000ff"/>
    </g>
   </g>
   <g id="line2d_161">
    <path d="M 385.345049 49.199703 
" clip-path="url(#pefe2a41e3a)" style="fill: none; stroke: #0000ff; stroke-width: 1.5; stroke-linecap: square"/>
    <g clip-path="url(#pefe2a41e3a)">
     <use xlink:href="#ma859ce14ac" x="385.345049" y="49.199703" style="fill: #0000ff; stroke: #0000ff"/>
    </g>
   </g>
   <g id="line2d_162">
    <path d="M 1309.361418 354.394765 
" clip-path="url(#pefe2a41e3a)" style="fill: none; stroke: #0000ff; stroke-width: 1.5; stroke-linecap: square"/>
    <g clip-path="url(#pefe2a41e3a)">
     <use xlink:href="#ma859ce14ac" x="1309.361418" y="354.394765" style="fill: #0000ff; stroke: #0000ff"/>
    </g>
   </g>
   <g id="line2d_163">
    <path d="M 163.446933 171.777653 
" clip-path="url(#pefe2a41e3a)" style="fill: none; stroke: #0000ff; stroke-width: 1.5; stroke-linecap: square"/>
    <g clip-path="url(#pefe2a41e3a)">
     <use xlink:href="#ma859ce14ac" x="163.446933" y="171.777653" style="fill: #0000ff; stroke: #0000ff"/>
    </g>
   </g>
   <g id="line2d_164">
    <path d="M 845.904717 389.823116 
" clip-path="url(#pefe2a41e3a)" style="fill: none; stroke: #0000ff; stroke-width: 1.5; stroke-linecap: square"/>
    <g clip-path="url(#pefe2a41e3a)">
     <use xlink:href="#ma859ce14ac" x="845.904717" y="389.823116" style="fill: #0000ff; stroke: #0000ff"/>
    </g>
   </g>
   <g id="line2d_165">
    <path d="M 993.220193 491.393897 
" clip-path="url(#pefe2a41e3a)" style="fill: none; stroke: #ff0000; stroke-width: 1.5; stroke-linecap: square"/>
    <defs>
     <path id="m0e64992ae8" d="M 0 -10 
L -2.24514 -3.09017 
L -9.510565 -3.09017 
L -3.632713 1.18034 
L -5.877853 8.09017 
L -0 3.81966 
L 5.877853 8.09017 
L 3.632713 1.18034 
L 9.510565 -3.09017 
L 2.24514 -3.09017 
z
" style="stroke: #ff0000; stroke-linejoin: bevel"/>
    </defs>
    <g clip-path="url(#pefe2a41e3a)">
     <use xlink:href="#m0e64992ae8" x="993.220193" y="491.393897" style="fill: #ff0000; stroke: #ff0000; stroke-linejoin: bevel"/>
    </g>
   </g>
   <g id="line2d_166">
    <path d="M 817.246885 396.466457 
" clip-path="url(#pefe2a41e3a)" style="fill: none; stroke: #ff0000; stroke-width: 1.5; stroke-linecap: square"/>
    <g clip-path="url(#pefe2a41e3a)">
     <use xlink:href="#m0e64992ae8" x="817.246885" y="396.466457" style="fill: #ff0000; stroke: #ff0000; stroke-linejoin: bevel"/>
    </g>
   </g>
   <g id="line2d_167">
    <path d="M 1188.428993 1144.801781 
" clip-path="url(#pefe2a41e3a)" style="fill: none; stroke: #ff0000; stroke-width: 1.5; stroke-linecap: square"/>
    <g clip-path="url(#pefe2a41e3a)">
     <use xlink:href="#m0e64992ae8" x="1188.428993" y="1144.801781" style="fill: #ff0000; stroke: #ff0000; stroke-linejoin: bevel"/>
    </g>
   </g>
   <g id="line2d_168">
    <path d="M 384.839016 76.350528 
" clip-path="url(#pefe2a41e3a)" style="fill: none; stroke: #ff0000; stroke-width: 1.5; stroke-linecap: square"/>
    <g clip-path="url(#pefe2a41e3a)">
     <use xlink:href="#m0e64992ae8" x="384.839016" y="76.350528" style="fill: #ff0000; stroke: #ff0000; stroke-linejoin: bevel"/>
    </g>
   </g>
   <g id="line2d_169">
    <path d="M 1317.4148 349.24252 
" clip-path="url(#pefe2a41e3a)" style="fill: none; stroke: #ff0000; stroke-width: 1.5; stroke-linecap: square"/>
    <g clip-path="url(#pefe2a41e3a)">
     <use xlink:href="#m0e64992ae8" x="1317.4148" y="349.24252" style="fill: #ff0000; stroke: #ff0000; stroke-linejoin: bevel"/>
    </g>
   </g>
   <g id="line2d_170">
    <path d="M 519.471992 299.223622 
" clip-path="url(#pefe2a41e3a)" style="fill: none; stroke: #ff0000; stroke-width: 1.5; stroke-linecap: square"/>
    <g clip-path="url(#pefe2a41e3a)">
     <use xlink:href="#m0e64992ae8" x="519.471992" y="299.223622" style="fill: #ff0000; stroke: #ff0000; stroke-linejoin: bevel"/>
    </g>
   </g>
   <g id="line2d_171">
    <path d="M 1122.070077 548.427897 
" clip-path="url(#pefe2a41e3a)" style="fill: none; stroke: #ff0000; stroke-width: 1.5; stroke-linecap: square"/>
    <g clip-path="url(#pefe2a41e3a)">
     <use xlink:href="#m0e64992ae8" x="1122.070077" y="548.427897" style="fill: #ff0000; stroke: #ff0000; stroke-linejoin: bevel"/>
    </g>
   </g>
  </g>
 </g>
 <defs>
  <clipPath id="pefe2a41e3a">
   <rect x="0" y="0" width="1440" height="1440"/>
  </clipPath>
 </defs>
</svg>
