<?xml version="1.0" encoding="utf-8" standalone="no"?>
<!DOCTYPE svg PUBLIC "-//W3C//DTD SVG 1.1//EN"
  "http://www.w3.org/Graphics/SVG/1.1/DTD/svg11.dtd">
<svg xmlns:xlink="http://www.w3.org/1999/xlink" width="1440pt" height="1440pt" viewBox="0 0 1440 1440" xmlns="http://www.w3.org/2000/svg" version="1.1">
 <metadata>
  <rdf:RDF xmlns:dc="http://purl.org/dc/elements/1.1/" xmlns:cc="http://creativecommons.org/ns#" xmlns:rdf="http://www.w3.org/1999/02/22-rdf-syntax-ns#">
   <cc:Work>
    <dc:type rdf:resource="http://purl.org/dc/dcmitype/StillImage"/>
    <dc:date>2026-02-27T11:10:06.773852</dc:date>
    <dc:format>image/svg+xml</dc:format>
    <dc:creator>
     <cc:Agent>
      <dc:title>Matplotlib v3.7.3, https://matplotlib.org/</dc:title>
     </cc:Agent>
    </dc:creator>
   </cc:Work>
  </rdf:RDF>
 </metadata>
 <defs>
  <style type="text/css">*{stroke-linejoin: round; stroke-linecap: butt}</style>
 </defs>
 <g id="figure_1">
  <g id="patch_1">
   <path d="M 0 1440 
L 1440 1440 
L 1440 0 
L 0 0 
z
" style="fill: #ffffff"/>
  </g>
  <g id="axes_1">
   <g id="line2d_1">
    <path d="M 664.247356 1306.201834 
L 664.181719 1307.711578 
L 664.116082 1308.919374 
L 663.984809 1312.240812 
L 663.919172 1314.656403 
L 658.097005 1441 
" clip-path="url(#p930bd7881f)" style="fill: none; stroke: #7a7a7a; stroke-width: 3; stroke-linecap: square"/>
   </g>
   <g id="line2d_2">
    <path d="M 641.471426 1306.201834 
L 641.40579 1307.711578 
L 641.340153 1308.919374 
L 641.20888 1312.240812 
L 641.077606 1314.656403 
L 635.559692 1441 
" clip-path="url(#p930bd7881f)" style="fill: none; stroke: #7a7a7a; stroke-width: 3; stroke-linecap: square"/>
   </g>
   <g id="line2d_3">
    <path d="M 366.519357 450.478596 
L 216.605171 481.579334 
" clip-path="url(#p930bd7881f)" style="fill: none; stroke: #7a7a7a; stroke-width: 3; stroke-linecap: square"/>
   </g>
   <g id="line2d_4">
    <path d="M 366.650631 348.419861 
L 216.539535 378.614753 
" clip-path="url(#p930bd7881f)" style="fill: none; stroke: #7a7a7a; stroke-width: 3; stroke-linecap: square"/>
   </g>
   <g id="line2d_5">
    <path d="M 216.605171 481.579334 
L 366.519357 450.478596 
" clip-path="url(#p930bd7881f)" style="fill: none; stroke: #7a7a7a; stroke-width: 3; stroke-linecap: square"/>
   </g>
   <g id="line2d_6">
    <path d="M 217.261538 604.774494 
L 366.716267 575.485448 
" clip-path="url(#p930bd7881f)" style="fill: none; stroke: #7a7a7a; stroke-width: 3; stroke-linecap: square"/>
   </g>
   <g id="line2d_7">
    <path d="M 658.097005 1441 
L 663.919172 1314.656403 
L 663.984809 1312.240812 
L 664.116082 1308.919374 
L 664.181719 1307.711578 
L 664.247356 1306.201834 
" clip-path="url(#p930bd7881f)" style="fill: none; stroke: #7a7a7a; stroke-width: 3; stroke-linecap: square"/>
   </g>
   <g id="line2d_8">
    <path d="M 680.571631 1441 
L 686.760738 1314.656403 
L 686.826375 1312.542761 
L 687.023285 1308.919374 
L 687.088922 1308.013527 
L 687.154558 1306.201834 
" clip-path="url(#p930bd7881f)" style="fill: none; stroke: #7a7a7a; stroke-width: 3; stroke-linecap: square"/>
   </g>
   <g id="line2d_9">
    <path d="M 366.650631 348.419861 
L 216.539535 378.614753 
" clip-path="url(#p930bd7881f)" style="fill: none; stroke: #7a7a7a; stroke-width: 3; stroke-linecap: square"/>
   </g>
   <g id="line2d_10">
    <path d="M 366.388084 256.32544 
L 216.408261 281.991099 
" clip-path="url(#p930bd7881f)" style="fill: none; stroke: #7a7a7a; stroke-width: 3; stroke-linecap: square"/>
   </g>
   <g id="line2d_11">
    <path d="M 411.677396 424.812938 
L 411.414849 425.114886 
L 366.519357 450.478596 
" clip-path="url(#p930bd7881f)" style="fill: none; stroke: #7a7a7a; stroke-width: 3; stroke-linecap: square"/>
   </g>
   <g id="line2d_12">
    <path d="M 411.677396 322.452254 
L 411.480486 322.754203 
L 366.650631 348.419861 
" clip-path="url(#p930bd7881f)" style="fill: none; stroke: #7a7a7a; stroke-width: 3; stroke-linecap: square"/>
   </g>
   <g id="line2d_13">
    <path d="M 366.519357 450.478596 
L 411.414849 425.114886 
L 411.677396 424.812938 
" clip-path="url(#p930bd7881f)" style="fill: none; stroke: #7a7a7a; stroke-width: 3; stroke-linecap: square"/>
   </g>
   <g id="line2d_14">
    <path d="M 366.716267 575.485448 
L 411.414849 562.501645 
L 411.677396 562.501645 
" clip-path="url(#p930bd7881f)" style="fill: none; stroke: #7a7a7a; stroke-width: 3; stroke-linecap: square"/>
   </g>
   <g id="line2d_15">
    <path d="M 411.677396 342.98478 
L 411.414849 342.98478 
L 366.650631 348.419861 
" clip-path="url(#p930bd7881f)" style="fill: none; stroke: #7a7a7a; stroke-width: 3; stroke-linecap: square"/>
   </g>
   <g id="line2d_16">
    <path d="M 411.677396 250.286462 
L 411.480486 250.286462 
L 366.388084 256.32544 
" clip-path="url(#p930bd7881f)" style="fill: none; stroke: #7a7a7a; stroke-width: 3; stroke-linecap: square"/>
   </g>
   <g id="line2d_17">
    <path d="M 1441 202.516978 
L 1199.77706 249.078666 
L 1199.58015 249.078666 
L 1199.317603 249.078666 
" clip-path="url(#p930bd7881f)" style="fill: none; stroke: #7a7a7a; stroke-width: 3; stroke-linecap: square"/>
   </g>
   <g id="line2d_18">
    <path d="M 1441 85.609764 
L 1199.77706 133.734179 
L 1199.58015 134.036128 
L 1199.317603 134.338077 
" clip-path="url(#p930bd7881f)" style="fill: none; stroke: #7a7a7a; stroke-width: 3; stroke-linecap: square"/>
   </g>
   <g id="line2d_19">
    <path d="M 1199.317603 249.078666 
L 1187.10918 252.098156 
" clip-path="url(#p930bd7881f)" style="fill: none; stroke: #7a7a7a; stroke-width: 3; stroke-linecap: square"/>
   </g>
   <g id="line2d_20">
    <path d="M 1199.317603 134.338077 
L 1186.91227 150.945267 
" clip-path="url(#p930bd7881f)" style="fill: none; stroke: #7a7a7a; stroke-width: 3; stroke-linecap: square"/>
   </g>
   <g id="line2d_21">
    <path d="M 753.381973 338.455547 
L 880.782776 314.601582 
L 1004.704835 288.633975 
" clip-path="url(#p930bd7881f)" style="fill: none; stroke: #7a7a7a; stroke-width: 3; stroke-linecap: square"/>
   </g>
   <g id="line2d_22">
    <path d="M 753.841429 498.186525 
L 1005.689386 449.2708 
" clip-path="url(#p930bd7881f)" style="fill: none; stroke: #7a7a7a; stroke-width: 3; stroke-linecap: square"/>
   </g>
   <g id="line2d_23">
    <path d="M 604.255427 363.819256 
L 753.381973 338.455547 
" clip-path="url(#p930bd7881f)" style="fill: none; stroke: #7a7a7a; stroke-width: 3; stroke-linecap: square"/>
   </g>
   <g id="line2d_24">
    <path d="M 605.239977 526.871672 
L 753.841429 498.186525 
" clip-path="url(#p930bd7881f)" style="fill: none; stroke: #7a7a7a; stroke-width: 3; stroke-linecap: square"/>
   </g>
   <g id="line2d_25">
    <path d="M 753.381973 338.455547 
L 604.255427 363.819256 
" clip-path="url(#p930bd7881f)" style="fill: none; stroke: #7a7a7a; stroke-width: 3; stroke-linecap: square"/>
   </g>
   <g id="line2d_26">
    <path d="M 753.119426 241.227994 
L 743.995927 243.039688 
L 706.71429 212.542847 
L 689.845663 198.653197 
L 669.826474 199.559044 
L 637.861409 206.20192 
L 604.255427 213.146745 
" clip-path="url(#p930bd7881f)" style="fill: none; stroke: #7a7a7a; stroke-width: 3; stroke-linecap: square"/>
   </g>
   <g id="line2d_27">
    <path d="M 1199.317603 249.078666 
L 1199.58015 249.078666 
L 1199.77706 249.078666 
L 1441 202.516978 
" clip-path="url(#p930bd7881f)" style="fill: none; stroke: #7a7a7a; stroke-width: 3; stroke-linecap: square"/>
   </g>
   <g id="line2d_28">
    <path d="M 1199.317603 412.433032 
L 1199.58015 412.433032 
L 1199.77706 412.433032 
L 1441 364.512779 
" clip-path="url(#p930bd7881f)" style="fill: none; stroke: #7a7a7a; stroke-width: 3; stroke-linecap: square"/>
   </g>
   <g id="line2d_29">
    <path d="M 604.255427 363.819256 
L 537.502919 378.312804 
L 463.924196 394.014148 
L 454.538151 395.825841 
" clip-path="url(#p930bd7881f)" style="fill: none; stroke: #7a7a7a; stroke-width: 3; stroke-linecap: square"/>
   </g>
   <g id="line2d_30">
    <path d="M 604.255427 213.146745 
L 503.174933 233.377323 
L 452.306503 241.831892 
" clip-path="url(#p930bd7881f)" style="fill: none; stroke: #7a7a7a; stroke-width: 3; stroke-linecap: square"/>
   </g>
   <g id="line2d_31">
    <path d="M 454.538151 395.825841 
L 412.202489 342.98478 
L 412.005579 342.98478 
L 411.677396 342.98478 
" clip-path="url(#p930bd7881f)" style="fill: none; stroke: #7a7a7a; stroke-width: 3; stroke-linecap: square"/>
   </g>
   <g id="line2d_32">
    <path d="M 452.306503 241.831892 
L 412.268126 250.286462 
L 412.005579 250.286462 
L 411.677396 250.286462 
" clip-path="url(#p930bd7881f)" style="fill: none; stroke: #7a7a7a; stroke-width: 3; stroke-linecap: square"/>
   </g>
   <g id="line2d_33">
    <path d="M 669.629564 1187.837857 
L 664.247356 1306.201834 
" clip-path="url(#p930bd7881f)" style="fill: none; stroke: #7a7a7a; stroke-width: 3; stroke-linecap: square"/>
   </g>
   <g id="line2d_34">
    <path d="M 647.510001 1174.250156 
L 641.471426 1306.201834 
" clip-path="url(#p930bd7881f)" style="fill: none; stroke: #7a7a7a; stroke-width: 3; stroke-linecap: square"/>
   </g>
   <g id="line2d_35">
    <path d="M 669.629564 1187.837857 
L 675.668139 1057.395924 
L 680.98471 942.655335 
" clip-path="url(#p930bd7881f)" style="fill: none; stroke: #7a7a7a; stroke-width: 3; stroke-linecap: square"/>
   </g>
   <g id="line2d_36">
    <path d="M 691.749126 1202.633354 
L 701.528992 961.074219 
" clip-path="url(#p930bd7881f)" style="fill: none; stroke: #7a7a7a; stroke-width: 3; stroke-linecap: square"/>
   </g>
   <g id="line2d_37">
    <path d="M 664.247356 1306.201834 
L 669.629564 1187.837857 
" clip-path="url(#p930bd7881f)" style="fill: none; stroke: #7a7a7a; stroke-width: 3; stroke-linecap: square"/>
   </g>
   <g id="line2d_38">
    <path d="M 687.154558 1306.201834 
L 691.749126 1202.633354 
" clip-path="url(#p930bd7881f)" style="fill: none; stroke: #7a7a7a; stroke-width: 3; stroke-linecap: square"/>
   </g>
   <g id="line2d_39">
    <path d="M 753.381973 338.455547 
L 740.911003 345.400372 
L 729.29331 366.234847 
L 718.922713 399.147279 
L 710.324308 442.627924 
L 703.95755 495.167036 
L 700.413169 554.650973 
L 692.142946 684.790957 
" clip-path="url(#p930bd7881f)" style="fill: none; stroke: #7a7a7a; stroke-width: 3; stroke-linecap: square"/>
   </g>
   <g id="line2d_40">
    <path d="M 753.119426 241.227994 
L 739.992089 245.757228 
L 727.389846 260.552725 
L 715.443969 284.40669 
L 704.35137 316.111326 
L 694.44023 355.364686 
L 685.907461 400.958973 
L 678.949973 451.98834 
L 673.895948 507.244993 
L 670.876661 566.426981 
L 667.397917 665.466226 
" clip-path="url(#p930bd7881f)" style="fill: none; stroke: #7a7a7a; stroke-width: 3; stroke-linecap: square"/>
   </g>
   <g id="line2d_41">
    <path clip-path="url(#p930bd7881f)" style="fill: none; stroke: #7a7a7a; stroke-width: 3; stroke-linecap: square"/>
   </g>
   <g id="line2d_42">
    <path clip-path="url(#p930bd7881f)" style="fill: none; stroke: #7a7a7a; stroke-width: 3; stroke-linecap: square"/>
   </g>
   <g id="line2d_43">
    <path d="M 604.255427 363.819256 
L 634.185755 357.478328 
L 644.425077 360.497818 
L 655.320767 379.218651 
L 666.085183 409.715492 
L 676.193232 449.874698 
L 684.857275 496.072883 
L 691.48658 545.592505 
L 693.980774 587.563405 
L 693.980774 637.384977 
L 692.142946 684.790957 
" clip-path="url(#p930bd7881f)" style="fill: none; stroke: #7a7a7a; stroke-width: 3; stroke-linecap: square"/>
   </g>
   <g id="line2d_44">
    <path d="M 605.239977 526.871672 
L 645.278354 518.719051 
L 655.780224 543.780812 
L 664.312992 584.543916 
L 668.841924 628.930407 
L 667.397917 665.466226 
" clip-path="url(#p930bd7881f)" style="fill: none; stroke: #7a7a7a; stroke-width: 3; stroke-linecap: square"/>
   </g>
   <g id="line2d_45">
    <path d="M 411.677396 424.812938 
L 411.939943 424.812938 
L 412.202489 424.510989 
L 454.538151 395.825841 
" clip-path="url(#p930bd7881f)" style="fill: none; stroke: #7a7a7a; stroke-width: 3; stroke-linecap: square"/>
   </g>
   <g id="line2d_46">
    <path d="M 411.677396 562.501645 
L 411.939943 562.501645 
L 412.202489 562.199696 
L 454.735061 554.650973 
" clip-path="url(#p930bd7881f)" style="fill: none; stroke: #7a7a7a; stroke-width: 3; stroke-linecap: square"/>
   </g>
   <g id="line2d_47">
    <path d="M 1094.758366 269.913142 
L 1004.704835 288.633975 
" clip-path="url(#p930bd7881f)" style="fill: none; stroke: #7a7a7a; stroke-width: 3; stroke-linecap: square"/>
   </g>
   <g id="line2d_48">
    <path d="M 1097.974563 166.344662 
L 1004.442289 187.783036 
" clip-path="url(#p930bd7881f)" style="fill: none; stroke: #7a7a7a; stroke-width: 3; stroke-linecap: square"/>
   </g>
   <g id="line2d_49">
    <path d="M 1187.10918 252.098156 
L 1199.317603 249.078666 
" clip-path="url(#p930bd7881f)" style="fill: none; stroke: #7a7a7a; stroke-width: 3; stroke-linecap: square"/>
   </g>
   <g id="line2d_50">
    <path d="M 1186.584087 412.734981 
L 1198.923783 412.433032 
L 1199.317603 412.433032 
" clip-path="url(#p930bd7881f)" style="fill: none; stroke: #7a7a7a; stroke-width: 3; stroke-linecap: square"/>
   </g>
   <g id="line2d_51">
    <path d="M 1004.704835 288.633975 
L 1094.758366 269.913142 
" clip-path="url(#p930bd7881f)" style="fill: none; stroke: #7a7a7a; stroke-width: 3; stroke-linecap: square"/>
   </g>
   <g id="line2d_52">
    <path d="M 1005.689386 449.2708 
L 1090.360708 432.965558 
" clip-path="url(#p930bd7881f)" style="fill: none; stroke: #7a7a7a; stroke-width: 3; stroke-linecap: square"/>
   </g>
   <g id="line2d_53">
    <path d="M 692.142946 684.790957 
L 693.980774 637.384977 
L 693.980774 587.563405 
L 691.48658 545.592505 
L 684.857275 496.072883 
L 676.193232 449.874698 
L 666.085183 409.715492 
L 655.320767 379.218651 
L 644.425077 360.497818 
L 634.185755 357.478328 
L 604.255427 363.819256 
" clip-path="url(#p930bd7881f)" style="fill: none; stroke: #7a7a7a; stroke-width: 3; stroke-linecap: square"/>
   </g>
   <g id="line2d_54">
    <path d="M 717.21616 704.719586 
L 720.366721 648.255138 
L 720.432357 589.978997 
L 717.872527 530.797008 
L 713.081049 472.520867 
L 706.254833 416.660317 
L 697.918975 364.423154 
L 688.270382 317.017173 
L 677.768513 276.254069 
L 666.807186 243.643586 
L 655.583313 220.09157 
L 644.621987 207.107766 
L 634.185755 206.503869 
L 604.255427 213.146745 
" clip-path="url(#p930bd7881f)" style="fill: none; stroke: #7a7a7a; stroke-width: 3; stroke-linecap: square"/>
   </g>
   <g id="line2d_55">
    <path d="M 692.142946 684.790957 
L 700.413169 554.650973 
L 703.95755 495.167036 
L 710.324308 442.627924 
L 718.922713 399.147279 
L 729.29331 366.234847 
L 740.911003 345.400372 
L 753.381973 338.455547 
" clip-path="url(#p930bd7881f)" style="fill: none; stroke: #7a7a7a; stroke-width: 3; stroke-linecap: square"/>
   </g>
   <g id="line2d_56">
    <path d="M 717.21616 704.719586 
L 725.486382 574.579602 
L 729.358946 535.93014 
L 738.613719 508.754737 
L 753.841429 498.186525 
" clip-path="url(#p930bd7881f)" style="fill: none; stroke: #7a7a7a; stroke-width: 3; stroke-linecap: square"/>
   </g>
   <g id="line2d_57">
    <path d="M 454.538151 395.825841 
L 412.202489 424.510989 
L 411.939943 424.812938 
L 411.677396 424.812938 
" clip-path="url(#p930bd7881f)" style="fill: none; stroke: #7a7a7a; stroke-width: 3; stroke-linecap: square"/>
   </g>
   <g id="line2d_58">
    <path d="M 452.306503 241.831892 
L 412.202489 322.150305 
L 412.005579 322.452254 
L 411.677396 322.452254 
" clip-path="url(#p930bd7881f)" style="fill: none; stroke: #7a7a7a; stroke-width: 3; stroke-linecap: square"/>
   </g>
   <g id="line2d_59">
    <path d="M 680.98471 942.655335 
L 684.660364 862.638871 
L 686.629465 816.138737 
" clip-path="url(#p930bd7881f)" style="fill: none; stroke: #7a7a7a; stroke-width: 3; stroke-linecap: square"/>
   </g>
   <g id="line2d_60">
    <path d="M 701.528992 961.074219 
L 702.841726 928.463735 
L 703.169909 917.895523 
L 706.189197 848.447272 
" clip-path="url(#p930bd7881f)" style="fill: none; stroke: #7a7a7a; stroke-width: 3; stroke-linecap: square"/>
   </g>
   <g id="line2d_61">
    <path d="M 680.98471 942.655335 
L 675.668139 1057.395924 
L 669.629564 1187.837857 
" clip-path="url(#p930bd7881f)" style="fill: none; stroke: #7a7a7a; stroke-width: 3; stroke-linecap: square"/>
   </g>
   <g id="line2d_62">
    <path d="M 659.062058 923.330604 
L 647.510001 1174.250156 
" clip-path="url(#p930bd7881f)" style="fill: none; stroke: #7a7a7a; stroke-width: 3; stroke-linecap: square"/>
   </g>
   <g id="line2d_63">
    <path clip-path="url(#p930bd7881f)" style="fill: none; stroke: #7a7a7a; stroke-width: 3; stroke-linecap: square"/>
   </g>
   <g id="line2d_64">
    <path clip-path="url(#p930bd7881f)" style="fill: none; stroke: #7a7a7a; stroke-width: 3; stroke-linecap: square"/>
   </g>
   <g id="line2d_65">
    <path d="M 1163.347957 -1 
L 1163.15179 41.639759 
L 1158.885406 94.782768 
L 1151.402824 143.396544 
L 1141.557321 185.971342 
L 1130.136538 220.997417 
L 1117.993752 247.568922 
L 1105.916602 264.176112 
L 1094.758366 269.913142 
" clip-path="url(#p930bd7881f)" style="fill: none; stroke: #7a7a7a; stroke-width: 3; stroke-linecap: square"/>
   </g>
   <g id="line2d_66">
    <path d="M 1118.836254 -1 
L 1120.291036 57.945 
L 1118.125025 99.613951 
L 1112.217724 121.958171 
L 1097.974563 166.344662 
" clip-path="url(#p930bd7881f)" style="fill: none; stroke: #7a7a7a; stroke-width: 3; stroke-linecap: square"/>
   </g>
   <g id="line2d_67">
    <path d="M 692.142946 684.790957 
L 686.629465 816.138737 
" clip-path="url(#p930bd7881f)" style="fill: none; stroke: #7a7a7a; stroke-width: 3; stroke-linecap: square"/>
   </g>
   <g id="line2d_68">
    <path d="M 667.397917 665.466226 
L 664.575539 764.505472 
" clip-path="url(#p930bd7881f)" style="fill: none; stroke: #7a7a7a; stroke-width: 3; stroke-linecap: square"/>
   </g>
   <g id="line2d_69">
    <path d="M 1004.704835 288.633975 
L 880.782776 314.601582 
L 753.381973 338.455547 
" clip-path="url(#p930bd7881f)" style="fill: none; stroke: #7a7a7a; stroke-width: 3; stroke-linecap: square"/>
   </g>
   <g id="line2d_70">
    <path d="M 1004.442289 187.783036 
L 753.119426 241.227994 
" clip-path="url(#p930bd7881f)" style="fill: none; stroke: #7a7a7a; stroke-width: 3; stroke-linecap: square"/>
   </g>
   <g id="line2d_71">
    <path d="M 1094.758366 269.913142 
L 1187.10918 252.098156 
" clip-path="url(#p930bd7881f)" style="fill: none; stroke: #7a7a7a; stroke-width: 3; stroke-linecap: square"/>
   </g>
   <g id="line2d_72">
    <path d="M 1090.360708 432.965558 
L 1186.584087 412.734981 
" clip-path="url(#p930bd7881f)" style="fill: none; stroke: #7a7a7a; stroke-width: 3; stroke-linecap: square"/>
   </g>
   <g id="line2d_73">
    <path d="M 1187.10918 252.098156 
L 1094.758366 269.913142 
" clip-path="url(#p930bd7881f)" style="fill: none; stroke: #7a7a7a; stroke-width: 3; stroke-linecap: square"/>
   </g>
   <g id="line2d_74">
    <path d="M 1186.91227 150.945267 
L 1097.974563 166.344662 
" clip-path="url(#p930bd7881f)" style="fill: none; stroke: #7a7a7a; stroke-width: 3; stroke-linecap: square"/>
   </g>
   <g id="line2d_75">
    <path d="M 454.538151 395.825841 
L 463.924196 394.014148 
L 537.502919 378.312804 
L 604.255427 363.819256 
" clip-path="url(#p930bd7881f)" style="fill: none; stroke: #7a7a7a; stroke-width: 3; stroke-linecap: square"/>
   </g>
   <g id="line2d_76">
    <path d="M 454.735061 554.650973 
L 605.239977 526.871672 
" clip-path="url(#p930bd7881f)" style="fill: none; stroke: #7a7a7a; stroke-width: 3; stroke-linecap: square"/>
   </g>
   <g id="line2d_77">
    <path d="M 686.629465 816.138737 
L 684.660364 862.638871 
L 680.98471 942.655335 
" clip-path="url(#p930bd7881f)" style="fill: none; stroke: #7a7a7a; stroke-width: 3; stroke-linecap: square"/>
   </g>
   <g id="line2d_78">
    <path d="M 664.575539 764.505472 
L 660.834248 884.681142 
L 659.062058 923.330604 
" clip-path="url(#p930bd7881f)" style="fill: none; stroke: #7a7a7a; stroke-width: 3; stroke-linecap: square"/>
   </g>
   <g id="line2d_79">
    <path d="M 686.629465 816.138737 
L 692.142946 684.790957 
" clip-path="url(#p930bd7881f)" style="fill: none; stroke: #7a7a7a; stroke-width: 3; stroke-linecap: square"/>
   </g>
   <g id="line2d_80">
    <path d="M 706.189197 848.447272 
L 707.567567 822.479665 
L 710.193035 785.943845 
L 717.21616 704.719586 
" clip-path="url(#p930bd7881f)" style="fill: none; stroke: #7a7a7a; stroke-width: 3; stroke-linecap: square"/>
   </g>
   <g id="line2d_81">
    <path d="M 1227.324965 177.815183 
L 1110.460901 150.97446 
" clip-path="url(#p930bd7881f)" style="fill: none; stroke-dasharray: 32,8,5,8; stroke-dashoffset: 0; stroke: #1e90ff; stroke-width: 5"/>
   </g>
   <g id="line2d_82">
    <path d="M 1309.561913 319.538034 
L 1308.915121 321.926497 
" clip-path="url(#p930bd7881f)" style="fill: none; stroke-dasharray: 32,8,5,8; stroke-dashoffset: 0; stroke: #1e90ff; stroke-width: 5"/>
   </g>
   <g id="line2d_83">
    <path d="M 449.980652 266.741204 
L 449.928872 259.104019 
" clip-path="url(#p930bd7881f)" style="fill: none; stroke-dasharray: 32,8,5,8; stroke-dashoffset: 0; stroke: #1e90ff; stroke-width: 5"/>
   </g>
   <g id="line2d_84">
    <path d="M 869.289354 399.175587 
L 869.678551 399.359882 
" clip-path="url(#p930bd7881f)" style="fill: none; stroke-dasharray: 32,8,5,8; stroke-dashoffset: 0; stroke: #1e90ff; stroke-width: 5"/>
   </g>
   <g id="line2d_85">
    <path d="M 360.443105 272.675503 
L 356.409417 271.186399 
" clip-path="url(#p930bd7881f)" style="fill: none; stroke-dasharray: 32,8,5,8; stroke-dashoffset: 0; stroke: #1e90ff; stroke-width: 5"/>
   </g>
   <g id="line2d_86">
    <path d="M 833.153523 437.184587 
L 831.934052 428.249965 
" clip-path="url(#p930bd7881f)" style="fill: none; stroke-dasharray: 32,8,5,8; stroke-dashoffset: 0; stroke: #1e90ff; stroke-width: 5"/>
   </g>
   <g id="line2d_87">
    <path d="M 216.830509 321.049253 
L 213.397443 333.44862 
" clip-path="url(#p930bd7881f)" style="fill: none; stroke-dasharray: 32,8,5,8; stroke-dashoffset: 0; stroke: #1e90ff; stroke-width: 5"/>
   </g>
   <g id="line2d_88">
    <path d="M 791.948115 264.249535 
L 589.256996 300.201803 
" clip-path="url(#p930bd7881f)" style="fill: none; stroke-dasharray: 32,8,5,8; stroke-dashoffset: 0; stroke: #1e90ff; stroke-width: 5"/>
   </g>
   <g id="line2d_89">
    <path d="M 1227.324965 177.815183 
" clip-path="url(#p930bd7881f)" style="fill: none; stroke: #0000ff; stroke-width: 1.5; stroke-linecap: square"/>
    <defs>
     <path id="mc689d2d205" d="M 0 10 
C 2.652031 10 5.195799 8.946337 7.071068 7.071068 
C 8.946337 5.195799 10 2.652031 10 0 
C 10 -2.652031 8.946337 -5.195799 7.071068 -7.071068 
C 5.195799 -8.946337 2.652031 -10 0 -10 
C -2.652031 -10 -5.195799 -8.946337 -7.071068 -7.071068 
C -8.946337 -5.195799 -10 -2.652031 -10 0 
C -10 2.652031 -8.946337 5.195799 -7.071068 7.071068 
C -5.195799 8.946337 -2.652031 10 0 10 
z
" style="stroke: #0000ff"/>
    </defs>
    <g clip-path="url(#p930bd7881f)">
     <use xlink:href="#mc689d2d205" x="1227.324965" y="177.815183" style="fill: #0000ff; stroke: #0000ff"/>
    </g>
   </g>
   <g id="line2d_90">
    <path d="M 1309.561913 319.538034 
" clip-path="url(#p930bd7881f)" style="fill: none; stroke: #0000ff; stroke-width: 1.5; stroke-linecap: square"/>
    <g clip-path="url(#p930bd7881f)">
     <use xlink:href="#mc689d2d205" x="1309.561913" y="319.538034" style="fill: #0000ff; stroke: #0000ff"/>
    </g>
   </g>
   <g id="line2d_91">
    <path d="M 449.980652 266.741204 
" clip-path="url(#p930bd7881f)" style="fill: none; stroke: #0000ff; stroke-width: 1.5; stroke-linecap: square"/>
    <g clip-path="url(#p930bd7881f)">
     <use xlink:href="#mc689d2d205" x="449.980652" y="266.741204" style="fill: #0000ff; stroke: #0000ff"/>
    </g>
   </g>
   <g id="line2d_92">
    <path d="M 869.289354 399.175587 
" clip-path="url(#p930bd7881f)" style="fill: none; stroke: #0000ff; stroke-width: 1.5; stroke-linecap: square"/>
    <g clip-path="url(#p930bd7881f)">
     <use xlink:href="#mc689d2d205" x="869.289354" y="399.175587" style="fill: #0000ff; stroke: #0000ff"/>
    </g>
   </g>
   <g id="line2d_93">
    <path d="M 360.443105 272.675503 
" clip-path="url(#p930bd7881f)" style="fill: none; stroke: #0000ff; stroke-width: 1.5; stroke-linecap: square"/>
    <g clip-path="url(#p930bd7881f)">
     <use xlink:href="#mc689d2d205" x="360.443105" y="272.675503" style="fill: #0000ff; stroke: #0000ff"/>
    </g>
   </g>
   <g id="line2d_94">
    <path d="M 833.153523 437.184587 
" clip-path="url(#p930bd7881f)" style="fill: none; stroke: #0000ff; stroke-width: 1.5; stroke-linecap: square"/>
    <g clip-path="url(#p930bd7881f)">
     <use xlink:href="#mc689d2d205" x="833.153523" y="437.184587" style="fill: #0000ff; stroke: #0000ff"/>
    </g>
   </g>
   <g id="line2d_95">
    <path d="M 216.830509 321.049253 
" clip-path="url(#p930bd7881f)" style="fill: none; stroke: #0000ff; stroke-width: 1.5; stroke-linecap: square"/>
    <g clip-path="url(#p930bd7881f)">
     <use xlink:href="#mc689d2d205" x="216.830509" y="321.049253" style="fill: #0000ff; stroke: #0000ff"/>
    </g>
   </g>
   <g id="line2d_96">
    <path d="M 791.948115 264.249535 
" clip-path="url(#p930bd7881f)" style="fill: none; stroke: #0000ff; stroke-width: 1.5; stroke-linecap: square"/>
    <g clip-path="url(#p930bd7881f)">
     <use xlink:href="#mc689d2d205" x="791.948115" y="264.249535" style="fill: #0000ff; stroke: #0000ff"/>
    </g>
   </g>
   <g id="line2d_97">
    <path d="M 1110.460901 150.97446 
" clip-path="url(#p930bd7881f)" style="fill: none; stroke: #ff0000; stroke-width: 1.5; stroke-linecap: square"/>
    <defs>
     <path id="m7c61652a23" d="M 0 -10 
L -2.24514 -3.09017 
L -9.510565 -3.09017 
L -3.632713 1.18034 
L -5.877853 8.09017 
L -0 3.81966 
L 5.877853 8.09017 
L 3.632713 1.18034 
L 9.510565 -3.09017 
L 2.24514 -3.09017 
z
" style="stroke: #ff0000; stroke-linejoin: bevel"/>
    </defs>
    <g clip-path="url(#p930bd7881f)">
     <use xlink:href="#m7c61652a23" x="1110.460901" y="150.97446" style="fill: #ff0000; stroke: #ff0000; stroke-linejoin: bevel"/>
    </g>
   </g>
   <g id="line2d_98">
    <path d="M 1308.915121 321.926497 
" clip-path="url(#p930bd7881f)" style="fill: none; stroke: #ff0000; stroke-width: 1.5; stroke-linecap: square"/>
    <g clip-path="url(#p930bd7881f)">
     <use xlink:href="#m7c61652a23" x="1308.915121" y="321.926497" style="fill: #ff0000; stroke: #ff0000; stroke-linejoin: bevel"/>
    </g>
   </g>
   <g id="line2d_99">
    <path d="M 449.928872 259.104019 
" clip-path="url(#p930bd7881f)" style="fill: none; stroke: #ff0000; stroke-width: 1.5; stroke-linecap: square"/>
    <g clip-path="url(#p930bd7881f)">
     <use xlink:href="#m7c61652a23" x="449.928872" y="259.104019" style="fill: #ff0000; stroke: #ff0000; stroke-linejoin: bevel"/>
    </g>
   </g>
   <g id="line2d_100">
    <path d="M 869.678551 399.359882 
" clip-path="url(#p930bd7881f)" style="fill: none; stroke: #ff0000; stroke-width: 1.5; stroke-linecap: square"/>
    <g clip-path="url(#p930bd7881f)">
     <use xlink:href="#m7c61652a23" x="869.678551" y="399.359882" style="fill: #ff0000; stroke: #ff0000; stroke-linejoin: bevel"/>
    </g>
   </g>
   <g id="line2d_101">
    <path d="M 356.409417 271.186399 
" clip-path="url(#p930bd7881f)" style="fill: none; stroke: #ff0000; stroke-width: 1.5; stroke-linecap: square"/>
    <g clip-path="url(#p930bd7881f)">
     <use xlink:href="#m7c61652a23" x="356.409417" y="271.186399" style="fill: #ff0000; stroke: #ff0000; stroke-linejoin: bevel"/>
    </g>
   </g>
   <g id="line2d_102">
    <path d="M 831.934052 428.249965 
" clip-path="url(#p930bd7881f)" style="fill: none; stroke: #ff0000; stroke-width: 1.5; stroke-linecap: square"/>
    <g clip-path="url(#p930bd7881f)">
     <use xlink:href="#m7c61652a23" x="831.934052" y="428.249965" style="fill: #ff0000; stroke: #ff0000; stroke-linejoin: bevel"/>
    </g>
   </g>
   <g id="line2d_103">
    <path d="M 213.397443 333.44862 
" clip-path="url(#p930bd7881f)" style="fill: none; stroke: #ff0000; stroke-width: 1.5; stroke-linecap: square"/>
    <g clip-path="url(#p930bd7881f)">
     <use xlink:href="#m7c61652a23" x="213.397443" y="333.44862" style="fill: #ff0000; stroke: #ff0000; stroke-linejoin: bevel"/>
    </g>
   </g>
   <g id="line2d_104">
    <path d="M 589.256996 300.201803 
" clip-path="url(#p930bd7881f)" style="fill: none; stroke: #ff0000; stroke-width: 1.5; stroke-linecap: square"/>
    <g clip-path="url(#p930bd7881f)">
     <use xlink:href="#m7c61652a23" x="589.256996" y="300.201803" style="fill: #ff0000; stroke: #ff0000; stroke-linejoin: bevel"/>
    </g>
   </g>
  </g>
 </g>
 <defs>
  <clipPath id="p930bd7881f">
   <rect x="0" y="0" width="1440" height="1440"/>
  </clipPath>
 </defs>
</svg>
