<?xml version="1.0" encoding="utf-8" standalone="no"?>
<!DOCTYPE svg PUBLIC "-//W3C//DTD SVG 1.1//EN"
  "http://www.w3.org/Graphics/SVG/1.1/DTD/svg11.dtd">
<svg xmlns:xlink="http://www.w3.org/1999/xlink" width="1440pt" height="1440pt" viewBox="0 0 1440 1440" xmlns="http://www.w3.org/2000/svg" version="1.1">
 <metadata>
  <rdf:RDF xmlns:dc="http://purl.org/dc/elements/1.1/" xmlns:cc="http://creativecommons.org/ns#" xmlns:rdf="http://www.w3.org/1999/02/22-rdf-syntax-ns#">
   <cc:Work>
    <dc:type rdf:resource="http://purl.org/dc/dcmitype/StillImage"/>
    <dc:date>2026-02-27T11:10:05.504922</dc:date>
    <dc:format>image/svg+xml</dc:format>
    <dc:creator>
     <cc:Agent>
      <dc:title>Matplotlib v3.7.3, https://matplotlib.org/</dc:title>
     </cc:Agent>
    </dc:creator>
   </cc:Work>
  </rdf:RDF>
 </metadata>
 <defs>
  <style type="text/css">*{stroke-linejoin: round; stroke-linecap: butt}</style>
 </defs>
 <g id="figure_1">
  <g id="patch_1">
   <path d="M 0 1440 
L 1440 1440 
L 1440 0 
L 0 0 
z
" style="fill: #ffffff"/>
  </g>
  <g id="axes_1">
   <g id="line2d_1">
    <path d="M 148.232577 901.47402 
L 129.485765 912.394508 
L 112.960797 917.172222 
L 98.379944 916.148426 
L 85.534906 909.835019 
L 74.425684 898.743898 
L 64.705115 883.386961 
L 56.234333 864.276106 
L 48.943906 842.093864 
L 42.486671 817.010868 
L 36.862628 789.88028 
L 31.794045 761.043365 
L 27.211491 731.182655 
L 9.297871 612.251712 
" clip-path="url(#p26e73bc85d)" style="fill: none; stroke: #7a7a7a; stroke-width: 3; stroke-linecap: square"/>
   </g>
   <g id="line2d_2">
    <path d="M 140.733852 843.800191 
L 139.900661 844.141456 
L 124.34775 857.792066 
L 117.335054 863.081678 
L 112.058173 865.470535 
L 106.781293 865.8118 
L 100.11576 863.593576 
L 98.032781 862.399147 
L 96.921858 862.740413 
L 92.7559 859.32776 
L 86.43753 853.526251 
L 79.771997 844.994619 
L 73.453627 834.415396 
L 68.107314 822.641745 
L 63.941356 810.185563 
L 60.330859 796.193687 
L 56.581496 777.424098 
L 30.683123 599.79553 
" clip-path="url(#p26e73bc85d)" style="fill: none; stroke: #7a7a7a; stroke-width: 3; stroke-linecap: square"/>
   </g>
   <g id="line2d_3">
    <path d="M 392.982621 687.841967 
L 392.496593 688.353865 
L 391.593969 689.036395 
L 148.232577 901.47402 
" clip-path="url(#p26e73bc85d)" style="fill: none; stroke: #7a7a7a; stroke-width: 3; stroke-linecap: square"/>
   </g>
   <g id="line2d_4">
    <path d="M 392.982621 623.342832 
L 392.496593 623.85473 
L 391.593969 624.537261 
L 140.733852 843.800191 
" clip-path="url(#p26e73bc85d)" style="fill: none; stroke: #7a7a7a; stroke-width: 3; stroke-linecap: square"/>
   </g>
   <g id="line2d_5">
    <path d="M 155.870167 960.171645 
L -1 1096.420409 
" clip-path="url(#p26e73bc85d)" style="fill: none; stroke: #7a7a7a; stroke-width: 3; stroke-linecap: square"/>
   </g>
   <g id="line2d_6">
    <path d="M 148.232577 901.47402 
L -1 1031.533463 
" clip-path="url(#p26e73bc85d)" style="fill: none; stroke: #7a7a7a; stroke-width: 3; stroke-linecap: square"/>
   </g>
   <g id="line2d_7">
    <path d="M 392.982621 754.047427 
L 392.496593 754.388693 
L 391.593969 755.241856 
L 155.870167 960.171645 
" clip-path="url(#p26e73bc85d)" style="fill: none; stroke: #7a7a7a; stroke-width: 3; stroke-linecap: square"/>
   </g>
   <g id="line2d_8">
    <path d="M 392.982621 687.841967 
L 392.496593 688.353865 
L 391.593969 689.036395 
L 148.232577 901.47402 
" clip-path="url(#p26e73bc85d)" style="fill: none; stroke: #7a7a7a; stroke-width: 3; stroke-linecap: square"/>
   </g>
   <g id="line2d_9">
    <path d="M 155.870167 960.171645 
L 147.607683 967.850113 
L 132.540801 987.814131 
L 119.834629 1005.048026 
L 109.211435 1020.23433 
L 100.324058 1034.567471 
L 92.7559 1048.900612 
L 86.229232 1064.257549 
L 80.396891 1081.662077 
L 74.911713 1102.137993 
L 69.357102 1126.538459 
L 64.149654 1155.546006 
L 58.386745 1189.5019 
L 42.903267 1292.393376 
" clip-path="url(#p26e73bc85d)" style="fill: none; stroke: #7a7a7a; stroke-width: 3; stroke-linecap: square"/>
   </g>
   <g id="line2d_10">
    <path d="M 148.232577 901.47402 
L 139.970093 908.981856 
L 128.097112 921.949935 
L 117.473919 934.064852 
L 107.961648 946.179769 
L 99.421433 958.465318 
L 91.714411 971.604031 
L 84.562849 986.107804 
L 77.897316 1002.65917 
L 71.509513 1021.428759 
L 65.191143 1043.440368 
L 58.803341 1068.693997 
L 52.20724 1098.213442 
L 45.263977 1132.169336 
L 37.695819 1171.073576 
L 29.363903 1215.779325 
L 20.129362 1266.457216 
L 9.645034 1329.250024 
" clip-path="url(#p26e73bc85d)" style="fill: none; stroke: #7a7a7a; stroke-width: 3; stroke-linecap: square"/>
   </g>
   <g id="line2d_11">
    <path d="M 163.507757 1018.698637 
L 391.593969 820.764786 
L 392.496593 820.082255 
L 392.982621 819.570357 
" clip-path="url(#p26e73bc85d)" style="fill: none; stroke: #7a7a7a; stroke-width: 3; stroke-linecap: square"/>
   </g>
   <g id="line2d_12">
    <path d="M 171.006482 1076.543098 
L 391.593969 884.922655 
L 392.496593 884.069491 
L 392.982621 883.728226 
" clip-path="url(#p26e73bc85d)" style="fill: none; stroke: #7a7a7a; stroke-width: 3; stroke-linecap: square"/>
   </g>
   <g id="line2d_13">
    <path d="M -1 1162.446204 
L 163.507757 1018.698637 
" clip-path="url(#p26e73bc85d)" style="fill: none; stroke: #7a7a7a; stroke-width: 3; stroke-linecap: square"/>
   </g>
   <g id="line2d_14">
    <path d="M -1 1226.602823 
L 106.572995 1132.681234 
L 108.239378 1130.974907 
L 171.006482 1076.543098 
" clip-path="url(#p26e73bc85d)" style="fill: none; stroke: #7a7a7a; stroke-width: 3; stroke-linecap: square"/>
   </g>
   <g id="line2d_15">
    <path d="M 155.870167 960.171645 
L 391.593969 755.241856 
L 392.496593 754.388693 
L 392.982621 754.047427 
" clip-path="url(#p26e73bc85d)" style="fill: none; stroke: #7a7a7a; stroke-width: 3; stroke-linecap: square"/>
   </g>
   <g id="line2d_16">
    <path d="M 163.507757 1018.698637 
L 391.593969 820.764786 
L 392.496593 820.082255 
L 392.982621 819.570357 
" clip-path="url(#p26e73bc85d)" style="fill: none; stroke: #7a7a7a; stroke-width: 3; stroke-linecap: square"/>
   </g>
   <g id="line2d_17">
    <path d="M -1 1096.420409 
L 155.870167 960.171645 
" clip-path="url(#p26e73bc85d)" style="fill: none; stroke: #7a7a7a; stroke-width: 3; stroke-linecap: square"/>
   </g>
   <g id="line2d_18">
    <path d="M -1 1162.446204 
L 163.507757 1018.698637 
" clip-path="url(#p26e73bc85d)" style="fill: none; stroke: #7a7a7a; stroke-width: 3; stroke-linecap: square"/>
   </g>
   <g id="line2d_19">
    <path d="M 148.232577 901.47402 
L -1 1031.533463 
" clip-path="url(#p26e73bc85d)" style="fill: none; stroke: #7a7a7a; stroke-width: 3; stroke-linecap: square"/>
   </g>
   <g id="line2d_20">
    <path d="M 140.733852 843.800191 
L -1 968.915511 
" clip-path="url(#p26e73bc85d)" style="fill: none; stroke: #7a7a7a; stroke-width: 3; stroke-linecap: square"/>
   </g>
   <g id="line2d_21">
    <path d="M 42.903267 1292.393376 
L 61.16405 1198.204164 
L 68.871073 1152.986517 
L 76.647528 1121.078215 
L 84.701714 1099.237238 
L 93.311361 1084.221567 
L 102.684767 1072.959813 
L 113.099663 1062.209957 
L 163.507757 1018.698637 
" clip-path="url(#p26e73bc85d)" style="fill: none; stroke: #7a7a7a; stroke-width: 3; stroke-linecap: square"/>
   </g>
   <g id="line2d_22">
    <path d="M 71.509513 1267.651644 
L 90.325758 1173.2918 
L 91.783843 1165.272066 
L 93.866822 1156.569802 
L 96.574695 1148.720701 
L 99.07427 1143.089824 
L 101.851576 1138.312111 
L 105.045477 1134.216927 
L 108.239378 1130.974907 
L 120.598388 1119.883786 
L 171.006482 1076.543098 
" clip-path="url(#p26e73bc85d)" style="fill: none; stroke: #7a7a7a; stroke-width: 3; stroke-linecap: square"/>
   </g>
   <g id="line2d_23">
    <path d="M 966.565633 254.093821 
L 1099.529133 138.234265 
L 1111.471546 125.948715 
L 1122.164172 108.202922 
L 1131.537578 85.679415 
L 1139.452899 59.231357 
L 1145.701836 29.711912 
L 1150.001905 -1 
" clip-path="url(#p26e73bc85d)" style="fill: none; stroke: #7a7a7a; stroke-width: 3; stroke-linecap: square"/>
   </g>
   <g id="line2d_24">
    <path d="M 973.994925 313.473976 
L 1106.958425 197.443787 
L 1118.69254 185.670136 
L 1129.801762 170.142567 
L 1140.147225 151.372977 
L 1149.728929 129.532001 
L 1158.338576 104.960902 
L 1166.045599 78.342211 
L 1172.711132 50.017195 
L 1178.126877 20.156485 
L 1181.075765 -1 
" clip-path="url(#p26e73bc85d)" style="fill: none; stroke: #7a7a7a; stroke-width: 3; stroke-linecap: square"/>
   </g>
   <g id="line2d_25">
    <path clip-path="url(#p26e73bc85d)" style="fill: none; stroke: #7a7a7a; stroke-width: 3; stroke-linecap: square"/>
   </g>
   <g id="line2d_26">
    <path clip-path="url(#p26e73bc85d)" style="fill: none; stroke: #7a7a7a; stroke-width: 3; stroke-linecap: square"/>
   </g>
   <g id="line2d_27">
    <path d="M 1355.666129 616.346895 
L 1248.948167 495.709625 
L 1232.770362 474.039281 
" clip-path="url(#p26e73bc85d)" style="fill: none; stroke: #7a7a7a; stroke-width: 3; stroke-linecap: square"/>
   </g>
   <g id="line2d_28">
    <path d="M 1365.525564 566.692799 
L 1299.633992 488.201789 
L 1255.405402 433.76998 
L 1248.114975 422.508227 
L 1242.352066 413.294065 
" clip-path="url(#p26e73bc85d)" style="fill: none; stroke: #7a7a7a; stroke-width: 3; stroke-linecap: square"/>
   </g>
   <g id="line2d_29">
    <path d="M 1197.845746 317.569159 
L 1163.072446 -1 
" clip-path="url(#p26e73bc85d)" style="fill: none; stroke: #7a7a7a; stroke-width: 3; stroke-linecap: square"/>
   </g>
   <g id="line2d_30">
    <path d="M 1219.439296 287.367184 
L 1217.842346 275.422899 
L 1217.009154 265.184942 
L 1216.592558 255.629514 
L 1216.661991 253.581923 
L 1192.165055 -1 
" clip-path="url(#p26e73bc85d)" style="fill: none; stroke: #7a7a7a; stroke-width: 3; stroke-linecap: square"/>
   </g>
   <g id="line2d_31">
    <path d="M 1170.072692 355.620236 
L 1163.337726 326.612688 
L 1156.255597 300.847161 
L 1148.756872 278.153021 
L 1140.772119 258.359636 
L 1132.301337 241.467006 
L 1123.344527 227.47513 
L 1113.762823 216.213377 
L 1103.486793 207.852378 
L 1092.655302 202.050868 
L 1081.060051 198.979481 
L 1068.701042 198.467583 
L 1055.508841 200.344542 
L 1041.483448 204.78099 
L 1026.624864 211.606296 
L 1010.794223 220.820458 
L 993.991525 232.252844 
L 976.21677 245.732822 
L 966.565633 254.093821 
" clip-path="url(#p26e73bc85d)" style="fill: none; stroke: #7a7a7a; stroke-width: 3; stroke-linecap: square"/>
   </g>
   <g id="line2d_32">
    <path d="M 1197.845746 317.569159 
L 1190.555319 294.021856 
L 1183.056595 271.327716 
L 1175.280139 249.828005 
L 1167.225953 229.693354 
L 1158.755172 210.753133 
L 1149.867794 193.68987 
L 1140.563821 178.332933 
L 1130.634954 164.852955 
L 1120.150626 153.420569 
L 1108.971971 144.206407 
L 1097.09899 137.381102 
L 1084.392818 133.285918 
L 1070.922886 131.750225 
L 1056.480898 132.944653 
L 1041.136285 137.381102 
L 1024.819616 144.888937 
L 1007.392024 155.638793 
L 988.85351 169.971934 
L 969.134641 187.88836 
L 959.483504 196.249359 
" clip-path="url(#p26e73bc85d)" style="fill: none; stroke: #7a7a7a; stroke-width: 3; stroke-linecap: square"/>
   </g>
   <g id="line2d_33">
    <path d="M 959.483504 196.249359 
L 393.954678 686.988804 
L 393.399217 687.500701 
L 392.982621 687.841967 
" clip-path="url(#p26e73bc85d)" style="fill: none; stroke: #7a7a7a; stroke-width: 3; stroke-linecap: square"/>
   </g>
   <g id="line2d_34">
    <path d="M 952.26251 137.210469 
L 595.309325 448.785652 
L 393.954678 622.489669 
L 393.399217 623.001567 
L 392.982621 623.342832 
" clip-path="url(#p26e73bc85d)" style="fill: none; stroke: #7a7a7a; stroke-width: 3; stroke-linecap: square"/>
   </g>
   <g id="line2d_35">
    <path d="M 1242.352066 413.294065 
L 1236.589158 403.568005 
L 1229.715326 392.306251 
L 1223.119226 379.850069 
L 1217.981211 368.588316 
L 1214.717877 360.568582 
" clip-path="url(#p26e73bc85d)" style="fill: none; stroke: #7a7a7a; stroke-width: 3; stroke-linecap: square"/>
   </g>
   <g id="line2d_36">
    <path d="M 1250.475685 361.933643 
L 1245.823698 356.302766 
L 1240.199655 348.79493 
L 1235.269937 340.775197 
L 1232.214901 334.632422 
L 1229.021 327.124586 
" clip-path="url(#p26e73bc85d)" style="fill: none; stroke: #7a7a7a; stroke-width: 3; stroke-linecap: square"/>
   </g>
   <g id="line2d_37">
    <path d="M 1247.351216 8.382833 
L 1100.292892 136.698571 
L 966.565633 254.093821 
" clip-path="url(#p26e73bc85d)" style="fill: none; stroke: #7a7a7a; stroke-width: 3; stroke-linecap: square"/>
   </g>
   <g id="line2d_38">
    <path d="M 1179.101584 -1 
L 1117.165022 53.088582 
L 959.483504 196.249359 
" clip-path="url(#p26e73bc85d)" style="fill: none; stroke: #7a7a7a; stroke-width: 3; stroke-linecap: square"/>
   </g>
   <g id="line2d_39">
    <path d="M 1142.006716 -1 
L 1139.383466 8.382833 
L 1129.454599 31.076973 
L 1116.540129 50.870358 
L 1100.570622 67.592356 
L 959.483504 196.249359 
" clip-path="url(#p26e73bc85d)" style="fill: none; stroke: #7a7a7a; stroke-width: 3; stroke-linecap: square"/>
   </g>
   <g id="line2d_40">
    <path d="M 1107.160679 -1 
L 1105.77807 1.72816 
L 1103.000764 3.263854 
L 1101.195516 5.652711 
L 1089.739131 17.25573 
L 952.26251 137.210469 
" clip-path="url(#p26e73bc85d)" style="fill: none; stroke: #7a7a7a; stroke-width: 3; stroke-linecap: square"/>
   </g>
   <g id="line2d_41">
    <path d="M 1196.952415 -1 
L 1197.637448 -0.148798 
L 1210.551919 10.601057 
L 1223.466389 16.061301 
L 1235.894831 15.549404 
L 1247.351216 8.382833 
" clip-path="url(#p26e73bc85d)" style="fill: none; stroke: #7a7a7a; stroke-width: 3; stroke-linecap: square"/>
   </g>
   <g id="line2d_42">
    <path d="M 1149.93376 -1 
L 1156.463895 13.672445 
L 1167.503684 32.783299 
L 1179.51553 48.993399 
L 1192.221703 61.961479 
L 1205.275038 71.346274 
L 1218.467239 76.97715 
L 1231.38171 78.512844 
L 1243.740719 75.441457 
L 1255.683133 69.981213 
" clip-path="url(#p26e73bc85d)" style="fill: none; stroke: #7a7a7a; stroke-width: 3; stroke-linecap: square"/>
   </g>
   <g id="line2d_43">
    <path d="M 9.297871 612.251712 
L 23.114966 714.972555 
L 29.363903 754.388693 
L 35.960003 790.221545 
L 42.9727 822.471112 
L 50.401992 851.308026 
L 58.178447 876.561656 
L 66.371498 898.743898 
L 74.911713 917.513487 
L 83.868523 933.211689 
L 93.103063 945.667871 
L 102.7542 955.223298 
L 112.683067 961.877971 
L 123.02853 965.461256 
L 133.651723 966.485052 
L 144.62208 964.608093 
L 155.870167 960.171645 
" clip-path="url(#p26e73bc85d)" style="fill: none; stroke: #7a7a7a; stroke-width: 3; stroke-linecap: square"/>
   </g>
   <g id="line2d_44">
    <path d="M -1 692.164087 
L 4.02099 725.210513 
L 9.783899 762.749691 
L 17.004894 798.923809 
L 24.573051 833.050335 
L 32.488372 864.617372 
L 40.750855 893.624919 
L 49.29107 920.072976 
L 58.24788 943.961545 
L 67.48242 965.119991 
L 77.064124 983.377682 
L 86.923559 998.905252 
L 97.060724 1011.190801 
L 107.475619 1020.575596 
L 118.168245 1026.889003 
L 129.138602 1029.789758 
L 140.317256 1029.619125 
L 151.773641 1025.865207 
L 163.507757 1018.698637 
" clip-path="url(#p26e73bc85d)" style="fill: none; stroke: #7a7a7a; stroke-width: 3; stroke-linecap: square"/>
   </g>
   <g id="line2d_45">
    <path clip-path="url(#p26e73bc85d)" style="fill: none; stroke: #7a7a7a; stroke-width: 3; stroke-linecap: square"/>
   </g>
   <g id="line2d_46">
    <path clip-path="url(#p26e73bc85d)" style="fill: none; stroke: #7a7a7a; stroke-width: 3; stroke-linecap: square"/>
   </g>
   <g id="line2d_47">
    <path d="M 1152.878827 -1 
L 1150.839851 25.446096 
L 1146.882191 53.941745 
L 1141.883041 79.195375 
L 1136.189565 101.718882 
L 1130.148925 122.36543 
L 1124.247151 141.476285 
L 1118.761973 160.075241 
L 1114.109986 178.503565 
L 1110.707787 197.443787 
L 1108.833106 217.578438 
L 1109.041404 239.76068 
L 1111.540979 264.331778 
L 1116.817859 291.974265 
L 1125.219208 323.541301 
" clip-path="url(#p26e73bc85d)" style="fill: none; stroke: #7a7a7a; stroke-width: 3; stroke-linecap: square"/>
   </g>
   <g id="line2d_48">
    <path d="M 1113.107124 -1 
L 1112.37417 4.628915 
L 1107.305588 31.759503 
L 1101.473246 56.8425 
L 1095.154877 80.389803 
L 1082.309839 125.266185 
L 1076.54693 147.789692 
L 1071.54778 170.99573 
L 1067.728985 195.737461 
L 1065.437708 222.526784 
L 1064.95168 252.046229 
L 1066.618063 284.637061 
L 1070.714588 320.981812 
L 1077.657852 361.76301 
" clip-path="url(#p26e73bc85d)" style="fill: none; stroke: #7a7a7a; stroke-width: 3; stroke-linecap: square"/>
   </g>
   <g id="line2d_49">
    <path d="M 1179.101584 -1 
L 1117.165022 53.088582 
L 959.483504 196.249359 
" clip-path="url(#p26e73bc85d)" style="fill: none; stroke: #7a7a7a; stroke-width: 3; stroke-linecap: square"/>
   </g>
   <g id="line2d_50">
    <path d="M 1110.557256 -1 
L 1089.739131 17.25573 
L 952.26251 137.210469 
" clip-path="url(#p26e73bc85d)" style="fill: none; stroke: #7a7a7a; stroke-width: 3; stroke-linecap: square"/>
   </g>
   <g id="line2d_51">
    <path d="M 392.982621 754.047427 
L 393.329785 753.706162 
L 393.954678 753.194264 
L 966.565633 254.093821 
" clip-path="url(#p26e73bc85d)" style="fill: none; stroke: #7a7a7a; stroke-width: 3; stroke-linecap: square"/>
   </g>
   <g id="line2d_52">
    <path d="M 392.982621 819.570357 
L 393.329785 819.229092 
L 393.954678 818.717194 
L 973.994925 313.473976 
" clip-path="url(#p26e73bc85d)" style="fill: none; stroke: #7a7a7a; stroke-width: 3; stroke-linecap: square"/>
   </g>
   <g id="line2d_53">
    <path d="M 392.982621 819.570357 
L 393.329785 819.229092 
L 393.954678 818.717194 
L 973.994925 313.473976 
" clip-path="url(#p26e73bc85d)" style="fill: none; stroke: #7a7a7a; stroke-width: 3; stroke-linecap: square"/>
   </g>
   <g id="line2d_54">
    <path d="M 392.982621 883.728226 
L 393.329785 883.386961 
L 393.954678 882.875063 
L 442.349226 840.387538 
L 482.828453 805.578482 
L 981.21592 371.830335 
" clip-path="url(#p26e73bc85d)" style="fill: none; stroke: #7a7a7a; stroke-width: 3; stroke-linecap: square"/>
   </g>
   <g id="line2d_55">
    <path d="M 1365.525564 566.692799 
L 1299.633992 488.201789 
L 1255.405402 433.76998 
L 1248.114975 422.508227 
L 1242.352066 413.294065 
" clip-path="url(#p26e73bc85d)" style="fill: none; stroke: #7a7a7a; stroke-width: 3; stroke-linecap: square"/>
   </g>
   <g id="line2d_56">
    <path d="M 1376.287623 512.431623 
L 1334.419743 461.241834 
L 1290.607749 410.052045 
L 1250.475685 361.933643 
" clip-path="url(#p26e73bc85d)" style="fill: none; stroke: #7a7a7a; stroke-width: 3; stroke-linecap: square"/>
   </g>
   <g id="line2d_57">
    <path d="M 1214.717877 360.568582 
L 1197.845746 317.569159 
" clip-path="url(#p26e73bc85d)" style="fill: none; stroke: #7a7a7a; stroke-width: 3; stroke-linecap: square"/>
   </g>
   <g id="line2d_58">
    <path d="M 1229.021 327.124586 
L 1224.091283 311.597017 
L 1222.147169 303.747916 
L 1220.341921 294.533754 
L 1219.439296 287.367184 
" clip-path="url(#p26e73bc85d)" style="fill: none; stroke: #7a7a7a; stroke-width: 3; stroke-linecap: square"/>
   </g>
   <g id="line2d_59">
    <path d="M 973.994925 313.473976 
L 1238.949867 82.096129 
L 1255.683133 69.981213 
" clip-path="url(#p26e73bc85d)" style="fill: none; stroke: #7a7a7a; stroke-width: 3; stroke-linecap: square"/>
   </g>
   <g id="line2d_60">
    <path d="M 981.21592 371.830335 
L 1008.294648 348.283033 
L 1245.823698 136.357306 
L 1249.156465 132.603388 
L 1262.418098 121.341634 
" clip-path="url(#p26e73bc85d)" style="fill: none; stroke: #7a7a7a; stroke-width: 3; stroke-linecap: square"/>
   </g>
   <g id="line2d_61">
    <path clip-path="url(#p26e73bc85d)" style="fill: none; stroke: #7a7a7a; stroke-width: 3; stroke-linecap: square"/>
   </g>
   <g id="line2d_62">
    <path clip-path="url(#p26e73bc85d)" style="fill: none; stroke: #7a7a7a; stroke-width: 3; stroke-linecap: square"/>
   </g>
   <g id="line2d_63">
    <path d="M 1232.770362 474.039281 
L 1224.02185 463.118793 
L 1215.273338 449.468182 
L 1206.941422 435.817572 
L 1200.692484 424.04392 
L 1193.47149 410.052045 
" clip-path="url(#p26e73bc85d)" style="fill: none; stroke: #7a7a7a; stroke-width: 3; stroke-linecap: square"/>
   </g>
   <g id="line2d_64">
    <path d="M 1242.352066 413.294065 
L 1236.589158 403.568005 
L 1229.715326 392.306251 
L 1223.119226 379.850069 
L 1217.981211 368.588316 
L 1214.717877 360.568582 
" clip-path="url(#p26e73bc85d)" style="fill: none; stroke: #7a7a7a; stroke-width: 3; stroke-linecap: square"/>
   </g>
   <g id="line2d_65">
    <path d="M 966.565633 254.093821 
L 393.954678 753.194264 
L 393.329785 753.706162 
L 392.982621 754.047427 
" clip-path="url(#p26e73bc85d)" style="fill: none; stroke: #7a7a7a; stroke-width: 3; stroke-linecap: square"/>
   </g>
   <g id="line2d_66">
    <path d="M 959.483504 196.249359 
L 393.954678 686.988804 
L 393.399217 687.500701 
L 392.982621 687.841967 
" clip-path="url(#p26e73bc85d)" style="fill: none; stroke: #7a7a7a; stroke-width: 3; stroke-linecap: square"/>
   </g>
   <g id="line2d_67">
    <path d="M 1232.770362 474.039281 
L 1248.948167 495.709625 
L 1355.666129 616.346895 
" clip-path="url(#p26e73bc85d)" style="fill: none; stroke: #7a7a7a; stroke-width: 3; stroke-linecap: square"/>
   </g>
   <g id="line2d_68">
    <path d="M 1223.188659 530.177416 
L 1313.79825 634.945851 
L 1344.834638 671.290602 
" clip-path="url(#p26e73bc85d)" style="fill: none; stroke: #7a7a7a; stroke-width: 3; stroke-linecap: square"/>
   </g>
   <g id="line2d_69">
    <path d="M 966.565633 254.093821 
L 1100.292892 136.698571 
L 1247.351216 8.382833 
" clip-path="url(#p26e73bc85d)" style="fill: none; stroke: #7a7a7a; stroke-width: 3; stroke-linecap: square"/>
   </g>
   <g id="line2d_70">
    <path d="M 973.994925 313.473976 
L 1238.949867 82.096129 
L 1255.683133 69.981213 
" clip-path="url(#p26e73bc85d)" style="fill: none; stroke: #7a7a7a; stroke-width: 3; stroke-linecap: square"/>
   </g>
   <g id="line2d_71">
    <path d="M 973.994925 313.473976 
L 997.81032 292.656795 
L 1014.821316 280.541878 
L 1030.582524 272.010247 
L 1045.163378 266.891268 
L 1058.772175 265.355574 
L 1071.408915 267.061901 
L 1083.212463 272.010247 
L 1094.391118 280.200613 
L 1105.083744 291.632999 
L 1115.290341 305.96614 
L 1125.219208 323.541301 
" clip-path="url(#p26e73bc85d)" style="fill: none; stroke: #7a7a7a; stroke-width: 3; stroke-linecap: square"/>
   </g>
   <g id="line2d_72">
    <path d="M 981.21592 371.830335 
L 1016.001671 341.457727 
L 1026.347134 332.072933 
L 1031.207418 328.830913 
L 1035.99827 326.271423 
L 1040.650257 325.930158 
L 1046.066002 327.807117 
L 1046.2743 327.97775 
L 1051.551181 332.072933 
L 1052.662103 333.267361 
L 1057.800118 338.727605 
L 1061.827211 343.334686 
L 1066.132034 348.283033 
L 1069.18707 351.866318 
L 1077.657852 361.76301 
" clip-path="url(#p26e73bc85d)" style="fill: none; stroke: #7a7a7a; stroke-width: 3; stroke-linecap: square"/>
   </g>
   <g id="line2d_73">
    <path d="M 1193.47149 410.052045 
L 1186.319929 394.865741 
L 1179.029502 377.461212 
L 1170.072692 355.620236 
" clip-path="url(#p26e73bc85d)" style="fill: none; stroke: #7a7a7a; stroke-width: 3; stroke-linecap: square"/>
   </g>
   <g id="line2d_74">
    <path d="M 1214.717877 360.568582 
L 1197.845746 317.569159 
" clip-path="url(#p26e73bc85d)" style="fill: none; stroke: #7a7a7a; stroke-width: 3; stroke-linecap: square"/>
   </g>
   <g id="line2d_75">
    <path d="M 1125.219208 323.541301 
L 1184.375815 422.508227 
L 1232.770362 474.039281 
" clip-path="url(#p26e73bc85d)" style="fill: none; stroke: #7a7a7a; stroke-width: 3; stroke-linecap: square"/>
   </g>
   <g id="line2d_76">
    <path d="M 1077.657852 361.76301 
L 1162.435101 459.70614 
L 1223.188659 530.177416 
" clip-path="url(#p26e73bc85d)" style="fill: none; stroke: #7a7a7a; stroke-width: 3; stroke-linecap: square"/>
   </g>
   <g id="line2d_77">
    <path d="M 1197.845746 317.569159 
L 1192.221703 289.07351 
L 1189.236099 259.2128 
L 1188.888936 229.010824 
L 1190.83305 199.150114 
L 1195.068441 170.825097 
L 1201.386811 144.547672 
L 1209.649294 121.512267 
L 1219.647594 102.572045 
L 1231.312277 88.409537 
L 1255.683133 69.981213 
" clip-path="url(#p26e73bc85d)" style="fill: none; stroke: #7a7a7a; stroke-width: 3; stroke-linecap: square"/>
   </g>
   <g id="line2d_78">
    <path d="M 1219.439296 287.367184 
L 1217.842346 275.422899 
L 1217.009154 265.184942 
L 1216.592558 255.629514 
L 1216.661991 253.581923 
L 1216.38426 250.851801 
L 1217.009154 217.06654 
L 1221.036247 187.20583 
L 1228.257241 161.781568 
L 1238.463839 141.81755 
L 1262.418098 121.341634 
" clip-path="url(#p26e73bc85d)" style="fill: none; stroke: #7a7a7a; stroke-width: 3; stroke-linecap: square"/>
   </g>
   <g id="line2d_79">
    <path d="M 1197.845746 317.569159 
L 1191.319078 283.783898 
L 1187.15312 249.657372 
L 1185.347872 215.872111 
L 1185.764467 182.598749 
L 1188.19461 150.690447 
L 1192.638298 120.488471 
L 1198.887236 92.50472 
L 1206.941422 67.592356 
L 1216.523125 45.922012 
L 1227.632347 28.176218 
L 1240.060789 14.69624 
L 1247.351216 8.382833 
" clip-path="url(#p26e73bc85d)" style="fill: none; stroke: #7a7a7a; stroke-width: 3; stroke-linecap: square"/>
   </g>
   <g id="line2d_80">
    <path d="M 1219.439296 287.367184 
L 1214.926175 255.629514 
L 1213.398657 222.697417 
L 1214.440146 190.106584 
L 1217.842346 159.051446 
L 1223.188659 130.897062 
L 1230.270788 106.837861 
L 1238.811002 88.238904 
L 1248.462138 76.29462 
L 1255.683133 69.981213 
" clip-path="url(#p26e73bc85d)" style="fill: none; stroke: #7a7a7a; stroke-width: 3; stroke-linecap: square"/>
   </g>
   <g id="line2d_81">
    <path d="M 891.238071 252.278974 
L 892.071229 248.61382 
" clip-path="url(#p26e73bc85d)" style="fill: none; stroke-dasharray: 32,8,5,8; stroke-dashoffset: 0; stroke: #1e90ff; stroke-width: 5"/>
   </g>
   <g id="line2d_82">
    <path d="M 879.251787 431.5742 
L 1074.30393 299.642704 
" clip-path="url(#p26e73bc85d)" style="fill: none; stroke-dasharray: 32,8,5,8; stroke-dashoffset: 0; stroke: #1e90ff; stroke-width: 5"/>
   </g>
   <g id="line2d_83">
    <path d="M 192.2984 813.901582 
L 138.865273 928.102109 
" clip-path="url(#p26e73bc85d)" style="fill: none; stroke-dasharray: 32,8,5,8; stroke-dashoffset: 0; stroke: #1e90ff; stroke-width: 5"/>
   </g>
   <g id="line2d_84">
    <path d="M 1223.900241 252.060528 
L 1225.858967 252.78981 
" clip-path="url(#p26e73bc85d)" style="fill: none; stroke-dasharray: 32,8,5,8; stroke-dashoffset: 0; stroke: #1e90ff; stroke-width: 5"/>
   </g>
   <g id="line2d_85">
    <path d="M 1331.264016 476.806844 
L 1335.851045 484.172822 
" clip-path="url(#p26e73bc85d)" style="fill: none; stroke-dasharray: 32,8,5,8; stroke-dashoffset: 0; stroke: #1e90ff; stroke-width: 5"/>
   </g>
   <g id="line2d_86">
    <path d="M 409.656794 795.697921 
L 807.456983 439.665294 
" clip-path="url(#p26e73bc85d)" style="fill: none; stroke-dasharray: 32,8,5,8; stroke-dashoffset: 0; stroke: #1e90ff; stroke-width: 5"/>
   </g>
   <g id="line2d_87">
    <path d="M 725.432053 450.900292 
L 739.059225 444.884565 
" clip-path="url(#p26e73bc85d)" style="fill: none; stroke-dasharray: 32,8,5,8; stroke-dashoffset: 0; stroke: #1e90ff; stroke-width: 5"/>
   </g>
   <g id="line2d_88">
    <path d="M 891.238071 252.278974 
" clip-path="url(#p26e73bc85d)" style="fill: none; stroke: #0000ff; stroke-width: 1.5; stroke-linecap: square"/>
    <defs>
     <path id="mfd779fc079" d="M 0 10 
C 2.652031 10 5.195799 8.946337 7.071068 7.071068 
C 8.946337 5.195799 10 2.652031 10 0 
C 10 -2.652031 8.946337 -5.195799 7.071068 -7.071068 
C 5.195799 -8.946337 2.652031 -10 0 -10 
C -2.652031 -10 -5.195799 -8.946337 -7.071068 -7.071068 
C -8.946337 -5.195799 -10 -2.652031 -10 0 
C -10 2.652031 -8.946337 5.195799 -7.071068 7.071068 
C -5.195799 8.946337 -2.652031 10 0 10 
z
" style="stroke: #0000ff"/>
    </defs>
    <g clip-path="url(#p26e73bc85d)">
     <use xlink:href="#mfd779fc079" x="891.238071" y="252.278974" style="fill: #0000ff; stroke: #0000ff"/>
    </g>
   </g>
   <g id="line2d_89">
    <path d="M 879.251787 431.5742 
" clip-path="url(#p26e73bc85d)" style="fill: none; stroke: #0000ff; stroke-width: 1.5; stroke-linecap: square"/>
    <g clip-path="url(#p26e73bc85d)">
     <use xlink:href="#mfd779fc079" x="879.251787" y="431.5742" style="fill: #0000ff; stroke: #0000ff"/>
    </g>
   </g>
   <g id="line2d_90">
    <path d="M 192.2984 813.901582 
" clip-path="url(#p26e73bc85d)" style="fill: none; stroke: #0000ff; stroke-width: 1.5; stroke-linecap: square"/>
    <g clip-path="url(#p26e73bc85d)">
     <use xlink:href="#mfd779fc079" x="192.2984" y="813.901582" style="fill: #0000ff; stroke: #0000ff"/>
    </g>
   </g>
   <g id="line2d_91">
    <path d="M 1223.900241 252.060528 
" clip-path="url(#p26e73bc85d)" style="fill: none; stroke: #0000ff; stroke-width: 1.5; stroke-linecap: square"/>
    <g clip-path="url(#p26e73bc85d)">
     <use xlink:href="#mfd779fc079" x="1223.900241" y="252.060528" style="fill: #0000ff; stroke: #0000ff"/>
    </g>
   </g>
   <g id="line2d_92">
    <path d="M 1331.264016 476.806844 
" clip-path="url(#p26e73bc85d)" style="fill: none; stroke: #0000ff; stroke-width: 1.5; stroke-linecap: square"/>
    <g clip-path="url(#p26e73bc85d)">
     <use xlink:href="#mfd779fc079" x="1331.264016" y="476.806844" style="fill: #0000ff; stroke: #0000ff"/>
    </g>
   </g>
   <g id="line2d_93">
    <path d="M 409.656794 795.697921 
" clip-path="url(#p26e73bc85d)" style="fill: none; stroke: #0000ff; stroke-width: 1.5; stroke-linecap: square"/>
    <g clip-path="url(#p26e73bc85d)">
     <use xlink:href="#mfd779fc079" x="409.656794" y="795.697921" style="fill: #0000ff; stroke: #0000ff"/>
    </g>
   </g>
   <g id="line2d_94">
    <path d="M 725.432053 450.900292 
" clip-path="url(#p26e73bc85d)" style="fill: none; stroke: #0000ff; stroke-width: 1.5; stroke-linecap: square"/>
    <g clip-path="url(#p26e73bc85d)">
     <use xlink:href="#mfd779fc079" x="725.432053" y="450.900292" style="fill: #0000ff; stroke: #0000ff"/>
    </g>
   </g>
   <g id="line2d_95">
    <path d="M 892.071229 248.61382 
" clip-path="url(#p26e73bc85d)" style="fill: none; stroke: #ff0000; stroke-width: 1.5; stroke-linecap: square"/>
    <defs>
     <path id="m79efd67b8f" d="M 0 -10 
L -2.24514 -3.09017 
L -9.510565 -3.09017 
L -3.632713 1.18034 
L -5.877853 8.09017 
L -0 3.81966 
L 5.877853 8.09017 
L 3.632713 1.18034 
L 9.510565 -3.09017 
L 2.24514 -3.09017 
z
" style="stroke: #ff0000; stroke-linejoin: bevel"/>
    </defs>
    <g clip-path="url(#p26e73bc85d)">
     <use xlink:href="#m79efd67b8f" x="892.071229" y="248.61382" style="fill: #ff0000; stroke: #ff0000; stroke-linejoin: bevel"/>
    </g>
   </g>
   <g id="line2d_96">
    <path d="M 1074.30393 299.642704 
" clip-path="url(#p26e73bc85d)" style="fill: none; stroke: #ff0000; stroke-width: 1.5; stroke-linecap: square"/>
    <g clip-path="url(#p26e73bc85d)">
     <use xlink:href="#m79efd67b8f" x="1074.30393" y="299.642704" style="fill: #ff0000; stroke: #ff0000; stroke-linejoin: bevel"/>
    </g>
   </g>
   <g id="line2d_97">
    <path d="M 138.865273 928.102109 
" clip-path="url(#p26e73bc85d)" style="fill: none; stroke: #ff0000; stroke-width: 1.5; stroke-linecap: square"/>
    <g clip-path="url(#p26e73bc85d)">
     <use xlink:href="#m79efd67b8f" x="138.865273" y="928.102109" style="fill: #ff0000; stroke: #ff0000; stroke-linejoin: bevel"/>
    </g>
   </g>
   <g id="line2d_98">
    <path d="M 1225.858967 252.78981 
" clip-path="url(#p26e73bc85d)" style="fill: none; stroke: #ff0000; stroke-width: 1.5; stroke-linecap: square"/>
    <g clip-path="url(#p26e73bc85d)">
     <use xlink:href="#m79efd67b8f" x="1225.858967" y="252.78981" style="fill: #ff0000; stroke: #ff0000; stroke-linejoin: bevel"/>
    </g>
   </g>
   <g id="line2d_99">
    <path d="M 1335.851045 484.172822 
" clip-path="url(#p26e73bc85d)" style="fill: none; stroke: #ff0000; stroke-width: 1.5; stroke-linecap: square"/>
    <g clip-path="url(#p26e73bc85d)">
     <use xlink:href="#m79efd67b8f" x="1335.851045" y="484.172822" style="fill: #ff0000; stroke: #ff0000; stroke-linejoin: bevel"/>
    </g>
   </g>
   <g id="line2d_100">
    <path d="M 807.456983 439.665294 
" clip-path="url(#p26e73bc85d)" style="fill: none; stroke: #ff0000; stroke-width: 1.5; stroke-linecap: square"/>
    <g clip-path="url(#p26e73bc85d)">
     <use xlink:href="#m79efd67b8f" x="807.456983" y="439.665294" style="fill: #ff0000; stroke: #ff0000; stroke-linejoin: bevel"/>
    </g>
   </g>
   <g id="line2d_101">
    <path d="M 739.059225 444.884565 
" clip-path="url(#p26e73bc85d)" style="fill: none; stroke: #ff0000; stroke-width: 1.5; stroke-linecap: square"/>
    <g clip-path="url(#p26e73bc85d)">
     <use xlink:href="#m79efd67b8f" x="739.059225" y="444.884565" style="fill: #ff0000; stroke: #ff0000; stroke-linejoin: bevel"/>
    </g>
   </g>
  </g>
 </g>
 <defs>
  <clipPath id="p26e73bc85d">
   <rect x="0" y="0" width="1440" height="1440"/>
  </clipPath>
 </defs>
</svg>
