<?xml version="1.0" encoding="utf-8" standalone="no"?>
<!DOCTYPE svg PUBLIC "-//W3C//DTD SVG 1.1//EN"
  "http://www.w3.org/Graphics/SVG/1.1/DTD/svg11.dtd">
<svg xmlns:xlink="http://www.w3.org/1999/xlink" width="1440pt" height="1440pt" viewBox="0 0 1440 1440" xmlns="http://www.w3.org/2000/svg" version="1.1">
 <metadata>
  <rdf:RDF xmlns:dc="http://purl.org/dc/elements/1.1/" xmlns:cc="http://creativecommons.org/ns#" xmlns:rdf="http://www.w3.org/1999/02/22-rdf-syntax-ns#">
   <cc:Work>
    <dc:type rdf:resource="http://purl.org/dc/dcmitype/StillImage"/>
    <dc:date>2026-02-27T11:09:49.655594</dc:date>
    <dc:format>image/svg+xml</dc:format>
    <dc:creator>
     <cc:Agent>
      <dc:title>Matplotlib v3.7.3, https://matplotlib.org/</dc:title>
     </cc:Agent>
    </dc:creator>
   </cc:Work>
  </rdf:RDF>
 </metadata>
 <defs>
  <style type="text/css">*{stroke-linejoin: round; stroke-linecap: butt}</style>
 </defs>
 <g id="figure_1">
  <g id="patch_1">
   <path d="M 0 1440 
L 1440 1440 
L 1440 0 
L 0 0 
z
" style="fill: #ffffff"/>
  </g>
  <g id="axes_1">
   <g id="line2d_1">
    <path d="M 658.606195 175.797937 
L 643.127156 127.915557 
L 627.743667 78.038077 
L 610.30586 18.755129 
L 604.764324 -1 
" clip-path="url(#p1d9188367d)" style="fill: none; stroke: #7a7a7a; stroke-width: 3; stroke-linecap: square"/>
   </g>
   <g id="line2d_2">
    <path d="M 667.39676 106.25448 
L 665.581317 102.121774 
L 662.189306 91.861264 
L 635.011917 -1 
" clip-path="url(#p1d9188367d)" style="fill: none; stroke: #7a7a7a; stroke-width: 3; stroke-linecap: square"/>
   </g>
   <g id="line2d_3">
    <path d="M 753.534745 421.765166 
L 658.606195 175.797937 
" clip-path="url(#p1d9188367d)" style="fill: none; stroke: #7a7a7a; stroke-width: 3; stroke-linecap: square"/>
   </g>
   <g id="line2d_4">
    <path d="M 760.127669 377.58797 
L 667.39676 106.25448 
" clip-path="url(#p1d9188367d)" style="fill: none; stroke: #7a7a7a; stroke-width: 3; stroke-linecap: square"/>
   </g>
   <g id="line2d_5">
    <path d="M 577.938924 -1 
L 594.349073 61.079734 
L 607.152723 105.969465 
L 617.233208 139.45863 
L 627.648117 172.947795 
L 641.550587 213.989836 
L 652.777668 242.348746 
" clip-path="url(#p1d9188367d)" style="fill: none; stroke: #7a7a7a; stroke-width: 3; stroke-linecap: square"/>
   </g>
   <g id="line2d_6">
    <path d="M 556.206613 -1 
L 558.995713 10.91724 
L 565.588637 36.711022 
L 576.959042 78.465598 
L 590.957062 127.773049 
L 605.098406 175.940444 
L 617.94983 215.984935 
L 642.888282 289.09107 
" clip-path="url(#p1d9188367d)" style="fill: none; stroke: #7a7a7a; stroke-width: 3; stroke-linecap: square"/>
   </g>
   <g id="line2d_7">
    <path d="M 805.083767 547.456415 
L 770.877002 461.097122 
L 753.534745 421.765166 
" clip-path="url(#p1d9188367d)" style="fill: none; stroke: #7a7a7a; stroke-width: 3; stroke-linecap: square"/>
   </g>
   <g id="line2d_8">
    <path d="M 815.785324 502.281669 
L 806.039263 481.760649 
L 789.12698 444.281286 
L 771.784723 404.94933 
L 760.127669 377.58797 
" clip-path="url(#p1d9188367d)" style="fill: none; stroke: #7a7a7a; stroke-width: 3; stroke-linecap: square"/>
   </g>
   <g id="line2d_9">
    <path d="M 707.862025 915.837231 
L 692.71741 912.702075 
L 683.019123 910.279454 
L 673.225287 907.714327 
L 663.335901 904.864185 
L 653.303191 901.586522 
L 643.222705 898.166352 
L 632.998896 894.461168 
L 622.631762 890.328462 
L 612.216853 886.05325 
L 601.610845 881.350516 
L 590.909287 876.362768 
L 583.79084 872.942598 
" clip-path="url(#p1d9188367d)" style="fill: none; stroke: #7a7a7a; stroke-width: 3; stroke-linecap: square"/>
   </g>
   <g id="line2d_10">
    <path d="M 711.827335 869.237414 
L 682.923574 860.686989 
L 664.625821 853.989156 
L 646.662492 848.431379 
L 628.508064 841.876053 
L 610.114761 834.465685 
L 588.807195 824.91771 
" clip-path="url(#p1d9188367d)" style="fill: none; stroke: #7a7a7a; stroke-width: 3; stroke-linecap: square"/>
   </g>
   <g id="line2d_11">
    <path d="M 967.327026 891.753533 
L 935.126803 900.588972 
L 910.857199 906.57427 
" clip-path="url(#p1d9188367d)" style="fill: none; stroke: #7a7a7a; stroke-width: 3; stroke-linecap: square"/>
   </g>
   <g id="line2d_12">
    <path d="M 966.132656 844.156167 
L 947.596029 849.428929 
L 909.328405 857.836847 
" clip-path="url(#p1d9188367d)" style="fill: none; stroke: #7a7a7a; stroke-width: 3; stroke-linecap: square"/>
   </g>
   <g id="line2d_13">
    <path d="M 652.968767 683.265668 
L 646.758042 728.297906 
L 643.413805 753.236646 
L 638.3019 774.897723 
L 631.756751 792.996123 
L 624.065006 807.389339 
L 615.56109 818.07737 
L 606.674975 824.632696 
L 597.597761 826.912809 
L 588.807195 824.91771 
" clip-path="url(#p1d9188367d)" style="fill: none; stroke: #7a7a7a; stroke-width: 3; stroke-linecap: square"/>
   </g>
   <g id="line2d_14">
    <path d="M 638.063026 667.732395 
L 631.900075 712.764634 
L 628.412514 733.713176 
L 623.061735 751.526561 
L 616.325487 765.349749 
L 608.777066 774.612709 
L 600.894223 778.4604 
L 593.202478 776.465301 
" clip-path="url(#p1d9188367d)" style="fill: none; stroke: #7a7a7a; stroke-width: 3; stroke-linecap: square"/>
   </g>
   <g id="line2d_15">
    <path d="M 580.11218 924.102642 
L 591.769234 930.51546 
L 601.133097 934.648166 
L 619.669723 942.058534 
L 638.015251 948.61386 
L 656.217454 954.314144 
L 674.324108 959.159384 
L 692.287437 963.149583 
L 702.988995 964.717161 
" clip-path="url(#p1d9188367d)" style="fill: none; stroke: #7a7a7a; stroke-width: 3; stroke-linecap: square"/>
   </g>
   <g id="line2d_16">
    <path d="M 576.24242 971.985022 
L 583.599741 975.832713 
L 599.031005 982.388039 
L 615.226666 986.378238 
L 620.720769 990.938464 
L 648.047961 999.631397 
L 661.807107 1004.761652 
L 688.561002 1011.031963 
L 698.880361 1013.027063 
" clip-path="url(#p1d9188367d)" style="fill: none; stroke: #7a7a7a; stroke-width: 3; stroke-linecap: square"/>
   </g>
   <g id="line2d_17">
    <path d="M 652.968767 683.265668 
L 662.42818 616.14483 
" clip-path="url(#p1d9188367d)" style="fill: none; stroke: #7a7a7a; stroke-width: 3; stroke-linecap: square"/>
   </g>
   <g id="line2d_18">
    <path d="M 676.091776 707.491872 
L 687.892154 616.14483 
" clip-path="url(#p1d9188367d)" style="fill: none; stroke: #7a7a7a; stroke-width: 3; stroke-linecap: square"/>
   </g>
   <g id="line2d_19">
    <path d="M 408.600607 753.949182 
L 413.425862 758.081887 
L 426.372836 768.769919 
L 439.128711 779.030429 
L 451.693486 788.863418 
L 464.114937 798.268885 
L 476.393064 807.246832 
L 488.527866 815.939764 
L 500.471569 824.062668 
L 512.271947 831.900557 
L 523.929001 839.310926 
L 535.442731 846.43628 
L 546.813136 853.134113 
L 558.040217 859.404425 
L 569.123973 865.389722 
L 583.79084 872.942598 
" clip-path="url(#p1d9188367d)" style="fill: none; stroke: #7a7a7a; stroke-width: 3; stroke-linecap: square"/>
   </g>
   <g id="line2d_20">
    <path d="M 408.600607 809.241931 
L 413.616962 813.65965 
L 424.12742 822.49509 
L 434.542329 831.045515 
L 444.909463 839.310926 
L 455.181048 847.291323 
L 465.357083 854.986705 
L 475.485343 862.397074 
L 485.518053 869.522428 
L 495.502989 876.505275 
L 505.392374 883.060601 
L 515.233986 889.330913 
L 524.980047 895.31621 
L 534.726109 901.159001 
L 544.376621 906.716777 
L 553.931583 911.847032 
L 563.486545 916.977287 
L 572.993733 921.680021 
L 580.11218 924.102642 
" clip-path="url(#p1d9188367d)" style="fill: none; stroke: #7a7a7a; stroke-width: 3; stroke-linecap: square"/>
   </g>
   <g id="line2d_21">
    <path d="M 638.063026 667.732395 
L 626.119323 756.086788 
L 623.061735 779.885471 
L 618.379804 798.553899 
L 612.360177 812.377087 
L 605.24173 821.212526 
L 597.311112 825.487739 
L 588.807195 824.91771 
" clip-path="url(#p1d9188367d)" style="fill: none; stroke: #7a7a7a; stroke-width: 3; stroke-linecap: square"/>
   </g>
   <g id="line2d_22">
    <path d="M 627.743667 656.901857 
L 615.799964 745.25625 
L 611.404681 763.639664 
L 603.044089 773.472652 
L 593.202478 776.465301 
" clip-path="url(#p1d9188367d)" style="fill: none; stroke: #7a7a7a; stroke-width: 3; stroke-linecap: square"/>
   </g>
   <g id="line2d_23">
    <path d="M 583.79084 872.942598 
L 569.123973 865.389722 
L 558.040217 859.404425 
L 546.813136 853.134113 
L 535.442731 846.43628 
L 523.929001 839.310926 
L 512.271947 831.900557 
L 500.471569 824.062668 
L 488.527866 815.939764 
L 476.393064 807.246832 
L 464.114937 798.268885 
L 451.693486 788.863418 
L 439.128711 779.030429 
L 426.372836 768.769919 
L 413.425862 758.081887 
L 408.600607 753.949182 
" clip-path="url(#p1d9188367d)" style="fill: none; stroke: #7a7a7a; stroke-width: 3; stroke-linecap: square"/>
   </g>
   <g id="line2d_24">
    <path d="M 588.807195 824.91771 
L 572.659309 816.794806 
L 553.549384 806.534296 
L 534.105036 795.133729 
L 514.374039 782.735613 
L 494.260843 769.339947 
L 473.765449 754.661717 
L 452.887857 738.985938 
L 431.580291 722.027595 
L 408.600607 700.509025 
" clip-path="url(#p1d9188367d)" style="fill: none; stroke: #7a7a7a; stroke-width: 3; stroke-linecap: square"/>
   </g>
   <g id="line2d_25">
    <path d="M 662.42818 616.14483 
L 652.968767 683.265668 
" clip-path="url(#p1d9188367d)" style="fill: none; stroke: #7a7a7a; stroke-width: 3; stroke-linecap: square"/>
   </g>
   <g id="line2d_26">
    <path d="M 644.847049 616.14483 
L 638.063026 667.732395 
" clip-path="url(#p1d9188367d)" style="fill: none; stroke: #7a7a7a; stroke-width: 3; stroke-linecap: square"/>
   </g>
   <g id="line2d_27">
    <path d="M 644.847049 616.14483 
L 638.063026 667.732395 
" clip-path="url(#p1d9188367d)" style="fill: none; stroke: #7a7a7a; stroke-width: 3; stroke-linecap: square"/>
   </g>
   <g id="line2d_28">
    <path d="M 633.476644 616.14483 
L 627.743667 656.901857 
" clip-path="url(#p1d9188367d)" style="fill: none; stroke: #7a7a7a; stroke-width: 3; stroke-linecap: square"/>
   </g>
   <g id="line2d_29">
    <path d="M 966.132656 844.156167 
L 947.596029 849.428929 
L 909.328405 857.836847 
" clip-path="url(#p1d9188367d)" style="fill: none; stroke: #7a7a7a; stroke-width: 3; stroke-linecap: square"/>
   </g>
   <g id="line2d_30">
    <path d="M 964.98606 797.271336 
L 908.038485 813.089622 
" clip-path="url(#p1d9188367d)" style="fill: none; stroke: #7a7a7a; stroke-width: 3; stroke-linecap: square"/>
   </g>
   <g id="line2d_31">
    <path d="M 910.857199 906.57427 
L 935.126803 900.588972 
L 967.327026 891.753533 
" clip-path="url(#p1d9188367d)" style="fill: none; stroke: #7a7a7a; stroke-width: 3; stroke-linecap: square"/>
   </g>
   <g id="line2d_32">
    <path d="M 913.914787 958.304342 
L 968.425847 946.048733 
" clip-path="url(#p1d9188367d)" style="fill: none; stroke: #7a7a7a; stroke-width: 3; stroke-linecap: square"/>
   </g>
   <g id="line2d_33">
    <path d="M 652.968767 683.265668 
L 651.392198 704.926744 
L 651.153324 729.295456 
L 652.20437 755.374253 
L 654.545336 782.450599 
L 658.080672 809.384438 
L 662.810378 835.320727 
L 668.68668 859.119411 
L 675.661802 879.925445 
L 683.735746 896.883788 
L 692.81296 908.711876 
L 702.893445 914.839681 
L 707.862025 915.837231 
" clip-path="url(#p1d9188367d)" style="fill: none; stroke: #7a7a7a; stroke-width: 3; stroke-linecap: square"/>
   </g>
   <g id="line2d_34">
    <path d="M 638.063026 667.732395 
L 636.199808 690.533529 
L 635.435411 715.329762 
L 635.72206 741.551065 
L 637.059755 768.769919 
L 639.352946 796.273786 
L 642.601633 823.635146 
L 646.758042 849.998957 
L 651.774397 875.080204 
L 657.650699 898.166352 
L 664.291397 918.829879 
L 671.696493 936.215744 
L 679.818211 949.896424 
L 688.608776 959.301892 
L 698.020414 963.719611 
L 702.988995 964.717161 
" clip-path="url(#p1d9188367d)" style="fill: none; stroke: #7a7a7a; stroke-width: 3; stroke-linecap: square"/>
   </g>
   <g id="line2d_35">
    <path d="M 711.827335 869.237414 
L 707.9098 868.809892 
L 700.170281 862.254567 
L 692.908509 848.003858 
L 686.411135 827.910359 
L 681.012581 803.826662 
L 676.999497 777.890372 
L 674.658531 751.954083 
L 674.228558 727.870385 
L 676.091776 707.491872 
" clip-path="url(#p1d9188367d)" style="fill: none; stroke: #7a7a7a; stroke-width: 3; stroke-linecap: square"/>
   </g>
   <g id="line2d_36">
    <path d="M 715.935968 818.504891 
L 704.278914 815.939764 
L 701.937949 814.514693 
L 699.549208 812.662101 
L 697.160468 810.096973 
L 695.153926 806.81931 
L 693.577357 803.114126 
L 690.280895 794.278687 
L 688.9432 789.433446 
L 686.315585 776.322794 
L 685.694513 771.762567 
L 684.786791 764.922227 
L 684.022394 756.941831 
L 683.640196 748.106391 
L 683.735746 737.845881 
L 683.831295 736.135796 
L 683.735746 733.570669 
L 685.742288 717.609875 
" clip-path="url(#p1d9188367d)" style="fill: none; stroke: #7a7a7a; stroke-width: 3; stroke-linecap: square"/>
   </g>
   <g id="line2d_37">
    <path d="M 583.79084 872.942598 
L 592.676955 875.365218 
L 601.085322 873.512626 
L 609.063715 867.812343 
L 616.421036 858.264368 
L 623.205059 845.153716 
L 629.272461 828.622894 
L 634.575465 808.956917 
L 639.114072 786.155783 
L 642.744957 760.504508 
L 652.968767 683.265668 
" clip-path="url(#p1d9188367d)" style="fill: none; stroke: #7a7a7a; stroke-width: 3; stroke-linecap: square"/>
   </g>
   <g id="line2d_38">
    <path d="M 580.11218 924.102642 
L 589.237169 927.665319 
L 598.409932 927.950333 
L 607.582696 924.957684 
L 616.516586 919.114894 
L 625.116052 910.279454 
L 633.33332 898.878887 
L 640.929515 885.0557 
L 647.856862 868.9524 
L 653.924263 850.568986 
L 659.036168 830.332979 
L 663.097027 808.386888 
L 665.915741 784.730712 
L 676.091776 707.491872 
" clip-path="url(#p1d9188367d)" style="fill: none; stroke: #7a7a7a; stroke-width: 3; stroke-linecap: square"/>
   </g>
   <g id="line2d_39">
    <path d="M 913.914787 958.304342 
L 968.425847 946.048733 
" clip-path="url(#p1d9188367d)" style="fill: none; stroke: #7a7a7a; stroke-width: 3; stroke-linecap: square"/>
   </g>
   <g id="line2d_40">
    <path d="M 913.102615 1008.466836 
L 934.505731 1004.33413 
L 974.349924 993.646099 
" clip-path="url(#p1d9188367d)" style="fill: none; stroke: #7a7a7a; stroke-width: 3; stroke-linecap: square"/>
   </g>
   <g id="line2d_41">
    <path d="M 702.988995 964.717161 
L 710.155216 966.284739 
L 719.041331 967.70981 
L 727.927446 968.849866 
L 736.813561 969.847416 
L 745.651901 970.702458 
L 754.490241 971.272487 
L 763.328581 971.842515 
L 772.166922 972.127529 
L 780.957487 972.270036 
L 789.795827 972.270036 
L 798.586392 972.127529 
L 807.424732 971.842515 
L 816.215298 971.272487 
L 825.053638 970.702458 
L 833.891978 969.989923 
L 842.730318 969.277388 
L 851.568658 968.279838 
L 860.406998 967.139781 
L 869.293113 965.999725 
L 878.179228 964.717161 
L 887.065343 963.149583 
L 895.999233 961.724512 
L 904.933123 960.014427 
L 913.914787 958.304342 
" clip-path="url(#p1d9188367d)" style="fill: none; stroke: #7a7a7a; stroke-width: 3; stroke-linecap: square"/>
   </g>
   <g id="line2d_42">
    <path d="M 698.880361 1013.027063 
L 725.204282 1017.872304 
L 778.616521 1021.577488 
L 799.494114 1021.434981 
L 847.030051 1019.01236 
L 886.778694 1013.454584 
L 913.102615 1008.466836 
" clip-path="url(#p1d9188367d)" style="fill: none; stroke: #7a7a7a; stroke-width: 3; stroke-linecap: square"/>
   </g>
   <g id="line2d_43">
    <path d="M 711.827335 869.237414 
L 693.147383 864.249666 
L 684.213494 856.269269 
L 676.139551 842.161068 
L 669.021104 823.065118 
L 663.049252 800.548999 
L 658.223996 776.03778 
L 654.68866 750.671519 
L 652.586569 725.875286 
L 651.965496 702.931645 
L 652.968767 683.265668 
" clip-path="url(#p1d9188367d)" style="fill: none; stroke: #7a7a7a; stroke-width: 3; stroke-linecap: square"/>
   </g>
   <g id="line2d_44">
    <path d="M 715.935968 818.504891 
L 704.13559 815.227228 
L 701.985724 814.372186 
L 700.600254 813.374636 
L 697.399342 812.519594 
L 691.093067 808.529395 
L 684.404593 791.286038 
L 678.767165 765.634763 
L 675.518478 736.135796 
L 676.091776 707.491872 
" clip-path="url(#p1d9188367d)" style="fill: none; stroke: #7a7a7a; stroke-width: 3; stroke-linecap: square"/>
   </g>
   <g id="line2d_45">
    <path d="M 707.862025 915.837231 
L 711.77956 916.549766 
L 721.191198 918.117344 
L 730.507286 919.542415 
L 739.727825 920.682471 
L 748.900588 921.537514 
L 757.977803 922.250049 
L 766.959467 922.677571 
L 775.845582 922.962585 
L 784.683922 923.105092 
L 793.474487 922.962585 
L 802.217278 922.677571 
L 810.864519 922.250049 
L 819.463985 921.680021 
L 827.967901 920.967486 
L 836.471818 919.969936 
L 844.880185 918.972386 
L 853.288551 917.83233 
L 861.601369 916.549766 
L 869.914186 915.124695 
L 878.131453 913.699624 
L 886.396496 911.989539 
L 894.565988 910.279454 
L 902.735481 908.569369 
L 910.857199 906.57427 
" clip-path="url(#p1d9188367d)" style="fill: none; stroke: #7a7a7a; stroke-width: 3; stroke-linecap: square"/>
   </g>
   <g id="line2d_46">
    <path d="M 702.988995 964.717161 
L 710.155216 966.284739 
L 719.041331 967.70981 
L 727.927446 968.849866 
L 736.813561 969.847416 
L 745.651901 970.702458 
L 754.490241 971.272487 
L 763.328581 971.842515 
L 772.166922 972.127529 
L 780.957487 972.270036 
L 789.795827 972.270036 
L 798.586392 972.127529 
L 807.424732 971.842515 
L 816.215298 971.272487 
L 825.053638 970.702458 
L 833.891978 969.989923 
L 842.730318 969.277388 
L 851.568658 968.279838 
L 860.406998 967.139781 
L 869.293113 965.999725 
L 878.179228 964.717161 
L 887.065343 963.149583 
L 895.999233 961.724512 
L 904.933123 960.014427 
L 913.914787 958.304342 
" clip-path="url(#p1d9188367d)" style="fill: none; stroke: #7a7a7a; stroke-width: 3; stroke-linecap: square"/>
   </g>
   <g id="line2d_47">
    <path d="M 676.091776 707.491872 
L 687.892154 616.14483 
" clip-path="url(#p1d9188367d)" style="fill: none; stroke: #7a7a7a; stroke-width: 3; stroke-linecap: square"/>
   </g>
   <g id="line2d_48">
    <path d="M 685.742288 717.609875 
L 699.262559 616.14483 
" clip-path="url(#p1d9188367d)" style="fill: none; stroke: #7a7a7a; stroke-width: 3; stroke-linecap: square"/>
   </g>
   <g id="line2d_49">
    <path d="M 909.328405 857.836847 
L 884.103305 862.539581 
L 857.492735 866.529779 
L 822.473798 870.662485 
L 787.502636 871.232513 
L 761.417589 870.804992 
L 744.027558 870.804992 
L 726.303103 869.094907 
L 711.827335 869.237414 
" clip-path="url(#p1d9188367d)" style="fill: none; stroke: #7a7a7a; stroke-width: 3; stroke-linecap: square"/>
   </g>
   <g id="line2d_50">
    <path d="M 908.038485 813.089622 
L 900.53784 815.227228 
L 848.51107 820.499991 
L 822.999321 823.065118 
L 787.311537 823.777654 
L 751.00268 822.780104 
L 723.723263 820.214976 
L 715.935968 818.504891 
" clip-path="url(#p1d9188367d)" style="fill: none; stroke: #7a7a7a; stroke-width: 3; stroke-linecap: square"/>
   </g>
   <g id="line2d_51">
    <path d="M 583.79084 872.942598 
L 593.059153 877.360318 
L 602.518566 877.930346 
L 611.977979 875.080204 
L 621.341842 868.667385 
L 630.466831 859.261918 
L 639.114072 846.863801 
L 647.23579 831.75805 
L 654.640885 814.229679 
L 661.13826 794.278687 
L 666.680138 772.475103 
L 671.027646 748.818927 
L 674.037459 723.595173 
L 676.091776 707.491872 
" clip-path="url(#p1d9188367d)" style="fill: none; stroke: #7a7a7a; stroke-width: 3; stroke-linecap: square"/>
   </g>
   <g id="line2d_52">
    <path d="M 580.11218 924.102642 
L 588.902745 928.235347 
L 597.884409 929.232897 
L 606.961624 927.237797 
L 615.991063 922.250049 
L 624.972728 914.554667 
L 633.715518 904.009143 
L 642.123885 890.898491 
L 650.150053 875.222711 
L 657.650699 857.266819 
L 664.482497 836.745798 
L 670.645447 814.087172 
L 675.948451 789.290939 
L 680.343734 762.499607 
L 683.687971 733.570669 
L 685.742288 717.609875 
" clip-path="url(#p1d9188367d)" style="fill: none; stroke: #7a7a7a; stroke-width: 3; stroke-linecap: square"/>
   </g>
   <g id="line2d_53">
    <path d="M 408.600607 809.241931 
L 413.616962 813.65965 
L 424.12742 822.49509 
L 434.542329 831.045515 
L 444.909463 839.310926 
L 455.181048 847.291323 
L 465.357083 854.986705 
L 475.485343 862.397074 
L 485.518053 869.522428 
L 495.502989 876.505275 
L 505.392374 883.060601 
L 515.233986 889.330913 
L 524.980047 895.31621 
L 534.726109 901.159001 
L 544.376621 906.716777 
L 553.931583 911.847032 
L 563.486545 916.977287 
L 572.993733 921.680021 
L 580.11218 924.102642 
" clip-path="url(#p1d9188367d)" style="fill: none; stroke: #7a7a7a; stroke-width: 3; stroke-linecap: square"/>
   </g>
   <g id="line2d_54">
    <path d="M 408.600607 863.822144 
L 430.815894 881.778037 
L 460.054078 903.866635 
L 482.460465 920.112443 
L 503.242508 933.508109 
L 524.597849 945.621211 
L 576.24242 971.985022 
" clip-path="url(#p1d9188367d)" style="fill: none; stroke: #7a7a7a; stroke-width: 3; stroke-linecap: square"/>
   </g>
   <g id="line2d_55">
    <path d="M 588.807195 824.91771 
L 572.659309 816.794806 
L 553.549384 806.534296 
L 534.105036 795.133729 
L 514.374039 782.735613 
L 494.260843 769.339947 
L 473.765449 754.661717 
L 452.887857 738.985938 
L 431.580291 722.027595 
L 408.600607 700.509025 
" clip-path="url(#p1d9188367d)" style="fill: none; stroke: #7a7a7a; stroke-width: 3; stroke-linecap: square"/>
   </g>
   <g id="line2d_56">
    <path d="M 593.202478 776.465301 
L 565.063114 762.642114 
L 544.949918 752.951632 
L 527.98986 742.833629 
L 508.402188 731.148048 
L 489.340038 717.324861 
L 469.943464 702.076603 
L 449.925818 685.260767 
L 430.003722 669.870002 
L 408.600607 653.766701 
" clip-path="url(#p1d9188367d)" style="fill: none; stroke: #7a7a7a; stroke-width: 3; stroke-linecap: square"/>
   </g>
   <g id="line2d_57">
    <path d="M 583.79084 872.942598 
L 590.909287 876.362768 
L 601.610845 881.350516 
L 612.216853 886.05325 
L 622.631762 890.328462 
L 632.998896 894.461168 
L 643.222705 898.166352 
L 653.303191 901.586522 
L 663.335901 904.864185 
L 673.225287 907.714327 
L 683.019123 910.279454 
L 692.71741 912.702075 
L 707.862025 915.837231 
" clip-path="url(#p1d9188367d)" style="fill: none; stroke: #7a7a7a; stroke-width: 3; stroke-linecap: square"/>
   </g>
   <g id="line2d_58">
    <path d="M 580.11218 924.102642 
L 591.769234 930.51546 
L 601.133097 934.648166 
L 619.669723 942.058534 
L 638.015251 948.61386 
L 656.217454 954.314144 
L 674.324108 959.159384 
L 692.287437 963.149583 
L 702.988995 964.717161 
" clip-path="url(#p1d9188367d)" style="fill: none; stroke: #7a7a7a; stroke-width: 3; stroke-linecap: square"/>
   </g>
   <g id="line2d_59">
    <path d="M 910.857199 906.57427 
L 902.735481 908.569369 
L 894.565988 910.279454 
L 886.396496 911.989539 
L 878.131453 913.699624 
L 869.914186 915.124695 
L 861.601369 916.549766 
L 853.288551 917.83233 
L 844.880185 918.972386 
L 836.471818 919.969936 
L 827.967901 920.967486 
L 819.463985 921.680021 
L 810.864519 922.250049 
L 802.217278 922.677571 
L 793.474487 922.962585 
L 784.683922 923.105092 
L 775.845582 922.962585 
L 766.959467 922.677571 
L 757.977803 922.250049 
L 748.900588 921.537514 
L 739.727825 920.682471 
L 730.507286 919.542415 
L 721.191198 918.117344 
L 711.77956 916.549766 
L 707.862025 915.837231 
" clip-path="url(#p1d9188367d)" style="fill: none; stroke: #7a7a7a; stroke-width: 3; stroke-linecap: square"/>
   </g>
   <g id="line2d_60">
    <path d="M 909.328405 857.836847 
L 884.103305 862.539581 
L 857.492735 866.529779 
L 822.473798 870.662485 
L 787.502636 871.232513 
L 761.417589 870.804992 
L 744.027558 870.804992 
L 726.303103 869.094907 
L 711.827335 869.237414 
" clip-path="url(#p1d9188367d)" style="fill: none; stroke: #7a7a7a; stroke-width: 3; stroke-linecap: square"/>
   </g>
   <g id="line2d_61">
    <path d="M 711.827335 869.237414 
L 682.923574 860.686989 
L 664.625821 853.989156 
L 646.662492 848.431379 
L 628.508064 841.876053 
L 610.114761 834.465685 
L 588.807195 824.91771 
" clip-path="url(#p1d9188367d)" style="fill: none; stroke: #7a7a7a; stroke-width: 3; stroke-linecap: square"/>
   </g>
   <g id="line2d_62">
    <path d="M 715.935968 818.504891 
L 688.84765 813.089622 
L 657.555149 803.541647 
L 625.928224 791.856066 
L 593.202478 776.465301 
" clip-path="url(#p1d9188367d)" style="fill: none; stroke: #7a7a7a; stroke-width: 3; stroke-linecap: square"/>
   </g>
   <g id="line2d_63">
    <path d="M 728.930717 105.541944 
L 675.900676 513.254715 
" clip-path="url(#p1d9188367d)" style="fill: none; stroke: #7a7a7a; stroke-width: 3; stroke-linecap: square"/>
   </g>
   <g id="line2d_64">
    <path d="M 713.977201 86.160981 
L 660.947161 492.44868 
" clip-path="url(#p1d9188367d)" style="fill: none; stroke: #7a7a7a; stroke-width: 3; stroke-linecap: square"/>
   </g>
   <g id="line2d_65">
    <path d="M 713.977201 86.160981 
L 660.947161 492.44868 
" clip-path="url(#p1d9188367d)" style="fill: none; stroke: #7a7a7a; stroke-width: 3; stroke-linecap: square"/>
   </g>
   <g id="line2d_66">
    <path d="M 704.517789 73.905371 
L 663.7181 392.123692 
L 656.886302 438.438495 
L 651.487748 479.338029 
" clip-path="url(#p1d9188367d)" style="fill: none; stroke: #7a7a7a; stroke-width: 3; stroke-linecap: square"/>
   </g>
   <g id="line2d_67">
    <path d="M 662.42818 616.14483 
L 662.905928 612.867167 
L 663.049252 611.869618 
L 663.288126 609.874519 
L 663.527 608.164434 
L 675.900676 513.254715 
" clip-path="url(#p1d9188367d)" style="fill: none; stroke: #7a7a7a; stroke-width: 3; stroke-linecap: square"/>
   </g>
   <g id="line2d_68">
    <path d="M 687.892154 616.14483 
L 688.274353 612.867167 
L 688.417677 611.869618 
L 688.656551 610.017026 
L 688.895425 608.306941 
L 697.351567 543.038696 
" clip-path="url(#p1d9188367d)" style="fill: none; stroke: #7a7a7a; stroke-width: 3; stroke-linecap: square"/>
   </g>
   <g id="line2d_69">
    <path d="M 753.534745 421.765166 
L 747.085146 403.524259 
L 741.829916 384.998338 
L 737.816832 365.617375 
L 734.998118 345.238861 
L 733.469324 323.29277 
L 733.373775 298.924059 
L 734.185946 273.272783 
L 736.479137 244.486352 
L 740.062248 212.707272 
L 749.951634 132.903304 
" clip-path="url(#p1d9188367d)" style="fill: none; stroke: #7a7a7a; stroke-width: 3; stroke-linecap: square"/>
   </g>
   <g id="line2d_70">
    <path d="M 760.127669 377.58797 
L 753.773619 357.921992 
L 748.948363 338.398521 
L 745.843 317.592487 
L 744.839729 293.936311 
L 745.795226 274.555347 
L 745.747451 274.270333 
L 746.320749 260.589653 
L 748.040642 244.058831 
L 751.623753 216.697471 
L 755.684612 180.215657 
L 756.831207 177.223008 
L 760.079894 152.711789 
" clip-path="url(#p1d9188367d)" style="fill: none; stroke: #7a7a7a; stroke-width: 3; stroke-linecap: square"/>
   </g>
   <g id="line2d_71">
    <path d="M 687.892154 616.14483 
L 688.274353 612.867167 
L 688.417677 611.869618 
L 688.656551 610.017026 
L 688.895425 608.306941 
L 697.351567 543.038696 
" clip-path="url(#p1d9188367d)" style="fill: none; stroke: #7a7a7a; stroke-width: 3; stroke-linecap: square"/>
   </g>
   <g id="line2d_72">
    <path d="M 699.262559 616.14483 
L 699.692533 612.867167 
L 699.835857 611.869618 
L 700.122506 610.017026 
L 700.313605 608.306941 
L 707.097628 556.576869 
" clip-path="url(#p1d9188367d)" style="fill: none; stroke: #7a7a7a; stroke-width: 3; stroke-linecap: square"/>
   </g>
   <g id="line2d_73">
    <path d="M 728.930717 105.541944 
L 728.548519 108.6771 
L 724.774309 132.333276 
L 719.901278 153.851846 
L 714.024976 172.662781 
L 707.336502 188.053546 
L 700.026956 199.59662 
L 692.144112 206.579468 
L 683.926845 208.289553 
L 675.470703 204.156847 
L 667.014562 193.468816 
L 658.606195 175.797937 
" clip-path="url(#p1d9188367d)" style="fill: none; stroke: #7a7a7a; stroke-width: 3; stroke-linecap: square"/>
   </g>
   <g id="line2d_74">
    <path d="M 713.977201 86.160981 
L 713.547228 89.296136 
L 709.29527 110.814706 
L 702.988995 126.7755 
L 695.153926 135.895953 
L 686.267811 136.465982 
L 676.856173 127.060514 
L 667.39676 106.25448 
" clip-path="url(#p1d9188367d)" style="fill: none; stroke: #7a7a7a; stroke-width: 3; stroke-linecap: square"/>
   </g>
   <g id="line2d_75">
    <path d="M 652.777668 242.348746 
L 661.13826 258.737061 
L 669.9766 270.280135 
L 679.101589 276.977968 
L 688.274353 279.258081 
L 697.399342 277.547996 
L 706.333231 271.847713 
L 714.837148 262.727259 
L 722.767767 250.329143 
L 730.029538 234.79587 
L 736.335813 216.697471 
L 741.591042 196.17645 
L 745.651901 173.375317 
L 749.951634 132.903304 
" clip-path="url(#p1d9188367d)" style="fill: none; stroke: #7a7a7a; stroke-width: 3; stroke-linecap: square"/>
   </g>
   <g id="line2d_76">
    <path d="M 642.888282 289.09107 
L 649.911179 307.616991 
L 657.507374 321.725192 
L 665.629092 331.558181 
L 674.085234 337.543479 
L 682.780249 339.538578 
L 691.618589 338.113507 
L 700.409155 333.125759 
L 709.10417 325.002855 
L 717.512537 313.744796 
L 725.538706 299.779101 
L 733.087126 282.963265 
L 740.014473 263.867316 
L 746.177424 242.348746 
L 751.241554 219.690119 
L 751.623753 216.697471 
L 755.684612 180.215657 
L 756.831207 177.223008 
L 760.079894 152.711789 
" clip-path="url(#p1d9188367d)" style="fill: none; stroke: #7a7a7a; stroke-width: 3; stroke-linecap: square"/>
   </g>
   <g id="line2d_77">
    <path d="M 675.900676 513.254715 
L 680.917032 474.492788 
L 684.786791 442.713708 
L 687.796605 413.214741 
L 689.850921 385.710874 
L 690.997517 359.917091 
L 691.045292 335.54838 
L 690.089795 312.177218 
L 687.939929 289.376084 
L 684.643467 267.144979 
L 680.10486 245.056381 
L 674.324108 222.540261 
L 667.157886 199.59662 
L 658.606195 175.797937 
" clip-path="url(#p1d9188367d)" style="fill: none; stroke: #7a7a7a; stroke-width: 3; stroke-linecap: square"/>
   </g>
   <g id="line2d_78">
    <path d="M 697.351567 543.038696 
L 702.367922 504.276769 
L 706.381006 470.360082 
L 709.390819 438.153481 
L 711.397361 407.799472 
L 712.448407 379.013041 
L 712.639506 351.794187 
L 711.970659 325.857898 
L 710.441865 301.061665 
L 708.196449 277.262982 
L 705.234411 254.461848 
L 702.176823 233.228292 
L 697.208242 210.712173 
L 692.287437 189.621124 
L 686.841108 168.672583 
L 680.821482 148.009056 
L 674.324108 127.203021 
L 667.39676 106.25448 
" clip-path="url(#p1d9188367d)" style="fill: none; stroke: #7a7a7a; stroke-width: 3; stroke-linecap: square"/>
   </g>
   <g id="line2d_79">
    <path d="M 660.947161 492.44868 
L 645.898095 608.164434 
L 645.659221 609.874519 
L 645.420347 611.869618 
L 645.277022 612.867167 
L 644.847049 616.14483 
" clip-path="url(#p1d9188367d)" style="fill: none; stroke: #7a7a7a; stroke-width: 3; stroke-linecap: square"/>
   </g>
   <g id="line2d_80">
    <path d="M 651.487748 479.338029 
L 634.52769 608.164434 
L 634.336591 609.874519 
L 634.049942 611.869618 
L 633.906617 612.867167 
L 633.476644 616.14483 
" clip-path="url(#p1d9188367d)" style="fill: none; stroke: #7a7a7a; stroke-width: 3; stroke-linecap: square"/>
   </g>
   <g id="line2d_81">
    <path d="M 697.351567 543.038696 
L 748.183966 148.864098 
L 749.951634 132.903304 
" clip-path="url(#p1d9188367d)" style="fill: none; stroke: #7a7a7a; stroke-width: 3; stroke-linecap: square"/>
   </g>
   <g id="line2d_82">
    <path d="M 707.097628 556.576869 
L 747.753993 246.766466 
L 748.040642 244.058831 
L 751.623753 216.697471 
L 755.684612 180.215657 
L 756.831207 177.223008 
L 760.079894 152.711789 
" clip-path="url(#p1d9188367d)" style="fill: none; stroke: #7a7a7a; stroke-width: 3; stroke-linecap: square"/>
   </g>
   <g id="line2d_83">
    <path d="M 753.534745 421.765166 
L 744.696405 402.954231 
L 735.71474 391.411157 
L 726.733076 386.565916 
L 717.942511 387.705973 
L 709.581919 394.118792 
L 701.794624 404.94933 
L 694.771727 419.62756 
L 688.704326 437.440946 
L 683.831295 457.534445 
L 680.295959 479.338029 
L 675.900676 513.254715 
" clip-path="url(#p1d9188367d)" style="fill: none; stroke: #7a7a7a; stroke-width: 3; stroke-linecap: square"/>
   </g>
   <g id="line2d_84">
    <path d="M 760.127669 377.58797 
L 751.432653 354.786836 
L 742.689863 338.256014 
L 733.899298 327.71049 
L 725.204282 322.580235 
L 716.700365 322.580235 
L 708.483098 327.282969 
L 700.552479 336.403422 
L 693.099609 349.371567 
L 686.172261 365.759882 
L 679.818211 385.283352 
L 674.180783 407.514458 
L 669.307753 432.168183 
L 665.342443 458.674501 
L 660.947161 492.44868 
" clip-path="url(#p1d9188367d)" style="fill: none; stroke: #7a7a7a; stroke-width: 3; stroke-linecap: square"/>
   </g>
   <g id="line2d_85">
    <path d="M 652.777668 242.348746 
L 658.988393 259.307089 
L 664.864695 276.407939 
L 670.263249 294.078818 
L 674.992955 312.889753 
L 678.958264 333.125759 
L 681.920303 355.356864 
L 683.687971 380.153097 
L 684.165719 407.799472 
L 683.114673 438.866016 
L 680.439284 473.922759 
L 675.900676 513.254715 
" clip-path="url(#p1d9188367d)" style="fill: none; stroke: #7a7a7a; stroke-width: 3; stroke-linecap: square"/>
   </g>
   <g id="line2d_86">
    <path d="M 642.888282 289.09107 
L 646.805816 299.921608 
L 653.350966 317.877501 
L 658.319546 331.558181 
L 660.564962 339.538578 
L 661.759332 343.813791 
L 662.380405 346.663932 
L 665.915741 361.199655 
L 668.877779 380.580619 
L 669.928825 399.676568 
L 669.403302 419.200039 
L 667.540084 440.576101 
L 664.625821 464.517292 
L 660.947161 492.44868 
" clip-path="url(#p1d9188367d)" style="fill: none; stroke: #7a7a7a; stroke-width: 3; stroke-linecap: square"/>
   </g>
   <g id="line2d_87">
    <path d="M 753.534745 421.765166 
L 746.607397 402.811724 
L 740.157798 382.860732 
L 734.281496 361.769683 
L 729.121816 339.681085 
L 724.774309 316.309923 
L 721.430072 291.798704 
L 719.136881 266.147429 
L 718.085835 239.356097 
L 718.372484 211.282201 
L 720.092377 181.925742 
L 723.436614 151.429226 
L 728.930717 105.541944 
" clip-path="url(#p1d9188367d)" style="fill: none; stroke: #7a7a7a; stroke-width: 3; stroke-linecap: square"/>
   </g>
   <g id="line2d_88">
    <path d="M 760.127669 377.58797 
L 754.442466 360.059598 
L 749.282787 341.39117 
L 744.935279 320.87015 
L 741.686592 298.35403 
L 739.727825 273.272783 
L 739.345626 245.198888 
L 740.826645 213.847329 
L 744.409756 178.648079 
L 749.951634 132.903304 
" clip-path="url(#p1d9188367d)" style="fill: none; stroke: #7a7a7a; stroke-width: 3; stroke-linecap: square"/>
   </g>
   <g id="line2d_89">
    <path d="M 652.777668 242.348746 
L 659.418367 263.582302 
L 664.482497 285.243379 
L 668.065607 307.474484 
L 670.311024 330.418125 
L 671.314295 354.216808 
L 671.17097 379.013041 
L 669.928825 405.091837 
L 667.778959 432.31069 
L 664.721371 461.097122 
L 660.947161 492.44868 
" clip-path="url(#p1d9188367d)" style="fill: none; stroke: #7a7a7a; stroke-width: 3; stroke-linecap: square"/>
   </g>
   <g id="line2d_90">
    <path d="M 642.888282 289.09107 
L 658.319546 331.558181 
L 661.759332 343.813791 
L 662.905928 349.371567 
L 663.765874 355.07185 
L 664.91247 367.469967 
L 664.530271 383.43076 
L 663.7181 392.123692 
L 661.616008 406.231894 
L 651.487748 479.338029 
" clip-path="url(#p1d9188367d)" style="fill: none; stroke: #7a7a7a; stroke-width: 3; stroke-linecap: square"/>
   </g>
   <g id="line2d_91">
    <path d="M 652.777668 242.348746 
L 661.854882 259.022075 
L 670.740997 269.99512 
L 679.292688 275.267883 
L 687.414406 274.982868 
L 695.058376 269.282585 
L 702.081273 258.024525 
L 708.387548 241.351196 
L 713.929426 219.262598 
L 718.563583 191.901238 
L 728.930717 105.541944 
" clip-path="url(#p1d9188367d)" style="fill: none; stroke: #7a7a7a; stroke-width: 3; stroke-linecap: square"/>
   </g>
   <g id="line2d_92">
    <path d="M 642.888282 289.09107 
L 651.248874 309.897104 
L 659.800565 325.572884 
L 668.495581 336.260915 
L 677.238371 342.246213 
L 685.885612 343.671284 
L 694.341754 340.821142 
L 702.511246 333.980802 
L 710.250766 323.150263 
L 717.560312 308.757048 
L 724.201011 290.943662 
L 730.172862 269.852613 
L 735.332542 245.911423 
L 739.536725 219.120091 
L 749.951634 132.903304 
" clip-path="url(#p1d9188367d)" style="fill: none; stroke: #7a7a7a; stroke-width: 3; stroke-linecap: square"/>
   </g>
   <g id="line2d_93">
    <path d="M 675.900676 513.254715 
L 663.527 608.164434 
L 663.288126 609.874519 
L 663.049252 611.869618 
L 662.905928 612.867167 
L 662.42818 616.14483 
" clip-path="url(#p1d9188367d)" style="fill: none; stroke: #7a7a7a; stroke-width: 3; stroke-linecap: square"/>
   </g>
   <g id="line2d_94">
    <path d="M 660.947161 492.44868 
L 645.898095 608.164434 
L 645.659221 609.874519 
L 645.420347 611.869618 
L 645.277022 612.867167 
L 644.847049 616.14483 
" clip-path="url(#p1d9188367d)" style="fill: none; stroke: #7a7a7a; stroke-width: 3; stroke-linecap: square"/>
   </g>
   <g id="line2d_95">
    <path d="M 713.977201 86.160981 
L 710.011892 116.51499 
L 705.52106 140.598687 
L 699.16701 161.262214 
L 691.475265 177.508022 
L 683.066898 188.196054 
L 674.371883 192.186252 
L 666.059065 188.481068 
L 658.606195 175.797937 
" clip-path="url(#p1d9188367d)" style="fill: none; stroke: #7a7a7a; stroke-width: 3; stroke-linecap: square"/>
   </g>
   <g id="line2d_96">
    <path d="M 704.517789 73.905371 
L 700.552479 104.25938 
L 697.064918 119.93516 
L 691.379715 129.625642 
L 684.070169 131.620741 
L 675.852902 124.352879 
L 671.648718 115.374933 
L 671.362069 114.947412 
L 667.39676 106.25448 
" clip-path="url(#p1d9188367d)" style="fill: none; stroke: #7a7a7a; stroke-width: 3; stroke-linecap: square"/>
   </g>
   <g id="line2d_97">
    <path d="M 675.900676 513.254715 
L 728.930717 105.541944 
" clip-path="url(#p1d9188367d)" style="fill: none; stroke: #7a7a7a; stroke-width: 3; stroke-linecap: square"/>
   </g>
   <g id="line2d_98">
    <path d="M 697.351567 543.038696 
L 748.183966 148.864098 
L 749.951634 132.903304 
" clip-path="url(#p1d9188367d)" style="fill: none; stroke: #7a7a7a; stroke-width: 3; stroke-linecap: square"/>
   </g>
   <g id="line2d_99">
    <path d="M 753.534745 421.765166 
L 742.450989 396.968933 
L 731.892756 380.438111 
L 721.955595 371.175151 
L 712.591732 368.467516 
L 703.896716 371.317658 
L 695.870548 378.870534 
L 688.513227 390.413607 
L 681.920303 404.94933 
L 676.091776 421.622659 
L 671.027646 439.578552 
L 666.775688 457.961966 
L 663.431451 475.917859 
L 660.947161 492.44868 
" clip-path="url(#p1d9188367d)" style="fill: none; stroke: #7a7a7a; stroke-width: 3; stroke-linecap: square"/>
   </g>
   <g id="line2d_100">
    <path d="M 760.127669 377.58797 
L 751.337104 354.359315 
L 742.403214 337.828493 
L 733.421549 327.425476 
L 724.39211 322.722742 
L 715.505995 323.007756 
L 706.810979 327.71049 
L 698.354838 336.403422 
L 690.32867 348.516524 
L 682.6847 363.337261 
L 675.614028 380.438111 
L 669.164428 399.10654 
L 663.431451 418.915024 
L 658.55842 439.293538 
L 654.497561 459.672051 
L 651.487748 479.338029 
" clip-path="url(#p1d9188367d)" style="fill: none; stroke: #7a7a7a; stroke-width: 3; stroke-linecap: square"/>
   </g>
   <g id="line2d_101">
    <path d="M -1 340.41924 
L 8.916534 351.366666 
L 67.631777 415.922376 
L 129.547933 486.60589 
L 193.183982 552.729177 
L 269.098157 628.40044 
L 343.10134 696.803841 
L 379.123548 729.437963 
L 407.167362 752.666618 
L 407.501786 753.094139 
L 407.883984 753.379153 
L 408.027309 753.521661 
L 408.600607 753.949182 
" clip-path="url(#p1d9188367d)" style="fill: none; stroke: #7a7a7a; stroke-width: 3; stroke-linecap: square"/>
   </g>
   <g id="line2d_102">
    <path d="M -1 397.490059 
L 25.972142 427.607957 
L 137.526326 550.021543 
L 246.930645 661.319576 
L 357.672658 764.494706 
L 407.167362 807.959367 
L 407.501786 808.244381 
L 407.883984 808.671903 
L 408.027309 808.81441 
L 408.600607 809.241931 
" clip-path="url(#p1d9188367d)" style="fill: none; stroke: #7a7a7a; stroke-width: 3; stroke-linecap: square"/>
   </g>
   <g id="line2d_103">
    <path d="M -1 397.490059 
L 25.972142 427.607957 
L 137.526326 550.021543 
L 246.930645 661.319576 
L 357.672658 764.494706 
L 407.167362 807.959367 
L 407.501786 808.244381 
L 407.883984 808.671903 
L 408.027309 808.81441 
L 408.600607 809.241931 
" clip-path="url(#p1d9188367d)" style="fill: none; stroke: #7a7a7a; stroke-width: 3; stroke-linecap: square"/>
   </g>
   <g id="line2d_104">
    <path d="M -1 449.865315 
L 44.604318 500.001556 
L 95.818916 555.436812 
L 158.403919 624.695256 
L 230.209461 699.653982 
L 288.924704 756.229295 
L 345.346756 808.244381 
L 407.167362 862.682088 
L 407.501786 862.967102 
L 407.883984 863.252116 
L 408.027309 863.394623 
L 408.600607 863.822144 
" clip-path="url(#p1d9188367d)" style="fill: none; stroke: #7a7a7a; stroke-width: 3; stroke-linecap: square"/>
   </g>
   <g id="line2d_105">
    <path d="M 408.600607 753.949182 
L 408.027309 753.521661 
L 407.883984 753.379153 
L 407.501786 753.094139 
L 407.167362 752.666618 
L 379.123548 729.437963 
L 343.10134 696.803841 
L 269.098157 628.40044 
L 193.183982 552.729177 
L 129.547933 486.60589 
L 67.631777 415.922376 
L 8.916534 351.366666 
L -1 340.41924 
" clip-path="url(#p1d9188367d)" style="fill: none; stroke: #7a7a7a; stroke-width: 3; stroke-linecap: square"/>
   </g>
   <g id="line2d_106">
    <path d="M 408.600607 700.509025 
L 408.027309 700.081504 
L 407.883984 699.938996 
L 407.501786 699.511475 
L 407.167362 699.226461 
L 355.331692 656.75935 
L 300.10401 606.026827 
L 246.500671 555.721826 
L 188.645375 498.291471 
L 129.165734 433.878268 
L 75.466846 372.172701 
L 23.057878 314.02981 
L -1 287.315932 
" clip-path="url(#p1d9188367d)" style="fill: none; stroke: #7a7a7a; stroke-width: 3; stroke-linecap: square"/>
   </g>
   <g id="line2d_107">
    <path d="M 408.600607 700.509025 
L 408.027309 700.081504 
L 407.883984 699.938996 
L 407.501786 699.511475 
L 407.167362 699.226461 
L 355.331692 656.75935 
L 300.10401 606.026827 
L 246.500671 555.721826 
L 188.645375 498.291471 
L 129.165734 433.878268 
L 75.466846 372.172701 
L 23.057878 314.02981 
L -1 287.315932 
" clip-path="url(#p1d9188367d)" style="fill: none; stroke: #7a7a7a; stroke-width: 3; stroke-linecap: square"/>
   </g>
   <g id="line2d_108">
    <path d="M 408.600607 653.766701 
L 408.075084 653.33918 
L 407.931759 653.196673 
L 407.549561 652.911658 
L 407.167362 652.769151 
L 202.452295 458.674501 
L -1 234.63808 
" clip-path="url(#p1d9188367d)" style="fill: none; stroke: #7a7a7a; stroke-width: 3; stroke-linecap: square"/>
   </g>
   <g id="line2d_109">
    <path d="M 978.661647 972.861357 
L 976.930743 962.013284 
" clip-path="url(#p1d9188367d)" style="fill: none; stroke-dasharray: 32,8,5,8; stroke-dashoffset: 0; stroke: #1e90ff; stroke-width: 5"/>
   </g>
   <g id="line2d_110">
    <path d="M 873.770509 971.219186 
L 930.415619 1012.478744 
" clip-path="url(#p1d9188367d)" style="fill: none; stroke-dasharray: 32,8,5,8; stroke-dashoffset: 0; stroke: #1e90ff; stroke-width: 5"/>
   </g>
   <g id="line2d_111">
    <path d="M 712.139784 111.653745 
L 711.803867 71.253543 
" clip-path="url(#p1d9188367d)" style="fill: none; stroke-dasharray: 32,8,5,8; stroke-dashoffset: 0; stroke: #1e90ff; stroke-width: 5"/>
   </g>
   <g id="line2d_112">
    <path d="M 382.64638 768.7798 
L 552.417252 910.768487 
" clip-path="url(#p1d9188367d)" style="fill: none; stroke-dasharray: 32,8,5,8; stroke-dashoffset: 0; stroke: #1e90ff; stroke-width: 5"/>
   </g>
   <g id="line2d_113">
    <path d="M 665.069464 940.76943 
L 680.378165 879.528958 
" clip-path="url(#p1d9188367d)" style="fill: none; stroke-dasharray: 32,8,5,8; stroke-dashoffset: 0; stroke: #1e90ff; stroke-width: 5"/>
   </g>
   <g id="line2d_114">
    <path d="M 978.661647 972.861357 
" clip-path="url(#p1d9188367d)" style="fill: none; stroke: #0000ff; stroke-width: 1.5; stroke-linecap: square"/>
    <defs>
     <path id="md9140c7c77" d="M 0 10 
C 2.652031 10 5.195799 8.946337 7.071068 7.071068 
C 8.946337 5.195799 10 2.652031 10 0 
C 10 -2.652031 8.946337 -5.195799 7.071068 -7.071068 
C 5.195799 -8.946337 2.652031 -10 0 -10 
C -2.652031 -10 -5.195799 -8.946337 -7.071068 -7.071068 
C -8.946337 -5.195799 -10 -2.652031 -10 0 
C -10 2.652031 -8.946337 5.195799 -7.071068 7.071068 
C -5.195799 8.946337 -2.652031 10 0 10 
z
" style="stroke: #0000ff"/>
    </defs>
    <g clip-path="url(#p1d9188367d)">
     <use xlink:href="#md9140c7c77" x="978.661647" y="972.861357" style="fill: #0000ff; stroke: #0000ff"/>
    </g>
   </g>
   <g id="line2d_115">
    <path d="M 873.770509 971.219186 
" clip-path="url(#p1d9188367d)" style="fill: none; stroke: #0000ff; stroke-width: 1.5; stroke-linecap: square"/>
    <g clip-path="url(#p1d9188367d)">
     <use xlink:href="#md9140c7c77" x="873.770509" y="971.219186" style="fill: #0000ff; stroke: #0000ff"/>
    </g>
   </g>
   <g id="line2d_116">
    <path d="M 712.139784 111.653745 
" clip-path="url(#p1d9188367d)" style="fill: none; stroke: #0000ff; stroke-width: 1.5; stroke-linecap: square"/>
    <g clip-path="url(#p1d9188367d)">
     <use xlink:href="#md9140c7c77" x="712.139784" y="111.653745" style="fill: #0000ff; stroke: #0000ff"/>
    </g>
   </g>
   <g id="line2d_117">
    <path d="M 382.64638 768.7798 
" clip-path="url(#p1d9188367d)" style="fill: none; stroke: #0000ff; stroke-width: 1.5; stroke-linecap: square"/>
    <g clip-path="url(#p1d9188367d)">
     <use xlink:href="#md9140c7c77" x="382.64638" y="768.7798" style="fill: #0000ff; stroke: #0000ff"/>
    </g>
   </g>
   <g id="line2d_118">
    <path d="M 665.069464 940.76943 
" clip-path="url(#p1d9188367d)" style="fill: none; stroke: #0000ff; stroke-width: 1.5; stroke-linecap: square"/>
    <g clip-path="url(#p1d9188367d)">
     <use xlink:href="#md9140c7c77" x="665.069464" y="940.76943" style="fill: #0000ff; stroke: #0000ff"/>
    </g>
   </g>
   <g id="line2d_119">
    <path d="M 976.930743 962.013284 
" clip-path="url(#p1d9188367d)" style="fill: none; stroke: #ff0000; stroke-width: 1.5; stroke-linecap: square"/>
    <defs>
     <path id="m325ec047e4" d="M 0 -10 
L -2.24514 -3.09017 
L -9.510565 -3.09017 
L -3.632713 1.18034 
L -5.877853 8.09017 
L -0 3.81966 
L 5.877853 8.09017 
L 3.632713 1.18034 
L 9.510565 -3.09017 
L 2.24514 -3.09017 
z
" style="stroke: #ff0000; stroke-linejoin: bevel"/>
    </defs>
    <g clip-path="url(#p1d9188367d)">
     <use xlink:href="#m325ec047e4" x="976.930743" y="962.013284" style="fill: #ff0000; stroke: #ff0000; stroke-linejoin: bevel"/>
    </g>
   </g>
   <g id="line2d_120">
    <path d="M 930.415619 1012.478744 
" clip-path="url(#p1d9188367d)" style="fill: none; stroke: #ff0000; stroke-width: 1.5; stroke-linecap: square"/>
    <g clip-path="url(#p1d9188367d)">
     <use xlink:href="#m325ec047e4" x="930.415619" y="1012.478744" style="fill: #ff0000; stroke: #ff0000; stroke-linejoin: bevel"/>
    </g>
   </g>
   <g id="line2d_121">
    <path d="M 711.803867 71.253543 
" clip-path="url(#p1d9188367d)" style="fill: none; stroke: #ff0000; stroke-width: 1.5; stroke-linecap: square"/>
    <g clip-path="url(#p1d9188367d)">
     <use xlink:href="#m325ec047e4" x="711.803867" y="71.253543" style="fill: #ff0000; stroke: #ff0000; stroke-linejoin: bevel"/>
    </g>
   </g>
   <g id="line2d_122">
    <path d="M 552.417252 910.768487 
" clip-path="url(#p1d9188367d)" style="fill: none; stroke: #ff0000; stroke-width: 1.5; stroke-linecap: square"/>
    <g clip-path="url(#p1d9188367d)">
     <use xlink:href="#m325ec047e4" x="552.417252" y="910.768487" style="fill: #ff0000; stroke: #ff0000; stroke-linejoin: bevel"/>
    </g>
   </g>
   <g id="line2d_123">
    <path d="M 680.378165 879.528958 
" clip-path="url(#p1d9188367d)" style="fill: none; stroke: #ff0000; stroke-width: 1.5; stroke-linecap: square"/>
    <g clip-path="url(#p1d9188367d)">
     <use xlink:href="#m325ec047e4" x="680.378165" y="879.528958" style="fill: #ff0000; stroke: #ff0000; stroke-linejoin: bevel"/>
    </g>
   </g>
  </g>
 </g>
 <defs>
  <clipPath id="p1d9188367d">
   <rect x="0" y="0" width="1440" height="1440"/>
  </clipPath>
 </defs>
</svg>
