<?xml version="1.0" encoding="utf-8" standalone="no"?>
<!DOCTYPE svg PUBLIC "-//W3C//DTD SVG 1.1//EN"
  "http://www.w3.org/Graphics/SVG/1.1/DTD/svg11.dtd">
<svg xmlns:xlink="http://www.w3.org/1999/xlink" width="1440pt" height="1440pt" viewBox="0 0 1440 1440" xmlns="http://www.w3.org/2000/svg" version="1.1">
 <metadata>
  <rdf:RDF xmlns:dc="http://purl.org/dc/elements/1.1/" xmlns:cc="http://creativecommons.org/ns#" xmlns:rdf="http://www.w3.org/1999/02/22-rdf-syntax-ns#">
   <cc:Work>
    <dc:type rdf:resource="http://purl.org/dc/dcmitype/StillImage"/>
    <dc:date>2026-02-27T11:09:21.281422</dc:date>
    <dc:format>image/svg+xml</dc:format>
    <dc:creator>
     <cc:Agent>
      <dc:title>Matplotlib v3.7.3, https://matplotlib.org/</dc:title>
     </cc:Agent>
    </dc:creator>
   </cc:Work>
  </rdf:RDF>
 </metadata>
 <defs>
  <style type="text/css">*{stroke-linejoin: round; stroke-linecap: butt}</style>
 </defs>
 <g id="figure_1">
  <g id="patch_1">
   <path d="M 0 1440 
L 1440 1440 
L 1440 0 
L 0 0 
z
" style="fill: #ffffff"/>
  </g>
  <g id="axes_1">
   <g id="line2d_1">
    <path d="M 260.084969 623.459194 
L 217.802623 662.06808 
L 214.940182 667.418992 
L 215.758022 675.157234 
L 220.419712 683.307084 
" clip-path="url(#p9a14e02f85)" style="fill: none; stroke: #7a7a7a; stroke-width: 3; stroke-linecap: square"/>
   </g>
   <g id="line2d_2">
    <path d="M 241.029289 604.278234 
L 198.665159 642.722476 
L 188.932859 654.329839 
L 184.025817 668.489174 
L 183.371545 683.389405 
L 186.397554 697.137132 
L 192.449573 708.085921 
" clip-path="url(#p9a14e02f85)" style="fill: none; stroke: #7a7a7a; stroke-width: 3; stroke-linecap: square"/>
   </g>
   <g id="line2d_3">
    <path d="M 286.582996 754.844657 
L 220.419712 683.307084 
" clip-path="url(#p9a14e02f85)" style="fill: none; stroke: #7a7a7a; stroke-width: 3; stroke-linecap: square"/>
   </g>
   <g id="line2d_4">
    <path d="M 314.471351 731.465289 
L 247.244875 659.598429 
" clip-path="url(#p9a14e02f85)" style="fill: none; stroke: #7a7a7a; stroke-width: 3; stroke-linecap: square"/>
   </g>
   <g id="line2d_5">
    <path d="M 220.419712 683.307084 
L 214.531262 671.782043 
L 211.505253 657.869673 
L 211.914173 643.134085 
L 216.575863 629.221715 
L 225.899243 618.108283 
L 240.947505 604.360556 
" clip-path="url(#p9a14e02f85)" style="fill: none; stroke: #7a7a7a; stroke-width: 3; stroke-linecap: square"/>
   </g>
   <g id="line2d_6">
    <path d="M 247.244875 659.598429 
L 246.181683 657.951994 
L 240.04788 651.119292 
L 238.984688 648.567318 
L 238.739336 646.591597 
L 239.475392 643.957302 
L 242.256049 640.170503 
L 245.036706 637.536208 
L 245.282059 637.1246 
L 259.921401 623.623838 
" clip-path="url(#p9a14e02f85)" style="fill: none; stroke: #7a7a7a; stroke-width: 3; stroke-linecap: square"/>
   </g>
   <g id="line2d_7">
    <path d="M -1 1358.429533 
L 97.171173 1267.461999 
L 228.434548 1143.403169 
L 228.925252 1142.909238 
" clip-path="url(#p9a14e02f85)" style="fill: none; stroke: #7a7a7a; stroke-width: 3; stroke-linecap: square"/>
   </g>
   <g id="line2d_8">
    <path d="M -1 1388.224912 
L 37.468828 1353.076586 
L 117.698965 1278.657752 
L 118.680374 1277.09364 
L 263.35633 1143.403169 
L 263.928818 1142.909238 
" clip-path="url(#p9a14e02f85)" style="fill: none; stroke: #7a7a7a; stroke-width: 3; stroke-linecap: square"/>
   </g>
   <g id="line2d_9">
    <path d="M 220.419712 683.307084 
L 286.582996 754.844657 
" clip-path="url(#p9a14e02f85)" style="fill: none; stroke: #7a7a7a; stroke-width: 3; stroke-linecap: square"/>
   </g>
   <g id="line2d_10">
    <path d="M 192.449573 708.085921 
L 215.430886 732.617793 
L 226.471731 744.307477 
L 258.449288 778.553312 
" clip-path="url(#p9a14e02f85)" style="fill: none; stroke: #7a7a7a; stroke-width: 3; stroke-linecap: square"/>
   </g>
   <g id="line2d_11">
    <path d="M 220.419712 683.307084 
L 215.267318 680.425824 
L 206.679995 681.084397 
L 193.594549 687.752456 
L 175.193141 702.817331 
L 159.654175 717.388275 
" clip-path="url(#p9a14e02f85)" style="fill: none; stroke: #7a7a7a; stroke-width: 3; stroke-linecap: square"/>
   </g>
   <g id="line2d_12">
    <path d="M 247.244875 659.598429 
L 239.393608 652.848048 
L 229.170604 648.238032 
L 216.902999 646.26231 
L 202.917929 647.579458 
L 187.542531 652.683404 
L 171.185724 662.06808 
L 154.092861 676.474381 
L 138.553894 690.963003 
" clip-path="url(#p9a14e02f85)" style="fill: none; stroke: #7a7a7a; stroke-width: 3; stroke-linecap: square"/>
   </g>
   <g id="line2d_13">
    <path d="M 220.419712 683.307084 
L 179.282343 639.017999 
" clip-path="url(#p9a14e02f85)" style="fill: none; stroke: #7a7a7a; stroke-width: 3; stroke-linecap: square"/>
   </g>
   <g id="line2d_14">
    <path d="M 247.244875 659.598429 
L 207.824971 616.955779 
" clip-path="url(#p9a14e02f85)" style="fill: none; stroke: #7a7a7a; stroke-width: 3; stroke-linecap: square"/>
   </g>
   <g id="line2d_15">
    <path d="M 138.553894 691.045325 
L 149.758307 680.75511 
L 162.680184 671.6174 
L 178.137367 667.995244 
L 194.248821 669.147748 
L 208.969947 674.49866 
L 220.419712 683.307084 
" clip-path="url(#p9a14e02f85)" style="fill: none; stroke: #7a7a7a; stroke-width: 3; stroke-linecap: square"/>
   </g>
   <g id="line2d_16">
    <path d="M 159.735959 717.305953 
L 171.022156 707.015739 
L 177.237742 702.405722 
L 179.854831 701.088575 
L 182.880841 701.088575 
L 185.825066 702.158757 
L 188.360371 704.052157 
L 191.549948 707.427347 
L 192.449573 708.085921 
" clip-path="url(#p9a14e02f85)" style="fill: none; stroke: #7a7a7a; stroke-width: 3; stroke-linecap: square"/>
   </g>
   <g id="line2d_17">
    <path d="M 179.282343 639.017999 
L 220.419712 683.307084 
" clip-path="url(#p9a14e02f85)" style="fill: none; stroke: #7a7a7a; stroke-width: 3; stroke-linecap: square"/>
   </g>
   <g id="line2d_18">
    <path d="M 149.512955 661.985759 
L 192.449573 708.085921 
" clip-path="url(#p9a14e02f85)" style="fill: none; stroke: #7a7a7a; stroke-width: 3; stroke-linecap: square"/>
   </g>
   <g id="line2d_19">
    <path d="M -1 1322.92035 
L 191.713516 1143.403169 
L 192.20422 1142.909238 
" clip-path="url(#p9a14e02f85)" style="fill: none; stroke: #7a7a7a; stroke-width: 3; stroke-linecap: square"/>
   </g>
   <g id="line2d_20">
    <path d="M -1 1358.429533 
L 97.171173 1267.461999 
L 228.434548 1143.403169 
L 228.925252 1142.909238 
" clip-path="url(#p9a14e02f85)" style="fill: none; stroke: #7a7a7a; stroke-width: 3; stroke-linecap: square"/>
   </g>
   <g id="line2d_21">
    <path d="M 762.402506 646.426954 
L 762.811426 646.015345 
L 763.138562 645.76838 
L 764.119971 644.862841 
L 886.55067 529.8594 
L 1148.09601 285.610861 
L 1361.879475 87.544806 
" clip-path="url(#p9a14e02f85)" style="fill: none; stroke: #7a7a7a; stroke-width: 3; stroke-linecap: square"/>
   </g>
   <g id="line2d_22">
    <path d="M 762.402506 676.227416 
L 762.811426 675.815807 
L 763.138562 675.568842 
L 764.119971 674.663303 
L 791.026918 650.790005 
L 855.881657 589.131038 
L 958.602404 494.049453 
L 1001.866158 454.205741 
L 1028.445969 429.591547 
L 1119.880519 343.318386 
L 1125.032913 338.379083 
L 1191.27798 275.97922 
L 1191.768685 275.48529 
L 1377.17309 103.432898 
" clip-path="url(#p9a14e02f85)" style="fill: none; stroke: #7a7a7a; stroke-width: 3; stroke-linecap: square"/>
   </g>
   <g id="line2d_23">
    <path d="M 1326.712341 53.052006 
L 1094.609252 268.487944 
L 764.119971 577.605997 
L 763.138562 578.511536 
L 762.89321 578.758501 
L 762.402506 579.17011 
" clip-path="url(#p9a14e02f85)" style="fill: none; stroke: #7a7a7a; stroke-width: 3; stroke-linecap: square"/>
   </g>
   <g id="line2d_24">
    <path d="M 1312.236567 38.563384 
L 1192.177605 151.014852 
L 1034.906907 297.300545 
L 936.684282 388.595331 
L 868.885318 450.83055 
L 855.227384 463.508095 
L 833.309263 484.006203 
L 764.119971 547.805535 
L 763.138562 548.711074 
L 762.89321 548.958039 
L 762.402506 549.369648 
" clip-path="url(#p9a14e02f85)" style="fill: none; stroke: #7a7a7a; stroke-width: 3; stroke-linecap: square"/>
   </g>
   <g id="line2d_25">
    <path d="M 1344.295908 70.998141 
L 1197.657135 206.088081 
L 1101.233759 296.724293 
L 764.119971 612.181119 
L 763.138562 613.086658 
L 762.89321 613.333623 
L 762.402506 613.745231 
" clip-path="url(#p9a14e02f85)" style="fill: none; stroke: #7a7a7a; stroke-width: 3; stroke-linecap: square"/>
   </g>
   <g id="line2d_26">
    <path d="M 1326.712341 53.052006 
L 1094.609252 268.487944 
L 764.119971 577.605997 
L 763.138562 578.511536 
L 762.89321 578.758501 
L 762.402506 579.17011 
" clip-path="url(#p9a14e02f85)" style="fill: none; stroke: #7a7a7a; stroke-width: 3; stroke-linecap: square"/>
   </g>
   <g id="line2d_27">
    <path d="M 762.402506 613.745231 
L 762.89321 613.333623 
L 763.138562 613.086658 
L 764.119971 612.181119 
L 1101.233759 296.724293 
L 1197.657135 206.088081 
L 1344.295908 70.998141 
" clip-path="url(#p9a14e02f85)" style="fill: none; stroke: #7a7a7a; stroke-width: 3; stroke-linecap: square"/>
   </g>
   <g id="line2d_28">
    <path d="M 762.402506 646.426954 
L 762.811426 646.015345 
L 763.138562 645.76838 
L 764.119971 644.862841 
L 886.55067 529.8594 
L 1148.09601 285.610861 
L 1361.879475 87.544806 
" clip-path="url(#p9a14e02f85)" style="fill: none; stroke: #7a7a7a; stroke-width: 3; stroke-linecap: square"/>
   </g>
   <g id="line2d_29">
    <path d="M 514.187963 808.765383 
L 488.18064 834.696724 
L 476.894443 845.233904 
L 466.835007 853.877685 
L 457.266275 861.039674 
L 448.270031 866.472907 
L 439.519139 870.095063 
L 430.931816 871.988463 
L 422.262708 871.906141 
L 413.266465 869.93042 
L 403.861301 865.978977 
L 393.638296 859.88717 
L 382.679236 851.73732 
L 370.493415 841.447105 
L 357.162617 828.851882 
L 342.277923 813.951651 
L 325.675764 796.746412 
L 307.274356 777.071521 
L 286.582996 754.844657 
" clip-path="url(#p9a14e02f85)" style="fill: none; stroke: #7a7a7a; stroke-width: 3; stroke-linecap: square"/>
   </g>
   <g id="line2d_30">
    <path d="M 500.938949 793.535865 
L 497.422236 796.828734 
L 494.314442 799.709994 
L 493.66017 800.368567 
L 463.727214 828.27563 
L 456.939139 834.696724 
L 454.649186 836.837089 
L 453.749561 837.495663 
L 447.125055 842.599609 
L 439.764492 846.057121 
L 432.649281 847.044982 
L 425.370502 845.563191 
L 417.601018 841.447105 
L 408.931911 834.696724 
L 398.872475 825.229726 
L 387.177358 812.881469 
L 373.355856 797.651951 
L 337.943369 757.890561 
L 314.471351 731.465289 
" clip-path="url(#p9a14e02f85)" style="fill: none; stroke: #7a7a7a; stroke-width: 3; stroke-linecap: square"/>
   </g>
   <g id="line2d_31">
    <path d="M 156.055677 1142.909238 
L 155.483189 1143.403169 
L 111.810515 1185.716532 
L -1 1289.685947 
" clip-path="url(#p9a14e02f85)" style="fill: none; stroke: #7a7a7a; stroke-width: 3; stroke-linecap: square"/>
   </g>
   <g id="line2d_32">
    <path d="M 123.832768 1142.909238 
L 123.342064 1143.403169 
L 92.754835 1173.368274 
L 71.327418 1193.372452 
L 23.892678 1237.661536 
L -1 1260.902524 
" clip-path="url(#p9a14e02f85)" style="fill: none; stroke: #7a7a7a; stroke-width: 3; stroke-linecap: square"/>
   </g>
   <g id="line2d_33">
    <path d="M 192.20422 1142.909238 
L 191.713516 1143.403169 
L -1 1322.92035 
" clip-path="url(#p9a14e02f85)" style="fill: none; stroke: #7a7a7a; stroke-width: 3; stroke-linecap: square"/>
   </g>
   <g id="line2d_34">
    <path d="M 156.055677 1142.909238 
L 155.483189 1143.403169 
L 111.810515 1185.716532 
L -1 1289.685947 
" clip-path="url(#p9a14e02f85)" style="fill: none; stroke: #7a7a7a; stroke-width: 3; stroke-linecap: square"/>
   </g>
   <g id="line2d_35">
    <path d="M 302.040178 1074.664534 
L 537.25106 854.865545 
L 548.128337 844.657652 
" clip-path="url(#p9a14e02f85)" style="fill: none; stroke: #7a7a7a; stroke-width: 3; stroke-linecap: square"/>
   </g>
   <g id="line2d_36">
    <path d="M 318.642337 1091.705129 
L 548.455473 875.528296 
L 564.648712 862.109856 
" clip-path="url(#p9a14e02f85)" style="fill: none; stroke: #7a7a7a; stroke-width: 3; stroke-linecap: square"/>
   </g>
   <g id="line2d_37">
    <path d="M 228.925252 1142.909238 
L 229.252388 1142.579951 
L 269.735485 1104.876604 
" clip-path="url(#p9a14e02f85)" style="fill: none; stroke: #7a7a7a; stroke-width: 3; stroke-linecap: square"/>
   </g>
   <g id="line2d_38">
    <path d="M 263.928818 1142.909238 
L 264.17417 1142.662273 
L 286.501212 1121.752557 
" clip-path="url(#p9a14e02f85)" style="fill: none; stroke: #7a7a7a; stroke-width: 3; stroke-linecap: square"/>
   </g>
   <g id="line2d_39">
    <path d="M 192.20422 1142.909238 
L 192.531357 1142.579951 
L 252.642622 1086.518861 
" clip-path="url(#p9a14e02f85)" style="fill: none; stroke: #7a7a7a; stroke-width: 3; stroke-linecap: square"/>
   </g>
   <g id="line2d_40">
    <path d="M 228.925252 1142.909238 
L 229.252388 1142.579951 
L 269.735485 1104.876604 
" clip-path="url(#p9a14e02f85)" style="fill: none; stroke: #7a7a7a; stroke-width: 3; stroke-linecap: square"/>
   </g>
   <g id="line2d_41">
    <path d="M 531.935098 827.452413 
L 508.05416 849.84392 
L 502.656414 855.688762 
L 497.258667 862.850752 
L 491.697353 876.433835 
L 488.18064 892.568892 
L 486.790311 910.18574 
L 487.77172 928.049553 
L 491.206649 945.007827 
L 497.340451 959.99038 
L 506.336695 971.844707 
" clip-path="url(#p9a14e02f85)" style="fill: none; stroke: #7a7a7a; stroke-width: 3; stroke-linecap: square"/>
   </g>
   <g id="line2d_42">
    <path d="M 514.187963 808.765383 
L 493.741954 829.757421 
L 488.344208 835.355298 
L 477.630499 846.96266 
L 474.113786 851.819642 
L 471.251345 856.265014 
L 465.608246 870.259706 
L 461.600829 885.571546 
L 459.310876 901.788925 
L 458.738387 918.500234 
L 459.965148 935.129221 
L 463.072941 951.264278 
L 468.061767 966.576117 
L 475.095194 980.488488 
L 484.173222 992.58978 
" clip-path="url(#p9a14e02f85)" style="fill: none; stroke: #7a7a7a; stroke-width: 3; stroke-linecap: square"/>
   </g>
   <g id="line2d_43">
    <path d="M 506.336695 971.844707 
L 498.403644 958.179302 
L 493.905522 943.443714 
L 492.515193 928.543483 
L 493.823738 913.972539 
L 497.50402 900.636421 
L 503.147118 889.11138 
L 510.262329 880.138313 
L 548.128337 844.657652 
" clip-path="url(#p9a14e02f85)" style="fill: none; stroke: #7a7a7a; stroke-width: 3; stroke-linecap: square"/>
   </g>
   <g id="line2d_44">
    <path d="M 526.864488 955.956616 
L 519.258573 941.79728 
L 517.541108 924.674362 
L 520.485333 908.621627 
L 526.864488 897.590517 
L 542.73059 882.690286 
L 548.455473 875.528296 
L 564.648712 862.109856 
" clip-path="url(#p9a14e02f85)" style="fill: none; stroke: #7a7a7a; stroke-width: 3; stroke-linecap: square"/>
   </g>
   <g id="line2d_45">
    <path d="M 762.402506 1253.220341 
L 598.343734 1069.478265 
" clip-path="url(#p9a14e02f85)" style="fill: none; stroke: #7a7a7a; stroke-width: 3; stroke-linecap: square"/>
   </g>
   <g id="line2d_46">
    <path d="M 762.402506 1212.141804 
L 619.280446 1052.766957 
" clip-path="url(#p9a14e02f85)" style="fill: none; stroke: #7a7a7a; stroke-width: 3; stroke-linecap: square"/>
   </g>
   <g id="line2d_47">
    <path d="M 531.935098 827.452413 
L 284.701963 1056.883042 
" clip-path="url(#p9a14e02f85)" style="fill: none; stroke: #7a7a7a; stroke-width: 3; stroke-linecap: square"/>
   </g>
   <g id="line2d_48">
    <path d="M 514.187963 808.765383 
L 479.26618 843.505148 
L 267.6091 1039.266195 
" clip-path="url(#p9a14e02f85)" style="fill: none; stroke: #7a7a7a; stroke-width: 3; stroke-linecap: square"/>
   </g>
   <g id="line2d_49">
    <path d="M 267.6091 1039.266195 
L 234.731918 1069.807552 
" clip-path="url(#p9a14e02f85)" style="fill: none; stroke: #7a7a7a; stroke-width: 3; stroke-linecap: square"/>
   </g>
   <g id="line2d_50">
    <path d="M 252.969758 1024.20132 
L 219.683656 1054.824999 
" clip-path="url(#p9a14e02f85)" style="fill: none; stroke: #7a7a7a; stroke-width: 3; stroke-linecap: square"/>
   </g>
   <g id="line2d_51">
    <path d="M 506.336695 971.844707 
L 376.300081 852.23125 
L 286.582996 754.844657 
" clip-path="url(#p9a14e02f85)" style="fill: none; stroke: #7a7a7a; stroke-width: 3; stroke-linecap: square"/>
   </g>
   <g id="line2d_52">
    <path d="M 526.864488 955.956616 
L 405.415197 829.510456 
L 314.471351 731.465289 
" clip-path="url(#p9a14e02f85)" style="fill: none; stroke: #7a7a7a; stroke-width: 3; stroke-linecap: square"/>
   </g>
   <g id="line2d_53">
    <path d="M 286.582996 754.844657 
L 306.783652 778.306347 
L 321.586562 793.865152 
L 346.939613 820.866675 
L 360.597547 834.449759 
L 375.318673 847.45659 
L 391.511911 859.557883 
L 405.333413 867.790055 
L 421.363084 872.894001 
L 436.90205 872.729358 
L 455.058106 868.942559 
L 470.76064 865.073438 
L 493.087682 855.524119 
L 513.12477 843.175861 
L 531.935098 827.452413 
" clip-path="url(#p9a14e02f85)" style="fill: none; stroke: #7a7a7a; stroke-width: 3; stroke-linecap: square"/>
   </g>
   <g id="line2d_54">
    <path d="M 258.449288 778.553312 
L 264.419523 786.456197 
L 324.694356 851.572676 
L 335.980552 863.756291 
L 350.619894 877.092409 
L 362.560363 887.382624 
L 376.218297 895.038544 
L 394.619705 900.471777 
L 412.939328 902.612142 
L 431.0136 902.200533 
L 448.188247 900.060169 
L 468.143551 893.309788 
L 487.77172 886.559407 
L 507.563456 876.433835 
L 527.682328 862.603787 
L 548.128337 844.657652 
" clip-path="url(#p9a14e02f85)" style="fill: none; stroke: #7a7a7a; stroke-width: 3; stroke-linecap: square"/>
   </g>
   <g id="line2d_55">
    <path d="M 762.402506 579.17011 
L 550.41829 775.58973 
L 514.187963 808.765383 
" clip-path="url(#p9a14e02f85)" style="fill: none; stroke: #7a7a7a; stroke-width: 3; stroke-linecap: square"/>
   </g>
   <g id="line2d_56">
    <path d="M 762.402506 549.369648 
L 500.938949 793.535865 
" clip-path="url(#p9a14e02f85)" style="fill: none; stroke: #7a7a7a; stroke-width: 3; stroke-linecap: square"/>
   </g>
   <g id="line2d_57">
    <path d="M 506.336695 971.844707 
L 594.172748 1064.785927 
L 598.343734 1069.478265 
" clip-path="url(#p9a14e02f85)" style="fill: none; stroke: #7a7a7a; stroke-width: 3; stroke-linecap: square"/>
   </g>
   <g id="line2d_58">
    <path d="M 484.173222 992.58978 
L 513.12477 1017.121652 
L 577.079885 1086.518861 
" clip-path="url(#p9a14e02f85)" style="fill: none; stroke: #7a7a7a; stroke-width: 3; stroke-linecap: square"/>
   </g>
   <g id="line2d_59">
    <path d="M 506.336695 971.844707 
L 494.88693 963.283248 
L 481.392565 956.779833 
L 466.426087 952.416782 
L 450.641768 950.029452 
L 434.612097 949.782487 
L 418.909563 951.428921 
L 404.188437 955.133398 
L 390.939423 960.895919 
L 379.898579 968.551838 
L 284.701963 1056.883042 
" clip-path="url(#p9a14e02f85)" style="fill: none; stroke: #7a7a7a; stroke-width: 3; stroke-linecap: square"/>
   </g>
   <g id="line2d_60">
    <path d="M 526.864488 955.956616 
L 515.169371 945.831044 
L 501.511437 937.681194 
L 486.463175 931.507065 
L 470.269936 927.226336 
L 453.504209 924.839006 
L 436.49313 924.427397 
L 419.727403 925.99151 
L 403.534164 929.3667 
L 388.404118 934.63529 
L 374.6644 941.879602 
L 362.805715 950.934991 
L 267.6091 1039.266195 
" clip-path="url(#p9a14e02f85)" style="fill: none; stroke: #7a7a7a; stroke-width: 3; stroke-linecap: square"/>
   </g>
   <g id="line2d_61">
    <path d="M 548.128337 844.657652 
L 762.402506 646.426954 
" clip-path="url(#p9a14e02f85)" style="fill: none; stroke: #7a7a7a; stroke-width: 3; stroke-linecap: square"/>
   </g>
   <g id="line2d_62">
    <path d="M 564.648712 862.109856 
L 745.391427 692.280151 
L 762.402506 676.227416 
" clip-path="url(#p9a14e02f85)" style="fill: none; stroke: #7a7a7a; stroke-width: 3; stroke-linecap: square"/>
   </g>
   <g id="line2d_63">
    <path d="M 762.402506 613.745231 
L 531.935098 827.452413 
" clip-path="url(#p9a14e02f85)" style="fill: none; stroke: #7a7a7a; stroke-width: 3; stroke-linecap: square"/>
   </g>
   <g id="line2d_64">
    <path d="M 762.402506 579.17011 
L 550.41829 775.58973 
L 514.187963 808.765383 
" clip-path="url(#p9a14e02f85)" style="fill: none; stroke: #7a7a7a; stroke-width: 3; stroke-linecap: square"/>
   </g>
   <g id="line2d_65">
    <path d="M 302.040178 1074.664534 
L 410.158671 973.573463 
L 423.244117 964.106466 
L 437.883459 958.179302 
L 453.177073 955.462685 
L 468.470687 955.791972 
L 482.946462 958.837876 
L 495.786555 964.271109 
L 506.336695 971.844707 
" clip-path="url(#p9a14e02f85)" style="fill: none; stroke: #7a7a7a; stroke-width: 3; stroke-linecap: square"/>
   </g>
   <g id="line2d_66">
    <path d="M 318.642337 1091.705129 
L 426.76083 990.614059 
L 446.061862 983.040461 
L 463.563645 983.205104 
L 476.976227 987.568155 
L 484.173222 992.58978 
" clip-path="url(#p9a14e02f85)" style="fill: none; stroke: #7a7a7a; stroke-width: 3; stroke-linecap: square"/>
   </g>
   <g id="line2d_67">
    <path d="M 514.187963 808.765383 
L 479.26618 843.505148 
L 267.6091 1039.266195 
" clip-path="url(#p9a14e02f85)" style="fill: none; stroke: #7a7a7a; stroke-width: 3; stroke-linecap: square"/>
   </g>
   <g id="line2d_68">
    <path d="M 500.938949 793.535865 
L 454.649186 836.837089 
L 449.66036 840.294601 
L 356.344777 929.202057 
L 252.969758 1024.20132 
" clip-path="url(#p9a14e02f85)" style="fill: none; stroke: #7a7a7a; stroke-width: 3; stroke-linecap: square"/>
   </g>
   <g id="line2d_69">
    <path d="M 284.701963 1056.883042 
L 321.422994 1024.20132 
L 337.534449 1009.712698 
L 351.110599 997.529083 
L 362.723931 986.168686 
L 373.274072 974.39668 
L 382.188532 963.118605 
L 389.385527 952.252138 
L 395.028625 941.714958 
L 398.954259 931.424743 
L 401.325996 921.299172 
L 402.062052 911.091279 
L 401.080643 900.883386 
L 398.545338 890.510849 
L 394.456137 879.809026 
L 388.731254 868.777916 
L 381.370691 857.252875 
L 372.456232 845.151582 
L 361.987875 832.391716 
L 349.965622 818.808632 
L 336.389473 804.32001 
L 321.177642 788.843527 
L 304.493699 772.296861 
L 286.582996 754.844657 
" clip-path="url(#p9a14e02f85)" style="fill: none; stroke: #7a7a7a; stroke-width: 3; stroke-linecap: square"/>
   </g>
   <g id="line2d_70">
    <path d="M 302.040178 1074.664534 
L 337.779801 1040.583342 
L 393.883648 988.226729 
L 404.024869 976.207758 
L 412.693976 964.682718 
L 419.890971 953.569286 
L 425.697638 942.785141 
L 430.032191 932.247961 
L 432.976417 921.875424 
L 434.530313 911.585209 
L 434.693881 901.294994 
L 433.467121 890.922458 
L 430.850032 880.385278 
L 426.924398 869.601133 
L 421.608436 858.570022 
L 414.902145 847.044982 
L 406.969094 835.108333 
L 397.645714 822.595431 
L 388.158766 810.905747 
L 314.471351 731.465289 
" clip-path="url(#p9a14e02f85)" style="fill: none; stroke: #7a7a7a; stroke-width: 3; stroke-linecap: square"/>
   </g>
   <g id="line2d_71">
    <path d="M 284.701963 1056.883042 
L 531.935098 827.452413 
" clip-path="url(#p9a14e02f85)" style="fill: none; stroke: #7a7a7a; stroke-width: 3; stroke-linecap: square"/>
   </g>
   <g id="line2d_72">
    <path d="M 302.040178 1074.664534 
L 537.25106 854.865545 
L 548.128337 844.657652 
" clip-path="url(#p9a14e02f85)" style="fill: none; stroke: #7a7a7a; stroke-width: 3; stroke-linecap: square"/>
   </g>
   <g id="line2d_73">
    <path d="M 286.582996 754.844657 
L 376.300081 852.23125 
L 506.336695 971.844707 
" clip-path="url(#p9a14e02f85)" style="fill: none; stroke: #7a7a7a; stroke-width: 3; stroke-linecap: square"/>
   </g>
   <g id="line2d_74">
    <path d="M 258.449288 778.553312 
L 337.452665 865.320403 
L 345.222148 873.717219 
L 351.028815 880.220634 
L 484.173222 992.58978 
" clip-path="url(#p9a14e02f85)" style="fill: none; stroke: #7a7a7a; stroke-width: 3; stroke-linecap: square"/>
   </g>
   <g id="line2d_75">
    <path d="M 531.935098 827.452413 
L 762.402506 613.745231 
" clip-path="url(#p9a14e02f85)" style="fill: none; stroke: #7a7a7a; stroke-width: 3; stroke-linecap: square"/>
   </g>
   <g id="line2d_76">
    <path d="M 548.128337 844.657652 
L 762.402506 646.426954 
" clip-path="url(#p9a14e02f85)" style="fill: none; stroke: #7a7a7a; stroke-width: 3; stroke-linecap: square"/>
   </g>
   <g id="line2d_77">
    <path d="M 284.701963 1056.883042 
L 252.642622 1086.518861 
" clip-path="url(#p9a14e02f85)" style="fill: none; stroke: #7a7a7a; stroke-width: 3; stroke-linecap: square"/>
   </g>
   <g id="line2d_78">
    <path d="M 267.6091 1039.266195 
L 234.731918 1069.807552 
" clip-path="url(#p9a14e02f85)" style="fill: none; stroke: #7a7a7a; stroke-width: 3; stroke-linecap: square"/>
   </g>
   <g id="line2d_79">
    <path d="M 286.582996 754.844657 
L 362.723931 837.248697 
L 372.865152 848.938381 
L 381.370691 859.475561 
L 388.158766 869.107202 
L 393.229376 877.997948 
L 396.582522 886.312442 
L 398.299986 894.215327 
L 398.299986 901.871246 
L 396.582522 909.444845 
L 393.229376 917.183086 
L 388.158766 925.168293 
L 381.370691 933.64743 
L 372.946936 942.702819 
L 362.805715 952.581425 
L 351.028815 963.447892 
L 287.400836 1020.249878 
L 267.6091 1039.266195 
" clip-path="url(#p9a14e02f85)" style="fill: none; stroke: #7a7a7a; stroke-width: 3; stroke-linecap: square"/>
   </g>
   <g id="line2d_80">
    <path d="M 258.449288 778.553312 
L 277.75032 798.145881 
L 320.93229 847.45659 
L 345.222148 873.717219 
L 355.118016 884.748329 
L 361.578955 893.639075 
L 361.660739 894.050683 
L 362.478579 895.285509 
L 364.52318 902.941429 
L 364.52318 910.18574 
L 364.686748 911.914496 
L 363.459988 914.631113 
L 362.642147 917.84166 
L 358.716514 925.49758 
L 356.999049 927.884909 
L 356.344777 929.202057 
L 321.913698 960.813597 
L 275.133231 1005.02036 
L 252.969758 1024.20132 
" clip-path="url(#p9a14e02f85)" style="fill: none; stroke: #7a7a7a; stroke-width: 3; stroke-linecap: square"/>
   </g>
   <g id="line2d_81">
    <path d="M 252.642622 1086.518861 
L 284.701963 1056.883042 
" clip-path="url(#p9a14e02f85)" style="fill: none; stroke: #7a7a7a; stroke-width: 3; stroke-linecap: square"/>
   </g>
   <g id="line2d_82">
    <path d="M 269.735485 1104.876604 
L 302.040178 1074.664534 
" clip-path="url(#p9a14e02f85)" style="fill: none; stroke: #7a7a7a; stroke-width: 3; stroke-linecap: square"/>
   </g>
   <g id="line2d_83">
    <path d="M 269.735485 1104.876604 
L 302.040178 1074.664534 
" clip-path="url(#p9a14e02f85)" style="fill: none; stroke: #7a7a7a; stroke-width: 3; stroke-linecap: square"/>
   </g>
   <g id="line2d_84">
    <path d="M 286.501212 1121.752557 
L 318.642337 1091.705129 
" clip-path="url(#p9a14e02f85)" style="fill: none; stroke: #7a7a7a; stroke-width: 3; stroke-linecap: square"/>
   </g>
   <g id="line2d_85">
    <path d="M 234.731918 1069.807552 
L 156.382814 1142.579951 
L 156.055677 1142.909238 
" clip-path="url(#p9a14e02f85)" style="fill: none; stroke: #7a7a7a; stroke-width: 3; stroke-linecap: square"/>
   </g>
   <g id="line2d_86">
    <path d="M 219.683656 1054.824999 
L 124.241688 1142.579951 
L 123.832768 1142.909238 
" clip-path="url(#p9a14e02f85)" style="fill: none; stroke: #7a7a7a; stroke-width: 3; stroke-linecap: square"/>
   </g>
   <g id="line2d_87">
    <path d="M 252.642622 1086.518861 
L 192.531357 1142.579951 
L 192.20422 1142.909238 
" clip-path="url(#p9a14e02f85)" style="fill: none; stroke: #7a7a7a; stroke-width: 3; stroke-linecap: square"/>
   </g>
   <g id="line2d_88">
    <path d="M 234.731918 1069.807552 
L 156.382814 1142.579951 
L 156.055677 1142.909238 
" clip-path="url(#p9a14e02f85)" style="fill: none; stroke: #7a7a7a; stroke-width: 3; stroke-linecap: square"/>
   </g>
   <g id="line2d_89">
    <path d="M 598.343734 1069.478265 
L 594.172748 1064.785927 
L 506.336695 971.844707 
" clip-path="url(#p9a14e02f85)" style="fill: none; stroke: #7a7a7a; stroke-width: 3; stroke-linecap: square"/>
   </g>
   <g id="line2d_90">
    <path d="M 619.280446 1052.766957 
L 600.388334 1031.692597 
L 599.734062 1031.116345 
L 598.998006 1030.210806 
L 526.864488 955.956616 
" clip-path="url(#p9a14e02f85)" style="fill: none; stroke: #7a7a7a; stroke-width: 3; stroke-linecap: square"/>
   </g>
   <g id="line2d_91">
    <path d="M 598.343734 1069.478265 
L 762.402506 1253.220341 
" clip-path="url(#p9a14e02f85)" style="fill: none; stroke: #7a7a7a; stroke-width: 3; stroke-linecap: square"/>
   </g>
   <g id="line2d_92">
    <path d="M 577.079885 1086.518861 
L 582.232279 1092.034416 
L 750.870957 1274.294701 
" clip-path="url(#p9a14e02f85)" style="fill: none; stroke: #7a7a7a; stroke-width: 3; stroke-linecap: square"/>
   </g>
   <g id="line2d_93">
    <path d="M 1055.517203 350.3788 
L 1317.323949 41.160859 
" clip-path="url(#p9a14e02f85)" style="fill: none; stroke-dasharray: 32,8,5,8; stroke-dashoffset: 0; stroke: #1e90ff; stroke-width: 5"/>
   </g>
   <g id="line2d_94">
    <path d="M 715.788002 705.636408 
L 1167.261428 271.679759 
" clip-path="url(#p9a14e02f85)" style="fill: none; stroke-dasharray: 32,8,5,8; stroke-dashoffset: 0; stroke: #1e90ff; stroke-width: 5"/>
   </g>
   <g id="line2d_95">
    <path d="M 163.568068 1193.034844 
L 703.474474 690.583954 
" clip-path="url(#p9a14e02f85)" style="fill: none; stroke-dasharray: 32,8,5,8; stroke-dashoffset: 0; stroke: #1e90ff; stroke-width: 5"/>
   </g>
   <g id="line2d_96">
    <path d="M 480.95641 818.900119 
L 218.233187 1062.961103 
" clip-path="url(#p9a14e02f85)" style="fill: none; stroke-dasharray: 32,8,5,8; stroke-dashoffset: 0; stroke: #1e90ff; stroke-width: 5"/>
   </g>
   <g id="line2d_97">
    <path d="M 1055.517203 350.3788 
" clip-path="url(#p9a14e02f85)" style="fill: none; stroke: #0000ff; stroke-width: 1.5; stroke-linecap: square"/>
    <defs>
     <path id="m3c0f463115" d="M 0 10 
C 2.652031 10 5.195799 8.946337 7.071068 7.071068 
C 8.946337 5.195799 10 2.652031 10 0 
C 10 -2.652031 8.946337 -5.195799 7.071068 -7.071068 
C 5.195799 -8.946337 2.652031 -10 0 -10 
C -2.652031 -10 -5.195799 -8.946337 -7.071068 -7.071068 
C -8.946337 -5.195799 -10 -2.652031 -10 0 
C -10 2.652031 -8.946337 5.195799 -7.071068 7.071068 
C -5.195799 8.946337 -2.652031 10 0 10 
z
" style="stroke: #0000ff"/>
    </defs>
    <g clip-path="url(#p9a14e02f85)">
     <use xlink:href="#m3c0f463115" x="1055.517203" y="350.3788" style="fill: #0000ff; stroke: #0000ff"/>
    </g>
   </g>
   <g id="line2d_98">
    <path d="M 715.788002 705.636408 
" clip-path="url(#p9a14e02f85)" style="fill: none; stroke: #0000ff; stroke-width: 1.5; stroke-linecap: square"/>
    <g clip-path="url(#p9a14e02f85)">
     <use xlink:href="#m3c0f463115" x="715.788002" y="705.636408" style="fill: #0000ff; stroke: #0000ff"/>
    </g>
   </g>
   <g id="line2d_99">
    <path d="M 163.568068 1193.034844 
" clip-path="url(#p9a14e02f85)" style="fill: none; stroke: #0000ff; stroke-width: 1.5; stroke-linecap: square"/>
    <g clip-path="url(#p9a14e02f85)">
     <use xlink:href="#m3c0f463115" x="163.568068" y="1193.034844" style="fill: #0000ff; stroke: #0000ff"/>
    </g>
   </g>
   <g id="line2d_100">
    <path d="M 480.95641 818.900119 
" clip-path="url(#p9a14e02f85)" style="fill: none; stroke: #0000ff; stroke-width: 1.5; stroke-linecap: square"/>
    <g clip-path="url(#p9a14e02f85)">
     <use xlink:href="#m3c0f463115" x="480.95641" y="818.900119" style="fill: #0000ff; stroke: #0000ff"/>
    </g>
   </g>
   <g id="line2d_101">
    <path d="M 1317.323949 41.160859 
" clip-path="url(#p9a14e02f85)" style="fill: none; stroke: #ff0000; stroke-width: 1.5; stroke-linecap: square"/>
    <defs>
     <path id="ma30991273e" d="M 0 -10 
L -2.24514 -3.09017 
L -9.510565 -3.09017 
L -3.632713 1.18034 
L -5.877853 8.09017 
L -0 3.81966 
L 5.877853 8.09017 
L 3.632713 1.18034 
L 9.510565 -3.09017 
L 2.24514 -3.09017 
z
" style="stroke: #ff0000; stroke-linejoin: bevel"/>
    </defs>
    <g clip-path="url(#p9a14e02f85)">
     <use xlink:href="#ma30991273e" x="1317.323949" y="41.160859" style="fill: #ff0000; stroke: #ff0000; stroke-linejoin: bevel"/>
    </g>
   </g>
   <g id="line2d_102">
    <path d="M 1167.261428 271.679759 
" clip-path="url(#p9a14e02f85)" style="fill: none; stroke: #ff0000; stroke-width: 1.5; stroke-linecap: square"/>
    <g clip-path="url(#p9a14e02f85)">
     <use xlink:href="#ma30991273e" x="1167.261428" y="271.679759" style="fill: #ff0000; stroke: #ff0000; stroke-linejoin: bevel"/>
    </g>
   </g>
   <g id="line2d_103">
    <path d="M 703.474474 690.583954 
" clip-path="url(#p9a14e02f85)" style="fill: none; stroke: #ff0000; stroke-width: 1.5; stroke-linecap: square"/>
    <g clip-path="url(#p9a14e02f85)">
     <use xlink:href="#ma30991273e" x="703.474474" y="690.583954" style="fill: #ff0000; stroke: #ff0000; stroke-linejoin: bevel"/>
    </g>
   </g>
   <g id="line2d_104">
    <path d="M 218.233187 1062.961103 
" clip-path="url(#p9a14e02f85)" style="fill: none; stroke: #ff0000; stroke-width: 1.5; stroke-linecap: square"/>
    <g clip-path="url(#p9a14e02f85)">
     <use xlink:href="#ma30991273e" x="218.233187" y="1062.961103" style="fill: #ff0000; stroke: #ff0000; stroke-linejoin: bevel"/>
    </g>
   </g>
  </g>
 </g>
 <defs>
  <clipPath id="p9a14e02f85">
   <rect x="0" y="0" width="1440" height="1440"/>
  </clipPath>
 </defs>
</svg>
