<?xml version="1.0" encoding="utf-8" standalone="no"?>
<!DOCTYPE svg PUBLIC "-//W3C//DTD SVG 1.1//EN"
  "http://www.w3.org/Graphics/SVG/1.1/DTD/svg11.dtd">
<svg xmlns:xlink="http://www.w3.org/1999/xlink" width="1440pt" height="1440pt" viewBox="0 0 1440 1440" xmlns="http://www.w3.org/2000/svg" version="1.1">
 <metadata>
  <rdf:RDF xmlns:dc="http://purl.org/dc/elements/1.1/" xmlns:cc="http://creativecommons.org/ns#" xmlns:rdf="http://www.w3.org/1999/02/22-rdf-syntax-ns#">
   <cc:Work>
    <dc:type rdf:resource="http://purl.org/dc/dcmitype/StillImage"/>
    <dc:date>2026-02-27T11:10:31.954453</dc:date>
    <dc:format>image/svg+xml</dc:format>
    <dc:creator>
     <cc:Agent>
      <dc:title>Matplotlib v3.7.3, https://matplotlib.org/</dc:title>
     </cc:Agent>
    </dc:creator>
   </cc:Work>
  </rdf:RDF>
 </metadata>
 <defs>
  <style type="text/css">*{stroke-linejoin: round; stroke-linecap: butt}</style>
 </defs>
 <g id="figure_1">
  <g id="patch_1">
   <path d="M 0 1440 
L 1440 1440 
L 1440 0 
L 0 0 
z
" style="fill: #ffffff"/>
  </g>
  <g id="axes_1">
   <g id="line2d_1">
    <path d="M 1087.888079 214.42924 
L 1087.537478 214.812233 
L 1087.186878 215.118628 
L 1087.046638 215.271826 
L 1086.555798 215.731418 
L 938.041511 366.937309 
L 859.296683 445.680802 
L 802.429315 503.589441 
L 736.867059 569.540947 
L 667.307959 639.85858 
L 667.167719 640.011777 
" clip-path="url(#p3c9265ee47)" style="fill: none; stroke: #7a7a7a; stroke-width: 3; stroke-linecap: square"/>
   </g>
   <g id="line2d_2">
    <path d="M 1087.888079 188.462271 
L 1087.537478 188.845264 
L 1087.186878 189.151659 
L 1087.046638 189.304857 
L 1086.625918 189.764449 
L 1015.594297 262.533242 
L 933.904427 344.800276 
L 899.545598 379.652698 
L 891.622031 387.312571 
L 813.017444 468.277427 
L 745.000986 536.2205 
L 667.307959 613.661815 
L 667.167719 613.815012 
" clip-path="url(#p3c9265ee47)" style="fill: none; stroke: #7a7a7a; stroke-width: 3; stroke-linecap: square"/>
   </g>
   <g id="line2d_3">
    <path d="M 667.167719 702.51634 
L 667.307959 702.363143 
L 808.3194 559.659711 
L 1086.485678 280.380745 
L 1087.046638 279.844554 
L 1087.186878 279.691357 
L 1087.537478 279.384962 
L 1087.888079 279.001968 
" clip-path="url(#p3c9265ee47)" style="fill: none; stroke: #7a7a7a; stroke-width: 3; stroke-linecap: square"/>
   </g>
   <g id="line2d_4">
    <path d="M 667.167719 731.394061 
L 667.307959 731.240863 
L 844.08063 552.076437 
L 901.78944 494.474193 
L 999.957524 394.359654 
L 1039.294877 355.753895 
L 1086.485678 308.339281 
L 1087.046638 307.726492 
L 1087.186878 307.573294 
L 1087.537478 307.266899 
L 1087.888079 306.883906 
" clip-path="url(#p3c9265ee47)" style="fill: none; stroke: #7a7a7a; stroke-width: 3; stroke-linecap: square"/>
   </g>
   <g id="line2d_5">
    <path d="M 667.167719 671.264059 
L 667.307959 671.110861 
L 1086.555798 248.285878 
L 1087.046638 247.749687 
L 1087.186878 247.596489 
L 1087.537478 247.290095 
L 1087.888079 246.907101 
" clip-path="url(#p3c9265ee47)" style="fill: none; stroke: #7a7a7a; stroke-width: 3; stroke-linecap: square"/>
   </g>
   <g id="line2d_6">
    <path d="M 667.167719 702.51634 
L 667.307959 702.363143 
L 808.3194 559.659711 
L 1086.485678 280.380745 
L 1087.046638 279.844554 
L 1087.186878 279.691357 
L 1087.537478 279.384962 
L 1087.888079 279.001968 
" clip-path="url(#p3c9265ee47)" style="fill: none; stroke: #7a7a7a; stroke-width: 3; stroke-linecap: square"/>
   </g>
   <g id="line2d_7">
    <path d="M 7.758675 1328.481152 
L 243.291956 1095.314622 
L 244.904718 1093.782647 
L 245.395558 1093.246456 
L 245.886399 1092.786864 
L 246.236999 1092.40387 
L 246.447359 1092.250673 
" clip-path="url(#p3c9265ee47)" style="fill: none; stroke: #7a7a7a; stroke-width: 3; stroke-linecap: square"/>
   </g>
   <g id="line2d_8">
    <path d="M 21.712567 1343.034911 
L 243.291956 1125.264725 
L 244.904718 1123.656151 
L 245.395558 1123.196559 
L 245.886399 1122.660368 
L 246.236999 1122.277374 
L 246.447359 1122.124177 
" clip-path="url(#p3c9265ee47)" style="fill: none; stroke: #7a7a7a; stroke-width: 3; stroke-linecap: square"/>
   </g>
   <g id="line2d_9">
    <path d="M 1087.888079 246.907101 
L 1087.537478 247.290095 
L 1087.186878 247.596489 
L 1087.046638 247.749687 
L 1086.555798 248.285878 
L 667.307959 671.110861 
L 667.167719 671.264059 
" clip-path="url(#p3c9265ee47)" style="fill: none; stroke: #7a7a7a; stroke-width: 3; stroke-linecap: square"/>
   </g>
   <g id="line2d_10">
    <path d="M 1087.888079 214.42924 
L 1087.537478 214.812233 
L 1087.186878 215.118628 
L 1087.046638 215.271826 
L 1086.555798 215.731418 
L 938.041511 366.937309 
L 859.296683 445.680802 
L 802.429315 503.589441 
L 736.867059 569.540947 
L 667.307959 639.85858 
L 667.167719 640.011777 
" clip-path="url(#p3c9265ee47)" style="fill: none; stroke: #7a7a7a; stroke-width: 3; stroke-linecap: square"/>
   </g>
   <g id="line2d_11">
    <path d="M 21.712567 1343.034911 
L 243.291956 1125.264725 
L 244.904718 1123.656151 
L 245.395558 1123.196559 
L 245.886399 1122.660368 
L 246.236999 1122.277374 
L 246.447359 1122.124177 
" clip-path="url(#p3c9265ee47)" style="fill: none; stroke: #7a7a7a; stroke-width: 3; stroke-linecap: square"/>
   </g>
   <g id="line2d_12">
    <path d="M 35.526219 1357.512071 
L 122.334853 1270.419316 
L 204.375323 1190.60344 
L 222.606539 1172.679338 
L 241.398715 1154.525439 
L 243.291956 1152.763668 
L 244.904718 1151.155095 
L 245.395558 1150.695503 
L 245.886399 1150.159312 
L 246.236999 1149.776318 
L 246.447359 1149.62312 
" clip-path="url(#p3c9265ee47)" style="fill: none; stroke: #7a7a7a; stroke-width: 3; stroke-linecap: square"/>
   </g>
   <g id="line2d_13">
    <path d="M 246.447359 1092.250673 
L 246.236999 1092.40387 
L 245.886399 1092.786864 
L 245.395558 1093.246456 
L 244.904718 1093.782647 
L 243.291956 1095.314622 
L 7.758675 1328.481152 
" clip-path="url(#p3c9265ee47)" style="fill: none; stroke: #7a7a7a; stroke-width: 3; stroke-linecap: square"/>
   </g>
   <g id="line2d_14">
    <path d="M 246.447359 1060.309003 
L 246.236999 1060.538799 
L 245.886399 1060.845194 
L 245.395558 1061.381385 
L 244.904718 1061.840977 
L 243.362077 1063.449551 
L -1 1305.925329 
" clip-path="url(#p3c9265ee47)" style="fill: none; stroke: #7a7a7a; stroke-width: 3; stroke-linecap: square"/>
   </g>
   <g id="line2d_15">
    <path d="M 246.447359 1092.250673 
L 385.495438 955.521942 
" clip-path="url(#p3c9265ee47)" style="fill: none; stroke: #7a7a7a; stroke-width: 3; stroke-linecap: square"/>
   </g>
   <g id="line2d_16">
    <path d="M 246.447359 1122.124177 
L 397.556088 971.760872 
" clip-path="url(#p3c9265ee47)" style="fill: none; stroke: #7a7a7a; stroke-width: 3; stroke-linecap: square"/>
   </g>
   <g id="line2d_17">
    <path d="M 385.495438 955.521942 
L 493.05961 845.526167 
" clip-path="url(#p3c9265ee47)" style="fill: none; stroke: #7a7a7a; stroke-width: 3; stroke-linecap: square"/>
   </g>
   <g id="line2d_18">
    <path d="M 397.556088 971.760872 
L 507.504342 861.6119 
" clip-path="url(#p3c9265ee47)" style="fill: none; stroke: #7a7a7a; stroke-width: 3; stroke-linecap: square"/>
   </g>
   <g id="line2d_19">
    <path d="M 246.447359 1122.124177 
L 397.556088 971.760872 
" clip-path="url(#p3c9265ee47)" style="fill: none; stroke: #7a7a7a; stroke-width: 3; stroke-linecap: square"/>
   </g>
   <g id="line2d_20">
    <path d="M 246.447359 1149.62312 
L 410.107579 986.850822 
" clip-path="url(#p3c9265ee47)" style="fill: none; stroke: #7a7a7a; stroke-width: 3; stroke-linecap: square"/>
   </g>
   <g id="line2d_21">
    <path d="M 376.02923 810.520548 
L 273.092982 691.256327 
" clip-path="url(#p3c9265ee47)" style="fill: none; stroke: #7a7a7a; stroke-width: 3; stroke-linecap: square"/>
   </g>
   <g id="line2d_22">
    <path d="M 392.928164 794.511413 
L 378.974273 778.349082 
L 377.641991 776.740508 
L 285.363992 670.115078 
" clip-path="url(#p3c9265ee47)" style="fill: none; stroke: #7a7a7a; stroke-width: 3; stroke-linecap: square"/>
   </g>
   <g id="line2d_23">
    <path d="M 469.91999 958.662489 
L 574.32876 1078.999092 
" clip-path="url(#p3c9265ee47)" style="fill: none; stroke: #7a7a7a; stroke-width: 3; stroke-linecap: square"/>
   </g>
   <g id="line2d_24">
    <path d="M 437.875123 988.306198 
L 548.103857 1108.413004 
" clip-path="url(#p3c9265ee47)" style="fill: none; stroke: #7a7a7a; stroke-width: 3; stroke-linecap: square"/>
   </g>
   <g id="line2d_25">
    <path d="M 246.447359 1060.309003 
L 246.236999 1060.538799 
L 245.886399 1060.845194 
L 245.395558 1061.381385 
L 244.904718 1061.840977 
L 243.362077 1063.449551 
L -1 1305.925329 
" clip-path="url(#p3c9265ee47)" style="fill: none; stroke: #7a7a7a; stroke-width: 3; stroke-linecap: square"/>
   </g>
   <g id="line2d_26">
    <path d="M 246.447359 1032.73346 
L 246.236999 1032.963256 
L 245.956519 1033.269651 
L 245.395558 1033.805842 
L 244.904718 1034.265435 
L 243.362077 1035.797409 
L 213.631171 1065.364519 
L 190.631791 1087.961144 
L 155.852242 1122.353973 
L 137.971626 1140.354674 
L 115.603327 1162.185312 
L -1 1277.651018 
" clip-path="url(#p3c9265ee47)" style="fill: none; stroke: #7a7a7a; stroke-width: 3; stroke-linecap: square"/>
   </g>
   <g id="line2d_27">
    <path d="M 493.05961 845.526167 
L 463.539065 875.169875 
L 456.807539 882.140359 
L 452.179615 892.098194 
L 450.005893 904.277392 
L 450.426614 917.758768 
L 453.722256 931.852934 
L 460.103182 945.717304 
L 469.91999 958.662489 
" clip-path="url(#p3c9265ee47)" style="fill: none; stroke: #7a7a7a; stroke-width: 3; stroke-linecap: square"/>
   </g>
   <g id="line2d_28">
    <path d="M 479.175838 828.904243 
L 449.725413 858.547951 
L 439.628124 867.816397 
L 431.494197 879.612601 
L 425.253512 893.247175 
L 421.046309 908.03073 
L 418.802467 923.503673 
L 418.521986 938.976616 
L 420.274988 953.760171 
L 424.061471 967.394745 
L 429.881436 979.11435 
L 437.875123 988.306198 
" clip-path="url(#p3c9265ee47)" style="fill: none; stroke: #7a7a7a; stroke-width: 3; stroke-linecap: square"/>
   </g>
   <g id="line2d_29">
    <path d="M 376.02923 810.520548 
L 401.623052 840.470651 
L 412.281301 850.351887 
L 423.991351 857.628766 
L 436.262362 862.301289 
L 448.813852 864.369454 
L 461.154983 863.756664 
L 472.865033 860.462919 
L 483.663522 854.411619 
L 493.05961 845.526167 
" clip-path="url(#p3c9265ee47)" style="fill: none; stroke: #7a7a7a; stroke-width: 3; stroke-linecap: square"/>
   </g>
   <g id="line2d_30">
    <path d="M 360.111976 827.678663 
L 385.004598 856.326588 
L 386.406999 858.394753 
L 395.662847 868.046193 
L 406.811936 876.548652 
L 418.802467 882.982945 
L 431.424077 887.195875 
L 444.466409 889.187442 
L 457.7191 888.804449 
L 470.831551 885.970296 
L 483.733642 880.608385 
L 496.004653 872.488919 
L 507.504342 861.6119 
" clip-path="url(#p3c9265ee47)" style="fill: none; stroke: #7a7a7a; stroke-width: 3; stroke-linecap: square"/>
   </g>
   <g id="line2d_31">
    <path d="M 479.175838 828.904243 
L 370.139145 937.597839 
" clip-path="url(#p3c9265ee47)" style="fill: none; stroke: #7a7a7a; stroke-width: 3; stroke-linecap: square"/>
   </g>
   <g id="line2d_32">
    <path d="M 467.395668 814.733478 
L 457.57886 823.61893 
L 383.041236 898.149494 
L 358.288855 922.584488 
" clip-path="url(#p3c9265ee47)" style="fill: none; stroke: #7a7a7a; stroke-width: 3; stroke-linecap: square"/>
   </g>
   <g id="line2d_33">
    <path d="M 376.02923 810.520548 
L 389.702642 825.993491 
L 400.220651 839.628065 
L 407.793617 851.654065 
L 412.421541 862.454486 
L 414.244663 872.565518 
L 413.333102 882.216958 
L 409.827099 891.791799 
L 403.796774 901.673035 
L 395.312246 912.24366 
L 384.513757 923.963265 
L 370.139145 937.597839 
" clip-path="url(#p3c9265ee47)" style="fill: none; stroke: #7a7a7a; stroke-width: 3; stroke-linecap: square"/>
   </g>
   <g id="line2d_34">
    <path d="M 360.111976 827.678663 
L 375.117669 843.917594 
L 385.705798 856.479785 
L 392.226964 866.284422 
L 394.891526 874.480486 
L 394.050085 881.910563 
L 391.806243 886.200092 
L 391.666003 886.429888 
L 391.385523 886.889481 
L 389.842882 889.800232 
L 388.791081 891.102411 
L 388.08988 892.251392 
L 385.775918 895.008946 
L 382.620516 898.99208 
L 358.288855 922.584488 
" clip-path="url(#p3c9265ee47)" style="fill: none; stroke: #7a7a7a; stroke-width: 3; stroke-linecap: square"/>
   </g>
   <g id="line2d_35">
    <path d="M 574.32876 1078.999092 
L 469.91999 958.662489 
" clip-path="url(#p3c9265ee47)" style="fill: none; stroke: #7a7a7a; stroke-width: 3; stroke-linecap: square"/>
   </g>
   <g id="line2d_36">
    <path d="M 606.303507 1047.440416 
L 500.281976 925.954832 
" clip-path="url(#p3c9265ee47)" style="fill: none; stroke: #7a7a7a; stroke-width: 3; stroke-linecap: square"/>
   </g>
   <g id="line2d_37">
    <path d="M 370.139145 937.597839 
L 246.447359 1060.309003 
" clip-path="url(#p3c9265ee47)" style="fill: none; stroke: #7a7a7a; stroke-width: 3; stroke-linecap: square"/>
   </g>
   <g id="line2d_38">
    <path d="M 358.288855 922.584488 
L 246.447359 1032.73346 
" clip-path="url(#p3c9265ee47)" style="fill: none; stroke: #7a7a7a; stroke-width: 3; stroke-linecap: square"/>
   </g>
   <g id="line2d_39">
    <path d="M 469.91999 958.662489 
L 463.398825 950.236629 
L 459.962942 939.206412 
L 459.822702 926.644221 
L 463.118344 913.392641 
L 469.91999 900.370857 
L 480.437999 888.574653 
L 507.504342 861.6119 
" clip-path="url(#p3c9265ee47)" style="fill: none; stroke: #7a7a7a; stroke-width: 3; stroke-linecap: square"/>
   </g>
   <g id="line2d_40">
    <path d="M 500.281976 925.954832 
L 489.834087 912.85645 
L 489.483487 911.477672 
L 490.044448 910.022297 
L 491.306609 908.64352 
L 491.306609 908.413723 
L 493.550451 904.047596 
L 520.616794 877.084843 
" clip-path="url(#p3c9265ee47)" style="fill: none; stroke: #7a7a7a; stroke-width: 3; stroke-linecap: square"/>
   </g>
   <g id="line2d_41">
    <path d="M 385.495438 955.521942 
L 246.447359 1092.250673 
" clip-path="url(#p3c9265ee47)" style="fill: none; stroke: #7a7a7a; stroke-width: 3; stroke-linecap: square"/>
   </g>
   <g id="line2d_42">
    <path d="M 370.139145 937.597839 
L 246.447359 1060.309003 
" clip-path="url(#p3c9265ee47)" style="fill: none; stroke: #7a7a7a; stroke-width: 3; stroke-linecap: square"/>
   </g>
   <g id="line2d_43">
    <path d="M 479.175838 828.904243 
L 465.642667 839.704664 
L 452.670456 847.900728 
L 441.871966 852.649849 
L 431.985038 854.105225 
L 422.37859 852.190256 
L 412.561781 846.904944 
L 401.973652 838.249288 
L 389.983122 826.07009 
L 376.02923 810.520548 
" clip-path="url(#p3c9265ee47)" style="fill: none; stroke: #7a7a7a; stroke-width: 3; stroke-linecap: square"/>
   </g>
   <g id="line2d_44">
    <path d="M 467.395668 814.733478 
L 463.889665 818.180421 
L 457.57886 823.61893 
L 451.899135 827.985058 
L 445.93893 831.5086 
L 440.189085 833.959759 
L 436.963562 834.725746 
L 434.43924 834.802345 
L 431.494197 834.342753 
L 429.320476 833.423568 
L 426.726033 831.814994 
L 423.570631 829.134039 
L 419.153067 824.691313 
L 392.928164 794.511413 
" clip-path="url(#p3c9265ee47)" style="fill: none; stroke: #7a7a7a; stroke-width: 3; stroke-linecap: square"/>
   </g>
   <g id="line2d_45">
    <path d="M 493.05961 845.526167 
L 664.853757 673.562021 
L 665.975678 672.41304 
L 666.326278 672.030046 
L 666.746999 671.647052 
L 666.957359 671.417256 
L 667.167719 671.264059 
" clip-path="url(#p3c9265ee47)" style="fill: none; stroke: #7a7a7a; stroke-width: 3; stroke-linecap: square"/>
   </g>
   <g id="line2d_46">
    <path d="M 507.504342 861.6119 
L 664.853757 704.890901 
L 665.975678 703.74192 
L 666.326278 703.358926 
L 666.746999 702.975933 
L 666.957359 702.746136 
L 667.167719 702.51634 
" clip-path="url(#p3c9265ee47)" style="fill: none; stroke: #7a7a7a; stroke-width: 3; stroke-linecap: square"/>
   </g>
   <g id="line2d_47">
    <path d="M 667.167719 671.264059 
L 666.957359 671.417256 
L 666.746999 671.647052 
L 666.326278 672.030046 
L 665.975678 672.41304 
L 664.853757 673.562021 
L 493.05961 845.526167 
" clip-path="url(#p3c9265ee47)" style="fill: none; stroke: #7a7a7a; stroke-width: 3; stroke-linecap: square"/>
   </g>
   <g id="line2d_48">
    <path d="M 667.167719 640.011777 
L 666.957359 640.164975 
L 666.746999 640.394771 
L 666.326278 640.777765 
L 665.975678 641.160758 
L 665.134237 642.079943 
L 479.175838 828.904243 
" clip-path="url(#p3c9265ee47)" style="fill: none; stroke: #7a7a7a; stroke-width: 3; stroke-linecap: square"/>
   </g>
   <g id="line2d_49">
    <path d="M 376.02923 810.520548 
L 393.489125 829.900026 
L 406.461336 845.755963 
L 415.857424 858.701148 
L 422.37859 869.42497 
L 426.866273 878.693417 
L 430.161916 887.195875 
L 433.036839 895.468538 
L 436.402602 904.277392 
L 440.890285 914.311825 
L 447.481571 926.261227 
L 456.877659 940.814986 
L 469.91999 958.662489 
" clip-path="url(#p3c9265ee47)" style="fill: none; stroke: #7a7a7a; stroke-width: 3; stroke-linecap: square"/>
   </g>
   <g id="line2d_50">
    <path d="M 360.111976 827.678663 
L 383.742437 854.947811 
L 390.193482 862.83748 
L 394.190326 868.352588 
L 396.364047 872.642117 
L 397.485968 876.625251 
L 399.44933 888.268258 
L 401.763292 898.072895 
L 406.040616 911.937265 
L 412.982502 930.857151 
L 423.29015 955.981534 
L 437.875123 988.306198 
" clip-path="url(#p3c9265ee47)" style="fill: none; stroke: #7a7a7a; stroke-width: 3; stroke-linecap: square"/>
   </g>
   <g id="line2d_51">
    <path d="M 493.05961 845.526167 
L 385.495438 955.521942 
" clip-path="url(#p3c9265ee47)" style="fill: none; stroke: #7a7a7a; stroke-width: 3; stroke-linecap: square"/>
   </g>
   <g id="line2d_52">
    <path d="M 479.175838 828.904243 
L 370.139145 937.597839 
" clip-path="url(#p3c9265ee47)" style="fill: none; stroke: #7a7a7a; stroke-width: 3; stroke-linecap: square"/>
   </g>
   <g id="line2d_53">
    <path d="M 667.167719 640.011777 
L 666.957359 640.164975 
L 666.746999 640.394771 
L 666.326278 640.777765 
L 665.975678 641.160758 
L 665.134237 642.079943 
L 479.175838 828.904243 
" clip-path="url(#p3c9265ee47)" style="fill: none; stroke: #7a7a7a; stroke-width: 3; stroke-linecap: square"/>
   </g>
   <g id="line2d_54">
    <path d="M 667.167719 613.815012 
L 666.957359 613.96821 
L 666.746999 614.198006 
L 666.396398 614.580999 
L 666.045798 614.963993 
L 664.923877 616.036375 
L 616.611156 663.680785 
L 540.25041 742.194482 
L 467.395668 814.733478 
" clip-path="url(#p3c9265ee47)" style="fill: none; stroke: #7a7a7a; stroke-width: 3; stroke-linecap: square"/>
   </g>
   <g id="line2d_55">
    <path d="M 397.556088 971.760872 
L 404.778455 964.560592 
L 416.208024 954.602757 
L 428.408915 948.551457 
L 440.609805 946.176897 
L 452.039375 947.249279 
L 462.066544 951.538808 
L 469.91999 958.662489 
" clip-path="url(#p3c9265ee47)" style="fill: none; stroke: #7a7a7a; stroke-width: 3; stroke-linecap: square"/>
   </g>
   <g id="line2d_56">
    <path d="M 410.107579 986.850822 
L 417.329945 979.650541 
L 424.692552 974.441828 
L 430.792997 978.348363 
L 437.875123 988.306198 
" clip-path="url(#p3c9265ee47)" style="fill: none; stroke: #7a7a7a; stroke-width: 3; stroke-linecap: square"/>
   </g>
   <g id="line2d_57">
    <path d="M 469.91999 958.662489 
L 459.612341 947.402476 
L 447.762051 939.589406 
L 435.280681 935.070081 
L 422.86943 933.614705 
L 411.50998 935.14668 
L 401.833412 939.436209 
L 385.495438 955.521942 
" clip-path="url(#p3c9265ee47)" style="fill: none; stroke: #7a7a7a; stroke-width: 3; stroke-linecap: square"/>
   </g>
   <g id="line2d_58">
    <path d="M 500.281976 925.954832 
L 492.77913 916.533189 
L 483.312922 909.179711 
L 472.163832 903.894398 
L 459.822702 900.75385 
L 446.49989 899.681468 
L 432.686238 900.907048 
L 418.662226 904.277392 
L 404.918695 910.022297 
L 391.736123 917.988564 
L 379.535233 928.405992 
L 370.139145 937.597839 
" clip-path="url(#p3c9265ee47)" style="fill: none; stroke: #7a7a7a; stroke-width: 3; stroke-linecap: square"/>
   </g>
   <g id="line2d_59">
    <path d="M 385.495438 955.521942 
L 395.312246 944.79812 
L 403.516294 932.618922 
L 409.967339 919.367342 
L 414.384903 905.349774 
L 416.628745 891.025812 
L 416.488505 876.548652 
L 413.823942 862.377887 
L 408.424698 848.896511 
L 400.150531 836.334319 
L 388.791081 825.150905 
L 376.02923 810.520548 
" clip-path="url(#p3c9265ee47)" style="fill: none; stroke: #7a7a7a; stroke-width: 3; stroke-linecap: square"/>
   </g>
   <g id="line2d_60">
    <path d="M 397.556088 971.760872 
L 408.564938 959.964668 
L 417.820786 947.325878 
L 425.323632 934.150896 
L 431.143597 920.439724 
L 435.210561 906.498755 
L 437.524523 892.557786 
L 438.155603 878.693417 
L 437.033682 865.21204 
L 434.15876 852.266855 
L 429.600956 839.93446 
L 423.640751 829.210638 
L 419.153067 824.691313 
L 406.321096 809.907758 
L 405.619895 809.294968 
L 392.928164 794.511413 
" clip-path="url(#p3c9265ee47)" style="fill: none; stroke: #7a7a7a; stroke-width: 3; stroke-linecap: square"/>
   </g>
   <g id="line2d_61">
    <path d="M 273.092982 691.256327 
L 376.02923 810.520548 
" clip-path="url(#p3c9265ee47)" style="fill: none; stroke: #7a7a7a; stroke-width: 3; stroke-linecap: square"/>
   </g>
   <g id="line2d_62">
    <path d="M 253.459365 703.358926 
L 300.229445 756.978036 
L 343.283162 808.145987 
L 360.111976 827.678663 
" clip-path="url(#p3c9265ee47)" style="fill: none; stroke: #7a7a7a; stroke-width: 3; stroke-linecap: square"/>
   </g>
   <g id="line2d_63">
    <path d="M 507.504342 861.6119 
L 664.853757 704.890901 
L 665.975678 703.74192 
L 666.326278 703.358926 
L 666.746999 702.975933 
L 666.957359 702.746136 
L 667.167719 702.51634 
" clip-path="url(#p3c9265ee47)" style="fill: none; stroke: #7a7a7a; stroke-width: 3; stroke-linecap: square"/>
   </g>
   <g id="line2d_64">
    <path d="M 520.616794 877.084843 
L 664.783637 733.768622 
L 665.975678 732.619641 
L 666.326278 732.236647 
L 666.676879 731.853653 
L 666.957359 731.623857 
L 667.167719 731.394061 
" clip-path="url(#p3c9265ee47)" style="fill: none; stroke: #7a7a7a; stroke-width: 3; stroke-linecap: square"/>
   </g>
   <g id="line2d_65">
    <path d="M 469.91999 958.662489 
L 456.877659 940.814986 
L 447.481571 926.261227 
L 440.890285 914.311825 
L 436.402602 904.277392 
L 433.036839 895.468538 
L 430.161916 887.195875 
L 426.866273 878.693417 
L 422.37859 869.42497 
L 415.857424 858.701148 
L 406.461336 845.755963 
L 393.489125 829.900026 
L 376.02923 810.520548 
" clip-path="url(#p3c9265ee47)" style="fill: none; stroke: #7a7a7a; stroke-width: 3; stroke-linecap: square"/>
   </g>
   <g id="line2d_66">
    <path d="M 500.281976 925.954832 
L 392.928164 794.511413 
" clip-path="url(#p3c9265ee47)" style="fill: none; stroke: #7a7a7a; stroke-width: 3; stroke-linecap: square"/>
   </g>
   <g id="line2d_67">
    <path d="M 397.556088 971.760872 
L 507.504342 861.6119 
" clip-path="url(#p3c9265ee47)" style="fill: none; stroke: #7a7a7a; stroke-width: 3; stroke-linecap: square"/>
   </g>
   <g id="line2d_68">
    <path d="M 410.107579 986.850822 
L 520.616794 877.084843 
" clip-path="url(#p3c9265ee47)" style="fill: none; stroke: #7a7a7a; stroke-width: 3; stroke-linecap: square"/>
   </g>
   <g id="line2d_69">
    <path d="M 1190.613967 142.886027 
L 1332.104027 -1 
" clip-path="url(#p3c9265ee47)" style="fill: none; stroke: #7a7a7a; stroke-width: 3; stroke-linecap: square"/>
   </g>
   <g id="line2d_70">
    <path d="M 1204.988579 160.656932 
L 1363.730995 -1 
" clip-path="url(#p3c9265ee47)" style="fill: none; stroke: #7a7a7a; stroke-width: 3; stroke-linecap: square"/>
   </g>
   <g id="line2d_71">
    <path d="M 1332.104027 -1 
L 1190.613967 142.886027 
" clip-path="url(#p3c9265ee47)" style="fill: none; stroke: #7a7a7a; stroke-width: 3; stroke-linecap: square"/>
   </g>
   <g id="line2d_72">
    <path d="M 1301.39394 -1 
L 1174.135753 126.340702 
" clip-path="url(#p3c9265ee47)" style="fill: none; stroke: #7a7a7a; stroke-width: 3; stroke-linecap: square"/>
   </g>
   <g id="line2d_73">
    <path d="M 1087.888079 279.001968 
L 1088.168559 278.772172 
L 1204.988579 160.656932 
" clip-path="url(#p3c9265ee47)" style="fill: none; stroke: #7a7a7a; stroke-width: 3; stroke-linecap: square"/>
   </g>
   <g id="line2d_74">
    <path d="M 1087.888079 306.883906 
L 1088.098439 306.577511 
L 1169.577949 223.927482 
L 1217.96079 175.900079 
" clip-path="url(#p3c9265ee47)" style="fill: none; stroke: #7a7a7a; stroke-width: 3; stroke-linecap: square"/>
   </g>
   <g id="line2d_75">
    <path d="M 1228.651906 -1 
L 1358.13079 137.524116 
" clip-path="url(#p3c9265ee47)" style="fill: none; stroke: #7a7a7a; stroke-width: 3; stroke-linecap: square"/>
   </g>
   <g id="line2d_76">
    <path d="M 1191.385287 23.698405 
L 1323.63172 172.453136 
" clip-path="url(#p3c9265ee47)" style="fill: none; stroke: #7a7a7a; stroke-width: 3; stroke-linecap: square"/>
   </g>
   <g id="line2d_77">
    <path d="M 1358.13079 137.524116 
L 1228.651906 -1 
" clip-path="url(#p3c9265ee47)" style="fill: none; stroke: #7a7a7a; stroke-width: 3; stroke-linecap: square"/>
   </g>
   <g id="line2d_78">
    <path d="M 1400.623546 94.092637 
L 1315.848134 -1 
" clip-path="url(#p3c9265ee47)" style="fill: none; stroke: #7a7a7a; stroke-width: 3; stroke-linecap: square"/>
   </g>
   <g id="line2d_79">
    <path d="M 1204.988579 160.656932 
L 1363.730995 -1 
" clip-path="url(#p3c9265ee47)" style="fill: none; stroke: #7a7a7a; stroke-width: 3; stroke-linecap: square"/>
   </g>
   <g id="line2d_80">
    <path d="M 1217.96079 175.900079 
L 1392.597333 -1 
" clip-path="url(#p3c9265ee47)" style="fill: none; stroke: #7a7a7a; stroke-width: 3; stroke-linecap: square"/>
   </g>
   <g id="line2d_81">
    <path d="M 1358.13079 137.524116 
L 1379.657648 160.656932 
L 1432.177573 222.625304 
L 1441 233.89241 
" clip-path="url(#p3c9265ee47)" style="fill: none; stroke: #7a7a7a; stroke-width: 3; stroke-linecap: square"/>
   </g>
   <g id="line2d_82">
    <path d="M 1323.63172 172.453136 
L 1404.83075 260.84807 
L 1415.348759 273.640057 
" clip-path="url(#p3c9265ee47)" style="fill: none; stroke: #7a7a7a; stroke-width: 3; stroke-linecap: square"/>
   </g>
   <g id="line2d_83">
    <path d="M 1174.135753 126.340702 
L 1088.168559 214.199444 
L 1087.888079 214.42924 
" clip-path="url(#p3c9265ee47)" style="fill: none; stroke: #7a7a7a; stroke-width: 3; stroke-linecap: square"/>
   </g>
   <g id="line2d_84">
    <path d="M 1160.672701 114.544497 
L 1125.262071 151.848078 
L 1088.168559 188.232475 
L 1087.888079 188.462271 
" clip-path="url(#p3c9265ee47)" style="fill: none; stroke: #7a7a7a; stroke-width: 3; stroke-linecap: square"/>
   </g>
   <g id="line2d_85">
    <path d="M 1190.613967 142.886027 
L 1088.168559 246.677305 
L 1087.888079 246.907101 
" clip-path="url(#p3c9265ee47)" style="fill: none; stroke: #7a7a7a; stroke-width: 3; stroke-linecap: square"/>
   </g>
   <g id="line2d_86">
    <path d="M 1174.135753 126.340702 
L 1088.168559 214.199444 
L 1087.888079 214.42924 
" clip-path="url(#p3c9265ee47)" style="fill: none; stroke: #7a7a7a; stroke-width: 3; stroke-linecap: square"/>
   </g>
   <g id="line2d_87">
    <path d="M 1087.888079 246.907101 
L 1088.168559 246.677305 
L 1190.613967 142.886027 
" clip-path="url(#p3c9265ee47)" style="fill: none; stroke: #7a7a7a; stroke-width: 3; stroke-linecap: square"/>
   </g>
   <g id="line2d_88">
    <path d="M 1087.888079 279.001968 
L 1088.168559 278.772172 
L 1204.988579 160.656932 
" clip-path="url(#p3c9265ee47)" style="fill: none; stroke: #7a7a7a; stroke-width: 3; stroke-linecap: square"/>
   </g>
   <g id="line2d_89">
    <path clip-path="url(#p3c9265ee47)" style="fill: none; stroke: #7a7a7a; stroke-width: 3; stroke-linecap: square"/>
   </g>
   <g id="line2d_90">
    <path clip-path="url(#p3c9265ee47)" style="fill: none; stroke: #7a7a7a; stroke-width: 3; stroke-linecap: square"/>
   </g>
   <g id="line2d_91">
    <path d="M 1301.39394 -1 
L 1174.135753 126.340702 
" clip-path="url(#p3c9265ee47)" style="fill: none; stroke: #7a7a7a; stroke-width: 3; stroke-linecap: square"/>
   </g>
   <g id="line2d_92">
    <path d="M 1275.430167 -1 
L 1200.430775 74.483362 
L 1197.415612 78.006904 
L 1160.672701 114.544497 
" clip-path="url(#p3c9265ee47)" style="fill: none; stroke: #7a7a7a; stroke-width: 3; stroke-linecap: square"/>
   </g>
   <g id="line2d_93">
    <path d="M 1441 233.89241 
L 1432.177573 222.625304 
L 1379.657648 160.656932 
L 1358.13079 137.524116 
" clip-path="url(#p3c9265ee47)" style="fill: none; stroke: #7a7a7a; stroke-width: 3; stroke-linecap: square"/>
   </g>
   <g id="line2d_94">
    <path d="M 1441 159.302902 
L 1426.778329 139.362486 
L 1419.836443 128.791861 
L 1412.193356 115.846676 
L 1404.339909 101.369516 
L 1400.623546 94.092637 
" clip-path="url(#p3c9265ee47)" style="fill: none; stroke: #7a7a7a; stroke-width: 3; stroke-linecap: square"/>
   </g>
   <g id="line2d_95">
    <path clip-path="url(#p3c9265ee47)" style="fill: none; stroke: #7a7a7a; stroke-width: 3; stroke-linecap: square"/>
   </g>
   <g id="line2d_96">
    <path d="M 1170.70061 -1 
L 1191.385287 23.698405 
" clip-path="url(#p3c9265ee47)" style="fill: none; stroke: #7a7a7a; stroke-width: 3; stroke-linecap: square"/>
   </g>
   <g id="line2d_97">
    <path d="M 1358.13079 137.524116 
L 1350.698064 127.796077 
L 1344.807978 116.612663 
L 1340.530655 104.280268 
L 1337.795972 91.028688 
L 1336.814292 77.087719 
L 1337.585612 62.610559 
L 1340.180055 47.980202 
L 1344.667738 33.349845 
L 1351.118784 18.872685 
L 1359.603311 4.931716 
L 1364.342805 -1 
" clip-path="url(#p3c9265ee47)" style="fill: none; stroke: #7a7a7a; stroke-width: 3; stroke-linecap: square"/>
   </g>
   <g id="line2d_98">
    <path d="M 1400.623546 94.092637 
L 1390.946978 83.598611 
L 1384.425812 71.189617 
L 1380.709449 57.555043 
L 1379.657648 43.30768 
L 1380.919809 29.290112 
L 1384.285572 16.19173 
L 1389.474457 4.625321 
L 1393.551172 -1 
" clip-path="url(#p3c9265ee47)" style="fill: none; stroke: #7a7a7a; stroke-width: 3; stroke-linecap: square"/>
   </g>
   <g id="line2d_99">
    <path d="M 1298.321283 -1 
L 1291.797213 3.399742 
L 1278.754882 9.068048 
L 1266.413751 11.442608 
L 1254.703701 10.75322 
L 1243.624732 7.229678 
L 1233.106723 1.178379 
L 1230.492566 -1 
" clip-path="url(#p3c9265ee47)" style="fill: none; stroke: #7a7a7a; stroke-width: 3; stroke-linecap: square"/>
   </g>
   <g id="line2d_100">
    <path clip-path="url(#p3c9265ee47)" style="fill: none; stroke: #7a7a7a; stroke-width: 3; stroke-linecap: square"/>
   </g>
   <g id="line2d_101">
    <path d="M 1190.613967 142.886027 
L 1234.509124 98.611962 
L 1241.80161 90.798891 
L 1247.691695 81.300649 
L 1251.969019 70.270432 
L 1254.212861 58.091234 
L 1254.142741 45.222648 
L 1251.267818 31.894469 
L 1245.377733 18.489691 
L 1236.121886 5.391309 
L 1229.430526 -1 
" clip-path="url(#p3c9265ee47)" style="fill: none; stroke: #7a7a7a; stroke-width: 3; stroke-linecap: square"/>
   </g>
   <g id="line2d_102">
    <path d="M 1204.988579 160.656932 
L 1248.813616 116.306268 
L 1260.102946 104.73986 
L 1269.709394 92.024471 
L 1277.773201 78.543095 
L 1284.224247 64.295731 
L 1289.062531 49.741973 
L 1292.288054 35.035017 
L 1293.900815 20.481258 
L 1293.970935 6.157296 
L 1293.197954 -1 
" clip-path="url(#p3c9265ee47)" style="fill: none; stroke: #7a7a7a; stroke-width: 3; stroke-linecap: square"/>
   </g>
   <g id="line2d_103">
    <path d="M 1334.676774 -1 
L 1329.381565 10.14043 
L 1325.244482 23.315411 
L 1322.79028 37.486176 
L 1322.159199 52.34633 
L 1323.28112 67.436279 
L 1326.296283 82.679426 
L 1331.204687 97.53958 
L 1338.076453 111.863542 
L 1347.05182 125.344918 
L 1358.13079 137.524116 
" clip-path="url(#p3c9265ee47)" style="fill: none; stroke: #7a7a7a; stroke-width: 3; stroke-linecap: square"/>
   </g>
   <g id="line2d_104">
    <path d="M 1309.213499 -1 
L 1302.876183 12.131997 
L 1297.336698 26.915552 
L 1293.199614 42.311896 
L 1290.324692 57.938037 
L 1288.711931 73.640776 
L 1288.50157 89.113719 
L 1289.553371 104.203669 
L 1291.937453 118.60423 
L 1295.653816 132.085606 
L 1300.702461 144.4946 
L 1307.013266 155.524817 
L 1314.656353 164.869862 
L 1323.63172 172.453136 
" clip-path="url(#p3c9265ee47)" style="fill: none; stroke: #7a7a7a; stroke-width: 3; stroke-linecap: square"/>
   </g>
   <g id="line2d_105">
    <path d="M 1358.13079 137.524116 
L 1347.472541 122.893759 
L 1336.463691 110.484765 
L 1325.034122 100.373733 
L 1313.464312 92.407465 
L 1301.684142 86.66256 
L 1289.903972 83.139019 
L 1278.193922 81.83684 
L 1266.694232 82.832624 
L 1255.404902 85.973172 
L 1244.466173 91.335083 
L 1234.018284 98.994955 
L 1224.131355 108.876191 
L 1190.613967 142.886027 
" clip-path="url(#p3c9265ee47)" style="fill: none; stroke: #7a7a7a; stroke-width: 3; stroke-linecap: square"/>
   </g>
   <g id="line2d_106">
    <path d="M 1400.623546 94.092637 
L 1391.087218 82.909222 
L 1380.779569 73.104585 
L 1369.77072 64.602126 
L 1358.27103 57.555043 
L 1346.21038 51.963336 
L 1333.799129 47.750406 
L 1321.107398 45.06945 
L 1308.135187 43.920469 
L 1295.092856 44.303463 
L 1281.980405 46.218431 
L 1268.938074 49.741973 
L 1256.035983 54.874088 
L 1243.344252 61.691374 
L 1231.003121 70.193833 
L 1219.082711 80.381464 
L 1207.653141 92.254267 
L 1174.135753 126.340702 
" clip-path="url(#p3c9265ee47)" style="fill: none; stroke: #7a7a7a; stroke-width: 3; stroke-linecap: square"/>
   </g>
   <g id="line2d_107">
    <path d="M 1228.882169 -1 
L 1233.807924 4.08913 
L 1245.938694 12.744787 
L 1258.840785 18.872685 
L 1272.093476 22.549424 
L 1285.205928 23.775004 
L 1297.617178 22.626023 
L 1308.766268 19.17908 
L 1318.302596 13.357577 
L 1325.595082 5.238111 
L 1331.768591 -1 
" clip-path="url(#p3c9265ee47)" style="fill: none; stroke: #7a7a7a; stroke-width: 3; stroke-linecap: square"/>
   </g>
   <g id="line2d_108">
    <path d="M 1191.385287 23.698405 
L 1221.747273 41.699106 
L 1237.454167 48.133399 
L 1253.932381 51.197349 
L 1266.974712 52.805922 
L 1280.648124 54.1081 
L 1294.672136 50.584559 
L 1307.223626 44.533259 
L 1319.775117 38.558558 
L 1330.994327 31.051883 
L 1340.600775 22.089832 
L 1363.451488 -1 
" clip-path="url(#p3c9265ee47)" style="fill: none; stroke: #7a7a7a; stroke-width: 3; stroke-linecap: square"/>
   </g>
   <g id="line2d_109">
    <path d="M 1204.988579 160.656932 
L 1220.765592 144.724397 
L 1232.265282 133.540982 
L 1245.167373 124.808727 
L 1259.051145 118.221236 
L 1273.495877 113.931708 
L 1288.08085 111.710344 
L 1302.525582 111.480548 
L 1316.339234 113.16572 
L 1329.171205 116.689262 
L 1340.670895 122.051173 
L 1350.417583 129.021657 
L 1358.13079 137.524116 
" clip-path="url(#p3c9265ee47)" style="fill: none; stroke: #7a7a7a; stroke-width: 3; stroke-linecap: square"/>
   </g>
   <g id="line2d_110">
    <path d="M 1217.96079 175.900079 
L 1233.737803 159.967544 
L 1242.011971 154.682231 
L 1252.6001 150.622499 
L 1264.73087 148.094741 
L 1277.773201 147.481951 
L 1290.885652 149.32032 
L 1303.367023 153.763047 
L 1314.516113 161.346321 
L 1323.63172 172.453136 
" clip-path="url(#p3c9265ee47)" style="fill: none; stroke: #7a7a7a; stroke-width: 3; stroke-linecap: square"/>
   </g>
   <g id="line2d_111">
    <path d="M 1227.730347 -1 
L 1238.505968 12.438392 
L 1242.222331 22.396227 
L 1240.679689 47.827005 
L 1235.280445 63.682941 
L 1221.466793 77.547311 
L 1174.135753 126.340702 
" clip-path="url(#p3c9265ee47)" style="fill: none; stroke: #7a7a7a; stroke-width: 3; stroke-linecap: square"/>
   </g>
   <g id="line2d_112">
    <path d="M 1191.385287 23.698405 
L 1202.884977 36.796788 
L 1204.918459 42.541692 
L 1205.83002 44.533259 
L 1207.512901 48.975985 
L 1207.723261 50.50796 
L 1208.424462 52.576126 
L 1207.583021 64.448929 
L 1202.113656 73.257783 
L 1198.257053 77.087719 
L 1197.415612 78.006904 
L 1160.672701 114.544497 
" clip-path="url(#p3c9265ee47)" style="fill: none; stroke: #7a7a7a; stroke-width: 3; stroke-linecap: square"/>
   </g>
   <g id="line2d_113">
    <path d="M 1194.485635 166.741557 
L 1334.81991 38.299364 
" clip-path="url(#p3c9265ee47)" style="fill: none; stroke-dasharray: 32,8,5,8; stroke-dashoffset: 0; stroke: #1e90ff; stroke-width: 5"/>
   </g>
   <g id="line2d_114">
    <path d="M 478.656717 920.327369 
L 797.634513 586.795633 
" clip-path="url(#p3c9265ee47)" style="fill: none; stroke-dasharray: 32,8,5,8; stroke-dashoffset: 0; stroke: #1e90ff; stroke-width: 5"/>
   </g>
   <g id="line2d_115">
    <path d="M 140.24012 1210.203813 
L 503.893776 888.942648 
" clip-path="url(#p3c9265ee47)" style="fill: none; stroke-dasharray: 32,8,5,8; stroke-dashoffset: 0; stroke: #1e90ff; stroke-width: 5"/>
   </g>
   <g id="line2d_116">
    <path d="M 794.027507 566.199439 
L 1032.466526 304.992351 
" clip-path="url(#p3c9265ee47)" style="fill: none; stroke-dasharray: 32,8,5,8; stroke-dashoffset: 0; stroke: #1e90ff; stroke-width: 5"/>
   </g>
   <g id="line2d_117">
    <path d="M 1194.485635 166.741557 
" clip-path="url(#p3c9265ee47)" style="fill: none; stroke: #0000ff; stroke-width: 1.5; stroke-linecap: square"/>
    <defs>
     <path id="ma642d92dcd" d="M 0 10 
C 2.652031 10 5.195799 8.946337 7.071068 7.071068 
C 8.946337 5.195799 10 2.652031 10 0 
C 10 -2.652031 8.946337 -5.195799 7.071068 -7.071068 
C 5.195799 -8.946337 2.652031 -10 0 -10 
C -2.652031 -10 -5.195799 -8.946337 -7.071068 -7.071068 
C -8.946337 -5.195799 -10 -2.652031 -10 0 
C -10 2.652031 -8.946337 5.195799 -7.071068 7.071068 
C -5.195799 8.946337 -2.652031 10 0 10 
z
" style="stroke: #0000ff"/>
    </defs>
    <g clip-path="url(#p3c9265ee47)">
     <use xlink:href="#ma642d92dcd" x="1194.485635" y="166.741557" style="fill: #0000ff; stroke: #0000ff"/>
    </g>
   </g>
   <g id="line2d_118">
    <path d="M 478.656717 920.327369 
" clip-path="url(#p3c9265ee47)" style="fill: none; stroke: #0000ff; stroke-width: 1.5; stroke-linecap: square"/>
    <g clip-path="url(#p3c9265ee47)">
     <use xlink:href="#ma642d92dcd" x="478.656717" y="920.327369" style="fill: #0000ff; stroke: #0000ff"/>
    </g>
   </g>
   <g id="line2d_119">
    <path d="M 140.24012 1210.203813 
" clip-path="url(#p3c9265ee47)" style="fill: none; stroke: #0000ff; stroke-width: 1.5; stroke-linecap: square"/>
    <g clip-path="url(#p3c9265ee47)">
     <use xlink:href="#ma642d92dcd" x="140.24012" y="1210.203813" style="fill: #0000ff; stroke: #0000ff"/>
    </g>
   </g>
   <g id="line2d_120">
    <path d="M 794.027507 566.199439 
" clip-path="url(#p3c9265ee47)" style="fill: none; stroke: #0000ff; stroke-width: 1.5; stroke-linecap: square"/>
    <g clip-path="url(#p3c9265ee47)">
     <use xlink:href="#ma642d92dcd" x="794.027507" y="566.199439" style="fill: #0000ff; stroke: #0000ff"/>
    </g>
   </g>
   <g id="line2d_121">
    <path d="M 1334.81991 38.299364 
" clip-path="url(#p3c9265ee47)" style="fill: none; stroke: #ff0000; stroke-width: 1.5; stroke-linecap: square"/>
    <defs>
     <path id="mf006a7c064" d="M 0 -10 
L -2.24514 -3.09017 
L -9.510565 -3.09017 
L -3.632713 1.18034 
L -5.877853 8.09017 
L -0 3.81966 
L 5.877853 8.09017 
L 3.632713 1.18034 
L 9.510565 -3.09017 
L 2.24514 -3.09017 
z
" style="stroke: #ff0000; stroke-linejoin: bevel"/>
    </defs>
    <g clip-path="url(#p3c9265ee47)">
     <use xlink:href="#mf006a7c064" x="1334.81991" y="38.299364" style="fill: #ff0000; stroke: #ff0000; stroke-linejoin: bevel"/>
    </g>
   </g>
   <g id="line2d_122">
    <path d="M 797.634513 586.795633 
" clip-path="url(#p3c9265ee47)" style="fill: none; stroke: #ff0000; stroke-width: 1.5; stroke-linecap: square"/>
    <g clip-path="url(#p3c9265ee47)">
     <use xlink:href="#mf006a7c064" x="797.634513" y="586.795633" style="fill: #ff0000; stroke: #ff0000; stroke-linejoin: bevel"/>
    </g>
   </g>
   <g id="line2d_123">
    <path d="M 503.893776 888.942648 
" clip-path="url(#p3c9265ee47)" style="fill: none; stroke: #ff0000; stroke-width: 1.5; stroke-linecap: square"/>
    <g clip-path="url(#p3c9265ee47)">
     <use xlink:href="#mf006a7c064" x="503.893776" y="888.942648" style="fill: #ff0000; stroke: #ff0000; stroke-linejoin: bevel"/>
    </g>
   </g>
   <g id="line2d_124">
    <path d="M 1032.466526 304.992351 
" clip-path="url(#p3c9265ee47)" style="fill: none; stroke: #ff0000; stroke-width: 1.5; stroke-linecap: square"/>
    <g clip-path="url(#p3c9265ee47)">
     <use xlink:href="#mf006a7c064" x="1032.466526" y="304.992351" style="fill: #ff0000; stroke: #ff0000; stroke-linejoin: bevel"/>
    </g>
   </g>
  </g>
 </g>
 <defs>
  <clipPath id="p3c9265ee47">
   <rect x="0" y="0" width="1440" height="1440"/>
  </clipPath>
 </defs>
</svg>
