<?xml version="1.0" encoding="utf-8" standalone="no"?>
<!DOCTYPE svg PUBLIC "-//W3C//DTD SVG 1.1//EN"
  "http://www.w3.org/Graphics/SVG/1.1/DTD/svg11.dtd">
<svg xmlns:xlink="http://www.w3.org/1999/xlink" width="1440pt" height="1440pt" viewBox="0 0 1440 1440" xmlns="http://www.w3.org/2000/svg" version="1.1">
 <metadata>
  <rdf:RDF xmlns:dc="http://purl.org/dc/elements/1.1/" xmlns:cc="http://creativecommons.org/ns#" xmlns:rdf="http://www.w3.org/1999/02/22-rdf-syntax-ns#">
   <cc:Work>
    <dc:type rdf:resource="http://purl.org/dc/dcmitype/StillImage"/>
    <dc:date>2026-02-27T11:10:04.246333</dc:date>
    <dc:format>image/svg+xml</dc:format>
    <dc:creator>
     <cc:Agent>
      <dc:title>Matplotlib v3.7.3, https://matplotlib.org/</dc:title>
     </cc:Agent>
    </dc:creator>
   </cc:Work>
  </rdf:RDF>
 </metadata>
 <defs>
  <style type="text/css">*{stroke-linejoin: round; stroke-linecap: butt}</style>
 </defs>
 <g id="figure_1">
  <g id="patch_1">
   <path d="M 0 1440 
L 1440 1440 
L 1440 0 
L 0 0 
z
" style="fill: #ffffff"/>
  </g>
  <g id="axes_1">
   <g id="line2d_1">
    <path d="M 992.218451 284.783573 
L 992.039284 284.973731 
L 991.442059 285.449124 
L 888.779114 378.531165 
L 867.756801 397.737061 
L 733.321496 520.00826 
L 635.018292 610.428097 
L 634.71968 610.713333 
L 633.883565 611.473963 
" clip-path="url(#pffd6534659)" style="fill: none; stroke: #7a7a7a; stroke-width: 3; stroke-linecap: square"/>
   </g>
   <g id="line2d_2">
    <path d="M 992.218451 245.70623 
L 992.039284 245.896388 
L 991.442059 246.371781 
L 635.018292 571.63599 
L 634.659957 571.921226 
L 633.883565 572.681856 
" clip-path="url(#pffd6534659)" style="fill: none; stroke: #7a7a7a; stroke-width: 3; stroke-linecap: square"/>
   </g>
   <g id="line2d_3">
    <path d="M 992.218451 245.70623 
L 992.039284 245.896388 
L 991.442059 246.371781 
L 635.018292 571.63599 
L 634.659957 571.921226 
L 633.883565 572.681856 
" clip-path="url(#pffd6534659)" style="fill: none; stroke: #7a7a7a; stroke-width: 3; stroke-linecap: square"/>
   </g>
   <g id="line2d_4">
    <path d="M 992.218451 210.241878 
L 992.039284 210.336957 
L 991.442059 210.907429 
L 934.765424 261.679451 
L 892.601353 301.137108 
L 734.575668 444.040384 
L 635.018292 535.791323 
L 634.659957 536.076559 
L 633.883565 536.837188 
" clip-path="url(#pffd6534659)" style="fill: none; stroke: #7a7a7a; stroke-width: 3; stroke-linecap: square"/>
   </g>
   <g id="line2d_5">
    <path d="M 633.883565 625.260373 
L 634.71968 624.499743 
L 635.078015 624.214507 
L 795.074541 477.888399 
L 894.93053 385.281752 
L 991.382336 299.235535 
L 991.979561 298.760141 
L 992.218451 298.569984 
" clip-path="url(#pffd6534659)" style="fill: none; stroke: #7a7a7a; stroke-width: 3; stroke-linecap: square"/>
   </g>
   <g id="line2d_6">
    <path d="M 633.883565 663.006614 
L 634.779402 662.150906 
L 635.078015 661.86567 
L 791.371747 522.099991 
L 991.442059 341.925868 
L 991.979561 341.450474 
L 992.218451 341.165238 
" clip-path="url(#pffd6534659)" style="fill: none; stroke: #7a7a7a; stroke-width: 3; stroke-linecap: square"/>
   </g>
   <g id="line2d_7">
    <path d="M 849.840056 584.851928 
L 950.293269 525.522824 
" clip-path="url(#pffd6534659)" style="fill: none; stroke: #7a7a7a; stroke-width: 3; stroke-linecap: square"/>
   </g>
   <g id="line2d_8">
    <path d="M 859.933156 620.886753 
L 913.026441 587.323974 
L 926.822334 577.721026 
L 956.922465 559.656075 
" clip-path="url(#pffd6534659)" style="fill: none; stroke: #7a7a7a; stroke-width: 3; stroke-linecap: square"/>
   </g>
   <g id="line2d_9">
    <path d="M 633.883565 663.006614 
L 634.779402 662.150906 
L 635.078015 661.86567 
L 791.371747 522.099991 
L 991.442059 341.925868 
L 991.979561 341.450474 
L 992.218451 341.165238 
" clip-path="url(#pffd6534659)" style="fill: none; stroke: #7a7a7a; stroke-width: 3; stroke-linecap: square"/>
   </g>
   <g id="line2d_10">
    <path d="M 633.883565 702.749508 
L 634.122455 702.55935 
L 634.839125 701.8938 
L 635.19746 701.513485 
L 859.992878 497.569688 
L 991.501781 377.675456 
L 991.979561 377.200063 
L 992.218451 377.009905 
" clip-path="url(#pffd6534659)" style="fill: none; stroke: #7a7a7a; stroke-width: 3; stroke-linecap: square"/>
   </g>
   <g id="line2d_11">
    <path d="M 633.883565 719.768594 
L 634.122455 719.578436 
L 634.839125 719.103043 
L 635.257182 718.912886 
L 849.840056 584.851928 
" clip-path="url(#pffd6534659)" style="fill: none; stroke: #7a7a7a; stroke-width: 3; stroke-linecap: square"/>
   </g>
   <g id="line2d_12">
    <path d="M 633.883565 764.170344 
L 634.2419 763.980186 
L 634.95857 763.504793 
L 635.316905 763.219557 
L 689.903252 726.709338 
L 758.46466 684.779635 
L 859.933156 620.886753 
" clip-path="url(#pffd6534659)" style="fill: none; stroke: #7a7a7a; stroke-width: 3; stroke-linecap: square"/>
   </g>
   <g id="line2d_13">
    <path d="M 1292.818604 -1 
L 1272.914112 9.720914 
L 1251.712631 21.890987 
L 1221.911113 42.998457 
L 1156.574719 95.576974 
L 992.755953 245.230837 
L 992.517063 245.420994 
L 992.218451 245.70623 
" clip-path="url(#pffd6534659)" style="fill: none; stroke: #7a7a7a; stroke-width: 3; stroke-linecap: square"/>
   </g>
   <g id="line2d_14">
    <path d="M 1228.296124 -1 
L 1201.12769 20.084492 
L 1143.85383 70.951593 
L 1123.607909 90.632882 
L 1048.178416 160.515721 
L 992.755953 209.766484 
L 992.517063 209.956642 
L 992.218451 210.241878 
" clip-path="url(#pffd6534659)" style="fill: none; stroke: #7a7a7a; stroke-width: 3; stroke-linecap: square"/>
   </g>
   <g id="line2d_15">
    <path d="M 992.218451 341.165238 
L 992.576786 340.880002 
L 992.755953 340.689845 
L 1018.376898 315.684148 
L 1153.23026 192.65232 
L 1228.480586 129.044674 
L 1290.353076 86.639577 
L 1364.11034 47.84747 
L 1420.90642 27.880945 
L 1441 21.608562 
" clip-path="url(#pffd6534659)" style="fill: none; stroke: #7a7a7a; stroke-width: 3; stroke-linecap: square"/>
   </g>
   <g id="line2d_16">
    <path d="M 992.218451 377.009905 
L 992.636508 376.629591 
L 992.815676 376.439433 
L 1060.421524 316.825093 
L 1121.816235 260.633585 
L 1217.551372 177.059414 
L 1256.132095 147.299783 
L 1286.232225 126.097235 
L 1318.243475 106.79626 
L 1345.954706 91.773826 
L 1373.427047 78.748045 
L 1434.702313 56.975025 
L 1441 55.155364 
" clip-path="url(#pffd6534659)" style="fill: none; stroke: #7a7a7a; stroke-width: 3; stroke-linecap: square"/>
   </g>
   <g id="line2d_17">
    <path d="M 992.218451 298.569984 
L 992.517063 298.284748 
L 992.755953 298.09459 
L 1151.378863 155.476551 
L 1199.276293 114.687791 
L 1232.959772 90.06241 
L 1274.347451 61.824038 
L 1338.847731 25.789213 
L 1379.877075 6.488239 
L 1401.631422 -1 
" clip-path="url(#pffd6534659)" style="fill: none; stroke: #7a7a7a; stroke-width: 3; stroke-linecap: square"/>
   </g>
   <g id="line2d_18">
    <path d="M 992.218451 341.165238 
L 992.576786 340.880002 
L 992.755953 340.689845 
L 1018.376898 315.684148 
L 1153.23026 192.65232 
L 1228.480586 129.044674 
L 1290.353076 86.639577 
L 1364.11034 47.84747 
L 1420.90642 27.880945 
L 1441 21.608562 
" clip-path="url(#pffd6534659)" style="fill: none; stroke: #7a7a7a; stroke-width: 3; stroke-linecap: square"/>
   </g>
   <g id="line2d_19">
    <path d="M 1377.746061 -1 
L 1366.081182 4.016193 
L 1336.458831 19.133705 
L 1309.22538 33.775824 
L 1281.275259 49.463808 
L 1253.38486 66.863209 
L 1230.98893 81.220091 
L 1206.502713 99.665358 
L 1188.227634 114.212398 
L 1156.156661 140.739353 
L 1104.436993 186.852519 
L 992.755953 284.30818 
L 992.576786 284.498337 
L 992.218451 284.783573 
" clip-path="url(#pffd6534659)" style="fill: none; stroke: #7a7a7a; stroke-width: 3; stroke-linecap: square"/>
   </g>
   <g id="line2d_20">
    <path d="M 1292.818604 -1 
L 1272.914112 9.720914 
L 1251.712631 21.890987 
L 1221.911113 42.998457 
L 1156.574719 95.576974 
L 992.755953 245.230837 
L 992.517063 245.420994 
L 992.218451 245.70623 
" clip-path="url(#pffd6534659)" style="fill: none; stroke: #7a7a7a; stroke-width: 3; stroke-linecap: square"/>
   </g>
   <g id="line2d_21">
    <path d="M 105.996556 1140.777047 
L 523.51642 764.360501 
" clip-path="url(#pffd6534659)" style="fill: none; stroke: #7a7a7a; stroke-width: 3; stroke-linecap: square"/>
   </g>
   <g id="line2d_22">
    <path d="M 108.146565 1177.002029 
L 414.881227 899.562402 
L 532.773405 794.025053 
" clip-path="url(#pffd6534659)" style="fill: none; stroke: #7a7a7a; stroke-width: 3; stroke-linecap: square"/>
   </g>
   <g id="line2d_23">
    <path d="M 633.883565 572.681856 
L 633.584953 572.967092 
L 365.610181 815.988231 
" clip-path="url(#pffd6534659)" style="fill: none; stroke: #7a7a7a; stroke-width: 3; stroke-linecap: square"/>
   </g>
   <g id="line2d_24">
    <path d="M 633.883565 536.837188 
L 633.584953 537.027346 
L 355.636526 788.795725 
" clip-path="url(#pffd6534659)" style="fill: none; stroke: #7a7a7a; stroke-width: 3; stroke-linecap: square"/>
   </g>
   <g id="line2d_25">
    <path d="M 533.13174 794.120132 
L 577.9236 759.511488 
L 633.584953 720.05383 
L 633.883565 719.768594 
" clip-path="url(#pffd6534659)" style="fill: none; stroke: #7a7a7a; stroke-width: 3; stroke-linecap: square"/>
   </g>
   <g id="line2d_26">
    <path d="M 543.105394 832.151609 
L 577.266653 804.483709 
L 633.584953 764.45558 
L 633.883565 764.170344 
" clip-path="url(#pffd6534659)" style="fill: none; stroke: #7a7a7a; stroke-width: 3; stroke-linecap: square"/>
   </g>
   <g id="line2d_27">
    <path d="M 515.09555 734.886106 
L 633.584953 625.545609 
L 633.883565 625.260373 
" clip-path="url(#pffd6534659)" style="fill: none; stroke: #7a7a7a; stroke-width: 3; stroke-linecap: square"/>
   </g>
   <g id="line2d_28">
    <path d="M 523.51642 764.360501 
L 633.584953 663.29185 
L 633.883565 663.006614 
" clip-path="url(#pffd6534659)" style="fill: none; stroke: #7a7a7a; stroke-width: 3; stroke-linecap: square"/>
   </g>
   <g id="line2d_29">
    <path d="M 104.682661 1103.696356 
L 153.416206 1061.196181 
L 185.78579 1031.43655 
L 334.136433 899.467324 
L 364.714343 872.369896 
L 401.682559 837.856331 
L 459.673088 784.80242 
L 515.09555 734.886106 
" clip-path="url(#pffd6534659)" style="fill: none; stroke: #7a7a7a; stroke-width: 3; stroke-linecap: square"/>
   </g>
   <g id="line2d_30">
    <path d="M 105.996556 1140.777047 
L 523.51642 764.360501 
" clip-path="url(#pffd6534659)" style="fill: none; stroke: #7a7a7a; stroke-width: 3; stroke-linecap: square"/>
   </g>
   <g id="line2d_31">
    <path d="M 523.51642 764.360501 
L 633.584953 663.29185 
L 633.883565 663.006614 
" clip-path="url(#pffd6534659)" style="fill: none; stroke: #7a7a7a; stroke-width: 3; stroke-linecap: square"/>
   </g>
   <g id="line2d_32">
    <path d="M 532.773405 794.025053 
L 633.584953 703.034744 
L 633.883565 702.749508 
" clip-path="url(#pffd6534659)" style="fill: none; stroke: #7a7a7a; stroke-width: 3; stroke-linecap: square"/>
   </g>
   <g id="line2d_33">
    <path d="M 633.883565 611.473963 
L 633.584953 611.759199 
L 375.70328 844.226603 
" clip-path="url(#pffd6534659)" style="fill: none; stroke: #7a7a7a; stroke-width: 3; stroke-linecap: square"/>
   </g>
   <g id="line2d_34">
    <path d="M 633.883565 572.681856 
L 633.584953 572.967092 
L 365.610181 815.988231 
" clip-path="url(#pffd6534659)" style="fill: none; stroke: #7a7a7a; stroke-width: 3; stroke-linecap: square"/>
   </g>
   <g id="line2d_35">
    <path d="M 105.996556 1140.777047 
L 533.13174 794.120132 
" clip-path="url(#pffd6534659)" style="fill: none; stroke: #7a7a7a; stroke-width: 3; stroke-linecap: square"/>
   </g>
   <g id="line2d_36">
    <path d="M 108.146565 1177.002029 
L 182.560776 1123.09241 
L 412.432606 936.357857 
L 416.195122 933.315338 
L 543.105394 832.151609 
" clip-path="url(#pffd6534659)" style="fill: none; stroke: #7a7a7a; stroke-width: 3; stroke-linecap: square"/>
   </g>
   <g id="line2d_37">
    <path clip-path="url(#pffd6534659)" style="fill: none; stroke: #7a7a7a; stroke-width: 3; stroke-linecap: square"/>
   </g>
   <g id="line2d_38">
    <path clip-path="url(#pffd6534659)" style="fill: none; stroke: #7a7a7a; stroke-width: 3; stroke-linecap: square"/>
   </g>
   <g id="line2d_39">
    <path clip-path="url(#pffd6534659)" style="fill: none; stroke: #7a7a7a; stroke-width: 3; stroke-linecap: square"/>
   </g>
   <g id="line2d_40">
    <path clip-path="url(#pffd6534659)" style="fill: none; stroke: #7a7a7a; stroke-width: 3; stroke-linecap: square"/>
   </g>
   <g id="line2d_41">
    <path clip-path="url(#pffd6534659)" style="fill: none; stroke: #7a7a7a; stroke-width: 3; stroke-linecap: square"/>
   </g>
   <g id="line2d_42">
    <path clip-path="url(#pffd6534659)" style="fill: none; stroke: #7a7a7a; stroke-width: 3; stroke-linecap: square"/>
   </g>
   <g id="line2d_43">
    <path clip-path="url(#pffd6534659)" style="fill: none; stroke: #7a7a7a; stroke-width: 3; stroke-linecap: square"/>
   </g>
   <g id="line2d_44">
    <path clip-path="url(#pffd6534659)" style="fill: none; stroke: #7a7a7a; stroke-width: 3; stroke-linecap: square"/>
   </g>
   <g id="line2d_45">
    <path clip-path="url(#pffd6534659)" style="fill: none; stroke: #7a7a7a; stroke-width: 3; stroke-linecap: square"/>
   </g>
   <g id="line2d_46">
    <path clip-path="url(#pffd6534659)" style="fill: none; stroke: #7a7a7a; stroke-width: 3; stroke-linecap: square"/>
   </g>
   <g id="line2d_47">
    <path clip-path="url(#pffd6534659)" style="fill: none; stroke: #7a7a7a; stroke-width: 3; stroke-linecap: square"/>
   </g>
   <g id="line2d_48">
    <path clip-path="url(#pffd6534659)" style="fill: none; stroke: #7a7a7a; stroke-width: 3; stroke-linecap: square"/>
   </g>
   <g id="line2d_49">
    <path d="M 723.120266 604.240647 
L 1129.308957 241.84714 
" clip-path="url(#pffd6534659)" style="fill: none; stroke-dasharray: 32,8,5,8; stroke-dashoffset: 0; stroke: #1e90ff; stroke-width: 5"/>
   </g>
   <g id="line2d_50">
    <path d="M 119.444962 1154.763921 
L 515.217212 809.333001 
" clip-path="url(#pffd6534659)" style="fill: none; stroke-dasharray: 32,8,5,8; stroke-dashoffset: 0; stroke: #1e90ff; stroke-width: 5"/>
   </g>
   <g id="line2d_51">
    <path d="M 1044.732242 220.230433 
L 1136.304769 89.826849 
" clip-path="url(#pffd6534659)" style="fill: none; stroke-dasharray: 32,8,5,8; stroke-dashoffset: 0; stroke: #1e90ff; stroke-width: 5"/>
   </g>
   <g id="line2d_52">
    <path d="M 413.971859 879.665932 
L 828.185758 510.515247 
" clip-path="url(#pffd6534659)" style="fill: none; stroke-dasharray: 32,8,5,8; stroke-dashoffset: 0; stroke: #1e90ff; stroke-width: 5"/>
   </g>
   <g id="line2d_53">
    <path d="M 723.120266 604.240647 
" clip-path="url(#pffd6534659)" style="fill: none; stroke: #0000ff; stroke-width: 1.5; stroke-linecap: square"/>
    <defs>
     <path id="m72a6794af7" d="M 0 10 
C 2.652031 10 5.195799 8.946337 7.071068 7.071068 
C 8.946337 5.195799 10 2.652031 10 0 
C 10 -2.652031 8.946337 -5.195799 7.071068 -7.071068 
C 5.195799 -8.946337 2.652031 -10 0 -10 
C -2.652031 -10 -5.195799 -8.946337 -7.071068 -7.071068 
C -8.946337 -5.195799 -10 -2.652031 -10 0 
C -10 2.652031 -8.946337 5.195799 -7.071068 7.071068 
C -5.195799 8.946337 -2.652031 10 0 10 
z
" style="stroke: #0000ff"/>
    </defs>
    <g clip-path="url(#pffd6534659)">
     <use xlink:href="#m72a6794af7" x="723.120266" y="604.240647" style="fill: #0000ff; stroke: #0000ff"/>
    </g>
   </g>
   <g id="line2d_54">
    <path d="M 119.444962 1154.763921 
" clip-path="url(#pffd6534659)" style="fill: none; stroke: #0000ff; stroke-width: 1.5; stroke-linecap: square"/>
    <g clip-path="url(#pffd6534659)">
     <use xlink:href="#m72a6794af7" x="119.444962" y="1154.763921" style="fill: #0000ff; stroke: #0000ff"/>
    </g>
   </g>
   <g id="line2d_55">
    <path d="M 1044.732242 220.230433 
" clip-path="url(#pffd6534659)" style="fill: none; stroke: #0000ff; stroke-width: 1.5; stroke-linecap: square"/>
    <g clip-path="url(#pffd6534659)">
     <use xlink:href="#m72a6794af7" x="1044.732242" y="220.230433" style="fill: #0000ff; stroke: #0000ff"/>
    </g>
   </g>
   <g id="line2d_56">
    <path d="M 413.971859 879.665932 
" clip-path="url(#pffd6534659)" style="fill: none; stroke: #0000ff; stroke-width: 1.5; stroke-linecap: square"/>
    <g clip-path="url(#pffd6534659)">
     <use xlink:href="#m72a6794af7" x="413.971859" y="879.665932" style="fill: #0000ff; stroke: #0000ff"/>
    </g>
   </g>
   <g id="line2d_57">
    <path d="M 1129.308957 241.84714 
" clip-path="url(#pffd6534659)" style="fill: none; stroke: #ff0000; stroke-width: 1.5; stroke-linecap: square"/>
    <defs>
     <path id="m11173c3308" d="M 0 -10 
L -2.24514 -3.09017 
L -9.510565 -3.09017 
L -3.632713 1.18034 
L -5.877853 8.09017 
L -0 3.81966 
L 5.877853 8.09017 
L 3.632713 1.18034 
L 9.510565 -3.09017 
L 2.24514 -3.09017 
z
" style="stroke: #ff0000; stroke-linejoin: bevel"/>
    </defs>
    <g clip-path="url(#pffd6534659)">
     <use xlink:href="#m11173c3308" x="1129.308957" y="241.84714" style="fill: #ff0000; stroke: #ff0000; stroke-linejoin: bevel"/>
    </g>
   </g>
   <g id="line2d_58">
    <path d="M 515.217212 809.333001 
" clip-path="url(#pffd6534659)" style="fill: none; stroke: #ff0000; stroke-width: 1.5; stroke-linecap: square"/>
    <g clip-path="url(#pffd6534659)">
     <use xlink:href="#m11173c3308" x="515.217212" y="809.333001" style="fill: #ff0000; stroke: #ff0000; stroke-linejoin: bevel"/>
    </g>
   </g>
   <g id="line2d_59">
    <path d="M 1136.304769 89.826849 
" clip-path="url(#pffd6534659)" style="fill: none; stroke: #ff0000; stroke-width: 1.5; stroke-linecap: square"/>
    <g clip-path="url(#pffd6534659)">
     <use xlink:href="#m11173c3308" x="1136.304769" y="89.826849" style="fill: #ff0000; stroke: #ff0000; stroke-linejoin: bevel"/>
    </g>
   </g>
   <g id="line2d_60">
    <path d="M 828.185758 510.515247 
" clip-path="url(#pffd6534659)" style="fill: none; stroke: #ff0000; stroke-width: 1.5; stroke-linecap: square"/>
    <g clip-path="url(#pffd6534659)">
     <use xlink:href="#m11173c3308" x="828.185758" y="510.515247" style="fill: #ff0000; stroke: #ff0000; stroke-linejoin: bevel"/>
    </g>
   </g>
  </g>
 </g>
 <defs>
  <clipPath id="pffd6534659">
   <rect x="0" y="0" width="1440" height="1440"/>
  </clipPath>
 </defs>
</svg>
