<?xml version="1.0" encoding="utf-8" standalone="no"?>
<!DOCTYPE svg PUBLIC "-//W3C//DTD SVG 1.1//EN"
  "http://www.w3.org/Graphics/SVG/1.1/DTD/svg11.dtd">
<svg xmlns:xlink="http://www.w3.org/1999/xlink" width="1440pt" height="1440pt" viewBox="0 0 1440 1440" xmlns="http://www.w3.org/2000/svg" version="1.1">
 <metadata>
  <rdf:RDF xmlns:dc="http://purl.org/dc/elements/1.1/" xmlns:cc="http://creativecommons.org/ns#" xmlns:rdf="http://www.w3.org/1999/02/22-rdf-syntax-ns#">
   <cc:Work>
    <dc:type rdf:resource="http://purl.org/dc/dcmitype/StillImage"/>
    <dc:date>2026-02-27T11:10:20.851438</dc:date>
    <dc:format>image/svg+xml</dc:format>
    <dc:creator>
     <cc:Agent>
      <dc:title>Matplotlib v3.7.3, https://matplotlib.org/</dc:title>
     </cc:Agent>
    </dc:creator>
   </cc:Work>
  </rdf:RDF>
 </metadata>
 <defs>
  <style type="text/css">*{stroke-linejoin: round; stroke-linecap: butt}</style>
 </defs>
 <g id="figure_1">
  <g id="patch_1">
   <path d="M 0 1440 
L 1440 1440 
L 1440 0 
L 0 0 
z
" style="fill: #ffffff"/>
  </g>
  <g id="axes_1">
   <g id="line2d_1">
    <path d="M 191.587154 24.152322 
L 164.600523 -1 
" clip-path="url(#p220725edbf)" style="fill: none; stroke: #7a7a7a; stroke-width: 3; stroke-linecap: square"/>
   </g>
   <g id="line2d_2">
    <path clip-path="url(#p220725edbf)" style="fill: none; stroke: #7a7a7a; stroke-width: 3; stroke-linecap: square"/>
   </g>
   <g id="line2d_3">
    <path d="M 176.647655 50.072352 
L 121.660908 -1 
" clip-path="url(#p220725edbf)" style="fill: none; stroke: #7a7a7a; stroke-width: 3; stroke-linecap: square"/>
   </g>
   <g id="line2d_4">
    <path d="M 191.587154 24.152322 
L 164.600523 -1 
" clip-path="url(#p220725edbf)" style="fill: none; stroke: #7a7a7a; stroke-width: 3; stroke-linecap: square"/>
   </g>
   <g id="line2d_5">
    <path d="M 79.288357 -1 
L 161.120648 75.179204 
" clip-path="url(#p220725edbf)" style="fill: none; stroke: #7a7a7a; stroke-width: 3; stroke-linecap: square"/>
   </g>
   <g id="line2d_6">
    <path d="M 25.822388 -1 
L 49.074408 21.407848 
L 120.078992 87.885101 
L 140.054276 106.893123 
" clip-path="url(#p220725edbf)" style="fill: none; stroke: #7a7a7a; stroke-width: 3; stroke-linecap: square"/>
   </g>
   <g id="line2d_7">
    <path d="M 121.660908 -1 
L 176.647655 50.072352 
" clip-path="url(#p220725edbf)" style="fill: none; stroke: #7a7a7a; stroke-width: 3; stroke-linecap: square"/>
   </g>
   <g id="line2d_8">
    <path d="M 79.288357 -1 
L 161.120648 75.179204 
" clip-path="url(#p220725edbf)" style="fill: none; stroke: #7a7a7a; stroke-width: 3; stroke-linecap: square"/>
   </g>
   <g id="line2d_9">
    <path d="M 1134.034522 913.15852 
L 688.619242 492.644154 
L 688.367452 492.339213 
L 685.178121 489.391445 
L 684.087034 488.374973 
" clip-path="url(#p220725edbf)" style="fill: none; stroke: #7a7a7a; stroke-width: 3; stroke-linecap: square"/>
   </g>
   <g id="line2d_10">
    <path d="M 1151.827633 885.713782 
L 819.71754 571.827304 
L 688.703171 449.139163 
L 688.451382 448.935869 
L 685.178121 445.886453 
L 684.087034 444.869982 
" clip-path="url(#p220725edbf)" style="fill: none; stroke: #7a7a7a; stroke-width: 3; stroke-linecap: square"/>
   </g>
   <g id="line2d_11">
    <path d="M 1439.454948 1243.715135 
L 1313.812085 1124.787939 
" clip-path="url(#p220725edbf)" style="fill: none; stroke: #7a7a7a; stroke-width: 3; stroke-linecap: square"/>
   </g>
   <g id="line2d_12">
    <path d="M 1439.454948 1202.649676 
L 1330.17839 1099.274498 
" clip-path="url(#p220725edbf)" style="fill: none; stroke: #7a7a7a; stroke-width: 3; stroke-linecap: square"/>
   </g>
   <g id="line2d_13">
    <path d="M 1313.812085 1124.787939 
L 1439.454948 1243.715135 
" clip-path="url(#p220725edbf)" style="fill: none; stroke: #7a7a7a; stroke-width: 3; stroke-linecap: square"/>
   </g>
   <g id="line2d_14">
    <path d="M 1298.201148 1148.979967 
L 1439.454948 1282.442709 
" clip-path="url(#p220725edbf)" style="fill: none; stroke: #7a7a7a; stroke-width: 3; stroke-linecap: square"/>
   </g>
   <g id="line2d_15">
    <path d="M 684.087034 533.201377 
L 685.262051 534.319496 
L 688.283523 537.165617 
L 688.535312 537.470559 
L 898.107943 734.666079 
L 1117.248568 939.078549 
" clip-path="url(#p220725edbf)" style="fill: none; stroke: #7a7a7a; stroke-width: 3; stroke-linecap: square"/>
   </g>
   <g id="line2d_16">
    <path d="M 684.087034 570.912479 
L 685.262051 571.928951 
L 688.199593 574.775072 
L 688.535312 575.080014 
L 1101.553701 963.473872 
" clip-path="url(#p220725edbf)" style="fill: none; stroke: #7a7a7a; stroke-width: 3; stroke-linecap: square"/>
   </g>
   <g id="line2d_17">
    <path d="M 684.087034 570.912479 
L 685.262051 571.928951 
L 688.199593 574.775072 
L 688.535312 575.080014 
L 1101.553701 963.473872 
" clip-path="url(#p220725edbf)" style="fill: none; stroke: #7a7a7a; stroke-width: 3; stroke-linecap: square"/>
   </g>
   <g id="line2d_18">
    <path d="M 684.087034 619.398182 
L 685.262051 620.516301 
L 688.199593 623.260775 
L 688.451382 623.565716 
L 813.338877 742.18797 
L 818.542523 747.168682 
L 879.559464 805.310866 
L 880.063043 805.412514 
L 934.701322 856.337749 
L 1081.158768 994.171319 
" clip-path="url(#p220725edbf)" style="fill: none; stroke: #7a7a7a; stroke-width: 3; stroke-linecap: square"/>
   </g>
   <g id="line2d_19">
    <path d="M 1117.248568 939.078549 
L 1313.812085 1124.787939 
" clip-path="url(#p220725edbf)" style="fill: none; stroke: #7a7a7a; stroke-width: 3; stroke-linecap: square"/>
   </g>
   <g id="line2d_20">
    <path d="M 1101.553701 963.473872 
L 1298.201148 1148.979967 
" clip-path="url(#p220725edbf)" style="fill: none; stroke: #7a7a7a; stroke-width: 3; stroke-linecap: square"/>
   </g>
   <g id="line2d_21">
    <path d="M 1313.812085 1124.787939 
L 1117.248568 939.078549 
" clip-path="url(#p220725edbf)" style="fill: none; stroke: #7a7a7a; stroke-width: 3; stroke-linecap: square"/>
   </g>
   <g id="line2d_22">
    <path d="M 1330.17839 1099.274498 
L 1209.739173 985.226367 
L 1134.034522 913.15852 
" clip-path="url(#p220725edbf)" style="fill: none; stroke: #7a7a7a; stroke-width: 3; stroke-linecap: square"/>
   </g>
   <g id="line2d_23">
    <path d="M 1330.17839 1099.274498 
L 1286.031332 1057.09092 
L 1272.854358 1042.961963 
L 1261.859559 1028.426417 
L 1253.130863 1013.382635 
L 1246.584341 998.033911 
L 1242.136063 982.380246 
L 1239.78603 966.42164 
L 1239.53424 950.361386 
L 1241.212836 934.097838 
L 1244.821816 917.935937 
L 1250.44511 901.672389 
L 1257.83093 885.612135 
L 1267.063204 869.755176 
" clip-path="url(#p220725edbf)" style="fill: none; stroke: #7a7a7a; stroke-width: 3; stroke-linecap: square"/>
   </g>
   <g id="line2d_24">
    <path d="M 1346.628625 1074.167646 
L 1302.397637 1031.882421 
L 1289.556382 1017.651816 
L 1279.48481 1003.11627 
L 1272.26685 988.174135 
L 1267.902502 972.825412 
L 1266.391766 957.171747 
L 1267.734642 941.111493 
L 1271.847201 924.644651 
L 1278.813372 907.771219 
L 1288.633155 890.592847 
" clip-path="url(#p220725edbf)" style="fill: none; stroke: #7a7a7a; stroke-width: 3; stroke-linecap: square"/>
   </g>
   <g id="line2d_25">
    <path d="M 1439.454948 597.950628 
L 1267.063204 869.755176 
" clip-path="url(#p220725edbf)" style="fill: none; stroke: #7a7a7a; stroke-width: 3; stroke-linecap: square"/>
   </g>
   <g id="line2d_26">
    <path d="M 1439.454948 543.975978 
L 1244.570026 848.00268 
" clip-path="url(#p220725edbf)" style="fill: none; stroke: #7a7a7a; stroke-width: 3; stroke-linecap: square"/>
   </g>
   <g id="line2d_27">
    <path d="M 1117.248568 939.078549 
L 898.107943 734.666079 
L 688.535312 537.470559 
L 688.283523 537.165617 
L 685.262051 534.319496 
L 684.087034 533.201377 
" clip-path="url(#p220725edbf)" style="fill: none; stroke: #7a7a7a; stroke-width: 3; stroke-linecap: square"/>
   </g>
   <g id="line2d_28">
    <path d="M 1134.034522 913.15852 
L 688.619242 492.644154 
L 688.367452 492.339213 
L 685.178121 489.391445 
L 684.087034 488.374973 
" clip-path="url(#p220725edbf)" style="fill: none; stroke: #7a7a7a; stroke-width: 3; stroke-linecap: square"/>
   </g>
   <g id="line2d_29">
    <path d="M 1439.454948 1202.649676 
L 1330.17839 1099.274498 
" clip-path="url(#p220725edbf)" style="fill: none; stroke: #7a7a7a; stroke-width: 3; stroke-linecap: square"/>
   </g>
   <g id="line2d_30">
    <path d="M 1439.454948 1166.768223 
L 1346.628625 1074.167646 
" clip-path="url(#p220725edbf)" style="fill: none; stroke: #7a7a7a; stroke-width: 3; stroke-linecap: square"/>
   </g>
   <g id="line2d_31">
    <path d="M 1298.201148 1148.979967 
L 1439.454948 1282.442709 
" clip-path="url(#p220725edbf)" style="fill: none; stroke: #7a7a7a; stroke-width: 3; stroke-linecap: square"/>
   </g>
   <g id="line2d_32">
    <path d="M 1278.309793 1179.270825 
L 1283.513439 1184.353184 
L 1439.454948 1330.216881 
" clip-path="url(#p220725edbf)" style="fill: none; stroke: #7a7a7a; stroke-width: 3; stroke-linecap: square"/>
   </g>
   <g id="line2d_33">
    <path d="M 1330.17839 1099.274498 
L 1209.739173 985.226367 
L 1134.034522 913.15852 
" clip-path="url(#p220725edbf)" style="fill: none; stroke: #7a7a7a; stroke-width: 3; stroke-linecap: square"/>
   </g>
   <g id="line2d_34">
    <path d="M 1346.628625 1074.167646 
L 1151.827633 885.713782 
" clip-path="url(#p220725edbf)" style="fill: none; stroke: #7a7a7a; stroke-width: 3; stroke-linecap: square"/>
   </g>
   <g id="line2d_35">
    <path d="M 1267.063204 869.755176 
L 1249.941532 896.386736 
L 1240.037819 909.600869 
L 1229.126949 920.477116 
L 1217.292852 928.913832 
L 1204.619457 934.707721 
L 1191.358553 937.350548 
L 1177.510142 936.842312 
L 1163.242081 932.776425 
L 1148.638301 924.949592 
L 1134.034522 913.15852 
" clip-path="url(#p220725edbf)" style="fill: none; stroke: #7a7a7a; stroke-width: 3; stroke-linecap: square"/>
   </g>
   <g id="line2d_36">
    <path d="M 1244.570026 848.00268 
L 1227.364424 874.735887 
L 1218.803588 886.120371 
L 1209.319524 894.760381 
L 1198.996162 900.350976 
L 1188.001363 902.688861 
L 1176.419055 901.2658 
L 1164.333168 895.776853 
L 1151.827633 885.713782 
" clip-path="url(#p220725edbf)" style="fill: none; stroke: #7a7a7a; stroke-width: 3; stroke-linecap: square"/>
   </g>
   <g id="line2d_37">
    <path d="M 1267.063204 869.755176 
L 1439.454948 597.950628 
" clip-path="url(#p220725edbf)" style="fill: none; stroke: #7a7a7a; stroke-width: 3; stroke-linecap: square"/>
   </g>
   <g id="line2d_38">
    <path d="M 1288.633155 890.592847 
L 1439.454948 654.161516 
" clip-path="url(#p220725edbf)" style="fill: none; stroke: #7a7a7a; stroke-width: 3; stroke-linecap: square"/>
   </g>
   <g id="line2d_39">
    <path d="M 1117.248568 939.078549 
L 1132.691645 950.869622 
L 1147.799004 958.49316 
L 1162.570643 962.152458 
L 1176.670844 962.152458 
L 1190.183537 959.001396 
L 1202.856932 952.800918 
L 1214.523169 944.160908 
L 1225.18225 933.183013 
L 1234.582384 920.273822 
L 1267.063204 869.755176 
" clip-path="url(#p220725edbf)" style="fill: none; stroke: #7a7a7a; stroke-width: 3; stroke-linecap: square"/>
   </g>
   <g id="line2d_40">
    <path d="M 1101.553701 963.473872 
L 1115.989621 975.366591 
L 1130.425542 984.311543 
L 1144.861462 990.308726 
L 1159.213452 993.663083 
L 1173.229723 994.47626 
L 1186.910276 992.849905 
L 1200.171179 988.987313 
L 1212.928504 982.990129 
L 1224.930461 975.06165 
L 1236.260979 965.405168 
L 1246.668271 954.020684 
L 1256.152334 941.111493 
L 1288.633155 890.592847 
" clip-path="url(#p220725edbf)" style="fill: none; stroke: #7a7a7a; stroke-width: 3; stroke-linecap: square"/>
   </g>
   <g id="line2d_41">
    <path d="M 1101.553701 963.473872 
L 1298.201148 1148.979967 
" clip-path="url(#p220725edbf)" style="fill: none; stroke: #7a7a7a; stroke-width: 3; stroke-linecap: square"/>
   </g>
   <g id="line2d_42">
    <path d="M 1081.158768 994.171319 
L 1278.309793 1179.270825 
" clip-path="url(#p220725edbf)" style="fill: none; stroke: #7a7a7a; stroke-width: 3; stroke-linecap: square"/>
   </g>
   <g id="line2d_43">
    <path d="M 1267.063204 869.755176 
L 1256.488054 887.035196 
L 1247.591498 903.80698 
L 1240.289608 920.375469 
L 1234.750244 936.53737 
L 1230.889474 952.394329 
L 1228.7073 967.946347 
L 1228.287651 983.295071 
L 1229.630528 998.542147 
L 1232.651999 1013.484282 
L 1237.603856 1028.426417 
L 1244.234307 1043.165257 
L 1252.795144 1057.904098 
L 1263.202435 1072.541291 
L 1275.456181 1087.178484 
L 1289.640312 1101.917325 
L 1313.812085 1124.787939 
" clip-path="url(#p220725edbf)" style="fill: none; stroke: #7a7a7a; stroke-width: 3; stroke-linecap: square"/>
   </g>
   <g id="line2d_44">
    <path d="M 1244.570026 848.00268 
L 1233.659157 866.095877 
L 1224.342952 883.98578 
L 1216.537484 901.672389 
L 1210.410611 919.054056 
L 1205.794473 936.334076 
L 1202.773002 953.410801 
L 1201.346196 970.182585 
L 1201.430126 986.751075 
L 1203.192651 1003.11627 
L 1206.465912 1019.278171 
L 1211.333838 1035.236778 
L 1217.79643 1050.99209 
L 1225.853688 1066.442461 
L 1235.505611 1081.689537 
L 1246.7522 1096.733319 
L 1259.593455 1111.573806 
L 1274.029375 1126.109353 
L 1298.201148 1148.979967 
" clip-path="url(#p220725edbf)" style="fill: none; stroke: #7a7a7a; stroke-width: 3; stroke-linecap: square"/>
   </g>
   <g id="line2d_45">
    <path d="M 684.087034 533.201377 
L 335.107058 201.018407 
" clip-path="url(#p220725edbf)" style="fill: none; stroke: #7a7a7a; stroke-width: 3; stroke-linecap: square"/>
   </g>
   <g id="line2d_46">
    <path d="M 684.087034 488.374973 
L 351.725152 176.318144 
" clip-path="url(#p220725edbf)" style="fill: none; stroke: #7a7a7a; stroke-width: 3; stroke-linecap: square"/>
   </g>
   <g id="line2d_47">
    <path d="M 351.725152 176.318144 
L 341.65358 165.136954 
L 332.169516 153.549176 
L 323.776539 141.249868 
L 316.558579 128.23903 
L 311.019214 114.415014 
L 307.326304 99.574526 
L 305.983428 83.717567 
L 307.074515 66.742488 
L 311.187074 48.445997 
L 318.405034 28.828092 
L 329.148044 7.583832 
" clip-path="url(#p220725edbf)" style="fill: none; stroke: #7a7a7a; stroke-width: 3; stroke-linecap: square"/>
   </g>
   <g id="line2d_48">
    <path d="M 369.014684 150.703055 
L 358.523463 139.725161 
L 349.962627 127.425852 
L 343.583964 113.906778 
L 339.807125 99.371232 
L 339.219616 84.225803 
L 342.073229 68.673785 
L 348.95547 52.816825 
L 360.202058 36.959866 
" clip-path="url(#p220725edbf)" style="fill: none; stroke: #7a7a7a; stroke-width: 3; stroke-linecap: square"/>
   </g>
   <g id="line2d_49">
    <path d="M 684.087034 488.374973 
L 351.725152 176.318144 
" clip-path="url(#p220725edbf)" style="fill: none; stroke: #7a7a7a; stroke-width: 3; stroke-linecap: square"/>
   </g>
   <g id="line2d_50">
    <path d="M 684.087034 444.869982 
L 369.014684 150.703055 
" clip-path="url(#p220725edbf)" style="fill: none; stroke: #7a7a7a; stroke-width: 3; stroke-linecap: square"/>
   </g>
   <g id="line2d_51">
    <path d="M 335.107058 201.018407 
L 176.647655 50.072352 
" clip-path="url(#p220725edbf)" style="fill: none; stroke: #7a7a7a; stroke-width: 3; stroke-linecap: square"/>
   </g>
   <g id="line2d_52">
    <path d="M 351.725152 176.318144 
L 191.587154 24.152322 
" clip-path="url(#p220725edbf)" style="fill: none; stroke: #7a7a7a; stroke-width: 3; stroke-linecap: square"/>
   </g>
   <g id="line2d_53">
    <path d="M 176.647655 50.072352 
L 186.383508 57.086007 
L 198.301536 62.066718 
L 211.814228 65.217781 
L 226.418008 66.437547 
L 241.693226 65.827664 
L 257.136303 63.286484 
L 272.159732 58.915656 
L 286.427792 52.715178 
L 299.352976 44.583404 
L 310.431706 34.621981 
L 319.244332 22.932556 
L 329.148044 7.583832 
" clip-path="url(#p220725edbf)" style="fill: none; stroke: #7a7a7a; stroke-width: 3; stroke-linecap: square"/>
   </g>
   <g id="line2d_54">
    <path d="M 161.120648 75.179204 
L 172.870816 84.937333 
L 186.047789 92.662518 
L 200.14799 98.35476 
L 215.087489 102.217353 
L 230.530567 104.148649 
L 246.309363 104.351943 
L 262.00423 102.827236 
L 277.447307 99.777821 
L 292.386806 95.203698 
L 306.570937 89.206514 
L 319.66398 81.78627 
L 331.498078 73.146261 
L 341.821439 63.286484 
L 350.298346 52.30859 
L 360.202058 36.959866 
" clip-path="url(#p220725edbf)" style="fill: none; stroke: #7a7a7a; stroke-width: 3; stroke-linecap: square"/>
   </g>
   <g id="line2d_55">
    <path d="M 208.121318 208.84524 
L 155.077705 288.130037 
" clip-path="url(#p220725edbf)" style="fill: none; stroke: #7a7a7a; stroke-width: 3; stroke-linecap: square"/>
   </g>
   <g id="line2d_56">
    <path d="M 162.295665 164.832013 
L 109.335981 243.913516 
" clip-path="url(#p220725edbf)" style="fill: none; stroke: #7a7a7a; stroke-width: 3; stroke-linecap: square"/>
   </g>
   <g id="line2d_57">
    <path d="M 155.077705 288.130037 
L 208.121318 208.84524 
" clip-path="url(#p220725edbf)" style="fill: none; stroke: #7a7a7a; stroke-width: 3; stroke-linecap: square"/>
   </g>
   <g id="line2d_58">
    <path d="M 200.23192 331.736675 
L 253.275534 252.350231 
" clip-path="url(#p220725edbf)" style="fill: none; stroke: #7a7a7a; stroke-width: 3; stroke-linecap: square"/>
   </g>
   <g id="line2d_59">
    <path d="M 335.107058 201.018407 
L 684.087034 533.201377 
" clip-path="url(#p220725edbf)" style="fill: none; stroke: #7a7a7a; stroke-width: 3; stroke-linecap: square"/>
   </g>
   <g id="line2d_60">
    <path d="M 318.656823 225.617024 
L 684.087034 570.912479 
" clip-path="url(#p220725edbf)" style="fill: none; stroke: #7a7a7a; stroke-width: 3; stroke-linecap: square"/>
   </g>
   <g id="line2d_61">
    <path d="M 208.121318 208.84524 
L 215.842857 191.260279 
L 221.214362 173.980259 
L 224.319764 157.106828 
L 225.159061 140.741632 
L 223.984045 125.087967 
L 220.710784 110.044185 
L 215.423208 95.915228 
L 208.373108 82.802742 
L 199.476552 70.605081 
L 188.901401 59.728833 
L 176.647655 50.072352 
" clip-path="url(#p220725edbf)" style="fill: none; stroke: #7a7a7a; stroke-width: 3; stroke-linecap: square"/>
   </g>
   <g id="line2d_62">
    <path d="M 253.275534 252.350231 
L 257.052373 243.506927 
L 260.829213 233.240562 
L 264.354263 221.551137 
L 267.291805 208.743593 
L 269.390049 194.919577 
L 270.481136 180.079089 
L 270.313277 164.425424 
L 268.550752 148.060229 
L 265.025701 131.085151 
L 259.402407 113.703484 
L 251.429079 96.016875 
L 240.937858 78.025325 
L 227.676954 60.033775 
L 211.31065 41.940578 
L 191.587154 24.152322 
" clip-path="url(#p220725edbf)" style="fill: none; stroke: #7a7a7a; stroke-width: 3; stroke-linecap: square"/>
   </g>
   <g id="line2d_63">
    <path d="M 161.120648 75.179204 
L 318.656823 225.617024 
" clip-path="url(#p220725edbf)" style="fill: none; stroke: #7a7a7a; stroke-width: 3; stroke-linecap: square"/>
   </g>
   <g id="line2d_64">
    <path d="M 140.054276 106.893123 
L 164.561769 129.967032 
L 279.88127 238.831157 
L 298.681538 256.111177 
" clip-path="url(#p220725edbf)" style="fill: none; stroke: #7a7a7a; stroke-width: 3; stroke-linecap: square"/>
   </g>
   <g id="line2d_65">
    <path d="M 329.148044 7.583832 
L 315.467492 22.830909 
L 302.122659 34.926922 
L 289.029615 44.075168 
L 276.18836 50.275646 
L 263.598895 53.73165 
L 251.17729 54.646475 
L 239.007473 53.02012 
L 227.005516 48.954233 
L 215.087489 42.753755 
L 203.253392 34.418687 
L 191.587154 24.152322 
" clip-path="url(#p220725edbf)" style="fill: none; stroke: #7a7a7a; stroke-width: 3; stroke-linecap: square"/>
   </g>
   <g id="line2d_66">
    <path d="M 285.256412 -1 
L 280.384849 5.957477 
L 270.816855 15.410665 
L 260.577424 21.204554 
L 249.582624 22.932556 
L 237.664597 20.188082 
L 224.739413 12.462897 
L 210.042058 -1 
" clip-path="url(#p220725edbf)" style="fill: none; stroke: #7a7a7a; stroke-width: 3; stroke-linecap: square"/>
   </g>
   <g id="line2d_67">
    <path d="M 329.148044 7.583832 
L 208.121318 208.84524 
" clip-path="url(#p220725edbf)" style="fill: none; stroke: #7a7a7a; stroke-width: 3; stroke-linecap: square"/>
   </g>
   <g id="line2d_68">
    <path d="M 282.19046 -1 
L 162.295665 164.832013 
" clip-path="url(#p220725edbf)" style="fill: none; stroke: #7a7a7a; stroke-width: 3; stroke-linecap: square"/>
   </g>
   <g id="line2d_69">
    <path d="M 329.148044 7.583832 
L 322.014014 18.358433 
L 313.956756 33.707156 
L 308.249532 50.987176 
L 304.808411 69.690257 
L 303.465535 89.206514 
L 303.885184 109.027713 
L 305.983428 128.442324 
L 309.592408 147.043757 
L 314.544265 164.22213 
L 320.503278 179.265912 
L 327.469449 191.768514 
L 335.107058 201.018407 
" clip-path="url(#p220725edbf)" style="fill: none; stroke: #7a7a7a; stroke-width: 3; stroke-linecap: square"/>
   </g>
   <g id="line2d_70">
    <path d="M 285.206732 -1 
L 282.902742 3.619592 
L 277.027658 20.188082 
L 272.74724 38.077985 
L 270.061487 56.781065 
L 268.9704 76.094029 
L 269.390049 95.813581 
L 271.152574 115.329838 
L 274.257976 134.642802 
L 278.790183 153.244235 
L 284.413478 170.930843 
L 291.379648 187.296039 
L 299.352976 202.034879 
L 308.501321 214.94407 
L 318.656823 225.617024 
" clip-path="url(#p220725edbf)" style="fill: none; stroke: #7a7a7a; stroke-width: 3; stroke-linecap: square"/>
   </g>
   <g id="line2d_71">
    <path d="M 208.121318 208.84524 
L 212.989245 203.45794 
L 221.550081 196.95252 
L 233.216319 191.158631 
L 247.31652 187.60098 
L 263.431036 187.905922 
L 280.804498 193.903105 
L 299.101187 207.117238 
L 318.656823 225.617024 
" clip-path="url(#p220725edbf)" style="fill: none; stroke: #7a7a7a; stroke-width: 3; stroke-linecap: square"/>
   </g>
   <g id="line2d_72">
    <path d="M 253.275534 252.350231 
L 253.946972 251.333759 
L 260.073845 244.015163 
L 265.864999 237.306449 
L 271.907942 234.968564 
L 278.202675 238.119627 
L 298.681538 256.111177 
" clip-path="url(#p220725edbf)" style="fill: none; stroke: #7a7a7a; stroke-width: 3; stroke-linecap: square"/>
   </g>
   <g id="line2d_73">
    <path d="M 208.121318 208.84524 
L 329.148044 7.583832 
" clip-path="url(#p220725edbf)" style="fill: none; stroke: #7a7a7a; stroke-width: 3; stroke-linecap: square"/>
   </g>
   <g id="line2d_74">
    <path d="M 253.275534 252.350231 
L 360.202058 36.959866 
" clip-path="url(#p220725edbf)" style="fill: none; stroke: #7a7a7a; stroke-width: 3; stroke-linecap: square"/>
   </g>
   <g id="line2d_75">
    <path d="M 335.107058 201.018407 
L 312.69781 180.079089 
L 294.48505 172.963787 
L 276.608009 170.829196 
L 259.654196 172.658845 
L 244.211119 177.436263 
L 230.782356 184.449918 
L 219.955416 192.683339 
L 212.149947 201.120055 
L 208.121318 208.84524 
" clip-path="url(#p220725edbf)" style="fill: none; stroke: #7a7a7a; stroke-width: 3; stroke-linecap: square"/>
   </g>
   <g id="line2d_76">
    <path d="M 351.725152 176.318144 
L 329.399834 155.277178 
L 312.194231 141.656457 
L 294.820769 131.999975 
L 277.363377 126.104439 
L 260.157775 123.359965 
L 243.455751 123.359965 
L 227.509095 125.69785 
L 212.569596 129.967032 
L 198.889044 135.659274 
L 186.803157 142.469634 
L 176.479796 149.889878 
L 168.254678 157.513416 
L 162.295665 164.832013 
" clip-path="url(#p220725edbf)" style="fill: none; stroke: #7a7a7a; stroke-width: 3; stroke-linecap: square"/>
   </g>
   <g id="line2d_77">
    <path d="M 334.760323 -1 
L 329.148044 7.583832 
" clip-path="url(#p220725edbf)" style="fill: none; stroke: #7a7a7a; stroke-width: 3; stroke-linecap: square"/>
   </g>
   <g id="line2d_78">
    <path clip-path="url(#p220725edbf)" style="fill: none; stroke: #7a7a7a; stroke-width: 3; stroke-linecap: square"/>
   </g>
   <g id="line2d_79">
    <path d="M 351.725152 176.318144 
L 191.587154 24.152322 
" clip-path="url(#p220725edbf)" style="fill: none; stroke: #7a7a7a; stroke-width: 3; stroke-linecap: square"/>
   </g>
   <g id="line2d_80">
    <path d="M 369.014684 150.703055 
L 209.969215 -1 
" clip-path="url(#p220725edbf)" style="fill: none; stroke: #7a7a7a; stroke-width: 3; stroke-linecap: square"/>
   </g>
   <g id="line2d_81">
    <path d="M 329.148044 7.583832 
L 334.760323 -1 
" clip-path="url(#p220725edbf)" style="fill: none; stroke: #7a7a7a; stroke-width: 3; stroke-linecap: square"/>
   </g>
   <g id="line2d_82">
    <path d="M 360.202058 36.959866 
L 384.616989 -1 
" clip-path="url(#p220725edbf)" style="fill: none; stroke: #7a7a7a; stroke-width: 3; stroke-linecap: square"/>
   </g>
   <g id="line2d_83">
    <path d="M 161.120648 75.179204 
L 189.992488 102.725589 
L 198.805114 111.568893 
L 206.442723 123.969848 
L 212.317807 139.115277 
L 215.926787 155.988709 
L 216.766085 173.878612 
L 214.332121 191.768514 
L 208.121318 208.84524 
" clip-path="url(#p220725edbf)" style="fill: none; stroke: #7a7a7a; stroke-width: 3; stroke-linecap: square"/>
   </g>
   <g id="line2d_84">
    <path d="M 140.054276 106.893123 
L 169.597555 135.04939 
L 170.604712 137.895511 
L 171.779729 144.095989 
L 171.024361 150.90635 
L 168.338608 157.310122 
L 162.295665 164.832013 
" clip-path="url(#p220725edbf)" style="fill: none; stroke: #7a7a7a; stroke-width: 3; stroke-linecap: square"/>
   </g>
   <g id="line2d_85">
    <path d="M 318.656823 225.617024 
L 684.087034 570.912479 
" clip-path="url(#p220725edbf)" style="fill: none; stroke: #7a7a7a; stroke-width: 3; stroke-linecap: square"/>
   </g>
   <g id="line2d_86">
    <path d="M 298.681538 256.111177 
L 684.087034 619.398182 
" clip-path="url(#p220725edbf)" style="fill: none; stroke: #7a7a7a; stroke-width: 3; stroke-linecap: square"/>
   </g>
   <g id="line2d_87">
    <path d="M 161.120648 75.179204 
L 177.067304 89.613103 
L 335.107058 201.018407 
" clip-path="url(#p220725edbf)" style="fill: none; stroke: #7a7a7a; stroke-width: 3; stroke-linecap: square"/>
   </g>
   <g id="line2d_88">
    <path d="M 140.054276 106.893123 
L 293.226103 202.034879 
L 306.487007 213.52101 
L 318.656823 225.617024 
" clip-path="url(#p220725edbf)" style="fill: none; stroke: #7a7a7a; stroke-width: 3; stroke-linecap: square"/>
   </g>
   <g id="line2d_89">
    <path d="M 569.363893 486.089897 
L 578.076524 492.874647 
" clip-path="url(#p220725edbf)" style="fill: none; stroke-dasharray: 32,8,5,8; stroke-dashoffset: 0; stroke: #1e90ff; stroke-width: 5"/>
   </g>
   <g id="line2d_90">
    <path d="M 1094.011005 836.693241 
L 1092.203728 834.82458 
" clip-path="url(#p220725edbf)" style="fill: none; stroke-dasharray: 32,8,5,8; stroke-dashoffset: 0; stroke: #1e90ff; stroke-width: 5"/>
   </g>
   <g id="line2d_91">
    <path d="M 866.681409 663.863263 
L 356.377763 193.142042 
" clip-path="url(#p220725edbf)" style="fill: none; stroke-dasharray: 32,8,5,8; stroke-dashoffset: 0; stroke: #1e90ff; stroke-width: 5"/>
   </g>
   <g id="line2d_92">
    <path d="M 1314.105348 1134.800385 
L 1306.204147 1135.058473 
" clip-path="url(#p220725edbf)" style="fill: none; stroke-dasharray: 32,8,5,8; stroke-dashoffset: 0; stroke: #1e90ff; stroke-width: 5"/>
   </g>
   <g id="line2d_93">
    <path d="M 1022.826431 791.103391 
L 1021.265042 786.700996 
" clip-path="url(#p220725edbf)" style="fill: none; stroke-dasharray: 32,8,5,8; stroke-dashoffset: 0; stroke: #1e90ff; stroke-width: 5"/>
   </g>
   <g id="line2d_94">
    <path d="M 186.024512 72.187859 
L 167.859536 50.823588 
" clip-path="url(#p220725edbf)" style="fill: none; stroke-dasharray: 32,8,5,8; stroke-dashoffset: 0; stroke: #1e90ff; stroke-width: 5"/>
   </g>
   <g id="line2d_95">
    <path d="M 588.854614 346.607935 
L 598.309008 355.879269 
" clip-path="url(#p220725edbf)" style="fill: none; stroke-dasharray: 32,8,5,8; stroke-dashoffset: 0; stroke: #1e90ff; stroke-width: 5"/>
   </g>
   <g id="line2d_96">
    <path d="M 720.240765 621.839501 
L 899.413199 799.707169 
" clip-path="url(#p220725edbf)" style="fill: none; stroke-dasharray: 32,8,5,8; stroke-dashoffset: 0; stroke: #1e90ff; stroke-width: 5"/>
   </g>
   <g id="line2d_97">
    <path d="M 569.363893 486.089897 
" clip-path="url(#p220725edbf)" style="fill: none; stroke: #0000ff; stroke-width: 1.5; stroke-linecap: square"/>
    <defs>
     <path id="mdd6b4cda62" d="M 0 10 
C 2.652031 10 5.195799 8.946337 7.071068 7.071068 
C 8.946337 5.195799 10 2.652031 10 0 
C 10 -2.652031 8.946337 -5.195799 7.071068 -7.071068 
C 5.195799 -8.946337 2.652031 -10 0 -10 
C -2.652031 -10 -5.195799 -8.946337 -7.071068 -7.071068 
C -8.946337 -5.195799 -10 -2.652031 -10 0 
C -10 2.652031 -8.946337 5.195799 -7.071068 7.071068 
C -5.195799 8.946337 -2.652031 10 0 10 
z
" style="stroke: #0000ff"/>
    </defs>
    <g clip-path="url(#p220725edbf)">
     <use xlink:href="#mdd6b4cda62" x="569.363893" y="486.089897" style="fill: #0000ff; stroke: #0000ff"/>
    </g>
   </g>
   <g id="line2d_98">
    <path d="M 1094.011005 836.693241 
" clip-path="url(#p220725edbf)" style="fill: none; stroke: #0000ff; stroke-width: 1.5; stroke-linecap: square"/>
    <g clip-path="url(#p220725edbf)">
     <use xlink:href="#mdd6b4cda62" x="1094.011005" y="836.693241" style="fill: #0000ff; stroke: #0000ff"/>
    </g>
   </g>
   <g id="line2d_99">
    <path d="M 866.681409 663.863263 
" clip-path="url(#p220725edbf)" style="fill: none; stroke: #0000ff; stroke-width: 1.5; stroke-linecap: square"/>
    <g clip-path="url(#p220725edbf)">
     <use xlink:href="#mdd6b4cda62" x="866.681409" y="663.863263" style="fill: #0000ff; stroke: #0000ff"/>
    </g>
   </g>
   <g id="line2d_100">
    <path d="M 1314.105348 1134.800385 
" clip-path="url(#p220725edbf)" style="fill: none; stroke: #0000ff; stroke-width: 1.5; stroke-linecap: square"/>
    <g clip-path="url(#p220725edbf)">
     <use xlink:href="#mdd6b4cda62" x="1314.105348" y="1134.800385" style="fill: #0000ff; stroke: #0000ff"/>
    </g>
   </g>
   <g id="line2d_101">
    <path d="M 1022.826431 791.103391 
" clip-path="url(#p220725edbf)" style="fill: none; stroke: #0000ff; stroke-width: 1.5; stroke-linecap: square"/>
    <g clip-path="url(#p220725edbf)">
     <use xlink:href="#mdd6b4cda62" x="1022.826431" y="791.103391" style="fill: #0000ff; stroke: #0000ff"/>
    </g>
   </g>
   <g id="line2d_102">
    <path d="M 186.024512 72.187859 
" clip-path="url(#p220725edbf)" style="fill: none; stroke: #0000ff; stroke-width: 1.5; stroke-linecap: square"/>
    <g clip-path="url(#p220725edbf)">
     <use xlink:href="#mdd6b4cda62" x="186.024512" y="72.187859" style="fill: #0000ff; stroke: #0000ff"/>
    </g>
   </g>
   <g id="line2d_103">
    <path d="M 588.854614 346.607935 
" clip-path="url(#p220725edbf)" style="fill: none; stroke: #0000ff; stroke-width: 1.5; stroke-linecap: square"/>
    <g clip-path="url(#p220725edbf)">
     <use xlink:href="#mdd6b4cda62" x="588.854614" y="346.607935" style="fill: #0000ff; stroke: #0000ff"/>
    </g>
   </g>
   <g id="line2d_104">
    <path d="M 720.240765 621.839501 
" clip-path="url(#p220725edbf)" style="fill: none; stroke: #0000ff; stroke-width: 1.5; stroke-linecap: square"/>
    <g clip-path="url(#p220725edbf)">
     <use xlink:href="#mdd6b4cda62" x="720.240765" y="621.839501" style="fill: #0000ff; stroke: #0000ff"/>
    </g>
   </g>
   <g id="line2d_105">
    <path d="M 578.076524 492.874647 
" clip-path="url(#p220725edbf)" style="fill: none; stroke: #ff0000; stroke-width: 1.5; stroke-linecap: square"/>
    <defs>
     <path id="m45b02d1ae2" d="M 0 -10 
L -2.24514 -3.09017 
L -9.510565 -3.09017 
L -3.632713 1.18034 
L -5.877853 8.09017 
L -0 3.81966 
L 5.877853 8.09017 
L 3.632713 1.18034 
L 9.510565 -3.09017 
L 2.24514 -3.09017 
z
" style="stroke: #ff0000; stroke-linejoin: bevel"/>
    </defs>
    <g clip-path="url(#p220725edbf)">
     <use xlink:href="#m45b02d1ae2" x="578.076524" y="492.874647" style="fill: #ff0000; stroke: #ff0000; stroke-linejoin: bevel"/>
    </g>
   </g>
   <g id="line2d_106">
    <path d="M 1092.203728 834.82458 
" clip-path="url(#p220725edbf)" style="fill: none; stroke: #ff0000; stroke-width: 1.5; stroke-linecap: square"/>
    <g clip-path="url(#p220725edbf)">
     <use xlink:href="#m45b02d1ae2" x="1092.203728" y="834.82458" style="fill: #ff0000; stroke: #ff0000; stroke-linejoin: bevel"/>
    </g>
   </g>
   <g id="line2d_107">
    <path d="M 356.377763 193.142042 
" clip-path="url(#p220725edbf)" style="fill: none; stroke: #ff0000; stroke-width: 1.5; stroke-linecap: square"/>
    <g clip-path="url(#p220725edbf)">
     <use xlink:href="#m45b02d1ae2" x="356.377763" y="193.142042" style="fill: #ff0000; stroke: #ff0000; stroke-linejoin: bevel"/>
    </g>
   </g>
   <g id="line2d_108">
    <path d="M 1306.204147 1135.058473 
" clip-path="url(#p220725edbf)" style="fill: none; stroke: #ff0000; stroke-width: 1.5; stroke-linecap: square"/>
    <g clip-path="url(#p220725edbf)">
     <use xlink:href="#m45b02d1ae2" x="1306.204147" y="1135.058473" style="fill: #ff0000; stroke: #ff0000; stroke-linejoin: bevel"/>
    </g>
   </g>
   <g id="line2d_109">
    <path d="M 1021.265042 786.700996 
" clip-path="url(#p220725edbf)" style="fill: none; stroke: #ff0000; stroke-width: 1.5; stroke-linecap: square"/>
    <g clip-path="url(#p220725edbf)">
     <use xlink:href="#m45b02d1ae2" x="1021.265042" y="786.700996" style="fill: #ff0000; stroke: #ff0000; stroke-linejoin: bevel"/>
    </g>
   </g>
   <g id="line2d_110">
    <path d="M 167.859536 50.823588 
" clip-path="url(#p220725edbf)" style="fill: none; stroke: #ff0000; stroke-width: 1.5; stroke-linecap: square"/>
    <g clip-path="url(#p220725edbf)">
     <use xlink:href="#m45b02d1ae2" x="167.859536" y="50.823588" style="fill: #ff0000; stroke: #ff0000; stroke-linejoin: bevel"/>
    </g>
   </g>
   <g id="line2d_111">
    <path d="M 598.309008 355.879269 
" clip-path="url(#p220725edbf)" style="fill: none; stroke: #ff0000; stroke-width: 1.5; stroke-linecap: square"/>
    <g clip-path="url(#p220725edbf)">
     <use xlink:href="#m45b02d1ae2" x="598.309008" y="355.879269" style="fill: #ff0000; stroke: #ff0000; stroke-linejoin: bevel"/>
    </g>
   </g>
   <g id="line2d_112">
    <path d="M 899.413199 799.707169 
" clip-path="url(#p220725edbf)" style="fill: none; stroke: #ff0000; stroke-width: 1.5; stroke-linecap: square"/>
    <g clip-path="url(#p220725edbf)">
     <use xlink:href="#m45b02d1ae2" x="899.413199" y="799.707169" style="fill: #ff0000; stroke: #ff0000; stroke-linejoin: bevel"/>
    </g>
   </g>
  </g>
 </g>
 <defs>
  <clipPath id="p220725edbf">
   <rect x="0" y="0" width="1440" height="1440"/>
  </clipPath>
 </defs>
</svg>
