<?xml version="1.0" encoding="utf-8" standalone="no"?>
<!DOCTYPE svg PUBLIC "-//W3C//DTD SVG 1.1//EN"
  "http://www.w3.org/Graphics/SVG/1.1/DTD/svg11.dtd">
<svg xmlns:xlink="http://www.w3.org/1999/xlink" width="1440pt" height="1440pt" viewBox="0 0 1440 1440" xmlns="http://www.w3.org/2000/svg" version="1.1">
 <metadata>
  <rdf:RDF xmlns:dc="http://purl.org/dc/elements/1.1/" xmlns:cc="http://creativecommons.org/ns#" xmlns:rdf="http://www.w3.org/1999/02/22-rdf-syntax-ns#">
   <cc:Work>
    <dc:type rdf:resource="http://purl.org/dc/dcmitype/StillImage"/>
    <dc:date>2026-02-27T11:10:01.799181</dc:date>
    <dc:format>image/svg+xml</dc:format>
    <dc:creator>
     <cc:Agent>
      <dc:title>Matplotlib v3.7.3, https://matplotlib.org/</dc:title>
     </cc:Agent>
    </dc:creator>
   </cc:Work>
  </rdf:RDF>
 </metadata>
 <defs>
  <style type="text/css">*{stroke-linejoin: round; stroke-linecap: butt}</style>
 </defs>
 <g id="figure_1">
  <g id="patch_1">
   <path d="M 0 1440 
L 1440 1440 
L 1440 0 
L 0 0 
z
" style="fill: #ffffff"/>
  </g>
  <g id="axes_1">
   <g id="line2d_1">
    <path d="M 1246.36141 -1 
L 1187.944217 5.312518 
L 1094.485888 16.245373 
L 1012.820408 26.539296 
L 942.652955 36.33627 
L 882.804246 45.636296 
L 832.684638 54.510367 
L 791.409666 63.029476 
L 758.094867 71.193621 
L 731.560957 79.002803 
L 711.513113 86.599008 
L 696.772052 94.053228 
L 686.453309 101.294469 
L 679.967242 108.393726 
L 676.134566 115.42199 
L 674.365639 122.450255 
L 673.481175 136.577776 
" clip-path="url(#p6581a476b4)" style="fill: none; stroke: #7a7a7a; stroke-width: 3; stroke-linecap: square"/>
   </g>
   <g id="line2d_2">
    <path d="M 855.81729 -1 
L 830.326068 3.111748 
L 776.963426 13.050708 
L 731.855778 22.918675 
L 693.82384 32.644657 
L 662.57279 42.299646 
L 637.218164 51.670665 
L 617.170321 60.899698 
L 601.839617 69.844762 
L 590.63641 78.576848 
L 582.676237 86.953971 
L 577.369455 94.905138 
L 574.126421 102.572336 
L 572.357494 109.742585 
L 570.588567 122.663232 
" clip-path="url(#p6581a476b4)" style="fill: none; stroke: #7a7a7a; stroke-width: 3; stroke-linecap: square"/>
   </g>
   <g id="line2d_3">
    <path clip-path="url(#p6581a476b4)" style="fill: none; stroke: #7a7a7a; stroke-width: 3; stroke-linecap: square"/>
   </g>
   <g id="line2d_4">
    <path clip-path="url(#p6581a476b4)" style="fill: none; stroke: #7a7a7a; stroke-width: 3; stroke-linecap: square"/>
   </g>
   <g id="line2d_5">
    <path d="M 782.85985 202.529871 
L 780.50128 138.210605 
" clip-path="url(#p6581a476b4)" style="fill: none; stroke: #7a7a7a; stroke-width: 3; stroke-linecap: square"/>
   </g>
   <g id="line2d_6">
    <path d="M 892.533347 202.529871 
L 890.174777 157.236613 
" clip-path="url(#p6581a476b4)" style="fill: none; stroke: #7a7a7a; stroke-width: 3; stroke-linecap: square"/>
   </g>
   <g id="line2d_7">
    <path d="M 890.174777 157.236613 
L 881.824122 -1 
" clip-path="url(#p6581a476b4)" style="fill: none; stroke: #7a7a7a; stroke-width: 3; stroke-linecap: square"/>
   </g>
   <g id="line2d_8">
    <path d="M 1048.198955 174.487807 
L 1009.164572 -1 
" clip-path="url(#p6581a476b4)" style="fill: none; stroke: #7a7a7a; stroke-width: 3; stroke-linecap: square"/>
   </g>
   <g id="line2d_9">
    <path d="M 676.724208 202.529871 
L 673.481175 136.577776 
" clip-path="url(#p6581a476b4)" style="fill: none; stroke: #7a7a7a; stroke-width: 3; stroke-linecap: square"/>
   </g>
   <g id="line2d_10">
    <path d="M 782.85985 202.529871 
L 780.50128 138.210605 
" clip-path="url(#p6581a476b4)" style="fill: none; stroke: #7a7a7a; stroke-width: 3; stroke-linecap: square"/>
   </g>
   <g id="line2d_11">
    <path d="M 570.588567 122.663232 
L 572.947136 202.529871 
" clip-path="url(#p6581a476b4)" style="fill: none; stroke: #7a7a7a; stroke-width: 3; stroke-linecap: square"/>
   </g>
   <g id="line2d_12">
    <path d="M 460.325428 110.736481 
L 464.452925 202.529871 
" clip-path="url(#p6581a476b4)" style="fill: none; stroke: #7a7a7a; stroke-width: 3; stroke-linecap: square"/>
   </g>
   <g id="line2d_13">
    <path clip-path="url(#p6581a476b4)" style="fill: none; stroke: #7a7a7a; stroke-width: 3; stroke-linecap: square"/>
   </g>
   <g id="line2d_14">
    <path clip-path="url(#p6581a476b4)" style="fill: none; stroke: #7a7a7a; stroke-width: 3; stroke-linecap: square"/>
   </g>
   <g id="line2d_15">
    <path d="M 668.967475 -1 
L 673.481175 136.577776 
" clip-path="url(#p6581a476b4)" style="fill: none; stroke: #7a7a7a; stroke-width: 3; stroke-linecap: square"/>
   </g>
   <g id="line2d_16">
    <path d="M 565.00921 -1 
L 570.588567 122.663232 
" clip-path="url(#p6581a476b4)" style="fill: none; stroke: #7a7a7a; stroke-width: 3; stroke-linecap: square"/>
   </g>
   <g id="line2d_17">
    <path clip-path="url(#p6581a476b4)" style="fill: none; stroke: #7a7a7a; stroke-width: 3; stroke-linecap: square"/>
   </g>
   <g id="line2d_18">
    <path clip-path="url(#p6581a476b4)" style="fill: none; stroke: #7a7a7a; stroke-width: 3; stroke-linecap: square"/>
   </g>
   <g id="line2d_19">
    <path d="M 892.533347 202.529871 
L 890.174777 157.236613 
" clip-path="url(#p6581a476b4)" style="fill: none; stroke: #7a7a7a; stroke-width: 3; stroke-linecap: square"/>
   </g>
   <g id="line2d_20">
    <path d="M 1050.557525 202.529871 
L 1048.198955 174.487807 
" clip-path="url(#p6581a476b4)" style="fill: none; stroke: #7a7a7a; stroke-width: 3; stroke-linecap: square"/>
   </g>
   <g id="line2d_21">
    <path d="M 728.907566 1054.440682 
L 676.724208 202.529871 
" clip-path="url(#p6581a476b4)" style="fill: none; stroke: #7a7a7a; stroke-width: 3; stroke-linecap: square"/>
   </g>
   <g id="line2d_22">
    <path d="M 836.812135 1054.440682 
L 782.85985 202.529871 
" clip-path="url(#p6581a476b4)" style="fill: none; stroke: #7a7a7a; stroke-width: 3; stroke-linecap: square"/>
   </g>
   <g id="line2d_23">
    <path d="M 565.00921 -1 
L 570.588567 122.663232 
" clip-path="url(#p6581a476b4)" style="fill: none; stroke: #7a7a7a; stroke-width: 3; stroke-linecap: square"/>
   </g>
   <g id="line2d_24">
    <path d="M 455.308947 -1 
L 460.325428 110.736481 
" clip-path="url(#p6581a476b4)" style="fill: none; stroke: #7a7a7a; stroke-width: 3; stroke-linecap: square"/>
   </g>
   <g id="line2d_25">
    <path clip-path="url(#p6581a476b4)" style="fill: none; stroke: #7a7a7a; stroke-width: 3; stroke-linecap: square"/>
   </g>
   <g id="line2d_26">
    <path clip-path="url(#p6581a476b4)" style="fill: none; stroke: #7a7a7a; stroke-width: 3; stroke-linecap: square"/>
   </g>
   <g id="line2d_27">
    <path d="M 780.50128 138.210605 
L 783.154672 202.529871 
" clip-path="url(#p6581a476b4)" style="fill: none; stroke: #7a7a7a; stroke-width: 3; stroke-linecap: square"/>
   </g>
   <g id="line2d_28">
    <path d="M 673.481175 136.577776 
L 677.01903 202.529871 
" clip-path="url(#p6581a476b4)" style="fill: none; stroke: #7a7a7a; stroke-width: 3; stroke-linecap: square"/>
   </g>
   <g id="line2d_29">
    <path d="M 673.481175 136.577776 
L 677.01903 202.529871 
" clip-path="url(#p6581a476b4)" style="fill: none; stroke: #7a7a7a; stroke-width: 3; stroke-linecap: square"/>
   </g>
   <g id="line2d_30">
    <path d="M 570.588567 122.663232 
L 572.947136 202.529871 
" clip-path="url(#p6581a476b4)" style="fill: none; stroke: #7a7a7a; stroke-width: 3; stroke-linecap: square"/>
   </g>
   <g id="line2d_31">
    <path d="M 572.947136 202.529871 
L 577.369455 249.100995 
L 617.170321 1054.440682 
" clip-path="url(#p6581a476b4)" style="fill: none; stroke: #7a7a7a; stroke-width: 3; stroke-linecap: square"/>
   </g>
   <g id="line2d_32">
    <path d="M 464.452925 202.529871 
L 497.472902 823.21789 
L 503.664148 923.459395 
L 503.958969 949.655653 
L 509.560573 1054.440682 
" clip-path="url(#p6581a476b4)" style="fill: none; stroke: #7a7a7a; stroke-width: 3; stroke-linecap: square"/>
   </g>
   <g id="line2d_33">
    <path d="M 677.01903 202.529871 
L 728.907566 1054.440682 
" clip-path="url(#p6581a476b4)" style="fill: none; stroke: #7a7a7a; stroke-width: 3; stroke-linecap: square"/>
   </g>
   <g id="line2d_34">
    <path d="M 572.947136 202.529871 
L 577.369455 249.100995 
L 617.170321 1054.440682 
" clip-path="url(#p6581a476b4)" style="fill: none; stroke: #7a7a7a; stroke-width: 3; stroke-linecap: square"/>
   </g>
   <g id="line2d_35">
    <path clip-path="url(#p6581a476b4)" style="fill: none; stroke: #7a7a7a; stroke-width: 3; stroke-linecap: square"/>
   </g>
   <g id="line2d_36">
    <path clip-path="url(#p6581a476b4)" style="fill: none; stroke: #7a7a7a; stroke-width: 3; stroke-linecap: square"/>
   </g>
   <g id="line2d_37">
    <path d="M 961.211046 1441 
L 957.688838 1385.762996 
L 955.330268 1266.637467 
L 947.075274 1151.274545 
L 943.537419 1054.440682 
" clip-path="url(#p6581a476b4)" style="fill: none; stroke: #7a7a7a; stroke-width: 3; stroke-linecap: square"/>
   </g>
   <g id="line2d_38">
    <path d="M 1064.655118 1441 
L 1060.286625 1361.909493 
L 1047.01967 1054.440682 
" clip-path="url(#p6581a476b4)" style="fill: none; stroke: #7a7a7a; stroke-width: 3; stroke-linecap: square"/>
   </g>
   <g id="line2d_39">
    <path clip-path="url(#p6581a476b4)" style="fill: none; stroke: #7a7a7a; stroke-width: 3; stroke-linecap: square"/>
   </g>
   <g id="line2d_40">
    <path clip-path="url(#p6581a476b4)" style="fill: none; stroke: #7a7a7a; stroke-width: 3; stroke-linecap: square"/>
   </g>
   <g id="line2d_41">
    <path d="M 836.812135 1054.440682 
L 782.85985 202.529871 
" clip-path="url(#p6581a476b4)" style="fill: none; stroke: #7a7a7a; stroke-width: 3; stroke-linecap: square"/>
   </g>
   <g id="line2d_42">
    <path d="M 943.537419 1054.440682 
L 892.533347 202.529871 
" clip-path="url(#p6581a476b4)" style="fill: none; stroke: #7a7a7a; stroke-width: 3; stroke-linecap: square"/>
   </g>
   <g id="line2d_43">
    <path d="M 780.50128 138.210605 
L 771.260372 -1 
" clip-path="url(#p6581a476b4)" style="fill: none; stroke: #7a7a7a; stroke-width: 3; stroke-linecap: square"/>
   </g>
   <g id="line2d_44">
    <path d="M 890.174777 157.236613 
L 881.824122 -1 
" clip-path="url(#p6581a476b4)" style="fill: none; stroke: #7a7a7a; stroke-width: 3; stroke-linecap: square"/>
   </g>
   <g id="line2d_45">
    <path d="M 617.170321 1054.440682 
L 639.377267 1441 
" clip-path="url(#p6581a476b4)" style="fill: none; stroke: #7a7a7a; stroke-width: 3; stroke-linecap: square"/>
   </g>
   <g id="line2d_46">
    <path d="M 509.560573 1054.440682 
L 524.301634 1341.747604 
L 526.955025 1353.390385 
L 531.392537 1441 
" clip-path="url(#p6581a476b4)" style="fill: none; stroke: #7a7a7a; stroke-width: 3; stroke-linecap: square"/>
   </g>
   <g id="line2d_47">
    <path d="M 890.174777 157.236613 
L 893.122989 144.954899 
L 899.314235 133.170132 
L 909.043336 121.882314 
L 922.310291 110.949459 
L 939.409922 100.371566 
L 960.342229 89.935659 
L 985.107212 79.712729 
L 1014.294514 69.489799 
L 1047.609312 59.337862 
L 1085.641251 49.04394 
L 1128.095507 38.679025 
L 1175.266904 28.03014 
L 1227.450261 17.097284 
L 1284.645579 5.738473 
L 1320.383984 -1 
" clip-path="url(#p6581a476b4)" style="fill: none; stroke: #7a7a7a; stroke-width: 3; stroke-linecap: square"/>
   </g>
   <g id="line2d_48">
    <path d="M 1048.198955 174.487807 
L 1046.135206 147.155668 
L 1046.430028 143.251077 
L 1049.673061 139.346486 
L 1055.569486 135.58388 
L 1066.477871 131.679288 
L 1079.155184 128.271645 
L 1291.131646 72.045532 
L 1386.358903 47.482103 
L 1441 34.965605 
" clip-path="url(#p6581a476b4)" style="fill: none; stroke: #7a7a7a; stroke-width: 3; stroke-linecap: square"/>
   </g>
   <g id="line2d_49">
    <path d="M 943.537419 1054.440682 
L 892.533347 202.529871 
" clip-path="url(#p6581a476b4)" style="fill: none; stroke: #7a7a7a; stroke-width: 3; stroke-linecap: square"/>
   </g>
   <g id="line2d_50">
    <path d="M 1047.01967 1054.440682 
L 1034.932 844.018712 
L 1022.254687 605.696662 
L 1065.888229 488.203963 
L 1062.350374 436.308396 
L 1057.633234 334.789024 
L 1050.557525 202.529871 
" clip-path="url(#p6581a476b4)" style="fill: none; stroke: #7a7a7a; stroke-width: 3; stroke-linecap: square"/>
   </g>
   <g id="line2d_51">
    <path d="M 857.146207 1441 
L 836.812135 1054.440682 
" clip-path="url(#p6581a476b4)" style="fill: none; stroke: #7a7a7a; stroke-width: 3; stroke-linecap: square"/>
   </g>
   <g id="line2d_52">
    <path d="M 961.211046 1441 
L 957.688838 1385.762996 
L 955.330268 1266.637467 
L 947.075274 1151.274545 
L 943.537419 1054.440682 
" clip-path="url(#p6581a476b4)" style="fill: none; stroke: #7a7a7a; stroke-width: 3; stroke-linecap: square"/>
   </g>
   <g id="line2d_53">
    <path d="M 783.154672 202.529871 
L 832.979459 1054.440682 
" clip-path="url(#p6581a476b4)" style="fill: none; stroke: #7a7a7a; stroke-width: 3; stroke-linecap: square"/>
   </g>
   <g id="line2d_54">
    <path d="M 677.01903 202.529871 
L 728.907566 1054.440682 
" clip-path="url(#p6581a476b4)" style="fill: none; stroke: #7a7a7a; stroke-width: 3; stroke-linecap: square"/>
   </g>
   <g id="line2d_55">
    <path d="M 747.990558 1441 
L 743.353806 1389.099646 
L 742.764163 1283.03675 
L 728.907566 1054.440682 
" clip-path="url(#p6581a476b4)" style="fill: none; stroke: #7a7a7a; stroke-width: 3; stroke-linecap: square"/>
   </g>
   <g id="line2d_56">
    <path d="M 857.146207 1441 
L 836.812135 1054.440682 
" clip-path="url(#p6581a476b4)" style="fill: none; stroke: #7a7a7a; stroke-width: 3; stroke-linecap: square"/>
   </g>
   <g id="line2d_57">
    <path d="M 832.979459 1054.440682 
L 853.616945 1394.992029 
L 855.924674 1441 
" clip-path="url(#p6581a476b4)" style="fill: none; stroke: #7a7a7a; stroke-width: 3; stroke-linecap: square"/>
   </g>
   <g id="line2d_58">
    <path d="M 728.907566 1054.440682 
L 742.764163 1283.03675 
L 743.353806 1389.099646 
L 747.990558 1441 
" clip-path="url(#p6581a476b4)" style="fill: none; stroke: #7a7a7a; stroke-width: 3; stroke-linecap: square"/>
   </g>
   <g id="line2d_59">
    <path d="M 728.907566 1054.440682 
L 742.764163 1283.03675 
L 743.353806 1389.099646 
L 747.990558 1441 
" clip-path="url(#p6581a476b4)" style="fill: none; stroke: #7a7a7a; stroke-width: 3; stroke-linecap: square"/>
   </g>
   <g id="line2d_60">
    <path d="M 617.170321 1054.440682 
L 639.377267 1441 
" clip-path="url(#p6581a476b4)" style="fill: none; stroke: #7a7a7a; stroke-width: 3; stroke-linecap: square"/>
   </g>
   <g id="line2d_61">
    <path d="M 933.755568 1227.022297 
L 884.928051 733.243511 
" clip-path="url(#p6581a476b4)" style="fill: none; stroke-dasharray: 32,8,5,8; stroke-dashoffset: 0; stroke: #1e90ff; stroke-width: 5"/>
   </g>
   <g id="line2d_62">
    <path d="M 969.484017 132.996672 
L 997.768159 35.496284 
" clip-path="url(#p6581a476b4)" style="fill: none; stroke-dasharray: 32,8,5,8; stroke-dashoffset: 0; stroke: #1e90ff; stroke-width: 5"/>
   </g>
   <g id="line2d_63">
    <path d="M 856.915626 769.124569 
L 818.545815 338.572672 
" clip-path="url(#p6581a476b4)" style="fill: none; stroke-dasharray: 32,8,5,8; stroke-dashoffset: 0; stroke: #1e90ff; stroke-width: 5"/>
   </g>
   <g id="line2d_64">
    <path d="M 933.755568 1227.022297 
" clip-path="url(#p6581a476b4)" style="fill: none; stroke: #0000ff; stroke-width: 1.5; stroke-linecap: square"/>
    <defs>
     <path id="mf2769ae274" d="M 0 10 
C 2.652031 10 5.195799 8.946337 7.071068 7.071068 
C 8.946337 5.195799 10 2.652031 10 0 
C 10 -2.652031 8.946337 -5.195799 7.071068 -7.071068 
C 5.195799 -8.946337 2.652031 -10 0 -10 
C -2.652031 -10 -5.195799 -8.946337 -7.071068 -7.071068 
C -8.946337 -5.195799 -10 -2.652031 -10 0 
C -10 2.652031 -8.946337 5.195799 -7.071068 7.071068 
C -5.195799 8.946337 -2.652031 10 0 10 
z
" style="stroke: #0000ff"/>
    </defs>
    <g clip-path="url(#p6581a476b4)">
     <use xlink:href="#mf2769ae274" x="933.755568" y="1227.022297" style="fill: #0000ff; stroke: #0000ff"/>
    </g>
   </g>
   <g id="line2d_65">
    <path d="M 969.484017 132.996672 
" clip-path="url(#p6581a476b4)" style="fill: none; stroke: #0000ff; stroke-width: 1.5; stroke-linecap: square"/>
    <g clip-path="url(#p6581a476b4)">
     <use xlink:href="#mf2769ae274" x="969.484017" y="132.996672" style="fill: #0000ff; stroke: #0000ff"/>
    </g>
   </g>
   <g id="line2d_66">
    <path d="M 856.915626 769.124569 
" clip-path="url(#p6581a476b4)" style="fill: none; stroke: #0000ff; stroke-width: 1.5; stroke-linecap: square"/>
    <g clip-path="url(#p6581a476b4)">
     <use xlink:href="#mf2769ae274" x="856.915626" y="769.124569" style="fill: #0000ff; stroke: #0000ff"/>
    </g>
   </g>
   <g id="line2d_67">
    <path d="M 884.928051 733.243511 
" clip-path="url(#p6581a476b4)" style="fill: none; stroke: #ff0000; stroke-width: 1.5; stroke-linecap: square"/>
    <defs>
     <path id="medfe6c7c15" d="M 0 -10 
L -2.24514 -3.09017 
L -9.510565 -3.09017 
L -3.632713 1.18034 
L -5.877853 8.09017 
L -0 3.81966 
L 5.877853 8.09017 
L 3.632713 1.18034 
L 9.510565 -3.09017 
L 2.24514 -3.09017 
z
" style="stroke: #ff0000; stroke-linejoin: bevel"/>
    </defs>
    <g clip-path="url(#p6581a476b4)">
     <use xlink:href="#medfe6c7c15" x="884.928051" y="733.243511" style="fill: #ff0000; stroke: #ff0000; stroke-linejoin: bevel"/>
    </g>
   </g>
   <g id="line2d_68">
    <path d="M 997.768159 35.496284 
" clip-path="url(#p6581a476b4)" style="fill: none; stroke: #ff0000; stroke-width: 1.5; stroke-linecap: square"/>
    <g clip-path="url(#p6581a476b4)">
     <use xlink:href="#medfe6c7c15" x="997.768159" y="35.496284" style="fill: #ff0000; stroke: #ff0000; stroke-linejoin: bevel"/>
    </g>
   </g>
   <g id="line2d_69">
    <path d="M 818.545815 338.572672 
" clip-path="url(#p6581a476b4)" style="fill: none; stroke: #ff0000; stroke-width: 1.5; stroke-linecap: square"/>
    <g clip-path="url(#p6581a476b4)">
     <use xlink:href="#medfe6c7c15" x="818.545815" y="338.572672" style="fill: #ff0000; stroke: #ff0000; stroke-linejoin: bevel"/>
    </g>
   </g>
  </g>
 </g>
 <defs>
  <clipPath id="p6581a476b4">
   <rect x="0" y="0" width="1440" height="1440"/>
  </clipPath>
 </defs>
</svg>
