<?xml version="1.0" encoding="utf-8" standalone="no"?>
<!DOCTYPE svg PUBLIC "-//W3C//DTD SVG 1.1//EN"
  "http://www.w3.org/Graphics/SVG/1.1/DTD/svg11.dtd">
<svg xmlns:xlink="http://www.w3.org/1999/xlink" width="1440pt" height="1440pt" viewBox="0 0 1440 1440" xmlns="http://www.w3.org/2000/svg" version="1.1">
 <metadata>
  <rdf:RDF xmlns:dc="http://purl.org/dc/elements/1.1/" xmlns:cc="http://creativecommons.org/ns#" xmlns:rdf="http://www.w3.org/1999/02/22-rdf-syntax-ns#">
   <cc:Work>
    <dc:type rdf:resource="http://purl.org/dc/dcmitype/StillImage"/>
    <dc:date>2026-02-27T11:09:55.122002</dc:date>
    <dc:format>image/svg+xml</dc:format>
    <dc:creator>
     <cc:Agent>
      <dc:title>Matplotlib v3.7.3, https://matplotlib.org/</dc:title>
     </cc:Agent>
    </dc:creator>
   </cc:Work>
  </rdf:RDF>
 </metadata>
 <defs>
  <style type="text/css">*{stroke-linejoin: round; stroke-linecap: butt}</style>
 </defs>
 <g id="figure_1">
  <g id="patch_1">
   <path d="M 0 1440 
L 1440 1440 
L 1440 0 
L 0 0 
z
" style="fill: #ffffff"/>
  </g>
  <g id="axes_1">
   <g id="line2d_1">
    <path d="M 294.900506 1042.672294 
L 241.357486 1100.125847 
L -1 1348.156987 
" clip-path="url(#p6c10a41e58)" style="fill: none; stroke: #7a7a7a; stroke-width: 3; stroke-linecap: square"/>
   </g>
   <g id="line2d_2">
    <path d="M 294.900506 978.480924 
L 210.890522 1065.162037 
L 1.152985 1279.770632 
L -1 1282.026346 
" clip-path="url(#p6c10a41e58)" style="fill: none; stroke: #7a7a7a; stroke-width: 3; stroke-linecap: square"/>
   </g>
   <g id="line2d_3">
    <path clip-path="url(#p6c10a41e58)" style="fill: none; stroke: #7a7a7a; stroke-width: 3; stroke-linecap: square"/>
   </g>
   <g id="line2d_4">
    <path clip-path="url(#p6c10a41e58)" style="fill: none; stroke: #7a7a7a; stroke-width: 3; stroke-linecap: square"/>
   </g>
   <g id="line2d_5">
    <path d="M 649.089229 1090.201224 
L 618.047416 1052.232711 
" clip-path="url(#p6c10a41e58)" style="fill: none; stroke: #7a7a7a; stroke-width: 3; stroke-linecap: square"/>
   </g>
   <g id="line2d_6">
    <path d="M 677.503163 1065.34414 
L 666.498922 1052.232711 
" clip-path="url(#p6c10a41e58)" style="fill: none; stroke: #7a7a7a; stroke-width: 3; stroke-linecap: square"/>
   </g>
   <g id="line2d_7">
    <path d="M 366.920796 749.941435 
L 196.437191 548.171113 
" clip-path="url(#p6c10a41e58)" style="fill: none; stroke: #7a7a7a; stroke-width: 3; stroke-linecap: square"/>
   </g>
   <g id="line2d_8">
    <path d="M 391.967761 722.71701 
L 221.484156 520.673533 
L 219.67749 518.033037 
" clip-path="url(#p6c10a41e58)" style="fill: none; stroke: #7a7a7a; stroke-width: 3; stroke-linecap: square"/>
   </g>
   <g id="line2d_9">
    <path d="M 642.848018 1139.27803 
L 621.332264 1113.965688 
" clip-path="url(#p6c10a41e58)" style="fill: none; stroke: #7a7a7a; stroke-width: 3; stroke-linecap: square"/>
   </g>
   <g id="line2d_10">
    <path d="M 669.291043 1115.149359 
L 649.089229 1090.201224 
" clip-path="url(#p6c10a41e58)" style="fill: none; stroke: #7a7a7a; stroke-width: 3; stroke-linecap: square"/>
   </g>
   <g id="line2d_11">
    <path d="M -1 1348.156987 
L 241.357486 1100.125847 
L 294.900506 1042.672294 
" clip-path="url(#p6c10a41e58)" style="fill: none; stroke: #7a7a7a; stroke-width: 3; stroke-linecap: square"/>
   </g>
   <g id="line2d_12">
    <path d="M -1 1413.464137 
L 0.906621 1411.522282 
L 18.480557 1393.403015 
L 22.668738 1389.396746 
L 47.305097 1364.44861 
L 49.686612 1361.808114 
L 70.216911 1341.139403 
L 82.206606 1328.027974 
L 94.442665 1315.462855 
L 132.218415 1275.491208 
L 180.423558 1226.414401 
L 217.706581 1189.447456 
L 261.5593 1144.194816 
L 294.900506 1110.505728 
" clip-path="url(#p6c10a41e58)" style="fill: none; stroke: #7a7a7a; stroke-width: 3; stroke-linecap: square"/>
   </g>
   <g id="line2d_13">
    <path d="M 532.312887 950.892292 
L 366.920796 749.941435 
" clip-path="url(#p6c10a41e58)" style="fill: none; stroke: #7a7a7a; stroke-width: 3; stroke-linecap: square"/>
   </g>
   <g id="line2d_14">
    <path d="M 559.084397 923.212609 
L 442.965024 784.358936 
L 434.999268 776.073241 
L 431.550178 772.340126 
L 407.570788 742.019947 
L 391.967761 722.71701 
" clip-path="url(#p6c10a41e58)" style="fill: none; stroke: #7a7a7a; stroke-width: 3; stroke-linecap: square"/>
   </g>
   <g id="line2d_15">
    <path d="M 787.627688 534.968633 
L 788.284657 534.331272 
L 1228.043667 92.640013 
" clip-path="url(#p6c10a41e58)" style="fill: none; stroke: #7a7a7a; stroke-width: 3; stroke-linecap: square"/>
   </g>
   <g id="line2d_16">
    <path d="M 787.627688 603.803634 
L 788.284657 603.075221 
L 824.335863 566.654586 
L 1139.270653 242.419877 
L 1218.189123 162.203427 
L 1256.293359 122.322831 
" clip-path="url(#p6c10a41e58)" style="fill: none; stroke: #7a7a7a; stroke-width: 3; stroke-linecap: square"/>
   </g>
   <g id="line2d_17">
    <path d="M 302.455656 1034.750806 
L 659.600742 665.44556 
" clip-path="url(#p6c10a41e58)" style="fill: none; stroke: #7a7a7a; stroke-width: 3; stroke-linecap: square"/>
   </g>
   <g id="line2d_18">
    <path d="M 332.594136 1071.808803 
L 388.025944 1014.628405 
L 439.023207 961.181122 
L 444.361085 956.537491 
L 545.61652 852.192369 
L 552.021974 843.906675 
L 625.356203 769.972784 
L 690.314069 702.958815 
" clip-path="url(#p6c10a41e58)" style="fill: none; stroke: #7a7a7a; stroke-width: 3; stroke-linecap: square"/>
   </g>
   <g id="line2d_19">
    <path d="M 669.291043 1115.149359 
L 649.089229 1090.201224 
" clip-path="url(#p6c10a41e58)" style="fill: none; stroke: #7a7a7a; stroke-width: 3; stroke-linecap: square"/>
   </g>
   <g id="line2d_20">
    <path d="M 697.622856 1089.199656 
L 677.503163 1065.34414 
" clip-path="url(#p6c10a41e58)" style="fill: none; stroke: #7a7a7a; stroke-width: 3; stroke-linecap: square"/>
   </g>
   <g id="line2d_21">
    <path clip-path="url(#p6c10a41e58)" style="fill: none; stroke: #7a7a7a; stroke-width: 3; stroke-linecap: square"/>
   </g>
   <g id="line2d_22">
    <path clip-path="url(#p6c10a41e58)" style="fill: none; stroke: #7a7a7a; stroke-width: 3; stroke-linecap: square"/>
   </g>
   <g id="line2d_23">
    <path d="M 532.312887 950.892292 
L 523.443797 937.143502 
L 516.545617 921.482629 
L 511.618345 904.547033 
L 508.826224 886.791973 
L 508.087133 868.763759 
L 509.401073 851.008699 
L 512.850163 834.073103 
L 518.434404 818.41223 
L 526.071676 804.572388 
L 535.926219 793.19094 
L 659.600742 665.44556 
" clip-path="url(#p6c10a41e58)" style="fill: none; stroke: #7a7a7a; stroke-width: 3; stroke-linecap: square"/>
   </g>
   <g id="line2d_24">
    <path d="M 559.084397 923.212609 
L 549.147732 911.284851 
L 544.87743 905.730704 
L 541.756824 900.996021 
L 538.06137 893.438739 
L 536.501068 888.33985 
L 535.844098 884.606735 
L 535.761977 880.327311 
L 536.00834 875.683679 
L 537.732886 867.397985 
L 540.278643 860.933322 
L 544.959551 853.011834 
L 552.021974 843.906675 
L 629.133778 766.148618 
L 690.314069 702.958815 
" clip-path="url(#p6c10a41e58)" style="fill: none; stroke: #7a7a7a; stroke-width: 3; stroke-linecap: square"/>
   </g>
   <g id="line2d_25">
    <path d="M 618.047416 1052.232711 
L 617.718931 1051.868505 
L 532.312887 950.892292 
" clip-path="url(#p6c10a41e58)" style="fill: none; stroke: #7a7a7a; stroke-width: 3; stroke-linecap: square"/>
   </g>
   <g id="line2d_26">
    <path d="M 666.498922 1052.232711 
L 666.252559 1051.959556 
L 663.460438 1048.77275 
L 559.577124 923.758919 
L 559.084397 923.212609 
" clip-path="url(#p6c10a41e58)" style="fill: none; stroke: #7a7a7a; stroke-width: 3; stroke-linecap: square"/>
   </g>
   <g id="line2d_27">
    <path d="M 302.455656 1034.750806 
L 296.214445 1041.30652 
L 295.639597 1041.85283 
L 295.393233 1042.125984 
L 295.228991 1042.399139 
L 294.900506 1042.672294 
" clip-path="url(#p6c10a41e58)" style="fill: none; stroke: #7a7a7a; stroke-width: 3; stroke-linecap: square"/>
   </g>
   <g id="line2d_28">
    <path d="M 300.64899 972.471519 
L 296.214445 977.11515 
L 295.639597 977.661459 
L 295.393233 977.843563 
L 295.228991 978.116717 
L 294.900506 978.480924 
" clip-path="url(#p6c10a41e58)" style="fill: none; stroke: #7a7a7a; stroke-width: 3; stroke-linecap: square"/>
   </g>
   <g id="line2d_29">
    <path d="M 569.842274 1052.232711 
L 569.513789 1051.868505 
L 566.639547 1048.499596 
L 552.104095 1031.381897 
L 506.691073 977.388305 
" clip-path="url(#p6c10a41e58)" style="fill: none; stroke: #7a7a7a; stroke-width: 3; stroke-linecap: square"/>
   </g>
   <g id="line2d_30">
    <path d="M 618.047416 1052.232711 
L 617.718931 1051.868505 
L 532.312887 950.892292 
" clip-path="url(#p6c10a41e58)" style="fill: none; stroke: #7a7a7a; stroke-width: 3; stroke-linecap: square"/>
   </g>
   <g id="line2d_31">
    <path d="M 621.332264 1113.965688 
L 569.842274 1052.232711 
" clip-path="url(#p6c10a41e58)" style="fill: none; stroke: #7a7a7a; stroke-width: 3; stroke-linecap: square"/>
   </g>
   <g id="line2d_32">
    <path d="M 649.089229 1090.201224 
L 618.047416 1052.232711 
" clip-path="url(#p6c10a41e58)" style="fill: none; stroke: #7a7a7a; stroke-width: 3; stroke-linecap: square"/>
   </g>
   <g id="line2d_33">
    <path d="M 659.600742 665.44556 
L 787.627688 534.968633 
" clip-path="url(#p6c10a41e58)" style="fill: none; stroke: #7a7a7a; stroke-width: 3; stroke-linecap: square"/>
   </g>
   <g id="line2d_34">
    <path d="M 690.314069 702.958815 
L 787.627688 603.803634 
" clip-path="url(#p6c10a41e58)" style="fill: none; stroke: #7a7a7a; stroke-width: 3; stroke-linecap: square"/>
   </g>
   <g id="line2d_35">
    <path d="M 787.627688 534.968633 
L 659.600742 665.44556 
" clip-path="url(#p6c10a41e58)" style="fill: none; stroke: #7a7a7a; stroke-width: 3; stroke-linecap: square"/>
   </g>
   <g id="line2d_36">
    <path d="M 787.627688 472.689346 
L 632.090141 631.756472 
" clip-path="url(#p6c10a41e58)" style="fill: none; stroke: #7a7a7a; stroke-width: 3; stroke-linecap: square"/>
   </g>
   <g id="line2d_37">
    <path d="M 294.900506 1042.672294 
L 295.228991 1042.399139 
L 295.393233 1042.125984 
L 295.639597 1041.85283 
L 296.214445 1041.30652 
L 302.455656 1034.750806 
" clip-path="url(#p6c10a41e58)" style="fill: none; stroke: #7a7a7a; stroke-width: 3; stroke-linecap: square"/>
   </g>
   <g id="line2d_38">
    <path d="M 294.900506 1110.505728 
L 295.14687 1110.232573 
L 295.393233 1110.05047 
L 295.639597 1109.686264 
L 296.296567 1109.048903 
L 332.594136 1071.808803 
" clip-path="url(#p6c10a41e58)" style="fill: none; stroke: #7a7a7a; stroke-width: 3; stroke-linecap: square"/>
   </g>
   <g id="line2d_39">
    <path d="M 196.437191 548.171113 
L 366.920796 749.941435 
" clip-path="url(#p6c10a41e58)" style="fill: none; stroke: #7a7a7a; stroke-width: 3; stroke-linecap: square"/>
   </g>
   <g id="line2d_40">
    <path d="M 181.080527 588.68907 
L 184.940224 592.877443 
L 206.127492 618.645043 
L 339.492316 778.89584 
" clip-path="url(#p6c10a41e58)" style="fill: none; stroke: #7a7a7a; stroke-width: 3; stroke-linecap: square"/>
   </g>
   <g id="line2d_41">
    <path d="M 1435.892416 232.768408 
L 1441 238.746036 
" clip-path="url(#p6c10a41e58)" style="fill: none; stroke: #7a7a7a; stroke-width: 3; stroke-linecap: square"/>
   </g>
   <g id="line2d_42">
    <path d="M 1394.585454 232.768408 
L 1435.071204 277.474739 
L 1441 285.182709 
" clip-path="url(#p6c10a41e58)" style="fill: none; stroke: #7a7a7a; stroke-width: 3; stroke-linecap: square"/>
   </g>
   <g id="line2d_43">
    <path d="M 1441 238.746036 
L 1435.892416 232.768408 
" clip-path="url(#p6c10a41e58)" style="fill: none; stroke: #7a7a7a; stroke-width: 3; stroke-linecap: square"/>
   </g>
   <g id="line2d_44">
    <path clip-path="url(#p6c10a41e58)" style="fill: none; stroke: #7a7a7a; stroke-width: 3; stroke-linecap: square"/>
   </g>
   <g id="line2d_45">
    <path d="M 366.920796 749.941435 
L 381.374127 769.15332 
L 395.745336 785.1784 
L 409.952303 798.198777 
L 423.995028 808.214452 
L 437.955631 815.316476 
L 451.751992 819.778004 
L 465.466232 821.599035 
L 479.01623 820.961674 
L 492.484106 817.86592 
L 505.78774 812.584928 
L 519.009253 805.027646 
L 532.066523 795.558281 
L 545.041672 784.085781 
L 557.852579 770.792249 
L 570.581364 755.859788 
L 659.600742 665.44556 
" clip-path="url(#p6c10a41e58)" style="fill: none; stroke: #7a7a7a; stroke-width: 3; stroke-linecap: square"/>
   </g>
   <g id="line2d_46">
    <path d="M 339.492316 778.89584 
L 367.90625 812.584928 
L 373.818976 818.685385 
L 386.137156 829.793679 
L 398.865942 839.809353 
L 411.923212 848.368203 
L 425.391088 855.561278 
L 439.187449 861.297528 
L 453.148053 865.303798 
L 467.437141 867.67114 
L 481.890472 868.126398 
L 496.590166 866.669572 
L 511.371981 863.11856 
L 526.235918 857.473362 
L 541.264097 849.551873 
L 556.292276 839.263044 
L 558.345306 837.533064 
L 596.860147 798.654035 
L 601.294692 793.373043 
L 690.314069 702.958815 
" clip-path="url(#p6c10a41e58)" style="fill: none; stroke: #7a7a7a; stroke-width: 3; stroke-linecap: square"/>
   </g>
   <g id="line2d_47">
    <path d="M 659.600742 665.44556 
L 302.455656 1034.750806 
" clip-path="url(#p6c10a41e58)" style="fill: none; stroke: #7a7a7a; stroke-width: 3; stroke-linecap: square"/>
   </g>
   <g id="line2d_48">
    <path d="M 632.090141 631.756472 
L 486.981986 781.991594 
L 481.233502 786.817328 
L 379.649581 891.253501 
L 375.215037 896.170287 
L 364.539281 906.823323 
L 300.64899 972.471519 
" clip-path="url(#p6c10a41e58)" style="fill: none; stroke: #7a7a7a; stroke-width: 3; stroke-linecap: square"/>
   </g>
   <g id="line2d_49">
    <path d="M 302.455656 1034.750806 
L 355.423828 982.396142 
L 366.428069 970.559435 
L 377.021703 958.449574 
L 387.12261 945.975506 
L 396.402306 933.137232 
L 404.614425 920.025803 
L 411.676848 906.459117 
L 417.26109 892.619275 
L 421.202907 878.324176 
L 423.255937 863.66487 
L 423.173816 848.641357 
L 420.874422 833.253639 
L 415.947151 817.410662 
L 408.309879 801.20348 
L 366.920796 749.941435 
" clip-path="url(#p6c10a41e58)" style="fill: none; stroke: #7a7a7a; stroke-width: 3; stroke-linecap: square"/>
   </g>
   <g id="line2d_50">
    <path d="M 332.594136 1071.808803 
L 339.820801 1064.524675 
L 375.872006 1027.375627 
L 392.542609 1009.80267 
L 396.73079 1004.885884 
L 405.682001 992.958126 
L 414.386848 980.119852 
L 422.681089 966.553165 
L 430.31836 952.349118 
L 437.216541 937.416657 
L 443.211388 922.028938 
L 448.13866 906.185962 
L 451.916235 889.887727 
L 454.297749 873.316338 
L 455.283204 856.471794 
L 454.626234 839.536199 
L 452.162598 822.509551 
L 447.810175 805.391853 
L 441.3226 788.456257 
L 434.999268 776.164292 
L 431.550178 772.340126 
L 391.967761 722.71701 
" clip-path="url(#p6c10a41e58)" style="fill: none; stroke: #7a7a7a; stroke-width: 3; stroke-linecap: square"/>
   </g>
   <g id="line2d_51">
    <path d="M 366.920796 749.941435 
L 408.309879 801.20348 
L 415.947151 817.410662 
L 420.874422 833.253639 
L 423.173816 848.641357 
L 423.255937 863.66487 
L 421.202907 878.324176 
L 417.26109 892.619275 
L 411.676848 906.459117 
L 404.614425 920.025803 
L 396.402306 933.137232 
L 387.12261 945.975506 
L 377.021703 958.449574 
L 366.428069 970.559435 
L 355.423828 982.396142 
L 302.455656 1034.750806 
" clip-path="url(#p6c10a41e58)" style="fill: none; stroke: #7a7a7a; stroke-width: 3; stroke-linecap: square"/>
   </g>
   <g id="line2d_52">
    <path d="M 339.492316 778.89584 
L 383.180793 830.704194 
L 390.161095 840.810921 
L 392.624731 845.454552 
L 393.363821 846.456119 
L 395.252609 852.920782 
L 395.9917 858.474929 
L 396.073821 863.11856 
L 395.581094 866.851675 
L 393.610185 872.952132 
L 390.325337 878.506279 
L 384.166247 886.336715 
L 375.215037 896.170287 
L 369.548674 901.815486 
L 366.920796 904.729136 
L 349.593223 923.030506 
L 327.584743 945.429197 
L 300.64899 972.471519 
" clip-path="url(#p6c10a41e58)" style="fill: none; stroke: #7a7a7a; stroke-width: 3; stroke-linecap: square"/>
   </g>
   <g id="line2d_53">
    <path d="M 1333.980011 109.848763 
L 1323.961225 94.18789 
L 1317.391529 77.707552 
L 1314.02456 60.771956 
L 1313.613954 43.745309 
L 1315.913348 27.082868 
L 1320.758498 11.14884 
L 1326.539637 -1 
" clip-path="url(#p6c10a41e58)" style="fill: none; stroke: #7a7a7a; stroke-width: 3; stroke-linecap: square"/>
   </g>
   <g id="line2d_54">
    <path d="M 1358.61637 86.084298 
L 1353.689098 79.801739 
L 1352.046674 77.889655 
L 1351.06122 75.88652 
L 1343.177585 58.404615 
L 1342.192131 55.582016 
L 1341.206676 51.302591 
L 1341.124555 42.379535 
L 1342.438494 34.549099 
L 1345.066373 26.263404 
L 1350.650614 15.519317 
L 1357.384552 6.778364 
" clip-path="url(#p6c10a41e58)" style="fill: none; stroke: #7a7a7a; stroke-width: 3; stroke-linecap: square"/>
   </g>
   <g id="line2d_55">
    <path d="M 506.691073 977.388305 
L 495.933196 963.184257 
L 489.609864 957.903264 
L 488.131683 956.446439 
L 482.793805 952.258066 
L 467.765626 944.518681 
L 451.58775 939.966101 
L 434.917147 938.418224 
L 418.410786 939.783998 
L 402.643517 943.88132 
L 388.354428 950.710189 
L 376.11837 960.088503 
L 366.674432 971.925209 
L 302.455656 1034.750806 
" clip-path="url(#p6c10a41e58)" style="fill: none; stroke: #7a7a7a; stroke-width: 3; stroke-linecap: square"/>
   </g>
   <g id="line2d_56">
    <path d="M 532.312887 950.892292 
L 520.158949 936.324038 
L 506.773194 924.032073 
L 492.319864 913.834295 
L 477.209563 905.821755 
L 461.524415 899.994454 
L 445.592903 896.170287 
L 429.497148 894.531358 
L 413.647757 894.895565 
L 398.126851 897.353958 
L 383.180793 901.815486 
L 369.138068 908.280148 
L 356.080798 916.656895 
L 346.63686 925.033641 
L 342.366558 929.404117 
L 334.154438 939.32874 
L 300.64899 972.471519 
" clip-path="url(#p6c10a41e58)" style="fill: none; stroke: #7a7a7a; stroke-width: 3; stroke-linecap: square"/>
   </g>
   <g id="line2d_57">
    <path d="M 659.600742 665.44556 
L 570.581364 755.859788 
L 557.852579 770.792249 
L 545.041672 784.085781 
L 532.066523 795.558281 
L 519.009253 805.027646 
L 505.78774 812.584928 
L 492.484106 817.86592 
L 479.01623 820.961674 
L 465.466232 821.599035 
L 451.751992 819.778004 
L 437.955631 815.316476 
L 423.995028 808.214452 
L 409.952303 798.198777 
L 395.745336 785.1784 
L 381.374127 769.15332 
L 366.920796 749.941435 
" clip-path="url(#p6c10a41e58)" style="fill: none; stroke: #7a7a7a; stroke-width: 3; stroke-linecap: square"/>
   </g>
   <g id="line2d_58">
    <path d="M 632.090141 631.756472 
L 492.484106 776.073241 
L 486.981986 781.991594 
L 480.822896 787.181535 
L 475.402897 790.459392 
L 469.079565 792.735682 
L 463.577445 793.281991 
L 459.79987 792.917785 
L 456.104416 792.098321 
L 452.655326 790.823598 
L 449.288356 789.093618 
L 442.965024 784.358936 
L 434.999268 776.073241 
L 431.550178 772.340126 
L 421.941998 760.139213 
L 414.633211 752.217725 
L 403.875335 738.833141 
L 391.967761 722.71701 
" clip-path="url(#p6c10a41e58)" style="fill: none; stroke: #7a7a7a; stroke-width: 3; stroke-linecap: square"/>
   </g>
   <g id="line2d_59">
    <path d="M 1303.031051 -1 
L 1289.963049 1.315269 
L 1274.360022 1.133165 
L 1263.417594 -1 
" clip-path="url(#p6c10a41e58)" style="fill: none; stroke: #7a7a7a; stroke-width: 3; stroke-linecap: square"/>
   </g>
   <g id="line2d_60">
    <path clip-path="url(#p6c10a41e58)" style="fill: none; stroke: #7a7a7a; stroke-width: 3; stroke-linecap: square"/>
   </g>
   <g id="line2d_61">
    <path d="M 1333.980011 109.848763 
L 1242.453042 -1 
" clip-path="url(#p6c10a41e58)" style="fill: none; stroke: #7a7a7a; stroke-width: 3; stroke-linecap: square"/>
   </g>
   <g id="line2d_62">
    <path d="M 1358.61637 86.084298 
L 1352.046674 77.889655 
L 1290.366652 -1 
" clip-path="url(#p6c10a41e58)" style="fill: none; stroke: #7a7a7a; stroke-width: 3; stroke-linecap: square"/>
   </g>
   <g id="line2d_63">
    <path d="M 1435.892416 232.768408 
L 1435.563932 232.404202 
L 1333.980011 109.848763 
" clip-path="url(#p6c10a41e58)" style="fill: none; stroke: #7a7a7a; stroke-width: 3; stroke-linecap: square"/>
   </g>
   <g id="line2d_64">
    <path d="M 1441 191.698518 
L 1413.309087 155.010351 
L 1358.61637 86.084298 
" clip-path="url(#p6c10a41e58)" style="fill: none; stroke: #7a7a7a; stroke-width: 3; stroke-linecap: square"/>
   </g>
   <g id="line2d_65">
    <path d="M 1228.043667 92.640013 
L 1241.675786 82.533286 
L 1255.71851 76.523881 
L 1269.925477 74.15654 
L 1283.968202 75.158107 
L 1297.436078 79.164377 
L 1310.164864 85.811143 
L 1321.743953 94.734199 
L 1333.980011 109.848763 
" clip-path="url(#p6c10a41e58)" style="fill: none; stroke: #7a7a7a; stroke-width: 3; stroke-linecap: square"/>
   </g>
   <g id="line2d_66">
    <path d="M 1256.293359 122.322831 
L 1262.452448 115.858168 
L 1268.529417 110.212969 
L 1273.210325 107.117215 
L 1277.070022 106.206699 
L 1281.011839 106.661957 
L 1285.692747 109.12035 
L 1289.798807 112.489259 
L 1308.358198 133.066918 
L 1309.261531 134.068486 
" clip-path="url(#p6c10a41e58)" style="fill: none; stroke: #7a7a7a; stroke-width: 3; stroke-linecap: square"/>
   </g>
   <g id="line2d_67">
    <path d="M 1228.043667 92.640013 
L 1321.057221 -1 
" clip-path="url(#p6c10a41e58)" style="fill: none; stroke: #7a7a7a; stroke-width: 3; stroke-linecap: square"/>
   </g>
   <g id="line2d_68">
    <path d="M 1256.293359 122.322831 
L 1262.452448 115.858168 
L 1357.384552 6.778364 
" clip-path="url(#p6c10a41e58)" style="fill: none; stroke: #7a7a7a; stroke-width: 3; stroke-linecap: square"/>
   </g>
   <g id="line2d_69">
    <path d="M 1263.417594 -1 
L 1274.360022 1.133165 
L 1289.963049 1.315269 
L 1303.031051 -1 
" clip-path="url(#p6c10a41e58)" style="fill: none; stroke: #7a7a7a; stroke-width: 3; stroke-linecap: square"/>
   </g>
   <g id="line2d_70">
    <path d="M 1195.030946 -0.232608 
L 1206.117307 10.056221 
L 1218.928214 18.706122 
L 1233.135181 25.717095 
L 1248.327603 30.815984 
L 1264.259115 34.093841 
L 1280.519112 35.277511 
L 1296.943351 34.275944 
L 1313.203348 30.998087 
L 1328.888497 25.44394 
L 1343.670312 17.4314 
L 1357.384552 6.778364 
" clip-path="url(#p6c10a41e58)" style="fill: none; stroke: #7a7a7a; stroke-width: 3; stroke-linecap: square"/>
   </g>
   <g id="line2d_71">
    <path d="M 1228.043667 92.640013 
L 788.284657 534.331272 
L 787.627688 534.968633 
" clip-path="url(#p6c10a41e58)" style="fill: none; stroke: #7a7a7a; stroke-width: 3; stroke-linecap: square"/>
   </g>
   <g id="line2d_72">
    <path d="M 1193.306401 56.492532 
L 1158.733377 88.724794 
L 1034.0734 218.018051 
L 992.684317 261.813865 
L 899.230394 355.141744 
L 846.508586 411.775833 
L 788.4489 471.869881 
L 788.284657 472.051985 
L 787.627688 472.689346 
" clip-path="url(#p6c10a41e58)" style="fill: none; stroke: #7a7a7a; stroke-width: 3; stroke-linecap: square"/>
   </g>
   <g id="line2d_73">
    <path d="M 1235.840754 -1 
L 1238.883665 11.239892 
L 1240.443968 20.071896 
L 1241.593664 32.090706 
L 1242.00427 47.114218 
L 1240.60821 61.318266 
L 1237.733968 74.884953 
L 1233.135181 85.902195 
L 1228.043667 92.640013 
" clip-path="url(#p6c10a41e58)" style="fill: none; stroke: #7a7a7a; stroke-width: 3; stroke-linecap: square"/>
   </g>
   <g id="line2d_74">
    <path d="M 1195.030946 -0.232608 
L 1197.905188 3.1363 
L 1203.078823 10.420428 
L 1206.445792 16.976142 
L 1208.170337 23.440805 
L 1208.580943 27.17392 
L 1208.580943 30.451777 
L 1207.513368 36.552234 
L 1205.049732 42.197432 
L 1200.697308 48.206837 
L 1193.306401 56.492532 
" clip-path="url(#p6c10a41e58)" style="fill: none; stroke: #7a7a7a; stroke-width: 3; stroke-linecap: square"/>
   </g>
   <g id="line2d_75">
    <path clip-path="url(#p6c10a41e58)" style="fill: none; stroke: #7a7a7a; stroke-width: 3; stroke-linecap: square"/>
   </g>
   <g id="line2d_76">
    <path clip-path="url(#p6c10a41e58)" style="fill: none; stroke: #7a7a7a; stroke-width: 3; stroke-linecap: square"/>
   </g>
   <g id="line2d_77">
    <path d="M 1333.980011 109.848763 
L 1435.563932 232.404202 
L 1435.892416 232.768408 
" clip-path="url(#p6c10a41e58)" style="fill: none; stroke: #7a7a7a; stroke-width: 3; stroke-linecap: square"/>
   </g>
   <g id="line2d_78">
    <path d="M 1309.261531 134.068486 
L 1321.333347 147.453069 
L 1338.660919 168.577038 
L 1394.25697 232.404202 
L 1394.585454 232.768408 
" clip-path="url(#p6c10a41e58)" style="fill: none; stroke: #7a7a7a; stroke-width: 3; stroke-linecap: square"/>
   </g>
   <g id="line2d_79">
    <path d="M 1326.539637 -1 
L 1320.758498 11.14884 
L 1315.913348 27.082868 
L 1313.613954 43.745309 
L 1314.02456 60.771956 
L 1317.391529 77.707552 
L 1323.961225 94.18789 
L 1333.980011 109.848763 
" clip-path="url(#p6c10a41e58)" style="fill: none; stroke: #7a7a7a; stroke-width: 3; stroke-linecap: square"/>
   </g>
   <g id="line2d_80">
    <path d="M 1285.178542 -1 
L 1281.997293 14.335646 
L 1280.108506 33.092273 
L 1280.190627 52.031004 
L 1282.079415 70.787631 
L 1285.939111 88.724794 
L 1291.769716 105.569338 
L 1299.489108 120.866005 
L 1309.261531 134.068486 
" clip-path="url(#p6c10a41e58)" style="fill: none; stroke: #7a7a7a; stroke-width: 3; stroke-linecap: square"/>
   </g>
   <g id="line2d_81">
    <path d="M 1333.980011 109.848763 
L 1321.743953 94.734199 
L 1310.164864 85.811143 
L 1297.436078 79.164377 
L 1283.968202 75.158107 
L 1269.925477 74.15654 
L 1255.71851 76.523881 
L 1241.675786 82.533286 
L 1228.043667 92.640013 
" clip-path="url(#p6c10a41e58)" style="fill: none; stroke: #7a7a7a; stroke-width: 3; stroke-linecap: square"/>
   </g>
   <g id="line2d_82">
    <path d="M 1358.61637 86.084298 
L 1346.462433 70.969734 
L 1335.540314 59.86144 
L 1322.565165 50.847333 
L 1307.947592 43.927412 
L 1292.344564 39.101678 
L 1276.002446 36.188027 
L 1259.660328 35.277511 
L 1243.646694 36.096976 
L 1228.536394 38.64642 
L 1214.740033 43.016896 
L 1202.83246 48.93525 
L 1193.306401 56.492532 
" clip-path="url(#p6c10a41e58)" style="fill: none; stroke: #7a7a7a; stroke-width: 3; stroke-linecap: square"/>
   </g>
   <g id="line2d_83">
    <path clip-path="url(#p6c10a41e58)" style="fill: none; stroke: #7a7a7a; stroke-width: 3; stroke-linecap: square"/>
   </g>
   <g id="line2d_84">
    <path clip-path="url(#p6c10a41e58)" style="fill: none; stroke: #7a7a7a; stroke-width: 3; stroke-linecap: square"/>
   </g>
   <g id="line2d_85">
    <path clip-path="url(#p6c10a41e58)" style="fill: none; stroke: #7a7a7a; stroke-width: 3; stroke-linecap: square"/>
   </g>
   <g id="line2d_86">
    <path clip-path="url(#p6c10a41e58)" style="fill: none; stroke: #7a7a7a; stroke-width: 3; stroke-linecap: square"/>
   </g>
   <g id="line2d_87">
    <path d="M 1228.043667 92.640013 
L 1233.135181 85.902195 
L 1237.733968 74.884953 
L 1240.60821 61.318266 
L 1242.00427 47.114218 
L 1241.593664 32.090706 
L 1240.443968 20.071896 
L 1238.883665 11.239892 
L 1235.840754 -1 
" clip-path="url(#p6c10a41e58)" style="fill: none; stroke: #7a7a7a; stroke-width: 3; stroke-linecap: square"/>
   </g>
   <g id="line2d_88">
    <path d="M 1256.293359 122.322831 
L 1265.901539 105.933545 
L 1272.799719 88.178485 
L 1277.152143 69.603961 
L 1279.287294 50.66523 
L 1279.369415 31.999654 
L 1277.64487 13.97144 
L 1274.871274 -1 
" clip-path="url(#p6c10a41e58)" style="fill: none; stroke: #7a7a7a; stroke-width: 3; stroke-linecap: square"/>
   </g>
   <g id="line2d_89">
    <path d="M 1242.453042 -1 
L 1333.980011 109.848763 
" clip-path="url(#p6c10a41e58)" style="fill: none; stroke: #7a7a7a; stroke-width: 3; stroke-linecap: square"/>
   </g>
   <g id="line2d_90">
    <path d="M 1195.030946 -0.232608 
L 1289.798807 112.489259 
L 1309.261531 134.068486 
" clip-path="url(#p6c10a41e58)" style="fill: none; stroke: #7a7a7a; stroke-width: 3; stroke-linecap: square"/>
   </g>
   <g id="line2d_91">
    <path clip-path="url(#p6c10a41e58)" style="fill: none; stroke: #7a7a7a; stroke-width: 3; stroke-linecap: square"/>
   </g>
   <g id="line2d_92">
    <path d="M 1357.384552 6.778364 
L 1364.160458 -1 
" clip-path="url(#p6c10a41e58)" style="fill: none; stroke: #7a7a7a; stroke-width: 3; stroke-linecap: square"/>
   </g>
   <g id="line2d_93">
    <path d="M 1321.057221 -1 
L 1228.043667 92.640013 
" clip-path="url(#p6c10a41e58)" style="fill: none; stroke: #7a7a7a; stroke-width: 3; stroke-linecap: square"/>
   </g>
   <g id="line2d_94">
    <path d="M 1255.561654 -1 
L 1193.306401 56.492532 
" clip-path="url(#p6c10a41e58)" style="fill: none; stroke: #7a7a7a; stroke-width: 3; stroke-linecap: square"/>
   </g>
   <g id="line2d_95">
    <path clip-path="url(#p6c10a41e58)" style="fill: none; stroke: #7a7a7a; stroke-width: 3; stroke-linecap: square"/>
   </g>
   <g id="line2d_96">
    <path d="M 1194.370209 -1 
L 1195.030946 -0.232608 
" clip-path="url(#p6c10a41e58)" style="fill: none; stroke: #7a7a7a; stroke-width: 3; stroke-linecap: square"/>
   </g>
   <g id="line2d_97">
    <path clip-path="url(#p6c10a41e58)" style="fill: none; stroke: #7a7a7a; stroke-width: 3; stroke-linecap: square"/>
   </g>
   <g id="line2d_98">
    <path clip-path="url(#p6c10a41e58)" style="fill: none; stroke: #7a7a7a; stroke-width: 3; stroke-linecap: square"/>
   </g>
   <g id="line2d_99">
    <path d="M 284.77971 703.366858 
L 288.109869 710.415798 
" clip-path="url(#p6c10a41e58)" style="fill: none; stroke-dasharray: 32,8,5,8; stroke-dashoffset: 0; stroke: #1e90ff; stroke-width: 5"/>
   </g>
   <g id="line2d_100">
    <path d="M 920.304747 456.396091 
L 918.662724 457.329725 
" clip-path="url(#p6c10a41e58)" style="fill: none; stroke-dasharray: 32,8,5,8; stroke-dashoffset: 0; stroke: #1e90ff; stroke-width: 5"/>
   </g>
   <g id="line2d_101">
    <path d="M 732.977796 635.289345 
L 734.617814 649.411678 
" clip-path="url(#p6c10a41e58)" style="fill: none; stroke-dasharray: 32,8,5,8; stroke-dashoffset: 0; stroke: #1e90ff; stroke-width: 5"/>
   </g>
   <g id="line2d_102">
    <path d="M 1301.011478 61.677671 
L 1316.818205 45.525795 
" clip-path="url(#p6c10a41e58)" style="fill: none; stroke-dasharray: 32,8,5,8; stroke-dashoffset: 0; stroke: #1e90ff; stroke-width: 5"/>
   </g>
   <g id="line2d_103">
    <path d="M 814.299033 560.491887 
L 812.408401 563.408383 
" clip-path="url(#p6c10a41e58)" style="fill: none; stroke-dasharray: 32,8,5,8; stroke-dashoffset: 0; stroke: #1e90ff; stroke-width: 5"/>
   </g>
   <g id="line2d_104">
    <path d="M 624.550148 748.739269 
L 621.717207 750.715462 
" clip-path="url(#p6c10a41e58)" style="fill: none; stroke-dasharray: 32,8,5,8; stroke-dashoffset: 0; stroke: #1e90ff; stroke-width: 5"/>
   </g>
   <g id="line2d_105">
    <path d="M 651.670593 620.744654 
L 643.695053 626.355352 
" clip-path="url(#p6c10a41e58)" style="fill: none; stroke-dasharray: 32,8,5,8; stroke-dashoffset: 0; stroke: #1e90ff; stroke-width: 5"/>
   </g>
   <g id="line2d_106">
    <path d="M 1007.037241 368.252106 
L 1009.832089 368.105392 
" clip-path="url(#p6c10a41e58)" style="fill: none; stroke-dasharray: 32,8,5,8; stroke-dashoffset: 0; stroke: #1e90ff; stroke-width: 5"/>
   </g>
   <g id="line2d_107">
    <path d="M 475.911984 975.870304 
L 478.666733 970.241822 
" clip-path="url(#p6c10a41e58)" style="fill: none; stroke-dasharray: 32,8,5,8; stroke-dashoffset: 0; stroke: #1e90ff; stroke-width: 5"/>
   </g>
   <g id="line2d_108">
    <path d="M 1139.876698 225.566085 
L 1140.452108 228.00465 
" clip-path="url(#p6c10a41e58)" style="fill: none; stroke-dasharray: 32,8,5,8; stroke-dashoffset: 0; stroke: #1e90ff; stroke-width: 5"/>
   </g>
   <g id="line2d_109">
    <path d="M 992.154779 277.98966 
L 990.77139 278.883282 
" clip-path="url(#p6c10a41e58)" style="fill: none; stroke-dasharray: 32,8,5,8; stroke-dashoffset: 0; stroke: #1e90ff; stroke-width: 5"/>
   </g>
   <g id="line2d_110">
    <path d="M 646.221242 691.387438 
L 964.821813 383.859362 
" clip-path="url(#p6c10a41e58)" style="fill: none; stroke-dasharray: 32,8,5,8; stroke-dashoffset: 0; stroke: #1e90ff; stroke-width: 5"/>
   </g>
   <g id="line2d_111">
    <path d="M 284.77971 703.366858 
" clip-path="url(#p6c10a41e58)" style="fill: none; stroke: #0000ff; stroke-width: 1.5; stroke-linecap: square"/>
    <defs>
     <path id="mdf3ce72904" d="M 0 10 
C 2.652031 10 5.195799 8.946337 7.071068 7.071068 
C 8.946337 5.195799 10 2.652031 10 0 
C 10 -2.652031 8.946337 -5.195799 7.071068 -7.071068 
C 5.195799 -8.946337 2.652031 -10 0 -10 
C -2.652031 -10 -5.195799 -8.946337 -7.071068 -7.071068 
C -8.946337 -5.195799 -10 -2.652031 -10 0 
C -10 2.652031 -8.946337 5.195799 -7.071068 7.071068 
C -5.195799 8.946337 -2.652031 10 0 10 
z
" style="stroke: #0000ff"/>
    </defs>
    <g clip-path="url(#p6c10a41e58)">
     <use xlink:href="#mdf3ce72904" x="284.77971" y="703.366858" style="fill: #0000ff; stroke: #0000ff"/>
    </g>
   </g>
   <g id="line2d_112">
    <path d="M 920.304747 456.396091 
" clip-path="url(#p6c10a41e58)" style="fill: none; stroke: #0000ff; stroke-width: 1.5; stroke-linecap: square"/>
    <g clip-path="url(#p6c10a41e58)">
     <use xlink:href="#mdf3ce72904" x="920.304747" y="456.396091" style="fill: #0000ff; stroke: #0000ff"/>
    </g>
   </g>
   <g id="line2d_113">
    <path d="M 732.977796 635.289345 
" clip-path="url(#p6c10a41e58)" style="fill: none; stroke: #0000ff; stroke-width: 1.5; stroke-linecap: square"/>
    <g clip-path="url(#p6c10a41e58)">
     <use xlink:href="#mdf3ce72904" x="732.977796" y="635.289345" style="fill: #0000ff; stroke: #0000ff"/>
    </g>
   </g>
   <g id="line2d_114">
    <path d="M 1301.011478 61.677671 
" clip-path="url(#p6c10a41e58)" style="fill: none; stroke: #0000ff; stroke-width: 1.5; stroke-linecap: square"/>
    <g clip-path="url(#p6c10a41e58)">
     <use xlink:href="#mdf3ce72904" x="1301.011478" y="61.677671" style="fill: #0000ff; stroke: #0000ff"/>
    </g>
   </g>
   <g id="line2d_115">
    <path d="M 814.299033 560.491887 
" clip-path="url(#p6c10a41e58)" style="fill: none; stroke: #0000ff; stroke-width: 1.5; stroke-linecap: square"/>
    <g clip-path="url(#p6c10a41e58)">
     <use xlink:href="#mdf3ce72904" x="814.299033" y="560.491887" style="fill: #0000ff; stroke: #0000ff"/>
    </g>
   </g>
   <g id="line2d_116">
    <path d="M 624.550148 748.739269 
" clip-path="url(#p6c10a41e58)" style="fill: none; stroke: #0000ff; stroke-width: 1.5; stroke-linecap: square"/>
    <g clip-path="url(#p6c10a41e58)">
     <use xlink:href="#mdf3ce72904" x="624.550148" y="748.739269" style="fill: #0000ff; stroke: #0000ff"/>
    </g>
   </g>
   <g id="line2d_117">
    <path d="M 651.670593 620.744654 
" clip-path="url(#p6c10a41e58)" style="fill: none; stroke: #0000ff; stroke-width: 1.5; stroke-linecap: square"/>
    <g clip-path="url(#p6c10a41e58)">
     <use xlink:href="#mdf3ce72904" x="651.670593" y="620.744654" style="fill: #0000ff; stroke: #0000ff"/>
    </g>
   </g>
   <g id="line2d_118">
    <path d="M 1007.037241 368.252106 
" clip-path="url(#p6c10a41e58)" style="fill: none; stroke: #0000ff; stroke-width: 1.5; stroke-linecap: square"/>
    <g clip-path="url(#p6c10a41e58)">
     <use xlink:href="#mdf3ce72904" x="1007.037241" y="368.252106" style="fill: #0000ff; stroke: #0000ff"/>
    </g>
   </g>
   <g id="line2d_119">
    <path d="M 475.911984 975.870304 
" clip-path="url(#p6c10a41e58)" style="fill: none; stroke: #0000ff; stroke-width: 1.5; stroke-linecap: square"/>
    <g clip-path="url(#p6c10a41e58)">
     <use xlink:href="#mdf3ce72904" x="475.911984" y="975.870304" style="fill: #0000ff; stroke: #0000ff"/>
    </g>
   </g>
   <g id="line2d_120">
    <path d="M 1139.876698 225.566085 
" clip-path="url(#p6c10a41e58)" style="fill: none; stroke: #0000ff; stroke-width: 1.5; stroke-linecap: square"/>
    <g clip-path="url(#p6c10a41e58)">
     <use xlink:href="#mdf3ce72904" x="1139.876698" y="225.566085" style="fill: #0000ff; stroke: #0000ff"/>
    </g>
   </g>
   <g id="line2d_121">
    <path d="M 992.154779 277.98966 
" clip-path="url(#p6c10a41e58)" style="fill: none; stroke: #0000ff; stroke-width: 1.5; stroke-linecap: square"/>
    <g clip-path="url(#p6c10a41e58)">
     <use xlink:href="#mdf3ce72904" x="992.154779" y="277.98966" style="fill: #0000ff; stroke: #0000ff"/>
    </g>
   </g>
   <g id="line2d_122">
    <path d="M 646.221242 691.387438 
" clip-path="url(#p6c10a41e58)" style="fill: none; stroke: #0000ff; stroke-width: 1.5; stroke-linecap: square"/>
    <g clip-path="url(#p6c10a41e58)">
     <use xlink:href="#mdf3ce72904" x="646.221242" y="691.387438" style="fill: #0000ff; stroke: #0000ff"/>
    </g>
   </g>
   <g id="line2d_123">
    <path d="M 288.109869 710.415798 
" clip-path="url(#p6c10a41e58)" style="fill: none; stroke: #ff0000; stroke-width: 1.5; stroke-linecap: square"/>
    <defs>
     <path id="madaa8d2cdb" d="M 0 -10 
L -2.24514 -3.09017 
L -9.510565 -3.09017 
L -3.632713 1.18034 
L -5.877853 8.09017 
L -0 3.81966 
L 5.877853 8.09017 
L 3.632713 1.18034 
L 9.510565 -3.09017 
L 2.24514 -3.09017 
z
" style="stroke: #ff0000; stroke-linejoin: bevel"/>
    </defs>
    <g clip-path="url(#p6c10a41e58)">
     <use xlink:href="#madaa8d2cdb" x="288.109869" y="710.415798" style="fill: #ff0000; stroke: #ff0000; stroke-linejoin: bevel"/>
    </g>
   </g>
   <g id="line2d_124">
    <path d="M 918.662724 457.329725 
" clip-path="url(#p6c10a41e58)" style="fill: none; stroke: #ff0000; stroke-width: 1.5; stroke-linecap: square"/>
    <g clip-path="url(#p6c10a41e58)">
     <use xlink:href="#madaa8d2cdb" x="918.662724" y="457.329725" style="fill: #ff0000; stroke: #ff0000; stroke-linejoin: bevel"/>
    </g>
   </g>
   <g id="line2d_125">
    <path d="M 734.617814 649.411678 
" clip-path="url(#p6c10a41e58)" style="fill: none; stroke: #ff0000; stroke-width: 1.5; stroke-linecap: square"/>
    <g clip-path="url(#p6c10a41e58)">
     <use xlink:href="#madaa8d2cdb" x="734.617814" y="649.411678" style="fill: #ff0000; stroke: #ff0000; stroke-linejoin: bevel"/>
    </g>
   </g>
   <g id="line2d_126">
    <path d="M 1316.818205 45.525795 
" clip-path="url(#p6c10a41e58)" style="fill: none; stroke: #ff0000; stroke-width: 1.5; stroke-linecap: square"/>
    <g clip-path="url(#p6c10a41e58)">
     <use xlink:href="#madaa8d2cdb" x="1316.818205" y="45.525795" style="fill: #ff0000; stroke: #ff0000; stroke-linejoin: bevel"/>
    </g>
   </g>
   <g id="line2d_127">
    <path d="M 812.408401 563.408383 
" clip-path="url(#p6c10a41e58)" style="fill: none; stroke: #ff0000; stroke-width: 1.5; stroke-linecap: square"/>
    <g clip-path="url(#p6c10a41e58)">
     <use xlink:href="#madaa8d2cdb" x="812.408401" y="563.408383" style="fill: #ff0000; stroke: #ff0000; stroke-linejoin: bevel"/>
    </g>
   </g>
   <g id="line2d_128">
    <path d="M 621.717207 750.715462 
" clip-path="url(#p6c10a41e58)" style="fill: none; stroke: #ff0000; stroke-width: 1.5; stroke-linecap: square"/>
    <g clip-path="url(#p6c10a41e58)">
     <use xlink:href="#madaa8d2cdb" x="621.717207" y="750.715462" style="fill: #ff0000; stroke: #ff0000; stroke-linejoin: bevel"/>
    </g>
   </g>
   <g id="line2d_129">
    <path d="M 643.695053 626.355352 
" clip-path="url(#p6c10a41e58)" style="fill: none; stroke: #ff0000; stroke-width: 1.5; stroke-linecap: square"/>
    <g clip-path="url(#p6c10a41e58)">
     <use xlink:href="#madaa8d2cdb" x="643.695053" y="626.355352" style="fill: #ff0000; stroke: #ff0000; stroke-linejoin: bevel"/>
    </g>
   </g>
   <g id="line2d_130">
    <path d="M 1009.832089 368.105392 
" clip-path="url(#p6c10a41e58)" style="fill: none; stroke: #ff0000; stroke-width: 1.5; stroke-linecap: square"/>
    <g clip-path="url(#p6c10a41e58)">
     <use xlink:href="#madaa8d2cdb" x="1009.832089" y="368.105392" style="fill: #ff0000; stroke: #ff0000; stroke-linejoin: bevel"/>
    </g>
   </g>
   <g id="line2d_131">
    <path d="M 478.666733 970.241822 
" clip-path="url(#p6c10a41e58)" style="fill: none; stroke: #ff0000; stroke-width: 1.5; stroke-linecap: square"/>
    <g clip-path="url(#p6c10a41e58)">
     <use xlink:href="#madaa8d2cdb" x="478.666733" y="970.241822" style="fill: #ff0000; stroke: #ff0000; stroke-linejoin: bevel"/>
    </g>
   </g>
   <g id="line2d_132">
    <path d="M 1140.452108 228.00465 
" clip-path="url(#p6c10a41e58)" style="fill: none; stroke: #ff0000; stroke-width: 1.5; stroke-linecap: square"/>
    <g clip-path="url(#p6c10a41e58)">
     <use xlink:href="#madaa8d2cdb" x="1140.452108" y="228.00465" style="fill: #ff0000; stroke: #ff0000; stroke-linejoin: bevel"/>
    </g>
   </g>
   <g id="line2d_133">
    <path d="M 990.77139 278.883282 
" clip-path="url(#p6c10a41e58)" style="fill: none; stroke: #ff0000; stroke-width: 1.5; stroke-linecap: square"/>
    <g clip-path="url(#p6c10a41e58)">
     <use xlink:href="#madaa8d2cdb" x="990.77139" y="278.883282" style="fill: #ff0000; stroke: #ff0000; stroke-linejoin: bevel"/>
    </g>
   </g>
   <g id="line2d_134">
    <path d="M 964.821813 383.859362 
" clip-path="url(#p6c10a41e58)" style="fill: none; stroke: #ff0000; stroke-width: 1.5; stroke-linecap: square"/>
    <g clip-path="url(#p6c10a41e58)">
     <use xlink:href="#madaa8d2cdb" x="964.821813" y="383.859362" style="fill: #ff0000; stroke: #ff0000; stroke-linejoin: bevel"/>
    </g>
   </g>
  </g>
 </g>
 <defs>
  <clipPath id="p6c10a41e58">
   <rect x="0" y="0" width="1440" height="1440"/>
  </clipPath>
 </defs>
</svg>
