<?xml version="1.0" encoding="utf-8" standalone="no"?>
<!DOCTYPE svg PUBLIC "-//W3C//DTD SVG 1.1//EN"
  "http://www.w3.org/Graphics/SVG/1.1/DTD/svg11.dtd">
<svg xmlns:xlink="http://www.w3.org/1999/xlink" width="1440pt" height="1440pt" viewBox="0 0 1440 1440" xmlns="http://www.w3.org/2000/svg" version="1.1">
 <metadata>
  <rdf:RDF xmlns:dc="http://purl.org/dc/elements/1.1/" xmlns:cc="http://creativecommons.org/ns#" xmlns:rdf="http://www.w3.org/1999/02/22-rdf-syntax-ns#">
   <cc:Work>
    <dc:type rdf:resource="http://purl.org/dc/dcmitype/StillImage"/>
    <dc:date>2026-02-27T11:10:29.349368</dc:date>
    <dc:format>image/svg+xml</dc:format>
    <dc:creator>
     <cc:Agent>
      <dc:title>Matplotlib v3.7.3, https://matplotlib.org/</dc:title>
     </cc:Agent>
    </dc:creator>
   </cc:Work>
  </rdf:RDF>
 </metadata>
 <defs>
  <style type="text/css">*{stroke-linejoin: round; stroke-linecap: butt}</style>
 </defs>
 <g id="figure_1">
  <g id="patch_1">
   <path d="M 0 1440 
L 1440 1440 
L 1440 0 
L 0 0 
z
" style="fill: #ffffff"/>
  </g>
  <g id="axes_1">
   <g id="line2d_1">
    <path d="M 1137.895292 163.803327 
L 1360.276035 -1 
" clip-path="url(#p047d606cf3)" style="fill: none; stroke: #7a7a7a; stroke-width: 3; stroke-linecap: square"/>
   </g>
   <g id="line2d_2">
    <path d="M 1137.895292 208.110197 
L 1419.392245 -1 
" clip-path="url(#p047d606cf3)" style="fill: none; stroke: #7a7a7a; stroke-width: 3; stroke-linecap: square"/>
   </g>
   <g id="line2d_3">
    <path d="M 1137.895292 208.110197 
L 1419.392245 -1 
" clip-path="url(#p047d606cf3)" style="fill: none; stroke: #7a7a7a; stroke-width: 3; stroke-linecap: square"/>
   </g>
   <g id="line2d_4">
    <path d="M 1137.895292 255.777419 
L 1441 31.987012 
" clip-path="url(#p047d606cf3)" style="fill: none; stroke: #7a7a7a; stroke-width: 3; stroke-linecap: square"/>
   </g>
   <g id="line2d_5">
    <path d="M 1137.895292 255.777419 
L 1441 31.987012 
" clip-path="url(#p047d606cf3)" style="fill: none; stroke: #7a7a7a; stroke-width: 3; stroke-linecap: square"/>
   </g>
   <g id="line2d_6">
    <path d="M 1137.895292 304.066928 
L 1441 77.925446 
" clip-path="url(#p047d606cf3)" style="fill: none; stroke: #7a7a7a; stroke-width: 3; stroke-linecap: square"/>
   </g>
   <g id="line2d_7">
    <path d="M 567.517888 483.908014 
L 673.1264 791.815866 
" clip-path="url(#p047d606cf3)" style="fill: none; stroke: #7a7a7a; stroke-width: 3; stroke-linecap: square"/>
   </g>
   <g id="line2d_8">
    <path d="M 540.361413 504.070129 
L 644.689822 810.982321 
" clip-path="url(#p047d606cf3)" style="fill: none; stroke: #7a7a7a; stroke-width: 3; stroke-linecap: square"/>
   </g>
   <g id="line2d_9">
    <path d="M 799.125128 466.483964 
L 952.371766 345.137903 
L 1137.895292 208.110197 
" clip-path="url(#p047d606cf3)" style="fill: none; stroke: #7a7a7a; stroke-width: 3; stroke-linecap: square"/>
   </g>
   <g id="line2d_10">
    <path d="M 812.566211 502.825554 
L 962.338284 386.706708 
L 1137.895292 255.777419 
" clip-path="url(#p047d606cf3)" style="fill: none; stroke: #7a7a7a; stroke-width: 3; stroke-linecap: square"/>
   </g>
   <g id="line2d_11">
    <path d="M 540.361413 504.070129 
L 644.689822 810.982321 
" clip-path="url(#p047d606cf3)" style="fill: none; stroke: #7a7a7a; stroke-width: 3; stroke-linecap: square"/>
   </g>
   <g id="line2d_12">
    <path d="M 506.164371 529.335001 
L 612.047191 833.011298 
" clip-path="url(#p047d606cf3)" style="fill: none; stroke: #7a7a7a; stroke-width: 3; stroke-linecap: square"/>
   </g>
   <g id="line2d_13">
    <path d="M 490.528825 73.696098 
L 619.362067 445.575104 
" clip-path="url(#p047d606cf3)" style="fill: none; stroke: #7a7a7a; stroke-width: 3; stroke-linecap: square"/>
   </g>
   <g id="line2d_14">
    <path d="M 459.714913 73.696098 
L 592.845644 465.239389 
" clip-path="url(#p047d606cf3)" style="fill: none; stroke: #7a7a7a; stroke-width: 3; stroke-linecap: square"/>
   </g>
   <g id="line2d_15">
    <path d="M 619.362067 445.575104 
L 629.237148 464.990474 
L 643.226847 480.174289 
L 659.685317 490.255347 
L 677.332454 494.984731 
L 694.613847 493.740156 
L 709.975085 486.023792 
L 784.312505 428.39997 
" clip-path="url(#p047d606cf3)" style="fill: none; stroke: #7a7a7a; stroke-width: 3; stroke-linecap: square"/>
   </g>
   <g id="line2d_16">
    <path d="M 592.845644 465.239389 
L 601.25775 484.779217 
L 612.961551 501.456521 
L 627.316994 515.146846 
L 643.409719 525.601276 
L 660.599676 532.695354 
L 678.063941 536.180164 
L 695.071026 536.055706 
L 710.889444 532.073066 
L 724.879143 524.107786 
L 799.125128 466.483964 
" clip-path="url(#p047d606cf3)" style="fill: none; stroke: #7a7a7a; stroke-width: 3; stroke-linecap: square"/>
   </g>
   <g id="line2d_17">
    <path d="M 471.784457 689.760717 
L 506.347243 656.28165 
L 507.718782 654.78816 
L 538.715566 624.296073 
L 784.312505 428.39997 
" clip-path="url(#p047d606cf3)" style="fill: none; stroke: #7a7a7a; stroke-width: 3; stroke-linecap: square"/>
   </g>
   <g id="line2d_18">
    <path d="M 486.505643 724.857732 
L 554.991164 658.7708 
L 668.646039 571.028263 
L 741.154741 512.284324 
L 799.125128 466.483964 
" clip-path="url(#p047d606cf3)" style="fill: none; stroke: #7a7a7a; stroke-width: 3; stroke-linecap: square"/>
   </g>
   <g id="line2d_19">
    <path d="M 592.845644 465.239389 
L 689.219126 744.148644 
L 692.327948 753.731871 
L 699.459952 774.018444 
" clip-path="url(#p047d606cf3)" style="fill: none; stroke: #7a7a7a; stroke-width: 3; stroke-linecap: square"/>
   </g>
   <g id="line2d_20">
    <path d="M 567.517888 483.908014 
L 673.1264 791.815866 
" clip-path="url(#p047d606cf3)" style="fill: none; stroke: #7a7a7a; stroke-width: 3; stroke-linecap: square"/>
   </g>
   <g id="line2d_21">
    <path d="M 878.582961 1193.813587 
L 759.624801 842.594526 
L 729.816684 759.456916 
" clip-path="url(#p047d606cf3)" style="fill: none; stroke: #7a7a7a; stroke-width: 3; stroke-linecap: square"/>
   </g>
   <g id="line2d_22">
    <path d="M 914.334414 1193.813587 
L 756.973159 741.783952 
" clip-path="url(#p047d606cf3)" style="fill: none; stroke: #7a7a7a; stroke-width: 3; stroke-linecap: square"/>
   </g>
   <g id="line2d_23">
    <path d="M 784.312505 428.39997 
L 1137.895292 163.803327 
" clip-path="url(#p047d606cf3)" style="fill: none; stroke: #7a7a7a; stroke-width: 3; stroke-linecap: square"/>
   </g>
   <g id="line2d_24">
    <path d="M 799.125128 466.483964 
L 952.371766 345.137903 
L 1137.895292 208.110197 
" clip-path="url(#p047d606cf3)" style="fill: none; stroke: #7a7a7a; stroke-width: 3; stroke-linecap: square"/>
   </g>
   <g id="line2d_25">
    <path d="M 729.816684 759.456916 
L 619.362067 445.575104 
" clip-path="url(#p047d606cf3)" style="fill: none; stroke: #7a7a7a; stroke-width: 3; stroke-linecap: square"/>
   </g>
   <g id="line2d_26">
    <path d="M 756.973159 741.783952 
L 647.067157 425.039617 
" clip-path="url(#p047d606cf3)" style="fill: none; stroke: #7a7a7a; stroke-width: 3; stroke-linecap: square"/>
   </g>
   <g id="line2d_27">
    <path d="M 673.1264 791.815866 
L 812.109032 1193.813587 
" clip-path="url(#p047d606cf3)" style="fill: none; stroke: #7a7a7a; stroke-width: 3; stroke-linecap: square"/>
   </g>
   <g id="line2d_28">
    <path d="M 644.689822 810.982321 
L 777.363374 1193.813587 
" clip-path="url(#p047d606cf3)" style="fill: none; stroke: #7a7a7a; stroke-width: 3; stroke-linecap: square"/>
   </g>
   <g id="line2d_29">
    <path d="M 699.459952 774.018444 
L 706.957699 795.176219 
L 731.553967 875.077933 
L 739.417458 900.09389 
L 753.590029 940.542577 
L 762.002136 962.944927 
L 778.917785 1007.127339 
L 800.405231 1067.115853 
L 844.843099 1193.813587 
" clip-path="url(#p047d606cf3)" style="fill: none; stroke: #7a7a7a; stroke-width: 3; stroke-linecap: square"/>
   </g>
   <g id="line2d_30">
    <path d="M 673.1264 791.815866 
L 812.109032 1193.813587 
" clip-path="url(#p047d606cf3)" style="fill: none; stroke: #7a7a7a; stroke-width: 3; stroke-linecap: square"/>
   </g>
   <g id="line2d_31">
    <path d="M 388.760622 73.696098 
L 540.361413 504.070129 
" clip-path="url(#p047d606cf3)" style="fill: none; stroke: #7a7a7a; stroke-width: 3; stroke-linecap: square"/>
   </g>
   <g id="line2d_32">
    <path d="M 348.071628 73.696098 
L 506.164371 529.335001 
" clip-path="url(#p047d606cf3)" style="fill: none; stroke: #7a7a7a; stroke-width: 3; stroke-linecap: square"/>
   </g>
   <g id="line2d_33">
    <path d="M 501.22683 760.328119 
L 515.948017 747.757912 
L 531.85787 740.041547 
L 548.590648 736.805652 
L 565.597733 737.676854 
L 582.239074 742.281782 
L 598.148928 750.247062 
L 612.687243 761.199321 
L 625.488275 774.640731 
L 635.911972 790.446834 
L 643.592591 807.995341 
L 644.689822 810.982321 
" clip-path="url(#p047d606cf3)" style="fill: none; stroke: #7a7a7a; stroke-width: 3; stroke-linecap: square"/>
   </g>
   <g id="line2d_34">
    <path d="M 515.948017 794.678389 
L 525.731662 788.455514 
L 534.966693 784.970704 
L 541.367208 783.477214 
L 547.85916 782.854926 
L 556.637011 783.228299 
L 565.414861 785.592991 
L 574.649891 789.949004 
L 584.524973 796.545251 
L 594.582926 805.257276 
L 601.166314 812.849183 
L 606.103855 820.192176 
L 610.218472 828.157456 
L 612.047191 833.011298 
" clip-path="url(#p047d606cf3)" style="fill: none; stroke: #7a7a7a; stroke-width: 3; stroke-linecap: square"/>
   </g>
   <g id="line2d_35">
    <path d="M 784.403941 723.737614 
L 673.58358 405.375332 
" clip-path="url(#p047d606cf3)" style="fill: none; stroke: #7a7a7a; stroke-width: 3; stroke-linecap: square"/>
   </g>
   <g id="line2d_36">
    <path d="M 819.058163 701.086349 
L 718.844371 415.95422 
L 717.74714 413.46507 
L 706.591955 380.981663 
" clip-path="url(#p047d606cf3)" style="fill: none; stroke: #7a7a7a; stroke-width: 3; stroke-linecap: square"/>
   </g>
   <g id="line2d_37">
    <path d="M 486.505643 724.857732 
L 554.991164 658.7708 
L 668.646039 571.028263 
L 741.154741 512.284324 
L 799.125128 466.483964 
" clip-path="url(#p047d606cf3)" style="fill: none; stroke: #7a7a7a; stroke-width: 3; stroke-linecap: square"/>
   </g>
   <g id="line2d_38">
    <path d="M 501.22683 760.328119 
L 569.71235 694.241187 
L 686.018868 600.898063 
L 812.566211 502.825554 
" clip-path="url(#p047d606cf3)" style="fill: none; stroke: #7a7a7a; stroke-width: 3; stroke-linecap: square"/>
   </g>
   <g id="line2d_39">
    <path d="M 647.067157 425.039617 
L 524.817303 73.696098 
" clip-path="url(#p047d606cf3)" style="fill: none; stroke: #7a7a7a; stroke-width: 3; stroke-linecap: square"/>
   </g>
   <g id="line2d_40">
    <path d="M 673.58358 405.375332 
L 559.288653 73.696098 
" clip-path="url(#p047d606cf3)" style="fill: none; stroke: #7a7a7a; stroke-width: 3; stroke-linecap: square"/>
   </g>
   <g id="line2d_41">
    <path d="M 756.973159 741.783952 
L 647.067157 425.039617 
" clip-path="url(#p047d606cf3)" style="fill: none; stroke: #7a7a7a; stroke-width: 3; stroke-linecap: square"/>
   </g>
   <g id="line2d_42">
    <path d="M 784.403941 723.737614 
L 673.58358 405.375332 
" clip-path="url(#p047d606cf3)" style="fill: none; stroke: #7a7a7a; stroke-width: 3; stroke-linecap: square"/>
   </g>
   <g id="line2d_43">
    <path d="M 40.663992 1093.127471 
L 65.168824 1072.218611 
L 98.085763 1043.220014 
L 123.687827 1019.822004 
L 239.720037 910.05049 
L 280.500467 870.72192 
L 374.770923 782.854926 
L 414.545557 745.144304 
L 471.784457 689.760717 
" clip-path="url(#p047d606cf3)" style="fill: none; stroke: #7a7a7a; stroke-width: 3; stroke-linecap: square"/>
   </g>
   <g id="line2d_44">
    <path d="M 40.663992 1145.524078 
L 40.9383 1145.275163 
L 143.89517 1052.554326 
L 228.290544 974.395017 
L 486.505643 724.857732 
" clip-path="url(#p047d606cf3)" style="fill: none; stroke: #7a7a7a; stroke-width: 3; stroke-linecap: square"/>
   </g>
   <g id="line2d_45">
    <path d="M 40.663992 1145.524078 
L 40.9383 1145.275163 
L 143.89517 1052.554326 
L 228.290544 974.395017 
L 486.505643 724.857732 
" clip-path="url(#p047d606cf3)" style="fill: none; stroke: #7a7a7a; stroke-width: 3; stroke-linecap: square"/>
   </g>
   <g id="line2d_46">
    <path d="M 40.663992 1192.69347 
L 40.9383 1192.444555 
L 158.9821 1088.024713 
L 250.875222 1001.775667 
L 501.22683 760.328119 
" clip-path="url(#p047d606cf3)" style="fill: none; stroke: #7a7a7a; stroke-width: 3; stroke-linecap: square"/>
   </g>
   <g id="line2d_47">
    <path d="M 812.566211 502.825554 
L 962.338284 386.706708 
L 1137.895292 255.777419 
" clip-path="url(#p047d606cf3)" style="fill: none; stroke: #7a7a7a; stroke-width: 3; stroke-linecap: square"/>
   </g>
   <g id="line2d_48">
    <path d="M 825.184371 536.677994 
L 885.806401 490.130889 
L 1137.895292 304.066928 
" clip-path="url(#p047d606cf3)" style="fill: none; stroke: #7a7a7a; stroke-width: 3; stroke-linecap: square"/>
   </g>
   <g id="line2d_49">
    <path d="M 501.22683 760.328119 
L 569.71235 694.241187 
L 686.018868 600.898063 
L 812.566211 502.825554 
" clip-path="url(#p047d606cf3)" style="fill: none; stroke: #7a7a7a; stroke-width: 3; stroke-linecap: square"/>
   </g>
   <g id="line2d_50">
    <path d="M 515.948017 794.678389 
L 677.881069 654.663702 
L 810.006005 548.501456 
L 825.184371 536.677994 
" clip-path="url(#p047d606cf3)" style="fill: none; stroke: #7a7a7a; stroke-width: 3; stroke-linecap: square"/>
   </g>
   <g id="line2d_51">
    <path d="M 40.663992 1192.69347 
L 40.9383 1192.444555 
L 158.9821 1088.024713 
L 250.875222 1001.775667 
L 501.22683 760.328119 
" clip-path="url(#p047d606cf3)" style="fill: none; stroke: #7a7a7a; stroke-width: 3; stroke-linecap: square"/>
   </g>
   <g id="line2d_52">
    <path d="M 40.663992 1238.120457 
L 40.9383 1237.871542 
L 103.297612 1188.586372 
L 176.080622 1117.147768 
L 235.422548 1066.742481 
L 501.501138 807.746426 
L 515.948017 794.678389 
" clip-path="url(#p047d606cf3)" style="fill: none; stroke: #7a7a7a; stroke-width: 3; stroke-linecap: square"/>
   </g>
   <g id="line2d_53">
    <path d="M 592.845644 465.239389 
L 459.98922 73.696098 
" clip-path="url(#p047d606cf3)" style="fill: none; stroke: #7a7a7a; stroke-width: 3; stroke-linecap: square"/>
   </g>
   <g id="line2d_54">
    <path d="M 619.362067 445.575104 
L 490.711697 73.696098 
" clip-path="url(#p047d606cf3)" style="fill: none; stroke: #7a7a7a; stroke-width: 3; stroke-linecap: square"/>
   </g>
   <g id="line2d_55">
    <path d="M 673.58358 405.375332 
L 559.288653 73.696098 
" clip-path="url(#p047d606cf3)" style="fill: none; stroke: #7a7a7a; stroke-width: 3; stroke-linecap: square"/>
   </g>
   <g id="line2d_56">
    <path d="M 706.591955 380.981663 
L 624.299607 146.25482 
L 599.886211 73.696098 
" clip-path="url(#p047d606cf3)" style="fill: none; stroke: #7a7a7a; stroke-width: 3; stroke-linecap: square"/>
   </g>
   <g id="line2d_57">
    <path d="M 914.334414 1193.813587 
L 756.973159 741.783952 
" clip-path="url(#p047d606cf3)" style="fill: none; stroke: #7a7a7a; stroke-width: 3; stroke-linecap: square"/>
   </g>
   <g id="line2d_58">
    <path d="M 947.617097 1193.813587 
L 784.403941 723.737614 
" clip-path="url(#p047d606cf3)" style="fill: none; stroke: #7a7a7a; stroke-width: 3; stroke-linecap: square"/>
   </g>
   <g id="line2d_59">
    <path d="M 644.689822 810.982321 
L 777.363374 1193.813587 
" clip-path="url(#p047d606cf3)" style="fill: none; stroke: #7a7a7a; stroke-width: 3; stroke-linecap: square"/>
   </g>
   <g id="line2d_60">
    <path d="M 612.047191 833.011298 
L 615.338885 841.349951 
L 658.770957 966.056364 
L 707.414878 1104.453103 
L 725.427759 1157.471998 
L 740.788997 1193.813587 
" clip-path="url(#p047d606cf3)" style="fill: none; stroke: #7a7a7a; stroke-width: 3; stroke-linecap: square"/>
   </g>
   <g id="line2d_61">
    <path d="M 424.603511 73.696098 
L 491.626056 271.085691 
L 567.517888 483.908014 
" clip-path="url(#p047d606cf3)" style="fill: none; stroke: #7a7a7a; stroke-width: 3; stroke-linecap: square"/>
   </g>
   <g id="line2d_62">
    <path d="M 388.760622 73.696098 
L 540.361413 504.070129 
" clip-path="url(#p047d606cf3)" style="fill: none; stroke: #7a7a7a; stroke-width: 3; stroke-linecap: square"/>
   </g>
   <g id="line2d_63">
    <path d="M 619.362067 445.575104 
L 490.711697 73.696098 
" clip-path="url(#p047d606cf3)" style="fill: none; stroke: #7a7a7a; stroke-width: 3; stroke-linecap: square"/>
   </g>
   <g id="line2d_64">
    <path d="M 647.067157 425.039617 
L 524.817303 73.696098 
" clip-path="url(#p047d606cf3)" style="fill: none; stroke: #7a7a7a; stroke-width: 3; stroke-linecap: square"/>
   </g>
   <g id="line2d_65">
    <path d="M 471.784457 689.760717 
L 506.347243 656.28165 
L 510.370424 651.925637 
L 538.62413 624.296073 
L 565.231989 596.54205 
L 586.445128 572.272838 
L 602.720725 550.866148 
L 614.698834 531.948609 
L 622.653761 515.022389 
L 627.042686 499.714116 
L 628.505661 485.650419 
L 627.408429 472.209009 
L 624.208172 459.016514 
L 619.362067 445.575104 
" clip-path="url(#p047d606cf3)" style="fill: none; stroke: #7a7a7a; stroke-width: 3; stroke-linecap: square"/>
   </g>
   <g id="line2d_66">
    <path d="M 486.505643 724.857732 
L 553.345317 659.517545 
L 582.056202 628.40317 
L 605.646675 601.02252 
L 624.391043 576.877766 
L 638.746486 555.471076 
L 649.353055 536.553536 
L 656.393623 519.627316 
L 660.50824 504.443501 
L 661.971215 490.379804 
L 661.4226 477.187309 
L 659.228137 464.492644 
L 655.753571 451.922437 
L 647.067157 425.039617 
" clip-path="url(#p047d606cf3)" style="fill: none; stroke: #7a7a7a; stroke-width: 3; stroke-linecap: square"/>
   </g>
   <g id="line2d_67">
    <path d="M 459.714913 73.696098 
L 592.845644 465.239389 
" clip-path="url(#p047d606cf3)" style="fill: none; stroke: #7a7a7a; stroke-width: 3; stroke-linecap: square"/>
   </g>
   <g id="line2d_68">
    <path d="M 424.603511 73.696098 
L 491.626056 271.085691 
L 567.517888 483.908014 
" clip-path="url(#p047d606cf3)" style="fill: none; stroke: #7a7a7a; stroke-width: 3; stroke-linecap: square"/>
   </g>
   <g id="line2d_69">
    <path d="M 784.403941 723.737614 
L 767.945472 676.817137 
L 762.002136 656.157192 
L 758.619006 634.87496 
L 757.887518 613.343813 
L 759.899109 592.061581 
L 764.745214 571.526093 
L 772.334397 551.861808 
L 782.84953 533.566556 
L 796.199178 517.138166 
L 812.566211 502.825554 
" clip-path="url(#p047d606cf3)" style="fill: none; stroke: #7a7a7a; stroke-width: 3; stroke-linecap: square"/>
   </g>
   <g id="line2d_70">
    <path d="M 819.058163 701.086349 
L 797.662153 638.733143 
L 794.187587 627.40751 
L 791.353073 615.584048 
L 789.890098 606.125278 
L 789.524354 599.155658 
L 790.07297 590.817006 
L 791.444509 582.602811 
L 793.730407 574.513073 
L 796.839229 566.796708 
L 800.405231 560.449376 
L 805.068464 554.102043 
L 810.006005 548.501456 
L 825.184371 536.677994 
" clip-path="url(#p047d606cf3)" style="fill: none; stroke: #7a7a7a; stroke-width: 3; stroke-linecap: square"/>
   </g>
   <g id="line2d_71">
    <path d="M 947.617097 1193.813587 
L 784.403941 723.737614 
" clip-path="url(#p047d606cf3)" style="fill: none; stroke: #7a7a7a; stroke-width: 3; stroke-linecap: square"/>
   </g>
   <g id="line2d_72">
    <path d="M 982.454191 1193.813587 
L 974.499264 1171.411237 
L 942.313812 1079.063773 
L 938.473503 1066.244651 
L 933.444526 1034.383531 
L 930.335704 1021.688866 
L 904.825076 944.151845 
L 821.984113 709.798374 
L 819.058163 701.086349 
" clip-path="url(#p047d606cf3)" style="fill: none; stroke: #7a7a7a; stroke-width: 3; stroke-linecap: square"/>
   </g>
   <g id="line2d_73">
    <path d="M 965.283164 315.87775 
L 1302.846088 62.228749 
" clip-path="url(#p047d606cf3)" style="fill: none; stroke-dasharray: 32,8,5,8; stroke-dashoffset: 0; stroke: #1e90ff; stroke-width: 5"/>
   </g>
   <g id="line2d_74">
    <path d="M 182.871883 1066.627504 
L 290.300185 952.05125 
" clip-path="url(#p047d606cf3)" style="fill: none; stroke-dasharray: 32,8,5,8; stroke-dashoffset: 0; stroke: #1e90ff; stroke-width: 5"/>
   </g>
   <g id="line2d_75">
    <path d="M 965.283164 315.87775 
" clip-path="url(#p047d606cf3)" style="fill: none; stroke: #0000ff; stroke-width: 1.5; stroke-linecap: square"/>
    <defs>
     <path id="m1caca661e6" d="M 0 10 
C 2.652031 10 5.195799 8.946337 7.071068 7.071068 
C 8.946337 5.195799 10 2.652031 10 0 
C 10 -2.652031 8.946337 -5.195799 7.071068 -7.071068 
C 5.195799 -8.946337 2.652031 -10 0 -10 
C -2.652031 -10 -5.195799 -8.946337 -7.071068 -7.071068 
C -8.946337 -5.195799 -10 -2.652031 -10 0 
C -10 2.652031 -8.946337 5.195799 -7.071068 7.071068 
C -5.195799 8.946337 -2.652031 10 0 10 
z
" style="stroke: #0000ff"/>
    </defs>
    <g clip-path="url(#p047d606cf3)">
     <use xlink:href="#m1caca661e6" x="965.283164" y="315.87775" style="fill: #0000ff; stroke: #0000ff"/>
    </g>
   </g>
   <g id="line2d_76">
    <path d="M 182.871883 1066.627504 
" clip-path="url(#p047d606cf3)" style="fill: none; stroke: #0000ff; stroke-width: 1.5; stroke-linecap: square"/>
    <g clip-path="url(#p047d606cf3)">
     <use xlink:href="#m1caca661e6" x="182.871883" y="1066.627504" style="fill: #0000ff; stroke: #0000ff"/>
    </g>
   </g>
   <g id="line2d_77">
    <path d="M 1302.846088 62.228749 
" clip-path="url(#p047d606cf3)" style="fill: none; stroke: #ff0000; stroke-width: 1.5; stroke-linecap: square"/>
    <defs>
     <path id="mf6f2339261" d="M 0 -10 
L -2.24514 -3.09017 
L -9.510565 -3.09017 
L -3.632713 1.18034 
L -5.877853 8.09017 
L -0 3.81966 
L 5.877853 8.09017 
L 3.632713 1.18034 
L 9.510565 -3.09017 
L 2.24514 -3.09017 
z
" style="stroke: #ff0000; stroke-linejoin: bevel"/>
    </defs>
    <g clip-path="url(#p047d606cf3)">
     <use xlink:href="#mf6f2339261" x="1302.846088" y="62.228749" style="fill: #ff0000; stroke: #ff0000; stroke-linejoin: bevel"/>
    </g>
   </g>
   <g id="line2d_78">
    <path d="M 290.300185 952.05125 
" clip-path="url(#p047d606cf3)" style="fill: none; stroke: #ff0000; stroke-width: 1.5; stroke-linecap: square"/>
    <g clip-path="url(#p047d606cf3)">
     <use xlink:href="#mf6f2339261" x="290.300185" y="952.05125" style="fill: #ff0000; stroke: #ff0000; stroke-linejoin: bevel"/>
    </g>
   </g>
  </g>
 </g>
 <defs>
  <clipPath id="p047d606cf3">
   <rect x="0" y="0" width="1440" height="1440"/>
  </clipPath>
 </defs>
</svg>
