<?xml version="1.0" encoding="utf-8" standalone="no"?>
<!DOCTYPE svg PUBLIC "-//W3C//DTD SVG 1.1//EN"
  "http://www.w3.org/Graphics/SVG/1.1/DTD/svg11.dtd">
<svg xmlns:xlink="http://www.w3.org/1999/xlink" width="1440pt" height="1440pt" viewBox="0 0 1440 1440" xmlns="http://www.w3.org/2000/svg" version="1.1">
 <metadata>
  <rdf:RDF xmlns:dc="http://purl.org/dc/elements/1.1/" xmlns:cc="http://creativecommons.org/ns#" xmlns:rdf="http://www.w3.org/1999/02/22-rdf-syntax-ns#">
   <cc:Work>
    <dc:type rdf:resource="http://purl.org/dc/dcmitype/StillImage"/>
    <dc:date>2026-02-27T11:09:50.987545</dc:date>
    <dc:format>image/svg+xml</dc:format>
    <dc:creator>
     <cc:Agent>
      <dc:title>Matplotlib v3.7.3, https://matplotlib.org/</dc:title>
     </cc:Agent>
    </dc:creator>
   </cc:Work>
  </rdf:RDF>
 </metadata>
 <defs>
  <style type="text/css">*{stroke-linejoin: round; stroke-linecap: butt}</style>
 </defs>
 <g id="figure_1">
  <g id="patch_1">
   <path d="M 0 1440 
L 1440 1440 
L 1440 0 
L 0 0 
z
" style="fill: #ffffff"/>
  </g>
  <g id="axes_1">
   <g id="line2d_1">
    <path d="M 1122.082362 31.29096 
L 1057.624624 170.198162 
" clip-path="url(#p4576bd76d1)" style="fill: none; stroke: #7a7a7a; stroke-width: 3; stroke-linecap: square"/>
   </g>
   <g id="line2d_2">
    <path d="M 1090.42696 25.152671 
L 1024.5929 163.226278 
" clip-path="url(#p4576bd76d1)" style="fill: none; stroke: #7a7a7a; stroke-width: 3; stroke-linecap: square"/>
   </g>
   <g id="line2d_3">
    <path d="M 1157.407955 187.930996 
L 1145.021058 213.772434 
L 1051.775256 412.016427 
" clip-path="url(#p4576bd76d1)" style="fill: none; stroke: #7a7a7a; stroke-width: 3; stroke-linecap: square"/>
   </g>
   <g id="line2d_4">
    <path d="M 1124.720312 182.095832 
L 1019.317 406.105482 
" clip-path="url(#p4576bd76d1)" style="fill: none; stroke: #7a7a7a; stroke-width: 3; stroke-linecap: square"/>
   </g>
   <g id="line2d_5">
    <path d="M 1189.751517 44.325351 
L 1124.720312 182.095832 
" clip-path="url(#p4576bd76d1)" style="fill: none; stroke: #7a7a7a; stroke-width: 3; stroke-linecap: square"/>
   </g>
   <g id="line2d_6">
    <path d="M 1157.522648 38.111281 
L 1092.032669 176.260669 
" clip-path="url(#p4576bd76d1)" style="fill: none; stroke: #7a7a7a; stroke-width: 3; stroke-linecap: square"/>
   </g>
   <g id="line2d_7">
    <path d="M 986.05589 400.042974 
L 923.662635 532.584543 
L 923.433248 533.039231 
" clip-path="url(#p4576bd76d1)" style="fill: none; stroke: #7a7a7a; stroke-width: 3; stroke-linecap: square"/>
   </g>
   <g id="line2d_8">
    <path d="M 953.941714 394.207811 
L 889.369283 532.584543 
L 889.139896 533.039231 
" clip-path="url(#p4576bd76d1)" style="fill: none; stroke: #7a7a7a; stroke-width: 3; stroke-linecap: square"/>
   </g>
   <g id="line2d_9">
    <path d="M 1057.624624 170.198162 
L 953.941714 394.207811 
" clip-path="url(#p4576bd76d1)" style="fill: none; stroke: #7a7a7a; stroke-width: 3; stroke-linecap: square"/>
   </g>
   <g id="line2d_10">
    <path d="M 1024.5929 163.226278 
L 919.074895 387.690616 
" clip-path="url(#p4576bd76d1)" style="fill: none; stroke: #7a7a7a; stroke-width: 3; stroke-linecap: square"/>
   </g>
   <g id="line2d_11">
    <path d="M 953.941714 394.207811 
L 889.369283 532.584543 
L 889.139896 533.039231 
" clip-path="url(#p4576bd76d1)" style="fill: none; stroke: #7a7a7a; stroke-width: 3; stroke-linecap: square"/>
   </g>
   <g id="line2d_12">
    <path d="M 919.074895 387.690616 
L 853.470223 532.584543 
L 853.240836 533.039231 
" clip-path="url(#p4576bd76d1)" style="fill: none; stroke: #7a7a7a; stroke-width: 3; stroke-linecap: square"/>
   </g>
   <g id="line2d_13">
    <path d="M 1157.522648 38.111281 
L 1092.032669 176.260669 
" clip-path="url(#p4576bd76d1)" style="fill: none; stroke: #7a7a7a; stroke-width: 3; stroke-linecap: square"/>
   </g>
   <g id="line2d_14">
    <path d="M 1122.082362 31.29096 
L 1057.624624 170.198162 
" clip-path="url(#p4576bd76d1)" style="fill: none; stroke: #7a7a7a; stroke-width: 3; stroke-linecap: square"/>
   </g>
   <g id="line2d_15">
    <path d="M 1051.775256 412.016427 
L 1002.915832 515.988429 
L 1002.342364 516.897805 
L 995.116675 532.584543 
L 994.887288 533.039231 
" clip-path="url(#p4576bd76d1)" style="fill: none; stroke: #7a7a7a; stroke-width: 3; stroke-linecap: square"/>
   </g>
   <g id="line2d_16">
    <path d="M 1019.317 406.105482 
L 960.364549 532.584543 
L 960.135162 533.039231 
" clip-path="url(#p4576bd76d1)" style="fill: none; stroke: #7a7a7a; stroke-width: 3; stroke-linecap: square"/>
   </g>
   <g id="line2d_17">
    <path d="M 1092.032669 176.260669 
L 986.05589 400.042974 
" clip-path="url(#p4576bd76d1)" style="fill: none; stroke: #7a7a7a; stroke-width: 3; stroke-linecap: square"/>
   </g>
   <g id="line2d_18">
    <path d="M 1057.624624 170.198162 
L 953.941714 394.207811 
" clip-path="url(#p4576bd76d1)" style="fill: none; stroke: #7a7a7a; stroke-width: 3; stroke-linecap: square"/>
   </g>
   <g id="line2d_19">
    <path d="M 1124.720312 182.095832 
L 1019.317 406.105482 
" clip-path="url(#p4576bd76d1)" style="fill: none; stroke: #7a7a7a; stroke-width: 3; stroke-linecap: square"/>
   </g>
   <g id="line2d_20">
    <path d="M 1092.032669 176.260669 
L 986.05589 400.042974 
" clip-path="url(#p4576bd76d1)" style="fill: none; stroke: #7a7a7a; stroke-width: 3; stroke-linecap: square"/>
   </g>
   <g id="line2d_21">
    <path d="M 1019.317 406.105482 
L 960.364549 532.584543 
L 960.135162 533.039231 
" clip-path="url(#p4576bd76d1)" style="fill: none; stroke: #7a7a7a; stroke-width: 3; stroke-linecap: square"/>
   </g>
   <g id="line2d_22">
    <path d="M 986.05589 400.042974 
L 923.662635 532.584543 
L 923.433248 533.039231 
" clip-path="url(#p4576bd76d1)" style="fill: none; stroke: #7a7a7a; stroke-width: 3; stroke-linecap: square"/>
   </g>
   <g id="line2d_23">
    <path d="M 1222.095079 50.615203 
L 1213.034294 68.651162 
L 1199.959237 97.372291 
L 1161.766307 178.913016 
L 1157.407955 187.930996 
" clip-path="url(#p4576bd76d1)" style="fill: none; stroke: #7a7a7a; stroke-width: 3; stroke-linecap: square"/>
   </g>
   <g id="line2d_24">
    <path d="M 1189.751517 44.325351 
L 1124.720312 182.095832 
" clip-path="url(#p4576bd76d1)" style="fill: none; stroke: #7a7a7a; stroke-width: 3; stroke-linecap: square"/>
   </g>
   <g id="line2d_25">
    <path d="M 1012.320698 161.937995 
L 919.074895 387.690616 
" clip-path="url(#p4576bd76d1)" style="fill: none; stroke: #7a7a7a; stroke-width: 3; stroke-linecap: square"/>
   </g>
   <g id="line2d_26">
    <path d="M 994.084434 159.058304 
L 981.926924 184.672398 
L 978.715507 194.448191 
L 973.439607 203.920859 
L 967.590239 217.182594 
L 955.77681 242.190437 
L 948.551121 254.694359 
L 888.795816 382.385922 
" clip-path="url(#p4576bd76d1)" style="fill: none; stroke: #7a7a7a; stroke-width: 3; stroke-linecap: square"/>
   </g>
   <g id="line2d_27">
    <path d="M 1092.032669 176.260669 
L 919.074895 387.690616 
" clip-path="url(#p4576bd76d1)" style="fill: none; stroke: #7a7a7a; stroke-width: 3; stroke-linecap: square"/>
   </g>
   <g id="line2d_28">
    <path d="M 1057.624624 170.198162 
L 888.795816 382.385922 
" clip-path="url(#p4576bd76d1)" style="fill: none; stroke: #7a7a7a; stroke-width: 3; stroke-linecap: square"/>
   </g>
   <g id="line2d_29">
    <path d="M 1057.624624 170.198162 
L 919.074895 387.690616 
" clip-path="url(#p4576bd76d1)" style="fill: none; stroke: #7a7a7a; stroke-width: 3; stroke-linecap: square"/>
   </g>
   <g id="line2d_30">
    <path d="M 1024.5929 163.226278 
L 888.795816 382.385922 
" clip-path="url(#p4576bd76d1)" style="fill: none; stroke: #7a7a7a; stroke-width: 3; stroke-linecap: square"/>
   </g>
   <g id="line2d_31">
    <path d="M 566.62182 1215.071317 
L 566.048352 1216.3596 
L 565.818965 1216.814288 
L 556.4141 1236.744781 
" clip-path="url(#p4576bd76d1)" style="fill: none; stroke: #7a7a7a; stroke-width: 3; stroke-linecap: square"/>
   </g>
   <g id="line2d_32">
    <path d="M 513.174656 1215.071317 
L 512.257108 1216.435381 
L 511.913028 1216.890069 
L 506.178354 1229.621335 
" clip-path="url(#p4576bd76d1)" style="fill: none; stroke: #7a7a7a; stroke-width: 3; stroke-linecap: square"/>
   </g>
   <g id="line2d_33">
    <path d="M 1078.384144 23.712826 
L 1012.320698 161.937995 
" clip-path="url(#p4576bd76d1)" style="fill: none; stroke: #7a7a7a; stroke-width: 3; stroke-linecap: square"/>
   </g>
   <g id="line2d_34">
    <path d="M 1061.180122 19.317508 
L 994.084434 159.058304 
" clip-path="url(#p4576bd76d1)" style="fill: none; stroke: #7a7a7a; stroke-width: 3; stroke-linecap: square"/>
   </g>
   <g id="line2d_35">
    <path d="M 919.074895 387.690616 
L 853.470223 532.584543 
L 853.240836 533.039231 
" clip-path="url(#p4576bd76d1)" style="fill: none; stroke: #7a7a7a; stroke-width: 3; stroke-linecap: square"/>
   </g>
   <g id="line2d_36">
    <path d="M 888.795816 382.385922 
L 819.062177 532.584543 
L 818.83279 533.039231 
" clip-path="url(#p4576bd76d1)" style="fill: none; stroke: #7a7a7a; stroke-width: 3; stroke-linecap: square"/>
   </g>
   <g id="line2d_37">
    <path d="M 642.090132 1215.071317 
L 641.516665 1216.3596 
L 641.287278 1216.738506 
L 627.294673 1246.747918 
" clip-path="url(#p4576bd76d1)" style="fill: none; stroke: #7a7a7a; stroke-width: 3; stroke-linecap: square"/>
   </g>
   <g id="line2d_38">
    <path d="M 603.667815 1215.071317 
L 603.094347 1216.3596 
L 602.86496 1216.814288 
L 591.280919 1241.670568 
" clip-path="url(#p4576bd76d1)" style="fill: none; stroke: #7a7a7a; stroke-width: 3; stroke-linecap: square"/>
   </g>
   <g id="line2d_39">
    <path d="M 603.667815 1215.071317 
L 603.094347 1216.3596 
L 602.86496 1216.814288 
L 591.280919 1241.670568 
" clip-path="url(#p4576bd76d1)" style="fill: none; stroke: #7a7a7a; stroke-width: 3; stroke-linecap: square"/>
   </g>
   <g id="line2d_40">
    <path d="M 566.62182 1215.071317 
L 566.048352 1216.3596 
L 565.818965 1216.814288 
L 556.4141 1236.744781 
" clip-path="url(#p4576bd76d1)" style="fill: none; stroke: #7a7a7a; stroke-width: 3; stroke-linecap: square"/>
   </g>
   <g id="line2d_41">
    <path d="M 975.962863 731.813693 
L 658.950074 664.595642 
" clip-path="url(#p4576bd76d1)" style="fill: none; stroke: #7a7a7a; stroke-width: 3; stroke-linecap: square"/>
   </g>
   <g id="line2d_42">
    <path d="M 987.432212 709.685541 
L 665.372909 642.315928 
" clip-path="url(#p4576bd76d1)" style="fill: none; stroke: #7a7a7a; stroke-width: 3; stroke-linecap: square"/>
   </g>
   <g id="line2d_43">
    <path d="M 964.493515 754.16919 
L 651.380304 688.845672 
" clip-path="url(#p4576bd76d1)" style="fill: none; stroke: #7a7a7a; stroke-width: 3; stroke-linecap: square"/>
   </g>
   <g id="line2d_44">
    <path d="M 975.962863 731.813693 
L 658.950074 664.595642 
" clip-path="url(#p4576bd76d1)" style="fill: none; stroke: #7a7a7a; stroke-width: 3; stroke-linecap: square"/>
   </g>
   <g id="line2d_45">
    <path d="M 691.40833 1215.071317 
L 691.178943 1216.3596 
L 691.178943 1216.738506 
L 673.63084 1253.340895 
" clip-path="url(#p4576bd76d1)" style="fill: none; stroke: #7a7a7a; stroke-width: 3; stroke-linecap: square"/>
   </g>
   <g id="line2d_46">
    <path d="M 642.090132 1215.071317 
L 641.516665 1216.3596 
L 641.287278 1216.738506 
L 627.294673 1246.747918 
" clip-path="url(#p4576bd76d1)" style="fill: none; stroke: #7a7a7a; stroke-width: 3; stroke-linecap: square"/>
   </g>
   <g id="line2d_47">
    <path d="M 753.916279 894.516237 
L 610.778811 1199.99083 
" clip-path="url(#p4576bd76d1)" style="fill: none; stroke: #7a7a7a; stroke-width: 3; stroke-linecap: square"/>
   </g>
   <g id="line2d_48">
    <path d="M 720.769862 888.984198 
L 574.420977 1198.626765 
" clip-path="url(#p4576bd76d1)" style="fill: none; stroke: #7a7a7a; stroke-width: 3; stroke-linecap: square"/>
   </g>
   <g id="line2d_49">
    <path d="M 953.48294 776.827811 
L 645.072163 709.685541 
" clip-path="url(#p4576bd76d1)" style="fill: none; stroke: #7a7a7a; stroke-width: 3; stroke-linecap: square"/>
   </g>
   <g id="line2d_50">
    <path d="M 964.493515 754.16919 
L 651.380304 688.845672 
" clip-path="url(#p4576bd76d1)" style="fill: none; stroke: #7a7a7a; stroke-width: 3; stroke-linecap: square"/>
   </g>
   <g id="line2d_51">
    <path d="M 659.982315 768.112957 
L 971.26043 833.360693 
" clip-path="url(#p4576bd76d1)" style="fill: none; stroke: #7a7a7a; stroke-width: 3; stroke-linecap: square"/>
   </g>
   <g id="line2d_52">
    <path d="M 654.706415 791.45361 
L 961.626178 855.640408 
" clip-path="url(#p4576bd76d1)" style="fill: none; stroke: #7a7a7a; stroke-width: 3; stroke-linecap: square"/>
   </g>
   <g id="line2d_53">
    <path d="M 808.051603 626.932315 
L 798.07327 645.877651 
L 786.489228 659.594074 
L 772.840703 668.915179 
L 757.357083 674.447217 
L 740.267754 676.796438 
L 721.572716 676.417532 
L 702.762985 673.840966 
L 658.950074 664.595642 
" clip-path="url(#p4576bd76d1)" style="fill: none; stroke: #7a7a7a; stroke-width: 3; stroke-linecap: square"/>
   </g>
   <g id="line2d_54">
    <path d="M 776.969669 620.718245 
L 772.611316 628.296379 
L 772.267236 628.826848 
L 769.285205 634.510449 
L 766.991336 636.329201 
L 763.435838 639.890925 
L 757.013003 644.362024 
L 752.539957 646.483901 
L 748.410991 648.07531 
L 745.773041 649.287811 
L 742.676317 649.81828 
L 741.988156 649.969843 
L 737.17103 650.955001 
L 732.468597 651.561251 
L 726.045762 651.940158 
L 715.035188 651.030782 
L 713.314785 650.727657 
L 691.637717 647.54484 
L 665.372909 642.315928 
" clip-path="url(#p4576bd76d1)" style="fill: none; stroke: #7a7a7a; stroke-width: 3; stroke-linecap: square"/>
   </g>
   <g id="line2d_55">
    <path d="M 979.747748 813.884888 
L 1370.967221 896.259207 
L 1441 908.370089 
" clip-path="url(#p4576bd76d1)" style="fill: none; stroke: #7a7a7a; stroke-width: 3; stroke-linecap: square"/>
   </g>
   <g id="line2d_56">
    <path d="M 971.26043 833.360693 
L 1441 931.990749 
" clip-path="url(#p4576bd76d1)" style="fill: none; stroke: #7a7a7a; stroke-width: 3; stroke-linecap: square"/>
   </g>
   <g id="line2d_57">
    <path d="M 1339.885287 854.200562 
L 1113.824431 810.323165 
" clip-path="url(#p4576bd76d1)" style="fill: none; stroke: #7a7a7a; stroke-width: 3; stroke-linecap: square"/>
   </g>
   <g id="line2d_58">
    <path d="M 1348.372605 834.497413 
L 1126.555407 788.119231 
" clip-path="url(#p4576bd76d1)" style="fill: none; stroke: #7a7a7a; stroke-width: 3; stroke-linecap: square"/>
   </g>
   <g id="line2d_59">
    <path d="M 645.072163 709.685541 
L 368.546173 652.091721 
L 303.285581 637.996391 
L 253.393915 628.069035 
" clip-path="url(#p4576bd76d1)" style="fill: none; stroke: #7a7a7a; stroke-width: 3; stroke-linecap: square"/>
   </g>
   <g id="line2d_60">
    <path d="M 651.380304 688.845672 
L 253.393915 605.561976 
" clip-path="url(#p4576bd76d1)" style="fill: none; stroke: #7a7a7a; stroke-width: 3; stroke-linecap: square"/>
   </g>
   <g id="line2d_61">
    <path d="M 1348.372605 834.497413 
L 1126.555407 788.119231 
" clip-path="url(#p4576bd76d1)" style="fill: none; stroke: #7a7a7a; stroke-width: 3; stroke-linecap: square"/>
   </g>
   <g id="line2d_62">
    <path d="M 1358.121551 811.76301 
L 1137.910062 765.687954 
" clip-path="url(#p4576bd76d1)" style="fill: none; stroke: #7a7a7a; stroke-width: 3; stroke-linecap: square"/>
   </g>
   <g id="line2d_63">
    <path d="M 821.241354 905.731875 
L 816.653614 916.795951 
L 781.213328 990.379635 
L 769.743979 1013.79607 
L 731.89513 1095.261014 
L 704.942161 1151.036082 
L 702.304211 1157.477496 
L 701.27197 1163.691566 
L 693.7022 1203.173646 
" clip-path="url(#p4576bd76d1)" style="fill: none; stroke: #7a7a7a; stroke-width: 3; stroke-linecap: square"/>
   </g>
   <g id="line2d_64">
    <path d="M 788.897791 899.896712 
L 648.398274 1201.430675 
" clip-path="url(#p4576bd76d1)" style="fill: none; stroke: #7a7a7a; stroke-width: 3; stroke-linecap: square"/>
   </g>
   <g id="line2d_65">
    <path d="M 1358.121551 811.76301 
L 1137.910062 765.687954 
" clip-path="url(#p4576bd76d1)" style="fill: none; stroke: #7a7a7a; stroke-width: 3; stroke-linecap: square"/>
   </g>
   <g id="line2d_66">
    <path d="M 1367.64111 789.634858 
L 1148.920637 743.559802 
" clip-path="url(#p4576bd76d1)" style="fill: none; stroke: #7a7a7a; stroke-width: 3; stroke-linecap: square"/>
   </g>
   <g id="line2d_67">
    <path d="M 937.196466 653.455785 
L 889.483976 756.215286 
L 889.483976 767.73405 
L 898.200681 780.313753 
L 912.193286 792.059861 
L 927.906294 801.077841 
L 941.669512 805.397377 
L 979.747748 813.884888 
" clip-path="url(#p4576bd76d1)" style="fill: none; stroke: #7a7a7a; stroke-width: 3; stroke-linecap: square"/>
   </g>
   <g id="line2d_68">
    <path d="M 906.917386 647.241715 
L 859.204897 750.001216 
L 856.108173 764.323889 
L 858.97551 778.116094 
L 867.004054 790.847359 
L 879.161563 802.290342 
L 894.87457 811.990354 
L 913.110834 819.64427 
L 933.182194 824.873182 
L 971.26043 833.360693 
" clip-path="url(#p4576bd76d1)" style="fill: none; stroke: #7a7a7a; stroke-width: 3; stroke-linecap: square"/>
   </g>
   <g id="line2d_69">
    <path d="M 664.340668 748.485589 
L 979.747748 813.884888 
" clip-path="url(#p4576bd76d1)" style="fill: none; stroke: #7a7a7a; stroke-width: 3; stroke-linecap: square"/>
   </g>
   <g id="line2d_70">
    <path d="M 659.982315 768.112957 
L 971.26043 833.360693 
" clip-path="url(#p4576bd76d1)" style="fill: none; stroke: #7a7a7a; stroke-width: 3; stroke-linecap: square"/>
   </g>
   <g id="line2d_71">
    <path d="M 841.656794 633.601073 
L 720.769862 888.984198 
" clip-path="url(#p4576bd76d1)" style="fill: none; stroke: #7a7a7a; stroke-width: 3; stroke-linecap: square"/>
   </g>
   <g id="line2d_72">
    <path d="M 808.051603 626.932315 
L 700.239728 858.671661 
L 688.885073 883.906849 
" clip-path="url(#p4576bd76d1)" style="fill: none; stroke: #7a7a7a; stroke-width: 3; stroke-linecap: square"/>
   </g>
   <g id="line2d_73">
    <path d="M 253.393915 707.412101 
L 654.706415 791.45361 
" clip-path="url(#p4576bd76d1)" style="fill: none; stroke: #7a7a7a; stroke-width: 3; stroke-linecap: square"/>
   </g>
   <g id="line2d_74">
    <path d="M 253.393915 732.571507 
L 267.615907 735.526979 
L 332.647113 749.319184 
L 649.201128 816.006765 
" clip-path="url(#p4576bd76d1)" style="fill: none; stroke: #7a7a7a; stroke-width: 3; stroke-linecap: square"/>
   </g>
   <g id="line2d_75">
    <path d="M 1126.555407 788.119231 
L 964.493515 754.16919 
" clip-path="url(#p4576bd76d1)" style="fill: none; stroke: #7a7a7a; stroke-width: 3; stroke-linecap: square"/>
   </g>
   <g id="line2d_76">
    <path d="M 1137.910062 765.687954 
L 975.962863 731.813693 
" clip-path="url(#p4576bd76d1)" style="fill: none; stroke: #7a7a7a; stroke-width: 3; stroke-linecap: square"/>
   </g>
   <g id="line2d_77">
    <path d="M 1102.699163 829.420063 
L 946.830718 796.606742 
" clip-path="url(#p4576bd76d1)" style="fill: none; stroke: #7a7a7a; stroke-width: 3; stroke-linecap: square"/>
   </g>
   <g id="line2d_78">
    <path d="M 1113.824431 810.323165 
L 953.48294 776.827811 
" clip-path="url(#p4576bd76d1)" style="fill: none; stroke: #7a7a7a; stroke-width: 3; stroke-linecap: square"/>
   </g>
   <g id="line2d_79">
    <path d="M 937.196466 653.455785 
L 832.481315 884.134193 
L 828.237656 891.33342 
L 821.241354 905.731875 
" clip-path="url(#p4576bd76d1)" style="fill: none; stroke: #7a7a7a; stroke-width: 3; stroke-linecap: square"/>
   </g>
   <g id="line2d_80">
    <path d="M 906.917386 647.241715 
L 788.897791 899.896712 
" clip-path="url(#p4576bd76d1)" style="fill: none; stroke: #7a7a7a; stroke-width: 3; stroke-linecap: square"/>
   </g>
   <g id="line2d_81">
    <path d="M 994.887288 533.039231 
L 994.428514 534.10017 
L 994.199127 534.554858 
L 975.389396 575.704127 
L 965.525756 595.786183 
L 949.239282 631.024507 
L 937.196466 653.455785 
" clip-path="url(#p4576bd76d1)" style="fill: none; stroke: #7a7a7a; stroke-width: 3; stroke-linecap: square"/>
   </g>
   <g id="line2d_82">
    <path d="M 960.135162 533.039231 
L 959.561695 534.10017 
L 959.332308 534.554858 
L 906.917386 647.241715 
" clip-path="url(#p4576bd76d1)" style="fill: none; stroke: #7a7a7a; stroke-width: 3; stroke-linecap: square"/>
   </g>
   <g id="line2d_83">
    <path d="M 658.950074 664.595642 
L 253.393915 580.93304 
" clip-path="url(#p4576bd76d1)" style="fill: none; stroke: #7a7a7a; stroke-width: 3; stroke-linecap: square"/>
   </g>
   <g id="line2d_84">
    <path d="M 665.372909 642.315928 
L 253.393915 556.000978 
" clip-path="url(#p4576bd76d1)" style="fill: none; stroke: #7a7a7a; stroke-width: 3; stroke-linecap: square"/>
   </g>
   <g id="line2d_85">
    <path d="M 253.393915 663.383141 
L 282.870141 669.445648 
L 315.328397 676.796438 
L 358.56784 685.132386 
L 664.340668 748.485589 
" clip-path="url(#p4576bd76d1)" style="fill: none; stroke: #7a7a7a; stroke-width: 3; stroke-linecap: square"/>
   </g>
   <g id="line2d_86">
    <path d="M 253.393915 682.707383 
L 659.982315 768.112957 
" clip-path="url(#p4576bd76d1)" style="fill: none; stroke: #7a7a7a; stroke-width: 3; stroke-linecap: square"/>
   </g>
   <g id="line2d_87">
    <path d="M 253.393915 682.707383 
L 659.982315 768.112957 
" clip-path="url(#p4576bd76d1)" style="fill: none; stroke: #7a7a7a; stroke-width: 3; stroke-linecap: square"/>
   </g>
   <g id="line2d_88">
    <path d="M 253.393915 707.412101 
L 654.706415 791.45361 
" clip-path="url(#p4576bd76d1)" style="fill: none; stroke: #7a7a7a; stroke-width: 3; stroke-linecap: square"/>
   </g>
   <g id="line2d_89">
    <path d="M 1113.824431 810.323165 
L 953.48294 776.827811 
" clip-path="url(#p4576bd76d1)" style="fill: none; stroke: #7a7a7a; stroke-width: 3; stroke-linecap: square"/>
   </g>
   <g id="line2d_90">
    <path d="M 1126.555407 788.119231 
L 964.493515 754.16919 
" clip-path="url(#p4576bd76d1)" style="fill: none; stroke: #7a7a7a; stroke-width: 3; stroke-linecap: square"/>
   </g>
   <g id="line2d_91">
    <path d="M 873.197502 640.19405 
L 753.916279 894.516237 
" clip-path="url(#p4576bd76d1)" style="fill: none; stroke: #7a7a7a; stroke-width: 3; stroke-linecap: square"/>
   </g>
   <g id="line2d_92">
    <path d="M 841.656794 633.601073 
L 720.769862 888.984198 
" clip-path="url(#p4576bd76d1)" style="fill: none; stroke: #7a7a7a; stroke-width: 3; stroke-linecap: square"/>
   </g>
   <g id="line2d_93">
    <path d="M 853.240836 533.039231 
L 852.782062 534.10017 
L 852.552675 534.554858 
L 808.051603 626.932315 
" clip-path="url(#p4576bd76d1)" style="fill: none; stroke: #7a7a7a; stroke-width: 3; stroke-linecap: square"/>
   </g>
   <g id="line2d_94">
    <path d="M 818.83279 533.039231 
L 818.374017 534.024389 
L 817.112388 534.554858 
L 785.342293 602.909629 
L 776.969669 620.718245 
" clip-path="url(#p4576bd76d1)" style="fill: none; stroke: #7a7a7a; stroke-width: 3; stroke-linecap: square"/>
   </g>
   <g id="line2d_95">
    <path d="M 788.897791 899.896712 
L 648.398274 1201.430675 
" clip-path="url(#p4576bd76d1)" style="fill: none; stroke: #7a7a7a; stroke-width: 3; stroke-linecap: square"/>
   </g>
   <g id="line2d_96">
    <path d="M 753.916279 894.516237 
L 610.778811 1199.99083 
" clip-path="url(#p4576bd76d1)" style="fill: none; stroke: #7a7a7a; stroke-width: 3; stroke-linecap: square"/>
   </g>
   <g id="line2d_97">
    <path d="M 960.135162 533.039231 
L 959.561695 534.10017 
L 959.332308 534.554858 
L 906.917386 647.241715 
" clip-path="url(#p4576bd76d1)" style="fill: none; stroke: #7a7a7a; stroke-width: 3; stroke-linecap: square"/>
   </g>
   <g id="line2d_98">
    <path d="M 923.433248 533.039231 
L 922.974474 534.10017 
L 922.745087 534.554858 
L 873.197502 640.19405 
" clip-path="url(#p4576bd76d1)" style="fill: none; stroke: #7a7a7a; stroke-width: 3; stroke-linecap: square"/>
   </g>
   <g id="line2d_99">
    <path d="M 654.706415 791.45361 
L 688.082219 798.880182 
L 703.107065 806.837223 
L 716.640896 819.189582 
L 726.733923 833.512256 
L 732.468597 848.820087 
L 732.468597 864.203699 
L 720.769862 888.984198 
" clip-path="url(#p4576bd76d1)" style="fill: none; stroke: #7a7a7a; stroke-width: 3; stroke-linecap: square"/>
   </g>
   <g id="line2d_100">
    <path d="M 649.201128 816.006765 
L 660.326396 819.038019 
L 667.208005 820.705209 
L 677.071644 823.736462 
L 684.870801 827.146623 
L 688.77038 829.420063 
L 692.211184 831.996629 
L 695.422602 835.027882 
L 697.601778 837.831792 
L 700.010341 841.696641 
L 701.386663 845.182582 
L 702.074824 847.910711 
L 702.074824 851.396652 
L 700.239728 858.671661 
L 693.587506 873.676367 
L 688.885073 883.906849 
" clip-path="url(#p4576bd76d1)" style="fill: none; stroke: #7a7a7a; stroke-width: 3; stroke-linecap: square"/>
   </g>
   <g id="line2d_101">
    <path d="M 923.433248 533.039231 
L 922.974474 534.10017 
L 922.745087 534.554858 
L 873.197502 640.19405 
" clip-path="url(#p4576bd76d1)" style="fill: none; stroke: #7a7a7a; stroke-width: 3; stroke-linecap: square"/>
   </g>
   <g id="line2d_102">
    <path d="M 889.139896 533.039231 
L 888.681122 534.10017 
L 888.451735 534.554858 
L 841.656794 633.601073 
" clip-path="url(#p4576bd76d1)" style="fill: none; stroke: #7a7a7a; stroke-width: 3; stroke-linecap: square"/>
   </g>
   <g id="line2d_103">
    <path d="M 651.380304 688.845672 
L 253.393915 605.561976 
" clip-path="url(#p4576bd76d1)" style="fill: none; stroke: #7a7a7a; stroke-width: 3; stroke-linecap: square"/>
   </g>
   <g id="line2d_104">
    <path d="M 658.950074 664.595642 
L 253.393915 580.93304 
" clip-path="url(#p4576bd76d1)" style="fill: none; stroke: #7a7a7a; stroke-width: 3; stroke-linecap: square"/>
   </g>
   <g id="line2d_105">
    <path d="M 1339.885287 854.200562 
L 1217.392647 847.077116 
L 1102.699163 829.420063 
" clip-path="url(#p4576bd76d1)" style="fill: none; stroke: #7a7a7a; stroke-width: 3; stroke-linecap: square"/>
   </g>
   <g id="line2d_106">
    <path d="M 1348.372605 834.497413 
L 1241.822359 827.752873 
L 1208.102474 823.888025 
L 1113.824431 810.323165 
" clip-path="url(#p4576bd76d1)" style="fill: none; stroke: #7a7a7a; stroke-width: 3; stroke-linecap: square"/>
   </g>
   <g id="line2d_107">
    <path d="M 906.917386 647.241715 
L 788.897791 899.896712 
" clip-path="url(#p4576bd76d1)" style="fill: none; stroke: #7a7a7a; stroke-width: 3; stroke-linecap: square"/>
   </g>
   <g id="line2d_108">
    <path d="M 873.197502 640.19405 
L 753.916279 894.516237 
" clip-path="url(#p4576bd76d1)" style="fill: none; stroke: #7a7a7a; stroke-width: 3; stroke-linecap: square"/>
   </g>
   <g id="line2d_109">
    <path d="M 961.626178 855.640408 
L 1441 956.056097 
" clip-path="url(#p4576bd76d1)" style="fill: none; stroke: #7a7a7a; stroke-width: 3; stroke-linecap: square"/>
   </g>
   <g id="line2d_110">
    <path d="M 951.533151 878.753717 
L 988.808533 886.483414 
L 1089.968186 908.763129 
L 1121.967668 915.507668 
L 1146.970848 920.281893 
L 1167.042207 924.828774 
L 1186.081326 928.617841 
L 1216.131018 935.36238 
L 1360.415421 965.82648 
L 1392.414903 972.343676 
L 1411.339328 975.753836 
L 1430.83722 979.92181 
" clip-path="url(#p4576bd76d1)" style="fill: none; stroke: #7a7a7a; stroke-width: 3; stroke-linecap: square"/>
   </g>
   <g id="line2d_111">
    <path d="M 946.830718 796.606742 
L 927.103439 794.25752 
L 907.032079 796.076272 
L 888.222348 801.305185 
L 872.624034 809.110663 
L 861.842847 818.886456 
L 857.713881 829.723188 
L 821.241354 905.731875 
" clip-path="url(#p4576bd76d1)" style="fill: none; stroke: #7a7a7a; stroke-width: 3; stroke-linecap: square"/>
   </g>
   <g id="line2d_112">
    <path d="M 953.48294 776.827811 
L 932.608726 773.720776 
L 911.046351 774.175464 
L 889.828057 777.585624 
L 869.986084 783.572351 
L 852.552675 791.680954 
L 838.674763 801.380966 
L 829.269897 812.29348 
L 825.370319 823.888025 
L 788.897791 899.896712 
" clip-path="url(#p4576bd76d1)" style="fill: none; stroke: #7a7a7a; stroke-width: 3; stroke-linecap: square"/>
   </g>
   <g id="line2d_113">
    <path d="M 1137.910062 765.687954 
L 975.962863 731.813693 
" clip-path="url(#p4576bd76d1)" style="fill: none; stroke: #7a7a7a; stroke-width: 3; stroke-linecap: square"/>
   </g>
   <g id="line2d_114">
    <path d="M 1148.920637 743.559802 
L 1123.802764 738.330889 
L 1104.763646 734.46604 
L 1098.684891 733.026195 
L 1066.456022 726.205874 
L 1044.66426 721.886337 
L 1033.309605 719.23399 
L 987.432212 709.685541 
" clip-path="url(#p4576bd76d1)" style="fill: none; stroke: #7a7a7a; stroke-width: 3; stroke-linecap: square"/>
   </g>
   <g id="line2d_115">
    <path d="M 720.769862 888.984198 
L 574.420977 1198.626765 
" clip-path="url(#p4576bd76d1)" style="fill: none; stroke: #7a7a7a; stroke-width: 3; stroke-linecap: square"/>
   </g>
   <g id="line2d_116">
    <path d="M 688.885073 883.906849 
L 663.7672 939.83348 
L 658.720687 950.063961 
L 653.674174 962.567882 
L 643.581147 984.544472 
L 631.997105 1008.112469 
L 621.559998 1028.194525 
L 600.800478 1072.147704 
L 576.485459 1122.087609 
L 573.847509 1127.089178 
L 571.094865 1131.029808 
L 525.790939 1196.732232 
" clip-path="url(#p4576bd76d1)" style="fill: none; stroke: #7a7a7a; stroke-width: 3; stroke-linecap: square"/>
   </g>
   <g id="line2d_117">
    <path d="M 971.26043 833.360693 
L 1441 931.990749 
" clip-path="url(#p4576bd76d1)" style="fill: none; stroke: #7a7a7a; stroke-width: 3; stroke-linecap: square"/>
   </g>
   <g id="line2d_118">
    <path d="M 961.626178 855.640408 
L 1441 956.056097 
" clip-path="url(#p4576bd76d1)" style="fill: none; stroke: #7a7a7a; stroke-width: 3; stroke-linecap: square"/>
   </g>
   <g id="line2d_119">
    <path d="M 889.139896 533.039231 
L 888.681122 534.10017 
L 888.451735 534.554858 
L 841.656794 633.601073 
" clip-path="url(#p4576bd76d1)" style="fill: none; stroke: #7a7a7a; stroke-width: 3; stroke-linecap: square"/>
   </g>
   <g id="line2d_120">
    <path d="M 853.240836 533.039231 
L 852.782062 534.10017 
L 852.552675 534.554858 
L 808.051603 626.932315 
" clip-path="url(#p4576bd76d1)" style="fill: none; stroke: #7a7a7a; stroke-width: 3; stroke-linecap: square"/>
   </g>
   <g id="line2d_121">
    <path d="M 654.706415 791.45361 
L 961.626178 855.640408 
" clip-path="url(#p4576bd76d1)" style="fill: none; stroke: #7a7a7a; stroke-width: 3; stroke-linecap: square"/>
   </g>
   <g id="line2d_122">
    <path d="M 649.201128 816.006765 
L 885.469705 865.719326 
L 924.580182 873.221679 
L 951.533151 878.753717 
" clip-path="url(#p4576bd76d1)" style="fill: none; stroke: #7a7a7a; stroke-width: 3; stroke-linecap: square"/>
   </g>
   <g id="line2d_123">
    <path d="M 591.280919 1241.670568 
L 578.435248 1269.179196 
L 497.916928 1441 
" clip-path="url(#p4576bd76d1)" style="fill: none; stroke: #7a7a7a; stroke-width: 3; stroke-linecap: square"/>
   </g>
   <g id="line2d_124">
    <path d="M 556.4141 1236.744781 
L 544.371284 1262.434656 
L 461.400916 1441 
" clip-path="url(#p4576bd76d1)" style="fill: none; stroke: #7a7a7a; stroke-width: 3; stroke-linecap: square"/>
   </g>
   <g id="line2d_125">
    <path d="M 673.63084 1253.340895 
L 661.243944 1279.409677 
L 658.14722 1285.169059 
L 648.054193 1302.674549 
L 633.258734 1336.397247 
L 623.395094 1357.616023 
L 620.068983 1365.724626 
L 609.517183 1388.080122 
L 605.732298 1395.582475 
L 588.069501 1433.09424 
L 584.049193 1441 
" clip-path="url(#p4576bd76d1)" style="fill: none; stroke: #7a7a7a; stroke-width: 3; stroke-linecap: square"/>
   </g>
   <g id="line2d_126">
    <path d="M 627.294673 1246.747918 
L 613.531454 1276.151079 
L 536.295713 1441 
" clip-path="url(#p4576bd76d1)" style="fill: none; stroke: #7a7a7a; stroke-width: 3; stroke-linecap: square"/>
   </g>
   <g id="line2d_127">
    <path d="M 946.830718 796.606742 
L 927.676907 793.954395 
L 906.917386 793.575488 
L 885.240318 795.166896 
L 862.989782 798.652838 
L 840.853939 803.805969 
L 819.062177 810.474727 
L 798.41735 818.50755 
L 779.378232 827.601311 
L 762.288903 837.680229 
L 747.837524 848.516961 
L 736.482869 859.959944 
L 728.683712 871.781834 
L 720.769862 888.984198 
" clip-path="url(#p4576bd76d1)" style="fill: none; stroke: #7a7a7a; stroke-width: 3; stroke-linecap: square"/>
   </g>
   <g id="line2d_128">
    <path d="M 953.48294 776.827811 
L 933.411581 774.023901 
L 912.193286 773.114525 
L 890.172137 774.023901 
L 867.806908 776.600467 
L 845.212292 780.69266 
L 822.961756 786.224698 
L 801.399381 793.045018 
L 780.754554 801.077841 
L 761.371355 810.095821 
L 743.708559 820.098958 
L 728.110245 830.859909 
L 714.805801 842.302891 
L 704.254 854.276343 
L 696.798924 866.704484 
L 688.885073 883.906849 
" clip-path="url(#p4576bd76d1)" style="fill: none; stroke: #7a7a7a; stroke-width: 3; stroke-linecap: square"/>
   </g>
   <g id="line2d_129">
    <path d="M 574.420977 1198.626765 
L 566.851207 1214.768191 
L 566.62182 1215.071317 
" clip-path="url(#p4576bd76d1)" style="fill: none; stroke: #7a7a7a; stroke-width: 3; stroke-linecap: square"/>
   </g>
   <g id="line2d_130">
    <path d="M 525.790939 1196.732232 
L 513.404043 1214.768191 
L 513.174656 1215.071317 
" clip-path="url(#p4576bd76d1)" style="fill: none; stroke: #7a7a7a; stroke-width: 3; stroke-linecap: square"/>
   </g>
   <g id="line2d_131">
    <path d="M 556.4141 1236.744781 
L 544.371284 1262.434656 
L 461.400916 1441 
" clip-path="url(#p4576bd76d1)" style="fill: none; stroke: #7a7a7a; stroke-width: 3; stroke-linecap: square"/>
   </g>
   <g id="line2d_132">
    <path d="M 506.178354 1229.621335 
L 495.626553 1252.658863 
L 437.362263 1382.623866 
L 414.970737 1441 
" clip-path="url(#p4576bd76d1)" style="fill: none; stroke: #7a7a7a; stroke-width: 3; stroke-linecap: square"/>
   </g>
   <g id="line2d_133">
    <path d="M 654.706415 791.45361 
L 673.97492 795.545803 
L 692.669958 801.077841 
L 709.415207 809.110663 
L 724.095973 819.189582 
L 736.368176 830.859909 
L 746.117122 843.515393 
L 752.998731 856.701346 
L 756.668922 869.8873 
L 757.127696 882.542784 
L 753.916279 894.516237 
" clip-path="url(#p4576bd76d1)" style="fill: none; stroke: #7a7a7a; stroke-width: 3; stroke-linecap: square"/>
   </g>
   <g id="line2d_134">
    <path d="M 649.201128 816.006765 
L 668.469633 820.098958 
L 675.465936 823.205993 
L 677.071644 823.736462 
L 684.870801 827.146623 
L 688.77038 829.420063 
L 692.211184 831.996629 
L 692.555265 832.299754 
L 702.877678 840.105232 
L 713.773559 852.988061 
L 720.425781 866.174014 
L 722.834345 878.602155 
L 720.769862 888.984198 
" clip-path="url(#p4576bd76d1)" style="fill: none; stroke: #7a7a7a; stroke-width: 3; stroke-linecap: square"/>
   </g>
   <g id="line2d_135">
    <path d="M 693.7022 1203.173646 
L 691.523023 1214.69241 
L 691.40833 1215.071317 
" clip-path="url(#p4576bd76d1)" style="fill: none; stroke: #7a7a7a; stroke-width: 3; stroke-linecap: square"/>
   </g>
   <g id="line2d_136">
    <path d="M 648.398274 1201.430675 
L 642.204825 1214.69241 
L 642.090132 1215.071317 
" clip-path="url(#p4576bd76d1)" style="fill: none; stroke: #7a7a7a; stroke-width: 3; stroke-linecap: square"/>
   </g>
   <g id="line2d_137">
    <path d="M 627.294673 1246.747918 
L 613.531454 1276.151079 
L 536.295713 1441 
" clip-path="url(#p4576bd76d1)" style="fill: none; stroke: #7a7a7a; stroke-width: 3; stroke-linecap: square"/>
   </g>
   <g id="line2d_138">
    <path d="M 591.280919 1241.670568 
L 578.435248 1269.179196 
L 497.916928 1441 
" clip-path="url(#p4576bd76d1)" style="fill: none; stroke: #7a7a7a; stroke-width: 3; stroke-linecap: square"/>
   </g>
   <g id="line2d_139">
    <path d="M 648.398274 1201.430675 
L 642.204825 1214.69241 
L 642.090132 1215.071317 
" clip-path="url(#p4576bd76d1)" style="fill: none; stroke: #7a7a7a; stroke-width: 3; stroke-linecap: square"/>
   </g>
   <g id="line2d_140">
    <path d="M 610.778811 1199.99083 
L 603.897202 1214.69241 
L 603.667815 1215.071317 
" clip-path="url(#p4576bd76d1)" style="fill: none; stroke: #7a7a7a; stroke-width: 3; stroke-linecap: square"/>
   </g>
   <g id="line2d_141">
    <path d="M 610.778811 1199.99083 
L 603.897202 1214.69241 
L 603.667815 1215.071317 
" clip-path="url(#p4576bd76d1)" style="fill: none; stroke: #7a7a7a; stroke-width: 3; stroke-linecap: square"/>
   </g>
   <g id="line2d_142">
    <path d="M 574.420977 1198.626765 
L 566.851207 1214.768191 
L 566.62182 1215.071317 
" clip-path="url(#p4576bd76d1)" style="fill: none; stroke: #7a7a7a; stroke-width: 3; stroke-linecap: square"/>
   </g>
   <g id="line2d_143">
    <path d="M 236.113589 668.356846 
L 229.386968 669.472475 
" clip-path="url(#p4576bd76d1)" style="fill: none; stroke-dasharray: 32,8,5,8; stroke-dashoffset: 0; stroke: #1e90ff; stroke-width: 5"/>
   </g>
   <g id="line2d_144">
    <path d="M 690.254003 1028.116792 
L 612.785149 1212.655971 
" clip-path="url(#p4576bd76d1)" style="fill: none; stroke-dasharray: 32,8,5,8; stroke-dashoffset: 0; stroke: #1e90ff; stroke-width: 5"/>
   </g>
   <g id="line2d_145">
    <path d="M 1142.620007 37.890671 
L 943.738222 468.776569 
" clip-path="url(#p4576bd76d1)" style="fill: none; stroke-dasharray: 32,8,5,8; stroke-dashoffset: 0; stroke: #1e90ff; stroke-width: 5"/>
   </g>
   <g id="line2d_146">
    <path d="M 970.090457 490.007047 
L 713.455912 1091.781862 
" clip-path="url(#p4576bd76d1)" style="fill: none; stroke-dasharray: 32,8,5,8; stroke-dashoffset: 0; stroke: #1e90ff; stroke-width: 5"/>
   </g>
   <g id="line2d_147">
    <path d="M 644.478814 806.844198 
L 654.368887 803.707764 
" clip-path="url(#p4576bd76d1)" style="fill: none; stroke-dasharray: 32,8,5,8; stroke-dashoffset: 0; stroke: #1e90ff; stroke-width: 5"/>
   </g>
   <g id="line2d_148">
    <path d="M 922.45038 724.872781 
L 743.385493 1063.256088 
" clip-path="url(#p4576bd76d1)" style="fill: none; stroke-dasharray: 32,8,5,8; stroke-dashoffset: 0; stroke: #1e90ff; stroke-width: 5"/>
   </g>
   <g id="line2d_149">
    <path d="M 908.741449 340.97534 
L 911.600736 341.224182 
" clip-path="url(#p4576bd76d1)" style="fill: none; stroke-dasharray: 32,8,5,8; stroke-dashoffset: 0; stroke: #1e90ff; stroke-width: 5"/>
   </g>
   <g id="line2d_150">
    <path d="M 247.652591 693.035736 
L 242.908114 692.703407 
" clip-path="url(#p4576bd76d1)" style="fill: none; stroke-dasharray: 32,8,5,8; stroke-dashoffset: 0; stroke: #1e90ff; stroke-width: 5"/>
   </g>
   <g id="line2d_151">
    <path d="M 437.972441 764.841843 
L 455.696938 762.961416 
" clip-path="url(#p4576bd76d1)" style="fill: none; stroke-dasharray: 32,8,5,8; stroke-dashoffset: 0; stroke: #1e90ff; stroke-width: 5"/>
   </g>
   <g id="line2d_152">
    <path d="M 934.028933 801.3729 
L 286.364792 623.629249 
" clip-path="url(#p4576bd76d1)" style="fill: none; stroke-dasharray: 32,8,5,8; stroke-dashoffset: 0; stroke: #1e90ff; stroke-width: 5"/>
   </g>
   <g id="line2d_153">
    <path d="M 976.246377 485.248974 
L 848.748056 847.818574 
" clip-path="url(#p4576bd76d1)" style="fill: none; stroke-dasharray: 32,8,5,8; stroke-dashoffset: 0; stroke: #1e90ff; stroke-width: 5"/>
   </g>
   <g id="line2d_154">
    <path d="M 236.113589 668.356846 
" clip-path="url(#p4576bd76d1)" style="fill: none; stroke: #0000ff; stroke-width: 1.5; stroke-linecap: square"/>
    <defs>
     <path id="m55710f36bb" d="M 0 10 
C 2.652031 10 5.195799 8.946337 7.071068 7.071068 
C 8.946337 5.195799 10 2.652031 10 0 
C 10 -2.652031 8.946337 -5.195799 7.071068 -7.071068 
C 5.195799 -8.946337 2.652031 -10 0 -10 
C -2.652031 -10 -5.195799 -8.946337 -7.071068 -7.071068 
C -8.946337 -5.195799 -10 -2.652031 -10 0 
C -10 2.652031 -8.946337 5.195799 -7.071068 7.071068 
C -5.195799 8.946337 -2.652031 10 0 10 
z
" style="stroke: #0000ff"/>
    </defs>
    <g clip-path="url(#p4576bd76d1)">
     <use xlink:href="#m55710f36bb" x="236.113589" y="668.356846" style="fill: #0000ff; stroke: #0000ff"/>
    </g>
   </g>
   <g id="line2d_155">
    <path d="M 690.254003 1028.116792 
" clip-path="url(#p4576bd76d1)" style="fill: none; stroke: #0000ff; stroke-width: 1.5; stroke-linecap: square"/>
    <g clip-path="url(#p4576bd76d1)">
     <use xlink:href="#m55710f36bb" x="690.254003" y="1028.116792" style="fill: #0000ff; stroke: #0000ff"/>
    </g>
   </g>
   <g id="line2d_156">
    <path d="M 1142.620007 37.890671 
" clip-path="url(#p4576bd76d1)" style="fill: none; stroke: #0000ff; stroke-width: 1.5; stroke-linecap: square"/>
    <g clip-path="url(#p4576bd76d1)">
     <use xlink:href="#m55710f36bb" x="1142.620007" y="37.890671" style="fill: #0000ff; stroke: #0000ff"/>
    </g>
   </g>
   <g id="line2d_157">
    <path d="M 970.090457 490.007047 
" clip-path="url(#p4576bd76d1)" style="fill: none; stroke: #0000ff; stroke-width: 1.5; stroke-linecap: square"/>
    <g clip-path="url(#p4576bd76d1)">
     <use xlink:href="#m55710f36bb" x="970.090457" y="490.007047" style="fill: #0000ff; stroke: #0000ff"/>
    </g>
   </g>
   <g id="line2d_158">
    <path d="M 644.478814 806.844198 
" clip-path="url(#p4576bd76d1)" style="fill: none; stroke: #0000ff; stroke-width: 1.5; stroke-linecap: square"/>
    <g clip-path="url(#p4576bd76d1)">
     <use xlink:href="#m55710f36bb" x="644.478814" y="806.844198" style="fill: #0000ff; stroke: #0000ff"/>
    </g>
   </g>
   <g id="line2d_159">
    <path d="M 922.45038 724.872781 
" clip-path="url(#p4576bd76d1)" style="fill: none; stroke: #0000ff; stroke-width: 1.5; stroke-linecap: square"/>
    <g clip-path="url(#p4576bd76d1)">
     <use xlink:href="#m55710f36bb" x="922.45038" y="724.872781" style="fill: #0000ff; stroke: #0000ff"/>
    </g>
   </g>
   <g id="line2d_160">
    <path d="M 908.741449 340.97534 
" clip-path="url(#p4576bd76d1)" style="fill: none; stroke: #0000ff; stroke-width: 1.5; stroke-linecap: square"/>
    <g clip-path="url(#p4576bd76d1)">
     <use xlink:href="#m55710f36bb" x="908.741449" y="340.97534" style="fill: #0000ff; stroke: #0000ff"/>
    </g>
   </g>
   <g id="line2d_161">
    <path d="M 247.652591 693.035736 
" clip-path="url(#p4576bd76d1)" style="fill: none; stroke: #0000ff; stroke-width: 1.5; stroke-linecap: square"/>
    <g clip-path="url(#p4576bd76d1)">
     <use xlink:href="#m55710f36bb" x="247.652591" y="693.035736" style="fill: #0000ff; stroke: #0000ff"/>
    </g>
   </g>
   <g id="line2d_162">
    <path d="M 437.972441 764.841843 
" clip-path="url(#p4576bd76d1)" style="fill: none; stroke: #0000ff; stroke-width: 1.5; stroke-linecap: square"/>
    <g clip-path="url(#p4576bd76d1)">
     <use xlink:href="#m55710f36bb" x="437.972441" y="764.841843" style="fill: #0000ff; stroke: #0000ff"/>
    </g>
   </g>
   <g id="line2d_163">
    <path d="M 934.028933 801.3729 
" clip-path="url(#p4576bd76d1)" style="fill: none; stroke: #0000ff; stroke-width: 1.5; stroke-linecap: square"/>
    <g clip-path="url(#p4576bd76d1)">
     <use xlink:href="#m55710f36bb" x="934.028933" y="801.3729" style="fill: #0000ff; stroke: #0000ff"/>
    </g>
   </g>
   <g id="line2d_164">
    <path d="M 976.246377 485.248974 
" clip-path="url(#p4576bd76d1)" style="fill: none; stroke: #0000ff; stroke-width: 1.5; stroke-linecap: square"/>
    <g clip-path="url(#p4576bd76d1)">
     <use xlink:href="#m55710f36bb" x="976.246377" y="485.248974" style="fill: #0000ff; stroke: #0000ff"/>
    </g>
   </g>
   <g id="line2d_165">
    <path d="M 229.386968 669.472475 
" clip-path="url(#p4576bd76d1)" style="fill: none; stroke: #ff0000; stroke-width: 1.5; stroke-linecap: square"/>
    <defs>
     <path id="mb2d6eed2e1" d="M 0 -10 
L -2.24514 -3.09017 
L -9.510565 -3.09017 
L -3.632713 1.18034 
L -5.877853 8.09017 
L -0 3.81966 
L 5.877853 8.09017 
L 3.632713 1.18034 
L 9.510565 -3.09017 
L 2.24514 -3.09017 
z
" style="stroke: #ff0000; stroke-linejoin: bevel"/>
    </defs>
    <g clip-path="url(#p4576bd76d1)">
     <use xlink:href="#mb2d6eed2e1" x="229.386968" y="669.472475" style="fill: #ff0000; stroke: #ff0000; stroke-linejoin: bevel"/>
    </g>
   </g>
   <g id="line2d_166">
    <path d="M 612.785149 1212.655971 
" clip-path="url(#p4576bd76d1)" style="fill: none; stroke: #ff0000; stroke-width: 1.5; stroke-linecap: square"/>
    <g clip-path="url(#p4576bd76d1)">
     <use xlink:href="#mb2d6eed2e1" x="612.785149" y="1212.655971" style="fill: #ff0000; stroke: #ff0000; stroke-linejoin: bevel"/>
    </g>
   </g>
   <g id="line2d_167">
    <path d="M 943.738222 468.776569 
" clip-path="url(#p4576bd76d1)" style="fill: none; stroke: #ff0000; stroke-width: 1.5; stroke-linecap: square"/>
    <g clip-path="url(#p4576bd76d1)">
     <use xlink:href="#mb2d6eed2e1" x="943.738222" y="468.776569" style="fill: #ff0000; stroke: #ff0000; stroke-linejoin: bevel"/>
    </g>
   </g>
   <g id="line2d_168">
    <path d="M 713.455912 1091.781862 
" clip-path="url(#p4576bd76d1)" style="fill: none; stroke: #ff0000; stroke-width: 1.5; stroke-linecap: square"/>
    <g clip-path="url(#p4576bd76d1)">
     <use xlink:href="#mb2d6eed2e1" x="713.455912" y="1091.781862" style="fill: #ff0000; stroke: #ff0000; stroke-linejoin: bevel"/>
    </g>
   </g>
   <g id="line2d_169">
    <path d="M 654.368887 803.707764 
" clip-path="url(#p4576bd76d1)" style="fill: none; stroke: #ff0000; stroke-width: 1.5; stroke-linecap: square"/>
    <g clip-path="url(#p4576bd76d1)">
     <use xlink:href="#mb2d6eed2e1" x="654.368887" y="803.707764" style="fill: #ff0000; stroke: #ff0000; stroke-linejoin: bevel"/>
    </g>
   </g>
   <g id="line2d_170">
    <path d="M 743.385493 1063.256088 
" clip-path="url(#p4576bd76d1)" style="fill: none; stroke: #ff0000; stroke-width: 1.5; stroke-linecap: square"/>
    <g clip-path="url(#p4576bd76d1)">
     <use xlink:href="#mb2d6eed2e1" x="743.385493" y="1063.256088" style="fill: #ff0000; stroke: #ff0000; stroke-linejoin: bevel"/>
    </g>
   </g>
   <g id="line2d_171">
    <path d="M 911.600736 341.224182 
" clip-path="url(#p4576bd76d1)" style="fill: none; stroke: #ff0000; stroke-width: 1.5; stroke-linecap: square"/>
    <g clip-path="url(#p4576bd76d1)">
     <use xlink:href="#mb2d6eed2e1" x="911.600736" y="341.224182" style="fill: #ff0000; stroke: #ff0000; stroke-linejoin: bevel"/>
    </g>
   </g>
   <g id="line2d_172">
    <path d="M 242.908114 692.703407 
" clip-path="url(#p4576bd76d1)" style="fill: none; stroke: #ff0000; stroke-width: 1.5; stroke-linecap: square"/>
    <g clip-path="url(#p4576bd76d1)">
     <use xlink:href="#mb2d6eed2e1" x="242.908114" y="692.703407" style="fill: #ff0000; stroke: #ff0000; stroke-linejoin: bevel"/>
    </g>
   </g>
   <g id="line2d_173">
    <path d="M 455.696938 762.961416 
" clip-path="url(#p4576bd76d1)" style="fill: none; stroke: #ff0000; stroke-width: 1.5; stroke-linecap: square"/>
    <g clip-path="url(#p4576bd76d1)">
     <use xlink:href="#mb2d6eed2e1" x="455.696938" y="762.961416" style="fill: #ff0000; stroke: #ff0000; stroke-linejoin: bevel"/>
    </g>
   </g>
   <g id="line2d_174">
    <path d="M 286.364792 623.629249 
" clip-path="url(#p4576bd76d1)" style="fill: none; stroke: #ff0000; stroke-width: 1.5; stroke-linecap: square"/>
    <g clip-path="url(#p4576bd76d1)">
     <use xlink:href="#mb2d6eed2e1" x="286.364792" y="623.629249" style="fill: #ff0000; stroke: #ff0000; stroke-linejoin: bevel"/>
    </g>
   </g>
   <g id="line2d_175">
    <path d="M 848.748056 847.818574 
" clip-path="url(#p4576bd76d1)" style="fill: none; stroke: #ff0000; stroke-width: 1.5; stroke-linecap: square"/>
    <g clip-path="url(#p4576bd76d1)">
     <use xlink:href="#mb2d6eed2e1" x="848.748056" y="847.818574" style="fill: #ff0000; stroke: #ff0000; stroke-linejoin: bevel"/>
    </g>
   </g>
  </g>
 </g>
 <defs>
  <clipPath id="p4576bd76d1">
   <rect x="0" y="0" width="1440" height="1440"/>
  </clipPath>
 </defs>
</svg>
