<?xml version="1.0" encoding="utf-8" standalone="no"?>
<!DOCTYPE svg PUBLIC "-//W3C//DTD SVG 1.1//EN"
  "http://www.w3.org/Graphics/SVG/1.1/DTD/svg11.dtd">
<svg xmlns:xlink="http://www.w3.org/1999/xlink" width="1440pt" height="1440pt" viewBox="0 0 1440 1440" xmlns="http://www.w3.org/2000/svg" version="1.1">
 <metadata>
  <rdf:RDF xmlns:dc="http://purl.org/dc/elements/1.1/" xmlns:cc="http://creativecommons.org/ns#" xmlns:rdf="http://www.w3.org/1999/02/22-rdf-syntax-ns#">
   <cc:Work>
    <dc:type rdf:resource="http://purl.org/dc/dcmitype/StillImage"/>
    <dc:date>2026-02-27T11:09:56.372935</dc:date>
    <dc:format>image/svg+xml</dc:format>
    <dc:creator>
     <cc:Agent>
      <dc:title>Matplotlib v3.7.3, https://matplotlib.org/</dc:title>
     </cc:Agent>
    </dc:creator>
   </cc:Work>
  </rdf:RDF>
 </metadata>
 <defs>
  <style type="text/css">*{stroke-linejoin: round; stroke-linecap: butt}</style>
 </defs>
 <g id="figure_1">
  <g id="patch_1">
   <path d="M 0 1440 
L 1440 1440 
L 1440 0 
L 0 0 
z
" style="fill: #ffffff"/>
  </g>
  <g id="axes_1">
   <g id="line2d_1">
    <path d="M 178.742044 1441 
L 192.800665 1420.444459 
" clip-path="url(#pb7f783ef8d)" style="fill: none; stroke: #7a7a7a; stroke-width: 3; stroke-linecap: square"/>
   </g>
   <g id="line2d_2">
    <path d="M 267.697043 1441 
L 274.365145 1431.301373 
" clip-path="url(#pb7f783ef8d)" style="fill: none; stroke: #7a7a7a; stroke-width: 3; stroke-linecap: square"/>
   </g>
   <g id="line2d_3">
    <path clip-path="url(#pb7f783ef8d)" style="fill: none; stroke: #7a7a7a; stroke-width: 3; stroke-linecap: square"/>
   </g>
   <g id="line2d_4">
    <path clip-path="url(#pb7f783ef8d)" style="fill: none; stroke: #7a7a7a; stroke-width: 3; stroke-linecap: square"/>
   </g>
   <g id="line2d_5">
    <path d="M 112.051458 1441 
L 114.434792 1437.446796 
L 123.116725 1425.463221 
L 129.742411 1416.449934 
" clip-path="url(#pb7f783ef8d)" style="fill: none; stroke: #7a7a7a; stroke-width: 3; stroke-linecap: square"/>
   </g>
   <g id="line2d_6">
    <path d="M 178.742044 1441 
L 192.800665 1420.444459 
" clip-path="url(#pb7f783ef8d)" style="fill: none; stroke: #7a7a7a; stroke-width: 3; stroke-linecap: square"/>
   </g>
   <g id="line2d_7">
    <path d="M 66.684158 1273.671273 
L -1 1264.299359 
" clip-path="url(#pb7f783ef8d)" style="fill: none; stroke: #7a7a7a; stroke-width: 3; stroke-linecap: square"/>
   </g>
   <g id="line2d_8">
    <path d="M 105.752858 1220.206093 
L -1 1204.969187 
" clip-path="url(#pb7f783ef8d)" style="fill: none; stroke: #7a7a7a; stroke-width: 3; stroke-linecap: square"/>
   </g>
   <g id="line2d_9">
    <path d="M 267.697043 1441 
L 274.365145 1431.301373 
" clip-path="url(#pb7f783ef8d)" style="fill: none; stroke: #7a7a7a; stroke-width: 3; stroke-linecap: square"/>
   </g>
   <g id="line2d_10">
    <path clip-path="url(#pb7f783ef8d)" style="fill: none; stroke: #7a7a7a; stroke-width: 3; stroke-linecap: square"/>
   </g>
   <g id="line2d_11">
    <path d="M 355.472682 1182.206895 
L 442.520488 1062.780841 
L 544.418971 917.441587 
" clip-path="url(#pb7f783ef8d)" style="fill: none; stroke: #7a7a7a; stroke-width: 3; stroke-linecap: square"/>
   </g>
   <g id="line2d_12">
    <path d="M 439.321881 1194.395317 
L 624.155675 927.683959 
" clip-path="url(#pb7f783ef8d)" style="fill: none; stroke: #7a7a7a; stroke-width: 3; stroke-linecap: square"/>
   </g>
   <g id="line2d_13">
    <path d="M 297.440811 1173.705726 
L 310.235239 1157.625203 
L 403.451788 1023.757405 
L 452.344781 955.952905 
L 483.873908 909.554961 
" clip-path="url(#pb7f783ef8d)" style="fill: none; stroke: #7a7a7a; stroke-width: 3; stroke-linecap: square"/>
   </g>
   <g id="line2d_14">
    <path d="M 355.472682 1182.206895 
L 442.520488 1062.780841 
L 544.418971 917.441587 
" clip-path="url(#pb7f783ef8d)" style="fill: none; stroke: #7a7a7a; stroke-width: 3; stroke-linecap: square"/>
   </g>
   <g id="line2d_15">
    <path d="M 192.800665 1420.444459 
L 355.472682 1182.206895 
" clip-path="url(#pb7f783ef8d)" style="fill: none; stroke: #7a7a7a; stroke-width: 3; stroke-linecap: square"/>
   </g>
   <g id="line2d_16">
    <path d="M 274.365145 1431.301373 
L 439.321881 1194.395317 
" clip-path="url(#pb7f783ef8d)" style="fill: none; stroke: #7a7a7a; stroke-width: 3; stroke-linecap: square"/>
   </g>
   <g id="line2d_17">
    <path d="M 517.002339 1206.481315 
L 703.663908 937.92633 
" clip-path="url(#pb7f783ef8d)" style="fill: none; stroke: #7a7a7a; stroke-width: 3; stroke-linecap: square"/>
   </g>
   <g id="line2d_18">
    <path d="M 551.958544 1211.397654 
L 572.977962 1182.923861 
L 704.577796 997.024815 
L 741.818721 942.842669 
" clip-path="url(#pb7f783ef8d)" style="fill: none; stroke: #7a7a7a; stroke-width: 3; stroke-linecap: square"/>
   </g>
   <g id="line2d_19">
    <path d="M 353.070051 1441 
L 517.002339 1206.481315 
" clip-path="url(#pb7f783ef8d)" style="fill: none; stroke: #7a7a7a; stroke-width: 3; stroke-linecap: square"/>
   </g>
   <g id="line2d_20">
    <path d="M 382.875339 1441 
L 551.958544 1211.397654 
" clip-path="url(#pb7f783ef8d)" style="fill: none; stroke: #7a7a7a; stroke-width: 3; stroke-linecap: square"/>
   </g>
   <g id="line2d_21">
    <path d="M 439.321881 1194.395317 
L 624.155675 927.683959 
" clip-path="url(#pb7f783ef8d)" style="fill: none; stroke: #7a7a7a; stroke-width: 3; stroke-linecap: square"/>
   </g>
   <g id="line2d_22">
    <path d="M 517.002339 1206.481315 
L 703.663908 937.92633 
" clip-path="url(#pb7f783ef8d)" style="fill: none; stroke: #7a7a7a; stroke-width: 3; stroke-linecap: square"/>
   </g>
   <g id="line2d_23">
    <path d="M 129.742411 1416.449934 
L 175.208326 1350.386637 
L 176.80763 1332.052792 
L 164.927089 1314.026218 
L 141.166008 1297.843271 
L 108.037578 1282.582137 
L 66.684158 1273.671273 
" clip-path="url(#pb7f783ef8d)" style="fill: none; stroke: #7a7a7a; stroke-width: 3; stroke-linecap: square"/>
   </g>
   <g id="line2d_24">
    <path d="M 192.800665 1420.444459 
L 238.038108 1354.483586 
L 245.34921 1327.341301 
L 243.749906 1302.759609 
L 234.611029 1281.045781 
L 218.846465 1262.199817 
L 197.141632 1246.426565 
L 170.410416 1233.828448 
L 139.795177 1224.610313 
L 105.752858 1220.206093 
" clip-path="url(#pb7f783ef8d)" style="fill: none; stroke: #7a7a7a; stroke-width: 3; stroke-linecap: square"/>
   </g>
   <g id="line2d_25">
    <path d="M 274.365145 1431.301373 
L 439.321881 1194.395317 
" clip-path="url(#pb7f783ef8d)" style="fill: none; stroke: #7a7a7a; stroke-width: 3; stroke-linecap: square"/>
   </g>
   <g id="line2d_26">
    <path d="M 353.070051 1441 
L 517.002339 1206.481315 
" clip-path="url(#pb7f783ef8d)" style="fill: none; stroke: #7a7a7a; stroke-width: 3; stroke-linecap: square"/>
   </g>
   <g id="line2d_27">
    <path d="M 604.050145 821.265717 
L 661.3966 745.062472 
" clip-path="url(#pb7f783ef8d)" style="fill: none; stroke: #7a7a7a; stroke-width: 3; stroke-linecap: square"/>
   </g>
   <g id="line2d_28">
    <path d="M 690.184064 831.712936 
L 738.848586 756.329081 
" clip-path="url(#pb7f783ef8d)" style="fill: none; stroke: #7a7a7a; stroke-width: 3; stroke-linecap: square"/>
   </g>
   <g id="line2d_29">
    <path d="M 66.684158 1273.671273 
L 119.918118 1281.5579 
L 163.78473 1280.73851 
L 198.512463 1274.695511 
L 224.558264 1263.633749 
L 243.06449 1247.758073 
L 297.440811 1173.705726 
" clip-path="url(#pb7f783ef8d)" style="fill: none; stroke: #7a7a7a; stroke-width: 3; stroke-linecap: square"/>
   </g>
   <g id="line2d_30">
    <path d="M 28.529345 1331.643097 
L 67.826518 1336.047317 
L 109.408409 1334.920656 
L 151.447245 1329.901894 
L 191.658305 1321.298302 
L 229.127702 1309.314727 
L 262.256133 1294.25844 
L 286.245686 1275.105205 
L 303.152609 1255.439852 
L 355.472682 1182.206895 
" clip-path="url(#pb7f783ef8d)" style="fill: none; stroke: #7a7a7a; stroke-width: 3; stroke-linecap: square"/>
   </g>
   <g id="line2d_31">
    <path d="M 703.663908 937.92633 
L 771.063128 842.262579 
" clip-path="url(#pb7f783ef8d)" style="fill: none; stroke: #7a7a7a; stroke-width: 3; stroke-linecap: square"/>
   </g>
   <g id="line2d_32">
    <path d="M 741.818721 942.842669 
L 797.108929 861.723085 
L 807.161694 847.178918 
" clip-path="url(#pb7f783ef8d)" style="fill: none; stroke: #7a7a7a; stroke-width: 3; stroke-linecap: square"/>
   </g>
   <g id="line2d_33">
    <path d="M 129.742411 1416.449934 
L 136.139626 1403.954241 
L 297.440811 1173.705726 
" clip-path="url(#pb7f783ef8d)" style="fill: none; stroke: #7a7a7a; stroke-width: 3; stroke-linecap: square"/>
   </g>
   <g id="line2d_34">
    <path d="M 192.800665 1420.444459 
L 355.472682 1182.206895 
" clip-path="url(#pb7f783ef8d)" style="fill: none; stroke: #7a7a7a; stroke-width: 3; stroke-linecap: square"/>
   </g>
   <g id="line2d_35">
    <path d="M 690.184064 831.712936 
L 738.848586 756.329081 
" clip-path="url(#pb7f783ef8d)" style="fill: none; stroke: #7a7a7a; stroke-width: 3; stroke-linecap: square"/>
   </g>
   <g id="line2d_36">
    <path d="M 771.063128 842.262579 
L 818.356819 769.132045 
" clip-path="url(#pb7f783ef8d)" style="fill: none; stroke: #7a7a7a; stroke-width: 3; stroke-linecap: square"/>
   </g>
   <g id="line2d_37">
    <path d="M 602.450842 735.741914 
L 613.874438 719.251695 
L 617.986933 714.13051 
L 659.111881 653.495669 
L 675.56186 630.040638 
" clip-path="url(#pb7f783ef8d)" style="fill: none; stroke: #7a7a7a; stroke-width: 3; stroke-linecap: square"/>
   </g>
   <g id="line2d_38">
    <path d="M 661.3966 745.062472 
L 740.904833 635.264248 
" clip-path="url(#pb7f783ef8d)" style="fill: none; stroke: #7a7a7a; stroke-width: 3; stroke-linecap: square"/>
   </g>
   <g id="line2d_39">
    <path d="M 661.3966 745.062472 
L 740.904833 635.264248 
" clip-path="url(#pb7f783ef8d)" style="fill: none; stroke: #7a7a7a; stroke-width: 3; stroke-linecap: square"/>
   </g>
   <g id="line2d_40">
    <path d="M 738.848586 756.329081 
L 820.413066 641.512095 
" clip-path="url(#pb7f783ef8d)" style="fill: none; stroke: #7a7a7a; stroke-width: 3; stroke-linecap: square"/>
   </g>
   <g id="line2d_41">
    <path d="M 483.873908 909.554961 
L 540.991892 825.46509 
L 541.905779 824.338429 
L 542.134251 823.82631 
L 545.56133 817.988158 
" clip-path="url(#pb7f783ef8d)" style="fill: none; stroke: #7a7a7a; stroke-width: 3; stroke-linecap: square"/>
   </g>
   <g id="line2d_42">
    <path d="M 544.418971 917.441587 
L 604.050145 821.265717 
" clip-path="url(#pb7f783ef8d)" style="fill: none; stroke: #7a7a7a; stroke-width: 3; stroke-linecap: square"/>
   </g>
   <g id="line2d_43">
    <path d="M 624.155675 927.683959 
L 690.184064 831.712936 
" clip-path="url(#pb7f783ef8d)" style="fill: none; stroke: #7a7a7a; stroke-width: 3; stroke-linecap: square"/>
   </g>
   <g id="line2d_44">
    <path d="M 703.663908 937.92633 
L 771.063128 842.262579 
" clip-path="url(#pb7f783ef8d)" style="fill: none; stroke: #7a7a7a; stroke-width: 3; stroke-linecap: square"/>
   </g>
   <g id="line2d_45">
    <path d="M 545.56133 817.988158 
L 602.450842 735.741914 
" clip-path="url(#pb7f783ef8d)" style="fill: none; stroke: #7a7a7a; stroke-width: 3; stroke-linecap: square"/>
   </g>
   <g id="line2d_46">
    <path d="M 604.050145 821.265717 
L 661.3966 745.062472 
" clip-path="url(#pb7f783ef8d)" style="fill: none; stroke: #7a7a7a; stroke-width: 3; stroke-linecap: square"/>
   </g>
   <g id="line2d_47">
    <path d="M 544.418971 917.441587 
L 604.050145 821.265717 
" clip-path="url(#pb7f783ef8d)" style="fill: none; stroke: #7a7a7a; stroke-width: 3; stroke-linecap: square"/>
   </g>
   <g id="line2d_48">
    <path d="M 624.155675 927.683959 
L 690.184064 831.712936 
" clip-path="url(#pb7f783ef8d)" style="fill: none; stroke: #7a7a7a; stroke-width: 3; stroke-linecap: square"/>
   </g>
   <g id="line2d_49">
    <path d="M 738.848586 756.329081 
L 820.413066 641.512095 
" clip-path="url(#pb7f783ef8d)" style="fill: none; stroke: #7a7a7a; stroke-width: 3; stroke-linecap: square"/>
   </g>
   <g id="line2d_50">
    <path d="M 818.356819 769.132045 
L 942.64555 651.85689 
" clip-path="url(#pb7f783ef8d)" style="fill: none; stroke: #7a7a7a; stroke-width: 3; stroke-linecap: square"/>
   </g>
   <g id="line2d_51">
    <path d="M 771.063128 842.262579 
L 818.356819 769.132045 
" clip-path="url(#pb7f783ef8d)" style="fill: none; stroke: #7a7a7a; stroke-width: 3; stroke-linecap: square"/>
   </g>
   <g id="line2d_52">
    <path d="M 807.161694 847.178918 
L 858.110935 773.741113 
" clip-path="url(#pb7f783ef8d)" style="fill: none; stroke: #7a7a7a; stroke-width: 3; stroke-linecap: square"/>
   </g>
   <g id="line2d_53">
    <path d="M 675.56186 630.040638 
L 734.507619 545.541072 
" clip-path="url(#pb7f783ef8d)" style="fill: none; stroke: #7a7a7a; stroke-width: 3; stroke-linecap: square"/>
   </g>
   <g id="line2d_54">
    <path d="M 740.904833 635.264248 
L 802.592255 546.667733 
" clip-path="url(#pb7f783ef8d)" style="fill: none; stroke: #7a7a7a; stroke-width: 3; stroke-linecap: square"/>
   </g>
   <g id="line2d_55">
    <path d="M 1034.71974 395.900022 
L 1071.960665 358.720213 
L 1089.781476 345.917248 
L 1114.913388 335.572453 
L 1142.558492 329.324606 
L 1175.229979 325.02281 
L 1205.388274 324.100997 
L 1243.314615 324.613115 
L 1274.158326 327.480979 
L 1315.511746 332.704589 
L 1413.983149 347.146333 
" clip-path="url(#pb7f783ef8d)" style="fill: none; stroke: #7a7a7a; stroke-width: 3; stroke-linecap: square"/>
   </g>
   <g id="line2d_56">
    <path d="M 1114.227972 407.269055 
L 1123.138378 394.670938 
L 1130.44948 386.886735 
L 1141.187661 378.078295 
L 1149.641122 372.854686 
L 1161.064719 367.835924 
L 1175.458451 363.124433 
L 1189.62371 359.74445 
L 1203.560498 357.900823 
L 1221.152837 357.183857 
L 1245.370862 358.310518 
L 1277.585405 361.895348 
L 1393.192203 378.078295 
" clip-path="url(#pb7f783ef8d)" style="fill: none; stroke: #7a7a7a; stroke-width: 3; stroke-linecap: square"/>
   </g>
   <g id="line2d_57">
    <path d="M 740.904833 635.264248 
L 802.592255 546.667733 
" clip-path="url(#pb7f783ef8d)" style="fill: none; stroke: #7a7a7a; stroke-width: 3; stroke-linecap: square"/>
   </g>
   <g id="line2d_58">
    <path d="M 820.413066 641.512095 
L 885.756039 546.667733 
" clip-path="url(#pb7f783ef8d)" style="fill: none; stroke: #7a7a7a; stroke-width: 3; stroke-linecap: square"/>
   </g>
   <g id="line2d_59">
    <path d="M 885.756039 546.667733 
L 893.981029 534.274463 
L 894.209501 533.762345 
" clip-path="url(#pb7f783ef8d)" style="fill: none; stroke: #7a7a7a; stroke-width: 3; stroke-linecap: square"/>
   </g>
   <g id="line2d_60">
    <path d="M 928.708763 546.667733 
L 937.390696 534.376887 
L 937.84764 533.762345 
" clip-path="url(#pb7f783ef8d)" style="fill: none; stroke: #7a7a7a; stroke-width: 3; stroke-linecap: square"/>
   </g>
   <g id="line2d_61">
    <path d="M 818.356819 769.132045 
L 820.413066 641.512095 
" clip-path="url(#pb7f783ef8d)" style="fill: none; stroke: #7a7a7a; stroke-width: 3; stroke-linecap: square"/>
   </g>
   <g id="line2d_62">
    <path d="M 858.110935 773.741113 
L 942.64555 651.85689 
" clip-path="url(#pb7f783ef8d)" style="fill: none; stroke: #7a7a7a; stroke-width: 3; stroke-linecap: square"/>
   </g>
   <g id="line2d_63">
    <path d="M 1441 200.245862 
L 855.1408 106.348175 
" clip-path="url(#pb7f783ef8d)" style="fill: none; stroke: #7a7a7a; stroke-width: 3; stroke-linecap: square"/>
   </g>
   <g id="line2d_64">
    <path d="M 1441 166.721919 
L 876.617162 70.09018 
" clip-path="url(#pb7f783ef8d)" style="fill: none; stroke: #7a7a7a; stroke-width: 3; stroke-linecap: square"/>
   </g>
   <g id="line2d_65">
    <path d="M 802.592255 546.667733 
L 811.502661 534.274463 
L 811.731133 533.762345 
" clip-path="url(#pb7f783ef8d)" style="fill: none; stroke: #7a7a7a; stroke-width: 3; stroke-linecap: square"/>
   </g>
   <g id="line2d_66">
    <path d="M 885.756039 546.667733 
L 893.981029 534.274463 
L 894.209501 533.762345 
" clip-path="url(#pb7f783ef8d)" style="fill: none; stroke: #7a7a7a; stroke-width: 3; stroke-linecap: square"/>
   </g>
   <g id="line2d_67">
    <path clip-path="url(#pb7f783ef8d)" style="fill: none; stroke: #7a7a7a; stroke-width: 3; stroke-linecap: square"/>
   </g>
   <g id="line2d_68">
    <path clip-path="url(#pb7f783ef8d)" style="fill: none; stroke: #7a7a7a; stroke-width: 3; stroke-linecap: square"/>
   </g>
   <g id="line2d_69">
    <path d="M 992.680904 390.266718 
L 1313.455498 66.095655 
" clip-path="url(#pb7f783ef8d)" style="fill: none; stroke: #7a7a7a; stroke-width: 3; stroke-linecap: square"/>
   </g>
   <g id="line2d_70">
    <path d="M 1034.71974 395.900022 
L 1354.580446 72.85562 
" clip-path="url(#pb7f783ef8d)" style="fill: none; stroke: #7a7a7a; stroke-width: 3; stroke-linecap: square"/>
   </g>
   <g id="line2d_71">
    <path d="M 855.1408 106.348175 
L 738.391642 88.424025 
L 505.35027 51.244216 
L 373.521964 32.910371 
" clip-path="url(#pb7f783ef8d)" style="fill: none; stroke: #7a7a7a; stroke-width: 3; stroke-linecap: square"/>
   </g>
   <g id="line2d_72">
    <path d="M 876.617162 70.09018 
L 591.027245 29.837659 
L 394.541382 2.388103 
" clip-path="url(#pb7f783ef8d)" style="fill: none; stroke: #7a7a7a; stroke-width: 3; stroke-linecap: square"/>
   </g>
   <g id="line2d_73">
    <path d="M 734.507619 545.541072 
L 742.047193 534.274463 
L 742.275665 533.762345 
" clip-path="url(#pb7f783ef8d)" style="fill: none; stroke: #7a7a7a; stroke-width: 3; stroke-linecap: square"/>
   </g>
   <g id="line2d_74">
    <path d="M 802.592255 546.667733 
L 811.502661 534.274463 
L 811.731133 533.762345 
" clip-path="url(#pb7f783ef8d)" style="fill: none; stroke: #7a7a7a; stroke-width: 3; stroke-linecap: square"/>
   </g>
   <g id="line2d_75">
    <path d="M 755.070093 257.013462 
L 1413.983149 347.146333 
" clip-path="url(#pb7f783ef8d)" style="fill: none; stroke: #7a7a7a; stroke-width: 3; stroke-linecap: square"/>
   </g>
   <g id="line2d_76">
    <path d="M 734.279147 288.559967 
L 798.251289 296.958712 
L 806.247806 298.29022 
L 1257.708347 359.642026 
L 1277.585405 361.895348 
L 1393.192203 378.078295 
" clip-path="url(#pb7f783ef8d)" style="fill: none; stroke: #7a7a7a; stroke-width: 3; stroke-linecap: square"/>
   </g>
   <g id="line2d_77">
    <path d="M 1441 166.41945 
L 1416.039396 162.066677 
L 1364.176268 151.619458 
L 1320.538128 140.864968 
L 1285.581922 130.110478 
L 1259.079178 118.946292 
L 1240.801424 107.372412 
L 1229.834771 94.876719 
L 1225.950748 81.254365 
L 1227.321579 73.162891 
L 1228.463939 66.198078 
L 1236.460457 52.780572 
" clip-path="url(#pb7f783ef8d)" style="fill: none; stroke: #7a7a7a; stroke-width: 3; stroke-linecap: square"/>
   </g>
   <g id="line2d_78">
    <path d="M 1441 134.147905 
L 1426.320633 131.339562 
L 1372.858201 118.126903 
L 1337.216579 106.450599 
L 1316.654105 96.105804 
L 1307.7437 86.682822 
L 1307.058284 77.669535 
L 1313.455498 66.095655 
" clip-path="url(#pb7f783ef8d)" style="fill: none; stroke: #7a7a7a; stroke-width: 3; stroke-linecap: square"/>
   </g>
   <g id="line2d_79">
    <path d="M 811.731133 533.762345 
L 811.959605 533.455074 
L 813.78738 530.894481 
L 920.255301 380.024346 
" clip-path="url(#pb7f783ef8d)" style="fill: none; stroke: #7a7a7a; stroke-width: 3; stroke-linecap: square"/>
   </g>
   <g id="line2d_80">
    <path d="M 894.209501 533.762345 
L 894.437973 533.455074 
L 896.265748 530.894481 
L 992.680904 390.266718 
" clip-path="url(#pb7f783ef8d)" style="fill: none; stroke: #7a7a7a; stroke-width: 3; stroke-linecap: square"/>
   </g>
   <g id="line2d_81">
    <path d="M 327.370634 100.714871 
L 816.757515 168.2121 
" clip-path="url(#pb7f783ef8d)" style="fill: none; stroke: #7a7a7a; stroke-width: 3; stroke-linecap: square"/>
   </g>
   <g id="line2d_82">
    <path d="M 299.954002 130.622596 
L 794.367266 198.52952 
" clip-path="url(#pb7f783ef8d)" style="fill: none; stroke: #7a7a7a; stroke-width: 3; stroke-linecap: square"/>
   </g>
   <g id="line2d_83">
    <path d="M 280.762359 157.150339 
L 775.175623 226.388771 
" clip-path="url(#pb7f783ef8d)" style="fill: none; stroke: #7a7a7a; stroke-width: 3; stroke-linecap: square"/>
   </g>
   <g id="line2d_84">
    <path d="M 258.143638 188.082301 
L 755.070093 257.013462 
" clip-path="url(#pb7f783ef8d)" style="fill: none; stroke: #7a7a7a; stroke-width: 3; stroke-linecap: square"/>
   </g>
   <g id="line2d_85">
    <path d="M 894.209501 533.762345 
L 894.437973 533.455074 
L 896.265748 530.894481 
L 992.680904 390.266718 
" clip-path="url(#pb7f783ef8d)" style="fill: none; stroke: #7a7a7a; stroke-width: 3; stroke-linecap: square"/>
   </g>
   <g id="line2d_86">
    <path d="M 937.84764 533.762345 
L 938.076112 533.455074 
L 939.903887 530.894481 
L 1034.71974 395.900022 
" clip-path="url(#pb7f783ef8d)" style="fill: none; stroke: #7a7a7a; stroke-width: 3; stroke-linecap: square"/>
   </g>
   <g id="line2d_87">
    <path d="M 775.175623 226.388771 
L 1434.088679 317.136184 
" clip-path="url(#pb7f783ef8d)" style="fill: none; stroke: #7a7a7a; stroke-width: 3; stroke-linecap: square"/>
   </g>
   <g id="line2d_88">
    <path d="M 755.070093 257.013462 
L 1413.983149 347.146333 
" clip-path="url(#pb7f783ef8d)" style="fill: none; stroke: #7a7a7a; stroke-width: 3; stroke-linecap: square"/>
   </g>
   <g id="line2d_89">
    <path d="M 928.708763 546.667733 
L 937.390696 534.376887 
L 937.84764 533.762345 
" clip-path="url(#pb7f783ef8d)" style="fill: none; stroke: #7a7a7a; stroke-width: 3; stroke-linecap: square"/>
   </g>
   <g id="line2d_90">
    <path d="M 1017.355873 546.565309 
L 1026.037806 534.376887 
L 1026.49475 533.762345 
" clip-path="url(#pb7f783ef8d)" style="fill: none; stroke: #7a7a7a; stroke-width: 3; stroke-linecap: square"/>
   </g>
   <g id="line2d_91">
    <path d="M 937.84764 533.762345 
L 938.076112 533.455074 
L 939.903887 530.894481 
L 1034.71974 395.900022 
" clip-path="url(#pb7f783ef8d)" style="fill: none; stroke: #7a7a7a; stroke-width: 3; stroke-linecap: square"/>
   </g>
   <g id="line2d_92">
    <path d="M 1026.49475 533.762345 
L 1026.723222 533.455074 
L 1028.550997 530.792057 
L 1064.878035 478.351114 
L 1075.616216 461.758472 
L 1114.227972 407.269055 
" clip-path="url(#pb7f783ef8d)" style="fill: none; stroke: #7a7a7a; stroke-width: 3; stroke-linecap: square"/>
   </g>
   <g id="line2d_93">
    <path d="M 258.143638 188.082301 
L 755.070093 257.013462 
" clip-path="url(#pb7f783ef8d)" style="fill: none; stroke: #7a7a7a; stroke-width: 3; stroke-linecap: square"/>
   </g>
   <g id="line2d_94">
    <path d="M 235.981861 219.321535 
L 734.279147 288.559967 
" clip-path="url(#pb7f783ef8d)" style="fill: none; stroke: #7a7a7a; stroke-width: 3; stroke-linecap: square"/>
   </g>
   <g id="line2d_95">
    <path d="M 820.413066 641.512095 
L 928.708763 546.667733 
" clip-path="url(#pb7f783ef8d)" style="fill: none; stroke: #7a7a7a; stroke-width: 3; stroke-linecap: square"/>
   </g>
   <g id="line2d_96">
    <path d="M 942.64555 651.85689 
L 957.267754 630.655181 
L 1017.355873 546.565309 
" clip-path="url(#pb7f783ef8d)" style="fill: none; stroke: #7a7a7a; stroke-width: 3; stroke-linecap: square"/>
   </g>
   <g id="line2d_97">
    <path d="M 794.367266 198.52952 
L 1441 287.980245 
" clip-path="url(#pb7f783ef8d)" style="fill: none; stroke: #7a7a7a; stroke-width: 3; stroke-linecap: square"/>
   </g>
   <g id="line2d_98">
    <path d="M 775.175623 226.388771 
L 1434.088679 317.136184 
" clip-path="url(#pb7f783ef8d)" style="fill: none; stroke: #7a7a7a; stroke-width: 3; stroke-linecap: square"/>
   </g>
   <g id="line2d_99">
    <path d="M 1434.088679 317.136184 
L 1441 318.088419 
" clip-path="url(#pb7f783ef8d)" style="fill: none; stroke: #7a7a7a; stroke-width: 3; stroke-linecap: square"/>
   </g>
   <g id="line2d_100">
    <path d="M 1413.983149 347.146333 
L 1441 350.887061 
" clip-path="url(#pb7f783ef8d)" style="fill: none; stroke: #7a7a7a; stroke-width: 3; stroke-linecap: square"/>
   </g>
   <g id="line2d_101">
    <path d="M 820.413066 641.512095 
L 885.756039 546.667733 
" clip-path="url(#pb7f783ef8d)" style="fill: none; stroke: #7a7a7a; stroke-width: 3; stroke-linecap: square"/>
   </g>
   <g id="line2d_102">
    <path d="M 942.64555 651.85689 
L 928.708763 546.667733 
" clip-path="url(#pb7f783ef8d)" style="fill: none; stroke: #7a7a7a; stroke-width: 3; stroke-linecap: square"/>
   </g>
   <g id="line2d_103">
    <path d="M 817.442931 166.983016 
L 331.483129 91.189465 
" clip-path="url(#pb7f783ef8d)" style="fill: none; stroke: #7a7a7a; stroke-width: 3; stroke-linecap: square"/>
   </g>
   <g id="line2d_104">
    <path d="M 836.17763 136.358324 
L 472.907255 78.796196 
L 353.416434 62.10113 
" clip-path="url(#pb7f783ef8d)" style="fill: none; stroke: #7a7a7a; stroke-width: 3; stroke-linecap: square"/>
   </g>
   <g id="line2d_105">
    <path d="M 855.1408 370.806212 
L 863.594262 358.617789 
L 867.706756 350.936011 
L 1072.646081 27.994032 
" clip-path="url(#pb7f783ef8d)" style="fill: none; stroke: #7a7a7a; stroke-width: 3; stroke-linecap: square"/>
   </g>
   <g id="line2d_106">
    <path d="M 920.255301 380.024346 
L 1154.210561 40.080031 
" clip-path="url(#pb7f783ef8d)" style="fill: none; stroke: #7a7a7a; stroke-width: 3; stroke-linecap: square"/>
   </g>
   <g id="line2d_107">
    <path d="M 855.1408 370.806212 
L 864.736621 357.695976 
L 927.794875 256.603768 
L 932.821257 244.312922 
L 931.450426 230.792991 
L 922.083076 213.073688 
L 903.348378 196.685893 
L 873.647027 182.244149 
L 831.379719 170.158151 
L 817.442931 166.983016 
" clip-path="url(#pb7f783ef8d)" style="fill: none; stroke: #7a7a7a; stroke-width: 3; stroke-linecap: square"/>
   </g>
   <g id="line2d_108">
    <path d="M 920.255301 380.024346 
L 984.684386 284.872713 
L 992.909376 266.334021 
L 997.707286 248.205023 
L 997.707286 230.588144 
L 992.452432 213.585807 
L 980.800363 197.300436 
L 961.837193 181.834454 
L 934.649033 167.39271 
L 898.321995 153.87278 
L 851.942193 141.581934 
L 836.17763 136.358324 
" clip-path="url(#pb7f783ef8d)" style="fill: none; stroke: #7a7a7a; stroke-width: 3; stroke-linecap: square"/>
   </g>
   <g id="line2d_109">
    <path d="M 299.954002 130.622596 
L 794.367266 198.52952 
" clip-path="url(#pb7f783ef8d)" style="fill: none; stroke: #7a7a7a; stroke-width: 3; stroke-linecap: square"/>
   </g>
   <g id="line2d_110">
    <path d="M 280.762359 157.150339 
L 775.175623 226.388771 
" clip-path="url(#pb7f783ef8d)" style="fill: none; stroke: #7a7a7a; stroke-width: 3; stroke-linecap: square"/>
   </g>
   <g id="line2d_111">
    <path clip-path="url(#pb7f783ef8d)" style="fill: none; stroke: #7a7a7a; stroke-width: 3; stroke-linecap: square"/>
   </g>
   <g id="line2d_112">
    <path clip-path="url(#pb7f783ef8d)" style="fill: none; stroke: #7a7a7a; stroke-width: 3; stroke-linecap: square"/>
   </g>
   <g id="line2d_113">
    <path d="M 742.275665 533.762345 
L 742.504137 533.35265 
L 744.331912 530.792057 
L 855.1408 370.806212 
" clip-path="url(#pb7f783ef8d)" style="fill: none; stroke: #7a7a7a; stroke-width: 3; stroke-linecap: square"/>
   </g>
   <g id="line2d_114">
    <path d="M 811.731133 533.762345 
L 811.959605 533.455074 
L 813.78738 530.894481 
L 920.255301 380.024346 
" clip-path="url(#pb7f783ef8d)" style="fill: none; stroke: #7a7a7a; stroke-width: 3; stroke-linecap: square"/>
   </g>
   <g id="line2d_115">
    <path d="M 836.17763 136.358324 
L 472.907255 78.796196 
L 353.416434 62.10113 
" clip-path="url(#pb7f783ef8d)" style="fill: none; stroke: #7a7a7a; stroke-width: 3; stroke-linecap: square"/>
   </g>
   <g id="line2d_116">
    <path d="M 855.1408 106.348175 
L 738.391642 88.424025 
L 505.35027 51.244216 
L 373.521964 32.910371 
" clip-path="url(#pb7f783ef8d)" style="fill: none; stroke: #7a7a7a; stroke-width: 3; stroke-linecap: square"/>
   </g>
   <g id="line2d_117">
    <path d="M 1441 263.365958 
L 817.442931 166.983016 
" clip-path="url(#pb7f783ef8d)" style="fill: none; stroke: #7a7a7a; stroke-width: 3; stroke-linecap: square"/>
   </g>
   <g id="line2d_118">
    <path d="M 1441 233.07955 
L 836.17763 136.358324 
" clip-path="url(#pb7f783ef8d)" style="fill: none; stroke: #7a7a7a; stroke-width: 3; stroke-linecap: square"/>
   </g>
   <g id="line2d_119">
    <path d="M 816.757515 168.2121 
L 829.780415 169.953303 
L 873.418555 174.255099 
L 918.655997 175.586608 
L 964.578856 174.357523 
L 1010.730187 170.772693 
L 1055.967629 164.934541 
L 1100.062713 157.252762 
L 1142.101548 147.829781 
L 1181.398721 136.972867 
L 1217.268814 124.886868 
L 1249.026413 111.776632 
L 1275.757629 97.949431 
L 1296.777047 83.61011 
L 1313.455498 66.095655 
" clip-path="url(#pb7f783ef8d)" style="fill: none; stroke: #7a7a7a; stroke-width: 3; stroke-linecap: square"/>
   </g>
   <g id="line2d_120">
    <path d="M 794.367266 198.52952 
L 807.618638 200.373147 
L 851.028305 203.343435 
L 896.037276 203.855554 
L 941.960135 202.11435 
L 988.111465 198.222249 
L 1034.034324 192.486521 
L 1079.043295 185.00959 
L 1122.681434 176.098726 
L 1164.491798 165.753931 
L 1203.78897 154.282475 
L 1239.887536 141.991629 
L 1272.33055 128.881393 
L 1300.66107 115.156615 
L 1324.193679 101.124566 
L 1342.242962 86.990093 
L 1354.580446 72.85562 
" clip-path="url(#pb7f783ef8d)" style="fill: none; stroke: #7a7a7a; stroke-width: 3; stroke-linecap: square"/>
   </g>
   <g id="line2d_121">
    <path d="M 1413.983149 347.146333 
L 1441 350.887061 
" clip-path="url(#pb7f783ef8d)" style="fill: none; stroke: #7a7a7a; stroke-width: 3; stroke-linecap: square"/>
   </g>
   <g id="line2d_122">
    <path d="M 1393.192203 378.078295 
L 1441 384.752923 
" clip-path="url(#pb7f783ef8d)" style="fill: none; stroke: #7a7a7a; stroke-width: 3; stroke-linecap: square"/>
   </g>
   <g id="line2d_123">
    <path clip-path="url(#pb7f783ef8d)" style="fill: none; stroke: #7a7a7a; stroke-width: 3; stroke-linecap: square"/>
   </g>
   <g id="line2d_124">
    <path d="M 1434.088679 317.136184 
L 1441 318.088419 
" clip-path="url(#pb7f783ef8d)" style="fill: none; stroke: #7a7a7a; stroke-width: 3; stroke-linecap: square"/>
   </g>
   <g id="line2d_125">
    <path d="M 1441 233.07955 
L 836.17763 136.358324 
" clip-path="url(#pb7f783ef8d)" style="fill: none; stroke: #7a7a7a; stroke-width: 3; stroke-linecap: square"/>
   </g>
   <g id="line2d_126">
    <path d="M 1441 200.245862 
L 855.1408 106.348175 
" clip-path="url(#pb7f783ef8d)" style="fill: none; stroke: #7a7a7a; stroke-width: 3; stroke-linecap: square"/>
   </g>
   <g id="line2d_127">
    <path clip-path="url(#pb7f783ef8d)" style="fill: none; stroke: #7a7a7a; stroke-width: 3; stroke-linecap: square"/>
   </g>
   <g id="line2d_128">
    <path clip-path="url(#pb7f783ef8d)" style="fill: none; stroke: #7a7a7a; stroke-width: 3; stroke-linecap: square"/>
   </g>
   <g id="line2d_129">
    <path d="M 1441 165.997305 
L 1376.056808 154.384898 
L 1346.583929 142.401324 
L 1323.736735 127.447461 
L 1309.114532 110.035429 
L 1304.545093 90.370076 
L 1313.455498 66.095655 
" clip-path="url(#pb7f783ef8d)" style="fill: none; stroke: #7a7a7a; stroke-width: 3; stroke-linecap: square"/>
   </g>
   <g id="line2d_130">
    <path d="M 1441 135.121573 
L 1422.665083 131.851681 
L 1394.563035 126.013529 
L 1379.255415 120.072953 
L 1366.917931 111.674209 
L 1352.067255 92.623397 
L 1354.580446 72.85562 
" clip-path="url(#pb7f783ef8d)" style="fill: none; stroke: #7a7a7a; stroke-width: 3; stroke-linecap: square"/>
   </g>
   <g id="line2d_131">
    <path d="M 816.757515 168.2121 
L 830.465831 170.260574 
L 849.885946 170.772693 
L 888.726174 167.699982 
L 928.708763 160.018203 
L 965.492744 148.751594 
L 994.280207 135.026816 
L 1010.958659 119.97053 
L 1072.646081 27.994032 
" clip-path="url(#pb7f783ef8d)" style="fill: none; stroke: #7a7a7a; stroke-width: 3; stroke-linecap: square"/>
   </g>
   <g id="line2d_132">
    <path d="M 794.367266 198.52952 
L 836.863045 202.319198 
L 879.587297 202.319198 
L 921.626133 198.734368 
L 962.065665 192.17925 
L 999.30659 183.063539 
L 1032.206548 171.79693 
L 1059.851652 158.686695 
L 1080.87107 144.449798 
L 1094.122442 129.291088 
L 1154.210561 40.080031 
" clip-path="url(#pb7f783ef8d)" style="fill: none; stroke: #7a7a7a; stroke-width: 3; stroke-linecap: square"/>
   </g>
   <g id="line2d_133">
    <path d="M 920.255301 380.024346 
L 1154.210561 40.080031 
" clip-path="url(#pb7f783ef8d)" style="fill: none; stroke: #7a7a7a; stroke-width: 3; stroke-linecap: square"/>
   </g>
   <g id="line2d_134">
    <path d="M 992.680904 390.266718 
L 1236.460457 52.780572 
" clip-path="url(#pb7f783ef8d)" style="fill: none; stroke: #7a7a7a; stroke-width: 3; stroke-linecap: square"/>
   </g>
   <g id="line2d_135">
    <path d="M 920.255301 380.024346 
L 1236.460457 52.780572 
" clip-path="url(#pb7f783ef8d)" style="fill: none; stroke: #7a7a7a; stroke-width: 3; stroke-linecap: square"/>
   </g>
   <g id="line2d_136">
    <path d="M 992.680904 390.266718 
L 1313.455498 66.095655 
" clip-path="url(#pb7f783ef8d)" style="fill: none; stroke: #7a7a7a; stroke-width: 3; stroke-linecap: square"/>
   </g>
   <g id="line2d_137">
    <path d="M -1 1264.299359 
L 66.684158 1273.671273 
" clip-path="url(#pb7f783ef8d)" style="fill: none; stroke: #7a7a7a; stroke-width: 3; stroke-linecap: square"/>
   </g>
   <g id="line2d_138">
    <path d="M -1 1327.612583 
L 28.529345 1331.643097 
" clip-path="url(#pb7f783ef8d)" style="fill: none; stroke: #7a7a7a; stroke-width: 3; stroke-linecap: square"/>
   </g>
   <g id="line2d_139">
    <path d="M 66.684158 1273.671273 
L 120.832006 1281.045781 
L 175.436798 1286.166967 
L 227.985343 1286.883933 
L 277.792224 1283.811221 
L 324.628971 1277.665798 
L 367.810166 1269.062206 
L 406.650395 1258.819835 
L 440.692713 1247.553226 
L 469.251704 1235.979346 
L 491.870426 1224.815161 
L 508.091933 1214.572789 
L 517.002339 1206.481315 
" clip-path="url(#pb7f783ef8d)" style="fill: none; stroke: #7a7a7a; stroke-width: 3; stroke-linecap: square"/>
   </g>
   <g id="line2d_140">
    <path d="M 28.529345 1331.643097 
L 82.677193 1339.120028 
L 125.172973 1341.475774 
L 168.125696 1341.37335 
L 211.535364 1338.915181 
L 254.488087 1334.20369 
L 296.526923 1327.648572 
L 337.423399 1319.249827 
L 376.4921 1309.314727 
L 413.047609 1297.945694 
L 446.632983 1285.450001 
L 476.791278 1271.93007 
L 502.837079 1257.488326 
L 524.541912 1242.534464 
L 539.164116 1228.809686 
L 551.958544 1211.397654 
" clip-path="url(#pb7f783ef8d)" style="fill: none; stroke: #7a7a7a; stroke-width: 3; stroke-linecap: square"/>
   </g>
   <g id="line2d_141">
    <path d="M 560.837658 984.279867 
L 456.943867 1132.72885 
" clip-path="url(#pb7f783ef8d)" style="fill: none; stroke-dasharray: 32,8,5,8; stroke-dashoffset: 0; stroke: #1e90ff; stroke-width: 5"/>
   </g>
   <g id="line2d_142">
    <path d="M 1097.2921 51.211858 
L 1070.488064 59.210585 
" clip-path="url(#pb7f783ef8d)" style="fill: none; stroke-dasharray: 32,8,5,8; stroke-dashoffset: 0; stroke: #1e90ff; stroke-width: 5"/>
   </g>
   <g id="line2d_143">
    <path d="M 560.837658 984.279867 
" clip-path="url(#pb7f783ef8d)" style="fill: none; stroke: #0000ff; stroke-width: 1.5; stroke-linecap: square"/>
    <defs>
     <path id="m053f23980f" d="M 0 10 
C 2.652031 10 5.195799 8.946337 7.071068 7.071068 
C 8.946337 5.195799 10 2.652031 10 0 
C 10 -2.652031 8.946337 -5.195799 7.071068 -7.071068 
C 5.195799 -8.946337 2.652031 -10 0 -10 
C -2.652031 -10 -5.195799 -8.946337 -7.071068 -7.071068 
C -8.946337 -5.195799 -10 -2.652031 -10 0 
C -10 2.652031 -8.946337 5.195799 -7.071068 7.071068 
C -5.195799 8.946337 -2.652031 10 0 10 
z
" style="stroke: #0000ff"/>
    </defs>
    <g clip-path="url(#pb7f783ef8d)">
     <use xlink:href="#m053f23980f" x="560.837658" y="984.279867" style="fill: #0000ff; stroke: #0000ff"/>
    </g>
   </g>
   <g id="line2d_144">
    <path d="M 1097.2921 51.211858 
" clip-path="url(#pb7f783ef8d)" style="fill: none; stroke: #0000ff; stroke-width: 1.5; stroke-linecap: square"/>
    <g clip-path="url(#pb7f783ef8d)">
     <use xlink:href="#m053f23980f" x="1097.2921" y="51.211858" style="fill: #0000ff; stroke: #0000ff"/>
    </g>
   </g>
   <g id="line2d_145">
    <path d="M 456.943867 1132.72885 
" clip-path="url(#pb7f783ef8d)" style="fill: none; stroke: #ff0000; stroke-width: 1.5; stroke-linecap: square"/>
    <defs>
     <path id="mf8c2ab8c89" d="M 0 -10 
L -2.24514 -3.09017 
L -9.510565 -3.09017 
L -3.632713 1.18034 
L -5.877853 8.09017 
L -0 3.81966 
L 5.877853 8.09017 
L 3.632713 1.18034 
L 9.510565 -3.09017 
L 2.24514 -3.09017 
z
" style="stroke: #ff0000; stroke-linejoin: bevel"/>
    </defs>
    <g clip-path="url(#pb7f783ef8d)">
     <use xlink:href="#mf8c2ab8c89" x="456.943867" y="1132.72885" style="fill: #ff0000; stroke: #ff0000; stroke-linejoin: bevel"/>
    </g>
   </g>
   <g id="line2d_146">
    <path d="M 1070.488064 59.210585 
" clip-path="url(#pb7f783ef8d)" style="fill: none; stroke: #ff0000; stroke-width: 1.5; stroke-linecap: square"/>
    <g clip-path="url(#pb7f783ef8d)">
     <use xlink:href="#mf8c2ab8c89" x="1070.488064" y="59.210585" style="fill: #ff0000; stroke: #ff0000; stroke-linejoin: bevel"/>
    </g>
   </g>
  </g>
 </g>
 <defs>
  <clipPath id="pb7f783ef8d">
   <rect x="0" y="0" width="1440" height="1440"/>
  </clipPath>
 </defs>
</svg>
