<?xml version="1.0" encoding="utf-8" standalone="no"?>
<!DOCTYPE svg PUBLIC "-//W3C//DTD SVG 1.1//EN"
  "http://www.w3.org/Graphics/SVG/1.1/DTD/svg11.dtd">
<svg xmlns:xlink="http://www.w3.org/1999/xlink" width="1440pt" height="1440pt" viewBox="0 0 1440 1440" xmlns="http://www.w3.org/2000/svg" version="1.1">
 <metadata>
  <rdf:RDF xmlns:dc="http://purl.org/dc/elements/1.1/" xmlns:cc="http://creativecommons.org/ns#" xmlns:rdf="http://www.w3.org/1999/02/22-rdf-syntax-ns#">
   <cc:Work>
    <dc:type rdf:resource="http://purl.org/dc/dcmitype/StillImage"/>
    <dc:date>2026-02-27T11:09:44.032993</dc:date>
    <dc:format>image/svg+xml</dc:format>
    <dc:creator>
     <cc:Agent>
      <dc:title>Matplotlib v3.7.3, https://matplotlib.org/</dc:title>
     </cc:Agent>
    </dc:creator>
   </cc:Work>
  </rdf:RDF>
 </metadata>
 <defs>
  <style type="text/css">*{stroke-linejoin: round; stroke-linecap: butt}</style>
 </defs>
 <g id="figure_1">
  <g id="patch_1">
   <path d="M 0 1440 
L 1440 1440 
L 1440 0 
L 0 0 
z
" style="fill: #ffffff"/>
  </g>
  <g id="axes_1">
   <g id="line2d_1">
    <path d="M 912.299501 651.946542 
L 1148.53196 852.114321 
" clip-path="url(#p5ede1560c5)" style="fill: none; stroke: #7a7a7a; stroke-width: 3; stroke-linecap: square"/>
   </g>
   <g id="line2d_2">
    <path d="M 895.262985 712.749677 
L 1101.437386 887.824098 
L 1132.146521 913.689558 
" clip-path="url(#p5ede1560c5)" style="fill: none; stroke: #7a7a7a; stroke-width: 3; stroke-linecap: square"/>
   </g>
   <g id="line2d_3">
    <path d="M 976.430591 1028.925974 
L 861.405779 1441 
" clip-path="url(#p5ede1560c5)" style="fill: none; stroke: #7a7a7a; stroke-width: 3; stroke-linecap: square"/>
   </g>
   <g id="line2d_4">
    <path d="M 938.99366 997.076714 
L 814.682549 1441 
" clip-path="url(#p5ede1560c5)" style="fill: none; stroke: #7a7a7a; stroke-width: 3; stroke-linecap: square"/>
   </g>
   <g id="line2d_5">
    <path d="M 927.16576 596.934183 
L 246.464696 20.173025 
" clip-path="url(#p5ede1560c5)" style="fill: none; stroke: #7a7a7a; stroke-width: 3; stroke-linecap: square"/>
   </g>
   <g id="line2d_6">
    <path d="M 939.644737 552.152192 
L 430.828016 119.967375 
L 286.944242 -1 
" clip-path="url(#p5ede1560c5)" style="fill: none; stroke: #7a7a7a; stroke-width: 3; stroke-linecap: square"/>
   </g>
   <g id="line2d_7">
    <path d="M 861.405779 1441 
L 976.430591 1028.925974 
" clip-path="url(#p5ede1560c5)" style="fill: none; stroke: #7a7a7a; stroke-width: 3; stroke-linecap: square"/>
   </g>
   <g id="line2d_8">
    <path d="M 903.609517 1441 
L 993.033056 1122.736524 
L 1011.046188 1058.458925 
" clip-path="url(#p5ede1560c5)" style="fill: none; stroke: #7a7a7a; stroke-width: 3; stroke-linecap: square"/>
   </g>
   <g id="line2d_9">
    <path d="M 912.299501 651.946542 
L 246.464696 89.276269 
" clip-path="url(#p5ede1560c5)" style="fill: none; stroke: #7a7a7a; stroke-width: 3; stroke-linecap: square"/>
   </g>
   <g id="line2d_10">
    <path d="M 927.16576 596.934183 
L 246.464696 20.173025 
" clip-path="url(#p5ede1560c5)" style="fill: none; stroke: #7a7a7a; stroke-width: 3; stroke-linecap: square"/>
   </g>
   <g id="line2d_11">
    <path d="M 1232.846439 855.974837 
L 1162.855656 796.71591 
" clip-path="url(#p5ede1560c5)" style="fill: none; stroke: #7a7a7a; stroke-width: 3; stroke-linecap: square"/>
   </g>
   <g id="line2d_12">
    <path d="M 1245.542442 808.683511 
L 1219.173821 786.292515 
L 1175.98571 750.196686 
" clip-path="url(#p5ede1560c5)" style="fill: none; stroke: #7a7a7a; stroke-width: 3; stroke-linecap: square"/>
   </g>
   <g id="line2d_13">
    <path d="M 1076.37092 504.66784 
L 1074.417688 512.002821 
L 1062.155737 548.484701 
L 1049.351222 578.017652 
L 1035.570091 600.408648 
L 1020.812344 616.236765 
L 1004.969469 625.115953 
L 987.715927 627.625289 
L 969.160231 623.571747 
L 948.976842 613.341378 
L 927.16576 596.934183 
" clip-path="url(#p5ede1560c5)" style="fill: none; stroke: #7a7a7a; stroke-width: 3; stroke-linecap: square"/>
   </g>
   <g id="line2d_14">
    <path d="M 1045.010708 475.52094 
L 1036.546706 506.405072 
L 1030.5785 525.707654 
L 1024.501781 540.570643 
L 1017.448446 552.73127 
L 1009.527008 562.768612 
L 1002.907725 568.559387 
L 996.831006 572.033852 
L 989.777671 574.350162 
L 982.615823 575.122265 
L 973.826283 573.96411 
L 966.121871 571.454774 
L 958.960023 567.787284 
L 952.34074 562.961638 
L 939.644737 552.152192 
" clip-path="url(#p5ede1560c5)" style="fill: none; stroke: #7a7a7a; stroke-width: 3; stroke-linecap: square"/>
   </g>
   <g id="line2d_15">
    <path d="M 246.464696 89.276269 
L 912.299501 651.946542 
" clip-path="url(#p5ede1560c5)" style="fill: none; stroke: #7a7a7a; stroke-width: 3; stroke-linecap: square"/>
   </g>
   <g id="line2d_16">
    <path d="M 246.464696 166.293572 
L 272.507778 188.298516 
L 463.381869 348.316923 
L 549.432554 420.508581 
L 895.262985 712.749677 
" clip-path="url(#p5ede1560c5)" style="fill: none; stroke: #7a7a7a; stroke-width: 3; stroke-linecap: square"/>
   </g>
   <g id="line2d_17">
    <path d="M 938.99366 997.076714 
L 814.682549 1441 
" clip-path="url(#p5ede1560c5)" style="fill: none; stroke: #7a7a7a; stroke-width: 3; stroke-linecap: square"/>
   </g>
   <g id="line2d_18">
    <path d="M 906.656833 969.474021 
L 774.634566 1441 
" clip-path="url(#p5ede1560c5)" style="fill: none; stroke: #7a7a7a; stroke-width: 3; stroke-linecap: square"/>
   </g>
   <g id="line2d_19">
    <path d="M 912.299501 651.946542 
L 930.20412 666.423479 
L 950.06197 674.530564 
L 971.330488 676.846874 
L 993.141569 673.75846 
L 1014.95265 665.844402 
L 1036.221168 653.490749 
L 1056.187531 637.27658 
L 1074.417688 617.780972 
L 1090.043538 595.389976 
L 1102.522515 570.682671 
L 1111.312055 544.045108 
L 1133.014624 466.641753 
" clip-path="url(#p5ede1560c5)" style="fill: none; stroke: #7a7a7a; stroke-width: 3; stroke-linecap: square"/>
   </g>
   <g id="line2d_20">
    <path d="M 895.262985 712.749677 
L 914.035706 726.261484 
L 934.110582 734.175543 
L 954.945048 738.036059 
L 976.213565 737.650008 
L 997.482083 733.789491 
L 1018.642087 726.261484 
L 1039.36804 715.452038 
L 1059.22589 701.747205 
L 1077.998612 685.533036 
L 1095.46918 666.809531 
L 1111.312055 645.962742 
L 1125.093186 623.378721 
L 1136.70406 599.443519 
L 1145.710626 573.96411 
L 1167.413195 496.560755 
" clip-path="url(#p5ede1560c5)" style="fill: none; stroke: #7a7a7a; stroke-width: 3; stroke-linecap: square"/>
   </g>
   <g id="line2d_21">
    <path d="M 1095.686206 436.143673 
L 1076.37092 504.66784 
" clip-path="url(#p5ede1560c5)" style="fill: none; stroke: #7a7a7a; stroke-width: 3; stroke-linecap: square"/>
   </g>
   <g id="line2d_22">
    <path d="M 1064.108968 406.803748 
L 1045.010708 475.52094 
" clip-path="url(#p5ede1560c5)" style="fill: none; stroke: #7a7a7a; stroke-width: 3; stroke-linecap: square"/>
   </g>
   <g id="line2d_23">
    <path d="M 912.299501 651.946542 
L 952.883304 688.042371 
L 964.060127 704.25654 
L 970.67941 721.242813 
L 977.081668 738.422111 
L 982.290285 763.708494 
L 985.54567 792.276316 
L 985.437157 819.492957 
L 982.073259 844.586314 
L 938.99366 997.076714 
" clip-path="url(#p5ede1560c5)" style="fill: none; stroke: #7a7a7a; stroke-width: 3; stroke-linecap: square"/>
   </g>
   <g id="line2d_24">
    <path d="M 895.262985 712.749677 
L 921.41458 736.298827 
L 933.459505 748.073402 
L 938.125558 754.63628 
L 942.03202 761.58521 
L 945.395918 770.078346 
L 947.891713 778.764508 
L 949.30238 787.643696 
L 949.953457 796.71591 
L 949.844945 805.595097 
L 948.651303 815.439414 
L 946.155508 827.21399 
L 942.357558 841.690926 
L 906.656833 969.474021 
" clip-path="url(#p5ede1560c5)" style="fill: none; stroke: #7a7a7a; stroke-width: 3; stroke-linecap: square"/>
   </g>
   <g id="line2d_25">
    <path d="M 1148.53196 852.114321 
L 1217.98018 910.987197 
" clip-path="url(#p5ede1560c5)" style="fill: none; stroke: #7a7a7a; stroke-width: 3; stroke-linecap: square"/>
   </g>
   <g id="line2d_26">
    <path d="M 1132.146521 913.689558 
L 1201.377715 972.369408 
" clip-path="url(#p5ede1560c5)" style="fill: none; stroke: #7a7a7a; stroke-width: 3; stroke-linecap: square"/>
   </g>
   <g id="line2d_27">
    <path d="M 1217.98018 910.987197 
L 1151.678833 855.588785 
L 1135.618932 840.14672 
L 1115.652569 827.407015 
L 1093.407436 819.299931 
L 1070.728252 818.334802 
L 1049.67676 826.24886 
L 1031.880654 845.165391 
L 1019.401677 877.400703 
L 976.430591 1028.925974 
" clip-path="url(#p5ede1560c5)" style="fill: none; stroke: #7a7a7a; stroke-width: 3; stroke-linecap: square"/>
   </g>
   <g id="line2d_28">
    <path d="M 1232.846439 855.974837 
L 1166.436579 800.576426 
L 1148.206422 787.257644 
L 1128.565597 776.255172 
L 1108.05667 768.148088 
L 1087.005178 763.322442 
L 1066.170712 762.743365 
L 1045.878811 766.989933 
L 1026.889063 776.83425 
L 1009.527008 792.662367 
L 994.33521 815.439414 
L 981.964746 845.551443 
L 938.99366 997.076714 
" clip-path="url(#p5ede1560c5)" style="fill: none; stroke: #7a7a7a; stroke-width: 3; stroke-linecap: square"/>
   </g>
   <g id="line2d_29">
    <path d="M 976.430591 1028.925974 
L 1133.014624 466.641753 
" clip-path="url(#p5ede1560c5)" style="fill: none; stroke: #7a7a7a; stroke-width: 3; stroke-linecap: square"/>
   </g>
   <g id="line2d_30">
    <path d="M 1011.046188 1058.458925 
L 1022.005985 1019.274683 
L 1131.929495 624.34385 
L 1135.401906 610.832042 
L 1167.413195 496.560755 
" clip-path="url(#p5ede1560c5)" style="fill: none; stroke: #7a7a7a; stroke-width: 3; stroke-linecap: square"/>
   </g>
   <g id="line2d_31">
    <path d="M 1076.37092 504.66784 
L 938.99366 997.076714 
" clip-path="url(#p5ede1560c5)" style="fill: none; stroke: #7a7a7a; stroke-width: 3; stroke-linecap: square"/>
   </g>
   <g id="line2d_32">
    <path d="M 1045.010708 475.52094 
L 1036.546706 506.405072 
L 1030.361474 526.093706 
L 906.656833 969.474021 
" clip-path="url(#p5ede1560c5)" style="fill: none; stroke: #7a7a7a; stroke-width: 3; stroke-linecap: square"/>
   </g>
   <g id="line2d_33">
    <path d="M 1133.014624 466.641753 
L 1098.941591 589.020124 
L 1090.586102 618.167023 
L 1086.67964 651.174439 
L 1086.896665 686.112113 
L 1090.694615 721.82189 
L 1097.74795 756.373513 
L 1107.405593 788.222773 
L 1119.450518 815.825466 
L 1133.231649 837.83041 
L 1148.53196 852.114321 
" clip-path="url(#p5ede1560c5)" style="fill: none; stroke: #7a7a7a; stroke-width: 3; stroke-linecap: square"/>
   </g>
   <g id="line2d_34">
    <path d="M 1095.686206 436.143673 
L 1061.613173 558.522044 
L 1054.451325 592.494589 
L 1050.653376 628.397392 
L 1050.110812 665.844402 
L 1052.498094 703.870489 
L 1057.598198 741.510524 
L 1065.194097 778.185431 
L 1074.960253 812.544027 
L 1086.896665 844.200262 
L 1100.460771 872.189006 
L 1115.652569 895.738157 
L 1132.146521 913.689558 
" clip-path="url(#p5ede1560c5)" style="fill: none; stroke: #7a7a7a; stroke-width: 3; stroke-linecap: square"/>
   </g>
   <g id="line2d_35">
    <path d="M 1162.855656 796.71591 
L 1135.94447 773.359785 
L 1122.163339 759.847977 
L 1108.707747 740.931447 
L 1097.422411 715.83809 
L 1090.477589 683.988829 
L 1089.500974 644.418535 
L 1096.445796 596.741157 
L 1133.014624 466.641753 
" clip-path="url(#p5ede1560c5)" style="fill: none; stroke: #7a7a7a; stroke-width: 3; stroke-linecap: square"/>
   </g>
   <g id="line2d_36">
    <path d="M 1175.98571 750.196686 
L 1155.910834 733.210414 
L 1142.672267 720.856761 
L 1138.657292 715.645064 
L 1135.293393 710.240341 
L 1132.146521 703.098386 
L 1129.542213 695.377353 
L 1127.371956 685.34001 
L 1126.069802 676.460822 
L 1125.310212 662.755989 
L 1126.286827 649.823258 
L 1128.891136 636.118425 
L 1131.061393 627.625289 
L 1130.95288 626.66016 
L 1167.413195 496.560755 
" clip-path="url(#p5ede1560c5)" style="fill: none; stroke: #7a7a7a; stroke-width: 3; stroke-linecap: square"/>
   </g>
   <g id="line2d_37">
    <path d="M 1133.014624 466.641753 
L 1212.554538 181.542612 
" clip-path="url(#p5ede1560c5)" style="fill: none; stroke: #7a7a7a; stroke-width: 3; stroke-linecap: square"/>
   </g>
   <g id="line2d_38">
    <path d="M 1167.413195 496.560755 
L 1238.706133 240.994566 
L 1247.061622 210.689512 
" clip-path="url(#p5ede1560c5)" style="fill: none; stroke: #7a7a7a; stroke-width: 3; stroke-linecap: square"/>
   </g>
   <g id="line2d_39">
    <path d="M 1162.855656 796.71591 
L 927.16576 596.934183 
" clip-path="url(#p5ede1560c5)" style="fill: none; stroke: #7a7a7a; stroke-width: 3; stroke-linecap: square"/>
   </g>
   <g id="line2d_40">
    <path d="M 1175.98571 750.196686 
L 955.487612 565.277948 
L 952.34074 562.961638 
L 939.644737 552.152192 
" clip-path="url(#p5ede1560c5)" style="fill: none; stroke: #7a7a7a; stroke-width: 3; stroke-linecap: square"/>
   </g>
   <g id="line2d_41">
    <path d="M 1217.98018 910.987197 
L 912.299501 651.946542 
" clip-path="url(#p5ede1560c5)" style="fill: none; stroke: #7a7a7a; stroke-width: 3; stroke-linecap: square"/>
   </g>
   <g id="line2d_42">
    <path d="M 1232.846439 855.974837 
L 927.16576 596.934183 
" clip-path="url(#p5ede1560c5)" style="fill: none; stroke: #7a7a7a; stroke-width: 3; stroke-linecap: square"/>
   </g>
   <g id="line2d_43">
    <path d="M 976.430591 1028.925974 
L 980.879618 1012.904831 
L 988.909568 976.229925 
L 993.57562 937.817786 
L 994.986287 898.633544 
L 993.358595 859.449302 
L 988.801055 821.037163 
L 981.639208 784.169231 
L 971.981565 749.810635 
L 960.045152 718.540451 
L 945.938482 691.32381 
L 929.987094 668.739789 
L 912.299501 651.946542 
" clip-path="url(#p5ede1560c5)" style="fill: none; stroke: #7a7a7a; stroke-width: 3; stroke-linecap: square"/>
   </g>
   <g id="line2d_44">
    <path d="M 1011.046188 1058.458925 
L 1015.495215 1042.630808 
L 1022.114498 1008.851289 
L 1026.563525 973.334537 
L 1028.842294 936.273579 
L 1028.950807 898.440518 
L 1026.997576 860.221405 
L 1022.982601 822.195318 
L 1017.122907 785.13436 
L 1009.418495 749.617609 
L 999.869365 715.83809 
L 988.475517 684.760932 
L 975.562488 656.579162 
L 960.913255 632.257909 
L 944.744841 612.183223 
L 927.16576 596.934183 
" clip-path="url(#p5ede1560c5)" style="fill: none; stroke: #7a7a7a; stroke-width: 3; stroke-linecap: square"/>
   </g>
   <g id="line2d_45">
    <path d="M 1212.554538 181.542612 
L 1133.014624 466.641753 
" clip-path="url(#p5ede1560c5)" style="fill: none; stroke: #7a7a7a; stroke-width: 3; stroke-linecap: square"/>
   </g>
   <g id="line2d_46">
    <path d="M 1175.660171 150.272429 
L 1095.686206 436.143673 
" clip-path="url(#p5ede1560c5)" style="fill: none; stroke: #7a7a7a; stroke-width: 3; stroke-linecap: square"/>
   </g>
   <g id="line2d_47">
    <path d="M 1175.660171 150.272429 
L 1095.686206 436.143673 
" clip-path="url(#p5ede1560c5)" style="fill: none; stroke: #7a7a7a; stroke-width: 3; stroke-linecap: square"/>
   </g>
   <g id="line2d_48">
    <path d="M 1143.323344 122.476711 
L 1110.552465 239.450359 
L 1064.108968 406.803748 
" clip-path="url(#p5ede1560c5)" style="fill: none; stroke: #7a7a7a; stroke-width: 3; stroke-linecap: square"/>
   </g>
   <g id="line2d_49">
    <path d="M 1133.014624 466.641753 
L 976.430591 1028.925974 
" clip-path="url(#p5ede1560c5)" style="fill: none; stroke: #7a7a7a; stroke-width: 3; stroke-linecap: square"/>
   </g>
   <g id="line2d_50">
    <path d="M 1095.686206 436.143673 
L 938.99366 997.076714 
" clip-path="url(#p5ede1560c5)" style="fill: none; stroke: #7a7a7a; stroke-width: 3; stroke-linecap: square"/>
   </g>
   <g id="line2d_51">
    <path d="M 1248.34078 860.922532 
L 1277.230735 822.416772 
" clip-path="url(#p5ede1560c5)" style="fill: none; stroke-dasharray: 32,8,5,8; stroke-dashoffset: 0; stroke: #1e90ff; stroke-width: 5"/>
   </g>
   <g id="line2d_52">
    <path d="M 221.731397 100.0376 
L 217.025686 96.512911 
" clip-path="url(#p5ede1560c5)" style="fill: none; stroke-dasharray: 32,8,5,8; stroke-dashoffset: 0; stroke: #1e90ff; stroke-width: 5"/>
   </g>
   <g id="line2d_53">
    <path d="M 730.357532 524.186486 
L 706.438875 504.596144 
" clip-path="url(#p5ede1560c5)" style="fill: none; stroke-dasharray: 32,8,5,8; stroke-dashoffset: 0; stroke: #1e90ff; stroke-width: 5"/>
   </g>
   <g id="line2d_54">
    <path d="M 1248.34078 860.922532 
" clip-path="url(#p5ede1560c5)" style="fill: none; stroke: #0000ff; stroke-width: 1.5; stroke-linecap: square"/>
    <defs>
     <path id="mb5b4ef1eca" d="M 0 10 
C 2.652031 10 5.195799 8.946337 7.071068 7.071068 
C 8.946337 5.195799 10 2.652031 10 0 
C 10 -2.652031 8.946337 -5.195799 7.071068 -7.071068 
C 5.195799 -8.946337 2.652031 -10 0 -10 
C -2.652031 -10 -5.195799 -8.946337 -7.071068 -7.071068 
C -8.946337 -5.195799 -10 -2.652031 -10 0 
C -10 2.652031 -8.946337 5.195799 -7.071068 7.071068 
C -5.195799 8.946337 -2.652031 10 0 10 
z
" style="stroke: #0000ff"/>
    </defs>
    <g clip-path="url(#p5ede1560c5)">
     <use xlink:href="#mb5b4ef1eca" x="1248.34078" y="860.922532" style="fill: #0000ff; stroke: #0000ff"/>
    </g>
   </g>
   <g id="line2d_55">
    <path d="M 221.731397 100.0376 
" clip-path="url(#p5ede1560c5)" style="fill: none; stroke: #0000ff; stroke-width: 1.5; stroke-linecap: square"/>
    <g clip-path="url(#p5ede1560c5)">
     <use xlink:href="#mb5b4ef1eca" x="221.731397" y="100.0376" style="fill: #0000ff; stroke: #0000ff"/>
    </g>
   </g>
   <g id="line2d_56">
    <path d="M 730.357532 524.186486 
" clip-path="url(#p5ede1560c5)" style="fill: none; stroke: #0000ff; stroke-width: 1.5; stroke-linecap: square"/>
    <g clip-path="url(#p5ede1560c5)">
     <use xlink:href="#mb5b4ef1eca" x="730.357532" y="524.186486" style="fill: #0000ff; stroke: #0000ff"/>
    </g>
   </g>
   <g id="line2d_57">
    <path d="M 1277.230735 822.416772 
" clip-path="url(#p5ede1560c5)" style="fill: none; stroke: #ff0000; stroke-width: 1.5; stroke-linecap: square"/>
    <defs>
     <path id="ma49fe7286c" d="M 0 -10 
L -2.24514 -3.09017 
L -9.510565 -3.09017 
L -3.632713 1.18034 
L -5.877853 8.09017 
L -0 3.81966 
L 5.877853 8.09017 
L 3.632713 1.18034 
L 9.510565 -3.09017 
L 2.24514 -3.09017 
z
" style="stroke: #ff0000; stroke-linejoin: bevel"/>
    </defs>
    <g clip-path="url(#p5ede1560c5)">
     <use xlink:href="#ma49fe7286c" x="1277.230735" y="822.416772" style="fill: #ff0000; stroke: #ff0000; stroke-linejoin: bevel"/>
    </g>
   </g>
   <g id="line2d_58">
    <path d="M 217.025686 96.512911 
" clip-path="url(#p5ede1560c5)" style="fill: none; stroke: #ff0000; stroke-width: 1.5; stroke-linecap: square"/>
    <g clip-path="url(#p5ede1560c5)">
     <use xlink:href="#ma49fe7286c" x="217.025686" y="96.512911" style="fill: #ff0000; stroke: #ff0000; stroke-linejoin: bevel"/>
    </g>
   </g>
   <g id="line2d_59">
    <path d="M 706.438875 504.596144 
" clip-path="url(#p5ede1560c5)" style="fill: none; stroke: #ff0000; stroke-width: 1.5; stroke-linecap: square"/>
    <g clip-path="url(#p5ede1560c5)">
     <use xlink:href="#ma49fe7286c" x="706.438875" y="504.596144" style="fill: #ff0000; stroke: #ff0000; stroke-linejoin: bevel"/>
    </g>
   </g>
  </g>
 </g>
 <defs>
  <clipPath id="p5ede1560c5">
   <rect x="0" y="0" width="1440" height="1440"/>
  </clipPath>
 </defs>
</svg>
