<?xml version="1.0" encoding="utf-8" standalone="no"?>
<!DOCTYPE svg PUBLIC "-//W3C//DTD SVG 1.1//EN"
  "http://www.w3.org/Graphics/SVG/1.1/DTD/svg11.dtd">
<svg xmlns:xlink="http://www.w3.org/1999/xlink" width="1440pt" height="1440pt" viewBox="0 0 1440 1440" xmlns="http://www.w3.org/2000/svg" version="1.1">
 <metadata>
  <rdf:RDF xmlns:dc="http://purl.org/dc/elements/1.1/" xmlns:cc="http://creativecommons.org/ns#" xmlns:rdf="http://www.w3.org/1999/02/22-rdf-syntax-ns#">
   <cc:Work>
    <dc:type rdf:resource="http://purl.org/dc/dcmitype/StillImage"/>
    <dc:date>2026-02-27T11:10:15.213121</dc:date>
    <dc:format>image/svg+xml</dc:format>
    <dc:creator>
     <cc:Agent>
      <dc:title>Matplotlib v3.7.3, https://matplotlib.org/</dc:title>
     </cc:Agent>
    </dc:creator>
   </cc:Work>
  </rdf:RDF>
 </metadata>
 <defs>
  <style type="text/css">*{stroke-linejoin: round; stroke-linecap: butt}</style>
 </defs>
 <g id="figure_1">
  <g id="patch_1">
   <path d="M 0 1440 
L 1440 1440 
L 1440 0 
L 0 0 
z
" style="fill: #ffffff"/>
  </g>
  <g id="axes_1">
   <g id="line2d_1">
    <path d="M 877.363803 648.49706 
L 897.553199 609.820854 
L 992.731778 429.726832 
L 993.308618 428.711265 
" clip-path="url(#pb7633e9c05)" style="fill: none; stroke: #7a7a7a; stroke-width: 3; stroke-linecap: square"/>
   </g>
   <g id="line2d_2">
    <path d="M 918.463644 655.859927 
L 942.258289 608.551394 
L 1039.023178 429.726832 
L 1039.600018 428.711265 
" clip-path="url(#pb7633e9c05)" style="fill: none; stroke: #7a7a7a; stroke-width: 3; stroke-linecap: square"/>
   </g>
   <g id="line2d_3">
    <path d="M 949.324578 428.711265 
L 948.747738 429.726832 
L 886.016401 548.717525 
L 838.138692 641.641978 
" clip-path="url(#pb7633e9c05)" style="fill: none; stroke: #7a7a7a; stroke-width: 3; stroke-linecap: square"/>
   </g>
   <g id="line2d_4">
    <path d="M 902.456338 428.711265 
L 901.879498 429.726832 
L 795.164121 634.025219 
" clip-path="url(#pb7633e9c05)" style="fill: none; stroke: #7a7a7a; stroke-width: 3; stroke-linecap: square"/>
   </g>
   <g id="line2d_5">
    <path d="M 1065.990443 787.375956 
L 491.313717 708.923344 
" clip-path="url(#pb7633e9c05)" style="fill: none; stroke: #7a7a7a; stroke-width: 3; stroke-linecap: square"/>
   </g>
   <g id="line2d_6">
    <path d="M 1079.54618 761.732869 
L 1048.829456 755.554832 
L 1012.776964 748.86901 
L 1006.864355 747.345659 
L 525.779899 661.699442 
" clip-path="url(#pb7633e9c05)" style="fill: none; stroke: #7a7a7a; stroke-width: 3; stroke-linecap: square"/>
   </g>
   <g id="line2d_7">
    <path d="M 491.313717 708.923344 
L 1052.290495 812.341997 
" clip-path="url(#pb7633e9c05)" style="fill: none; stroke: #7a7a7a; stroke-width: 3; stroke-linecap: square"/>
   </g>
   <g id="line2d_8">
    <path d="M 477.75798 735.83589 
L 1033.831619 847.88687 
" clip-path="url(#pb7633e9c05)" style="fill: none; stroke: #7a7a7a; stroke-width: 3; stroke-linecap: square"/>
   </g>
   <g id="line2d_9">
    <path d="M 925.674143 657.044756 
L 1047.964196 428.711265 
" clip-path="url(#pb7633e9c05)" style="fill: none; stroke: #7a7a7a; stroke-width: 3; stroke-linecap: square"/>
   </g>
   <g id="line2d_10">
    <path d="M 957.256126 663.053532 
L 1082.574589 429.726832 
L 1083.007219 428.711265 
" clip-path="url(#pb7633e9c05)" style="fill: none; stroke: #7a7a7a; stroke-width: 3; stroke-linecap: square"/>
   </g>
   <g id="line2d_11">
    <path d="M 902.456338 428.711265 
L 901.879498 429.726832 
L 795.164121 634.025219 
" clip-path="url(#pb7633e9c05)" style="fill: none; stroke: #7a7a7a; stroke-width: 3; stroke-linecap: square"/>
   </g>
   <g id="line2d_12">
    <path d="M 856.597568 428.711265 
L 856.164938 429.726832 
L 771.369476 592.38694 
L 753.48744 626.662353 
" clip-path="url(#pb7633e9c05)" style="fill: none; stroke: #7a7a7a; stroke-width: 3; stroke-linecap: square"/>
   </g>
   <g id="line2d_13">
    <path d="M 381.858351 688.781249 
L 491.313717 708.923344 
" clip-path="url(#pb7633e9c05)" style="fill: none; stroke: #7a7a7a; stroke-width: 3; stroke-linecap: square"/>
   </g>
   <g id="line2d_14">
    <path d="M 367.293144 715.101381 
L 477.75798 735.83589 
" clip-path="url(#pb7633e9c05)" style="fill: none; stroke: #7a7a7a; stroke-width: 3; stroke-linecap: square"/>
   </g>
   <g id="line2d_15">
    <path d="M 1437.619532 855.503628 
L 1436.610062 855.334367 
L 1434.014283 854.826583 
L 1431.130084 854.234169 
L 1430.409034 854.149538 
L 1387.001833 846.109626 
L 1065.990443 787.375956 
" clip-path="url(#pb7633e9c05)" style="fill: none; stroke: #7a7a7a; stroke-width: 3; stroke-linecap: square"/>
   </g>
   <g id="line2d_16">
    <path d="M 1437.619532 822.243783 
L 1436.610062 822.074522 
L 1434.158493 821.566738 
L 1431.130084 820.974323 
L 1430.409034 820.889693 
L 1079.54618 761.732869 
" clip-path="url(#pb7633e9c05)" style="fill: none; stroke: #7a7a7a; stroke-width: 3; stroke-linecap: square"/>
   </g>
   <g id="line2d_17">
    <path d="M 139.729813 673.293841 
L 141.748752 673.716994 
L 367.293144 715.101381 
" clip-path="url(#pb7633e9c05)" style="fill: none; stroke: #7a7a7a; stroke-width: 3; stroke-linecap: square"/>
   </g>
   <g id="line2d_18">
    <path d="M 139.729813 703.930136 
L 141.748752 704.268658 
L 352.583727 741.844666 
" clip-path="url(#pb7633e9c05)" style="fill: none; stroke: #7a7a7a; stroke-width: 3; stroke-linecap: square"/>
   </g>
   <g id="line2d_19">
    <path d="M 744.834842 899.934719 
L 877.363803 648.49706 
" clip-path="url(#pb7633e9c05)" style="fill: none; stroke: #7a7a7a; stroke-width: 3; stroke-linecap: square"/>
   </g>
   <g id="line2d_20">
    <path d="M 785.069423 909.328721 
L 918.463644 655.859927 
" clip-path="url(#pb7633e9c05)" style="fill: none; stroke: #7a7a7a; stroke-width: 3; stroke-linecap: square"/>
   </g>
   <g id="line2d_21">
    <path d="M 139.729813 644.096267 
L 140.162443 644.180897 
L 140.595073 644.180897 
L 141.748752 644.434789 
L 381.858351 688.781249 
" clip-path="url(#pb7633e9c05)" style="fill: none; stroke: #7a7a7a; stroke-width: 3; stroke-linecap: square"/>
   </g>
   <g id="line2d_22">
    <path d="M 139.729813 673.293841 
L 141.748752 673.716994 
L 367.293144 715.101381 
" clip-path="url(#pb7633e9c05)" style="fill: none; stroke: #7a7a7a; stroke-width: 3; stroke-linecap: square"/>
   </g>
   <g id="line2d_23">
    <path d="M 706.33078 891.387024 
L 574.522869 1142.316898 
L 550.728224 1187.340404 
L 550.151384 1188.609863 
L 550.007174 1188.863755 
L 549.718754 1189.45617 
L 549.430334 1189.963954 
L 549.141914 1190.387107 
" clip-path="url(#pb7633e9c05)" style="fill: none; stroke: #7a7a7a; stroke-width: 3; stroke-linecap: square"/>
   </g>
   <g id="line2d_24">
    <path d="M 662.34674 881.400607 
L 499.245265 1187.255773 
L 498.668425 1188.525233 
L 498.524215 1188.863755 
L 498.235795 1189.45617 
L 497.947375 1189.879323 
L 497.658955 1190.387107 
" clip-path="url(#pb7633e9c05)" style="fill: none; stroke: #7a7a7a; stroke-width: 3; stroke-linecap: square"/>
   </g>
   <g id="line2d_25">
    <path d="M 848.08918 428.711265 
L 780.022074 552.864427 
L 744.258002 624.715848 
" clip-path="url(#pb7633e9c05)" style="fill: none; stroke: #7a7a7a; stroke-width: 3; stroke-linecap: square"/>
   </g>
   <g id="line2d_26">
    <path d="M 812.901947 428.711265 
L 753.92007 550.494769 
L 712.387599 619.384117 
" clip-path="url(#pb7633e9c05)" style="fill: none; stroke: #7a7a7a; stroke-width: 3; stroke-linecap: square"/>
   </g>
   <g id="line2d_27">
    <path d="M 592.693325 1190.387107 
L 592.837535 1189.963954 
L 593.125955 1189.540801 
L 593.414375 1188.948386 
L 593.558585 1188.609863 
L 594.279635 1187.340404 
L 610.286941 1156.704109 
L 744.834842 899.934719 
" clip-path="url(#pb7633e9c05)" style="fill: none; stroke: #7a7a7a; stroke-width: 3; stroke-linecap: square"/>
   </g>
   <g id="line2d_28">
    <path d="M 637.831045 1190.387107 
L 638.263675 1189.540801 
L 638.407885 1189.286909 
L 638.696305 1188.948386 
L 638.840515 1188.609863 
L 639.417355 1187.340404 
L 785.069423 909.328721 
" clip-path="url(#pb7633e9c05)" style="fill: none; stroke: #7a7a7a; stroke-width: 3; stroke-linecap: square"/>
   </g>
   <g id="line2d_29">
    <path d="M 838.138692 641.641978 
L 886.016401 548.717525 
L 948.747738 429.726832 
L 949.324578 428.711265 
" clip-path="url(#pb7633e9c05)" style="fill: none; stroke: #7a7a7a; stroke-width: 3; stroke-linecap: square"/>
   </g>
   <g id="line2d_30">
    <path d="M 877.363803 648.49706 
L 897.553199 609.820854 
L 992.731778 429.726832 
L 993.308618 428.711265 
" clip-path="url(#pb7633e9c05)" style="fill: none; stroke: #7a7a7a; stroke-width: 3; stroke-linecap: square"/>
   </g>
   <g id="line2d_31">
    <path d="M 838.138692 641.641978 
L 706.33078 891.387024 
" clip-path="url(#pb7633e9c05)" style="fill: none; stroke: #7a7a7a; stroke-width: 3; stroke-linecap: square"/>
   </g>
   <g id="line2d_32">
    <path d="M 795.164121 634.025219 
L 662.34674 881.400607 
" clip-path="url(#pb7633e9c05)" style="fill: none; stroke: #7a7a7a; stroke-width: 3; stroke-linecap: square"/>
   </g>
   <g id="line2d_33">
    <path d="M 491.313717 708.923344 
L 381.858351 688.781249 
" clip-path="url(#pb7633e9c05)" style="fill: none; stroke: #7a7a7a; stroke-width: 3; stroke-linecap: square"/>
   </g>
   <g id="line2d_34">
    <path d="M 525.779899 661.699442 
L 480.930599 653.913422 
L 420.362412 642.742176 
L 407.095095 638.679905 
" clip-path="url(#pb7633e9c05)" style="fill: none; stroke: #7a7a7a; stroke-width: 3; stroke-linecap: square"/>
   </g>
   <g id="line2d_35">
    <path d="M 744.258002 624.715848 
L 622.688998 850.764312 
L 622.688998 851.018204 
L 611.873251 870.906406 
" clip-path="url(#pb7633e9c05)" style="fill: none; stroke: #7a7a7a; stroke-width: 3; stroke-linecap: square"/>
   </g>
   <g id="line2d_36">
    <path d="M 712.387599 619.384117 
L 705.321311 633.178913 
L 703.302371 636.056355 
L 613.17114 815.388701 
L 592.404905 842.301247 
L 591.972275 843.147554 
L 591.828065 843.486076 
L 581.012317 863.374279 
" clip-path="url(#pb7633e9c05)" style="fill: none; stroke: #7a7a7a; stroke-width: 3; stroke-linecap: square"/>
   </g>
   <g id="line2d_37">
    <path d="M 647.204693 1190.387107 
L 647.637323 1189.540801 
L 647.637323 1189.286909 
L 647.925743 1188.948386 
L 648.069953 1188.609863 
L 694.938193 1102.540493 
L 703.158161 1085.952886 
L 795.740961 912.798578 
" clip-path="url(#pb7633e9c05)" style="fill: none; stroke: #7a7a7a; stroke-width: 3; stroke-linecap: square"/>
   </g>
   <g id="line2d_38">
    <path d="M 678.642466 1190.387107 
L 679.075096 1189.540801 
L 679.219306 1189.371539 
L 679.507726 1188.948386 
L 679.651936 1188.609863 
L 824.150325 918.045678 
" clip-path="url(#pb7633e9c05)" style="fill: none; stroke: #7a7a7a; stroke-width: 3; stroke-linecap: square"/>
   </g>
   <g id="line2d_39">
    <path d="M 1052.290495 812.341997 
L 1001.240167 805.148392 
L 967.350824 801.593905 
L 935.624631 799.478139 
L 905.773167 798.885724 
L 877.796433 799.985922 
L 851.838639 802.778734 
L 827.611364 807.179528 
L 805.258819 813.442196 
L 784.636793 821.566738 
L 765.745287 831.553155 
L 748.440091 843.401445 
L 732.865415 857.365503 
L 718.877048 873.276065 
L 706.33078 891.387024 
" clip-path="url(#pb7633e9c05)" style="fill: none; stroke: #7a7a7a; stroke-width: 3; stroke-linecap: square"/>
   </g>
   <g id="line2d_40">
    <path d="M 1065.990443 787.375956 
L 1014.940114 780.182351 
L 981.916031 776.712494 
L 949.901418 774.427466 
L 919.184694 773.327268 
L 889.765861 773.496529 
L 861.500707 774.93525 
L 834.821863 777.643431 
L 809.585118 781.705702 
L 785.934683 787.122064 
L 764.014768 793.977146 
L 743.681162 802.101689 
L 725.222286 811.749583 
L 708.49393 822.836198 
L 693.928723 835.361534 
L 681.238246 849.410222 
L 670.710918 864.982261 
L 662.34674 881.400607 
" clip-path="url(#pb7633e9c05)" style="fill: none; stroke: #7a7a7a; stroke-width: 3; stroke-linecap: square"/>
   </g>
   <g id="line2d_41">
    <path d="M 706.33078 891.387024 
L 838.138692 641.641978 
" clip-path="url(#pb7633e9c05)" style="fill: none; stroke: #7a7a7a; stroke-width: 3; stroke-linecap: square"/>
   </g>
   <g id="line2d_42">
    <path d="M 744.834842 899.934719 
L 877.363803 648.49706 
" clip-path="url(#pb7633e9c05)" style="fill: none; stroke: #7a7a7a; stroke-width: 3; stroke-linecap: square"/>
   </g>
   <g id="line2d_43">
    <path d="M 491.313717 708.923344 
L 562.409231 719.332914 
L 594.568055 723.056662 
L 625.861618 724.580014 
L 656.145711 723.987599 
L 684.843495 721.44868 
L 712.099179 716.963256 
L 737.480134 710.785218 
L 760.842149 702.829937 
L 781.896804 693.351304 
L 800.35568 682.34932 
L 816.074567 670.077876 
L 828.620834 656.452341 
L 838.138692 641.641978 
" clip-path="url(#pb7633e9c05)" style="fill: none; stroke: #7a7a7a; stroke-width: 3; stroke-linecap: square"/>
   </g>
   <g id="line2d_44">
    <path d="M 477.75798 735.83589 
L 549.286124 745.822307 
L 577.551278 748.699749 
L 605.816432 750.053839 
L 634.081586 749.969209 
L 662.05832 748.361226 
L 689.458214 745.314523 
L 715.992848 740.913729 
L 741.373803 735.243476 
L 765.601077 728.303763 
L 788.242043 720.17922 
L 809.008278 710.869849 
L 827.755574 700.460279 
L 844.19551 688.950511 
L 858.183877 676.425175 
L 869.288045 662.968901 
L 877.363803 648.49706 
" clip-path="url(#pb7633e9c05)" style="fill: none; stroke: #7a7a7a; stroke-width: 3; stroke-linecap: square"/>
   </g>
   <g id="line2d_45">
    <path d="M 706.33078 891.387024 
L 712.676019 876.492029 
L 716.137058 861.427774 
L 716.858108 846.363518 
L 714.550749 831.383893 
L 709.21498 816.65816 
L 700.995011 802.355581 
L 689.602424 788.391524 
L 675.325637 775.104512 
L 657.876231 762.494545 
L 637.398415 750.815515 
L 613.74798 740.067423 
L 586.924926 730.334898 
L 556.929253 721.871833 
L 523.61675 714.847489 
L 491.313717 708.923344 
" clip-path="url(#pb7633e9c05)" style="fill: none; stroke: #7a7a7a; stroke-width: 3; stroke-linecap: square"/>
   </g>
   <g id="line2d_46">
    <path d="M 744.834842 899.934719 
L 753.48744 883.601004 
L 759.400049 867.098027 
L 762.861088 850.51042 
L 763.726348 834.007443 
L 762.140038 817.758359 
L 758.246369 801.678535 
L 752.04534 786.021865 
L 743.681162 770.788348 
L 733.298044 756.147246 
L 720.895987 742.183189 
L 706.47499 729.065438 
L 690.179264 716.793994 
L 672.153018 705.538118 
L 652.396252 695.297809 
L 631.053177 686.326961 
L 608.123792 678.625572 
L 583.752307 672.278273 
L 558.082932 667.538956 
L 525.779899 661.699442 
" clip-path="url(#pb7633e9c05)" style="fill: none; stroke: #7a7a7a; stroke-width: 3; stroke-linecap: square"/>
   </g>
   <g id="line2d_47">
    <path d="M 795.164121 634.025219 
L 662.34674 881.400607 
" clip-path="url(#pb7633e9c05)" style="fill: none; stroke: #7a7a7a; stroke-width: 3; stroke-linecap: square"/>
   </g>
   <g id="line2d_48">
    <path d="M 753.48744 626.662353 
L 621.823739 872.345127 
" clip-path="url(#pb7633e9c05)" style="fill: none; stroke: #7a7a7a; stroke-width: 3; stroke-linecap: square"/>
   </g>
   <g id="line2d_49">
    <path d="M 795.740961 912.798578 
L 925.674143 657.044756 
" clip-path="url(#pb7633e9c05)" style="fill: none; stroke: #7a7a7a; stroke-width: 3; stroke-linecap: square"/>
   </g>
   <g id="line2d_50">
    <path d="M 824.150325 918.045678 
L 929.712022 710.95448 
L 946.007748 684.465086 
L 948.315108 679.72577 
L 957.256126 663.053532 
" clip-path="url(#pb7633e9c05)" style="fill: none; stroke: #7a7a7a; stroke-width: 3; stroke-linecap: square"/>
   </g>
   <g id="line2d_51">
    <path d="M 662.34674 881.400607 
L 499.245265 1187.255773 
L 498.668425 1188.525233 
L 498.524215 1188.863755 
L 498.235795 1189.45617 
L 497.947375 1189.879323 
L 497.658955 1190.387107 
" clip-path="url(#pb7633e9c05)" style="fill: none; stroke: #7a7a7a; stroke-width: 3; stroke-linecap: square"/>
   </g>
   <g id="line2d_52">
    <path d="M 621.823739 872.345127 
L 484.535848 1127.083381 
L 451.655975 1187.255773 
L 451.079136 1188.525233 
L 450.934926 1188.779125 
L 450.502296 1189.371539 
L 450.069666 1190.387107 
" clip-path="url(#pb7633e9c05)" style="fill: none; stroke: #7a7a7a; stroke-width: 3; stroke-linecap: square"/>
   </g>
   <g id="line2d_53">
    <path d="M 549.141914 1190.387107 
L 549.430334 1189.963954 
L 549.718754 1189.45617 
L 550.007174 1188.863755 
L 550.151384 1188.609863 
L 550.728224 1187.340404 
L 574.522869 1142.316898 
L 706.33078 891.387024 
" clip-path="url(#pb7633e9c05)" style="fill: none; stroke: #7a7a7a; stroke-width: 3; stroke-linecap: square"/>
   </g>
   <g id="line2d_54">
    <path d="M 592.693325 1190.387107 
L 592.837535 1189.963954 
L 593.125955 1189.540801 
L 593.414375 1188.948386 
L 593.558585 1188.609863 
L 594.279635 1187.340404 
L 610.286941 1156.704109 
L 744.834842 899.934719 
" clip-path="url(#pb7633e9c05)" style="fill: none; stroke: #7a7a7a; stroke-width: 3; stroke-linecap: square"/>
   </g>
   <g id="line2d_55">
    <path d="M 381.858351 688.781249 
L 141.748752 644.434789 
L 140.595073 644.180897 
L 140.162443 644.180897 
L 139.729813 644.096267 
" clip-path="url(#pb7633e9c05)" style="fill: none; stroke: #7a7a7a; stroke-width: 3; stroke-linecap: square"/>
   </g>
   <g id="line2d_56">
    <path d="M 407.095095 638.679905 
L 389.501479 635.633202 
L 141.748752 608.297502 
L 140.739283 608.212871 
L 140.162443 608.128241 
L 139.729813 608.128241 
" clip-path="url(#pb7633e9c05)" style="fill: none; stroke: #7a7a7a; stroke-width: 3; stroke-linecap: square"/>
   </g>
   <g id="line2d_57">
    <path d="M 1437.619532 885.039725 
L 1436.610062 884.870464 
L 1434.014283 884.36268 
L 1431.130084 883.854896 
L 1430.409034 883.685634 
L 1396.808111 877.338336 
L 1052.290495 812.341997 
" clip-path="url(#pb7633e9c05)" style="fill: none; stroke: #7a7a7a; stroke-width: 3; stroke-linecap: square"/>
   </g>
   <g id="line2d_58">
    <path d="M 1437.619532 855.503628 
L 1436.610062 855.334367 
L 1434.014283 854.826583 
L 1431.130084 854.234169 
L 1430.409034 854.149538 
L 1387.001833 846.109626 
L 1065.990443 787.375956 
" clip-path="url(#pb7633e9c05)" style="fill: none; stroke: #7a7a7a; stroke-width: 3; stroke-linecap: square"/>
   </g>
   <g id="line2d_59">
    <path d="M 367.293144 715.101381 
L 477.75798 735.83589 
" clip-path="url(#pb7633e9c05)" style="fill: none; stroke: #7a7a7a; stroke-width: 3; stroke-linecap: square"/>
   </g>
   <g id="line2d_60">
    <path d="M 352.583727 741.844666 
L 426.563441 755.047048 
L 428.58238 755.047048 
L 435.360249 756.147246 
L 464.202243 761.8175 
" clip-path="url(#pb7633e9c05)" style="fill: none; stroke: #7a7a7a; stroke-width: 3; stroke-linecap: square"/>
   </g>
   <g id="line2d_61">
    <path d="M 1052.290495 812.341997 
L 1396.808111 877.338336 
L 1430.409034 883.685634 
L 1431.130084 883.854896 
L 1434.014283 884.36268 
L 1436.610062 884.870464 
L 1437.619532 885.039725 
" clip-path="url(#pb7633e9c05)" style="fill: none; stroke: #7a7a7a; stroke-width: 3; stroke-linecap: square"/>
   </g>
   <g id="line2d_62">
    <path d="M 1033.831619 847.88687 
L 1437.619532 919.484399 
" clip-path="url(#pb7633e9c05)" style="fill: none; stroke: #7a7a7a; stroke-width: 3; stroke-linecap: square"/>
   </g>
   <g id="line2d_63">
    <path d="M 611.873251 870.906406 
L 513.233632 1053.454717 
L 440.984438 1188.779125 
L 440.696018 1189.371539 
L 440.119178 1190.387107 
" clip-path="url(#pb7633e9c05)" style="fill: none; stroke: #7a7a7a; stroke-width: 3; stroke-linecap: square"/>
   </g>
   <g id="line2d_64">
    <path d="M 581.012317 863.374279 
L 557.217673 908.228523 
L 540.633526 940.303539 
L 523.18412 973.478753 
L 495.495806 1024.257143 
L 451.223346 1107.872224 
L 427.284491 1154.757604 
L 410.556134 1188.779125 
L 410.267714 1189.371539 
L 409.835084 1190.387107 
" clip-path="url(#pb7633e9c05)" style="fill: none; stroke: #7a7a7a; stroke-width: 3; stroke-linecap: square"/>
   </g>
   <g id="line2d_65">
    <path d="M 838.138692 641.641978 
L 832.081873 658.229585 
L 830.207144 674.47867 
L 832.081873 690.389232 
L 837.561852 705.876641 
L 846.35866 720.687004 
L 858.472297 734.904953 
L 873.470134 748.276596 
L 891.06375 760.717301 
L 911.397356 772.142439 
L 933.749901 782.467378 
L 958.265596 791.607488 
L 984.65602 799.308877 
L 1052.290495 812.341997 
" clip-path="url(#pb7633e9c05)" style="fill: none; stroke: #7a7a7a; stroke-width: 3; stroke-linecap: square"/>
   </g>
   <g id="line2d_66">
    <path d="M 795.164121 634.025219 
L 787.809413 652.051548 
L 783.338904 669.908615 
L 781.896804 687.51179 
L 783.338904 704.691811 
L 787.665203 721.44868 
L 794.587281 737.613134 
L 804.249349 752.931282 
L 816.362987 767.487753 
L 831.072403 781.028657 
L 848.08918 793.553993 
L 867.557525 804.809869 
L 889.044811 814.796286 
L 912.839456 823.343982 
L 938.50883 830.283695 
L 1033.831619 847.88687 
" clip-path="url(#pb7633e9c05)" style="fill: none; stroke: #7a7a7a; stroke-width: 3; stroke-linecap: square"/>
   </g>
   <g id="line2d_67">
    <path d="M 1173.715289 2.003531 
L 950.766677 425.918453 
L 950.189838 426.934021 
L 949.901418 427.526435 
L 949.612998 427.949589 
L 949.324578 428.711265 
" clip-path="url(#pb7633e9c05)" style="fill: none; stroke: #7a7a7a; stroke-width: 3; stroke-linecap: square"/>
   </g>
   <g id="line2d_68">
    <path d="M 1130.990495 -1 
L 903.321598 426.934021 
L 903.033178 427.526435 
L 902.744758 428.034219 
L 902.456338 428.711265 
" clip-path="url(#pb7633e9c05)" style="fill: none; stroke: #7a7a7a; stroke-width: 3; stroke-linecap: square"/>
   </g>
   <g id="line2d_69">
    <path d="M 1130.990495 -1 
L 903.321598 426.934021 
L 903.033178 427.526435 
L 902.744758 428.034219 
L 902.456338 428.711265 
" clip-path="url(#pb7633e9c05)" style="fill: none; stroke: #7a7a7a; stroke-width: 3; stroke-linecap: square"/>
   </g>
   <g id="line2d_70">
    <path d="M 1083.891093 -1 
L 1047.675776 68.946375 
L 857.607038 426.934021 
L 857.318618 427.526435 
L 857.030198 428.034219 
L 856.597568 428.711265 
" clip-path="url(#pb7633e9c05)" style="fill: none; stroke: #7a7a7a; stroke-width: 3; stroke-linecap: square"/>
   </g>
   <g id="line2d_71">
    <path d="M 949.324578 428.711265 
L 949.612998 427.949589 
L 949.901418 427.526435 
L 950.189838 426.934021 
L 950.766677 425.918453 
L 1173.715289 2.003531 
" clip-path="url(#pb7633e9c05)" style="fill: none; stroke: #7a7a7a; stroke-width: 3; stroke-linecap: square"/>
   </g>
   <g id="line2d_72">
    <path d="M 993.308618 428.711265 
L 993.741248 427.949589 
L 993.885458 427.526435 
L 994.173878 426.934021 
L 1213.228821 9.789551 
" clip-path="url(#pb7633e9c05)" style="fill: none; stroke: #7a7a7a; stroke-width: 3; stroke-linecap: square"/>
   </g>
   <g id="line2d_73">
    <path d="M 1047.964196 428.711265 
L 1048.252616 427.949589 
L 1048.541036 427.526435 
L 1264.13494 22.145626 
" clip-path="url(#pb7633e9c05)" style="fill: none; stroke: #7a7a7a; stroke-width: 3; stroke-linecap: square"/>
   </g>
   <g id="line2d_74">
    <path d="M 1083.007219 428.711265 
L 1082.863009 427.949589 
L 1083.007219 427.526435 
L 1083.007219 426.934021 
L 1161.169022 278.661124 
L 1168.37952 265.966526 
L 1216.40144 172.365028 
L 1260.96232 90.781082 
L 1295.572713 26.038636 
" clip-path="url(#pb7633e9c05)" style="fill: none; stroke: #7a7a7a; stroke-width: 3; stroke-linecap: square"/>
   </g>
   <g id="line2d_75">
    <path d="M 993.308618 428.711265 
L 993.741248 427.949589 
L 993.885458 427.526435 
L 994.173878 426.934021 
L 1213.228821 9.789551 
" clip-path="url(#pb7633e9c05)" style="fill: none; stroke: #7a7a7a; stroke-width: 3; stroke-linecap: square"/>
   </g>
   <g id="line2d_76">
    <path d="M 1039.600018 428.711265 
L 1040.032648 427.949589 
L 1040.176858 427.526435 
L 1040.465278 426.934021 
L 1253.896032 17.829463 
" clip-path="url(#pb7633e9c05)" style="fill: none; stroke: #7a7a7a; stroke-width: 3; stroke-linecap: square"/>
   </g>
   <g id="line2d_77">
    <path d="M 1075.281587 -1 
L 848.66602 427.526435 
L 848.3776 428.034219 
L 848.08918 428.711265 
" clip-path="url(#pb7633e9c05)" style="fill: none; stroke: #7a7a7a; stroke-width: 3; stroke-linecap: square"/>
   </g>
   <g id="line2d_78">
    <path d="M 1041.573769 -1 
L 1031.95689 17.067787 
L 1030.08216 20.11449 
L 1006.720145 63.699275 
L 982.9255 109.399825 
L 937.21094 193.945844 
L 875.921704 316.491024 
L 825.015585 404.845421 
L 820.112446 414.239424 
L 813.622997 425.918453 
L 813.767207 426.934021 
L 813.478787 427.526435 
L 813.190367 428.034219 
L 812.901947 428.711265 
" clip-path="url(#pb7633e9c05)" style="fill: none; stroke: #7a7a7a; stroke-width: 3; stroke-linecap: square"/>
   </g>
   <g id="line2d_79">
    <path d="M 795.740961 912.798578 
L 802.951459 894.77225 
L 813.622997 879.707994 
L 828.620834 865.743937 
L 847.22392 852.964709 
L 868.711205 841.624202 
L 892.65006 831.722416 
L 918.319434 823.513243 
L 945.142489 817.165944 
L 972.542383 812.68052 
L 999.942277 810.310862 
L 1026.621121 810.1416 
L 1052.290495 812.341997 
" clip-path="url(#pb7633e9c05)" style="fill: none; stroke: #7a7a7a; stroke-width: 3; stroke-linecap: square"/>
   </g>
   <g id="line2d_80">
    <path d="M 824.150325 918.045678 
L 835.542912 900.442503 
L 837.850272 898.072845 
L 845.4934 886.224554 
L 852.703899 878.100012 
L 861.500707 871.244929 
L 866.403846 868.198226 
L 872.460664 865.151522 
L 884.862722 860.073683 
L 895.101629 857.02698 
L 904.475277 854.826583 
L 911.974196 853.726385 
L 920.771004 853.218601 
L 929.279392 853.218601 
L 954.660347 848.225392 
L 981.483401 845.517212 
L 1008.162245 845.517212 
L 1033.831619 847.88687 
" clip-path="url(#pb7633e9c05)" style="fill: none; stroke: #7a7a7a; stroke-width: 3; stroke-linecap: square"/>
   </g>
   <g id="line2d_81">
    <path d="M 477.75798 735.83589 
L 566.158691 754.200741 
L 599.759613 768.672582 
L 616.34376 779.251413 
L 631.630016 792.369164 
L 635.667896 796.262174 
L 640.859454 804.132824 
L 641.580504 812.934412 
L 621.102689 850.087267 
L 611.873251 870.906406 
" clip-path="url(#pb7633e9c05)" style="fill: none; stroke: #7a7a7a; stroke-width: 3; stroke-linecap: square"/>
   </g>
   <g id="line2d_82">
    <path d="M 464.202243 761.8175 
L 542.364046 776.627863 
L 550.151384 778.743629 
L 565.870271 785.090928 
L 585.482826 795.077345 
L 608.844841 811.495691 
L 612.882721 814.796286 
L 581.012317 863.374279 
" clip-path="url(#pb7633e9c05)" style="fill: none; stroke: #7a7a7a; stroke-width: 3; stroke-linecap: square"/>
   </g>
   <g id="line2d_83">
    <path d="M 795.164121 634.025219 
L 784.348373 650.105043 
L 769.494747 664.661514 
L 751.468501 677.610004 
L 730.558055 688.86588 
L 707.34025 698.429143 
L 682.247716 706.299794 
L 655.857291 712.30857 
L 628.745817 716.540102 
L 601.201713 718.994391 
L 573.946029 719.502175 
L 547.411395 718.148085 
L 522.03044 714.847489 
L 491.313717 708.923344 
" clip-path="url(#pb7633e9c05)" style="fill: none; stroke: #7a7a7a; stroke-width: 3; stroke-linecap: square"/>
   </g>
   <g id="line2d_84">
    <path d="M 753.48744 626.662353 
L 747.142201 635.887094 
L 732.865415 645.619618 
L 712.531809 655.182882 
L 687.871904 663.899839 
L 660.3278 670.839552 
L 631.630016 675.409607 
L 603.653283 676.932959 
L 556.496623 667.623587 
L 525.779899 661.699442 
" clip-path="url(#pb7633e9c05)" style="fill: none; stroke: #7a7a7a; stroke-width: 3; stroke-linecap: square"/>
   </g>
   <g id="line2d_85">
    <path d="M 1065.990443 787.375956 
L 1030.80321 781.113288 
L 959.707696 763.594743 
L 940.52777 758.686166 
L 924.520463 750.476993 
L 908.657367 740.659837 
L 898.995299 730.419529 
L 897.264779 720.687004 
L 917.021545 678.540941 
L 925.674143 657.044756 
" clip-path="url(#pb7633e9c05)" style="fill: none; stroke: #7a7a7a; stroke-width: 3; stroke-linecap: square"/>
   </g>
   <g id="line2d_86">
    <path d="M 1079.54618 761.732869 
L 1035.994769 753.185173 
L 1012.776964 748.86901 
L 1002.538056 746.24546 
L 991.001259 742.690973 
L 944.998279 732.027511 
L 931.586752 722.887401 
L 926.827823 715.524535 
L 944.277229 681.249122 
L 954.371927 668.554524 
L 957.256126 663.053532 
" clip-path="url(#pb7633e9c05)" style="fill: none; stroke: #7a7a7a; stroke-width: 3; stroke-linecap: square"/>
   </g>
   <g id="line2d_87">
    <path d="M 1065.990443 787.375956 
L 989.703369 773.835052 
L 967.350824 767.910906 
L 944.709859 761.055824 
L 925.962563 750.900146 
L 907.792107 738.544071 
L 893.37111 728.980808 
L 880.536423 713.66266 
L 871.595405 700.968063 
L 869.143835 689.458295 
L 869.432255 670.077876 
L 877.363803 648.49706 
" clip-path="url(#pb7633e9c05)" style="fill: none; stroke: #7a7a7a; stroke-width: 3; stroke-linecap: square"/>
   </g>
   <g id="line2d_88">
    <path d="M 1079.54618 761.732869 
L 1003.547526 747.684181 
L 981.916031 740.744468 
L 957.400336 732.112142 
L 930.000442 715.693796 
L 916.733125 704.52255 
L 909.955256 686.326961 
L 907.792107 676.255913 
L 918.463644 655.859927 
" clip-path="url(#pb7633e9c05)" style="fill: none; stroke: #7a7a7a; stroke-width: 3; stroke-linecap: square"/>
   </g>
   <g id="line2d_89">
    <path d="M 477.75798 735.83589 
L 570.19657 755.131678 
L 591.395435 763.848635 
L 611.007991 774.93525 
L 628.601607 787.96837 
L 643.599444 802.524842 
L 655.424661 818.096881 
L 663.78884 834.261335 
L 667.970929 850.595051 
L 667.682509 866.759505 
L 662.34674 881.400607 
" clip-path="url(#pb7633e9c05)" style="fill: none; stroke: #7a7a7a; stroke-width: 3; stroke-linecap: square"/>
   </g>
   <g id="line2d_90">
    <path d="M 464.202243 761.8175 
L 542.364046 776.627863 
L 554.045053 780.605504 
L 564.860801 785.260189 
L 580.868107 791.353596 
L 608.844841 811.495691 
L 613.45956 814.457763 
L 628.457397 850.848943 
L 628.024767 855.588259 
L 621.823739 872.345127 
" clip-path="url(#pb7633e9c05)" style="fill: none; stroke: #7a7a7a; stroke-width: 3; stroke-linecap: square"/>
   </g>
   <g id="line2d_91">
    <path d="M 744.834842 899.934719 
L 752.33376 887.832536 
L 764.014768 875.730353 
L 779.156815 863.966693 
L 797.471481 852.626186 
L 818.381926 842.047355 
L 841.743941 832.31483 
L 866.836476 823.767135 
L 893.37111 816.57353 
L 920.771004 810.903276 
L 948.747738 807.010266 
L 976.724472 805.148392 
L 1004.412786 805.486915 
L 1031.38005 808.364357 
L 1052.290495 812.341997 
" clip-path="url(#pb7633e9c05)" style="fill: none; stroke: #7a7a7a; stroke-width: 3; stroke-linecap: square"/>
   </g>
   <g id="line2d_92">
    <path d="M 785.069423 909.328721 
L 793.722021 898.242106 
L 807.854598 886.98623 
L 826.457684 876.153507 
L 848.810229 866.082459 
L 874.046974 857.111611 
L 901.302658 849.748744 
L 929.567812 844.417013 
L 958.265596 841.539571 
L 986.38654 841.454941 
L 1013.065384 844.670905 
L 1033.831619 847.88687 
" clip-path="url(#pb7633e9c05)" style="fill: none; stroke: #7a7a7a; stroke-width: 3; stroke-linecap: square"/>
   </g>
   <g id="line2d_93">
    <path d="M 744.258002 624.715848 
L 735.605404 648.158538 
L 724.501236 666.269497 
L 714.694959 676.763697 
L 697.533972 687.342528 
L 674.460377 696.73653 
L 648.935213 703.930136 
L 621.967949 709.177236 
L 594.856474 712.562462 
L 568.17763 714.255075 
L 543.373516 714.508967 
L 521.30939 713.324138 
L 502.850514 710.95448 
L 491.313717 708.923344 
" clip-path="url(#pb7633e9c05)" style="fill: none; stroke: #7a7a7a; stroke-width: 3; stroke-linecap: square"/>
   </g>
   <g id="line2d_94">
    <path d="M 712.387599 619.384117 
L 704.888681 639.018428 
L 691.332944 654.251945 
L 673.162487 665.33856 
L 651.386782 672.616795 
L 627.592137 676.509805 
L 602.932233 677.18685 
L 537.460907 663.815208 
L 526.212529 661.784072 
L 525.779899 661.699442 
" clip-path="url(#pb7633e9c05)" style="fill: none; stroke: #7a7a7a; stroke-width: 3; stroke-linecap: square"/>
   </g>
   <g id="line2d_95">
    <path d="M 491.313717 708.923344 
L 648.646793 738.120918 
L 675.037217 741.421513 
L 702.725531 742.013928 
L 731.279105 740.152053 
L 759.976889 736.089782 
L 788.386253 730.165637 
L 815.786147 722.548878 
L 841.455521 713.57803 
L 865.105956 703.506982 
L 885.872191 692.504998 
L 914.714185 677.610004 
L 925.674143 657.044756 
" clip-path="url(#pb7633e9c05)" style="fill: none; stroke: #7a7a7a; stroke-width: 3; stroke-linecap: square"/>
   </g>
   <g id="line2d_96">
    <path d="M 477.75798 735.83589 
L 635.091056 765.118095 
L 661.04885 768.080168 
L 688.016114 768.926474 
L 715.992848 767.741645 
L 744.258002 764.779572 
L 772.523156 760.040256 
L 800.35568 753.692957 
L 827.322944 745.991568 
L 852.992319 736.936089 
L 877.075383 726.69578 
L 898.851089 715.439904 
L 918.319434 703.337721 
L 934.759371 690.473862 
L 947.882478 677.017589 
L 957.256126 663.053532 
" clip-path="url(#pb7633e9c05)" style="fill: none; stroke: #7a7a7a; stroke-width: 3; stroke-linecap: square"/>
   </g>
   <g id="line2d_97">
    <path d="M 1052.290495 812.341997 
L 901.158448 784.329252 
L 877.796433 781.197918 
L 852.559689 780.351612 
L 826.025054 781.536441 
L 798.91358 784.667775 
L 771.513686 789.576353 
L 744.546422 796.008282 
L 718.588628 803.878932 
L 693.928723 812.934412 
L 671.431968 823.09009 
L 651.386782 834.092074 
L 633.937376 843.570707 
L 622.688998 850.764312 
L 611.873251 870.906406 
" clip-path="url(#pb7633e9c05)" style="fill: none; stroke: #7a7a7a; stroke-width: 3; stroke-linecap: square"/>
   </g>
   <g id="line2d_98">
    <path d="M 1065.990443 787.375956 
L 915.002605 759.27858 
L 891.64059 756.147246 
L 866.836476 754.877786 
L 840.878681 755.470201 
L 814.055627 757.755229 
L 786.799943 761.563608 
L 759.688469 766.979969 
L 732.865415 773.665791 
L 706.90762 781.621072 
L 682.247716 790.761182 
L 659.029911 800.91686 
L 637.831045 812.003475 
L 619.083749 823.851766 
L 603.076443 836.461732 
L 590.241755 849.664114 
L 581.012317 863.374279 
" clip-path="url(#pb7633e9c05)" style="fill: none; stroke: #7a7a7a; stroke-width: 3; stroke-linecap: square"/>
   </g>
   <g id="line2d_99">
    <path d="M 1222.01049 44.232221 
L 1223.685047 42.315325 
" clip-path="url(#pb7633e9c05)" style="fill: none; stroke-dasharray: 32,8,5,8; stroke-dashoffset: 0; stroke: #1e90ff; stroke-width: 5"/>
   </g>
   <g id="line2d_100">
    <path d="M 942.000746 197.924352 
L 938.760775 195.188732 
" clip-path="url(#pb7633e9c05)" style="fill: none; stroke-dasharray: 32,8,5,8; stroke-dashoffset: 0; stroke: #1e90ff; stroke-width: 5"/>
   </g>
   <g id="line2d_101">
    <path d="M 684.47364 627.337084 
L 681.155772 631.517479 
" clip-path="url(#pb7633e9c05)" style="fill: none; stroke-dasharray: 32,8,5,8; stroke-dashoffset: 0; stroke: #1e90ff; stroke-width: 5"/>
   </g>
   <g id="line2d_102">
    <path d="M 935.810386 509.178565 
L 939.670009 505.274005 
" clip-path="url(#pb7633e9c05)" style="fill: none; stroke-dasharray: 32,8,5,8; stroke-dashoffset: 0; stroke: #1e90ff; stroke-width: 5"/>
   </g>
   <g id="line2d_103">
    <path d="M 431.00596 1182.76291 
L 429.586657 1186.108052 
" clip-path="url(#pb7633e9c05)" style="fill: none; stroke-dasharray: 32,8,5,8; stroke-dashoffset: 0; stroke: #1e90ff; stroke-width: 5"/>
   </g>
   <g id="line2d_104">
    <path d="M 594.43659 991.004033 
L 598.503057 991.819141 
" clip-path="url(#pb7633e9c05)" style="fill: none; stroke-dasharray: 32,8,5,8; stroke-dashoffset: 0; stroke: #1e90ff; stroke-width: 5"/>
   </g>
   <g id="line2d_105">
    <path d="M 836.060463 594.766371 
L 831.903776 594.576283 
" clip-path="url(#pb7633e9c05)" style="fill: none; stroke-dasharray: 32,8,5,8; stroke-dashoffset: 0; stroke: #1e90ff; stroke-width: 5"/>
   </g>
   <g id="line2d_106">
    <path d="M 1222.01049 44.232221 
" clip-path="url(#pb7633e9c05)" style="fill: none; stroke: #0000ff; stroke-width: 1.5; stroke-linecap: square"/>
    <defs>
     <path id="m92874225c6" d="M 0 10 
C 2.652031 10 5.195799 8.946337 7.071068 7.071068 
C 8.946337 5.195799 10 2.652031 10 0 
C 10 -2.652031 8.946337 -5.195799 7.071068 -7.071068 
C 5.195799 -8.946337 2.652031 -10 0 -10 
C -2.652031 -10 -5.195799 -8.946337 -7.071068 -7.071068 
C -8.946337 -5.195799 -10 -2.652031 -10 0 
C -10 2.652031 -8.946337 5.195799 -7.071068 7.071068 
C -5.195799 8.946337 -2.652031 10 0 10 
z
" style="stroke: #0000ff"/>
    </defs>
    <g clip-path="url(#pb7633e9c05)">
     <use xlink:href="#m92874225c6" x="1222.01049" y="44.232221" style="fill: #0000ff; stroke: #0000ff"/>
    </g>
   </g>
   <g id="line2d_107">
    <path d="M 942.000746 197.924352 
" clip-path="url(#pb7633e9c05)" style="fill: none; stroke: #0000ff; stroke-width: 1.5; stroke-linecap: square"/>
    <g clip-path="url(#pb7633e9c05)">
     <use xlink:href="#m92874225c6" x="942.000746" y="197.924352" style="fill: #0000ff; stroke: #0000ff"/>
    </g>
   </g>
   <g id="line2d_108">
    <path d="M 684.47364 627.337084 
" clip-path="url(#pb7633e9c05)" style="fill: none; stroke: #0000ff; stroke-width: 1.5; stroke-linecap: square"/>
    <g clip-path="url(#pb7633e9c05)">
     <use xlink:href="#m92874225c6" x="684.47364" y="627.337084" style="fill: #0000ff; stroke: #0000ff"/>
    </g>
   </g>
   <g id="line2d_109">
    <path d="M 935.810386 509.178565 
" clip-path="url(#pb7633e9c05)" style="fill: none; stroke: #0000ff; stroke-width: 1.5; stroke-linecap: square"/>
    <g clip-path="url(#pb7633e9c05)">
     <use xlink:href="#m92874225c6" x="935.810386" y="509.178565" style="fill: #0000ff; stroke: #0000ff"/>
    </g>
   </g>
   <g id="line2d_110">
    <path d="M 431.00596 1182.76291 
" clip-path="url(#pb7633e9c05)" style="fill: none; stroke: #0000ff; stroke-width: 1.5; stroke-linecap: square"/>
    <g clip-path="url(#pb7633e9c05)">
     <use xlink:href="#m92874225c6" x="431.00596" y="1182.76291" style="fill: #0000ff; stroke: #0000ff"/>
    </g>
   </g>
   <g id="line2d_111">
    <path d="M 594.43659 991.004033 
" clip-path="url(#pb7633e9c05)" style="fill: none; stroke: #0000ff; stroke-width: 1.5; stroke-linecap: square"/>
    <g clip-path="url(#pb7633e9c05)">
     <use xlink:href="#m92874225c6" x="594.43659" y="991.004033" style="fill: #0000ff; stroke: #0000ff"/>
    </g>
   </g>
   <g id="line2d_112">
    <path d="M 836.060463 594.766371 
" clip-path="url(#pb7633e9c05)" style="fill: none; stroke: #0000ff; stroke-width: 1.5; stroke-linecap: square"/>
    <g clip-path="url(#pb7633e9c05)">
     <use xlink:href="#m92874225c6" x="836.060463" y="594.766371" style="fill: #0000ff; stroke: #0000ff"/>
    </g>
   </g>
   <g id="line2d_113">
    <path d="M 1223.685047 42.315325 
" clip-path="url(#pb7633e9c05)" style="fill: none; stroke: #ff0000; stroke-width: 1.5; stroke-linecap: square"/>
    <defs>
     <path id="m3bd7ce5d2d" d="M 0 -10 
L -2.24514 -3.09017 
L -9.510565 -3.09017 
L -3.632713 1.18034 
L -5.877853 8.09017 
L -0 3.81966 
L 5.877853 8.09017 
L 3.632713 1.18034 
L 9.510565 -3.09017 
L 2.24514 -3.09017 
z
" style="stroke: #ff0000; stroke-linejoin: bevel"/>
    </defs>
    <g clip-path="url(#pb7633e9c05)">
     <use xlink:href="#m3bd7ce5d2d" x="1223.685047" y="42.315325" style="fill: #ff0000; stroke: #ff0000; stroke-linejoin: bevel"/>
    </g>
   </g>
   <g id="line2d_114">
    <path d="M 938.760775 195.188732 
" clip-path="url(#pb7633e9c05)" style="fill: none; stroke: #ff0000; stroke-width: 1.5; stroke-linecap: square"/>
    <g clip-path="url(#pb7633e9c05)">
     <use xlink:href="#m3bd7ce5d2d" x="938.760775" y="195.188732" style="fill: #ff0000; stroke: #ff0000; stroke-linejoin: bevel"/>
    </g>
   </g>
   <g id="line2d_115">
    <path d="M 681.155772 631.517479 
" clip-path="url(#pb7633e9c05)" style="fill: none; stroke: #ff0000; stroke-width: 1.5; stroke-linecap: square"/>
    <g clip-path="url(#pb7633e9c05)">
     <use xlink:href="#m3bd7ce5d2d" x="681.155772" y="631.517479" style="fill: #ff0000; stroke: #ff0000; stroke-linejoin: bevel"/>
    </g>
   </g>
   <g id="line2d_116">
    <path d="M 939.670009 505.274005 
" clip-path="url(#pb7633e9c05)" style="fill: none; stroke: #ff0000; stroke-width: 1.5; stroke-linecap: square"/>
    <g clip-path="url(#pb7633e9c05)">
     <use xlink:href="#m3bd7ce5d2d" x="939.670009" y="505.274005" style="fill: #ff0000; stroke: #ff0000; stroke-linejoin: bevel"/>
    </g>
   </g>
   <g id="line2d_117">
    <path d="M 429.586657 1186.108052 
" clip-path="url(#pb7633e9c05)" style="fill: none; stroke: #ff0000; stroke-width: 1.5; stroke-linecap: square"/>
    <g clip-path="url(#pb7633e9c05)">
     <use xlink:href="#m3bd7ce5d2d" x="429.586657" y="1186.108052" style="fill: #ff0000; stroke: #ff0000; stroke-linejoin: bevel"/>
    </g>
   </g>
   <g id="line2d_118">
    <path d="M 598.503057 991.819141 
" clip-path="url(#pb7633e9c05)" style="fill: none; stroke: #ff0000; stroke-width: 1.5; stroke-linecap: square"/>
    <g clip-path="url(#pb7633e9c05)">
     <use xlink:href="#m3bd7ce5d2d" x="598.503057" y="991.819141" style="fill: #ff0000; stroke: #ff0000; stroke-linejoin: bevel"/>
    </g>
   </g>
   <g id="line2d_119">
    <path d="M 831.903776 594.576283 
" clip-path="url(#pb7633e9c05)" style="fill: none; stroke: #ff0000; stroke-width: 1.5; stroke-linecap: square"/>
    <g clip-path="url(#pb7633e9c05)">
     <use xlink:href="#m3bd7ce5d2d" x="831.903776" y="594.576283" style="fill: #ff0000; stroke: #ff0000; stroke-linejoin: bevel"/>
    </g>
   </g>
  </g>
 </g>
 <defs>
  <clipPath id="pb7633e9c05">
   <rect x="0" y="0" width="1440" height="1440"/>
  </clipPath>
 </defs>
</svg>
