<?xml version="1.0" encoding="utf-8" standalone="no"?>
<!DOCTYPE svg PUBLIC "-//W3C//DTD SVG 1.1//EN"
  "http://www.w3.org/Graphics/SVG/1.1/DTD/svg11.dtd">
<svg xmlns:xlink="http://www.w3.org/1999/xlink" width="1440pt" height="1440pt" viewBox="0 0 1440 1440" xmlns="http://www.w3.org/2000/svg" version="1.1">
 <metadata>
  <rdf:RDF xmlns:dc="http://purl.org/dc/elements/1.1/" xmlns:cc="http://creativecommons.org/ns#" xmlns:rdf="http://www.w3.org/1999/02/22-rdf-syntax-ns#">
   <cc:Work>
    <dc:type rdf:resource="http://purl.org/dc/dcmitype/StillImage"/>
    <dc:date>2026-02-27T11:09:46.676315</dc:date>
    <dc:format>image/svg+xml</dc:format>
    <dc:creator>
     <cc:Agent>
      <dc:title>Matplotlib v3.7.3, https://matplotlib.org/</dc:title>
     </cc:Agent>
    </dc:creator>
   </cc:Work>
  </rdf:RDF>
 </metadata>
 <defs>
  <style type="text/css">*{stroke-linejoin: round; stroke-linecap: butt}</style>
 </defs>
 <g id="figure_1">
  <g id="patch_1">
   <path d="M 0 1440 
L 1440 1440 
L 1440 0 
L 0 0 
z
" style="fill: #ffffff"/>
  </g>
  <g id="axes_1">
   <g id="line2d_1">
    <path d="M 101.380564 904.592809 
L 100.973025 904.772368 
L -1 966.615138 
" clip-path="url(#p9b81b0de7c)" style="fill: none; stroke: #7a7a7a; stroke-width: 3; stroke-linecap: square"/>
   </g>
   <g id="line2d_2">
    <path d="M 101.380564 833.846825 
L 100.973025 834.026383 
L -1 896.685102 
" clip-path="url(#p9b81b0de7c)" style="fill: none; stroke: #7a7a7a; stroke-width: 3; stroke-linecap: square"/>
   </g>
   <g id="line2d_3">
    <path d="M 450.641248 688.763688 
L 540.911075 632.561928 
" clip-path="url(#p9b81b0de7c)" style="fill: none; stroke: #7a7a7a; stroke-width: 3; stroke-linecap: square"/>
   </g>
   <g id="line2d_4">
    <path d="M 457.026022 754.302481 
L 545.461924 698.639397 
" clip-path="url(#p9b81b0de7c)" style="fill: none; stroke: #7a7a7a; stroke-width: 3; stroke-linecap: square"/>
   </g>
   <g id="line2d_5">
    <path d="M 712.688647 460.365483 
L 712.349031 460.545041 
L 536.020611 567.56181 
" clip-path="url(#p9b81b0de7c)" style="fill: none; stroke: #7a7a7a; stroke-width: 3; stroke-linecap: square"/>
   </g>
   <g id="line2d_6">
    <path d="M 712.688647 432.174824 
L 712.349031 432.354382 
L 534.05084 541.166735 
" clip-path="url(#p9b81b0de7c)" style="fill: none; stroke: #7a7a7a; stroke-width: 3; stroke-linecap: square"/>
   </g>
   <g id="line2d_7">
    <path d="M 457.026022 754.302481 
L 545.461924 698.639397 
" clip-path="url(#p9b81b0de7c)" style="fill: none; stroke: #7a7a7a; stroke-width: 3; stroke-linecap: square"/>
   </g>
   <g id="line2d_8">
    <path d="M 459.946716 779.440648 
L 548.043003 726.650497 
" clip-path="url(#p9b81b0de7c)" style="fill: none; stroke: #7a7a7a; stroke-width: 3; stroke-linecap: square"/>
   </g>
   <g id="line2d_9">
    <path d="M 712.688647 527.879418 
L 713.096185 527.699859 
L 771.306299 492.147309 
" clip-path="url(#p9b81b0de7c)" style="fill: none; stroke: #7a7a7a; stroke-width: 3; stroke-linecap: square"/>
   </g>
   <g id="line2d_10">
    <path d="M 712.688647 596.829819 
L 713.096185 596.470703 
L 777.215611 558.045218 
" clip-path="url(#p9b81b0de7c)" style="fill: none; stroke: #7a7a7a; stroke-width: 3; stroke-linecap: square"/>
   </g>
   <g id="line2d_11">
    <path d="M 101.380564 970.131603 
L 101.720179 969.772486 
L 457.026022 754.302481 
" clip-path="url(#p9b81b0de7c)" style="fill: none; stroke: #7a7a7a; stroke-width: 3; stroke-linecap: square"/>
   </g>
   <g id="line2d_12">
    <path d="M 101.380564 997.42447 
L 101.720179 997.244912 
L 195.861624 936.733752 
L 459.946716 779.440648 
" clip-path="url(#p9b81b0de7c)" style="fill: none; stroke: #7a7a7a; stroke-width: 3; stroke-linecap: square"/>
   </g>
   <g id="line2d_13">
    <path d="M 101.380564 833.846825 
L 100.973025 834.026383 
L -1 896.685102 
" clip-path="url(#p9b81b0de7c)" style="fill: none; stroke: #7a7a7a; stroke-width: 3; stroke-linecap: square"/>
   </g>
   <g id="line2d_14">
    <path d="M 101.380564 806.374399 
L 100.973025 806.553957 
L -1 868.604726 
" clip-path="url(#p9b81b0de7c)" style="fill: none; stroke: #7a7a7a; stroke-width: 3; stroke-linecap: square"/>
   </g>
   <g id="line2d_15">
    <path d="M -1 966.615138 
L 100.973025 904.772368 
L 101.380564 904.592809 
" clip-path="url(#p9b81b0de7c)" style="fill: none; stroke: #7a7a7a; stroke-width: 3; stroke-linecap: square"/>
   </g>
   <g id="line2d_16">
    <path d="M -1 1033.576168 
L 100.973025 970.311161 
L 101.380564 970.131603 
" clip-path="url(#p9b81b0de7c)" style="fill: none; stroke: #7a7a7a; stroke-width: 3; stroke-linecap: square"/>
   </g>
   <g id="line2d_17">
    <path d="M 450.641248 688.763688 
L 101.720179 904.413251 
L 101.380564 904.592809 
" clip-path="url(#p9b81b0de7c)" style="fill: none; stroke: #7a7a7a; stroke-width: 3; stroke-linecap: square"/>
   </g>
   <g id="line2d_18">
    <path d="M 444.935706 622.865778 
L 101.720179 833.487708 
L 101.380564 833.846825 
" clip-path="url(#p9b81b0de7c)" style="fill: none; stroke: #7a7a7a; stroke-width: 3; stroke-linecap: square"/>
   </g>
   <g id="line2d_19">
    <path d="M 444.935706 622.865778 
L 101.720179 833.487708 
L 101.380564 833.846825 
" clip-path="url(#p9b81b0de7c)" style="fill: none; stroke: #7a7a7a; stroke-width: 3; stroke-linecap: square"/>
   </g>
   <g id="line2d_20">
    <path d="M 442.965936 596.829819 
L 101.720179 806.015282 
L 101.380564 806.374399 
" clip-path="url(#p9b81b0de7c)" style="fill: none; stroke: #7a7a7a; stroke-width: 3; stroke-linecap: square"/>
   </g>
   <g id="line2d_21">
    <path d="M 540.911075 632.561928 
L 450.641248 688.763688 
" clip-path="url(#p9b81b0de7c)" style="fill: none; stroke: #7a7a7a; stroke-width: 3; stroke-linecap: square"/>
   </g>
   <g id="line2d_22">
    <path d="M 536.020611 567.56181 
L 444.935706 622.865778 
" clip-path="url(#p9b81b0de7c)" style="fill: none; stroke: #7a7a7a; stroke-width: 3; stroke-linecap: square"/>
   </g>
   <g id="line2d_23">
    <path d="M 1093.26189 392.492431 
L 1146.038154 360.531047 
L 1215.183891 319.412188 
L 1244.051217 300.558563 
L 1274.616621 277.754654 
L 1283.51455 271.64967 
L 1304.63864 253.514278 
L 1346.547205 216.704819 
" clip-path="url(#p9b81b0de7c)" style="fill: none; stroke: #7a7a7a; stroke-width: 3; stroke-linecap: square"/>
   </g>
   <g id="line2d_24">
    <path d="M 1095.639199 417.630599 
L 1148.007925 385.848773 
L 1217.085738 345.448147 
L 1276.926007 307.022663 
L 1293.499248 294.274021 
L 1322.774113 265.544687 
L 1348.245283 240.586078 
" clip-path="url(#p9b81b0de7c)" style="fill: none; stroke: #7a7a7a; stroke-width: 3; stroke-linecap: square"/>
   </g>
   <g id="line2d_25">
    <path d="M 536.020611 567.56181 
L 444.935706 622.865778 
" clip-path="url(#p9b81b0de7c)" style="fill: none; stroke: #7a7a7a; stroke-width: 3; stroke-linecap: square"/>
   </g>
   <g id="line2d_26">
    <path d="M 534.05084 541.166735 
L 442.965936 596.829819 
" clip-path="url(#p9b81b0de7c)" style="fill: none; stroke: #7a7a7a; stroke-width: 3; stroke-linecap: square"/>
   </g>
   <g id="line2d_27">
    <path d="M -1 1033.576168 
L 100.973025 970.311161 
L 101.380564 970.131603 
" clip-path="url(#p9b81b0de7c)" style="fill: none; stroke: #7a7a7a; stroke-width: 3; stroke-linecap: square"/>
   </g>
   <g id="line2d_28">
    <path d="M -1 1061.704794 
L 100.973025 997.604028 
L 101.380564 997.42447 
" clip-path="url(#p9b81b0de7c)" style="fill: none; stroke: #7a7a7a; stroke-width: 3; stroke-linecap: square"/>
   </g>
   <g id="line2d_29">
    <path d="M 712.688647 527.879418 
L 712.349031 528.058976 
L 540.911075 632.561928 
" clip-path="url(#p9b81b0de7c)" style="fill: none; stroke: #7a7a7a; stroke-width: 3; stroke-linecap: square"/>
   </g>
   <g id="line2d_30">
    <path d="M 712.688647 460.365483 
L 712.349031 460.545041 
L 536.020611 567.56181 
" clip-path="url(#p9b81b0de7c)" style="fill: none; stroke: #7a7a7a; stroke-width: 3; stroke-linecap: square"/>
   </g>
   <g id="line2d_31">
    <path d="M 545.461924 698.639397 
L 712.349031 597.009378 
L 712.688647 596.829819 
" clip-path="url(#p9b81b0de7c)" style="fill: none; stroke: #7a7a7a; stroke-width: 3; stroke-linecap: square"/>
   </g>
   <g id="line2d_32">
    <path d="M 548.043003 726.650497 
L 712.688647 651.235995 
" clip-path="url(#p9b81b0de7c)" style="fill: none; stroke: #7a7a7a; stroke-width: 3; stroke-linecap: square"/>
   </g>
   <g id="line2d_33">
    <path d="M 101.380564 904.592809 
L 101.720179 904.413251 
L 450.641248 688.763688 
" clip-path="url(#p9b81b0de7c)" style="fill: none; stroke: #7a7a7a; stroke-width: 3; stroke-linecap: square"/>
   </g>
   <g id="line2d_34">
    <path d="M 101.380564 970.131603 
L 101.720179 969.772486 
L 457.026022 754.302481 
" clip-path="url(#p9b81b0de7c)" style="fill: none; stroke: #7a7a7a; stroke-width: 3; stroke-linecap: square"/>
   </g>
   <g id="line2d_35">
    <path d="M 1083.277191 297.506071 
L 1127.427219 271.64967 
L 1138.566611 265.18557 
L 1208.119886 224.605386 
L 1267.688463 189.950627 
L 1340.637894 147.395301 
" clip-path="url(#p9b81b0de7c)" style="fill: none; stroke: #7a7a7a; stroke-width: 3; stroke-linecap: square"/>
   </g>
   <g id="line2d_36">
    <path d="M 1093.26189 392.492431 
L 1146.038154 360.531047 
L 1215.183891 319.412188 
L 1244.051217 300.558563 
L 1274.616621 277.754654 
L 1283.51455 271.64967 
L 1304.63864 253.514278 
L 1346.547205 216.704819 
" clip-path="url(#p9b81b0de7c)" style="fill: none; stroke: #7a7a7a; stroke-width: 3; stroke-linecap: square"/>
   </g>
   <g id="line2d_37">
    <path d="M 934.457634 393.569781 
L 867.825053 433.611291 
L 771.306299 492.147309 
" clip-path="url(#p9b81b0de7c)" style="fill: none; stroke: #7a7a7a; stroke-width: 3; stroke-linecap: square"/>
   </g>
   <g id="line2d_38">
    <path d="M 928.4804 328.390105 
L 764.513987 429.122332 
" clip-path="url(#p9b81b0de7c)" style="fill: none; stroke: #7a7a7a; stroke-width: 3; stroke-linecap: square"/>
   </g>
   <g id="line2d_39">
    <path d="M 540.911075 632.561928 
L 712.349031 528.058976 
L 712.688647 527.879418 
" clip-path="url(#p9b81b0de7c)" style="fill: none; stroke: #7a7a7a; stroke-width: 3; stroke-linecap: square"/>
   </g>
   <g id="line2d_40">
    <path d="M 545.461924 698.639397 
L 712.349031 597.009378 
L 712.688647 596.829819 
" clip-path="url(#p9b81b0de7c)" style="fill: none; stroke: #7a7a7a; stroke-width: 3; stroke-linecap: square"/>
   </g>
   <g id="line2d_41">
    <path d="M 712.688647 580.490011 
L 713.096185 580.310452 
L 777.215611 558.045218 
" clip-path="url(#p9b81b0de7c)" style="fill: none; stroke: #7a7a7a; stroke-width: 3; stroke-linecap: square"/>
   </g>
   <g id="line2d_42">
    <path d="M 712.688647 641.180729 
L 713.096185 641.00117 
L 780.407998 618.37682 
" clip-path="url(#p9b81b0de7c)" style="fill: none; stroke: #7a7a7a; stroke-width: 3; stroke-linecap: square"/>
   </g>
   <g id="line2d_43">
    <path d="M 771.306299 492.147309 
L 867.825053 433.611291 
L 934.457634 393.569781 
" clip-path="url(#p9b81b0de7c)" style="fill: none; stroke: #7a7a7a; stroke-width: 3; stroke-linecap: square"/>
   </g>
   <g id="line2d_44">
    <path d="M 777.215611 558.045218 
L 887.251066 487.837908 
L 939.483945 458.031224 
" clip-path="url(#p9b81b0de7c)" style="fill: none; stroke: #7a7a7a; stroke-width: 3; stroke-linecap: square"/>
   </g>
   <g id="line2d_45">
    <path d="M 964.434313 -1 
L 971.204043 75.212849 
L 1023.097306 521.953993 
L 1029.550003 591.802186 
" clip-path="url(#p9b81b0de7c)" style="fill: none; stroke: #7a7a7a; stroke-width: 3; stroke-linecap: square"/>
   </g>
   <g id="line2d_46">
    <path d="M 941.420119 -1 
L 1009.444759 585.697202 
L 1009.580606 586.056319 
L 1011.41453 602.755244 
" clip-path="url(#p9b81b0de7c)" style="fill: none; stroke: #7a7a7a; stroke-width: 3; stroke-linecap: square"/>
   </g>
   <g id="line2d_47">
    <path d="M 1029.550003 591.802186 
L 1023.097306 521.953993 
L 971.204043 75.212849 
L 964.434313 -1 
" clip-path="url(#p9b81b0de7c)" style="fill: none; stroke: #7a7a7a; stroke-width: 3; stroke-linecap: square"/>
   </g>
   <g id="line2d_48">
    <path d="M 1053.86648 576.539727 
L 1053.662711 574.385027 
L 1010.12399 94.246033 
L 1002.333815 -1 
" clip-path="url(#p9b81b0de7c)" style="fill: none; stroke: #7a7a7a; stroke-width: 3; stroke-linecap: square"/>
   </g>
   <g id="line2d_49">
    <path d="M 939.483945 458.031224 
L 946.140411 451.926241 
L 962.509883 438.818482 
L 1083.277191 297.506071 
" clip-path="url(#p9b81b0de7c)" style="fill: none; stroke: #7a7a7a; stroke-width: 3; stroke-linecap: square"/>
   </g>
   <g id="line2d_50">
    <path d="M 944.102718 514.232984 
L 956.464725 505.075509 
L 1003.331678 464.315766 
L 1048.160938 423.91514 
L 1063.307794 411.166498 
L 1093.26189 392.492431 
" clip-path="url(#p9b81b0de7c)" style="fill: none; stroke: #7a7a7a; stroke-width: 3; stroke-linecap: square"/>
   </g>
   <g id="line2d_51">
    <path d="M 777.215611 558.045218 
L 887.251066 487.837908 
L 939.483945 458.031224 
" clip-path="url(#p9b81b0de7c)" style="fill: none; stroke: #7a7a7a; stroke-width: 3; stroke-linecap: square"/>
   </g>
   <g id="line2d_52">
    <path d="M 780.407998 618.37682 
L 780.611767 618.37682 
L 944.102718 514.232984 
" clip-path="url(#p9b81b0de7c)" style="fill: none; stroke: #7a7a7a; stroke-width: 3; stroke-linecap: square"/>
   </g>
   <g id="line2d_53">
    <path d="M 1078.522573 232.326394 
L 1065.209641 241.663428 
L 1041.708241 265.544687 
L 957.619418 367.174706 
L 941.861255 381.718931 
L 934.457634 393.569781 
" clip-path="url(#p9b81b0de7c)" style="fill: none; stroke: #7a7a7a; stroke-width: 3; stroke-linecap: square"/>
   </g>
   <g id="line2d_54">
    <path d="M 1074.379262 175.945077 
L 1059.707868 188.693718 
L 1045.987398 203.058385 
L 951.030876 311.69118 
L 938.329252 322.285121 
L 928.4804 328.390105 
" clip-path="url(#p9b81b0de7c)" style="fill: none; stroke: #7a7a7a; stroke-width: 3; stroke-linecap: square"/>
   </g>
   <g id="line2d_55">
    <path d="M 1029.550003 591.802186 
L 1060.998408 948.943719 
" clip-path="url(#p9b81b0de7c)" style="fill: none; stroke: #7a7a7a; stroke-width: 3; stroke-linecap: square"/>
   </g>
   <g id="line2d_56">
    <path d="M 1011.41453 602.755244 
L 1018.953996 670.807854 
L 1024.04823 717.313464 
L 1029.821695 779.979323 
L 1042.251626 959.358102 
" clip-path="url(#p9b81b0de7c)" style="fill: none; stroke: #7a7a7a; stroke-width: 3; stroke-linecap: square"/>
   </g>
   <g id="line2d_57">
    <path d="M 1060.998408 948.943719 
L 1029.550003 591.802186 
" clip-path="url(#p9b81b0de7c)" style="fill: none; stroke: #7a7a7a; stroke-width: 3; stroke-linecap: square"/>
   </g>
   <g id="line2d_58">
    <path d="M 1082.937575 936.554193 
L 1071.594414 791.830174 
L 1053.86648 576.539727 
" clip-path="url(#p9b81b0de7c)" style="fill: none; stroke: #7a7a7a; stroke-width: 3; stroke-linecap: square"/>
   </g>
   <g id="line2d_59">
    <path d="M 1083.277191 297.506071 
L 934.457634 393.569781 
" clip-path="url(#p9b81b0de7c)" style="fill: none; stroke: #7a7a7a; stroke-width: 3; stroke-linecap: square"/>
   </g>
   <g id="line2d_60">
    <path d="M 1078.522573 232.326394 
L 928.4804 328.390105 
" clip-path="url(#p9b81b0de7c)" style="fill: none; stroke: #7a7a7a; stroke-width: 3; stroke-linecap: square"/>
   </g>
   <g id="line2d_61">
    <path d="M 1029.550003 591.802186 
L 1029.074541 587.313227 
L 1027.444386 566.304902 
L 1024.04823 541.70541 
L 1018.953996 514.412542 
L 1012.29753 485.683208 
L 1004.282602 456.594758 
L 994.977135 428.404099 
L 984.516974 402.009023 
L 973.037967 378.486881 
L 960.675959 358.915022 
L 947.566797 344.550355 
L 928.4804 328.390105 
" clip-path="url(#p9b81b0de7c)" style="fill: none; stroke: #7a7a7a; stroke-width: 3; stroke-linecap: square"/>
   </g>
   <g id="line2d_62">
    <path d="M 1053.86648 576.539727 
L 1050.266555 544.219226 
L 1045.511936 515.669451 
L 1042.591242 500.945667 
L 1039.602625 486.760558 
L 1035.934776 471.318541 
L 1031.791466 458.210783 
L 1023.16523 430.558799 
L 1013.520146 404.163723 
L 1003.059986 379.743789 
L 991.920594 357.837672 
L 980.305741 338.984047 
L 968.351271 323.721588 
L 956.193033 312.409413 
L 944.034794 305.945313 
L 932.012402 304.688404 
L 925.695552 301.815471 
" clip-path="url(#p9b81b0de7c)" style="fill: none; stroke: #7a7a7a; stroke-width: 3; stroke-linecap: square"/>
   </g>
   <g id="line2d_63">
    <path d="M 1078.522573 232.326394 
L 1064.394564 237.892703 
L 1050.742016 238.25182 
L 1037.7687 233.403744 
L 1025.542539 224.246269 
L 1014.199378 210.779394 
L 1003.80714 193.90091 
L 994.501673 173.610818 
L 986.350898 150.806909 
L 979.558586 125.489184 
L 974.124737 98.375875 
L 970.253119 69.826099 
L 964.223973 -1 
" clip-path="url(#p9b81b0de7c)" style="fill: none; stroke: #7a7a7a; stroke-width: 3; stroke-linecap: square"/>
   </g>
   <g id="line2d_64">
    <path d="M 1074.379262 175.945077 
L 1068.945413 179.356685 
L 1062.35687 182.588735 
L 1054.613634 184.922993 
L 1046.734552 184.922993 
L 1041.572395 182.768293 
L 1040.14601 181.870502 
L 1035.391391 177.381543 
L 1032.266928 173.43126 
L 1028.123617 166.96716 
L 1023.980307 158.707476 
L 1020.584151 150.447793 
L 1017.935149 142.367667 
L 1015.625763 133.210192 
L 1013.791839 123.154925 
L 1011.754145 108.790258 
L 1010.12399 94.246033 
L 1002.333815 -1 
" clip-path="url(#p9b81b0de7c)" style="fill: none; stroke: #7a7a7a; stroke-width: 3; stroke-linecap: square"/>
   </g>
   <g id="line2d_65">
    <path d="M 1078.522573 232.326394 
L 928.4804 328.390105 
" clip-path="url(#p9b81b0de7c)" style="fill: none; stroke: #7a7a7a; stroke-width: 3; stroke-linecap: square"/>
   </g>
   <g id="line2d_66">
    <path d="M 1074.379262 175.945077 
L 925.695552 301.815471 
" clip-path="url(#p9b81b0de7c)" style="fill: none; stroke: #7a7a7a; stroke-width: 3; stroke-linecap: square"/>
   </g>
   <g id="line2d_67">
    <path d="M 1029.550003 591.802186 
L 1023.980307 510.821376 
L 1023.504845 477.243967 
L 1024.455769 445.641699 
L 1027.036847 416.194132 
L 1031.316004 389.080823 
L 1037.497008 364.660889 
L 1045.647782 343.113889 
L 1055.972097 324.61938 
L 1083.277191 297.506071 
" clip-path="url(#p9b81b0de7c)" style="fill: none; stroke: #7a7a7a; stroke-width: 3; stroke-linecap: square"/>
   </g>
   <g id="line2d_68">
    <path d="M 1053.86648 576.539727 
L 1051.081632 545.655693 
L 1050.877863 542.064526 
L 1047.685476 500.047875 
L 1048.025092 466.290908 
L 1051.69294 441.691416 
L 1058.349406 423.91514 
L 1067.722797 411.166498 
L 1079.473496 401.29079 
L 1093.26189 392.492431 
" clip-path="url(#p9b81b0de7c)" style="fill: none; stroke: #7a7a7a; stroke-width: 3; stroke-linecap: square"/>
   </g>
   <g id="line2d_69">
    <path clip-path="url(#p9b81b0de7c)" style="fill: none; stroke: #7a7a7a; stroke-width: 3; stroke-linecap: square"/>
   </g>
   <g id="line2d_70">
    <path clip-path="url(#p9b81b0de7c)" style="fill: none; stroke: #7a7a7a; stroke-width: 3; stroke-linecap: square"/>
   </g>
   <g id="line2d_71">
    <path d="M 1029.550003 591.802186 
L 1028.870772 582.465152 
L 1025.814231 553.735818 
L 1020.923767 525.365601 
L 1014.335224 498.072734 
L 1006.184449 472.57545 
L 996.675213 449.591983 
L 985.875437 429.840566 
L 974.056814 413.680315 
L 961.287267 402.188582 
L 947.702643 395.724481 
L 934.457634 393.569781 
" clip-path="url(#p9b81b0de7c)" style="fill: none; stroke: #7a7a7a; stroke-width: 3; stroke-linecap: square"/>
   </g>
   <g id="line2d_72">
    <path d="M 1053.86648 576.539727 
L 1052.711787 564.150202 
L 1048.908092 534.343518 
L 1043.20255 502.561692 
L 1036.070622 472.395891 
L 1027.716079 443.846116 
L 1018.274765 417.630599 
L 1007.814604 394.108456 
L 996.60729 373.638806 
L 984.65282 356.580764 
L 972.222889 343.113889 
L 959.317496 334.135972 
L 946.140411 329.467455 
L 932.895403 330.00613 
L 928.4804 328.390105 
" clip-path="url(#p9b81b0de7c)" style="fill: none; stroke: #7a7a7a; stroke-width: 3; stroke-linecap: square"/>
   </g>
   <g id="line2d_73">
    <path d="M 1340.637894 147.395301 
L 1267.688463 189.950627 
L 1208.119886 224.605386 
L 1138.566611 265.18557 
L 1127.427219 271.64967 
L 1083.277191 297.506071 
" clip-path="url(#p9b81b0de7c)" style="fill: none; stroke: #7a7a7a; stroke-width: 3; stroke-linecap: square"/>
   </g>
   <g id="line2d_74">
    <path d="M 1334.728583 77.547108 
L 1262.322536 121.359342 
L 1203.025652 157.091451 
L 1133.404454 199.28766 
L 1078.522573 232.326394 
" clip-path="url(#p9b81b0de7c)" style="fill: none; stroke: #7a7a7a; stroke-width: 3; stroke-linecap: square"/>
   </g>
   <g id="line2d_75">
    <path d="M 1029.550003 591.802186 
L 1025.814231 528.597651 
L 1025.882154 506.691534 
L 1027.444386 483.708067 
L 1030.704696 463.417975 
L 1034.304621 449.591983 
L 1039.05924 436.304666 
L 1046.25909 427.326749 
L 1055.360789 418.707949 
L 1064.32664 411.346057 
L 1081.850806 399.674765 
L 1093.26189 392.492431 
" clip-path="url(#p9b81b0de7c)" style="fill: none; stroke: #7a7a7a; stroke-width: 3; stroke-linecap: square"/>
   </g>
   <g id="line2d_76">
    <path d="M 1053.86648 576.539727 
L 1052.77971 564.509319 
L 1051.489171 550.503768 
L 1051.081632 545.655693 
L 1049.247708 505.614184 
L 1049.315631 501.304784 
L 1049.451477 491.069959 
L 1049.791093 480.476017 
L 1049.859016 479.03955 
L 1049.859016 470.959425 
L 1051.489171 460.365483 
L 1054.749481 450.310216 
L 1060.522946 440.614066 
L 1095.639199 417.630599 
" clip-path="url(#p9b81b0de7c)" style="fill: none; stroke: #7a7a7a; stroke-width: 3; stroke-linecap: square"/>
   </g>
   <g id="line2d_77">
    <path clip-path="url(#p9b81b0de7c)" style="fill: none; stroke: #7a7a7a; stroke-width: 3; stroke-linecap: square"/>
   </g>
   <g id="line2d_78">
    <path clip-path="url(#p9b81b0de7c)" style="fill: none; stroke: #7a7a7a; stroke-width: 3; stroke-linecap: square"/>
   </g>
   <g id="line2d_79">
    <path d="M 939.483945 458.031224 
L 1061.813485 413.14164 
L 1093.26189 392.492431 
" clip-path="url(#p9b81b0de7c)" style="fill: none; stroke: #7a7a7a; stroke-width: 3; stroke-linecap: square"/>
   </g>
   <g id="line2d_80">
    <path d="M 944.102718 514.232984 
L 1095.639199 417.630599 
" clip-path="url(#p9b81b0de7c)" style="fill: none; stroke: #7a7a7a; stroke-width: 3; stroke-linecap: square"/>
   </g>
   <g id="line2d_81">
    <path d="M 928.4804 328.390105 
L 764.513987 429.122332 
" clip-path="url(#p9b81b0de7c)" style="fill: none; stroke: #7a7a7a; stroke-width: 3; stroke-linecap: square"/>
   </g>
   <g id="line2d_82">
    <path d="M 925.695552 301.815471 
L 811.245094 375.793506 
L 763.630987 402.906815 
" clip-path="url(#p9b81b0de7c)" style="fill: none; stroke: #7a7a7a; stroke-width: 3; stroke-linecap: square"/>
   </g>
   <g id="line2d_83">
    <path d="M 764.513987 429.122332 
L 713.096185 460.006366 
L 712.688647 460.365483 
" clip-path="url(#p9b81b0de7c)" style="fill: none; stroke: #7a7a7a; stroke-width: 3; stroke-linecap: square"/>
   </g>
   <g id="line2d_84">
    <path d="M 763.630987 402.906815 
L 713.096185 431.995266 
L 712.688647 432.174824 
" clip-path="url(#p9b81b0de7c)" style="fill: none; stroke: #7a7a7a; stroke-width: 3; stroke-linecap: square"/>
   </g>
   <g id="line2d_85">
    <path d="M 934.457634 393.569781 
L 944.37441 376.691298 
L 951.710107 363.583539 
L 958.230727 347.423289 
L 963.936269 328.030988 
L 968.690887 304.688404 
L 972.290812 277.395537 
L 974.736045 245.972828 
L 975.822815 209.702044 
L 975.483199 168.583185 
L 973.649275 122.257134 
L 964.887192 12.54699 
L 963.828295 -1 
" clip-path="url(#p9b81b0de7c)" style="fill: none; stroke: #7a7a7a; stroke-width: 3; stroke-linecap: square"/>
   </g>
   <g id="line2d_86">
    <path d="M 939.483945 458.031224 
L 946.683796 448.155516 
L 956.057187 434.149966 
L 966.381501 418.887507 
L 975.619045 401.649907 
L 983.76982 382.437164 
L 990.833824 360.710606 
L 996.811059 336.649788 
L 1001.701524 310.075154 
L 1005.505218 280.986704 
L 1008.222143 249.02532 
L 1009.852298 214.191002 
L 1010.32776 176.124635 
L 1009.784375 135.185334 
L 1008.086297 90.834425 
L 1005.369372 43.251465 
L 1001.962239 -1 
" clip-path="url(#p9b81b0de7c)" style="fill: none; stroke: #7a7a7a; stroke-width: 3; stroke-linecap: square"/>
   </g>
   <g id="line2d_87">
    <path d="M 939.483945 458.031224 
L 979.762356 445.821258 
L 991.852671 453.362708 
L 1001.83737 466.470466 
L 1010.056067 484.605858 
L 1016.64461 506.871092 
L 1022.010537 532.727493 
L 1026.289693 561.09771 
L 1029.550003 591.802186 
" clip-path="url(#p9b81b0de7c)" style="fill: none; stroke: #7a7a7a; stroke-width: 3; stroke-linecap: square"/>
   </g>
   <g id="line2d_88">
    <path d="M 944.102718 514.232984 
L 959.860881 506.511976 
L 965.090962 505.255067 
L 970.592734 506.691534 
L 972.766274 508.487117 
L 981.188741 511.539609 
L 992.871518 527.161184 
L 1001.701524 549.605977 
L 1007.814604 576.001052 
L 1008.901374 584.081177 
L 1009.580606 586.056319 
L 1011.41453 602.755244 
" clip-path="url(#p9b81b0de7c)" style="fill: none; stroke: #7a7a7a; stroke-width: 3; stroke-linecap: square"/>
   </g>
   <g id="line2d_89">
    <path d="M 1083.277191 297.506071 
L 1055.972097 324.61938 
L 1045.647782 343.113889 
L 1037.497008 364.660889 
L 1031.316004 389.080823 
L 1027.036847 416.194132 
L 1024.455769 445.641699 
L 1023.504845 477.243967 
L 1023.980307 510.821376 
L 1029.550003 591.802186 
" clip-path="url(#p9b81b0de7c)" style="fill: none; stroke: #7a7a7a; stroke-width: 3; stroke-linecap: square"/>
   </g>
   <g id="line2d_90">
    <path d="M 1078.522573 232.326394 
L 1065.820949 241.842986 
L 1054.002326 254.591628 
L 1043.270473 270.57232 
L 1033.557467 289.605504 
L 1025.135 311.870738 
L 1017.867226 337.008905 
L 1012.025838 365.199564 
L 1007.678758 396.263156 
L 1004.825987 430.379241 
L 1003.603371 467.009141 
L 1004.078833 506.691534 
L 1006.320296 548.887743 
L 1010.463606 593.777327 
L 1011.41453 602.755244 
" clip-path="url(#p9b81b0de7c)" style="fill: none; stroke: #7a7a7a; stroke-width: 3; stroke-linecap: square"/>
   </g>
   <g id="line2d_91">
    <path d="M 771.306299 492.147309 
L 713.096185 527.699859 
L 712.688647 527.879418 
" clip-path="url(#p9b81b0de7c)" style="fill: none; stroke: #7a7a7a; stroke-width: 3; stroke-linecap: square"/>
   </g>
   <g id="line2d_92">
    <path d="M 764.513987 429.122332 
L 713.096185 460.006366 
L 712.688647 460.365483 
" clip-path="url(#p9b81b0de7c)" style="fill: none; stroke: #7a7a7a; stroke-width: 3; stroke-linecap: square"/>
   </g>
   <g id="line2d_93">
    <path d="M 1334.728583 77.547108 
L 1262.322536 121.359342 
L 1203.025652 157.091451 
L 1133.404454 199.28766 
L 1078.522573 232.326394 
" clip-path="url(#p9b81b0de7c)" style="fill: none; stroke: #7a7a7a; stroke-width: 3; stroke-linecap: square"/>
   </g>
   <g id="line2d_94">
    <path d="M 1324.132576 23.859165 
L 1257.83961 64.080232 
L 1198.746496 100.171458 
L 1128.989451 142.726784 
L 1074.379262 175.945077 
" clip-path="url(#p9b81b0de7c)" style="fill: none; stroke: #7a7a7a; stroke-width: 3; stroke-linecap: square"/>
   </g>
   <g id="line2d_95">
    <path d="M 963.828295 -1 
L 964.887192 12.54699 
L 973.649275 122.257134 
L 975.483199 168.583185 
L 975.822815 209.702044 
L 974.736045 245.972828 
L 972.290812 277.395537 
L 968.690887 304.688404 
L 963.936269 328.030988 
L 958.230727 347.423289 
L 951.710107 363.583539 
L 944.37441 376.691298 
L 934.457634 393.569781 
" clip-path="url(#p9b81b0de7c)" style="fill: none; stroke: #7a7a7a; stroke-width: 3; stroke-linecap: square"/>
   </g>
   <g id="line2d_96">
    <path d="M 940.399104 -1 
L 952.321415 128.721234 
L 953.408185 140.572084 
L 954.630801 158.707476 
L 955.989264 175.765518 
L 956.464725 188.873277 
L 955.649648 203.058385 
L 954.019493 228.376111 
L 952.525184 261.594403 
L 948.857336 287.809921 
L 942.540486 307.920454 
L 932.963326 323.54203 
L 928.4804 328.390105 
" clip-path="url(#p9b81b0de7c)" style="fill: none; stroke: #7a7a7a; stroke-width: 3; stroke-linecap: square"/>
   </g>
   <g id="line2d_97">
    <path d="M 961.55222 -1 
L 962.917422 34.812223 
L 968.215425 167.146718 
L 966.721117 220.116427 
L 963.800422 253.514278 
L 959.453343 279.19112 
L 951.710107 297.326513 
L 942.268793 314.204996 
L 928.4804 328.390105 
" clip-path="url(#p9b81b0de7c)" style="fill: none; stroke: #7a7a7a; stroke-width: 3; stroke-linecap: square"/>
   </g>
   <g id="line2d_98">
    <path d="M 940.398549 -1 
L 953.408185 140.572084 
L 954.630801 158.707476 
L 954.698724 163.016876 
L 955.03834 167.505835 
L 954.698724 200.005894 
L 953.204416 222.450686 
L 949.196952 247.94797 
L 944.238564 267.699387 
L 936.902867 284.936987 
L 925.695552 301.815471 
" clip-path="url(#p9b81b0de7c)" style="fill: none; stroke: #7a7a7a; stroke-width: 3; stroke-linecap: square"/>
   </g>
   <g id="line2d_99">
    <path d="M 964.322156 -1 
L 975.822815 131.414609 
L 980.373664 162.478201 
L 986.554668 191.207535 
L 994.026211 217.423052 
L 1002.788293 240.765636 
L 1012.569223 260.87617 
L 1023.233153 277.395537 
L 1034.508391 290.323737 
L 1046.394937 298.942538 
L 1058.553175 303.251938 
L 1070.915183 302.892821 
L 1083.277191 297.506071 
" clip-path="url(#p9b81b0de7c)" style="fill: none; stroke: #7a7a7a; stroke-width: 3; stroke-linecap: square"/>
   </g>
   <g id="line2d_100">
    <path d="M 940.398549 -1 
L 953.408185 140.572084 
L 954.630801 159.784826 
L 957.551495 182.947852 
L 963.460807 217.602611 
L 970.456888 249.563995 
L 978.607663 279.011562 
L 987.641438 305.586196 
L 997.49029 329.108338 
L 1008.086297 349.577989 
L 1019.293612 366.636031 
L 1030.976388 380.462023 
L 1043.134627 390.51729 
L 1055.496635 396.98139 
L 1068.062412 399.674765 
L 1080.696112 398.238298 
L 1093.26189 392.492431 
" clip-path="url(#p9b81b0de7c)" style="fill: none; stroke: #7a7a7a; stroke-width: 3; stroke-linecap: square"/>
   </g>
   <g id="line2d_101">
    <path d="M 540.911075 632.561928 
L 706.303873 582.465152 
L 712.688647 580.490011 
" clip-path="url(#p9b81b0de7c)" style="fill: none; stroke: #7a7a7a; stroke-width: 3; stroke-linecap: square"/>
   </g>
   <g id="line2d_102">
    <path d="M 545.461924 698.639397 
L 712.688647 641.180729 
" clip-path="url(#p9b81b0de7c)" style="fill: none; stroke: #7a7a7a; stroke-width: 3; stroke-linecap: square"/>
   </g>
   <g id="line2d_103">
    <path d="M 712.688647 596.829819 
L 713.096185 596.470703 
L 777.215611 558.045218 
" clip-path="url(#p9b81b0de7c)" style="fill: none; stroke: #7a7a7a; stroke-width: 3; stroke-linecap: square"/>
   </g>
   <g id="line2d_104">
    <path d="M 712.688647 651.235995 
L 713.096185 651.056437 
L 780.407998 618.37682 
" clip-path="url(#p9b81b0de7c)" style="fill: none; stroke: #7a7a7a; stroke-width: 3; stroke-linecap: square"/>
   </g>
   <g id="line2d_105">
    <path d="M 964.310217 -1 
L 980.917049 190.66886 
L 985.399975 225.862294 
L 991.105517 258.541912 
L 997.965752 288.348596 
L 1005.844834 315.102788 
L 1014.67484 338.804488 
L 1024.319923 358.735464 
L 1034.644237 375.075273 
L 1045.579859 387.464798 
L 1056.990943 395.724481 
L 1068.809566 399.315648 
L 1080.967805 398.417856 
L 1093.26189 392.492431 
" clip-path="url(#p9b81b0de7c)" style="fill: none; stroke: #7a7a7a; stroke-width: 3; stroke-linecap: square"/>
   </g>
   <g id="line2d_106">
    <path d="M 940.398549 -1 
L 953.408185 140.572084 
L 954.630801 158.707476 
L 958.977881 205.033527 
L 962.577806 238.610936 
L 967.264502 269.854087 
L 973.717198 298.762979 
L 981.256664 325.158055 
L 989.814977 348.859755 
L 999.324214 369.688522 
L 1009.580606 387.644356 
L 1020.584151 402.547698 
L 1032.131081 414.039432 
L 1044.221397 422.119557 
L 1056.719251 426.788074 
L 1069.556721 427.685865 
L 1082.530037 424.633374 
L 1095.639199 417.630599 
" clip-path="url(#p9b81b0de7c)" style="fill: none; stroke: #7a7a7a; stroke-width: 3; stroke-linecap: square"/>
   </g>
   <g id="line2d_107">
    <path d="M 1169.763488 394.844225 
L 1169.866301 376.090549 
" clip-path="url(#p9b81b0de7c)" style="fill: none; stroke-dasharray: 32,8,5,8; stroke-dashoffset: 0; stroke: #1e90ff; stroke-width: 5"/>
   </g>
   <g id="line2d_108">
    <path d="M 401.068116 604.369867 
L 396.003731 605.584165 
" clip-path="url(#p9b81b0de7c)" style="fill: none; stroke-dasharray: 32,8,5,8; stroke-dashoffset: 0; stroke: #1e90ff; stroke-width: 5"/>
   </g>
   <g id="line2d_109">
    <path d="M 185.133618 824.495412 
L 179.206928 831.811888 
" clip-path="url(#p9b81b0de7c)" style="fill: none; stroke-dasharray: 32,8,5,8; stroke-dashoffset: 0; stroke: #1e90ff; stroke-width: 5"/>
   </g>
   <g id="line2d_110">
    <path d="M 256.031692 689.795973 
L 253.023573 693.162692 
" clip-path="url(#p9b81b0de7c)" style="fill: none; stroke-dasharray: 32,8,5,8; stroke-dashoffset: 0; stroke: #1e90ff; stroke-width: 5"/>
   </g>
   <g id="line2d_111">
    <path d="M 139.809528 892.057744 
L 135.846241 901.324988 
" clip-path="url(#p9b81b0de7c)" style="fill: none; stroke-dasharray: 32,8,5,8; stroke-dashoffset: 0; stroke: #1e90ff; stroke-width: 5"/>
   </g>
   <g id="line2d_112">
    <path d="M 775.656828 375.055984 
L 775.630296 368.46721 
" clip-path="url(#p9b81b0de7c)" style="fill: none; stroke-dasharray: 32,8,5,8; stroke-dashoffset: 0; stroke: #1e90ff; stroke-width: 5"/>
   </g>
   <g id="line2d_113">
    <path d="M 194.37355 863.708042 
L 577.107731 660.968443 
" clip-path="url(#p9b81b0de7c)" style="fill: none; stroke-dasharray: 32,8,5,8; stroke-dashoffset: 0; stroke: #1e90ff; stroke-width: 5"/>
   </g>
   <g id="line2d_114">
    <path d="M 921.887214 304.153236 
L 925.857135 300.865425 
" clip-path="url(#p9b81b0de7c)" style="fill: none; stroke-dasharray: 32,8,5,8; stroke-dashoffset: 0; stroke: #1e90ff; stroke-width: 5"/>
   </g>
   <g id="line2d_115">
    <path d="M 476.155003 558.949849 
L 471.365892 553.237824 
" clip-path="url(#p9b81b0de7c)" style="fill: none; stroke-dasharray: 32,8,5,8; stroke-dashoffset: 0; stroke: #1e90ff; stroke-width: 5"/>
   </g>
   <g id="line2d_116">
    <path d="M 1061.942168 790.372314 
L 1062.920552 802.57667 
" clip-path="url(#p9b81b0de7c)" style="fill: none; stroke-dasharray: 32,8,5,8; stroke-dashoffset: 0; stroke: #1e90ff; stroke-width: 5"/>
   </g>
   <g id="line2d_117">
    <path d="M 295.707682 826.292749 
L 424.764927 758.883849 
" clip-path="url(#p9b81b0de7c)" style="fill: none; stroke-dasharray: 32,8,5,8; stroke-dashoffset: 0; stroke: #1e90ff; stroke-width: 5"/>
   </g>
   <g id="line2d_118">
    <path d="M 1253.118555 99.839871 
L 1252.86318 102.566563 
" clip-path="url(#p9b81b0de7c)" style="fill: none; stroke-dasharray: 32,8,5,8; stroke-dashoffset: 0; stroke: #1e90ff; stroke-width: 5"/>
   </g>
   <g id="line2d_119">
    <path d="M 1174.058431 172.689003 
L 864.805924 447.48866 
" clip-path="url(#p9b81b0de7c)" style="fill: none; stroke-dasharray: 32,8,5,8; stroke-dashoffset: 0; stroke: #1e90ff; stroke-width: 5"/>
   </g>
   <g id="line2d_120">
    <path d="M 750.85892 589.175794 
L 1078.903048 392.099998 
" clip-path="url(#p9b81b0de7c)" style="fill: none; stroke-dasharray: 32,8,5,8; stroke-dashoffset: 0; stroke: #1e90ff; stroke-width: 5"/>
   </g>
   <g id="line2d_121">
    <path d="M 1169.763488 394.844225 
" clip-path="url(#p9b81b0de7c)" style="fill: none; stroke: #0000ff; stroke-width: 1.5; stroke-linecap: square"/>
    <defs>
     <path id="m242c129bf4" d="M 0 10 
C 2.652031 10 5.195799 8.946337 7.071068 7.071068 
C 8.946337 5.195799 10 2.652031 10 0 
C 10 -2.652031 8.946337 -5.195799 7.071068 -7.071068 
C 5.195799 -8.946337 2.652031 -10 0 -10 
C -2.652031 -10 -5.195799 -8.946337 -7.071068 -7.071068 
C -8.946337 -5.195799 -10 -2.652031 -10 0 
C -10 2.652031 -8.946337 5.195799 -7.071068 7.071068 
C -5.195799 8.946337 -2.652031 10 0 10 
z
" style="stroke: #0000ff"/>
    </defs>
    <g clip-path="url(#p9b81b0de7c)">
     <use xlink:href="#m242c129bf4" x="1169.763488" y="394.844225" style="fill: #0000ff; stroke: #0000ff"/>
    </g>
   </g>
   <g id="line2d_122">
    <path d="M 401.068116 604.369867 
" clip-path="url(#p9b81b0de7c)" style="fill: none; stroke: #0000ff; stroke-width: 1.5; stroke-linecap: square"/>
    <g clip-path="url(#p9b81b0de7c)">
     <use xlink:href="#m242c129bf4" x="401.068116" y="604.369867" style="fill: #0000ff; stroke: #0000ff"/>
    </g>
   </g>
   <g id="line2d_123">
    <path d="M 185.133618 824.495412 
" clip-path="url(#p9b81b0de7c)" style="fill: none; stroke: #0000ff; stroke-width: 1.5; stroke-linecap: square"/>
    <g clip-path="url(#p9b81b0de7c)">
     <use xlink:href="#m242c129bf4" x="185.133618" y="824.495412" style="fill: #0000ff; stroke: #0000ff"/>
    </g>
   </g>
   <g id="line2d_124">
    <path d="M 256.031692 689.795973 
" clip-path="url(#p9b81b0de7c)" style="fill: none; stroke: #0000ff; stroke-width: 1.5; stroke-linecap: square"/>
    <g clip-path="url(#p9b81b0de7c)">
     <use xlink:href="#m242c129bf4" x="256.031692" y="689.795973" style="fill: #0000ff; stroke: #0000ff"/>
    </g>
   </g>
   <g id="line2d_125">
    <path d="M 139.809528 892.057744 
" clip-path="url(#p9b81b0de7c)" style="fill: none; stroke: #0000ff; stroke-width: 1.5; stroke-linecap: square"/>
    <g clip-path="url(#p9b81b0de7c)">
     <use xlink:href="#m242c129bf4" x="139.809528" y="892.057744" style="fill: #0000ff; stroke: #0000ff"/>
    </g>
   </g>
   <g id="line2d_126">
    <path d="M 775.656828 375.055984 
" clip-path="url(#p9b81b0de7c)" style="fill: none; stroke: #0000ff; stroke-width: 1.5; stroke-linecap: square"/>
    <g clip-path="url(#p9b81b0de7c)">
     <use xlink:href="#m242c129bf4" x="775.656828" y="375.055984" style="fill: #0000ff; stroke: #0000ff"/>
    </g>
   </g>
   <g id="line2d_127">
    <path d="M 194.37355 863.708042 
" clip-path="url(#p9b81b0de7c)" style="fill: none; stroke: #0000ff; stroke-width: 1.5; stroke-linecap: square"/>
    <g clip-path="url(#p9b81b0de7c)">
     <use xlink:href="#m242c129bf4" x="194.37355" y="863.708042" style="fill: #0000ff; stroke: #0000ff"/>
    </g>
   </g>
   <g id="line2d_128">
    <path d="M 921.887214 304.153236 
" clip-path="url(#p9b81b0de7c)" style="fill: none; stroke: #0000ff; stroke-width: 1.5; stroke-linecap: square"/>
    <g clip-path="url(#p9b81b0de7c)">
     <use xlink:href="#m242c129bf4" x="921.887214" y="304.153236" style="fill: #0000ff; stroke: #0000ff"/>
    </g>
   </g>
   <g id="line2d_129">
    <path d="M 476.155003 558.949849 
" clip-path="url(#p9b81b0de7c)" style="fill: none; stroke: #0000ff; stroke-width: 1.5; stroke-linecap: square"/>
    <g clip-path="url(#p9b81b0de7c)">
     <use xlink:href="#m242c129bf4" x="476.155003" y="558.949849" style="fill: #0000ff; stroke: #0000ff"/>
    </g>
   </g>
   <g id="line2d_130">
    <path d="M 1061.942168 790.372314 
" clip-path="url(#p9b81b0de7c)" style="fill: none; stroke: #0000ff; stroke-width: 1.5; stroke-linecap: square"/>
    <g clip-path="url(#p9b81b0de7c)">
     <use xlink:href="#m242c129bf4" x="1061.942168" y="790.372314" style="fill: #0000ff; stroke: #0000ff"/>
    </g>
   </g>
   <g id="line2d_131">
    <path d="M 295.707682 826.292749 
" clip-path="url(#p9b81b0de7c)" style="fill: none; stroke: #0000ff; stroke-width: 1.5; stroke-linecap: square"/>
    <g clip-path="url(#p9b81b0de7c)">
     <use xlink:href="#m242c129bf4" x="295.707682" y="826.292749" style="fill: #0000ff; stroke: #0000ff"/>
    </g>
   </g>
   <g id="line2d_132">
    <path d="M 1253.118555 99.839871 
" clip-path="url(#p9b81b0de7c)" style="fill: none; stroke: #0000ff; stroke-width: 1.5; stroke-linecap: square"/>
    <g clip-path="url(#p9b81b0de7c)">
     <use xlink:href="#m242c129bf4" x="1253.118555" y="99.839871" style="fill: #0000ff; stroke: #0000ff"/>
    </g>
   </g>
   <g id="line2d_133">
    <path d="M 1174.058431 172.689003 
" clip-path="url(#p9b81b0de7c)" style="fill: none; stroke: #0000ff; stroke-width: 1.5; stroke-linecap: square"/>
    <g clip-path="url(#p9b81b0de7c)">
     <use xlink:href="#m242c129bf4" x="1174.058431" y="172.689003" style="fill: #0000ff; stroke: #0000ff"/>
    </g>
   </g>
   <g id="line2d_134">
    <path d="M 750.85892 589.175794 
" clip-path="url(#p9b81b0de7c)" style="fill: none; stroke: #0000ff; stroke-width: 1.5; stroke-linecap: square"/>
    <g clip-path="url(#p9b81b0de7c)">
     <use xlink:href="#m242c129bf4" x="750.85892" y="589.175794" style="fill: #0000ff; stroke: #0000ff"/>
    </g>
   </g>
   <g id="line2d_135">
    <path d="M 1169.866301 376.090549 
" clip-path="url(#p9b81b0de7c)" style="fill: none; stroke: #ff0000; stroke-width: 1.5; stroke-linecap: square"/>
    <defs>
     <path id="m8f1f01d992" d="M 0 -10 
L -2.24514 -3.09017 
L -9.510565 -3.09017 
L -3.632713 1.18034 
L -5.877853 8.09017 
L -0 3.81966 
L 5.877853 8.09017 
L 3.632713 1.18034 
L 9.510565 -3.09017 
L 2.24514 -3.09017 
z
" style="stroke: #ff0000; stroke-linejoin: bevel"/>
    </defs>
    <g clip-path="url(#p9b81b0de7c)">
     <use xlink:href="#m8f1f01d992" x="1169.866301" y="376.090549" style="fill: #ff0000; stroke: #ff0000; stroke-linejoin: bevel"/>
    </g>
   </g>
   <g id="line2d_136">
    <path d="M 396.003731 605.584165 
" clip-path="url(#p9b81b0de7c)" style="fill: none; stroke: #ff0000; stroke-width: 1.5; stroke-linecap: square"/>
    <g clip-path="url(#p9b81b0de7c)">
     <use xlink:href="#m8f1f01d992" x="396.003731" y="605.584165" style="fill: #ff0000; stroke: #ff0000; stroke-linejoin: bevel"/>
    </g>
   </g>
   <g id="line2d_137">
    <path d="M 179.206928 831.811888 
" clip-path="url(#p9b81b0de7c)" style="fill: none; stroke: #ff0000; stroke-width: 1.5; stroke-linecap: square"/>
    <g clip-path="url(#p9b81b0de7c)">
     <use xlink:href="#m8f1f01d992" x="179.206928" y="831.811888" style="fill: #ff0000; stroke: #ff0000; stroke-linejoin: bevel"/>
    </g>
   </g>
   <g id="line2d_138">
    <path d="M 253.023573 693.162692 
" clip-path="url(#p9b81b0de7c)" style="fill: none; stroke: #ff0000; stroke-width: 1.5; stroke-linecap: square"/>
    <g clip-path="url(#p9b81b0de7c)">
     <use xlink:href="#m8f1f01d992" x="253.023573" y="693.162692" style="fill: #ff0000; stroke: #ff0000; stroke-linejoin: bevel"/>
    </g>
   </g>
   <g id="line2d_139">
    <path d="M 135.846241 901.324988 
" clip-path="url(#p9b81b0de7c)" style="fill: none; stroke: #ff0000; stroke-width: 1.5; stroke-linecap: square"/>
    <g clip-path="url(#p9b81b0de7c)">
     <use xlink:href="#m8f1f01d992" x="135.846241" y="901.324988" style="fill: #ff0000; stroke: #ff0000; stroke-linejoin: bevel"/>
    </g>
   </g>
   <g id="line2d_140">
    <path d="M 775.630296 368.46721 
" clip-path="url(#p9b81b0de7c)" style="fill: none; stroke: #ff0000; stroke-width: 1.5; stroke-linecap: square"/>
    <g clip-path="url(#p9b81b0de7c)">
     <use xlink:href="#m8f1f01d992" x="775.630296" y="368.46721" style="fill: #ff0000; stroke: #ff0000; stroke-linejoin: bevel"/>
    </g>
   </g>
   <g id="line2d_141">
    <path d="M 577.107731 660.968443 
" clip-path="url(#p9b81b0de7c)" style="fill: none; stroke: #ff0000; stroke-width: 1.5; stroke-linecap: square"/>
    <g clip-path="url(#p9b81b0de7c)">
     <use xlink:href="#m8f1f01d992" x="577.107731" y="660.968443" style="fill: #ff0000; stroke: #ff0000; stroke-linejoin: bevel"/>
    </g>
   </g>
   <g id="line2d_142">
    <path d="M 925.857135 300.865425 
" clip-path="url(#p9b81b0de7c)" style="fill: none; stroke: #ff0000; stroke-width: 1.5; stroke-linecap: square"/>
    <g clip-path="url(#p9b81b0de7c)">
     <use xlink:href="#m8f1f01d992" x="925.857135" y="300.865425" style="fill: #ff0000; stroke: #ff0000; stroke-linejoin: bevel"/>
    </g>
   </g>
   <g id="line2d_143">
    <path d="M 471.365892 553.237824 
" clip-path="url(#p9b81b0de7c)" style="fill: none; stroke: #ff0000; stroke-width: 1.5; stroke-linecap: square"/>
    <g clip-path="url(#p9b81b0de7c)">
     <use xlink:href="#m8f1f01d992" x="471.365892" y="553.237824" style="fill: #ff0000; stroke: #ff0000; stroke-linejoin: bevel"/>
    </g>
   </g>
   <g id="line2d_144">
    <path d="M 1062.920552 802.57667 
" clip-path="url(#p9b81b0de7c)" style="fill: none; stroke: #ff0000; stroke-width: 1.5; stroke-linecap: square"/>
    <g clip-path="url(#p9b81b0de7c)">
     <use xlink:href="#m8f1f01d992" x="1062.920552" y="802.57667" style="fill: #ff0000; stroke: #ff0000; stroke-linejoin: bevel"/>
    </g>
   </g>
   <g id="line2d_145">
    <path d="M 424.764927 758.883849 
" clip-path="url(#p9b81b0de7c)" style="fill: none; stroke: #ff0000; stroke-width: 1.5; stroke-linecap: square"/>
    <g clip-path="url(#p9b81b0de7c)">
     <use xlink:href="#m8f1f01d992" x="424.764927" y="758.883849" style="fill: #ff0000; stroke: #ff0000; stroke-linejoin: bevel"/>
    </g>
   </g>
   <g id="line2d_146">
    <path d="M 1252.86318 102.566563 
" clip-path="url(#p9b81b0de7c)" style="fill: none; stroke: #ff0000; stroke-width: 1.5; stroke-linecap: square"/>
    <g clip-path="url(#p9b81b0de7c)">
     <use xlink:href="#m8f1f01d992" x="1252.86318" y="102.566563" style="fill: #ff0000; stroke: #ff0000; stroke-linejoin: bevel"/>
    </g>
   </g>
   <g id="line2d_147">
    <path d="M 864.805924 447.48866 
" clip-path="url(#p9b81b0de7c)" style="fill: none; stroke: #ff0000; stroke-width: 1.5; stroke-linecap: square"/>
    <g clip-path="url(#p9b81b0de7c)">
     <use xlink:href="#m8f1f01d992" x="864.805924" y="447.48866" style="fill: #ff0000; stroke: #ff0000; stroke-linejoin: bevel"/>
    </g>
   </g>
   <g id="line2d_148">
    <path d="M 1078.903048 392.099998 
" clip-path="url(#p9b81b0de7c)" style="fill: none; stroke: #ff0000; stroke-width: 1.5; stroke-linecap: square"/>
    <g clip-path="url(#p9b81b0de7c)">
     <use xlink:href="#m8f1f01d992" x="1078.903048" y="392.099998" style="fill: #ff0000; stroke: #ff0000; stroke-linejoin: bevel"/>
    </g>
   </g>
  </g>
 </g>
 <defs>
  <clipPath id="p9b81b0de7c">
   <rect x="0" y="0" width="1440" height="1440"/>
  </clipPath>
 </defs>
</svg>
