<?xml version="1.0" encoding="utf-8" standalone="no"?>
<!DOCTYPE svg PUBLIC "-//W3C//DTD SVG 1.1//EN"
  "http://www.w3.org/Graphics/SVG/1.1/DTD/svg11.dtd">
<svg xmlns:xlink="http://www.w3.org/1999/xlink" width="1440pt" height="1440pt" viewBox="0 0 1440 1440" xmlns="http://www.w3.org/2000/svg" version="1.1">
 <metadata>
  <rdf:RDF xmlns:dc="http://purl.org/dc/elements/1.1/" xmlns:cc="http://creativecommons.org/ns#" xmlns:rdf="http://www.w3.org/1999/02/22-rdf-syntax-ns#">
   <cc:Work>
    <dc:type rdf:resource="http://purl.org/dc/dcmitype/StillImage"/>
    <dc:date>2026-02-27T11:10:09.780363</dc:date>
    <dc:format>image/svg+xml</dc:format>
    <dc:creator>
     <cc:Agent>
      <dc:title>Matplotlib v3.7.3, https://matplotlib.org/</dc:title>
     </cc:Agent>
    </dc:creator>
   </cc:Work>
  </rdf:RDF>
 </metadata>
 <defs>
  <style type="text/css">*{stroke-linejoin: round; stroke-linecap: butt}</style>
 </defs>
 <g id="figure_1">
  <g id="patch_1">
   <path d="M 0 1440 
L 1440 1440 
L 1440 0 
L 0 0 
z
" style="fill: #ffffff"/>
  </g>
  <g id="axes_1">
   <g id="line2d_1">
    <path d="M 986.171762 371.13606 
L 990.684742 358.534241 
L 990.383877 344.121382 
L 983.012675 330.689503 
L 969.172868 318.766824 
L 948.864455 308.881564 
L 922.689168 301.712865 
L 916.370995 300.505505 
" clip-path="url(#p53f6ce8c0a)" style="fill: none; stroke: #7a7a7a; stroke-width: 3; stroke-linecap: square"/>
   </g>
   <g id="line2d_2">
    <path d="M 1047.397865 383.73788 
L 1052.512577 374.98452 
L 1055.972528 361.703561 
L 1054.468202 347.818922 
L 1048.751759 333.783363 
L 1038.973635 320.049643 
L 1025.735558 307.070524 
L 1009.187963 295.298765 
L 989.782146 285.262585 
L 967.969407 277.414746 
L 944.201042 272.132546 
L 937.882869 270.925186 
" clip-path="url(#p53f6ce8c0a)" style="fill: none; stroke: #7a7a7a; stroke-width: 3; stroke-linecap: square"/>
   </g>
   <g id="line2d_3">
    <path d="M 1073.874018 256.738707 
L 1065.299355 267.831327 
L 1050.707384 280.961366 
L 1029.345943 291.450305 
L 1003.170655 299.071765 
L 974.137147 303.372984 
L 944.65234 303.976664 
L 916.370995 300.505505 
" clip-path="url(#p53f6ce8c0a)" style="fill: none; stroke: #7a7a7a; stroke-width: 3; stroke-linecap: square"/>
   </g>
   <g id="line2d_4">
    <path d="M 1015.957434 243.910508 
L 1009.940126 251.984727 
L 1006.329742 256.210487 
L 1000.6133 261.190847 
L 995.348156 264.586547 
L 988.428252 267.831327 
L 981.658781 270.170586 
L 975.340608 271.528866 
L 966.916378 272.585306 
L 958.793013 272.887146 
L 947.811427 272.283466 
L 937.882869 270.925186 
" clip-path="url(#p53f6ce8c0a)" style="fill: none; stroke: #7a7a7a; stroke-width: 3; stroke-linecap: square"/>
   </g>
   <g id="line2d_5">
    <path d="M 986.171762 371.13606 
L 628.593265 827.065354 
L 627.690669 828.197253 
L 627.389804 828.499093 
L 626.63764 829.555533 
L 626.336775 829.932833 
" clip-path="url(#p53f6ce8c0a)" style="fill: none; stroke: #7a7a7a; stroke-width: 3; stroke-linecap: square"/>
   </g>
   <g id="line2d_6">
    <path d="M 925.998687 359.892521 
L 914.866668 374.15446 
L 911.557149 378.75752 
L 903.584217 388.793699 
L 599.108459 781.336596 
L 592.639853 790.165416 
L 563.606345 827.065354 
L 562.703748 828.197253 
L 562.402883 828.499093 
L 561.65072 829.555533 
L 561.349854 829.932833 
" clip-path="url(#p53f6ce8c0a)" style="fill: none; stroke: #7a7a7a; stroke-width: 3; stroke-linecap: square"/>
   </g>
   <g id="line2d_7">
    <path d="M 1073.874018 256.738707 
L 986.171762 371.13606 
" clip-path="url(#p53f6ce8c0a)" style="fill: none; stroke: #7a7a7a; stroke-width: 3; stroke-linecap: square"/>
   </g>
   <g id="line2d_8">
    <path d="M 1015.957434 243.910508 
L 1009.940126 251.984727 
L 1006.329742 256.210487 
L 925.998687 359.892521 
" clip-path="url(#p53f6ce8c0a)" style="fill: none; stroke: #7a7a7a; stroke-width: 3; stroke-linecap: square"/>
   </g>
   <g id="line2d_9">
    <path d="M 1073.874018 256.738707 
L 1156.160698 150.792873 
" clip-path="url(#p53f6ce8c0a)" style="fill: none; stroke: #7a7a7a; stroke-width: 3; stroke-linecap: square"/>
   </g>
   <g id="line2d_10">
    <path d="M 1134.799256 269.566906 
L 1226.713628 150.792873 
" clip-path="url(#p53f6ce8c0a)" style="fill: none; stroke: #7a7a7a; stroke-width: 3; stroke-linecap: square"/>
   </g>
   <g id="line2d_11">
    <path d="M 986.171762 371.13606 
L 994.595992 359.590681 
L 1006.78104 351.290082 
L 1020.019116 346.687022 
L 1041.079692 341.782122 
L 1066.051518 339.216482 
L 1091.173777 338.990102 
L 1112.836084 340.046542 
L 1150.594688 347.064322 
" clip-path="url(#p53f6ce8c0a)" style="fill: none; stroke: #7a7a7a; stroke-width: 3; stroke-linecap: square"/>
   </g>
   <g id="line2d_12">
    <path d="M 1047.397865 383.73788 
L 1049.804788 381.32316 
L 1054.769067 378.07838 
L 1057.476855 376.49372 
L 1062.441134 374.38084 
L 1067.706278 372.79618 
L 1073.272287 371.8152 
L 1078.838297 371.28698 
L 1088.014691 371.36244 
L 1097.191085 372.1925 
L 1107.119642 373.7017 
L 1109.376132 374.079 
L 1130.436708 377.92746 
" clip-path="url(#p53f6ce8c0a)" style="fill: none; stroke: #7a7a7a; stroke-width: 3; stroke-linecap: square"/>
   </g>
   <g id="line2d_13">
    <path d="M 916.370995 300.505505 
L 944.65234 303.976664 
L 974.137147 303.372984 
L 1003.170655 299.071765 
L 1029.345943 291.450305 
L 1050.707384 280.961366 
L 1065.299355 267.831327 
L 1073.874018 256.738707 
" clip-path="url(#p53f6ce8c0a)" style="fill: none; stroke: #7a7a7a; stroke-width: 3; stroke-linecap: square"/>
   </g>
   <g id="line2d_14">
    <path d="M 894.708688 332.123243 
L 921.636139 336.273542 
L 949.466186 337.858202 
L 977.145801 337.254522 
L 1004.374117 334.537963 
L 1030.549404 329.859443 
L 1055.069932 323.294423 
L 1077.484403 314.918364 
L 1097.191085 304.806724 
L 1113.889113 293.185885 
L 1126.826324 279.980386 
L 1134.799256 269.566906 
" clip-path="url(#p53f6ce8c0a)" style="fill: none; stroke: #7a7a7a; stroke-width: 3; stroke-linecap: square"/>
   </g>
   <g id="line2d_15">
    <path d="M 1150.594688 347.064322 
L 916.370995 300.505505 
" clip-path="url(#p53f6ce8c0a)" style="fill: none; stroke: #7a7a7a; stroke-width: 3; stroke-linecap: square"/>
   </g>
   <g id="line2d_16">
    <path d="M 1170.150938 316.578484 
L 937.882869 270.925186 
" clip-path="url(#p53f6ce8c0a)" style="fill: none; stroke: #7a7a7a; stroke-width: 3; stroke-linecap: square"/>
   </g>
   <g id="line2d_17">
    <path d="M 986.171762 371.13606 
L 1073.874018 256.738707 
" clip-path="url(#p53f6ce8c0a)" style="fill: none; stroke: #7a7a7a; stroke-width: 3; stroke-linecap: square"/>
   </g>
   <g id="line2d_18">
    <path d="M 1047.397865 383.73788 
L 1134.799256 269.566906 
" clip-path="url(#p53f6ce8c0a)" style="fill: none; stroke: #7a7a7a; stroke-width: 3; stroke-linecap: square"/>
   </g>
   <g id="line2d_19">
    <path d="M -1 974.670997 
L 144.801745 1003.038063 
L 145.403475 1003.188983 
L 147.810398 1003.641743 
" clip-path="url(#p53f6ce8c0a)" style="fill: none; stroke: #7a7a7a; stroke-width: 3; stroke-linecap: square"/>
   </g>
   <g id="line2d_20">
    <path d="M -1 1009.06363 
L 99.972804 1028.619002 
L 144.801745 1037.976041 
L 145.403475 1038.051501 
L 147.810398 1038.504261 
" clip-path="url(#p53f6ce8c0a)" style="fill: none; stroke: #7a7a7a; stroke-width: 3; stroke-linecap: square"/>
   </g>
   <g id="line2d_21">
    <path d="M 916.370995 300.505505 
L 922.689168 301.712865 
L 948.864455 308.881564 
L 969.172868 318.766824 
L 983.012675 330.689503 
L 990.383877 344.121382 
L 990.684742 358.534241 
L 986.171762 371.13606 
" clip-path="url(#p53f6ce8c0a)" style="fill: none; stroke: #7a7a7a; stroke-width: 3; stroke-linecap: square"/>
   </g>
   <g id="line2d_22">
    <path d="M 894.708688 332.123243 
L 900.124265 333.556983 
L 903.734649 334.160663 
L 911.256284 337.028142 
L 917.123158 339.744702 
L 921.335274 342.385802 
L 924.945658 345.555122 
L 926.75085 348.347142 
L 927.954312 352.497442 
L 926.901283 357.025041 
L 925.998687 359.892521 
" clip-path="url(#p53f6ce8c0a)" style="fill: none; stroke: #7a7a7a; stroke-width: 3; stroke-linecap: square"/>
   </g>
   <g id="line2d_23">
    <path d="M 626.336775 829.932833 
L 626.63764 829.555533 
L 627.389804 828.499093 
L 627.690669 828.197253 
L 628.593265 827.065354 
L 986.171762 371.13606 
" clip-path="url(#p53f6ce8c0a)" style="fill: none; stroke: #7a7a7a; stroke-width: 3; stroke-linecap: square"/>
   </g>
   <g id="line2d_24">
    <path d="M 702.004416 829.932833 
L 702.305282 829.555533 
L 703.207878 828.499093 
L 703.358311 828.272713 
L 704.260907 827.065354 
L 761.726193 752.812718 
L 773.30951 737.192499 
L 820.846239 675.315302 
L 882.222775 596.006847 
L 1040.327529 391.585719 
L 1047.397865 383.73788 
" clip-path="url(#p53f6ce8c0a)" style="fill: none; stroke: #7a7a7a; stroke-width: 3; stroke-linecap: square"/>
   </g>
   <g id="line2d_25">
    <path d="M 916.370995 300.505505 
L 1150.594688 347.064322 
" clip-path="url(#p53f6ce8c0a)" style="fill: none; stroke: #7a7a7a; stroke-width: 3; stroke-linecap: square"/>
   </g>
   <g id="line2d_26">
    <path d="M 894.708688 332.123243 
L 1107.119642 373.7017 
L 1130.436708 377.92746 
" clip-path="url(#p53f6ce8c0a)" style="fill: none; stroke: #7a7a7a; stroke-width: 3; stroke-linecap: square"/>
   </g>
   <g id="line2d_27">
    <path d="M 1156.160698 150.792873 
L 1073.874018 256.738707 
" clip-path="url(#p53f6ce8c0a)" style="fill: none; stroke: #7a7a7a; stroke-width: 3; stroke-linecap: square"/>
   </g>
   <g id="line2d_28">
    <path d="M 1088.165123 150.792873 
L 1015.957434 243.910508 
" clip-path="url(#p53f6ce8c0a)" style="fill: none; stroke: #7a7a7a; stroke-width: 3; stroke-linecap: square"/>
   </g>
   <g id="line2d_29">
    <path d="M -1 126.345208 
L 916.370995 300.505505 
" clip-path="url(#p53f6ce8c0a)" style="fill: none; stroke: #7a7a7a; stroke-width: 3; stroke-linecap: square"/>
   </g>
   <g id="line2d_30">
    <path d="M -1 158.655628 
L 797.37874 313.635544 
L 894.708688 332.123243 
" clip-path="url(#p53f6ce8c0a)" style="fill: none; stroke: #7a7a7a; stroke-width: 3; stroke-linecap: square"/>
   </g>
   <g id="line2d_31">
    <path d="M 1150.594688 347.064322 
L 1441 403.921554 
" clip-path="url(#p53f6ce8c0a)" style="fill: none; stroke: #7a7a7a; stroke-width: 3; stroke-linecap: square"/>
   </g>
   <g id="line2d_32">
    <path d="M 1130.436708 377.92746 
L 1307.044683 412.940898 
L 1364.058671 424.033517 
L 1392.941747 429.391177 
L 1421.223092 434.975217 
L 1441 438.850407 
" clip-path="url(#p53f6ce8c0a)" style="fill: none; stroke: #7a7a7a; stroke-width: 3; stroke-linecap: square"/>
   </g>
   <g id="line2d_33">
    <path d="M 1150.594688 347.064322 
L 1127.277622 341.253902 
L 1106.668344 332.953303 
L 1089.368585 322.690743 
L 1075.980076 310.994444 
L 1066.954115 298.241705 
L 1062.892432 285.036206 
L 1064.396759 271.906166 
L 1071.918393 259.228887 
L 1073.874018 256.738707 
" clip-path="url(#p53f6ce8c0a)" style="fill: none; stroke: #7a7a7a; stroke-width: 3; stroke-linecap: square"/>
   </g>
   <g id="line2d_34">
    <path d="M 1170.150938 316.578484 
L 1160.22238 314.465604 
L 1152.399881 312.277264 
L 1145.931275 309.787084 
L 1139.913968 306.391384 
L 1134.799256 302.241084 
L 1130.436708 296.807965 
L 1128.029785 291.903065 
L 1127.127189 287.601845 
L 1127.428055 284.130686 
L 1128.932381 280.357686 
L 1132.091468 275.377326 
L 1132.843631 272.057086 
L 1134.799256 269.566906 
" clip-path="url(#p53f6ce8c0a)" style="fill: none; stroke: #7a7a7a; stroke-width: 3; stroke-linecap: square"/>
   </g>
   <g id="line2d_35">
    <path d="M 1073.874018 256.738707 
L 1071.918393 259.228887 
L 1064.396759 271.906166 
L 1062.892432 285.036206 
L 1066.954115 298.241705 
L 1075.980076 310.994444 
L 1089.368585 322.690743 
L 1106.668344 332.953303 
L 1127.277622 341.253902 
L 1150.594688 347.064322 
" clip-path="url(#p53f6ce8c0a)" style="fill: none; stroke: #7a7a7a; stroke-width: 3; stroke-linecap: square"/>
   </g>
   <g id="line2d_36">
    <path d="M 1015.957434 243.910508 
L 1014.60354 245.721548 
L 1006.78104 259.153427 
L 1003.321088 273.566286 
L 1004.374117 288.356445 
L 1009.338396 303.071144 
L 1018.063491 317.408544 
L 1030.248539 331.142263 
L 1045.44224 343.819542 
L 1063.34373 355.138541 
L 1083.652143 364.872881 
L 1106.066613 372.5698 
L 1130.436708 377.92746 
" clip-path="url(#p53f6ce8c0a)" style="fill: none; stroke: #7a7a7a; stroke-width: 3; stroke-linecap: square"/>
   </g>
   <g id="line2d_37">
    <path d="M 147.810398 1003.641743 
L 145.403475 1003.188983 
L 144.801745 1003.038063 
L -1 974.670997 
" clip-path="url(#p53f6ce8c0a)" style="fill: none; stroke: #7a7a7a; stroke-width: 3; stroke-linecap: square"/>
   </g>
   <g id="line2d_38">
    <path d="M 147.810398 969.081065 
L 145.403475 968.628305 
L 55.745594 951.272506 
L -1 940.182881 
" clip-path="url(#p53f6ce8c0a)" style="fill: none; stroke: #7a7a7a; stroke-width: 3; stroke-linecap: square"/>
   </g>
   <g id="line2d_39">
    <path d="M 1441 403.921554 
L 1150.594688 347.064322 
" clip-path="url(#p53f6ce8c0a)" style="fill: none; stroke: #7a7a7a; stroke-width: 3; stroke-linecap: square"/>
   </g>
   <g id="line2d_40">
    <path d="M 1441 368.352625 
L 1256.048002 333.028763 
L 1191.211514 320.728783 
L 1170.150938 316.578484 
" clip-path="url(#p53f6ce8c0a)" style="fill: none; stroke: #7a7a7a; stroke-width: 3; stroke-linecap: square"/>
   </g>
   <g id="line2d_41">
    <path d="M 916.370995 300.505505 
L -1 126.345208 
" clip-path="url(#p53f6ce8c0a)" style="fill: none; stroke: #7a7a7a; stroke-width: 3; stroke-linecap: square"/>
   </g>
   <g id="line2d_42">
    <path d="M 937.882869 270.925186 
L 936.980273 270.774266 
L 899.522534 263.756487 
L 253.263712 139.096574 
L -1 89.505827 
" clip-path="url(#p53f6ce8c0a)" style="fill: none; stroke: #7a7a7a; stroke-width: 3; stroke-linecap: square"/>
   </g>
   <g id="line2d_43">
    <path d="M 1150.594688 347.064322 
L 1112.836084 340.046542 
L 1091.173777 338.990102 
L 1066.051518 339.216482 
L 1041.079692 341.782122 
L 1020.019116 346.687022 
L 1006.78104 351.290082 
L 994.595992 359.590681 
L 986.171762 371.13606 
" clip-path="url(#p53f6ce8c0a)" style="fill: none; stroke: #7a7a7a; stroke-width: 3; stroke-linecap: square"/>
   </g>
   <g id="line2d_44">
    <path d="M 1170.150938 316.578484 
L 1145.329544 311.673584 
L 1117.64993 308.428804 
L 1089.218152 307.674204 
L 1060.635942 309.258864 
L 1032.655462 313.107324 
L 1005.878444 318.917744 
L 981.05705 326.690123 
L 959.093878 336.198082 
L 940.440225 347.290702 
L 925.998687 359.892521 
" clip-path="url(#p53f6ce8c0a)" style="fill: none; stroke: #7a7a7a; stroke-width: 3; stroke-linecap: square"/>
   </g>
   <g id="line2d_45">
    <path d="M 1441 1254.724239 
L 558.792499 1083.478418 
" clip-path="url(#p53f6ce8c0a)" style="fill: none; stroke: #7a7a7a; stroke-width: 3; stroke-linecap: square"/>
   </g>
   <g id="line2d_46">
    <path d="M 1441 1220.084409 
L 1333.671268 1199.384972 
L 1302.983 1193.272712 
L 709.375618 1078.045299 
L 696.137542 1075.856959 
L 644.990428 1065.594399 
L 581.507834 1053.21896 
" clip-path="url(#p53f6ce8c0a)" style="fill: none; stroke: #7a7a7a; stroke-width: 3; stroke-linecap: square"/>
   </g>
   <g id="line2d_47">
    <path d="M 157.29935 1441 
L 405.050293 1119.925596 
" clip-path="url(#p53f6ce8c0a)" style="fill: none; stroke: #7a7a7a; stroke-width: 3; stroke-linecap: square"/>
   </g>
   <g id="line2d_48">
    <path d="M 223.421428 1441 
L 234.15876 1426.896858 
L 257.475827 1398.59936 
L 351.345823 1279.598947 
L 365.035198 1261.941308 
L 455.144377 1141.658075 
L 464.922502 1131.018216 
" clip-path="url(#p53f6ce8c0a)" style="fill: none; stroke: #7a7a7a; stroke-width: 3; stroke-linecap: square"/>
   </g>
   <g id="line2d_49">
    <path d="M 405.050293 1119.925596 
L 408.359812 1115.699836 
L 423.102215 1103.475317 
L 440.101109 1093.665518 
L 459.506925 1086.194978 
L 481.169232 1081.365539 
L 505.088029 1079.177199 
L 530.962452 1079.856339 
L 558.792499 1083.478418 
" clip-path="url(#p53f6ce8c0a)" style="fill: none; stroke: #7a7a7a; stroke-width: 3; stroke-linecap: square"/>
   </g>
   <g id="line2d_50">
    <path d="M 464.922502 1131.018216 
L 467.329425 1128.226196 
L 471.691973 1125.509636 
L 475.151925 1122.717616 
L 479.815338 1120.001056 
L 485.53178 1117.209036 
L 491.248222 1115.096157 
L 498.168126 1113.285117 
L 507.645385 1111.851377 
L 512.308798 1111.624997 
L 519.078269 1111.851377 
L 535.174567 1113.662417 
" clip-path="url(#p53f6ce8c0a)" style="fill: none; stroke: #7a7a7a; stroke-width: 3; stroke-linecap: square"/>
   </g>
   <g id="line2d_51">
    <path d="M 626.336775 829.932833 
L 495.460337 1004.622723 
" clip-path="url(#p53f6ce8c0a)" style="fill: none; stroke: #7a7a7a; stroke-width: 3; stroke-linecap: square"/>
   </g>
   <g id="line2d_52">
    <path d="M 561.349854 829.932833 
L 483.124857 930.521007 
L 436.641157 993.454644 
L 435.588128 994.586544 
" clip-path="url(#p53f6ce8c0a)" style="fill: none; stroke: #7a7a7a; stroke-width: 3; stroke-linecap: square"/>
   </g>
   <g id="line2d_53">
    <path d="M 558.792499 1083.478418 
L 350.744093 1043.107321 
" clip-path="url(#p53f6ce8c0a)" style="fill: none; stroke: #7a7a7a; stroke-width: 3; stroke-linecap: square"/>
   </g>
   <g id="line2d_54">
    <path d="M 581.507834 1053.21896 
L 373.760294 1011.640503 
" clip-path="url(#p53f6ce8c0a)" style="fill: none; stroke: #7a7a7a; stroke-width: 3; stroke-linecap: square"/>
   </g>
   <g id="line2d_55">
    <path d="M 558.792499 1083.478418 
L 1441 1254.724239 
" clip-path="url(#p53f6ce8c0a)" style="fill: none; stroke: #7a7a7a; stroke-width: 3; stroke-linecap: square"/>
   </g>
   <g id="line2d_56">
    <path d="M 535.174567 1113.662417 
L 552.474326 1116.680816 
L 651.910332 1136.224955 
L 774.212106 1159.919394 
L 845.366767 1173.954953 
L 1390.986122 1279.749867 
L 1411.144102 1283.673787 
L 1441 1289.457739 
" clip-path="url(#p53f6ce8c0a)" style="fill: none; stroke: #7a7a7a; stroke-width: 3; stroke-linecap: square"/>
   </g>
   <g id="line2d_57">
    <path d="M 558.792499 1083.478418 
L 530.962452 1079.856339 
L 505.088029 1079.177199 
L 481.169232 1081.365539 
L 459.506925 1086.194978 
L 440.101109 1093.665518 
L 423.102215 1103.475317 
L 408.359812 1115.699836 
L 405.050293 1119.925596 
" clip-path="url(#p53f6ce8c0a)" style="fill: none; stroke: #7a7a7a; stroke-width: 3; stroke-linecap: square"/>
   </g>
   <g id="line2d_58">
    <path d="M 581.507834 1053.21896 
L 554.429951 1048.76682 
L 526.449471 1046.804861 
L 498.318558 1047.257621 
L 470.638944 1049.97418 
L 444.012359 1054.80362 
L 419.040533 1061.51956 
L 396.47563 1070.121999 
L 376.768948 1080.384559 
L 360.67265 1092.156318 
L 348.788468 1105.361817 
L 345.478949 1109.512117 
" clip-path="url(#p53f6ce8c0a)" style="fill: none; stroke: #7a7a7a; stroke-width: 3; stroke-linecap: square"/>
   </g>
   <g id="line2d_59">
    <path d="M 405.050293 1119.925596 
L 495.460337 1004.622723 
" clip-path="url(#p53f6ce8c0a)" style="fill: none; stroke: #7a7a7a; stroke-width: 3; stroke-linecap: square"/>
   </g>
   <g id="line2d_60">
    <path d="M 464.922502 1131.018216 
L 557.438604 1015.413502 
" clip-path="url(#p53f6ce8c0a)" style="fill: none; stroke: #7a7a7a; stroke-width: 3; stroke-linecap: square"/>
   </g>
   <g id="line2d_61">
    <path d="M 147.810398 1003.641743 
L 148.863427 1003.868123 
L 350.744093 1043.107321 
" clip-path="url(#p53f6ce8c0a)" style="fill: none; stroke: #7a7a7a; stroke-width: 3; stroke-linecap: square"/>
   </g>
   <g id="line2d_62">
    <path d="M 147.810398 1038.504261 
L 148.863427 1038.730641 
L 223.778905 1052.61528 
L 284.403278 1064.76434 
L 313.286354 1069.971079 
L 328.630488 1073.668619 
" clip-path="url(#p53f6ce8c0a)" style="fill: none; stroke: #7a7a7a; stroke-width: 3; stroke-linecap: square"/>
   </g>
   <g id="line2d_63">
    <path d="M 558.792499 1083.478418 
L 536.378028 1077.139779 
L 517.273077 1068.914639 
L 502.229808 1059.10484 
L 491.69952 1047.8613 
L 486.283944 1035.561321 
L 486.283944 1022.280362 
L 492.451684 1008.395723 
L 495.460337 1004.622723 
" clip-path="url(#p53f6ce8c0a)" style="fill: none; stroke: #7a7a7a; stroke-width: 3; stroke-linecap: square"/>
   </g>
   <g id="line2d_64">
    <path d="M 581.507834 1053.21896 
L 580.755671 1052.99258 
L 573.685335 1051.257 
L 565.712402 1048.16314 
L 558.642066 1044.239221 
L 554.730816 1040.692601 
L 551.57173 1035.184021 
L 550.969999 1029.071762 
L 553.076056 1022.506742 
L 557.438604 1015.413502 
" clip-path="url(#p53f6ce8c0a)" style="fill: none; stroke: #7a7a7a; stroke-width: 3; stroke-linecap: square"/>
   </g>
   <g id="line2d_65">
    <path d="M 350.744093 1043.107321 
L 378.724572 1051.257 
L 399.183418 1061.29318 
L 412.271062 1073.064939 
L 418.288369 1086.044058 
L 417.385773 1099.928697 
L 409.713706 1114.341557 
L 405.050293 1119.925596 
" clip-path="url(#p53f6ce8c0a)" style="fill: none; stroke: #7a7a7a; stroke-width: 3; stroke-linecap: square"/>
   </g>
   <g id="line2d_66">
    <path d="M 328.630488 1073.668619 
L 334.798228 1075.630579 
L 341.417266 1078.498059 
L 346.832843 1081.440999 
L 351.797122 1084.987618 
L 354.956208 1088.081478 
L 356.159669 1090.873498 
L 356.009237 1093.665518 
L 354.956208 1096.382078 
L 351.195391 1101.815197 
L 350.894525 1102.569797 
L 345.478949 1109.512117 
" clip-path="url(#p53f6ce8c0a)" style="fill: none; stroke: #7a7a7a; stroke-width: 3; stroke-linecap: square"/>
   </g>
   <g id="line2d_67">
    <path d="M 405.050293 1119.925596 
L 409.713706 1114.341557 
L 417.385773 1099.928697 
L 418.288369 1086.044058 
L 412.271062 1073.064939 
L 399.183418 1061.29318 
L 378.724572 1051.257 
L 350.744093 1043.107321 
" clip-path="url(#p53f6ce8c0a)" style="fill: none; stroke: #7a7a7a; stroke-width: 3; stroke-linecap: square"/>
   </g>
   <g id="line2d_68">
    <path d="M 464.922502 1131.018216 
L 469.585915 1125.509636 
L 477.558848 1111.247697 
L 480.417069 1096.834838 
L 478.461444 1082.648358 
L 472.444136 1068.839179 
L 462.666012 1055.86006 
L 449.427935 1043.861921 
L 433.48207 1033.297521 
L 414.97885 1024.393242 
L 394.369572 1017.375462 
L 373.760294 1011.640503 
" clip-path="url(#p53f6ce8c0a)" style="fill: none; stroke: #7a7a7a; stroke-width: 3; stroke-linecap: square"/>
   </g>
   <g id="line2d_69">
    <path d="M 350.744093 1043.107321 
L 148.863427 1003.868123 
L 147.810398 1003.641743 
" clip-path="url(#p53f6ce8c0a)" style="fill: none; stroke: #7a7a7a; stroke-width: 3; stroke-linecap: square"/>
   </g>
   <g id="line2d_70">
    <path d="M 373.760294 1011.640503 
L 371.955102 1011.414123 
L 357.663996 1008.999403 
L 335.249526 1004.471803 
L 148.712994 969.307445 
L 147.810398 969.081065 
" clip-path="url(#p53f6ce8c0a)" style="fill: none; stroke: #7a7a7a; stroke-width: 3; stroke-linecap: square"/>
   </g>
   <g id="line2d_71">
    <path d="M 495.460337 1004.622723 
L 626.336775 829.932833 
" clip-path="url(#p53f6ce8c0a)" style="fill: none; stroke: #7a7a7a; stroke-width: 3; stroke-linecap: square"/>
   </g>
   <g id="line2d_72">
    <path d="M 557.438604 1015.413502 
L 702.004416 829.932833 
" clip-path="url(#p53f6ce8c0a)" style="fill: none; stroke: #7a7a7a; stroke-width: 3; stroke-linecap: square"/>
   </g>
   <g id="line2d_73">
    <path d="M 350.744093 1043.107321 
L 558.792499 1083.478418 
" clip-path="url(#p53f6ce8c0a)" style="fill: none; stroke: #7a7a7a; stroke-width: 3; stroke-linecap: square"/>
   </g>
   <g id="line2d_74">
    <path d="M 328.630488 1073.668619 
L 535.174567 1113.662417 
" clip-path="url(#p53f6ce8c0a)" style="fill: none; stroke: #7a7a7a; stroke-width: 3; stroke-linecap: square"/>
   </g>
   <g id="line2d_75">
    <path d="M 405.050293 1119.925596 
L 157.29935 1441 
" clip-path="url(#p53f6ce8c0a)" style="fill: none; stroke: #7a7a7a; stroke-width: 3; stroke-linecap: square"/>
   </g>
   <g id="line2d_76">
    <path d="M 345.478949 1109.512117 
L 287.86323 1181.727333 
L 188.427224 1309.632025 
L 169.17184 1334.835664 
L 94.858093 1430.971698 
L 86.869384 1441 
" clip-path="url(#p53f6ce8c0a)" style="fill: none; stroke: #7a7a7a; stroke-width: 3; stroke-linecap: square"/>
   </g>
   <g id="line2d_77">
    <path d="M 495.460337 1004.622723 
L 492.451684 1008.395723 
L 486.283944 1022.280362 
L 486.283944 1035.561321 
L 491.69952 1047.8613 
L 502.229808 1059.10484 
L 517.273077 1068.914639 
L 536.378028 1077.139779 
L 558.792499 1083.478418 
" clip-path="url(#p53f6ce8c0a)" style="fill: none; stroke: #7a7a7a; stroke-width: 3; stroke-linecap: square"/>
   </g>
   <g id="line2d_78">
    <path d="M 435.588128 994.586544 
L 432.579474 998.359543 
L 424.155244 1011.338663 
L 421.14659 1024.996922 
L 422.80135 1039.032481 
L 428.818657 1052.99258 
L 438.747215 1066.424459 
L 452.436589 1079.101739 
L 469.28505 1090.571658 
L 488.841299 1100.381457 
L 510.954904 1108.229297 
L 535.174567 1113.662417 
" clip-path="url(#p53f6ce8c0a)" style="fill: none; stroke: #7a7a7a; stroke-width: 3; stroke-linecap: square"/>
   </g>
   <g id="line2d_79">
    <path d="M 495.460337 1004.622723 
L 405.050293 1119.925596 
" clip-path="url(#p53f6ce8c0a)" style="fill: none; stroke: #7a7a7a; stroke-width: 3; stroke-linecap: square"/>
   </g>
   <g id="line2d_80">
    <path d="M 435.588128 994.586544 
L 345.478949 1109.512117 
" clip-path="url(#p53f6ce8c0a)" style="fill: none; stroke: #7a7a7a; stroke-width: 3; stroke-linecap: square"/>
   </g>
   <g id="line2d_81">
    <path d="M 350.744093 1043.107321 
L 383.538418 1046.276641 
L 413.32409 1045.371121 
L 439.198513 1040.994441 
L 460.559954 1034.052121 
L 476.957117 1025.223302 
L 487.336972 1015.187122 
L 495.460337 1004.622723 
" clip-path="url(#p53f6ce8c0a)" style="fill: none; stroke: #7a7a7a; stroke-width: 3; stroke-linecap: square"/>
   </g>
   <g id="line2d_82">
    <path d="M 328.630488 1073.668619 
L 359.168323 1077.894379 
L 390.007024 1079.026279 
L 420.394427 1077.441619 
L 449.578368 1073.291319 
L 476.806684 1067.028139 
L 501.026347 1058.87846 
L 521.786058 1049.14412 
L 538.18322 1038.051501 
L 549.315239 1025.977902 
L 557.438604 1015.413502 
" clip-path="url(#p53f6ce8c0a)" style="fill: none; stroke: #7a7a7a; stroke-width: 3; stroke-linecap: square"/>
   </g>
   <g id="line2d_83">
    <path d="M 495.460337 1004.622723 
L 487.336972 1015.187122 
L 476.957117 1025.223302 
L 460.559954 1034.052121 
L 439.198513 1040.994441 
L 413.32409 1045.371121 
L 383.538418 1046.276641 
L 350.744093 1043.107321 
" clip-path="url(#p53f6ce8c0a)" style="fill: none; stroke: #7a7a7a; stroke-width: 3; stroke-linecap: square"/>
   </g>
   <g id="line2d_84">
    <path d="M 435.588128 994.586544 
L 429.871686 1001.528863 
L 424.305677 1004.169963 
L 422.199619 1005.452783 
L 412.872792 1009.150323 
L 399.785149 1012.168723 
L 391.962649 1012.847863 
L 381.883659 1012.696943 
L 373.760294 1011.640503 
" clip-path="url(#p53f6ce8c0a)" style="fill: none; stroke: #7a7a7a; stroke-width: 3; stroke-linecap: square"/>
   </g>
   <g id="line2d_85">
    <path d="M 1092.381499 319.722122 
L 1098.367956 318.65636 
" clip-path="url(#p53f6ce8c0a)" style="fill: none; stroke-dasharray: 32,8,5,8; stroke-dashoffset: 0; stroke: #1e90ff; stroke-width: 5"/>
   </g>
   <g id="line2d_86">
    <path d="M 408.812579 1192.787454 
L 415.015724 1185.287512 
" clip-path="url(#p53f6ce8c0a)" style="fill: none; stroke-dasharray: 32,8,5,8; stroke-dashoffset: 0; stroke: #1e90ff; stroke-width: 5"/>
   </g>
   <g id="line2d_87">
    <path d="M 1011.222771 427.347493 
L 976.504993 437.017648 
" clip-path="url(#p53f6ce8c0a)" style="fill: none; stroke-dasharray: 32,8,5,8; stroke-dashoffset: 0; stroke: #1e90ff; stroke-width: 5"/>
   </g>
   <g id="line2d_88">
    <path d="M 672.257087 815.069278 
L 829.304258 598.636709 
" clip-path="url(#p53f6ce8c0a)" style="fill: none; stroke-dasharray: 32,8,5,8; stroke-dashoffset: 0; stroke: #1e90ff; stroke-width: 5"/>
   </g>
   <g id="line2d_89">
    <path d="M 903.393091 529.65603 
L 891.405486 544.499321 
" clip-path="url(#p53f6ce8c0a)" style="fill: none; stroke-dasharray: 32,8,5,8; stroke-dashoffset: 0; stroke: #1e90ff; stroke-width: 5"/>
   </g>
   <g id="line2d_90">
    <path d="M 1128.924595 134.604715 
L 1131.609319 132.010777 
" clip-path="url(#p53f6ce8c0a)" style="fill: none; stroke-dasharray: 32,8,5,8; stroke-dashoffset: 0; stroke: #1e90ff; stroke-width: 5"/>
   </g>
   <g id="line2d_91">
    <path d="M 604.948009 812.78116 
L 300.865374 1213.620013 
" clip-path="url(#p53f6ce8c0a)" style="fill: none; stroke-dasharray: 32,8,5,8; stroke-dashoffset: 0; stroke: #1e90ff; stroke-width: 5"/>
   </g>
   <g id="line2d_92">
    <path d="M 995.136463 339.866588 
L 1214.35097 37.729998 
" clip-path="url(#p53f6ce8c0a)" style="fill: none; stroke-dasharray: 32,8,5,8; stroke-dashoffset: 0; stroke: #1e90ff; stroke-width: 5"/>
   </g>
   <g id="line2d_93">
    <path d="M 666.726042 841.316313 
L 662.91748 830.68817 
" clip-path="url(#p53f6ce8c0a)" style="fill: none; stroke-dasharray: 32,8,5,8; stroke-dashoffset: 0; stroke: #1e90ff; stroke-width: 5"/>
   </g>
   <g id="line2d_94">
    <path d="M 777.552623 661.452181 
L 960.235051 405.825919 
" clip-path="url(#p53f6ce8c0a)" style="fill: none; stroke-dasharray: 32,8,5,8; stroke-dashoffset: 0; stroke: #1e90ff; stroke-width: 5"/>
   </g>
   <g id="line2d_95">
    <path d="M 1092.381499 319.722122 
" clip-path="url(#p53f6ce8c0a)" style="fill: none; stroke: #0000ff; stroke-width: 1.5; stroke-linecap: square"/>
    <defs>
     <path id="m931c003098" d="M 0 10 
C 2.652031 10 5.195799 8.946337 7.071068 7.071068 
C 8.946337 5.195799 10 2.652031 10 0 
C 10 -2.652031 8.946337 -5.195799 7.071068 -7.071068 
C 5.195799 -8.946337 2.652031 -10 0 -10 
C -2.652031 -10 -5.195799 -8.946337 -7.071068 -7.071068 
C -8.946337 -5.195799 -10 -2.652031 -10 0 
C -10 2.652031 -8.946337 5.195799 -7.071068 7.071068 
C -5.195799 8.946337 -2.652031 10 0 10 
z
" style="stroke: #0000ff"/>
    </defs>
    <g clip-path="url(#p53f6ce8c0a)">
     <use xlink:href="#m931c003098" x="1092.381499" y="319.722122" style="fill: #0000ff; stroke: #0000ff"/>
    </g>
   </g>
   <g id="line2d_96">
    <path d="M 408.812579 1192.787454 
" clip-path="url(#p53f6ce8c0a)" style="fill: none; stroke: #0000ff; stroke-width: 1.5; stroke-linecap: square"/>
    <g clip-path="url(#p53f6ce8c0a)">
     <use xlink:href="#m931c003098" x="408.812579" y="1192.787454" style="fill: #0000ff; stroke: #0000ff"/>
    </g>
   </g>
   <g id="line2d_97">
    <path d="M 1011.222771 427.347493 
" clip-path="url(#p53f6ce8c0a)" style="fill: none; stroke: #0000ff; stroke-width: 1.5; stroke-linecap: square"/>
    <g clip-path="url(#p53f6ce8c0a)">
     <use xlink:href="#m931c003098" x="1011.222771" y="427.347493" style="fill: #0000ff; stroke: #0000ff"/>
    </g>
   </g>
   <g id="line2d_98">
    <path d="M 672.257087 815.069278 
" clip-path="url(#p53f6ce8c0a)" style="fill: none; stroke: #0000ff; stroke-width: 1.5; stroke-linecap: square"/>
    <g clip-path="url(#p53f6ce8c0a)">
     <use xlink:href="#m931c003098" x="672.257087" y="815.069278" style="fill: #0000ff; stroke: #0000ff"/>
    </g>
   </g>
   <g id="line2d_99">
    <path d="M 903.393091 529.65603 
" clip-path="url(#p53f6ce8c0a)" style="fill: none; stroke: #0000ff; stroke-width: 1.5; stroke-linecap: square"/>
    <g clip-path="url(#p53f6ce8c0a)">
     <use xlink:href="#m931c003098" x="903.393091" y="529.65603" style="fill: #0000ff; stroke: #0000ff"/>
    </g>
   </g>
   <g id="line2d_100">
    <path d="M 1128.924595 134.604715 
" clip-path="url(#p53f6ce8c0a)" style="fill: none; stroke: #0000ff; stroke-width: 1.5; stroke-linecap: square"/>
    <g clip-path="url(#p53f6ce8c0a)">
     <use xlink:href="#m931c003098" x="1128.924595" y="134.604715" style="fill: #0000ff; stroke: #0000ff"/>
    </g>
   </g>
   <g id="line2d_101">
    <path d="M 604.948009 812.78116 
" clip-path="url(#p53f6ce8c0a)" style="fill: none; stroke: #0000ff; stroke-width: 1.5; stroke-linecap: square"/>
    <g clip-path="url(#p53f6ce8c0a)">
     <use xlink:href="#m931c003098" x="604.948009" y="812.78116" style="fill: #0000ff; stroke: #0000ff"/>
    </g>
   </g>
   <g id="line2d_102">
    <path d="M 995.136463 339.866588 
" clip-path="url(#p53f6ce8c0a)" style="fill: none; stroke: #0000ff; stroke-width: 1.5; stroke-linecap: square"/>
    <g clip-path="url(#p53f6ce8c0a)">
     <use xlink:href="#m931c003098" x="995.136463" y="339.866588" style="fill: #0000ff; stroke: #0000ff"/>
    </g>
   </g>
   <g id="line2d_103">
    <path d="M 666.726042 841.316313 
" clip-path="url(#p53f6ce8c0a)" style="fill: none; stroke: #0000ff; stroke-width: 1.5; stroke-linecap: square"/>
    <g clip-path="url(#p53f6ce8c0a)">
     <use xlink:href="#m931c003098" x="666.726042" y="841.316313" style="fill: #0000ff; stroke: #0000ff"/>
    </g>
   </g>
   <g id="line2d_104">
    <path d="M 777.552623 661.452181 
" clip-path="url(#p53f6ce8c0a)" style="fill: none; stroke: #0000ff; stroke-width: 1.5; stroke-linecap: square"/>
    <g clip-path="url(#p53f6ce8c0a)">
     <use xlink:href="#m931c003098" x="777.552623" y="661.452181" style="fill: #0000ff; stroke: #0000ff"/>
    </g>
   </g>
   <g id="line2d_105">
    <path d="M 1098.367956 318.65636 
" clip-path="url(#p53f6ce8c0a)" style="fill: none; stroke: #ff0000; stroke-width: 1.5; stroke-linecap: square"/>
    <defs>
     <path id="m14da06e6aa" d="M 0 -10 
L -2.24514 -3.09017 
L -9.510565 -3.09017 
L -3.632713 1.18034 
L -5.877853 8.09017 
L -0 3.81966 
L 5.877853 8.09017 
L 3.632713 1.18034 
L 9.510565 -3.09017 
L 2.24514 -3.09017 
z
" style="stroke: #ff0000; stroke-linejoin: bevel"/>
    </defs>
    <g clip-path="url(#p53f6ce8c0a)">
     <use xlink:href="#m14da06e6aa" x="1098.367956" y="318.65636" style="fill: #ff0000; stroke: #ff0000; stroke-linejoin: bevel"/>
    </g>
   </g>
   <g id="line2d_106">
    <path d="M 415.015724 1185.287512 
" clip-path="url(#p53f6ce8c0a)" style="fill: none; stroke: #ff0000; stroke-width: 1.5; stroke-linecap: square"/>
    <g clip-path="url(#p53f6ce8c0a)">
     <use xlink:href="#m14da06e6aa" x="415.015724" y="1185.287512" style="fill: #ff0000; stroke: #ff0000; stroke-linejoin: bevel"/>
    </g>
   </g>
   <g id="line2d_107">
    <path d="M 976.504993 437.017648 
" clip-path="url(#p53f6ce8c0a)" style="fill: none; stroke: #ff0000; stroke-width: 1.5; stroke-linecap: square"/>
    <g clip-path="url(#p53f6ce8c0a)">
     <use xlink:href="#m14da06e6aa" x="976.504993" y="437.017648" style="fill: #ff0000; stroke: #ff0000; stroke-linejoin: bevel"/>
    </g>
   </g>
   <g id="line2d_108">
    <path d="M 829.304258 598.636709 
" clip-path="url(#p53f6ce8c0a)" style="fill: none; stroke: #ff0000; stroke-width: 1.5; stroke-linecap: square"/>
    <g clip-path="url(#p53f6ce8c0a)">
     <use xlink:href="#m14da06e6aa" x="829.304258" y="598.636709" style="fill: #ff0000; stroke: #ff0000; stroke-linejoin: bevel"/>
    </g>
   </g>
   <g id="line2d_109">
    <path d="M 891.405486 544.499321 
" clip-path="url(#p53f6ce8c0a)" style="fill: none; stroke: #ff0000; stroke-width: 1.5; stroke-linecap: square"/>
    <g clip-path="url(#p53f6ce8c0a)">
     <use xlink:href="#m14da06e6aa" x="891.405486" y="544.499321" style="fill: #ff0000; stroke: #ff0000; stroke-linejoin: bevel"/>
    </g>
   </g>
   <g id="line2d_110">
    <path d="M 1131.609319 132.010777 
" clip-path="url(#p53f6ce8c0a)" style="fill: none; stroke: #ff0000; stroke-width: 1.5; stroke-linecap: square"/>
    <g clip-path="url(#p53f6ce8c0a)">
     <use xlink:href="#m14da06e6aa" x="1131.609319" y="132.010777" style="fill: #ff0000; stroke: #ff0000; stroke-linejoin: bevel"/>
    </g>
   </g>
   <g id="line2d_111">
    <path d="M 300.865374 1213.620013 
" clip-path="url(#p53f6ce8c0a)" style="fill: none; stroke: #ff0000; stroke-width: 1.5; stroke-linecap: square"/>
    <g clip-path="url(#p53f6ce8c0a)">
     <use xlink:href="#m14da06e6aa" x="300.865374" y="1213.620013" style="fill: #ff0000; stroke: #ff0000; stroke-linejoin: bevel"/>
    </g>
   </g>
   <g id="line2d_112">
    <path d="M 1214.35097 37.729998 
" clip-path="url(#p53f6ce8c0a)" style="fill: none; stroke: #ff0000; stroke-width: 1.5; stroke-linecap: square"/>
    <g clip-path="url(#p53f6ce8c0a)">
     <use xlink:href="#m14da06e6aa" x="1214.35097" y="37.729998" style="fill: #ff0000; stroke: #ff0000; stroke-linejoin: bevel"/>
    </g>
   </g>
   <g id="line2d_113">
    <path d="M 662.91748 830.68817 
" clip-path="url(#p53f6ce8c0a)" style="fill: none; stroke: #ff0000; stroke-width: 1.5; stroke-linecap: square"/>
    <g clip-path="url(#p53f6ce8c0a)">
     <use xlink:href="#m14da06e6aa" x="662.91748" y="830.68817" style="fill: #ff0000; stroke: #ff0000; stroke-linejoin: bevel"/>
    </g>
   </g>
   <g id="line2d_114">
    <path d="M 960.235051 405.825919 
" clip-path="url(#p53f6ce8c0a)" style="fill: none; stroke: #ff0000; stroke-width: 1.5; stroke-linecap: square"/>
    <g clip-path="url(#p53f6ce8c0a)">
     <use xlink:href="#m14da06e6aa" x="960.235051" y="405.825919" style="fill: #ff0000; stroke: #ff0000; stroke-linejoin: bevel"/>
    </g>
   </g>
  </g>
 </g>
 <defs>
  <clipPath id="p53f6ce8c0a">
   <rect x="0" y="0" width="1440" height="1440"/>
  </clipPath>
 </defs>
</svg>
