<?xml version="1.0" encoding="utf-8" standalone="no"?>
<!DOCTYPE svg PUBLIC "-//W3C//DTD SVG 1.1//EN"
  "http://www.w3.org/Graphics/SVG/1.1/DTD/svg11.dtd">
<svg xmlns:xlink="http://www.w3.org/1999/xlink" width="1440pt" height="1440pt" viewBox="0 0 1440 1440" xmlns="http://www.w3.org/2000/svg" version="1.1">
 <metadata>
  <rdf:RDF xmlns:dc="http://purl.org/dc/elements/1.1/" xmlns:cc="http://creativecommons.org/ns#" xmlns:rdf="http://www.w3.org/1999/02/22-rdf-syntax-ns#">
   <cc:Work>
    <dc:type rdf:resource="http://purl.org/dc/dcmitype/StillImage"/>
    <dc:date>2026-02-27T11:04:10.023969</dc:date>
    <dc:format>image/svg+xml</dc:format>
    <dc:creator>
     <cc:Agent>
      <dc:title>Matplotlib v3.7.3, https://matplotlib.org/</dc:title>
     </cc:Agent>
    </dc:creator>
   </cc:Work>
  </rdf:RDF>
 </metadata>
 <defs>
  <style type="text/css">*{stroke-linejoin: round; stroke-linecap: butt}</style>
 </defs>
 <g id="figure_1">
  <g id="patch_1">
   <path d="M 0 1440 
L 1440 1440 
L 1440 0 
L 0 0 
z
" style="fill: #ffffff"/>
  </g>
  <g id="axes_1">
   <g id="line2d_1">
    <path d="M 517.89109 438.311246 
L 479.858764 475.272575 
L 477.284042 480.395147 
L 478.019676 487.803175 
L 482.212796 495.605246 
" clip-path="url(#p52a76aa7d7)" style="fill: none; stroke: #7a7a7a; stroke-width: 3; stroke-linecap: square"/>
   </g>
   <g id="line2d_2">
    <path d="M 500.750796 419.948795 
L 462.644906 456.752506 
L 453.890851 467.864547 
L 449.477041 481.419662 
L 448.888533 495.684055 
L 451.610382 508.845125 
L 457.054081 519.326696 
" clip-path="url(#p52a76aa7d7)" style="fill: none; stroke: #7a7a7a; stroke-width: 3; stroke-linecap: square"/>
   </g>
   <g id="line2d_3">
    <path d="M 541.725662 564.090097 
L 482.212796 495.605246 
" clip-path="url(#p52a76aa7d7)" style="fill: none; stroke: #7a7a7a; stroke-width: 3; stroke-linecap: square"/>
   </g>
   <g id="line2d_4">
    <path d="M 566.810813 541.708396 
L 506.341622 472.908311 
" clip-path="url(#p52a76aa7d7)" style="fill: none; stroke: #7a7a7a; stroke-width: 3; stroke-linecap: square"/>
   </g>
   <g id="line2d_5">
    <path d="M 482.212796 495.605246 
L 476.916224 484.572014 
L 474.194375 471.253326 
L 474.562192 457.14655 
L 478.755311 443.827862 
L 487.14155 433.188674 
L 500.677233 420.027604 
" clip-path="url(#p52a76aa7d7)" style="fill: none; stroke: #7a7a7a; stroke-width: 3; stroke-linecap: square"/>
   </g>
   <g id="line2d_6">
    <path d="M 506.341622 472.908311 
L 505.385296 471.332135 
L 499.868034 464.791004 
L 498.911709 462.347931 
L 498.691018 460.45652 
L 499.35309 457.934638 
L 501.854248 454.309433 
L 504.355407 451.787551 
L 504.576098 451.393507 
L 517.743963 438.468864 
" clip-path="url(#p52a76aa7d7)" style="fill: none; stroke: #7a7a7a; stroke-width: 3; stroke-linecap: square"/>
   </g>
   <g id="line2d_7">
    <path d="M 12.804143 1408.447618 
L 12.95127 1408.211192 
L 13.17196 1408.053574 
L 13.319087 1407.895956 
L 13.466214 1407.817147 
L 14.569667 1406.635015 
L 14.790357 1406.477398 
L 371.352611 1054.832516 
L 489.422018 936.067649 
L 489.863399 935.594797 
" clip-path="url(#p52a76aa7d7)" style="fill: none; stroke: #7a7a7a; stroke-width: 3; stroke-linecap: square"/>
   </g>
   <g id="line2d_8">
    <path d="M 42.670921 1408.447618 
L 42.891612 1408.211192 
L 43.038739 1408.053574 
L 43.185866 1407.895956 
L 43.332993 1407.817147 
L 44.510008 1406.635015 
L 44.730699 1406.398589 
L 80.850374 1370.146539 
L 269.025791 1184.078954 
L 317.65126 1136.793672 
L 389.817048 1065.550514 
L 390.69981 1064.053146 
L 520.83363 936.067649 
L 521.348574 935.594797 
" clip-path="url(#p52a76aa7d7)" style="fill: none; stroke: #7a7a7a; stroke-width: 3; stroke-linecap: square"/>
   </g>
   <g id="line2d_9">
    <path d="M 482.212796 495.605246 
L 541.725662 564.090097 
" clip-path="url(#p52a76aa7d7)" style="fill: none; stroke: #7a7a7a; stroke-width: 3; stroke-linecap: square"/>
   </g>
   <g id="line2d_10">
    <path d="M 457.054081 519.326696 
L 477.725423 542.81172 
L 487.656494 554.00257 
L 516.41982 586.787032 
" clip-path="url(#p52a76aa7d7)" style="fill: none; stroke: #7a7a7a; stroke-width: 3; stroke-linecap: square"/>
   </g>
   <g id="line2d_11">
    <path d="M 482.212796 495.605246 
L 477.578296 492.846938 
L 469.854129 493.477409 
L 458.08397 499.860922 
L 441.532184 514.282933 
L 427.55512 528.232091 
" clip-path="url(#p52a76aa7d7)" style="fill: none; stroke: #7a7a7a; stroke-width: 3; stroke-linecap: square"/>
   </g>
   <g id="line2d_12">
    <path d="M 506.341622 472.908311 
L 499.279526 466.445989 
L 490.084089 462.032696 
L 479.049565 460.141285 
L 466.470208 461.402225 
L 452.640271 466.288371 
L 437.927572 475.272575 
L 422.552802 489.064116 
L 408.575739 502.934465 
" clip-path="url(#p52a76aa7d7)" style="fill: none; stroke: #7a7a7a; stroke-width: 3; stroke-linecap: square"/>
   </g>
   <g id="line2d_13">
    <path d="M 482.212796 495.605246 
L 445.210358 453.20611 
" clip-path="url(#p52a76aa7d7)" style="fill: none; stroke: #7a7a7a; stroke-width: 3; stroke-linecap: square"/>
   </g>
   <g id="line2d_14">
    <path d="M 506.341622 472.908311 
L 470.884018 432.085351 
" clip-path="url(#p52a76aa7d7)" style="fill: none; stroke: #7a7a7a; stroke-width: 3; stroke-linecap: square"/>
   </g>
   <g id="line2d_15">
    <path d="M 408.575739 503.013274 
L 418.653937 493.162173 
L 430.276969 484.414396 
L 444.180469 480.946809 
L 458.672478 482.050132 
L 471.913907 487.172704 
L 482.212796 495.605246 
" clip-path="url(#p52a76aa7d7)" style="fill: none; stroke: #7a7a7a; stroke-width: 3; stroke-linecap: square"/>
   </g>
   <g id="line2d_16">
    <path d="M 427.628683 528.153282 
L 437.780445 518.302182 
L 443.371271 513.888889 
L 445.725303 512.627948 
L 448.447152 512.627948 
L 451.095438 513.652462 
L 453.375906 515.465065 
L 456.244882 518.696226 
L 457.054081 519.326696 
" clip-path="url(#p52a76aa7d7)" style="fill: none; stroke: #7a7a7a; stroke-width: 3; stroke-linecap: square"/>
   </g>
   <g id="line2d_17">
    <path d="M 445.210358 453.20611 
L 482.212796 495.605246 
" clip-path="url(#p52a76aa7d7)" style="fill: none; stroke: #7a7a7a; stroke-width: 3; stroke-linecap: square"/>
   </g>
   <g id="line2d_18">
    <path d="M 418.433247 475.193766 
L 457.054081 519.326696 
" clip-path="url(#p52a76aa7d7)" style="fill: none; stroke: #7a7a7a; stroke-width: 3; stroke-linecap: square"/>
   </g>
   <g id="line2d_19">
    <path d="M -1 1390.106206 
L 8.463897 1380.155257 
L 456.392009 936.067649 
L 456.83339 935.594797 
" clip-path="url(#p52a76aa7d7)" style="fill: none; stroke: #7a7a7a; stroke-width: 3; stroke-linecap: square"/>
   </g>
   <g id="line2d_20">
    <path d="M 12.804143 1408.447618 
L 12.95127 1408.211192 
L 13.17196 1408.053574 
L 13.319087 1407.895956 
L 13.466214 1407.817147 
L 14.569667 1406.635015 
L 14.790357 1406.477398 
L 371.352611 1054.832516 
L 489.422018 936.067649 
L 489.863399 935.594797 
" clip-path="url(#p52a76aa7d7)" style="fill: none; stroke: #7a7a7a; stroke-width: 3; stroke-linecap: square"/>
   </g>
   <g id="line2d_21">
    <path d="M 969.718068 460.298902 
L 970.085885 459.904858 
L 970.380139 459.668432 
L 971.262901 458.801535 
L 1081.387451 348.705636 
L 1316.643504 114.879916 
L 1434.16187 -1 
" clip-path="url(#p52a76aa7d7)" style="fill: none; stroke: #7a7a7a; stroke-width: 3; stroke-linecap: square"/>
   </g>
   <g id="line2d_22">
    <path d="M 969.718068 488.827689 
L 970.085885 488.433645 
L 970.380139 488.197219 
L 971.262901 487.330322 
L 995.465291 464.475769 
L 1053.801141 405.447975 
L 1146.196889 314.423807 
L 1185.111977 276.280346 
L 1209.020113 252.716514 
L 1291.264099 170.124887 
L 1295.898599 165.396359 
L 1355.485029 105.659286 
L 1355.92641 105.186433 
L 1441 21.162711 
" clip-path="url(#p52a76aa7d7)" style="fill: none; stroke: #7a7a7a; stroke-width: 3; stroke-linecap: square"/>
   </g>
   <g id="line2d_23">
    <path d="M 1369.241358 -1 
L 1268.532979 98.487685 
L 971.262901 394.414742 
L 970.380139 395.281639 
L 970.159449 395.518066 
L 969.718068 395.91211 
" clip-path="url(#p52a76aa7d7)" style="fill: none; stroke: #7a7a7a; stroke-width: 3; stroke-linecap: square"/>
   </g>
   <g id="line2d_24">
    <path d="M 1343.190272 -1 
L 1214.831629 126.070766 
L 1126.481873 213.469729 
L 1065.497737 273.049185 
L 1053.212633 285.185741 
L 1033.497617 304.809133 
L 971.262901 365.885956 
L 970.380139 366.752852 
L 970.159449 366.989279 
L 969.718068 367.383323 
" clip-path="url(#p52a76aa7d7)" style="fill: none; stroke: #7a7a7a; stroke-width: 3; stroke-linecap: square"/>
   </g>
   <g id="line2d_25">
    <path d="M 1401.764792 -1 
L 1361.222981 38.750612 
L 1274.491622 125.519105 
L 971.262901 427.51444 
L 970.380139 428.381337 
L 970.159449 428.617763 
L 969.718068 429.011807 
" clip-path="url(#p52a76aa7d7)" style="fill: none; stroke: #7a7a7a; stroke-width: 3; stroke-linecap: square"/>
   </g>
   <g id="line2d_26">
    <path d="M 1369.241358 -1 
L 1268.532979 98.487685 
L 971.262901 394.414742 
L 970.380139 395.281639 
L 970.159449 395.518066 
L 969.718068 395.91211 
" clip-path="url(#p52a76aa7d7)" style="fill: none; stroke: #7a7a7a; stroke-width: 3; stroke-linecap: square"/>
   </g>
   <g id="line2d_27">
    <path d="M 969.718068 429.011807 
L 970.159449 428.617763 
L 970.380139 428.381337 
L 971.262901 427.51444 
L 1274.491622 125.519105 
L 1361.222981 38.750612 
L 1401.764792 -1 
" clip-path="url(#p52a76aa7d7)" style="fill: none; stroke: #7a7a7a; stroke-width: 3; stroke-linecap: square"/>
   </g>
   <g id="line2d_28">
    <path d="M 969.718068 460.298902 
L 970.085885 459.904858 
L 970.380139 459.668432 
L 971.262901 458.801535 
L 1081.387451 348.705636 
L 1316.643504 114.879916 
L 1434.16187 -1 
" clip-path="url(#p52a76aa7d7)" style="fill: none; stroke: #7a7a7a; stroke-width: 3; stroke-linecap: square"/>
   </g>
   <g id="line2d_29">
    <path d="M 746.452865 615.709863 
L 723.059674 640.534636 
L 712.907912 650.622163 
L 703.859602 658.897087 
L 695.252673 665.753453 
L 687.160689 670.954834 
L 679.289395 674.422422 
L 671.565228 676.235024 
L 663.767498 676.156215 
L 655.675514 674.264804 
L 647.215712 670.481981 
L 638.020275 664.65013 
L 628.162767 656.848058 
L 617.201806 646.996958 
L 605.210957 634.939211 
L 591.822401 620.674817 
L 576.889012 604.203778 
L 560.337226 585.368473 
L 541.725662 564.090097 
" clip-path="url(#p52a76aa7d7)" style="fill: none; stroke: #7a7a7a; stroke-width: 3; stroke-linecap: square"/>
   </g>
   <g id="line2d_30">
    <path d="M 734.535579 601.130234 
L 731.372349 604.282586 
L 728.576936 607.040894 
L 727.988428 607.671365 
L 701.064189 634.387549 
L 694.958419 640.534636 
L 692.898641 642.583665 
L 692.089443 643.214135 
L 686.1308 648.100281 
L 679.510086 651.410251 
L 673.110062 652.355957 
L 666.562911 650.937398 
L 659.574379 646.996958 
L 651.776648 640.534636 
L 642.728339 631.471624 
L 632.208759 619.650303 
L 619.776529 605.070674 
L 587.923536 567.006022 
L 566.810813 541.708396 
" clip-path="url(#p52a76aa7d7)" style="fill: none; stroke: #7a7a7a; stroke-width: 3; stroke-linecap: square"/>
   </g>
   <g id="line2d_31">
    <path d="M 424.318326 935.594797 
L 423.803382 936.067649 
L 384.520476 976.575374 
L 268.58441 1090.296478 
L -1 1356.693989 
" clip-path="url(#p52a76aa7d7)" style="fill: none; stroke: #7a7a7a; stroke-width: 3; stroke-linecap: square"/>
   </g>
   <g id="line2d_32">
    <path d="M 395.33431 935.594797 
L 394.892929 936.067649 
L 367.380182 964.754054 
L 348.106547 983.904593 
L 305.43972 1026.303729 
L -1 1330.808775 
" clip-path="url(#p52a76aa7d7)" style="fill: none; stroke: #7a7a7a; stroke-width: 3; stroke-linecap: square"/>
   </g>
   <g id="line2d_33">
    <path d="M 456.83339 935.594797 
L 456.392009 936.067649 
L 8.463897 1380.155257 
L -1 1390.106206 
" clip-path="url(#p52a76aa7d7)" style="fill: none; stroke: #7a7a7a; stroke-width: 3; stroke-linecap: square"/>
   </g>
   <g id="line2d_34">
    <path d="M 424.318326 935.594797 
L 423.803382 936.067649 
L 384.520476 976.575374 
L 268.58441 1090.296478 
L -1 1356.693989 
" clip-path="url(#p52a76aa7d7)" style="fill: none; stroke: #7a7a7a; stroke-width: 3; stroke-linecap: square"/>
   </g>
   <g id="line2d_35">
    <path d="M 555.629162 870.262298 
L 767.19777 659.842793 
L 776.981715 650.070501 
" clip-path="url(#p52a76aa7d7)" style="fill: none; stroke: #7a7a7a; stroke-width: 3; stroke-linecap: square"/>
   </g>
   <g id="line2d_36">
    <path d="M 570.562551 886.575721 
L 777.275969 679.623803 
L 791.84154 666.777968 
" clip-path="url(#p52a76aa7d7)" style="fill: none; stroke: #7a7a7a; stroke-width: 3; stroke-linecap: square"/>
   </g>
   <g id="line2d_37">
    <path d="M 489.863399 935.594797 
L 490.157653 935.279561 
L 526.571582 899.185129 
" clip-path="url(#p52a76aa7d7)" style="fill: none; stroke: #7a7a7a; stroke-width: 3; stroke-linecap: square"/>
   </g>
   <g id="line2d_38">
    <path d="M 521.348574 935.594797 
L 521.569265 935.35837 
L 541.652098 915.340934 
" clip-path="url(#p52a76aa7d7)" style="fill: none; stroke: #7a7a7a; stroke-width: 3; stroke-linecap: square"/>
   </g>
   <g id="line2d_39">
    <path d="M 456.83339 935.594797 
L 457.127644 935.279561 
L 511.196812 881.610766 
" clip-path="url(#p52a76aa7d7)" style="fill: none; stroke: #7a7a7a; stroke-width: 3; stroke-linecap: square"/>
   </g>
   <g id="line2d_40">
    <path d="M 489.863399 935.594797 
L 490.157653 935.279561 
L 526.571582 899.185129 
" clip-path="url(#p52a76aa7d7)" style="fill: none; stroke: #7a7a7a; stroke-width: 3; stroke-linecap: square"/>
   </g>
   <g id="line2d_41">
    <path d="M 762.416143 633.599461 
L 740.935603 655.035456 
L 736.080412 660.630881 
L 731.225222 667.487247 
L 726.222904 680.490699 
L 723.059674 695.937225 
L 721.809094 712.802309 
L 722.691856 729.903819 
L 725.781523 746.138433 
L 731.298785 760.481635 
L 739.390769 771.830103 
" clip-path="url(#p52a76aa7d7)" style="fill: none; stroke: #7a7a7a; stroke-width: 3; stroke-linecap: square"/>
   </g>
   <g id="line2d_42">
    <path d="M 746.452865 615.709863 
L 728.061991 635.806108 
L 723.206801 641.165106 
L 713.569983 652.277148 
L 710.406753 656.926867 
L 707.832031 661.182543 
L 702.75615 674.580039 
L 699.151538 689.238477 
L 697.091761 704.763811 
L 696.576816 720.761998 
L 697.680268 736.681376 
L 700.475681 752.127902 
L 704.963054 766.786339 
L 711.289515 780.105027 
L 719.455063 791.689921 
" clip-path="url(#p52a76aa7d7)" style="fill: none; stroke: #7a7a7a; stroke-width: 3; stroke-linecap: square"/>
   </g>
   <g id="line2d_43">
    <path d="M 739.390769 771.830103 
L 732.255111 758.747841 
L 728.209118 744.641065 
L 726.958539 730.376672 
L 728.135555 716.427514 
L 731.445912 703.660488 
L 736.521793 692.627255 
L 742.921817 684.037096 
L 776.981715 650.070501 
" clip-path="url(#p52a76aa7d7)" style="fill: none; stroke: #7a7a7a; stroke-width: 3; stroke-linecap: square"/>
   </g>
   <g id="line2d_44">
    <path d="M 757.855206 756.620004 
L 751.013801 743.064889 
L 749.468968 726.672658 
L 752.117254 711.304942 
L 757.855206 700.744562 
L 772.126524 686.480168 
L 777.275969 679.623803 
L 791.84154 666.777968 
" clip-path="url(#p52a76aa7d7)" style="fill: none; stroke: #7a7a7a; stroke-width: 3; stroke-linecap: square"/>
   </g>
   <g id="line2d_45">
    <path d="M 969.718068 1041.198593 
L 822.1497 865.297344 
" clip-path="url(#p52a76aa7d7)" style="fill: none; stroke: #7a7a7a; stroke-width: 3; stroke-linecap: square"/>
   </g>
   <g id="line2d_46">
    <path d="M 969.718068 1001.873 
L 840.981954 849.299157 
" clip-path="url(#p52a76aa7d7)" style="fill: none; stroke: #7a7a7a; stroke-width: 3; stroke-linecap: square"/>
   </g>
   <g id="line2d_47">
    <path d="M 762.416143 633.599461 
L 540.033702 853.239597 
" clip-path="url(#p52a76aa7d7)" style="fill: none; stroke: #7a7a7a; stroke-width: 3; stroke-linecap: square"/>
   </g>
   <g id="line2d_48">
    <path d="M 746.452865 615.709863 
L 715.041253 648.967178 
L 524.658931 836.374513 
" clip-path="url(#p52a76aa7d7)" style="fill: none; stroke: #7a7a7a; stroke-width: 3; stroke-linecap: square"/>
   </g>
   <g id="line2d_49">
    <path d="M 524.658931 836.374513 
L 495.086407 865.612579 
" clip-path="url(#p52a76aa7d7)" style="fill: none; stroke: #7a7a7a; stroke-width: 3; stroke-linecap: square"/>
   </g>
   <g id="line2d_50">
    <path d="M 511.491066 821.952502 
L 481.550724 851.269377 
" clip-path="url(#p52a76aa7d7)" style="fill: none; stroke: #7a7a7a; stroke-width: 3; stroke-linecap: square"/>
   </g>
   <g id="line2d_51">
    <path d="M 739.390769 771.830103 
L 622.424815 657.320911 
L 541.725662 564.090097 
" clip-path="url(#p52a76aa7d7)" style="fill: none; stroke: #7a7a7a; stroke-width: 3; stroke-linecap: square"/>
   </g>
   <g id="line2d_52">
    <path d="M 757.855206 756.620004 
L 648.613418 635.569681 
L 566.810813 541.708396 
" clip-path="url(#p52a76aa7d7)" style="fill: none; stroke: #7a7a7a; stroke-width: 3; stroke-linecap: square"/>
   </g>
   <g id="line2d_53">
    <path d="M 541.725662 564.090097 
L 559.895845 586.550606 
L 573.210837 601.445469 
L 596.01552 627.294757 
L 608.300624 640.29821 
L 621.542053 652.750001 
L 636.107624 664.334895 
L 648.539855 672.215775 
L 662.9583 677.101921 
L 676.935363 676.944303 
L 693.266459 673.319098 
L 707.39065 669.615084 
L 727.473483 660.473263 
L 745.496539 648.651943 
L 762.416143 633.599461 
" clip-path="url(#p52a76aa7d7)" style="fill: none; stroke: #7a7a7a; stroke-width: 3; stroke-linecap: square"/>
   </g>
   <g id="line2d_54">
    <path d="M 516.41982 586.787032 
L 521.789955 594.352677 
L 576.00625 656.690441 
L 586.158012 668.354144 
L 599.325878 681.12117 
L 610.066148 690.97227 
L 622.351251 698.301489 
L 638.903037 703.50287 
L 655.38126 705.551899 
L 671.638792 705.157855 
L 687.087125 703.108826 
L 705.036618 696.646504 
L 722.691856 690.184182 
L 740.494222 680.490699 
L 758.590841 667.25082 
L 776.981715 650.070501 
" clip-path="url(#p52a76aa7d7)" style="fill: none; stroke: #7a7a7a; stroke-width: 3; stroke-linecap: square"/>
   </g>
   <g id="line2d_55">
    <path d="M 969.718068 395.91211 
L 779.041492 583.949915 
L 746.452865 615.709863 
" clip-path="url(#p52a76aa7d7)" style="fill: none; stroke: #7a7a7a; stroke-width: 3; stroke-linecap: square"/>
   </g>
   <g id="line2d_56">
    <path d="M 969.718068 367.383323 
L 734.535579 601.130234 
" clip-path="url(#p52a76aa7d7)" style="fill: none; stroke: #7a7a7a; stroke-width: 3; stroke-linecap: square"/>
   </g>
   <g id="line2d_57">
    <path d="M 739.390769 771.830103 
L 818.397962 860.805242 
L 822.1497 865.297344 
" clip-path="url(#p52a76aa7d7)" style="fill: none; stroke: #7a7a7a; stroke-width: 3; stroke-linecap: square"/>
   </g>
   <g id="line2d_58">
    <path d="M 719.455063 791.689921 
L 745.496539 815.174945 
L 803.023191 881.610766 
" clip-path="url(#p52a76aa7d7)" style="fill: none; stroke: #7a7a7a; stroke-width: 3; stroke-linecap: square"/>
   </g>
   <g id="line2d_59">
    <path d="M 739.390769 771.830103 
L 729.09188 763.633987 
L 716.953904 757.408092 
L 703.491784 753.231225 
L 689.29403 750.94577 
L 674.875585 750.709343 
L 660.751395 752.285519 
L 647.509966 755.831916 
L 635.59268 761.348532 
L 625.661608 768.677751 
L 540.033702 853.239597 
" clip-path="url(#p52a76aa7d7)" style="fill: none; stroke: #7a7a7a; stroke-width: 3; stroke-linecap: square"/>
   </g>
   <g id="line2d_60">
    <path d="M 757.855206 756.620004 
L 747.335627 746.926521 
L 735.050523 739.124449 
L 721.51484 733.213789 
L 706.949269 729.115731 
L 691.868753 726.830276 
L 676.567546 726.436232 
L 661.48703 727.933599 
L 646.921458 731.16476 
L 633.312212 736.208524 
L 620.953545 743.143698 
L 610.286838 751.812667 
L 524.658931 836.374513 
" clip-path="url(#p52a76aa7d7)" style="fill: none; stroke: #7a7a7a; stroke-width: 3; stroke-linecap: square"/>
   </g>
   <g id="line2d_61">
    <path d="M 776.981715 650.070501 
L 969.718068 460.298902 
" clip-path="url(#p52a76aa7d7)" style="fill: none; stroke: #7a7a7a; stroke-width: 3; stroke-linecap: square"/>
   </g>
   <g id="line2d_62">
    <path d="M 791.84154 666.777968 
L 954.416861 504.195406 
L 969.718068 488.827689 
" clip-path="url(#p52a76aa7d7)" style="fill: none; stroke: #7a7a7a; stroke-width: 3; stroke-linecap: square"/>
   </g>
   <g id="line2d_63">
    <path d="M 969.718068 429.011807 
L 762.416143 633.599461 
" clip-path="url(#p52a76aa7d7)" style="fill: none; stroke: #7a7a7a; stroke-width: 3; stroke-linecap: square"/>
   </g>
   <g id="line2d_64">
    <path d="M 969.718068 395.91211 
L 779.041492 583.949915 
L 746.452865 615.709863 
" clip-path="url(#p52a76aa7d7)" style="fill: none; stroke: #7a7a7a; stroke-width: 3; stroke-linecap: square"/>
   </g>
   <g id="line2d_65">
    <path d="M 555.629162 870.262298 
L 652.880101 773.485088 
L 664.65026 764.422075 
L 677.818125 758.747841 
L 691.574499 756.147151 
L 705.330872 756.462386 
L 718.35161 759.378312 
L 729.901079 764.579693 
L 739.390769 771.830103 
" clip-path="url(#p52a76aa7d7)" style="fill: none; stroke: #7a7a7a; stroke-width: 3; stroke-linecap: square"/>
   </g>
   <g id="line2d_66">
    <path d="M 570.562551 886.575721 
L 667.81349 789.79851 
L 685.174475 782.5481 
L 700.917062 782.705718 
L 712.981475 786.882584 
L 719.455063 791.689921 
" clip-path="url(#p52a76aa7d7)" style="fill: none; stroke: #7a7a7a; stroke-width: 3; stroke-linecap: square"/>
   </g>
   <g id="line2d_67">
    <path d="M 746.452865 615.709863 
L 715.041253 648.967178 
L 524.658931 836.374513 
" clip-path="url(#p52a76aa7d7)" style="fill: none; stroke: #7a7a7a; stroke-width: 3; stroke-linecap: square"/>
   </g>
   <g id="line2d_68">
    <path d="M 734.535579 601.130234 
L 692.898641 642.583665 
L 688.411268 645.893635 
L 604.475322 731.007142 
L 511.491066 821.952502 
" clip-path="url(#p52a76aa7d7)" style="fill: none; stroke: #7a7a7a; stroke-width: 3; stroke-linecap: square"/>
   </g>
   <g id="line2d_69">
    <path d="M 540.033702 853.239597 
L 573.06371 821.952502 
L 587.555719 808.082152 
L 599.767258 796.418449 
L 610.213275 785.542835 
L 619.702965 774.273176 
L 627.721386 763.47637 
L 634.194973 753.073607 
L 639.270855 742.986081 
L 642.801902 733.13498 
L 644.935244 723.441497 
L 645.597315 713.669206 
L 644.714553 703.896914 
L 642.434085 693.967005 
L 638.75591 683.72186 
L 633.606466 673.161481 
L 626.985751 662.128248 
L 618.96733 650.543354 
L 609.551203 638.327989 
L 598.73737 625.324537 
L 586.52583 611.454187 
L 572.84302 596.638132 
L 557.836067 580.797563 
L 541.725662 564.090097 
" clip-path="url(#p52a76aa7d7)" style="fill: none; stroke: #7a7a7a; stroke-width: 3; stroke-linecap: square"/>
   </g>
   <g id="line2d_70">
    <path d="M 555.629162 870.262298 
L 587.776409 837.635454 
L 638.240966 787.513055 
L 647.362839 776.006969 
L 655.160569 764.973737 
L 661.634157 754.334548 
L 666.857165 744.010595 
L 670.75603 733.923068 
L 673.404316 723.993159 
L 674.802022 714.142059 
L 674.949149 704.290958 
L 673.845697 694.361049 
L 671.491665 684.273522 
L 667.960617 673.949569 
L 663.17899 663.389189 
L 657.146784 652.355957 
L 650.011125 640.92868 
L 641.624886 628.949742 
L 633.091521 617.758892 
L 566.810813 541.708396 
" clip-path="url(#p52a76aa7d7)" style="fill: none; stroke: #7a7a7a; stroke-width: 3; stroke-linecap: square"/>
   </g>
   <g id="line2d_71">
    <path d="M 540.033702 853.239597 
L 762.416143 633.599461 
" clip-path="url(#p52a76aa7d7)" style="fill: none; stroke: #7a7a7a; stroke-width: 3; stroke-linecap: square"/>
   </g>
   <g id="line2d_72">
    <path d="M 555.629162 870.262298 
L 767.19777 659.842793 
L 776.981715 650.070501 
" clip-path="url(#p52a76aa7d7)" style="fill: none; stroke: #7a7a7a; stroke-width: 3; stroke-linecap: square"/>
   </g>
   <g id="line2d_73">
    <path d="M 541.725662 564.090097 
L 622.424815 657.320911 
L 739.390769 771.830103 
" clip-path="url(#p52a76aa7d7)" style="fill: none; stroke: #7a7a7a; stroke-width: 3; stroke-linecap: square"/>
   </g>
   <g id="line2d_74">
    <path d="M 516.41982 586.787032 
L 587.482155 669.851511 
L 594.470687 677.890009 
L 599.693695 684.115904 
L 719.455063 791.689921 
" clip-path="url(#p52a76aa7d7)" style="fill: none; stroke: #7a7a7a; stroke-width: 3; stroke-linecap: square"/>
   </g>
   <g id="line2d_75">
    <path d="M 762.416143 633.599461 
L 969.718068 429.011807 
" clip-path="url(#p52a76aa7d7)" style="fill: none; stroke: #7a7a7a; stroke-width: 3; stroke-linecap: square"/>
   </g>
   <g id="line2d_76">
    <path d="M 776.981715 650.070501 
L 969.718068 460.298902 
" clip-path="url(#p52a76aa7d7)" style="fill: none; stroke: #7a7a7a; stroke-width: 3; stroke-linecap: square"/>
   </g>
   <g id="line2d_77">
    <path d="M 540.033702 853.239597 
L 511.196812 881.610766 
" clip-path="url(#p52a76aa7d7)" style="fill: none; stroke: #7a7a7a; stroke-width: 3; stroke-linecap: square"/>
   </g>
   <g id="line2d_78">
    <path d="M 524.658931 836.374513 
L 495.086407 865.612579 
" clip-path="url(#p52a76aa7d7)" style="fill: none; stroke: #7a7a7a; stroke-width: 3; stroke-linecap: square"/>
   </g>
   <g id="line2d_79">
    <path d="M 541.725662 564.090097 
L 610.213275 642.977709 
L 619.335148 654.168559 
L 626.985751 664.256086 
L 633.091521 673.476716 
L 637.652458 681.988067 
L 640.668561 689.947756 
L 642.213394 697.513401 
L 642.213394 704.84262 
L 640.668561 712.09303 
L 637.652458 719.501057 
L 633.091521 727.145511 
L 626.985751 735.262818 
L 619.408711 743.931786 
L 610.286838 753.388843 
L 599.693695 763.791605 
L 542.461297 818.169679 
L 524.658931 836.374513 
" clip-path="url(#p52a76aa7d7)" style="fill: none; stroke: #7a7a7a; stroke-width: 3; stroke-linecap: square"/>
   </g>
   <g id="line2d_80">
    <path d="M 516.41982 586.787032 
L 533.780805 605.543527 
L 572.622329 652.750001 
L 594.470687 677.890009 
L 603.37187 688.450389 
L 609.183386 696.961739 
L 609.256949 697.355783 
L 609.992584 698.537915 
L 611.831671 705.867134 
L 611.831671 712.802309 
L 611.978798 714.457294 
L 610.875346 717.057984 
L 610.139711 720.131528 
L 606.608663 727.460746 
L 605.06383 729.746202 
L 604.475322 731.007142 
L 573.505091 761.269723 
L 531.426773 803.590051 
L 511.491066 821.952502 
" clip-path="url(#p52a76aa7d7)" style="fill: none; stroke: #7a7a7a; stroke-width: 3; stroke-linecap: square"/>
   </g>
   <g id="line2d_81">
    <path d="M 511.196812 881.610766 
L 540.033702 853.239597 
" clip-path="url(#p52a76aa7d7)" style="fill: none; stroke: #7a7a7a; stroke-width: 3; stroke-linecap: square"/>
   </g>
   <g id="line2d_82">
    <path d="M 526.571582 899.185129 
L 555.629162 870.262298 
" clip-path="url(#p52a76aa7d7)" style="fill: none; stroke: #7a7a7a; stroke-width: 3; stroke-linecap: square"/>
   </g>
   <g id="line2d_83">
    <path d="M 526.571582 899.185129 
L 555.629162 870.262298 
" clip-path="url(#p52a76aa7d7)" style="fill: none; stroke: #7a7a7a; stroke-width: 3; stroke-linecap: square"/>
   </g>
   <g id="line2d_84">
    <path d="M 541.652098 915.340934 
L 570.562551 886.575721 
" clip-path="url(#p52a76aa7d7)" style="fill: none; stroke: #7a7a7a; stroke-width: 3; stroke-linecap: square"/>
   </g>
   <g id="line2d_85">
    <path d="M 495.086407 865.612579 
L 424.61258 935.279561 
L 424.318326 935.594797 
" clip-path="url(#p52a76aa7d7)" style="fill: none; stroke: #7a7a7a; stroke-width: 3; stroke-linecap: square"/>
   </g>
   <g id="line2d_86">
    <path d="M 481.550724 851.269377 
L 395.702127 935.279561 
L 395.33431 935.594797 
" clip-path="url(#p52a76aa7d7)" style="fill: none; stroke: #7a7a7a; stroke-width: 3; stroke-linecap: square"/>
   </g>
   <g id="line2d_87">
    <path d="M 511.196812 881.610766 
L 457.127644 935.279561 
L 456.83339 935.594797 
" clip-path="url(#p52a76aa7d7)" style="fill: none; stroke: #7a7a7a; stroke-width: 3; stroke-linecap: square"/>
   </g>
   <g id="line2d_88">
    <path d="M 495.086407 865.612579 
L 424.61258 935.279561 
L 424.318326 935.594797 
" clip-path="url(#p52a76aa7d7)" style="fill: none; stroke: #7a7a7a; stroke-width: 3; stroke-linecap: square"/>
   </g>
   <g id="line2d_89">
    <path d="M 822.1497 865.297344 
L 818.397962 860.805242 
L 739.390769 771.830103 
" clip-path="url(#p52a76aa7d7)" style="fill: none; stroke: #7a7a7a; stroke-width: 3; stroke-linecap: square"/>
   </g>
   <g id="line2d_90">
    <path d="M 840.981954 849.299157 
L 823.988787 829.124103 
L 823.400279 828.572441 
L 822.738208 827.705544 
L 757.855206 756.620004 
" clip-path="url(#p52a76aa7d7)" style="fill: none; stroke: #7a7a7a; stroke-width: 3; stroke-linecap: square"/>
   </g>
   <g id="line2d_91">
    <path d="M 822.1497 865.297344 
L 969.718068 1041.198593 
" clip-path="url(#p52a76aa7d7)" style="fill: none; stroke: #7a7a7a; stroke-width: 3; stroke-linecap: square"/>
   </g>
   <g id="line2d_92">
    <path d="M 803.023191 881.610766 
L 807.657691 886.890956 
L 959.345615 1061.373647 
" clip-path="url(#p52a76aa7d7)" style="fill: none; stroke: #7a7a7a; stroke-width: 3; stroke-linecap: square"/>
   </g>
   <g id="line2d_93">
    <path d="M 294.230627 1050.539053 
L 147.126987 1203.573589 
" clip-path="url(#p52a76aa7d7)" style="fill: none; stroke-dasharray: 32,8,5,8; stroke-dashoffset: 0; stroke: #1e90ff; stroke-width: 5"/>
   </g>
   <g id="line2d_94">
    <path d="M 1329.65476 39.404402 
L 901.154593 459.875151 
" clip-path="url(#p52a76aa7d7)" style="fill: none; stroke-dasharray: 32,8,5,8; stroke-dashoffset: 0; stroke: #1e90ff; stroke-width: 5"/>
   </g>
   <g id="line2d_95">
    <path d="M 595.386567 762.709908 
L 277.502834 1079.412205 
" clip-path="url(#p52a76aa7d7)" style="fill: none; stroke-dasharray: 32,8,5,8; stroke-dashoffset: 0; stroke: #1e90ff; stroke-width: 5"/>
   </g>
   <g id="line2d_96">
    <path d="M 904.54541 436.041068 
L 586.306073 748.14875 
" clip-path="url(#p52a76aa7d7)" style="fill: none; stroke-dasharray: 32,8,5,8; stroke-dashoffset: 0; stroke: #1e90ff; stroke-width: 5"/>
   </g>
   <g id="line2d_97">
    <path d="M 294.230627 1050.539053 
" clip-path="url(#p52a76aa7d7)" style="fill: none; stroke: #0000ff; stroke-width: 1.5; stroke-linecap: square"/>
    <defs>
     <path id="mb5cb702abe" d="M 0 10 
C 2.652031 10 5.195799 8.946337 7.071068 7.071068 
C 8.946337 5.195799 10 2.652031 10 0 
C 10 -2.652031 8.946337 -5.195799 7.071068 -7.071068 
C 5.195799 -8.946337 2.652031 -10 0 -10 
C -2.652031 -10 -5.195799 -8.946337 -7.071068 -7.071068 
C -8.946337 -5.195799 -10 -2.652031 -10 0 
C -10 2.652031 -8.946337 5.195799 -7.071068 7.071068 
C -5.195799 8.946337 -2.652031 10 0 10 
z
" style="stroke: #0000ff"/>
    </defs>
    <g clip-path="url(#p52a76aa7d7)">
     <use xlink:href="#mb5cb702abe" x="294.230627" y="1050.539053" style="fill: #0000ff; stroke: #0000ff"/>
    </g>
   </g>
   <g id="line2d_98">
    <path d="M 1329.65476 39.404402 
" clip-path="url(#p52a76aa7d7)" style="fill: none; stroke: #0000ff; stroke-width: 1.5; stroke-linecap: square"/>
    <g clip-path="url(#p52a76aa7d7)">
     <use xlink:href="#mb5cb702abe" x="1329.65476" y="39.404402" style="fill: #0000ff; stroke: #0000ff"/>
    </g>
   </g>
   <g id="line2d_99">
    <path d="M 595.386567 762.709908 
" clip-path="url(#p52a76aa7d7)" style="fill: none; stroke: #0000ff; stroke-width: 1.5; stroke-linecap: square"/>
    <g clip-path="url(#p52a76aa7d7)">
     <use xlink:href="#mb5cb702abe" x="595.386567" y="762.709908" style="fill: #0000ff; stroke: #0000ff"/>
    </g>
   </g>
   <g id="line2d_100">
    <path d="M 904.54541 436.041068 
" clip-path="url(#p52a76aa7d7)" style="fill: none; stroke: #0000ff; stroke-width: 1.5; stroke-linecap: square"/>
    <g clip-path="url(#p52a76aa7d7)">
     <use xlink:href="#mb5cb702abe" x="904.54541" y="436.041068" style="fill: #0000ff; stroke: #0000ff"/>
    </g>
   </g>
   <g id="line2d_101">
    <path d="M 147.126987 1203.573589 
" clip-path="url(#p52a76aa7d7)" style="fill: none; stroke: #ff0000; stroke-width: 1.5; stroke-linecap: square"/>
    <defs>
     <path id="ma6f3e5aed2" d="M 0 -10 
L -2.24514 -3.09017 
L -9.510565 -3.09017 
L -3.632713 1.18034 
L -5.877853 8.09017 
L -0 3.81966 
L 5.877853 8.09017 
L 3.632713 1.18034 
L 9.510565 -3.09017 
L 2.24514 -3.09017 
z
" style="stroke: #ff0000; stroke-linejoin: bevel"/>
    </defs>
    <g clip-path="url(#p52a76aa7d7)">
     <use xlink:href="#ma6f3e5aed2" x="147.126987" y="1203.573589" style="fill: #ff0000; stroke: #ff0000; stroke-linejoin: bevel"/>
    </g>
   </g>
   <g id="line2d_102">
    <path d="M 901.154593 459.875151 
" clip-path="url(#p52a76aa7d7)" style="fill: none; stroke: #ff0000; stroke-width: 1.5; stroke-linecap: square"/>
    <g clip-path="url(#p52a76aa7d7)">
     <use xlink:href="#ma6f3e5aed2" x="901.154593" y="459.875151" style="fill: #ff0000; stroke: #ff0000; stroke-linejoin: bevel"/>
    </g>
   </g>
   <g id="line2d_103">
    <path d="M 277.502834 1079.412205 
" clip-path="url(#p52a76aa7d7)" style="fill: none; stroke: #ff0000; stroke-width: 1.5; stroke-linecap: square"/>
    <g clip-path="url(#p52a76aa7d7)">
     <use xlink:href="#ma6f3e5aed2" x="277.502834" y="1079.412205" style="fill: #ff0000; stroke: #ff0000; stroke-linejoin: bevel"/>
    </g>
   </g>
   <g id="line2d_104">
    <path d="M 586.306073 748.14875 
" clip-path="url(#p52a76aa7d7)" style="fill: none; stroke: #ff0000; stroke-width: 1.5; stroke-linecap: square"/>
    <g clip-path="url(#p52a76aa7d7)">
     <use xlink:href="#ma6f3e5aed2" x="586.306073" y="748.14875" style="fill: #ff0000; stroke: #ff0000; stroke-linejoin: bevel"/>
    </g>
   </g>
  </g>
 </g>
 <defs>
  <clipPath id="p52a76aa7d7">
   <rect x="0" y="0" width="1440" height="1440"/>
  </clipPath>
 </defs>
</svg>
