<?xml version="1.0" encoding="utf-8" standalone="no"?>
<!DOCTYPE svg PUBLIC "-//W3C//DTD SVG 1.1//EN"
  "http://www.w3.org/Graphics/SVG/1.1/DTD/svg11.dtd">
<svg xmlns:xlink="http://www.w3.org/1999/xlink" width="1440pt" height="1440pt" viewBox="0 0 1440 1440" xmlns="http://www.w3.org/2000/svg" version="1.1">
 <metadata>
  <rdf:RDF xmlns:dc="http://purl.org/dc/elements/1.1/" xmlns:cc="http://creativecommons.org/ns#" xmlns:rdf="http://www.w3.org/1999/02/22-rdf-syntax-ns#">
   <cc:Work>
    <dc:type rdf:resource="http://purl.org/dc/dcmitype/StillImage"/>
    <dc:date>2026-02-27T11:04:27.713948</dc:date>
    <dc:format>image/svg+xml</dc:format>
    <dc:creator>
     <cc:Agent>
      <dc:title>Matplotlib v3.7.3, https://matplotlib.org/</dc:title>
     </cc:Agent>
    </dc:creator>
   </cc:Work>
  </rdf:RDF>
 </metadata>
 <defs>
  <style type="text/css">*{stroke-linejoin: round; stroke-linecap: butt}</style>
 </defs>
 <g id="figure_1">
  <g id="patch_1">
   <path d="M 0 1440 
L 1440 1440 
L 1440 0 
L 0 0 
z
" style="fill: #ffffff"/>
  </g>
  <g id="axes_1">
   <g id="line2d_1">
    <path d="M 1269.19776 1293.146861 
L 1075.550788 1441 
" clip-path="url(#pce2064d93f)" style="fill: none; stroke: #7a7a7a; stroke-width: 3; stroke-linecap: square"/>
   </g>
   <g id="line2d_2">
    <path d="M 1242.072988 1268.958152 
L 1016.245075 1441 
" clip-path="url(#pce2064d93f)" style="fill: none; stroke: #7a7a7a; stroke-width: 3; stroke-linecap: square"/>
   </g>
   <g id="line2d_3">
    <path clip-path="url(#pce2064d93f)" style="fill: none; stroke: #7a7a7a; stroke-width: 3; stroke-linecap: square"/>
   </g>
   <g id="line2d_4">
    <path clip-path="url(#pce2064d93f)" style="fill: none; stroke: #7a7a7a; stroke-width: 3; stroke-linecap: square"/>
   </g>
   <g id="line2d_5">
    <path d="M 1075.550788 1441 
L 1269.19776 1293.146861 
" clip-path="url(#pce2064d93f)" style="fill: none; stroke: #7a7a7a; stroke-width: 3; stroke-linecap: square"/>
   </g>
   <g id="line2d_6">
    <path d="M 1135.421521 1441 
L 1296.876098 1317.90606 
" clip-path="url(#pce2064d93f)" style="fill: none; stroke: #7a7a7a; stroke-width: 3; stroke-linecap: square"/>
   </g>
   <g id="line2d_7">
    <path d="M 725.456809 618.829531 
L 726.287159 619.514117 
L 726.563942 619.742312 
L 726.840726 620.084605 
L 727.671076 620.769191 
L 728.224642 621.33968 
L 728.639818 621.681973 
L 928.200635 803.439588 
" clip-path="url(#pce2064d93f)" style="fill: none; stroke: #7a7a7a; stroke-width: 3; stroke-linecap: square"/>
   </g>
   <g id="line2d_8">
    <path d="M 655.292222 618.829531 
L 655.98418 619.514117 
L 656.260964 619.742312 
L 656.676139 620.084605 
L 657.506489 620.883289 
L 658.060056 621.453778 
L 658.336839 621.796071 
L 883.500119 835.843332 
" clip-path="url(#pce2064d93f)" style="fill: none; stroke: #7a7a7a; stroke-width: 3; stroke-linecap: square"/>
   </g>
   <g id="line2d_9">
    <path d="M 1033.931886 894.60364 
L 1242.072988 1081.039261 
" clip-path="url(#pce2064d93f)" style="fill: none; stroke: #7a7a7a; stroke-width: 3; stroke-linecap: square"/>
   </g>
   <g id="line2d_10">
    <path d="M 987.155495 926.779188 
L 1196.403731 1114.469883 
" clip-path="url(#pce2064d93f)" style="fill: none; stroke: #7a7a7a; stroke-width: 3; stroke-linecap: square"/>
   </g>
   <g id="line2d_11">
    <path d="M 1135.421521 1441 
L 1296.876098 1317.90606 
" clip-path="url(#pce2064d93f)" style="fill: none; stroke: #7a7a7a; stroke-width: 3; stroke-linecap: square"/>
   </g>
   <g id="line2d_12">
    <path d="M 1193.576547 1441 
L 1265.599576 1386.136476 
L 1324.000869 1342.55116 
L 1324.277652 1342.322965 
" clip-path="url(#pce2064d93f)" style="fill: none; stroke: #7a7a7a; stroke-width: 3; stroke-linecap: square"/>
   </g>
   <g id="line2d_13">
    <path d="M 1033.931886 894.60364 
L 928.200635 803.439588 
" clip-path="url(#pce2064d93f)" style="fill: none; stroke: #7a7a7a; stroke-width: 3; stroke-linecap: square"/>
   </g>
   <g id="line2d_14">
    <path d="M 1081.815411 861.515311 
L 1070.328901 851.474715 
L 1062.163791 844.742951 
L 1058.288824 840.977727 
L 1001.686622 791.801624 
L 992.967946 784.727568 
L 975.668985 769.210282 
" clip-path="url(#pce2064d93f)" style="fill: none; stroke: #7a7a7a; stroke-width: 3; stroke-linecap: square"/>
   </g>
   <g id="line2d_15">
    <path d="M 1088.181429 800.815342 
L 1070.052117 814.164771 
L 1056.074557 825.460442 
L 1054.413856 828.198787 
L 1054.137073 829.111568 
L 917.1293 942.638767 
" clip-path="url(#pce2064d93f)" style="fill: none; stroke: #7a7a7a; stroke-width: 3; stroke-linecap: square"/>
   </g>
   <g id="line2d_16">
    <path d="M 1049.846931 767.270622 
L 1016.356142 791.345234 
L 1012.065999 793.741285 
L 1011.097257 793.855383 
L 864.955632 893.690859 
" clip-path="url(#pce2064d93f)" style="fill: none; stroke: #7a7a7a; stroke-width: 3; stroke-linecap: square"/>
   </g>
   <g id="line2d_17">
    <path clip-path="url(#pce2064d93f)" style="fill: none; stroke: #7a7a7a; stroke-width: 3; stroke-linecap: square"/>
   </g>
   <g id="line2d_18">
    <path clip-path="url(#pce2064d93f)" style="fill: none; stroke: #7a7a7a; stroke-width: 3; stroke-linecap: square"/>
   </g>
   <g id="line2d_19">
    <path d="M 1242.072988 1081.039261 
L 1033.931886 894.60364 
" clip-path="url(#pce2064d93f)" style="fill: none; stroke: #7a7a7a; stroke-width: 3; stroke-linecap: square"/>
   </g>
   <g id="line2d_20">
    <path d="M 1288.710988 1046.809955 
L 1147.413072 920.503815 
L 1120.980259 897.11379 
L 1096.761714 875.092936 
L 1081.815411 861.515311 
" clip-path="url(#pce2064d93f)" style="fill: none; stroke: #7a7a7a; stroke-width: 3; stroke-linecap: square"/>
   </g>
   <g id="line2d_21">
    <path d="M 1049.708539 767.384719 
L 1194.604639 663.669922 
L 1236.260537 633.66223 
" clip-path="url(#pce2064d93f)" style="fill: none; stroke: #7a7a7a; stroke-width: 3; stroke-linecap: square"/>
   </g>
   <g id="line2d_22">
    <path d="M 1088.319821 800.815342 
L 1290.371688 647.582148 
" clip-path="url(#pce2064d93f)" style="fill: none; stroke: #7a7a7a; stroke-width: 3; stroke-linecap: square"/>
   </g>
   <g id="line2d_23">
    <path d="M 1033.931886 894.60364 
L 1017.463275 887.415486 
L 996.981305 887.415486 
L 977.468077 898.140669 
L 957.26289 913.087466 
L 955.878973 913.315661 
L 952.142397 916.054006 
L 949.374564 918.79235 
L 917.1293 942.638767 
" clip-path="url(#pce2064d93f)" style="fill: none; stroke: #7a7a7a; stroke-width: 3; stroke-linecap: square"/>
   </g>
   <g id="line2d_24">
    <path d="M 1081.815411 861.515311 
L 1063.270925 847.139003 
L 1040.297904 837.554797 
L 1014.833833 832.420401 
L 988.677804 831.279424 
L 963.767299 834.017769 
L 942.039804 840.064946 
L 925.294409 849.192761 
L 864.955632 893.690859 
" clip-path="url(#pce2064d93f)" style="fill: none; stroke: #7a7a7a; stroke-width: 3; stroke-linecap: square"/>
   </g>
   <g id="line2d_25">
    <path clip-path="url(#pce2064d93f)" style="fill: none; stroke: #7a7a7a; stroke-width: 3; stroke-linecap: square"/>
   </g>
   <g id="line2d_26">
    <path clip-path="url(#pce2064d93f)" style="fill: none; stroke: #7a7a7a; stroke-width: 3; stroke-linecap: square"/>
   </g>
   <g id="line2d_27">
    <path d="M 718.675616 1005.050202 
L 830.911277 919.819229 
L 864.817241 893.919054 
" clip-path="url(#pce2064d93f)" style="fill: none; stroke: #7a7a7a; stroke-width: 3; stroke-linecap: square"/>
   </g>
   <g id="line2d_28">
    <path d="M 775.139425 1048.52142 
L 880.455502 968.881235 
L 916.990908 942.752864 
" clip-path="url(#pce2064d93f)" style="fill: none; stroke: #7a7a7a; stroke-width: 3; stroke-linecap: square"/>
   </g>
   <g id="line2d_29">
    <path d="M 1242.072988 1268.958152 
L 1016.245075 1441 
" clip-path="url(#pce2064d93f)" style="fill: none; stroke: #7a7a7a; stroke-width: 3; stroke-linecap: square"/>
   </g>
   <g id="line2d_30">
    <path d="M 1217.439268 1247.051396 
L 963.208007 1441 
" clip-path="url(#pce2064d93f)" style="fill: none; stroke: #7a7a7a; stroke-width: 3; stroke-linecap: square"/>
   </g>
   <g id="line2d_31">
    <path d="M 1290.371688 647.582148 
L 1088.181429 800.815342 
" clip-path="url(#pce2064d93f)" style="fill: none; stroke: #7a7a7a; stroke-width: 3; stroke-linecap: square"/>
   </g>
   <g id="line2d_32">
    <path d="M 1236.260537 633.66223 
L 1194.604639 663.669922 
L 1049.846931 767.270622 
" clip-path="url(#pce2064d93f)" style="fill: none; stroke: #7a7a7a; stroke-width: 3; stroke-linecap: square"/>
   </g>
   <g id="line2d_33">
    <path clip-path="url(#pce2064d93f)" style="fill: none; stroke: #7a7a7a; stroke-width: 3; stroke-linecap: square"/>
   </g>
   <g id="line2d_34">
    <path clip-path="url(#pce2064d93f)" style="fill: none; stroke: #7a7a7a; stroke-width: 3; stroke-linecap: square"/>
   </g>
   <g id="line2d_35">
    <path d="M 1269.19776 1293.146861 
L 1441 1161.129923 
" clip-path="url(#pce2064d93f)" style="fill: none; stroke: #7a7a7a; stroke-width: 3; stroke-linecap: square"/>
   </g>
   <g id="line2d_36">
    <path d="M 1296.876098 1317.90606 
L 1441 1207.380762 
" clip-path="url(#pce2064d93f)" style="fill: none; stroke: #7a7a7a; stroke-width: 3; stroke-linecap: square"/>
   </g>
   <g id="line2d_37">
    <path d="M 917.1293 942.638767 
L 880.455502 968.881235 
L 775.139425 1048.52142 
" clip-path="url(#pce2064d93f)" style="fill: none; stroke: #7a7a7a; stroke-width: 3; stroke-linecap: square"/>
   </g>
   <g id="line2d_38">
    <path d="M 864.955632 893.690859 
L 830.911277 919.819229 
L 718.675616 1005.050202 
" clip-path="url(#pce2064d93f)" style="fill: none; stroke: #7a7a7a; stroke-width: 3; stroke-linecap: square"/>
   </g>
   <g id="line2d_39">
    <path d="M 928.200635 803.439588 
L 728.639818 621.681973 
L 728.224642 621.33968 
L 727.671076 620.769191 
L 726.840726 620.084605 
L 726.563942 619.742312 
L 726.287159 619.514117 
L 725.456809 618.829531 
" clip-path="url(#pce2064d93f)" style="fill: none; stroke: #7a7a7a; stroke-width: 3; stroke-linecap: square"/>
   </g>
   <g id="line2d_40">
    <path d="M 975.668985 769.210282 
L 812.781965 621.567875 
L 812.36679 621.33968 
L 811.813223 620.769191 
L 811.121265 620.084605 
L 810.70609 619.742312 
L 810.429306 619.514117 
L 809.737348 618.829531 
" clip-path="url(#pce2064d93f)" style="fill: none; stroke: #7a7a7a; stroke-width: 3; stroke-linecap: square"/>
   </g>
   <g id="line2d_41">
    <path d="M 928.200635 803.439588 
L 1033.931886 894.60364 
" clip-path="url(#pce2064d93f)" style="fill: none; stroke: #7a7a7a; stroke-width: 3; stroke-linecap: square"/>
   </g>
   <g id="line2d_42">
    <path d="M 883.500119 835.843332 
L 896.093763 846.340319 
L 900.107122 849.877347 
L 900.79908 851.018324 
L 980.927869 921.302499 
L 983.418919 923.128062 
L 987.155495 926.779188 
" clip-path="url(#pce2064d93f)" style="fill: none; stroke: #7a7a7a; stroke-width: 3; stroke-linecap: square"/>
   </g>
   <g id="line2d_43">
    <path d="M 1441 1115.180619 
L 1437.06688 1118.235107 
L 1408.143017 1134.208783 
L 1382.955729 1143.564794 
L 1359.567533 1146.18904 
L 1338.670388 1145.048064 
L 1319.018768 1139.229082 
L 1300.197498 1129.41668 
L 1281.51462 1116.067251 
L 1262.278175 1099.751282 
L 1242.072988 1081.039261 
" clip-path="url(#pce2064d93f)" style="fill: none; stroke: #7a7a7a; stroke-width: 3; stroke-linecap: square"/>
   </g>
   <g id="line2d_44">
    <path d="M 1441 1077.499464 
L 1423.919669 1090.623467 
L 1412.848334 1098.153914 
L 1400.808257 1104.201092 
L 1391.536014 1106.597143 
L 1386.415521 1106.939436 
L 1379.77272 1107.395827 
L 1377.835237 1107.167631 
L 1366.902293 1106.140752 
L 1365.379984 1105.684362 
L 1361.920192 1104.999775 
L 1359.982709 1104.315189 
L 1356.246133 1103.060115 
L 1347.250673 1098.496207 
L 1337.701646 1091.193955 
L 1333.549896 1087.428732 
L 1331.335629 1085.717266 
L 1312.099184 1068.374418 
L 1288.710988 1046.809955 
" clip-path="url(#pce2064d93f)" style="fill: none; stroke: #7a7a7a; stroke-width: 3; stroke-linecap: square"/>
   </g>
   <g id="line2d_45">
    <path d="M 345.156444 276.536469 
L 345.986794 277.335153 
L 346.540361 277.905642 
L 347.509103 278.704325 
L 348.062669 279.274814 
L 348.477844 279.617107 
L 468.601832 391.546938 
" clip-path="url(#pce2064d93f)" style="fill: none; stroke: #7a7a7a; stroke-width: 3; stroke-linecap: square"/>
   </g>
   <g id="line2d_46">
    <path d="M 256.585762 276.536469 
L 257.416112 277.335153 
L 258.108071 277.905642 
L 259.076812 278.818423 
L 259.768771 279.388912 
L 260.183946 279.731205 
L 376.986533 384.016491 
L 441.615452 410.601252 
L 444.383286 412.769108 
" clip-path="url(#pce2064d93f)" style="fill: none; stroke: #7a7a7a; stroke-width: 3; stroke-linecap: square"/>
   </g>
   <g id="line2d_47">
    <path d="M 1441 1161.129923 
L 1269.19776 1293.146861 
" clip-path="url(#pce2064d93f)" style="fill: none; stroke: #7a7a7a; stroke-width: 3; stroke-linecap: square"/>
   </g>
   <g id="line2d_48">
    <path d="M 1441 1115.095517 
L 1242.072988 1268.958152 
" clip-path="url(#pce2064d93f)" style="fill: none; stroke: #7a7a7a; stroke-width: 3; stroke-linecap: square"/>
   </g>
   <g id="line2d_49">
    <path d="M 928.200635 803.439588 
L 945.499596 821.010632 
L 956.709323 839.608555 
L 962.106599 858.891064 
L 961.691424 878.515867 
L 955.325406 898.254766 
L 943.285329 917.651373 
L 925.709584 936.363394 
L 917.1293 942.638767 
" clip-path="url(#pce2064d93f)" style="fill: none; stroke: #7a7a7a; stroke-width: 3; stroke-linecap: square"/>
   </g>
   <g id="line2d_50">
    <path d="M 883.500119 835.843332 
L 892.080404 842.917388 
L 896.093763 846.340319 
L 896.785721 846.910807 
L 898.30803 848.279979 
L 900.107122 849.877347 
L 902.598172 853.414375 
L 902.736564 854.098961 
L 902.874956 854.555352 
L 904.120481 858.320576 
L 903.566914 863.112679 
L 900.245513 866.763805 
L 898.169638 868.247075 
L 897.892855 868.47527 
L 864.955632 893.690859 
" clip-path="url(#pce2064d93f)" style="fill: none; stroke: #7a7a7a; stroke-width: 3; stroke-linecap: square"/>
   </g>
   <g id="line2d_51">
    <path d="M 684.216085 577.754363 
L 724.76485 618.144945 
L 725.456809 618.829531 
" clip-path="url(#pce2064d93f)" style="fill: none; stroke: #7a7a7a; stroke-width: 3; stroke-linecap: square"/>
   </g>
   <g id="line2d_52">
    <path d="M 651.555646 601.828975 
L 654.738655 618.259042 
L 655.292222 618.829531 
" clip-path="url(#pce2064d93f)" style="fill: none; stroke: #7a7a7a; stroke-width: 3; stroke-linecap: square"/>
   </g>
   <g id="line2d_53">
    <path d="M 864.817241 893.919054 
L 920.173917 852.957985 
L 935.120219 839.152164 
L 938.164837 821.238828 
L 928.200635 803.439588 
" clip-path="url(#pce2064d93f)" style="fill: none; stroke: #7a7a7a; stroke-width: 3; stroke-linecap: square"/>
   </g>
   <g id="line2d_54">
    <path d="M 916.990908 942.752864 
L 949.512955 918.79235 
L 952.142397 916.054006 
L 955.878973 913.315661 
L 957.26289 913.087466 
L 972.347584 901.905892 
L 987.432278 888.898756 
L 997.950047 871.327712 
L 1003.762498 850.790129 
L 1004.592848 828.769275 
L 1000.302706 806.748421 
L 990.753679 786.324935 
L 975.668985 769.210282 
" clip-path="url(#pce2064d93f)" style="fill: none; stroke: #7a7a7a; stroke-width: 3; stroke-linecap: square"/>
   </g>
   <g id="line2d_55">
    <path d="M 684.216085 577.754363 
L 659.443972 562.807566 
L 635.778993 554.592533 
L 613.35954 552.424677 
L 591.770436 555.391217 
L 570.734899 562.579371 
L 550.114537 573.418651 
L 529.632567 586.882178 
L 509.288988 602.285366 
L 488.530235 618.715433 
" clip-path="url(#pce2064d93f)" style="fill: none; stroke: #7a7a7a; stroke-width: 3; stroke-linecap: square"/>
   </g>
   <g id="line2d_56">
    <path d="M 728.086251 545.578816 
L 702.068613 525.497623 
L 674.113492 513.859659 
L 645.051237 509.181653 
L 615.435415 510.436728 
L 586.096377 516.25571 
L 558.002863 525.61172 
L 531.846834 537.021489 
L 508.181855 549.572235 
L 487.976668 561.780687 
L 472.061624 572.50587 
L 461.12868 580.492708 
L 455.869796 584.486127 
" clip-path="url(#pce2064d93f)" style="fill: none; stroke: #7a7a7a; stroke-width: 3; stroke-linecap: square"/>
   </g>
   <g id="line2d_57">
    <path d="M 928.200635 803.439588 
L 951.865614 814.963455 
L 977.468077 813.25199 
L 1000.441097 803.439588 
L 1049.708539 767.384719 
" clip-path="url(#pce2064d93f)" style="fill: none; stroke: #7a7a7a; stroke-width: 3; stroke-linecap: square"/>
   </g>
   <g id="line2d_58">
    <path d="M 883.500119 835.843332 
L 901.214255 847.481296 
L 923.356926 854.783548 
L 948.405822 857.978283 
L 974.285068 857.407794 
L 999.333964 853.528473 
L 1021.476634 846.568514 
L 1038.913987 836.870211 
L 1088.319821 800.815342 
" clip-path="url(#pce2064d93f)" style="fill: none; stroke: #7a7a7a; stroke-width: 3; stroke-linecap: square"/>
   </g>
   <g id="line2d_59">
    <path d="M 864.817241 893.919054 
L 1011.097257 793.855383 
L 1012.065999 793.741285 
L 1016.356142 791.345234 
L 1049.708539 767.384719 
" clip-path="url(#pce2064d93f)" style="fill: none; stroke: #7a7a7a; stroke-width: 3; stroke-linecap: square"/>
   </g>
   <g id="line2d_60">
    <path d="M 916.990908 942.752864 
L 1054.137073 829.111568 
L 1054.413856 828.198787 
L 1056.074557 825.460442 
L 1070.052117 814.164771 
L 1088.319821 800.815342 
" clip-path="url(#pce2064d93f)" style="fill: none; stroke: #7a7a7a; stroke-width: 3; stroke-linecap: square"/>
   </g>
   <g id="line2d_61">
    <path d="M 1441 1115.095517 
L 1242.072988 1268.958152 
" clip-path="url(#pce2064d93f)" style="fill: none; stroke: #7a7a7a; stroke-width: 3; stroke-linecap: square"/>
   </g>
   <g id="line2d_62">
    <path d="M 1441 1077.499464 
L 1423.919669 1090.623467 
L 1421.290227 1092.334932 
L 1252.313974 1220.69483 
L 1250.514882 1222.406295 
L 1217.439268 1247.051396 
" clip-path="url(#pce2064d93f)" style="fill: none; stroke: #7a7a7a; stroke-width: 3; stroke-linecap: square"/>
   </g>
   <g id="line2d_63">
    <path d="M 1088.181429 800.815342 
L 1079.185969 807.433007 
L 1078.494011 808.003496 
L 1054.69064 822.493902 
L 1031.164052 831.849913 
L 1008.467815 836.185625 
L 986.74032 835.272843 
L 965.981566 829.567959 
L 946.468338 818.842776 
L 928.200635 803.439588 
" clip-path="url(#pce2064d93f)" style="fill: none; stroke: #7a7a7a; stroke-width: 3; stroke-linecap: square"/>
   </g>
   <g id="line2d_64">
    <path d="M 1049.846931 767.270622 
L 1040.574687 774.116483 
L 1024.521251 785.526252 
L 1016.356142 791.345234 
L 1012.065999 793.741285 
L 1007.914249 793.96948 
L 1003.900889 793.398992 
L 1000.441097 790.888843 
L 998.642005 789.405573 
L 992.967946 784.727568 
L 975.668985 769.210282 
" clip-path="url(#pce2064d93f)" style="fill: none; stroke: #7a7a7a; stroke-width: 3; stroke-linecap: square"/>
   </g>
   <g id="line2d_65">
    <path d="M 1269.19776 1293.146861 
L 1297.291273 1271.696496 
L 1307.809041 1259.716239 
L 1315.697368 1241.460609 
L 1320.264293 1218.983365 
L 1320.956252 1194.452362 
L 1317.358068 1169.921359 
L 1308.777783 1147.558213 
L 1294.661831 1129.41668 
L 1242.072988 1081.039261 
" clip-path="url(#pce2064d93f)" style="fill: none; stroke: #7a7a7a; stroke-width: 3; stroke-linecap: square"/>
   </g>
   <g id="line2d_66">
    <path d="M 1296.876098 1317.90606 
L 1324.969611 1296.341597 
L 1340.884655 1280.710214 
L 1353.063124 1261.769997 
L 1361.920192 1240.43373 
L 1367.45586 1217.385997 
L 1369.808519 1193.767776 
L 1369.254952 1170.263652 
L 1365.933551 1147.786408 
L 1360.1211 1127.248824 
L 1351.817599 1109.335488 
L 1341.29983 1095.187374 
L 1288.710988 1046.809955 
" clip-path="url(#pce2064d93f)" style="fill: none; stroke: #7a7a7a; stroke-width: 3; stroke-linecap: square"/>
   </g>
   <g id="line2d_67">
    <path d="M 712.309598 448.367586 
L 680.617901 480.543134 
L 662.903765 506.101016 
L 656.399355 526.410404 
L 658.060056 542.498178 
L 665.256423 555.619412 
L 684.216085 577.754363 
" clip-path="url(#pce2064d93f)" style="fill: none; stroke: #7a7a7a; stroke-width: 3; stroke-linecap: square"/>
   </g>
   <g id="line2d_68">
    <path d="M 675.497408 418.359894 
L 642.283403 447.683 
L 620.694299 474.495957 
L 609.069397 498.912862 
L 605.332822 520.819618 
L 607.962264 540.216224 
L 614.881848 557.330877 
L 624.569266 571.935381 
L 635.087035 584.257932 
L 644.774453 594.18443 
L 651.555646 601.828975 
" clip-path="url(#pce2064d93f)" style="fill: none; stroke: #7a7a7a; stroke-width: 3; stroke-linecap: square"/>
   </g>
   <g id="line2d_69">
    <path d="M 1296.876098 1317.90606 
L 1441 1207.380762 
" clip-path="url(#pce2064d93f)" style="fill: none; stroke: #7a7a7a; stroke-width: 3; stroke-linecap: square"/>
   </g>
   <g id="line2d_70">
    <path d="M 1324.277652 1342.322965 
L 1441 1252.939739 
" clip-path="url(#pce2064d93f)" style="fill: none; stroke: #7a7a7a; stroke-width: 3; stroke-linecap: square"/>
   </g>
   <g id="line2d_71">
    <path d="M 468.601832 391.546938 
L 517.315707 433.420789 
L 534.061101 453.958373 
L 543.194953 472.099905 
L 545.686003 488.758167 
L 542.087819 504.161355 
L 532.953968 519.108152 
L 519.114798 534.054949 
L 501.26227 549.572235 
L 479.94995 566.230497 
L 455.869796 584.486127 
" clip-path="url(#pce2064d93f)" style="fill: none; stroke: #7a7a7a; stroke-width: 3; stroke-linecap: square"/>
   </g>
   <g id="line2d_72">
    <path d="M 444.383286 412.769108 
L 482.302609 453.045591 
L 492.820377 469.361561 
L 494.896253 483.167381 
L 488.94541 496.51681 
L 475.244633 511.235412 
L 453.932312 529.491042 
L 425.285232 553.109263 
" clip-path="url(#pce2064d93f)" style="fill: none; stroke: #7a7a7a; stroke-width: 3; stroke-linecap: square"/>
   </g>
   <g id="line2d_73">
    <path d="M 1033.931886 894.60364 
L 1019.400759 880.113234 
L 1008.744599 863.56907 
L 1002.793756 845.31344 
L 1002.516973 826.373224 
L 1008.744599 807.204812 
L 1022.168593 788.720987 
L 1044.03448 771.606334 
L 1049.708539 767.384719 
" clip-path="url(#pce2064d93f)" style="fill: none; stroke: #7a7a7a; stroke-width: 3; stroke-linecap: square"/>
   </g>
   <g id="line2d_74">
    <path d="M 1081.815411 861.515311 
L 1066.038758 848.279979 
L 1062.440574 845.085244 
L 1062.163791 844.742951 
L 1058.565607 841.434118 
L 1056.212948 838.467578 
L 1055.52099 837.668895 
L 1055.244207 837.326601 
L 1053.721898 833.789573 
L 1053.86029 830.708936 
L 1054.413856 828.198787 
L 1056.074557 825.460442 
L 1057.043299 824.661758 
L 1058.150432 823.748977 
L 1070.052117 814.164771 
L 1088.319821 800.815342 
" clip-path="url(#pce2064d93f)" style="fill: none; stroke: #7a7a7a; stroke-width: 3; stroke-linecap: square"/>
   </g>
   <g id="line2d_75">
    <path d="M 1088.181429 800.815342 
L 1034.762236 840.407239 
L 1023.55251 857.407794 
L 1022.722159 877.603085 
L 1033.931886 894.60364 
" clip-path="url(#pce2064d93f)" style="fill: none; stroke: #7a7a7a; stroke-width: 3; stroke-linecap: square"/>
   </g>
   <g id="line2d_76">
    <path d="M 1049.846931 767.270622 
L 996.427738 806.748421 
L 981.066261 823.520781 
L 970.963667 843.83017 
L 966.535133 866.079219 
L 967.642267 888.328268 
L 974.423459 909.208144 
L 987.155495 926.779188 
" clip-path="url(#pce2064d93f)" style="fill: none; stroke: #7a7a7a; stroke-width: 3; stroke-linecap: square"/>
   </g>
   <g id="line2d_77">
    <path d="M 864.817241 893.919054 
L 880.732285 882.052895 
L 902.182997 871.327712 
L 925.432801 864.710046 
L 949.512955 862.313995 
L 973.316326 864.02546 
L 996.012563 869.95854 
L 1016.494533 880.113234 
L 1033.931886 894.60364 
" clip-path="url(#pce2064d93f)" style="fill: none; stroke: #7a7a7a; stroke-width: 3; stroke-linecap: square"/>
   </g>
   <g id="line2d_78">
    <path d="M 916.990908 942.752864 
L 932.905952 931.000803 
L 948.820997 919.362839 
L 952.142397 916.054006 
L 955.878973 913.315661 
L 961.691424 912.174684 
L 963.075341 912.40288 
L 965.704783 912.745173 
L 967.227092 912.85927 
L 971.932409 914.684833 
L 983.418919 923.128062 
L 987.155495 926.779188 
" clip-path="url(#pce2064d93f)" style="fill: none; stroke: #7a7a7a; stroke-width: 3; stroke-linecap: square"/>
   </g>
   <g id="line2d_79">
    <path d="M 488.530235 618.715433 
L -1 991.237858 
" clip-path="url(#pce2064d93f)" style="fill: none; stroke: #7a7a7a; stroke-width: 3; stroke-linecap: square"/>
   </g>
   <g id="line2d_80">
    <path d="M 455.869796 584.486127 
L -1 933.41394 
" clip-path="url(#pce2064d93f)" style="fill: none; stroke: #7a7a7a; stroke-width: 3; stroke-linecap: square"/>
   </g>
   <g id="line2d_81">
    <path d="M 1242.072988 1081.039261 
L 1267.398668 1103.744701 
L 1286.773504 1120.745256 
L 1308.501 1133.980588 
L 1331.889195 1143.450696 
L 1356.384525 1149.497873 
L 1381.571812 1152.008022 
L 1406.897492 1151.323436 
L 1431.669604 1147.444115 
L 1441 1144.700011 
" clip-path="url(#pce2064d93f)" style="fill: none; stroke: #7a7a7a; stroke-width: 3; stroke-linecap: square"/>
   </g>
   <g id="line2d_82">
    <path d="M 1196.403731 1114.469883 
L 1221.72941 1137.289421 
L 1240.273896 1152.350316 
L 1260.894258 1165.129257 
L 1283.452104 1175.512146 
L 1307.393866 1183.498984 
L 1332.442762 1189.089771 
L 1358.045225 1192.284506 
L 1384.201254 1192.854994 
L 1410.218892 1190.915334 
L 1435.821355 1186.465524 
L 1441 1184.96283 
" clip-path="url(#pce2064d93f)" style="fill: none; stroke: #7a7a7a; stroke-width: 3; stroke-linecap: square"/>
   </g>
   <g id="line2d_83">
    <path d="M 468.601832 391.546938 
L 348.477844 279.617107 
L 348.062669 279.274814 
L 347.509103 278.704325 
L 346.540361 277.905642 
L 345.986794 277.335153 
L 345.156444 276.536469 
" clip-path="url(#pce2064d93f)" style="fill: none; stroke: #7a7a7a; stroke-width: 3; stroke-linecap: square"/>
   </g>
   <g id="line2d_84">
    <path d="M 498.494437 369.982475 
L 496.418561 367.586424 
L 481.887434 326.625354 
L 428.745025 279.617107 
L 428.32985 279.274814 
L 427.776283 278.704325 
L 426.807541 277.905642 
L 426.392366 277.563349 
L 426.115583 277.335153 
L 425.285232 276.536469 
" clip-path="url(#pce2064d93f)" style="fill: none; stroke: #7a7a7a; stroke-width: 3; stroke-linecap: square"/>
   </g>
   <g id="line2d_85">
    <path d="M 675.497408 418.359894 
L 656.260964 429.085077 
L 634.395076 437.300111 
L 610.730097 442.434506 
L 585.957985 444.374167 
L 560.909089 442.548604 
L 536.552151 436.501427 
L 513.855914 426.118537 
L 468.601832 391.546938 
" clip-path="url(#pce2064d93f)" style="fill: none; stroke: #7a7a7a; stroke-width: 3; stroke-linecap: square"/>
   </g>
   <g id="line2d_86">
    <path d="M 634.118293 387.553519 
L 616.265765 401.359339 
L 595.230228 408.547493 
L 571.703641 408.889786 
L 547.208312 402.500316 
L 522.574591 389.150887 
L 498.494437 369.982475 
" clip-path="url(#pce2064d93f)" style="fill: none; stroke: #7a7a7a; stroke-width: 3; stroke-linecap: square"/>
   </g>
   <g id="line2d_87">
    <path d="M 712.309598 448.367586 
L 488.530235 618.715433 
" clip-path="url(#pce2064d93f)" style="fill: none; stroke: #7a7a7a; stroke-width: 3; stroke-linecap: square"/>
   </g>
   <g id="line2d_88">
    <path d="M 675.497408 418.359894 
L 455.869796 584.486127 
" clip-path="url(#pce2064d93f)" style="fill: none; stroke: #7a7a7a; stroke-width: 3; stroke-linecap: square"/>
   </g>
   <g id="line2d_89">
    <path d="M 1242.072988 1081.039261 
L 1297.291273 1132.38322 
L 1311.8224 1152.920804 
L 1317.634851 1173.001997 
L 1317.634851 1190.687138 
L 1310.438483 1207.573596 
L 1299.228757 1222.634491 
L 1285.527979 1235.869823 
L 1242.072988 1268.958152 
" clip-path="url(#pce2064d93f)" style="fill: none; stroke: #7a7a7a; stroke-width: 3; stroke-linecap: square"/>
   </g>
   <g id="line2d_90">
    <path d="M 1196.403731 1114.469883 
L 1213.149125 1130.101267 
L 1245.809564 1157.484711 
L 1254.805024 1166.384331 
L 1261.724608 1175.626244 
L 1265.461184 1184.297668 
L 1266.429926 1192.512701 
L 1266.014751 1198.331683 
L 1265.046009 1202.553298 
L 1262.970134 1207.573596 
L 1260.063908 1212.137504 
L 1255.496982 1217.614193 
L 1250.514882 1222.406295 
L 1217.439268 1247.051396 
" clip-path="url(#pce2064d93f)" style="fill: none; stroke: #7a7a7a; stroke-width: 3; stroke-linecap: square"/>
   </g>
   <g id="line2d_91">
    <path d="M 725.456809 618.829531 
L 724.76485 618.144945 
L 684.216085 577.754363 
" clip-path="url(#pce2064d93f)" style="fill: none; stroke: #7a7a7a; stroke-width: 3; stroke-linecap: square"/>
   </g>
   <g id="line2d_92">
    <path d="M 809.737348 618.829531 
L 808.906998 618.030847 
L 728.086251 545.578816 
" clip-path="url(#pce2064d93f)" style="fill: none; stroke: #7a7a7a; stroke-width: 3; stroke-linecap: square"/>
   </g>
   <g id="line2d_93">
    <path d="M 684.216085 577.754363 
L 468.601832 391.546938 
" clip-path="url(#pce2064d93f)" style="fill: none; stroke: #7a7a7a; stroke-width: 3; stroke-linecap: square"/>
   </g>
   <g id="line2d_94">
    <path d="M 728.086251 545.578816 
L 498.494437 369.982475 
" clip-path="url(#pce2064d93f)" style="fill: none; stroke: #7a7a7a; stroke-width: 3; stroke-linecap: square"/>
   </g>
   <g id="line2d_95">
    <path d="M 860.942273 276.536469 
L 860.111923 277.106958 
L 859.83514 277.335153 
L 859.281573 277.791544 
L 858.589615 278.362032 
L 857.759265 278.932521 
L 857.344089 279.274814 
L 675.497408 418.359894 
" clip-path="url(#pce2064d93f)" style="fill: none; stroke: #7a7a7a; stroke-width: 3; stroke-linecap: square"/>
   </g>
   <g id="line2d_96">
    <path d="M 785.795586 276.536469 
L 784.965235 277.106958 
L 784.688452 277.449251 
L 784.134885 277.791544 
L 783.166144 278.47613 
L 782.474185 279.046619 
L 782.05901 279.274814 
L 634.118293 387.553519 
" clip-path="url(#pce2064d93f)" style="fill: none; stroke: #7a7a7a; stroke-width: 3; stroke-linecap: square"/>
   </g>
   <g id="line2d_97">
    <path d="M 468.601832 391.546938 
L 684.216085 577.754363 
" clip-path="url(#pce2064d93f)" style="fill: none; stroke: #7a7a7a; stroke-width: 3; stroke-linecap: square"/>
   </g>
   <g id="line2d_98">
    <path d="M 444.383286 412.769108 
L 651.555646 601.828975 
" clip-path="url(#pce2064d93f)" style="fill: none; stroke: #7a7a7a; stroke-width: 3; stroke-linecap: square"/>
   </g>
   <g id="line2d_99">
    <path d="M 935.812178 276.536469 
L 935.120219 277.106958 
L 934.843436 277.335153 
L 934.151478 277.791544 
L 933.597911 278.247935 
L 932.905952 278.818423 
L 932.490777 279.160716 
L 712.309598 448.367586 
" clip-path="url(#pce2064d93f)" style="fill: none; stroke: #7a7a7a; stroke-width: 3; stroke-linecap: square"/>
   </g>
   <g id="line2d_100">
    <path d="M 860.942273 276.536469 
L 860.111923 277.106958 
L 859.83514 277.335153 
L 859.281573 277.791544 
L 858.589615 278.362032 
L 857.759265 278.932521 
L 857.344089 279.274814 
L 675.497408 418.359894 
" clip-path="url(#pce2064d93f)" style="fill: none; stroke: #7a7a7a; stroke-width: 3; stroke-linecap: square"/>
   </g>
   <g id="line2d_101">
    <path d="M 455.869796 584.486127 
L -1 933.41394 
" clip-path="url(#pce2064d93f)" style="fill: none; stroke: #7a7a7a; stroke-width: 3; stroke-linecap: square"/>
   </g>
   <g id="line2d_102">
    <path d="M 425.285232 553.109263 
L -1 879.27777 
" clip-path="url(#pce2064d93f)" style="fill: none; stroke: #7a7a7a; stroke-width: 3; stroke-linecap: square"/>
   </g>
   <g id="line2d_103">
    <path d="M 675.497408 418.359894 
L 455.869796 584.486127 
" clip-path="url(#pce2064d93f)" style="fill: none; stroke: #7a7a7a; stroke-width: 3; stroke-linecap: square"/>
   </g>
   <g id="line2d_104">
    <path d="M 634.118293 387.553519 
L 425.285232 553.109263 
" clip-path="url(#pce2064d93f)" style="fill: none; stroke: #7a7a7a; stroke-width: 3; stroke-linecap: square"/>
   </g>
   <g id="line2d_105">
    <path d="M 1300.130239 -1 
L 937.057703 275.623688 
L 935.812178 276.536469 
" clip-path="url(#pce2064d93f)" style="fill: none; stroke: #7a7a7a; stroke-width: 3; stroke-linecap: square"/>
   </g>
   <g id="line2d_106">
    <path d="M 1224.804486 -1 
L 861.911015 275.737786 
L 860.942273 276.536469 
" clip-path="url(#pce2064d93f)" style="fill: none; stroke: #7a7a7a; stroke-width: 3; stroke-linecap: square"/>
   </g>
   <g id="line2d_107">
    <path d="M 1224.804486 -1 
L 861.911015 275.737786 
L 860.942273 276.536469 
" clip-path="url(#pce2064d93f)" style="fill: none; stroke: #7a7a7a; stroke-width: 3; stroke-linecap: square"/>
   </g>
   <g id="line2d_108">
    <path d="M 1150.143414 -1 
L 786.764327 275.851883 
L 785.795586 276.536469 
" clip-path="url(#pce2064d93f)" style="fill: none; stroke: #7a7a7a; stroke-width: 3; stroke-linecap: square"/>
   </g>
   <g id="line2d_109">
    <path d="M 293.369435 270.43046 
L 296.356209 270.838549 
" clip-path="url(#pce2064d93f)" style="fill: none; stroke-dasharray: 32,8,5,8; stroke-dashoffset: 0; stroke: #1e90ff; stroke-width: 5"/>
   </g>
   <g id="line2d_110">
    <path d="M 278.418673 243.432541 
L 276.783381 231.446155 
" clip-path="url(#pce2064d93f)" style="fill: none; stroke-dasharray: 32,8,5,8; stroke-dashoffset: 0; stroke: #1e90ff; stroke-width: 5"/>
   </g>
   <g id="line2d_111">
    <path d="M 1091.672575 58.51267 
L 1088.097907 57.048844 
" clip-path="url(#pce2064d93f)" style="fill: none; stroke-dasharray: 32,8,5,8; stroke-dashoffset: 0; stroke: #1e90ff; stroke-width: 5"/>
   </g>
   <g id="line2d_112">
    <path d="M 385.878334 366.186443 
L 386.716252 365.577792 
" clip-path="url(#pce2064d93f)" style="fill: none; stroke-dasharray: 32,8,5,8; stroke-dashoffset: 0; stroke: #1e90ff; stroke-width: 5"/>
   </g>
   <g id="line2d_113">
    <path d="M 848.980312 717.134326 
L 854.22406 710.241389 
" clip-path="url(#pce2064d93f)" style="fill: none; stroke-dasharray: 32,8,5,8; stroke-dashoffset: 0; stroke: #1e90ff; stroke-width: 5"/>
   </g>
   <g id="line2d_114">
    <path d="M 1106.758486 980.58271 
L 1232.412465 1097.706939 
" clip-path="url(#pce2064d93f)" style="fill: none; stroke-dasharray: 32,8,5,8; stroke-dashoffset: 0; stroke: #1e90ff; stroke-width: 5"/>
   </g>
   <g id="line2d_115">
    <path d="M 1154.100878 1031.116063 
L 1135.12608 1008.834144 
" clip-path="url(#pce2064d93f)" style="fill: none; stroke-dasharray: 32,8,5,8; stroke-dashoffset: 0; stroke: #1e90ff; stroke-width: 5"/>
   </g>
   <g id="line2d_116">
    <path d="M 826.538964 692.360699 
L 781.413002 658.458699 
" clip-path="url(#pce2064d93f)" style="fill: none; stroke-dasharray: 32,8,5,8; stroke-dashoffset: 0; stroke: #1e90ff; stroke-width: 5"/>
   </g>
   <g id="line2d_117">
    <path d="M 293.369435 270.43046 
" clip-path="url(#pce2064d93f)" style="fill: none; stroke: #0000ff; stroke-width: 1.5; stroke-linecap: square"/>
    <defs>
     <path id="m58da2ba43b" d="M 0 10 
C 2.652031 10 5.195799 8.946337 7.071068 7.071068 
C 8.946337 5.195799 10 2.652031 10 0 
C 10 -2.652031 8.946337 -5.195799 7.071068 -7.071068 
C 5.195799 -8.946337 2.652031 -10 0 -10 
C -2.652031 -10 -5.195799 -8.946337 -7.071068 -7.071068 
C -8.946337 -5.195799 -10 -2.652031 -10 0 
C -10 2.652031 -8.946337 5.195799 -7.071068 7.071068 
C -5.195799 8.946337 -2.652031 10 0 10 
z
" style="stroke: #0000ff"/>
    </defs>
    <g clip-path="url(#pce2064d93f)">
     <use xlink:href="#m58da2ba43b" x="293.369435" y="270.43046" style="fill: #0000ff; stroke: #0000ff"/>
    </g>
   </g>
   <g id="line2d_118">
    <path d="M 278.418673 243.432541 
" clip-path="url(#pce2064d93f)" style="fill: none; stroke: #0000ff; stroke-width: 1.5; stroke-linecap: square"/>
    <g clip-path="url(#pce2064d93f)">
     <use xlink:href="#m58da2ba43b" x="278.418673" y="243.432541" style="fill: #0000ff; stroke: #0000ff"/>
    </g>
   </g>
   <g id="line2d_119">
    <path d="M 1091.672575 58.51267 
" clip-path="url(#pce2064d93f)" style="fill: none; stroke: #0000ff; stroke-width: 1.5; stroke-linecap: square"/>
    <g clip-path="url(#pce2064d93f)">
     <use xlink:href="#m58da2ba43b" x="1091.672575" y="58.51267" style="fill: #0000ff; stroke: #0000ff"/>
    </g>
   </g>
   <g id="line2d_120">
    <path d="M 385.878334 366.186443 
" clip-path="url(#pce2064d93f)" style="fill: none; stroke: #0000ff; stroke-width: 1.5; stroke-linecap: square"/>
    <g clip-path="url(#pce2064d93f)">
     <use xlink:href="#m58da2ba43b" x="385.878334" y="366.186443" style="fill: #0000ff; stroke: #0000ff"/>
    </g>
   </g>
   <g id="line2d_121">
    <path d="M 848.980312 717.134326 
" clip-path="url(#pce2064d93f)" style="fill: none; stroke: #0000ff; stroke-width: 1.5; stroke-linecap: square"/>
    <g clip-path="url(#pce2064d93f)">
     <use xlink:href="#m58da2ba43b" x="848.980312" y="717.134326" style="fill: #0000ff; stroke: #0000ff"/>
    </g>
   </g>
   <g id="line2d_122">
    <path d="M 1106.758486 980.58271 
" clip-path="url(#pce2064d93f)" style="fill: none; stroke: #0000ff; stroke-width: 1.5; stroke-linecap: square"/>
    <g clip-path="url(#pce2064d93f)">
     <use xlink:href="#m58da2ba43b" x="1106.758486" y="980.58271" style="fill: #0000ff; stroke: #0000ff"/>
    </g>
   </g>
   <g id="line2d_123">
    <path d="M 1154.100878 1031.116063 
" clip-path="url(#pce2064d93f)" style="fill: none; stroke: #0000ff; stroke-width: 1.5; stroke-linecap: square"/>
    <g clip-path="url(#pce2064d93f)">
     <use xlink:href="#m58da2ba43b" x="1154.100878" y="1031.116063" style="fill: #0000ff; stroke: #0000ff"/>
    </g>
   </g>
   <g id="line2d_124">
    <path d="M 826.538964 692.360699 
" clip-path="url(#pce2064d93f)" style="fill: none; stroke: #0000ff; stroke-width: 1.5; stroke-linecap: square"/>
    <g clip-path="url(#pce2064d93f)">
     <use xlink:href="#m58da2ba43b" x="826.538964" y="692.360699" style="fill: #0000ff; stroke: #0000ff"/>
    </g>
   </g>
   <g id="line2d_125">
    <path d="M 296.356209 270.838549 
" clip-path="url(#pce2064d93f)" style="fill: none; stroke: #ff0000; stroke-width: 1.5; stroke-linecap: square"/>
    <defs>
     <path id="m1658fd0b60" d="M 0 -10 
L -2.24514 -3.09017 
L -9.510565 -3.09017 
L -3.632713 1.18034 
L -5.877853 8.09017 
L -0 3.81966 
L 5.877853 8.09017 
L 3.632713 1.18034 
L 9.510565 -3.09017 
L 2.24514 -3.09017 
z
" style="stroke: #ff0000; stroke-linejoin: bevel"/>
    </defs>
    <g clip-path="url(#pce2064d93f)">
     <use xlink:href="#m1658fd0b60" x="296.356209" y="270.838549" style="fill: #ff0000; stroke: #ff0000; stroke-linejoin: bevel"/>
    </g>
   </g>
   <g id="line2d_126">
    <path d="M 276.783381 231.446155 
" clip-path="url(#pce2064d93f)" style="fill: none; stroke: #ff0000; stroke-width: 1.5; stroke-linecap: square"/>
    <g clip-path="url(#pce2064d93f)">
     <use xlink:href="#m1658fd0b60" x="276.783381" y="231.446155" style="fill: #ff0000; stroke: #ff0000; stroke-linejoin: bevel"/>
    </g>
   </g>
   <g id="line2d_127">
    <path d="M 1088.097907 57.048844 
" clip-path="url(#pce2064d93f)" style="fill: none; stroke: #ff0000; stroke-width: 1.5; stroke-linecap: square"/>
    <g clip-path="url(#pce2064d93f)">
     <use xlink:href="#m1658fd0b60" x="1088.097907" y="57.048844" style="fill: #ff0000; stroke: #ff0000; stroke-linejoin: bevel"/>
    </g>
   </g>
   <g id="line2d_128">
    <path d="M 386.716252 365.577792 
" clip-path="url(#pce2064d93f)" style="fill: none; stroke: #ff0000; stroke-width: 1.5; stroke-linecap: square"/>
    <g clip-path="url(#pce2064d93f)">
     <use xlink:href="#m1658fd0b60" x="386.716252" y="365.577792" style="fill: #ff0000; stroke: #ff0000; stroke-linejoin: bevel"/>
    </g>
   </g>
   <g id="line2d_129">
    <path d="M 854.22406 710.241389 
" clip-path="url(#pce2064d93f)" style="fill: none; stroke: #ff0000; stroke-width: 1.5; stroke-linecap: square"/>
    <g clip-path="url(#pce2064d93f)">
     <use xlink:href="#m1658fd0b60" x="854.22406" y="710.241389" style="fill: #ff0000; stroke: #ff0000; stroke-linejoin: bevel"/>
    </g>
   </g>
   <g id="line2d_130">
    <path d="M 1232.412465 1097.706939 
" clip-path="url(#pce2064d93f)" style="fill: none; stroke: #ff0000; stroke-width: 1.5; stroke-linecap: square"/>
    <g clip-path="url(#pce2064d93f)">
     <use xlink:href="#m1658fd0b60" x="1232.412465" y="1097.706939" style="fill: #ff0000; stroke: #ff0000; stroke-linejoin: bevel"/>
    </g>
   </g>
   <g id="line2d_131">
    <path d="M 1135.12608 1008.834144 
" clip-path="url(#pce2064d93f)" style="fill: none; stroke: #ff0000; stroke-width: 1.5; stroke-linecap: square"/>
    <g clip-path="url(#pce2064d93f)">
     <use xlink:href="#m1658fd0b60" x="1135.12608" y="1008.834144" style="fill: #ff0000; stroke: #ff0000; stroke-linejoin: bevel"/>
    </g>
   </g>
   <g id="line2d_132">
    <path d="M 781.413002 658.458699 
" clip-path="url(#pce2064d93f)" style="fill: none; stroke: #ff0000; stroke-width: 1.5; stroke-linecap: square"/>
    <g clip-path="url(#pce2064d93f)">
     <use xlink:href="#m1658fd0b60" x="781.413002" y="658.458699" style="fill: #ff0000; stroke: #ff0000; stroke-linejoin: bevel"/>
    </g>
   </g>
  </g>
 </g>
 <defs>
  <clipPath id="pce2064d93f">
   <rect x="0" y="0" width="1440" height="1440"/>
  </clipPath>
 </defs>
</svg>
