<?xml version="1.0" encoding="utf-8" standalone="no"?>
<!DOCTYPE svg PUBLIC "-//W3C//DTD SVG 1.1//EN"
  "http://www.w3.org/Graphics/SVG/1.1/DTD/svg11.dtd">
<svg xmlns:xlink="http://www.w3.org/1999/xlink" width="1440pt" height="1440pt" viewBox="0 0 1440 1440" xmlns="http://www.w3.org/2000/svg" version="1.1">
 <metadata>
  <rdf:RDF xmlns:dc="http://purl.org/dc/elements/1.1/" xmlns:cc="http://creativecommons.org/ns#" xmlns:rdf="http://www.w3.org/1999/02/22-rdf-syntax-ns#">
   <cc:Work>
    <dc:type rdf:resource="http://purl.org/dc/dcmitype/StillImage"/>
    <dc:date>2026-02-27T11:04:39.929903</dc:date>
    <dc:format>image/svg+xml</dc:format>
    <dc:creator>
     <cc:Agent>
      <dc:title>Matplotlib v3.7.3, https://matplotlib.org/</dc:title>
     </cc:Agent>
    </dc:creator>
   </cc:Work>
  </rdf:RDF>
 </metadata>
 <defs>
  <style type="text/css">*{stroke-linejoin: round; stroke-linecap: butt}</style>
 </defs>
 <g id="figure_1">
  <g id="patch_1">
   <path d="M 0 1440 
L 1440 1440 
L 1440 0 
L 0 0 
z
" style="fill: #ffffff"/>
  </g>
  <g id="axes_1">
   <g id="line2d_1">
    <path d="M 1048.609749 -1 
L 988.312905 123.443825 
" clip-path="url(#p295f77477c)" style="fill: none; stroke: #7a7a7a; stroke-width: 3; stroke-linecap: square"/>
   </g>
   <g id="line2d_2">
    <path d="M 1007.322982 -1 
L 949.293648 115.556551 
" clip-path="url(#p295f77477c)" style="fill: none; stroke: #7a7a7a; stroke-width: 3; stroke-linecap: square"/>
   </g>
   <g id="line2d_3">
    <path d="M 1106.183578 143.504937 
L 1091.551356 172.739291 
L 981.403245 397.012228 
" clip-path="url(#p295f77477c)" style="fill: none; stroke: #7a7a7a; stroke-width: 3; stroke-linecap: square"/>
   </g>
   <g id="line2d_4">
    <path d="M 1067.570771 136.903631 
L 943.061405 390.325191 
" clip-path="url(#p295f77477c)" style="fill: none; stroke: #7a7a7a; stroke-width: 3; stroke-linecap: square"/>
   </g>
   <g id="line2d_5">
    <path d="M 1135.539987 -1 
L 1067.570771 136.903631 
" clip-path="url(#p295f77477c)" style="fill: none; stroke: #7a7a7a; stroke-width: 3; stroke-linecap: square"/>
   </g>
   <g id="line2d_6">
    <path d="M 1093.951361 -1 
L 1028.957964 130.302325 
" clip-path="url(#p295f77477c)" style="fill: none; stroke: #7a7a7a; stroke-width: 3; stroke-linecap: square"/>
   </g>
   <g id="line2d_7">
    <path d="M 903.771181 383.466691 
L 830.068139 533.410639 
L 829.797172 533.925026 
" clip-path="url(#p295f77477c)" style="fill: none; stroke: #7a7a7a; stroke-width: 3; stroke-linecap: square"/>
   </g>
   <g id="line2d_8">
    <path d="M 865.835792 376.865386 
L 789.558563 533.410639 
L 789.287596 533.925026 
" clip-path="url(#p295f77477c)" style="fill: none; stroke: #7a7a7a; stroke-width: 3; stroke-linecap: square"/>
   </g>
   <g id="line2d_9">
    <path d="M 988.312905 123.443825 
L 865.835792 376.865386 
" clip-path="url(#p295f77477c)" style="fill: none; stroke: #7a7a7a; stroke-width: 3; stroke-linecap: square"/>
   </g>
   <g id="line2d_10">
    <path d="M 949.293648 115.556551 
L 824.648798 369.492498 
" clip-path="url(#p295f77477c)" style="fill: none; stroke: #7a7a7a; stroke-width: 3; stroke-linecap: square"/>
   </g>
   <g id="line2d_11">
    <path d="M 865.835792 376.865386 
L 789.558563 533.410639 
L 789.287596 533.925026 
" clip-path="url(#p295f77477c)" style="fill: none; stroke: #7a7a7a; stroke-width: 3; stroke-linecap: square"/>
   </g>
   <g id="line2d_12">
    <path d="M 824.648798 369.492498 
L 747.152218 533.410639 
L 746.881251 533.925026 
" clip-path="url(#p295f77477c)" style="fill: none; stroke: #7a7a7a; stroke-width: 3; stroke-linecap: square"/>
   </g>
   <g id="line2d_13">
    <path d="M 1093.951361 -1 
L 1028.957964 130.302325 
" clip-path="url(#p295f77477c)" style="fill: none; stroke: #7a7a7a; stroke-width: 3; stroke-linecap: square"/>
   </g>
   <g id="line2d_14">
    <path d="M 1048.609749 -1 
L 988.312905 123.443825 
" clip-path="url(#p295f77477c)" style="fill: none; stroke: #7a7a7a; stroke-width: 3; stroke-linecap: square"/>
   </g>
   <g id="line2d_15">
    <path d="M 981.403245 397.012228 
L 923.68726 514.635496 
L 923.009842 515.664271 
L 914.47438 533.410639 
L 914.203413 533.925026 
" clip-path="url(#p295f77477c)" style="fill: none; stroke: #7a7a7a; stroke-width: 3; stroke-linecap: square"/>
   </g>
   <g id="line2d_16">
    <path d="M 943.061405 390.325191 
L 873.42287 533.410639 
L 873.151903 533.925026 
" clip-path="url(#p295f77477c)" style="fill: none; stroke: #7a7a7a; stroke-width: 3; stroke-linecap: square"/>
   </g>
   <g id="line2d_17">
    <path d="M 1028.957964 130.302325 
L 903.771181 383.466691 
" clip-path="url(#p295f77477c)" style="fill: none; stroke: #7a7a7a; stroke-width: 3; stroke-linecap: square"/>
   </g>
   <g id="line2d_18">
    <path d="M 988.312905 123.443825 
L 865.835792 376.865386 
" clip-path="url(#p295f77477c)" style="fill: none; stroke: #7a7a7a; stroke-width: 3; stroke-linecap: square"/>
   </g>
   <g id="line2d_19">
    <path d="M 1067.570771 136.903631 
L 943.061405 390.325191 
" clip-path="url(#p295f77477c)" style="fill: none; stroke: #7a7a7a; stroke-width: 3; stroke-linecap: square"/>
   </g>
   <g id="line2d_20">
    <path d="M 1028.957964 130.302325 
L 903.771181 383.466691 
" clip-path="url(#p295f77477c)" style="fill: none; stroke: #7a7a7a; stroke-width: 3; stroke-linecap: square"/>
   </g>
   <g id="line2d_21">
    <path d="M 943.061405 390.325191 
L 873.42287 533.410639 
L 873.151903 533.925026 
" clip-path="url(#p295f77477c)" style="fill: none; stroke: #7a7a7a; stroke-width: 3; stroke-linecap: square"/>
   </g>
   <g id="line2d_22">
    <path d="M 903.771181 383.466691 
L 830.068139 533.410639 
L 829.797172 533.925026 
" clip-path="url(#p295f77477c)" style="fill: none; stroke: #7a7a7a; stroke-width: 3; stroke-linecap: square"/>
   </g>
   <g id="line2d_23">
    <path d="M 1176.909987 -1 
L 1171.893091 8.563957 
L 1156.447968 41.056099 
L 1111.331952 133.302918 
L 1106.183578 143.504937 
" clip-path="url(#p295f77477c)" style="fill: none; stroke: #7a7a7a; stroke-width: 3; stroke-linecap: square"/>
   </g>
   <g id="line2d_24">
    <path d="M 1135.539987 -1 
L 1067.570771 136.903631 
" clip-path="url(#p295f77477c)" style="fill: none; stroke: #7a7a7a; stroke-width: 3; stroke-linecap: square"/>
   </g>
   <g id="line2d_25">
    <path d="M 934.79691 114.09912 
L 824.648798 369.492498 
" clip-path="url(#p295f77477c)" style="fill: none; stroke: #7a7a7a; stroke-width: 3; stroke-linecap: square"/>
   </g>
   <g id="line2d_26">
    <path d="M 913.255028 110.841332 
L 898.893774 139.818493 
L 895.100235 150.877824 
L 888.867992 161.594229 
L 881.958332 176.597197 
L 868.003528 204.888508 
L 859.468066 219.034163 
L 788.881146 363.491311 
" clip-path="url(#p295f77477c)" style="fill: none; stroke: #7a7a7a; stroke-width: 3; stroke-linecap: square"/>
   </g>
   <g id="line2d_27">
    <path d="M 1028.957964 130.302325 
L 824.648798 369.492498 
" clip-path="url(#p295f77477c)" style="fill: none; stroke: #7a7a7a; stroke-width: 3; stroke-linecap: square"/>
   </g>
   <g id="line2d_28">
    <path d="M 988.312905 123.443825 
L 788.881146 363.491311 
" clip-path="url(#p295f77477c)" style="fill: none; stroke: #7a7a7a; stroke-width: 3; stroke-linecap: square"/>
   </g>
   <g id="line2d_29">
    <path d="M 988.312905 123.443825 
L 824.648798 369.492498 
" clip-path="url(#p295f77477c)" style="fill: none; stroke: #7a7a7a; stroke-width: 3; stroke-linecap: square"/>
   </g>
   <g id="line2d_30">
    <path d="M 949.293648 115.556551 
L 788.881146 363.491311 
" clip-path="url(#p295f77477c)" style="fill: none; stroke: #7a7a7a; stroke-width: 3; stroke-linecap: square"/>
   </g>
   <g id="line2d_31">
    <path d="M 408.307904 1305.506231 
L 407.630487 1306.963663 
L 407.35952 1307.47805 
L 396.24987 1330.025368 
" clip-path="url(#p295f77477c)" style="fill: none; stroke: #7a7a7a; stroke-width: 3; stroke-linecap: square"/>
   </g>
   <g id="line2d_32">
    <path d="M 345.172579 1305.506231 
L 344.08871 1307.049394 
L 343.68226 1307.563781 
L 336.908083 1321.96663 
" clip-path="url(#p295f77477c)" style="fill: none; stroke: #7a7a7a; stroke-width: 3; stroke-linecap: square"/>
   </g>
   <g id="line2d_33">
    <path d="M 992.237253 -1 
L 934.79691 114.09912 
" clip-path="url(#p295f77477c)" style="fill: none; stroke: #7a7a7a; stroke-width: 3; stroke-linecap: square"/>
   </g>
   <g id="line2d_34">
    <path d="M 969.326849 -1 
L 913.255028 110.841332 
" clip-path="url(#p295f77477c)" style="fill: none; stroke: #7a7a7a; stroke-width: 3; stroke-linecap: square"/>
   </g>
   <g id="line2d_35">
    <path d="M 824.648798 369.492498 
L 747.152218 533.410639 
L 746.881251 533.925026 
" clip-path="url(#p295f77477c)" style="fill: none; stroke: #7a7a7a; stroke-width: 3; stroke-linecap: square"/>
   </g>
   <g id="line2d_36">
    <path d="M 788.881146 363.491311 
L 706.507158 533.410639 
L 706.236191 533.925026 
" clip-path="url(#p295f77477c)" style="fill: none; stroke: #7a7a7a; stroke-width: 3; stroke-linecap: square"/>
   </g>
   <g id="line2d_37">
    <path d="M 497.456069 1305.506231 
L 496.778651 1306.963663 
L 496.507684 1307.392319 
L 479.978693 1341.341892 
" clip-path="url(#p295f77477c)" style="fill: none; stroke: #7a7a7a; stroke-width: 3; stroke-linecap: square"/>
   </g>
   <g id="line2d_38">
    <path d="M 452.069085 1305.506231 
L 451.391668 1306.963663 
L 451.120701 1307.47805 
L 437.436864 1335.597898 
" clip-path="url(#p295f77477c)" style="fill: none; stroke: #7a7a7a; stroke-width: 3; stroke-linecap: square"/>
   </g>
   <g id="line2d_39">
    <path d="M 452.069085 1305.506231 
L 451.391668 1306.963663 
L 451.120701 1307.47805 
L 437.436864 1335.597898 
" clip-path="url(#p295f77477c)" style="fill: none; stroke: #7a7a7a; stroke-width: 3; stroke-linecap: square"/>
   </g>
   <g id="line2d_40">
    <path d="M 408.307904 1305.506231 
L 407.630487 1306.963663 
L 407.35952 1307.47805 
L 396.24987 1330.025368 
" clip-path="url(#p295f77477c)" style="fill: none; stroke: #7a7a7a; stroke-width: 3; stroke-linecap: square"/>
   </g>
   <g id="line2d_41">
    <path d="M 891.84863 758.798082 
L 517.372148 682.754468 
" clip-path="url(#p295f77477c)" style="fill: none; stroke: #7a7a7a; stroke-width: 3; stroke-linecap: square"/>
   </g>
   <g id="line2d_42">
    <path d="M 905.396983 733.764558 
L 524.959225 657.549482 
" clip-path="url(#p295f77477c)" style="fill: none; stroke: #7a7a7a; stroke-width: 3; stroke-linecap: square"/>
   </g>
   <g id="line2d_43">
    <path d="M 878.300277 784.088799 
L 508.430235 710.188466 
" clip-path="url(#p295f77477c)" style="fill: none; stroke: #7a7a7a; stroke-width: 3; stroke-linecap: square"/>
   </g>
   <g id="line2d_44">
    <path d="M 891.84863 758.798082 
L 517.372148 682.754468 
" clip-path="url(#p295f77477c)" style="fill: none; stroke: #7a7a7a; stroke-width: 3; stroke-linecap: square"/>
   </g>
   <g id="line2d_45">
    <path d="M 555.713987 1305.506231 
L 555.44302 1306.963663 
L 555.44302 1307.392319 
L 534.71404 1348.80051 
" clip-path="url(#p295f77477c)" style="fill: none; stroke: #7a7a7a; stroke-width: 3; stroke-linecap: square"/>
   </g>
   <g id="line2d_46">
    <path d="M 497.456069 1305.506231 
L 496.778651 1306.963663 
L 496.507684 1307.392319 
L 479.978693 1341.341892 
" clip-path="url(#p295f77477c)" style="fill: none; stroke: #7a7a7a; stroke-width: 3; stroke-linecap: square"/>
   </g>
   <g id="line2d_47">
    <path d="M 629.552512 942.863065 
L 460.469064 1288.445714 
" clip-path="url(#p295f77477c)" style="fill: none; stroke: #7a7a7a; stroke-width: 3; stroke-linecap: square"/>
   </g>
   <g id="line2d_48">
    <path d="M 590.397771 936.604684 
L 417.520785 1286.902551 
" clip-path="url(#p295f77477c)" style="fill: none; stroke: #7a7a7a; stroke-width: 3; stroke-linecap: square"/>
   </g>
   <g id="line2d_49">
    <path d="M 865.293858 809.722442 
L 500.97864 733.764558 
" clip-path="url(#p295f77477c)" style="fill: none; stroke: #7a7a7a; stroke-width: 3; stroke-linecap: square"/>
   </g>
   <g id="line2d_50">
    <path d="M 878.300277 784.088799 
L 508.430235 710.188466 
" clip-path="url(#p295f77477c)" style="fill: none; stroke: #7a7a7a; stroke-width: 3; stroke-linecap: square"/>
   </g>
   <g id="line2d_51">
    <path d="M 518.591499 799.863348 
L 886.293805 873.67795 
" clip-path="url(#p295f77477c)" style="fill: none; stroke: #7a7a7a; stroke-width: 3; stroke-linecap: square"/>
   </g>
   <g id="line2d_52">
    <path d="M 512.359257 826.268572 
L 874.913189 898.882936 
" clip-path="url(#p295f77477c)" style="fill: none; stroke: #7a7a7a; stroke-width: 3; stroke-linecap: square"/>
   </g>
   <g id="line2d_53">
    <path d="M 693.500739 640.146039 
L 681.713672 661.57885 
L 668.029835 677.096206 
L 651.907295 687.641149 
L 633.617018 693.89953 
L 613.429972 696.557198 
L 591.346156 696.128542 
L 569.126857 693.21368 
L 517.372148 682.754468 
" clip-path="url(#p295f77477c)" style="fill: none; stroke: #7a7a7a; stroke-width: 3; stroke-linecap: square"/>
   </g>
   <g id="line2d_54">
    <path d="M 656.784702 633.116077 
L 651.636328 641.689201 
L 651.229877 642.28932 
L 647.707305 648.719163 
L 644.997635 650.776713 
L 640.797645 654.806082 
L 633.210568 659.864225 
L 627.92671 662.2647 
L 623.049303 664.065056 
L 619.933181 665.436756 
L 616.275126 666.036875 
L 615.462225 666.208337 
L 609.771917 667.322844 
L 604.217092 668.008694 
L 596.630014 668.43735 
L 583.623595 667.408575 
L 581.591342 667.06565 
L 555.984954 663.464938 
L 524.959225 657.549482 
" clip-path="url(#p295f77477c)" style="fill: none; stroke: #7a7a7a; stroke-width: 3; stroke-linecap: square"/>
   </g>
   <g id="line2d_55">
    <path d="M 896.319587 851.64502 
L 1358.453914 944.834884 
L 1441 958.505873 
" clip-path="url(#p295f77477c)" style="fill: none; stroke: #7a7a7a; stroke-width: 3; stroke-linecap: square"/>
   </g>
   <g id="line2d_56">
    <path d="M 886.293805 873.67795 
L 1441 985.221438 
" clip-path="url(#p295f77477c)" style="fill: none; stroke: #7a7a7a; stroke-width: 3; stroke-linecap: square"/>
   </g>
   <g id="line2d_57">
    <path d="M 1321.737877 897.254043 
L 1054.699836 847.615652 
" clip-path="url(#p295f77477c)" style="fill: none; stroke: #7a7a7a; stroke-width: 3; stroke-linecap: square"/>
   </g>
   <g id="line2d_58">
    <path d="M 1331.763658 874.963919 
L 1069.738508 822.496397 
" clip-path="url(#p295f77477c)" style="fill: none; stroke: #7a7a7a; stroke-width: 3; stroke-linecap: square"/>
   </g>
   <g id="line2d_59">
    <path d="M 500.97864 733.764558 
L 174.327845 668.608812 
L 97.237715 652.662801 
L 38.302379 641.432008 
" clip-path="url(#p295f77477c)" style="fill: none; stroke: #7a7a7a; stroke-width: 3; stroke-linecap: square"/>
   </g>
   <g id="line2d_60">
    <path d="M 508.430235 710.188466 
L 38.302379 615.969828 
" clip-path="url(#p295f77477c)" style="fill: none; stroke: #7a7a7a; stroke-width: 3; stroke-linecap: square"/>
   </g>
   <g id="line2d_61">
    <path d="M 1331.763658 874.963919 
L 1069.738508 822.496397 
" clip-path="url(#p295f77477c)" style="fill: none; stroke: #7a7a7a; stroke-width: 3; stroke-linecap: square"/>
   </g>
   <g id="line2d_62">
    <path d="M 1343.279759 849.244546 
L 1083.151377 797.119949 
" clip-path="url(#p295f77477c)" style="fill: none; stroke: #7a7a7a; stroke-width: 3; stroke-linecap: square"/>
   </g>
   <g id="line2d_63">
    <path d="M 709.081345 955.551289 
L 703.662004 968.068051 
L 661.797593 1051.31309 
L 648.24924 1077.804045 
L 603.539674 1169.965133 
L 571.701044 1233.063329 
L 568.584923 1240.350485 
L 567.365571 1247.380447 
L 558.423658 1292.046426 
" clip-path="url(#p295f77477c)" style="fill: none; stroke: #7a7a7a; stroke-width: 3; stroke-linecap: square"/>
   </g>
   <g id="line2d_64">
    <path d="M 670.874989 948.949983 
L 504.907663 1290.074607 
" clip-path="url(#p295f77477c)" style="fill: none; stroke: #7a7a7a; stroke-width: 3; stroke-linecap: square"/>
   </g>
   <g id="line2d_65">
    <path d="M 1343.279759 849.244546 
L 1083.151377 797.119949 
" clip-path="url(#p295f77477c)" style="fill: none; stroke: #7a7a7a; stroke-width: 3; stroke-linecap: square"/>
   </g>
   <g id="line2d_66">
    <path d="M 1354.524892 824.211022 
L 1096.157796 772.086425 
" clip-path="url(#p295f77477c)" style="fill: none; stroke: #7a7a7a; stroke-width: 3; stroke-linecap: square"/>
   </g>
   <g id="line2d_67">
    <path d="M 846.055196 670.151975 
L 789.694047 786.403543 
L 789.694047 799.434692 
L 799.990795 813.666079 
L 816.519786 826.954422 
L 835.08103 837.15644 
L 851.339054 842.043121 
L 896.319587 851.64502 
" clip-path="url(#p295f77477c)" style="fill: none; stroke: #7a7a7a; stroke-width: 3; stroke-linecap: square"/>
   </g>
   <g id="line2d_68">
    <path d="M 810.287544 663.122013 
L 753.926395 779.373581 
L 750.268339 795.576786 
L 753.655427 811.179873 
L 763.139275 825.582722 
L 777.500529 838.52814 
L 796.061773 849.501739 
L 817.603655 858.160595 
L 841.313273 864.076051 
L 886.293805 873.67795 
" clip-path="url(#p295f77477c)" style="fill: none; stroke: #7a7a7a; stroke-width: 3; stroke-linecap: square"/>
   </g>
   <g id="line2d_69">
    <path d="M 523.739874 777.658956 
L 896.319587 851.64502 
" clip-path="url(#p295f77477c)" style="fill: none; stroke: #7a7a7a; stroke-width: 3; stroke-linecap: square"/>
   </g>
   <g id="line2d_70">
    <path d="M 518.591499 799.863348 
L 886.293805 873.67795 
" clip-path="url(#p295f77477c)" style="fill: none; stroke: #7a7a7a; stroke-width: 3; stroke-linecap: square"/>
   </g>
   <g id="line2d_71">
    <path d="M 733.197414 647.690388 
L 590.397771 936.604684 
" clip-path="url(#p295f77477c)" style="fill: none; stroke: #7a7a7a; stroke-width: 3; stroke-linecap: square"/>
   </g>
   <g id="line2d_72">
    <path d="M 693.500739 640.146039 
L 566.146219 902.312186 
L 552.73335 930.860691 
" clip-path="url(#p295f77477c)" style="fill: none; stroke: #7a7a7a; stroke-width: 3; stroke-linecap: square"/>
   </g>
   <g id="line2d_73">
    <path d="M 38.302379 731.192621 
L 512.359257 826.268572 
" clip-path="url(#p295f77477c)" style="fill: none; stroke: #7a7a7a; stroke-width: 3; stroke-linecap: square"/>
   </g>
   <g id="line2d_74">
    <path d="M 38.302379 759.655394 
L 55.102337 762.998913 
L 131.921499 778.602 
L 505.856047 854.045495 
" clip-path="url(#p295f77477c)" style="fill: none; stroke: #7a7a7a; stroke-width: 3; stroke-linecap: square"/>
   </g>
   <g id="line2d_75">
    <path d="M 1069.738508 822.496397 
L 878.300277 784.088799 
" clip-path="url(#p295f77477c)" style="fill: none; stroke: #7a7a7a; stroke-width: 3; stroke-linecap: square"/>
   </g>
   <g id="line2d_76">
    <path d="M 1083.151377 797.119949 
L 891.84863 758.798082 
" clip-path="url(#p295f77477c)" style="fill: none; stroke: #7a7a7a; stroke-width: 3; stroke-linecap: square"/>
   </g>
   <g id="line2d_77">
    <path d="M 1041.557933 869.219926 
L 857.435813 832.098297 
" clip-path="url(#p295f77477c)" style="fill: none; stroke: #7a7a7a; stroke-width: 3; stroke-linecap: square"/>
   </g>
   <g id="line2d_78">
    <path d="M 1054.699836 847.615652 
L 865.293858 809.722442 
" clip-path="url(#p295f77477c)" style="fill: none; stroke: #7a7a7a; stroke-width: 3; stroke-linecap: square"/>
   </g>
   <g id="line2d_79">
    <path d="M 846.055196 670.151975 
L 722.358732 931.117884 
L 717.345841 939.262353 
L 709.081345 955.551289 
" clip-path="url(#p295f77477c)" style="fill: none; stroke: #7a7a7a; stroke-width: 3; stroke-linecap: square"/>
   </g>
   <g id="line2d_80">
    <path d="M 810.287544 663.122013 
L 670.874989 948.949983 
" clip-path="url(#p295f77477c)" style="fill: none; stroke: #7a7a7a; stroke-width: 3; stroke-linecap: square"/>
   </g>
   <g id="line2d_81">
    <path d="M 914.203413 533.925026 
L 913.661479 535.125264 
L 913.390512 535.639651 
L 891.171212 582.191717 
L 879.519629 604.910497 
L 860.280967 644.775526 
L 846.055196 670.151975 
" clip-path="url(#p295f77477c)" style="fill: none; stroke: #7a7a7a; stroke-width: 3; stroke-linecap: square"/>
   </g>
   <g id="line2d_82">
    <path d="M 873.151903 533.925026 
L 872.474485 535.125264 
L 872.203518 535.639651 
L 810.287544 663.122013 
" clip-path="url(#p295f77477c)" style="fill: none; stroke: #7a7a7a; stroke-width: 3; stroke-linecap: square"/>
   </g>
   <g id="line2d_83">
    <path d="M 517.372148 682.754468 
L 38.302379 588.107173 
" clip-path="url(#p295f77477c)" style="fill: none; stroke: #7a7a7a; stroke-width: 3; stroke-linecap: square"/>
   </g>
   <g id="line2d_84">
    <path d="M 524.959225 657.549482 
L 38.302379 559.901594 
" clip-path="url(#p295f77477c)" style="fill: none; stroke: #7a7a7a; stroke-width: 3; stroke-linecap: square"/>
   </g>
   <g id="line2d_85">
    <path d="M 38.302379 681.382768 
L 73.121646 688.241267 
L 111.463486 696.557198 
L 162.540777 705.987635 
L 523.739874 777.658956 
" clip-path="url(#p295f77477c)" style="fill: none; stroke: #7a7a7a; stroke-width: 3; stroke-linecap: square"/>
   </g>
   <g id="line2d_86">
    <path d="M 38.302379 703.244235 
L 518.591499 799.863348 
" clip-path="url(#p295f77477c)" style="fill: none; stroke: #7a7a7a; stroke-width: 3; stroke-linecap: square"/>
   </g>
   <g id="line2d_87">
    <path d="M 38.302379 703.244235 
L 518.591499 799.863348 
" clip-path="url(#p295f77477c)" style="fill: none; stroke: #7a7a7a; stroke-width: 3; stroke-linecap: square"/>
   </g>
   <g id="line2d_88">
    <path d="M 38.302379 731.192621 
L 512.359257 826.268572 
" clip-path="url(#p295f77477c)" style="fill: none; stroke: #7a7a7a; stroke-width: 3; stroke-linecap: square"/>
   </g>
   <g id="line2d_89">
    <path d="M 1054.699836 847.615652 
L 865.293858 809.722442 
" clip-path="url(#p295f77477c)" style="fill: none; stroke: #7a7a7a; stroke-width: 3; stroke-linecap: square"/>
   </g>
   <g id="line2d_90">
    <path d="M 1069.738508 822.496397 
L 878.300277 784.088799 
" clip-path="url(#p295f77477c)" style="fill: none; stroke: #7a7a7a; stroke-width: 3; stroke-linecap: square"/>
   </g>
   <g id="line2d_91">
    <path d="M 770.455385 655.149007 
L 629.552512 942.863065 
" clip-path="url(#p295f77477c)" style="fill: none; stroke: #7a7a7a; stroke-width: 3; stroke-linecap: square"/>
   </g>
   <g id="line2d_92">
    <path d="M 733.197414 647.690388 
L 590.397771 936.604684 
" clip-path="url(#p295f77477c)" style="fill: none; stroke: #7a7a7a; stroke-width: 3; stroke-linecap: square"/>
   </g>
   <g id="line2d_93">
    <path d="M 746.881251 533.925026 
L 746.339317 535.125264 
L 746.06835 535.639651 
L 693.500739 640.146039 
" clip-path="url(#p295f77477c)" style="fill: none; stroke: #7a7a7a; stroke-width: 3; stroke-linecap: square"/>
   </g>
   <g id="line2d_94">
    <path d="M 706.236191 533.925026 
L 705.694257 535.039533 
L 704.203938 535.639651 
L 666.675 612.969234 
L 656.784702 633.116077 
" clip-path="url(#p295f77477c)" style="fill: none; stroke: #7a7a7a; stroke-width: 3; stroke-linecap: square"/>
   </g>
   <g id="line2d_95">
    <path d="M 670.874989 948.949983 
L 504.907663 1290.074607 
" clip-path="url(#p295f77477c)" style="fill: none; stroke: #7a7a7a; stroke-width: 3; stroke-linecap: square"/>
   </g>
   <g id="line2d_96">
    <path d="M 629.552512 942.863065 
L 460.469064 1288.445714 
" clip-path="url(#p295f77477c)" style="fill: none; stroke: #7a7a7a; stroke-width: 3; stroke-linecap: square"/>
   </g>
   <g id="line2d_97">
    <path d="M 873.151903 533.925026 
L 872.474485 535.125264 
L 872.203518 535.639651 
L 810.287544 663.122013 
" clip-path="url(#p295f77477c)" style="fill: none; stroke: #7a7a7a; stroke-width: 3; stroke-linecap: square"/>
   </g>
   <g id="line2d_98">
    <path d="M 829.797172 533.925026 
L 829.255238 535.125264 
L 828.984271 535.639651 
L 770.455385 655.149007 
" clip-path="url(#p295f77477c)" style="fill: none; stroke: #7a7a7a; stroke-width: 3; stroke-linecap: square"/>
   </g>
   <g id="line2d_99">
    <path d="M 512.359257 826.268572 
L 551.784965 834.670234 
L 569.533308 843.672015 
L 585.520364 857.646208 
L 597.442915 873.849413 
L 604.217092 891.167124 
L 604.217092 908.570567 
L 590.397771 936.604684 
" clip-path="url(#p295f77477c)" style="fill: none; stroke: #7a7a7a; stroke-width: 3; stroke-linecap: square"/>
   </g>
   <g id="line2d_100">
    <path d="M 505.856047 854.045495 
L 518.99795 857.474745 
L 527.126962 859.360832 
L 538.778546 862.790082 
L 547.991426 866.647988 
L 552.597866 869.219926 
L 556.662372 872.134788 
L 560.455911 875.564038 
L 563.030098 878.736094 
L 565.875252 883.108387 
L 567.501055 887.052025 
L 568.313956 890.138349 
L 568.313956 894.081987 
L 566.146219 902.312186 
L 558.288174 919.286973 
L 552.73335 930.860691 
" clip-path="url(#p295f77477c)" style="fill: none; stroke: #7a7a7a; stroke-width: 3; stroke-linecap: square"/>
   </g>
   <g id="line2d_101">
    <path d="M 829.797172 533.925026 
L 829.255238 535.125264 
L 828.984271 535.639651 
L 770.455385 655.149007 
" clip-path="url(#p295f77477c)" style="fill: none; stroke: #7a7a7a; stroke-width: 3; stroke-linecap: square"/>
   </g>
   <g id="line2d_102">
    <path d="M 789.287596 533.925026 
L 788.745662 535.125264 
L 788.474695 535.639651 
L 733.197414 647.690388 
" clip-path="url(#p295f77477c)" style="fill: none; stroke: #7a7a7a; stroke-width: 3; stroke-linecap: square"/>
   </g>
   <g id="line2d_103">
    <path d="M 508.430235 710.188466 
L 38.302379 615.969828 
" clip-path="url(#p295f77477c)" style="fill: none; stroke: #7a7a7a; stroke-width: 3; stroke-linecap: square"/>
   </g>
   <g id="line2d_104">
    <path d="M 517.372148 682.754468 
L 38.302379 588.107173 
" clip-path="url(#p295f77477c)" style="fill: none; stroke: #7a7a7a; stroke-width: 3; stroke-linecap: square"/>
   </g>
   <g id="line2d_105">
    <path d="M 1321.737877 897.254043 
L 1177.041465 889.195306 
L 1041.557933 869.219926 
" clip-path="url(#p295f77477c)" style="fill: none; stroke: #7a7a7a; stroke-width: 3; stroke-linecap: square"/>
   </g>
   <g id="line2d_106">
    <path d="M 1331.763658 874.963919 
L 1205.899457 867.333838 
L 1166.067299 862.961545 
L 1054.699836 847.615652 
" clip-path="url(#p295f77477c)" style="fill: none; stroke: #7a7a7a; stroke-width: 3; stroke-linecap: square"/>
   </g>
   <g id="line2d_107">
    <path d="M 810.287544 663.122013 
L 670.874989 948.949983 
" clip-path="url(#p295f77477c)" style="fill: none; stroke: #7a7a7a; stroke-width: 3; stroke-linecap: square"/>
   </g>
   <g id="line2d_108">
    <path d="M 770.455385 655.149007 
L 629.552512 942.863065 
" clip-path="url(#p295f77477c)" style="fill: none; stroke: #7a7a7a; stroke-width: 3; stroke-linecap: square"/>
   </g>
   <g id="line2d_109">
    <path d="M 874.913189 898.882936 
L 1441 1012.446592 
" clip-path="url(#p295f77477c)" style="fill: none; stroke: #7a7a7a; stroke-width: 3; stroke-linecap: square"/>
   </g>
   <g id="line2d_110">
    <path d="M 862.990638 925.030966 
L 907.022786 933.775553 
L 1026.519261 958.980539 
L 1064.319166 966.61062 
L 1093.854576 972.011688 
L 1117.564194 977.155563 
L 1140.054461 981.442125 
L 1175.551146 989.072206 
L 1345.989429 1023.536167 
L 1383.789335 1030.909054 
L 1406.144117 1034.76696 
L 1429.176318 1039.482178 
" clip-path="url(#p295f77477c)" style="fill: none; stroke: #7a7a7a; stroke-width: 3; stroke-linecap: square"/>
   </g>
   <g id="line2d_111">
    <path d="M 857.435813 832.098297 
L 834.132645 829.440628 
L 810.423027 831.498178 
L 788.203728 837.413634 
L 769.777968 846.243952 
L 757.042516 857.303283 
L 752.165109 869.562851 
L 709.081345 955.551289 
" clip-path="url(#p295f77477c)" style="fill: none; stroke: #7a7a7a; stroke-width: 3; stroke-linecap: square"/>
   </g>
   <g id="line2d_112">
    <path d="M 865.293858 809.722442 
L 840.635855 806.207461 
L 815.164951 806.721848 
L 790.100498 810.579754 
L 766.661847 817.352522 
L 746.06835 826.525766 
L 729.674842 837.499365 
L 718.565193 849.844664 
L 713.958753 862.961545 
L 670.874989 948.949983 
" clip-path="url(#p295f77477c)" style="fill: none; stroke: #7a7a7a; stroke-width: 3; stroke-linecap: square"/>
   </g>
   <g id="line2d_113">
    <path d="M 1083.151377 797.119949 
L 891.84863 758.798082 
" clip-path="url(#p295f77477c)" style="fill: none; stroke: #7a7a7a; stroke-width: 3; stroke-linecap: square"/>
   </g>
   <g id="line2d_114">
    <path d="M 1096.157796 772.086425 
L 1066.486903 766.170969 
L 1043.996636 761.798676 
L 1036.816009 760.169782 
L 998.745137 752.45397 
L 973.003266 747.567289 
L 959.590396 744.566695 
L 905.396983 733.764558 
" clip-path="url(#p295f77477c)" style="fill: none; stroke: #7a7a7a; stroke-width: 3; stroke-linecap: square"/>
   </g>
   <g id="line2d_115">
    <path d="M 590.397771 936.604684 
L 417.520785 1286.902551 
" clip-path="url(#p295f77477c)" style="fill: none; stroke: #7a7a7a; stroke-width: 3; stroke-linecap: square"/>
   </g>
   <g id="line2d_116">
    <path d="M 552.73335 930.860691 
L 523.062456 994.13035 
L 517.101181 1005.704068 
L 511.139905 1019.849723 
L 499.217354 1044.711784 
L 485.533518 1071.374201 
L 473.204516 1094.092981 
L 448.681997 1143.817103 
L 419.959488 1200.313994 
L 416.843367 1205.972256 
L 413.591762 1210.430281 
L 360.075767 1284.75927 
" clip-path="url(#p295f77477c)" style="fill: none; stroke: #7a7a7a; stroke-width: 3; stroke-linecap: square"/>
   </g>
   <g id="line2d_117">
    <path d="M 886.293805 873.67795 
L 1441 985.221438 
" clip-path="url(#p295f77477c)" style="fill: none; stroke: #7a7a7a; stroke-width: 3; stroke-linecap: square"/>
   </g>
   <g id="line2d_118">
    <path d="M 874.913189 898.882936 
L 1441 1012.446592 
" clip-path="url(#p295f77477c)" style="fill: none; stroke: #7a7a7a; stroke-width: 3; stroke-linecap: square"/>
   </g>
   <g id="line2d_119">
    <path d="M 789.287596 533.925026 
L 788.745662 535.125264 
L 788.474695 535.639651 
L 733.197414 647.690388 
" clip-path="url(#p295f77477c)" style="fill: none; stroke: #7a7a7a; stroke-width: 3; stroke-linecap: square"/>
   </g>
   <g id="line2d_120">
    <path d="M 746.881251 533.925026 
L 746.339317 535.125264 
L 746.06835 535.639651 
L 693.500739 640.146039 
" clip-path="url(#p295f77477c)" style="fill: none; stroke: #7a7a7a; stroke-width: 3; stroke-linecap: square"/>
   </g>
   <g id="line2d_121">
    <path d="M 512.359257 826.268572 
L 874.913189 898.882936 
" clip-path="url(#p295f77477c)" style="fill: none; stroke: #7a7a7a; stroke-width: 3; stroke-linecap: square"/>
   </g>
   <g id="line2d_122">
    <path d="M 505.856047 854.045495 
L 784.952123 910.285192 
L 831.152008 918.772585 
L 862.990638 925.030966 
" clip-path="url(#p295f77477c)" style="fill: none; stroke: #7a7a7a; stroke-width: 3; stroke-linecap: square"/>
   </g>
   <g id="line2d_123">
    <path d="M 437.436864 1335.597898 
L 422.262708 1366.71834 
L 385.915464 1441 
" clip-path="url(#p295f77477c)" style="fill: none; stroke: #7a7a7a; stroke-width: 3; stroke-linecap: square"/>
   </g>
   <g id="line2d_124">
    <path d="M 396.24987 1330.025368 
L 382.024099 1359.08826 
L 342.282721 1441 
" clip-path="url(#p295f77477c)" style="fill: none; stroke: #7a7a7a; stroke-width: 3; stroke-linecap: square"/>
   </g>
   <g id="line2d_125">
    <path d="M 534.71404 1348.80051 
L 520.081818 1378.292058 
L 516.423763 1384.807633 
L 504.501212 1404.611551 
L 487.831019 1441 
" clip-path="url(#p295f77477c)" style="fill: none; stroke: #7a7a7a; stroke-width: 3; stroke-linecap: square"/>
   </g>
   <g id="line2d_126">
    <path d="M 479.978693 1341.341892 
L 463.720669 1374.605615 
L 431.239287 1441 
" clip-path="url(#p295f77477c)" style="fill: none; stroke: #7a7a7a; stroke-width: 3; stroke-linecap: square"/>
   </g>
   <g id="line2d_127">
    <path d="M 857.435813 832.098297 
L 834.810063 829.097703 
L 810.287544 828.669047 
L 784.681156 830.469403 
L 758.397351 834.41304 
L 732.249029 840.242765 
L 706.507158 847.787114 
L 682.120123 856.874626 
L 659.629856 867.162376 
L 639.44281 878.564631 
L 622.371885 890.824199 
L 608.959015 903.769617 
L 599.746135 917.143692 
L 590.397771 936.604684 
" clip-path="url(#p295f77477c)" style="fill: none; stroke: #7a7a7a; stroke-width: 3; stroke-linecap: square"/>
   </g>
   <g id="line2d_128">
    <path d="M 865.293858 809.722442 
L 841.58424 806.550385 
L 816.519786 805.521611 
L 790.506948 806.550385 
L 764.087659 809.465248 
L 737.397404 814.094735 
L 711.113598 820.353116 
L 685.642694 828.068928 
L 661.255659 837.15644 
L 638.358942 847.358458 
L 617.494478 858.674982 
L 599.068717 870.848819 
L 583.352628 883.794237 
L 570.888143 897.339774 
L 562.081713 911.399698 
L 552.73335 930.860691 
" clip-path="url(#p295f77477c)" style="fill: none; stroke: #7a7a7a; stroke-width: 3; stroke-linecap: square"/>
   </g>
   <g id="line2d_129">
    <path d="M 417.520785 1286.902551 
L 408.578872 1305.163306 
L 408.307904 1305.506231 
" clip-path="url(#p295f77477c)" style="fill: none; stroke: #7a7a7a; stroke-width: 3; stroke-linecap: square"/>
   </g>
   <g id="line2d_130">
    <path d="M 360.075767 1284.75927 
L 345.443546 1305.163306 
L 345.172579 1305.506231 
" clip-path="url(#p295f77477c)" style="fill: none; stroke: #7a7a7a; stroke-width: 3; stroke-linecap: square"/>
   </g>
   <g id="line2d_131">
    <path d="M 396.24987 1330.025368 
L 382.024099 1359.08826 
L 342.282721 1441 
" clip-path="url(#p295f77477c)" style="fill: none; stroke: #7a7a7a; stroke-width: 3; stroke-linecap: square"/>
   </g>
   <g id="line2d_132">
    <path d="M 336.908083 1321.96663 
L 324.443598 1348.028929 
L 280.923005 1441 
" clip-path="url(#p295f77477c)" style="fill: none; stroke: #7a7a7a; stroke-width: 3; stroke-linecap: square"/>
   </g>
   <g id="line2d_133">
    <path d="M 512.359257 826.268572 
L 535.12049 830.898059 
L 557.204306 837.15644 
L 576.984902 846.243952 
L 594.326794 857.646208 
L 608.823532 870.848819 
L 620.339632 885.165937 
L 628.468644 900.083174 
L 632.804117 915.00041 
L 633.346051 929.317528 
L 629.552512 942.863065 
" clip-path="url(#p295f77477c)" style="fill: none; stroke: #7a7a7a; stroke-width: 3; stroke-linecap: square"/>
   </g>
   <g id="line2d_134">
    <path d="M 505.856047 854.045495 
L 528.617281 858.674982 
L 536.881776 862.189964 
L 538.778546 862.790082 
L 547.991426 866.647988 
L 552.597866 869.219926 
L 556.662372 872.134788 
L 557.068823 872.477713 
L 569.26234 881.308031 
L 582.133276 895.882343 
L 589.991321 910.799579 
L 592.836475 924.859504 
L 590.397771 936.604684 
" clip-path="url(#p295f77477c)" style="fill: none; stroke: #7a7a7a; stroke-width: 3; stroke-linecap: square"/>
   </g>
   <g id="line2d_135">
    <path d="M 558.423658 1292.046426 
L 555.849471 1305.077575 
L 555.713987 1305.506231 
" clip-path="url(#p295f77477c)" style="fill: none; stroke: #7a7a7a; stroke-width: 3; stroke-linecap: square"/>
   </g>
   <g id="line2d_136">
    <path d="M 504.907663 1290.074607 
L 497.591552 1305.077575 
L 497.456069 1305.506231 
" clip-path="url(#p295f77477c)" style="fill: none; stroke: #7a7a7a; stroke-width: 3; stroke-linecap: square"/>
   </g>
   <g id="line2d_137">
    <path d="M 479.978693 1341.341892 
L 463.720669 1374.605615 
L 431.239287 1441 
" clip-path="url(#p295f77477c)" style="fill: none; stroke: #7a7a7a; stroke-width: 3; stroke-linecap: square"/>
   </g>
   <g id="line2d_138">
    <path d="M 437.436864 1335.597898 
L 422.262708 1366.71834 
L 385.915464 1441 
" clip-path="url(#p295f77477c)" style="fill: none; stroke: #7a7a7a; stroke-width: 3; stroke-linecap: square"/>
   </g>
   <g id="line2d_139">
    <path d="M 504.907663 1290.074607 
L 497.591552 1305.077575 
L 497.456069 1305.506231 
" clip-path="url(#p295f77477c)" style="fill: none; stroke: #7a7a7a; stroke-width: 3; stroke-linecap: square"/>
   </g>
   <g id="line2d_140">
    <path d="M 460.469064 1288.445714 
L 452.340052 1305.077575 
L 452.069085 1305.506231 
" clip-path="url(#p295f77477c)" style="fill: none; stroke: #7a7a7a; stroke-width: 3; stroke-linecap: square"/>
   </g>
   <g id="line2d_141">
    <path d="M 460.469064 1288.445714 
L 452.340052 1305.077575 
L 452.069085 1305.506231 
" clip-path="url(#p295f77477c)" style="fill: none; stroke: #7a7a7a; stroke-width: 3; stroke-linecap: square"/>
   </g>
   <g id="line2d_142">
    <path d="M 417.520785 1286.902551 
L 408.578872 1305.163306 
L 408.307904 1305.506231 
" clip-path="url(#p295f77477c)" style="fill: none; stroke: #7a7a7a; stroke-width: 3; stroke-linecap: square"/>
   </g>
   <g id="line2d_143">
    <path d="M 908.071055 557.160737 
L 907.168672 560.89892 
" clip-path="url(#p295f77477c)" style="fill: none; stroke-dasharray: 32,8,5,8; stroke-dashoffset: 0; stroke: #1e90ff; stroke-width: 5"/>
   </g>
   <g id="line2d_144">
    <path d="M 997.658961 42.891262 
L 997.003416 42.865623 
" clip-path="url(#p295f77477c)" style="fill: none; stroke-dasharray: 32,8,5,8; stroke-dashoffset: 0; stroke: #1e90ff; stroke-width: 5"/>
   </g>
   <g id="line2d_145">
    <path d="M 829.24228 336.886013 
L 828.579499 342.847537 
" clip-path="url(#p295f77477c)" style="fill: none; stroke-dasharray: 32,8,5,8; stroke-dashoffset: 0; stroke: #1e90ff; stroke-width: 5"/>
   </g>
   <g id="line2d_146">
    <path d="M 936.392232 193.339027 
L 914.323441 216.23828 
" clip-path="url(#p295f77477c)" style="fill: none; stroke-dasharray: 32,8,5,8; stroke-dashoffset: 0; stroke: #1e90ff; stroke-width: 5"/>
   </g>
   <g id="line2d_147">
    <path d="M 864.568966 629.3272 
L 834.19784 744.804319 
" clip-path="url(#p295f77477c)" style="fill: none; stroke-dasharray: 32,8,5,8; stroke-dashoffset: 0; stroke: #1e90ff; stroke-width: 5"/>
   </g>
   <g id="line2d_148">
    <path d="M 270.967064 639.398161 
L 274.826327 635.087268 
" clip-path="url(#p295f77477c)" style="fill: none; stroke-dasharray: 32,8,5,8; stroke-dashoffset: 0; stroke: #1e90ff; stroke-width: 5"/>
   </g>
   <g id="line2d_149">
    <path d="M 797.704775 762.17871 
L 603.214295 1130.824634 
" clip-path="url(#p295f77477c)" style="fill: none; stroke-dasharray: 32,8,5,8; stroke-dashoffset: 0; stroke: #1e90ff; stroke-width: 5"/>
   </g>
   <g id="line2d_150">
    <path d="M 502.482736 1138.114981 
L 494.027419 1141.547842 
" clip-path="url(#p295f77477c)" style="fill: none; stroke-dasharray: 32,8,5,8; stroke-dashoffset: 0; stroke: #1e90ff; stroke-width: 5"/>
   </g>
   <g id="line2d_151">
    <path d="M 851.673678 673.201933 
L 788.767774 942.932502 
" clip-path="url(#p295f77477c)" style="fill: none; stroke-dasharray: 32,8,5,8; stroke-dashoffset: 0; stroke: #1e90ff; stroke-width: 5"/>
   </g>
   <g id="line2d_152">
    <path d="M 296.701823 778.377855 
L 295.854224 767.997384 
" clip-path="url(#p295f77477c)" style="fill: none; stroke-dasharray: 32,8,5,8; stroke-dashoffset: 0; stroke: #1e90ff; stroke-width: 5"/>
   </g>
   <g id="line2d_153">
    <path d="M 840.840742 561.733785 
L 844.58589 566.301601 
" clip-path="url(#p295f77477c)" style="fill: none; stroke-dasharray: 32,8,5,8; stroke-dashoffset: 0; stroke: #1e90ff; stroke-width: 5"/>
   </g>
   <g id="line2d_154">
    <path d="M 908.071055 557.160737 
" clip-path="url(#p295f77477c)" style="fill: none; stroke: #0000ff; stroke-width: 1.5; stroke-linecap: square"/>
    <defs>
     <path id="m774afaee0a" d="M 0 10 
C 2.652031 10 5.195799 8.946337 7.071068 7.071068 
C 8.946337 5.195799 10 2.652031 10 0 
C 10 -2.652031 8.946337 -5.195799 7.071068 -7.071068 
C 5.195799 -8.946337 2.652031 -10 0 -10 
C -2.652031 -10 -5.195799 -8.946337 -7.071068 -7.071068 
C -8.946337 -5.195799 -10 -2.652031 -10 0 
C -10 2.652031 -8.946337 5.195799 -7.071068 7.071068 
C -5.195799 8.946337 -2.652031 10 0 10 
z
" style="stroke: #0000ff"/>
    </defs>
    <g clip-path="url(#p295f77477c)">
     <use xlink:href="#m774afaee0a" x="908.071055" y="557.160737" style="fill: #0000ff; stroke: #0000ff"/>
    </g>
   </g>
   <g id="line2d_155">
    <path d="M 997.658961 42.891262 
" clip-path="url(#p295f77477c)" style="fill: none; stroke: #0000ff; stroke-width: 1.5; stroke-linecap: square"/>
    <g clip-path="url(#p295f77477c)">
     <use xlink:href="#m774afaee0a" x="997.658961" y="42.891262" style="fill: #0000ff; stroke: #0000ff"/>
    </g>
   </g>
   <g id="line2d_156">
    <path d="M 829.24228 336.886013 
" clip-path="url(#p295f77477c)" style="fill: none; stroke: #0000ff; stroke-width: 1.5; stroke-linecap: square"/>
    <g clip-path="url(#p295f77477c)">
     <use xlink:href="#m774afaee0a" x="829.24228" y="336.886013" style="fill: #0000ff; stroke: #0000ff"/>
    </g>
   </g>
   <g id="line2d_157">
    <path d="M 936.392232 193.339027 
" clip-path="url(#p295f77477c)" style="fill: none; stroke: #0000ff; stroke-width: 1.5; stroke-linecap: square"/>
    <g clip-path="url(#p295f77477c)">
     <use xlink:href="#m774afaee0a" x="936.392232" y="193.339027" style="fill: #0000ff; stroke: #0000ff"/>
    </g>
   </g>
   <g id="line2d_158">
    <path d="M 864.568966 629.3272 
" clip-path="url(#p295f77477c)" style="fill: none; stroke: #0000ff; stroke-width: 1.5; stroke-linecap: square"/>
    <g clip-path="url(#p295f77477c)">
     <use xlink:href="#m774afaee0a" x="864.568966" y="629.3272" style="fill: #0000ff; stroke: #0000ff"/>
    </g>
   </g>
   <g id="line2d_159">
    <path d="M 270.967064 639.398161 
" clip-path="url(#p295f77477c)" style="fill: none; stroke: #0000ff; stroke-width: 1.5; stroke-linecap: square"/>
    <g clip-path="url(#p295f77477c)">
     <use xlink:href="#m774afaee0a" x="270.967064" y="639.398161" style="fill: #0000ff; stroke: #0000ff"/>
    </g>
   </g>
   <g id="line2d_160">
    <path d="M 797.704775 762.17871 
" clip-path="url(#p295f77477c)" style="fill: none; stroke: #0000ff; stroke-width: 1.5; stroke-linecap: square"/>
    <g clip-path="url(#p295f77477c)">
     <use xlink:href="#m774afaee0a" x="797.704775" y="762.17871" style="fill: #0000ff; stroke: #0000ff"/>
    </g>
   </g>
   <g id="line2d_161">
    <path d="M 502.482736 1138.114981 
" clip-path="url(#p295f77477c)" style="fill: none; stroke: #0000ff; stroke-width: 1.5; stroke-linecap: square"/>
    <g clip-path="url(#p295f77477c)">
     <use xlink:href="#m774afaee0a" x="502.482736" y="1138.114981" style="fill: #0000ff; stroke: #0000ff"/>
    </g>
   </g>
   <g id="line2d_162">
    <path d="M 851.673678 673.201933 
" clip-path="url(#p295f77477c)" style="fill: none; stroke: #0000ff; stroke-width: 1.5; stroke-linecap: square"/>
    <g clip-path="url(#p295f77477c)">
     <use xlink:href="#m774afaee0a" x="851.673678" y="673.201933" style="fill: #0000ff; stroke: #0000ff"/>
    </g>
   </g>
   <g id="line2d_163">
    <path d="M 296.701823 778.377855 
" clip-path="url(#p295f77477c)" style="fill: none; stroke: #0000ff; stroke-width: 1.5; stroke-linecap: square"/>
    <g clip-path="url(#p295f77477c)">
     <use xlink:href="#m774afaee0a" x="296.701823" y="778.377855" style="fill: #0000ff; stroke: #0000ff"/>
    </g>
   </g>
   <g id="line2d_164">
    <path d="M 840.840742 561.733785 
" clip-path="url(#p295f77477c)" style="fill: none; stroke: #0000ff; stroke-width: 1.5; stroke-linecap: square"/>
    <g clip-path="url(#p295f77477c)">
     <use xlink:href="#m774afaee0a" x="840.840742" y="561.733785" style="fill: #0000ff; stroke: #0000ff"/>
    </g>
   </g>
   <g id="line2d_165">
    <path d="M 907.168672 560.89892 
" clip-path="url(#p295f77477c)" style="fill: none; stroke: #ff0000; stroke-width: 1.5; stroke-linecap: square"/>
    <defs>
     <path id="m2d4a13f98c" d="M 0 -10 
L -2.24514 -3.09017 
L -9.510565 -3.09017 
L -3.632713 1.18034 
L -5.877853 8.09017 
L -0 3.81966 
L 5.877853 8.09017 
L 3.632713 1.18034 
L 9.510565 -3.09017 
L 2.24514 -3.09017 
z
" style="stroke: #ff0000; stroke-linejoin: bevel"/>
    </defs>
    <g clip-path="url(#p295f77477c)">
     <use xlink:href="#m2d4a13f98c" x="907.168672" y="560.89892" style="fill: #ff0000; stroke: #ff0000; stroke-linejoin: bevel"/>
    </g>
   </g>
   <g id="line2d_166">
    <path d="M 997.003416 42.865623 
" clip-path="url(#p295f77477c)" style="fill: none; stroke: #ff0000; stroke-width: 1.5; stroke-linecap: square"/>
    <g clip-path="url(#p295f77477c)">
     <use xlink:href="#m2d4a13f98c" x="997.003416" y="42.865623" style="fill: #ff0000; stroke: #ff0000; stroke-linejoin: bevel"/>
    </g>
   </g>
   <g id="line2d_167">
    <path d="M 828.579499 342.847537 
" clip-path="url(#p295f77477c)" style="fill: none; stroke: #ff0000; stroke-width: 1.5; stroke-linecap: square"/>
    <g clip-path="url(#p295f77477c)">
     <use xlink:href="#m2d4a13f98c" x="828.579499" y="342.847537" style="fill: #ff0000; stroke: #ff0000; stroke-linejoin: bevel"/>
    </g>
   </g>
   <g id="line2d_168">
    <path d="M 914.323441 216.23828 
" clip-path="url(#p295f77477c)" style="fill: none; stroke: #ff0000; stroke-width: 1.5; stroke-linecap: square"/>
    <g clip-path="url(#p295f77477c)">
     <use xlink:href="#m2d4a13f98c" x="914.323441" y="216.23828" style="fill: #ff0000; stroke: #ff0000; stroke-linejoin: bevel"/>
    </g>
   </g>
   <g id="line2d_169">
    <path d="M 834.19784 744.804319 
" clip-path="url(#p295f77477c)" style="fill: none; stroke: #ff0000; stroke-width: 1.5; stroke-linecap: square"/>
    <g clip-path="url(#p295f77477c)">
     <use xlink:href="#m2d4a13f98c" x="834.19784" y="744.804319" style="fill: #ff0000; stroke: #ff0000; stroke-linejoin: bevel"/>
    </g>
   </g>
   <g id="line2d_170">
    <path d="M 274.826327 635.087268 
" clip-path="url(#p295f77477c)" style="fill: none; stroke: #ff0000; stroke-width: 1.5; stroke-linecap: square"/>
    <g clip-path="url(#p295f77477c)">
     <use xlink:href="#m2d4a13f98c" x="274.826327" y="635.087268" style="fill: #ff0000; stroke: #ff0000; stroke-linejoin: bevel"/>
    </g>
   </g>
   <g id="line2d_171">
    <path d="M 603.214295 1130.824634 
" clip-path="url(#p295f77477c)" style="fill: none; stroke: #ff0000; stroke-width: 1.5; stroke-linecap: square"/>
    <g clip-path="url(#p295f77477c)">
     <use xlink:href="#m2d4a13f98c" x="603.214295" y="1130.824634" style="fill: #ff0000; stroke: #ff0000; stroke-linejoin: bevel"/>
    </g>
   </g>
   <g id="line2d_172">
    <path d="M 494.027419 1141.547842 
" clip-path="url(#p295f77477c)" style="fill: none; stroke: #ff0000; stroke-width: 1.5; stroke-linecap: square"/>
    <g clip-path="url(#p295f77477c)">
     <use xlink:href="#m2d4a13f98c" x="494.027419" y="1141.547842" style="fill: #ff0000; stroke: #ff0000; stroke-linejoin: bevel"/>
    </g>
   </g>
   <g id="line2d_173">
    <path d="M 788.767774 942.932502 
" clip-path="url(#p295f77477c)" style="fill: none; stroke: #ff0000; stroke-width: 1.5; stroke-linecap: square"/>
    <g clip-path="url(#p295f77477c)">
     <use xlink:href="#m2d4a13f98c" x="788.767774" y="942.932502" style="fill: #ff0000; stroke: #ff0000; stroke-linejoin: bevel"/>
    </g>
   </g>
   <g id="line2d_174">
    <path d="M 295.854224 767.997384 
" clip-path="url(#p295f77477c)" style="fill: none; stroke: #ff0000; stroke-width: 1.5; stroke-linecap: square"/>
    <g clip-path="url(#p295f77477c)">
     <use xlink:href="#m2d4a13f98c" x="295.854224" y="767.997384" style="fill: #ff0000; stroke: #ff0000; stroke-linejoin: bevel"/>
    </g>
   </g>
   <g id="line2d_175">
    <path d="M 844.58589 566.301601 
" clip-path="url(#p295f77477c)" style="fill: none; stroke: #ff0000; stroke-width: 1.5; stroke-linecap: square"/>
    <g clip-path="url(#p295f77477c)">
     <use xlink:href="#m2d4a13f98c" x="844.58589" y="566.301601" style="fill: #ff0000; stroke: #ff0000; stroke-linejoin: bevel"/>
    </g>
   </g>
  </g>
 </g>
 <defs>
  <clipPath id="p295f77477c">
   <rect x="0" y="0" width="1440" height="1440"/>
  </clipPath>
 </defs>
</svg>
