<?xml version="1.0" encoding="utf-8" standalone="no"?>
<!DOCTYPE svg PUBLIC "-//W3C//DTD SVG 1.1//EN"
  "http://www.w3.org/Graphics/SVG/1.1/DTD/svg11.dtd">
<svg xmlns:xlink="http://www.w3.org/1999/xlink" width="1440pt" height="1440pt" viewBox="0 0 1440 1440" xmlns="http://www.w3.org/2000/svg" version="1.1">
 <metadata>
  <rdf:RDF xmlns:dc="http://purl.org/dc/elements/1.1/" xmlns:cc="http://creativecommons.org/ns#" xmlns:rdf="http://www.w3.org/1999/02/22-rdf-syntax-ns#">
   <cc:Work>
    <dc:type rdf:resource="http://purl.org/dc/dcmitype/StillImage"/>
    <dc:date>2026-02-27T11:04:28.989656</dc:date>
    <dc:format>image/svg+xml</dc:format>
    <dc:creator>
     <cc:Agent>
      <dc:title>Matplotlib v3.7.3, https://matplotlib.org/</dc:title>
     </cc:Agent>
    </dc:creator>
   </cc:Work>
  </rdf:RDF>
 </metadata>
 <defs>
  <style type="text/css">*{stroke-linejoin: round; stroke-linecap: butt}</style>
 </defs>
 <g id="figure_1">
  <g id="patch_1">
   <path d="M 0 1440 
L 1440 1440 
L 1440 0 
L 0 0 
z
" style="fill: #ffffff"/>
  </g>
  <g id="axes_1">
   <g id="line2d_1">
    <path d="M 1227.30482 1067.496735 
L 1100.319701 941.345906 
" clip-path="url(#p32fbc3f603)" style="fill: none; stroke: #7a7a7a; stroke-width: 3; stroke-linecap: square"/>
   </g>
   <g id="line2d_2">
    <path d="M 1252.640425 1025.776783 
L 1250.721061 1023.893935 
L 1245.500391 1018.939071 
L 1244.271998 1017.452612 
L 1126.5766 900.022343 
" clip-path="url(#p32fbc3f603)" style="fill: none; stroke: #7a7a7a; stroke-width: 3; stroke-linecap: square"/>
   </g>
   <g id="line2d_3">
    <path d="M 1100.319701 941.345906 
L 1014.562519 855.527667 
" clip-path="url(#p32fbc3f603)" style="fill: none; stroke: #7a7a7a; stroke-width: 3; stroke-linecap: square"/>
   </g>
   <g id="line2d_4">
    <path d="M 1126.5766 900.022343 
L 1049.725267 823.816539 
L 1039.514251 813.60952 
" clip-path="url(#p32fbc3f603)" style="fill: none; stroke: #7a7a7a; stroke-width: 3; stroke-linecap: square"/>
   </g>
   <g id="line2d_5">
    <path d="M 1216.863481 924.301175 
L 1210.030545 936.787431 
L 1205.116973 951.552925 
L 1202.045991 967.903975 
L 1200.817598 985.146901 
L 1201.585343 1002.786216 
L 1204.195678 1020.128239 
L 1208.802152 1036.578386 
L 1215.251215 1051.34388 
L 1223.696416 1063.929234 
L 1227.30482 1067.496735 
" clip-path="url(#p32fbc3f603)" style="fill: none; stroke: #7a7a7a; stroke-width: 3; stroke-linecap: square"/>
   </g>
   <g id="line2d_6">
    <path d="M 1199.589205 906.959152 
L 1189.454963 923.805689 
L 1182.007831 937.382015 
L 1176.480063 952.84119 
L 1172.718109 969.786824 
L 1170.645196 987.624333 
L 1170.184549 1006.056426 
L 1171.259393 1024.587616 
L 1173.639404 1042.62332 
L 1177.401357 1059.866245 
L 1182.238155 1075.721809 
L 1188.22657 1089.892719 
L 1195.13628 1101.784392 
L 1202.967285 1111.099536 
" clip-path="url(#p32fbc3f603)" style="fill: none; stroke: #7a7a7a; stroke-width: 3; stroke-linecap: square"/>
   </g>
   <g id="line2d_7">
    <path d="M 1116.749456 1090.883692 
L 1126.883698 1076.910976 
L 1138.323107 1066.010276 
L 1150.683811 1058.082494 
L 1163.505162 1053.028533 
L 1176.480063 1050.452004 
L 1189.224639 1050.352907 
L 1201.35502 1052.533047 
L 1212.487331 1056.695133 
L 1222.2377 1062.740066 
L 1227.30482 1067.496735 
" clip-path="url(#p32fbc3f603)" style="fill: none; stroke: #7a7a7a; stroke-width: 3; stroke-linecap: square"/>
   </g>
   <g id="line2d_8">
    <path d="M 1134.791478 1108.919396 
L 1140.549569 1103.766338 
L 1149.225095 1098.712377 
L 1159.973533 1095.045777 
L 1169.954225 1093.460221 
L 1176.480063 1093.361124 
L 1181.470409 1093.955707 
L 1185.462686 1095.640361 
L 1196.364673 1105.252797 
L 1197.900165 1106.342867 
L 1202.967285 1111.099536 
" clip-path="url(#p32fbc3f603)" style="fill: none; stroke: #7a7a7a; stroke-width: 3; stroke-linecap: square"/>
   </g>
   <g id="line2d_9">
    <path d="M 1116.749456 1090.883692 
L 985.004314 1310.582348 
" clip-path="url(#p32fbc3f603)" style="fill: none; stroke: #7a7a7a; stroke-width: 3; stroke-linecap: square"/>
   </g>
   <g id="line2d_10">
    <path d="M 1099.321632 1073.442572 
L 1088.266095 1091.874665 
L 967.42294 1293.04213 
" clip-path="url(#p32fbc3f603)" style="fill: none; stroke: #7a7a7a; stroke-width: 3; stroke-linecap: square"/>
   </g>
   <g id="line2d_11">
    <path d="M 1216.863481 924.301175 
L 1389.222364 638.603735 
" clip-path="url(#p32fbc3f603)" style="fill: none; stroke: #7a7a7a; stroke-width: 3; stroke-linecap: square"/>
   </g>
   <g id="line2d_12">
    <path d="M 1234.828727 942.336879 
L 1407.110836 656.540341 
" clip-path="url(#p32fbc3f603)" style="fill: none; stroke: #7a7a7a; stroke-width: 3; stroke-linecap: square"/>
   </g>
   <g id="line2d_13">
    <path d="M 1372.101638 621.459907 
L 1199.589205 906.959152 
" clip-path="url(#p32fbc3f603)" style="fill: none; stroke: #7a7a7a; stroke-width: 3; stroke-linecap: square"/>
   </g>
   <g id="line2d_14">
    <path d="M 1354.597038 603.820592 
L 1182.16138 889.518032 
" clip-path="url(#p32fbc3f603)" style="fill: none; stroke: #7a7a7a; stroke-width: 3; stroke-linecap: square"/>
   </g>
   <g id="line2d_15">
    <path d="M 1216.863481 924.301175 
L 1116.749456 1090.883692 
" clip-path="url(#p32fbc3f603)" style="fill: none; stroke: #7a7a7a; stroke-width: 3; stroke-linecap: square"/>
   </g>
   <g id="line2d_16">
    <path d="M 1199.589205 906.959152 
L 1099.321632 1073.442572 
" clip-path="url(#p32fbc3f603)" style="fill: none; stroke: #7a7a7a; stroke-width: 3; stroke-linecap: square"/>
   </g>
   <g id="line2d_17">
    <path d="M 1014.562519 855.527667 
L 880.821238 719.268916 
" clip-path="url(#p32fbc3f603)" style="fill: none; stroke: #7a7a7a; stroke-width: 3; stroke-linecap: square"/>
   </g>
   <g id="line2d_18">
    <path d="M 1039.514251 813.60952 
L 1000.282451 774.763389 
L 880.821238 652.97284 
" clip-path="url(#p32fbc3f603)" style="fill: none; stroke: #7a7a7a; stroke-width: 3; stroke-linecap: square"/>
   </g>
   <g id="line2d_19">
    <path d="M 880.821238 719.268916 
L 555.834532 397.004582 
L 370.577523 211.593583 
" clip-path="url(#p32fbc3f603)" style="fill: none; stroke: #7a7a7a; stroke-width: 3; stroke-linecap: square"/>
   </g>
   <g id="line2d_20">
    <path d="M 880.821238 652.97284 
L 706.926863 481.237264 
L 395.606029 170.666409 
" clip-path="url(#p32fbc3f603)" style="fill: none; stroke: #7a7a7a; stroke-width: 3; stroke-linecap: square"/>
   </g>
   <g id="line2d_21">
    <path d="M 1389.222364 638.603735 
L 1216.863481 924.301175 
" clip-path="url(#p32fbc3f603)" style="fill: none; stroke: #7a7a7a; stroke-width: 3; stroke-linecap: square"/>
   </g>
   <g id="line2d_22">
    <path d="M 1372.101638 621.459907 
L 1199.589205 906.959152 
" clip-path="url(#p32fbc3f603)" style="fill: none; stroke: #7a7a7a; stroke-width: 3; stroke-linecap: square"/>
   </g>
   <g id="line2d_23">
    <path d="M 1227.30482 1067.496735 
L 1222.2377 1062.740066 
L 1212.487331 1056.695133 
L 1201.35502 1052.533047 
L 1189.224639 1050.352907 
L 1176.480063 1050.452004 
L 1163.505162 1053.028533 
L 1150.683811 1058.082494 
L 1138.323107 1066.010276 
L 1126.883698 1076.910976 
L 1116.749456 1090.883692 
" clip-path="url(#p32fbc3f603)" style="fill: none; stroke: #7a7a7a; stroke-width: 3; stroke-linecap: square"/>
   </g>
   <g id="line2d_24">
    <path d="M 1252.640425 1025.776783 
L 1244.732645 1019.434558 
L 1235.059051 1014.182402 
L 1223.92674 1010.317608 
L 1211.566036 1007.840177 
L 1198.360812 1006.948301 
L 1184.618166 1007.840177 
L 1170.645196 1010.6149 
L 1156.825776 1015.371569 
L 1143.390228 1022.308379 
L 1130.722426 1031.524425 
L 1119.052693 1043.317001 
L 1108.841677 1057.686105 
L 1099.321632 1073.442572 
" clip-path="url(#p32fbc3f603)" style="fill: none; stroke: #7a7a7a; stroke-width: 3; stroke-linecap: square"/>
   </g>
   <g id="line2d_25">
    <path d="M 1227.30482 1067.496735 
L 1311.910384 1152.918585 
" clip-path="url(#p32fbc3f603)" style="fill: none; stroke: #7a7a7a; stroke-width: 3; stroke-linecap: square"/>
   </g>
   <g id="line2d_26">
    <path d="M 1202.967285 1111.099536 
L 1206.498915 1114.171551 
L 1230.452577 1138.450383 
L 1286.805103 1194.737635 
" clip-path="url(#p32fbc3f603)" style="fill: none; stroke: #7a7a7a; stroke-width: 3; stroke-linecap: square"/>
   </g>
   <g id="line2d_27">
    <path d="M 1311.910384 1152.918585 
L 1227.30482 1067.496735 
" clip-path="url(#p32fbc3f603)" style="fill: none; stroke: #7a7a7a; stroke-width: 3; stroke-linecap: square"/>
   </g>
   <g id="line2d_28">
    <path d="M 1337.169214 1111.198633 
L 1252.640425 1025.776783 
" clip-path="url(#p32fbc3f603)" style="fill: none; stroke: #7a7a7a; stroke-width: 3; stroke-linecap: square"/>
   </g>
   <g id="line2d_29">
    <path d="M 1100.319701 941.345906 
L 1108.22748 954.624941 
L 1114.139121 969.291337 
L 1117.977849 984.948706 
L 1119.820439 1001.200659 
L 1119.51334 1017.650807 
L 1116.97978 1033.803662 
L 1112.296532 1049.361934 
L 1105.233273 1063.731039 
L 1099.321632 1073.442572 
" clip-path="url(#p32fbc3f603)" style="fill: none; stroke: #7a7a7a; stroke-width: 3; stroke-linecap: square"/>
   </g>
   <g id="line2d_30">
    <path d="M 1074.600224 981.975788 
L 1082.354454 989.408084 
L 1088.112546 995.35392 
L 1091.260303 1001.795243 
L 1093.333216 1007.245593 
L 1095.25258 1013.88511 
L 1095.175805 1020.722822 
L 1094.254511 1027.659631 
L 1090.569332 1040.641374 
L 1088.496419 1044.109779 
L 1087.958997 1046.389016 
L 1082.047356 1056.199646 
" clip-path="url(#p32fbc3f603)" style="fill: none; stroke: #7a7a7a; stroke-width: 3; stroke-linecap: square"/>
   </g>
   <g id="line2d_31">
    <path d="M 1441 1283.137878 
L 1311.910384 1152.918585 
" clip-path="url(#p32fbc3f603)" style="fill: none; stroke: #7a7a7a; stroke-width: 3; stroke-linecap: square"/>
   </g>
   <g id="line2d_32">
    <path d="M 1441 1216.304472 
L 1440.738093 1216.043549 
L 1337.169214 1111.198633 
" clip-path="url(#p32fbc3f603)" style="fill: none; stroke: #7a7a7a; stroke-width: 3; stroke-linecap: square"/>
   </g>
   <g id="line2d_33">
    <path d="M 1116.749456 1090.883692 
L 1122.891421 1079.784797 
L 1127.728218 1066.208471 
L 1131.029524 1050.848393 
L 1132.64179 1034.299149 
L 1132.411466 1016.858029 
L 1130.261779 999.317811 
L 1125.885629 982.173983 
L 1119.206242 965.92203 
L 1110.146844 951.156536 
L 1100.319701 941.345906 
" clip-path="url(#p32fbc3f603)" style="fill: none; stroke: #7a7a7a; stroke-width: 3; stroke-linecap: square"/>
   </g>
   <g id="line2d_34">
    <path d="M 1134.791478 1108.919396 
L 1139.474726 1101.288906 
L 1145.923789 1089.595427 
L 1151.298008 1076.217295 
L 1155.443834 1061.352704 
L 1158.438042 1045.398043 
L 1160.127082 1028.551507 
L 1160.587729 1011.308581 
L 1159.819984 993.669266 
L 1157.670296 976.228146 
L 1154.215441 959.084318 
L 1149.378644 942.634171 
L 1143.236679 927.075899 
L 1135.635998 912.805891 
L 1126.5766 900.022343 
" clip-path="url(#p32fbc3f603)" style="fill: none; stroke: #7a7a7a; stroke-width: 3; stroke-linecap: square"/>
   </g>
   <g id="line2d_35">
    <path d="M 1134.791478 1108.919396 
L 1234.828727 942.336879 
" clip-path="url(#p32fbc3f603)" style="fill: none; stroke: #7a7a7a; stroke-width: 3; stroke-linecap: square"/>
   </g>
   <g id="line2d_36">
    <path d="M 1146.384436 1120.513777 
L 1246.344911 953.832162 
" clip-path="url(#p32fbc3f603)" style="fill: none; stroke: #7a7a7a; stroke-width: 3; stroke-linecap: square"/>
   </g>
   <g id="line2d_37">
    <path d="M 267.853164 228.539216 
L 214.110973 320.501486 
L 132.422843 454.976487 
" clip-path="url(#p32fbc3f603)" style="fill: none; stroke: #7a7a7a; stroke-width: 3; stroke-linecap: square"/>
   </g>
   <g id="line2d_38">
    <path d="M 234.225907 195.837116 
L 163.286215 318.321346 
L 79.218074 454.976487 
" clip-path="url(#p32fbc3f603)" style="fill: none; stroke: #7a7a7a; stroke-width: 3; stroke-linecap: square"/>
   </g>
   <g id="line2d_39">
    <path d="M 1199.589205 906.959152 
L 1099.321632 1073.442572 
" clip-path="url(#p32fbc3f603)" style="fill: none; stroke: #7a7a7a; stroke-width: 3; stroke-linecap: square"/>
   </g>
   <g id="line2d_40">
    <path d="M 1182.16138 889.518032 
L 1082.047356 1056.199646 
" clip-path="url(#p32fbc3f603)" style="fill: none; stroke: #7a7a7a; stroke-width: 3; stroke-linecap: square"/>
   </g>
   <g id="line2d_41">
    <path d="M 1134.791478 1108.919396 
L 1142.776032 1095.640361 
L 1153.831568 1080.379381 
L 1165.578075 1069.676875 
L 1177.478132 1062.839164 
L 1189.224639 1059.469856 
L 1200.5105 1058.776175 
L 1210.79829 1060.361732 
L 1219.857688 1063.433747 
L 1227.30482 1067.496735 
" clip-path="url(#p32fbc3f603)" style="fill: none; stroke: #7a7a7a; stroke-width: 3; stroke-linecap: square"/>
   </g>
   <g id="line2d_42">
    <path d="M 1146.384436 1120.513777 
L 1154.36899 1107.234742 
L 1158.207718 1104.658213 
L 1161.048377 1101.288906 
L 1165.961948 1097.523209 
L 1170.645196 1094.451194 
L 1176.480063 1093.361124 
L 1181.470409 1093.955707 
L 1185.462686 1095.640361 
L 1202.967285 1111.099536 
" clip-path="url(#p32fbc3f603)" style="fill: none; stroke: #7a7a7a; stroke-width: 3; stroke-linecap: square"/>
   </g>
   <g id="line2d_43">
    <path d="M 1116.749456 1090.883692 
L 1216.863481 924.301175 
" clip-path="url(#p32fbc3f603)" style="fill: none; stroke: #7a7a7a; stroke-width: 3; stroke-linecap: square"/>
   </g>
   <g id="line2d_44">
    <path d="M 1134.791478 1108.919396 
L 1234.828727 942.336879 
" clip-path="url(#p32fbc3f603)" style="fill: none; stroke: #7a7a7a; stroke-width: 3; stroke-linecap: square"/>
   </g>
   <g id="line2d_45">
    <path d="M 1099.321632 1073.442572 
L 1088.266095 1091.874665 
L 967.42294 1293.04213 
" clip-path="url(#p32fbc3f603)" style="fill: none; stroke: #7a7a7a; stroke-width: 3; stroke-linecap: square"/>
   </g>
   <g id="line2d_46">
    <path d="M 1082.047356 1056.199646 
L 1005.349572 1183.936032 
L 1002.662463 1188.494507 
L 950.225439 1275.898302 
" clip-path="url(#p32fbc3f603)" style="fill: none; stroke: #7a7a7a; stroke-width: 3; stroke-linecap: square"/>
   </g>
   <g id="line2d_47">
    <path d="M 1234.828727 942.336879 
L 1407.110836 656.540341 
" clip-path="url(#p32fbc3f603)" style="fill: none; stroke: #7a7a7a; stroke-width: 3; stroke-linecap: square"/>
   </g>
   <g id="line2d_48">
    <path d="M 1246.344911 953.832162 
L 1418.473471 667.936528 
" clip-path="url(#p32fbc3f603)" style="fill: none; stroke: #7a7a7a; stroke-width: 3; stroke-linecap: square"/>
   </g>
   <g id="line2d_49">
    <path d="M 1100.319701 941.345906 
L 1110.146844 951.156536 
L 1119.206242 965.92203 
L 1125.885629 982.173983 
L 1130.261779 999.317811 
L 1132.411466 1016.858029 
L 1132.64179 1034.299149 
L 1131.029524 1050.848393 
L 1127.728218 1066.208471 
L 1122.891421 1079.784797 
L 1116.749456 1090.883692 
" clip-path="url(#p32fbc3f603)" style="fill: none; stroke: #7a7a7a; stroke-width: 3; stroke-linecap: square"/>
   </g>
   <g id="line2d_50">
    <path d="M 1074.600224 981.975788 
L 1082.354454 989.408084 
L 1088.112546 995.35392 
L 1090.569332 1000.407881 
L 1095.022256 1006.651009 
L 1101.010672 1023.497546 
L 1103.313909 1040.344082 
L 1103.083585 1055.505965 
L 1101.394545 1067.100346 
L 1099.321632 1073.442572 
" clip-path="url(#p32fbc3f603)" style="fill: none; stroke: #7a7a7a; stroke-width: 3; stroke-linecap: square"/>
   </g>
   <g id="line2d_51">
    <path d="M 370.577523 211.593583 
L 367.276217 208.323373 
L 359.598761 197.819062 
L 353.380022 183.648151 
L 348.927097 167.098907 
L 346.239988 149.1623 
L 345.395468 130.928402 
L 346.547086 113.388184 
L 349.771618 97.730815 
L 355.145837 84.947267 
" clip-path="url(#p32fbc3f603)" style="fill: none; stroke: #7a7a7a; stroke-width: 3; stroke-linecap: square"/>
   </g>
   <g id="line2d_52">
    <path d="M 395.606029 170.666409 
L 391.767301 166.504323 
L 389.694388 163.432308 
L 387.775024 159.765708 
L 384.550493 152.234316 
L 383.475649 145.89209 
L 382.47758 138.459795 
L 382.32403 130.135624 
L 383.859522 126.27083 
L 386.776955 119.532215 
L 388.158897 117.054784 
" clip-path="url(#p32fbc3f603)" style="fill: none; stroke: #7a7a7a; stroke-width: 3; stroke-linecap: square"/>
   </g>
   <g id="line2d_53">
    <path d="M 1199.589205 906.959152 
L 1193.063367 917.760755 
L 1184.541391 930.544303 
L 1173.56263 940.454031 
L 1160.971602 947.589034 
L 1147.536054 951.75112 
L 1133.946957 953.237579 
L 1121.125606 951.949314 
L 1109.609422 947.985423 
L 1100.319701 941.345906 
" clip-path="url(#p32fbc3f603)" style="fill: none; stroke: #7a7a7a; stroke-width: 3; stroke-linecap: square"/>
   </g>
   <g id="line2d_54">
    <path d="M 1182.16138 889.518032 
L 1175.712317 900.319635 
L 1174.867797 900.914218 
L 1171.105844 905.869082 
L 1165.117428 911.220335 
L 1157.90062 914.986031 
L 1150.299938 915.481518 
L 1143.774101 913.697767 
L 1138.169558 910.823946 
L 1132.872114 906.364568 
L 1126.5766 900.022343 
" clip-path="url(#p32fbc3f603)" style="fill: none; stroke: #7a7a7a; stroke-width: 3; stroke-linecap: square"/>
   </g>
   <g id="line2d_55">
    <path d="M 1227.30482 1067.496735 
L 1220.011237 1055.208673 
L 1214.944117 1041.037763 
L 1212.026683 1025.776783 
L 1211.105389 1009.921219 
L 1212.180232 994.462045 
L 1215.097666 979.894745 
L 1219.780914 967.210294 
L 1226.153202 956.904178 
L 1234.828727 942.336879 
" clip-path="url(#p32fbc3f603)" style="fill: none; stroke: #7a7a7a; stroke-width: 3; stroke-linecap: square"/>
   </g>
   <g id="line2d_56">
    <path d="M 1252.640425 1025.776783 
L 1245.500391 1018.939071 
L 1242.429408 1015.272472 
L 1239.665524 1011.903165 
L 1237.362288 1006.849204 
L 1235.596473 999.615103 
L 1234.214531 985.245998 
L 1234.444854 981.480302 
L 1234.36808 979.300162 
L 1237.669386 968.399462 
L 1246.344911 953.832162 
" clip-path="url(#p32fbc3f603)" style="fill: none; stroke: #7a7a7a; stroke-width: 3; stroke-linecap: square"/>
   </g>
   <g id="line2d_57">
    <path d="M 355.145837 84.947267 
L 369.502679 60.47024 
L 389.540839 26.777167 
L 406.191105 -1 
" clip-path="url(#p32fbc3f603)" style="fill: none; stroke: #7a7a7a; stroke-width: 3; stroke-linecap: square"/>
   </g>
   <g id="line2d_58">
    <path d="M 388.158897 117.054784 
L 392.842145 108.532418 
L 397.678942 100.505539 
L 458.743536 -1 
" clip-path="url(#p32fbc3f603)" style="fill: none; stroke: #7a7a7a; stroke-width: 3; stroke-linecap: square"/>
   </g>
   <g id="line2d_59">
    <path d="M 1100.319701 941.345906 
L 1227.30482 1067.496735 
" clip-path="url(#p32fbc3f603)" style="fill: none; stroke: #7a7a7a; stroke-width: 3; stroke-linecap: square"/>
   </g>
   <g id="line2d_60">
    <path d="M 1074.600224 981.975788 
L 1082.354454 989.408084 
L 1088.189321 995.552115 
L 1202.967285 1111.099536 
" clip-path="url(#p32fbc3f603)" style="fill: none; stroke: #7a7a7a; stroke-width: 3; stroke-linecap: square"/>
   </g>
   <g id="line2d_61">
    <path d="M 880.821238 719.268916 
L 1014.562519 855.527667 
" clip-path="url(#p32fbc3f603)" style="fill: none; stroke: #7a7a7a; stroke-width: 3; stroke-linecap: square"/>
   </g>
   <g id="line2d_62">
    <path d="M 880.821238 787.546937 
L 989.764337 896.752133 
" clip-path="url(#p32fbc3f603)" style="fill: none; stroke: #7a7a7a; stroke-width: 3; stroke-linecap: square"/>
   </g>
   <g id="line2d_63">
    <path d="M 985.004314 1310.582348 
L 1116.749456 1090.883692 
" clip-path="url(#p32fbc3f603)" style="fill: none; stroke: #7a7a7a; stroke-width: 3; stroke-linecap: square"/>
   </g>
   <g id="line2d_64">
    <path d="M 1003.276659 1328.717149 
L 1101.240996 1164.909355 
L 1134.791478 1108.919396 
" clip-path="url(#p32fbc3f603)" style="fill: none; stroke: #7a7a7a; stroke-width: 3; stroke-linecap: square"/>
   </g>
   <g id="line2d_65">
    <path d="M 1003.276659 1328.717149 
L 1101.240996 1164.909355 
L 1134.791478 1108.919396 
" clip-path="url(#p32fbc3f603)" style="fill: none; stroke: #7a7a7a; stroke-width: 3; stroke-linecap: square"/>
   </g>
   <g id="line2d_66">
    <path d="M 1014.639294 1340.014238 
L 1050.185914 1280.357679 
L 1083.889945 1224.764109 
L 1146.384436 1120.513777 
" clip-path="url(#p32fbc3f603)" style="fill: none; stroke: #7a7a7a; stroke-width: 3; stroke-linecap: square"/>
   </g>
   <g id="line2d_67">
    <path d="M 1100.319701 941.345906 
L 1106.154567 947.886326 
L 1115.521063 953.237579 
L 1127.651444 957.20147 
L 1141.701188 959.282513 
L 1156.979325 959.282513 
L 1172.487786 956.805081 
L 1187.612374 951.354731 
L 1201.35502 942.832365 
L 1213.024753 930.6434 
L 1216.863481 924.301175 
" clip-path="url(#p32fbc3f603)" style="fill: none; stroke: #7a7a7a; stroke-width: 3; stroke-linecap: square"/>
   </g>
   <g id="line2d_68">
    <path d="M 1074.600224 981.975788 
L 1082.968651 988.8135 
L 1092.872569 994.462045 
L 1104.158429 998.723227 
L 1116.442358 1001.597048 
L 1129.570808 1002.98441 
L 1143.236679 1002.687118 
L 1157.132874 1000.80427 
L 1171.029069 997.137671 
L 1184.618166 991.489126 
L 1197.746615 983.957734 
L 1209.95377 974.345298 
L 1221.162856 962.65182 
L 1230.989999 948.679104 
L 1234.828727 942.336879 
" clip-path="url(#p32fbc3f603)" style="fill: none; stroke: #7a7a7a; stroke-width: 3; stroke-linecap: square"/>
   </g>
   <g id="line2d_69">
    <path d="M 253.265998 93.766924 
L 171.040446 13.795424 
L 156.521753 -1 
" clip-path="url(#p32fbc3f603)" style="fill: none; stroke: #7a7a7a; stroke-width: 3; stroke-linecap: square"/>
   </g>
   <g id="line2d_70">
    <path d="M 277.987405 52.83975 
L 271.308019 47.290303 
L 223.540757 -1 
" clip-path="url(#p32fbc3f603)" style="fill: none; stroke: #7a7a7a; stroke-width: 3; stroke-linecap: square"/>
   </g>
   <g id="line2d_71">
    <path d="M 1227.30482 1067.496735 
L 1222.2377 1062.442774 
L 1212.410556 1053.325825 
L 1200.433725 1046.9836 
L 1186.767854 1043.317001 
L 1172.180688 1041.929639 
L 1157.286423 1042.821514 
L 1142.699257 1045.695335 
L 1128.956611 1050.352907 
L 1116.749456 1056.695133 
L 1106.691989 1064.42472 
L 1099.321632 1073.442572 
" clip-path="url(#p32fbc3f603)" style="fill: none; stroke: #7a7a7a; stroke-width: 3; stroke-linecap: square"/>
   </g>
   <g id="line2d_72">
    <path d="M 1252.640425 1025.776783 
L 1246.037813 1019.434558 
L 1238.053259 1012.894138 
L 1226.844173 1006.849204 
L 1214.253146 1002.389827 
L 1200.587274 999.7142 
L 1186.153657 998.822325 
L 1171.259393 999.615103 
L 1156.365128 1002.290729 
L 1141.547639 1006.651009 
L 1127.344345 1012.894138 
L 1113.985572 1020.921017 
L 1101.778417 1030.830744 
L 1091.029979 1042.524222 
L 1082.047356 1056.199646 
" clip-path="url(#p32fbc3f603)" style="fill: none; stroke: #7a7a7a; stroke-width: 3; stroke-linecap: square"/>
   </g>
   <g id="line2d_73">
    <path d="M 1311.910384 1152.918585 
L 1441 1283.137878 
" clip-path="url(#p32fbc3f603)" style="fill: none; stroke: #7a7a7a; stroke-width: 3; stroke-linecap: square"/>
   </g>
   <g id="line2d_74">
    <path d="M 1286.805103 1194.737635 
L 1338.781479 1246.466412 
L 1433.828383 1342.194378 
L 1441 1349.322961 
" clip-path="url(#p32fbc3f603)" style="fill: none; stroke: #7a7a7a; stroke-width: 3; stroke-linecap: square"/>
   </g>
   <g id="line2d_75">
    <path d="M 253.265998 93.766924 
L 262.171846 104.964916 
L 269.31188 118.541243 
L 274.762874 133.703126 
L 278.371278 150.054176 
L 280.213868 166.999809 
L 280.060319 183.846346 
L 277.987405 200.098299 
L 273.995128 215.260182 
L 267.853164 228.539216 
" clip-path="url(#p32fbc3f603)" style="fill: none; stroke: #7a7a7a; stroke-width: 3; stroke-linecap: square"/>
   </g>
   <g id="line2d_76">
    <path d="M 227.469746 136.180557 
L 235.607849 144.603826 
L 237.911086 148.964106 
L 240.214323 154.711748 
L 240.982068 158.477444 
L 242.056912 165.414253 
L 242.671109 172.45016 
L 241.826588 179.684261 
L 238.448508 188.603015 
L 234.225907 195.837116 
" clip-path="url(#p32fbc3f603)" style="fill: none; stroke: #7a7a7a; stroke-width: 3; stroke-linecap: square"/>
   </g>
   <g id="line2d_77">
    <path d="M 1100.319701 941.345906 
L 1110.223619 951.255633 
L 1115.597838 957.994248 
L 1124.196589 963.840987 
L 1135.559223 968.498559 
L 1148.841222 971.669672 
L 1163.505162 973.057034 
L 1178.936849 972.363353 
L 1194.445309 969.19224 
L 1209.339574 963.345501 
L 1223.005445 954.525843 
L 1234.828727 942.336879 
" clip-path="url(#p32fbc3f603)" style="fill: none; stroke: #7a7a7a; stroke-width: 3; stroke-linecap: square"/>
   </g>
   <g id="line2d_78">
    <path d="M 1074.600224 981.975788 
L 1082.354454 989.408084 
L 1085.195113 992.381002 
L 1092.181598 998.128644 
L 1101.778417 1003.479897 
L 1112.833954 1007.741079 
L 1125.194658 1010.6149 
L 1138.553431 1012.200457 
L 1152.526401 1012.101359 
L 1167.036792 1010.317608 
L 1181.547184 1006.551912 
L 1195.980801 1000.80427 
L 1209.95377 992.777391 
L 1223.158994 982.372177 
L 1235.442924 969.489532 
L 1246.344911 953.832162 
" clip-path="url(#p32fbc3f603)" style="fill: none; stroke: #7a7a7a; stroke-width: 3; stroke-linecap: square"/>
   </g>
   <g id="line2d_79">
    <path d="M 1014.562519 855.527667 
L 1100.319701 941.345906 
" clip-path="url(#p32fbc3f603)" style="fill: none; stroke: #7a7a7a; stroke-width: 3; stroke-linecap: square"/>
   </g>
   <g id="line2d_80">
    <path d="M 989.764337 896.752133 
L 1007.729583 914.787837 
L 1023.16127 930.247011 
L 1074.600224 981.975788 
" clip-path="url(#p32fbc3f603)" style="fill: none; stroke: #7a7a7a; stroke-width: 3; stroke-linecap: square"/>
   </g>
   <g id="line2d_81">
    <path d="M 1227.30482 1067.496735 
L 1223.696416 1063.929234 
L 1215.251215 1051.34388 
L 1208.802152 1036.578386 
L 1204.195678 1020.128239 
L 1201.585343 1002.786216 
L 1200.817598 985.146901 
L 1202.045991 967.903975 
L 1205.116973 951.552925 
L 1210.030545 936.787431 
L 1216.863481 924.301175 
" clip-path="url(#p32fbc3f603)" style="fill: none; stroke: #7a7a7a; stroke-width: 3; stroke-linecap: square"/>
   </g>
   <g id="line2d_82">
    <path d="M 1252.640425 1025.776783 
L 1245.500391 1018.939071 
L 1242.429408 1015.272472 
L 1239.665524 1011.903165 
L 1237.362288 1006.849204 
L 1235.596473 999.615103 
L 1235.366149 997.831352 
L 1233.216461 991.588224 
L 1230.913225 975.138076 
L 1231.143548 960.273485 
L 1232.755814 948.778202 
L 1234.828727 942.336879 
" clip-path="url(#p32fbc3f603)" style="fill: none; stroke: #7a7a7a; stroke-width: 3; stroke-linecap: square"/>
   </g>
   <g id="line2d_83">
    <path d="M 370.577523 211.593583 
L 555.834532 397.004582 
L 880.821238 719.268916 
" clip-path="url(#p32fbc3f603)" style="fill: none; stroke: #7a7a7a; stroke-width: 3; stroke-linecap: square"/>
   </g>
   <g id="line2d_84">
    <path d="M 344.781271 253.709924 
L 452.87985 360.635882 
L 880.821238 787.546937 
" clip-path="url(#p32fbc3f603)" style="fill: none; stroke: #7a7a7a; stroke-width: 3; stroke-linecap: square"/>
   </g>
   <g id="line2d_85">
    <path d="M 267.853164 228.539216 
L 275.760943 216.845738 
L 285.280989 206.836913 
L 296.106201 198.61184 
L 307.852709 192.864198 
L 320.290187 189.693085 
L 333.111538 189.693085 
L 346.009664 193.062392 
L 358.600692 200.197396 
L 370.577523 211.593583 
" clip-path="url(#p32fbc3f603)" style="fill: none; stroke: #7a7a7a; stroke-width: 3; stroke-linecap: square"/>
   </g>
   <g id="line2d_86">
    <path d="M 301.096548 260.844928 
L 304.013981 255.592772 
L 306.777865 252.322562 
L 310.23272 249.250547 
L 318.831471 243.701099 
L 323.20762 242.908321 
L 328.658614 243.701099 
L 333.188313 245.187558 
L 337.564463 247.764088 
L 341.479965 250.439714 
L 344.781271 253.709924 
" clip-path="url(#p32fbc3f603)" style="fill: none; stroke: #7a7a7a; stroke-width: 3; stroke-linecap: square"/>
   </g>
   <g id="line2d_87">
    <path d="M 406.191105 -1 
L 389.540839 26.777167 
L 369.502679 60.47024 
L 355.145837 84.947267 
" clip-path="url(#p32fbc3f603)" style="fill: none; stroke: #7a7a7a; stroke-width: 3; stroke-linecap: square"/>
   </g>
   <g id="line2d_88">
    <path d="M 353.257661 -1 
L 323.975366 47.3894 
L 323.591493 48.083081 
L 321.211482 52.046972 
" clip-path="url(#p32fbc3f603)" style="fill: none; stroke: #7a7a7a; stroke-width: 3; stroke-linecap: square"/>
   </g>
   <g id="line2d_89">
    <path d="M 253.265998 93.766924 
L 370.577523 211.593583 
" clip-path="url(#p32fbc3f603)" style="fill: none; stroke: #7a7a7a; stroke-width: 3; stroke-linecap: square"/>
   </g>
   <g id="line2d_90">
    <path d="M 227.469746 136.180557 
L 344.781271 253.709924 
" clip-path="url(#p32fbc3f603)" style="fill: none; stroke: #7a7a7a; stroke-width: 3; stroke-linecap: square"/>
   </g>
   <g id="line2d_91">
    <path d="M 156.521753 -1 
L 171.040446 13.795424 
L 253.265998 93.766924 
" clip-path="url(#p32fbc3f603)" style="fill: none; stroke: #7a7a7a; stroke-width: 3; stroke-linecap: square"/>
   </g>
   <g id="line2d_92">
    <path d="M 90.762213 -1 
L 91.194905 -0.57368 
L 192.153449 100.406442 
L 227.469746 136.180557 
" clip-path="url(#p32fbc3f603)" style="fill: none; stroke: #7a7a7a; stroke-width: 3; stroke-linecap: square"/>
   </g>
   <g id="line2d_93">
    <path d="M 370.577523 211.593583 
L 358.600692 200.197396 
L 346.009664 193.062392 
L 333.111538 189.693085 
L 320.290187 189.693085 
L 307.852709 192.864198 
L 296.106201 198.61184 
L 285.280989 206.836913 
L 275.760943 216.845738 
L 267.853164 228.539216 
" clip-path="url(#p32fbc3f603)" style="fill: none; stroke: #7a7a7a; stroke-width: 3; stroke-linecap: square"/>
   </g>
   <g id="line2d_94">
    <path d="M 395.606029 170.666409 
L 391.767301 166.504323 
L 389.694388 163.432308 
L 388.696319 161.549459 
L 381.095637 154.513553 
L 370.884621 147.874036 
L 359.061339 142.62188 
L 346.086439 138.955281 
L 332.113469 137.072433 
L 317.526303 137.270627 
L 302.632039 139.748059 
L 287.737774 144.80202 
L 273.150608 152.729802 
L 259.100864 163.729599 
L 246.049189 177.999607 
L 234.225907 195.837116 
" clip-path="url(#p32fbc3f603)" style="fill: none; stroke: #7a7a7a; stroke-width: 3; stroke-linecap: square"/>
   </g>
   <g id="line2d_95">
    <path d="M 370.577523 211.593583 
L 253.265998 93.766924 
" clip-path="url(#p32fbc3f603)" style="fill: none; stroke: #7a7a7a; stroke-width: 3; stroke-linecap: square"/>
   </g>
   <g id="line2d_96">
    <path d="M 395.606029 170.666409 
L 277.987405 52.83975 
" clip-path="url(#p32fbc3f603)" style="fill: none; stroke: #7a7a7a; stroke-width: 3; stroke-linecap: square"/>
   </g>
   <g id="line2d_97">
    <path d="M 355.145837 84.947267 
L 347.314832 95.550675 
L 337.487688 104.271235 
L 326.125054 110.910753 
L 313.687575 115.271033 
L 300.6359 116.757492 
L 287.430676 115.271033 
L 274.455776 110.316169 
L 262.171846 101.793803 
L 253.265998 93.766924 
" clip-path="url(#p32fbc3f603)" style="fill: none; stroke: #7a7a7a; stroke-width: 3; stroke-linecap: square"/>
   </g>
   <g id="line2d_98">
    <path d="M 321.211482 52.046972 
L 319.983089 53.92982 
L 318.98502 55.118987 
L 315.914037 59.38017 
L 313.380477 59.974754 
L 312.459182 60.668435 
L 305.933345 63.244964 
L 300.6359 63.938645 
L 292.651346 62.749478 
L 288.735844 60.866629 
L 286.893254 60.767532 
L 277.987405 52.83975 
" clip-path="url(#p32fbc3f603)" style="fill: none; stroke: #7a7a7a; stroke-width: 3; stroke-linecap: square"/>
   </g>
   <g id="line2d_99">
    <path d="M 253.265998 93.766924 
L 262.171846 101.793803 
L 274.455776 110.316169 
L 287.430676 115.271033 
L 300.6359 116.757492 
L 313.687575 115.271033 
L 326.125054 110.910753 
L 337.487688 104.271235 
L 347.314832 95.550675 
L 355.145837 84.947267 
" clip-path="url(#p32fbc3f603)" style="fill: none; stroke: #7a7a7a; stroke-width: 3; stroke-linecap: square"/>
   </g>
   <g id="line2d_100">
    <path d="M 227.469746 136.180557 
L 236.145271 144.80202 
L 247.738229 154.018067 
L 260.329257 161.053973 
L 273.764805 165.909739 
L 287.661 168.684463 
L 301.864293 169.378144 
L 316.067586 167.990782 
L 330.040556 164.621475 
L 343.629653 159.072028 
L 356.451004 151.540635 
L 368.274286 142.027297 
L 378.94595 130.532013 
L 388.158897 117.054784 
" clip-path="url(#p32fbc3f603)" style="fill: none; stroke: #7a7a7a; stroke-width: 3; stroke-linecap: square"/>
   </g>
   <g id="line2d_101">
    <path d="M 267.853164 228.539216 
L 273.995128 215.260182 
L 277.987405 200.098299 
L 280.060319 183.846346 
L 280.213868 166.999809 
L 278.371278 150.054176 
L 274.762874 133.703126 
L 269.31188 118.541243 
L 262.171846 104.964916 
L 253.265998 93.766924 
" clip-path="url(#p32fbc3f603)" style="fill: none; stroke: #7a7a7a; stroke-width: 3; stroke-linecap: square"/>
   </g>
   <g id="line2d_102">
    <path d="M 301.096548 260.844928 
L 308.083032 247.764088 
L 313.457251 232.602205 
L 317.295979 215.953863 
L 319.599216 198.017256 
L 320.443736 179.386969 
L 319.82954 160.360292 
L 317.833401 141.432713 
L 314.378546 123.00062 
L 309.618524 105.460403 
L 303.630108 89.20845 
L 296.25975 74.839345 
L 287.737774 62.452186 
L 277.987405 52.83975 
" clip-path="url(#p32fbc3f603)" style="fill: none; stroke: #7a7a7a; stroke-width: 3; stroke-linecap: square"/>
   </g>
   <g id="line2d_103">
    <path d="M 355.145837 84.947267 
L 349.771618 97.730815 
L 346.547086 113.388184 
L 345.395468 130.928402 
L 346.239988 149.1623 
L 348.927097 167.098907 
L 353.380022 183.648151 
L 359.598761 197.819062 
L 367.276217 208.323373 
L 370.577523 211.593583 
" clip-path="url(#p32fbc3f603)" style="fill: none; stroke: #7a7a7a; stroke-width: 3; stroke-linecap: square"/>
   </g>
   <g id="line2d_104">
    <path d="M 321.211482 52.046972 
L 314.224997 66.515174 
L 309.081102 82.66803 
L 305.472697 100.10915 
L 303.553333 118.442145 
L 303.246235 137.17153 
L 304.397854 156.099109 
L 307.084963 174.729397 
L 311.230789 192.666003 
L 316.835332 209.611637 
L 323.745042 225.169909 
L 331.95992 238.94443 
L 341.479965 250.439714 
L 344.781271 253.709924 
" clip-path="url(#p32fbc3f603)" style="fill: none; stroke: #7a7a7a; stroke-width: 3; stroke-linecap: square"/>
   </g>
   <g id="line2d_105">
    <path d="M 132.422843 454.976487 
L 214.110973 320.501486 
L 267.853164 228.539216 
" clip-path="url(#p32fbc3f603)" style="fill: none; stroke: #7a7a7a; stroke-width: 3; stroke-linecap: square"/>
   </g>
   <g id="line2d_106">
    <path d="M 185.013415 454.976487 
L 275.914492 304.74502 
L 301.096548 260.844928 
" clip-path="url(#p32fbc3f603)" style="fill: none; stroke: #7a7a7a; stroke-width: 3; stroke-linecap: square"/>
   </g>
   <g id="line2d_107">
    <path d="M 267.853164 228.539216 
L 355.145837 84.947267 
" clip-path="url(#p32fbc3f603)" style="fill: none; stroke: #7a7a7a; stroke-width: 3; stroke-linecap: square"/>
   </g>
   <g id="line2d_108">
    <path d="M 301.096548 260.844928 
L 388.158897 117.054784 
" clip-path="url(#p32fbc3f603)" style="fill: none; stroke: #7a7a7a; stroke-width: 3; stroke-linecap: square"/>
   </g>
   <g id="line2d_109">
    <path d="M 355.145837 84.947267 
L 267.853164 228.539216 
" clip-path="url(#p32fbc3f603)" style="fill: none; stroke: #7a7a7a; stroke-width: 3; stroke-linecap: square"/>
   </g>
   <g id="line2d_110">
    <path d="M 321.211482 52.046972 
L 234.225907 195.837116 
" clip-path="url(#p32fbc3f603)" style="fill: none; stroke: #7a7a7a; stroke-width: 3; stroke-linecap: square"/>
   </g>
   <g id="line2d_111">
    <path d="M 968.754443 760.358671 
L 574.734232 358.376 
" clip-path="url(#p32fbc3f603)" style="fill: none; stroke-dasharray: 32,8,5,8; stroke-dashoffset: 0; stroke: #1e90ff; stroke-width: 5"/>
   </g>
   <g id="line2d_112">
    <path d="M 1324.838162 1142.708179 
L 992.612943 801.896784 
" clip-path="url(#p32fbc3f603)" style="fill: none; stroke-dasharray: 32,8,5,8; stroke-dashoffset: 0; stroke: #1e90ff; stroke-width: 5"/>
   </g>
   <g id="line2d_113">
    <path d="M 1247.865857 993.52033 
L 764.836548 575.32548 
" clip-path="url(#p32fbc3f603)" style="fill: none; stroke-dasharray: 32,8,5,8; stroke-dashoffset: 0; stroke: #1e90ff; stroke-width: 5"/>
   </g>
   <g id="line2d_114">
    <path d="M 187.169382 81.624605 
L 153.549117 49.548637 
" clip-path="url(#p32fbc3f603)" style="fill: none; stroke-dasharray: 32,8,5,8; stroke-dashoffset: 0; stroke: #1e90ff; stroke-width: 5"/>
   </g>
   <g id="line2d_115">
    <path d="M 748.838256 529.338152 
L 771.983555 546.251947 
" clip-path="url(#p32fbc3f603)" style="fill: none; stroke-dasharray: 32,8,5,8; stroke-dashoffset: 0; stroke: #1e90ff; stroke-width: 5"/>
   </g>
   <g id="line2d_116">
    <path d="M 552.736522 450.07001 
L 566.237673 476.883855 
" clip-path="url(#p32fbc3f603)" style="fill: none; stroke-dasharray: 32,8,5,8; stroke-dashoffset: 0; stroke: #1e90ff; stroke-width: 5"/>
   </g>
   <g id="line2d_117">
    <path d="M 869.845344 675.320339 
L 393.228754 200.66714 
" clip-path="url(#p32fbc3f603)" style="fill: none; stroke-dasharray: 32,8,5,8; stroke-dashoffset: 0; stroke: #1e90ff; stroke-width: 5"/>
   </g>
   <g id="line2d_118">
    <path d="M 968.754443 760.358671 
" clip-path="url(#p32fbc3f603)" style="fill: none; stroke: #0000ff; stroke-width: 1.5; stroke-linecap: square"/>
    <defs>
     <path id="mcee4307d98" d="M 0 10 
C 2.652031 10 5.195799 8.946337 7.071068 7.071068 
C 8.946337 5.195799 10 2.652031 10 0 
C 10 -2.652031 8.946337 -5.195799 7.071068 -7.071068 
C 5.195799 -8.946337 2.652031 -10 0 -10 
C -2.652031 -10 -5.195799 -8.946337 -7.071068 -7.071068 
C -8.946337 -5.195799 -10 -2.652031 -10 0 
C -10 2.652031 -8.946337 5.195799 -7.071068 7.071068 
C -5.195799 8.946337 -2.652031 10 0 10 
z
" style="stroke: #0000ff"/>
    </defs>
    <g clip-path="url(#p32fbc3f603)">
     <use xlink:href="#mcee4307d98" x="968.754443" y="760.358671" style="fill: #0000ff; stroke: #0000ff"/>
    </g>
   </g>
   <g id="line2d_119">
    <path d="M 1324.838162 1142.708179 
" clip-path="url(#p32fbc3f603)" style="fill: none; stroke: #0000ff; stroke-width: 1.5; stroke-linecap: square"/>
    <g clip-path="url(#p32fbc3f603)">
     <use xlink:href="#mcee4307d98" x="1324.838162" y="1142.708179" style="fill: #0000ff; stroke: #0000ff"/>
    </g>
   </g>
   <g id="line2d_120">
    <path d="M 1247.865857 993.52033 
" clip-path="url(#p32fbc3f603)" style="fill: none; stroke: #0000ff; stroke-width: 1.5; stroke-linecap: square"/>
    <g clip-path="url(#p32fbc3f603)">
     <use xlink:href="#mcee4307d98" x="1247.865857" y="993.52033" style="fill: #0000ff; stroke: #0000ff"/>
    </g>
   </g>
   <g id="line2d_121">
    <path d="M 187.169382 81.624605 
" clip-path="url(#p32fbc3f603)" style="fill: none; stroke: #0000ff; stroke-width: 1.5; stroke-linecap: square"/>
    <g clip-path="url(#p32fbc3f603)">
     <use xlink:href="#mcee4307d98" x="187.169382" y="81.624605" style="fill: #0000ff; stroke: #0000ff"/>
    </g>
   </g>
   <g id="line2d_122">
    <path d="M 748.838256 529.338152 
" clip-path="url(#p32fbc3f603)" style="fill: none; stroke: #0000ff; stroke-width: 1.5; stroke-linecap: square"/>
    <g clip-path="url(#p32fbc3f603)">
     <use xlink:href="#mcee4307d98" x="748.838256" y="529.338152" style="fill: #0000ff; stroke: #0000ff"/>
    </g>
   </g>
   <g id="line2d_123">
    <path d="M 552.736522 450.07001 
" clip-path="url(#p32fbc3f603)" style="fill: none; stroke: #0000ff; stroke-width: 1.5; stroke-linecap: square"/>
    <g clip-path="url(#p32fbc3f603)">
     <use xlink:href="#mcee4307d98" x="552.736522" y="450.07001" style="fill: #0000ff; stroke: #0000ff"/>
    </g>
   </g>
   <g id="line2d_124">
    <path d="M 869.845344 675.320339 
" clip-path="url(#p32fbc3f603)" style="fill: none; stroke: #0000ff; stroke-width: 1.5; stroke-linecap: square"/>
    <g clip-path="url(#p32fbc3f603)">
     <use xlink:href="#mcee4307d98" x="869.845344" y="675.320339" style="fill: #0000ff; stroke: #0000ff"/>
    </g>
   </g>
   <g id="line2d_125">
    <path d="M 574.734232 358.376 
" clip-path="url(#p32fbc3f603)" style="fill: none; stroke: #ff0000; stroke-width: 1.5; stroke-linecap: square"/>
    <defs>
     <path id="m93a39c4d6f" d="M 0 -10 
L -2.24514 -3.09017 
L -9.510565 -3.09017 
L -3.632713 1.18034 
L -5.877853 8.09017 
L -0 3.81966 
L 5.877853 8.09017 
L 3.632713 1.18034 
L 9.510565 -3.09017 
L 2.24514 -3.09017 
z
" style="stroke: #ff0000; stroke-linejoin: bevel"/>
    </defs>
    <g clip-path="url(#p32fbc3f603)">
     <use xlink:href="#m93a39c4d6f" x="574.734232" y="358.376" style="fill: #ff0000; stroke: #ff0000; stroke-linejoin: bevel"/>
    </g>
   </g>
   <g id="line2d_126">
    <path d="M 992.612943 801.896784 
" clip-path="url(#p32fbc3f603)" style="fill: none; stroke: #ff0000; stroke-width: 1.5; stroke-linecap: square"/>
    <g clip-path="url(#p32fbc3f603)">
     <use xlink:href="#m93a39c4d6f" x="992.612943" y="801.896784" style="fill: #ff0000; stroke: #ff0000; stroke-linejoin: bevel"/>
    </g>
   </g>
   <g id="line2d_127">
    <path d="M 764.836548 575.32548 
" clip-path="url(#p32fbc3f603)" style="fill: none; stroke: #ff0000; stroke-width: 1.5; stroke-linecap: square"/>
    <g clip-path="url(#p32fbc3f603)">
     <use xlink:href="#m93a39c4d6f" x="764.836548" y="575.32548" style="fill: #ff0000; stroke: #ff0000; stroke-linejoin: bevel"/>
    </g>
   </g>
   <g id="line2d_128">
    <path d="M 153.549117 49.548637 
" clip-path="url(#p32fbc3f603)" style="fill: none; stroke: #ff0000; stroke-width: 1.5; stroke-linecap: square"/>
    <g clip-path="url(#p32fbc3f603)">
     <use xlink:href="#m93a39c4d6f" x="153.549117" y="49.548637" style="fill: #ff0000; stroke: #ff0000; stroke-linejoin: bevel"/>
    </g>
   </g>
   <g id="line2d_129">
    <path d="M 771.983555 546.251947 
" clip-path="url(#p32fbc3f603)" style="fill: none; stroke: #ff0000; stroke-width: 1.5; stroke-linecap: square"/>
    <g clip-path="url(#p32fbc3f603)">
     <use xlink:href="#m93a39c4d6f" x="771.983555" y="546.251947" style="fill: #ff0000; stroke: #ff0000; stroke-linejoin: bevel"/>
    </g>
   </g>
   <g id="line2d_130">
    <path d="M 566.237673 476.883855 
" clip-path="url(#p32fbc3f603)" style="fill: none; stroke: #ff0000; stroke-width: 1.5; stroke-linecap: square"/>
    <g clip-path="url(#p32fbc3f603)">
     <use xlink:href="#m93a39c4d6f" x="566.237673" y="476.883855" style="fill: #ff0000; stroke: #ff0000; stroke-linejoin: bevel"/>
    </g>
   </g>
   <g id="line2d_131">
    <path d="M 393.228754 200.66714 
" clip-path="url(#p32fbc3f603)" style="fill: none; stroke: #ff0000; stroke-width: 1.5; stroke-linecap: square"/>
    <g clip-path="url(#p32fbc3f603)">
     <use xlink:href="#m93a39c4d6f" x="393.228754" y="200.66714" style="fill: #ff0000; stroke: #ff0000; stroke-linejoin: bevel"/>
    </g>
   </g>
  </g>
 </g>
 <defs>
  <clipPath id="p32fbc3f603">
   <rect x="0" y="0" width="1440" height="1440"/>
  </clipPath>
 </defs>
</svg>
