<?xml version="1.0" encoding="utf-8" standalone="no"?>
<!DOCTYPE svg PUBLIC "-//W3C//DTD SVG 1.1//EN"
  "http://www.w3.org/Graphics/SVG/1.1/DTD/svg11.dtd">
<svg xmlns:xlink="http://www.w3.org/1999/xlink" width="1440pt" height="1440pt" viewBox="0 0 1440 1440" xmlns="http://www.w3.org/2000/svg" version="1.1">
 <metadata>
  <rdf:RDF xmlns:dc="http://purl.org/dc/elements/1.1/" xmlns:cc="http://creativecommons.org/ns#" xmlns:rdf="http://www.w3.org/1999/02/22-rdf-syntax-ns#">
   <cc:Work>
    <dc:type rdf:resource="http://purl.org/dc/dcmitype/StillImage"/>
    <dc:date>2026-02-27T11:04:23.319088</dc:date>
    <dc:format>image/svg+xml</dc:format>
    <dc:creator>
     <cc:Agent>
      <dc:title>Matplotlib v3.7.3, https://matplotlib.org/</dc:title>
     </cc:Agent>
    </dc:creator>
   </cc:Work>
  </rdf:RDF>
 </metadata>
 <defs>
  <style type="text/css">*{stroke-linejoin: round; stroke-linecap: butt}</style>
 </defs>
 <g id="figure_1">
  <g id="patch_1">
   <path d="M 0 1440 
L 1440 1440 
L 1440 0 
L 0 0 
z
" style="fill: #ffffff"/>
  </g>
  <g id="axes_1">
   <g id="line2d_1">
    <path clip-path="url(#pc79fc4ff39)" style="fill: none; stroke: #7a7a7a; stroke-width: 3; stroke-linecap: square"/>
   </g>
   <g id="line2d_2">
    <path clip-path="url(#pc79fc4ff39)" style="fill: none; stroke: #7a7a7a; stroke-width: 3; stroke-linecap: square"/>
   </g>
   <g id="line2d_3">
    <path clip-path="url(#pc79fc4ff39)" style="fill: none; stroke: #7a7a7a; stroke-width: 3; stroke-linecap: square"/>
   </g>
   <g id="line2d_4">
    <path clip-path="url(#pc79fc4ff39)" style="fill: none; stroke: #7a7a7a; stroke-width: 3; stroke-linecap: square"/>
   </g>
   <g id="line2d_5">
    <path clip-path="url(#pc79fc4ff39)" style="fill: none; stroke: #7a7a7a; stroke-width: 3; stroke-linecap: square"/>
   </g>
   <g id="line2d_6">
    <path clip-path="url(#pc79fc4ff39)" style="fill: none; stroke: #7a7a7a; stroke-width: 3; stroke-linecap: square"/>
   </g>
   <g id="line2d_7">
    <path clip-path="url(#pc79fc4ff39)" style="fill: none; stroke: #7a7a7a; stroke-width: 3; stroke-linecap: square"/>
   </g>
   <g id="line2d_8">
    <path clip-path="url(#pc79fc4ff39)" style="fill: none; stroke: #7a7a7a; stroke-width: 3; stroke-linecap: square"/>
   </g>
   <g id="line2d_9">
    <path d="M 705.921116 867.644196 
L 704.222237 870.919631 
L 627.593848 1020.068914 
" clip-path="url(#pc79fc4ff39)" style="fill: none; stroke: #7a7a7a; stroke-width: 3; stroke-linecap: square"/>
   </g>
   <g id="line2d_10">
    <path d="M 610.694471 867.644196 
L 608.906178 870.802651 
L 557.045658 972.341144 
" clip-path="url(#pc79fc4ff39)" style="fill: none; stroke: #7a7a7a; stroke-width: 3; stroke-linecap: square"/>
   </g>
   <g id="line2d_11">
    <path d="M 1290.067283 1037.264949 
L 1056.516114 828.338973 
L 1055.979626 827.871054 
" clip-path="url(#pc79fc4ff39)" style="fill: none; stroke: #7a7a7a; stroke-width: 3; stroke-linecap: square"/>
   </g>
   <g id="line2d_12">
    <path d="M 1302.764169 1005.095496 
L 1056.516114 785.524355 
L 1055.979626 785.056436 
" clip-path="url(#pc79fc4ff39)" style="fill: none; stroke: #7a7a7a; stroke-width: 3; stroke-linecap: square"/>
   </g>
   <g id="line2d_13">
    <path d="M 1055.979626 827.871054 
L 1056.516114 828.338973 
L 1290.067283 1037.264949 
" clip-path="url(#pc79fc4ff39)" style="fill: none; stroke: #7a7a7a; stroke-width: 3; stroke-linecap: square"/>
   </g>
   <g id="line2d_14">
    <path d="M 1055.979626 875.130905 
L 1056.516114 875.598824 
L 1276.744494 1071.1891 
" clip-path="url(#pc79fc4ff39)" style="fill: none; stroke: #7a7a7a; stroke-width: 3; stroke-linecap: square"/>
   </g>
   <g id="line2d_15">
    <path clip-path="url(#pc79fc4ff39)" style="fill: none; stroke: #7a7a7a; stroke-width: 3; stroke-linecap: square"/>
   </g>
   <g id="line2d_16">
    <path clip-path="url(#pc79fc4ff39)" style="fill: none; stroke: #7a7a7a; stroke-width: 3; stroke-linecap: square"/>
   </g>
   <g id="line2d_17">
    <path d="M 869.549998 619.179037 
L 864.45336 614.265884 
L 746.157726 508.048199 
" clip-path="url(#pc79fc4ff39)" style="fill: none; stroke: #7a7a7a; stroke-width: 3; stroke-linecap: square"/>
   </g>
   <g id="line2d_18">
    <path d="M 878.849125 601.515083 
L 754.920366 490.267265 
" clip-path="url(#pc79fc4ff39)" style="fill: none; stroke: #7a7a7a; stroke-width: 3; stroke-linecap: square"/>
   </g>
   <g id="line2d_19">
    <path clip-path="url(#pc79fc4ff39)" style="fill: none; stroke: #7a7a7a; stroke-width: 3; stroke-linecap: square"/>
   </g>
   <g id="line2d_20">
    <path clip-path="url(#pc79fc4ff39)" style="fill: none; stroke: #7a7a7a; stroke-width: 3; stroke-linecap: square"/>
   </g>
   <g id="line2d_21">
    <path d="M 1055.979626 875.130905 
L 1056.516114 875.598824 
L 1276.744494 1071.1891 
" clip-path="url(#pc79fc4ff39)" style="fill: none; stroke: #7a7a7a; stroke-width: 3; stroke-linecap: square"/>
   </g>
   <g id="line2d_22">
    <path d="M 1055.979626 898.760831 
L 1056.516114 899.22875 
L 1269.859563 1088.853054 
" clip-path="url(#pc79fc4ff39)" style="fill: none; stroke: #7a7a7a; stroke-width: 3; stroke-linecap: square"/>
   </g>
   <g id="line2d_23">
    <path d="M 486.408053 317.955975 
L 219.058131 77.913365 
" clip-path="url(#pc79fc4ff39)" style="fill: none; stroke: #7a7a7a; stroke-width: 3; stroke-linecap: square"/>
   </g>
   <g id="line2d_24">
    <path d="M 501.876794 288.711018 
L 234.437457 48.434448 
" clip-path="url(#pc79fc4ff39)" style="fill: none; stroke: #7a7a7a; stroke-width: 3; stroke-linecap: square"/>
   </g>
   <g id="line2d_25">
    <path clip-path="url(#pc79fc4ff39)" style="fill: none; stroke: #7a7a7a; stroke-width: 3; stroke-linecap: square"/>
   </g>
   <g id="line2d_26">
    <path clip-path="url(#pc79fc4ff39)" style="fill: none; stroke: #7a7a7a; stroke-width: 3; stroke-linecap: square"/>
   </g>
   <g id="line2d_27">
    <path clip-path="url(#pc79fc4ff39)" style="fill: none; stroke: #7a7a7a; stroke-width: 3; stroke-linecap: square"/>
   </g>
   <g id="line2d_28">
    <path clip-path="url(#pc79fc4ff39)" style="fill: none; stroke: #7a7a7a; stroke-width: 3; stroke-linecap: square"/>
   </g>
   <g id="line2d_29">
    <path d="M 591.649142 165.765217 
L 591.649142 164.829378 
L 591.827972 163.074681 
L 591.827972 162.723741 
L 594.599827 128.097712 
L 604.035331 -1 
" clip-path="url(#pc79fc4ff39)" style="fill: none; stroke: #7a7a7a; stroke-width: 3; stroke-linecap: square"/>
   </g>
   <g id="line2d_30">
    <path d="M 668.903434 165.765217 
L 668.992849 164.829378 
L 669.082264 163.074681 
L 669.171678 162.723741 
L 680.301855 -1 
" clip-path="url(#pc79fc4ff39)" style="fill: none; stroke: #7a7a7a; stroke-width: 3; stroke-linecap: square"/>
   </g>
   <g id="line2d_31">
    <path d="M 746.157726 508.048199 
L 663.896212 434.233926 
" clip-path="url(#pc79fc4ff39)" style="fill: none; stroke: #7a7a7a; stroke-width: 3; stroke-linecap: square"/>
   </g>
   <g id="line2d_32">
    <path d="M 754.920366 490.267265 
L 673.01651 416.803932 
" clip-path="url(#pc79fc4ff39)" style="fill: none; stroke: #7a7a7a; stroke-width: 3; stroke-linecap: square"/>
   </g>
   <g id="line2d_33">
    <path d="M 469.687506 348.721671 
L 632.690485 493.89364 
" clip-path="url(#pc79fc4ff39)" style="fill: none; stroke: #7a7a7a; stroke-width: 3; stroke-linecap: square"/>
   </g>
   <g id="line2d_34">
    <path d="M 461.640184 364.864887 
L 624.106675 510.270816 
" clip-path="url(#pc79fc4ff39)" style="fill: none; stroke: #7a7a7a; stroke-width: 3; stroke-linecap: square"/>
   </g>
   <g id="line2d_35">
    <path d="M 837.897198 678.487811 
L 1049.00528 868.930974 
L 1052.671282 872.206409 
L 1055.443137 874.662986 
L 1055.979626 875.130905 
" clip-path="url(#pc79fc4ff39)" style="fill: none; stroke: #7a7a7a; stroke-width: 3; stroke-linecap: square"/>
   </g>
   <g id="line2d_36">
    <path d="M 830.565193 694.864987 
L 1049.00528 892.5609 
L 1052.760697 895.836335 
L 1055.443137 898.175931 
L 1055.979626 898.760831 
" clip-path="url(#pc79fc4ff39)" style="fill: none; stroke: #7a7a7a; stroke-width: 3; stroke-linecap: square"/>
   </g>
   <g id="line2d_37">
    <path d="M 1302.764169 1005.095496 
L 1056.516114 785.524355 
L 1055.979626 785.056436 
" clip-path="url(#pc79fc4ff39)" style="fill: none; stroke: #7a7a7a; stroke-width: 3; stroke-linecap: square"/>
   </g>
   <g id="line2d_38">
    <path d="M 1310.453832 985.442885 
L 1245.002279 927.888808 
L 1056.516114 758.852954 
L 1055.979626 758.385035 
" clip-path="url(#pc79fc4ff39)" style="fill: none; stroke: #7a7a7a; stroke-width: 3; stroke-linecap: square"/>
   </g>
   <g id="line2d_39">
    <path d="M 716.29322 569.11167 
L 837.897198 678.487811 
" clip-path="url(#pc79fc4ff39)" style="fill: none; stroke: #7a7a7a; stroke-width: 3; stroke-linecap: square"/>
   </g>
   <g id="line2d_40">
    <path d="M 708.245898 585.488846 
L 830.565193 694.864987 
" clip-path="url(#pc79fc4ff39)" style="fill: none; stroke: #7a7a7a; stroke-width: 3; stroke-linecap: square"/>
   </g>
   <g id="line2d_41">
    <path d="M 716.29322 569.11167 
L 734.98089 586.073745 
L 750.181387 604.322599 
L 762.162956 623.507291 
L 770.925595 643.159902 
L 776.73755 663.046473 
L 779.688235 682.816065 
L 779.867064 702.117737 
L 777.631697 720.60055 
L 772.892718 737.913565 
L 766.007787 753.588862 
L 760.73232 763.649127 
" clip-path="url(#pc79fc4ff39)" style="fill: none; stroke: #7a7a7a; stroke-width: 3; stroke-linecap: square"/>
   </g>
   <g id="line2d_42">
    <path d="M 708.245898 585.488846 
L 718.886246 596.48495 
L 725.145274 610.054611 
L 726.754738 626.548767 
L 723.35698 646.552317 
L 719.780393 656.378623 
L 718.528587 661.993655 
L 715.041414 671.469021 
L 695.280768 708.668607 
" clip-path="url(#pc79fc4ff39)" style="fill: none; stroke: #7a7a7a; stroke-width: 3; stroke-linecap: square"/>
   </g>
   <g id="line2d_43">
    <path d="M 587.088993 222.266475 
L 591.380898 168.923672 
L 591.649142 165.765217 
" clip-path="url(#pc79fc4ff39)" style="fill: none; stroke: #7a7a7a; stroke-width: 3; stroke-linecap: square"/>
   </g>
   <g id="line2d_44">
    <path d="M 664.075041 235.017276 
L 668.724605 169.040652 
L 668.903434 165.765217 
" clip-path="url(#pc79fc4ff39)" style="fill: none; stroke: #7a7a7a; stroke-width: 3; stroke-linecap: square"/>
   </g>
   <g id="line2d_45">
    <path d="M 853.902427 647.605136 
L 1049.094694 821.788103 
L 1052.671282 824.946558 
L 1055.443137 827.403134 
L 1055.979626 827.871054 
" clip-path="url(#pc79fc4ff39)" style="fill: none; stroke: #7a7a7a; stroke-width: 3; stroke-linecap: square"/>
   </g>
   <g id="line2d_46">
    <path d="M 837.897198 678.487811 
L 1049.00528 868.930974 
L 1052.671282 872.206409 
L 1055.443137 874.662986 
L 1055.979626 875.130905 
" clip-path="url(#pc79fc4ff39)" style="fill: none; stroke: #7a7a7a; stroke-width: 3; stroke-linecap: square"/>
   </g>
   <g id="line2d_47">
    <path d="M 853.902427 647.605136 
L 731.583132 537.878056 
" clip-path="url(#pc79fc4ff39)" style="fill: none; stroke: #7a7a7a; stroke-width: 3; stroke-linecap: square"/>
   </g>
   <g id="line2d_48">
    <path d="M 869.549998 619.179037 
L 864.45336 614.265884 
L 746.157726 508.048199 
" clip-path="url(#pc79fc4ff39)" style="fill: none; stroke: #7a7a7a; stroke-width: 3; stroke-linecap: square"/>
   </g>
   <g id="line2d_49">
    <path d="M 486.408053 317.955975 
L 501.787379 328.60114 
L 517.524365 330.355837 
L 533.171935 324.623826 
L 548.014774 313.042823 
L 561.337563 297.016586 
L 572.514399 278.182833 
L 580.91938 257.945323 
L 581.813527 254.201968 
L 583.244162 250.692573 
L 584.495967 245.77942 
L 584.943041 241.685126 
L 585.926602 237.824792 
L 587.088993 222.266475 
" clip-path="url(#pc79fc4ff39)" style="fill: none; stroke: #7a7a7a; stroke-width: 3; stroke-linecap: square"/>
   </g>
   <g id="line2d_50">
    <path d="M 469.687506 348.721671 
L 485.871565 362.057371 
L 501.966209 372.702536 
L 518.597341 379.838305 
L 535.496717 383.81562 
L 552.396094 384.634478 
L 569.116641 382.411862 
L 585.211285 377.381729 
L 600.590611 369.66106 
L 614.807547 359.249855 
L 627.772677 346.499054 
L 639.128343 331.408656 
L 648.516885 314.095641 
L 655.84889 294.793969 
L 660.766697 273.50364 
L 662.91265 250.458614 
L 664.075041 235.017276 
" clip-path="url(#pc79fc4ff39)" style="fill: none; stroke: #7a7a7a; stroke-width: 3; stroke-linecap: square"/>
   </g>
   <g id="line2d_51">
    <path clip-path="url(#pc79fc4ff39)" style="fill: none; stroke: #7a7a7a; stroke-width: 3; stroke-linecap: square"/>
   </g>
   <g id="line2d_52">
    <path clip-path="url(#pc79fc4ff39)" style="fill: none; stroke: #7a7a7a; stroke-width: 3; stroke-linecap: square"/>
   </g>
   <g id="line2d_53">
    <path d="M 1055.979626 785.056436 
L 1055.443137 784.471537 
L 1052.671282 782.01496 
L 1049.094694 778.856505 
L 869.549998 619.179037 
" clip-path="url(#pc79fc4ff39)" style="fill: none; stroke: #7a7a7a; stroke-width: 3; stroke-linecap: square"/>
   </g>
   <g id="line2d_54">
    <path d="M 1055.979626 758.385035 
L 1055.443137 757.917115 
L 1052.581867 755.460539 
L 1049.094694 752.185104 
L 878.849125 601.515083 
" clip-path="url(#pc79fc4ff39)" style="fill: none; stroke: #7a7a7a; stroke-width: 3; stroke-linecap: square"/>
   </g>
   <g id="line2d_55">
    <path d="M 130.218091 -1 
L 219.058131 77.913365 
" clip-path="url(#pc79fc4ff39)" style="fill: none; stroke: #7a7a7a; stroke-width: 3; stroke-linecap: square"/>
   </g>
   <g id="line2d_56">
    <path d="M 81.842168 -1 
L 203.678804 107.509262 
" clip-path="url(#pc79fc4ff39)" style="fill: none; stroke: #7a7a7a; stroke-width: 3; stroke-linecap: square"/>
   </g>
   <g id="line2d_57">
    <path d="M 81.842168 -1 
L 203.678804 107.509262 
" clip-path="url(#pc79fc4ff39)" style="fill: none; stroke: #7a7a7a; stroke-width: 3; stroke-linecap: square"/>
   </g>
   <g id="line2d_58">
    <path d="M 51.077948 -1 
L 194.290262 125.407176 
" clip-path="url(#pc79fc4ff39)" style="fill: none; stroke: #7a7a7a; stroke-width: 3; stroke-linecap: square"/>
   </g>
   <g id="line2d_59">
    <path d="M 760.73232 763.649127 
L 707.441165 864.83668 
L 707.172921 865.187619 
L 706.278775 867.059297 
L 706.099945 867.410236 
L 705.921116 867.644196 
" clip-path="url(#pc79fc4ff39)" style="fill: none; stroke: #7a7a7a; stroke-width: 3; stroke-linecap: square"/>
   </g>
   <g id="line2d_60">
    <path d="M 695.280768 708.668607 
L 624.196089 843.546351 
L 612.214521 864.83668 
L 612.035692 865.187619 
L 610.962715 867.059297 
L 610.694471 867.644196 
" clip-path="url(#pc79fc4ff39)" style="fill: none; stroke: #7a7a7a; stroke-width: 3; stroke-linecap: square"/>
   </g>
   <g id="line2d_61">
    <path d="M 663.896212 434.233926 
L 501.876794 288.711018 
" clip-path="url(#pc79fc4ff39)" style="fill: none; stroke: #7a7a7a; stroke-width: 3; stroke-linecap: square"/>
   </g>
   <g id="line2d_62">
    <path d="M 673.01651 416.803932 
L 511.086507 271.398003 
" clip-path="url(#pc79fc4ff39)" style="fill: none; stroke: #7a7a7a; stroke-width: 3; stroke-linecap: square"/>
   </g>
   <g id="line2d_63">
    <path d="M 663.896212 434.233926 
L 641.095466 410.487021 
L 623.033698 390.60045 
L 609.174422 373.755354 
L 598.891732 359.015896 
L 591.649142 345.446235 
L 586.999579 332.227515 
L 584.227723 318.423895 
L 582.886503 303.099537 
L 582.350015 285.552563 
L 587.088993 222.266475 
" clip-path="url(#pc79fc4ff39)" style="fill: none; stroke: #7a7a7a; stroke-width: 3; stroke-linecap: square"/>
   </g>
   <g id="line2d_64">
    <path d="M 673.01651 416.803932 
L 665.77392 407.328565 
L 660.856112 397.38528 
L 657.905427 384.283539 
L 656.743036 365.098847 
L 657.279525 337.374627 
L 657.816013 328.133221 
L 657.816013 325.091745 
L 658.441916 316.669197 
L 659.336062 298.303364 
L 664.075041 235.017276 
" clip-path="url(#pc79fc4ff39)" style="fill: none; stroke: #7a7a7a; stroke-width: 3; stroke-linecap: square"/>
   </g>
   <g id="line2d_65">
    <path d="M 648.6063 463.478884 
L 627.05736 440.784797 
L 610.426227 422.068024 
L 598.176415 406.392727 
L 589.682019 392.472127 
L 584.138308 379.253406 
L 580.91938 365.800726 
L 579.39933 350.710328 
L 578.862842 333.163353 
L 587.088993 222.266475 
" clip-path="url(#pc79fc4ff39)" style="fill: none; stroke: #7a7a7a; stroke-width: 3; stroke-linecap: square"/>
   </g>
   <g id="line2d_66">
    <path d="M 663.896212 434.233926 
L 657.279525 424.75856 
L 653.971181 411.42286 
L 653.613522 387.558974 
L 655.84889 345.914155 
L 664.075041 235.017276 
" clip-path="url(#pc79fc4ff39)" style="fill: none; stroke: #7a7a7a; stroke-width: 3; stroke-linecap: square"/>
   </g>
   <g id="line2d_67">
    <path d="M -1 182.603655 
L 46.130121 93.588662 
" clip-path="url(#pc79fc4ff39)" style="fill: none; stroke: #7a7a7a; stroke-width: 3; stroke-linecap: square"/>
   </g>
   <g id="line2d_68">
    <path d="M -1 249.726891 
L 69.288526 116.867648 
" clip-path="url(#pc79fc4ff39)" style="fill: none; stroke: #7a7a7a; stroke-width: 3; stroke-linecap: square"/>
   </g>
   <g id="line2d_69">
    <path d="M 69.288526 116.867648 
L 78.587653 102.479129 
L 90.211563 90.898126 
L 103.802596 82.358598 
L 118.824264 76.743566 
L 134.740079 74.52095 
L 151.013552 75.807728 
L 167.197611 80.603901 
L 182.755767 89.260408 
L 203.678804 107.509262 
" clip-path="url(#pc79fc4ff39)" style="fill: none; stroke: #7a7a7a; stroke-width: 3; stroke-linecap: square"/>
   </g>
   <g id="line2d_70">
    <path d="M 107.379184 154.769113 
L 112.744065 144.825827 
L 119.271337 133.127844 
L 120.165484 131.373147 
L 121.327875 128.91657 
L 126.335098 123.184559 
L 129.822271 121.195902 
L 133.667102 118.622345 
L 148.599355 110.784697 
L 163.442194 108.91302 
L 176.854397 112.188455 
L 187.941819 119.675164 
L 194.290262 125.407176 
" clip-path="url(#pc79fc4ff39)" style="fill: none; stroke: #7a7a7a; stroke-width: 3; stroke-linecap: square"/>
   </g>
   <g id="line2d_71">
    <path d="M 219.058131 77.913365 
L 130.218091 -1 
" clip-path="url(#pc79fc4ff39)" style="fill: none; stroke: #7a7a7a; stroke-width: 3; stroke-linecap: square"/>
   </g>
   <g id="line2d_72">
    <path d="M 234.437457 48.434448 
L 179.000678 -1 
" clip-path="url(#pc79fc4ff39)" style="fill: none; stroke: #7a7a7a; stroke-width: 3; stroke-linecap: square"/>
   </g>
   <g id="line2d_73">
    <path d="M 731.583132 537.878056 
L 853.902427 647.605136 
" clip-path="url(#pc79fc4ff39)" style="fill: none; stroke: #7a7a7a; stroke-width: 3; stroke-linecap: square"/>
   </g>
   <g id="line2d_74">
    <path d="M 716.29322 569.11167 
L 837.897198 678.487811 
" clip-path="url(#pc79fc4ff39)" style="fill: none; stroke: #7a7a7a; stroke-width: 3; stroke-linecap: square"/>
   </g>
   <g id="line2d_75">
    <path clip-path="url(#pc79fc4ff39)" style="fill: none; stroke: #7a7a7a; stroke-width: 3; stroke-linecap: square"/>
   </g>
   <g id="line2d_76">
    <path clip-path="url(#pc79fc4ff39)" style="fill: none; stroke: #7a7a7a; stroke-width: 3; stroke-linecap: square"/>
   </g>
   <g id="line2d_77">
    <path d="M 648.6063 463.478884 
L 486.408053 317.955975 
" clip-path="url(#pc79fc4ff39)" style="fill: none; stroke: #7a7a7a; stroke-width: 3; stroke-linecap: square"/>
   </g>
   <g id="line2d_78">
    <path d="M 663.896212 434.233926 
L 501.876794 288.711018 
" clip-path="url(#pc79fc4ff39)" style="fill: none; stroke: #7a7a7a; stroke-width: 3; stroke-linecap: square"/>
   </g>
   <g id="line2d_79">
    <path d="M 501.876794 288.711018 
L 234.437457 48.434448 
" clip-path="url(#pc79fc4ff39)" style="fill: none; stroke: #7a7a7a; stroke-width: 3; stroke-linecap: square"/>
   </g>
   <g id="line2d_80">
    <path d="M 511.086507 271.398003 
L 243.557756 30.887473 
" clip-path="url(#pc79fc4ff39)" style="fill: none; stroke: #7a7a7a; stroke-width: 3; stroke-linecap: square"/>
   </g>
   <g id="line2d_81">
    <path d="M 234.437457 48.434448 
L 179.000678 -1 
" clip-path="url(#pc79fc4ff39)" style="fill: none; stroke: #7a7a7a; stroke-width: 3; stroke-linecap: square"/>
   </g>
   <g id="line2d_82">
    <path d="M 243.557756 30.887473 
L 207.681497 -1 
" clip-path="url(#pc79fc4ff39)" style="fill: none; stroke: #7a7a7a; stroke-width: 3; stroke-linecap: square"/>
   </g>
   <g id="line2d_83">
    <path clip-path="url(#pc79fc4ff39)" style="fill: none; stroke: #7a7a7a; stroke-width: 3; stroke-linecap: square"/>
   </g>
   <g id="line2d_84">
    <path clip-path="url(#pc79fc4ff39)" style="fill: none; stroke: #7a7a7a; stroke-width: 3; stroke-linecap: square"/>
   </g>
   <g id="line2d_85">
    <path d="M -1 249.726891 
L 69.288526 116.867648 
" clip-path="url(#pc79fc4ff39)" style="fill: none; stroke: #7a7a7a; stroke-width: 3; stroke-linecap: square"/>
   </g>
   <g id="line2d_86">
    <path d="M -1 365.000029 
L 107.379184 154.769113 
" clip-path="url(#pc79fc4ff39)" style="fill: none; stroke: #7a7a7a; stroke-width: 3; stroke-linecap: square"/>
   </g>
   <g id="line2d_87">
    <path d="M 853.902427 647.605136 
L 842.010273 642.575003 
L 830.11812 645.733459 
L 817.421234 658.71822 
L 803.293713 683.050024 
L 760.73232 763.649127 
" clip-path="url(#pc79fc4ff39)" style="fill: none; stroke: #7a7a7a; stroke-width: 3; stroke-linecap: square"/>
   </g>
   <g id="line2d_88">
    <path d="M 869.549998 619.179037 
L 855.690721 607.130115 
L 840.400809 598.473607 
L 824.037921 593.326495 
L 807.317374 591.571797 
L 790.865071 592.858576 
L 775.038671 597.303809 
L 760.553491 604.673538 
L 748.035435 614.967763 
L 737.84216 627.952525 
L 695.280768 708.668607 
" clip-path="url(#pc79fc4ff39)" style="fill: none; stroke: #7a7a7a; stroke-width: 3; stroke-linecap: square"/>
   </g>
   <g id="line2d_89">
    <path d="M 731.583132 537.878056 
L 748.035435 552.500534 
L 761.626467 569.46261 
L 772.445645 588.179382 
L 780.582382 608.416893 
L 786.126092 629.473262 
L 789.166192 650.880571 
L 789.792095 672.28788 
L 788.003801 693.11029 
L 784.069554 712.879881 
L 777.810526 731.245714 
L 760.73232 763.649127 
" clip-path="url(#pc79fc4ff39)" style="fill: none; stroke: #7a7a7a; stroke-width: 3; stroke-linecap: square"/>
   </g>
   <g id="line2d_90">
    <path d="M 716.29322 569.11167 
L 727.380641 581.277572 
L 733.907914 595.549112 
L 735.606793 612.160248 
L 732.656108 631.11098 
L 724.966445 652.401309 
L 715.041414 671.469021 
L 695.280768 708.668607 
" clip-path="url(#pc79fc4ff39)" style="fill: none; stroke: #7a7a7a; stroke-width: 3; stroke-linecap: square"/>
   </g>
   <g id="line2d_91">
    <path d="M 731.583132 537.878056 
L 648.6063 463.478884 
" clip-path="url(#pc79fc4ff39)" style="fill: none; stroke: #7a7a7a; stroke-width: 3; stroke-linecap: square"/>
   </g>
   <g id="line2d_92">
    <path d="M 746.157726 508.048199 
L 663.896212 434.233926 
" clip-path="url(#pc79fc4ff39)" style="fill: none; stroke: #7a7a7a; stroke-width: 3; stroke-linecap: square"/>
   </g>
   <g id="line2d_93">
    <path d="M 648.6063 463.478884 
L 731.583132 537.878056 
" clip-path="url(#pc79fc4ff39)" style="fill: none; stroke: #7a7a7a; stroke-width: 3; stroke-linecap: square"/>
   </g>
   <g id="line2d_94">
    <path d="M 632.690485 493.89364 
L 716.29322 569.11167 
" clip-path="url(#pc79fc4ff39)" style="fill: none; stroke: #7a7a7a; stroke-width: 3; stroke-linecap: square"/>
   </g>
   <g id="line2d_95">
    <path d="M 46.130121 93.588662 
L 68.215549 50.072165 
L 72.060381 28.781836 
L 74.206334 5.61983 
L 74.079835 -1 
" clip-path="url(#pc79fc4ff39)" style="fill: none; stroke: #7a7a7a; stroke-width: 3; stroke-linecap: square"/>
   </g>
   <g id="line2d_96">
    <path d="M 69.288526 116.867648 
L 91.910442 73.819071 
L 99.153032 55.804177 
L 104.964987 36.502505 
L 108.720404 16.148015 
L 109.979293 -1 
" clip-path="url(#pc79fc4ff39)" style="fill: none; stroke: #7a7a7a; stroke-width: 3; stroke-linecap: square"/>
   </g>
   <g id="line2d_97">
    <path d="M 203.678804 107.509262 
L 469.687506 348.721671 
" clip-path="url(#pc79fc4ff39)" style="fill: none; stroke: #7a7a7a; stroke-width: 3; stroke-linecap: square"/>
   </g>
   <g id="line2d_98">
    <path d="M 194.290262 125.407176 
L 461.640184 364.864887 
" clip-path="url(#pc79fc4ff39)" style="fill: none; stroke: #7a7a7a; stroke-width: 3; stroke-linecap: square"/>
   </g>
   <g id="line2d_99">
    <path d="M 632.690485 493.89364 
L 716.29322 569.11167 
" clip-path="url(#pc79fc4ff39)" style="fill: none; stroke: #7a7a7a; stroke-width: 3; stroke-linecap: square"/>
   </g>
   <g id="line2d_100">
    <path d="M 624.106675 510.270816 
L 708.245898 585.488846 
" clip-path="url(#pc79fc4ff39)" style="fill: none; stroke: #7a7a7a; stroke-width: 3; stroke-linecap: square"/>
   </g>
   <g id="line2d_101">
    <path d="M 1055.979626 827.871054 
L 1055.443137 827.403134 
L 1052.671282 824.946558 
L 1049.094694 821.788103 
L 853.902427 647.605136 
" clip-path="url(#pc79fc4ff39)" style="fill: none; stroke: #7a7a7a; stroke-width: 3; stroke-linecap: square"/>
   </g>
   <g id="line2d_102">
    <path d="M 1055.979626 785.056436 
L 1055.443137 784.471537 
L 1052.671282 782.01496 
L 1049.094694 778.856505 
L 869.549998 619.179037 
" clip-path="url(#pc79fc4ff39)" style="fill: none; stroke: #7a7a7a; stroke-width: 3; stroke-linecap: square"/>
   </g>
   <g id="line2d_103">
    <path d="M 69.288526 116.867648 
L 77.335848 101.42631 
L 86.545561 85.166114 
L 99.153032 71.830414 
L 114.442944 61.653168 
L 131.52115 54.868338 
L 149.761746 51.592903 
L 168.449417 52.060822 
L 186.690013 56.389076 
L 203.768219 65.045583 
L 219.058131 77.913365 
" clip-path="url(#pc79fc4ff39)" style="fill: none; stroke: #7a7a7a; stroke-width: 3; stroke-linecap: square"/>
   </g>
   <g id="line2d_104">
    <path d="M 107.379184 154.769113 
L 115.247676 139.912674 
L 117.125385 135.701401 
L 120.880802 130.320328 
L 128.48105 120.026103 
L 143.323889 106.339463 
L 159.418533 98.618795 
L 175.513177 96.513158 
L 190.713674 99.554633 
L 203.678804 107.509262 
" clip-path="url(#pc79fc4ff39)" style="fill: none; stroke: #7a7a7a; stroke-width: 3; stroke-linecap: square"/>
   </g>
   <g id="line2d_105">
    <path clip-path="url(#pc79fc4ff39)" style="fill: none; stroke: #7a7a7a; stroke-width: 3; stroke-linecap: square"/>
   </g>
   <g id="line2d_106">
    <path clip-path="url(#pc79fc4ff39)" style="fill: none; stroke: #7a7a7a; stroke-width: 3; stroke-linecap: square"/>
   </g>
   <g id="line2d_107">
    <path d="M 219.058131 77.913365 
L 486.408053 317.955975 
" clip-path="url(#pc79fc4ff39)" style="fill: none; stroke: #7a7a7a; stroke-width: 3; stroke-linecap: square"/>
   </g>
   <g id="line2d_108">
    <path d="M 203.678804 107.509262 
L 469.687506 348.721671 
" clip-path="url(#pc79fc4ff39)" style="fill: none; stroke: #7a7a7a; stroke-width: 3; stroke-linecap: square"/>
   </g>
   <g id="line2d_109">
    <path clip-path="url(#pc79fc4ff39)" style="fill: none; stroke: #7a7a7a; stroke-width: 3; stroke-linecap: square"/>
   </g>
   <g id="line2d_110">
    <path clip-path="url(#pc79fc4ff39)" style="fill: none; stroke: #7a7a7a; stroke-width: 3; stroke-linecap: square"/>
   </g>
   <g id="line2d_111">
    <path d="M 486.408053 317.955975 
L 648.6063 463.478884 
" clip-path="url(#pc79fc4ff39)" style="fill: none; stroke: #7a7a7a; stroke-width: 3; stroke-linecap: square"/>
   </g>
   <g id="line2d_112">
    <path d="M 469.687506 348.721671 
L 632.690485 493.89364 
" clip-path="url(#pc79fc4ff39)" style="fill: none; stroke: #7a7a7a; stroke-width: 3; stroke-linecap: square"/>
   </g>
   <g id="line2d_113">
    <path clip-path="url(#pc79fc4ff39)" style="fill: none; stroke: #7a7a7a; stroke-width: 3; stroke-linecap: square"/>
   </g>
   <g id="line2d_114">
    <path clip-path="url(#pc79fc4ff39)" style="fill: none; stroke: #7a7a7a; stroke-width: 3; stroke-linecap: square"/>
   </g>
   <g id="line2d_115">
    <path d="M 46.130121 93.588662 
L 80.823021 26.20828 
L 86.90322 7.842447 
L 88.592922 -1 
" clip-path="url(#pc79fc4ff39)" style="fill: none; stroke: #7a7a7a; stroke-width: 3; stroke-linecap: square"/>
   </g>
   <g id="line2d_116">
    <path d="M 69.288526 116.867648 
L 104.517913 49.838206 
L 111.581674 28.898816 
L 115.337091 6.204729 
L 115.472731 -1 
" clip-path="url(#pc79fc4ff39)" style="fill: none; stroke: #7a7a7a; stroke-width: 3; stroke-linecap: square"/>
   </g>
   <g id="line2d_117">
    <path d="M 609.072084 402.39662 
L 382.378777 195.685607 
" clip-path="url(#pc79fc4ff39)" style="fill: none; stroke-dasharray: 32,8,5,8; stroke-dashoffset: 0; stroke: #1e90ff; stroke-width: 5"/>
   </g>
   <g id="line2d_118">
    <path d="M 328.28027 182.79812 
L 178.829379 58.489915 
" clip-path="url(#pc79fc4ff39)" style="fill: none; stroke-dasharray: 32,8,5,8; stroke-dashoffset: 0; stroke: #1e90ff; stroke-width: 5"/>
   </g>
   <g id="line2d_119">
    <path d="M 667.715546 423.817695 
L 662.777655 420.758969 
" clip-path="url(#pc79fc4ff39)" style="fill: none; stroke-dasharray: 32,8,5,8; stroke-dashoffset: 0; stroke: #1e90ff; stroke-width: 5"/>
   </g>
   <g id="line2d_120">
    <path d="M 1009.486607 719.782948 
L 999.79856 711.41215 
" clip-path="url(#pc79fc4ff39)" style="fill: none; stroke-dasharray: 32,8,5,8; stroke-dashoffset: 0; stroke: #1e90ff; stroke-width: 5"/>
   </g>
   <g id="line2d_121">
    <path d="M 1082.629394 782.145535 
L 1084.353945 781.779973 
" clip-path="url(#pc79fc4ff39)" style="fill: none; stroke-dasharray: 32,8,5,8; stroke-dashoffset: 0; stroke: #1e90ff; stroke-width: 5"/>
   </g>
   <g id="line2d_122">
    <path d="M 944.451391 822.971381 
L 944.477587 823.675373 
" clip-path="url(#pc79fc4ff39)" style="fill: none; stroke-dasharray: 32,8,5,8; stroke-dashoffset: 0; stroke: #1e90ff; stroke-width: 5"/>
   </g>
   <g id="line2d_123">
    <path d="M 1261.223012 1088.406497 
L 1262.118032 1089.060511 
" clip-path="url(#pc79fc4ff39)" style="fill: none; stroke-dasharray: 32,8,5,8; stroke-dashoffset: 0; stroke: #1e90ff; stroke-width: 5"/>
   </g>
   <g id="line2d_124">
    <path d="M 817.830061 543.544952 
L 812.765557 540.289165 
" clip-path="url(#pc79fc4ff39)" style="fill: none; stroke-dasharray: 32,8,5,8; stroke-dashoffset: 0; stroke: #1e90ff; stroke-width: 5"/>
   </g>
   <g id="line2d_125">
    <path d="M 1305.877966 1034.671744 
L 1296.015281 1042.445648 
" clip-path="url(#pc79fc4ff39)" style="fill: none; stroke-dasharray: 32,8,5,8; stroke-dashoffset: 0; stroke: #1e90ff; stroke-width: 5"/>
   </g>
   <g id="line2d_126">
    <path d="M 562.28218 345.093354 
L 364.172758 161.115726 
" clip-path="url(#pc79fc4ff39)" style="fill: none; stroke-dasharray: 32,8,5,8; stroke-dashoffset: 0; stroke: #1e90ff; stroke-width: 5"/>
   </g>
   <g id="line2d_127">
    <path d="M 609.072084 402.39662 
" clip-path="url(#pc79fc4ff39)" style="fill: none; stroke: #0000ff; stroke-width: 1.5; stroke-linecap: square"/>
    <defs>
     <path id="m026636aac0" d="M 0 10 
C 2.652031 10 5.195799 8.946337 7.071068 7.071068 
C 8.946337 5.195799 10 2.652031 10 0 
C 10 -2.652031 8.946337 -5.195799 7.071068 -7.071068 
C 5.195799 -8.946337 2.652031 -10 0 -10 
C -2.652031 -10 -5.195799 -8.946337 -7.071068 -7.071068 
C -8.946337 -5.195799 -10 -2.652031 -10 0 
C -10 2.652031 -8.946337 5.195799 -7.071068 7.071068 
C -5.195799 8.946337 -2.652031 10 0 10 
z
" style="stroke: #0000ff"/>
    </defs>
    <g clip-path="url(#pc79fc4ff39)">
     <use xlink:href="#m026636aac0" x="609.072084" y="402.39662" style="fill: #0000ff; stroke: #0000ff"/>
    </g>
   </g>
   <g id="line2d_128">
    <path d="M 328.28027 182.79812 
" clip-path="url(#pc79fc4ff39)" style="fill: none; stroke: #0000ff; stroke-width: 1.5; stroke-linecap: square"/>
    <g clip-path="url(#pc79fc4ff39)">
     <use xlink:href="#m026636aac0" x="328.28027" y="182.79812" style="fill: #0000ff; stroke: #0000ff"/>
    </g>
   </g>
   <g id="line2d_129">
    <path d="M 667.715546 423.817695 
" clip-path="url(#pc79fc4ff39)" style="fill: none; stroke: #0000ff; stroke-width: 1.5; stroke-linecap: square"/>
    <g clip-path="url(#pc79fc4ff39)">
     <use xlink:href="#m026636aac0" x="667.715546" y="423.817695" style="fill: #0000ff; stroke: #0000ff"/>
    </g>
   </g>
   <g id="line2d_130">
    <path d="M 1009.486607 719.782948 
" clip-path="url(#pc79fc4ff39)" style="fill: none; stroke: #0000ff; stroke-width: 1.5; stroke-linecap: square"/>
    <g clip-path="url(#pc79fc4ff39)">
     <use xlink:href="#m026636aac0" x="1009.486607" y="719.782948" style="fill: #0000ff; stroke: #0000ff"/>
    </g>
   </g>
   <g id="line2d_131">
    <path d="M 1082.629394 782.145535 
" clip-path="url(#pc79fc4ff39)" style="fill: none; stroke: #0000ff; stroke-width: 1.5; stroke-linecap: square"/>
    <g clip-path="url(#pc79fc4ff39)">
     <use xlink:href="#m026636aac0" x="1082.629394" y="782.145535" style="fill: #0000ff; stroke: #0000ff"/>
    </g>
   </g>
   <g id="line2d_132">
    <path d="M 944.451391 822.971381 
" clip-path="url(#pc79fc4ff39)" style="fill: none; stroke: #0000ff; stroke-width: 1.5; stroke-linecap: square"/>
    <g clip-path="url(#pc79fc4ff39)">
     <use xlink:href="#m026636aac0" x="944.451391" y="822.971381" style="fill: #0000ff; stroke: #0000ff"/>
    </g>
   </g>
   <g id="line2d_133">
    <path d="M 1261.223012 1088.406497 
" clip-path="url(#pc79fc4ff39)" style="fill: none; stroke: #0000ff; stroke-width: 1.5; stroke-linecap: square"/>
    <g clip-path="url(#pc79fc4ff39)">
     <use xlink:href="#m026636aac0" x="1261.223012" y="1088.406497" style="fill: #0000ff; stroke: #0000ff"/>
    </g>
   </g>
   <g id="line2d_134">
    <path d="M 817.830061 543.544952 
" clip-path="url(#pc79fc4ff39)" style="fill: none; stroke: #0000ff; stroke-width: 1.5; stroke-linecap: square"/>
    <g clip-path="url(#pc79fc4ff39)">
     <use xlink:href="#m026636aac0" x="817.830061" y="543.544952" style="fill: #0000ff; stroke: #0000ff"/>
    </g>
   </g>
   <g id="line2d_135">
    <path d="M 1305.877966 1034.671744 
" clip-path="url(#pc79fc4ff39)" style="fill: none; stroke: #0000ff; stroke-width: 1.5; stroke-linecap: square"/>
    <g clip-path="url(#pc79fc4ff39)">
     <use xlink:href="#m026636aac0" x="1305.877966" y="1034.671744" style="fill: #0000ff; stroke: #0000ff"/>
    </g>
   </g>
   <g id="line2d_136">
    <path d="M 562.28218 345.093354 
" clip-path="url(#pc79fc4ff39)" style="fill: none; stroke: #0000ff; stroke-width: 1.5; stroke-linecap: square"/>
    <g clip-path="url(#pc79fc4ff39)">
     <use xlink:href="#m026636aac0" x="562.28218" y="345.093354" style="fill: #0000ff; stroke: #0000ff"/>
    </g>
   </g>
   <g id="line2d_137">
    <path d="M 382.378777 195.685607 
" clip-path="url(#pc79fc4ff39)" style="fill: none; stroke: #ff0000; stroke-width: 1.5; stroke-linecap: square"/>
    <defs>
     <path id="mb0b4693c05" d="M 0 -10 
L -2.24514 -3.09017 
L -9.510565 -3.09017 
L -3.632713 1.18034 
L -5.877853 8.09017 
L -0 3.81966 
L 5.877853 8.09017 
L 3.632713 1.18034 
L 9.510565 -3.09017 
L 2.24514 -3.09017 
z
" style="stroke: #ff0000; stroke-linejoin: bevel"/>
    </defs>
    <g clip-path="url(#pc79fc4ff39)">
     <use xlink:href="#mb0b4693c05" x="382.378777" y="195.685607" style="fill: #ff0000; stroke: #ff0000; stroke-linejoin: bevel"/>
    </g>
   </g>
   <g id="line2d_138">
    <path d="M 178.829379 58.489915 
" clip-path="url(#pc79fc4ff39)" style="fill: none; stroke: #ff0000; stroke-width: 1.5; stroke-linecap: square"/>
    <g clip-path="url(#pc79fc4ff39)">
     <use xlink:href="#mb0b4693c05" x="178.829379" y="58.489915" style="fill: #ff0000; stroke: #ff0000; stroke-linejoin: bevel"/>
    </g>
   </g>
   <g id="line2d_139">
    <path d="M 662.777655 420.758969 
" clip-path="url(#pc79fc4ff39)" style="fill: none; stroke: #ff0000; stroke-width: 1.5; stroke-linecap: square"/>
    <g clip-path="url(#pc79fc4ff39)">
     <use xlink:href="#mb0b4693c05" x="662.777655" y="420.758969" style="fill: #ff0000; stroke: #ff0000; stroke-linejoin: bevel"/>
    </g>
   </g>
   <g id="line2d_140">
    <path d="M 999.79856 711.41215 
" clip-path="url(#pc79fc4ff39)" style="fill: none; stroke: #ff0000; stroke-width: 1.5; stroke-linecap: square"/>
    <g clip-path="url(#pc79fc4ff39)">
     <use xlink:href="#mb0b4693c05" x="999.79856" y="711.41215" style="fill: #ff0000; stroke: #ff0000; stroke-linejoin: bevel"/>
    </g>
   </g>
   <g id="line2d_141">
    <path d="M 1084.353945 781.779973 
" clip-path="url(#pc79fc4ff39)" style="fill: none; stroke: #ff0000; stroke-width: 1.5; stroke-linecap: square"/>
    <g clip-path="url(#pc79fc4ff39)">
     <use xlink:href="#mb0b4693c05" x="1084.353945" y="781.779973" style="fill: #ff0000; stroke: #ff0000; stroke-linejoin: bevel"/>
    </g>
   </g>
   <g id="line2d_142">
    <path d="M 944.477587 823.675373 
" clip-path="url(#pc79fc4ff39)" style="fill: none; stroke: #ff0000; stroke-width: 1.5; stroke-linecap: square"/>
    <g clip-path="url(#pc79fc4ff39)">
     <use xlink:href="#mb0b4693c05" x="944.477587" y="823.675373" style="fill: #ff0000; stroke: #ff0000; stroke-linejoin: bevel"/>
    </g>
   </g>
   <g id="line2d_143">
    <path d="M 1262.118032 1089.060511 
" clip-path="url(#pc79fc4ff39)" style="fill: none; stroke: #ff0000; stroke-width: 1.5; stroke-linecap: square"/>
    <g clip-path="url(#pc79fc4ff39)">
     <use xlink:href="#mb0b4693c05" x="1262.118032" y="1089.060511" style="fill: #ff0000; stroke: #ff0000; stroke-linejoin: bevel"/>
    </g>
   </g>
   <g id="line2d_144">
    <path d="M 812.765557 540.289165 
" clip-path="url(#pc79fc4ff39)" style="fill: none; stroke: #ff0000; stroke-width: 1.5; stroke-linecap: square"/>
    <g clip-path="url(#pc79fc4ff39)">
     <use xlink:href="#mb0b4693c05" x="812.765557" y="540.289165" style="fill: #ff0000; stroke: #ff0000; stroke-linejoin: bevel"/>
    </g>
   </g>
   <g id="line2d_145">
    <path d="M 1296.015281 1042.445648 
" clip-path="url(#pc79fc4ff39)" style="fill: none; stroke: #ff0000; stroke-width: 1.5; stroke-linecap: square"/>
    <g clip-path="url(#pc79fc4ff39)">
     <use xlink:href="#mb0b4693c05" x="1296.015281" y="1042.445648" style="fill: #ff0000; stroke: #ff0000; stroke-linejoin: bevel"/>
    </g>
   </g>
   <g id="line2d_146">
    <path d="M 364.172758 161.115726 
" clip-path="url(#pc79fc4ff39)" style="fill: none; stroke: #ff0000; stroke-width: 1.5; stroke-linecap: square"/>
    <g clip-path="url(#pc79fc4ff39)">
     <use xlink:href="#mb0b4693c05" x="364.172758" y="161.115726" style="fill: #ff0000; stroke: #ff0000; stroke-linejoin: bevel"/>
    </g>
   </g>
  </g>
 </g>
 <defs>
  <clipPath id="pc79fc4ff39">
   <rect x="0" y="0" width="1440" height="1440"/>
  </clipPath>
 </defs>
</svg>
