<?xml version="1.0" encoding="utf-8" standalone="no"?>
<!DOCTYPE svg PUBLIC "-//W3C//DTD SVG 1.1//EN"
  "http://www.w3.org/Graphics/SVG/1.1/DTD/svg11.dtd">
<svg xmlns:xlink="http://www.w3.org/1999/xlink" width="1440pt" height="1440pt" viewBox="0 0 1440 1440" xmlns="http://www.w3.org/2000/svg" version="1.1">
 <metadata>
  <rdf:RDF xmlns:dc="http://purl.org/dc/elements/1.1/" xmlns:cc="http://creativecommons.org/ns#" xmlns:rdf="http://www.w3.org/1999/02/22-rdf-syntax-ns#">
   <cc:Work>
    <dc:type rdf:resource="http://purl.org/dc/dcmitype/StillImage"/>
    <dc:date>2026-02-27T11:05:20.232584</dc:date>
    <dc:format>image/svg+xml</dc:format>
    <dc:creator>
     <cc:Agent>
      <dc:title>Matplotlib v3.7.3, https://matplotlib.org/</dc:title>
     </cc:Agent>
    </dc:creator>
   </cc:Work>
  </rdf:RDF>
 </metadata>
 <defs>
  <style type="text/css">*{stroke-linejoin: round; stroke-linecap: butt}</style>
 </defs>
 <g id="figure_1">
  <g id="patch_1">
   <path d="M 0 1440 
L 1440 1440 
L 1440 0 
L 0 0 
z
" style="fill: #ffffff"/>
  </g>
  <g id="axes_1">
   <g id="line2d_1">
    <path d="M 1066.305893 225.098514 
L 1065.936667 225.500564 
L 1065.56744 225.822204 
L 1065.41975 225.983024 
L 1064.902832 226.465484 
L 908.498441 385.194869 
L 825.570145 467.856372 
L 765.681589 528.646349 
L 696.636213 597.879379 
L 623.381654 671.695779 
L 623.233963 671.8566 
" clip-path="url(#pc008b7f87c)" style="fill: none; stroke: #7a7a7a; stroke-width: 3; stroke-linecap: square"/>
   </g>
   <g id="line2d_2">
    <path d="M 1066.305893 197.839516 
L 1065.936667 198.241566 
L 1065.56744 198.563206 
L 1065.41975 198.724026 
L 1064.976678 199.206487 
L 990.171367 275.596008 
L 904.141567 361.956372 
L 867.957359 398.542933 
L 859.612838 406.583935 
L 776.832232 491.577329 
L 705.20227 562.901019 
L 623.381654 644.195552 
L 623.233963 644.356372 
" clip-path="url(#pc008b7f87c)" style="fill: none; stroke: #7a7a7a; stroke-width: 3; stroke-linecap: square"/>
   </g>
   <g id="line2d_3">
    <path d="M 623.233963 737.471178 
L 623.381654 737.310358 
L 771.884596 587.506486 
L 1064.828987 294.331543 
L 1065.41975 293.768673 
L 1065.56744 293.607853 
L 1065.936667 293.286213 
L 1066.305893 292.884163 
" clip-path="url(#pc008b7f87c)" style="fill: none; stroke: #7a7a7a; stroke-width: 3; stroke-linecap: square"/>
   </g>
   <g id="line2d_4">
    <path d="M 623.233963 767.785756 
L 623.381654 767.624936 
L 809.54571 579.545894 
L 870.32041 519.077557 
L 973.70386 413.981657 
L 1015.131086 373.455006 
L 1064.828987 323.681202 
L 1065.41975 323.037921 
L 1065.56744 322.877101 
L 1065.936667 322.555461 
L 1066.305893 322.153411 
" clip-path="url(#pc008b7f87c)" style="fill: none; stroke: #7a7a7a; stroke-width: 3; stroke-linecap: square"/>
   </g>
   <g id="line2d_5">
    <path d="M 623.233963 704.663889 
L 623.381654 704.503069 
L 1064.902832 260.639744 
L 1065.41975 260.076874 
L 1065.56744 259.916054 
L 1065.936667 259.594414 
L 1066.305893 259.192363 
" clip-path="url(#pc008b7f87c)" style="fill: none; stroke: #7a7a7a; stroke-width: 3; stroke-linecap: square"/>
   </g>
   <g id="line2d_6">
    <path d="M 623.233963 737.471178 
L 623.381654 737.310358 
L 771.884596 587.506486 
L 1064.828987 294.331543 
L 1065.41975 293.768673 
L 1065.56744 293.607853 
L 1065.936667 293.286213 
L 1066.305893 292.884163 
" clip-path="url(#pc008b7f87c)" style="fill: none; stroke: #7a7a7a; stroke-width: 3; stroke-linecap: square"/>
   </g>
   <g id="line2d_7">
    <path d="M -1 1325.302343 
L 176.838993 1149.813774 
L 178.537435 1148.205574 
L 179.054353 1147.642703 
L 179.57127 1147.160243 
L 179.940496 1146.758193 
L 180.162032 1146.597373 
" clip-path="url(#pc008b7f87c)" style="fill: none; stroke: #7a7a7a; stroke-width: 3; stroke-linecap: square"/>
   </g>
   <g id="line2d_8">
    <path d="M -1 1355.476482 
L 176.838993 1181.254093 
L 178.537435 1179.565482 
L 179.054353 1179.083022 
L 179.57127 1178.520152 
L 179.940496 1178.118102 
L 180.162032 1177.957282 
" clip-path="url(#pc008b7f87c)" style="fill: none; stroke: #7a7a7a; stroke-width: 3; stroke-linecap: square"/>
   </g>
   <g id="line2d_9">
    <path d="M 1066.305893 259.192363 
L 1065.936667 259.594414 
L 1065.56744 259.916054 
L 1065.41975 260.076874 
L 1064.902832 260.639744 
L 623.381654 704.503069 
L 623.233963 704.663889 
" clip-path="url(#pc008b7f87c)" style="fill: none; stroke: #7a7a7a; stroke-width: 3; stroke-linecap: square"/>
   </g>
   <g id="line2d_10">
    <path d="M 1066.305893 225.098514 
L 1065.936667 225.500564 
L 1065.56744 225.822204 
L 1065.41975 225.983024 
L 1064.902832 226.465484 
L 908.498441 385.194869 
L 825.570145 467.856372 
L 765.681589 528.646349 
L 696.636213 597.879379 
L 623.381654 671.695779 
L 623.233963 671.8566 
" clip-path="url(#pc008b7f87c)" style="fill: none; stroke: #7a7a7a; stroke-width: 3; stroke-linecap: square"/>
   </g>
   <g id="line2d_11">
    <path d="M -1 1355.476482 
L 176.838993 1181.254093 
L 178.537435 1179.565482 
L 179.054353 1179.083022 
L 179.57127 1178.520152 
L 179.940496 1178.118102 
L 180.162032 1177.957282 
" clip-path="url(#pc008b7f87c)" style="fill: none; stroke: #7a7a7a; stroke-width: 3; stroke-linecap: square"/>
   </g>
   <g id="line2d_12">
    <path d="M -1 1384.090038 
L 49.455813 1333.631086 
L 135.854839 1249.843842 
L 155.054623 1231.027897 
L 174.845169 1211.970721 
L 176.838993 1210.121291 
L 178.537435 1208.43268 
L 179.054353 1207.95022 
L 179.57127 1207.38735 
L 179.940496 1206.9853 
L 180.162032 1206.82448 
" clip-path="url(#pc008b7f87c)" style="fill: none; stroke: #7a7a7a; stroke-width: 3; stroke-linecap: square"/>
   </g>
   <g id="line2d_13">
    <path d="M 180.162032 1146.597373 
L 179.940496 1146.758193 
L 179.57127 1147.160243 
L 179.054353 1147.642703 
L 178.537435 1148.205574 
L 176.838993 1149.813774 
L -1 1325.302343 
" clip-path="url(#pc008b7f87c)" style="fill: none; stroke: #7a7a7a; stroke-width: 3; stroke-linecap: square"/>
   </g>
   <g id="line2d_14">
    <path d="M 180.162032 1113.066394 
L 179.940496 1113.307624 
L 179.57127 1113.629264 
L 179.054353 1114.192134 
L 178.537435 1114.674594 
L 176.912838 1116.363205 
L -1 1292.337711 
" clip-path="url(#pc008b7f87c)" style="fill: none; stroke: #7a7a7a; stroke-width: 3; stroke-linecap: square"/>
   </g>
   <g id="line2d_15">
    <path d="M 180.162032 1146.597373 
L 326.597305 1003.065483 
" clip-path="url(#pc008b7f87c)" style="fill: none; stroke: #7a7a7a; stroke-width: 3; stroke-linecap: square"/>
   </g>
   <g id="line2d_16">
    <path d="M 180.162032 1177.957282 
L 339.298701 1020.112407 
" clip-path="url(#pc008b7f87c)" style="fill: none; stroke: #7a7a7a; stroke-width: 3; stroke-linecap: square"/>
   </g>
   <g id="line2d_17">
    <path d="M 326.597305 1003.065483 
L 439.876029 887.59669 
" clip-path="url(#pc008b7f87c)" style="fill: none; stroke: #7a7a7a; stroke-width: 3; stroke-linecap: square"/>
   </g>
   <g id="line2d_18">
    <path d="M 339.298701 1020.112407 
L 455.088165 904.482795 
" clip-path="url(#pc008b7f87c)" style="fill: none; stroke: #7a7a7a; stroke-width: 3; stroke-linecap: square"/>
   </g>
   <g id="line2d_19">
    <path d="M 180.162032 1177.957282 
L 339.298701 1020.112407 
" clip-path="url(#pc008b7f87c)" style="fill: none; stroke: #7a7a7a; stroke-width: 3; stroke-linecap: square"/>
   </g>
   <g id="line2d_20">
    <path d="M 180.162032 1206.82448 
L 352.517013 1035.953182 
" clip-path="url(#pc008b7f87c)" style="fill: none; stroke: #7a7a7a; stroke-width: 3; stroke-linecap: square"/>
   </g>
   <g id="line2d_21">
    <path d="M 316.628187 850.84931 
L 208.223255 725.650905 
" clip-path="url(#pc008b7f87c)" style="fill: none; stroke: #7a7a7a; stroke-width: 3; stroke-linecap: square"/>
   </g>
   <g id="line2d_22">
    <path d="M 334.42491 834.043615 
L 319.729691 817.0771 
L 318.326629 815.38849 
L 221.146186 703.457738 
" clip-path="url(#pc008b7f87c)" style="fill: none; stroke: #7a7a7a; stroke-width: 3; stroke-linecap: square"/>
   </g>
   <g id="line2d_23">
    <path d="M 415.507073 1006.362294 
L 525.462757 1132.686439 
" clip-path="url(#pc008b7f87c)" style="fill: none; stroke: #7a7a7a; stroke-width: 3; stroke-linecap: square"/>
   </g>
   <g id="line2d_24">
    <path d="M 381.759761 1037.480972 
L 497.844607 1163.563888 
" clip-path="url(#pc008b7f87c)" style="fill: none; stroke: #7a7a7a; stroke-width: 3; stroke-linecap: square"/>
   </g>
   <g id="line2d_25">
    <path d="M 180.162032 1113.066394 
L 179.940496 1113.307624 
L 179.57127 1113.629264 
L 179.054353 1114.192134 
L 178.537435 1114.674594 
L 176.912838 1116.363205 
L -1 1292.337711 
" clip-path="url(#pc008b7f87c)" style="fill: none; stroke: #7a7a7a; stroke-width: 3; stroke-linecap: square"/>
   </g>
   <g id="line2d_26">
    <path d="M 180.162032 1084.118786 
L 179.940496 1084.360016 
L 179.645115 1084.681656 
L 179.054353 1085.244526 
L 178.537435 1085.726986 
L 176.912838 1087.335186 
L 145.602422 1118.373455 
L 121.381156 1142.094412 
L 84.753877 1178.198512 
L 65.92332 1197.094867 
L 42.366662 1220.011724 
L -1 1262.817855 
" clip-path="url(#pc008b7f87c)" style="fill: none; stroke: #7a7a7a; stroke-width: 3; stroke-linecap: square"/>
   </g>
   <g id="line2d_27">
    <path d="M 439.876029 887.59669 
L 408.787149 918.715369 
L 401.697998 926.032681 
L 396.824206 936.485984 
L 394.535001 949.271178 
L 394.978073 963.423342 
L 398.448804 978.218786 
L 405.168728 992.773 
L 415.507073 1006.362294 
" clip-path="url(#pc008b7f87c)" style="fill: none; stroke: #7a7a7a; stroke-width: 3; stroke-linecap: square"/>
   </g>
   <g id="line2d_28">
    <path d="M 425.254655 870.147715 
L 394.23962 901.266394 
L 383.605894 910.996007 
L 375.039837 923.37915 
L 368.467603 937.692134 
L 364.036884 953.211269 
L 361.673833 969.454093 
L 361.378452 985.696918 
L 363.224585 1001.216052 
L 367.212232 1015.529036 
L 373.341394 1027.83177 
L 381.759761 1037.480972 
" clip-path="url(#pc008b7f87c)" style="fill: none; stroke: #7a7a7a; stroke-width: 3; stroke-linecap: square"/>
   </g>
   <g id="line2d_29">
    <path d="M 316.628187 850.84931 
L 343.581729 882.289629 
L 354.806218 892.662522 
L 367.138387 900.301474 
L 380.061318 905.206485 
L 393.279631 907.377556 
L 406.276408 906.734276 
L 418.608576 903.276645 
L 429.980756 896.924253 
L 439.876029 887.59669 
" clip-path="url(#pc008b7f87c)" style="fill: none; stroke: #7a7a7a; stroke-width: 3; stroke-linecap: square"/>
   </g>
   <g id="line2d_30">
    <path d="M 299.865299 868.861155 
L 326.080388 898.934503 
L 327.557295 901.105574 
L 337.304877 911.237237 
L 349.046283 920.162749 
L 361.673833 926.917191 
L 374.965991 931.339743 
L 388.701221 933.430403 
L 402.657987 933.028353 
L 416.467062 930.053182 
L 430.054601 924.424481 
L 442.977533 915.901018 
L 455.088165 904.482795 
" clip-path="url(#pc008b7f87c)" style="fill: none; stroke: #7a7a7a; stroke-width: 3; stroke-linecap: square"/>
   </g>
   <g id="line2d_31">
    <path d="M 425.254655 870.147715 
L 310.42518 984.249537 
" clip-path="url(#pc008b7f87c)" style="fill: none; stroke: #7a7a7a; stroke-width: 3; stroke-linecap: square"/>
   </g>
   <g id="line2d_32">
    <path d="M 412.848641 855.271861 
L 402.510296 864.599424 
L 324.012719 942.838376 
L 297.945321 968.489173 
" clip-path="url(#pc008b7f87c)" style="fill: none; stroke: #7a7a7a; stroke-width: 3; stroke-linecap: square"/>
   </g>
   <g id="line2d_33">
    <path d="M 316.628187 850.84931 
L 331.028025 867.092134 
L 342.104823 881.405118 
L 350.080118 894.029492 
L 354.953909 905.367305 
L 356.873887 915.981428 
L 355.913898 926.113091 
L 352.221632 936.164344 
L 345.870934 946.537237 
L 336.935651 957.63382 
L 325.563471 969.936553 
L 310.42518 984.249537 
" clip-path="url(#pc008b7f87c)" style="fill: none; stroke: #7a7a7a; stroke-width: 3; stroke-linecap: square"/>
   </g>
   <g id="line2d_34">
    <path d="M 299.865299 868.861155 
L 315.668198 885.90808 
L 326.818841 899.095323 
L 333.686456 909.387806 
L 336.492579 917.991679 
L 335.606435 925.791451 
L 333.243384 930.294412 
L 333.095694 930.535642 
L 332.800312 931.018102 
L 331.175715 934.073683 
L 330.068036 935.440654 
L 329.329582 936.646804 
L 326.892687 939.541565 
L 323.569647 943.722886 
L 297.945321 968.489173 
" clip-path="url(#pc008b7f87c)" style="fill: none; stroke: #7a7a7a; stroke-width: 3; stroke-linecap: square"/>
   </g>
   <g id="line2d_35">
    <path d="M 525.462757 1132.686439 
L 415.507073 1006.362294 
" clip-path="url(#pc008b7f87c)" style="fill: none; stroke: #7a7a7a; stroke-width: 3; stroke-linecap: square"/>
   </g>
   <g id="line2d_36">
    <path d="M 559.136224 1099.55751 
L 447.482097 972.027214 
" clip-path="url(#pc008b7f87c)" style="fill: none; stroke: #7a7a7a; stroke-width: 3; stroke-linecap: square"/>
   </g>
   <g id="line2d_37">
    <path d="M 310.42518 984.249537 
L 180.162032 1113.066394 
" clip-path="url(#pc008b7f87c)" style="fill: none; stroke: #7a7a7a; stroke-width: 3; stroke-linecap: square"/>
   </g>
   <g id="line2d_38">
    <path d="M 297.945321 968.489173 
L 180.162032 1084.118786 
" clip-path="url(#pc008b7f87c)" style="fill: none; stroke: #7a7a7a; stroke-width: 3; stroke-linecap: square"/>
   </g>
   <g id="line2d_39">
    <path d="M 415.507073 1006.362294 
L 408.639458 997.517191 
L 405.021037 985.938148 
L 404.873347 972.750904 
L 408.344077 958.83997 
L 415.507073 945.170266 
L 426.583871 932.787123 
L 455.088165 904.482795 
" clip-path="url(#pc008b7f87c)" style="fill: none; stroke: #7a7a7a; stroke-width: 3; stroke-linecap: square"/>
   </g>
   <g id="line2d_40">
    <path d="M 447.482097 972.027214 
L 436.479144 958.2771 
L 436.109918 956.82972 
L 436.70068 955.301929 
L 438.029896 953.854549 
L 438.029896 953.613319 
L 440.392946 949.029947 
L 468.89724 920.72562 
" clip-path="url(#pc008b7f87c)" style="fill: none; stroke: #7a7a7a; stroke-width: 3; stroke-linecap: square"/>
   </g>
   <g id="line2d_41">
    <path d="M 326.597305 1003.065483 
L 180.162032 1146.597373 
" clip-path="url(#pc008b7f87c)" style="fill: none; stroke: #7a7a7a; stroke-width: 3; stroke-linecap: square"/>
   </g>
   <g id="line2d_42">
    <path d="M 310.42518 984.249537 
L 180.162032 1113.066394 
" clip-path="url(#pc008b7f87c)" style="fill: none; stroke: #7a7a7a; stroke-width: 3; stroke-linecap: square"/>
   </g>
   <g id="line2d_43">
    <path d="M 425.254655 870.147715 
L 411.002508 881.485528 
L 397.341124 890.089401 
L 385.968944 895.074822 
L 375.556754 896.602613 
L 365.439945 894.592362 
L 355.1016 889.044071 
L 343.950956 879.957738 
L 331.323406 867.172544 
L 316.628187 850.84931 
" clip-path="url(#pc008b7f87c)" style="fill: none; stroke: #7a7a7a; stroke-width: 3; stroke-linecap: square"/>
   </g>
   <g id="line2d_44">
    <path d="M 412.848641 855.271861 
L 409.156375 858.890312 
L 402.510296 864.599424 
L 396.528825 869.182795 
L 390.251973 872.881656 
L 384.196656 875.454777 
L 380.799772 876.258877 
L 378.14134 876.339287 
L 375.039837 875.856827 
L 372.750632 874.891907 
L 370.018355 873.203296 
L 366.695315 870.388945 
L 362.04306 865.725164 
L 334.42491 834.043615 
" clip-path="url(#pc008b7f87c)" style="fill: none; stroke: #7a7a7a; stroke-width: 3; stroke-linecap: square"/>
   </g>
   <g id="line2d_45">
    <path d="M 439.876029 887.59669 
L 620.797067 707.076189 
L 621.978592 705.870039 
L 622.347819 705.467989 
L 622.790891 705.065939 
L 623.012427 704.824709 
L 623.233963 704.663889 
" clip-path="url(#pc008b7f87c)" style="fill: none; stroke: #7a7a7a; stroke-width: 3; stroke-linecap: square"/>
   </g>
   <g id="line2d_46">
    <path d="M 455.088165 904.482795 
L 620.797067 739.963889 
L 621.978592 738.757738 
L 622.347819 738.355688 
L 622.790891 737.953638 
L 623.012427 737.712408 
L 623.233963 737.471178 
" clip-path="url(#pc008b7f87c)" style="fill: none; stroke: #7a7a7a; stroke-width: 3; stroke-linecap: square"/>
   </g>
   <g id="line2d_47">
    <path d="M 623.233963 704.663889 
L 623.012427 704.824709 
L 622.790891 705.065939 
L 622.347819 705.467989 
L 621.978592 705.870039 
L 620.797067 707.076189 
L 439.876029 887.59669 
" clip-path="url(#pc008b7f87c)" style="fill: none; stroke: #7a7a7a; stroke-width: 3; stroke-linecap: square"/>
   </g>
   <g id="line2d_48">
    <path d="M 623.233963 671.8566 
L 623.012427 672.01742 
L 622.790891 672.25865 
L 622.347819 672.6607 
L 621.978592 673.06275 
L 621.092449 674.02767 
L 425.254655 870.147715 
" clip-path="url(#pc008b7f87c)" style="fill: none; stroke: #7a7a7a; stroke-width: 3; stroke-linecap: square"/>
   </g>
   <g id="line2d_49">
    <path d="M 316.628187 850.84931 
L 335.015672 871.193046 
L 348.677057 887.83792 
L 358.57233 901.427214 
L 365.439945 912.684617 
L 370.166045 922.41423 
L 373.636775 931.339743 
L 376.664434 940.024025 
L 380.209009 949.271178 
L 384.93511 959.804891 
L 391.87657 972.348854 
L 401.771843 987.626758 
L 415.507073 1006.362294 
" clip-path="url(#pc008b7f87c)" style="fill: none; stroke: #7a7a7a; stroke-width: 3; stroke-linecap: square"/>
   </g>
   <g id="line2d_50">
    <path d="M 299.865299 868.861155 
L 324.751172 897.487123 
L 331.544942 905.769355 
L 335.754125 911.558877 
L 338.04333 916.061838 
L 339.224855 920.243159 
L 341.292524 932.465483 
L 343.72942 942.757966 
L 348.233985 957.31218 
L 355.544672 977.173455 
L 366.399934 1003.547943 
L 381.759761 1037.480972 
" clip-path="url(#pc008b7f87c)" style="fill: none; stroke: #7a7a7a; stroke-width: 3; stroke-linecap: square"/>
   </g>
   <g id="line2d_51">
    <path d="M 439.876029 887.59669 
L 326.597305 1003.065483 
" clip-path="url(#pc008b7f87c)" style="fill: none; stroke: #7a7a7a; stroke-width: 3; stroke-linecap: square"/>
   </g>
   <g id="line2d_52">
    <path d="M 425.254655 870.147715 
L 310.42518 984.249537 
" clip-path="url(#pc008b7f87c)" style="fill: none; stroke: #7a7a7a; stroke-width: 3; stroke-linecap: square"/>
   </g>
   <g id="line2d_53">
    <path d="M 623.233963 671.8566 
L 623.012427 672.01742 
L 622.790891 672.25865 
L 622.347819 672.6607 
L 621.978592 673.06275 
L 621.092449 674.02767 
L 425.254655 870.147715 
" clip-path="url(#pc008b7f87c)" style="fill: none; stroke: #7a7a7a; stroke-width: 3; stroke-linecap: square"/>
   </g>
   <g id="line2d_54">
    <path d="M 623.233963 644.356372 
L 623.012427 644.517192 
L 622.790891 644.758422 
L 622.421664 645.160472 
L 622.052438 645.562522 
L 620.870913 646.688262 
L 569.991486 696.703296 
L 489.573931 779.12357 
L 412.848641 855.271861 
" clip-path="url(#pc008b7f87c)" style="fill: none; stroke: #7a7a7a; stroke-width: 3; stroke-linecap: square"/>
   </g>
   <g id="line2d_55">
    <path d="M 339.298701 1020.112407 
L 346.904769 1012.553865 
L 358.941556 1002.100562 
L 371.790642 995.748171 
L 384.639728 993.25546 
L 396.676516 994.3812 
L 407.236397 998.884162 
L 415.507073 1006.362294 
" clip-path="url(#pc008b7f87c)" style="fill: none; stroke: #7a7a7a; stroke-width: 3; stroke-linecap: square"/>
   </g>
   <g id="line2d_56">
    <path d="M 352.517013 1035.953182 
L 360.123082 1028.39464 
L 367.87684 1022.926758 
L 374.301383 1027.027669 
L 381.759761 1037.480972 
" clip-path="url(#pc008b7f87c)" style="fill: none; stroke: #7a7a7a; stroke-width: 3; stroke-linecap: square"/>
   </g>
   <g id="line2d_57">
    <path d="M 415.507073 1006.362294 
L 404.651811 994.54202 
L 392.171951 986.340198 
L 379.027484 981.596007 
L 365.956862 980.068216 
L 353.99392 981.676417 
L 343.803265 986.179378 
L 326.597305 1003.065483 
" clip-path="url(#pc008b7f87c)" style="fill: none; stroke: #7a7a7a; stroke-width: 3; stroke-linecap: square"/>
   </g>
   <g id="line2d_58">
    <path d="M 447.482097 972.027214 
L 439.580648 962.136781 
L 429.611529 954.417419 
L 417.870123 948.869127 
L 404.873347 945.572317 
L 390.842735 944.446576 
L 376.295207 945.733137 
L 361.526143 949.271178 
L 347.05246 955.301929 
L 333.169539 963.664572 
L 320.320453 974.600335 
L 310.42518 984.249537 
" clip-path="url(#pc008b7f87c)" style="fill: none; stroke: #7a7a7a; stroke-width: 3; stroke-linecap: square"/>
   </g>
   <g id="line2d_59">
    <path d="M 326.597305 1003.065483 
L 336.935651 991.80808 
L 345.575553 979.022886 
L 352.369323 965.111952 
L 357.021578 950.396918 
L 359.384628 935.360244 
L 359.236938 920.162749 
L 356.430815 905.286895 
L 350.744726 891.134731 
L 342.030978 877.947487 
L 330.068036 866.207624 
L 316.628187 850.84931 
" clip-path="url(#pc008b7f87c)" style="fill: none; stroke: #7a7a7a; stroke-width: 3; stroke-linecap: square"/>
   </g>
   <g id="line2d_60">
    <path d="M 339.298701 1020.112407 
L 350.892416 1007.729264 
L 360.639999 994.46161 
L 368.541448 980.631086 
L 374.67061 966.237692 
L 378.953639 951.603068 
L 381.390534 936.968444 
L 382.055142 922.41423 
L 380.873617 908.262066 
L 377.845959 894.672772 
L 373.046013 881.726759 
L 366.769161 870.469355 
L 362.04306 865.725164 
L 348.529366 850.20603 
L 347.790913 849.56275 
L 334.42491 834.043615 
" clip-path="url(#pc008b7f87c)" style="fill: none; stroke: #7a7a7a; stroke-width: 3; stroke-linecap: square"/>
   </g>
   <g id="line2d_61">
    <path d="M 208.223255 725.650905 
L 316.628187 850.84931 
" clip-path="url(#pc008b7f87c)" style="fill: none; stroke: #7a7a7a; stroke-width: 3; stroke-linecap: square"/>
   </g>
   <g id="line2d_62">
    <path d="M 187.546565 738.355688 
L 236.801394 794.642704 
L 282.142422 848.356599 
L 299.865299 868.861155 
" clip-path="url(#pc008b7f87c)" style="fill: none; stroke: #7a7a7a; stroke-width: 3; stroke-linecap: square"/>
   </g>
   <g id="line2d_63">
    <path d="M 455.088165 904.482795 
L 620.797067 739.963889 
L 621.978592 738.757738 
L 622.347819 738.355688 
L 622.790891 737.953638 
L 623.012427 737.712408 
L 623.233963 737.471178 
" clip-path="url(#pc008b7f87c)" style="fill: none; stroke: #7a7a7a; stroke-width: 3; stroke-linecap: square"/>
   </g>
   <g id="line2d_64">
    <path d="M 468.89724 920.72562 
L 620.723222 770.278467 
L 621.978592 769.072317 
L 622.347819 768.670267 
L 622.717046 768.268217 
L 623.012427 768.026987 
L 623.233963 767.785756 
" clip-path="url(#pc008b7f87c)" style="fill: none; stroke: #7a7a7a; stroke-width: 3; stroke-linecap: square"/>
   </g>
   <g id="line2d_65">
    <path d="M 415.507073 1006.362294 
L 401.771843 987.626758 
L 391.87657 972.348854 
L 384.93511 959.804891 
L 380.209009 949.271178 
L 376.664434 940.024025 
L 373.636775 931.339743 
L 370.166045 922.41423 
L 365.439945 912.684617 
L 358.57233 901.427214 
L 348.677057 887.83792 
L 335.015672 871.193046 
L 316.628187 850.84931 
" clip-path="url(#pc008b7f87c)" style="fill: none; stroke: #7a7a7a; stroke-width: 3; stroke-linecap: square"/>
   </g>
   <g id="line2d_66">
    <path d="M 447.482097 972.027214 
L 334.42491 834.043615 
" clip-path="url(#pc008b7f87c)" style="fill: none; stroke: #7a7a7a; stroke-width: 3; stroke-linecap: square"/>
   </g>
   <g id="line2d_67">
    <path d="M 339.298701 1020.112407 
L 455.088165 904.482795 
" clip-path="url(#pc008b7f87c)" style="fill: none; stroke: #7a7a7a; stroke-width: 3; stroke-linecap: square"/>
   </g>
   <g id="line2d_68">
    <path d="M 352.517013 1035.953182 
L 468.89724 920.72562 
" clip-path="url(#pc008b7f87c)" style="fill: none; stroke: #7a7a7a; stroke-width: 3; stroke-linecap: square"/>
   </g>
   <g id="line2d_69">
    <path d="M 1174.48929 149.995553 
L 1323.447194 -1 
" clip-path="url(#pc008b7f87c)" style="fill: none; stroke: #7a7a7a; stroke-width: 3; stroke-linecap: square"/>
   </g>
   <g id="line2d_70">
    <path d="M 1189.627581 168.650678 
L 1356.754473 -1 
" clip-path="url(#pc008b7f87c)" style="fill: none; stroke: #7a7a7a; stroke-width: 3; stroke-linecap: square"/>
   </g>
   <g id="line2d_71">
    <path d="M 1323.447194 -1 
L 1174.48929 149.995553 
" clip-path="url(#pc008b7f87c)" style="fill: none; stroke: #7a7a7a; stroke-width: 3; stroke-linecap: square"/>
   </g>
   <g id="line2d_72">
    <path d="M 1291.104776 -1 
L 1157.135639 132.626988 
" clip-path="url(#pc008b7f87c)" style="fill: none; stroke: #7a7a7a; stroke-width: 3; stroke-linecap: square"/>
   </g>
   <g id="line2d_73">
    <path d="M 1066.305893 292.884163 
L 1066.601275 292.642933 
L 1189.627581 168.650678 
" clip-path="url(#pc008b7f87c)" style="fill: none; stroke: #7a7a7a; stroke-width: 3; stroke-linecap: square"/>
   </g>
   <g id="line2d_74">
    <path d="M 1066.305893 322.153411 
L 1066.527429 321.831771 
L 1152.335693 235.069357 
L 1203.288965 184.652272 
" clip-path="url(#pc008b7f87c)" style="fill: none; stroke: #7a7a7a; stroke-width: 3; stroke-linecap: square"/>
   </g>
   <g id="line2d_75">
    <path d="M 1214.594724 -1 
L 1350.905764 144.366851 
" clip-path="url(#pc008b7f87c)" style="fill: none; stroke: #7a7a7a; stroke-width: 3; stroke-linecap: square"/>
   </g>
   <g id="line2d_76">
    <path d="M 1175.301588 24.877557 
L 1314.573865 181.033821 
" clip-path="url(#pc008b7f87c)" style="fill: none; stroke: #7a7a7a; stroke-width: 3; stroke-linecap: square"/>
   </g>
   <g id="line2d_77">
    <path d="M 1350.905764 144.366851 
L 1214.594724 -1 
" clip-path="url(#pc008b7f87c)" style="fill: none; stroke: #7a7a7a; stroke-width: 3; stroke-linecap: square"/>
   </g>
   <g id="line2d_78">
    <path d="M 1395.656029 98.774368 
L 1306.421262 -1 
" clip-path="url(#pc008b7f87c)" style="fill: none; stroke: #7a7a7a; stroke-width: 3; stroke-linecap: square"/>
   </g>
   <g id="line2d_79">
    <path d="M 1189.627581 168.650678 
L 1356.754473 -1 
" clip-path="url(#pc008b7f87c)" style="fill: none; stroke: #7a7a7a; stroke-width: 3; stroke-linecap: square"/>
   </g>
   <g id="line2d_80">
    <path d="M 1203.288965 184.652272 
L 1387.15413 -1 
" clip-path="url(#pc008b7f87c)" style="fill: none; stroke: #7a7a7a; stroke-width: 3; stroke-linecap: square"/>
   </g>
   <g id="line2d_81">
    <path d="M 1350.905764 144.366851 
L 1373.576277 168.650678 
L 1428.886423 233.702386 
L 1441 249.123105 
" clip-path="url(#pc008b7f87c)" style="fill: none; stroke: #7a7a7a; stroke-width: 3; stroke-linecap: square"/>
   </g>
   <g id="line2d_82">
    <path d="M 1314.573865 181.033821 
L 1400.086748 273.826988 
L 1411.163546 287.255461 
" clip-path="url(#pc008b7f87c)" style="fill: none; stroke: #7a7a7a; stroke-width: 3; stroke-linecap: square"/>
   </g>
   <g id="line2d_83">
    <path d="M 1157.135639 132.626988 
L 1066.601275 224.857284 
L 1066.305893 225.098514 
" clip-path="url(#pc008b7f87c)" style="fill: none; stroke: #7a7a7a; stroke-width: 3; stroke-linecap: square"/>
   </g>
   <g id="line2d_84">
    <path d="M 1142.957337 120.243844 
L 1105.66545 159.403525 
L 1066.601275 197.598286 
L 1066.305893 197.839516 
" clip-path="url(#pc008b7f87c)" style="fill: none; stroke: #7a7a7a; stroke-width: 3; stroke-linecap: square"/>
   </g>
   <g id="line2d_85">
    <path d="M 1174.48929 149.995553 
L 1066.601275 258.951133 
L 1066.305893 259.192363 
" clip-path="url(#pc008b7f87c)" style="fill: none; stroke: #7a7a7a; stroke-width: 3; stroke-linecap: square"/>
   </g>
   <g id="line2d_86">
    <path d="M 1157.135639 132.626988 
L 1066.601275 224.857284 
L 1066.305893 225.098514 
" clip-path="url(#pc008b7f87c)" style="fill: none; stroke: #7a7a7a; stroke-width: 3; stroke-linecap: square"/>
   </g>
   <g id="line2d_87">
    <path d="M 1066.305893 259.192363 
L 1066.601275 258.951133 
L 1174.48929 149.995553 
" clip-path="url(#pc008b7f87c)" style="fill: none; stroke: #7a7a7a; stroke-width: 3; stroke-linecap: square"/>
   </g>
   <g id="line2d_88">
    <path d="M 1066.305893 292.884163 
L 1066.601275 292.642933 
L 1189.627581 168.650678 
" clip-path="url(#pc008b7f87c)" style="fill: none; stroke: #7a7a7a; stroke-width: 3; stroke-linecap: square"/>
   </g>
   <g id="line2d_89">
    <path clip-path="url(#pc008b7f87c)" style="fill: none; stroke: #7a7a7a; stroke-width: 3; stroke-linecap: square"/>
   </g>
   <g id="line2d_90">
    <path clip-path="url(#pc008b7f87c)" style="fill: none; stroke: #7a7a7a; stroke-width: 3; stroke-linecap: square"/>
   </g>
   <g id="line2d_91">
    <path d="M 1291.104776 -1 
L 1157.135639 132.626988 
" clip-path="url(#pc008b7f87c)" style="fill: none; stroke: #7a7a7a; stroke-width: 3; stroke-linecap: square"/>
   </g>
   <g id="line2d_92">
    <path d="M 1263.761916 -1 
L 1184.827635 78.189402 
L 1181.652286 81.888264 
L 1142.957337 120.243844 
" clip-path="url(#pc008b7f87c)" style="fill: none; stroke: #7a7a7a; stroke-width: 3; stroke-linecap: square"/>
   </g>
   <g id="line2d_93">
    <path d="M 1441 249.123105 
L 1428.886423 233.702386 
L 1373.576277 168.650678 
L 1350.905764 144.366851 
" clip-path="url(#pc008b7f87c)" style="fill: none; stroke: #7a7a7a; stroke-width: 3; stroke-linecap: square"/>
   </g>
   <g id="line2d_94">
    <path d="M 1441 171.173998 
L 1423.200334 146.296692 
L 1415.889647 135.200109 
L 1407.840507 121.610815 
L 1399.569831 106.41332 
L 1395.656029 98.774368 
" clip-path="url(#pc008b7f87c)" style="fill: none; stroke: #7a7a7a; stroke-width: 3; stroke-linecap: square"/>
   </g>
   <g id="line2d_95">
    <path clip-path="url(#pc008b7f87c)" style="fill: none; stroke: #7a7a7a; stroke-width: 3; stroke-linecap: square"/>
   </g>
   <g id="line2d_96">
    <path d="M 1153.559802 -1 
L 1175.301588 24.877557 
" clip-path="url(#pc008b7f87c)" style="fill: none; stroke: #7a7a7a; stroke-width: 3; stroke-linecap: square"/>
   </g>
   <g id="line2d_97">
    <path d="M 1350.905764 144.366851 
L 1343.078159 134.154778 
L 1336.875152 122.414915 
L 1332.370588 109.468901 
L 1329.49062 95.557967 
L 1328.456786 80.923343 
L 1329.269084 65.725849 
L 1332.001361 50.367535 
L 1336.727462 35.00922 
L 1343.521231 19.811726 
L 1352.456515 5.177102 
L 1357.40792 -1 
" clip-path="url(#pc008b7f87c)" style="fill: none; stroke: #7a7a7a; stroke-width: 3; stroke-linecap: square"/>
   </g>
   <g id="line2d_98">
    <path d="M 1395.656029 98.774368 
L 1385.465374 87.758195 
L 1378.597759 74.731772 
L 1374.683957 60.418787 
L 1373.576277 45.462523 
L 1374.905493 30.747489 
L 1378.450069 16.997375 
L 1383.914622 4.855462 
L 1388.171747 -1 
" clip-path="url(#pc008b7f87c)" style="fill: none; stroke: #7a7a7a; stroke-width: 3; stroke-linecap: square"/>
   </g>
   <g id="line2d_99">
    <path d="M 1287.844745 -1 
L 1281.048089 3.568901 
L 1267.312859 9.519243 
L 1254.316083 12.011954 
L 1241.983914 11.288264 
L 1230.316353 7.589403 
L 1219.239555 1.237011 
L 1216.546417 -1 
" clip-path="url(#pc008b7f87c)" style="fill: none; stroke: #7a7a7a; stroke-width: 3; stroke-linecap: square"/>
   </g>
   <g id="line2d_100">
    <path clip-path="url(#pc008b7f87c)" style="fill: none; stroke: #7a7a7a; stroke-width: 3; stroke-linecap: square"/>
   </g>
   <g id="line2d_101">
    <path d="M 1174.48929 149.995553 
L 1220.716461 103.51856 
L 1228.396375 95.316737 
L 1234.599382 85.345894 
L 1239.103946 73.766851 
L 1241.466997 60.981658 
L 1241.393151 47.472774 
L 1238.365493 33.48143 
L 1232.162486 19.409676 
L 1222.414904 5.659562 
L 1215.420313 -1 
" clip-path="url(#pc008b7f87c)" style="fill: none; stroke: #7a7a7a; stroke-width: 3; stroke-linecap: square"/>
   </g>
   <g id="line2d_102">
    <path d="M 1189.627581 168.650678 
L 1235.780907 122.093275 
L 1247.670004 109.951361 
L 1257.786813 96.603298 
L 1266.279025 82.451134 
L 1273.072794 67.494869 
L 1278.168122 52.216965 
L 1281.565006 36.778241 
L 1283.263449 21.500337 
L 1283.337294 6.463662 
L 1282.528638 -1 
" clip-path="url(#pc008b7f87c)" style="fill: none; stroke: #7a7a7a; stroke-width: 3; stroke-linecap: square"/>
   </g>
   <g id="line2d_103">
    <path d="M 1326.181982 -1 
L 1320.629182 10.644983 
L 1316.272308 24.475507 
L 1313.687721 39.351362 
L 1313.023113 54.950906 
L 1314.204639 70.79168 
L 1317.379987 86.793275 
L 1322.54916 102.392819 
L 1329.786002 117.429494 
L 1339.238203 131.581657 
L 1350.905764 144.366851 
" clip-path="url(#pc008b7f87c)" style="fill: none; stroke: #7a7a7a; stroke-width: 3; stroke-linecap: square"/>
   </g>
   <g id="line2d_104">
    <path d="M 1299.36556 -1 
L 1292.71565 12.735644 
L 1286.88187 28.254778 
L 1282.524996 44.417193 
L 1279.497337 60.820838 
L 1277.798895 77.304892 
L 1277.577359 93.547717 
L 1278.685039 109.388491 
L 1281.19578 124.505576 
L 1285.109582 138.657739 
L 1290.426445 151.684163 
L 1297.072524 163.263206 
L 1305.121664 173.073229 
L 1314.573865 181.033821 
" clip-path="url(#pc008b7f87c)" style="fill: none; stroke: #7a7a7a; stroke-width: 3; stroke-linecap: square"/>
   </g>
   <g id="line2d_105">
    <path d="M 1350.905764 144.366851 
L 1339.681275 129.008537 
L 1328.087559 115.982113 
L 1316.050772 105.36799 
L 1303.866294 97.005348 
L 1291.46028 90.974596 
L 1279.054265 87.275735 
L 1266.722097 85.908765 
L 1254.611464 86.954095 
L 1242.722367 90.250906 
L 1231.202497 95.879607 
L 1220.199544 103.92061 
L 1209.787354 114.293503 
L 1174.48929 149.995553 
" clip-path="url(#pc008b7f87c)" style="fill: none; stroke: #7a7a7a; stroke-width: 3; stroke-linecap: square"/>
   </g>
   <g id="line2d_106">
    <path d="M 1395.656029 98.774368 
L 1385.613065 87.034505 
L 1374.757802 76.742022 
L 1363.164087 67.81651 
L 1351.053454 60.418787 
L 1338.352059 54.548856 
L 1325.281437 50.126305 
L 1311.915434 47.311954 
L 1298.254049 46.105803 
L 1284.518819 46.507854 
L 1270.709744 48.518104 
L 1256.974514 52.216965 
L 1243.386975 57.604437 
L 1230.020972 64.760929 
L 1217.024195 73.686441 
L 1204.47049 84.380974 
L 1192.433703 96.844528 
L 1157.135639 132.626988 
" clip-path="url(#pc008b7f87c)" style="fill: none; stroke: #7a7a7a; stroke-width: 3; stroke-linecap: square"/>
   </g>
   <g id="line2d_107">
    <path d="M 1214.838878 -1 
L 1219.978008 4.292592 
L 1232.753249 13.378924 
L 1246.340788 19.811726 
L 1260.297554 23.671407 
L 1274.106629 24.957968 
L 1287.177251 23.751817 
L 1298.918657 20.133366 
L 1308.961621 14.022204 
L 1316.641534 5.498742 
L 1323.093624 -1 
" clip-path="url(#pc008b7f87c)" style="fill: none; stroke: #7a7a7a; stroke-width: 3; stroke-linecap: square"/>
   </g>
   <g id="line2d_108">
    <path d="M 1175.301588 24.877557 
L 1207.276613 43.773913 
L 1223.817965 50.528355 
L 1241.171615 53.744756 
L 1254.906845 55.433366 
L 1269.306683 56.800336 
L 1284.075747 53.101475 
L 1297.29406 46.749084 
L 1310.512373 40.477102 
L 1322.327624 32.59692 
L 1332.444433 23.188947 
L 1356.459734 -1 
" clip-path="url(#pc008b7f87c)" style="fill: none; stroke: #7a7a7a; stroke-width: 3; stroke-linecap: square"/>
   </g>
   <g id="line2d_109">
    <path d="M 1189.627581 168.650678 
L 1206.242778 151.925393 
L 1218.353411 140.18553 
L 1231.94095 131.018787 
L 1246.562324 124.103525 
L 1261.77446 119.600564 
L 1277.134287 117.268673 
L 1292.346423 117.027443 
L 1306.893952 118.796464 
L 1320.407646 122.495325 
L 1332.518278 128.124027 
L 1342.782778 135.441339 
L 1350.905764 144.366851 
" clip-path="url(#pc008b7f87c)" style="fill: none; stroke: #7a7a7a; stroke-width: 3; stroke-linecap: square"/>
   </g>
   <g id="line2d_110">
    <path d="M 1203.288965 184.652272 
L 1219.904163 167.926988 
L 1228.617911 162.378696 
L 1239.768554 158.116965 
L 1252.543795 155.463434 
L 1266.279025 154.820154 
L 1280.0881 156.749995 
L 1293.232567 161.413776 
L 1304.973973 169.374368 
L 1314.573865 181.033821 
" clip-path="url(#pc008b7f87c)" style="fill: none; stroke: #7a7a7a; stroke-width: 3; stroke-linecap: square"/>
   </g>
   <g id="line2d_111">
    <path d="M 1213.617574 -1 
L 1224.925645 13.057284 
L 1228.839447 23.510587 
L 1227.21485 50.206715 
L 1221.52876 66.851589 
L 1206.981231 81.405803 
L 1157.135639 132.626988 
" clip-path="url(#pc008b7f87c)" style="fill: none; stroke: #7a7a7a; stroke-width: 3; stroke-linecap: square"/>
   </g>
   <g id="line2d_112">
    <path d="M 1175.301588 24.877557 
L 1187.412221 38.627671 
L 1189.553735 44.658423 
L 1190.513725 46.749084 
L 1192.286012 51.412865 
L 1192.507548 53.021065 
L 1193.246002 55.192136 
L 1192.359858 67.65569 
L 1186.599923 76.902842 
L 1182.53843 80.923343 
L 1181.652286 81.888264 
L 1142.957337 120.243844 
" clip-path="url(#pc008b7f87c)" style="fill: none; stroke: #7a7a7a; stroke-width: 3; stroke-linecap: square"/>
   </g>
   <g id="line2d_113">
    <path d="M 147.690644 1198.769932 
L 503.920404 847.178286 
" clip-path="url(#pc008b7f87c)" style="fill: none; stroke-dasharray: 32,8,5,8; stroke-dashoffset: 0; stroke: #1e90ff; stroke-width: 5"/>
   </g>
   <g id="line2d_114">
    <path d="M 1223.948348 173.505826 
L 1329.232017 40.205011 
" clip-path="url(#pc008b7f87c)" style="fill: none; stroke-dasharray: 32,8,5,8; stroke-dashoffset: 0; stroke: #1e90ff; stroke-width: 5"/>
   </g>
   <g id="line2d_115">
    <path d="M 871.03045 479.50758 
L 1114.478428 235.560533 
" clip-path="url(#pc008b7f87c)" style="fill: none; stroke-dasharray: 32,8,5,8; stroke-dashoffset: 0; stroke: #1e90ff; stroke-width: 5"/>
   </g>
   <g id="line2d_116">
    <path d="M 546.008271 785.448478 
L 892.928039 461.239625 
" clip-path="url(#pc008b7f87c)" style="fill: none; stroke-dasharray: 32,8,5,8; stroke-dashoffset: 0; stroke: #1e90ff; stroke-width: 5"/>
   </g>
   <g id="line2d_117">
    <path d="M 147.690644 1198.769932 
" clip-path="url(#pc008b7f87c)" style="fill: none; stroke: #0000ff; stroke-width: 1.5; stroke-linecap: square"/>
    <defs>
     <path id="m72ab3b8ee0" d="M 0 10 
C 2.652031 10 5.195799 8.946337 7.071068 7.071068 
C 8.946337 5.195799 10 2.652031 10 0 
C 10 -2.652031 8.946337 -5.195799 7.071068 -7.071068 
C 5.195799 -8.946337 2.652031 -10 0 -10 
C -2.652031 -10 -5.195799 -8.946337 -7.071068 -7.071068 
C -8.946337 -5.195799 -10 -2.652031 -10 0 
C -10 2.652031 -8.946337 5.195799 -7.071068 7.071068 
C -5.195799 8.946337 -2.652031 10 0 10 
z
" style="stroke: #0000ff"/>
    </defs>
    <g clip-path="url(#pc008b7f87c)">
     <use xlink:href="#m72ab3b8ee0" x="147.690644" y="1198.769932" style="fill: #0000ff; stroke: #0000ff"/>
    </g>
   </g>
   <g id="line2d_118">
    <path d="M 1223.948348 173.505826 
" clip-path="url(#pc008b7f87c)" style="fill: none; stroke: #0000ff; stroke-width: 1.5; stroke-linecap: square"/>
    <g clip-path="url(#pc008b7f87c)">
     <use xlink:href="#m72ab3b8ee0" x="1223.948348" y="173.505826" style="fill: #0000ff; stroke: #0000ff"/>
    </g>
   </g>
   <g id="line2d_119">
    <path d="M 871.03045 479.50758 
" clip-path="url(#pc008b7f87c)" style="fill: none; stroke: #0000ff; stroke-width: 1.5; stroke-linecap: square"/>
    <g clip-path="url(#pc008b7f87c)">
     <use xlink:href="#m72ab3b8ee0" x="871.03045" y="479.50758" style="fill: #0000ff; stroke: #0000ff"/>
    </g>
   </g>
   <g id="line2d_120">
    <path d="M 546.008271 785.448478 
" clip-path="url(#pc008b7f87c)" style="fill: none; stroke: #0000ff; stroke-width: 1.5; stroke-linecap: square"/>
    <g clip-path="url(#pc008b7f87c)">
     <use xlink:href="#m72ab3b8ee0" x="546.008271" y="785.448478" style="fill: #0000ff; stroke: #0000ff"/>
    </g>
   </g>
   <g id="line2d_121">
    <path d="M 503.920404 847.178286 
" clip-path="url(#pc008b7f87c)" style="fill: none; stroke: #ff0000; stroke-width: 1.5; stroke-linecap: square"/>
    <defs>
     <path id="m8cd368d816" d="M 0 -10 
L -2.24514 -3.09017 
L -9.510565 -3.09017 
L -3.632713 1.18034 
L -5.877853 8.09017 
L -0 3.81966 
L 5.877853 8.09017 
L 3.632713 1.18034 
L 9.510565 -3.09017 
L 2.24514 -3.09017 
z
" style="stroke: #ff0000; stroke-linejoin: bevel"/>
    </defs>
    <g clip-path="url(#pc008b7f87c)">
     <use xlink:href="#m8cd368d816" x="503.920404" y="847.178286" style="fill: #ff0000; stroke: #ff0000; stroke-linejoin: bevel"/>
    </g>
   </g>
   <g id="line2d_122">
    <path d="M 1329.232017 40.205011 
" clip-path="url(#pc008b7f87c)" style="fill: none; stroke: #ff0000; stroke-width: 1.5; stroke-linecap: square"/>
    <g clip-path="url(#pc008b7f87c)">
     <use xlink:href="#m8cd368d816" x="1329.232017" y="40.205011" style="fill: #ff0000; stroke: #ff0000; stroke-linejoin: bevel"/>
    </g>
   </g>
   <g id="line2d_123">
    <path d="M 1114.478428 235.560533 
" clip-path="url(#pc008b7f87c)" style="fill: none; stroke: #ff0000; stroke-width: 1.5; stroke-linecap: square"/>
    <g clip-path="url(#pc008b7f87c)">
     <use xlink:href="#m8cd368d816" x="1114.478428" y="235.560533" style="fill: #ff0000; stroke: #ff0000; stroke-linejoin: bevel"/>
    </g>
   </g>
   <g id="line2d_124">
    <path d="M 892.928039 461.239625 
" clip-path="url(#pc008b7f87c)" style="fill: none; stroke: #ff0000; stroke-width: 1.5; stroke-linecap: square"/>
    <g clip-path="url(#pc008b7f87c)">
     <use xlink:href="#m8cd368d816" x="892.928039" y="461.239625" style="fill: #ff0000; stroke: #ff0000; stroke-linejoin: bevel"/>
    </g>
   </g>
  </g>
 </g>
 <defs>
  <clipPath id="pc008b7f87c">
   <rect x="0" y="0" width="1440" height="1440"/>
  </clipPath>
 </defs>
</svg>
