<?xml version="1.0" encoding="utf-8" standalone="no"?>
<!DOCTYPE svg PUBLIC "-//W3C//DTD SVG 1.1//EN"
  "http://www.w3.org/Graphics/SVG/1.1/DTD/svg11.dtd">
<svg xmlns:xlink="http://www.w3.org/1999/xlink" width="1440pt" height="1440pt" viewBox="0 0 1440 1440" xmlns="http://www.w3.org/2000/svg" version="1.1">
 <metadata>
  <rdf:RDF xmlns:dc="http://purl.org/dc/elements/1.1/" xmlns:cc="http://creativecommons.org/ns#" xmlns:rdf="http://www.w3.org/1999/02/22-rdf-syntax-ns#">
   <cc:Work>
    <dc:type rdf:resource="http://purl.org/dc/dcmitype/StillImage"/>
    <dc:date>2026-02-27T11:04:57.320138</dc:date>
    <dc:format>image/svg+xml</dc:format>
    <dc:creator>
     <cc:Agent>
      <dc:title>Matplotlib v3.7.3, https://matplotlib.org/</dc:title>
     </cc:Agent>
    </dc:creator>
   </cc:Work>
  </rdf:RDF>
 </metadata>
 <defs>
  <style type="text/css">*{stroke-linejoin: round; stroke-linecap: butt}</style>
 </defs>
 <g id="figure_1">
  <g id="patch_1">
   <path d="M 0 1440 
L 1440 1440 
L 1440 0 
L 0 0 
z
" style="fill: #ffffff"/>
  </g>
  <g id="axes_1">
   <g id="line2d_1">
    <path d="M 1195.979509 148.72801 
L 847.935368 452.955537 
" clip-path="url(#p03553b801b)" style="fill: none; stroke: #7a7a7a; stroke-width: 3; stroke-linecap: square"/>
   </g>
   <g id="line2d_2">
    <path d="M 1195.979509 112.76394 
L 807.446153 452.955537 
" clip-path="url(#p03553b801b)" style="fill: none; stroke: #7a7a7a; stroke-width: 3; stroke-linecap: square"/>
   </g>
   <g id="line2d_3">
    <path d="M 696.628515 651.973489 
L 924.644201 452.955537 
" clip-path="url(#p03553b801b)" style="fill: none; stroke: #7a7a7a; stroke-width: 3; stroke-linecap: square"/>
   </g>
   <g id="line2d_4">
    <path d="M 703.392709 681.566302 
L 705.407575 679.554326 
L 712.939337 673.015404 
L 718.024475 668.572291 
L 737.069757 652.141154 
L 782.883976 612.0693 
L 864.821866 540.308825 
L 920.662442 491.434577 
L 965.613146 452.955537 
" clip-path="url(#p03553b801b)" style="fill: none; stroke: #7a7a7a; stroke-width: 3; stroke-linecap: square"/>
   </g>
   <g id="line2d_5">
    <path d="M 881.852282 452.955537 
L 1092.50174 269.530398 
L 1195.979509 178.57232 
" clip-path="url(#p03553b801b)" style="fill: none; stroke: #7a7a7a; stroke-width: 3; stroke-linecap: square"/>
   </g>
   <g id="line2d_6">
    <path d="M 924.644201 452.955537 
L 1195.979509 215.710042 
" clip-path="url(#p03553b801b)" style="fill: none; stroke: #7a7a7a; stroke-width: 3; stroke-linecap: square"/>
   </g>
   <g id="line2d_7">
    <path d="M 484.971624 836.404616 
L 493.175008 829.446533 
L 501.810148 824.66809 
L 510.733127 821.817791 
L 519.800025 820.979468 
L 528.914895 821.985456 
L 537.93382 824.66809 
L 546.71288 829.027371 
L 555.156128 834.895635 
L 563.119647 842.189047 
L 570.459516 850.823777 
L 577.031818 860.63216 
L 582.788578 871.698028 
L 587.489933 883.686051 
L 588.065609 885.698027 
" clip-path="url(#p03553b801b)" style="fill: none; stroke: #7a7a7a; stroke-width: 3; stroke-linecap: square"/>
   </g>
   <g id="line2d_8">
    <path d="M 494.470279 864.572279 
L 500.322985 860.212998 
L 507.90272 858.787849 
L 516.633806 860.296831 
L 525.79665 864.823776 
L 534.815575 872.368686 
L 543.066931 883.015392 
L 549.927071 896.680062 
L 555.34802 915.458504 
" clip-path="url(#p03553b801b)" style="fill: none; stroke: #7a7a7a; stroke-width: 3; stroke-linecap: square"/>
   </g>
   <g id="line2d_9">
    <path d="M 924.644201 452.955537 
L 1195.979509 215.710042 
" clip-path="url(#p03553b801b)" style="fill: none; stroke: #7a7a7a; stroke-width: 3; stroke-linecap: square"/>
   </g>
   <g id="line2d_10">
    <path d="M 965.613146 452.955537 
L 965.757065 452.871705 
L 1195.979509 250.332794 
" clip-path="url(#p03553b801b)" style="fill: none; stroke: #7a7a7a; stroke-width: 3; stroke-linecap: square"/>
   </g>
   <g id="line2d_11">
    <path d="M 847.935368 452.955537 
L 682.668371 597.482475 
" clip-path="url(#p03553b801b)" style="fill: none; stroke: #7a7a7a; stroke-width: 3; stroke-linecap: square"/>
   </g>
   <g id="line2d_12">
    <path d="M 807.446153 452.955537 
L 675.184583 568.308824 
" clip-path="url(#p03553b801b)" style="fill: none; stroke: #7a7a7a; stroke-width: 3; stroke-linecap: square"/>
   </g>
   <g id="line2d_13">
    <path d="M -1 1260.360596 
L 1.019965 1258.584233 
L 188.546436 1095.362685 
" clip-path="url(#p03553b801b)" style="fill: none; stroke: #7a7a7a; stroke-width: 3; stroke-linecap: square"/>
   </g>
   <g id="line2d_14">
    <path d="M -1 1295.595102 
L 106.752465 1201.578248 
L 188.546436 1131.829749 
" clip-path="url(#p03553b801b)" style="fill: none; stroke: #7a7a7a; stroke-width: 3; stroke-linecap: square"/>
   </g>
   <g id="line2d_15">
    <path d="M 188.546436 1059.063286 
L -1 1224.624246 
" clip-path="url(#p03553b801b)" style="fill: none; stroke: #7a7a7a; stroke-width: 3; stroke-linecap: square"/>
   </g>
   <g id="line2d_16">
    <path d="M 188.546436 1030.308797 
L -1 1193.613111 
" clip-path="url(#p03553b801b)" style="fill: none; stroke: #7a7a7a; stroke-width: 3; stroke-linecap: square"/>
   </g>
   <g id="line2d_17">
    <path d="M 601.114266 875.302818 
L 598.95548 865.32677 
L 597.660209 854.5124 
L 597.132506 842.943538 
L 597.51629 830.704018 
L 598.715615 817.877671 
L 600.826428 804.632163 
L 603.848727 791.051326 
L 607.73454 777.302823 
L 612.579813 763.386657 
L 618.384547 749.47049 
L 625.14874 735.638155 
L 632.872394 721.973485 
L 641.60348 708.727977 
L 651.342 695.817798 
L 662.087953 683.410613 
L 673.889312 671.757919 
L 696.628515 651.973489 
" clip-path="url(#p03553b801b)" style="fill: none; stroke: #7a7a7a; stroke-width: 3; stroke-linecap: square"/>
   </g>
   <g id="line2d_18">
    <path d="M 631.481177 849.48246 
L 629.754149 840.680065 
L 628.410905 831.793838 
L 627.739282 825.422581 
L 627.595363 819.470486 
L 627.931174 814.021384 
L 627.883201 811.674079 
L 628.842662 799.183062 
L 630.953474 786.775877 
L 634.215638 774.368692 
L 638.677127 762.129172 
L 644.385915 749.889651 
L 651.342 737.733964 
L 659.64133 725.662108 
L 669.283903 713.674085 
L 680.269721 701.686061 
L 703.392709 681.566302 
" clip-path="url(#p03553b801b)" style="fill: none; stroke: #7a7a7a; stroke-width: 3; stroke-linecap: square"/>
   </g>
   <g id="line2d_19">
    <path d="M -1 1193.934301 
L 1.355776 1191.853698 
L 188.546436 1030.560294 
" clip-path="url(#p03553b801b)" style="fill: none; stroke: #7a7a7a; stroke-width: 3; stroke-linecap: square"/>
   </g>
   <g id="line2d_20">
    <path d="M -1 1224.958653 
L 188.546436 1059.398615 
" clip-path="url(#p03553b801b)" style="fill: none; stroke: #7a7a7a; stroke-width: 3; stroke-linecap: square"/>
   </g>
   <g id="line2d_21">
    <path d="M 807.446153 452.955537 
L 675.184583 568.308824 
" clip-path="url(#p03553b801b)" style="fill: none; stroke: #7a7a7a; stroke-width: 3; stroke-linecap: square"/>
   </g>
   <g id="line2d_22">
    <path d="M 765.613694 452.955537 
L 667.604848 538.716011 
" clip-path="url(#p03553b801b)" style="fill: none; stroke: #7a7a7a; stroke-width: 3; stroke-linecap: square"/>
   </g>
   <g id="line2d_23">
    <path d="M 188.546436 1095.362685 
L 484.971624 836.404616 
" clip-path="url(#p03553b801b)" style="fill: none; stroke: #7a7a7a; stroke-width: 3; stroke-linecap: square"/>
   </g>
   <g id="line2d_24">
    <path d="M 188.546436 1131.829749 
L 494.470279 864.572279 
" clip-path="url(#p03553b801b)" style="fill: none; stroke: #7a7a7a; stroke-width: 3; stroke-linecap: square"/>
   </g>
   <g id="line2d_25">
    <path d="M 881.612417 452.955537 
L 688.808916 621.458521 
" clip-path="url(#p03553b801b)" style="fill: none; stroke: #7a7a7a; stroke-width: 3; stroke-linecap: square"/>
   </g>
   <g id="line2d_26">
    <path d="M 847.935368 452.955537 
L 682.668371 597.482475 
" clip-path="url(#p03553b801b)" style="fill: none; stroke: #7a7a7a; stroke-width: 3; stroke-linecap: square"/>
   </g>
   <g id="line2d_27">
    <path d="M 688.808916 621.458521 
L 612.675759 687.937559 
L 606.343323 695.985463 
L 600.298724 706.045343 
L 594.685883 717.781869 
L 589.552772 731.027377 
L 585.043309 745.53037 
L 581.253442 760.955519 
L 578.231143 777.051327 
L 576.120331 793.566296 
L 575.016952 810.165097 
L 575.016952 826.680066 
L 576.216277 842.775874 
L 578.758846 858.11719 
L 582.644659 872.536351 
L 588.065609 885.698027 
" clip-path="url(#p03553b801b)" style="fill: none; stroke: #7a7a7a; stroke-width: 3; stroke-linecap: square"/>
   </g>
   <g id="line2d_28">
    <path d="M 682.668371 597.482475 
L 613.107516 658.260914 
L 604.37643 665.386662 
L 596.029127 674.272889 
L 588.113582 684.835763 
L 580.677766 696.739954 
L 573.721681 709.90163 
L 567.389244 724.153126 
L 561.584511 739.159113 
L 556.499372 754.835759 
L 552.085856 771.015399 
L 548.391935 787.362703 
L 545.465582 803.877672 
L 543.354769 820.224977 
L 542.107471 836.320784 
L 541.819633 851.913598 
L 542.443282 866.75192 
L 544.074364 880.751919 
L 546.71288 893.662098 
L 550.454774 905.314792 
L 555.34802 915.458504 
" clip-path="url(#p03553b801b)" style="fill: none; stroke: #7a7a7a; stroke-width: 3; stroke-linecap: square"/>
   </g>
   <g id="line2d_29">
    <path d="M 621.454819 953.43455 
L 620.687251 949.242933 
L 601.114266 875.302818 
" clip-path="url(#p03553b801b)" style="fill: none; stroke: #7a7a7a; stroke-width: 3; stroke-linecap: square"/>
   </g>
   <g id="line2d_30">
    <path d="M 656.810923 932.727964 
L 654.796056 928.117186 
L 649.42308 913.195031 
L 639.876452 881.422578 
L 637.381856 872.955513 
L 633.400097 858.284855 
L 631.960907 851.99743 
L 631.481177 849.48246 
" clip-path="url(#p03553b801b)" style="fill: none; stroke: #7a7a7a; stroke-width: 3; stroke-linecap: square"/>
   </g>
   <g id="line2d_31">
    <path d="M 847.887395 452.955537 
L 1195.979509 148.72801 
" clip-path="url(#p03553b801b)" style="fill: none; stroke: #7a7a7a; stroke-width: 3; stroke-linecap: square"/>
   </g>
   <g id="line2d_32">
    <path d="M 881.852282 452.955537 
L 1092.50174 269.530398 
L 1195.979509 178.57232 
" clip-path="url(#p03553b801b)" style="fill: none; stroke: #7a7a7a; stroke-width: 3; stroke-linecap: square"/>
   </g>
   <g id="line2d_33">
    <path d="M 688.808916 621.458521 
L 475.424996 807.985456 
" clip-path="url(#p03553b801b)" style="fill: none; stroke: #7a7a7a; stroke-width: 3; stroke-linecap: square"/>
   </g>
   <g id="line2d_34">
    <path d="M 682.668371 597.482475 
L 467.797289 785.350727 
" clip-path="url(#p03553b801b)" style="fill: none; stroke: #7a7a7a; stroke-width: 3; stroke-linecap: square"/>
   </g>
   <g id="line2d_35">
    <path d="M 188.546436 1030.560294 
L 467.701343 785.015398 
" clip-path="url(#p03553b801b)" style="fill: none; stroke: #7a7a7a; stroke-width: 3; stroke-linecap: square"/>
   </g>
   <g id="line2d_36">
    <path d="M 188.546436 1059.398615 
L 475.424996 807.985456 
" clip-path="url(#p03553b801b)" style="fill: none; stroke: #7a7a7a; stroke-width: 3; stroke-linecap: square"/>
   </g>
   <g id="line2d_37">
    <path d="M 475.424996 807.985456 
L 188.546436 1059.063286 
" clip-path="url(#p03553b801b)" style="fill: none; stroke: #7a7a7a; stroke-width: 3; stroke-linecap: square"/>
   </g>
   <g id="line2d_38">
    <path d="M 467.797289 785.350727 
L 188.546436 1030.308797 
" clip-path="url(#p03553b801b)" style="fill: none; stroke: #7a7a7a; stroke-width: 3; stroke-linecap: square"/>
   </g>
   <g id="line2d_39">
    <path d="M 475.424996 807.985456 
L 609.509541 690.536361 
L 688.808916 621.458521 
" clip-path="url(#p03553b801b)" style="fill: none; stroke: #7a7a7a; stroke-width: 3; stroke-linecap: square"/>
   </g>
   <g id="line2d_40">
    <path d="M 484.971624 836.404616 
L 622.798063 716.356719 
L 696.628515 651.973489 
" clip-path="url(#p03553b801b)" style="fill: none; stroke: #7a7a7a; stroke-width: 3; stroke-linecap: square"/>
   </g>
   <g id="line2d_41">
    <path d="M 188.546436 1030.308797 
L -1 1193.613111 
" clip-path="url(#p03553b801b)" style="fill: none; stroke: #7a7a7a; stroke-width: 3; stroke-linecap: square"/>
   </g>
   <g id="line2d_42">
    <path d="M 188.546436 993.925565 
L -1 1158.296186 
" clip-path="url(#p03553b801b)" style="fill: none; stroke: #7a7a7a; stroke-width: 3; stroke-linecap: square"/>
   </g>
   <g id="line2d_43">
    <path d="M 588.065609 885.698027 
L 593.342639 908.332756 
L 605.096025 955.781855 
L 606.727107 961.650118 
L 606.918999 962.236944 
" clip-path="url(#p03553b801b)" style="fill: none; stroke: #7a7a7a; stroke-width: 3; stroke-linecap: square"/>
   </g>
   <g id="line2d_44">
    <path d="M 555.34802 915.458504 
L 555.875723 917.051318 
L 557.650724 921.159103 
L 559.425726 926.272875 
L 561.632484 933.817784 
L 561.872349 934.73994 
L 563.791269 942.201017 
L 566.861541 956.452514 
L 568.780461 967.853711 
L 569.356137 972.045327 
L 569.835867 978.919578 
L 570.027759 985.961494 
" clip-path="url(#p03553b801b)" style="fill: none; stroke: #7a7a7a; stroke-width: 3; stroke-linecap: square"/>
   </g>
   <g id="line2d_45">
    <path d="M 1195.979509 178.823817 
L 881.612417 452.955537 
" clip-path="url(#p03553b801b)" style="fill: none; stroke: #7a7a7a; stroke-width: 3; stroke-linecap: square"/>
   </g>
   <g id="line2d_46">
    <path d="M 1195.979509 148.72801 
L 847.935368 452.955537 
" clip-path="url(#p03553b801b)" style="fill: none; stroke: #7a7a7a; stroke-width: 3; stroke-linecap: square"/>
   </g>
   <g id="line2d_47">
    <path d="M 484.971624 836.404616 
L 622.798063 716.356719 
L 696.628515 651.973489 
" clip-path="url(#p03553b801b)" style="fill: none; stroke: #7a7a7a; stroke-width: 3; stroke-linecap: square"/>
   </g>
   <g id="line2d_48">
    <path d="M 494.470279 864.572279 
L 703.392709 681.566302 
" clip-path="url(#p03553b801b)" style="fill: none; stroke: #7a7a7a; stroke-width: 3; stroke-linecap: square"/>
   </g>
   <g id="line2d_49">
    <path d="M 188.546436 1059.398615 
L 475.424996 807.985456 
" clip-path="url(#p03553b801b)" style="fill: none; stroke: #7a7a7a; stroke-width: 3; stroke-linecap: square"/>
   </g>
   <g id="line2d_50">
    <path d="M 188.546436 1095.362685 
L 484.971624 836.404616 
" clip-path="url(#p03553b801b)" style="fill: none; stroke: #7a7a7a; stroke-width: 3; stroke-linecap: square"/>
   </g>
   <g id="line2d_51">
    <path d="M 467.797289 785.350727 
L 188.546436 1030.308797 
" clip-path="url(#p03553b801b)" style="fill: none; stroke: #7a7a7a; stroke-width: 3; stroke-linecap: square"/>
   </g>
   <g id="line2d_52">
    <path d="M 458.346607 757.183064 
L 188.546436 993.925565 
" clip-path="url(#p03553b801b)" style="fill: none; stroke: #7a7a7a; stroke-width: 3; stroke-linecap: square"/>
   </g>
   <g id="line2d_53">
    <path d="M 601.114266 875.302818 
L 597.948047 858.033358 
L 593.582504 842.356712 
L 588.161555 828.021383 
L 581.829118 815.278869 
L 574.633168 803.961505 
L 566.813568 794.06929 
L 558.466265 785.686057 
L 549.687206 778.727973 
L 540.668281 773.111207 
L 531.505437 769.003423 
L 522.342594 766.320788 
L 513.323669 764.979471 
L 504.592583 765.063303 
L 496.293253 766.488453 
L 488.521626 769.25492 
L 481.421622 773.446536 
L 467.797289 785.350727 
" clip-path="url(#p03553b801b)" style="fill: none; stroke: #7a7a7a; stroke-width: 3; stroke-linecap: square"/>
   </g>
   <g id="line2d_54">
    <path d="M 631.481177 849.48246 
L 628.171039 835.147131 
L 623.901442 821.650126 
L 618.768331 808.907612 
L 612.819678 797.171086 
L 606.103458 786.189051 
L 598.763588 776.213003 
L 590.896016 767.075279 
L 582.50074 758.943543 
L 573.721681 751.817795 
L 564.558837 745.614203 
L 555.204101 740.50043 
L 545.657474 736.476479 
L 536.0149 733.458515 
L 526.420299 731.530371 
L 516.873671 730.692048 
L 507.470963 731.027377 
L 498.308119 732.536359 
L 489.481086 735.302826 
L 481.037838 739.159113 
L 473.074319 744.356718 
L 458.346607 757.183064 
" clip-path="url(#p03553b801b)" style="fill: none; stroke: #7a7a7a; stroke-width: 3; stroke-linecap: square"/>
   </g>
   <g id="line2d_55">
    <path d="M 467.701343 785.015398 
L 600.682509 668.488459 
L 682.572425 597.147145 
" clip-path="url(#p03553b801b)" style="fill: none; stroke: #7a7a7a; stroke-width: 3; stroke-linecap: square"/>
   </g>
   <g id="line2d_56">
    <path d="M 475.424996 807.985456 
L 609.509541 690.536361 
L 688.808916 621.458521 
" clip-path="url(#p03553b801b)" style="fill: none; stroke: #7a7a7a; stroke-width: 3; stroke-linecap: square"/>
   </g>
   <g id="line2d_57">
    <path d="M 688.808916 621.458521 
L 881.852282 452.955537 
" clip-path="url(#p03553b801b)" style="fill: none; stroke: #7a7a7a; stroke-width: 3; stroke-linecap: square"/>
   </g>
   <g id="line2d_58">
    <path d="M 696.628515 651.973489 
L 924.644201 452.955537 
" clip-path="url(#p03553b801b)" style="fill: none; stroke: #7a7a7a; stroke-width: 3; stroke-linecap: square"/>
   </g>
   <g id="line2d_59">
    <path d="M 458.346607 757.183064 
L 188.546436 993.925565 
" clip-path="url(#p03553b801b)" style="fill: none; stroke: #7a7a7a; stroke-width: 3; stroke-linecap: square"/>
   </g>
   <g id="line2d_60">
    <path d="M 448.943899 729.266898 
L 188.546436 956.704011 
" clip-path="url(#p03553b801b)" style="fill: none; stroke: #7a7a7a; stroke-width: 3; stroke-linecap: square"/>
   </g>
   <g id="line2d_61">
    <path d="M 1195.979509 112.76394 
L 807.446153 452.955537 
" clip-path="url(#p03553b801b)" style="fill: none; stroke: #7a7a7a; stroke-width: 3; stroke-linecap: square"/>
   </g>
   <g id="line2d_62">
    <path d="M 1195.979509 50.728016 
L 989.263837 250.248962 
L 961.19963 275.901655 
L 920.182712 315.219018 
L 898.738779 335.42261 
L 870.96241 360.488477 
L 765.613694 452.955537 
" clip-path="url(#p03553b801b)" style="fill: none; stroke: #7a7a7a; stroke-width: 3; stroke-linecap: square"/>
   </g>
   <g id="line2d_63">
    <path d="M -1 1224.958653 
L 188.546436 1059.398615 
" clip-path="url(#p03553b801b)" style="fill: none; stroke: #7a7a7a; stroke-width: 3; stroke-linecap: square"/>
   </g>
   <g id="line2d_64">
    <path d="M -1 1260.360596 
L 1.019965 1258.584233 
L 188.546436 1095.362685 
" clip-path="url(#p03553b801b)" style="fill: none; stroke: #7a7a7a; stroke-width: 3; stroke-linecap: square"/>
   </g>
   <g id="line2d_65">
    <path d="M 682.668371 597.482475 
L 467.797289 785.350727 
" clip-path="url(#p03553b801b)" style="fill: none; stroke: #7a7a7a; stroke-width: 3; stroke-linecap: square"/>
   </g>
   <g id="line2d_66">
    <path d="M 675.184583 568.308824 
L 458.346607 757.183064 
" clip-path="url(#p03553b801b)" style="fill: none; stroke: #7a7a7a; stroke-width: 3; stroke-linecap: square"/>
   </g>
   <g id="line2d_67">
    <path d="M 188.546436 993.925565 
L -1 1158.296186 
" clip-path="url(#p03553b801b)" style="fill: none; stroke: #7a7a7a; stroke-width: 3; stroke-linecap: square"/>
   </g>
   <g id="line2d_68">
    <path d="M 188.546436 956.704011 
L -1 1122.64053 
" clip-path="url(#p03553b801b)" style="fill: none; stroke: #7a7a7a; stroke-width: 3; stroke-linecap: square"/>
   </g>
   <g id="line2d_69">
    <path d="M 682.572425 597.147145 
L 847.887395 452.955537 
" clip-path="url(#p03553b801b)" style="fill: none; stroke: #7a7a7a; stroke-width: 3; stroke-linecap: square"/>
   </g>
   <g id="line2d_70">
    <path d="M 688.808916 621.458521 
L 881.852282 452.955537 
" clip-path="url(#p03553b801b)" style="fill: none; stroke: #7a7a7a; stroke-width: 3; stroke-linecap: square"/>
   </g>
   <g id="line2d_71">
    <path d="M 675.184583 568.308824 
L 458.346607 757.183064 
" clip-path="url(#p03553b801b)" style="fill: none; stroke: #7a7a7a; stroke-width: 3; stroke-linecap: square"/>
   </g>
   <g id="line2d_72">
    <path d="M 667.604848 538.716011 
L 633.496043 569.063315 
L 593.534531 603.099241 
L 448.943899 729.266898 
" clip-path="url(#p03553b801b)" style="fill: none; stroke: #7a7a7a; stroke-width: 3; stroke-linecap: square"/>
   </g>
   <g id="line2d_73">
    <path d="M 776.644979 514.701548 
L 959.275603 276.635434 
" clip-path="url(#p03553b801b)" style="fill: none; stroke-dasharray: 32,8,5,8; stroke-dashoffset: 0; stroke: #1e90ff; stroke-width: 5"/>
   </g>
   <g id="line2d_74">
    <path d="M 959.275603 382.177493 
L 900.56782 503.853591 
" clip-path="url(#p03553b801b)" style="fill: none; stroke-dasharray: 32,8,5,8; stroke-dashoffset: 0; stroke: #1e90ff; stroke-width: 5"/>
   </g>
   <g id="line2d_75">
    <path d="M 539.572726 776.295362 
L 758.298467 588.648888 
" clip-path="url(#p03553b801b)" style="fill: none; stroke-dasharray: 32,8,5,8; stroke-dashoffset: 0; stroke: #1e90ff; stroke-width: 5"/>
   </g>
   <g id="line2d_76">
    <path d="M 95.946007 1188.503009 
L 427.975175 903.295407 
" clip-path="url(#p03553b801b)" style="fill: none; stroke-dasharray: 32,8,5,8; stroke-dashoffset: 0; stroke: #1e90ff; stroke-width: 5"/>
   </g>
   <g id="line2d_77">
    <path d="M 296.761515 1003.994236 
L 626.872817 703.839034 
" clip-path="url(#p03553b801b)" style="fill: none; stroke-dasharray: 32,8,5,8; stroke-dashoffset: 0; stroke: #1e90ff; stroke-width: 5"/>
   </g>
   <g id="line2d_78">
    <path d="M 776.644979 514.701548 
" clip-path="url(#p03553b801b)" style="fill: none; stroke: #0000ff; stroke-width: 1.5; stroke-linecap: square"/>
    <defs>
     <path id="m3509dfb00c" d="M 0 10 
C 2.652031 10 5.195799 8.946337 7.071068 7.071068 
C 8.946337 5.195799 10 2.652031 10 0 
C 10 -2.652031 8.946337 -5.195799 7.071068 -7.071068 
C 5.195799 -8.946337 2.652031 -10 0 -10 
C -2.652031 -10 -5.195799 -8.946337 -7.071068 -7.071068 
C -8.946337 -5.195799 -10 -2.652031 -10 0 
C -10 2.652031 -8.946337 5.195799 -7.071068 7.071068 
C -5.195799 8.946337 -2.652031 10 0 10 
z
" style="stroke: #0000ff"/>
    </defs>
    <g clip-path="url(#p03553b801b)">
     <use xlink:href="#m3509dfb00c" x="776.644979" y="514.701548" style="fill: #0000ff; stroke: #0000ff"/>
    </g>
   </g>
   <g id="line2d_79">
    <path d="M 959.275603 382.177493 
" clip-path="url(#p03553b801b)" style="fill: none; stroke: #0000ff; stroke-width: 1.5; stroke-linecap: square"/>
    <g clip-path="url(#p03553b801b)">
     <use xlink:href="#m3509dfb00c" x="959.275603" y="382.177493" style="fill: #0000ff; stroke: #0000ff"/>
    </g>
   </g>
   <g id="line2d_80">
    <path d="M 539.572726 776.295362 
" clip-path="url(#p03553b801b)" style="fill: none; stroke: #0000ff; stroke-width: 1.5; stroke-linecap: square"/>
    <g clip-path="url(#p03553b801b)">
     <use xlink:href="#m3509dfb00c" x="539.572726" y="776.295362" style="fill: #0000ff; stroke: #0000ff"/>
    </g>
   </g>
   <g id="line2d_81">
    <path d="M 95.946007 1188.503009 
" clip-path="url(#p03553b801b)" style="fill: none; stroke: #0000ff; stroke-width: 1.5; stroke-linecap: square"/>
    <g clip-path="url(#p03553b801b)">
     <use xlink:href="#m3509dfb00c" x="95.946007" y="1188.503009" style="fill: #0000ff; stroke: #0000ff"/>
    </g>
   </g>
   <g id="line2d_82">
    <path d="M 296.761515 1003.994236 
" clip-path="url(#p03553b801b)" style="fill: none; stroke: #0000ff; stroke-width: 1.5; stroke-linecap: square"/>
    <g clip-path="url(#p03553b801b)">
     <use xlink:href="#m3509dfb00c" x="296.761515" y="1003.994236" style="fill: #0000ff; stroke: #0000ff"/>
    </g>
   </g>
   <g id="line2d_83">
    <path d="M 959.275603 276.635434 
" clip-path="url(#p03553b801b)" style="fill: none; stroke: #ff0000; stroke-width: 1.5; stroke-linecap: square"/>
    <defs>
     <path id="mb9c1cd24ff" d="M 0 -10 
L -2.24514 -3.09017 
L -9.510565 -3.09017 
L -3.632713 1.18034 
L -5.877853 8.09017 
L -0 3.81966 
L 5.877853 8.09017 
L 3.632713 1.18034 
L 9.510565 -3.09017 
L 2.24514 -3.09017 
z
" style="stroke: #ff0000; stroke-linejoin: bevel"/>
    </defs>
    <g clip-path="url(#p03553b801b)">
     <use xlink:href="#mb9c1cd24ff" x="959.275603" y="276.635434" style="fill: #ff0000; stroke: #ff0000; stroke-linejoin: bevel"/>
    </g>
   </g>
   <g id="line2d_84">
    <path d="M 900.56782 503.853591 
" clip-path="url(#p03553b801b)" style="fill: none; stroke: #ff0000; stroke-width: 1.5; stroke-linecap: square"/>
    <g clip-path="url(#p03553b801b)">
     <use xlink:href="#mb9c1cd24ff" x="900.56782" y="503.853591" style="fill: #ff0000; stroke: #ff0000; stroke-linejoin: bevel"/>
    </g>
   </g>
   <g id="line2d_85">
    <path d="M 758.298467 588.648888 
" clip-path="url(#p03553b801b)" style="fill: none; stroke: #ff0000; stroke-width: 1.5; stroke-linecap: square"/>
    <g clip-path="url(#p03553b801b)">
     <use xlink:href="#mb9c1cd24ff" x="758.298467" y="588.648888" style="fill: #ff0000; stroke: #ff0000; stroke-linejoin: bevel"/>
    </g>
   </g>
   <g id="line2d_86">
    <path d="M 427.975175 903.295407 
" clip-path="url(#p03553b801b)" style="fill: none; stroke: #ff0000; stroke-width: 1.5; stroke-linecap: square"/>
    <g clip-path="url(#p03553b801b)">
     <use xlink:href="#mb9c1cd24ff" x="427.975175" y="903.295407" style="fill: #ff0000; stroke: #ff0000; stroke-linejoin: bevel"/>
    </g>
   </g>
   <g id="line2d_87">
    <path d="M 626.872817 703.839034 
" clip-path="url(#p03553b801b)" style="fill: none; stroke: #ff0000; stroke-width: 1.5; stroke-linecap: square"/>
    <g clip-path="url(#p03553b801b)">
     <use xlink:href="#mb9c1cd24ff" x="626.872817" y="703.839034" style="fill: #ff0000; stroke: #ff0000; stroke-linejoin: bevel"/>
    </g>
   </g>
  </g>
 </g>
 <defs>
  <clipPath id="p03553b801b">
   <rect x="0" y="0" width="1440" height="1440"/>
  </clipPath>
 </defs>
</svg>
