<?xml version="1.0" encoding="utf-8" standalone="no"?>
<!DOCTYPE svg PUBLIC "-//W3C//DTD SVG 1.1//EN"
  "http://www.w3.org/Graphics/SVG/1.1/DTD/svg11.dtd">
<svg xmlns:xlink="http://www.w3.org/1999/xlink" width="1440pt" height="1440pt" viewBox="0 0 1440 1440" xmlns="http://www.w3.org/2000/svg" version="1.1">
 <metadata>
  <rdf:RDF xmlns:dc="http://purl.org/dc/elements/1.1/" xmlns:cc="http://creativecommons.org/ns#" xmlns:rdf="http://www.w3.org/1999/02/22-rdf-syntax-ns#">
   <cc:Work>
    <dc:type rdf:resource="http://purl.org/dc/dcmitype/StillImage"/>
    <dc:date>2026-02-27T11:04:59.750093</dc:date>
    <dc:format>image/svg+xml</dc:format>
    <dc:creator>
     <cc:Agent>
      <dc:title>Matplotlib v3.7.3, https://matplotlib.org/</dc:title>
     </cc:Agent>
    </dc:creator>
   </cc:Work>
  </rdf:RDF>
 </metadata>
 <defs>
  <style type="text/css">*{stroke-linejoin: round; stroke-linecap: butt}</style>
 </defs>
 <g id="figure_1">
  <g id="patch_1">
   <path d="M 0 1440 
L 1440 1440 
L 1440 0 
L 0 0 
z
" style="fill: #ffffff"/>
  </g>
  <g id="axes_1">
   <g id="line2d_1">
    <path d="M 1265.651078 1172.801045 
L 1278.415129 1185.806537 
L 1290.992843 1197.804561 
L 1303.384221 1208.703529 
L 1316.055104 1218.045502 
L 1329.09866 1225.555715 
L 1342.794393 1230.959405 
L 1357.514977 1233.89022 
L 1373.353581 1234.073396 
L 1390.589708 1231.142581 
L 1409.502864 1224.9146 
L 1430.372553 1214.931511 
L 1441 1208.460176 
" clip-path="url(#p4de8aba93f)" style="fill: none; stroke: #7a7a7a; stroke-width: 3; stroke-linecap: square"/>
   </g>
   <g id="line2d_2">
    <path d="M 1226.054569 1208.520353 
L 1237.421096 1219.510909 
L 1249.160297 1230.135114 
L 1261.551675 1240.026614 
L 1274.408894 1249.002235 
L 1287.918291 1256.878801 
L 1301.986697 1263.381546 
L 1316.80045 1268.235709 
L 1332.359548 1271.3497 
L 1348.570825 1272.357167 
L 1365.713784 1271.166524 
L 1383.602089 1267.411417 
L 1402.422076 1261.000259 
L 1422.080578 1251.566698 
L 1441 1240.173012 
" clip-path="url(#p4de8aba93f)" style="fill: none; stroke: #7a7a7a; stroke-width: 3; stroke-linecap: square"/>
   </g>
   <g id="line2d_3">
    <path d="M 1231.899621 1441 
L 1303.011548 1373.287109 
" clip-path="url(#p4de8aba93f)" style="fill: none; stroke: #7a7a7a; stroke-width: 3; stroke-linecap: square"/>
   </g>
   <g id="line2d_4">
    <path d="M 1253.781593 1441 
L 1312.51471 1385.559897 
" clip-path="url(#p4de8aba93f)" style="fill: none; stroke: #7a7a7a; stroke-width: 3; stroke-linecap: square"/>
   </g>
   <g id="line2d_5">
    <path d="M 1168.010746 1431.994997 
L 1266.116919 1338.941621 
" clip-path="url(#p4de8aba93f)" style="fill: none; stroke: #7a7a7a; stroke-width: 3; stroke-linecap: square"/>
   </g>
   <g id="line2d_6">
    <path d="M 1195.799669 1441 
L 1283.912056 1356.709687 
" clip-path="url(#p4de8aba93f)" style="fill: none; stroke: #7a7a7a; stroke-width: 3; stroke-linecap: square"/>
   </g>
   <g id="line2d_7">
    <path d="M 1266.116919 1338.941621 
L 1168.010746 1431.994997 
" clip-path="url(#p4de8aba93f)" style="fill: none; stroke: #7a7a7a; stroke-width: 3; stroke-linecap: square"/>
   </g>
   <g id="line2d_8">
    <path d="M 1246.365249 1317.418448 
L 1197.451915 1365.685308 
L 1147.700067 1413.127875 
" clip-path="url(#p4de8aba93f)" style="fill: none; stroke: #7a7a7a; stroke-width: 3; stroke-linecap: square"/>
   </g>
   <g id="line2d_9">
    <path d="M 1265.651078 1172.801045 
L 1279.533148 1185.989713 
L 1290.340665 1201.742843 
L 1298.166799 1219.236145 
L 1303.011548 1237.828503 
L 1304.968081 1256.695625 
L 1304.129567 1275.196394 
L 1300.682342 1292.598108 
L 1294.533237 1308.076475 
L 1285.868589 1320.990379 
L 1274.781567 1330.607115 
L 1266.116919 1338.941621 
" clip-path="url(#p4de8aba93f)" style="fill: none; stroke: #7a7a7a; stroke-width: 3; stroke-linecap: square"/>
   </g>
   <g id="line2d_10">
    <path d="M 1226.054569 1208.520353 
L 1241.800004 1224.45666 
L 1251.675839 1234.073396 
L 1252.980195 1236.363096 
L 1256.613757 1241.766786 
L 1259.1293 1247.353652 
L 1260.526824 1249.734939 
L 1264.905732 1266.403949 
L 1265.185236 1282.706608 
L 1262.017516 1297.543859 
L 1255.588906 1309.541883 
L 1246.365249 1317.418448 
" clip-path="url(#p4de8aba93f)" style="fill: none; stroke: #7a7a7a; stroke-width: 3; stroke-linecap: square"/>
   </g>
   <g id="line2d_11">
    <path d="M 1265.651078 1172.801045 
L 1276.272259 1183.058898 
L 1283.912056 1196.980269 
L 1288.4773 1213.740867 
L 1289.874824 1232.241637 
L 1288.104627 1251.47511 
L 1283.259878 1270.250644 
L 1275.15424 1287.743946 
L 1263.880881 1302.855961 
L 1249.346633 1314.579221 
L 1246.365249 1317.418448 
" clip-path="url(#p4de8aba93f)" style="fill: none; stroke: #7a7a7a; stroke-width: 3; stroke-linecap: square"/>
   </g>
   <g id="line2d_12">
    <path d="M 1226.054569 1208.520353 
L 1248.601287 1231.234169 
L 1253.2597 1236.729448 
L 1256.613757 1241.766786 
L 1258.849795 1246.52936 
L 1260.899497 1251.93305 
L 1262.110684 1257.519916 
L 1262.576525 1265.304894 
L 1262.017516 1272.448755 
L 1260.526824 1278.676737 
L 1258.197617 1284.446779 
L 1254.936728 1288.843002 
L 1248.880792 1294.887808 
L 1236.489414 1306.611068 
" clip-path="url(#p4de8aba93f)" style="fill: none; stroke: #7a7a7a; stroke-width: 3; stroke-linecap: square"/>
   </g>
   <g id="line2d_13">
    <path d="M 1441 1133.365246 
L 1422.360083 1151.461049 
" clip-path="url(#p4de8aba93f)" style="fill: none; stroke: #7a7a7a; stroke-width: 3; stroke-linecap: square"/>
   </g>
   <g id="line2d_14">
    <path d="M 1441 1111.647468 
L 1411.179892 1140.012553 
" clip-path="url(#p4de8aba93f)" style="fill: none; stroke: #7a7a7a; stroke-width: 3; stroke-linecap: square"/>
   </g>
   <g id="line2d_15">
    <path clip-path="url(#p4de8aba93f)" style="fill: none; stroke: #7a7a7a; stroke-width: 3; stroke-linecap: square"/>
   </g>
   <g id="line2d_16">
    <path clip-path="url(#p4de8aba93f)" style="fill: none; stroke: #7a7a7a; stroke-width: 3; stroke-linecap: square"/>
   </g>
   <g id="line2d_17">
    <path d="M 1063.382796 967.827171 
L 1064.873488 969.384167 
L 1265.651078 1172.801045 
" clip-path="url(#p4de8aba93f)" style="fill: none; stroke: #7a7a7a; stroke-width: 3; stroke-linecap: square"/>
   </g>
   <g id="line2d_18">
    <path d="M 1063.382796 1044.669477 
L 1064.966656 1046.226473 
L 1226.054569 1208.520353 
" clip-path="url(#p4de8aba93f)" style="fill: none; stroke: #7a7a7a; stroke-width: 3; stroke-linecap: square"/>
   </g>
   <g id="line2d_19">
    <path d="M 1283.912056 1356.709687 
L 1441 1212.303787 
" clip-path="url(#p4de8aba93f)" style="fill: none; stroke: #7a7a7a; stroke-width: 3; stroke-linecap: square"/>
   </g>
   <g id="line2d_20">
    <path d="M 1303.011548 1373.287109 
L 1441 1244.996875 
" clip-path="url(#p4de8aba93f)" style="fill: none; stroke: #7a7a7a; stroke-width: 3; stroke-linecap: square"/>
   </g>
   <g id="line2d_21">
    <path d="M 1246.365249 1317.418448 
L 1197.451915 1365.685308 
L 1147.700067 1413.127875 
" clip-path="url(#p4de8aba93f)" style="fill: none; stroke: #7a7a7a; stroke-width: 3; stroke-linecap: square"/>
   </g>
   <g id="line2d_22">
    <path d="M 1236.489414 1306.611068 
L 1136.147203 1402.320495 
" clip-path="url(#p4de8aba93f)" style="fill: none; stroke: #7a7a7a; stroke-width: 3; stroke-linecap: square"/>
   </g>
   <g id="line2d_23">
    <path d="M 1441 1168.926133 
L 1439.223537 1170.602934 
" clip-path="url(#p4de8aba93f)" style="fill: none; stroke: #7a7a7a; stroke-width: 3; stroke-linecap: square"/>
   </g>
   <g id="line2d_24">
    <path d="M 1441 1133.365246 
L 1422.360083 1151.461049 
" clip-path="url(#p4de8aba93f)" style="fill: none; stroke: #7a7a7a; stroke-width: 3; stroke-linecap: square"/>
   </g>
   <g id="line2d_25">
    <path d="M 1439.223537 1170.602934 
L 1422.732756 1184.615893 
L 1405.123956 1194.965334 
L 1386.76981 1201.926019 
L 1368.136158 1205.864302 
L 1349.409339 1206.963358 
L 1331.241529 1205.406362 
L 1314.005402 1201.559668 
L 1297.980462 1195.698038 
L 1283.632551 1188.004648 
L 1271.520678 1178.754263 
L 1265.651078 1172.801045 
" clip-path="url(#p4de8aba93f)" style="fill: none; stroke: #7a7a7a; stroke-width: 3; stroke-linecap: square"/>
   </g>
   <g id="line2d_26">
    <path d="M 1422.360083 1151.461049 
L 1410.900388 1161.169373 
L 1395.80713 1167.946883 
L 1378.571003 1171.335638 
L 1360.310025 1170.602934 
L 1342.608057 1165.38242 
L 1326.583117 1155.124567 
L 1313.819066 1139.188261 
L 1307.949466 1133.235043 
" clip-path="url(#p4de8aba93f)" style="fill: none; stroke: #7a7a7a; stroke-width: 3; stroke-linecap: square"/>
   </g>
   <g id="line2d_27">
    <path d="M 1266.116919 1338.941621 
L 1274.781567 1330.607115 
L 1285.868589 1320.990379 
L 1294.533237 1308.076475 
L 1300.682342 1292.598108 
L 1304.129567 1275.196394 
L 1304.968081 1256.695625 
L 1303.011548 1237.828503 
L 1298.166799 1219.236145 
L 1290.340665 1201.742843 
L 1279.533148 1185.989713 
L 1265.651078 1172.801045 
" clip-path="url(#p4de8aba93f)" style="fill: none; stroke: #7a7a7a; stroke-width: 3; stroke-linecap: square"/>
   </g>
   <g id="line2d_28">
    <path d="M 1283.912056 1356.709687 
L 1292.576704 1348.466769 
L 1306.365605 1337.018273 
L 1318.197974 1323.554842 
L 1327.887472 1308.259651 
L 1335.713606 1291.590641 
L 1341.490037 1273.914163 
L 1345.309936 1255.688157 
L 1347.173301 1237.187387 
L 1347.173301 1218.778206 
L 1345.216768 1201.01014 
L 1341.490037 1184.066366 
L 1335.806774 1168.496411 
L 1328.353314 1154.57504 
L 1325.744602 1151.186285 
L 1307.949466 1133.235043 
" clip-path="url(#p4de8aba93f)" style="fill: none; stroke: #7a7a7a; stroke-width: 3; stroke-linecap: square"/>
   </g>
   <g id="line2d_29">
    <path d="M 1265.651078 1172.801045 
L 1297.607789 1205.314774 
L 1313.819066 1216.488506 
L 1330.962025 1225.830479 
L 1348.663993 1233.340693 
L 1366.645466 1238.835971 
L 1384.720108 1242.133138 
L 1402.515245 1243.323781 
L 1419.658204 1242.133138 
L 1435.86948 1238.378031 
L 1441 1236.261007 
" clip-path="url(#p4de8aba93f)" style="fill: none; stroke: #7a7a7a; stroke-width: 3; stroke-linecap: square"/>
   </g>
   <g id="line2d_30">
    <path d="M 1226.054569 1208.520353 
L 1248.601287 1231.234169 
L 1249.812474 1232.607989 
L 1258.011281 1241.034082 
L 1268.166621 1252.665754 
L 1280.371662 1262.282491 
L 1294.3469 1269.97588 
L 1309.812831 1275.654334 
L 1326.583117 1279.226265 
L 1344.378253 1280.691673 
L 1362.825568 1280.142145 
L 1381.738724 1277.486094 
L 1400.838216 1272.631931 
L 1419.937708 1265.671246 
L 1438.664528 1256.512449 
L 1441 1255.033158 
" clip-path="url(#p4de8aba93f)" style="fill: none; stroke: #7a7a7a; stroke-width: 3; stroke-linecap: square"/>
   </g>
   <g id="line2d_31">
    <path d="M 1439.223537 1170.602934 
L 1266.116919 1338.941621 
" clip-path="url(#p4de8aba93f)" style="fill: none; stroke: #7a7a7a; stroke-width: 3; stroke-linecap: square"/>
   </g>
   <g id="line2d_32">
    <path d="M 1422.360083 1151.461049 
L 1246.365249 1317.418448 
" clip-path="url(#p4de8aba93f)" style="fill: none; stroke: #7a7a7a; stroke-width: 3; stroke-linecap: square"/>
   </g>
   <g id="line2d_33">
    <path d="M 1265.651078 1172.801045 
L 1064.873488 969.384167 
L 1063.382796 967.827171 
" clip-path="url(#p4de8aba93f)" style="fill: none; stroke: #7a7a7a; stroke-width: 3; stroke-linecap: square"/>
   </g>
   <g id="line2d_34">
    <path d="M 1307.949466 1133.235043 
L 1064.873488 887.962463 
L 1063.382796 886.497055 
" clip-path="url(#p4de8aba93f)" style="fill: none; stroke: #7a7a7a; stroke-width: 3; stroke-linecap: square"/>
   </g>
   <g id="line2d_35">
    <path d="M 1303.011548 1373.287109 
L 1441 1244.996875 
" clip-path="url(#p4de8aba93f)" style="fill: none; stroke: #7a7a7a; stroke-width: 3; stroke-linecap: square"/>
   </g>
   <g id="line2d_36">
    <path d="M 1312.51471 1385.559897 
L 1441 1262.970953 
" clip-path="url(#p4de8aba93f)" style="fill: none; stroke: #7a7a7a; stroke-width: 3; stroke-linecap: square"/>
   </g>
   <g id="line2d_37">
    <path d="M 1422.360083 1151.461049 
L 1246.365249 1317.418448 
" clip-path="url(#p4de8aba93f)" style="fill: none; stroke: #7a7a7a; stroke-width: 3; stroke-linecap: square"/>
   </g>
   <g id="line2d_38">
    <path d="M 1411.179892 1140.012553 
L 1396.086635 1155.399331 
L 1389.564857 1161.352549 
L 1236.489414 1306.611068 
" clip-path="url(#p4de8aba93f)" style="fill: none; stroke: #7a7a7a; stroke-width: 3; stroke-linecap: square"/>
   </g>
   <g id="line2d_39">
    <path d="M 1195.799669 1441 
L 1283.912056 1356.709687 
" clip-path="url(#p4de8aba93f)" style="fill: none; stroke: #7a7a7a; stroke-width: 3; stroke-linecap: square"/>
   </g>
   <g id="line2d_40">
    <path d="M 1231.899621 1441 
L 1303.011548 1373.287109 
" clip-path="url(#p4de8aba93f)" style="fill: none; stroke: #7a7a7a; stroke-width: 3; stroke-linecap: square"/>
   </g>
   <g id="line2d_41">
    <path d="M 1422.360083 1151.461049 
L 1413.136426 1160.43667 
L 1400.09287 1173.991689 
L 1384.906444 1184.615893 
L 1368.136158 1192.217695 
L 1350.527358 1197.071857 
L 1332.732222 1199.17838 
L 1315.589263 1198.72044 
L 1299.564323 1195.698038 
L 1285.402748 1190.294347 
L 1273.943052 1182.692546 
L 1265.651078 1172.801045 
" clip-path="url(#p4de8aba93f)" style="fill: none; stroke: #7a7a7a; stroke-width: 3; stroke-linecap: square"/>
   </g>
   <g id="line2d_42">
    <path d="M 1411.179892 1140.012553 
L 1396.086635 1155.399331 
L 1389.564857 1161.352549 
L 1382.949911 1164.832892 
L 1375.123778 1167.672119 
L 1367.856654 1168.862763 
L 1362.080222 1169.137527 
L 1356.396958 1168.679587 
L 1348.384488 1166.756239 
L 1340.931028 1163.642248 
L 1336.924793 1161.169373 
L 1332.545885 1157.689031 
L 1327.607967 1153.109632 
L 1307.949466 1133.235043 
" clip-path="url(#p4de8aba93f)" style="fill: none; stroke: #7a7a7a; stroke-width: 3; stroke-linecap: square"/>
   </g>
   <g id="line2d_43">
    <path d="M 1063.382796 967.827171 
L 1061.705767 966.178588 
L 1061.239926 965.720648 
L 1060.867253 965.354296 
L 316.918735 215.981536 
L 148.191025 48.100789 
L 146.886669 46.72697 
" clip-path="url(#p4de8aba93f)" style="fill: none; stroke: #7a7a7a; stroke-width: 3; stroke-linecap: square"/>
   </g>
   <g id="line2d_44">
    <path d="M 1063.382796 886.497055 
L 1061.705767 884.756884 
L 1061.239926 884.298944 
L 1060.774085 883.841004 
L 993.506604 816.615435 
L 967.792166 790.421276 
L 228.874734 47.917613 
L 227.663546 46.72697 
" clip-path="url(#p4de8aba93f)" style="fill: none; stroke: #7a7a7a; stroke-width: 3; stroke-linecap: square"/>
   </g>
   <g id="line2d_45">
    <path d="M 146.886669 46.72697 
L 148.191025 48.100789 
L 316.918735 215.981536 
L 1060.867253 965.354296 
L 1061.239926 965.720648 
L 1061.705767 966.178588 
L 1063.382796 967.827171 
" clip-path="url(#p4de8aba93f)" style="fill: none; stroke: #7a7a7a; stroke-width: 3; stroke-linecap: square"/>
   </g>
   <g id="line2d_46">
    <path d="M 73.563252 46.72697 
L 75.053944 48.192377 
L 589.901723 566.030752 
L 609.28072 585.264226 
L 719.032924 695.169788 
L 843.412545 821.011657 
L 876.394107 853.067446 
L 918.972 898.037139 
L 1060.867253 1042.196602 
L 1061.333094 1042.562954 
L 1061.798935 1043.020894 
L 1063.382796 1044.669477 
" clip-path="url(#p4de8aba93f)" style="fill: none; stroke: #7a7a7a; stroke-width: 3; stroke-linecap: square"/>
   </g>
   <g id="line2d_47">
    <path d="M 1300.247617 1165.236094 
L 1011.571601 859.086091 
" clip-path="url(#p4de8aba93f)" style="fill: none; stroke-dasharray: 32,8,5,8; stroke-dashoffset: 0; stroke: #1e90ff; stroke-width: 5"/>
   </g>
   <g id="line2d_48">
    <path d="M 943.415019 907.435303 
L 936.199939 906.159646 
" clip-path="url(#p4de8aba93f)" style="fill: none; stroke-dasharray: 32,8,5,8; stroke-dashoffset: 0; stroke: #1e90ff; stroke-width: 5"/>
   </g>
   <g id="line2d_49">
    <path d="M 508.180971 442.558163 
L 584.075795 517.486558 
" clip-path="url(#p4de8aba93f)" style="fill: none; stroke-dasharray: 32,8,5,8; stroke-dashoffset: 0; stroke: #1e90ff; stroke-width: 5"/>
   </g>
   <g id="line2d_50">
    <path d="M 875.949921 750.850846 
L 567.557537 436.750623 
" clip-path="url(#p4de8aba93f)" style="fill: none; stroke-dasharray: 32,8,5,8; stroke-dashoffset: 0; stroke: #1e90ff; stroke-width: 5"/>
   </g>
   <g id="line2d_51">
    <path d="M 189.229821 45.793984 
L 186.33651 45.927587 
" clip-path="url(#p4de8aba93f)" style="fill: none; stroke-dasharray: 32,8,5,8; stroke-dashoffset: 0; stroke: #1e90ff; stroke-width: 5"/>
   </g>
   <g id="line2d_52">
    <path d="M 693.835097 533.77495 
L 417.47385 290.726397 
" clip-path="url(#p4de8aba93f)" style="fill: none; stroke-dasharray: 32,8,5,8; stroke-dashoffset: 0; stroke: #1e90ff; stroke-width: 5"/>
   </g>
   <g id="line2d_53">
    <path d="M 1300.247617 1165.236094 
" clip-path="url(#p4de8aba93f)" style="fill: none; stroke: #0000ff; stroke-width: 1.5; stroke-linecap: square"/>
    <defs>
     <path id="m282fef8372" d="M 0 10 
C 2.652031 10 5.195799 8.946337 7.071068 7.071068 
C 8.946337 5.195799 10 2.652031 10 0 
C 10 -2.652031 8.946337 -5.195799 7.071068 -7.071068 
C 5.195799 -8.946337 2.652031 -10 0 -10 
C -2.652031 -10 -5.195799 -8.946337 -7.071068 -7.071068 
C -8.946337 -5.195799 -10 -2.652031 -10 0 
C -10 2.652031 -8.946337 5.195799 -7.071068 7.071068 
C -5.195799 8.946337 -2.652031 10 0 10 
z
" style="stroke: #0000ff"/>
    </defs>
    <g clip-path="url(#p4de8aba93f)">
     <use xlink:href="#m282fef8372" x="1300.247617" y="1165.236094" style="fill: #0000ff; stroke: #0000ff"/>
    </g>
   </g>
   <g id="line2d_54">
    <path d="M 943.415019 907.435303 
" clip-path="url(#p4de8aba93f)" style="fill: none; stroke: #0000ff; stroke-width: 1.5; stroke-linecap: square"/>
    <g clip-path="url(#p4de8aba93f)">
     <use xlink:href="#m282fef8372" x="943.415019" y="907.435303" style="fill: #0000ff; stroke: #0000ff"/>
    </g>
   </g>
   <g id="line2d_55">
    <path d="M 508.180971 442.558163 
" clip-path="url(#p4de8aba93f)" style="fill: none; stroke: #0000ff; stroke-width: 1.5; stroke-linecap: square"/>
    <g clip-path="url(#p4de8aba93f)">
     <use xlink:href="#m282fef8372" x="508.180971" y="442.558163" style="fill: #0000ff; stroke: #0000ff"/>
    </g>
   </g>
   <g id="line2d_56">
    <path d="M 875.949921 750.850846 
" clip-path="url(#p4de8aba93f)" style="fill: none; stroke: #0000ff; stroke-width: 1.5; stroke-linecap: square"/>
    <g clip-path="url(#p4de8aba93f)">
     <use xlink:href="#m282fef8372" x="875.949921" y="750.850846" style="fill: #0000ff; stroke: #0000ff"/>
    </g>
   </g>
   <g id="line2d_57">
    <path d="M 189.229821 45.793984 
" clip-path="url(#p4de8aba93f)" style="fill: none; stroke: #0000ff; stroke-width: 1.5; stroke-linecap: square"/>
    <g clip-path="url(#p4de8aba93f)">
     <use xlink:href="#m282fef8372" x="189.229821" y="45.793984" style="fill: #0000ff; stroke: #0000ff"/>
    </g>
   </g>
   <g id="line2d_58">
    <path d="M 693.835097 533.77495 
" clip-path="url(#p4de8aba93f)" style="fill: none; stroke: #0000ff; stroke-width: 1.5; stroke-linecap: square"/>
    <g clip-path="url(#p4de8aba93f)">
     <use xlink:href="#m282fef8372" x="693.835097" y="533.77495" style="fill: #0000ff; stroke: #0000ff"/>
    </g>
   </g>
   <g id="line2d_59">
    <path d="M 1011.571601 859.086091 
" clip-path="url(#p4de8aba93f)" style="fill: none; stroke: #ff0000; stroke-width: 1.5; stroke-linecap: square"/>
    <defs>
     <path id="m8651465e84" d="M 0 -10 
L -2.24514 -3.09017 
L -9.510565 -3.09017 
L -3.632713 1.18034 
L -5.877853 8.09017 
L -0 3.81966 
L 5.877853 8.09017 
L 3.632713 1.18034 
L 9.510565 -3.09017 
L 2.24514 -3.09017 
z
" style="stroke: #ff0000; stroke-linejoin: bevel"/>
    </defs>
    <g clip-path="url(#p4de8aba93f)">
     <use xlink:href="#m8651465e84" x="1011.571601" y="859.086091" style="fill: #ff0000; stroke: #ff0000; stroke-linejoin: bevel"/>
    </g>
   </g>
   <g id="line2d_60">
    <path d="M 936.199939 906.159646 
" clip-path="url(#p4de8aba93f)" style="fill: none; stroke: #ff0000; stroke-width: 1.5; stroke-linecap: square"/>
    <g clip-path="url(#p4de8aba93f)">
     <use xlink:href="#m8651465e84" x="936.199939" y="906.159646" style="fill: #ff0000; stroke: #ff0000; stroke-linejoin: bevel"/>
    </g>
   </g>
   <g id="line2d_61">
    <path d="M 584.075795 517.486558 
" clip-path="url(#p4de8aba93f)" style="fill: none; stroke: #ff0000; stroke-width: 1.5; stroke-linecap: square"/>
    <g clip-path="url(#p4de8aba93f)">
     <use xlink:href="#m8651465e84" x="584.075795" y="517.486558" style="fill: #ff0000; stroke: #ff0000; stroke-linejoin: bevel"/>
    </g>
   </g>
   <g id="line2d_62">
    <path d="M 567.557537 436.750623 
" clip-path="url(#p4de8aba93f)" style="fill: none; stroke: #ff0000; stroke-width: 1.5; stroke-linecap: square"/>
    <g clip-path="url(#p4de8aba93f)">
     <use xlink:href="#m8651465e84" x="567.557537" y="436.750623" style="fill: #ff0000; stroke: #ff0000; stroke-linejoin: bevel"/>
    </g>
   </g>
   <g id="line2d_63">
    <path d="M 186.33651 45.927587 
" clip-path="url(#p4de8aba93f)" style="fill: none; stroke: #ff0000; stroke-width: 1.5; stroke-linecap: square"/>
    <g clip-path="url(#p4de8aba93f)">
     <use xlink:href="#m8651465e84" x="186.33651" y="45.927587" style="fill: #ff0000; stroke: #ff0000; stroke-linejoin: bevel"/>
    </g>
   </g>
   <g id="line2d_64">
    <path d="M 417.47385 290.726397 
" clip-path="url(#p4de8aba93f)" style="fill: none; stroke: #ff0000; stroke-width: 1.5; stroke-linecap: square"/>
    <g clip-path="url(#p4de8aba93f)">
     <use xlink:href="#m8651465e84" x="417.47385" y="290.726397" style="fill: #ff0000; stroke: #ff0000; stroke-linejoin: bevel"/>
    </g>
   </g>
  </g>
 </g>
 <defs>
  <clipPath id="p4de8aba93f">
   <rect x="0" y="0" width="1440" height="1440"/>
  </clipPath>
 </defs>
</svg>
