<?xml version="1.0" encoding="utf-8" standalone="no"?>
<!DOCTYPE svg PUBLIC "-//W3C//DTD SVG 1.1//EN"
  "http://www.w3.org/Graphics/SVG/1.1/DTD/svg11.dtd">
<svg xmlns:xlink="http://www.w3.org/1999/xlink" width="1440pt" height="1440pt" viewBox="0 0 1440 1440" xmlns="http://www.w3.org/2000/svg" version="1.1">
 <metadata>
  <rdf:RDF xmlns:dc="http://purl.org/dc/elements/1.1/" xmlns:cc="http://creativecommons.org/ns#" xmlns:rdf="http://www.w3.org/1999/02/22-rdf-syntax-ns#">
   <cc:Work>
    <dc:type rdf:resource="http://purl.org/dc/dcmitype/StillImage"/>
    <dc:date>2026-02-27T11:04:45.345731</dc:date>
    <dc:format>image/svg+xml</dc:format>
    <dc:creator>
     <cc:Agent>
      <dc:title>Matplotlib v3.7.3, https://matplotlib.org/</dc:title>
     </cc:Agent>
    </dc:creator>
   </cc:Work>
  </rdf:RDF>
 </metadata>
 <defs>
  <style type="text/css">*{stroke-linejoin: round; stroke-linecap: butt}</style>
 </defs>
 <g id="figure_1">
  <g id="patch_1">
   <path d="M 0 1440 
L 1440 1440 
L 1440 0 
L 0 0 
z
" style="fill: #ffffff"/>
  </g>
  <g id="axes_1">
   <g id="line2d_1">
    <path d="M 165.709755 1441 
L 170.631916 1432.8104 
" clip-path="url(#pde18c0918a)" style="fill: none; stroke: #7a7a7a; stroke-width: 3; stroke-linecap: square"/>
   </g>
   <g id="line2d_2">
    <path clip-path="url(#pde18c0918a)" style="fill: none; stroke: #7a7a7a; stroke-width: 3; stroke-linecap: square"/>
   </g>
   <g id="line2d_3">
    <path clip-path="url(#pde18c0918a)" style="fill: none; stroke: #7a7a7a; stroke-width: 3; stroke-linecap: square"/>
   </g>
   <g id="line2d_4">
    <path clip-path="url(#pde18c0918a)" style="fill: none; stroke: #7a7a7a; stroke-width: 3; stroke-linecap: square"/>
   </g>
   <g id="line2d_5">
    <path d="M 105.895177 1441 
L 107.832386 1437.957244 
L 113.803489 1428.713932 
" clip-path="url(#pde18c0918a)" style="fill: none; stroke: #7a7a7a; stroke-width: 3; stroke-linecap: square"/>
   </g>
   <g id="line2d_6">
    <path d="M 165.709755 1441 
L 170.631916 1432.8104 
" clip-path="url(#pde18c0918a)" style="fill: none; stroke: #7a7a7a; stroke-width: 3; stroke-linecap: square"/>
   </g>
   <g id="line2d_7">
    <path d="M 56.975061 1282.291461 
L -1 1273.156573 
" clip-path="url(#pde18c0918a)" style="fill: none; stroke: #7a7a7a; stroke-width: 3; stroke-linecap: square"/>
   </g>
   <g id="line2d_8">
    <path d="M 92.183978 1227.461813 
L -1 1212.326923 
" clip-path="url(#pde18c0918a)" style="fill: none; stroke: #7a7a7a; stroke-width: 3; stroke-linecap: square"/>
   </g>
   <g id="line2d_9">
    <path clip-path="url(#pde18c0918a)" style="fill: none; stroke: #7a7a7a; stroke-width: 3; stroke-linecap: square"/>
   </g>
   <g id="line2d_10">
    <path clip-path="url(#pde18c0918a)" style="fill: none; stroke: #7a7a7a; stroke-width: 3; stroke-linecap: square"/>
   </g>
   <g id="line2d_11">
    <path d="M 317.232787 1188.492848 
L 395.680725 1066.01896 
L 487.51217 916.970548 
" clip-path="url(#pde18c0918a)" style="fill: none; stroke: #7a7a7a; stroke-width: 3; stroke-linecap: square"/>
   </g>
   <g id="line2d_12">
    <path d="M 392.798124 1200.992328 
L 559.371305 927.474312 
" clip-path="url(#pde18c0918a)" style="fill: none; stroke: #7a7a7a; stroke-width: 3; stroke-linecap: square"/>
   </g>
   <g id="line2d_13">
    <path d="M 264.934162 1179.774724 
L 276.464568 1163.283815 
L 360.471808 1025.999619 
L 404.53443 956.464701 
L 432.948643 908.88265 
" clip-path="url(#pde18c0918a)" style="fill: none; stroke: #7a7a7a; stroke-width: 3; stroke-linecap: square"/>
   </g>
   <g id="line2d_14">
    <path d="M 317.232787 1188.492848 
L 395.680725 1066.01896 
L 487.51217 916.970548 
" clip-path="url(#pde18c0918a)" style="fill: none; stroke: #7a7a7a; stroke-width: 3; stroke-linecap: square"/>
   </g>
   <g id="line2d_15">
    <path d="M 170.631916 1432.8104 
L 317.232787 1188.492848 
" clip-path="url(#pde18c0918a)" style="fill: none; stroke: #7a7a7a; stroke-width: 3; stroke-linecap: square"/>
   </g>
   <g id="line2d_16">
    <path d="M 245.939894 1441 
L 392.798124 1200.992328 
" clip-path="url(#pde18c0918a)" style="fill: none; stroke: #7a7a7a; stroke-width: 3; stroke-linecap: square"/>
   </g>
   <g id="line2d_17">
    <path d="M 462.804158 1213.386769 
L 631.02454 937.978076 
" clip-path="url(#pde18c0918a)" style="fill: none; stroke: #7a7a7a; stroke-width: 3; stroke-linecap: square"/>
   </g>
   <g id="line2d_18">
    <path d="M 494.306873 1218.428576 
L 513.249682 1189.228112 
L 631.84814 998.584795 
L 665.409856 943.019883 
" clip-path="url(#pde18c0918a)" style="fill: none; stroke: #7a7a7a; stroke-width: 3; stroke-linecap: square"/>
   </g>
   <g id="line2d_19">
    <path d="M 322.985919 1441 
L 462.804158 1213.386769 
" clip-path="url(#pde18c0918a)" style="fill: none; stroke: #7a7a7a; stroke-width: 3; stroke-linecap: square"/>
   </g>
   <g id="line2d_20">
    <path d="M 350.270284 1441 
L 494.306873 1218.428576 
" clip-path="url(#pde18c0918a)" style="fill: none; stroke: #7a7a7a; stroke-width: 3; stroke-linecap: square"/>
   </g>
   <g id="line2d_21">
    <path d="M 392.798124 1200.992328 
L 559.371305 927.474312 
" clip-path="url(#pde18c0918a)" style="fill: none; stroke: #7a7a7a; stroke-width: 3; stroke-linecap: square"/>
   </g>
   <g id="line2d_22">
    <path d="M 462.804158 1213.386769 
L 631.02454 937.978076 
" clip-path="url(#pde18c0918a)" style="fill: none; stroke: #7a7a7a; stroke-width: 3; stroke-linecap: square"/>
   </g>
   <g id="line2d_23">
    <path d="M 113.803489 1428.713932 
L 154.777608 1360.964654 
L 156.218909 1342.162916 
L 145.512104 1323.676292 
L 124.098494 1307.080344 
L 94.242979 1291.429736 
L 56.975061 1282.291461 
" clip-path="url(#pde18c0918a)" style="fill: none; stroke: #7a7a7a; stroke-width: 3; stroke-linecap: square"/>
   </g>
   <g id="line2d_24">
    <path d="M 170.631916 1432.8104 
L 211.400136 1365.166159 
L 217.988939 1337.331185 
L 216.547638 1312.122151 
L 208.311634 1289.854171 
L 194.104528 1270.527245 
L 174.544018 1254.351449 
L 150.453706 1241.431819 
L 122.863093 1231.978431 
L 92.183978 1227.461813 
" clip-path="url(#pde18c0918a)" style="fill: none; stroke: #7a7a7a; stroke-width: 3; stroke-linecap: square"/>
   </g>
   <g id="line2d_25">
    <path d="M 245.939894 1441 
L 392.798124 1200.992328 
" clip-path="url(#pde18c0918a)" style="fill: none; stroke: #7a7a7a; stroke-width: 3; stroke-linecap: square"/>
   </g>
   <g id="line2d_26">
    <path d="M 322.985919 1441 
L 462.804158 1213.386769 
" clip-path="url(#pde18c0918a)" style="fill: none; stroke: #7a7a7a; stroke-width: 3; stroke-linecap: square"/>
   </g>
   <g id="line2d_27">
    <path d="M 541.252096 818.340204 
L 592.933021 740.192199 
" clip-path="url(#pde18c0918a)" style="fill: none; stroke: #7a7a7a; stroke-width: 3; stroke-linecap: square"/>
   </g>
   <g id="line2d_28">
    <path d="M 618.876434 829.054043 
L 662.733155 751.74634 
" clip-path="url(#pde18c0918a)" style="fill: none; stroke: #7a7a7a; stroke-width: 3; stroke-linecap: square"/>
   </g>
   <g id="line2d_29">
    <path d="M 56.975061 1282.291461 
L 104.949784 1290.37936 
L 144.482603 1289.539058 
L 175.779419 1283.341838 
L 199.25203 1271.997772 
L 215.929938 1255.716938 
L 264.934162 1179.774724 
" clip-path="url(#pde18c0918a)" style="fill: none; stroke: #7a7a7a; stroke-width: 3; stroke-linecap: square"/>
   </g>
   <g id="line2d_30">
    <path d="M 22.589744 1341.742766 
L 58.004562 1346.259384 
L 95.47838 1345.10397 
L 133.363998 1339.957126 
L 169.602416 1331.133964 
L 203.370032 1318.84456 
L 233.225547 1303.404027 
L 254.845057 1283.761988 
L 270.081664 1263.594761 
L 317.232787 1188.492848 
" clip-path="url(#pde18c0918a)" style="fill: none; stroke: #7a7a7a; stroke-width: 3; stroke-linecap: square"/>
   </g>
   <g id="line2d_31">
    <path d="M 631.02454 937.978076 
L 691.765069 839.87292 
" clip-path="url(#pde18c0918a)" style="fill: none; stroke: #7a7a7a; stroke-width: 3; stroke-linecap: square"/>
   </g>
   <g id="line2d_32">
    <path d="M 665.409856 943.019883 
L 715.23768 859.830072 
L 724.297285 844.914727 
" clip-path="url(#pde18c0918a)" style="fill: none; stroke: #7a7a7a; stroke-width: 3; stroke-linecap: square"/>
   </g>
   <g id="line2d_33">
    <path d="M 113.803489 1428.713932 
L 119.568691 1415.89934 
L 264.934162 1179.774724 
" clip-path="url(#pde18c0918a)" style="fill: none; stroke: #7a7a7a; stroke-width: 3; stroke-linecap: square"/>
   </g>
   <g id="line2d_34">
    <path d="M 170.631916 1432.8104 
L 317.232787 1188.492848 
" clip-path="url(#pde18c0918a)" style="fill: none; stroke: #7a7a7a; stroke-width: 3; stroke-linecap: square"/>
   </g>
   <g id="line2d_35">
    <path d="M 618.876434 829.054043 
L 662.733155 751.74634 
" clip-path="url(#pde18c0918a)" style="fill: none; stroke: #7a7a7a; stroke-width: 3; stroke-linecap: square"/>
   </g>
   <g id="line2d_36">
    <path d="M 691.765069 839.87292 
L 734.38639 764.876045 
" clip-path="url(#pde18c0918a)" style="fill: none; stroke: #7a7a7a; stroke-width: 3; stroke-linecap: square"/>
   </g>
   <g id="line2d_37">
    <path d="M 539.810795 730.633774 
L 550.1058 713.722714 
L 553.812002 708.470832 
L 590.87402 646.288549 
L 605.698827 622.234929 
" clip-path="url(#pde18c0918a)" style="fill: none; stroke: #7a7a7a; stroke-width: 3; stroke-linecap: square"/>
   </g>
   <g id="line2d_38">
    <path d="M 592.933021 740.192199 
L 664.586256 627.591849 
" clip-path="url(#pde18c0918a)" style="fill: none; stroke: #7a7a7a; stroke-width: 3; stroke-linecap: square"/>
   </g>
   <g id="line2d_39">
    <path d="M 592.933021 740.192199 
L 664.586256 627.591849 
" clip-path="url(#pde18c0918a)" style="fill: none; stroke: #7a7a7a; stroke-width: 3; stroke-linecap: square"/>
   </g>
   <g id="line2d_40">
    <path d="M 662.733155 751.74634 
L 736.239491 633.999145 
" clip-path="url(#pde18c0918a)" style="fill: none; stroke: #7a7a7a; stroke-width: 3; stroke-linecap: square"/>
   </g>
   <g id="line2d_41">
    <path d="M 432.948643 908.88265 
L 484.423668 822.646747 
L 485.247269 821.491333 
L 485.453169 820.966145 
L 488.54167 814.978999 
" clip-path="url(#pde18c0918a)" style="fill: none; stroke: #7a7a7a; stroke-width: 3; stroke-linecap: square"/>
   </g>
   <g id="line2d_42">
    <path d="M 487.51217 916.970548 
L 541.252096 818.340204 
" clip-path="url(#pde18c0918a)" style="fill: none; stroke: #7a7a7a; stroke-width: 3; stroke-linecap: square"/>
   </g>
   <g id="line2d_43">
    <path d="M 559.371305 927.474312 
L 618.876434 829.054043 
" clip-path="url(#pde18c0918a)" style="fill: none; stroke: #7a7a7a; stroke-width: 3; stroke-linecap: square"/>
   </g>
   <g id="line2d_44">
    <path d="M 631.02454 937.978076 
L 691.765069 839.87292 
" clip-path="url(#pde18c0918a)" style="fill: none; stroke: #7a7a7a; stroke-width: 3; stroke-linecap: square"/>
   </g>
   <g id="line2d_45">
    <path d="M 488.54167 814.978999 
L 539.810795 730.633774 
" clip-path="url(#pde18c0918a)" style="fill: none; stroke: #7a7a7a; stroke-width: 3; stroke-linecap: square"/>
   </g>
   <g id="line2d_46">
    <path d="M 541.252096 818.340204 
L 592.933021 740.192199 
" clip-path="url(#pde18c0918a)" style="fill: none; stroke: #7a7a7a; stroke-width: 3; stroke-linecap: square"/>
   </g>
   <g id="line2d_47">
    <path d="M 487.51217 916.970548 
L 541.252096 818.340204 
" clip-path="url(#pde18c0918a)" style="fill: none; stroke: #7a7a7a; stroke-width: 3; stroke-linecap: square"/>
   </g>
   <g id="line2d_48">
    <path d="M 559.371305 927.474312 
L 618.876434 829.054043 
" clip-path="url(#pde18c0918a)" style="fill: none; stroke: #7a7a7a; stroke-width: 3; stroke-linecap: square"/>
   </g>
   <g id="line2d_49">
    <path d="M 662.733155 751.74634 
L 736.239491 633.999145 
" clip-path="url(#pde18c0918a)" style="fill: none; stroke: #7a7a7a; stroke-width: 3; stroke-linecap: square"/>
   </g>
   <g id="line2d_50">
    <path d="M 734.38639 764.876045 
L 846.396044 644.607947 
" clip-path="url(#pde18c0918a)" style="fill: none; stroke: #7a7a7a; stroke-width: 3; stroke-linecap: square"/>
   </g>
   <g id="line2d_51">
    <path d="M 691.765069 839.87292 
L 734.38639 764.876045 
" clip-path="url(#pde18c0918a)" style="fill: none; stroke: #7a7a7a; stroke-width: 3; stroke-linecap: square"/>
   </g>
   <g id="line2d_52">
    <path d="M 724.297285 844.914727 
L 770.213007 769.602739 
" clip-path="url(#pde18c0918a)" style="fill: none; stroke: #7a7a7a; stroke-width: 3; stroke-linecap: square"/>
   </g>
   <g id="line2d_53">
    <path d="M 605.698827 622.234929 
L 658.821053 535.578876 
" clip-path="url(#pde18c0918a)" style="fill: none; stroke: #7a7a7a; stroke-width: 3; stroke-linecap: square"/>
   </g>
   <g id="line2d_54">
    <path d="M 664.586256 627.591849 
L 720.179283 536.73429 
" clip-path="url(#pde18c0918a)" style="fill: none; stroke: #7a7a7a; stroke-width: 3; stroke-linecap: square"/>
   </g>
   <g id="line2d_55">
    <path d="M 929.373784 382.118883 
L 962.935501 343.99022 
L 978.995708 330.860515 
L 1001.644719 320.251713 
L 1026.558632 313.844417 
L 1056.002346 309.432836 
L 1083.181159 308.487498 
L 1117.360576 309.012686 
L 1145.157089 311.95374 
L 1182.425007 317.310659 
L 1271.16795 332.120967 
" clip-path="url(#pde18c0918a)" style="fill: none; stroke: #7a7a7a; stroke-width: 3; stroke-linecap: square"/>
   </g>
   <g id="line2d_56">
    <path d="M 1001.027019 393.778061 
L 1009.057123 380.858432 
L 1015.645926 372.875571 
L 1025.323231 363.842334 
L 1032.941535 358.485414 
L 1043.23654 353.33857 
L 1056.208246 348.506838 
L 1068.974052 345.040596 
L 1081.533958 343.149919 
L 1097.388266 342.414655 
L 1119.213677 343.570069 
L 1148.245591 347.246387 
L 1252.431041 363.842334 
" clip-path="url(#pde18c0918a)" style="fill: none; stroke: #7a7a7a; stroke-width: 3; stroke-linecap: square"/>
   </g>
   <g id="line2d_57">
    <path d="M 664.586256 627.591849 
L 720.179283 536.73429 
" clip-path="url(#pde18c0918a)" style="fill: none; stroke: #7a7a7a; stroke-width: 3; stroke-linecap: square"/>
   </g>
   <g id="line2d_58">
    <path d="M 736.239491 633.999145 
L 795.126919 536.73429 
" clip-path="url(#pde18c0918a)" style="fill: none; stroke: #7a7a7a; stroke-width: 3; stroke-linecap: square"/>
   </g>
   <g id="line2d_59">
    <path d="M 795.126919 536.73429 
L 802.539323 524.024736 
L 802.745223 523.499547 
" clip-path="url(#pde18c0918a)" style="fill: none; stroke: #7a7a7a; stroke-width: 3; stroke-linecap: square"/>
   </g>
   <g id="line2d_60">
    <path d="M 833.836138 536.73429 
L 841.660342 524.129773 
L 842.072142 523.499547 
" clip-path="url(#pde18c0918a)" style="fill: none; stroke: #7a7a7a; stroke-width: 3; stroke-linecap: square"/>
   </g>
   <g id="line2d_61">
    <path d="M 734.38639 764.876045 
L 736.239491 633.999145 
" clip-path="url(#pde18c0918a)" style="fill: none; stroke: #7a7a7a; stroke-width: 3; stroke-linecap: square"/>
   </g>
   <g id="line2d_62">
    <path d="M 770.213007 769.602739 
L 846.396044 644.607947 
" clip-path="url(#pde18c0918a)" style="fill: none; stroke: #7a7a7a; stroke-width: 3; stroke-linecap: square"/>
   </g>
   <g id="line2d_63">
    <path d="M 1360.734494 193.366244 
L 767.536306 85.177474 
" clip-path="url(#pde18c0918a)" style="fill: none; stroke: #7a7a7a; stroke-width: 3; stroke-linecap: square"/>
   </g>
   <g id="line2d_64">
    <path d="M 1381.530404 163.850667 
L 786.890915 47.994149 
" clip-path="url(#pde18c0918a)" style="fill: none; stroke: #7a7a7a; stroke-width: 3; stroke-linecap: square"/>
   </g>
   <g id="line2d_65">
    <path d="M 720.179283 536.73429 
L 728.209387 524.024736 
L 728.415287 523.499547 
" clip-path="url(#pde18c0918a)" style="fill: none; stroke: #7a7a7a; stroke-width: 3; stroke-linecap: square"/>
   </g>
   <g id="line2d_66">
    <path d="M 795.126919 536.73429 
L 802.539323 524.024736 
L 802.745223 523.499547 
" clip-path="url(#pde18c0918a)" style="fill: none; stroke: #7a7a7a; stroke-width: 3; stroke-linecap: square"/>
   </g>
   <g id="line2d_67">
    <path d="M 1441 207.169195 
L 1360.734494 193.366244 
" clip-path="url(#pde18c0918a)" style="fill: none; stroke: #7a7a7a; stroke-width: 3; stroke-linecap: square"/>
   </g>
   <g id="line2d_68">
    <path d="M 1441 174.008639 
L 1381.530404 163.850667 
" clip-path="url(#pde18c0918a)" style="fill: none; stroke: #7a7a7a; stroke-width: 3; stroke-linecap: square"/>
   </g>
   <g id="line2d_69">
    <path d="M 891.488166 376.341813 
L 1180.571906 43.897681 
" clip-path="url(#pde18c0918a)" style="fill: none; stroke: #7a7a7a; stroke-width: 3; stroke-linecap: square"/>
   </g>
   <g id="line2d_70">
    <path d="M 929.373784 382.118883 
L 1217.633924 50.830166 
" clip-path="url(#pde18c0918a)" style="fill: none; stroke: #7a7a7a; stroke-width: 3; stroke-linecap: square"/>
   </g>
   <g id="line2d_71">
    <path d="M 767.536306 85.177474 
L 662.321355 66.795887 
L 452.303253 28.667224 
L 333.498895 9.865486 
" clip-path="url(#pde18c0918a)" style="fill: none; stroke: #7a7a7a; stroke-width: 3; stroke-linecap: square"/>
   </g>
   <g id="line2d_72">
    <path d="M 786.890915 47.994149 
L 529.51579 6.714357 
L 480.989736 -1 
" clip-path="url(#pde18c0918a)" style="fill: none; stroke: #7a7a7a; stroke-width: 3; stroke-linecap: square"/>
   </g>
   <g id="line2d_73">
    <path d="M 658.821053 535.578876 
L 665.615756 524.024736 
L 665.821657 523.499547 
" clip-path="url(#pde18c0918a)" style="fill: none; stroke: #7a7a7a; stroke-width: 3; stroke-linecap: square"/>
   </g>
   <g id="line2d_74">
    <path d="M 720.179283 536.73429 
L 728.209387 524.024736 
L 728.415287 523.499547 
" clip-path="url(#pde18c0918a)" style="fill: none; stroke: #7a7a7a; stroke-width: 3; stroke-linecap: square"/>
   </g>
   <g id="line2d_75">
    <path d="M 677.352062 239.687843 
L 1271.16795 332.120967 
" clip-path="url(#pde18c0918a)" style="fill: none; stroke: #7a7a7a; stroke-width: 3; stroke-linecap: square"/>
   </g>
   <g id="line2d_76">
    <path d="M 658.615153 272.039436 
L 716.267181 280.652523 
L 723.473684 282.018012 
L 1130.332282 344.935559 
L 1148.245591 347.246387 
L 1252.431041 363.842334 
" clip-path="url(#pde18c0918a)" style="fill: none; stroke: #7a7a7a; stroke-width: 3; stroke-linecap: square"/>
   </g>
   <g id="line2d_77">
    <path d="M 1381.530404 163.850667 
L 1273.021051 142.31795 
L 1226.281729 131.604111 
L 1186.954809 120.575159 
L 1155.452094 109.546207 
L 1131.567683 98.097104 
L 1115.095675 86.227851 
L 1105.21247 73.413258 
L 1101.712168 59.443252 
L 1102.947569 51.145279 
L 1103.977069 44.002719 
L 1111.183573 30.242788 
" clip-path="url(#pde18c0918a)" style="fill: none; stroke: #7a7a7a; stroke-width: 3; stroke-linecap: square"/>
   </g>
   <g id="line2d_78">
    <path d="M 1399.649613 135.175391 
L 1354.557491 126.667342 
L 1346.939187 124.881702 
L 1282.286556 110.806658 
L 1234.105932 97.256803 
L 1201.985517 85.282512 
L 1183.454508 74.67371 
L 1175.424404 65.010247 
L 1174.806704 55.766935 
L 1180.571906 43.897681 
" clip-path="url(#pde18c0918a)" style="fill: none; stroke: #7a7a7a; stroke-width: 3; stroke-linecap: square"/>
   </g>
   <g id="line2d_79">
    <path d="M 728.415287 523.499547 
L 728.621187 523.184434 
L 730.268388 520.558493 
L 826.217834 365.838049 
" clip-path="url(#pde18c0918a)" style="fill: none; stroke: #7a7a7a; stroke-width: 3; stroke-linecap: square"/>
   </g>
   <g id="line2d_80">
    <path d="M 802.745223 523.499547 
L 802.951123 523.184434 
L 804.598324 520.558493 
L 891.488166 376.341813 
" clip-path="url(#pde18c0918a)" style="fill: none; stroke: #7a7a7a; stroke-width: 3; stroke-linecap: square"/>
   </g>
   <g id="line2d_81">
    <path d="M 291.907075 79.400404 
L 732.945089 148.620209 
" clip-path="url(#pde18c0918a)" style="fill: none; stroke: #7a7a7a; stroke-width: 3; stroke-linecap: square"/>
   </g>
   <g id="line2d_82">
    <path d="M 267.199063 110.071395 
L 712.766879 179.71135 
" clip-path="url(#pde18c0918a)" style="fill: none; stroke: #7a7a7a; stroke-width: 3; stroke-linecap: square"/>
   </g>
   <g id="line2d_83">
    <path d="M 249.903455 137.276144 
L 695.471271 208.281589 
" clip-path="url(#pde18c0918a)" style="fill: none; stroke: #7a7a7a; stroke-width: 3; stroke-linecap: square"/>
   </g>
   <g id="line2d_84">
    <path d="M 229.519345 168.997511 
L 677.352062 239.687843 
" clip-path="url(#pde18c0918a)" style="fill: none; stroke: #7a7a7a; stroke-width: 3; stroke-linecap: square"/>
   </g>
   <g id="line2d_85">
    <path d="M 802.745223 523.499547 
L 802.951123 523.184434 
L 804.598324 520.558493 
L 891.488166 376.341813 
" clip-path="url(#pde18c0918a)" style="fill: none; stroke: #7a7a7a; stroke-width: 3; stroke-linecap: square"/>
   </g>
   <g id="line2d_86">
    <path d="M 842.072142 523.499547 
L 842.278042 523.184434 
L 843.925243 520.558493 
L 929.373784 382.118883 
" clip-path="url(#pde18c0918a)" style="fill: none; stroke: #7a7a7a; stroke-width: 3; stroke-linecap: square"/>
   </g>
   <g id="line2d_87">
    <path d="M 695.471271 208.281589 
L 1289.287159 301.344938 
" clip-path="url(#pde18c0918a)" style="fill: none; stroke: #7a7a7a; stroke-width: 3; stroke-linecap: square"/>
   </g>
   <g id="line2d_88">
    <path d="M 677.352062 239.687843 
L 1271.16795 332.120967 
" clip-path="url(#pde18c0918a)" style="fill: none; stroke: #7a7a7a; stroke-width: 3; stroke-linecap: square"/>
   </g>
   <g id="line2d_89">
    <path d="M 833.836138 536.73429 
L 841.660342 524.129773 
L 842.072142 523.499547 
" clip-path="url(#pde18c0918a)" style="fill: none; stroke: #7a7a7a; stroke-width: 3; stroke-linecap: square"/>
   </g>
   <g id="line2d_90">
    <path d="M 913.725377 536.629252 
L 921.549581 524.129773 
L 921.961381 523.499547 
" clip-path="url(#pde18c0918a)" style="fill: none; stroke: #7a7a7a; stroke-width: 3; stroke-linecap: square"/>
   </g>
   <g id="line2d_91">
    <path d="M 842.072142 523.499547 
L 842.278042 523.184434 
L 843.925243 520.558493 
L 929.373784 382.118883 
" clip-path="url(#pde18c0918a)" style="fill: none; stroke: #7a7a7a; stroke-width: 3; stroke-linecap: square"/>
   </g>
   <g id="line2d_92">
    <path d="M 921.961381 523.499547 
L 922.167281 523.184434 
L 923.814482 520.453456 
L 956.552598 466.674184 
L 966.229902 449.658086 
L 1001.027019 393.778061 
" clip-path="url(#pde18c0918a)" style="fill: none; stroke: #7a7a7a; stroke-width: 3; stroke-linecap: square"/>
   </g>
   <g id="line2d_93">
    <path d="M 229.519345 168.997511 
L 677.352062 239.687843 
" clip-path="url(#pde18c0918a)" style="fill: none; stroke: #7a7a7a; stroke-width: 3; stroke-linecap: square"/>
   </g>
   <g id="line2d_94">
    <path d="M 209.547035 201.033991 
L 658.615153 272.039436 
" clip-path="url(#pde18c0918a)" style="fill: none; stroke: #7a7a7a; stroke-width: 3; stroke-linecap: square"/>
   </g>
   <g id="line2d_95">
    <path d="M 736.239491 633.999145 
L 833.836138 536.73429 
" clip-path="url(#pde18c0918a)" style="fill: none; stroke: #7a7a7a; stroke-width: 3; stroke-linecap: square"/>
   </g>
   <g id="line2d_96">
    <path d="M 846.396044 644.607947 
L 859.573651 622.865155 
L 913.725377 536.629252 
" clip-path="url(#pde18c0918a)" style="fill: none; stroke: #7a7a7a; stroke-width: 3; stroke-linecap: square"/>
   </g>
   <g id="line2d_97">
    <path d="M 712.766879 179.71135 
L 1305.965067 273.089813 
" clip-path="url(#pde18c0918a)" style="fill: none; stroke: #7a7a7a; stroke-width: 3; stroke-linecap: square"/>
   </g>
   <g id="line2d_98">
    <path d="M 695.471271 208.281589 
L 1289.287159 301.344938 
" clip-path="url(#pde18c0918a)" style="fill: none; stroke: #7a7a7a; stroke-width: 3; stroke-linecap: square"/>
   </g>
   <g id="line2d_99">
    <path d="M 1289.287159 301.344938 
L 1441 325.131207 
" clip-path="url(#pde18c0918a)" style="fill: none; stroke: #7a7a7a; stroke-width: 3; stroke-linecap: square"/>
   </g>
   <g id="line2d_100">
    <path d="M 1271.16795 332.120967 
L 1441 358.87947 
" clip-path="url(#pde18c0918a)" style="fill: none; stroke: #7a7a7a; stroke-width: 3; stroke-linecap: square"/>
   </g>
   <g id="line2d_101">
    <path d="M 736.239491 633.999145 
L 795.126919 536.73429 
" clip-path="url(#pde18c0918a)" style="fill: none; stroke: #7a7a7a; stroke-width: 3; stroke-linecap: square"/>
   </g>
   <g id="line2d_102">
    <path d="M 846.396044 644.607947 
L 833.836138 536.73429 
" clip-path="url(#pde18c0918a)" style="fill: none; stroke: #7a7a7a; stroke-width: 3; stroke-linecap: square"/>
   </g>
   <g id="line2d_103">
    <path d="M 733.562789 147.359757 
L 295.613277 69.631903 
" clip-path="url(#pde18c0918a)" style="fill: none; stroke: #7a7a7a; stroke-width: 3; stroke-linecap: square"/>
   </g>
   <g id="line2d_104">
    <path d="M 750.446598 115.953503 
L 423.065439 56.922349 
L 315.379686 39.801213 
" clip-path="url(#pde18c0918a)" style="fill: none; stroke: #7a7a7a; stroke-width: 3; stroke-linecap: square"/>
   </g>
   <g id="line2d_105">
    <path d="M 767.536306 356.384662 
L 775.15461 343.885182 
L 778.860811 336.007359 
L 963.553201 4.823679 
" clip-path="url(#pde18c0918a)" style="fill: none; stroke: #7a7a7a; stroke-width: 3; stroke-linecap: square"/>
   </g>
   <g id="line2d_106">
    <path d="M 826.217834 365.838049 
L 1037.059537 17.218121 
" clip-path="url(#pde18c0918a)" style="fill: none; stroke: #7a7a7a; stroke-width: 3; stroke-linecap: square"/>
   </g>
   <g id="line2d_107">
    <path d="M 767.536306 356.384662 
L 776.18411 342.939844 
L 833.012538 239.267693 
L 837.54234 226.663176 
L 836.306939 212.798207 
L 827.865035 194.626695 
L 810.981227 177.820673 
L 784.214214 163.010366 
L 746.122695 150.615924 
L 733.562789 147.359757 
" clip-path="url(#pde18c0918a)" style="fill: none; stroke: #7a7a7a; stroke-width: 3; stroke-linecap: square"/>
   </g>
   <g id="line2d_108">
    <path d="M 826.217834 365.838049 
L 884.281663 268.258081 
L 891.694066 249.246268 
L 896.017968 230.654606 
L 896.017968 212.588132 
L 891.282266 195.151884 
L 880.781361 178.450899 
L 863.691653 162.590215 
L 839.189541 147.779908 
L 806.451425 133.914939 
L 764.653704 121.310422 
L 750.446598 115.953503 
" clip-path="url(#pde18c0918a)" style="fill: none; stroke: #7a7a7a; stroke-width: 3; stroke-linecap: square"/>
   </g>
   <g id="line2d_109">
    <path d="M 267.199063 110.071395 
L 712.766879 179.71135 
" clip-path="url(#pde18c0918a)" style="fill: none; stroke: #7a7a7a; stroke-width: 3; stroke-linecap: square"/>
   </g>
   <g id="line2d_110">
    <path d="M 249.903455 137.276144 
L 695.471271 208.281589 
" clip-path="url(#pde18c0918a)" style="fill: none; stroke: #7a7a7a; stroke-width: 3; stroke-linecap: square"/>
   </g>
   <g id="line2d_111">
    <path d="M 1441 271.411946 
L 1343.027085 254.603188 
L 1320.583974 250.611758 
" clip-path="url(#pde18c0918a)" style="fill: none; stroke: #7a7a7a; stroke-width: 3; stroke-linecap: square"/>
   </g>
   <g id="line2d_112">
    <path d="M 1441 240.964747 
L 1340.350384 223.301971 
" clip-path="url(#pde18c0918a)" style="fill: none; stroke: #7a7a7a; stroke-width: 3; stroke-linecap: square"/>
   </g>
   <g id="line2d_113">
    <path d="M 665.821657 523.499547 
L 666.027557 523.079397 
L 667.674757 520.453456 
L 767.536306 356.384662 
" clip-path="url(#pde18c0918a)" style="fill: none; stroke: #7a7a7a; stroke-width: 3; stroke-linecap: square"/>
   </g>
   <g id="line2d_114">
    <path d="M 728.415287 523.499547 
L 728.621187 523.184434 
L 730.268388 520.558493 
L 826.217834 365.838049 
" clip-path="url(#pde18c0918a)" style="fill: none; stroke: #7a7a7a; stroke-width: 3; stroke-linecap: square"/>
   </g>
   <g id="line2d_115">
    <path d="M 750.446598 115.953503 
L 423.065439 56.922349 
L 315.379686 39.801213 
" clip-path="url(#pde18c0918a)" style="fill: none; stroke: #7a7a7a; stroke-width: 3; stroke-linecap: square"/>
   </g>
   <g id="line2d_116">
    <path d="M 767.536306 85.177474 
L 662.321355 66.795887 
L 452.303253 28.667224 
L 333.498895 9.865486 
" clip-path="url(#pde18c0918a)" style="fill: none; stroke: #7a7a7a; stroke-width: 3; stroke-linecap: square"/>
   </g>
   <g id="line2d_117">
    <path d="M 1320.583974 250.611758 
L 733.562789 147.359757 
" clip-path="url(#pde18c0918a)" style="fill: none; stroke: #7a7a7a; stroke-width: 3; stroke-linecap: square"/>
   </g>
   <g id="line2d_118">
    <path d="M 1340.350384 223.301971 
L 750.446598 115.953503 
" clip-path="url(#pde18c0918a)" style="fill: none; stroke: #7a7a7a; stroke-width: 3; stroke-linecap: square"/>
   </g>
   <g id="line2d_119">
    <path d="M 732.945089 148.620209 
L 744.681395 150.405849 
L 784.008314 154.81743 
L 824.776534 156.182919 
L 866.162454 154.922467 
L 907.754274 151.24615 
L 948.522494 145.259004 
L 988.261213 137.381181 
L 1026.146831 127.717718 
L 1061.561649 116.583729 
L 1093.887964 104.189287 
L 1122.508078 90.744469 
L 1146.59839 76.564388 
L 1165.541199 61.859118 
L 1180.571906 43.897681 
" clip-path="url(#pde18c0918a)" style="fill: none; stroke: #7a7a7a; stroke-width: 3; stroke-linecap: square"/>
   </g>
   <g id="line2d_120">
    <path d="M 712.766879 179.71135 
L 724.709085 181.602028 
L 763.830104 184.64812 
L 804.392424 185.173308 
L 845.778344 183.387668 
L 887.370164 179.396238 
L 928.756084 173.51413 
L 969.318404 165.846382 
L 1008.645323 156.708107 
L 1046.325041 146.099306 
L 1081.739858 134.33509 
L 1114.272074 121.730573 
L 1143.509888 108.285755 
L 1169.041501 94.210711 
L 1190.249211 79.820554 
L 1206.515319 65.32536 
L 1217.633924 50.830166 
" clip-path="url(#pde18c0918a)" style="fill: none; stroke: #7a7a7a; stroke-width: 3; stroke-linecap: square"/>
   </g>
   <g id="line2d_121">
    <path d="M 1271.16795 332.120967 
L 1441 358.87947 
" clip-path="url(#pde18c0918a)" style="fill: none; stroke: #7a7a7a; stroke-width: 3; stroke-linecap: square"/>
   </g>
   <g id="line2d_122">
    <path d="M 1252.431041 363.842334 
L 1441 393.800778 
" clip-path="url(#pde18c0918a)" style="fill: none; stroke: #7a7a7a; stroke-width: 3; stroke-linecap: square"/>
   </g>
   <g id="line2d_123">
    <path d="M 1305.965067 273.089813 
L 1441 293.943565 
" clip-path="url(#pde18c0918a)" style="fill: none; stroke: #7a7a7a; stroke-width: 3; stroke-linecap: square"/>
   </g>
   <g id="line2d_124">
    <path d="M 1289.287159 301.344938 
L 1441 325.131207 
" clip-path="url(#pde18c0918a)" style="fill: none; stroke: #7a7a7a; stroke-width: 3; stroke-linecap: square"/>
   </g>
   <g id="line2d_125">
    <path d="M 1340.350384 223.301971 
L 750.446598 115.953503 
" clip-path="url(#pde18c0918a)" style="fill: none; stroke: #7a7a7a; stroke-width: 3; stroke-linecap: square"/>
   </g>
   <g id="line2d_126">
    <path d="M 1360.734494 193.366244 
L 767.536306 85.177474 
" clip-path="url(#pde18c0918a)" style="fill: none; stroke: #7a7a7a; stroke-width: 3; stroke-linecap: square"/>
   </g>
   <g id="line2d_127">
    <path d="M 1441 240.964747 
L 1340.350384 223.301971 
" clip-path="url(#pde18c0918a)" style="fill: none; stroke: #7a7a7a; stroke-width: 3; stroke-linecap: square"/>
   </g>
   <g id="line2d_128">
    <path d="M 1441 207.169195 
L 1360.734494 193.366244 
" clip-path="url(#pde18c0918a)" style="fill: none; stroke: #7a7a7a; stroke-width: 3; stroke-linecap: square"/>
   </g>
   <g id="line2d_129">
    <path d="M 1381.530404 163.850667 
L 1236.988534 134.440127 
L 1210.427421 122.150724 
L 1189.837411 106.815228 
L 1176.659804 88.958829 
L 1172.541802 68.791602 
L 1180.571906 43.897681 
" clip-path="url(#pde18c0918a)" style="fill: none; stroke: #7a7a7a; stroke-width: 3; stroke-linecap: square"/>
   </g>
   <g id="line2d_130">
    <path d="M 1399.649613 135.175391 
L 1354.557491 126.667342 
L 1278.992154 111.331847 
L 1253.666442 105.344701 
L 1239.871135 99.252518 
L 1228.75253 90.639431 
L 1215.369023 71.10243 
L 1217.633924 50.830166 
" clip-path="url(#pde18c0918a)" style="fill: none; stroke: #7a7a7a; stroke-width: 3; stroke-linecap: square"/>
   </g>
   <g id="line2d_131">
    <path d="M 732.945089 148.620209 
L 745.299095 150.720962 
L 762.800604 151.24615 
L 797.803621 148.095021 
L 833.836138 140.217198 
L 866.986054 128.663057 
L 892.929467 114.588013 
L 907.960174 99.14748 
L 963.553201 4.823679 
" clip-path="url(#pde18c0918a)" style="fill: none; stroke: #7a7a7a; stroke-width: 3; stroke-linecap: square"/>
   </g>
   <g id="line2d_132">
    <path d="M 712.766879 179.71135 
L 751.064298 183.597743 
L 789.567617 183.597743 
L 827.453235 179.921426 
L 863.897553 173.199017 
L 897.459269 163.850667 
L 927.108883 152.296526 
L 952.022795 138.851708 
L 970.965605 124.251476 
L 982.90781 108.705906 
L 1037.059537 17.218121 
" clip-path="url(#pde18c0918a)" style="fill: none; stroke: #7a7a7a; stroke-width: 3; stroke-linecap: square"/>
   </g>
   <g id="line2d_133">
    <path d="M 826.217834 365.838049 
L 1037.059537 17.218121 
" clip-path="url(#pde18c0918a)" style="fill: none; stroke: #7a7a7a; stroke-width: 3; stroke-linecap: square"/>
   </g>
   <g id="line2d_134">
    <path d="M 891.488166 376.341813 
L 1111.183573 30.242788 
" clip-path="url(#pde18c0918a)" style="fill: none; stroke: #7a7a7a; stroke-width: 3; stroke-linecap: square"/>
   </g>
   <g id="line2d_135">
    <path d="M 826.217834 365.838049 
L 1111.183573 30.242788 
" clip-path="url(#pde18c0918a)" style="fill: none; stroke: #7a7a7a; stroke-width: 3; stroke-linecap: square"/>
   </g>
   <g id="line2d_136">
    <path d="M 891.488166 376.341813 
L 1180.571906 43.897681 
" clip-path="url(#pde18c0918a)" style="fill: none; stroke: #7a7a7a; stroke-width: 3; stroke-linecap: square"/>
   </g>
   <g id="line2d_137">
    <path d="M -1 1273.156573 
L 56.975061 1282.291461 
" clip-path="url(#pde18c0918a)" style="fill: none; stroke: #7a7a7a; stroke-width: 3; stroke-linecap: square"/>
   </g>
   <g id="line2d_138">
    <path d="M -1 1338.078807 
L 22.589744 1341.742766 
" clip-path="url(#pde18c0918a)" style="fill: none; stroke: #7a7a7a; stroke-width: 3; stroke-linecap: square"/>
   </g>
   <g id="line2d_139">
    <path d="M 56.975061 1282.291461 
L 105.773385 1289.854171 
L 154.983509 1295.106053 
L 202.340532 1295.841317 
L 247.226753 1292.690188 
L 289.436274 1286.387929 
L 328.351393 1277.564767 
L 363.35441 1267.061003 
L 394.033525 1255.506863 
L 419.771037 1243.63761 
L 440.155147 1232.188507 
L 454.774054 1221.684743 
L 462.804158 1213.386769 
" clip-path="url(#pde18c0918a)" style="fill: none; stroke: #7a7a7a; stroke-width: 3; stroke-linecap: square"/>
   </g>
   <g id="line2d_140">
    <path d="M 22.589744 1341.742766 
L 71.388068 1349.410513 
L 109.685487 1351.826379 
L 148.394705 1351.721341 
L 187.515724 1349.200438 
L 226.224943 1344.368707 
L 264.110562 1337.646298 
L 300.966679 1329.033211 
L 336.175597 1318.84456 
L 369.119613 1307.185382 
L 399.386927 1294.37079 
L 426.56574 1280.505821 
L 450.038352 1265.695514 
L 469.598861 1250.360019 
L 482.776468 1236.284975 
L 494.306873 1218.428576 
" clip-path="url(#pde18c0918a)" style="fill: none; stroke: #7a7a7a; stroke-width: 3; stroke-linecap: square"/>
   </g>
   <g id="line2d_141">
    <path d="M 1131.14985 52.51882 
L 1129.871771 70.512542 
" clip-path="url(#pde18c0918a)" style="fill: none; stroke-dasharray: 32,8,5,8; stroke-dashoffset: 0; stroke: #1e90ff; stroke-width: 5"/>
   </g>
   <g id="line2d_142">
    <path d="M 411.8002 1124.887079 
L 547.286588 865.700499 
" clip-path="url(#pde18c0918a)" style="fill: none; stroke-dasharray: 32,8,5,8; stroke-dashoffset: 0; stroke: #1e90ff; stroke-width: 5"/>
   </g>
   <g id="line2d_143">
    <path d="M 1131.14985 52.51882 
" clip-path="url(#pde18c0918a)" style="fill: none; stroke: #0000ff; stroke-width: 1.5; stroke-linecap: square"/>
    <defs>
     <path id="mccd010dc95" d="M 0 10 
C 2.652031 10 5.195799 8.946337 7.071068 7.071068 
C 8.946337 5.195799 10 2.652031 10 0 
C 10 -2.652031 8.946337 -5.195799 7.071068 -7.071068 
C 5.195799 -8.946337 2.652031 -10 0 -10 
C -2.652031 -10 -5.195799 -8.946337 -7.071068 -7.071068 
C -8.946337 -5.195799 -10 -2.652031 -10 0 
C -10 2.652031 -8.946337 5.195799 -7.071068 7.071068 
C -5.195799 8.946337 -2.652031 10 0 10 
z
" style="stroke: #0000ff"/>
    </defs>
    <g clip-path="url(#pde18c0918a)">
     <use xlink:href="#mccd010dc95" x="1131.14985" y="52.51882" style="fill: #0000ff; stroke: #0000ff"/>
    </g>
   </g>
   <g id="line2d_144">
    <path d="M 411.8002 1124.887079 
" clip-path="url(#pde18c0918a)" style="fill: none; stroke: #0000ff; stroke-width: 1.5; stroke-linecap: square"/>
    <g clip-path="url(#pde18c0918a)">
     <use xlink:href="#mccd010dc95" x="411.8002" y="1124.887079" style="fill: #0000ff; stroke: #0000ff"/>
    </g>
   </g>
   <g id="line2d_145">
    <path d="M 1129.871771 70.512542 
" clip-path="url(#pde18c0918a)" style="fill: none; stroke: #ff0000; stroke-width: 1.5; stroke-linecap: square"/>
    <defs>
     <path id="mdaa925f318" d="M 0 -10 
L -2.24514 -3.09017 
L -9.510565 -3.09017 
L -3.632713 1.18034 
L -5.877853 8.09017 
L -0 3.81966 
L 5.877853 8.09017 
L 3.632713 1.18034 
L 9.510565 -3.09017 
L 2.24514 -3.09017 
z
" style="stroke: #ff0000; stroke-linejoin: bevel"/>
    </defs>
    <g clip-path="url(#pde18c0918a)">
     <use xlink:href="#mdaa925f318" x="1129.871771" y="70.512542" style="fill: #ff0000; stroke: #ff0000; stroke-linejoin: bevel"/>
    </g>
   </g>
   <g id="line2d_146">
    <path d="M 547.286588 865.700499 
" clip-path="url(#pde18c0918a)" style="fill: none; stroke: #ff0000; stroke-width: 1.5; stroke-linecap: square"/>
    <g clip-path="url(#pde18c0918a)">
     <use xlink:href="#mdaa925f318" x="547.286588" y="865.700499" style="fill: #ff0000; stroke: #ff0000; stroke-linejoin: bevel"/>
    </g>
   </g>
  </g>
 </g>
 <defs>
  <clipPath id="pde18c0918a">
   <rect x="0" y="0" width="1440" height="1440"/>
  </clipPath>
 </defs>
</svg>
