<?xml version="1.0" encoding="utf-8" standalone="no"?>
<!DOCTYPE svg PUBLIC "-//W3C//DTD SVG 1.1//EN"
  "http://www.w3.org/Graphics/SVG/1.1/DTD/svg11.dtd">
<svg xmlns:xlink="http://www.w3.org/1999/xlink" width="1440pt" height="1440pt" viewBox="0 0 1440 1440" xmlns="http://www.w3.org/2000/svg" version="1.1">
 <metadata>
  <rdf:RDF xmlns:dc="http://purl.org/dc/elements/1.1/" xmlns:cc="http://creativecommons.org/ns#" xmlns:rdf="http://www.w3.org/1999/02/22-rdf-syntax-ns#">
   <cc:Work>
    <dc:type rdf:resource="http://purl.org/dc/dcmitype/StillImage"/>
    <dc:date>2026-02-27T11:04:13.286203</dc:date>
    <dc:format>image/svg+xml</dc:format>
    <dc:creator>
     <cc:Agent>
      <dc:title>Matplotlib v3.7.3, https://matplotlib.org/</dc:title>
     </cc:Agent>
    </dc:creator>
   </cc:Work>
  </rdf:RDF>
 </metadata>
 <defs>
  <style type="text/css">*{stroke-linejoin: round; stroke-linecap: butt}</style>
 </defs>
 <g id="figure_1">
  <g id="patch_1">
   <path d="M 0 1440 
L 1440 1440 
L 1440 0 
L 0 0 
z
" style="fill: #ffffff"/>
  </g>
  <g id="axes_1">
   <g id="line2d_1">
    <path d="M 494.349803 136.348173 
L 488.313313 140.539567 
L 458.249223 153.008965 
L 430.78911 160.972614 
L 405.932973 164.849654 
L 383.799175 164.849654 
L 364.506078 161.601323 
L 348.053682 155.314232 
L 334.678713 146.302734 
L 324.144446 135.090755 
" clip-path="url(#p45bf765d7d)" style="fill: none; stroke: #7a7a7a; stroke-width: 3; stroke-linecap: square"/>
   </g>
   <g id="line2d_2">
    <path d="M 484.999161 120.10652 
L 478.962671 124.297914 
L 467.481503 127.8606 
L 465.232614 129.013233 
L 458.012498 131.842424 
L 451.857645 132.995057 
L 445.821155 132.995057 
L 431.025835 131.842424 
L 423.805719 130.585006 
L 417.769229 128.908448 
L 408.181862 124.926624 
L 401.671921 121.154369 
L 394.806893 115.810341 
L 389.12549 110.047174 
L 380.129935 99.568688 
" clip-path="url(#p45bf765d7d)" style="fill: none; stroke: #7a7a7a; stroke-width: 3; stroke-linecap: square"/>
   </g>
   <g id="line2d_3">
    <path d="M 512.104187 168.517124 
L 482.63191 180.043458 
L 455.171797 187.273613 
L 429.723847 190.207589 
L 406.643148 189.474095 
L 386.048063 185.177916 
L 368.175317 177.842976 
L 353.143272 167.57406 
L 341.307017 154.895092 
L 324.144446 135.090755 
" clip-path="url(#p45bf765d7d)" style="fill: none; stroke: #7a7a7a; stroke-width: 3; stroke-linecap: square"/>
   </g>
   <g id="line2d_4">
    <path d="M 494.349803 136.348173 
L 471.97928 143.578328 
L 449.727119 144.940531 
L 428.895309 141.063491 
L 410.9042 132.366348 
L 397.174144 119.373026 
L 380.129935 99.568688 
" clip-path="url(#p45bf765d7d)" style="fill: none; stroke: #7a7a7a; stroke-width: 3; stroke-linecap: square"/>
   </g>
   <g id="line2d_5">
    <path d="M 272.775096 288.390999 
L -1 475.019196 
" clip-path="url(#p45bf765d7d)" style="fill: none; stroke: #7a7a7a; stroke-width: 3; stroke-linecap: square"/>
   </g>
   <g id="line2d_6">
    <path d="M 256.796151 275.397677 
L 179.150313 329.990587 
L -1 451.275908 
" clip-path="url(#p45bf765d7d)" style="fill: none; stroke: #7a7a7a; stroke-width: 3; stroke-linecap: square"/>
   </g>
   <g id="line2d_7">
    <path d="M 624.785342 45.709272 
L 494.349803 136.348173 
" clip-path="url(#p45bf765d7d)" style="fill: none; stroke: #7a7a7a; stroke-width: 3; stroke-linecap: square"/>
   </g>
   <g id="line2d_8">
    <path d="M 612.830723 33.13509 
L 484.999161 120.10652 
" clip-path="url(#p45bf765d7d)" style="fill: none; stroke: #7a7a7a; stroke-width: 3; stroke-linecap: square"/>
   </g>
   <g id="line2d_9">
    <path d="M 622.773178 478.365943 
L 729.536205 598.344603 
" clip-path="url(#p45bf765d7d)" style="fill: none; stroke: #7a7a7a; stroke-width: 3; stroke-linecap: square"/>
   </g>
   <g id="line2d_10">
    <path d="M 592.827451 500.056408 
L 597.917041 503.723878 
L 606.084057 512.106667 
L 634.135984 544.066048 
L 652.718905 566.490007 
L 671.420189 589.85703 
L 680.770831 601.383364 
L 682.782995 604.002985 
" clip-path="url(#p45bf765d7d)" style="fill: none; stroke: #7a7a7a; stroke-width: 3; stroke-linecap: square"/>
   </g>
   <g id="line2d_11">
    <path d="M 264.608079 616.996307 
L 264.963167 616.786738 
L 270.289482 613.119268 
L 305.916612 588.180472 
" clip-path="url(#p45bf765d7d)" style="fill: none; stroke: #7a7a7a; stroke-width: 3; stroke-linecap: square"/>
   </g>
   <g id="line2d_12">
    <path d="M 295.737432 616.996307 
L 296.210882 616.786738 
L 301.063747 613.433622 
L 301.537197 613.119268 
L 321.422107 599.287667 
" clip-path="url(#p45bf765d7d)" style="fill: none; stroke: #7a7a7a; stroke-width: 3; stroke-linecap: square"/>
   </g>
   <g id="line2d_13">
    <path d="M 622.773178 478.365943 
L 604.663707 458.037681 
L 593.892714 444.41565 
L 587.264411 428.278782 
L 584.660435 410.465356 
L 585.962423 391.813652 
L 591.052013 373.371517 
L 599.810842 355.872446 
L 612.120548 340.259503 
L 627.03423 325.903977 
" clip-path="url(#p45bf765d7d)" style="fill: none; stroke: #7a7a7a; stroke-width: 3; stroke-linecap: square"/>
   </g>
   <g id="line2d_14">
    <path d="M 655.914694 455.20849 
L 637.923585 434.775443 
L 626.205692 417.485942 
L 624.666979 396.52897 
L 631.17692 375.886354 
L 643.604988 359.644701 
" clip-path="url(#p45bf765d7d)" style="fill: none; stroke: #7a7a7a; stroke-width: 3; stroke-linecap: square"/>
   </g>
   <g id="line2d_15">
    <path d="M 324.144446 135.090755 
L 333.850176 147.874507 
L 340.123391 162.544387 
L 342.609005 178.681255 
L 341.307017 196.285111 
L 335.507251 215.146385 
L 325.091346 235.055507 
L 309.704214 255.907694 
L 288.990766 277.388589 
L 272.775096 288.390999 
" clip-path="url(#p45bf765d7d)" style="fill: none; stroke: #7a7a7a; stroke-width: 3; stroke-linecap: square"/>
   </g>
   <g id="line2d_16">
    <path d="M 272.656733 170.508036 
L 285.794977 189.474095 
L 286.38679 191.360222 
L 287.33369 192.617641 
L 288.517316 195.342047 
L 288.872404 198.171238 
L 288.754041 198.799947 
L 292.186555 209.802357 
L 291.94983 230.025834 
L 285.43989 248.677539 
L 273.011821 264.395267 
L 256.796151 275.397677 
" clip-path="url(#p45bf765d7d)" style="fill: none; stroke: #7a7a7a; stroke-width: 3; stroke-linecap: square"/>
   </g>
   <g id="line2d_17">
    <path d="M 417.650866 468.097027 
L 422.148643 464.953481 
L 442.151916 454.78935 
L 463.220451 447.559195 
L 484.999161 442.948662 
L 507.014597 440.957749 
L 529.030033 441.481674 
L 550.572018 444.41565 
L 571.04874 449.759677 
L 590.223475 457.199402 
L 607.622771 466.734824 
L 622.773178 478.365943 
" clip-path="url(#p45bf765d7d)" style="fill: none; stroke: #7a7a7a; stroke-width: 3; stroke-linecap: square"/>
   </g>
   <g id="line2d_18">
    <path d="M 441.560103 496.179368 
L 446.05788 493.035823 
L 469.730391 484.12911 
L 493.876353 478.785082 
L 517.548865 476.898955 
L 540.156113 478.156373 
L 560.751198 482.557337 
L 578.623944 489.892277 
L 592.827451 500.056408 
" clip-path="url(#p45bf765d7d)" style="fill: none; stroke: #7a7a7a; stroke-width: 3; stroke-linecap: square"/>
   </g>
   <g id="line2d_19">
    <path d="M 830.269654 -1 
L 678.285217 102.083525 
" clip-path="url(#p45bf765d7d)" style="fill: none; stroke: #7a7a7a; stroke-width: 3; stroke-linecap: square"/>
   </g>
   <g id="line2d_20">
    <path d="M 760.307461 -1 
L 651.061829 73.372474 
" clip-path="url(#p45bf765d7d)" style="fill: none; stroke: #7a7a7a; stroke-width: 3; stroke-linecap: square"/>
   </g>
   <g id="line2d_21">
    <path d="M 274.195447 567.328286 
L 417.650866 468.097027 
" clip-path="url(#p45bf765d7d)" style="fill: none; stroke: #7a7a7a; stroke-width: 3; stroke-linecap: square"/>
   </g>
   <g id="line2d_22">
    <path d="M 305.916612 588.180472 
L 441.560103 496.179368 
" clip-path="url(#p45bf765d7d)" style="fill: none; stroke: #7a7a7a; stroke-width: 3; stroke-linecap: square"/>
   </g>
   <g id="line2d_23">
    <path d="M 643.604988 359.644701 
L 1171.559422 -1 
" clip-path="url(#p45bf765d7d)" style="fill: none; stroke: #7a7a7a; stroke-width: 3; stroke-linecap: square"/>
   </g>
   <g id="line2d_24">
    <path d="M 657.216682 369.913617 
L 675.917966 354.824598 
L 689.411298 344.660467 
L 720.777376 323.179571 
L 754.392342 302.01303 
L 773.211988 290.486696 
L 791.676547 277.807729 
L 793.688711 276.655095 
L 962.59208 161.182184 
L 969.457109 155.733371 
L 990.762369 140.539567 
L 1034.556515 110.466313 
L 1056.690313 96.739497 
L 1061.188091 93.805521 
L 1162.50644 24.542731 
L 1175.644684 14.273816 
L 1183.574975 8.825003 
L 1199.030607 -1 
" clip-path="url(#p45bf765d7d)" style="fill: none; stroke: #7a7a7a; stroke-width: 3; stroke-linecap: square"/>
   </g>
   <g id="line2d_25">
    <path d="M 441.560103 496.179368 
L 643.604988 359.644701 
" clip-path="url(#p45bf765d7d)" style="fill: none; stroke: #7a7a7a; stroke-width: 3; stroke-linecap: square"/>
   </g>
   <g id="line2d_26">
    <path d="M 451.029107 509.172691 
L 470.085479 497.436787 
L 483.933898 487.901365 
L 657.216682 369.913617 
" clip-path="url(#p45bf765d7d)" style="fill: none; stroke: #7a7a7a; stroke-width: 3; stroke-linecap: square"/>
   </g>
   <g id="line2d_27">
    <path d="M 760.307461 -1 
L 651.061829 73.372474 
" clip-path="url(#p45bf765d7d)" style="fill: none; stroke: #7a7a7a; stroke-width: 3; stroke-linecap: square"/>
   </g>
   <g id="line2d_28">
    <path d="M 693.940033 -1 
L 624.785342 45.709272 
" clip-path="url(#p45bf765d7d)" style="fill: none; stroke: #7a7a7a; stroke-width: 3; stroke-linecap: square"/>
   </g>
   <g id="line2d_29">
    <path d="M 607.977858 286.504872 
L 654.020893 255.1742 
L 655.559606 254.335921 
L 678.87703 239.770826 
L 689.766386 232.016746 
L 704.916793 222.795679 
L 712.610359 218.394715 
L 724.091527 209.907142 
L 733.205444 203.62005 
L 746.580413 193.770274 
L 759.600294 184.444422 
L 774.869064 174.070721 
L 790.611284 163.592235 
L 820.793737 142.425695 
L 855.473966 118.534747 
L 888.260394 96.215573 
L 926.254775 71.591132 
L 943.772434 58.912164 
L 969.812196 40.993954 
L 970.048921 40.784384 
L 1022.246809 7.148445 
L 1034.540887 -1 
" clip-path="url(#p45bf765d7d)" style="fill: none; stroke: #7a7a7a; stroke-width: 3; stroke-linecap: square"/>
   </g>
   <g id="line2d_30">
    <path d="M 627.03423 325.903977 
L 1106.23632 -1 
" clip-path="url(#p45bf765d7d)" style="fill: none; stroke: #7a7a7a; stroke-width: 3; stroke-linecap: square"/>
   </g>
   <g id="line2d_31">
    <path d="M 303.667723 311.129313 
L -1 519.38376 
" clip-path="url(#p45bf765d7d)" style="fill: none; stroke: #7a7a7a; stroke-width: 3; stroke-linecap: square"/>
   </g>
   <g id="line2d_32">
    <path d="M 272.775096 288.390999 
L -1 475.019196 
" clip-path="url(#p45bf765d7d)" style="fill: none; stroke: #7a7a7a; stroke-width: 3; stroke-linecap: square"/>
   </g>
   <g id="line2d_33">
    <path d="M 622.773178 478.365943 
L 324.144446 135.090755 
" clip-path="url(#p45bf765d7d)" style="fill: none; stroke: #7a7a7a; stroke-width: 3; stroke-linecap: square"/>
   </g>
   <g id="line2d_34">
    <path d="M 655.914694 455.20849 
L 380.129935 99.568688 
" clip-path="url(#p45bf765d7d)" style="fill: none; stroke: #7a7a7a; stroke-width: 3; stroke-linecap: square"/>
   </g>
   <g id="line2d_35">
    <path d="M 330.654386 339.316439 
L 261.530653 385.002636 
L 257.979776 387.203118 
L 239.988668 399.253377 
L -1 567.57747 
" clip-path="url(#p45bf765d7d)" style="fill: none; stroke: #7a7a7a; stroke-width: 3; stroke-linecap: square"/>
   </g>
   <g id="line2d_36">
    <path d="M 303.667723 311.129313 
L -1 519.38376 
" clip-path="url(#p45bf765d7d)" style="fill: none; stroke: #7a7a7a; stroke-width: 3; stroke-linecap: square"/>
   </g>
   <g id="line2d_37">
    <path d="M 622.773178 478.365943 
L 519.561028 362.054753 
L 503.226995 350.214064 
L 483.10536 340.888212 
L 460.498112 334.077196 
L 436.233788 329.466663 
L 411.614376 327.266181 
L 387.705139 327.161396 
L 365.452978 329.152308 
L 346.159881 333.343702 
L 330.654386 339.316439 
" clip-path="url(#p45bf765d7d)" style="fill: none; stroke: #7a7a7a; stroke-width: 3; stroke-linecap: square"/>
   </g>
   <g id="line2d_38">
    <path d="M 655.914694 455.20849 
L 552.820907 338.8973 
L 538.14395 325.170483 
L 520.507928 313.853719 
L 500.386294 304.737436 
L 478.489221 297.821636 
L 455.290159 293.001533 
L 431.380923 290.172342 
L 407.234961 289.229278 
L 383.444087 290.172342 
L 360.718476 293.001533 
L 339.413216 297.402497 
L 320.238481 303.480018 
L 303.667723 311.129313 
" clip-path="url(#p45bf765d7d)" style="fill: none; stroke: #7a7a7a; stroke-width: 3; stroke-linecap: square"/>
   </g>
   <g id="line2d_39">
    <path d="M 199.508673 616.996307 
L 199.863761 616.786738 
L 205.190076 613.119268 
L 274.195447 567.328286 
" clip-path="url(#p45bf765d7d)" style="fill: none; stroke: #7a7a7a; stroke-width: 3; stroke-linecap: square"/>
   </g>
   <g id="line2d_40">
    <path d="M 264.608079 616.996307 
L 264.963167 616.786738 
L 270.289482 613.119268 
L 305.916612 588.180472 
" clip-path="url(#p45bf765d7d)" style="fill: none; stroke: #7a7a7a; stroke-width: 3; stroke-linecap: square"/>
   </g>
   <g id="line2d_41">
    <path d="M 494.349803 136.348173 
L 272.775096 288.390999 
" clip-path="url(#p45bf765d7d)" style="fill: none; stroke: #7a7a7a; stroke-width: 3; stroke-linecap: square"/>
   </g>
   <g id="line2d_42">
    <path d="M 484.999161 120.10652 
L 256.796151 275.397677 
" clip-path="url(#p45bf765d7d)" style="fill: none; stroke: #7a7a7a; stroke-width: 3; stroke-linecap: square"/>
   </g>
   <g id="line2d_43">
    <path d="M 391.966191 437.290279 
L 407.590049 425.763945 
L 419.426304 412.351484 
L 427.711684 397.262464 
L 432.682911 380.811242 
L 434.695074 363.102601 
L 433.984899 344.346112 
L 430.78911 324.751344 
L 425.462795 304.737436 
L 418.124316 284.30439 
L 409.247125 263.661773 
L 398.949582 243.228726 
L 387.586777 223.110034 
L 375.513796 203.515266 
L 362.73064 184.758776 
L 349.829121 166.945351 
L 336.809239 150.284559 
L 324.144446 135.090755 
" clip-path="url(#p45bf765d7d)" style="fill: none; stroke: #7a7a7a; stroke-width: 3; stroke-linecap: square"/>
   </g>
   <g id="line2d_44">
    <path d="M 417.650866 468.097027 
L 434.221624 457.618541 
L 448.070043 445.149144 
L 459.196124 430.898403 
L 467.954953 415.07589 
L 474.228169 397.786389 
L 478.370858 379.344254 
L 480.501384 359.854271 
L 480.619747 339.526009 
L 478.962671 318.464253 
L 475.530157 297.088142 
L 470.677292 275.292892 
L 464.404076 253.602427 
L 456.828873 231.911962 
L 448.188406 210.535851 
L 438.601039 189.683665 
L 428.066771 169.460187 
L 416.822328 150.179774 
L 404.986072 132.051994 
L 392.676367 115.076847 
L 380.129935 99.568688 
" clip-path="url(#p45bf765d7d)" style="fill: none; stroke: #7a7a7a; stroke-width: 3; stroke-linecap: square"/>
   </g>
   <g id="line2d_45">
    <path d="M 417.650866 468.097027 
L 627.03423 325.903977 
" clip-path="url(#p45bf765d7d)" style="fill: none; stroke: #7a7a7a; stroke-width: 3; stroke-linecap: square"/>
   </g>
   <g id="line2d_46">
    <path d="M 441.560103 496.179368 
L 643.604988 359.644701 
" clip-path="url(#p45bf765d7d)" style="fill: none; stroke: #7a7a7a; stroke-width: 3; stroke-linecap: square"/>
   </g>
   <g id="line2d_47">
    <path d="M 622.773178 478.365943 
L 583.476809 442.110383 
L 550.335293 413.294547 
L 519.324303 387.831827 
L 490.207114 365.722223 
L 463.220451 346.546594 
L 438.127589 330.304941 
L 414.928527 316.68291 
L 393.623267 305.575715 
L 374.211808 296.773787 
L 356.457424 290.067557 
L 340.360116 285.247453 
L 326.038247 282.103908 
L 313.373453 280.532135 
L 302.247373 280.21778 
L 292.660006 281.056059 
L 284.611352 282.837402 
L 277.983048 285.352238 
L 272.775096 288.390999 
" clip-path="url(#p45bf765d7d)" style="fill: none; stroke: #7a7a7a; stroke-width: 3; stroke-linecap: square"/>
   </g>
   <g id="line2d_48">
    <path d="M 655.914694 455.20849 
L 652.00873 451.33145 
L 621.707915 420.419918 
L 592.117276 392.756716 
L 563.355174 368.341844 
L 535.303248 347.070518 
L 508.198223 328.523599 
L 482.15846 312.701086 
L 457.065598 299.393409 
L 433.037999 288.495784 
L 410.194025 279.693856 
L 388.65204 272.88284 
L 368.412042 267.853167 
L 349.474033 264.500052 
L 332.074737 262.613924 
L 316.214154 261.985215 
L 301.892285 262.50914 
L 289.345854 263.871343 
L 278.338136 266.071825 
L 269.342582 268.796231 
L 262.004103 272.044561 
L 256.796151 275.397677 
" clip-path="url(#p45bf765d7d)" style="fill: none; stroke: #7a7a7a; stroke-width: 3; stroke-linecap: square"/>
   </g>
   <g id="line2d_49">
    <path d="M 693.940033 -1 
L 624.785342 45.709272 
" clip-path="url(#p45bf765d7d)" style="fill: none; stroke: #7a7a7a; stroke-width: 3; stroke-linecap: square"/>
   </g>
   <g id="line2d_50">
    <path d="M 662.992432 -1 
L 612.830723 33.13509 
" clip-path="url(#p45bf765d7d)" style="fill: none; stroke: #7a7a7a; stroke-width: 3; stroke-linecap: square"/>
   </g>
   <g id="line2d_51">
    <path d="M 324.144446 135.090755 
L 334.086901 146.512304 
L 342.84573 163.592235 
L 349.474033 180.253028 
L 353.49836 196.91382 
L 354.681986 213.784181 
L 352.55146 231.073683 
L 346.633332 249.201463 
L 336.809239 268.377091 
L 322.605733 288.914923 
L 303.667723 311.129313 
" clip-path="url(#p45bf765d7d)" style="fill: none; stroke: #7a7a7a; stroke-width: 3; stroke-linecap: square"/>
   </g>
   <g id="line2d_52">
    <path d="M 272.656733 170.508036 
L 282.599188 181.929585 
L 293.133456 197.437744 
L 299.051584 214.308106 
L 300.116847 232.226316 
L 296.329245 250.773236 
L 287.215328 269.63451 
L 272.775096 288.390999 
" clip-path="url(#p45bf765d7d)" style="fill: none; stroke: #7a7a7a; stroke-width: 3; stroke-linecap: square"/>
   </g>
   <g id="line2d_53">
    <path d="M 530.923834 202.048278 
L 330.654386 339.316439 
" clip-path="url(#p45bf765d7d)" style="fill: none; stroke: #7a7a7a; stroke-width: 3; stroke-linecap: square"/>
   </g>
   <g id="line2d_54">
    <path d="M 512.104187 168.517124 
L 303.667723 311.129313 
" clip-path="url(#p45bf765d7d)" style="fill: none; stroke: #7a7a7a; stroke-width: 3; stroke-linecap: square"/>
   </g>
   <g id="line2d_55">
    <path d="M 305.916612 588.180472 
L 441.560103 496.179368 
" clip-path="url(#p45bf765d7d)" style="fill: none; stroke: #7a7a7a; stroke-width: 3; stroke-linecap: square"/>
   </g>
   <g id="line2d_56">
    <path d="M 321.422107 599.287667 
L 343.31918 584.093863 
L 369.122218 566.070867 
L 401.316833 543.542123 
L 431.854373 521.537304 
L 451.029107 509.172691 
" clip-path="url(#p45bf765d7d)" style="fill: none; stroke: #7a7a7a; stroke-width: 3; stroke-linecap: square"/>
   </g>
   <g id="line2d_57">
    <path d="M 530.923834 202.048278 
L 523.940443 209.278433 
L 518.25904 218.604285 
L 513.997988 230.025834 
L 511.275649 243.333511 
L 510.210386 258.42253 
L 511.038924 275.188107 
L 513.761263 293.525457 
L 518.495765 313.329795 
L 525.479156 334.391551 
L 534.829798 356.710725 
L 546.547691 380.182533 
L 560.869561 404.702189 
L 577.795406 430.060124 
L 597.680316 456.151553 
L 622.773178 478.365943 
" clip-path="url(#p45bf765d7d)" style="fill: none; stroke: #7a7a7a; stroke-width: 3; stroke-linecap: square"/>
   </g>
   <g id="line2d_58">
    <path d="M 512.104187 168.517124 
L 497.190505 180.253028 
L 485.709337 194.084629 
L 477.305595 209.802357 
L 471.97928 227.091858 
L 469.256941 245.743563 
L 469.020216 265.5479 
L 471.150742 286.085732 
L 475.293432 307.147488 
L 481.329922 328.418814 
L 488.905126 349.794925 
L 497.782317 370.961466 
L 507.961497 391.604082 
L 518.969215 411.40842 
L 530.687108 430.269694 
L 542.878452 447.768765 
L 555.30652 463.696063 
L 567.734589 477.842019 
L 592.827451 500.056408 
" clip-path="url(#p45bf765d7d)" style="fill: none; stroke: #7a7a7a; stroke-width: 3; stroke-linecap: square"/>
   </g>
   <g id="line2d_59">
    <path d="M 126.7157 616.996307 
L 127.070788 616.786738 
L 132.042015 613.328837 
L 132.397103 613.119268 
L 234.54399 543.856478 
" clip-path="url(#p45bf765d7d)" style="fill: none; stroke: #7a7a7a; stroke-width: 3; stroke-linecap: square"/>
   </g>
   <g id="line2d_60">
    <path d="M 199.508673 616.996307 
L 199.863761 616.786738 
L 205.190076 613.119268 
L 274.195447 567.328286 
" clip-path="url(#p45bf765d7d)" style="fill: none; stroke: #7a7a7a; stroke-width: 3; stroke-linecap: square"/>
   </g>
   <g id="line2d_61">
    <path d="M 678.285217 102.083525 
L 530.923834 202.048278 
" clip-path="url(#p45bf765d7d)" style="fill: none; stroke: #7a7a7a; stroke-width: 3; stroke-linecap: square"/>
   </g>
   <g id="line2d_62">
    <path d="M 651.061829 73.372474 
L 512.104187 168.517124 
" clip-path="url(#p45bf765d7d)" style="fill: none; stroke: #7a7a7a; stroke-width: 3; stroke-linecap: square"/>
   </g>
   <g id="line2d_63">
    <path d="M 441.560103 496.179368 
L 474.464894 474.069764 
L 498.492493 465.267836 
L 521.218104 460.866872 
L 542.996814 460.133378 
L 563.828624 462.33386 
L 584.068622 466.630039 
L 603.598444 472.183636 
L 622.773178 478.365943 
" clip-path="url(#p45bf765d7d)" style="fill: none; stroke: #7a7a7a; stroke-width: 3; stroke-linecap: square"/>
   </g>
   <g id="line2d_64">
    <path d="M 451.029107 509.172691 
L 483.933898 486.958301 
L 501.688282 478.365943 
L 521.809917 474.488903 
L 542.641727 474.908043 
L 562.526636 479.518576 
L 579.80757 488.00615 
L 592.827451 500.056408 
" clip-path="url(#p45bf765d7d)" style="fill: none; stroke: #7a7a7a; stroke-width: 3; stroke-linecap: square"/>
   </g>
   <g id="line2d_65">
    <path d="M 324.144446 135.090755 
L 437.535776 265.5479 
L 452.449458 276.75988 
L 469.256941 285.876162 
L 487.958225 292.582393 
L 508.671673 296.983357 
L 531.042196 298.659915 
L 555.069795 297.612066 
L 580.75447 293.630242 
L 607.977858 286.504872 
" clip-path="url(#p45bf765d7d)" style="fill: none; stroke: #7a7a7a; stroke-width: 3; stroke-linecap: square"/>
   </g>
   <g id="line2d_66">
    <path d="M 272.656733 170.508036 
L 386.166426 300.965182 
L 405.459523 314.168074 
L 425.69952 325.484838 
L 446.649693 334.81069 
L 468.310041 342.040845 
L 490.325476 347.175303 
L 512.932725 350.004494 
L 535.776698 350.528419 
L 558.739035 348.537506 
L 581.819733 344.136542 
L 604.900432 337.115957 
L 627.03423 325.903977 
" clip-path="url(#p45bf765d7d)" style="fill: none; stroke: #7a7a7a; stroke-width: 3; stroke-linecap: square"/>
   </g>
   <g id="line2d_67">
    <path d="M 324.144446 135.090755 
L 351.012746 165.373578 
L 384.50935 201.733923 
L 415.638703 233.693304 
L 444.400804 261.461291 
L 470.795654 285.247453 
L 494.941616 305.366146 
L 517.075414 322.131723 
L 536.960324 335.753754 
L 554.951433 346.546594 
L 571.04874 354.824598 
L 585.252247 360.797334 
L 597.680316 364.779159 
L 608.451309 367.084426 
L 617.565226 367.922705 
L 625.022067 367.60835 
L 631.17692 366.455717 
L 635.793059 364.674374 
L 643.604988 359.644701 
" clip-path="url(#p45bf765d7d)" style="fill: none; stroke: #7a7a7a; stroke-width: 3; stroke-linecap: square"/>
   </g>
   <g id="line2d_68">
    <path d="M 272.656733 170.508036 
L 299.525034 200.790859 
L 340.715204 229.71148 
L 378.236135 255.593339 
L 412.324551 278.750792 
L 443.217179 299.079054 
L 471.150742 316.787695 
L 496.243604 332.086284 
L 518.73249 345.079606 
L 538.735762 355.872446 
L 556.608508 364.674374 
L 572.587454 371.48539 
L 586.672598 376.515063 
L 599.219029 379.868178 
L 610.34511 381.649521 
L 620.405927 382.173445 
L 629.401481 381.335166 
L 637.68686 379.449039 
L 645.380427 376.619848 
L 652.718905 372.847593 
L 657.216682 369.913617 
" clip-path="url(#p45bf765d7d)" style="fill: none; stroke: #7a7a7a; stroke-width: 3; stroke-linecap: square"/>
   </g>
   <g id="line2d_69">
    <path d="M 324.144446 135.090755 
L 209.806215 2.223557 
" clip-path="url(#p45bf765d7d)" style="fill: none; stroke: #7a7a7a; stroke-width: 3; stroke-linecap: square"/>
   </g>
   <g id="line2d_70">
    <path d="M 380.129935 99.568688 
L 345.686431 59.855228 
L 292.286673 -1 
" clip-path="url(#p45bf765d7d)" style="fill: none; stroke: #7a7a7a; stroke-width: 3; stroke-linecap: square"/>
   </g>
   <g id="line2d_71">
    <path d="M 512.104187 168.517124 
L 303.667723 311.129313 
" clip-path="url(#p45bf765d7d)" style="fill: none; stroke: #7a7a7a; stroke-width: 3; stroke-linecap: square"/>
   </g>
   <g id="line2d_72">
    <path d="M 494.349803 136.348173 
L 272.775096 288.390999 
" clip-path="url(#p45bf765d7d)" style="fill: none; stroke: #7a7a7a; stroke-width: 3; stroke-linecap: square"/>
   </g>
   <g id="line2d_73">
    <path d="M 745.870238 616.996307 
L 745.633513 616.786738 
L 742.437724 613.014483 
L 729.536205 598.344603 
" clip-path="url(#p45bf765d7d)" style="fill: none; stroke: #7a7a7a; stroke-width: 3; stroke-linecap: square"/>
   </g>
   <g id="line2d_74">
    <path d="M 797.713038 616.996307 
L 797.476313 616.681953 
L 794.162161 613.014483 
L 786.942045 604.841264 
L 785.521694 603.164706 
L 771.554913 586.503914 
" clip-path="url(#p45bf765d7d)" style="fill: none; stroke: #7a7a7a; stroke-width: 3; stroke-linecap: square"/>
   </g>
   <g id="line2d_75">
    <path d="M 324.144446 135.090755 
L 622.773178 478.365943 
" clip-path="url(#p45bf765d7d)" style="fill: none; stroke: #7a7a7a; stroke-width: 3; stroke-linecap: square"/>
   </g>
   <g id="line2d_76">
    <path d="M 272.656733 170.508036 
L 592.827451 500.056408 
" clip-path="url(#p45bf765d7d)" style="fill: none; stroke: #7a7a7a; stroke-width: 3; stroke-linecap: square"/>
   </g>
   <g id="line2d_77">
    <path d="M 391.966191 437.290279 
L 607.977858 286.504872 
" clip-path="url(#p45bf765d7d)" style="fill: none; stroke: #7a7a7a; stroke-width: 3; stroke-linecap: square"/>
   </g>
   <g id="line2d_78">
    <path d="M 417.650866 468.097027 
L 627.03423 325.903977 
" clip-path="url(#p45bf765d7d)" style="fill: none; stroke: #7a7a7a; stroke-width: 3; stroke-linecap: square"/>
   </g>
   <g id="line2d_79">
    <path d="M 651.061829 73.372474 
L 512.104187 168.517124 
" clip-path="url(#p45bf765d7d)" style="fill: none; stroke: #7a7a7a; stroke-width: 3; stroke-linecap: square"/>
   </g>
   <g id="line2d_80">
    <path d="M 624.785342 45.709272 
L 494.349803 136.348173 
" clip-path="url(#p45bf765d7d)" style="fill: none; stroke: #7a7a7a; stroke-width: 3; stroke-linecap: square"/>
   </g>
   <g id="line2d_81">
    <path d="M 627.03423 325.903977 
L 1106.23632 -1 
" clip-path="url(#p45bf765d7d)" style="fill: none; stroke: #7a7a7a; stroke-width: 3; stroke-linecap: square"/>
   </g>
   <g id="line2d_82">
    <path d="M 643.604988 359.644701 
L 1171.559422 -1 
" clip-path="url(#p45bf765d7d)" style="fill: none; stroke: #7a7a7a; stroke-width: 3; stroke-linecap: square"/>
   </g>
   <g id="line2d_83">
    <path d="M 622.773178 478.365943 
L 612.712361 464.534342 
L 606.912595 450.178817 
L 605.137157 434.356303 
L 607.504408 417.276372 
L 614.606162 399.043807 
L 626.442417 379.763393 
L 643.604988 359.644701 
" clip-path="url(#p45bf765d7d)" style="fill: none; stroke: #7a7a7a; stroke-width: 3; stroke-linecap: square"/>
   </g>
   <g id="line2d_84">
    <path d="M 655.914694 455.20849 
L 655.204519 454.265426 
L 644.670251 438.442913 
L 639.817386 421.886906 
L 637.923585 417.800296 
L 636.858322 413.923256 
L 637.095048 406.483532 
L 639.107211 391.708867 
L 640.882649 386.783979 
L 644.196801 381.439951 
L 650.233291 375.571999 
L 657.216682 369.913617 
" clip-path="url(#p45bf765d7d)" style="fill: none; stroke: #7a7a7a; stroke-width: 3; stroke-linecap: square"/>
   </g>
   <g id="line2d_85">
    <path d="M 234.54399 543.856478 
L 281.77065 512.421021 
L 315.740704 488.844429 
L 353.853448 461.809936 
L 391.966191 437.290279 
" clip-path="url(#p45bf765d7d)" style="fill: none; stroke: #7a7a7a; stroke-width: 3; stroke-linecap: square"/>
   </g>
   <g id="line2d_86">
    <path d="M 274.195447 567.328286 
L 417.650866 468.097027 
" clip-path="url(#p45bf765d7d)" style="fill: none; stroke: #7a7a7a; stroke-width: 3; stroke-linecap: square"/>
   </g>
   <g id="line2d_87">
    <path d="M 1441 1420.110288 
L 745.870238 616.996307 
" clip-path="url(#p45bf765d7d)" style="fill: none; stroke: #7a7a7a; stroke-width: 3; stroke-linecap: square"/>
   </g>
   <g id="line2d_88">
    <path d="M 1441 1367.221024 
L 1167.004217 1048.500345 
L 1156.233224 1037.18358 
L 1013.132892 874.452699 
L 914.655245 758.455863 
L 892.639809 728.068255 
L 822.569175 644.973864 
L 797.713038 616.996307 
" clip-path="url(#p45bf765d7d)" style="fill: none; stroke: #7a7a7a; stroke-width: 3; stroke-linecap: square"/>
   </g>
   <g id="line2d_89">
    <path d="M 745.870238 616.996307 
L 1441 1420.110288 
" clip-path="url(#p45bf765d7d)" style="fill: none; stroke: #7a7a7a; stroke-width: 3; stroke-linecap: square"/>
   </g>
   <g id="line2d_90">
    <path d="M 693.67235 616.996307 
L 852.751627 796.178411 
L 853.461802 796.597551 
L 868.257122 813.782267 
L 930.989277 884.931184 
L 941.168457 894.152252 
L 958.094303 912.384817 
L 966.498045 922.548948 
L 977.032312 934.389636 
L 992.301082 953.46048 
L 1002.716987 964.567675 
L 1010.055466 973.369603 
L 1056.808676 1025.342891 
L 1097.998846 1073.43914 
L 1124.275334 1105.712876 
L 1148.894746 1133.690433 
L 1160.020826 1145.635906 
L 1171.146906 1159.048368 
L 1187.244214 1176.757008 
L 1195.647956 1186.921139 
L 1313.892151 1321.36011 
L 1338.038112 1349.023312 
L 1338.748288 1349.756806 
L 1341.825714 1353.424276 
L 1417.970141 1441 
" clip-path="url(#p45bf765d7d)" style="fill: none; stroke: #7a7a7a; stroke-width: 3; stroke-linecap: square"/>
   </g>
   <g id="line2d_91">
    <path d="M 209.806215 2.223557 
L 324.144446 135.090755 
" clip-path="url(#p45bf765d7d)" style="fill: none; stroke: #7a7a7a; stroke-width: 3; stroke-linecap: square"/>
   </g>
   <g id="line2d_92">
    <path d="M 148.376048 28.943695 
L 272.656733 170.508036 
" clip-path="url(#p45bf765d7d)" style="fill: none; stroke: #7a7a7a; stroke-width: 3; stroke-linecap: square"/>
   </g>
   <g id="line2d_93">
    <path d="M 729.536205 598.344603 
L 622.773178 478.365943 
" clip-path="url(#p45bf765d7d)" style="fill: none; stroke: #7a7a7a; stroke-width: 3; stroke-linecap: square"/>
   </g>
   <g id="line2d_94">
    <path d="M 771.554913 586.503914 
L 655.914694 455.20849 
" clip-path="url(#p45bf765d7d)" style="fill: none; stroke: #7a7a7a; stroke-width: 3; stroke-linecap: square"/>
   </g>
   <g id="line2d_95">
    <path d="M 729.536205 598.344603 
L 742.437724 613.014483 
L 745.633513 616.786738 
L 745.870238 616.996307 
" clip-path="url(#p45bf765d7d)" style="fill: none; stroke: #7a7a7a; stroke-width: 3; stroke-linecap: square"/>
   </g>
   <g id="line2d_96">
    <path d="M 682.782995 604.002985 
L 690.239836 613.014483 
L 693.435625 616.786738 
L 693.67235 616.996307 
" clip-path="url(#p45bf765d7d)" style="fill: none; stroke: #7a7a7a; stroke-width: 3; stroke-linecap: square"/>
   </g>
   <g id="line2d_97">
    <path d="M 427.798577 124.689118 
L 236.725115 52.392428 
" clip-path="url(#p45bf765d7d)" style="fill: none; stroke-dasharray: 32,8,5,8; stroke-dashoffset: 0; stroke: #1e90ff; stroke-width: 5"/>
   </g>
   <g id="line2d_98">
    <path d="M 1262.456164 1096.452258 
L 1135.095047 1125.645432 
" clip-path="url(#p45bf765d7d)" style="fill: none; stroke-dasharray: 32,8,5,8; stroke-dashoffset: 0; stroke: #1e90ff; stroke-width: 5"/>
   </g>
   <g id="line2d_99">
    <path d="M 427.798577 124.689118 
" clip-path="url(#p45bf765d7d)" style="fill: none; stroke: #0000ff; stroke-width: 1.5; stroke-linecap: square"/>
    <defs>
     <path id="mf5012fac2c" d="M 0 10 
C 2.652031 10 5.195799 8.946337 7.071068 7.071068 
C 8.946337 5.195799 10 2.652031 10 0 
C 10 -2.652031 8.946337 -5.195799 7.071068 -7.071068 
C 5.195799 -8.946337 2.652031 -10 0 -10 
C -2.652031 -10 -5.195799 -8.946337 -7.071068 -7.071068 
C -8.946337 -5.195799 -10 -2.652031 -10 0 
C -10 2.652031 -8.946337 5.195799 -7.071068 7.071068 
C -5.195799 8.946337 -2.652031 10 0 10 
z
" style="stroke: #0000ff"/>
    </defs>
    <g clip-path="url(#p45bf765d7d)">
     <use xlink:href="#mf5012fac2c" x="427.798577" y="124.689118" style="fill: #0000ff; stroke: #0000ff"/>
    </g>
   </g>
   <g id="line2d_100">
    <path d="M 1262.456164 1096.452258 
" clip-path="url(#p45bf765d7d)" style="fill: none; stroke: #0000ff; stroke-width: 1.5; stroke-linecap: square"/>
    <g clip-path="url(#p45bf765d7d)">
     <use xlink:href="#mf5012fac2c" x="1262.456164" y="1096.452258" style="fill: #0000ff; stroke: #0000ff"/>
    </g>
   </g>
   <g id="line2d_101">
    <path d="M 236.725115 52.392428 
" clip-path="url(#p45bf765d7d)" style="fill: none; stroke: #ff0000; stroke-width: 1.5; stroke-linecap: square"/>
    <defs>
     <path id="mfbae2f36a7" d="M 0 -10 
L -2.24514 -3.09017 
L -9.510565 -3.09017 
L -3.632713 1.18034 
L -5.877853 8.09017 
L -0 3.81966 
L 5.877853 8.09017 
L 3.632713 1.18034 
L 9.510565 -3.09017 
L 2.24514 -3.09017 
z
" style="stroke: #ff0000; stroke-linejoin: bevel"/>
    </defs>
    <g clip-path="url(#p45bf765d7d)">
     <use xlink:href="#mfbae2f36a7" x="236.725115" y="52.392428" style="fill: #ff0000; stroke: #ff0000; stroke-linejoin: bevel"/>
    </g>
   </g>
   <g id="line2d_102">
    <path d="M 1135.095047 1125.645432 
" clip-path="url(#p45bf765d7d)" style="fill: none; stroke: #ff0000; stroke-width: 1.5; stroke-linecap: square"/>
    <g clip-path="url(#p45bf765d7d)">
     <use xlink:href="#mfbae2f36a7" x="1135.095047" y="1125.645432" style="fill: #ff0000; stroke: #ff0000; stroke-linejoin: bevel"/>
    </g>
   </g>
  </g>
 </g>
 <defs>
  <clipPath id="p45bf765d7d">
   <rect x="0" y="0" width="1440" height="1440"/>
  </clipPath>
 </defs>
</svg>
