<?xml version="1.0" encoding="utf-8" standalone="no"?>
<!DOCTYPE svg PUBLIC "-//W3C//DTD SVG 1.1//EN"
  "http://www.w3.org/Graphics/SVG/1.1/DTD/svg11.dtd">
<svg xmlns:xlink="http://www.w3.org/1999/xlink" width="1440pt" height="1440pt" viewBox="0 0 1440 1440" xmlns="http://www.w3.org/2000/svg" version="1.1">
 <metadata>
  <rdf:RDF xmlns:dc="http://purl.org/dc/elements/1.1/" xmlns:cc="http://creativecommons.org/ns#" xmlns:rdf="http://www.w3.org/1999/02/22-rdf-syntax-ns#">
   <cc:Work>
    <dc:type rdf:resource="http://purl.org/dc/dcmitype/StillImage"/>
    <dc:date>2026-02-27T11:04:38.540373</dc:date>
    <dc:format>image/svg+xml</dc:format>
    <dc:creator>
     <cc:Agent>
      <dc:title>Matplotlib v3.7.3, https://matplotlib.org/</dc:title>
     </cc:Agent>
    </dc:creator>
   </cc:Work>
  </rdf:RDF>
 </metadata>
 <defs>
  <style type="text/css">*{stroke-linejoin: round; stroke-linecap: butt}</style>
 </defs>
 <g id="figure_1">
  <g id="patch_1">
   <path d="M 0 1440 
L 1440 1440 
L 1440 0 
L 0 0 
z
" style="fill: #ffffff"/>
  </g>
  <g id="axes_1">
   <g id="line2d_1">
    <path d="M 658.606195 174.69972 
L 643.127156 127.89183 
L 627.743667 79.13361 
L 610.30586 21.180984 
L 603.941016 -1 
" clip-path="url(#p270e33b435)" style="fill: none; stroke: #7a7a7a; stroke-width: 3; stroke-linecap: square"/>
   </g>
   <g id="line2d_2">
    <path d="M 667.39676 106.716832 
L 665.581317 102.676865 
L 662.189306 92.646603 
L 634.152933 -1 
" clip-path="url(#p270e33b435)" style="fill: none; stroke: #7a7a7a; stroke-width: 3; stroke-linecap: square"/>
   </g>
   <g id="line2d_3">
    <path d="M 753.534745 415.147396 
L 658.606195 174.69972 
" clip-path="url(#p270e33b435)" style="fill: none; stroke: #7a7a7a; stroke-width: 3; stroke-linecap: square"/>
   </g>
   <g id="line2d_4">
    <path d="M 760.127669 371.961545 
L 667.39676 106.716832 
" clip-path="url(#p270e33b435)" style="fill: none; stroke: #7a7a7a; stroke-width: 3; stroke-linecap: square"/>
   </g>
   <g id="line2d_5">
    <path d="M 577.16308 -1 
L 594.349073 62.555816 
L 607.152723 106.438213 
L 617.233208 139.175875 
L 627.648117 171.913536 
L 641.550587 212.034585 
L 652.777668 239.757116 
" clip-path="url(#p270e33b435)" style="fill: none; stroke: #7a7a7a; stroke-width: 3; stroke-linecap: square"/>
   </g>
   <g id="line2d_6">
    <path d="M 555.519702 -1 
L 558.995713 13.518978 
L 565.588637 38.733943 
L 576.959042 79.551538 
L 590.957062 127.752521 
L 605.098406 174.83903 
L 617.94983 213.984914 
L 642.888282 285.450533 
" clip-path="url(#p270e33b435)" style="fill: none; stroke: #7a7a7a; stroke-width: 3; stroke-linecap: square"/>
   </g>
   <g id="line2d_7">
    <path d="M 805.083767 538.018109 
L 770.877002 453.596735 
L 753.534745 415.147396 
" clip-path="url(#p270e33b435)" style="fill: none; stroke: #7a7a7a; stroke-width: 3; stroke-linecap: square"/>
   </g>
   <g id="line2d_8">
    <path d="M 815.785324 493.857093 
L 806.039263 473.796569 
L 789.12698 437.15825 
L 771.784723 398.708911 
L 760.127669 371.961545 
" clip-path="url(#p270e33b435)" style="fill: none; stroke: #7a7a7a; stroke-width: 3; stroke-linecap: square"/>
   </g>
   <g id="line2d_9">
    <path d="M 707.862025 898.132386 
L 692.71741 895.067584 
L 683.019123 892.699327 
L 673.225287 890.191762 
L 663.335901 887.405578 
L 653.303191 884.201466 
L 643.222705 880.858045 
L 632.998896 877.236006 
L 622.631762 873.19604 
L 612.216853 869.016764 
L 601.610845 864.41956 
L 590.909287 859.543738 
L 583.79084 856.200317 
" clip-path="url(#p270e33b435)" style="fill: none; stroke: #7a7a7a; stroke-width: 3; stroke-linecap: square"/>
   </g>
   <g id="line2d_10">
    <path d="M 711.827335 852.578278 
L 682.923574 844.219726 
L 664.625821 837.672194 
L 646.662492 832.239135 
L 628.508064 825.830912 
L 610.114761 818.586834 
L 588.807195 809.253118 
" clip-path="url(#p270e33b435)" style="fill: none; stroke: #7a7a7a; stroke-width: 3; stroke-linecap: square"/>
   </g>
   <g id="line2d_11">
    <path d="M 967.327026 874.589132 
L 935.126803 883.226302 
L 910.857199 889.077288 
" clip-path="url(#p270e33b435)" style="fill: none; stroke: #7a7a7a; stroke-width: 3; stroke-linecap: square"/>
   </g>
   <g id="line2d_12">
    <path d="M 966.132656 828.059859 
L 947.596029 833.2143 
L 909.328405 841.433542 
" clip-path="url(#p270e33b435)" style="fill: none; stroke: #7a7a7a; stroke-width: 3; stroke-linecap: square"/>
   </g>
   <g id="line2d_13">
    <path d="M 652.968767 670.779775 
L 646.758042 714.801481 
L 643.413805 739.180591 
L 638.3019 760.355589 
L 631.756751 778.047857 
L 624.065006 792.118086 
L 615.56109 802.566276 
L 606.674975 808.974499 
L 597.597761 811.203446 
L 588.807195 809.253118 
" clip-path="url(#p270e33b435)" style="fill: none; stroke: #7a7a7a; stroke-width: 3; stroke-linecap: square"/>
   </g>
   <g id="line2d_14">
    <path d="M 638.063026 655.595072 
L 631.900075 699.616779 
L 628.412514 720.095231 
L 623.061735 737.508881 
L 616.325487 751.021873 
L 608.777066 760.076971 
L 600.894223 763.838319 
L 593.202478 761.88799 
" clip-path="url(#p270e33b435)" style="fill: none; stroke: #7a7a7a; stroke-width: 3; stroke-linecap: square"/>
   </g>
   <g id="line2d_15">
    <path d="M 580.11218 906.21232 
L 591.769234 912.481233 
L 601.133097 916.5212 
L 619.669723 923.765279 
L 638.015251 930.173502 
L 656.217454 935.74587 
L 674.324108 940.482382 
L 692.287437 944.38304 
L 702.988995 945.915441 
" clip-path="url(#p270e33b435)" style="fill: none; stroke: #7a7a7a; stroke-width: 3; stroke-linecap: square"/>
   </g>
   <g id="line2d_16">
    <path d="M 576.24242 953.02021 
L 583.599741 956.781558 
L 599.031005 963.189782 
L 615.226666 967.090439 
L 620.720769 971.548333 
L 648.047961 980.046195 
L 661.807107 985.061326 
L 688.561002 991.19093 
L 698.880361 993.141259 
" clip-path="url(#p270e33b435)" style="fill: none; stroke: #7a7a7a; stroke-width: 3; stroke-linecap: square"/>
   </g>
   <g id="line2d_17">
    <path d="M 652.968767 670.779775 
L 662.42818 605.165142 
" clip-path="url(#p270e33b435)" style="fill: none; stroke: #7a7a7a; stroke-width: 3; stroke-linecap: square"/>
   </g>
   <g id="line2d_18">
    <path d="M 676.091776 694.462338 
L 687.892154 605.165142 
" clip-path="url(#p270e33b435)" style="fill: none; stroke: #7a7a7a; stroke-width: 3; stroke-linecap: square"/>
   </g>
   <g id="line2d_19">
    <path d="M 408.600607 739.877137 
L 413.425862 743.917104 
L 426.372836 754.365294 
L 439.128711 764.395556 
L 451.693486 774.007891 
L 464.114937 783.202298 
L 476.393064 791.978777 
L 488.527866 800.476638 
L 500.471569 808.417262 
L 512.271947 816.079268 
L 523.929001 823.323347 
L 535.442731 830.288807 
L 546.813136 836.836339 
L 558.040217 842.965944 
L 569.123973 848.81693 
L 583.79084 856.200317 
" clip-path="url(#p270e33b435)" style="fill: none; stroke: #7a7a7a; stroke-width: 3; stroke-linecap: square"/>
   </g>
   <g id="line2d_20">
    <path d="M 408.600607 793.929106 
L 413.616962 798.247691 
L 424.12742 806.884861 
L 434.542329 815.243413 
L 444.909463 823.323347 
L 455.181048 831.124662 
L 465.357083 838.647358 
L 475.485343 845.891437 
L 485.518053 852.856897 
L 495.502989 859.683047 
L 505.392374 866.091271 
L 515.233986 872.220875 
L 524.980047 878.071862 
L 534.726109 883.783539 
L 544.376621 889.216597 
L 553.931583 894.231729 
L 563.486545 899.24686 
L 572.993733 903.844063 
L 580.11218 906.21232 
" clip-path="url(#p270e33b435)" style="fill: none; stroke: #7a7a7a; stroke-width: 3; stroke-linecap: square"/>
   </g>
   <g id="line2d_21">
    <path d="M 638.063026 655.595072 
L 626.119323 741.966775 
L 623.061735 765.231411 
L 618.379804 783.480916 
L 612.360177 796.993908 
L 605.24173 805.631079 
L 597.311112 809.810354 
L 588.807195 809.253118 
" clip-path="url(#p270e33b435)" style="fill: none; stroke: #7a7a7a; stroke-width: 3; stroke-linecap: square"/>
   </g>
   <g id="line2d_22">
    <path d="M 627.743667 645.007573 
L 615.799964 731.379276 
L 611.404681 749.350162 
L 603.044089 758.962497 
L 593.202478 761.88799 
" clip-path="url(#p270e33b435)" style="fill: none; stroke: #7a7a7a; stroke-width: 3; stroke-linecap: square"/>
   </g>
   <g id="line2d_23">
    <path d="M 583.79084 856.200317 
L 569.123973 848.81693 
L 558.040217 842.965944 
L 546.813136 836.836339 
L 535.442731 830.288807 
L 523.929001 823.323347 
L 512.271947 816.079268 
L 500.471569 808.417262 
L 488.527866 800.476638 
L 476.393064 791.978777 
L 464.114937 783.202298 
L 451.693486 774.007891 
L 439.128711 764.395556 
L 426.372836 754.365294 
L 413.425862 743.917104 
L 408.600607 739.877137 
" clip-path="url(#p270e33b435)" style="fill: none; stroke: #7a7a7a; stroke-width: 3; stroke-linecap: square"/>
   </g>
   <g id="line2d_24">
    <path d="M 588.807195 809.253118 
L 572.659309 801.312493 
L 553.549384 791.282231 
L 534.105036 780.137495 
L 514.374039 768.017595 
L 494.260843 754.92253 
L 473.765449 740.573683 
L 452.887857 725.249671 
L 431.580291 708.671877 
L 408.600607 687.636188 
" clip-path="url(#p270e33b435)" style="fill: none; stroke: #7a7a7a; stroke-width: 3; stroke-linecap: square"/>
   </g>
   <g id="line2d_25">
    <path d="M 662.42818 605.165142 
L 652.968767 670.779775 
" clip-path="url(#p270e33b435)" style="fill: none; stroke: #7a7a7a; stroke-width: 3; stroke-linecap: square"/>
   </g>
   <g id="line2d_26">
    <path d="M 644.847049 605.165142 
L 638.063026 655.595072 
" clip-path="url(#p270e33b435)" style="fill: none; stroke: #7a7a7a; stroke-width: 3; stroke-linecap: square"/>
   </g>
   <g id="line2d_27">
    <path d="M 644.847049 605.165142 
L 638.063026 655.595072 
" clip-path="url(#p270e33b435)" style="fill: none; stroke: #7a7a7a; stroke-width: 3; stroke-linecap: square"/>
   </g>
   <g id="line2d_28">
    <path d="M 633.476644 605.165142 
L 627.743667 645.007573 
" clip-path="url(#p270e33b435)" style="fill: none; stroke: #7a7a7a; stroke-width: 3; stroke-linecap: square"/>
   </g>
   <g id="line2d_29">
    <path d="M 966.132656 828.059859 
L 947.596029 833.2143 
L 909.328405 841.433542 
" clip-path="url(#p270e33b435)" style="fill: none; stroke: #7a7a7a; stroke-width: 3; stroke-linecap: square"/>
   </g>
   <g id="line2d_30">
    <path d="M 964.98606 782.227133 
L 908.038485 797.690454 
" clip-path="url(#p270e33b435)" style="fill: none; stroke: #7a7a7a; stroke-width: 3; stroke-linecap: square"/>
   </g>
   <g id="line2d_31">
    <path d="M 910.857199 889.077288 
L 935.126803 883.226302 
L 967.327026 874.589132 
" clip-path="url(#p270e33b435)" style="fill: none; stroke: #7a7a7a; stroke-width: 3; stroke-linecap: square"/>
   </g>
   <g id="line2d_32">
    <path d="M 913.914787 939.646527 
L 968.425847 927.665936 
" clip-path="url(#p270e33b435)" style="fill: none; stroke: #7a7a7a; stroke-width: 3; stroke-linecap: square"/>
   </g>
   <g id="line2d_33">
    <path d="M 652.968767 670.779775 
L 651.392198 691.954773 
L 651.153324 715.776646 
L 652.20437 741.270229 
L 654.545336 767.738977 
L 658.080672 794.068415 
L 662.810378 819.422689 
L 668.68668 842.687325 
L 675.661802 863.026468 
L 683.735746 879.604263 
L 692.81296 891.166926 
L 702.893445 897.157222 
L 707.862025 898.132386 
" clip-path="url(#p270e33b435)" style="fill: none; stroke: #7a7a7a; stroke-width: 3; stroke-linecap: square"/>
   </g>
   <g id="line2d_34">
    <path d="M 638.063026 655.595072 
L 636.199808 677.884544 
L 635.435411 702.124344 
L 635.72206 727.757237 
L 637.059755 754.365294 
L 639.352946 781.251969 
L 642.601633 807.999335 
L 646.758042 833.771537 
L 651.774397 858.289955 
L 657.650699 880.858045 
L 664.291397 901.057879 
L 671.696493 918.053601 
L 679.818211 931.427284 
L 688.608776 940.621691 
L 698.020414 944.940277 
L 702.988995 945.915441 
" clip-path="url(#p270e33b435)" style="fill: none; stroke: #7a7a7a; stroke-width: 3; stroke-linecap: square"/>
   </g>
   <g id="line2d_35">
    <path d="M 711.827335 852.578278 
L 707.9098 852.160351 
L 700.170281 845.752128 
L 692.908509 831.821208 
L 686.411135 812.178611 
L 681.012581 788.635356 
L 676.999497 763.281082 
L 674.658531 737.926808 
L 674.228558 714.383554 
L 676.091776 694.462338 
" clip-path="url(#p270e33b435)" style="fill: none; stroke: #7a7a7a; stroke-width: 3; stroke-linecap: square"/>
   </g>
   <g id="line2d_36">
    <path d="M 715.935968 802.984204 
L 704.278914 800.476638 
L 701.937949 799.083546 
L 699.549208 797.272527 
L 697.160468 794.764961 
L 695.153926 791.56085 
L 693.577357 787.93881 
L 690.280895 779.30164 
L 688.9432 774.565127 
L 686.315585 761.748681 
L 685.694513 757.290787 
L 684.786791 750.603945 
L 684.022394 742.80263 
L 683.640196 734.16546 
L 683.735746 724.135198 
L 683.831295 722.463487 
L 683.735746 719.955922 
L 685.742288 704.353292 
" clip-path="url(#p270e33b435)" style="fill: none; stroke: #7a7a7a; stroke-width: 3; stroke-linecap: square"/>
   </g>
   <g id="line2d_37">
    <path d="M 583.79084 856.200317 
L 592.676955 858.568574 
L 601.085322 856.757554 
L 609.063715 851.185186 
L 616.421036 841.85147 
L 623.205059 829.035024 
L 629.272461 812.875157 
L 634.575465 793.650487 
L 639.114072 771.361016 
L 642.744957 746.28536 
L 652.968767 670.779775 
" clip-path="url(#p270e33b435)" style="fill: none; stroke: #7a7a7a; stroke-width: 3; stroke-linecap: square"/>
   </g>
   <g id="line2d_38">
    <path d="M 580.11218 906.21232 
L 589.237169 909.69505 
L 598.409932 909.973668 
L 607.582696 907.048175 
L 616.516586 901.336498 
L 625.116052 892.699327 
L 633.33332 881.554591 
L 640.929515 868.041599 
L 647.856862 852.29966 
L 653.924263 834.328773 
L 659.036168 814.546867 
L 663.097027 793.093251 
L 665.915741 769.967924 
L 676.091776 694.462338 
" clip-path="url(#p270e33b435)" style="fill: none; stroke: #7a7a7a; stroke-width: 3; stroke-linecap: square"/>
   </g>
   <g id="line2d_39">
    <path d="M 913.914787 939.646527 
L 968.425847 927.665936 
" clip-path="url(#p270e33b435)" style="fill: none; stroke: #7a7a7a; stroke-width: 3; stroke-linecap: square"/>
   </g>
   <g id="line2d_40">
    <path d="M 913.102615 988.683365 
L 934.505731 984.643398 
L 974.349924 974.195208 
" clip-path="url(#p270e33b435)" style="fill: none; stroke: #7a7a7a; stroke-width: 3; stroke-linecap: square"/>
   </g>
   <g id="line2d_41">
    <path d="M 702.988995 945.915441 
L 710.155216 947.447842 
L 719.041331 948.840934 
L 727.927446 949.955408 
L 736.813561 950.930572 
L 745.651901 951.766427 
L 754.490241 952.323664 
L 763.328581 952.880901 
L 772.166922 953.159519 
L 780.957487 953.298829 
L 789.795827 953.298829 
L 798.586392 953.159519 
L 807.424732 952.880901 
L 816.215298 952.323664 
L 825.053638 951.766427 
L 833.891978 951.069881 
L 842.730318 950.373335 
L 851.568658 949.398171 
L 860.406998 948.283697 
L 869.293113 947.169224 
L 878.179228 945.915441 
L 887.065343 944.38304 
L 895.999233 942.989948 
L 904.933123 941.318237 
L 913.914787 939.646527 
" clip-path="url(#p270e33b435)" style="fill: none; stroke: #7a7a7a; stroke-width: 3; stroke-linecap: square"/>
   </g>
   <g id="line2d_42">
    <path d="M 698.880361 993.141259 
L 725.204282 997.877772 
L 778.616521 1001.499811 
L 799.494114 1001.360502 
L 847.030051 998.992245 
L 886.778694 993.559187 
L 913.102615 988.683365 
" clip-path="url(#p270e33b435)" style="fill: none; stroke: #7a7a7a; stroke-width: 3; stroke-linecap: square"/>
   </g>
   <g id="line2d_43">
    <path d="M 711.827335 852.578278 
L 693.147383 847.702456 
L 684.213494 839.901141 
L 676.139551 826.109531 
L 669.021104 807.442098 
L 663.049252 785.431245 
L 658.223996 761.470063 
L 654.68866 736.673025 
L 652.586569 712.433225 
L 651.965496 690.004444 
L 652.968767 670.779775 
" clip-path="url(#p270e33b435)" style="fill: none; stroke: #7a7a7a; stroke-width: 3; stroke-linecap: square"/>
   </g>
   <g id="line2d_44">
    <path d="M 715.935968 802.984204 
L 704.13559 799.780092 
L 701.985724 798.944237 
L 700.600254 797.969073 
L 697.399342 797.133217 
L 691.093067 793.23256 
L 684.404593 776.376147 
L 678.767165 751.300491 
L 675.518478 722.463487 
L 676.091776 694.462338 
" clip-path="url(#p270e33b435)" style="fill: none; stroke: #7a7a7a; stroke-width: 3; stroke-linecap: square"/>
   </g>
   <g id="line2d_45">
    <path d="M 707.862025 898.132386 
L 711.77956 898.828932 
L 721.191198 900.361333 
L 730.507286 901.754425 
L 739.727825 902.868899 
L 748.900588 903.704754 
L 757.977803 904.4013 
L 766.959467 904.819228 
L 775.845582 905.097846 
L 784.683922 905.237155 
L 793.474487 905.097846 
L 802.217278 904.819228 
L 810.864519 904.4013 
L 819.463985 903.844063 
L 827.967901 903.147517 
L 836.471818 902.172353 
L 844.880185 901.197188 
L 853.288551 900.082715 
L 861.601369 898.828932 
L 869.914186 897.43584 
L 878.131453 896.042748 
L 886.396496 894.371038 
L 894.565988 892.699327 
L 902.735481 891.027617 
L 910.857199 889.077288 
" clip-path="url(#p270e33b435)" style="fill: none; stroke: #7a7a7a; stroke-width: 3; stroke-linecap: square"/>
   </g>
   <g id="line2d_46">
    <path d="M 702.988995 945.915441 
L 710.155216 947.447842 
L 719.041331 948.840934 
L 727.927446 949.955408 
L 736.813561 950.930572 
L 745.651901 951.766427 
L 754.490241 952.323664 
L 763.328581 952.880901 
L 772.166922 953.159519 
L 780.957487 953.298829 
L 789.795827 953.298829 
L 798.586392 953.159519 
L 807.424732 952.880901 
L 816.215298 952.323664 
L 825.053638 951.766427 
L 833.891978 951.069881 
L 842.730318 950.373335 
L 851.568658 949.398171 
L 860.406998 948.283697 
L 869.293113 947.169224 
L 878.179228 945.915441 
L 887.065343 944.38304 
L 895.999233 942.989948 
L 904.933123 941.318237 
L 913.914787 939.646527 
" clip-path="url(#p270e33b435)" style="fill: none; stroke: #7a7a7a; stroke-width: 3; stroke-linecap: square"/>
   </g>
   <g id="line2d_47">
    <path d="M 676.091776 694.462338 
L 687.892154 605.165142 
" clip-path="url(#p270e33b435)" style="fill: none; stroke: #7a7a7a; stroke-width: 3; stroke-linecap: square"/>
   </g>
   <g id="line2d_48">
    <path d="M 685.742288 704.353292 
L 699.262559 605.165142 
" clip-path="url(#p270e33b435)" style="fill: none; stroke: #7a7a7a; stroke-width: 3; stroke-linecap: square"/>
   </g>
   <g id="line2d_49">
    <path d="M 909.328405 841.433542 
L 884.103305 846.030746 
L 857.492735 849.931404 
L 822.473798 853.97137 
L 787.502636 854.528607 
L 761.417589 854.110679 
L 744.027558 854.110679 
L 726.303103 852.438969 
L 711.827335 852.578278 
" clip-path="url(#p270e33b435)" style="fill: none; stroke: #7a7a7a; stroke-width: 3; stroke-linecap: square"/>
   </g>
   <g id="line2d_50">
    <path d="M 908.038485 797.690454 
L 900.53784 799.780092 
L 848.51107 804.934533 
L 822.999321 807.442098 
L 787.311537 808.138644 
L 751.00268 807.16348 
L 723.723263 804.655914 
L 715.935968 802.984204 
" clip-path="url(#p270e33b435)" style="fill: none; stroke: #7a7a7a; stroke-width: 3; stroke-linecap: square"/>
   </g>
   <g id="line2d_51">
    <path d="M 583.79084 856.200317 
L 593.059153 860.518903 
L 602.518566 861.076139 
L 611.977979 858.289955 
L 621.341842 852.021041 
L 630.466831 842.826634 
L 639.114072 830.706734 
L 647.23579 815.939959 
L 654.640885 798.804928 
L 661.13826 779.30164 
L 666.680138 757.987333 
L 671.027646 734.862006 
L 674.037459 710.204278 
L 676.091776 694.462338 
" clip-path="url(#p270e33b435)" style="fill: none; stroke: #7a7a7a; stroke-width: 3; stroke-linecap: square"/>
   </g>
   <g id="line2d_52">
    <path d="M 580.11218 906.21232 
L 588.902745 910.252286 
L 597.884409 911.227451 
L 606.961624 909.277122 
L 615.991063 904.4013 
L 624.972728 896.878603 
L 633.715518 886.569723 
L 642.123885 873.753276 
L 650.150053 858.429265 
L 657.650699 840.876306 
L 664.482497 820.815781 
L 670.645447 798.665619 
L 675.948451 774.425818 
L 680.343734 748.235689 
L 683.687971 719.955922 
L 685.742288 704.353292 
" clip-path="url(#p270e33b435)" style="fill: none; stroke: #7a7a7a; stroke-width: 3; stroke-linecap: square"/>
   </g>
   <g id="line2d_53">
    <path d="M 408.600607 793.929106 
L 413.616962 798.247691 
L 424.12742 806.884861 
L 434.542329 815.243413 
L 444.909463 823.323347 
L 455.181048 831.124662 
L 465.357083 838.647358 
L 475.485343 845.891437 
L 485.518053 852.856897 
L 495.502989 859.683047 
L 505.392374 866.091271 
L 515.233986 872.220875 
L 524.980047 878.071862 
L 534.726109 883.783539 
L 544.376621 889.216597 
L 553.931583 894.231729 
L 563.486545 899.24686 
L 572.993733 903.844063 
L 580.11218 906.21232 
" clip-path="url(#p270e33b435)" style="fill: none; stroke: #7a7a7a; stroke-width: 3; stroke-linecap: square"/>
   </g>
   <g id="line2d_54">
    <path d="M 408.600607 847.284529 
L 430.815894 864.837488 
L 460.054078 886.430413 
L 482.460465 902.311662 
L 503.242508 915.406727 
L 524.597849 927.248008 
L 576.24242 953.02021 
" clip-path="url(#p270e33b435)" style="fill: none; stroke: #7a7a7a; stroke-width: 3; stroke-linecap: square"/>
   </g>
   <g id="line2d_55">
    <path d="M 588.807195 809.253118 
L 572.659309 801.312493 
L 553.549384 791.282231 
L 534.105036 780.137495 
L 514.374039 768.017595 
L 494.260843 754.92253 
L 473.765449 740.573683 
L 452.887857 725.249671 
L 431.580291 708.671877 
L 408.600607 687.636188 
" clip-path="url(#p270e33b435)" style="fill: none; stroke: #7a7a7a; stroke-width: 3; stroke-linecap: square"/>
   </g>
   <g id="line2d_56">
    <path d="M 593.202478 761.88799 
L 565.063114 748.374998 
L 544.949918 738.901973 
L 527.98986 729.01102 
L 508.402188 717.587665 
L 489.340038 704.074673 
L 469.943464 689.168589 
L 449.925818 672.730104 
L 430.003722 657.68471 
L 408.600607 641.942771 
" clip-path="url(#p270e33b435)" style="fill: none; stroke: #7a7a7a; stroke-width: 3; stroke-linecap: square"/>
   </g>
   <g id="line2d_57">
    <path d="M 583.79084 856.200317 
L 590.909287 859.543738 
L 601.610845 864.41956 
L 612.216853 869.016764 
L 622.631762 873.19604 
L 632.998896 877.236006 
L 643.222705 880.858045 
L 653.303191 884.201466 
L 663.335901 887.405578 
L 673.225287 890.191762 
L 683.019123 892.699327 
L 692.71741 895.067584 
L 707.862025 898.132386 
" clip-path="url(#p270e33b435)" style="fill: none; stroke: #7a7a7a; stroke-width: 3; stroke-linecap: square"/>
   </g>
   <g id="line2d_58">
    <path d="M 580.11218 906.21232 
L 591.769234 912.481233 
L 601.133097 916.5212 
L 619.669723 923.765279 
L 638.015251 930.173502 
L 656.217454 935.74587 
L 674.324108 940.482382 
L 692.287437 944.38304 
L 702.988995 945.915441 
" clip-path="url(#p270e33b435)" style="fill: none; stroke: #7a7a7a; stroke-width: 3; stroke-linecap: square"/>
   </g>
   <g id="line2d_59">
    <path d="M 910.857199 889.077288 
L 902.735481 891.027617 
L 894.565988 892.699327 
L 886.396496 894.371038 
L 878.131453 896.042748 
L 869.914186 897.43584 
L 861.601369 898.828932 
L 853.288551 900.082715 
L 844.880185 901.197188 
L 836.471818 902.172353 
L 827.967901 903.147517 
L 819.463985 903.844063 
L 810.864519 904.4013 
L 802.217278 904.819228 
L 793.474487 905.097846 
L 784.683922 905.237155 
L 775.845582 905.097846 
L 766.959467 904.819228 
L 757.977803 904.4013 
L 748.900588 903.704754 
L 739.727825 902.868899 
L 730.507286 901.754425 
L 721.191198 900.361333 
L 711.77956 898.828932 
L 707.862025 898.132386 
" clip-path="url(#p270e33b435)" style="fill: none; stroke: #7a7a7a; stroke-width: 3; stroke-linecap: square"/>
   </g>
   <g id="line2d_60">
    <path d="M 909.328405 841.433542 
L 884.103305 846.030746 
L 857.492735 849.931404 
L 822.473798 853.97137 
L 787.502636 854.528607 
L 761.417589 854.110679 
L 744.027558 854.110679 
L 726.303103 852.438969 
L 711.827335 852.578278 
" clip-path="url(#p270e33b435)" style="fill: none; stroke: #7a7a7a; stroke-width: 3; stroke-linecap: square"/>
   </g>
   <g id="line2d_61">
    <path d="M 711.827335 852.578278 
L 682.923574 844.219726 
L 664.625821 837.672194 
L 646.662492 832.239135 
L 628.508064 825.830912 
L 610.114761 818.586834 
L 588.807195 809.253118 
" clip-path="url(#p270e33b435)" style="fill: none; stroke: #7a7a7a; stroke-width: 3; stroke-linecap: square"/>
   </g>
   <g id="line2d_62">
    <path d="M 715.935968 802.984204 
L 688.84765 797.690454 
L 657.555149 788.356738 
L 625.928224 776.933384 
L 593.202478 761.88799 
" clip-path="url(#p270e33b435)" style="fill: none; stroke: #7a7a7a; stroke-width: 3; stroke-linecap: square"/>
   </g>
   <g id="line2d_63">
    <path d="M 728.930717 106.020286 
L 675.900676 504.583901 
" clip-path="url(#p270e33b435)" style="fill: none; stroke: #7a7a7a; stroke-width: 3; stroke-linecap: square"/>
   </g>
   <g id="line2d_64">
    <path d="M 713.977201 87.074235 
L 660.947161 484.244759 
" clip-path="url(#p270e33b435)" style="fill: none; stroke: #7a7a7a; stroke-width: 3; stroke-linecap: square"/>
   </g>
   <g id="line2d_65">
    <path d="M 713.977201 87.074235 
L 660.947161 484.244759 
" clip-path="url(#p270e33b435)" style="fill: none; stroke: #7a7a7a; stroke-width: 3; stroke-linecap: square"/>
   </g>
   <g id="line2d_66">
    <path d="M 704.517789 75.093644 
L 663.7181 386.171083 
L 656.886302 431.446572 
L 651.487748 471.428312 
" clip-path="url(#p270e33b435)" style="fill: none; stroke: #7a7a7a; stroke-width: 3; stroke-linecap: square"/>
   </g>
   <g id="line2d_67">
    <path d="M 662.42818 605.165142 
L 662.905928 601.961031 
L 663.049252 600.985867 
L 663.288126 599.035538 
L 663.527 597.363827 
L 675.900676 504.583901 
" clip-path="url(#p270e33b435)" style="fill: none; stroke: #7a7a7a; stroke-width: 3; stroke-linecap: square"/>
   </g>
   <g id="line2d_68">
    <path d="M 687.892154 605.165142 
L 688.274353 601.961031 
L 688.417677 600.985867 
L 688.656551 599.174847 
L 688.895425 597.503137 
L 697.351567 533.699524 
" clip-path="url(#p270e33b435)" style="fill: none; stroke: #7a7a7a; stroke-width: 3; stroke-linecap: square"/>
   </g>
   <g id="line2d_69">
    <path d="M 753.534745 415.147396 
L 747.085146 397.315819 
L 741.829916 379.205623 
L 737.816832 360.259572 
L 734.998118 340.338357 
L 733.469324 318.88474 
L 733.373775 295.062868 
L 734.185946 269.987212 
L 736.479137 241.846754 
L 740.062248 210.780803 
L 749.951634 132.767652 
" clip-path="url(#p270e33b435)" style="fill: none; stroke: #7a7a7a; stroke-width: 3; stroke-linecap: square"/>
   </g>
   <g id="line2d_70">
    <path d="M 760.127669 371.961545 
L 753.773619 352.736876 
L 748.948363 333.651515 
L 745.843 313.312372 
L 744.839729 290.187046 
L 745.795226 271.240995 
L 745.747451 270.962376 
L 746.320749 257.588693 
L 748.040642 241.428826 
L 751.623753 214.68146 
L 755.684612 179.018305 
L 756.831207 176.092812 
L 760.079894 152.13163 
" clip-path="url(#p270e33b435)" style="fill: none; stroke: #7a7a7a; stroke-width: 3; stroke-linecap: square"/>
   </g>
   <g id="line2d_71">
    <path d="M 687.892154 605.165142 
L 688.274353 601.961031 
L 688.417677 600.985867 
L 688.656551 599.174847 
L 688.895425 597.503137 
L 697.351567 533.699524 
" clip-path="url(#p270e33b435)" style="fill: none; stroke: #7a7a7a; stroke-width: 3; stroke-linecap: square"/>
   </g>
   <g id="line2d_72">
    <path d="M 699.262559 605.165142 
L 699.692533 601.961031 
L 699.835857 600.985867 
L 700.122506 599.174847 
L 700.313605 597.503137 
L 707.097628 546.933898 
" clip-path="url(#p270e33b435)" style="fill: none; stroke: #7a7a7a; stroke-width: 3; stroke-linecap: square"/>
   </g>
   <g id="line2d_73">
    <path d="M 728.930717 106.020286 
L 728.548519 109.085088 
L 724.774309 132.210415 
L 719.901278 153.246104 
L 714.024976 171.634918 
L 707.336502 186.680311 
L 700.026956 197.964356 
L 692.144112 204.790507 
L 683.926845 206.462218 
L 675.470703 202.422251 
L 667.014562 191.974061 
L 658.606195 174.69972 
" clip-path="url(#p270e33b435)" style="fill: none; stroke: #7a7a7a; stroke-width: 3; stroke-linecap: square"/>
   </g>
   <g id="line2d_74">
    <path d="M 713.977201 87.074235 
L 713.547228 90.139037 
L 709.29527 111.174726 
L 702.988995 126.777356 
L 695.153926 135.693145 
L 686.267811 136.250382 
L 676.856173 127.055975 
L 667.39676 106.716832 
" clip-path="url(#p270e33b435)" style="fill: none; stroke: #7a7a7a; stroke-width: 3; stroke-linecap: square"/>
   </g>
   <g id="line2d_75">
    <path d="M 652.777668 239.757116 
L 661.13826 255.777674 
L 669.9766 267.061719 
L 679.101589 273.609251 
L 688.274353 275.838198 
L 697.399342 274.166488 
L 706.333231 268.59412 
L 714.837148 259.678331 
L 722.767767 247.558431 
L 730.029538 232.373728 
L 736.335813 214.68146 
L 741.591042 194.620936 
L 745.651901 172.331464 
L 749.951634 132.767652 
" clip-path="url(#p270e33b435)" style="fill: none; stroke: #7a7a7a; stroke-width: 3; stroke-linecap: square"/>
   </g>
   <g id="line2d_76">
    <path d="M 642.888282 285.450533 
L 649.911179 303.560729 
L 657.507374 317.352339 
L 665.629092 326.964674 
L 674.085234 332.81566 
L 682.780249 334.765989 
L 691.618589 333.372897 
L 700.409155 328.497075 
L 709.10417 320.556451 
L 717.512537 309.551024 
L 725.538706 295.898723 
L 733.087126 279.460237 
L 740.014473 260.792805 
L 746.177424 239.757116 
L 751.241554 217.606953 
L 751.623753 214.68146 
L 755.684612 179.018305 
L 756.831207 176.092812 
L 760.079894 152.13163 
" clip-path="url(#p270e33b435)" style="fill: none; stroke: #7a7a7a; stroke-width: 3; stroke-linecap: square"/>
   </g>
   <g id="line2d_77">
    <path d="M 675.900676 504.583901 
L 680.917032 466.6918 
L 684.786791 435.625848 
L 687.796605 406.788844 
L 689.850921 379.902169 
L 690.997517 354.687204 
L 691.045292 330.865331 
L 690.089795 308.018623 
L 687.939929 285.729151 
L 684.643467 263.996916 
L 680.10486 242.403991 
L 674.324108 220.393137 
L 667.157886 197.964356 
L 658.606195 174.69972 
" clip-path="url(#p270e33b435)" style="fill: none; stroke: #7a7a7a; stroke-width: 3; stroke-linecap: square"/>
   </g>
   <g id="line2d_78">
    <path d="M 697.351567 533.699524 
L 702.367922 495.807422 
L 706.381006 462.651833 
L 709.390819 431.167954 
L 711.397361 401.495095 
L 712.448407 373.354637 
L 712.639506 346.74658 
L 711.970659 321.392306 
L 710.441865 297.152505 
L 708.196449 273.887869 
L 705.234411 251.598398 
L 702.176823 230.841327 
L 697.208242 208.830474 
L 692.287437 188.212713 
L 686.841108 167.73426 
L 680.821482 147.534427 
L 674.324108 127.195284 
L 667.39676 106.716832 
" clip-path="url(#p270e33b435)" style="fill: none; stroke: #7a7a7a; stroke-width: 3; stroke-linecap: square"/>
   </g>
   <g id="line2d_79">
    <path d="M 660.947161 484.244759 
L 645.898095 597.363827 
L 645.659221 599.035538 
L 645.420347 600.985867 
L 645.277022 601.961031 
L 644.847049 605.165142 
" clip-path="url(#p270e33b435)" style="fill: none; stroke: #7a7a7a; stroke-width: 3; stroke-linecap: square"/>
   </g>
   <g id="line2d_80">
    <path d="M 651.487748 471.428312 
L 634.52769 597.363827 
L 634.336591 599.035538 
L 634.049942 600.985867 
L 633.906617 601.961031 
L 633.476644 605.165142 
" clip-path="url(#p270e33b435)" style="fill: none; stroke: #7a7a7a; stroke-width: 3; stroke-linecap: square"/>
   </g>
   <g id="line2d_81">
    <path d="M 697.351567 533.699524 
L 748.183966 148.370282 
L 749.951634 132.767652 
" clip-path="url(#p270e33b435)" style="fill: none; stroke: #7a7a7a; stroke-width: 3; stroke-linecap: square"/>
   </g>
   <g id="line2d_82">
    <path d="M 707.097628 546.933898 
L 747.753993 244.075701 
L 748.040642 241.428826 
L 751.623753 214.68146 
L 755.684612 179.018305 
L 756.831207 176.092812 
L 760.079894 152.13163 
" clip-path="url(#p270e33b435)" style="fill: none; stroke: #7a7a7a; stroke-width: 3; stroke-linecap: square"/>
   </g>
   <g id="line2d_83">
    <path d="M 753.534745 415.147396 
L 744.696405 396.758582 
L 735.71474 385.474537 
L 726.733076 380.738024 
L 717.942511 381.852498 
L 709.581919 388.121412 
L 701.794624 398.708911 
L 694.771727 413.057758 
L 688.704326 430.471408 
L 683.831295 450.114005 
L 680.295959 471.428312 
L 675.900676 504.583901 
" clip-path="url(#p270e33b435)" style="fill: none; stroke: #7a7a7a; stroke-width: 3; stroke-linecap: square"/>
   </g>
   <g id="line2d_84">
    <path d="M 760.127669 371.961545 
L 751.432653 349.672073 
L 742.689863 333.512206 
L 733.899298 323.203326 
L 725.204282 318.188194 
L 716.700365 318.188194 
L 708.483098 322.785398 
L 700.552479 331.701187 
L 693.099609 344.378324 
L 686.172261 360.398881 
L 679.818211 379.484242 
L 674.180783 401.216476 
L 669.307753 425.316968 
L 665.342443 451.228479 
L 660.947161 484.244759 
" clip-path="url(#p270e33b435)" style="fill: none; stroke: #7a7a7a; stroke-width: 3; stroke-linecap: square"/>
   </g>
   <g id="line2d_85">
    <path d="M 652.777668 239.757116 
L 658.988393 256.33491 
L 664.864695 273.052014 
L 670.263249 290.326355 
L 674.992955 308.715169 
L 678.958264 328.497075 
L 681.920303 350.22931 
L 683.687971 374.46911 
L 684.165719 401.495095 
L 683.114673 431.8645 
L 680.439284 466.134563 
L 675.900676 504.583901 
" clip-path="url(#p270e33b435)" style="fill: none; stroke: #7a7a7a; stroke-width: 3; stroke-linecap: square"/>
   </g>
   <g id="line2d_86">
    <path d="M 642.888282 285.450533 
L 646.805816 296.038032 
L 653.350966 313.590991 
L 658.319546 326.964674 
L 660.564962 334.765989 
L 661.759332 338.945265 
L 662.380405 341.731449 
L 665.915741 355.940987 
L 668.877779 374.887038 
L 669.928825 393.554471 
L 669.403302 412.639831 
L 667.540084 433.53621 
L 664.625821 456.940156 
L 660.947161 484.244759 
" clip-path="url(#p270e33b435)" style="fill: none; stroke: #7a7a7a; stroke-width: 3; stroke-linecap: square"/>
   </g>
   <g id="line2d_87">
    <path d="M 753.534745 415.147396 
L 746.607397 396.619273 
L 740.157798 377.115985 
L 734.281496 356.498224 
L 729.121816 334.905298 
L 724.774309 312.05859 
L 721.430072 288.097408 
L 719.136881 263.021752 
L 718.085835 236.831623 
L 718.372484 209.387711 
L 720.092377 180.690016 
L 723.436614 150.877847 
L 728.930717 106.020286 
" clip-path="url(#p270e33b435)" style="fill: none; stroke: #7a7a7a; stroke-width: 3; stroke-linecap: square"/>
   </g>
   <g id="line2d_88">
    <path d="M 760.127669 371.961545 
L 754.442466 354.826513 
L 749.282787 336.577009 
L 744.935279 316.516484 
L 741.686592 294.505631 
L 739.727825 269.987212 
L 739.345626 242.5433 
L 740.826645 211.895276 
L 744.409756 177.485904 
L 749.951634 132.767652 
" clip-path="url(#p270e33b435)" style="fill: none; stroke: #7a7a7a; stroke-width: 3; stroke-linecap: square"/>
   </g>
   <g id="line2d_89">
    <path d="M 652.777668 239.757116 
L 659.418367 260.514186 
L 664.482497 281.689184 
L 668.065607 303.421419 
L 670.311024 325.8502 
L 671.314295 349.114836 
L 671.17097 373.354637 
L 669.928825 398.84822 
L 667.778959 425.456277 
L 664.721371 453.596735 
L 660.947161 484.244759 
" clip-path="url(#p270e33b435)" style="fill: none; stroke: #7a7a7a; stroke-width: 3; stroke-linecap: square"/>
   </g>
   <g id="line2d_90">
    <path d="M 642.888282 285.450533 
L 658.319546 326.964674 
L 661.759332 338.945265 
L 662.905928 344.378324 
L 663.765874 349.950692 
L 664.91247 362.070592 
L 664.530271 377.673222 
L 663.7181 386.171083 
L 661.616008 399.962694 
L 651.487748 471.428312 
" clip-path="url(#p270e33b435)" style="fill: none; stroke: #7a7a7a; stroke-width: 3; stroke-linecap: square"/>
   </g>
   <g id="line2d_91">
    <path d="M 652.777668 239.757116 
L 661.854882 256.056292 
L 670.740997 266.7831 
L 679.292688 271.937541 
L 687.414406 271.658922 
L 695.058376 266.086554 
L 702.081273 255.081128 
L 708.387548 238.781951 
L 713.929426 217.189026 
L 718.563583 190.44166 
L 728.930717 106.020286 
" clip-path="url(#p270e33b435)" style="fill: none; stroke: #7a7a7a; stroke-width: 3; stroke-linecap: square"/>
   </g>
   <g id="line2d_92">
    <path d="M 642.888282 285.450533 
L 651.248874 305.789676 
L 659.800565 321.113688 
L 668.495581 331.561877 
L 677.238371 337.412864 
L 685.885612 338.805956 
L 694.341754 336.019772 
L 702.511246 329.33293 
L 710.250766 318.745431 
L 717.560312 304.675202 
L 724.201011 287.261552 
L 730.172862 266.643791 
L 735.332542 243.239846 
L 739.536725 217.049717 
L 749.951634 132.767652 
" clip-path="url(#p270e33b435)" style="fill: none; stroke: #7a7a7a; stroke-width: 3; stroke-linecap: square"/>
   </g>
   <g id="line2d_93">
    <path d="M 675.900676 504.583901 
L 663.527 597.363827 
L 663.288126 599.035538 
L 663.049252 600.985867 
L 662.905928 601.961031 
L 662.42818 605.165142 
" clip-path="url(#p270e33b435)" style="fill: none; stroke: #7a7a7a; stroke-width: 3; stroke-linecap: square"/>
   </g>
   <g id="line2d_94">
    <path d="M 660.947161 484.244759 
L 645.898095 597.363827 
L 645.659221 599.035538 
L 645.420347 600.985867 
L 645.277022 601.961031 
L 644.847049 605.165142 
" clip-path="url(#p270e33b435)" style="fill: none; stroke: #7a7a7a; stroke-width: 3; stroke-linecap: square"/>
   </g>
   <g id="line2d_95">
    <path d="M 713.977201 87.074235 
L 710.011892 116.747094 
L 705.52106 140.290348 
L 699.16701 160.490182 
L 691.475265 176.371431 
L 683.066898 186.819621 
L 674.371883 190.720278 
L 666.059065 187.098239 
L 658.606195 174.69972 
" clip-path="url(#p270e33b435)" style="fill: none; stroke: #7a7a7a; stroke-width: 3; stroke-linecap: square"/>
   </g>
   <g id="line2d_96">
    <path d="M 704.517789 75.093644 
L 700.552479 104.766503 
L 697.064918 120.090515 
L 691.379715 129.56354 
L 684.070169 131.513869 
L 675.852902 124.4091 
L 671.648718 115.63262 
L 671.362069 115.214693 
L 667.39676 106.716832 
" clip-path="url(#p270e33b435)" style="fill: none; stroke: #7a7a7a; stroke-width: 3; stroke-linecap: square"/>
   </g>
   <g id="line2d_97">
    <path d="M 675.900676 504.583901 
L 728.930717 106.020286 
" clip-path="url(#p270e33b435)" style="fill: none; stroke: #7a7a7a; stroke-width: 3; stroke-linecap: square"/>
   </g>
   <g id="line2d_98">
    <path d="M 697.351567 533.699524 
L 748.183966 148.370282 
L 749.951634 132.767652 
" clip-path="url(#p270e33b435)" style="fill: none; stroke: #7a7a7a; stroke-width: 3; stroke-linecap: square"/>
   </g>
   <g id="line2d_99">
    <path d="M 753.534745 415.147396 
L 742.450989 390.907596 
L 731.892756 374.747729 
L 721.955595 365.692631 
L 712.591732 363.045756 
L 703.896716 365.83194 
L 695.870548 373.215328 
L 688.513227 384.499373 
L 681.920303 398.708911 
L 676.091776 415.008087 
L 671.027646 432.561046 
L 666.775688 450.531933 
L 663.431451 468.084892 
L 660.947161 484.244759 
" clip-path="url(#p270e33b435)" style="fill: none; stroke: #7a7a7a; stroke-width: 3; stroke-linecap: square"/>
   </g>
   <g id="line2d_100">
    <path d="M 760.127669 371.961545 
L 751.337104 349.254146 
L 742.403214 333.094279 
L 733.421549 322.924707 
L 724.39211 318.327504 
L 715.505995 318.606122 
L 706.810979 323.203326 
L 698.354838 331.701187 
L 690.32867 343.542468 
L 682.6847 358.030625 
L 675.614028 374.747729 
L 669.164428 392.997234 
L 663.431451 412.361212 
L 658.55842 432.282428 
L 654.497561 452.203643 
L 651.487748 471.428312 
" clip-path="url(#p270e33b435)" style="fill: none; stroke: #7a7a7a; stroke-width: 3; stroke-linecap: square"/>
   </g>
   <g id="line2d_101">
    <path d="M -1 335.626888 
L 8.916534 346.328652 
L 67.631777 409.435719 
L 129.547933 478.533081 
L 193.183982 543.172549 
L 269.098157 617.145734 
L 343.10134 684.014149 
L 379.123548 715.915955 
L 407.167362 738.623354 
L 407.501786 739.041282 
L 407.883984 739.3199 
L 408.027309 739.459209 
L 408.600607 739.877137 
" clip-path="url(#p270e33b435)" style="fill: none; stroke: #7a7a7a; stroke-width: 3; stroke-linecap: square"/>
   </g>
   <g id="line2d_102">
    <path d="M -1 391.417028 
L 25.972142 420.859073 
L 137.526326 540.525675 
L 246.930645 649.326158 
L 357.672658 750.186018 
L 407.167362 792.675323 
L 407.501786 792.953942 
L 407.883984 793.371869 
L 408.027309 793.511178 
L 408.600607 793.929106 
" clip-path="url(#p270e33b435)" style="fill: none; stroke: #7a7a7a; stroke-width: 3; stroke-linecap: square"/>
   </g>
   <g id="line2d_103">
    <path d="M -1 391.417028 
L 25.972142 420.859073 
L 137.526326 540.525675 
L 246.930645 649.326158 
L 357.672658 750.186018 
L 407.167362 792.675323 
L 407.501786 792.953942 
L 407.883984 793.371869 
L 408.027309 793.511178 
L 408.600607 793.929106 
" clip-path="url(#p270e33b435)" style="fill: none; stroke: #7a7a7a; stroke-width: 3; stroke-linecap: square"/>
   </g>
   <g id="line2d_104">
    <path d="M -1 442.616972 
L 44.604318 491.628146 
L 95.818916 545.819424 
L 158.403919 613.523694 
L 230.209461 686.800333 
L 288.924704 742.106084 
L 345.346756 792.953942 
L 407.167362 846.170055 
L 407.501786 846.448674 
L 407.883984 846.727292 
L 408.027309 846.866601 
L 408.600607 847.284529 
" clip-path="url(#p270e33b435)" style="fill: none; stroke: #7a7a7a; stroke-width: 3; stroke-linecap: square"/>
   </g>
   <g id="line2d_105">
    <path d="M 408.600607 739.877137 
L 408.027309 739.459209 
L 407.883984 739.3199 
L 407.501786 739.041282 
L 407.167362 738.623354 
L 379.123548 715.915955 
L 343.10134 684.014149 
L 269.098157 617.145734 
L 193.183982 543.172549 
L 129.547933 478.533081 
L 67.631777 409.435719 
L 8.916534 346.328652 
L -1 335.626888 
" clip-path="url(#p270e33b435)" style="fill: none; stroke: #7a7a7a; stroke-width: 3; stroke-linecap: square"/>
   </g>
   <g id="line2d_106">
    <path d="M 408.600607 687.636188 
L 408.027309 687.21826 
L 407.883984 687.078951 
L 407.501786 686.661023 
L 407.167362 686.382405 
L 355.331692 644.868264 
L 300.10401 595.274189 
L 246.500671 546.098042 
L 188.645375 489.956436 
L 129.165734 426.988678 
L 75.466846 366.667795 
L 23.057878 309.829643 
L -1 283.71523 
" clip-path="url(#p270e33b435)" style="fill: none; stroke: #7a7a7a; stroke-width: 3; stroke-linecap: square"/>
   </g>
   <g id="line2d_107">
    <path d="M 408.600607 687.636188 
L 408.027309 687.21826 
L 407.883984 687.078951 
L 407.501786 686.661023 
L 407.167362 686.382405 
L 355.331692 644.868264 
L 300.10401 595.274189 
L 246.500671 546.098042 
L 188.645375 489.956436 
L 129.165734 426.988678 
L 75.466846 366.667795 
L 23.057878 309.829643 
L -1 283.71523 
" clip-path="url(#p270e33b435)" style="fill: none; stroke: #7a7a7a; stroke-width: 3; stroke-linecap: square"/>
   </g>
   <g id="line2d_108">
    <path d="M 408.600607 641.942771 
L 408.075084 641.524843 
L 407.931759 641.385534 
L 407.549561 641.106916 
L 407.167362 640.967606 
L 202.452295 451.228479 
L -1 232.219479 
" clip-path="url(#p270e33b435)" style="fill: none; stroke: #7a7a7a; stroke-width: 3; stroke-linecap: square"/>
   </g>
   <g id="line2d_109">
    <path d="M 601.412094 892.286297 
L 340.632306 644.325448 
" clip-path="url(#p270e33b435)" style="fill: none; stroke-dasharray: 32,8,5,8; stroke-dashoffset: 0; stroke: #1e90ff; stroke-width: 5"/>
   </g>
   <g id="line2d_110">
    <path d="M 831.061274 496.860404 
L 827.393017 509.818608 
" clip-path="url(#p270e33b435)" style="fill: none; stroke-dasharray: 32,8,5,8; stroke-dashoffset: 0; stroke: #1e90ff; stroke-width: 5"/>
   </g>
   <g id="line2d_111">
    <path d="M 432.699127 858.904467 
L 463.986029 852.214496 
" clip-path="url(#p270e33b435)" style="fill: none; stroke-dasharray: 32,8,5,8; stroke-dashoffset: 0; stroke: #1e90ff; stroke-width: 5"/>
   </g>
   <g id="line2d_112">
    <path d="M 707.25383 69.654599 
L 707.429953 74.453556 
" clip-path="url(#p270e33b435)" style="fill: none; stroke-dasharray: 32,8,5,8; stroke-dashoffset: 0; stroke: #1e90ff; stroke-width: 5"/>
   </g>
   <g id="line2d_113">
    <path d="M 753.959073 1022.072406 
L 634.735492 983.37465 
" clip-path="url(#p270e33b435)" style="fill: none; stroke-dasharray: 32,8,5,8; stroke-dashoffset: 0; stroke: #1e90ff; stroke-width: 5"/>
   </g>
   <g id="line2d_114">
    <path d="M 601.412094 892.286297 
" clip-path="url(#p270e33b435)" style="fill: none; stroke: #0000ff; stroke-width: 1.5; stroke-linecap: square"/>
    <defs>
     <path id="m04f6e225b8" d="M 0 10 
C 2.652031 10 5.195799 8.946337 7.071068 7.071068 
C 8.946337 5.195799 10 2.652031 10 0 
C 10 -2.652031 8.946337 -5.195799 7.071068 -7.071068 
C 5.195799 -8.946337 2.652031 -10 0 -10 
C -2.652031 -10 -5.195799 -8.946337 -7.071068 -7.071068 
C -8.946337 -5.195799 -10 -2.652031 -10 0 
C -10 2.652031 -8.946337 5.195799 -7.071068 7.071068 
C -5.195799 8.946337 -2.652031 10 0 10 
z
" style="stroke: #0000ff"/>
    </defs>
    <g clip-path="url(#p270e33b435)">
     <use xlink:href="#m04f6e225b8" x="601.412094" y="892.286297" style="fill: #0000ff; stroke: #0000ff"/>
    </g>
   </g>
   <g id="line2d_115">
    <path d="M 831.061274 496.860404 
" clip-path="url(#p270e33b435)" style="fill: none; stroke: #0000ff; stroke-width: 1.5; stroke-linecap: square"/>
    <g clip-path="url(#p270e33b435)">
     <use xlink:href="#m04f6e225b8" x="831.061274" y="496.860404" style="fill: #0000ff; stroke: #0000ff"/>
    </g>
   </g>
   <g id="line2d_116">
    <path d="M 432.699127 858.904467 
" clip-path="url(#p270e33b435)" style="fill: none; stroke: #0000ff; stroke-width: 1.5; stroke-linecap: square"/>
    <g clip-path="url(#p270e33b435)">
     <use xlink:href="#m04f6e225b8" x="432.699127" y="858.904467" style="fill: #0000ff; stroke: #0000ff"/>
    </g>
   </g>
   <g id="line2d_117">
    <path d="M 707.25383 69.654599 
" clip-path="url(#p270e33b435)" style="fill: none; stroke: #0000ff; stroke-width: 1.5; stroke-linecap: square"/>
    <g clip-path="url(#p270e33b435)">
     <use xlink:href="#m04f6e225b8" x="707.25383" y="69.654599" style="fill: #0000ff; stroke: #0000ff"/>
    </g>
   </g>
   <g id="line2d_118">
    <path d="M 753.959073 1022.072406 
" clip-path="url(#p270e33b435)" style="fill: none; stroke: #0000ff; stroke-width: 1.5; stroke-linecap: square"/>
    <g clip-path="url(#p270e33b435)">
     <use xlink:href="#m04f6e225b8" x="753.959073" y="1022.072406" style="fill: #0000ff; stroke: #0000ff"/>
    </g>
   </g>
   <g id="line2d_119">
    <path d="M 340.632306 644.325448 
" clip-path="url(#p270e33b435)" style="fill: none; stroke: #ff0000; stroke-width: 1.5; stroke-linecap: square"/>
    <defs>
     <path id="m619cd0f770" d="M 0 -10 
L -2.24514 -3.09017 
L -9.510565 -3.09017 
L -3.632713 1.18034 
L -5.877853 8.09017 
L -0 3.81966 
L 5.877853 8.09017 
L 3.632713 1.18034 
L 9.510565 -3.09017 
L 2.24514 -3.09017 
z
" style="stroke: #ff0000; stroke-linejoin: bevel"/>
    </defs>
    <g clip-path="url(#p270e33b435)">
     <use xlink:href="#m619cd0f770" x="340.632306" y="644.325448" style="fill: #ff0000; stroke: #ff0000; stroke-linejoin: bevel"/>
    </g>
   </g>
   <g id="line2d_120">
    <path d="M 827.393017 509.818608 
" clip-path="url(#p270e33b435)" style="fill: none; stroke: #ff0000; stroke-width: 1.5; stroke-linecap: square"/>
    <g clip-path="url(#p270e33b435)">
     <use xlink:href="#m619cd0f770" x="827.393017" y="509.818608" style="fill: #ff0000; stroke: #ff0000; stroke-linejoin: bevel"/>
    </g>
   </g>
   <g id="line2d_121">
    <path d="M 463.986029 852.214496 
" clip-path="url(#p270e33b435)" style="fill: none; stroke: #ff0000; stroke-width: 1.5; stroke-linecap: square"/>
    <g clip-path="url(#p270e33b435)">
     <use xlink:href="#m619cd0f770" x="463.986029" y="852.214496" style="fill: #ff0000; stroke: #ff0000; stroke-linejoin: bevel"/>
    </g>
   </g>
   <g id="line2d_122">
    <path d="M 707.429953 74.453556 
" clip-path="url(#p270e33b435)" style="fill: none; stroke: #ff0000; stroke-width: 1.5; stroke-linecap: square"/>
    <g clip-path="url(#p270e33b435)">
     <use xlink:href="#m619cd0f770" x="707.429953" y="74.453556" style="fill: #ff0000; stroke: #ff0000; stroke-linejoin: bevel"/>
    </g>
   </g>
   <g id="line2d_123">
    <path d="M 634.735492 983.37465 
" clip-path="url(#p270e33b435)" style="fill: none; stroke: #ff0000; stroke-width: 1.5; stroke-linecap: square"/>
    <g clip-path="url(#p270e33b435)">
     <use xlink:href="#m619cd0f770" x="634.735492" y="983.37465" style="fill: #ff0000; stroke: #ff0000; stroke-linejoin: bevel"/>
    </g>
   </g>
  </g>
 </g>
 <defs>
  <clipPath id="p270e33b435">
   <rect x="0" y="0" width="1440" height="1440"/>
  </clipPath>
 </defs>
</svg>
