<?xml version="1.0" encoding="utf-8" standalone="no"?>
<!DOCTYPE svg PUBLIC "-//W3C//DTD SVG 1.1//EN"
  "http://www.w3.org/Graphics/SVG/1.1/DTD/svg11.dtd">
<svg xmlns:xlink="http://www.w3.org/1999/xlink" width="1440pt" height="1440pt" viewBox="0 0 1440 1440" xmlns="http://www.w3.org/2000/svg" version="1.1">
 <metadata>
  <rdf:RDF xmlns:dc="http://purl.org/dc/elements/1.1/" xmlns:cc="http://creativecommons.org/ns#" xmlns:rdf="http://www.w3.org/1999/02/22-rdf-syntax-ns#">
   <cc:Work>
    <dc:type rdf:resource="http://purl.org/dc/dcmitype/StillImage"/>
    <dc:date>2026-02-27T11:05:15.122424</dc:date>
    <dc:format>image/svg+xml</dc:format>
    <dc:creator>
     <cc:Agent>
      <dc:title>Matplotlib v3.7.3, https://matplotlib.org/</dc:title>
     </cc:Agent>
    </dc:creator>
   </cc:Work>
  </rdf:RDF>
 </metadata>
 <defs>
  <style type="text/css">*{stroke-linejoin: round; stroke-linecap: butt}</style>
 </defs>
 <g id="figure_1">
  <g id="patch_1">
   <path d="M 0 1440 
L 1440 1440 
L 1440 0 
L 0 0 
z
" style="fill: #ffffff"/>
  </g>
  <g id="axes_1">
   <g id="line2d_1">
    <path clip-path="url(#p3de12d2ddd)" style="fill: none; stroke: #7a7a7a; stroke-width: 3; stroke-linecap: square"/>
   </g>
   <g id="line2d_2">
    <path clip-path="url(#p3de12d2ddd)" style="fill: none; stroke: #7a7a7a; stroke-width: 3; stroke-linecap: square"/>
   </g>
   <g id="line2d_3">
    <path clip-path="url(#p3de12d2ddd)" style="fill: none; stroke: #7a7a7a; stroke-width: 3; stroke-linecap: square"/>
   </g>
   <g id="line2d_4">
    <path clip-path="url(#p3de12d2ddd)" style="fill: none; stroke: #7a7a7a; stroke-width: 3; stroke-linecap: square"/>
   </g>
   <g id="line2d_5">
    <path clip-path="url(#p3de12d2ddd)" style="fill: none; stroke: #7a7a7a; stroke-width: 3; stroke-linecap: square"/>
   </g>
   <g id="line2d_6">
    <path clip-path="url(#p3de12d2ddd)" style="fill: none; stroke: #7a7a7a; stroke-width: 3; stroke-linecap: square"/>
   </g>
   <g id="line2d_7">
    <path clip-path="url(#p3de12d2ddd)" style="fill: none; stroke: #7a7a7a; stroke-width: 3; stroke-linecap: square"/>
   </g>
   <g id="line2d_8">
    <path clip-path="url(#p3de12d2ddd)" style="fill: none; stroke: #7a7a7a; stroke-width: 3; stroke-linecap: square"/>
   </g>
   <g id="line2d_9">
    <path clip-path="url(#p3de12d2ddd)" style="fill: none; stroke: #7a7a7a; stroke-width: 3; stroke-linecap: square"/>
   </g>
   <g id="line2d_10">
    <path clip-path="url(#p3de12d2ddd)" style="fill: none; stroke: #7a7a7a; stroke-width: 3; stroke-linecap: square"/>
   </g>
   <g id="line2d_11">
    <path clip-path="url(#p3de12d2ddd)" style="fill: none; stroke: #7a7a7a; stroke-width: 3; stroke-linecap: square"/>
   </g>
   <g id="line2d_12">
    <path clip-path="url(#p3de12d2ddd)" style="fill: none; stroke: #7a7a7a; stroke-width: 3; stroke-linecap: square"/>
   </g>
   <g id="line2d_13">
    <path d="M 1441 1085.986911 
L 1396.252012 1057.19133 
" clip-path="url(#p3de12d2ddd)" style="fill: none; stroke: #7a7a7a; stroke-width: 3; stroke-linecap: square"/>
   </g>
   <g id="line2d_14">
    <path d="M 1441 1025.055024 
L 1407.783889 999.719753 
" clip-path="url(#p3de12d2ddd)" style="fill: none; stroke: #7a7a7a; stroke-width: 3; stroke-linecap: square"/>
   </g>
   <g id="line2d_15">
    <path d="M 1262.658683 957.203145 
L 1176.894287 891.697906 
" clip-path="url(#p3de12d2ddd)" style="fill: none; stroke: #7a7a7a; stroke-width: 3; stroke-linecap: square"/>
   </g>
   <g id="line2d_16">
    <path d="M 1274.505639 898.866404 
L 1238.019536 871.304766 
L 1213.821499 852.518358 
L 1188.678227 832.496002 
" clip-path="url(#p3de12d2ddd)" style="fill: none; stroke: #7a7a7a; stroke-width: 3; stroke-linecap: square"/>
   </g>
   <g id="line2d_17">
    <path d="M 1176.894287 891.697906 
L 1185.779504 898.49562 
L 1193.656469 912.091047 
L 1200.147088 930.630265 
L 1204.810251 952.382948 
L 1207.015802 975.247984 
L 1206.511676 997.618641 
L 1199.264868 1035.562242 
" clip-path="url(#p3de12d2ddd)" style="fill: none; stroke: #7a7a7a; stroke-width: 3; stroke-linecap: square"/>
   </g>
   <g id="line2d_18">
    <path d="M 1164.417174 954.360465 
L 1173.932548 965.607591 
L 1178.784758 983.158051 
L 1177.902538 999.101779 
L 1174.499689 1017.146618 
" clip-path="url(#p3de12d2ddd)" style="fill: none; stroke: #7a7a7a; stroke-width: 3; stroke-linecap: square"/>
   </g>
   <g id="line2d_19">
    <path d="M 521.845865 391.386197 
L 910.904927 688.137287 
L 1176.894287 891.697906 
" clip-path="url(#p3de12d2ddd)" style="fill: none; stroke: #7a7a7a; stroke-width: 3; stroke-linecap: square"/>
   </g>
   <g id="line2d_20">
    <path d="M 521.845865 462.94758 
L 1164.417174 954.360465 
" clip-path="url(#p3de12d2ddd)" style="fill: none; stroke: #7a7a7a; stroke-width: 3; stroke-linecap: square"/>
   </g>
   <g id="line2d_21">
    <path d="M 1262.658683 957.203145 
L 1252.450137 949.663863 
L 1240.414134 950.158242 
L 1228.126068 957.203145 
L 1217.098317 969.562624 
L 1208.969289 985.629947 
L 1205.188346 1004.04557 
L 1199.264868 1035.562242 
" clip-path="url(#p3de12d2ddd)" style="fill: none; stroke: #7a7a7a; stroke-width: 3; stroke-linecap: square"/>
   </g>
   <g id="line2d_22">
    <path d="M 1274.505639 898.866404 
L 1260.831228 888.484442 
L 1255.033781 886.506925 
L 1243.438888 887.495683 
L 1231.402886 892.686665 
L 1219.366883 901.585489 
L 1208.024053 913.697779 
L 1197.878522 928.652748 
L 1189.497431 945.956019 
L 1183.510938 965.113211 
L 1180.360151 985.629947 
L 1174.499689 1017.146618 
" clip-path="url(#p3de12d2ddd)" style="fill: none; stroke: #7a7a7a; stroke-width: 3; stroke-linecap: square"/>
   </g>
   <g id="line2d_23">
    <path d="M 1176.894287 891.697906 
L 1262.658683 957.203145 
" clip-path="url(#p3de12d2ddd)" style="fill: none; stroke: #7a7a7a; stroke-width: 3; stroke-linecap: square"/>
   </g>
   <g id="line2d_24">
    <path d="M 1164.417174 954.360465 
L 1252.702199 1021.719625 
" clip-path="url(#p3de12d2ddd)" style="fill: none; stroke: #7a7a7a; stroke-width: 3; stroke-linecap: square"/>
   </g>
   <g id="line2d_25">
    <path d="M 1262.658683 957.203145 
L 1341.491351 1019.00054 
L 1396.252012 1057.19133 
" clip-path="url(#p3de12d2ddd)" style="fill: none; stroke: #7a7a7a; stroke-width: 3; stroke-linecap: square"/>
   </g>
   <g id="line2d_26">
    <path d="M 1252.702199 1021.719625 
L 1253.14331 1021.84322 
L 1259.507897 1025.674658 
L 1275.261828 1038.652111 
L 1278.538645 1041.124007 
L 1335.378826 1084.876563 
L 1365.563356 1108.606762 
L 1383.018711 1121.955 
" clip-path="url(#p3de12d2ddd)" style="fill: none; stroke: #7a7a7a; stroke-width: 3; stroke-linecap: square"/>
   </g>
   <g id="line2d_27">
    <path d="M 1199.264868 1035.562242 
L 1205.188346 1004.04557 
L 1208.969289 985.629947 
L 1217.098317 969.562624 
L 1228.126068 957.203145 
L 1240.414134 950.158242 
L 1252.450137 949.663863 
L 1262.658683 957.203145 
" clip-path="url(#p3de12d2ddd)" style="fill: none; stroke: #7a7a7a; stroke-width: 3; stroke-linecap: square"/>
   </g>
   <g id="line2d_28">
    <path d="M 1224.597188 1054.34865 
L 1229.323367 1033.831915 
L 1233.230342 1023.326357 
L 1241.485401 1018.135376 
L 1252.702199 1021.719625 
" clip-path="url(#p3de12d2ddd)" style="fill: none; stroke: #7a7a7a; stroke-width: 3; stroke-linecap: square"/>
   </g>
   <g id="line2d_29">
    <path d="M 1136.753272 1344.796406 
L 1137.257398 1342.448105 
L 1137.320414 1341.830131 
L 1137.572477 1340.717778 
L 1199.264868 1035.562242 
" clip-path="url(#p3de12d2ddd)" style="fill: none; stroke: #7a7a7a; stroke-width: 3; stroke-linecap: square"/>
   </g>
   <g id="line2d_30">
    <path d="M 1166.118598 1344.796406 
L 1166.559709 1342.448105 
L 1166.68574 1341.830131 
L 1166.874787 1340.717778 
L 1191.13584 1222.313969 
L 1192.522186 1214.651092 
L 1197.185349 1192.15684 
L 1203.297874 1161.258143 
L 1214.388641 1103.539376 
L 1223.399889 1059.045252 
L 1224.597188 1054.34865 
" clip-path="url(#p3de12d2ddd)" style="fill: none; stroke: #7a7a7a; stroke-width: 3; stroke-linecap: square"/>
   </g>
   <g id="line2d_31">
    <path d="M 1176.894287 891.697906 
L 910.904927 688.137287 
L 521.845865 391.386197 
" clip-path="url(#p3de12d2ddd)" style="fill: none; stroke: #7a7a7a; stroke-width: 3; stroke-linecap: square"/>
   </g>
   <g id="line2d_32">
    <path d="M 1188.678227 832.496002 
L 1172.609218 819.765739 
L 1032.525269 714.586572 
L 1012.675317 698.024871 
L 819.280069 550.081907 
L 521.845865 320.813572 
" clip-path="url(#p3de12d2ddd)" style="fill: none; stroke: #7a7a7a; stroke-width: 3; stroke-linecap: square"/>
   </g>
   <g id="line2d_33">
    <path d="M 1199.264868 1035.562242 
L 1206.511676 997.618641 
L 1207.015802 975.247984 
L 1204.810251 952.382948 
L 1200.147088 930.630265 
L 1193.656469 912.091047 
L 1185.779504 898.49562 
L 1176.894287 891.697906 
" clip-path="url(#p3de12d2ddd)" style="fill: none; stroke: #7a7a7a; stroke-width: 3; stroke-linecap: square"/>
   </g>
   <g id="line2d_34">
    <path d="M 1224.597188 1054.34865 
L 1234.112562 1012.450016 
L 1236.381128 988.101842 
L 1236.255096 962.394126 
L 1233.923515 936.562815 
L 1229.701461 911.473073 
L 1223.777983 888.237252 
L 1216.46816 867.720517 
L 1208.024053 850.911626 
L 1201.911528 843.125154 
L 1188.678227 832.496002 
" clip-path="url(#p3de12d2ddd)" style="fill: none; stroke: #7a7a7a; stroke-width: 3; stroke-linecap: square"/>
   </g>
   <g id="line2d_35">
    <path d="M 1199.264868 1035.562242 
L 1137.572477 1340.717778 
L 1137.320414 1341.830131 
L 1137.257398 1342.448105 
L 1136.753272 1344.796406 
" clip-path="url(#p3de12d2ddd)" style="fill: none; stroke: #7a7a7a; stroke-width: 3; stroke-linecap: square"/>
   </g>
   <g id="line2d_36">
    <path d="M 1174.499689 1017.146618 
L 1173.869532 1020.730867 
L 1164.48019 1066.337344 
L 1109.719528 1340.594183 
L 1109.467465 1341.830131 
L 1109.341434 1342.32451 
L 1108.837308 1344.796406 
" clip-path="url(#p3de12d2ddd)" style="fill: none; stroke: #7a7a7a; stroke-width: 3; stroke-linecap: square"/>
   </g>
   <g id="line2d_37">
    <path d="M 159.379436 116.882169 
L 198.008073 144.320212 
L 216.282632 152.353873 
L 228.570698 155.320148 
L 239.724481 153.837011 
L 252.705719 145.679755 
L 267.325366 129.859621 
L 277.218835 116.387789 
L 284.276595 97.972166 
L 290.452136 77.579025 
L 295.871488 55.455558 
" clip-path="url(#p3de12d2ddd)" style="fill: none; stroke: #7a7a7a; stroke-width: 3; stroke-linecap: square"/>
   </g>
   <g id="line2d_38">
    <path d="M 144.822804 175.342504 
L 170.470203 198.331135 
L 185.720007 208.342313 
L 200.276639 215.263621 
L 214.077082 219.218655 
L 227.121336 220.207413 
L 239.409402 218.477086 
L 251.004295 214.151268 
L 261.842999 207.22996 
L 271.925514 197.960351 
L 281.251841 186.34244 
L 289.758963 172.499824 
L 297.572913 156.556096 
L 304.630673 138.634852 
L 310.932246 118.859685 
L 316.414613 97.354192 
L 321.140792 74.118371 
" clip-path="url(#p3de12d2ddd)" style="fill: none; stroke: #7a7a7a; stroke-width: 3; stroke-linecap: square"/>
   </g>
   <g id="line2d_39">
    <path d="M 295.871488 55.455558 
L 287.238334 99.208114 
L 283.457391 122.691124 
L 282.638187 145.926944 
L 284.465643 168.050412 
L 288.62468 188.319957 
L 294.800221 206.364796 
L 302.677186 221.196171 
L 311.940497 232.319702 
" clip-path="url(#p3de12d2ddd)" style="fill: none; stroke: #7a7a7a; stroke-width: 3; stroke-linecap: square"/>
   </g>
   <g id="line2d_40">
    <path d="M 270.413137 36.545555 
L 258.503166 96.859813 
L 255.037301 123.679882 
L 253.776986 149.758383 
L 254.407144 174.600935 
L 256.801741 197.960351 
L 260.897763 219.713034 
L 266.506162 239.364605 
L 273.374876 256.791471 
L 281.440888 271.74644 
L 290.515152 283.85873 
L 300.471636 292.881149 
" clip-path="url(#p3de12d2ddd)" style="fill: none; stroke: #7a7a7a; stroke-width: 3; stroke-linecap: square"/>
   </g>
   <g id="line2d_41">
    <path d="M 311.940497 232.319702 
L 520.081424 390.026654 
L 520.207456 390.150249 
L 520.459519 390.273844 
L 521.845865 391.386197 
" clip-path="url(#p3de12d2ddd)" style="fill: none; stroke: #7a7a7a; stroke-width: 3; stroke-linecap: square"/>
   </g>
   <g id="line2d_42">
    <path d="M 300.471636 292.881149 
L 333.932984 318.836055 
L 360.273555 339.229196 
L 464.123464 418.206266 
L 520.018409 461.588037 
L 520.14444 461.711632 
L 520.459519 461.958822 
L 521.845865 462.94758 
" clip-path="url(#p3de12d2ddd)" style="fill: none; stroke: #7a7a7a; stroke-width: 3; stroke-linecap: square"/>
   </g>
   <g id="line2d_43">
    <path d="M 176.708759 271.499251 
L 184.522709 239.117416 
L 188.492699 230.71297 
L 280.117558 114.781057 
L 283.016281 110.949619 
L 285.221831 105.140664 
L 295.871488 55.455558 
" clip-path="url(#p3de12d2ddd)" style="fill: none; stroke: #7a7a7a; stroke-width: 3; stroke-linecap: square"/>
   </g>
   <g id="line2d_44">
    <path d="M 202.545205 291.645201 
L 205.506944 277.802585 
L 208.468683 267.791407 
L 211.115343 260.870099 
L 213.951051 254.813954 
L 216.471679 250.488136 
L 219.11834 247.151077 
L 295.619425 151.24152 
L 303.244328 141.724721 
L 307.214318 135.174197 
L 310.050025 128.500079 
L 314.083032 110.331645 
L 315.532393 102.297983 
L 321.140792 74.118371 
" clip-path="url(#p3de12d2ddd)" style="fill: none; stroke: #7a7a7a; stroke-width: 3; stroke-linecap: square"/>
   </g>
   <g id="line2d_45">
    <path d="M 295.871488 55.455558 
L 285.221831 105.140664 
L 283.016281 110.949619 
L 280.117558 114.781057 
L 188.492699 230.71297 
L 184.522709 239.117416 
L 176.708759 271.499251 
" clip-path="url(#p3de12d2ddd)" style="fill: none; stroke: #7a7a7a; stroke-width: 3; stroke-linecap: square"/>
   </g>
   <g id="line2d_46">
    <path d="M 270.413137 36.545555 
L 262.788235 70.904907 
L 261.023794 77.579025 
L 259.133323 83.511575 
L 256.360631 89.81491 
L 253.398892 95.005891 
L 249.491917 99.702493 
L 168.768778 194.252507 
L 165.554977 201.29741 
L 161.521971 211.184993 
L 156.606744 234.173624 
L 152.636754 252.836437 
" clip-path="url(#p3de12d2ddd)" style="fill: none; stroke: #7a7a7a; stroke-width: 3; stroke-linecap: square"/>
   </g>
   <g id="line2d_47">
    <path d="M 295.871488 55.455558 
L 290.452136 77.579025 
L 284.276595 97.972166 
L 277.218835 116.387789 
L 267.325366 129.859621 
L 252.705719 145.679755 
L 239.724481 153.837011 
L 228.570698 155.320148 
L 216.282632 152.353873 
L 198.008073 144.320212 
L 159.379436 116.882169 
" clip-path="url(#p3de12d2ddd)" style="fill: none; stroke: #7a7a7a; stroke-width: 3; stroke-linecap: square"/>
   </g>
   <g id="line2d_48">
    <path d="M 270.413137 36.545555 
L 262.788235 70.904907 
L 261.023794 77.579025 
L 259.133323 83.511575 
L 256.360631 89.81491 
L 253.398892 95.005891 
L 249.491917 99.702493 
L 246.278116 102.421578 
L 243.064314 103.904716 
L 240.480669 104.2755 
L 238.212103 104.151905 
L 234.683223 102.915957 
L 229.263871 99.826088 
L 213.825019 88.208177 
L 172.108612 55.331963 
" clip-path="url(#p3de12d2ddd)" style="fill: none; stroke: #7a7a7a; stroke-width: 3; stroke-linecap: square"/>
   </g>
   <g id="line2d_49">
    <path d="M 521.845865 391.386197 
L 520.459519 390.273844 
L 520.207456 390.150249 
L 520.081424 390.026654 
L 311.940497 232.319702 
" clip-path="url(#p3de12d2ddd)" style="fill: none; stroke: #7a7a7a; stroke-width: 3; stroke-linecap: square"/>
   </g>
   <g id="line2d_50">
    <path d="M 521.845865 320.813572 
L 520.522534 319.701219 
L 520.081424 319.454029 
L 379.115256 212.050157 
L 353.530873 192.892964 
L 333.996 178.926753 
L 330.656166 176.454857 
L 326.875223 172.747014 
L 325.614909 171.263876 
" clip-path="url(#p3de12d2ddd)" style="fill: none; stroke: #7a7a7a; stroke-width: 3; stroke-linecap: square"/>
   </g>
   <g id="line2d_51">
    <path d="M 176.708759 271.499251 
L 182.632237 243.196044 
L 189.563966 220.948982 
L 197.3149 204.263685 
L 206.01107 192.645775 
L 215.526444 185.600872 
L 225.798006 182.758192 
L 236.762742 183.49976 
L 248.42065 187.331199 
L 260.771731 193.881723 
L 311.940497 232.319702 
" clip-path="url(#p3de12d2ddd)" style="fill: none; stroke: #7a7a7a; stroke-width: 3; stroke-linecap: square"/>
   </g>
   <g id="line2d_52">
    <path d="M 202.545205 291.645201 
L 205.506944 277.802585 
L 208.468683 267.791407 
L 211.115343 260.870099 
L 213.951051 254.813954 
L 216.471679 250.488136 
L 219.11834 247.151077 
L 221.701984 244.802776 
L 224.85277 242.948854 
L 227.751494 242.083691 
L 230.713232 241.960096 
L 235.817506 243.690423 
L 243.757487 249.004999 
L 300.471636 292.881149 
" clip-path="url(#p3de12d2ddd)" style="fill: none; stroke: #7a7a7a; stroke-width: 3; stroke-linecap: square"/>
   </g>
   <g id="line2d_53">
    <path d="M 311.940497 232.319702 
L 302.677186 221.196171 
L 294.800221 206.364796 
L 288.62468 188.319957 
L 284.465643 168.050412 
L 282.638187 145.926944 
L 283.457391 122.691124 
L 287.238334 99.208114 
L 295.871488 55.455558 
" clip-path="url(#p3de12d2ddd)" style="fill: none; stroke: #7a7a7a; stroke-width: 3; stroke-linecap: square"/>
   </g>
   <g id="line2d_54">
    <path d="M 325.614909 171.263876 
L 323.913484 169.162765 
L 320.699682 164.218973 
L 318.116038 159.151587 
L 316.16255 154.207795 
L 314.587157 148.64603 
L 313.704937 143.702238 
L 312.885733 136.657335 
L 312.570654 128.500079 
L 312.696686 124.91583 
L 312.507639 117.994522 
L 315.532393 102.297983 
L 321.140792 74.118371 
" clip-path="url(#p3de12d2ddd)" style="fill: none; stroke: #7a7a7a; stroke-width: 3; stroke-linecap: square"/>
   </g>
   <g id="line2d_55">
    <path d="M 311.940497 232.319702 
L 159.379436 116.882169 
" clip-path="url(#p3de12d2ddd)" style="fill: none; stroke: #7a7a7a; stroke-width: 3; stroke-linecap: square"/>
   </g>
   <g id="line2d_56">
    <path d="M 325.614909 171.263876 
L 236.888773 103.657526 
L 234.683223 102.915957 
L 229.263871 99.826088 
L 213.825019 88.208177 
L 172.108612 55.331963 
" clip-path="url(#p3de12d2ddd)" style="fill: none; stroke: #7a7a7a; stroke-width: 3; stroke-linecap: square"/>
   </g>
   <g id="line2d_57">
    <path d="M 311.940497 232.319702 
L 260.771731 193.881723 
L 248.42065 187.331199 
L 236.762742 183.49976 
L 225.798006 182.758192 
L 215.526444 185.600872 
L 206.01107 192.645775 
L 197.3149 204.263685 
L 189.563966 220.948982 
L 182.632237 243.196044 
L 176.708759 271.499251 
" clip-path="url(#p3de12d2ddd)" style="fill: none; stroke: #7a7a7a; stroke-width: 3; stroke-linecap: square"/>
   </g>
   <g id="line2d_58">
    <path d="M 325.614909 171.263876 
L 274.383127 132.825896 
L 260.771731 124.050666 
L 247.853509 118.73609 
L 235.628459 116.758574 
L 224.096582 118.118116 
L 213.257878 122.567529 
L 203.175362 129.983216 
L 193.78602 140.117989 
L 185.08985 152.971847 
L 177.149869 168.421196 
L 169.903061 186.34244 
L 163.412442 206.364796 
L 157.678012 228.611859 
L 157.047854 231.578134 
L 156.606744 234.173624 
L 152.636754 252.836437 
" clip-path="url(#p3de12d2ddd)" style="fill: none; stroke: #7a7a7a; stroke-width: 3; stroke-linecap: square"/>
   </g>
   <g id="line2d_59">
    <path d="M 159.379436 116.882169 
L 311.940497 232.319702 
" clip-path="url(#p3de12d2ddd)" style="fill: none; stroke: #7a7a7a; stroke-width: 3; stroke-linecap: square"/>
   </g>
   <g id="line2d_60">
    <path d="M 144.822804 175.342504 
L 233.485924 242.948854 
L 235.817506 243.690423 
L 243.757487 249.004999 
L 300.471636 292.881149 
" clip-path="url(#p3de12d2ddd)" style="fill: none; stroke: #7a7a7a; stroke-width: 3; stroke-linecap: square"/>
   </g>
   <g id="line2d_61">
    <path d="M 1396.252012 1057.19133 
L 1441 1100.993059 
" clip-path="url(#p3de12d2ddd)" style="fill: none; stroke: #7a7a7a; stroke-width: 3; stroke-linecap: square"/>
   </g>
   <g id="line2d_62">
    <path d="M 1383.018711 1121.955 
L 1441 1166.058813 
" clip-path="url(#p3de12d2ddd)" style="fill: none; stroke: #7a7a7a; stroke-width: 3; stroke-linecap: square"/>
   </g>
   <g id="line2d_63">
    <path d="M 1396.252012 1057.19133 
L 1341.491351 1019.00054 
L 1262.658683 957.203145 
" clip-path="url(#p3de12d2ddd)" style="fill: none; stroke: #7a7a7a; stroke-width: 3; stroke-linecap: square"/>
   </g>
   <g id="line2d_64">
    <path d="M 1407.783889 999.719753 
L 1372.43207 972.776088 
L 1274.505639 898.866404 
" clip-path="url(#p3de12d2ddd)" style="fill: none; stroke: #7a7a7a; stroke-width: 3; stroke-linecap: square"/>
   </g>
   <g id="line2d_65">
    <path d="M 1396.252012 1057.19133 
L 1441 1085.986911 
" clip-path="url(#p3de12d2ddd)" style="fill: none; stroke: #7a7a7a; stroke-width: 3; stroke-linecap: square"/>
   </g>
   <g id="line2d_66">
    <path d="M 1383.018711 1121.955 
L 1441 1141.231168 
" clip-path="url(#p3de12d2ddd)" style="fill: none; stroke: #7a7a7a; stroke-width: 3; stroke-linecap: square"/>
   </g>
   <g id="line2d_67">
    <path d="M 218.864246 140.619248 
L 348.888018 277.871021 
" clip-path="url(#p3de12d2ddd)" style="fill: none; stroke-dasharray: 32,8,5,8; stroke-dashoffset: 0; stroke: #1e90ff; stroke-width: 5"/>
   </g>
   <g id="line2d_68">
    <path d="M 1345.476418 1069.21563 
L 1342.573326 980.568957 
" clip-path="url(#p3de12d2ddd)" style="fill: none; stroke-dasharray: 32,8,5,8; stroke-dashoffset: 0; stroke: #1e90ff; stroke-width: 5"/>
   </g>
   <g id="line2d_69">
    <path d="M 1010.811553 802.765661 
L 1288.213035 1046.388614 
" clip-path="url(#p3de12d2ddd)" style="fill: none; stroke-dasharray: 32,8,5,8; stroke-dashoffset: 0; stroke: #1e90ff; stroke-width: 5"/>
   </g>
   <g id="line2d_70">
    <path d="M 620.346391 412.280355 
L 663.434313 445.982264 
" clip-path="url(#p3de12d2ddd)" style="fill: none; stroke-dasharray: 32,8,5,8; stroke-dashoffset: 0; stroke: #1e90ff; stroke-width: 5"/>
   </g>
   <g id="line2d_71">
    <path d="M 661.826612 531.09852 
L 961.274366 782.364676 
" clip-path="url(#p3de12d2ddd)" style="fill: none; stroke-dasharray: 32,8,5,8; stroke-dashoffset: 0; stroke: #1e90ff; stroke-width: 5"/>
   </g>
   <g id="line2d_72">
    <path d="M 218.864246 140.619248 
" clip-path="url(#p3de12d2ddd)" style="fill: none; stroke: #0000ff; stroke-width: 1.5; stroke-linecap: square"/>
    <defs>
     <path id="m98720a5422" d="M 0 10 
C 2.652031 10 5.195799 8.946337 7.071068 7.071068 
C 8.946337 5.195799 10 2.652031 10 0 
C 10 -2.652031 8.946337 -5.195799 7.071068 -7.071068 
C 5.195799 -8.946337 2.652031 -10 0 -10 
C -2.652031 -10 -5.195799 -8.946337 -7.071068 -7.071068 
C -8.946337 -5.195799 -10 -2.652031 -10 0 
C -10 2.652031 -8.946337 5.195799 -7.071068 7.071068 
C -5.195799 8.946337 -2.652031 10 0 10 
z
" style="stroke: #0000ff"/>
    </defs>
    <g clip-path="url(#p3de12d2ddd)">
     <use xlink:href="#m98720a5422" x="218.864246" y="140.619248" style="fill: #0000ff; stroke: #0000ff"/>
    </g>
   </g>
   <g id="line2d_73">
    <path d="M 1345.476418 1069.21563 
" clip-path="url(#p3de12d2ddd)" style="fill: none; stroke: #0000ff; stroke-width: 1.5; stroke-linecap: square"/>
    <g clip-path="url(#p3de12d2ddd)">
     <use xlink:href="#m98720a5422" x="1345.476418" y="1069.21563" style="fill: #0000ff; stroke: #0000ff"/>
    </g>
   </g>
   <g id="line2d_74">
    <path d="M 1010.811553 802.765661 
" clip-path="url(#p3de12d2ddd)" style="fill: none; stroke: #0000ff; stroke-width: 1.5; stroke-linecap: square"/>
    <g clip-path="url(#p3de12d2ddd)">
     <use xlink:href="#m98720a5422" x="1010.811553" y="802.765661" style="fill: #0000ff; stroke: #0000ff"/>
    </g>
   </g>
   <g id="line2d_75">
    <path d="M 620.346391 412.280355 
" clip-path="url(#p3de12d2ddd)" style="fill: none; stroke: #0000ff; stroke-width: 1.5; stroke-linecap: square"/>
    <g clip-path="url(#p3de12d2ddd)">
     <use xlink:href="#m98720a5422" x="620.346391" y="412.280355" style="fill: #0000ff; stroke: #0000ff"/>
    </g>
   </g>
   <g id="line2d_76">
    <path d="M 661.826612 531.09852 
" clip-path="url(#p3de12d2ddd)" style="fill: none; stroke: #0000ff; stroke-width: 1.5; stroke-linecap: square"/>
    <g clip-path="url(#p3de12d2ddd)">
     <use xlink:href="#m98720a5422" x="661.826612" y="531.09852" style="fill: #0000ff; stroke: #0000ff"/>
    </g>
   </g>
   <g id="line2d_77">
    <path d="M 348.888018 277.871021 
" clip-path="url(#p3de12d2ddd)" style="fill: none; stroke: #ff0000; stroke-width: 1.5; stroke-linecap: square"/>
    <defs>
     <path id="mbd972d6fa9" d="M 0 -10 
L -2.24514 -3.09017 
L -9.510565 -3.09017 
L -3.632713 1.18034 
L -5.877853 8.09017 
L -0 3.81966 
L 5.877853 8.09017 
L 3.632713 1.18034 
L 9.510565 -3.09017 
L 2.24514 -3.09017 
z
" style="stroke: #ff0000; stroke-linejoin: bevel"/>
    </defs>
    <g clip-path="url(#p3de12d2ddd)">
     <use xlink:href="#mbd972d6fa9" x="348.888018" y="277.871021" style="fill: #ff0000; stroke: #ff0000; stroke-linejoin: bevel"/>
    </g>
   </g>
   <g id="line2d_78">
    <path d="M 1342.573326 980.568957 
" clip-path="url(#p3de12d2ddd)" style="fill: none; stroke: #ff0000; stroke-width: 1.5; stroke-linecap: square"/>
    <g clip-path="url(#p3de12d2ddd)">
     <use xlink:href="#mbd972d6fa9" x="1342.573326" y="980.568957" style="fill: #ff0000; stroke: #ff0000; stroke-linejoin: bevel"/>
    </g>
   </g>
   <g id="line2d_79">
    <path d="M 1288.213035 1046.388614 
" clip-path="url(#p3de12d2ddd)" style="fill: none; stroke: #ff0000; stroke-width: 1.5; stroke-linecap: square"/>
    <g clip-path="url(#p3de12d2ddd)">
     <use xlink:href="#mbd972d6fa9" x="1288.213035" y="1046.388614" style="fill: #ff0000; stroke: #ff0000; stroke-linejoin: bevel"/>
    </g>
   </g>
   <g id="line2d_80">
    <path d="M 663.434313 445.982264 
" clip-path="url(#p3de12d2ddd)" style="fill: none; stroke: #ff0000; stroke-width: 1.5; stroke-linecap: square"/>
    <g clip-path="url(#p3de12d2ddd)">
     <use xlink:href="#mbd972d6fa9" x="663.434313" y="445.982264" style="fill: #ff0000; stroke: #ff0000; stroke-linejoin: bevel"/>
    </g>
   </g>
   <g id="line2d_81">
    <path d="M 961.274366 782.364676 
" clip-path="url(#p3de12d2ddd)" style="fill: none; stroke: #ff0000; stroke-width: 1.5; stroke-linecap: square"/>
    <g clip-path="url(#p3de12d2ddd)">
     <use xlink:href="#mbd972d6fa9" x="961.274366" y="782.364676" style="fill: #ff0000; stroke: #ff0000; stroke-linejoin: bevel"/>
    </g>
   </g>
  </g>
 </g>
 <defs>
  <clipPath id="p3de12d2ddd">
   <rect x="0" y="0" width="1440" height="1440"/>
  </clipPath>
 </defs>
</svg>
