<?xml version="1.0" encoding="utf-8" standalone="no"?>
<!DOCTYPE svg PUBLIC "-//W3C//DTD SVG 1.1//EN"
  "http://www.w3.org/Graphics/SVG/1.1/DTD/svg11.dtd">
<svg xmlns:xlink="http://www.w3.org/1999/xlink" width="1440pt" height="1440pt" viewBox="0 0 1440 1440" xmlns="http://www.w3.org/2000/svg" version="1.1">
 <metadata>
  <rdf:RDF xmlns:dc="http://purl.org/dc/elements/1.1/" xmlns:cc="http://creativecommons.org/ns#" xmlns:rdf="http://www.w3.org/1999/02/22-rdf-syntax-ns#">
   <cc:Work>
    <dc:type rdf:resource="http://purl.org/dc/dcmitype/StillImage"/>
    <dc:date>2026-02-27T11:04:54.678917</dc:date>
    <dc:format>image/svg+xml</dc:format>
    <dc:creator>
     <cc:Agent>
      <dc:title>Matplotlib v3.7.3, https://matplotlib.org/</dc:title>
     </cc:Agent>
    </dc:creator>
   </cc:Work>
  </rdf:RDF>
 </metadata>
 <defs>
  <style type="text/css">*{stroke-linejoin: round; stroke-linecap: butt}</style>
 </defs>
 <g id="figure_1">
  <g id="patch_1">
   <path d="M 0 1440 
L 1440 1440 
L 1440 0 
L 0 0 
z
" style="fill: #ffffff"/>
  </g>
  <g id="axes_1">
   <g id="line2d_1">
    <path d="M 159.277403 821.611641 
L 140.608454 831.102621 
L 124.152121 835.254926 
L 109.631828 834.365146 
L 96.840141 828.878173 
L 85.77706 819.238895 
L 76.096865 805.892204 
L 67.661266 789.282987 
L 60.401119 770.004433 
L 53.970703 748.204836 
L 48.370019 724.625681 
L 43.322488 699.563559 
L 38.758967 673.611659 
L 20.91975 570.248946 
" clip-path="url(#p6377e3f3e6)" style="fill: none; stroke: #7a7a7a; stroke-width: 3; stroke-linecap: square"/>
   </g>
   <g id="line2d_2">
    <path d="M 151.809823 771.487398 
L 150.980092 771.783991 
L 135.491779 783.647717 
L 128.50821 788.244911 
L 123.253246 790.321063 
L 117.998283 790.617656 
L 111.360434 788.689801 
L 109.286107 787.651725 
L 108.179799 787.948318 
L 104.031143 784.982387 
L 97.739016 779.940303 
L 91.101168 772.525474 
L 84.809041 763.331087 
L 79.484933 753.098623 
L 75.336278 742.272973 
L 71.740777 730.112654 
L 68.006987 713.800031 
L 42.21618 559.423296 
" clip-path="url(#p6377e3f3e6)" style="fill: none; stroke: #7a7a7a; stroke-width: 3; stroke-linecap: square"/>
   </g>
   <g id="line2d_3">
    <path d="M 403.0109 635.944329 
L 402.52689 636.389218 
L 401.628015 636.982405 
L 159.277403 821.611641 
" clip-path="url(#p6377e3f3e6)" style="fill: none; stroke: #7a7a7a; stroke-width: 3; stroke-linecap: square"/>
   </g>
   <g id="line2d_4">
    <path d="M 403.0109 579.888223 
L 402.52689 580.333113 
L 401.628015 580.926299 
L 151.809823 771.487398 
" clip-path="url(#p6377e3f3e6)" style="fill: none; stroke: #7a7a7a; stroke-width: 3; stroke-linecap: square"/>
   </g>
   <g id="line2d_5">
    <path d="M 166.883271 872.625663 
L -1 999.881066 
" clip-path="url(#p6377e3f3e6)" style="fill: none; stroke: #7a7a7a; stroke-width: 3; stroke-linecap: square"/>
   </g>
   <g id="line2d_6">
    <path d="M 159.277403 821.611641 
L -1 943.51822 
" clip-path="url(#p6377e3f3e6)" style="fill: none; stroke: #7a7a7a; stroke-width: 3; stroke-linecap: square"/>
   </g>
   <g id="line2d_7">
    <path d="M 403.0109 693.4834 
L 402.52689 693.779993 
L 401.628015 694.521476 
L 166.883271 872.625663 
" clip-path="url(#p6377e3f3e6)" style="fill: none; stroke: #7a7a7a; stroke-width: 3; stroke-linecap: square"/>
   </g>
   <g id="line2d_8">
    <path d="M 403.0109 635.944329 
L 402.52689 636.389218 
L 401.628015 636.982405 
L 159.277403 821.611641 
" clip-path="url(#p6377e3f3e6)" style="fill: none; stroke: #7a7a7a; stroke-width: 3; stroke-linecap: square"/>
   </g>
   <g id="line2d_9">
    <path d="M 166.883271 872.625663 
L 158.655104 879.299008 
L 143.650801 896.649708 
L 130.997403 911.627662 
L 120.418332 924.826057 
L 111.567867 937.282969 
L 104.031143 949.739882 
L 97.531584 963.086573 
L 91.723466 978.212824 
L 86.26107 996.008413 
L 80.72953 1017.214823 
L 75.543711 1042.425241 
L 69.804737 1071.936259 
L 54.385569 1161.359094 
" clip-path="url(#p6377e3f3e6)" style="fill: none; stroke: #7a7a7a; stroke-width: 3; stroke-linecap: square"/>
   </g>
   <g id="line2d_10">
    <path d="M 159.277403 821.611641 
L 151.049236 828.13669 
L 139.225569 839.40723 
L 128.646498 849.936287 
L 119.173735 860.465343 
L 110.668992 871.142697 
L 102.99398 882.561533 
L 95.872121 895.166742 
L 89.234273 909.55151 
L 82.873002 925.864133 
L 76.580874 944.994391 
L 70.219603 966.942284 
L 63.650899 992.597592 
L 56.736473 1022.10861 
L 49.19975 1055.920229 
L 40.902439 1094.773932 
L 31.706253 1138.818015 
L 21.265471 1193.391154 
" clip-path="url(#p6377e3f3e6)" style="fill: none; stroke: #7a7a7a; stroke-width: 3; stroke-linecap: square"/>
   </g>
   <g id="line2d_11">
    <path d="M 174.489139 923.491388 
L 401.628015 751.467361 
L 402.52689 750.874174 
L 403.0109 750.429285 
" clip-path="url(#p6377e3f3e6)" style="fill: none; stroke: #7a7a7a; stroke-width: 3; stroke-linecap: square"/>
   </g>
   <g id="line2d_12">
    <path d="M 181.956718 973.763927 
L 401.628015 807.226873 
L 402.52689 806.48539 
L 403.0109 806.188797 
" clip-path="url(#p6377e3f3e6)" style="fill: none; stroke: #7a7a7a; stroke-width: 3; stroke-linecap: square"/>
   </g>
   <g id="line2d_13">
    <path d="M -1 1057.317531 
L 174.489139 923.491388 
" clip-path="url(#p6377e3f3e6)" style="fill: none; stroke: #7a7a7a; stroke-width: 3; stroke-linecap: square"/>
   </g>
   <g id="line2d_14">
    <path d="M -1 1113.068751 
L 117.79085 1022.5535 
L 119.450312 1021.070534 
L 181.956718 973.763927 
" clip-path="url(#p6377e3f3e6)" style="fill: none; stroke: #7a7a7a; stroke-width: 3; stroke-linecap: square"/>
   </g>
   <g id="line2d_15">
    <path d="M 166.883271 872.625663 
L 401.628015 694.521476 
L 402.52689 693.779993 
L 403.0109 693.4834 
" clip-path="url(#p6377e3f3e6)" style="fill: none; stroke: #7a7a7a; stroke-width: 3; stroke-linecap: square"/>
   </g>
   <g id="line2d_16">
    <path d="M 174.489139 923.491388 
L 401.628015 751.467361 
L 402.52689 750.874174 
L 403.0109 750.429285 
" clip-path="url(#p6377e3f3e6)" style="fill: none; stroke: #7a7a7a; stroke-width: 3; stroke-linecap: square"/>
   </g>
   <g id="line2d_17">
    <path d="M -1 999.881066 
L 166.883271 872.625663 
" clip-path="url(#p6377e3f3e6)" style="fill: none; stroke: #7a7a7a; stroke-width: 3; stroke-linecap: square"/>
   </g>
   <g id="line2d_18">
    <path d="M -1 1057.317531 
L 174.489139 923.491388 
" clip-path="url(#p6377e3f3e6)" style="fill: none; stroke: #7a7a7a; stroke-width: 3; stroke-linecap: square"/>
   </g>
   <g id="line2d_19">
    <path d="M 159.277403 821.611641 
L -1 943.51822 
" clip-path="url(#p6377e3f3e6)" style="fill: none; stroke: #7a7a7a; stroke-width: 3; stroke-linecap: square"/>
   </g>
   <g id="line2d_20">
    <path d="M 151.809823 771.487398 
L -1 889.211333 
" clip-path="url(#p6377e3f3e6)" style="fill: none; stroke: #7a7a7a; stroke-width: 3; stroke-linecap: square"/>
   </g>
   <g id="line2d_21">
    <path d="M 54.385569 1161.359094 
L 72.570508 1079.499385 
L 80.24552 1040.200792 
L 87.989676 1012.469333 
L 96.01041 993.487371 
L 104.584297 980.437273 
L 113.918772 970.649699 
L 124.29041 961.307014 
L 174.489139 923.491388 
" clip-path="url(#p6377e3f3e6)" style="fill: none; stroke: #7a7a7a; stroke-width: 3; stroke-linecap: square"/>
   </g>
   <g id="line2d_22">
    <path d="M 82.873002 1139.856091 
L 101.611095 1057.848085 
L 103.063124 1050.878146 
L 105.137451 1043.31502 
L 107.834077 1036.493378 
L 110.323271 1031.599591 
L 113.089041 1027.447287 
L 116.269676 1023.888169 
L 119.450312 1021.070534 
L 131.757989 1011.431257 
L 181.956718 973.763927 
" clip-path="url(#p6377e3f3e6)" style="fill: none; stroke: #7a7a7a; stroke-width: 3; stroke-linecap: square"/>
   </g>
   <g id="line2d_23">
    <path d="M 974.211586 258.974435 
L 1106.622834 158.28106 
L 1118.515646 147.603707 
L 1129.163861 132.180863 
L 1138.498335 112.605715 
L 1146.38078 89.619746 
L 1152.603763 63.964438 
L 1157.028995 36.381275 
L 1159.587333 7.315147 
L 1159.723709 -1 
" clip-path="url(#p6377e3f3e6)" style="fill: none; stroke: #7a7a7a; stroke-width: 3; stroke-linecap: square"/>
   </g>
   <g id="line2d_24">
    <path d="M 981.610022 310.581643 
L 1114.021269 209.739972 
L 1125.706648 199.507508 
L 1136.769729 186.01252 
L 1147.072223 169.699896 
L 1156.61413 150.717935 
L 1165.188017 129.363228 
L 1172.86303 106.228962 
L 1179.500878 81.611731 
L 1184.89413 55.65983 
L 1189.181074 28.81815 
L 1192.085132 1.53158 
L 1192.224746 -1 
" clip-path="url(#p6377e3f3e6)" style="fill: none; stroke: #7a7a7a; stroke-width: 3; stroke-linecap: square"/>
   </g>
   <g id="line2d_25">
    <path clip-path="url(#p6377e3f3e6)" style="fill: none; stroke: #7a7a7a; stroke-width: 3; stroke-linecap: square"/>
   </g>
   <g id="line2d_26">
    <path clip-path="url(#p6377e3f3e6)" style="fill: none; stroke: #7a7a7a; stroke-width: 3; stroke-linecap: square"/>
   </g>
   <g id="line2d_27">
    <path d="M 1361.695989 573.808064 
L 1255.421269 468.962385 
L 1239.310658 450.12872 
" clip-path="url(#p6377e3f3e6)" style="fill: none; stroke: #7a7a7a; stroke-width: 3; stroke-linecap: square"/>
   </g>
   <g id="line2d_28">
    <path d="M 1371.514473 530.65376 
L 1305.896575 462.437336 
L 1261.851685 415.130728 
L 1254.591538 405.343154 
L 1248.852565 397.335139 
" clip-path="url(#p6377e3f3e6)" style="fill: none; stroke: #7a7a7a; stroke-width: 3; stroke-linecap: square"/>
   </g>
   <g id="line2d_29">
    <path d="M 1204.531098 314.140761 
L 1165.115315 -1 
" clip-path="url(#p6377e3f3e6)" style="fill: none; stroke: #7a7a7a; stroke-width: 3; stroke-linecap: square"/>
   </g>
   <g id="line2d_30">
    <path d="M 1226.034961 287.892267 
L 1224.444643 277.511507 
L 1223.614912 268.613712 
L 1223.200047 260.309104 
L 1223.269191 258.529545 
L 1194.654147 -1 
" clip-path="url(#p6377e3f3e6)" style="fill: none; stroke: #7a7a7a; stroke-width: 3; stroke-linecap: square"/>
   </g>
   <g id="line2d_31">
    <path d="M 1176.873396 347.210897 
L 1170.166404 322.000479 
L 1163.11369 299.607696 
L 1155.64611 279.884252 
L 1147.694521 262.681849 
L 1139.258922 248.000488 
L 1130.339313 235.840169 
L 1120.797406 226.052595 
L 1110.564056 218.786063 
L 1099.777553 213.743979 
L 1088.230462 211.074641 
L 1075.922785 210.629751 
L 1062.785376 212.261014 
L 1048.818237 216.116724 
L 1034.021367 222.048587 
L 1018.256477 230.056603 
L 1001.523567 239.992473 
L 983.822638 251.707903 
L 974.211586 258.974435 
" clip-path="url(#p6377e3f3e6)" style="fill: none; stroke: #7a7a7a; stroke-width: 3; stroke-linecap: square"/>
   </g>
   <g id="line2d_32">
    <path d="M 1204.531098 314.140761 
L 1197.270951 293.675833 
L 1189.803372 273.952389 
L 1182.059215 255.26702 
L 1174.038482 237.768024 
L 1165.602883 221.307105 
L 1156.752418 206.477447 
L 1147.487088 193.130755 
L 1137.59946 181.415326 
L 1127.158677 171.479455 
L 1116.026452 163.47144 
L 1104.202785 157.539577 
L 1091.549386 153.98046 
L 1078.135401 152.64579 
L 1063.753396 153.683866 
L 1048.472516 157.539577 
L 1032.223616 164.064627 
L 1014.868408 173.407311 
L 996.406892 185.864223 
L 976.769924 201.435364 
L 967.158872 208.701896 
" clip-path="url(#p6377e3f3e6)" style="fill: none; stroke: #7a7a7a; stroke-width: 3; stroke-linecap: square"/>
   </g>
   <g id="line2d_33">
    <path d="M 967.158872 208.701896 
L 403.978919 635.202846 
L 403.425765 635.647735 
L 403.0109 635.944329 
" clip-path="url(#p6377e3f3e6)" style="fill: none; stroke: #7a7a7a; stroke-width: 3; stroke-linecap: square"/>
   </g>
   <g id="line2d_34">
    <path d="M 959.96787 157.391281 
L 604.497258 428.180827 
L 403.978919 579.14674 
L 403.425765 579.59163 
L 403.0109 579.888223 
" clip-path="url(#p6377e3f3e6)" style="fill: none; stroke: #7a7a7a; stroke-width: 3; stroke-linecap: square"/>
   </g>
   <g id="line2d_35">
    <path d="M 1248.852565 397.335139 
L 1243.113592 388.882234 
L 1236.268311 379.094661 
L 1229.699607 368.269011 
L 1224.582932 358.481437 
L 1221.333152 351.511498 
" clip-path="url(#p6377e3f3e6)" style="fill: none; stroke: #7a7a7a; stroke-width: 3; stroke-linecap: square"/>
   </g>
   <g id="line2d_36">
    <path d="M 1256.942443 352.69787 
L 1252.309778 347.804083 
L 1246.709093 341.279034 
L 1241.799851 334.309095 
L 1238.757504 328.970418 
L 1235.576868 322.445369 
" clip-path="url(#p6377e3f3e6)" style="fill: none; stroke: #7a7a7a; stroke-width: 3; stroke-linecap: square"/>
   </g>
   <g id="line2d_37">
    <path d="M 1253.830952 45.427367 
L 1107.383421 156.946391 
L 974.211586 258.974435 
" clip-path="url(#p6377e3f3e6)" style="fill: none; stroke: #7a7a7a; stroke-width: 3; stroke-linecap: square"/>
   </g>
   <g id="line2d_38">
    <path d="M 1236.082241 -1 
L 1124.185474 84.281069 
L 967.158872 208.701896 
" clip-path="url(#p6377e3f3e6)" style="fill: none; stroke: #7a7a7a; stroke-width: 3; stroke-linecap: square"/>
   </g>
   <g id="line2d_39">
    <path d="M 1157.567012 -1 
L 1157.513005 -0.099682 
L 1153.295206 23.62777 
L 1146.311636 45.427367 
L 1136.424007 65.150811 
L 1123.563176 82.353214 
L 1107.659998 96.886278 
L 967.158872 208.701896 
" clip-path="url(#p6377e3f3e6)" style="fill: none; stroke: #7a7a7a; stroke-width: 3; stroke-linecap: square"/>
   </g>
   <g id="line2d_40">
    <path d="M 1128.627538 -1 
L 1128.610707 -0.841165 
L 1122.31858 23.331177 
L 1112.845817 39.6438 
L 1110.080047 40.978469 
L 1108.282296 43.054621 
L 1096.873494 53.138788 
L 959.96787 157.391281 
" clip-path="url(#p6377e3f3e6)" style="fill: none; stroke: #7a7a7a; stroke-width: 3; stroke-linecap: square"/>
   </g>
   <g id="line2d_41">
    <path d="M 1176.165455 -1 
L 1180.745475 8.05663 
L 1192.015988 24.665846 
L 1204.323665 38.012538 
L 1217.184497 47.355222 
L 1230.045328 52.100712 
L 1242.42215 51.655823 
L 1253.830952 45.427367 
" clip-path="url(#p6377e3f3e6)" style="fill: none; stroke: #7a7a7a; stroke-width: 3; stroke-linecap: square"/>
   </g>
   <g id="line2d_42">
    <path d="M 1142.488769 -1 
L 1145.481905 9.984485 
L 1153.640927 31.042599 
L 1163.321122 50.02456 
L 1174.315059 66.633777 
L 1186.277015 80.721951 
L 1198.930414 91.992491 
L 1211.929533 100.148803 
L 1225.066942 105.04259 
L 1237.927773 106.377259 
L 1250.23545 103.707921 
L 1262.128262 98.96243 
" clip-path="url(#p6377e3f3e6)" style="fill: none; stroke: #7a7a7a; stroke-width: 3; stroke-linecap: square"/>
   </g>
   <g id="line2d_43">
    <path d="M 20.91975 570.248946 
L 34.679456 659.523484 
L 40.902439 693.779993 
L 47.471143 724.922274 
L 54.454713 752.950326 
L 61.853148 778.012448 
L 69.597305 799.960341 
L 77.756327 819.238895 
L 86.26107 835.551519 
L 95.180679 849.194804 
L 104.376865 860.020454 
L 113.987916 868.325062 
L 123.875544 874.108628 
L 134.178038 877.222856 
L 144.757109 878.112636 
L 155.681902 876.481373 
L 166.883271 872.625663 
" clip-path="url(#p6377e3f3e6)" style="fill: none; stroke: #7a7a7a; stroke-width: 3; stroke-linecap: square"/>
   </g>
   <g id="line2d_44">
    <path d="M 1.075348 585.375197 
L 9.649236 633.868177 
L 15.664786 668.421279 
L 21.403759 701.046525 
L 28.594762 732.485399 
L 36.131485 762.144714 
L 44.013931 789.57958 
L 52.242097 814.789998 
L 60.74684 837.775967 
L 69.666449 858.537488 
L 78.862635 876.926263 
L 88.404542 892.793997 
L 98.223026 906.288985 
L 108.318087 916.966338 
L 118.689725 925.12265 
L 129.337941 930.609623 
L 140.262733 933.130665 
L 151.394958 932.982369 
L 162.80376 929.719844 
L 174.489139 923.491388 
" clip-path="url(#p6377e3f3e6)" style="fill: none; stroke: #7a7a7a; stroke-width: 3; stroke-linecap: square"/>
   </g>
   <g id="line2d_45">
    <path d="M 1234.153378 -1 
L 1226.795548 2.717953 
L 1213.450707 3.756029 
L 1200.382443 -0.544572 
L 1199.752482 -1 
" clip-path="url(#p6377e3f3e6)" style="fill: none; stroke: #7a7a7a; stroke-width: 3; stroke-linecap: square"/>
   </g>
   <g id="line2d_46">
    <path clip-path="url(#p6377e3f3e6)" style="fill: none; stroke: #7a7a7a; stroke-width: 3; stroke-linecap: square"/>
   </g>
   <g id="line2d_47">
    <path d="M 1160.862142 -1 
L 1160.901074 -0.099682 
L 1160.209631 32.080675 
L 1157.720438 60.257024 
L 1153.779215 85.022552 
L 1148.800829 106.970445 
L 1143.131 126.545593 
L 1137.11545 144.489479 
L 1131.238188 161.098695 
L 1125.775792 177.263022 
L 1121.143127 193.279052 
L 1117.755059 209.739972 
L 1115.888164 227.238968 
L 1116.095597 246.517522 
L 1118.58479 267.872229 
L 1123.839753 291.896274 
L 1132.206208 319.331141 
" clip-path="url(#p6377e3f3e6)" style="fill: none; stroke: #7a7a7a; stroke-width: 3; stroke-linecap: square"/>
   </g>
   <g id="line2d_48">
    <path d="M 1125.709082 -1 
L 1125.430071 3.607732 
L 1124.392907 10.429375 
L 1123.494032 13.691899 
L 1123.286599 16.212941 
L 1119.414521 42.164842 
L 1114.36699 65.743997 
L 1108.558873 87.543594 
L 1102.266746 108.008521 
L 1089.475059 147.01052 
L 1083.736086 166.585668 
L 1078.757699 186.754003 
L 1074.954765 208.257006 
L 1072.673005 231.539568 
L 1072.188995 257.194876 
L 1073.848457 285.519522 
L 1077.927968 317.106692 
L 1084.842394 352.549574 
" clip-path="url(#p6377e3f3e6)" style="fill: none; stroke: #7a7a7a; stroke-width: 3; stroke-linecap: square"/>
   </g>
   <g id="line2d_49">
    <path d="M 1236.082241 -1 
L 1124.185474 84.281069 
L 967.158872 208.701896 
" clip-path="url(#p6377e3f3e6)" style="fill: none; stroke: #7a7a7a; stroke-width: 3; stroke-linecap: square"/>
   </g>
   <g id="line2d_50">
    <path d="M 1167.615008 -1 
L 1096.873494 53.138788 
L 959.96787 157.391281 
" clip-path="url(#p6377e3f3e6)" style="fill: none; stroke: #7a7a7a; stroke-width: 3; stroke-linecap: square"/>
   </g>
   <g id="line2d_51">
    <path d="M 403.0109 693.4834 
L 403.356621 693.186807 
L 403.978919 692.741917 
L 974.211586 258.974435 
" clip-path="url(#p6377e3f3e6)" style="fill: none; stroke: #7a7a7a; stroke-width: 3; stroke-linecap: square"/>
   </g>
   <g id="line2d_52">
    <path d="M 403.0109 750.429285 
L 403.356621 750.132691 
L 403.978919 749.687802 
L 981.610022 310.581643 
" clip-path="url(#p6377e3f3e6)" style="fill: none; stroke: #7a7a7a; stroke-width: 3; stroke-linecap: square"/>
   </g>
   <g id="line2d_53">
    <path d="M 403.0109 750.429285 
L 403.356621 750.132691 
L 403.978919 749.687802 
L 981.610022 310.581643 
" clip-path="url(#p6377e3f3e6)" style="fill: none; stroke: #7a7a7a; stroke-width: 3; stroke-linecap: square"/>
   </g>
   <g id="line2d_54">
    <path d="M 403.0109 806.188797 
L 403.356621 805.892204 
L 403.978919 805.447314 
L 452.172465 768.521467 
L 492.483565 738.268965 
L 988.801024 361.299072 
" clip-path="url(#p6377e3f3e6)" style="fill: none; stroke: #7a7a7a; stroke-width: 3; stroke-linecap: square"/>
   </g>
   <g id="line2d_55">
    <path d="M 1371.514473 530.65376 
L 1305.896575 462.437336 
L 1261.851685 415.130728 
L 1254.591538 405.343154 
L 1248.852565 397.335139 
" clip-path="url(#p6377e3f3e6)" style="fill: none; stroke: #7a7a7a; stroke-width: 3; stroke-linecap: square"/>
   </g>
   <g id="line2d_56">
    <path d="M 1382.231832 483.495449 
L 1340.537847 439.006477 
L 1296.907822 394.517504 
L 1256.942443 352.69787 
" clip-path="url(#p6377e3f3e6)" style="fill: none; stroke: #7a7a7a; stroke-width: 3; stroke-linecap: square"/>
   </g>
   <g id="line2d_57">
    <path d="M 1221.333152 351.511498 
L 1204.531098 314.140761 
" clip-path="url(#p6377e3f3e6)" style="fill: none; stroke: #7a7a7a; stroke-width: 3; stroke-linecap: square"/>
   </g>
   <g id="line2d_58">
    <path d="M 1235.576868 322.445369 
L 1230.667626 308.950381 
L 1228.731587 302.128738 
L 1226.933837 294.120723 
L 1226.034961 287.892267 
" clip-path="url(#p6377e3f3e6)" style="fill: none; stroke: #7a7a7a; stroke-width: 3; stroke-linecap: square"/>
   </g>
   <g id="line2d_59">
    <path d="M 981.610022 310.581643 
L 1245.464497 109.491487 
L 1262.128262 98.96243 
" clip-path="url(#p6377e3f3e6)" style="fill: none; stroke: #7a7a7a; stroke-width: 3; stroke-linecap: square"/>
   </g>
   <g id="line2d_60">
    <path d="M 988.801024 361.299072 
L 1015.767283 340.834144 
L 1252.309778 156.649798 
L 1255.628702 153.387273 
L 1268.835255 143.599699 
" clip-path="url(#p6377e3f3e6)" style="fill: none; stroke: #7a7a7a; stroke-width: 3; stroke-linecap: square"/>
   </g>
   <g id="line2d_61">
    <path clip-path="url(#p6377e3f3e6)" style="fill: none; stroke: #7a7a7a; stroke-width: 3; stroke-linecap: square"/>
   </g>
   <g id="line2d_62">
    <path clip-path="url(#p6377e3f3e6)" style="fill: none; stroke: #7a7a7a; stroke-width: 3; stroke-linecap: square"/>
   </g>
   <g id="line2d_63">
    <path d="M 1239.310658 450.12872 
L 1230.598482 440.637739 
L 1221.886306 428.774013 
L 1213.588996 416.910287 
L 1207.366013 406.677824 
L 1200.17501 394.517504 
" clip-path="url(#p6377e3f3e6)" style="fill: none; stroke: #7a7a7a; stroke-width: 3; stroke-linecap: square"/>
   </g>
   <g id="line2d_64">
    <path d="M 1248.852565 397.335139 
L 1243.113592 388.882234 
L 1236.268311 379.094661 
L 1229.699607 368.269011 
L 1224.582932 358.481437 
L 1221.333152 351.511498 
" clip-path="url(#p6377e3f3e6)" style="fill: none; stroke: #7a7a7a; stroke-width: 3; stroke-linecap: square"/>
   </g>
   <g id="line2d_65">
    <path d="M 974.211586 258.974435 
L 403.978919 692.741917 
L 403.356621 693.186807 
L 403.0109 693.4834 
" clip-path="url(#p6377e3f3e6)" style="fill: none; stroke: #7a7a7a; stroke-width: 3; stroke-linecap: square"/>
   </g>
   <g id="line2d_66">
    <path d="M 967.158872 208.701896 
L 403.978919 635.202846 
L 403.425765 635.647735 
L 403.0109 635.944329 
" clip-path="url(#p6377e3f3e6)" style="fill: none; stroke: #7a7a7a; stroke-width: 3; stroke-linecap: square"/>
   </g>
   <g id="line2d_67">
    <path d="M 1239.310658 450.12872 
L 1255.421269 468.962385 
L 1361.695989 573.808064 
" clip-path="url(#p6377e3f3e6)" style="fill: none; stroke: #7a7a7a; stroke-width: 3; stroke-linecap: square"/>
   </g>
   <g id="line2d_68">
    <path d="M 1229.768751 498.918293 
L 1320.002003 589.97239 
L 1350.909485 621.559561 
" clip-path="url(#p6377e3f3e6)" style="fill: none; stroke: #7a7a7a; stroke-width: 3; stroke-linecap: square"/>
   </g>
   <g id="line2d_69">
    <path d="M 974.211586 258.974435 
L 1107.383421 156.946391 
L 1253.830952 45.427367 
" clip-path="url(#p6377e3f3e6)" style="fill: none; stroke: #7a7a7a; stroke-width: 3; stroke-linecap: square"/>
   </g>
   <g id="line2d_70">
    <path d="M 981.610022 310.581643 
L 1245.464497 109.491487 
L 1262.128262 98.96243 
" clip-path="url(#p6377e3f3e6)" style="fill: none; stroke: #7a7a7a; stroke-width: 3; stroke-linecap: square"/>
   </g>
   <g id="line2d_71">
    <path d="M 981.610022 310.581643 
L 1005.326501 292.489461 
L 1022.266843 281.960404 
L 1037.962589 274.545575 
L 1052.482883 270.096678 
L 1066.035156 268.762009 
L 1078.619411 270.244974 
L 1090.373934 274.545575 
L 1101.506159 281.663811 
L 1112.154374 291.599681 
L 1122.31858 304.056594 
L 1132.206208 319.331141 
" clip-path="url(#p6377e3f3e6)" style="fill: none; stroke: #7a7a7a; stroke-width: 3; stroke-linecap: square"/>
   </g>
   <g id="line2d_72">
    <path d="M 988.801024 361.299072 
L 1023.442296 334.902281 
L 1033.74479 326.74597 
L 1038.584887 323.928335 
L 1043.355841 321.703886 
L 1047.988506 321.407293 
L 1053.381758 323.038555 
L 1053.589191 323.186852 
L 1058.844154 326.74597 
L 1059.950462 327.784046 
L 1065.067137 332.529536 
L 1069.077504 336.533543 
L 1073.364447 340.834144 
L 1076.406795 343.948372 
L 1084.842394 352.549574 
" clip-path="url(#p6377e3f3e6)" style="fill: none; stroke: #7a7a7a; stroke-width: 3; stroke-linecap: square"/>
   </g>
   <g id="line2d_73">
    <path d="M 1200.17501 394.517504 
L 1193.053152 381.319109 
L 1185.793005 366.192859 
L 1176.873396 347.210897 
" clip-path="url(#p6377e3f3e6)" style="fill: none; stroke: #7a7a7a; stroke-width: 3; stroke-linecap: square"/>
   </g>
   <g id="line2d_74">
    <path d="M 1221.333152 351.511498 
L 1204.531098 314.140761 
" clip-path="url(#p6377e3f3e6)" style="fill: none; stroke: #7a7a7a; stroke-width: 3; stroke-linecap: square"/>
   </g>
   <g id="line2d_75">
    <path d="M 1132.206208 319.331141 
L 1191.117113 405.343154 
L 1239.310658 450.12872 
" clip-path="url(#p6377e3f3e6)" style="fill: none; stroke: #7a7a7a; stroke-width: 3; stroke-linecap: square"/>
   </g>
   <g id="line2d_76">
    <path d="M 1084.842394 352.549574 
L 1169.267528 437.671808 
L 1229.768751 498.918293 
" clip-path="url(#p6377e3f3e6)" style="fill: none; stroke: #7a7a7a; stroke-width: 3; stroke-linecap: square"/>
   </g>
   <g id="line2d_77">
    <path d="M 1204.531098 314.140761 
L 1198.930414 289.375233 
L 1195.957211 263.423332 
L 1195.611489 237.174838 
L 1197.547528 211.222938 
L 1201.765328 186.605706 
L 1208.057455 163.768033 
L 1216.285621 143.747996 
L 1226.242394 127.287076 
L 1237.858629 114.97846 
L 1262.128262 98.96243 
" clip-path="url(#p6377e3f3e6)" style="fill: none; stroke: #7a7a7a; stroke-width: 3; stroke-linecap: square"/>
   </g>
   <g id="line2d_78">
    <path d="M 1226.034961 287.892267 
L 1224.444643 277.511507 
L 1223.614912 268.613712 
L 1223.200047 260.309104 
L 1223.269191 258.529545 
L 1222.992614 256.1568 
L 1223.614912 226.794078 
L 1227.625279 200.842177 
L 1234.816282 178.745988 
L 1244.980487 161.395288 
L 1268.835255 143.599699 
" clip-path="url(#p6377e3f3e6)" style="fill: none; stroke: #7a7a7a; stroke-width: 3; stroke-linecap: square"/>
   </g>
   <g id="line2d_79">
    <path d="M 1204.531098 314.140761 
L 1198.031538 284.778039 
L 1193.882883 255.118724 
L 1192.085132 225.756002 
L 1192.499998 196.83817 
L 1194.920047 169.10671 
L 1199.345279 142.858216 
L 1205.568262 118.537578 
L 1213.588996 96.886278 
L 1223.130903 78.052613 
L 1234.193983 62.629769 
L 1246.570805 50.91434 
L 1253.830952 45.427367 
" clip-path="url(#p6377e3f3e6)" style="fill: none; stroke: #7a7a7a; stroke-width: 3; stroke-linecap: square"/>
   </g>
   <g id="line2d_80">
    <path d="M 1226.034961 287.892267 
L 1221.540585 260.309104 
L 1220.019411 231.687865 
L 1221.056575 203.363219 
L 1224.444643 176.373242 
L 1229.768751 151.904307 
L 1236.821465 130.99449 
L 1245.326208 114.830164 
L 1254.93726 104.449403 
L 1262.128262 98.96243 
" clip-path="url(#p6377e3f3e6)" style="fill: none; stroke: #7a7a7a; stroke-width: 3; stroke-linecap: square"/>
   </g>
   <g id="line2d_81">
    <path d="M 845.468293 386.953456 
L 1132.532584 102.866267 
" clip-path="url(#p6377e3f3e6)" style="fill: none; stroke-dasharray: 32,8,5,8; stroke-dashoffset: 0; stroke: #1e90ff; stroke-width: 5"/>
   </g>
   <g id="line2d_82">
    <path d="M 138.288509 995.110275 
L 265.576566 903.901522 
" clip-path="url(#p6377e3f3e6)" style="fill: none; stroke-dasharray: 32,8,5,8; stroke-dashoffset: 0; stroke: #1e90ff; stroke-width: 5"/>
   </g>
   <g id="line2d_83">
    <path d="M 649.376133 389.07214 
L 270.238232 723.728855 
" clip-path="url(#p6377e3f3e6)" style="fill: none; stroke-dasharray: 32,8,5,8; stroke-dashoffset: 0; stroke: #1e90ff; stroke-width: 5"/>
   </g>
   <g id="line2d_84">
    <path d="M 1085.387546 74.148288 
L 738.907476 332.983242 
" clip-path="url(#p6377e3f3e6)" style="fill: none; stroke-dasharray: 32,8,5,8; stroke-dashoffset: 0; stroke: #1e90ff; stroke-width: 5"/>
   </g>
   <g id="line2d_85">
    <path d="M 295.618697 867.693815 
L 650.322308 591.457954 
" clip-path="url(#p6377e3f3e6)" style="fill: none; stroke-dasharray: 32,8,5,8; stroke-dashoffset: 0; stroke: #1e90ff; stroke-width: 5"/>
   </g>
   <g id="line2d_86">
    <path d="M 1324.585984 441.384608 
L 1336.283618 445.855047 
" clip-path="url(#p6377e3f3e6)" style="fill: none; stroke-dasharray: 32,8,5,8; stroke-dashoffset: 0; stroke: #1e90ff; stroke-width: 5"/>
   </g>
   <g id="line2d_87">
    <path d="M 607.669284 627.866827 
L 929.52853 360.841347 
" clip-path="url(#p6377e3f3e6)" style="fill: none; stroke-dasharray: 32,8,5,8; stroke-dashoffset: 0; stroke: #1e90ff; stroke-width: 5"/>
   </g>
   <g id="line2d_88">
    <path d="M 845.468293 386.953456 
" clip-path="url(#p6377e3f3e6)" style="fill: none; stroke: #0000ff; stroke-width: 1.5; stroke-linecap: square"/>
    <defs>
     <path id="ma23fb9517c" d="M 0 10 
C 2.652031 10 5.195799 8.946337 7.071068 7.071068 
C 8.946337 5.195799 10 2.652031 10 0 
C 10 -2.652031 8.946337 -5.195799 7.071068 -7.071068 
C 5.195799 -8.946337 2.652031 -10 0 -10 
C -2.652031 -10 -5.195799 -8.946337 -7.071068 -7.071068 
C -8.946337 -5.195799 -10 -2.652031 -10 0 
C -10 2.652031 -8.946337 5.195799 -7.071068 7.071068 
C -5.195799 8.946337 -2.652031 10 0 10 
z
" style="stroke: #0000ff"/>
    </defs>
    <g clip-path="url(#p6377e3f3e6)">
     <use xlink:href="#ma23fb9517c" x="845.468293" y="386.953456" style="fill: #0000ff; stroke: #0000ff"/>
    </g>
   </g>
   <g id="line2d_89">
    <path d="M 138.288509 995.110275 
" clip-path="url(#p6377e3f3e6)" style="fill: none; stroke: #0000ff; stroke-width: 1.5; stroke-linecap: square"/>
    <g clip-path="url(#p6377e3f3e6)">
     <use xlink:href="#ma23fb9517c" x="138.288509" y="995.110275" style="fill: #0000ff; stroke: #0000ff"/>
    </g>
   </g>
   <g id="line2d_90">
    <path d="M 649.376133 389.07214 
" clip-path="url(#p6377e3f3e6)" style="fill: none; stroke: #0000ff; stroke-width: 1.5; stroke-linecap: square"/>
    <g clip-path="url(#p6377e3f3e6)">
     <use xlink:href="#ma23fb9517c" x="649.376133" y="389.07214" style="fill: #0000ff; stroke: #0000ff"/>
    </g>
   </g>
   <g id="line2d_91">
    <path d="M 1085.387546 74.148288 
" clip-path="url(#p6377e3f3e6)" style="fill: none; stroke: #0000ff; stroke-width: 1.5; stroke-linecap: square"/>
    <g clip-path="url(#p6377e3f3e6)">
     <use xlink:href="#ma23fb9517c" x="1085.387546" y="74.148288" style="fill: #0000ff; stroke: #0000ff"/>
    </g>
   </g>
   <g id="line2d_92">
    <path d="M 295.618697 867.693815 
" clip-path="url(#p6377e3f3e6)" style="fill: none; stroke: #0000ff; stroke-width: 1.5; stroke-linecap: square"/>
    <g clip-path="url(#p6377e3f3e6)">
     <use xlink:href="#ma23fb9517c" x="295.618697" y="867.693815" style="fill: #0000ff; stroke: #0000ff"/>
    </g>
   </g>
   <g id="line2d_93">
    <path d="M 1324.585984 441.384608 
" clip-path="url(#p6377e3f3e6)" style="fill: none; stroke: #0000ff; stroke-width: 1.5; stroke-linecap: square"/>
    <g clip-path="url(#p6377e3f3e6)">
     <use xlink:href="#ma23fb9517c" x="1324.585984" y="441.384608" style="fill: #0000ff; stroke: #0000ff"/>
    </g>
   </g>
   <g id="line2d_94">
    <path d="M 607.669284 627.866827 
" clip-path="url(#p6377e3f3e6)" style="fill: none; stroke: #0000ff; stroke-width: 1.5; stroke-linecap: square"/>
    <g clip-path="url(#p6377e3f3e6)">
     <use xlink:href="#ma23fb9517c" x="607.669284" y="627.866827" style="fill: #0000ff; stroke: #0000ff"/>
    </g>
   </g>
   <g id="line2d_95">
    <path d="M 1132.532584 102.866267 
" clip-path="url(#p6377e3f3e6)" style="fill: none; stroke: #ff0000; stroke-width: 1.5; stroke-linecap: square"/>
    <defs>
     <path id="mf502d17bd2" d="M 0 -10 
L -2.24514 -3.09017 
L -9.510565 -3.09017 
L -3.632713 1.18034 
L -5.877853 8.09017 
L -0 3.81966 
L 5.877853 8.09017 
L 3.632713 1.18034 
L 9.510565 -3.09017 
L 2.24514 -3.09017 
z
" style="stroke: #ff0000; stroke-linejoin: bevel"/>
    </defs>
    <g clip-path="url(#p6377e3f3e6)">
     <use xlink:href="#mf502d17bd2" x="1132.532584" y="102.866267" style="fill: #ff0000; stroke: #ff0000; stroke-linejoin: bevel"/>
    </g>
   </g>
   <g id="line2d_96">
    <path d="M 265.576566 903.901522 
" clip-path="url(#p6377e3f3e6)" style="fill: none; stroke: #ff0000; stroke-width: 1.5; stroke-linecap: square"/>
    <g clip-path="url(#p6377e3f3e6)">
     <use xlink:href="#mf502d17bd2" x="265.576566" y="903.901522" style="fill: #ff0000; stroke: #ff0000; stroke-linejoin: bevel"/>
    </g>
   </g>
   <g id="line2d_97">
    <path d="M 270.238232 723.728855 
" clip-path="url(#p6377e3f3e6)" style="fill: none; stroke: #ff0000; stroke-width: 1.5; stroke-linecap: square"/>
    <g clip-path="url(#p6377e3f3e6)">
     <use xlink:href="#mf502d17bd2" x="270.238232" y="723.728855" style="fill: #ff0000; stroke: #ff0000; stroke-linejoin: bevel"/>
    </g>
   </g>
   <g id="line2d_98">
    <path d="M 738.907476 332.983242 
" clip-path="url(#p6377e3f3e6)" style="fill: none; stroke: #ff0000; stroke-width: 1.5; stroke-linecap: square"/>
    <g clip-path="url(#p6377e3f3e6)">
     <use xlink:href="#mf502d17bd2" x="738.907476" y="332.983242" style="fill: #ff0000; stroke: #ff0000; stroke-linejoin: bevel"/>
    </g>
   </g>
   <g id="line2d_99">
    <path d="M 650.322308 591.457954 
" clip-path="url(#p6377e3f3e6)" style="fill: none; stroke: #ff0000; stroke-width: 1.5; stroke-linecap: square"/>
    <g clip-path="url(#p6377e3f3e6)">
     <use xlink:href="#mf502d17bd2" x="650.322308" y="591.457954" style="fill: #ff0000; stroke: #ff0000; stroke-linejoin: bevel"/>
    </g>
   </g>
   <g id="line2d_100">
    <path d="M 1336.283618 445.855047 
" clip-path="url(#p6377e3f3e6)" style="fill: none; stroke: #ff0000; stroke-width: 1.5; stroke-linecap: square"/>
    <g clip-path="url(#p6377e3f3e6)">
     <use xlink:href="#mf502d17bd2" x="1336.283618" y="445.855047" style="fill: #ff0000; stroke: #ff0000; stroke-linejoin: bevel"/>
    </g>
   </g>
   <g id="line2d_101">
    <path d="M 929.52853 360.841347 
" clip-path="url(#p6377e3f3e6)" style="fill: none; stroke: #ff0000; stroke-width: 1.5; stroke-linecap: square"/>
    <g clip-path="url(#p6377e3f3e6)">
     <use xlink:href="#mf502d17bd2" x="929.52853" y="360.841347" style="fill: #ff0000; stroke: #ff0000; stroke-linejoin: bevel"/>
    </g>
   </g>
  </g>
 </g>
 <defs>
  <clipPath id="p6377e3f3e6">
   <rect x="0" y="0" width="1440" height="1440"/>
  </clipPath>
 </defs>
</svg>
