<?xml version="1.0" encoding="utf-8" standalone="no"?>
<!DOCTYPE svg PUBLIC "-//W3C//DTD SVG 1.1//EN"
  "http://www.w3.org/Graphics/SVG/1.1/DTD/svg11.dtd">
<svg xmlns:xlink="http://www.w3.org/1999/xlink" width="1440pt" height="1440pt" viewBox="0 0 1440 1440" xmlns="http://www.w3.org/2000/svg" version="1.1">
 <metadata>
  <rdf:RDF xmlns:dc="http://purl.org/dc/elements/1.1/" xmlns:cc="http://creativecommons.org/ns#" xmlns:rdf="http://www.w3.org/1999/02/22-rdf-syntax-ns#">
   <cc:Work>
    <dc:type rdf:resource="http://purl.org/dc/dcmitype/StillImage"/>
    <dc:date>2026-02-27T11:05:05.163685</dc:date>
    <dc:format>image/svg+xml</dc:format>
    <dc:creator>
     <cc:Agent>
      <dc:title>Matplotlib v3.7.3, https://matplotlib.org/</dc:title>
     </cc:Agent>
    </dc:creator>
   </cc:Work>
  </rdf:RDF>
 </metadata>
 <defs>
  <style type="text/css">*{stroke-linejoin: round; stroke-linecap: butt}</style>
 </defs>
 <g id="figure_1">
  <g id="patch_1">
   <path d="M 0 1440 
L 1440 1440 
L 1440 0 
L 0 0 
z
" style="fill: #ffffff"/>
  </g>
  <g id="axes_1">
   <g id="line2d_1">
    <path d="M 204.459475 442.710311 
L 186.588418 519.837492 
" clip-path="url(#pc5f07681b4)" style="fill: none; stroke: #7a7a7a; stroke-width: 3; stroke-linecap: square"/>
   </g>
   <g id="line2d_2">
    <path d="M 170.309832 442.710311 
L 155.092892 505.97324 
" clip-path="url(#pc5f07681b4)" style="fill: none; stroke: #7a7a7a; stroke-width: 3; stroke-linecap: square"/>
   </g>
   <g id="line2d_3">
    <path d="M 1211.343125 197.814035 
L 1202.761479 231.83388 
L 1196.568539 253.154535 
L 1186.836775 275.873267 
L 1179.316776 284.494734 
L 1166.577013 287.057873 
L 1151.537014 283.096658 
L 1130.834899 276.339292 
L 1115.352548 270.980002 
" clip-path="url(#pc5f07681b4)" style="fill: none; stroke: #7a7a7a; stroke-width: 3; stroke-linecap: square"/>
   </g>
   <g id="line2d_4">
    <path d="M 1190.906422 191.173175 
L 1188.075363 203.639351 
L 1184.094187 220.416261 
L 1182.324776 225.426032 
L 1180.201482 229.503753 
L 1178.166658 232.882436 
L 1173.74313 236.727145 
L 1165.603836 242.202942 
L 1160.207131 244.649574 
L 1157.110661 245.348612 
L 1156.491367 245.465119 
L 1151.537014 245.581625 
L 1148.705956 245.1156 
L 1144.459368 244.300055 
L 1139.505016 242.90198 
L 1124.288076 236.727145 
" clip-path="url(#pc5f07681b4)" style="fill: none; stroke: #7a7a7a; stroke-width: 3; stroke-linecap: square"/>
   </g>
   <g id="line2d_5">
    <path d="M 1256.37465 217.969628 
L 1168.169483 590.440319 
" clip-path="url(#pc5f07681b4)" style="fill: none; stroke: #7a7a7a; stroke-width: 3; stroke-linecap: square"/>
   </g>
   <g id="line2d_6">
    <path d="M 1224.879124 205.27044 
L 1137.735604 578.323662 
" clip-path="url(#pc5f07681b4)" style="fill: none; stroke: #7a7a7a; stroke-width: 3; stroke-linecap: square"/>
   </g>
   <g id="line2d_7">
    <path d="M 1090.049963 382.01052 
L 1331.751582 482.555471 
" clip-path="url(#pc5f07681b4)" style="fill: none; stroke: #7a7a7a; stroke-width: 3; stroke-linecap: square"/>
   </g>
   <g id="line2d_8">
    <path d="M 1082.618434 413.583732 
L 1323.435348 513.313138 
" clip-path="url(#pc5f07681b4)" style="fill: none; stroke: #7a7a7a; stroke-width: 3; stroke-linecap: square"/>
   </g>
   <g id="line2d_9">
    <path d="M 211.448651 530.439567 
L 233.212413 442.710311 
" clip-path="url(#pc5f07681b4)" style="fill: none; stroke: #7a7a7a; stroke-width: 3; stroke-linecap: square"/>
   </g>
   <g id="line2d_10">
    <path d="M 234.27406 540.575616 
L 258.338057 448.768639 
L 259.930528 442.710311 
" clip-path="url(#pc5f07681b4)" style="fill: none; stroke: #7a7a7a; stroke-width: 3; stroke-linecap: square"/>
   </g>
   <g id="line2d_11">
    <path d="M 1115.352548 270.980002 
L 797.477761 141.191966 
L 797.123878 141.07546 
" clip-path="url(#pc5f07681b4)" style="fill: none; stroke: #7a7a7a; stroke-width: 3; stroke-linecap: square"/>
   </g>
   <g id="line2d_12">
    <path d="M 1124.288076 236.727145 
L 797.566231 102.395363 
L 797.123878 102.278857 
" clip-path="url(#pc5f07681b4)" style="fill: none; stroke: #7a7a7a; stroke-width: 3; stroke-linecap: square"/>
   </g>
   <g id="line2d_13">
    <path d="M 1074.656082 447.48707 
L 1314.057467 548.03202 
" clip-path="url(#pc5f07681b4)" style="fill: none; stroke: #7a7a7a; stroke-width: 3; stroke-linecap: square"/>
   </g>
   <g id="line2d_14">
    <path d="M 1065.720554 485.701141 
L 1304.856526 582.051865 
" clip-path="url(#pc5f07681b4)" style="fill: none; stroke: #7a7a7a; stroke-width: 3; stroke-linecap: square"/>
   </g>
   <g id="line2d_15">
    <path d="M 186.588418 519.837492 
L 204.459475 442.710311 
" clip-path="url(#pc5f07681b4)" style="fill: none; stroke: #7a7a7a; stroke-width: 3; stroke-linecap: square"/>
   </g>
   <g id="line2d_16">
    <path d="M 211.448651 530.439567 
L 233.212413 442.710311 
" clip-path="url(#pc5f07681b4)" style="fill: none; stroke: #7a7a7a; stroke-width: 3; stroke-linecap: square"/>
   </g>
   <g id="line2d_17">
    <path d="M 1350.861227 401.816594 
L 1106.328549 305.349365 
" clip-path="url(#pc5f07681b4)" style="fill: none; stroke: #7a7a7a; stroke-width: 3; stroke-linecap: square"/>
   </g>
   <g id="line2d_18">
    <path d="M 1358.735109 370.243383 
L 1115.352548 270.980002 
" clip-path="url(#pc5f07681b4)" style="fill: none; stroke: #7a7a7a; stroke-width: 3; stroke-linecap: square"/>
   </g>
   <g id="line2d_19">
    <path d="M 1284.419823 229.387247 
L 1196.480068 601.741432 
" clip-path="url(#pc5f07681b4)" style="fill: none; stroke: #7a7a7a; stroke-width: 3; stroke-linecap: square"/>
   </g>
   <g id="line2d_20">
    <path d="M 1256.37465 217.969628 
L 1168.169483 590.440319 
" clip-path="url(#pc5f07681b4)" style="fill: none; stroke: #7a7a7a; stroke-width: 3; stroke-linecap: square"/>
   </g>
   <g id="line2d_21">
    <path d="M 1330.955347 248.028257 
L 1327.681936 260.144914 
L 1324.408524 274.82471 
L 1324.231583 276.688811 
L 1243.900298 620.731961 
" clip-path="url(#pc5f07681b4)" style="fill: none; stroke: #7a7a7a; stroke-width: 3; stroke-linecap: square"/>
   </g>
   <g id="line2d_22">
    <path d="M 1284.419823 229.387247 
L 1196.480068 601.741432 
" clip-path="url(#pc5f07681b4)" style="fill: none; stroke: #7a7a7a; stroke-width: 3; stroke-linecap: square"/>
   </g>
   <g id="line2d_23">
    <path d="M 797.123878 263.873116 
L 1087.484316 381.311483 
L 1090.049963 382.01052 
" clip-path="url(#pc5f07681b4)" style="fill: none; stroke: #7a7a7a; stroke-width: 3; stroke-linecap: square"/>
   </g>
   <g id="line2d_24">
    <path d="M 797.123878 297.776454 
L 1082.618434 413.583732 
" clip-path="url(#pc5f07681b4)" style="fill: none; stroke: #7a7a7a; stroke-width: 3; stroke-linecap: square"/>
   </g>
   <g id="line2d_25">
    <path clip-path="url(#pc5f07681b4)" style="fill: none; stroke: #7a7a7a; stroke-width: 3; stroke-linecap: square"/>
   </g>
   <g id="line2d_26">
    <path clip-path="url(#pc5f07681b4)" style="fill: none; stroke: #7a7a7a; stroke-width: 3; stroke-linecap: square"/>
   </g>
   <g id="line2d_27">
    <path d="M 1168.169483 590.440319 
L 1063.066436 1035.843964 
L 1037.233027 1138.486028 
L 1036.967616 1139.884104 
L 1036.790675 1140.233623 
L 1036.613733 1141.165674 
L 1036.436792 1141.748205 
" clip-path="url(#pc5f07681b4)" style="fill: none; stroke: #7a7a7a; stroke-width: 3; stroke-linecap: square"/>
   </g>
   <g id="line2d_28">
    <path d="M 1137.735604 578.323662 
L 1004.498913 1138.486028 
L 1004.145031 1139.767598 
L 1004.056561 1140.233623 
L 1003.879619 1141.165674 
L 1003.702678 1141.748205 
" clip-path="url(#pc5f07681b4)" style="fill: none; stroke: #7a7a7a; stroke-width: 3; stroke-linecap: square"/>
   </g>
   <g id="line2d_29">
    <path d="M 1074.656082 447.48707 
L 1117.298901 464.846511 
L 1132.958193 474.749548 
L 1146.494191 488.730306 
L 1157.464543 505.856734 
L 1165.515366 525.429795 
L 1170.292777 546.517438 
L 1171.265953 568.537132 
L 1168.169483 590.440319 
" clip-path="url(#pc5f07681b4)" style="fill: none; stroke: #7a7a7a; stroke-width: 3; stroke-linecap: square"/>
   </g>
   <g id="line2d_30">
    <path d="M 1065.720554 485.701141 
L 1108.363372 503.060582 
L 1120.041489 509.118911 
L 1129.596311 522.75015 
L 1136.408546 540.808629 
L 1139.416545 560.38169 
L 1137.735604 578.323662 
" clip-path="url(#pc5f07681b4)" style="fill: none; stroke: #7a7a7a; stroke-width: 3; stroke-linecap: square"/>
   </g>
   <g id="line2d_31">
    <path d="M 797.123878 297.776454 
L 1082.618434 413.583732 
" clip-path="url(#pc5f07681b4)" style="fill: none; stroke: #7a7a7a; stroke-width: 3; stroke-linecap: square"/>
   </g>
   <g id="line2d_32">
    <path d="M 797.123878 336.573057 
L 1074.656082 447.48707 
" clip-path="url(#pc5f07681b4)" style="fill: none; stroke: #7a7a7a; stroke-width: 3; stroke-linecap: square"/>
   </g>
   <g id="line2d_33">
    <path d="M 1137.735604 578.323662 
L 1004.498913 1138.486028 
L 1004.145031 1139.767598 
L 1004.056561 1140.233623 
L 1003.879619 1141.165674 
L 1003.702678 1141.748205 
" clip-path="url(#pc5f07681b4)" style="fill: none; stroke: #7a7a7a; stroke-width: 3; stroke-linecap: square"/>
   </g>
   <g id="line2d_34">
    <path d="M 1122.341724 572.148828 
L 1083.50314 735.607189 
L 987.15868 1138.486028 
L 986.893268 1139.767598 
L 986.716327 1140.233623 
L 986.539386 1141.049167 
L 986.362445 1141.748205 
" clip-path="url(#pc5f07681b4)" style="fill: none; stroke: #7a7a7a; stroke-width: 3; stroke-linecap: square"/>
   </g>
   <g id="line2d_35">
    <path d="M 745.103178 157.036825 
L 538.78979 71.288177 
" clip-path="url(#pc5f07681b4)" style="fill: none; stroke: #7a7a7a; stroke-width: 3; stroke-linecap: square"/>
   </g>
   <g id="line2d_36">
    <path d="M 751.030707 122.900474 
L 547.636848 38.549902 
" clip-path="url(#pc5f07681b4)" style="fill: none; stroke: #7a7a7a; stroke-width: 3; stroke-linecap: square"/>
   </g>
   <g id="line2d_37">
    <path clip-path="url(#pc5f07681b4)" style="fill: none; stroke: #7a7a7a; stroke-width: 3; stroke-linecap: square"/>
   </g>
   <g id="line2d_38">
    <path clip-path="url(#pc5f07681b4)" style="fill: none; stroke: #7a7a7a; stroke-width: 3; stroke-linecap: square"/>
   </g>
   <g id="line2d_39">
    <path d="M 1243.900298 620.731961 
L 1234.522417 659.295552 
L 1185.598187 863.997148 
L 1164.984542 951.842911 
L 1120.749253 1138.486028 
L 1120.395371 1140.00061 
L 1120.3069 1140.233623 
L 1120.129959 1141.28218 
L 1120.041489 1141.748205 
" clip-path="url(#pc5f07681b4)" style="fill: none; stroke: #7a7a7a; stroke-width: 3; stroke-linecap: square"/>
   </g>
   <g id="line2d_40">
    <path d="M 1196.480068 601.741432 
L 1069.524788 1138.486028 
L 1069.170906 1139.884104 
L 1069.082436 1140.233623 
L 1068.817024 1141.28218 
L 1068.728553 1141.748205 
" clip-path="url(#pc5f07681b4)" style="fill: none; stroke: #7a7a7a; stroke-width: 3; stroke-linecap: square"/>
   </g>
   <g id="line2d_41">
    <path d="M 1252.216532 93.191364 
L 1224.879124 205.27044 
" clip-path="url(#pc5f07681b4)" style="fill: none; stroke: #7a7a7a; stroke-width: 3; stroke-linecap: square"/>
   </g>
   <g id="line2d_42">
    <path d="M 1235.584064 93.191364 
L 1211.431596 197.814035 
" clip-path="url(#pc5f07681b4)" style="fill: none; stroke: #7a7a7a; stroke-width: 3; stroke-linecap: square"/>
   </g>
   <g id="line2d_43">
    <path d="M 1196.480068 601.741432 
L 1069.524788 1138.486028 
L 1069.170906 1139.884104 
L 1069.082436 1140.233623 
L 1068.817024 1141.28218 
L 1068.728553 1141.748205 
" clip-path="url(#pc5f07681b4)" style="fill: none; stroke: #7a7a7a; stroke-width: 3; stroke-linecap: square"/>
   </g>
   <g id="line2d_44">
    <path d="M 1168.169483 590.440319 
L 1063.066436 1035.843964 
L 1037.233027 1138.486028 
L 1036.967616 1139.884104 
L 1036.790675 1140.233623 
L 1036.613733 1141.165674 
L 1036.436792 1141.748205 
" clip-path="url(#pc5f07681b4)" style="fill: none; stroke: #7a7a7a; stroke-width: 3; stroke-linecap: square"/>
   </g>
   <g id="line2d_45">
    <path d="M 518.795439 101.812831 
L 422.097097 59.987064 
" clip-path="url(#pc5f07681b4)" style="fill: none; stroke: #7a7a7a; stroke-width: 3; stroke-linecap: square"/>
   </g>
   <g id="line2d_46">
    <path d="M 538.78979 71.288177 
L 434.571449 27.598308 
" clip-path="url(#pc5f07681b4)" style="fill: none; stroke: #7a7a7a; stroke-width: 3; stroke-linecap: square"/>
   </g>
   <g id="line2d_47">
    <path d="M 1342.987346 433.855831 
L 1098.012315 337.155589 
" clip-path="url(#pc5f07681b4)" style="fill: none; stroke: #7a7a7a; stroke-width: 3; stroke-linecap: square"/>
   </g>
   <g id="line2d_48">
    <path d="M 1350.861227 401.816594 
L 1106.328549 305.349365 
" clip-path="url(#pc5f07681b4)" style="fill: none; stroke: #7a7a7a; stroke-width: 3; stroke-linecap: square"/>
   </g>
   <g id="line2d_49">
    <path d="M 1106.328549 305.349365 
L 797.477761 177.891455 
L 797.123878 177.774949 
" clip-path="url(#pc5f07681b4)" style="fill: none; stroke: #7a7a7a; stroke-width: 3; stroke-linecap: square"/>
   </g>
   <g id="line2d_50">
    <path d="M 1115.352548 270.980002 
L 797.477761 141.191966 
L 797.123878 141.07546 
" clip-path="url(#pc5f07681b4)" style="fill: none; stroke: #7a7a7a; stroke-width: 3; stroke-linecap: square"/>
   </g>
   <g id="line2d_51">
    <path d="M 1333.344053 472.76894 
L 1313.880525 464.730005 
L 1297.336527 460.652284 
L 1280.350176 459.48722 
L 1263.009943 460.885296 
L 1245.66971 464.730005 
L 1228.683359 470.788333 
L 1212.316302 478.943775 
L 1196.74548 489.079825 
L 1182.324776 500.846962 
L 1169.408071 514.128682 
L 1158.172308 528.691972 
L 1148.971368 544.303818 
L 1142.070663 560.964221 
L 1137.735604 578.323662 
" clip-path="url(#pc5f07681b4)" style="fill: none; stroke: #7a7a7a; stroke-width: 3; stroke-linecap: square"/>
   </g>
   <g id="line2d_52">
    <path d="M 1342.987346 433.855831 
L 1323.523818 425.816895 
L 1307.952997 421.156643 
L 1291.851351 419.176035 
L 1275.218883 419.758567 
L 1258.409473 422.904237 
L 1241.600063 428.147022 
L 1224.967594 435.603426 
L 1208.865949 445.040437 
L 1193.383598 456.225044 
L 1178.785952 469.157245 
L 1165.338425 483.487521 
L 1153.129485 499.215874 
L 1142.601486 516.10929 
L 1133.754428 533.934756 
L 1126.942194 552.692273 
L 1122.341724 572.148828 
" clip-path="url(#pc5f07681b4)" style="fill: none; stroke: #7a7a7a; stroke-width: 3; stroke-linecap: square"/>
   </g>
   <g id="line2d_53">
    <path d="M 422.097097 59.987064 
L 275.00078 -1 
" clip-path="url(#pc5f07681b4)" style="fill: none; stroke: #7a7a7a; stroke-width: 3; stroke-linecap: square"/>
   </g>
   <g id="line2d_54">
    <path d="M 434.571449 27.598308 
L 360.598783 -1 
" clip-path="url(#pc5f07681b4)" style="fill: none; stroke: #7a7a7a; stroke-width: 3; stroke-linecap: square"/>
   </g>
   <g id="line2d_55">
    <path d="M 1358.735109 370.243383 
L 1115.352548 270.980002 
" clip-path="url(#pc5f07681b4)" style="fill: none; stroke: #7a7a7a; stroke-width: 3; stroke-linecap: square"/>
   </g>
   <g id="line2d_56">
    <path d="M 1367.493696 334.708956 
L 1140.655133 243.251499 
L 1139.505016 242.90198 
L 1124.288076 236.727145 
" clip-path="url(#pc5f07681b4)" style="fill: none; stroke: #7a7a7a; stroke-width: 3; stroke-linecap: square"/>
   </g>
   <g id="line2d_57">
    <path d="M 538.78979 71.288177 
L 434.571449 27.598308 
" clip-path="url(#pc5f07681b4)" style="fill: none; stroke: #7a7a7a; stroke-width: 3; stroke-linecap: square"/>
   </g>
   <g id="line2d_58">
    <path d="M 547.636848 38.549902 
L 447.644494 -1 
" clip-path="url(#pc5f07681b4)" style="fill: none; stroke: #7a7a7a; stroke-width: 3; stroke-linecap: square"/>
   </g>
   <g id="line2d_59">
    <path d="M 0.888675 13.734057 
L 1.419498 13.967069 
L 175.618067 84.45339 
" clip-path="url(#pc5f07681b4)" style="fill: none; stroke: #7a7a7a; stroke-width: 3; stroke-linecap: square"/>
   </g>
   <g id="line2d_60">
    <path d="M 0.888675 52.53066 
L 1.419498 52.763672 
L 169.867479 119.405285 
" clip-path="url(#pc5f07681b4)" style="fill: none; stroke: #7a7a7a; stroke-width: 3; stroke-linecap: square"/>
   </g>
   <g id="line2d_61">
    <path d="M 1224.879124 205.27044 
L 1137.735604 578.323662 
" clip-path="url(#pc5f07681b4)" style="fill: none; stroke: #7a7a7a; stroke-width: 3; stroke-linecap: square"/>
   </g>
   <g id="line2d_62">
    <path d="M 1211.431596 197.814035 
L 1122.341724 572.148828 
" clip-path="url(#pc5f07681b4)" style="fill: none; stroke: #7a7a7a; stroke-width: 3; stroke-linecap: square"/>
   </g>
   <g id="line2d_63">
    <path d="M 1333.344053 472.76894 
L 1327.062642 470.205801 
L 1324.673936 470.322308 
L 1319.454172 468.924232 
L 1306.360526 471.370865 
L 1294.151586 479.4098 
L 1283.181235 492.108989 
L 1273.714883 508.769392 
L 1266.106413 528.691972 
L 1243.900298 620.731961 
" clip-path="url(#pc5f07681b4)" style="fill: none; stroke: #7a7a7a; stroke-width: 3; stroke-linecap: square"/>
   </g>
   <g id="line2d_64">
    <path d="M 1342.987346 433.855831 
L 1324.496995 428.263528 
L 1306.272056 427.214971 
L 1288.57794 430.244135 
L 1272.033942 437.001502 
L 1256.817002 446.904538 
L 1243.457945 459.48722 
L 1232.310652 474.516535 
L 1223.905947 491.409951 
L 1218.597713 509.701442 
L 1196.480068 601.741432 
" clip-path="url(#pc5f07681b4)" style="fill: none; stroke: #7a7a7a; stroke-width: 3; stroke-linecap: square"/>
   </g>
   <g id="line2d_65">
    <path d="M 339.592276 -1 
L 342.827459 13.61755 
L 349.728164 35.054712 
L 358.22134 54.394761 
L 368.218515 71.521189 
L 379.454279 86.200985 
L 391.751689 98.201135 
L 402.368158 105.424527 
L 403.783688 107.172122 
L 418.912157 113.23045 
" clip-path="url(#pc5f07681b4)" style="fill: none; stroke: #7a7a7a; stroke-width: 3; stroke-linecap: square"/>
   </g>
   <g id="line2d_66">
    <path d="M 292.579835 -1 
L 298.061347 14.89912 
L 306.377581 34.472181 
L 315.932404 53.229698 
L 326.814285 70.705645 
L 338.757813 87.016529 
L 351.674517 101.696325 
L 365.564398 114.628526 
L 380.338984 125.58012 
L 395.909806 134.4346 
L 412.188393 140.958953 
" clip-path="url(#pc5f07681b4)" style="fill: none; stroke: #7a7a7a; stroke-width: 3; stroke-linecap: square"/>
   </g>
   <g id="line2d_67">
    <path d="M 1098.012315 337.155589 
L 1094.915844 335.291488 
L 797.477761 214.707451 
L 797.123878 214.590945 
" clip-path="url(#pc5f07681b4)" style="fill: none; stroke: #7a7a7a; stroke-width: 3; stroke-linecap: square"/>
   </g>
   <g id="line2d_68">
    <path d="M 1106.328549 305.349365 
L 797.477761 177.891455 
L 797.123878 177.774949 
" clip-path="url(#pc5f07681b4)" style="fill: none; stroke: #7a7a7a; stroke-width: 3; stroke-linecap: square"/>
   </g>
   <g id="line2d_69">
    <path d="M 410.33051 93.424377 
L 396.706041 87.482554 
L 380.515926 81.890251 
L 364.41428 80.492176 
L 346.985576 83.171821 
L 329.556873 89.113643 
L 312.747463 97.851617 
L 296.9997 109.385742 
L 283.021348 123.3665 
L 273.289585 145.386193 
L 260.992174 198.047048 
L 257.453351 219.833729 
" clip-path="url(#pc5f07681b4)" style="fill: none; stroke: #7a7a7a; stroke-width: 3; stroke-linecap: square"/>
   </g>
   <g id="line2d_70">
    <path d="M 422.097097 59.987064 
L 390.866983 47.171369 
L 373.792162 41.46256 
L 358.840634 40.414003 
L 342.031224 43.559673 
L 325.398755 49.384989 
L 309.20864 57.773444 
L 293.814759 68.492025 
L 279.394055 81.424226 
L 266.300409 96.220528 
L 254.799234 112.647919 
L 245.244412 130.589891 
L 237.901354 149.696927 
L 233.035472 169.969026 
L 225.250061 214.707451 
" clip-path="url(#pc5f07681b4)" style="fill: none; stroke: #7a7a7a; stroke-width: 3; stroke-linecap: square"/>
   </g>
   <g id="line2d_71">
    <path d="M 1082.618434 413.583732 
L 1323.435348 513.313138 
" clip-path="url(#pc5f07681b4)" style="fill: none; stroke: #7a7a7a; stroke-width: 3; stroke-linecap: square"/>
   </g>
   <g id="line2d_72">
    <path d="M 1074.656082 447.48707 
L 1314.057467 548.03202 
" clip-path="url(#pc5f07681b4)" style="fill: none; stroke: #7a7a7a; stroke-width: 3; stroke-linecap: square"/>
   </g>
   <g id="line2d_73">
    <path d="M 547.636848 38.549902 
L 447.644494 -1 
" clip-path="url(#pc5f07681b4)" style="fill: none; stroke: #7a7a7a; stroke-width: 3; stroke-linecap: square"/>
   </g>
   <g id="line2d_74">
    <path d="M 557.810964 6.161146 
L 539.814075 -1 
" clip-path="url(#pc5f07681b4)" style="fill: none; stroke: #7a7a7a; stroke-width: 3; stroke-linecap: square"/>
   </g>
   <g id="line2d_75">
    <path d="M 188.711712 12.918512 
L 403.075923 106.356578 
L 403.783688 107.172122 
L 418.912157 113.23045 
" clip-path="url(#pc5f07681b4)" style="fill: none; stroke: #7a7a7a; stroke-width: 3; stroke-linecap: square"/>
   </g>
   <g id="line2d_76">
    <path d="M 182.695713 48.452939 
L 412.188393 140.958953 
" clip-path="url(#pc5f07681b4)" style="fill: none; stroke: #7a7a7a; stroke-width: 3; stroke-linecap: square"/>
   </g>
   <g id="line2d_77">
    <path clip-path="url(#pc5f07681b4)" style="fill: none; stroke: #7a7a7a; stroke-width: 3; stroke-linecap: square"/>
   </g>
   <g id="line2d_78">
    <path clip-path="url(#pc5f07681b4)" style="fill: none; stroke: #7a7a7a; stroke-width: 3; stroke-linecap: square"/>
   </g>
   <g id="line2d_79">
    <path d="M 59.915658 -1 
L 182.695713 48.452939 
" clip-path="url(#pc5f07681b4)" style="fill: none; stroke: #7a7a7a; stroke-width: 3; stroke-linecap: square"/>
   </g>
   <g id="line2d_80">
    <path d="M 0.888675 13.734057 
L 1.419498 13.967069 
L 175.618067 84.45339 
" clip-path="url(#pc5f07681b4)" style="fill: none; stroke: #7a7a7a; stroke-width: 3; stroke-linecap: square"/>
   </g>
   <g id="line2d_81">
    <path d="M 204.459475 442.710311 
L 204.990299 440.729704 
L 257.453351 219.833729 
" clip-path="url(#pc5f07681b4)" style="fill: none; stroke: #7a7a7a; stroke-width: 3; stroke-linecap: square"/>
   </g>
   <g id="line2d_82">
    <path d="M 233.212413 442.710311 
L 233.654766 440.729704 
L 282.578996 230.785323 
" clip-path="url(#pc5f07681b4)" style="fill: none; stroke: #7a7a7a; stroke-width: 3; stroke-linecap: square"/>
   </g>
   <g id="line2d_83">
    <path d="M 742.802943 193.852821 
L 713.430711 185.114847 
L 687.685773 178.823506 
L 674.238245 176.260367 
L 515.168146 135.250144 
" clip-path="url(#pc5f07681b4)" style="fill: none; stroke: #7a7a7a; stroke-width: 3; stroke-linecap: square"/>
   </g>
   <g id="line2d_84">
    <path d="M 745.103178 157.036825 
L 518.795439 101.812831 
" clip-path="url(#pc5f07681b4)" style="fill: none; stroke: #7a7a7a; stroke-width: 3; stroke-linecap: square"/>
   </g>
   <g id="line2d_85">
    <path clip-path="url(#pc5f07681b4)" style="fill: none; stroke: #7a7a7a; stroke-width: 3; stroke-linecap: square"/>
   </g>
   <g id="line2d_86">
    <path d="M 188.711712 12.918512 
L 213.041121 20.724436 
L 235.955001 26.083726 
L 257.364881 29.229397 
L 277.18229 29.928434 
L 295.4957 28.530359 
L 312.30511 24.802157 
L 327.61052 19.093347 
L 341.41193 11.170918 
L 353.62087 1.267881 
L 355.68069 -1 
" clip-path="url(#pc5f07681b4)" style="fill: none; stroke: #7a7a7a; stroke-width: 3; stroke-linecap: square"/>
   </g>
   <g id="line2d_87">
    <path d="M 153.569529 -1 
L 188.711712 12.918512 
" clip-path="url(#pc5f07681b4)" style="fill: none; stroke: #7a7a7a; stroke-width: 3; stroke-linecap: square"/>
   </g>
   <g id="line2d_88">
    <path d="M 59.915658 -1 
L 182.695713 48.452939 
" clip-path="url(#pc5f07681b4)" style="fill: none; stroke: #7a7a7a; stroke-width: 3; stroke-linecap: square"/>
   </g>
   <g id="line2d_89">
    <path d="M 797.123878 336.573057 
L 1074.656082 447.48707 
" clip-path="url(#pc5f07681b4)" style="fill: none; stroke: #7a7a7a; stroke-width: 3; stroke-linecap: square"/>
   </g>
   <g id="line2d_90">
    <path d="M 797.123878 375.835686 
L 1065.720554 485.701141 
" clip-path="url(#pc5f07681b4)" style="fill: none; stroke: #7a7a7a; stroke-width: 3; stroke-linecap: square"/>
   </g>
   <g id="line2d_91">
    <path clip-path="url(#pc5f07681b4)" style="fill: none; stroke: #7a7a7a; stroke-width: 3; stroke-linecap: square"/>
   </g>
   <g id="line2d_92">
    <path clip-path="url(#pc5f07681b4)" style="fill: none; stroke: #7a7a7a; stroke-width: 3; stroke-linecap: square"/>
   </g>
   <g id="line2d_93">
    <path d="M 257.453351 219.833729 
L 314.776201 -1 
" clip-path="url(#pc5f07681b4)" style="fill: none; stroke: #7a7a7a; stroke-width: 3; stroke-linecap: square"/>
   </g>
   <g id="line2d_94">
    <path d="M 282.578996 230.785323 
L 289.037348 194.318846 
L 354.13499 -1 
" clip-path="url(#pc5f07681b4)" style="fill: none; stroke: #7a7a7a; stroke-width: 3; stroke-linecap: square"/>
   </g>
   <g id="line2d_95">
    <path d="M 182.695713 48.452939 
L 412.188393 140.958953 
" clip-path="url(#pc5f07681b4)" style="fill: none; stroke: #7a7a7a; stroke-width: 3; stroke-linecap: square"/>
   </g>
   <g id="line2d_96">
    <path d="M 175.618067 84.45339 
L 402.191217 176.260367 
" clip-path="url(#pc5f07681b4)" style="fill: none; stroke: #7a7a7a; stroke-width: 3; stroke-linecap: square"/>
   </g>
   <g id="line2d_97">
    <path d="M 434.571449 27.598308 
L 360.598783 -1 
" clip-path="url(#pc5f07681b4)" style="fill: none; stroke: #7a7a7a; stroke-width: 3; stroke-linecap: square"/>
   </g>
   <g id="line2d_98">
    <path clip-path="url(#pc5f07681b4)" style="fill: none; stroke: #7a7a7a; stroke-width: 3; stroke-linecap: square"/>
   </g>
   <g id="line2d_99">
    <path d="M 257.453351 219.833729 
L 204.990299 440.729704 
L 204.459475 442.710311 
" clip-path="url(#pc5f07681b4)" style="fill: none; stroke: #7a7a7a; stroke-width: 3; stroke-linecap: square"/>
   </g>
   <g id="line2d_100">
    <path d="M 225.250061 214.707451 
L 171.106067 439.448134 
L 170.929126 440.380185 
L 170.840655 440.729704 
L 170.309832 442.710311 
" clip-path="url(#pc5f07681b4)" style="fill: none; stroke: #7a7a7a; stroke-width: 3; stroke-linecap: square"/>
   </g>
   <g id="line2d_101">
    <path d="M 797.123878 177.774949 
L 796.858467 177.658443 
L 794.469761 176.609886 
L 793.496585 176.260367 
L 793.142702 176.143861 
L 745.103178 157.036825 
" clip-path="url(#pc5f07681b4)" style="fill: none; stroke: #7a7a7a; stroke-width: 3; stroke-linecap: square"/>
   </g>
   <g id="line2d_102">
    <path d="M 797.123878 141.07546 
L 796.858467 140.958953 
L 794.558231 140.026903 
L 793.496585 139.560878 
L 793.231173 139.444371 
L 751.030707 122.900474 
" clip-path="url(#pc5f07681b4)" style="fill: none; stroke: #7a7a7a; stroke-width: 3; stroke-linecap: square"/>
   </g>
   <g id="line2d_103">
    <path d="M 175.618067 84.45339 
L 402.191217 176.260367 
" clip-path="url(#pc5f07681b4)" style="fill: none; stroke: #7a7a7a; stroke-width: 3; stroke-linecap: square"/>
   </g>
   <g id="line2d_104">
    <path d="M 169.867479 119.405285 
L 174.55642 120.686854 
L 185.703712 125.114094 
L 189.507947 127.560727 
L 391.574748 211.095755 
" clip-path="url(#pc5f07681b4)" style="fill: none; stroke: #7a7a7a; stroke-width: 3; stroke-linecap: square"/>
   </g>
   <g id="line2d_105">
    <path d="M 797.123878 141.07546 
L 796.858467 140.958953 
L 794.558231 140.026903 
L 793.496585 139.560878 
L 793.231173 139.444371 
L 751.030707 122.900474 
" clip-path="url(#pc5f07681b4)" style="fill: none; stroke: #7a7a7a; stroke-width: 3; stroke-linecap: square"/>
   </g>
   <g id="line2d_106">
    <path d="M 797.123878 102.278857 
L 796.858467 102.16235 
L 794.558231 101.2303 
L 793.585055 100.764274 
L 793.231173 100.647768 
L 759.17 87.715567 
" clip-path="url(#pc5f07681b4)" style="fill: none; stroke: #7a7a7a; stroke-width: 3; stroke-linecap: square"/>
   </g>
   <g id="line2d_107">
    <path d="M 309.913445 -1 
L 257.453351 219.833729 
" clip-path="url(#pc5f07681b4)" style="fill: none; stroke: #7a7a7a; stroke-width: 3; stroke-linecap: square"/>
   </g>
   <g id="line2d_108">
    <path d="M 262.628896 -1 
L 225.250061 214.707451 
" clip-path="url(#pc5f07681b4)" style="fill: none; stroke: #7a7a7a; stroke-width: 3; stroke-linecap: square"/>
   </g>
   <g id="line2d_109">
    <path clip-path="url(#pc5f07681b4)" style="fill: none; stroke: #7a7a7a; stroke-width: 3; stroke-linecap: square"/>
   </g>
   <g id="line2d_110">
    <path clip-path="url(#pc5f07681b4)" style="fill: none; stroke: #7a7a7a; stroke-width: 3; stroke-linecap: square"/>
   </g>
   <g id="line2d_111">
    <path d="M 402.191217 176.260367 
L 797.123878 336.573057 
" clip-path="url(#pc5f07681b4)" style="fill: none; stroke: #7a7a7a; stroke-width: 3; stroke-linecap: square"/>
   </g>
   <g id="line2d_112">
    <path d="M 391.574748 211.095755 
L 797.123878 375.835686 
" clip-path="url(#pc5f07681b4)" style="fill: none; stroke: #7a7a7a; stroke-width: 3; stroke-linecap: square"/>
   </g>
   <g id="line2d_113">
    <path d="M 1316.623113 93.191364 
L 1316.534643 93.657389 
L 1284.419823 229.387247 
" clip-path="url(#pc5f07681b4)" style="fill: none; stroke: #7a7a7a; stroke-width: 3; stroke-linecap: square"/>
   </g>
   <g id="line2d_114">
    <path d="M 1286.543117 93.191364 
L 1286.454646 93.540883 
L 1256.37465 217.969628 
" clip-path="url(#pc5f07681b4)" style="fill: none; stroke: #7a7a7a; stroke-width: 3; stroke-linecap: square"/>
   </g>
   <g id="line2d_115">
    <path d="M 1286.543117 93.191364 
L 1286.454646 93.540883 
L 1256.37465 217.969628 
" clip-path="url(#pc5f07681b4)" style="fill: none; stroke: #7a7a7a; stroke-width: 3; stroke-linecap: square"/>
   </g>
   <g id="line2d_116">
    <path d="M 1252.216532 93.191364 
L 1224.879124 205.27044 
" clip-path="url(#pc5f07681b4)" style="fill: none; stroke: #7a7a7a; stroke-width: 3; stroke-linecap: square"/>
   </g>
   <g id="line2d_117">
    <path clip-path="url(#pc5f07681b4)" style="fill: none; stroke: #7a7a7a; stroke-width: 3; stroke-linecap: square"/>
   </g>
   <g id="line2d_118">
    <path clip-path="url(#pc5f07681b4)" style="fill: none; stroke: #7a7a7a; stroke-width: 3; stroke-linecap: square"/>
   </g>
   <g id="line2d_119">
    <path clip-path="url(#pc5f07681b4)" style="fill: none; stroke: #7a7a7a; stroke-width: 3; stroke-linecap: square"/>
   </g>
   <g id="line2d_120">
    <path clip-path="url(#pc5f07681b4)" style="fill: none; stroke: #7a7a7a; stroke-width: 3; stroke-linecap: square"/>
   </g>
   <g id="line2d_121">
    <path d="M 742.802943 193.852821 
L 518.795439 101.812831 
" clip-path="url(#pc5f07681b4)" style="fill: none; stroke: #7a7a7a; stroke-width: 3; stroke-linecap: square"/>
   </g>
   <g id="line2d_122">
    <path d="M 745.103178 157.036825 
L 538.78979 71.288177 
" clip-path="url(#pc5f07681b4)" style="fill: none; stroke: #7a7a7a; stroke-width: 3; stroke-linecap: square"/>
   </g>
   <g id="line2d_123">
    <path d="M 233.212413 442.710311 
L 233.654766 440.729704 
L 282.578996 230.785323 
" clip-path="url(#pc5f07681b4)" style="fill: none; stroke: #7a7a7a; stroke-width: 3; stroke-linecap: square"/>
   </g>
   <g id="line2d_124">
    <path d="M 259.930528 442.710311 
L 260.461351 440.729704 
L 260.726763 439.681147 
L 272.139467 389.117406 
L 281.69429 347.87417 
L 302.219464 262.82456 
L 307.173816 241.387397 
" clip-path="url(#pc5f07681b4)" style="fill: none; stroke: #7a7a7a; stroke-width: 3; stroke-linecap: square"/>
   </g>
   <g id="line2d_125">
    <path d="M 1074.656082 447.48707 
L 1083.149257 450.982259 
L 1094.385021 455.526006 
L 1107.744078 463.91446 
L 1119.687606 476.963168 
L 1129.50784 493.740077 
L 1136.850898 513.313138 
L 1141.009016 534.633794 
L 1141.539839 556.653488 
L 1137.735604 578.323662 
" clip-path="url(#pc5f07681b4)" style="fill: none; stroke: #7a7a7a; stroke-width: 3; stroke-linecap: square"/>
   </g>
   <g id="line2d_126">
    <path d="M 1065.720554 485.701141 
L 1085.449493 493.740077 
L 1100.047138 502.82757 
L 1111.813725 517.274353 
L 1119.953018 535.099819 
L 1123.757253 554.090349 
L 1122.341724 572.148828 
" clip-path="url(#pc5f07681b4)" style="fill: none; stroke: #7a7a7a; stroke-width: 3; stroke-linecap: square"/>
   </g>
   <g id="line2d_127">
    <path clip-path="url(#pc5f07681b4)" style="fill: none; stroke: #7a7a7a; stroke-width: 3; stroke-linecap: square"/>
   </g>
   <g id="line2d_128">
    <path clip-path="url(#pc5f07681b4)" style="fill: none; stroke: #7a7a7a; stroke-width: 3; stroke-linecap: square"/>
   </g>
   <g id="line2d_129">
    <path d="M 418.912157 113.23045 
L 537.816614 160.99804 
L 579.751668 176.376873 
L 615.139899 190.241125 
L 619.82884 192.338239 
L 626.02178 194.551859 
L 639.646249 199.911149 
L 663.975658 210.513224 
L 797.123878 263.873116 
" clip-path="url(#pc5f07681b4)" style="fill: none; stroke: #7a7a7a; stroke-width: 3; stroke-linecap: square"/>
   </g>
   <g id="line2d_130">
    <path d="M 412.188393 140.958953 
L 797.123878 297.776454 
" clip-path="url(#pc5f07681b4)" style="fill: none; stroke: #7a7a7a; stroke-width: 3; stroke-linecap: square"/>
   </g>
   <g id="line2d_131">
    <path d="M 282.578996 230.785323 
L 290.89523 197.581023 
L 298.415229 179.755556 
L 307.70464 165.42528 
L 321.417579 156.221281 
L 340.438754 152.493079 
L 378.923455 166.823355 
L 402.191217 176.260367 
" clip-path="url(#pc5f07681b4)" style="fill: none; stroke: #7a7a7a; stroke-width: 3; stroke-linecap: square"/>
   </g>
   <g id="line2d_132">
    <path d="M 307.173816 241.387397 
L 311.154992 223.561931 
L 312.30511 221.115299 
L 315.224639 212.959856 
L 319.117344 205.503452 
L 323.363932 200.493681 
L 326.194991 197.231504 
L 331.945578 193.736314 
L 338.492401 192.571251 
L 344.950753 192.454745 
L 357.867458 196.182947 
L 368.306986 201.658744 
L 376.888632 205.153933 
L 391.574748 211.095755 
" clip-path="url(#pc5f07681b4)" style="fill: none; stroke: #7a7a7a; stroke-width: 3; stroke-linecap: square"/>
   </g>
   <g id="line2d_133">
    <path d="M 412.188393 140.958953 
L 797.123878 297.776454 
" clip-path="url(#pc5f07681b4)" style="fill: none; stroke: #7a7a7a; stroke-width: 3; stroke-linecap: square"/>
   </g>
   <g id="line2d_134">
    <path d="M 402.191217 176.260367 
L 797.123878 336.573057 
" clip-path="url(#pc5f07681b4)" style="fill: none; stroke: #7a7a7a; stroke-width: 3; stroke-linecap: square"/>
   </g>
   <g id="line2d_135">
    <path d="M 515.168146 135.250144 
L 410.33051 93.424377 
" clip-path="url(#pc5f07681b4)" style="fill: none; stroke: #7a7a7a; stroke-width: 3; stroke-linecap: square"/>
   </g>
   <g id="line2d_136">
    <path d="M 518.795439 101.812831 
L 422.097097 59.987064 
" clip-path="url(#pc5f07681b4)" style="fill: none; stroke: #7a7a7a; stroke-width: 3; stroke-linecap: square"/>
   </g>
   <g id="line2d_137">
    <path d="M 257.453351 219.833729 
L 267.185115 163.444672 
L 269.48535 144.337636 
L 272.227938 126.046145 
L 273.201114 106.822603 
L 272.316408 87.016529 
L 269.396879 67.210456 
L 264.442527 47.637394 
L 257.18794 28.879878 
L 247.721588 11.287424 
L 238.595293 -1 
" clip-path="url(#pc5f07681b4)" style="fill: none; stroke: #7a7a7a; stroke-width: 3; stroke-linecap: square"/>
   </g>
   <g id="line2d_138">
    <path d="M 282.578996 230.785323 
L 293.9917 174.862291 
L 296.9997 156.5708 
L 300.626994 138.046295 
L 302.927229 118.589741 
L 303.723464 98.434148 
L 302.838758 78.045543 
L 300.184641 57.540431 
L 295.584171 37.501345 
L 288.860407 18.04479 
L 279.836408 -0.246701 
L 279.327068 -1 
" clip-path="url(#pc5f07681b4)" style="fill: none; stroke: #7a7a7a; stroke-width: 3; stroke-linecap: square"/>
   </g>
   <g id="line2d_139">
    <path clip-path="url(#pc5f07681b4)" style="fill: none; stroke: #7a7a7a; stroke-width: 3; stroke-linecap: square"/>
   </g>
   <g id="line2d_140">
    <path d="M 153.569529 -1 
L 188.711712 12.918512 
" clip-path="url(#pc5f07681b4)" style="fill: none; stroke: #7a7a7a; stroke-width: 3; stroke-linecap: square"/>
   </g>
   <g id="line2d_141">
    <path d="M 1330.955347 248.028257 
L 1327.681936 260.144914 
L 1324.408524 274.82471 
L 1324.231583 276.688811 
L 1297.071116 393.07862 
L 1293.886175 416.379884 
L 1297.071116 439.56464 
L 1305.210409 460.069752 
L 1317.153937 475.215573 
L 1324.320054 479.526307 
L 1326.620289 480.458357 
L 1331.751582 482.555471 
" clip-path="url(#pc5f07681b4)" style="fill: none; stroke: #7a7a7a; stroke-width: 3; stroke-linecap: square"/>
   </g>
   <g id="line2d_142">
    <path d="M 1284.419823 229.387247 
L 1250.535591 374.321104 
L 1247.793003 391.447532 
L 1248.943121 410.78758 
L 1253.720532 431.409198 
L 1261.948296 452.030816 
L 1273.27253 471.720384 
L 1287.427822 489.196331 
L 1304.237232 503.410101 
L 1323.435348 513.313138 
" clip-path="url(#pc5f07681b4)" style="fill: none; stroke: #7a7a7a; stroke-width: 3; stroke-linecap: square"/>
   </g>
   <g id="line2d_143">
    <path d="M 751.030707 122.900474 
L 547.636848 38.549902 
" clip-path="url(#pc5f07681b4)" style="fill: none; stroke: #7a7a7a; stroke-width: 3; stroke-linecap: square"/>
   </g>
   <g id="line2d_144">
    <path d="M 759.17 87.715567 
L 738.644826 79.909644 
L 638.31919 38.782914 
L 557.810964 6.161146 
" clip-path="url(#pc5f07681b4)" style="fill: none; stroke: #7a7a7a; stroke-width: 3; stroke-linecap: square"/>
   </g>
   <g id="line2d_145">
    <path d="M 175.618067 84.45339 
L 197.470299 93.30787 
L 212.067945 100.880781 
L 225.427002 112.531412 
L 237.016648 127.444221 
L 246.394529 144.803662 
L 252.941352 163.910698 
L 258.249587 183.13424 
L 258.161116 204.338389 
L 257.453351 219.833729 
" clip-path="url(#pc5f07681b4)" style="fill: none; stroke: #7a7a7a; stroke-width: 3; stroke-linecap: square"/>
   </g>
   <g id="line2d_146">
    <path d="M 169.867479 119.405285 
L 174.55642 120.686854 
L 185.703712 125.114094 
L 188.534771 126.861689 
L 191.719712 128.259765 
L 203.928652 134.201587 
L 214.36818 147.949332 
L 222.153591 167.289381 
L 226.134767 190.124619 
L 225.250061 214.707451 
" clip-path="url(#pc5f07681b4)" style="fill: none; stroke: #7a7a7a; stroke-width: 3; stroke-linecap: square"/>
   </g>
   <g id="line2d_147">
    <path d="M 797.123878 214.590945 
L 796.769996 214.474439 
L 794.38129 213.542388 
L 793.408114 213.076363 
L 793.142702 212.959856 
L 745.280119 194.551859 
L 742.802943 193.852821 
" clip-path="url(#pc5f07681b4)" style="fill: none; stroke: #7a7a7a; stroke-width: 3; stroke-linecap: square"/>
   </g>
   <g id="line2d_148">
    <path d="M 797.123878 177.774949 
L 796.858467 177.658443 
L 794.469761 176.609886 
L 793.496585 176.260367 
L 793.142702 176.143861 
L 745.103178 157.036825 
" clip-path="url(#pc5f07681b4)" style="fill: none; stroke: #7a7a7a; stroke-width: 3; stroke-linecap: square"/>
   </g>
   <g id="line2d_149">
    <path d="M 1257.347826 93.191364 
L 1211.343125 197.814035 
" clip-path="url(#pc5f07681b4)" style="fill: none; stroke: #7a7a7a; stroke-width: 3; stroke-linecap: square"/>
   </g>
   <g id="line2d_150">
    <path d="M 1223.905947 93.191364 
L 1190.906422 191.173175 
" clip-path="url(#pc5f07681b4)" style="fill: none; stroke: #7a7a7a; stroke-width: 3; stroke-linecap: square"/>
   </g>
   <g id="line2d_151">
    <path d="M 176.941156 171.430823 
L 230.779882 267.5528 
" clip-path="url(#pc5f07681b4)" style="fill: none; stroke-dasharray: 32,8,5,8; stroke-dashoffset: 0; stroke: #1e90ff; stroke-width: 5"/>
   </g>
   <g id="line2d_152">
    <path d="M 496.270319 249.698193 
L 762.591788 359.76676 
" clip-path="url(#pc5f07681b4)" style="fill: none; stroke-dasharray: 32,8,5,8; stroke-dashoffset: 0; stroke: #1e90ff; stroke-width: 5"/>
   </g>
   <g id="line2d_153">
    <path d="M 976.470652 185.705229 
L 976.595658 183.58189 
" clip-path="url(#pc5f07681b4)" style="fill: none; stroke-dasharray: 32,8,5,8; stroke-dashoffset: 0; stroke: #1e90ff; stroke-width: 5"/>
   </g>
   <g id="line2d_154">
    <path d="M 421.698461 58.253158 
L 523.691798 75.458532 
" clip-path="url(#pc5f07681b4)" style="fill: none; stroke-dasharray: 32,8,5,8; stroke-dashoffset: 0; stroke: #1e90ff; stroke-width: 5"/>
   </g>
   <g id="line2d_155">
    <path d="M 1307.294133 524.247666 
L 1296.915147 558.995831 
" clip-path="url(#pc5f07681b4)" style="fill: none; stroke-dasharray: 32,8,5,8; stroke-dashoffset: 0; stroke: #1e90ff; stroke-width: 5"/>
   </g>
   <g id="line2d_156">
    <path d="M 1187.129337 807.599466 
L 1106.588658 1090.481053 
" clip-path="url(#pc5f07681b4)" style="fill: none; stroke-dasharray: 32,8,5,8; stroke-dashoffset: 0; stroke: #1e90ff; stroke-width: 5"/>
   </g>
   <g id="line2d_157">
    <path d="M 887.565929 388.616722 
L 1089.963976 456.215842 
" clip-path="url(#pc5f07681b4)" style="fill: none; stroke-dasharray: 32,8,5,8; stroke-dashoffset: 0; stroke: #1e90ff; stroke-width: 5"/>
   </g>
   <g id="line2d_158">
    <path d="M 176.941156 171.430823 
" clip-path="url(#pc5f07681b4)" style="fill: none; stroke: #0000ff; stroke-width: 1.5; stroke-linecap: square"/>
    <defs>
     <path id="mea1fa362c0" d="M 0 10 
C 2.652031 10 5.195799 8.946337 7.071068 7.071068 
C 8.946337 5.195799 10 2.652031 10 0 
C 10 -2.652031 8.946337 -5.195799 7.071068 -7.071068 
C 5.195799 -8.946337 2.652031 -10 0 -10 
C -2.652031 -10 -5.195799 -8.946337 -7.071068 -7.071068 
C -8.946337 -5.195799 -10 -2.652031 -10 0 
C -10 2.652031 -8.946337 5.195799 -7.071068 7.071068 
C -5.195799 8.946337 -2.652031 10 0 10 
z
" style="stroke: #0000ff"/>
    </defs>
    <g clip-path="url(#pc5f07681b4)">
     <use xlink:href="#mea1fa362c0" x="176.941156" y="171.430823" style="fill: #0000ff; stroke: #0000ff"/>
    </g>
   </g>
   <g id="line2d_159">
    <path d="M 496.270319 249.698193 
" clip-path="url(#pc5f07681b4)" style="fill: none; stroke: #0000ff; stroke-width: 1.5; stroke-linecap: square"/>
    <g clip-path="url(#pc5f07681b4)">
     <use xlink:href="#mea1fa362c0" x="496.270319" y="249.698193" style="fill: #0000ff; stroke: #0000ff"/>
    </g>
   </g>
   <g id="line2d_160">
    <path d="M 976.470652 185.705229 
" clip-path="url(#pc5f07681b4)" style="fill: none; stroke: #0000ff; stroke-width: 1.5; stroke-linecap: square"/>
    <g clip-path="url(#pc5f07681b4)">
     <use xlink:href="#mea1fa362c0" x="976.470652" y="185.705229" style="fill: #0000ff; stroke: #0000ff"/>
    </g>
   </g>
   <g id="line2d_161">
    <path d="M 421.698461 58.253158 
" clip-path="url(#pc5f07681b4)" style="fill: none; stroke: #0000ff; stroke-width: 1.5; stroke-linecap: square"/>
    <g clip-path="url(#pc5f07681b4)">
     <use xlink:href="#mea1fa362c0" x="421.698461" y="58.253158" style="fill: #0000ff; stroke: #0000ff"/>
    </g>
   </g>
   <g id="line2d_162">
    <path d="M 1307.294133 524.247666 
" clip-path="url(#pc5f07681b4)" style="fill: none; stroke: #0000ff; stroke-width: 1.5; stroke-linecap: square"/>
    <g clip-path="url(#pc5f07681b4)">
     <use xlink:href="#mea1fa362c0" x="1307.294133" y="524.247666" style="fill: #0000ff; stroke: #0000ff"/>
    </g>
   </g>
   <g id="line2d_163">
    <path d="M 1187.129337 807.599466 
" clip-path="url(#pc5f07681b4)" style="fill: none; stroke: #0000ff; stroke-width: 1.5; stroke-linecap: square"/>
    <g clip-path="url(#pc5f07681b4)">
     <use xlink:href="#mea1fa362c0" x="1187.129337" y="807.599466" style="fill: #0000ff; stroke: #0000ff"/>
    </g>
   </g>
   <g id="line2d_164">
    <path d="M 887.565929 388.616722 
" clip-path="url(#pc5f07681b4)" style="fill: none; stroke: #0000ff; stroke-width: 1.5; stroke-linecap: square"/>
    <g clip-path="url(#pc5f07681b4)">
     <use xlink:href="#mea1fa362c0" x="887.565929" y="388.616722" style="fill: #0000ff; stroke: #0000ff"/>
    </g>
   </g>
   <g id="line2d_165">
    <path d="M 230.779882 267.5528 
" clip-path="url(#pc5f07681b4)" style="fill: none; stroke: #ff0000; stroke-width: 1.5; stroke-linecap: square"/>
    <defs>
     <path id="m4eef3fdc99" d="M 0 -10 
L -2.24514 -3.09017 
L -9.510565 -3.09017 
L -3.632713 1.18034 
L -5.877853 8.09017 
L -0 3.81966 
L 5.877853 8.09017 
L 3.632713 1.18034 
L 9.510565 -3.09017 
L 2.24514 -3.09017 
z
" style="stroke: #ff0000; stroke-linejoin: bevel"/>
    </defs>
    <g clip-path="url(#pc5f07681b4)">
     <use xlink:href="#m4eef3fdc99" x="230.779882" y="267.5528" style="fill: #ff0000; stroke: #ff0000; stroke-linejoin: bevel"/>
    </g>
   </g>
   <g id="line2d_166">
    <path d="M 762.591788 359.76676 
" clip-path="url(#pc5f07681b4)" style="fill: none; stroke: #ff0000; stroke-width: 1.5; stroke-linecap: square"/>
    <g clip-path="url(#pc5f07681b4)">
     <use xlink:href="#m4eef3fdc99" x="762.591788" y="359.76676" style="fill: #ff0000; stroke: #ff0000; stroke-linejoin: bevel"/>
    </g>
   </g>
   <g id="line2d_167">
    <path d="M 976.595658 183.58189 
" clip-path="url(#pc5f07681b4)" style="fill: none; stroke: #ff0000; stroke-width: 1.5; stroke-linecap: square"/>
    <g clip-path="url(#pc5f07681b4)">
     <use xlink:href="#m4eef3fdc99" x="976.595658" y="183.58189" style="fill: #ff0000; stroke: #ff0000; stroke-linejoin: bevel"/>
    </g>
   </g>
   <g id="line2d_168">
    <path d="M 523.691798 75.458532 
" clip-path="url(#pc5f07681b4)" style="fill: none; stroke: #ff0000; stroke-width: 1.5; stroke-linecap: square"/>
    <g clip-path="url(#pc5f07681b4)">
     <use xlink:href="#m4eef3fdc99" x="523.691798" y="75.458532" style="fill: #ff0000; stroke: #ff0000; stroke-linejoin: bevel"/>
    </g>
   </g>
   <g id="line2d_169">
    <path d="M 1296.915147 558.995831 
" clip-path="url(#pc5f07681b4)" style="fill: none; stroke: #ff0000; stroke-width: 1.5; stroke-linecap: square"/>
    <g clip-path="url(#pc5f07681b4)">
     <use xlink:href="#m4eef3fdc99" x="1296.915147" y="558.995831" style="fill: #ff0000; stroke: #ff0000; stroke-linejoin: bevel"/>
    </g>
   </g>
   <g id="line2d_170">
    <path d="M 1106.588658 1090.481053 
" clip-path="url(#pc5f07681b4)" style="fill: none; stroke: #ff0000; stroke-width: 1.5; stroke-linecap: square"/>
    <g clip-path="url(#pc5f07681b4)">
     <use xlink:href="#m4eef3fdc99" x="1106.588658" y="1090.481053" style="fill: #ff0000; stroke: #ff0000; stroke-linejoin: bevel"/>
    </g>
   </g>
   <g id="line2d_171">
    <path d="M 1089.963976 456.215842 
" clip-path="url(#pc5f07681b4)" style="fill: none; stroke: #ff0000; stroke-width: 1.5; stroke-linecap: square"/>
    <g clip-path="url(#pc5f07681b4)">
     <use xlink:href="#m4eef3fdc99" x="1089.963976" y="456.215842" style="fill: #ff0000; stroke: #ff0000; stroke-linejoin: bevel"/>
    </g>
   </g>
  </g>
 </g>
 <defs>
  <clipPath id="pc5f07681b4">
   <rect x="0" y="0" width="1440" height="1440"/>
  </clipPath>
 </defs>
</svg>
