<?xml version="1.0" encoding="utf-8" standalone="no"?>
<!DOCTYPE svg PUBLIC "-//W3C//DTD SVG 1.1//EN"
  "http://www.w3.org/Graphics/SVG/1.1/DTD/svg11.dtd">
<svg xmlns:xlink="http://www.w3.org/1999/xlink" width="1440pt" height="1440pt" viewBox="0 0 1440 1440" xmlns="http://www.w3.org/2000/svg" version="1.1">
 <metadata>
  <rdf:RDF xmlns:dc="http://purl.org/dc/elements/1.1/" xmlns:cc="http://creativecommons.org/ns#" xmlns:rdf="http://www.w3.org/1999/02/22-rdf-syntax-ns#">
   <cc:Work>
    <dc:type rdf:resource="http://purl.org/dc/dcmitype/StillImage"/>
    <dc:date>2026-02-27T11:04:20.348855</dc:date>
    <dc:format>image/svg+xml</dc:format>
    <dc:creator>
     <cc:Agent>
      <dc:title>Matplotlib v3.7.3, https://matplotlib.org/</dc:title>
     </cc:Agent>
    </dc:creator>
   </cc:Work>
  </rdf:RDF>
 </metadata>
 <defs>
  <style type="text/css">*{stroke-linejoin: round; stroke-linecap: butt}</style>
 </defs>
 <g id="figure_1">
  <g id="patch_1">
   <path d="M 0 1440 
L 1440 1440 
L 1440 0 
L 0 0 
z
" style="fill: #ffffff"/>
  </g>
  <g id="axes_1">
   <g id="line2d_1">
    <path d="M 1128.122088 1347.029159 
L 1127.769523 1349.271782 
L 1127.69901 1349.869815 
L 1114.374077 1441 
" clip-path="url(#pf042deb243)" style="fill: none; stroke: #7a7a7a; stroke-width: 3; stroke-linecap: square"/>
   </g>
   <g id="line2d_2">
    <path d="M 1084.897681 1347.029159 
L 1084.545117 1349.42129 
L 1084.474604 1349.869815 
L 1071.436755 1441 
" clip-path="url(#pf042deb243)" style="fill: none; stroke: #7a7a7a; stroke-width: 3; stroke-linecap: square"/>
   </g>
   <g id="line2d_3">
    <path d="M 381.249469 275.503985 
L 538.986823 387.635125 
" clip-path="url(#pf042deb243)" style="fill: none; stroke: #7a7a7a; stroke-width: 3; stroke-linecap: square"/>
   </g>
   <g id="line2d_4">
    <path d="M 373.986641 324.54267 
L 530.736813 438.766924 
" clip-path="url(#pf042deb243)" style="fill: none; stroke: #7a7a7a; stroke-width: 3; stroke-linecap: square"/>
   </g>
   <g id="line2d_5">
    <path d="M 381.249469 275.503985 
L 288.736546 208.823333 
L 287.890392 208.225301 
L 287.326289 207.776776 
" clip-path="url(#pf042deb243)" style="fill: none; stroke: #7a7a7a; stroke-width: 3; stroke-linecap: square"/>
   </g>
   <g id="line2d_6">
    <path d="M 389.428965 223.176119 
L 288.736546 150.51514 
L 287.890392 149.917108 
L 287.326289 149.468583 
" clip-path="url(#pf042deb243)" style="fill: none; stroke: #7a7a7a; stroke-width: 3; stroke-linecap: square"/>
   </g>
   <g id="line2d_7">
    <path d="M 438.576455 528.471837 
L 440.762355 513.521018 
L 442.243126 477.340037 
L 442.243126 443.850203 
L 440.762355 413.201025 
L 437.589275 385.242994 
L 432.794398 360.125618 
L 426.307211 337.69939 
L 417.916176 318.113818 
L 407.691806 301.069885 
L 395.422562 287.016115 
L 381.249469 275.503985 
" clip-path="url(#pf042deb243)" style="fill: none; stroke: #7a7a7a; stroke-width: 3; stroke-linecap: square"/>
   </g>
   <g id="line2d_8">
    <path d="M 475.313675 536.694787 
L 477.85214 503.653478 
L 478.768807 471.808234 
L 478.204704 441.458072 
L 476.230343 412.453484 
L 472.845724 385.093485 
L 468.191873 359.228569 
L 462.339302 335.307259 
L 455.288012 313.329556 
L 447.179029 293.145951 
L 438.153378 275.204968 
L 428.140546 259.3571 
L 417.352073 245.751855 
L 405.717445 234.68825 
L 389.428965 223.176119 
" clip-path="url(#pf042deb243)" style="fill: none; stroke: #7a7a7a; stroke-width: 3; stroke-linecap: square"/>
   </g>
   <g id="line2d_9">
    <path d="M 495.62139 141.245633 
L 515.788079 4.146626 
L 515.999618 2.651544 
L 516.211156 1.455478 
" clip-path="url(#pf042deb243)" style="fill: none; stroke: #7a7a7a; stroke-width: 3; stroke-linecap: square"/>
   </g>
   <g id="line2d_10">
    <path d="M 530.666301 167.110549 
L 554.49966 4.146626 
L 554.640686 2.651544 
L 554.781712 1.455478 
" clip-path="url(#pf042deb243)" style="fill: none; stroke: #7a7a7a; stroke-width: 3; stroke-linecap: square"/>
   </g>
   <g id="line2d_11">
    <path d="M 317.364783 1347.029159 
L 317.576322 1345.534077 
L 317.787861 1344.338012 
L 438.576455 528.471837 
" clip-path="url(#pf042deb243)" style="fill: none; stroke: #7a7a7a; stroke-width: 3; stroke-linecap: square"/>
   </g>
   <g id="line2d_12">
    <path d="M 356.569955 1347.029159 
L 356.781493 1345.534077 
L 356.922519 1344.338012 
L 475.313675 536.694787 
" clip-path="url(#pf042deb243)" style="fill: none; stroke: #7a7a7a; stroke-width: 3; stroke-linecap: square"/>
   </g>
   <g id="line2d_13">
    <path d="M 438.576455 528.471837 
L 495.62139 141.245633 
" clip-path="url(#pf042deb243)" style="fill: none; stroke: #7a7a7a; stroke-width: 3; stroke-linecap: square"/>
   </g>
   <g id="line2d_14">
    <path d="M 475.313675 536.694787 
L 530.666301 167.110549 
" clip-path="url(#pf042deb243)" style="fill: none; stroke: #7a7a7a; stroke-width: 3; stroke-linecap: square"/>
   </g>
   <g id="line2d_15">
    <path d="M 1114.374077 1441 
L 1127.69901 1349.869815 
L 1127.769523 1349.271782 
L 1128.122088 1347.029159 
" clip-path="url(#pf042deb243)" style="fill: none; stroke: #7a7a7a; stroke-width: 3; stroke-linecap: square"/>
   </g>
   <g id="line2d_16">
    <path d="M 1158.001101 1441 
L 1171.558033 1349.869815 
L 1171.699059 1349.271782 
L 1171.910598 1347.029159 
" clip-path="url(#pf042deb243)" style="fill: none; stroke: #7a7a7a; stroke-width: 3; stroke-linecap: square"/>
   </g>
   <g id="line2d_17">
    <path d="M 381.249469 275.503985 
L 392.46102 284.474476 
L 404.307187 287.614148 
L 416.928996 285.969558 
L 429.903369 279.540706 
L 442.807229 269.224641 
L 455.288012 255.021363 
L 466.781615 237.379397 
L 477.076498 216.896775 
L 485.538046 193.723006 
L 491.884206 168.456123 
L 495.62139 141.245633 
" clip-path="url(#pf042deb243)" style="fill: none; stroke: #7a7a7a; stroke-width: 3; stroke-linecap: square"/>
   </g>
   <g id="line2d_18">
    <path d="M 373.986641 324.54267 
L 387.384091 335.456767 
L 400.570003 341.885619 
L 414.10848 344.27775 
L 427.787982 343.081685 
L 441.396971 338.297423 
L 454.723909 330.074473 
L 467.698282 318.861359 
L 480.03804 304.508573 
L 491.531642 287.46464 
L 502.108577 267.879067 
L 511.416279 245.751855 
L 519.45475 221.531529 
L 525.941936 195.218088 
L 530.666301 167.110549 
" clip-path="url(#pf042deb243)" style="fill: none; stroke: #7a7a7a; stroke-width: 3; stroke-linecap: square"/>
   </g>
   <g id="line2d_19">
    <path d="M 495.62139 141.245633 
L 491.884206 168.456123 
L 485.538046 193.723006 
L 477.076498 216.896775 
L 466.781615 237.379397 
L 455.288012 255.021363 
L 442.807229 269.224641 
L 429.903369 279.540706 
L 416.928996 285.969558 
L 404.307187 287.614148 
L 392.46102 284.474476 
L 381.249469 275.503985 
" clip-path="url(#pf042deb243)" style="fill: none; stroke: #7a7a7a; stroke-width: 3; stroke-linecap: square"/>
   </g>
   <g id="line2d_20">
    <path d="M 458.672631 116.277766 
L 454.51237 143.488256 
L 453.807241 146.777436 
L 452.538009 155.149894 
L 450.986725 162.774812 
L 449.012364 170.549237 
L 447.884158 176.08104 
L 438.576455 199.852842 
L 427.364905 215.850218 
L 414.884122 224.521693 
L 401.980261 226.764316 
L 389.428965 223.176119 
" clip-path="url(#pf042deb243)" style="fill: none; stroke: #7a7a7a; stroke-width: 3; stroke-linecap: square"/>
   </g>
   <g id="line2d_21">
    <path d="M 495.62139 141.245633 
L 491.179077 170.250221 
L 486.525226 196.862678 
L 484.973942 225.119726 
L 486.313687 253.825297 
L 490.26241 282.381361 
L 496.467545 309.591851 
L 504.717554 334.709227 
L 514.730386 356.68693 
L 526.294501 374.627912 
L 538.986823 387.635125 
" clip-path="url(#pf042deb243)" style="fill: none; stroke: #7a7a7a; stroke-width: 3; stroke-linecap: square"/>
   </g>
   <g id="line2d_22">
    <path d="M 458.672631 116.277766 
L 454.230319 145.282354 
L 451.409803 170.250221 
L 450.352109 196.71317 
L 450.986725 224.073168 
L 453.172625 252.031199 
L 456.839296 279.839722 
L 461.986738 307.19972 
L 468.403411 333.363653 
L 476.15983 358.032504 
L 485.044455 380.458732 
L 494.986774 400.343321 
L 505.986786 416.938729 
L 517.973979 429.945941 
L 530.736813 438.766924 
" clip-path="url(#pf042deb243)" style="fill: none; stroke: #7a7a7a; stroke-width: 3; stroke-linecap: square"/>
   </g>
   <g id="line2d_23">
    <path d="M 516.211156 1.455478 
L 515.999618 2.651544 
L 515.788079 4.146626 
L 495.62139 141.245633 
" clip-path="url(#pf042deb243)" style="fill: none; stroke: #7a7a7a; stroke-width: 3; stroke-linecap: square"/>
   </g>
   <g id="line2d_24">
    <path d="M 476.15983 1.455478 
L 475.948291 2.651544 
L 475.736753 4.146626 
L 464.736741 78.00367 
L 458.672631 116.277766 
" clip-path="url(#pf042deb243)" style="fill: none; stroke: #7a7a7a; stroke-width: 3; stroke-linecap: square"/>
   </g>
   <g id="line2d_25">
    <path d="M 538.986823 387.635125 
L 711.108807 501.111838 
" clip-path="url(#pf042deb243)" style="fill: none; stroke: #7a7a7a; stroke-width: 3; stroke-linecap: square"/>
   </g>
   <g id="line2d_26">
    <path d="M 530.736813 438.766924 
L 703.775466 553.73872 
" clip-path="url(#pf042deb243)" style="fill: none; stroke: #7a7a7a; stroke-width: 3; stroke-linecap: square"/>
   </g>
   <g id="line2d_27">
    <path d="M 495.62139 141.245633 
L 438.576455 528.471837 
" clip-path="url(#pf042deb243)" style="fill: none; stroke: #7a7a7a; stroke-width: 3; stroke-linecap: square"/>
   </g>
   <g id="line2d_28">
    <path d="M 458.672631 116.277766 
L 414.10848 522.641017 
" clip-path="url(#pf042deb243)" style="fill: none; stroke: #7a7a7a; stroke-width: 3; stroke-linecap: square"/>
   </g>
   <g id="line2d_29">
    <path d="M 538.986823 387.635125 
L 526.012449 378.96365 
L 512.685511 377.169552 
L 499.429087 381.355781 
L 486.595739 390.774797 
L 474.679059 404.52955 
L 464.031612 422.171516 
L 455.146986 442.654137 
L 448.448261 465.229874 
L 444.358513 489.300692 
L 438.576455 528.471837 
" clip-path="url(#pf042deb243)" style="fill: none; stroke: #7a7a7a; stroke-width: 3; stroke-linecap: square"/>
   </g>
   <g id="line2d_30">
    <path d="M 547.236832 333.214145 
L 530.454762 326.635784 
L 514.800898 325.290211 
L 500.345754 328.579391 
L 486.948304 336.0548 
L 474.749572 347.118406 
L 463.679047 361.321684 
L 453.666216 378.066601 
L 444.78159 396.605616 
L 437.025172 416.789221 
L 430.396959 437.869875 
L 424.82644 459.249546 
L 420.313615 480.479709 
L 414.10848 522.641017 
" clip-path="url(#pf042deb243)" style="fill: none; stroke: #7a7a7a; stroke-width: 3; stroke-linecap: square"/>
   </g>
   <g id="line2d_31">
    <path d="M 538.986823 387.635125 
L 381.249469 275.503985 
" clip-path="url(#pf042deb243)" style="fill: none; stroke: #7a7a7a; stroke-width: 3; stroke-linecap: square"/>
   </g>
   <g id="line2d_32">
    <path d="M 547.236832 333.214145 
L 389.428965 223.176119 
" clip-path="url(#pf042deb243)" style="fill: none; stroke: #7a7a7a; stroke-width: 3; stroke-linecap: square"/>
   </g>
   <g id="line2d_33">
    <path d="M 381.249469 275.503985 
L 395.422562 287.016115 
L 407.691806 301.069885 
L 417.916176 318.113818 
L 426.307211 337.69939 
L 432.794398 360.125618 
L 437.589275 385.242994 
L 440.762355 413.201025 
L 442.243126 443.850203 
L 442.243126 477.340037 
L 440.762355 513.521018 
L 438.576455 528.471837 
" clip-path="url(#pf042deb243)" style="fill: none; stroke: #7a7a7a; stroke-width: 3; stroke-linecap: square"/>
   </g>
   <g id="line2d_34">
    <path d="M 373.986641 324.54267 
L 384.281524 333.513161 
L 393.589226 346.520373 
L 401.557184 363.564307 
L 408.185396 384.794469 
L 413.121299 409.762336 
L 416.223867 438.617416 
L 417.352073 471.359709 
L 416.294379 507.690199 
L 414.10848 522.641017 
" clip-path="url(#pf042deb243)" style="fill: none; stroke: #7a7a7a; stroke-width: 3; stroke-linecap: square"/>
   </g>
   <g id="line2d_35">
    <path d="M 921.942373 640.752485 
L 920.743654 639.855436 
L 920.532115 639.705927 
L 920.320577 639.556419 
L 711.108807 501.111838 
" clip-path="url(#pf042deb243)" style="fill: none; stroke: #7a7a7a; stroke-width: 3; stroke-linecap: square"/>
   </g>
   <g id="line2d_36">
    <path d="M 921.942373 581.846259 
L 920.743654 580.94921 
L 920.532115 580.799702 
L 920.320577 580.650194 
L 751.442185 470.612168 
L 735.788322 463.435775 
L 732.474215 461.492169 
L 729.583187 458.651513 
L 729.371648 458.352497 
L 717.102404 446.092826 
" clip-path="url(#pf042deb243)" style="fill: none; stroke: #7a7a7a; stroke-width: 3; stroke-linecap: square"/>
   </g>
   <g id="line2d_37">
    <path d="M 538.986823 387.635125 
L 526.294501 374.627912 
L 514.730386 356.68693 
L 504.717554 334.709227 
L 496.467545 309.591851 
L 490.26241 282.381361 
L 486.313687 253.825297 
L 484.973942 225.119726 
L 486.525226 196.862678 
L 491.179077 170.250221 
L 495.62139 141.245633 
" clip-path="url(#pf042deb243)" style="fill: none; stroke: #7a7a7a; stroke-width: 3; stroke-linecap: square"/>
   </g>
   <g id="line2d_38">
    <path d="M 547.236832 333.214145 
L 535.108613 315.273162 
L 526.788091 292.547918 
L 522.063727 267.281034 
L 520.794495 242.313167 
L 522.839369 220.185955 
L 530.666301 167.110549 
" clip-path="url(#pf042deb243)" style="fill: none; stroke: #7a7a7a; stroke-width: 3; stroke-linecap: square"/>
   </g>
   <g id="line2d_39">
    <path d="M 438.576455 528.471837 
L 317.787861 1344.338012 
L 317.576322 1345.534077 
L 317.364783 1347.029159 
" clip-path="url(#pf042deb243)" style="fill: none; stroke: #7a7a7a; stroke-width: 3; stroke-linecap: square"/>
   </g>
   <g id="line2d_40">
    <path d="M 414.10848 522.641017 
L 293.742962 1344.338012 
L 293.531424 1345.534077 
L 293.319885 1347.029159 
" clip-path="url(#pf042deb243)" style="fill: none; stroke: #7a7a7a; stroke-width: 3; stroke-linecap: square"/>
   </g>
   <g id="line2d_41">
    <path d="M 438.576455 528.471837 
L 444.358513 489.300692 
L 448.448261 465.229874 
L 455.146986 442.654137 
L 464.031612 422.171516 
L 474.679059 404.52955 
L 486.595739 390.774797 
L 499.429087 381.355781 
L 512.685511 377.169552 
L 526.012449 378.96365 
L 538.986823 387.635125 
" clip-path="url(#pf042deb243)" style="fill: none; stroke: #7a7a7a; stroke-width: 3; stroke-linecap: square"/>
   </g>
   <g id="line2d_42">
    <path d="M 475.313675 536.694787 
L 481.02522 497.523642 
L 485.326507 477.04102 
L 491.461129 457.006923 
L 500.345754 441.308564 
L 513.108589 433.833154 
L 530.736813 438.766924 
" clip-path="url(#pf042deb243)" style="fill: none; stroke: #7a7a7a; stroke-width: 3; stroke-linecap: square"/>
   </g>
   <g id="line2d_43">
    <path d="M 287.326289 207.776776 
L 287.890392 208.225301 
L 288.736546 208.823333 
L 381.249469 275.503985 
" clip-path="url(#pf042deb243)" style="fill: none; stroke: #7a7a7a; stroke-width: 3; stroke-linecap: square"/>
   </g>
   <g id="line2d_44">
    <path d="M 287.326289 265.785952 
L 287.890392 266.234477 
L 288.736546 266.83251 
L 373.986641 324.54267 
" clip-path="url(#pf042deb243)" style="fill: none; stroke: #7a7a7a; stroke-width: 3; stroke-linecap: square"/>
   </g>
   <g id="line2d_45">
    <path d="M 516.572989 -1 
L 516.563721 -0.936653 
L 516.352182 0.259413 
L 516.211156 1.455478 
" clip-path="url(#pf042deb243)" style="fill: none; stroke: #7a7a7a; stroke-width: 3; stroke-linecap: square"/>
   </g>
   <g id="line2d_46">
    <path d="M 476.521903 -1 
L 476.512395 -0.936653 
L 476.300856 0.259413 
L 476.15983 1.455478 
" clip-path="url(#pf042deb243)" style="fill: none; stroke: #7a7a7a; stroke-width: 3; stroke-linecap: square"/>
   </g>
   <g id="line2d_47">
    <path d="M 516.211156 1.455478 
L 516.352182 0.259413 
L 516.563721 -0.936653 
L 516.572989 -1 
" clip-path="url(#pf042deb243)" style="fill: none; stroke: #7a7a7a; stroke-width: 3; stroke-linecap: square"/>
   </g>
   <g id="line2d_48">
    <path d="M 554.781712 1.455478 
L 554.922738 0.109905 
L 555.063763 -0.936653 
L 555.071258 -1 
" clip-path="url(#pf042deb243)" style="fill: none; stroke: #7a7a7a; stroke-width: 3; stroke-linecap: square"/>
   </g>
   <g id="line2d_49">
    <path d="M -1 -0.79446 
L 11.197779 7.88433 
L 285.563466 206.58071 
L 285.775005 206.730219 
L 285.986543 206.879727 
L 287.326289 207.776776 
" clip-path="url(#pf042deb243)" style="fill: none; stroke: #7a7a7a; stroke-width: 3; stroke-linecap: square"/>
   </g>
   <g id="line2d_50">
    <path d="M -1 57.99596 
L 131.704322 152.458747 
L 285.563466 264.589887 
L 285.775005 264.739395 
L 285.986543 264.888903 
L 287.326289 265.785952 
" clip-path="url(#pf042deb243)" style="fill: none; stroke: #7a7a7a; stroke-width: 3; stroke-linecap: square"/>
   </g>
   <g id="line2d_51">
    <path d="M 287.326289 207.776776 
L 285.986543 206.879727 
L 285.775005 206.730219 
L 285.563466 206.58071 
L 11.197779 7.88433 
L -1 -0.79446 
" clip-path="url(#pf042deb243)" style="fill: none; stroke: #7a7a7a; stroke-width: 3; stroke-linecap: square"/>
   </g>
   <g id="line2d_52">
    <path d="M 287.326289 149.468583 
L 285.986543 148.571534 
L 285.775005 148.422026 
L 285.563466 148.272518 
L 80.011296 -1 
" clip-path="url(#pf042deb243)" style="fill: none; stroke: #7a7a7a; stroke-width: 3; stroke-linecap: square"/>
   </g>
   <g id="line2d_53">
    <path d="M 1164.788795 867.406896 
L 1170.429827 904.335418 
L 1172.263162 931.994433 
L 1172.474701 962.942627 
L 1171.134956 997.180002 
" clip-path="url(#pf042deb243)" style="fill: none; stroke: #7a7a7a; stroke-width: 3; stroke-linecap: square"/>
   </g>
   <g id="line2d_54">
    <path d="M 1135.666968 895.215419 
L 1140.038768 917.791155 
L 1142.859284 942.310497 
L 1144.551593 969.520987 
L 1145.397748 999.871149 
" clip-path="url(#pf042deb243)" style="fill: none; stroke: #7a7a7a; stroke-width: 3; stroke-linecap: square"/>
   </g>
   <g id="line2d_55">
    <path d="M 1244.46837 792.503294 
L 1242.28247 779.346574 
L 1239.038877 756.62133 
L 1237.205541 729.560348 
L 1236.711951 697.416088 
L 1237.769645 659.740025 
L 1240.378622 615.784618 
L 1244.750422 564.802326 
" clip-path="url(#pf042deb243)" style="fill: none; stroke: #7a7a7a; stroke-width: 3; stroke-linecap: square"/>
   </g>
   <g id="line2d_56">
    <path d="M 1274.365839 764.096739 
L 1270.205578 740.175429 
L 1269.641475 737.035757 
L 1265.551727 704.891497 
L 1264.846598 693.379367 
L 1265.058136 687.249531 
L 1265.622239 681.867236 
L 1269.994039 656.00232 
L 1273.801736 634.323633 
L 1277.820971 613.242978 
L 1281.346616 592.760357 
" clip-path="url(#pf042deb243)" style="fill: none; stroke: #7a7a7a; stroke-width: 3; stroke-linecap: square"/>
   </g>
   <g id="line2d_57">
    <path d="M 1387.821092 950.084923 
L 1441 985.079304 
" clip-path="url(#pf042deb243)" style="fill: none; stroke: #7a7a7a; stroke-width: 3; stroke-linecap: square"/>
   </g>
   <g id="line2d_58">
    <path d="M 1376.82108 1001.665248 
L 1441 1043.716386 
" clip-path="url(#pf042deb243)" style="fill: none; stroke: #7a7a7a; stroke-width: 3; stroke-linecap: square"/>
   </g>
   <g id="line2d_59">
    <path d="M 1441 985.079304 
L 1387.821092 950.084923 
" clip-path="url(#pf042deb243)" style="fill: none; stroke: #7a7a7a; stroke-width: 3; stroke-linecap: square"/>
   </g>
   <g id="line2d_60">
    <path d="M 1441 926.784152 
L 1397.058282 897.60755 
" clip-path="url(#pf042deb243)" style="fill: none; stroke: #7a7a7a; stroke-width: 3; stroke-linecap: square"/>
   </g>
   <g id="line2d_61">
    <path d="M 1164.788795 867.406896 
L 1165.917001 872.04165 
L 1168.949056 881.311157 
L 1172.545214 893.42132 
L 1183.827277 910.465254 
L 1197.788831 920.332794 
L 1212.243975 920.781319 
L 1217.814494 916.146565 
L 1219.436291 915.249516 
L 1223.385013 912.109844 
L 1225.218349 910.016729 
" clip-path="url(#pf042deb243)" style="fill: none; stroke: #7a7a7a; stroke-width: 3; stroke-linecap: square"/>
   </g>
   <g id="line2d_62">
    <path d="M 1135.666968 895.215419 
L 1136.865687 899.102631 
L 1141.378513 920.930827 
L 1149.275957 940.665907 
L 1159.782379 957.709841 
L 1172.263162 971.464594 
L 1185.942664 981.481642 
L 1200.115757 987.013445 
L 1214.147824 987.46197 
L 1227.263223 982.378692 
L 1238.756825 971.165578 
" clip-path="url(#pf042deb243)" style="fill: none; stroke: #7a7a7a; stroke-width: 3; stroke-linecap: square"/>
   </g>
   <g id="line2d_63">
    <path d="M 1387.821092 950.084923 
L 1370.333893 933.04099 
L 1352.776182 920.482302 
L 1343.962069 914.501975 
L 1312.231265 892.524271 
L 1298.48125 877.573453 
L 1293.756886 872.191158 
" clip-path="url(#pf042deb243)" style="fill: none; stroke: #7a7a7a; stroke-width: 3; stroke-linecap: square"/>
   </g>
   <g id="line2d_64">
    <path d="M 1397.058282 897.60755 
L 1359.897984 881.759682 
L 1354.962082 879.218043 
L 1349.885153 875.33083 
L 1329.436412 859.931487 
L 1321.679994 852.605585 
L 1306.096643 833.618046 
" clip-path="url(#pf042deb243)" style="fill: none; stroke: #7a7a7a; stroke-width: 3; stroke-linecap: square"/>
   </g>
   <g id="line2d_65">
    <path d="M 1121.916953 789.961655 
L 1123.891314 792.353786 
L 1134.7503 804.164933 
L 1145.538774 820.012801 
L 1154.493912 837.654767 
L 1161.545202 857.389847 
L 1164.788795 867.406896 
" clip-path="url(#pf042deb243)" style="fill: none; stroke: #7a7a7a; stroke-width: 3; stroke-linecap: square"/>
   </g>
   <g id="line2d_66">
    <path d="M 1110.352837 833.917062 
L 1115.218227 841.990504 
L 1121.35285 854.100667 
L 1125.795162 864.267224 
L 1128.474652 871.742633 
L 1129.461833 874.134764 
L 1130.096449 876.227879 
L 1130.237475 876.526895 
L 1133.551581 888.188534 
L 1135.666968 895.215419 
" clip-path="url(#pf042deb243)" style="fill: none; stroke: #7a7a7a; stroke-width: 3; stroke-linecap: square"/>
   </g>
   <g id="line2d_67">
    <path d="M 1324.429997 1.455478 
L 1324.147945 3.399085 
L 1324.006919 4.296134 
L 1324.006919 4.744658 
L 1257.442743 461.043644 
" clip-path="url(#pf042deb243)" style="fill: none; stroke: #7a7a7a; stroke-width: 3; stroke-linecap: square"/>
   </g>
   <g id="line2d_68">
    <path d="M 1282.263283 1.455478 
L 1281.981232 3.399085 
L 1281.840206 4.296134 
L 1281.840206 4.744658 
L 1238.686312 296.435131 
L 1223.102962 405.127582 
L 1218.731162 431.590532 
" clip-path="url(#pf042deb243)" style="fill: none; stroke: #7a7a7a; stroke-width: 3; stroke-linecap: square"/>
   </g>
   <g id="line2d_69">
    <path d="M 1150.333651 1195.876382 
L 1155.481092 1182.420645 
L 1157.102889 1168.665892 
L 1168.667004 1092.117701 
L 1168.949056 1090.473111 
L 1177.340091 1037.846229 
L 1185.519587 1009.140657 
" clip-path="url(#pf042deb243)" style="fill: none; stroke: #7a7a7a; stroke-width: 3; stroke-linecap: square"/>
   </g>
   <g id="line2d_70">
    <path d="M 1187.141384 1219.648184 
L 1180.513171 1190.494087 
L 1178.891375 1179.729498 
L 1178.468297 1168.217368 
L 1179.173426 1157.452778 
L 1181.2183 1141.754419 
L 1183.474713 1128.149174 
L 1185.519587 1117.683601 
L 1189.609335 1098.995077 
L 1192.359338 1082.549177 
L 1194.897802 1071.186554 
L 1201.596528 1047.115736 
" clip-path="url(#pf042deb243)" style="fill: none; stroke: #7a7a7a; stroke-width: 3; stroke-linecap: square"/>
   </g>
   <g id="line2d_71">
    <path d="M 1244.750422 564.802326 
L 1257.724795 482.572823 
L 1257.513256 474.200365 
L 1257.442743 461.043644 
" clip-path="url(#pf042deb243)" style="fill: none; stroke: #7a7a7a; stroke-width: 3; stroke-linecap: square"/>
   </g>
   <g id="line2d_72">
    <path d="M 1281.346616 592.760357 
L 1292.62868 518.006263 
L 1297.000479 489.749216 
" clip-path="url(#pf042deb243)" style="fill: none; stroke: #7a7a7a; stroke-width: 3; stroke-linecap: square"/>
   </g>
   <g id="line2d_73">
    <path d="M 1293.756886 872.191158 
L 1283.955593 861.426568 
L 1274.859429 850.960995 
L 1266.468394 840.046898 
L 1258.923514 828.086243 
L 1252.295302 814.480998 
L 1244.46837 792.503294 
" clip-path="url(#pf042deb243)" style="fill: none; stroke: #7a7a7a; stroke-width: 3; stroke-linecap: square"/>
   </g>
   <g id="line2d_74">
    <path d="M 1306.096643 833.618046 
L 1297.353044 820.461325 
L 1293.051757 812.985916 
L 1285.013287 795.941983 
L 1280.006871 783.83182 
L 1278.455587 779.197066 
L 1277.750458 777.402967 
L 1277.468406 776.057394 
L 1276.974816 774.71182 
L 1274.365839 764.096739 
" clip-path="url(#pf042deb243)" style="fill: none; stroke: #7a7a7a; stroke-width: 3; stroke-linecap: square"/>
   </g>
   <g id="line2d_75">
    <path d="M 1240.09657 561.214129 
L 1231.635022 609.505274 
L 1227.333736 630.585928 
L 1222.679884 647.181337 
L 1220.000394 656.600353 
L 1207.590124 705.938054 
L 1199.481141 724.776086 
L 1187.634974 742.866576 
" clip-path="url(#pf042deb243)" style="fill: none; stroke: #7a7a7a; stroke-width: 3; stroke-linecap: square"/>
   </g>
   <g id="line2d_76">
    <path d="M 1221.340139 549.103966 
L 1218.026033 566.745932 
L 1214.429875 581.995767 
L 1214.147824 583.490849 
L 1213.795259 584.836423 
L 1213.09013 587.826587 
L 1210.41064 597.544619 
L 1206.602944 612.345929 
L 1198.705499 636.117731 
L 1197.365754 639.107895 
L 1196.378573 641.799042 
L 1191.160619 653.460681 
L 1190.384977 655.254779 
L 1188.904206 657.796418 
L 1186.224716 662.879696 
L 1182.981123 667.813467 
L 1181.500352 670.355106 
L 1180.795223 671.252155 
L 1180.442658 671.850188 
L 1173.038804 681.119695 
L 1172.192649 682.016744 
" clip-path="url(#pf042deb243)" style="fill: none; stroke: #7a7a7a; stroke-width: 3; stroke-linecap: square"/>
   </g>
   <g id="line2d_77">
    <path d="M 1225.218349 910.016729 
L 1230.083739 905.8305 
L 1241.506828 899.401648 
L 1255.186331 896.112468 
L 1271.615836 895.96296 
L 1291.218422 898.953123 
" clip-path="url(#pf042deb243)" style="fill: none; stroke: #7a7a7a; stroke-width: 3; stroke-linecap: square"/>
   </g>
   <g id="line2d_78">
    <path d="M 1238.756825 971.165578 
L 1240.167083 970.11902 
L 1247.359399 964.587217 
L 1253.352995 961.597054 
L 1258.006846 960.101972 
L 1263.224801 958.756398 
L 1268.654294 957.111808 
L 1271.404297 956.9623 
L 1271.756862 956.812792 
L 1280.570974 955.616726 
L 1287.974828 955.616726 
" clip-path="url(#pf042deb243)" style="fill: none; stroke: #7a7a7a; stroke-width: 3; stroke-linecap: square"/>
   </g>
   <g id="line2d_79">
    <path d="M 1128.122088 1347.029159 
L 1128.263114 1345.683585 
L 1128.474652 1344.637028 
L 1150.333651 1195.876382 
" clip-path="url(#pf042deb243)" style="fill: none; stroke: #7a7a7a; stroke-width: 3; stroke-linecap: square"/>
   </g>
   <g id="line2d_80">
    <path d="M 1171.910598 1347.029159 
L 1172.051623 1345.683585 
L 1172.192649 1344.637028 
L 1187.141384 1219.648184 
" clip-path="url(#pf042deb243)" style="fill: none; stroke: #7a7a7a; stroke-width: 3; stroke-linecap: square"/>
   </g>
   <g id="line2d_81">
    <path d="M 1123.679775 755.873789 
L 1113.807969 753.930182 
L 1096.743848 749.295428 
L 1091.666919 746.006248 
L 1091.384868 745.85674 
L 1088.211787 743.763625 
L 1074.461772 734.942642 
L 1058.455344 724.776086 
L 1038.429681 712.366906 
L 1035.186088 712.366906 
L 1032.08352 714.609529 
" clip-path="url(#pf042deb243)" style="fill: none; stroke: #7a7a7a; stroke-width: 3; stroke-linecap: square"/>
   </g>
   <g id="line2d_82">
    <path d="M 1127.981062 702.648874 
L 1111.410531 702.798382 
L 1102.87847 702.050841 
L 1089.833584 698.612153 
L 1081.019472 695.322973 
L 1069.596382 689.492154 
L 1065.224583 685.604941 
L 1039.980965 658.992484 
" clip-path="url(#pf042deb243)" style="fill: none; stroke: #7a7a7a; stroke-width: 3; stroke-linecap: square"/>
   </g>
   <g id="line2d_83">
    <path d="M 1291.218422 898.953123 
L 1305.814591 903.288861 
L 1334.442828 921.678368 
L 1361.167217 939.320334 
L 1368.289019 943.955088 
L 1387.821092 950.084923 
" clip-path="url(#pf042deb243)" style="fill: none; stroke: #7a7a7a; stroke-width: 3; stroke-linecap: square"/>
   </g>
   <g id="line2d_84">
    <path d="M 1287.974828 955.616726 
L 1301.442792 955.616726 
L 1317.026142 959.354431 
L 1335.077444 966.82984 
L 1342.551812 971.913118 
L 1345.724892 975.202299 
L 1376.82108 1001.665248 
" clip-path="url(#pf042deb243)" style="fill: none; stroke: #7a7a7a; stroke-width: 3; stroke-linecap: square"/>
   </g>
   <g id="line2d_85">
    <path d="M 1257.442743 461.043644 
L 1324.006919 4.744658 
L 1324.006919 4.296134 
L 1324.147945 3.399085 
L 1324.429997 1.455478 
" clip-path="url(#pf042deb243)" style="fill: none; stroke: #7a7a7a; stroke-width: 3; stroke-linecap: square"/>
   </g>
   <g id="line2d_86">
    <path d="M 1297.000479 489.749216 
L 1367.724916 4.744658 
L 1367.724916 4.296134 
L 1367.865942 3.399085 
L 1368.147994 1.455478 
" clip-path="url(#pf042deb243)" style="fill: none; stroke: #7a7a7a; stroke-width: 3; stroke-linecap: square"/>
   </g>
   <g id="line2d_87">
    <path d="M 1257.442743 461.043644 
L 1253.776073 472.10725 
L 1252.577353 477.04102 
L 1244.256831 535.050197 
L 1242.070931 548.954458 
L 1240.09657 561.214129 
" clip-path="url(#pf042deb243)" style="fill: none; stroke: #7a7a7a; stroke-width: 3; stroke-linecap: square"/>
   </g>
   <g id="line2d_88">
    <path d="M 1218.731162 431.590532 
L 1228.955532 485.114462 
L 1229.519636 492.290855 
L 1229.026045 500.663314 
L 1227.404249 512.773477 
L 1221.340139 549.103966 
" clip-path="url(#pf042deb243)" style="fill: none; stroke: #7a7a7a; stroke-width: 3; stroke-linecap: square"/>
   </g>
   <g id="line2d_89">
    <path d="M 1185.519587 1009.140657 
L 1187.493948 1004.057379 
L 1188.974719 996.282953 
L 1192.218312 984.471806 
L 1198.705499 962.643611 
L 1205.263199 943.955088 
L 1212.385001 928.10722 
L 1225.218349 910.016729 
" clip-path="url(#pf042deb243)" style="fill: none; stroke: #7a7a7a; stroke-width: 3; stroke-linecap: square"/>
   </g>
   <g id="line2d_90">
    <path d="M 1201.596528 1047.115736 
L 1209.705511 1021.699345 
L 1213.231156 1012.579345 
L 1217.743982 1002.26328 
L 1220.14142 997.479018 
L 1221.340139 994.787871 
L 1222.609372 992.694756 
L 1226.840145 985.81738 
L 1227.474761 984.920331 
L 1229.942713 981.033118 
L 1231.987587 978.790495 
L 1232.692716 977.743938 
L 1238.756825 971.165578 
" clip-path="url(#pf042deb243)" style="fill: none; stroke: #7a7a7a; stroke-width: 3; stroke-linecap: square"/>
   </g>
   <g id="line2d_91">
    <path d="M 1032.08352 714.609529 
L 923.423144 641.649534 
L 922.647502 641.201009 
L 922.224425 640.901993 
L 921.942373 640.752485 
" clip-path="url(#pf042deb243)" style="fill: none; stroke: #7a7a7a; stroke-width: 3; stroke-linecap: square"/>
   </g>
   <g id="line2d_92">
    <path d="M 1039.980965 658.992484 
L 923.423144 582.743308 
L 922.647502 582.294784 
L 922.294938 581.995767 
L 921.942373 581.846259 
" clip-path="url(#pf042deb243)" style="fill: none; stroke: #7a7a7a; stroke-width: 3; stroke-linecap: square"/>
   </g>
   <g id="line2d_93">
    <path d="M 1187.634974 742.866576 
L 1182.064455 747.351822 
L 1172.404188 752.883625 
L 1161.968279 755.72428 
L 1150.474677 756.62133 
L 1123.679775 755.873789 
" clip-path="url(#pf042deb243)" style="fill: none; stroke: #7a7a7a; stroke-width: 3; stroke-linecap: square"/>
   </g>
   <g id="line2d_94">
    <path d="M 1172.192649 682.016744 
L 1167.327259 686.801006 
L 1159.852892 692.332809 
L 1153.859296 695.771498 
L 1144.622106 699.210186 
L 1140.391332 700.406251 
L 1136.513123 701.452809 
L 1127.981062 702.648874 
" clip-path="url(#pf042deb243)" style="fill: none; stroke: #7a7a7a; stroke-width: 3; stroke-linecap: square"/>
   </g>
   <g id="line2d_95">
    <path d="M 1032.08352 714.609529 
L 1035.96173 719.842316 
L 1066.493815 741.820019 
L 1077.846391 750.042969 
L 1092.16051 759.461985 
L 1095.545129 762.751165 
L 1099.211799 766.638378 
L 1106.122064 773.216738 
L 1121.916953 789.961655 
" clip-path="url(#pf042deb243)" style="fill: none; stroke: #7a7a7a; stroke-width: 3; stroke-linecap: square"/>
   </g>
   <g id="line2d_96">
    <path d="M 1025.243769 767.236411 
L 1048.654051 775.459361 
L 1051.54508 776.206902 
L 1057.961754 779.795098 
L 1067.551508 786.821983 
L 1085.884862 803.5669 
L 1093.006664 811.191818 
L 1099.70539 819.414768 
L 1110.352837 833.917062 
" clip-path="url(#pf042deb243)" style="fill: none; stroke: #7a7a7a; stroke-width: 3; stroke-linecap: square"/>
   </g>
   <g id="line2d_97">
    <path d="M 1171.134956 997.180002 
L 1169.724698 1035.005573 
L 1161.686227 1102.732782 
L 1153.436218 1151.920975 
L 1151.391344 1164.031138 
L 1149.769548 1179.879006 
L 1150.333651 1195.876382 
" clip-path="url(#pf042deb243)" style="fill: none; stroke: #7a7a7a; stroke-width: 3; stroke-linecap: square"/>
   </g>
   <g id="line2d_98">
    <path d="M 1145.397748 999.871149 
L 1144.97467 1030.071803 
L 1141.660564 1086.137373 
L 1140.320819 1100.490159 
L 1138.134919 1117.235076 
L 1136.301584 1124.859993 
L 1133.833633 1130.391796 
L 1111.410531 1170.759007 
" clip-path="url(#pf042deb243)" style="fill: none; stroke: #7a7a7a; stroke-width: 3; stroke-linecap: square"/>
   </g>
   <g id="line2d_99">
    <path d="M 1225.218349 910.016729 
L 1226.981171 907.923615 
L 1230.083739 903.587877 
L 1235.23118 896.710501 
L 1242.635035 875.779354 
L 1247.077347 850.512471 
L 1248.276066 824.797063 
L 1247.570938 817.172145 
L 1247.429912 813.733457 
L 1246.865809 806.706572 
L 1245.667089 798.483622 
L 1244.46837 792.503294 
" clip-path="url(#pf042deb243)" style="fill: none; stroke: #7a7a7a; stroke-width: 3; stroke-linecap: square"/>
   </g>
   <g id="line2d_100">
    <path d="M 1238.756825 971.165578 
L 1250.602992 957.111808 
L 1260.545311 936.928203 
L 1268.583781 912.109844 
L 1274.577378 884.151813 
L 1278.385074 854.848208 
L 1280.006871 825.544604 
L 1279.231229 798.035097 
L 1276.058148 773.665263 
L 1274.365839 764.096739 
" clip-path="url(#pf042deb243)" style="fill: none; stroke: #7a7a7a; stroke-width: 3; stroke-linecap: square"/>
   </g>
   <g id="line2d_101">
    <path d="M 1150.333651 1195.876382 
L 1128.474652 1344.637028 
L 1128.263114 1345.683585 
L 1128.122088 1347.029159 
" clip-path="url(#pf042deb243)" style="fill: none; stroke: #7a7a7a; stroke-width: 3; stroke-linecap: square"/>
   </g>
   <g id="line2d_102">
    <path d="M 1111.410531 1170.759007 
L 1085.250246 1344.637028 
L 1085.10922 1345.683585 
L 1084.897681 1347.029159 
" clip-path="url(#pf042deb243)" style="fill: none; stroke: #7a7a7a; stroke-width: 3; stroke-linecap: square"/>
   </g>
   <g id="line2d_103">
    <path d="M 1187.634974 742.866576 
L 1186.718306 743.763625 
L 1183.051636 747.650838 
L 1179.525991 752.584608 
L 1176.000346 758.26592 
L 1172.333675 765.292804 
L 1168.949056 773.366246 
L 1166.833669 779.496082 
L 1164.788795 787.121 
L 1163.378537 793.998376 
L 1161.686227 805.21149 
L 1160.981098 812.836408 
L 1160.558021 821.956407 
L 1160.558021 831.674439 
L 1160.910586 840.495422 
L 1160.840073 842.439029 
L 1161.404176 845.578701 
L 1161.615714 848.419356 
L 1162.814434 857.539356 
L 1164.43623 865.911814 
L 1164.788795 867.406896 
" clip-path="url(#pf042deb243)" style="fill: none; stroke: #7a7a7a; stroke-width: 3; stroke-linecap: square"/>
   </g>
   <g id="line2d_104">
    <path d="M 1172.192649 682.016744 
L 1170.359314 684.259367 
L 1159.500328 696.668547 
L 1149.981086 714.609529 
L 1142.013129 737.035757 
L 1135.666968 762.601657 
L 1131.154142 790.111163 
L 1128.686191 818.368211 
L 1128.545165 846.176733 
L 1130.801578 872.191158 
L 1135.666968 895.215419 
" clip-path="url(#pf042deb243)" style="fill: none; stroke: #7a7a7a; stroke-width: 3; stroke-linecap: square"/>
   </g>
   <g id="line2d_105">
    <path d="M 1244.46837 792.503294 
L 1243.904267 789.363622 
L 1241.929906 781.738705 
L 1239.391441 773.515755 
L 1237.769645 769.628542 
L 1236.077335 763.947231 
L 1224.795271 745.85674 
L 1218.801675 741.221986 
L 1211.961924 736.138708 
L 1199.058063 735.241659 
L 1192.993954 739.27838 
L 1189.891387 741.072478 
L 1187.634974 742.866576 
" clip-path="url(#pf042deb243)" style="fill: none; stroke: #7a7a7a; stroke-width: 3; stroke-linecap: square"/>
   </g>
   <g id="line2d_106">
    <path d="M 1274.365839 764.096739 
L 1274.013274 762.153132 
L 1267.667114 738.381331 
L 1258.711975 717.450185 
L 1247.711963 699.65871 
L 1235.301693 685.455433 
L 1222.045268 675.288876 
L 1208.506792 669.458057 
L 1195.32088 668.411499 
L 1182.981123 672.44822 
L 1172.192649 682.016744 
" clip-path="url(#pf042deb243)" style="fill: none; stroke: #7a7a7a; stroke-width: 3; stroke-linecap: square"/>
   </g>
   <g id="line2d_107">
    <path d="M 921.942373 640.752485 
L 922.224425 640.901993 
L 922.647502 641.201009 
L 923.423144 641.649534 
L 1032.08352 714.609529 
" clip-path="url(#pf042deb243)" style="fill: none; stroke: #7a7a7a; stroke-width: 3; stroke-linecap: square"/>
   </g>
   <g id="line2d_108">
    <path d="M 921.942373 699.060678 
L 922.224425 699.210186 
L 922.576989 699.509202 
L 923.423144 699.957727 
L 1025.243769 767.236411 
" clip-path="url(#pf042deb243)" style="fill: none; stroke: #7a7a7a; stroke-width: 3; stroke-linecap: square"/>
   </g>
   <g id="line2d_109">
    <path d="M 711.108807 501.111838 
L 920.320577 639.556419 
L 920.532115 639.705927 
L 920.743654 639.855436 
L 921.942373 640.752485 
" clip-path="url(#pf042deb243)" style="fill: none; stroke: #7a7a7a; stroke-width: 3; stroke-linecap: square"/>
   </g>
   <g id="line2d_110">
    <path d="M 703.775466 553.73872 
L 920.320577 698.01412 
L 920.532115 698.01412 
L 920.743654 698.163629 
L 921.942373 699.060678 
" clip-path="url(#pf042deb243)" style="fill: none; stroke: #7a7a7a; stroke-width: 3; stroke-linecap: square"/>
   </g>
   <g id="line2d_111">
    <path d="M 711.108807 501.111838 
L 538.986823 387.635125 
" clip-path="url(#pf042deb243)" style="fill: none; stroke: #7a7a7a; stroke-width: 3; stroke-linecap: square"/>
   </g>
   <g id="line2d_112">
    <path d="M 717.102404 446.092826 
L 547.236832 333.214145 
" clip-path="url(#pf042deb243)" style="fill: none; stroke: #7a7a7a; stroke-width: 3; stroke-linecap: square"/>
   </g>
   <g id="line2d_113">
    <path d="M 1334.230653 867.090564 
L 835.524908 555.681524 
" clip-path="url(#pf042deb243)" style="fill: none; stroke-dasharray: 32,8,5,8; stroke-dashoffset: 0; stroke: #1e90ff; stroke-width: 5"/>
   </g>
   <g id="line2d_114">
    <path d="M 183.727761 137.819419 
L 141.025797 118.814021 
" clip-path="url(#pf042deb243)" style="fill: none; stroke-dasharray: 32,8,5,8; stroke-dashoffset: 0; stroke: #1e90ff; stroke-width: 5"/>
   </g>
   <g id="line2d_115">
    <path d="M 977.475154 699.359242 
L 1209.600052 991.47544 
" clip-path="url(#pf042deb243)" style="fill: none; stroke-dasharray: 32,8,5,8; stroke-dashoffset: 0; stroke: #1e90ff; stroke-width: 5"/>
   </g>
   <g id="line2d_116">
    <path d="M 594.859618 382.852606 
L 536.823767 74.754093 
" clip-path="url(#pf042deb243)" style="fill: none; stroke-dasharray: 32,8,5,8; stroke-dashoffset: 0; stroke: #1e90ff; stroke-width: 5"/>
   </g>
   <g id="line2d_117">
    <path d="M 1334.230653 867.090564 
" clip-path="url(#pf042deb243)" style="fill: none; stroke: #0000ff; stroke-width: 1.5; stroke-linecap: square"/>
    <defs>
     <path id="m0178d04d45" d="M 0 10 
C 2.652031 10 5.195799 8.946337 7.071068 7.071068 
C 8.946337 5.195799 10 2.652031 10 0 
C 10 -2.652031 8.946337 -5.195799 7.071068 -7.071068 
C 5.195799 -8.946337 2.652031 -10 0 -10 
C -2.652031 -10 -5.195799 -8.946337 -7.071068 -7.071068 
C -8.946337 -5.195799 -10 -2.652031 -10 0 
C -10 2.652031 -8.946337 5.195799 -7.071068 7.071068 
C -5.195799 8.946337 -2.652031 10 0 10 
z
" style="stroke: #0000ff"/>
    </defs>
    <g clip-path="url(#pf042deb243)">
     <use xlink:href="#m0178d04d45" x="1334.230653" y="867.090564" style="fill: #0000ff; stroke: #0000ff"/>
    </g>
   </g>
   <g id="line2d_118">
    <path d="M 183.727761 137.819419 
" clip-path="url(#pf042deb243)" style="fill: none; stroke: #0000ff; stroke-width: 1.5; stroke-linecap: square"/>
    <g clip-path="url(#pf042deb243)">
     <use xlink:href="#m0178d04d45" x="183.727761" y="137.819419" style="fill: #0000ff; stroke: #0000ff"/>
    </g>
   </g>
   <g id="line2d_119">
    <path d="M 977.475154 699.359242 
" clip-path="url(#pf042deb243)" style="fill: none; stroke: #0000ff; stroke-width: 1.5; stroke-linecap: square"/>
    <g clip-path="url(#pf042deb243)">
     <use xlink:href="#m0178d04d45" x="977.475154" y="699.359242" style="fill: #0000ff; stroke: #0000ff"/>
    </g>
   </g>
   <g id="line2d_120">
    <path d="M 594.859618 382.852606 
" clip-path="url(#pf042deb243)" style="fill: none; stroke: #0000ff; stroke-width: 1.5; stroke-linecap: square"/>
    <g clip-path="url(#pf042deb243)">
     <use xlink:href="#m0178d04d45" x="594.859618" y="382.852606" style="fill: #0000ff; stroke: #0000ff"/>
    </g>
   </g>
   <g id="line2d_121">
    <path d="M 835.524908 555.681524 
" clip-path="url(#pf042deb243)" style="fill: none; stroke: #ff0000; stroke-width: 1.5; stroke-linecap: square"/>
    <defs>
     <path id="m67b708aac9" d="M 0 -10 
L -2.24514 -3.09017 
L -9.510565 -3.09017 
L -3.632713 1.18034 
L -5.877853 8.09017 
L -0 3.81966 
L 5.877853 8.09017 
L 3.632713 1.18034 
L 9.510565 -3.09017 
L 2.24514 -3.09017 
z
" style="stroke: #ff0000; stroke-linejoin: bevel"/>
    </defs>
    <g clip-path="url(#pf042deb243)">
     <use xlink:href="#m67b708aac9" x="835.524908" y="555.681524" style="fill: #ff0000; stroke: #ff0000; stroke-linejoin: bevel"/>
    </g>
   </g>
   <g id="line2d_122">
    <path d="M 141.025797 118.814021 
" clip-path="url(#pf042deb243)" style="fill: none; stroke: #ff0000; stroke-width: 1.5; stroke-linecap: square"/>
    <g clip-path="url(#pf042deb243)">
     <use xlink:href="#m67b708aac9" x="141.025797" y="118.814021" style="fill: #ff0000; stroke: #ff0000; stroke-linejoin: bevel"/>
    </g>
   </g>
   <g id="line2d_123">
    <path d="M 1209.600052 991.47544 
" clip-path="url(#pf042deb243)" style="fill: none; stroke: #ff0000; stroke-width: 1.5; stroke-linecap: square"/>
    <g clip-path="url(#pf042deb243)">
     <use xlink:href="#m67b708aac9" x="1209.600052" y="991.47544" style="fill: #ff0000; stroke: #ff0000; stroke-linejoin: bevel"/>
    </g>
   </g>
   <g id="line2d_124">
    <path d="M 536.823767 74.754093 
" clip-path="url(#pf042deb243)" style="fill: none; stroke: #ff0000; stroke-width: 1.5; stroke-linecap: square"/>
    <g clip-path="url(#pf042deb243)">
     <use xlink:href="#m67b708aac9" x="536.823767" y="74.754093" style="fill: #ff0000; stroke: #ff0000; stroke-linejoin: bevel"/>
    </g>
   </g>
  </g>
 </g>
 <defs>
  <clipPath id="pf042deb243">
   <rect x="0" y="0" width="1440" height="1440"/>
  </clipPath>
 </defs>
</svg>
