<?xml version="1.0" encoding="utf-8" standalone="no"?>
<!DOCTYPE svg PUBLIC "-//W3C//DTD SVG 1.1//EN"
  "http://www.w3.org/Graphics/SVG/1.1/DTD/svg11.dtd">
<svg xmlns:xlink="http://www.w3.org/1999/xlink" width="1440pt" height="1440pt" viewBox="0 0 1440 1440" xmlns="http://www.w3.org/2000/svg" version="1.1">
 <metadata>
  <rdf:RDF xmlns:dc="http://purl.org/dc/elements/1.1/" xmlns:cc="http://creativecommons.org/ns#" xmlns:rdf="http://www.w3.org/1999/02/22-rdf-syntax-ns#">
   <cc:Work>
    <dc:type rdf:resource="http://purl.org/dc/dcmitype/StillImage"/>
    <dc:date>2026-02-27T11:05:10.752926</dc:date>
    <dc:format>image/svg+xml</dc:format>
    <dc:creator>
     <cc:Agent>
      <dc:title>Matplotlib v3.7.3, https://matplotlib.org/</dc:title>
     </cc:Agent>
    </dc:creator>
   </cc:Work>
  </rdf:RDF>
 </metadata>
 <defs>
  <style type="text/css">*{stroke-linejoin: round; stroke-linecap: butt}</style>
 </defs>
 <g id="figure_1">
  <g id="patch_1">
   <path d="M 0 1440 
L 1440 1440 
L 1440 0 
L 0 0 
z
" style="fill: #ffffff"/>
  </g>
  <g id="axes_1">
   <g id="line2d_1">
    <path d="M 701.928538 -1 
L 698.145338 117.563574 
L 698.005886 119.12429 
" clip-path="url(#p01580e4c48)" style="fill: none; stroke: #7a7a7a; stroke-width: 3; stroke-linecap: square"/>
   </g>
   <g id="line2d_2">
    <path d="M 616.438248 -1 
L 615.72951 117.563574 
L 615.590059 119.12429 
" clip-path="url(#p01580e4c48)" style="fill: none; stroke: #7a7a7a; stroke-width: 3; stroke-linecap: square"/>
   </g>
   <g id="line2d_3">
    <path d="M 744.164328 119.12429 
L 748.6423 -1 
" clip-path="url(#p01580e4c48)" style="fill: none; stroke: #7a7a7a; stroke-width: 3; stroke-linecap: square"/>
   </g>
   <g id="line2d_4">
    <path d="M 783.071292 119.12429 
L 783.210743 117.563574 
L 786.194981 -1 
" clip-path="url(#p01580e4c48)" style="fill: none; stroke: #7a7a7a; stroke-width: 3; stroke-linecap: square"/>
   </g>
   <g id="line2d_5">
    <path d="M 698.005886 119.12429 
L 698.145338 117.563574 
L 701.928538 -1 
" clip-path="url(#p01580e4c48)" style="fill: none; stroke: #7a7a7a; stroke-width: 3; stroke-linecap: square"/>
   </g>
   <g id="line2d_6">
    <path d="M 744.164328 119.12429 
L 748.6423 -1 
" clip-path="url(#p01580e4c48)" style="fill: none; stroke: #7a7a7a; stroke-width: 3; stroke-linecap: square"/>
   </g>
   <g id="line2d_7">
    <path d="M 1060.021941 802.224869 
L 1060.719198 802.224869 
L 1441 806.906618 
" clip-path="url(#p01580e4c48)" style="fill: none; stroke: #7a7a7a; stroke-width: 3; stroke-linecap: square"/>
   </g>
   <g id="line2d_8">
    <path d="M 1060.021941 834.342754 
L 1060.719198 834.342754 
L 1441 838.262396 
" clip-path="url(#p01580e4c48)" style="fill: none; stroke: #7a7a7a; stroke-width: 3; stroke-linecap: square"/>
   </g>
   <g id="line2d_9">
    <path d="M 1441 806.906618 
L 1060.719198 802.224869 
L 1060.021941 802.224869 
" clip-path="url(#p01580e4c48)" style="fill: none; stroke: #7a7a7a; stroke-width: 3; stroke-linecap: square"/>
   </g>
   <g id="line2d_10">
    <path d="M 1441 779.961085 
L 1400.144112 779.389136 
L 1060.719198 775.117703 
L 1060.021941 775.117703 
" clip-path="url(#p01580e4c48)" style="fill: none; stroke: #7a7a7a; stroke-width: 3; stroke-linecap: square"/>
   </g>
   <g id="line2d_11">
    <path d="M 669.976138 920.757112 
L 677.645969 685.910485 
" clip-path="url(#p01580e4c48)" style="fill: none; stroke: #7a7a7a; stroke-width: 3; stroke-linecap: square"/>
   </g>
   <g id="line2d_12">
    <path d="M 752.391965 921.085684 
L 721.712639 745.464107 
L 719.760318 686.731914 
" clip-path="url(#p01580e4c48)" style="fill: none; stroke: #7a7a7a; stroke-width: 3; stroke-linecap: square"/>
   </g>
   <g id="line2d_13">
    <path d="M 687.965379 393.974523 
L 698.005886 119.12429 
" clip-path="url(#p01580e4c48)" style="fill: none; stroke: #7a7a7a; stroke-width: 3; stroke-linecap: square"/>
   </g>
   <g id="line2d_14">
    <path d="M 732.1715 392.988808 
L 744.164328 119.12429 
" clip-path="url(#p01580e4c48)" style="fill: none; stroke: #7a7a7a; stroke-width: 3; stroke-linecap: square"/>
   </g>
   <g id="line2d_15">
    <path d="M 669.976138 920.757112 
L 669.139429 905.232099 
L 671.09175 890.282087 
L 675.8331 875.989217 
L 683.224029 862.517777 
L 693.403987 849.94991 
L 706.233524 838.532043 
L 721.712639 828.264177 
L 739.70188 819.228455 
L 760.3407 811.671306 
L 783.629098 805.674872 
L 809.427622 801.321297 
L 837.736274 798.774866 
L 868.415601 798.117723 
L 901.744505 799.43201 
L 921.267713 799.678438 
" clip-path="url(#p01580e4c48)" style="fill: none; stroke: #7a7a7a; stroke-width: 3; stroke-linecap: square"/>
   </g>
   <g id="line2d_16">
    <path d="M 752.391965 921.085684 
L 752.391965 901.699953 
L 754.344286 885.353511 
L 754.902092 883.710653 
L 755.320446 880.999936 
L 756.854413 875.907074 
L 759.085636 871.799928 
L 759.922345 870.567784 
L 767.452726 860.792776 
L 780.282262 851.92134 
L 798.410955 845.021334 
L 822.814965 839.682044 
L 854.052098 835.65704 
L 893.377416 832.699895 
L 912.900624 833.028467 
" clip-path="url(#p01580e4c48)" style="fill: none; stroke: #7a7a7a; stroke-width: 3; stroke-linecap: square"/>
   </g>
   <g id="line2d_17">
    <path d="M 677.645969 685.910485 
L 669.976138 920.757112 
" clip-path="url(#p01580e4c48)" style="fill: none; stroke: #7a7a7a; stroke-width: 3; stroke-linecap: square"/>
   </g>
   <g id="line2d_18">
    <path d="M 595.509045 685.006913 
L 594.811787 721.642658 
L 592.998918 730.924809 
L 587.281407 882.23208 
L 587.141956 888.803514 
L 586.026344 920.017826 
" clip-path="url(#p01580e4c48)" style="fill: none; stroke: #7a7a7a; stroke-width: 3; stroke-linecap: square"/>
   </g>
   <g id="line2d_19">
    <path d="M 729.243019 463.960297 
L 732.1715 392.988808 
" clip-path="url(#p01580e4c48)" style="fill: none; stroke: #7a7a7a; stroke-width: 3; stroke-linecap: square"/>
   </g>
   <g id="line2d_20">
    <path d="M 769.126143 465.192441 
L 772.054625 392.167379 
" clip-path="url(#p01580e4c48)" style="fill: none; stroke: #7a7a7a; stroke-width: 3; stroke-linecap: square"/>
   </g>
   <g id="line2d_21">
    <path d="M 698.005886 119.12429 
L 687.965379 393.974523 
" clip-path="url(#p01580e4c48)" style="fill: none; stroke: #7a7a7a; stroke-width: 3; stroke-linecap: square"/>
   </g>
   <g id="line2d_22">
    <path d="M 615.590059 119.12429 
L 614.892801 157.731466 
L 612.801029 208.988652 
L 612.661577 222.624378 
L 611.96432 231.085099 
L 610.709257 249.238686 
L 605.131197 395.699525 
" clip-path="url(#p01580e4c48)" style="fill: none; stroke: #7a7a7a; stroke-width: 3; stroke-linecap: square"/>
   </g>
   <g id="line2d_23">
    <path d="M 921.267713 799.678438 
L 890.309484 799.021295 
L 855.167709 795.982007 
L 823.372771 791.382003 
L 794.785217 785.303426 
L 769.544498 776.924848 
L 745.977197 766.656982 
L 729.243019 751.296255 
L 723.386056 741.603389 
L 720.736478 725.421233 
L 720.178672 706.610502 
L 719.760318 686.731914 
" clip-path="url(#p01580e4c48)" style="fill: none; stroke: #7a7a7a; stroke-width: 3; stroke-linecap: square"/>
   </g>
   <g id="line2d_24">
    <path d="M 929.774254 773.639131 
L 896.724252 772.735558 
L 893.656319 772.160558 
L 889.193872 771.831986 
L 875.248723 769.860556 
L 863.953153 767.478411 
L 851.960325 764.439123 
L 840.804207 761.153406 
L 827.556315 756.471259 
L 818.073615 752.28197 
L 807.893656 747.106965 
L 801.618339 743.328391 
L 797.853149 741.274817 
L 784.326355 730.514094 
L 774.006945 718.110512 
L 768.986692 709.156933 
L 766.476565 704.146215 
L 765.779308 702.33907 
L 765.779308 702.092641 
L 765.221502 700.614069 
L 760.898506 688.374773 
" clip-path="url(#p01580e4c48)" style="fill: none; stroke: #7a7a7a; stroke-width: 3; stroke-linecap: square"/>
   </g>
   <g id="line2d_25">
    <path d="M 921.267713 799.678438 
L 463.58794 792.203432 
" clip-path="url(#p01580e4c48)" style="fill: none; stroke: #7a7a7a; stroke-width: 3; stroke-linecap: square"/>
   </g>
   <g id="line2d_26">
    <path d="M 929.774254 773.639131 
L 901.186699 772.735558 
L 895.748092 772.324844 
L 464.843004 764.849837 
" clip-path="url(#p01580e4c48)" style="fill: none; stroke: #7a7a7a; stroke-width: 3; stroke-linecap: square"/>
   </g>
   <g id="line2d_27">
    <path d="M 732.1715 392.988808 
L 744.164328 119.12429 
" clip-path="url(#p01580e4c48)" style="fill: none; stroke: #7a7a7a; stroke-width: 3; stroke-linecap: square"/>
   </g>
   <g id="line2d_28">
    <path d="M 772.054625 392.167379 
L 775.959266 278.892283 
L 783.071292 119.12429 
" clip-path="url(#p01580e4c48)" style="fill: none; stroke: #7a7a7a; stroke-width: 3; stroke-linecap: square"/>
   </g>
   <g id="line2d_29">
    <path d="M 463.58794 792.203432 
L 405.855026 791.464146 
" clip-path="url(#p01580e4c48)" style="fill: none; stroke: #7a7a7a; stroke-width: 3; stroke-linecap: square"/>
   </g>
   <g id="line2d_30">
    <path d="M 464.843004 764.849837 
L 406.27338 763.864122 
" clip-path="url(#p01580e4c48)" style="fill: none; stroke: #7a7a7a; stroke-width: 3; stroke-linecap: square"/>
   </g>
   <g id="line2d_31">
    <path d="M 686.431413 462.728153 
L 677.645969 685.910485 
" clip-path="url(#p01580e4c48)" style="fill: none; stroke: #7a7a7a; stroke-width: 3; stroke-linecap: square"/>
   </g>
   <g id="line2d_32">
    <path d="M 603.039425 464.61744 
L 601.784362 506.838904 
L 596.206302 646.153308 
L 596.206302 672.356902 
L 595.509045 685.006913 
" clip-path="url(#p01580e4c48)" style="fill: none; stroke: #7a7a7a; stroke-width: 3; stroke-linecap: square"/>
   </g>
   <g id="line2d_33">
    <path d="M 223.313032 788.999858 
L 224.010289 788.999858 
L 405.855026 791.464146 
" clip-path="url(#p01580e4c48)" style="fill: none; stroke: #7a7a7a; stroke-width: 3; stroke-linecap: square"/>
   </g>
   <g id="line2d_34">
    <path d="M 223.313032 835.164183 
L 224.010289 835.164183 
L 403.48435 837.299899 
" clip-path="url(#p01580e4c48)" style="fill: none; stroke: #7a7a7a; stroke-width: 3; stroke-linecap: square"/>
   </g>
   <g id="line2d_35">
    <path d="M 669.976138 920.757112 
L 652.405251 1349.707476 
L 652.265799 1351.021763 
L 652.265799 1351.268192 
" clip-path="url(#p01580e4c48)" style="fill: none; stroke: #7a7a7a; stroke-width: 3; stroke-linecap: square"/>
   </g>
   <g id="line2d_36">
    <path d="M 586.026344 920.017826 
L 578.774867 1127.100145 
L 569.571069 1349.707476 
L 569.431617 1351.021763 
L 569.431617 1351.268192 
" clip-path="url(#p01580e4c48)" style="fill: none; stroke: #7a7a7a; stroke-width: 3; stroke-linecap: square"/>
   </g>
   <g id="line2d_37">
    <path d="M 687.965379 393.974523 
L 686.431413 462.728153 
" clip-path="url(#p01580e4c48)" style="fill: none; stroke: #7a7a7a; stroke-width: 3; stroke-linecap: square"/>
   </g>
   <g id="line2d_38">
    <path d="M 605.131197 395.699525 
L 603.039425 464.61744 
" clip-path="url(#p01580e4c48)" style="fill: none; stroke: #7a7a7a; stroke-width: 3; stroke-linecap: square"/>
   </g>
   <g id="line2d_39">
    <path d="M 463.58794 792.203432 
L 481.716633 792.532004 
L 516.300601 794.010576 
L 546.840477 797.214151 
L 573.615162 802.060583 
L 596.624657 808.467732 
L 616.147865 816.27131 
L 632.463688 825.55346 
L 645.572128 836.067755 
L 655.752086 847.732051 
L 663.282466 860.546347 
L 668.30272 874.346359 
L 670.952298 889.049943 
L 671.370653 904.574956 
L 669.976138 920.757112 
" clip-path="url(#p01580e4c48)" style="fill: none; stroke: #7a7a7a; stroke-width: 3; stroke-linecap: square"/>
   </g>
   <g id="line2d_40">
    <path d="M 462.890683 837.710614 
L 507.375706 837.05347 
L 540.286257 839.764187 
L 563.435203 845.514192 
L 578.356512 853.728484 
L 586.723601 863.914207 
L 590.070437 875.742789 
L 590.070437 888.639228 
L 586.305247 915.828537 
L 586.026344 920.017826 
" clip-path="url(#p01580e4c48)" style="fill: none; stroke: #7a7a7a; stroke-width: 3; stroke-linecap: square"/>
   </g>
   <g id="line2d_41">
    <path d="M 1060.021941 802.224869 
L 921.267713 799.678438 
" clip-path="url(#p01580e4c48)" style="fill: none; stroke: #7a7a7a; stroke-width: 3; stroke-linecap: square"/>
   </g>
   <g id="line2d_42">
    <path d="M 1060.021941 775.117703 
L 929.774254 773.639131 
" clip-path="url(#p01580e4c48)" style="fill: none; stroke: #7a7a7a; stroke-width: 3; stroke-linecap: square"/>
   </g>
   <g id="line2d_43">
    <path d="M 921.267713 799.678438 
L 901.744505 799.43201 
L 868.415601 798.117723 
L 837.736274 798.774866 
L 809.427622 801.321297 
L 783.629098 805.674872 
L 760.3407 811.671306 
L 739.70188 819.228455 
L 721.712639 828.264177 
L 706.233524 838.532043 
L 693.403987 849.94991 
L 683.224029 862.517777 
L 675.8331 875.989217 
L 671.09175 890.282087 
L 669.139429 905.232099 
L 669.976138 920.757112 
" clip-path="url(#p01580e4c48)" style="fill: none; stroke: #7a7a7a; stroke-width: 3; stroke-linecap: square"/>
   </g>
   <g id="line2d_44">
    <path d="M 929.774254 773.639131 
L 871.901888 772.817701 
L 841.640915 773.06413 
L 812.495555 774.46056 
L 784.465807 776.842705 
L 757.830573 780.374851 
L 732.729306 785.056997 
L 709.022553 790.889145 
L 687.12867 797.953437 
L 667.047657 806.249873 
L 648.918963 815.778452 
L 632.742591 826.539175 
L 618.797443 838.696329 
L 607.22297 852.167769 
L 598.019172 866.953495 
L 591.3255 883.217795 
L 587.281407 900.878524 
L 586.026344 920.017826 
" clip-path="url(#p01580e4c48)" style="fill: none; stroke: #7a7a7a; stroke-width: 3; stroke-linecap: square"/>
   </g>
   <g id="line2d_45">
    <path d="M 677.645969 685.910485 
L 675.693649 702.585499 
L 671.789007 718.110512 
L 665.374239 732.64981 
L 656.170441 746.039107 
L 643.89871 758.031975 
L 628.280144 768.628412 
L 609.17529 777.499848 
L 586.444698 784.481997 
L 559.670013 789.410573 
L 528.711784 792.203432 
L 493.570009 792.532004 
L 463.58794 792.203432 
" clip-path="url(#p01580e4c48)" style="fill: none; stroke: #7a7a7a; stroke-width: 3; stroke-linecap: square"/>
   </g>
   <g id="line2d_46">
    <path d="M 595.509045 685.006913 
L 597.87972 710.389077 
L 594.253981 730.021237 
L 592.720015 732.64981 
L 590.767694 737.003385 
L 588.257568 740.78196 
L 586.863053 742.260533 
L 585.607989 744.478392 
L 572.49955 754.664115 
L 567.897651 756.471259 
L 561.343431 759.428404 
L 555.207566 761.56412 
L 549.490055 763.124836 
L 541.680772 764.439123 
L 528.293429 765.342695 
L 525.783302 765.342695 
L 515.463893 765.999838 
L 493.151655 765.835553 
L 470.281611 764.93198 
L 464.843004 764.849837 
" clip-path="url(#p01580e4c48)" style="fill: none; stroke: #7a7a7a; stroke-width: 3; stroke-linecap: square"/>
   </g>
   <g id="line2d_47">
    <path d="M 921.267713 799.678438 
L 1060.021941 802.224869 
" clip-path="url(#p01580e4c48)" style="fill: none; stroke: #7a7a7a; stroke-width: 3; stroke-linecap: square"/>
   </g>
   <g id="line2d_48">
    <path d="M 912.900624 833.028467 
L 1060.021941 834.342754 
" clip-path="url(#p01580e4c48)" style="fill: none; stroke: #7a7a7a; stroke-width: 3; stroke-linecap: square"/>
   </g>
   <g id="line2d_49">
    <path d="M 463.58794 792.203432 
L 493.570009 792.532004 
L 528.711784 792.203432 
L 559.670013 789.410573 
L 586.444698 784.481997 
L 609.17529 777.499848 
L 628.280144 768.628412 
L 643.89871 758.031975 
L 656.170441 746.039107 
L 665.374239 732.64981 
L 671.789007 718.110512 
L 675.693649 702.585499 
L 677.645969 685.910485 
" clip-path="url(#p01580e4c48)" style="fill: none; stroke: #7a7a7a; stroke-width: 3; stroke-linecap: square"/>
   </g>
   <g id="line2d_50">
    <path d="M 462.890683 837.710614 
L 492.733301 838.039185 
L 522.436467 837.299899 
L 551.442376 834.507039 
L 579.751027 829.824893 
L 606.804615 823.499887 
L 632.60314 815.614166 
L 656.728247 806.414158 
L 674.717488 797.214151 
L 692.70673 783.249853 
L 709.162005 762.714121 
L 719.341963 738.153386 
L 719.760318 686.731914 
" clip-path="url(#p01580e4c48)" style="fill: none; stroke: #7a7a7a; stroke-width: 3; stroke-linecap: square"/>
   </g>
   <g id="line2d_51">
    <path d="M 652.265799 1351.268192 
L 652.265799 1351.021763 
L 652.405251 1349.707476 
L 669.976138 920.757112 
" clip-path="url(#p01580e4c48)" style="fill: none; stroke: #7a7a7a; stroke-width: 3; stroke-linecap: square"/>
   </g>
   <g id="line2d_52">
    <path d="M 736.633947 1351.268192 
L 736.633947 1351.021763 
L 736.633947 1349.707476 
L 752.391965 921.085684 
" clip-path="url(#p01580e4c48)" style="fill: none; stroke: #7a7a7a; stroke-width: 3; stroke-linecap: square"/>
   </g>
   <g id="line2d_53">
    <path d="M 669.976138 920.757112 
L 671.370653 904.574956 
L 670.952298 889.049943 
L 668.30272 874.346359 
L 663.282466 860.546347 
L 655.752086 847.732051 
L 645.572128 836.067755 
L 632.463688 825.55346 
L 616.147865 816.27131 
L 596.624657 808.467732 
L 573.615162 802.060583 
L 546.840477 797.214151 
L 516.300601 794.010576 
L 481.716633 792.532004 
L 463.58794 792.203432 
" clip-path="url(#p01580e4c48)" style="fill: none; stroke: #7a7a7a; stroke-width: 3; stroke-linecap: square"/>
   </g>
   <g id="line2d_54">
    <path d="M 752.391965 921.085684 
L 753.368126 899.892809 
L 750.857999 880.589221 
L 745.001037 862.928492 
L 736.076141 846.992764 
L 724.362217 832.617752 
L 710.138165 819.885598 
L 693.543439 808.632017 
L 674.996391 798.774866 
L 654.497023 790.396288 
L 632.60314 783.249853 
L 609.454193 777.417705 
L 585.189635 772.817701 
L 560.088368 769.285556 
L 534.568746 766.903411 
L 508.770221 765.589124 
L 464.843004 764.849837 
" clip-path="url(#p01580e4c48)" style="fill: none; stroke: #7a7a7a; stroke-width: 3; stroke-linecap: square"/>
   </g>
   <g id="line2d_55">
    <path d="M 686.431413 462.728153 
L 687.965379 393.974523 
" clip-path="url(#p01580e4c48)" style="fill: none; stroke: #7a7a7a; stroke-width: 3; stroke-linecap: square"/>
   </g>
   <g id="line2d_56">
    <path d="M 729.243019 463.960297 
L 732.1715 392.988808 
" clip-path="url(#p01580e4c48)" style="fill: none; stroke: #7a7a7a; stroke-width: 3; stroke-linecap: square"/>
   </g>
   <g id="line2d_57">
    <path d="M 463.58794 792.203432 
L 921.267713 799.678438 
" clip-path="url(#p01580e4c48)" style="fill: none; stroke: #7a7a7a; stroke-width: 3; stroke-linecap: square"/>
   </g>
   <g id="line2d_58">
    <path d="M 462.890683 837.710614 
L 912.900624 833.028467 
" clip-path="url(#p01580e4c48)" style="fill: none; stroke: #7a7a7a; stroke-width: 3; stroke-linecap: square"/>
   </g>
   <g id="line2d_59">
    <path d="M 677.645969 685.910485 
L 686.431413 462.728153 
" clip-path="url(#p01580e4c48)" style="fill: none; stroke: #7a7a7a; stroke-width: 3; stroke-linecap: square"/>
   </g>
   <g id="line2d_60">
    <path d="M 719.760318 686.731914 
L 719.620866 652.642599 
L 729.243019 463.960297 
" clip-path="url(#p01580e4c48)" style="fill: none; stroke: #7a7a7a; stroke-width: 3; stroke-linecap: square"/>
   </g>
   <g id="line2d_61">
    <path d="M 677.645969 685.910485 
L 678.62213 699.628354 
L 682.945126 712.771222 
L 689.9177 725.421233 
L 699.958207 737.578386 
L 712.787744 748.996253 
L 728.685213 759.59269 
L 747.511163 769.285556 
L 769.544498 777.910563 
L 794.785217 785.303426 
L 823.372771 791.382003 
L 855.167709 795.982007 
L 890.309484 799.021295 
L 921.267713 799.678438 
" clip-path="url(#p01580e4c48)" style="fill: none; stroke: #7a7a7a; stroke-width: 3; stroke-linecap: square"/>
   </g>
   <g id="line2d_62">
    <path d="M 595.509045 685.006913 
L 595.369593 690.83906 
L 595.230142 701.353355 
L 596.485205 709.731934 
L 600.947653 722.053373 
L 608.059678 734.374812 
L 617.681831 746.367679 
L 629.953562 758.031975 
L 644.735419 769.285556 
L 661.887952 780.046279 
L 681.411159 790.067716 
L 703.305043 799.267724 
L 727.569601 807.646302 
L 754.065383 815.039166 
L 782.792389 821.282028 
L 813.750618 826.292747 
L 846.80062 829.989178 
L 881.942395 832.28918 
L 912.900624 833.028467 
" clip-path="url(#p01580e4c48)" style="fill: none; stroke: #7a7a7a; stroke-width: 3; stroke-linecap: square"/>
   </g>
   <g id="line2d_63">
    <path d="M 719.760318 686.731914 
L 719.620866 652.642599 
L 729.243019 463.960297 
" clip-path="url(#p01580e4c48)" style="fill: none; stroke: #7a7a7a; stroke-width: 3; stroke-linecap: square"/>
   </g>
   <g id="line2d_64">
    <path d="M 760.898506 688.374773 
L 761.31686 678.846193 
L 760.759054 672.356902 
L 761.456312 635.8033 
L 764.384793 562.696095 
L 769.126143 465.192441 
" clip-path="url(#p01580e4c48)" style="fill: none; stroke: #7a7a7a; stroke-width: 3; stroke-linecap: square"/>
   </g>
   <g id="line2d_65">
    <path d="M 669.976138 920.757112 
L 719.760318 686.731914 
" clip-path="url(#p01580e4c48)" style="fill: none; stroke: #7a7a7a; stroke-width: 3; stroke-linecap: square"/>
   </g>
   <g id="line2d_66">
    <path d="M 752.391965 921.085684 
L 760.898506 688.374773 
" clip-path="url(#p01580e4c48)" style="fill: none; stroke: #7a7a7a; stroke-width: 3; stroke-linecap: square"/>
   </g>
   <g id="line2d_67">
    <path d="M 405.855026 791.464146 
L 463.58794 792.203432 
" clip-path="url(#p01580e4c48)" style="fill: none; stroke: #7a7a7a; stroke-width: 3; stroke-linecap: square"/>
   </g>
   <g id="line2d_68">
    <path d="M 403.48435 837.299899 
L 447.411568 837.710614 
L 462.890683 837.710614 
" clip-path="url(#p01580e4c48)" style="fill: none; stroke: #7a7a7a; stroke-width: 3; stroke-linecap: square"/>
   </g>
   <g id="line2d_69">
    <path d="M 405.855026 791.464146 
L 224.010289 788.999858 
L 223.313032 788.999858 
" clip-path="url(#p01580e4c48)" style="fill: none; stroke: #7a7a7a; stroke-width: 3; stroke-linecap: square"/>
   </g>
   <g id="line2d_70">
    <path d="M 406.27338 763.864122 
L 224.010289 760.906977 
L 223.313032 760.906977 
" clip-path="url(#p01580e4c48)" style="fill: none; stroke: #7a7a7a; stroke-width: 3; stroke-linecap: square"/>
   </g>
   <g id="line2d_71">
    <path d="M 684.80348 782.885665 
L 694.82996 584.52634 
" clip-path="url(#p01580e4c48)" style="fill: none; stroke-dasharray: 32,8,5,8; stroke-dashoffset: 0; stroke: #1e90ff; stroke-width: 5"/>
   </g>
   <g id="line2d_72">
    <path d="M 774.020427 192.762135 
L 781.93607 206.344997 
" clip-path="url(#p01580e4c48)" style="fill: none; stroke-dasharray: 32,8,5,8; stroke-dashoffset: 0; stroke: #1e90ff; stroke-width: 5"/>
   </g>
   <g id="line2d_73">
    <path d="M 776.131265 414.651318 
L 779.471156 417.285466 
" clip-path="url(#p01580e4c48)" style="fill: none; stroke-dasharray: 32,8,5,8; stroke-dashoffset: 0; stroke: #1e90ff; stroke-width: 5"/>
   </g>
   <g id="line2d_74">
    <path d="M 769.76811 585.183122 
L 755.07055 583.146595 
" clip-path="url(#p01580e4c48)" style="fill: none; stroke-dasharray: 32,8,5,8; stroke-dashoffset: 0; stroke: #1e90ff; stroke-width: 5"/>
   </g>
   <g id="line2d_75">
    <path d="M 772.825421 439.692276 
L 775.600151 441.070015 
" clip-path="url(#p01580e4c48)" style="fill: none; stroke-dasharray: 32,8,5,8; stroke-dashoffset: 0; stroke: #1e90ff; stroke-width: 5"/>
   </g>
   <g id="line2d_76">
    <path d="M 641.054662 132.150642 
L 638.41271 127.601296 
" clip-path="url(#p01580e4c48)" style="fill: none; stroke-dasharray: 32,8,5,8; stroke-dashoffset: 0; stroke: #1e90ff; stroke-width: 5"/>
   </g>
   <g id="line2d_77">
    <path d="M 719.75487 1054.366433 
L 719.261207 1054.396515 
" clip-path="url(#p01580e4c48)" style="fill: none; stroke-dasharray: 32,8,5,8; stroke-dashoffset: 0; stroke: #1e90ff; stroke-width: 5"/>
   </g>
   <g id="line2d_78">
    <path d="M 775.923586 313.4617 
L 777.230944 311.753063 
" clip-path="url(#p01580e4c48)" style="fill: none; stroke-dasharray: 32,8,5,8; stroke-dashoffset: 0; stroke: #1e90ff; stroke-width: 5"/>
   </g>
   <g id="line2d_79">
    <path d="M 609.977681 659.497804 
L 605.749196 675.350827 
" clip-path="url(#p01580e4c48)" style="fill: none; stroke-dasharray: 32,8,5,8; stroke-dashoffset: 0; stroke: #1e90ff; stroke-width: 5"/>
   </g>
   <g id="line2d_80">
    <path d="M 609.538491 937.773012 
L 609.259315 935.739493 
" clip-path="url(#p01580e4c48)" style="fill: none; stroke-dasharray: 32,8,5,8; stroke-dashoffset: 0; stroke: #1e90ff; stroke-width: 5"/>
   </g>
   <g id="line2d_81">
    <path d="M 721.028182 207.895204 
L 717.729147 209.140584 
" clip-path="url(#p01580e4c48)" style="fill: none; stroke-dasharray: 32,8,5,8; stroke-dashoffset: 0; stroke: #1e90ff; stroke-width: 5"/>
   </g>
   <g id="line2d_82">
    <path d="M 623.813883 95.421965 
L 622.47248 93.153809 
" clip-path="url(#p01580e4c48)" style="fill: none; stroke-dasharray: 32,8,5,8; stroke-dashoffset: 0; stroke: #1e90ff; stroke-width: 5"/>
   </g>
   <g id="line2d_83">
    <path d="M 692.828069 952.830877 
L 694.94912 951.792058 
" clip-path="url(#p01580e4c48)" style="fill: none; stroke-dasharray: 32,8,5,8; stroke-dashoffset: 0; stroke: #1e90ff; stroke-width: 5"/>
   </g>
   <g id="line2d_84">
    <path d="M 1051.544543 834.120711 
L 1043.51655 835.42124 
" clip-path="url(#p01580e4c48)" style="fill: none; stroke-dasharray: 32,8,5,8; stroke-dashoffset: 0; stroke: #1e90ff; stroke-width: 5"/>
   </g>
   <g id="line2d_85">
    <path d="M 677.718555 1153.404211 
L 689.808209 1139.18061 
" clip-path="url(#p01580e4c48)" style="fill: none; stroke-dasharray: 32,8,5,8; stroke-dashoffset: 0; stroke: #1e90ff; stroke-width: 5"/>
   </g>
   <g id="line2d_86">
    <path d="M 714.321165 650.424179 
L 724.238699 352.457531 
" clip-path="url(#p01580e4c48)" style="fill: none; stroke-dasharray: 32,8,5,8; stroke-dashoffset: 0; stroke: #1e90ff; stroke-width: 5"/>
   </g>
   <g id="line2d_87">
    <path d="M 684.80348 782.885665 
" clip-path="url(#p01580e4c48)" style="fill: none; stroke: #0000ff; stroke-width: 1.5; stroke-linecap: square"/>
    <defs>
     <path id="m3086b9cc2e" d="M 0 10 
C 2.652031 10 5.195799 8.946337 7.071068 7.071068 
C 8.946337 5.195799 10 2.652031 10 0 
C 10 -2.652031 8.946337 -5.195799 7.071068 -7.071068 
C 5.195799 -8.946337 2.652031 -10 0 -10 
C -2.652031 -10 -5.195799 -8.946337 -7.071068 -7.071068 
C -8.946337 -5.195799 -10 -2.652031 -10 0 
C -10 2.652031 -8.946337 5.195799 -7.071068 7.071068 
C -5.195799 8.946337 -2.652031 10 0 10 
z
" style="stroke: #0000ff"/>
    </defs>
    <g clip-path="url(#p01580e4c48)">
     <use xlink:href="#m3086b9cc2e" x="684.80348" y="782.885665" style="fill: #0000ff; stroke: #0000ff"/>
    </g>
   </g>
   <g id="line2d_88">
    <path d="M 774.020427 192.762135 
" clip-path="url(#p01580e4c48)" style="fill: none; stroke: #0000ff; stroke-width: 1.5; stroke-linecap: square"/>
    <g clip-path="url(#p01580e4c48)">
     <use xlink:href="#m3086b9cc2e" x="774.020427" y="192.762135" style="fill: #0000ff; stroke: #0000ff"/>
    </g>
   </g>
   <g id="line2d_89">
    <path d="M 776.131265 414.651318 
" clip-path="url(#p01580e4c48)" style="fill: none; stroke: #0000ff; stroke-width: 1.5; stroke-linecap: square"/>
    <g clip-path="url(#p01580e4c48)">
     <use xlink:href="#m3086b9cc2e" x="776.131265" y="414.651318" style="fill: #0000ff; stroke: #0000ff"/>
    </g>
   </g>
   <g id="line2d_90">
    <path d="M 769.76811 585.183122 
" clip-path="url(#p01580e4c48)" style="fill: none; stroke: #0000ff; stroke-width: 1.5; stroke-linecap: square"/>
    <g clip-path="url(#p01580e4c48)">
     <use xlink:href="#m3086b9cc2e" x="769.76811" y="585.183122" style="fill: #0000ff; stroke: #0000ff"/>
    </g>
   </g>
   <g id="line2d_91">
    <path d="M 772.825421 439.692276 
" clip-path="url(#p01580e4c48)" style="fill: none; stroke: #0000ff; stroke-width: 1.5; stroke-linecap: square"/>
    <g clip-path="url(#p01580e4c48)">
     <use xlink:href="#m3086b9cc2e" x="772.825421" y="439.692276" style="fill: #0000ff; stroke: #0000ff"/>
    </g>
   </g>
   <g id="line2d_92">
    <path d="M 641.054662 132.150642 
" clip-path="url(#p01580e4c48)" style="fill: none; stroke: #0000ff; stroke-width: 1.5; stroke-linecap: square"/>
    <g clip-path="url(#p01580e4c48)">
     <use xlink:href="#m3086b9cc2e" x="641.054662" y="132.150642" style="fill: #0000ff; stroke: #0000ff"/>
    </g>
   </g>
   <g id="line2d_93">
    <path d="M 719.75487 1054.366433 
" clip-path="url(#p01580e4c48)" style="fill: none; stroke: #0000ff; stroke-width: 1.5; stroke-linecap: square"/>
    <g clip-path="url(#p01580e4c48)">
     <use xlink:href="#m3086b9cc2e" x="719.75487" y="1054.366433" style="fill: #0000ff; stroke: #0000ff"/>
    </g>
   </g>
   <g id="line2d_94">
    <path d="M 775.923586 313.4617 
" clip-path="url(#p01580e4c48)" style="fill: none; stroke: #0000ff; stroke-width: 1.5; stroke-linecap: square"/>
    <g clip-path="url(#p01580e4c48)">
     <use xlink:href="#m3086b9cc2e" x="775.923586" y="313.4617" style="fill: #0000ff; stroke: #0000ff"/>
    </g>
   </g>
   <g id="line2d_95">
    <path d="M 609.977681 659.497804 
" clip-path="url(#p01580e4c48)" style="fill: none; stroke: #0000ff; stroke-width: 1.5; stroke-linecap: square"/>
    <g clip-path="url(#p01580e4c48)">
     <use xlink:href="#m3086b9cc2e" x="609.977681" y="659.497804" style="fill: #0000ff; stroke: #0000ff"/>
    </g>
   </g>
   <g id="line2d_96">
    <path d="M 609.538491 937.773012 
" clip-path="url(#p01580e4c48)" style="fill: none; stroke: #0000ff; stroke-width: 1.5; stroke-linecap: square"/>
    <g clip-path="url(#p01580e4c48)">
     <use xlink:href="#m3086b9cc2e" x="609.538491" y="937.773012" style="fill: #0000ff; stroke: #0000ff"/>
    </g>
   </g>
   <g id="line2d_97">
    <path d="M 721.028182 207.895204 
" clip-path="url(#p01580e4c48)" style="fill: none; stroke: #0000ff; stroke-width: 1.5; stroke-linecap: square"/>
    <g clip-path="url(#p01580e4c48)">
     <use xlink:href="#m3086b9cc2e" x="721.028182" y="207.895204" style="fill: #0000ff; stroke: #0000ff"/>
    </g>
   </g>
   <g id="line2d_98">
    <path d="M 623.813883 95.421965 
" clip-path="url(#p01580e4c48)" style="fill: none; stroke: #0000ff; stroke-width: 1.5; stroke-linecap: square"/>
    <g clip-path="url(#p01580e4c48)">
     <use xlink:href="#m3086b9cc2e" x="623.813883" y="95.421965" style="fill: #0000ff; stroke: #0000ff"/>
    </g>
   </g>
   <g id="line2d_99">
    <path d="M 692.828069 952.830877 
" clip-path="url(#p01580e4c48)" style="fill: none; stroke: #0000ff; stroke-width: 1.5; stroke-linecap: square"/>
    <g clip-path="url(#p01580e4c48)">
     <use xlink:href="#m3086b9cc2e" x="692.828069" y="952.830877" style="fill: #0000ff; stroke: #0000ff"/>
    </g>
   </g>
   <g id="line2d_100">
    <path d="M 1051.544543 834.120711 
" clip-path="url(#p01580e4c48)" style="fill: none; stroke: #0000ff; stroke-width: 1.5; stroke-linecap: square"/>
    <g clip-path="url(#p01580e4c48)">
     <use xlink:href="#m3086b9cc2e" x="1051.544543" y="834.120711" style="fill: #0000ff; stroke: #0000ff"/>
    </g>
   </g>
   <g id="line2d_101">
    <path d="M 677.718555 1153.404211 
" clip-path="url(#p01580e4c48)" style="fill: none; stroke: #0000ff; stroke-width: 1.5; stroke-linecap: square"/>
    <g clip-path="url(#p01580e4c48)">
     <use xlink:href="#m3086b9cc2e" x="677.718555" y="1153.404211" style="fill: #0000ff; stroke: #0000ff"/>
    </g>
   </g>
   <g id="line2d_102">
    <path d="M 714.321165 650.424179 
" clip-path="url(#p01580e4c48)" style="fill: none; stroke: #0000ff; stroke-width: 1.5; stroke-linecap: square"/>
    <g clip-path="url(#p01580e4c48)">
     <use xlink:href="#m3086b9cc2e" x="714.321165" y="650.424179" style="fill: #0000ff; stroke: #0000ff"/>
    </g>
   </g>
   <g id="line2d_103">
    <path d="M 694.82996 584.52634 
" clip-path="url(#p01580e4c48)" style="fill: none; stroke: #ff0000; stroke-width: 1.5; stroke-linecap: square"/>
    <defs>
     <path id="md655db315f" d="M 0 -10 
L -2.24514 -3.09017 
L -9.510565 -3.09017 
L -3.632713 1.18034 
L -5.877853 8.09017 
L -0 3.81966 
L 5.877853 8.09017 
L 3.632713 1.18034 
L 9.510565 -3.09017 
L 2.24514 -3.09017 
z
" style="stroke: #ff0000; stroke-linejoin: bevel"/>
    </defs>
    <g clip-path="url(#p01580e4c48)">
     <use xlink:href="#md655db315f" x="694.82996" y="584.52634" style="fill: #ff0000; stroke: #ff0000; stroke-linejoin: bevel"/>
    </g>
   </g>
   <g id="line2d_104">
    <path d="M 781.93607 206.344997 
" clip-path="url(#p01580e4c48)" style="fill: none; stroke: #ff0000; stroke-width: 1.5; stroke-linecap: square"/>
    <g clip-path="url(#p01580e4c48)">
     <use xlink:href="#md655db315f" x="781.93607" y="206.344997" style="fill: #ff0000; stroke: #ff0000; stroke-linejoin: bevel"/>
    </g>
   </g>
   <g id="line2d_105">
    <path d="M 779.471156 417.285466 
" clip-path="url(#p01580e4c48)" style="fill: none; stroke: #ff0000; stroke-width: 1.5; stroke-linecap: square"/>
    <g clip-path="url(#p01580e4c48)">
     <use xlink:href="#md655db315f" x="779.471156" y="417.285466" style="fill: #ff0000; stroke: #ff0000; stroke-linejoin: bevel"/>
    </g>
   </g>
   <g id="line2d_106">
    <path d="M 755.07055 583.146595 
" clip-path="url(#p01580e4c48)" style="fill: none; stroke: #ff0000; stroke-width: 1.5; stroke-linecap: square"/>
    <g clip-path="url(#p01580e4c48)">
     <use xlink:href="#md655db315f" x="755.07055" y="583.146595" style="fill: #ff0000; stroke: #ff0000; stroke-linejoin: bevel"/>
    </g>
   </g>
   <g id="line2d_107">
    <path d="M 775.600151 441.070015 
" clip-path="url(#p01580e4c48)" style="fill: none; stroke: #ff0000; stroke-width: 1.5; stroke-linecap: square"/>
    <g clip-path="url(#p01580e4c48)">
     <use xlink:href="#md655db315f" x="775.600151" y="441.070015" style="fill: #ff0000; stroke: #ff0000; stroke-linejoin: bevel"/>
    </g>
   </g>
   <g id="line2d_108">
    <path d="M 638.41271 127.601296 
" clip-path="url(#p01580e4c48)" style="fill: none; stroke: #ff0000; stroke-width: 1.5; stroke-linecap: square"/>
    <g clip-path="url(#p01580e4c48)">
     <use xlink:href="#md655db315f" x="638.41271" y="127.601296" style="fill: #ff0000; stroke: #ff0000; stroke-linejoin: bevel"/>
    </g>
   </g>
   <g id="line2d_109">
    <path d="M 719.261207 1054.396515 
" clip-path="url(#p01580e4c48)" style="fill: none; stroke: #ff0000; stroke-width: 1.5; stroke-linecap: square"/>
    <g clip-path="url(#p01580e4c48)">
     <use xlink:href="#md655db315f" x="719.261207" y="1054.396515" style="fill: #ff0000; stroke: #ff0000; stroke-linejoin: bevel"/>
    </g>
   </g>
   <g id="line2d_110">
    <path d="M 777.230944 311.753063 
" clip-path="url(#p01580e4c48)" style="fill: none; stroke: #ff0000; stroke-width: 1.5; stroke-linecap: square"/>
    <g clip-path="url(#p01580e4c48)">
     <use xlink:href="#md655db315f" x="777.230944" y="311.753063" style="fill: #ff0000; stroke: #ff0000; stroke-linejoin: bevel"/>
    </g>
   </g>
   <g id="line2d_111">
    <path d="M 605.749196 675.350827 
" clip-path="url(#p01580e4c48)" style="fill: none; stroke: #ff0000; stroke-width: 1.5; stroke-linecap: square"/>
    <g clip-path="url(#p01580e4c48)">
     <use xlink:href="#md655db315f" x="605.749196" y="675.350827" style="fill: #ff0000; stroke: #ff0000; stroke-linejoin: bevel"/>
    </g>
   </g>
   <g id="line2d_112">
    <path d="M 609.259315 935.739493 
" clip-path="url(#p01580e4c48)" style="fill: none; stroke: #ff0000; stroke-width: 1.5; stroke-linecap: square"/>
    <g clip-path="url(#p01580e4c48)">
     <use xlink:href="#md655db315f" x="609.259315" y="935.739493" style="fill: #ff0000; stroke: #ff0000; stroke-linejoin: bevel"/>
    </g>
   </g>
   <g id="line2d_113">
    <path d="M 717.729147 209.140584 
" clip-path="url(#p01580e4c48)" style="fill: none; stroke: #ff0000; stroke-width: 1.5; stroke-linecap: square"/>
    <g clip-path="url(#p01580e4c48)">
     <use xlink:href="#md655db315f" x="717.729147" y="209.140584" style="fill: #ff0000; stroke: #ff0000; stroke-linejoin: bevel"/>
    </g>
   </g>
   <g id="line2d_114">
    <path d="M 622.47248 93.153809 
" clip-path="url(#p01580e4c48)" style="fill: none; stroke: #ff0000; stroke-width: 1.5; stroke-linecap: square"/>
    <g clip-path="url(#p01580e4c48)">
     <use xlink:href="#md655db315f" x="622.47248" y="93.153809" style="fill: #ff0000; stroke: #ff0000; stroke-linejoin: bevel"/>
    </g>
   </g>
   <g id="line2d_115">
    <path d="M 694.94912 951.792058 
" clip-path="url(#p01580e4c48)" style="fill: none; stroke: #ff0000; stroke-width: 1.5; stroke-linecap: square"/>
    <g clip-path="url(#p01580e4c48)">
     <use xlink:href="#md655db315f" x="694.94912" y="951.792058" style="fill: #ff0000; stroke: #ff0000; stroke-linejoin: bevel"/>
    </g>
   </g>
   <g id="line2d_116">
    <path d="M 1043.51655 835.42124 
" clip-path="url(#p01580e4c48)" style="fill: none; stroke: #ff0000; stroke-width: 1.5; stroke-linecap: square"/>
    <g clip-path="url(#p01580e4c48)">
     <use xlink:href="#md655db315f" x="1043.51655" y="835.42124" style="fill: #ff0000; stroke: #ff0000; stroke-linejoin: bevel"/>
    </g>
   </g>
   <g id="line2d_117">
    <path d="M 689.808209 1139.18061 
" clip-path="url(#p01580e4c48)" style="fill: none; stroke: #ff0000; stroke-width: 1.5; stroke-linecap: square"/>
    <g clip-path="url(#p01580e4c48)">
     <use xlink:href="#md655db315f" x="689.808209" y="1139.18061" style="fill: #ff0000; stroke: #ff0000; stroke-linejoin: bevel"/>
    </g>
   </g>
   <g id="line2d_118">
    <path d="M 724.238699 352.457531 
" clip-path="url(#p01580e4c48)" style="fill: none; stroke: #ff0000; stroke-width: 1.5; stroke-linecap: square"/>
    <g clip-path="url(#p01580e4c48)">
     <use xlink:href="#md655db315f" x="724.238699" y="352.457531" style="fill: #ff0000; stroke: #ff0000; stroke-linejoin: bevel"/>
    </g>
   </g>
  </g>
 </g>
 <defs>
  <clipPath id="p01580e4c48">
   <rect x="0" y="0" width="1440" height="1440"/>
  </clipPath>
 </defs>
</svg>
