<?xml version="1.0" encoding="utf-8" standalone="no"?>
<!DOCTYPE svg PUBLIC "-//W3C//DTD SVG 1.1//EN"
  "http://www.w3.org/Graphics/SVG/1.1/DTD/svg11.dtd">
<svg xmlns:xlink="http://www.w3.org/1999/xlink" width="1440pt" height="1440pt" viewBox="0 0 1440 1440" xmlns="http://www.w3.org/2000/svg" version="1.1">
 <metadata>
  <rdf:RDF xmlns:dc="http://purl.org/dc/elements/1.1/" xmlns:cc="http://creativecommons.org/ns#" xmlns:rdf="http://www.w3.org/1999/02/22-rdf-syntax-ns#">
   <cc:Work>
    <dc:type rdf:resource="http://purl.org/dc/dcmitype/StillImage"/>
    <dc:date>2026-02-27T11:04:34.088318</dc:date>
    <dc:format>image/svg+xml</dc:format>
    <dc:creator>
     <cc:Agent>
      <dc:title>Matplotlib v3.7.3, https://matplotlib.org/</dc:title>
     </cc:Agent>
    </dc:creator>
   </cc:Work>
  </rdf:RDF>
 </metadata>
 <defs>
  <style type="text/css">*{stroke-linejoin: round; stroke-linecap: butt}</style>
 </defs>
 <g id="figure_1">
  <g id="patch_1">
   <path d="M 0 1440 
L 1440 1440 
L 1440 0 
L 0 0 
z
" style="fill: #ffffff"/>
  </g>
  <g id="axes_1">
   <g id="line2d_1">
    <path d="M 555.015324 869.709011 
L 413.24347 1441 
" clip-path="url(#pa23fe4ede8)" style="fill: none; stroke: #7a7a7a; stroke-width: 3; stroke-linecap: square"/>
   </g>
   <g id="line2d_2">
    <path d="M 524.234972 869.709011 
L 514.334858 906.537984 
L 509.924808 924.380591 
L 489.944579 1008.446724 
L 480.314469 1042.073177 
L 370.738152 1441 
" clip-path="url(#pa23fe4ede8)" style="fill: none; stroke: #7a7a7a; stroke-width: 3; stroke-linecap: square"/>
   </g>
   <g id="line2d_3">
    <path d="M 474.124454 1441 
L 615.676018 869.709011 
" clip-path="url(#pa23fe4ede8)" style="fill: none; stroke: #7a7a7a; stroke-width: 3; stroke-linecap: square"/>
   </g>
   <g id="line2d_4">
    <path d="M 505.163893 1441 
L 589.485718 1082.562172 
L 642.406324 869.709011 
" clip-path="url(#pa23fe4ede8)" style="fill: none; stroke: #7a7a7a; stroke-width: 3; stroke-linecap: square"/>
   </g>
   <g id="line2d_5">
    <path d="M 585.525673 869.709011 
L 443.552884 1441 
" clip-path="url(#pa23fe4ede8)" style="fill: none; stroke: #7a7a7a; stroke-width: 3; stroke-linecap: square"/>
   </g>
   <g id="line2d_6">
    <path d="M 555.015324 869.709011 
L 413.24347 1441 
" clip-path="url(#pa23fe4ede8)" style="fill: none; stroke: #7a7a7a; stroke-width: 3; stroke-linecap: square"/>
   </g>
   <g id="line2d_7">
    <path d="M 1441 785.2018 
L 1019.600641 620.941884 
" clip-path="url(#pa23fe4ede8)" style="fill: none; stroke: #7a7a7a; stroke-width: 3; stroke-linecap: square"/>
   </g>
   <g id="line2d_8">
    <path d="M 1441 747.460219 
L 1019.330637 585.371044 
" clip-path="url(#pa23fe4ede8)" style="fill: none; stroke: #7a7a7a; stroke-width: 3; stroke-linecap: square"/>
   </g>
   <g id="line2d_9">
    <path d="M 443.552884 1441 
L 585.525673 869.709011 
" clip-path="url(#pa23fe4ede8)" style="fill: none; stroke: #7a7a7a; stroke-width: 3; stroke-linecap: square"/>
   </g>
   <g id="line2d_10">
    <path d="M 474.124454 1441 
L 615.676018 869.709011 
" clip-path="url(#pa23fe4ede8)" style="fill: none; stroke: #7a7a7a; stroke-width: 3; stroke-linecap: square"/>
   </g>
   <g id="line2d_11">
    <path d="M 1441 821.785507 
L 1019.780643 657.542105 
" clip-path="url(#pa23fe4ede8)" style="fill: none; stroke: #7a7a7a; stroke-width: 3; stroke-linecap: square"/>
   </g>
   <g id="line2d_12">
    <path d="M 1441 785.2018 
L 1019.600641 620.941884 
" clip-path="url(#pa23fe4ede8)" style="fill: none; stroke: #7a7a7a; stroke-width: 3; stroke-linecap: square"/>
   </g>
   <g id="line2d_13">
    <path d="M 1441 903.767291 
L 1020.320649 739.091972 
" clip-path="url(#pa23fe4ede8)" style="fill: none; stroke: #7a7a7a; stroke-width: 3; stroke-linecap: square"/>
   </g>
   <g id="line2d_14">
    <path d="M 1441 860.278559 
L 1020.050646 695.286083 
" clip-path="url(#pa23fe4ede8)" style="fill: none; stroke: #7a7a7a; stroke-width: 3; stroke-linecap: square"/>
   </g>
   <g id="line2d_15">
    <path d="M 1441 860.278559 
L 1020.050646 695.286083 
" clip-path="url(#pa23fe4ede8)" style="fill: none; stroke: #7a7a7a; stroke-width: 3; stroke-linecap: square"/>
   </g>
   <g id="line2d_16">
    <path d="M 1441 821.785507 
L 1019.780643 657.542105 
" clip-path="url(#pa23fe4ede8)" style="fill: none; stroke: #7a7a7a; stroke-width: 3; stroke-linecap: square"/>
   </g>
   <g id="line2d_17">
    <path d="M 551.055278 436.225143 
L 201.761281 297.944933 
" clip-path="url(#pa23fe4ede8)" style="fill: none; stroke: #7a7a7a; stroke-width: 3; stroke-linecap: square"/>
   </g>
   <g id="line2d_18">
    <path d="M 558.435363 403.39932 
L 481.574483 373.776016 
L 477.614438 371.831629 
L 201.761281 260.200955 
" clip-path="url(#pa23fe4ede8)" style="fill: none; stroke: #7a7a7a; stroke-width: 3; stroke-linecap: square"/>
   </g>
   <g id="line2d_19">
    <path d="M 601.365854 679.845364 
L 555.55533 867.650249 
L 555.195326 869.137133 
L 555.015324 869.709011 
" clip-path="url(#pa23fe4ede8)" style="fill: none; stroke: #7a7a7a; stroke-width: 3; stroke-linecap: square"/>
   </g>
   <g id="line2d_20">
    <path d="M 572.655526 668.636547 
L 524.774978 867.650249 
L 524.414974 869.137133 
L 524.234972 869.709011 
" clip-path="url(#pa23fe4ede8)" style="fill: none; stroke: #7a7a7a; stroke-width: 3; stroke-linecap: square"/>
   </g>
   <g id="line2d_21">
    <path d="M 791.898035 605.729917 
L 535.4851 504.850558 
" clip-path="url(#pa23fe4ede8)" style="fill: none; stroke: #7a7a7a; stroke-width: 3; stroke-linecap: square"/>
   </g>
   <g id="line2d_22">
    <path d="M 800.898138 570.387828 
L 543.225189 470.766602 
" clip-path="url(#pa23fe4ede8)" style="fill: none; stroke: #7a7a7a; stroke-width: 3; stroke-linecap: square"/>
   </g>
   <g id="line2d_23">
    <path d="M 782.357926 642.787641 
L 754.637608 631.464447 
L 558.525364 552.087718 
L 551.235281 548.885198 
L 527.655011 539.506392 
" clip-path="url(#pa23fe4ede8)" style="fill: none; stroke: #7a7a7a; stroke-width: 3; stroke-linecap: square"/>
   </g>
   <g id="line2d_24">
    <path d="M 791.898035 605.729917 
L 535.4851 504.850558 
" clip-path="url(#pa23fe4ede8)" style="fill: none; stroke: #7a7a7a; stroke-width: 3; stroke-linecap: square"/>
   </g>
   <g id="line2d_25">
    <path d="M 543.225189 470.766602 
L 201.761281 336.375165 
" clip-path="url(#pa23fe4ede8)" style="fill: none; stroke: #7a7a7a; stroke-width: 3; stroke-linecap: square"/>
   </g>
   <g id="line2d_26">
    <path d="M 551.055278 436.225143 
L 201.761281 297.944933 
" clip-path="url(#pa23fe4ede8)" style="fill: none; stroke: #7a7a7a; stroke-width: 3; stroke-linecap: square"/>
   </g>
   <g id="line2d_27">
    <path d="M 1011.770551 654.339585 
L 1010.78054 653.996458 
L 1008.260511 652.967077 
L 1007.450502 652.738326 
L 800.898138 570.387828 
" clip-path="url(#pa23fe4ede8)" style="fill: none; stroke: #7a7a7a; stroke-width: 3; stroke-linecap: square"/>
   </g>
   <g id="line2d_28">
    <path d="M 1011.770551 617.968116 
L 1010.78054 617.624989 
L 1008.17051 616.595607 
L 1007.450502 616.25248 
L 809.178232 537.905132 
" clip-path="url(#pa23fe4ede8)" style="fill: none; stroke: #7a7a7a; stroke-width: 3; stroke-linecap: square"/>
   </g>
   <g id="line2d_29">
    <path d="M 711.437114 349.413994 
L 628.366163 691.397309 
" clip-path="url(#pa23fe4ede8)" style="fill: none; stroke: #7a7a7a; stroke-width: 3; stroke-linecap: square"/>
   </g>
   <g id="line2d_30">
    <path d="M 684.436805 338.433927 
L 601.365854 679.845364 
" clip-path="url(#pa23fe4ede8)" style="fill: none; stroke: #7a7a7a; stroke-width: 3; stroke-linecap: square"/>
   </g>
   <g id="line2d_31">
    <path d="M 809.178232 537.905132 
L 551.055278 436.225143 
" clip-path="url(#pa23fe4ede8)" style="fill: none; stroke: #7a7a7a; stroke-width: 3; stroke-linecap: square"/>
   </g>
   <g id="line2d_32">
    <path d="M 816.018311 507.023696 
L 781.637917 493.069861 
L 596.145795 417.810657 
L 558.435363 403.39932 
" clip-path="url(#pa23fe4ede8)" style="fill: none; stroke: #7a7a7a; stroke-width: 3; stroke-linecap: square"/>
   </g>
   <g id="line2d_33">
    <path d="M 585.525673 869.709011 
L 585.705675 869.137133 
L 586.065679 867.535873 
L 628.366163 691.397309 
" clip-path="url(#pa23fe4ede8)" style="fill: none; stroke: #7a7a7a; stroke-width: 3; stroke-linecap: square"/>
   </g>
   <g id="line2d_34">
    <path d="M 615.676018 869.709011 
L 615.85602 869.137133 
L 616.216024 867.535873 
L 656.626487 701.576746 
" clip-path="url(#pa23fe4ede8)" style="fill: none; stroke: #7a7a7a; stroke-width: 3; stroke-linecap: square"/>
   </g>
   <g id="line2d_35">
    <path d="M 535.4851 504.850558 
L 201.761281 373.089762 
" clip-path="url(#pa23fe4ede8)" style="fill: none; stroke: #7a7a7a; stroke-width: 3; stroke-linecap: square"/>
   </g>
   <g id="line2d_36">
    <path d="M 543.225189 470.766602 
L 201.761281 336.375165 
" clip-path="url(#pa23fe4ede8)" style="fill: none; stroke: #7a7a7a; stroke-width: 3; stroke-linecap: square"/>
   </g>
   <g id="line2d_37">
    <path d="M 711.437114 349.413994 
L 796.637167 -1 
" clip-path="url(#pa23fe4ede8)" style="fill: none; stroke: #7a7a7a; stroke-width: 3; stroke-linecap: square"/>
   </g>
   <g id="line2d_38">
    <path d="M 739.337433 360.851563 
L 827.312 -1 
" clip-path="url(#pa23fe4ede8)" style="fill: none; stroke: #7a7a7a; stroke-width: 3; stroke-linecap: square"/>
   </g>
   <g id="line2d_39">
    <path d="M 1011.770551 735.775077 
L 1010.78054 735.317575 
L 1008.260511 734.402569 
L 1007.540503 734.059442 
L 853.188736 671.381563 
L 848.328681 668.979674 
L 814.938298 656.169596 
L 782.357926 642.787641 
" clip-path="url(#pa23fe4ede8)" style="fill: none; stroke: #7a7a7a; stroke-width: 3; stroke-linecap: square"/>
   </g>
   <g id="line2d_40">
    <path d="M 1011.770551 692.083563 
L 1010.78054 691.740436 
L 1008.260511 690.711055 
L 1007.540503 690.482304 
L 791.898035 605.729917 
" clip-path="url(#pa23fe4ede8)" style="fill: none; stroke: #7a7a7a; stroke-width: 3; stroke-linecap: square"/>
   </g>
   <g id="line2d_41">
    <path d="M 800.898138 570.387828 
L 543.225189 470.766602 
" clip-path="url(#pa23fe4ede8)" style="fill: none; stroke: #7a7a7a; stroke-width: 3; stroke-linecap: square"/>
   </g>
   <g id="line2d_42">
    <path d="M 809.178232 537.905132 
L 551.055278 436.225143 
" clip-path="url(#pa23fe4ede8)" style="fill: none; stroke: #7a7a7a; stroke-width: 3; stroke-linecap: square"/>
   </g>
   <g id="line2d_43">
    <path d="M 527.655011 539.506392 
L 446.834086 507.366823 
L 201.761281 413.921883 
" clip-path="url(#pa23fe4ede8)" style="fill: none; stroke: #7a7a7a; stroke-width: 3; stroke-linecap: square"/>
   </g>
   <g id="line2d_44">
    <path d="M 535.4851 504.850558 
L 201.761281 373.089762 
" clip-path="url(#pa23fe4ede8)" style="fill: none; stroke: #7a7a7a; stroke-width: 3; stroke-linecap: square"/>
   </g>
   <g id="line2d_45">
    <path d="M 1011.770551 617.968116 
L 1010.78054 617.624989 
L 1008.17051 616.595607 
L 1007.450502 616.25248 
L 809.178232 537.905132 
" clip-path="url(#pa23fe4ede8)" style="fill: none; stroke: #7a7a7a; stroke-width: 3; stroke-linecap: square"/>
   </g>
   <g id="line2d_46">
    <path d="M 1011.770551 582.397276 
L 1010.870541 582.054149 
L 1008.17051 581.024768 
L 1007.3605 580.796016 
L 883.879087 532.986977 
L 816.018311 507.023696 
" clip-path="url(#pa23fe4ede8)" style="fill: none; stroke: #7a7a7a; stroke-width: 3; stroke-linecap: square"/>
   </g>
   <g id="line2d_47">
    <path d="M 684.436805 338.433927 
L 601.365854 679.845364 
" clip-path="url(#pa23fe4ede8)" style="fill: none; stroke: #7a7a7a; stroke-width: 3; stroke-linecap: square"/>
   </g>
   <g id="line2d_48">
    <path d="M 654.016457 326.538856 
L 572.655526 668.636547 
" clip-path="url(#pa23fe4ede8)" style="fill: none; stroke: #7a7a7a; stroke-width: 3; stroke-linecap: square"/>
   </g>
   <g id="line2d_49">
    <path d="M 628.366163 691.397309 
L 711.437114 349.413994 
" clip-path="url(#pa23fe4ede8)" style="fill: none; stroke: #7a7a7a; stroke-width: 3; stroke-linecap: square"/>
   </g>
   <g id="line2d_50">
    <path d="M 656.626487 701.576746 
L 739.337433 360.851563 
" clip-path="url(#pa23fe4ede8)" style="fill: none; stroke: #7a7a7a; stroke-width: 3; stroke-linecap: square"/>
   </g>
   <g id="line2d_51">
    <path d="M 1020.050646 695.286083 
L 1011.770551 692.083563 
" clip-path="url(#pa23fe4ede8)" style="fill: none; stroke: #7a7a7a; stroke-width: 3; stroke-linecap: square"/>
   </g>
   <g id="line2d_52">
    <path d="M 1019.780643 657.542105 
L 1011.770551 654.339585 
" clip-path="url(#pa23fe4ede8)" style="fill: none; stroke: #7a7a7a; stroke-width: 3; stroke-linecap: square"/>
   </g>
   <g id="line2d_53">
    <path d="M 1011.770551 692.083563 
L 1010.78054 691.740436 
L 1008.260511 690.711055 
L 1007.540503 690.482304 
L 791.898035 605.729917 
" clip-path="url(#pa23fe4ede8)" style="fill: none; stroke: #7a7a7a; stroke-width: 3; stroke-linecap: square"/>
   </g>
   <g id="line2d_54">
    <path d="M 1011.770551 654.339585 
L 1010.78054 653.996458 
L 1008.260511 652.967077 
L 1007.450502 652.738326 
L 800.898138 570.387828 
" clip-path="url(#pa23fe4ede8)" style="fill: none; stroke: #7a7a7a; stroke-width: 3; stroke-linecap: square"/>
   </g>
   <g id="line2d_55">
    <path d="M 656.626487 701.576746 
L 739.337433 360.851563 
" clip-path="url(#pa23fe4ede8)" style="fill: none; stroke: #7a7a7a; stroke-width: 3; stroke-linecap: square"/>
   </g>
   <g id="line2d_56">
    <path d="M 680.47676 710.955552 
L 691.096881 668.636547 
L 749.50755 420.8988 
L 752.657586 407.059342 
L 761.837691 370.115994 
" clip-path="url(#pa23fe4ede8)" style="fill: none; stroke: #7a7a7a; stroke-width: 3; stroke-linecap: square"/>
   </g>
   <g id="line2d_57">
    <path d="M 739.337433 360.851563 
L 827.312 -1 
" clip-path="url(#pa23fe4ede8)" style="fill: none; stroke: #7a7a7a; stroke-width: 3; stroke-linecap: square"/>
   </g>
   <g id="line2d_58">
    <path d="M 761.837691 370.115994 
L 769.937783 337.061419 
L 853.099266 -1 
" clip-path="url(#pa23fe4ede8)" style="fill: none; stroke: #7a7a7a; stroke-width: 3; stroke-linecap: square"/>
   </g>
   <g id="line2d_59">
    <path d="M 628.366163 691.397309 
L 586.065679 867.535873 
L 585.705675 869.137133 
L 585.525673 869.709011 
" clip-path="url(#pa23fe4ede8)" style="fill: none; stroke: #7a7a7a; stroke-width: 3; stroke-linecap: square"/>
   </g>
   <g id="line2d_60">
    <path d="M 601.365854 679.845364 
L 555.55533 867.650249 
L 555.195326 869.137133 
L 555.015324 869.709011 
" clip-path="url(#pa23fe4ede8)" style="fill: none; stroke: #7a7a7a; stroke-width: 3; stroke-linecap: square"/>
   </g>
   <g id="line2d_61">
    <path d="M 1020.320649 739.091972 
L 1011.770551 735.775077 
" clip-path="url(#pa23fe4ede8)" style="fill: none; stroke: #7a7a7a; stroke-width: 3; stroke-linecap: square"/>
   </g>
   <g id="line2d_62">
    <path d="M 1020.050646 695.286083 
L 1011.770551 692.083563 
" clip-path="url(#pa23fe4ede8)" style="fill: none; stroke: #7a7a7a; stroke-width: 3; stroke-linecap: square"/>
   </g>
   <g id="line2d_63">
    <path d="M 809.178232 537.905132 
L 782.087922 525.895685 
L 760.93768 513.428734 
L 745.097499 500.389906 
L 734.027372 486.664823 
L 727.097293 472.13911 
L 723.677254 456.698392 
L 723.31725 440.228292 
L 725.297273 422.50006 
L 728.987315 403.513695 
L 739.337433 360.851563 
" clip-path="url(#pa23fe4ede8)" style="fill: none; stroke: #7a7a7a; stroke-width: 3; stroke-linecap: square"/>
   </g>
   <g id="line2d_64">
    <path d="M 816.018311 507.023696 
L 811.878263 505.422436 
L 781.637917 493.069861 
L 773.087819 488.837961 
L 767.507756 485.292314 
L 762.827702 481.17479 
L 758.417652 475.799132 
L 757.157637 473.74037 
L 753.287593 468.936591 
L 748.877542 456.584016 
L 746.627517 441.486425 
L 747.617528 435.76764 
L 748.337536 428.33322 
L 749.50755 420.8988 
L 752.657586 407.059342 
L 761.837691 370.115994 
" clip-path="url(#pa23fe4ede8)" style="fill: none; stroke: #7a7a7a; stroke-width: 3; stroke-linecap: square"/>
   </g>
   <g id="line2d_65">
    <path d="M 628.366163 691.397309 
L 631.786202 671.267188 
L 632.236208 650.908315 
L 629.716179 631.006944 
L 624.226116 612.249331 
L 615.85602 594.864226 
L 604.605891 579.652259 
L 590.565731 567.070933 
L 573.735538 557.692127 
L 527.655011 539.506392 
" clip-path="url(#pa23fe4ede8)" style="fill: none; stroke: #7a7a7a; stroke-width: 3; stroke-linecap: square"/>
   </g>
   <g id="line2d_66">
    <path d="M 656.626487 701.576746 
L 661.396541 675.499088 
L 662.926559 650.908315 
L 661.486542 628.033177 
L 657.166493 606.873674 
L 650.146413 587.544182 
L 640.696304 570.273453 
L 628.906169 555.061486 
L 614.95601 542.022657 
L 599.115829 531.385718 
L 581.565628 523.036292 
L 535.4851 504.850558 
" clip-path="url(#pa23fe4ede8)" style="fill: none; stroke: #7a7a7a; stroke-width: 3; stroke-linecap: square"/>
   </g>
   <g id="line2d_67">
    <path d="M 615.676018 869.709011 
L 615.85602 869.137133 
L 616.216024 867.535873 
L 656.626487 701.576746 
" clip-path="url(#pa23fe4ede8)" style="fill: none; stroke: #7a7a7a; stroke-width: 3; stroke-linecap: square"/>
   </g>
   <g id="line2d_68">
    <path d="M 642.406324 869.709011 
L 642.496325 869.137133 
L 642.94633 867.535873 
L 671.386656 747.555773 
L 680.47676 710.955552 
" clip-path="url(#pa23fe4ede8)" style="fill: none; stroke: #7a7a7a; stroke-width: 3; stroke-linecap: square"/>
   </g>
   <g id="line2d_69">
    <path d="M 1019.600641 620.941884 
L 1011.770551 617.968116 
" clip-path="url(#pa23fe4ede8)" style="fill: none; stroke: #7a7a7a; stroke-width: 3; stroke-linecap: square"/>
   </g>
   <g id="line2d_70">
    <path d="M 1019.330637 585.371044 
L 1011.770551 582.397276 
" clip-path="url(#pa23fe4ede8)" style="fill: none; stroke: #7a7a7a; stroke-width: 3; stroke-linecap: square"/>
   </g>
   <g id="line2d_71">
    <path d="M 782.357926 642.787641 
L 754.637608 631.464447 
L 750.947566 630.206315 
L 732.227352 622.657519 
L 716.657174 618.65437 
L 700.726991 619.111873 
L 684.976811 623.572525 
L 669.946639 631.578823 
L 656.266483 642.787641 
L 644.386347 656.855851 
L 634.846237 673.211574 
L 628.366163 691.397309 
" clip-path="url(#pa23fe4ede8)" style="fill: none; stroke: #7a7a7a; stroke-width: 3; stroke-linecap: square"/>
   </g>
   <g id="line2d_72">
    <path d="M 791.898035 605.729917 
L 741.67746 585.599795 
L 723.857256 580.910392 
L 705.947051 580.224138 
L 688.39685 583.08353 
L 671.476657 589.374193 
L 655.546474 598.638624 
L 640.876306 610.648072 
L 627.826157 625.059409 
L 616.666029 641.643884 
L 607.755927 660.05837 
L 601.365854 679.845364 
" clip-path="url(#pa23fe4ede8)" style="fill: none; stroke: #7a7a7a; stroke-width: 3; stroke-linecap: square"/>
   </g>
   <g id="line2d_73">
    <path d="M 767.108078 -1 
L 684.436805 338.433927 
" clip-path="url(#pa23fe4ede8)" style="fill: none; stroke: #7a7a7a; stroke-width: 3; stroke-linecap: square"/>
   </g>
   <g id="line2d_74">
    <path d="M 738.793155 -1 
L 654.016457 326.538856 
" clip-path="url(#pa23fe4ede8)" style="fill: none; stroke: #7a7a7a; stroke-width: 3; stroke-linecap: square"/>
   </g>
   <g id="line2d_75">
    <path d="M 796.637167 -1 
L 711.437114 349.413994 
" clip-path="url(#pa23fe4ede8)" style="fill: none; stroke: #7a7a7a; stroke-width: 3; stroke-linecap: square"/>
   </g>
   <g id="line2d_76">
    <path d="M 767.108078 -1 
L 684.436805 338.433927 
" clip-path="url(#pa23fe4ede8)" style="fill: none; stroke: #7a7a7a; stroke-width: 3; stroke-linecap: square"/>
   </g>
   <g id="line2d_77">
    <path d="M 684.436805 338.433927 
L 679.756751 357.99217 
L 675.076698 376.749784 
L 669.766637 394.36364 
L 663.466565 410.376237 
L 655.636475 424.215695 
L 645.916364 435.424513 
L 633.676224 443.545187 
L 618.556051 448.234591 
L 600.10584 448.920845 
L 577.695583 445.032071 
L 551.055278 436.225143 
" clip-path="url(#pa23fe4ede8)" style="fill: none; stroke: #7a7a7a; stroke-width: 3; stroke-linecap: square"/>
   </g>
   <g id="line2d_78">
    <path d="M 654.016457 326.538856 
L 642.316323 374.576646 
L 639.076286 385.556712 
L 635.836249 393.219883 
L 631.246196 400.539927 
L 625.846134 406.716215 
L 618.46605 412.320624 
L 611.085965 415.86627 
L 603.255876 417.810657 
L 596.145795 417.810657 
L 558.435363 403.39932 
" clip-path="url(#pa23fe4ede8)" style="fill: none; stroke: #7a7a7a; stroke-width: 3; stroke-linecap: square"/>
   </g>
   <g id="line2d_79">
    <path d="M 1019.780643 657.542105 
L 1011.770551 654.339585 
" clip-path="url(#pa23fe4ede8)" style="fill: none; stroke: #7a7a7a; stroke-width: 3; stroke-linecap: square"/>
   </g>
   <g id="line2d_80">
    <path d="M 1019.600641 620.941884 
L 1011.770551 617.968116 
" clip-path="url(#pa23fe4ede8)" style="fill: none; stroke: #7a7a7a; stroke-width: 3; stroke-linecap: square"/>
   </g>
   <g id="line2d_81">
    <path d="M 861.198454 536.400628 
L 855.41134 539.851306 
" clip-path="url(#pa23fe4ede8)" style="fill: none; stroke-dasharray: 32,8,5,8; stroke-dashoffset: 0; stroke: #1e90ff; stroke-width: 5"/>
   </g>
   <g id="line2d_82">
    <path d="M 1159.112081 662.073571 
L 1157.774755 661.348252 
" clip-path="url(#pa23fe4ede8)" style="fill: none; stroke-dasharray: 32,8,5,8; stroke-dashoffset: 0; stroke: #1e90ff; stroke-width: 5"/>
   </g>
   <g id="line2d_83">
    <path d="M 1304.189852 783.580989 
L 1304.998455 781.816906 
" clip-path="url(#pa23fe4ede8)" style="fill: none; stroke-dasharray: 32,8,5,8; stroke-dashoffset: 0; stroke: #1e90ff; stroke-width: 5"/>
   </g>
   <g id="line2d_84">
    <path d="M 721.927299 58.752972 
L 723.139379 57.187845 
" clip-path="url(#pa23fe4ede8)" style="fill: none; stroke-dasharray: 32,8,5,8; stroke-dashoffset: 0; stroke: #1e90ff; stroke-width: 5"/>
   </g>
   <g id="line2d_85">
    <path d="M 661.343323 637.442029 
L 744.943645 278.341174 
" clip-path="url(#pa23fe4ede8)" style="fill: none; stroke-dasharray: 32,8,5,8; stroke-dashoffset: 0; stroke: #1e90ff; stroke-width: 5"/>
   </g>
   <g id="line2d_86">
    <path d="M 1014.895373 637.455293 
L 1013.577273 641.639667 
" clip-path="url(#pa23fe4ede8)" style="fill: none; stroke-dasharray: 32,8,5,8; stroke-dashoffset: 0; stroke: #1e90ff; stroke-width: 5"/>
   </g>
   <g id="line2d_87">
    <path d="M 322.170069 366.671683 
L 180.00206 318.647017 
" clip-path="url(#pa23fe4ede8)" style="fill: none; stroke-dasharray: 32,8,5,8; stroke-dashoffset: 0; stroke: #1e90ff; stroke-width: 5"/>
   </g>
   <g id="line2d_88">
    <path d="M 485.627079 1029.418914 
L 491.112066 1028.539316 
" clip-path="url(#pa23fe4ede8)" style="fill: none; stroke-dasharray: 32,8,5,8; stroke-dashoffset: 0; stroke: #1e90ff; stroke-width: 5"/>
   </g>
   <g id="line2d_89">
    <path d="M 476.495138 1095.774826 
L 478.777574 1096.872928 
" clip-path="url(#pa23fe4ede8)" style="fill: none; stroke-dasharray: 32,8,5,8; stroke-dashoffset: 0; stroke: #1e90ff; stroke-width: 5"/>
   </g>
   <g id="line2d_90">
    <path d="M 611.116277 865.294266 
L 571.143163 611.088289 
" clip-path="url(#pa23fe4ede8)" style="fill: none; stroke-dasharray: 32,8,5,8; stroke-dashoffset: 0; stroke: #1e90ff; stroke-width: 5"/>
   </g>
   <g id="line2d_91">
    <path d="M 870.003822 616.009153 
L 862.208659 616.229052 
" clip-path="url(#pa23fe4ede8)" style="fill: none; stroke-dasharray: 32,8,5,8; stroke-dashoffset: 0; stroke: #1e90ff; stroke-width: 5"/>
   </g>
   <g id="line2d_92">
    <path d="M 861.198454 536.400628 
" clip-path="url(#pa23fe4ede8)" style="fill: none; stroke: #0000ff; stroke-width: 1.5; stroke-linecap: square"/>
    <defs>
     <path id="m821c2ac278" d="M 0 10 
C 2.652031 10 5.195799 8.946337 7.071068 7.071068 
C 8.946337 5.195799 10 2.652031 10 0 
C 10 -2.652031 8.946337 -5.195799 7.071068 -7.071068 
C 5.195799 -8.946337 2.652031 -10 0 -10 
C -2.652031 -10 -5.195799 -8.946337 -7.071068 -7.071068 
C -8.946337 -5.195799 -10 -2.652031 -10 0 
C -10 2.652031 -8.946337 5.195799 -7.071068 7.071068 
C -5.195799 8.946337 -2.652031 10 0 10 
z
" style="stroke: #0000ff"/>
    </defs>
    <g clip-path="url(#pa23fe4ede8)">
     <use xlink:href="#m821c2ac278" x="861.198454" y="536.400628" style="fill: #0000ff; stroke: #0000ff"/>
    </g>
   </g>
   <g id="line2d_93">
    <path d="M 1159.112081 662.073571 
" clip-path="url(#pa23fe4ede8)" style="fill: none; stroke: #0000ff; stroke-width: 1.5; stroke-linecap: square"/>
    <g clip-path="url(#pa23fe4ede8)">
     <use xlink:href="#m821c2ac278" x="1159.112081" y="662.073571" style="fill: #0000ff; stroke: #0000ff"/>
    </g>
   </g>
   <g id="line2d_94">
    <path d="M 1304.189852 783.580989 
" clip-path="url(#pa23fe4ede8)" style="fill: none; stroke: #0000ff; stroke-width: 1.5; stroke-linecap: square"/>
    <g clip-path="url(#pa23fe4ede8)">
     <use xlink:href="#m821c2ac278" x="1304.189852" y="783.580989" style="fill: #0000ff; stroke: #0000ff"/>
    </g>
   </g>
   <g id="line2d_95">
    <path d="M 721.927299 58.752972 
" clip-path="url(#pa23fe4ede8)" style="fill: none; stroke: #0000ff; stroke-width: 1.5; stroke-linecap: square"/>
    <g clip-path="url(#pa23fe4ede8)">
     <use xlink:href="#m821c2ac278" x="721.927299" y="58.752972" style="fill: #0000ff; stroke: #0000ff"/>
    </g>
   </g>
   <g id="line2d_96">
    <path d="M 661.343323 637.442029 
" clip-path="url(#pa23fe4ede8)" style="fill: none; stroke: #0000ff; stroke-width: 1.5; stroke-linecap: square"/>
    <g clip-path="url(#pa23fe4ede8)">
     <use xlink:href="#m821c2ac278" x="661.343323" y="637.442029" style="fill: #0000ff; stroke: #0000ff"/>
    </g>
   </g>
   <g id="line2d_97">
    <path d="M 1014.895373 637.455293 
" clip-path="url(#pa23fe4ede8)" style="fill: none; stroke: #0000ff; stroke-width: 1.5; stroke-linecap: square"/>
    <g clip-path="url(#pa23fe4ede8)">
     <use xlink:href="#m821c2ac278" x="1014.895373" y="637.455293" style="fill: #0000ff; stroke: #0000ff"/>
    </g>
   </g>
   <g id="line2d_98">
    <path d="M 322.170069 366.671683 
" clip-path="url(#pa23fe4ede8)" style="fill: none; stroke: #0000ff; stroke-width: 1.5; stroke-linecap: square"/>
    <g clip-path="url(#pa23fe4ede8)">
     <use xlink:href="#m821c2ac278" x="322.170069" y="366.671683" style="fill: #0000ff; stroke: #0000ff"/>
    </g>
   </g>
   <g id="line2d_99">
    <path d="M 485.627079 1029.418914 
" clip-path="url(#pa23fe4ede8)" style="fill: none; stroke: #0000ff; stroke-width: 1.5; stroke-linecap: square"/>
    <g clip-path="url(#pa23fe4ede8)">
     <use xlink:href="#m821c2ac278" x="485.627079" y="1029.418914" style="fill: #0000ff; stroke: #0000ff"/>
    </g>
   </g>
   <g id="line2d_100">
    <path d="M 476.495138 1095.774826 
" clip-path="url(#pa23fe4ede8)" style="fill: none; stroke: #0000ff; stroke-width: 1.5; stroke-linecap: square"/>
    <g clip-path="url(#pa23fe4ede8)">
     <use xlink:href="#m821c2ac278" x="476.495138" y="1095.774826" style="fill: #0000ff; stroke: #0000ff"/>
    </g>
   </g>
   <g id="line2d_101">
    <path d="M 611.116277 865.294266 
" clip-path="url(#pa23fe4ede8)" style="fill: none; stroke: #0000ff; stroke-width: 1.5; stroke-linecap: square"/>
    <g clip-path="url(#pa23fe4ede8)">
     <use xlink:href="#m821c2ac278" x="611.116277" y="865.294266" style="fill: #0000ff; stroke: #0000ff"/>
    </g>
   </g>
   <g id="line2d_102">
    <path d="M 870.003822 616.009153 
" clip-path="url(#pa23fe4ede8)" style="fill: none; stroke: #0000ff; stroke-width: 1.5; stroke-linecap: square"/>
    <g clip-path="url(#pa23fe4ede8)">
     <use xlink:href="#m821c2ac278" x="870.003822" y="616.009153" style="fill: #0000ff; stroke: #0000ff"/>
    </g>
   </g>
   <g id="line2d_103">
    <path d="M 855.41134 539.851306 
" clip-path="url(#pa23fe4ede8)" style="fill: none; stroke: #ff0000; stroke-width: 1.5; stroke-linecap: square"/>
    <defs>
     <path id="m0620c0c296" d="M 0 -10 
L -2.24514 -3.09017 
L -9.510565 -3.09017 
L -3.632713 1.18034 
L -5.877853 8.09017 
L -0 3.81966 
L 5.877853 8.09017 
L 3.632713 1.18034 
L 9.510565 -3.09017 
L 2.24514 -3.09017 
z
" style="stroke: #ff0000; stroke-linejoin: bevel"/>
    </defs>
    <g clip-path="url(#pa23fe4ede8)">
     <use xlink:href="#m0620c0c296" x="855.41134" y="539.851306" style="fill: #ff0000; stroke: #ff0000; stroke-linejoin: bevel"/>
    </g>
   </g>
   <g id="line2d_104">
    <path d="M 1157.774755 661.348252 
" clip-path="url(#pa23fe4ede8)" style="fill: none; stroke: #ff0000; stroke-width: 1.5; stroke-linecap: square"/>
    <g clip-path="url(#pa23fe4ede8)">
     <use xlink:href="#m0620c0c296" x="1157.774755" y="661.348252" style="fill: #ff0000; stroke: #ff0000; stroke-linejoin: bevel"/>
    </g>
   </g>
   <g id="line2d_105">
    <path d="M 1304.998455 781.816906 
" clip-path="url(#pa23fe4ede8)" style="fill: none; stroke: #ff0000; stroke-width: 1.5; stroke-linecap: square"/>
    <g clip-path="url(#pa23fe4ede8)">
     <use xlink:href="#m0620c0c296" x="1304.998455" y="781.816906" style="fill: #ff0000; stroke: #ff0000; stroke-linejoin: bevel"/>
    </g>
   </g>
   <g id="line2d_106">
    <path d="M 723.139379 57.187845 
" clip-path="url(#pa23fe4ede8)" style="fill: none; stroke: #ff0000; stroke-width: 1.5; stroke-linecap: square"/>
    <g clip-path="url(#pa23fe4ede8)">
     <use xlink:href="#m0620c0c296" x="723.139379" y="57.187845" style="fill: #ff0000; stroke: #ff0000; stroke-linejoin: bevel"/>
    </g>
   </g>
   <g id="line2d_107">
    <path d="M 744.943645 278.341174 
" clip-path="url(#pa23fe4ede8)" style="fill: none; stroke: #ff0000; stroke-width: 1.5; stroke-linecap: square"/>
    <g clip-path="url(#pa23fe4ede8)">
     <use xlink:href="#m0620c0c296" x="744.943645" y="278.341174" style="fill: #ff0000; stroke: #ff0000; stroke-linejoin: bevel"/>
    </g>
   </g>
   <g id="line2d_108">
    <path d="M 1013.577273 641.639667 
" clip-path="url(#pa23fe4ede8)" style="fill: none; stroke: #ff0000; stroke-width: 1.5; stroke-linecap: square"/>
    <g clip-path="url(#pa23fe4ede8)">
     <use xlink:href="#m0620c0c296" x="1013.577273" y="641.639667" style="fill: #ff0000; stroke: #ff0000; stroke-linejoin: bevel"/>
    </g>
   </g>
   <g id="line2d_109">
    <path d="M 180.00206 318.647017 
" clip-path="url(#pa23fe4ede8)" style="fill: none; stroke: #ff0000; stroke-width: 1.5; stroke-linecap: square"/>
    <g clip-path="url(#pa23fe4ede8)">
     <use xlink:href="#m0620c0c296" x="180.00206" y="318.647017" style="fill: #ff0000; stroke: #ff0000; stroke-linejoin: bevel"/>
    </g>
   </g>
   <g id="line2d_110">
    <path d="M 491.112066 1028.539316 
" clip-path="url(#pa23fe4ede8)" style="fill: none; stroke: #ff0000; stroke-width: 1.5; stroke-linecap: square"/>
    <g clip-path="url(#pa23fe4ede8)">
     <use xlink:href="#m0620c0c296" x="491.112066" y="1028.539316" style="fill: #ff0000; stroke: #ff0000; stroke-linejoin: bevel"/>
    </g>
   </g>
   <g id="line2d_111">
    <path d="M 478.777574 1096.872928 
" clip-path="url(#pa23fe4ede8)" style="fill: none; stroke: #ff0000; stroke-width: 1.5; stroke-linecap: square"/>
    <g clip-path="url(#pa23fe4ede8)">
     <use xlink:href="#m0620c0c296" x="478.777574" y="1096.872928" style="fill: #ff0000; stroke: #ff0000; stroke-linejoin: bevel"/>
    </g>
   </g>
   <g id="line2d_112">
    <path d="M 571.143163 611.088289 
" clip-path="url(#pa23fe4ede8)" style="fill: none; stroke: #ff0000; stroke-width: 1.5; stroke-linecap: square"/>
    <g clip-path="url(#pa23fe4ede8)">
     <use xlink:href="#m0620c0c296" x="571.143163" y="611.088289" style="fill: #ff0000; stroke: #ff0000; stroke-linejoin: bevel"/>
    </g>
   </g>
   <g id="line2d_113">
    <path d="M 862.208659 616.229052 
" clip-path="url(#pa23fe4ede8)" style="fill: none; stroke: #ff0000; stroke-width: 1.5; stroke-linecap: square"/>
    <g clip-path="url(#pa23fe4ede8)">
     <use xlink:href="#m0620c0c296" x="862.208659" y="616.229052" style="fill: #ff0000; stroke: #ff0000; stroke-linejoin: bevel"/>
    </g>
   </g>
  </g>
 </g>
 <defs>
  <clipPath id="pa23fe4ede8">
   <rect x="0" y="0" width="1440" height="1440"/>
  </clipPath>
 </defs>
</svg>
