<?xml version="1.0" encoding="utf-8" standalone="no"?>
<!DOCTYPE svg PUBLIC "-//W3C//DTD SVG 1.1//EN"
  "http://www.w3.org/Graphics/SVG/1.1/DTD/svg11.dtd">
<svg xmlns:xlink="http://www.w3.org/1999/xlink" width="1440pt" height="1440pt" viewBox="0 0 1440 1440" xmlns="http://www.w3.org/2000/svg" version="1.1">
 <metadata>
  <rdf:RDF xmlns:dc="http://purl.org/dc/elements/1.1/" xmlns:cc="http://creativecommons.org/ns#" xmlns:rdf="http://www.w3.org/1999/02/22-rdf-syntax-ns#">
   <cc:Work>
    <dc:type rdf:resource="http://purl.org/dc/dcmitype/StillImage"/>
    <dc:date>2026-02-27T11:05:02.363280</dc:date>
    <dc:format>image/svg+xml</dc:format>
    <dc:creator>
     <cc:Agent>
      <dc:title>Matplotlib v3.7.3, https://matplotlib.org/</dc:title>
     </cc:Agent>
    </dc:creator>
   </cc:Work>
  </rdf:RDF>
 </metadata>
 <defs>
  <style type="text/css">*{stroke-linejoin: round; stroke-linecap: butt}</style>
 </defs>
 <g id="figure_1">
  <g id="patch_1">
   <path d="M 0 1440 
L 1440 1440 
L 1440 0 
L 0 0 
z
" style="fill: #ffffff"/>
  </g>
  <g id="axes_1">
   <g id="line2d_1">
    <path d="M 791.087982 600.779435 
L 972.158403 529.666521 
" clip-path="url(#p3ef6b3473a)" style="fill: none; stroke: #7a7a7a; stroke-width: 3; stroke-linecap: square"/>
   </g>
   <g id="line2d_2">
    <path d="M 791.087982 654.278733 
L 982.943582 579.708942 
" clip-path="url(#p3ef6b3473a)" style="fill: none; stroke: #7a7a7a; stroke-width: 3; stroke-linecap: square"/>
   </g>
   <g id="line2d_3">
    <path d="M 666.020104 538.391022 
L 790.552073 490.159347 
L 791.087982 489.994734 
" clip-path="url(#p3ef6b3473a)" style="fill: none; stroke: #7a7a7a; stroke-width: 3; stroke-linecap: square"/>
   </g>
   <g id="line2d_4">
    <path d="M 667.828799 589.421122 
L 790.552073 539.049475 
L 791.087982 538.884862 
" clip-path="url(#p3ef6b3473a)" style="fill: none; stroke: #7a7a7a; stroke-width: 3; stroke-linecap: square"/>
   </g>
   <g id="line2d_5">
    <path d="M 188.1898 776.750972 
L 489.102982 659.546356 
" clip-path="url(#p3ef6b3473a)" style="fill: none; stroke: #7a7a7a; stroke-width: 3; stroke-linecap: square"/>
   </g>
   <g id="line2d_6">
    <path d="M 188.1898 838.645544 
L 367.183572 767.038792 
L 489.839857 720.617862 
" clip-path="url(#p3ef6b3473a)" style="fill: none; stroke: #7a7a7a; stroke-width: 3; stroke-linecap: square"/>
   </g>
   <g id="line2d_7">
    <path d="M 959.631519 471.228827 
L 1163.61207 389.909893 
" clip-path="url(#p3ef6b3473a)" style="fill: none; stroke: #7a7a7a; stroke-width: 3; stroke-linecap: square"/>
   </g>
   <g id="line2d_8">
    <path d="M 972.158403 529.666521 
L 1169.975995 449.829107 
" clip-path="url(#p3ef6b3473a)" style="fill: none; stroke: #7a7a7a; stroke-width: 3; stroke-linecap: square"/>
   </g>
   <g id="line2d_9">
    <path d="M 1169.975995 449.829107 
L 1393.450255 361.925645 
L 1393.986164 361.761032 
" clip-path="url(#p3ef6b3473a)" style="fill: none; stroke: #7a7a7a; stroke-width: 3; stroke-linecap: square"/>
   </g>
   <g id="line2d_10">
    <path d="M 1177.344751 499.871528 
L 1393.450255 414.931104 
L 1393.986164 414.76649 
" clip-path="url(#p3ef6b3473a)" style="fill: none; stroke: #7a7a7a; stroke-width: 3; stroke-linecap: square"/>
   </g>
   <g id="line2d_11">
    <path d="M 984.618299 127.681026 
L 1108.413392 716.667145 
" clip-path="url(#p3ef6b3473a)" style="fill: none; stroke: #7a7a7a; stroke-width: 3; stroke-linecap: square"/>
   </g>
   <g id="line2d_12">
    <path d="M 953.267593 150.726878 
L 1059.846594 630.080589 
L 1062.727108 639.628156 
L 1066.143531 653.12644 
L 1071.636603 677.818424 
L 1075.187003 696.255105 
L 1085.704227 746.626752 
" clip-path="url(#p3ef6b3473a)" style="fill: none; stroke: #7a7a7a; stroke-width: 3; stroke-linecap: square"/>
   </g>
   <g id="line2d_13">
    <path d="M 1393.986164 297.726487 
L 1393.450255 297.891101 
L 1163.61207 389.909893 
" clip-path="url(#p3ef6b3473a)" style="fill: none; stroke: #7a7a7a; stroke-width: 3; stroke-linecap: square"/>
   </g>
   <g id="line2d_14">
    <path d="M 1393.986164 249.000973 
L 1393.450255 249.165586 
L 1160.597579 342.007445 
" clip-path="url(#p3ef6b3473a)" style="fill: none; stroke: #7a7a7a; stroke-width: 3; stroke-linecap: square"/>
   </g>
   <g id="line2d_15">
    <path d="M 949.918159 426.124803 
L 791.087982 489.994734 
" clip-path="url(#p3ef6b3473a)" style="fill: none; stroke: #7a7a7a; stroke-width: 3; stroke-linecap: square"/>
   </g>
   <g id="line2d_16">
    <path d="M 938.195139 371.802439 
L 791.087982 429.910907 
" clip-path="url(#p3ef6b3473a)" style="fill: none; stroke: #7a7a7a; stroke-width: 3; stroke-linecap: square"/>
   </g>
   <g id="line2d_17">
    <path d="M 1163.61207 389.909893 
L 1393.450255 297.891101 
L 1393.986164 297.726487 
" clip-path="url(#p3ef6b3473a)" style="fill: none; stroke: #7a7a7a; stroke-width: 3; stroke-linecap: square"/>
   </g>
   <g id="line2d_18">
    <path d="M 1169.975995 449.829107 
L 1393.450255 361.925645 
L 1393.986164 361.761032 
" clip-path="url(#p3ef6b3473a)" style="fill: none; stroke: #7a7a7a; stroke-width: 3; stroke-linecap: square"/>
   </g>
   <g id="line2d_19">
    <path d="M 1006.657577 111.384317 
L 1034.390893 237.971887 
L 1039.348056 261.511578 
L 1045.578004 284.228203 
L 1053.013748 305.792535 
L 1061.5883 326.039962 
L 1071.234671 344.476643 
L 1081.952861 360.608739 
L 1093.608892 374.107024 
L 1106.068788 384.806883 
L 1119.399537 392.049865 
L 1133.53415 395.506743 
L 1148.271661 394.84829 
L 1163.61207 389.909893 
" clip-path="url(#p3ef6b3473a)" style="fill: none; stroke: #7a7a7a; stroke-width: 3; stroke-linecap: square"/>
   </g>
   <g id="line2d_20">
    <path d="M 984.618299 127.681026 
L 1012.418604 254.103983 
L 1018.179631 278.96058 
L 1024.677534 302.335658 
L 1031.845323 324.558443 
L 1039.682999 345.299709 
L 1048.123574 364.394844 
L 1057.301024 382.008459 
L 1067.148361 397.811328 
L 1077.598596 411.803452 
L 1088.785707 423.820218 
L 1100.642705 433.861624 
L 1113.169589 441.763059 
L 1126.36636 447.359909 
L 1140.233018 450.652173 
L 1154.769564 451.47524 
L 1169.975995 449.829107 
" clip-path="url(#p3ef6b3473a)" style="fill: none; stroke: #7a7a7a; stroke-width: 3; stroke-linecap: square"/>
   </g>
   <g id="line2d_21">
    <path d="M 1127.9071 690.987482 
L 1006.657577 111.384317 
" clip-path="url(#p3ef6b3473a)" style="fill: none; stroke: #7a7a7a; stroke-width: 3; stroke-linecap: square"/>
   </g>
   <g id="line2d_22">
    <path d="M 1148.673593 663.8263 
L 1034.457882 90.972277 
" clip-path="url(#p3ef6b3473a)" style="fill: none; stroke: #7a7a7a; stroke-width: 3; stroke-linecap: square"/>
   </g>
   <g id="line2d_23">
    <path d="M 1163.61207 389.909893 
L 1149.678423 395.012903 
L 1137.218528 406.535829 
L 1126.299372 423.820218 
L 1116.987944 445.87839 
L 1109.351234 471.887279 
L 1103.322252 500.859207 
L 1098.967987 532.300333 
L 1096.355429 564.893751 
L 1095.417587 598.145623 
L 1096.28844 631.068268 
L 1098.900999 662.83862 
L 1103.389241 692.469001 
L 1108.413392 716.667145 
" clip-path="url(#p3ef6b3473a)" style="fill: none; stroke: #7a7a7a; stroke-width: 3; stroke-linecap: square"/>
   </g>
   <g id="line2d_24">
    <path d="M 1160.597579 342.007445 
L 1146.529955 347.604295 
L 1133.53415 356.987248 
L 1121.677152 369.662467 
L 1110.824985 385.62995 
L 1101.178614 404.395857 
L 1092.738039 425.795576 
L 1085.503261 449.499881 
L 1079.474279 475.344157 
L 1074.785071 502.999179 
L 1071.435637 531.971107 
L 1069.358988 562.424553 
L 1068.75609 593.536453 
L 1069.492965 625.471418 
L 1071.703592 657.73561 
L 1075.454958 690.164416 
L 1080.680076 722.428608 
L 1085.704227 746.626752 
" clip-path="url(#p3ef6b3473a)" style="fill: none; stroke: #7a7a7a; stroke-width: 3; stroke-linecap: square"/>
   </g>
   <g id="line2d_25">
    <path d="M 938.195139 371.802439 
L 791.087982 429.910907 
" clip-path="url(#p3ef6b3473a)" style="fill: none; stroke: #7a7a7a; stroke-width: 3; stroke-linecap: square"/>
   </g>
   <g id="line2d_26">
    <path d="M 927.811892 323.735377 
L 791.087982 379.868487 
" clip-path="url(#p3ef6b3473a)" style="fill: none; stroke: #7a7a7a; stroke-width: 3; stroke-linecap: square"/>
   </g>
   <g id="line2d_27">
    <path d="M 1393.986164 190.398665 
L 1393.450255 190.563278 
L 1156.98019 284.557429 
" clip-path="url(#p3ef6b3473a)" style="fill: none; stroke: #7a7a7a; stroke-width: 3; stroke-linecap: square"/>
   </g>
   <g id="line2d_28">
    <path d="M 1393.986164 138.216273 
L 1393.450255 138.380886 
L 1153.831722 233.362717 
" clip-path="url(#p3ef6b3473a)" style="fill: none; stroke: #7a7a7a; stroke-width: 3; stroke-linecap: square"/>
   </g>
   <g id="line2d_29">
    <path d="M 1393.986164 249.000973 
L 1393.450255 249.165586 
L 1160.597579 342.007445 
" clip-path="url(#p3ef6b3473a)" style="fill: none; stroke: #7a7a7a; stroke-width: 3; stroke-linecap: square"/>
   </g>
   <g id="line2d_30">
    <path d="M 1393.986164 190.398665 
L 1393.450255 190.563278 
L 1156.98019 284.557429 
" clip-path="url(#p3ef6b3473a)" style="fill: none; stroke: #7a7a7a; stroke-width: 3; stroke-linecap: square"/>
   </g>
   <g id="line2d_31">
    <path d="M 1186.991122 955.520934 
L 1162.60724 846.382366 
L 1127.9071 690.987482 
" clip-path="url(#p3ef6b3473a)" style="fill: none; stroke: #7a7a7a; stroke-width: 3; stroke-linecap: square"/>
   </g>
   <g id="line2d_32">
    <path d="M 1206.216875 940.541131 
L 1170.176962 780.537076 
L 1154.367631 691.152095 
L 1148.673593 663.8263 
" clip-path="url(#p3ef6b3473a)" style="fill: none; stroke: #7a7a7a; stroke-width: 3; stroke-linecap: square"/>
   </g>
   <g id="line2d_33">
    <path d="M 957.604217 -1 
L 984.618299 127.681026 
" clip-path="url(#p3ef6b3473a)" style="fill: none; stroke: #7a7a7a; stroke-width: 3; stroke-linecap: square"/>
   </g>
   <g id="line2d_34">
    <path d="M 924.049657 -1 
L 935.716557 55.251207 
L 938.530082 68.584878 
L 943.21929 95.910674 
L 953.267593 150.726878 
" clip-path="url(#p3ef6b3473a)" style="fill: none; stroke: #7a7a7a; stroke-width: 3; stroke-linecap: square"/>
   </g>
   <g id="line2d_35">
    <path d="M 791.087982 489.994734 
L 949.918159 426.124803 
" clip-path="url(#p3ef6b3473a)" style="fill: none; stroke: #7a7a7a; stroke-width: 3; stroke-linecap: square"/>
   </g>
   <g id="line2d_36">
    <path d="M 791.087982 538.884862 
L 959.631519 471.228827 
" clip-path="url(#p3ef6b3473a)" style="fill: none; stroke: #7a7a7a; stroke-width: 3; stroke-linecap: square"/>
   </g>
   <g id="line2d_37">
    <path d="M 1160.597579 342.007445 
L 949.918159 426.124803 
" clip-path="url(#p3ef6b3473a)" style="fill: none; stroke: #7a7a7a; stroke-width: 3; stroke-linecap: square"/>
   </g>
   <g id="line2d_38">
    <path d="M 1156.98019 284.557429 
L 938.195139 371.802439 
" clip-path="url(#p3ef6b3473a)" style="fill: none; stroke: #7a7a7a; stroke-width: 3; stroke-linecap: square"/>
   </g>
   <g id="line2d_39">
    <path d="M 1108.413392 716.667145 
L 1116.117091 753.375894 
L 1162.540251 974.616068 
" clip-path="url(#p3ef6b3473a)" style="fill: none; stroke: #7a7a7a; stroke-width: 3; stroke-linecap: square"/>
   </g>
   <g id="line2d_40">
    <path d="M 1085.704227 746.626752 
L 1119.198571 906.466193 
L 1137.285516 994.205042 
" clip-path="url(#p3ef6b3473a)" style="fill: none; stroke: #7a7a7a; stroke-width: 3; stroke-linecap: square"/>
   </g>
   <g id="line2d_41">
    <path d="M 188.1898 838.645544 
L 367.183572 767.038792 
L 489.839857 720.617862 
" clip-path="url(#p3ef6b3473a)" style="fill: none; stroke: #7a7a7a; stroke-width: 3; stroke-linecap: square"/>
   </g>
   <g id="line2d_42">
    <path d="M 188.1898 892.638682 
L 489.906846 771.977188 
" clip-path="url(#p3ef6b3473a)" style="fill: none; stroke: #7a7a7a; stroke-width: 3; stroke-linecap: square"/>
   </g>
   <g id="line2d_43">
    <path d="M 1108.413392 716.667145 
L 1082.421782 589.256509 
L 1074.182173 553.864665 
L 1066.277508 522.423539 
L 1057.635968 495.756197 
L 1048.190563 473.698025 
L 1038.14226 455.919797 
L 1027.625036 441.927672 
L 1016.772869 431.721653 
L 1005.585758 424.643284 
L 994.26467 420.36334 
L 982.943582 418.717208 
L 971.689482 419.375661 
L 960.636349 422.009472 
L 949.918159 426.124803 
" clip-path="url(#p3ef6b3473a)" style="fill: none; stroke: #7a7a7a; stroke-width: 3; stroke-linecap: square"/>
   </g>
   <g id="line2d_44">
    <path d="M 1127.9071 690.987482 
L 1100.575716 564.893751 
L 1092.738039 527.361936 
L 1084.967352 494.439291 
L 1076.459789 464.973524 
L 1066.612452 440.446153 
L 1056.028239 419.704887 
L 1044.841128 402.585112 
L 1033.185097 388.922214 
L 1021.194122 378.551581 
L 1008.935192 370.814759 
L 996.676262 365.876363 
L 984.417333 363.242551 
L 972.29238 362.913325 
L 960.502372 364.23023 
L 949.047306 367.357882 
L 938.195139 371.802439 
" clip-path="url(#p3ef6b3473a)" style="fill: none; stroke: #7a7a7a; stroke-width: 3; stroke-linecap: square"/>
   </g>
   <g id="line2d_45">
    <path d="M 981.426765 -1 
L 1006.657577 111.384317 
" clip-path="url(#p3ef6b3473a)" style="fill: none; stroke: #7a7a7a; stroke-width: 3; stroke-linecap: square"/>
   </g>
   <g id="line2d_46">
    <path d="M 957.604217 -1 
L 984.618299 127.681026 
" clip-path="url(#p3ef6b3473a)" style="fill: none; stroke: #7a7a7a; stroke-width: 3; stroke-linecap: square"/>
   </g>
   <g id="line2d_47">
    <path d="M 949.918159 426.124803 
L 970.751641 408.346575 
L 987.498812 389.086827 
L 1000.561606 368.674787 
L 1010.274966 347.275068 
L 1017.040823 324.88767 
L 1021.261111 301.677205 
L 1023.203782 277.808287 
L 1023.404749 253.44553 
L 1022.131963 228.588933 
L 1019.720371 203.40311 
L 1016.638891 178.217286 
L 1009.940022 127.681026 
L 1006.657577 111.384317 
" clip-path="url(#p3ef6b3473a)" style="fill: none; stroke: #7a7a7a; stroke-width: 3; stroke-linecap: square"/>
   </g>
   <g id="line2d_48">
    <path d="M 959.631519 471.228827 
L 978.723294 455.261344 
L 995.001545 437.153889 
L 1008.734226 417.235689 
L 1020.055314 395.671356 
L 1029.098787 372.460892 
L 1036.199588 348.262748 
L 1041.357717 322.912311 
L 1044.908117 296.574195 
L 1046.917778 269.906852 
L 1047.587664 242.581057 
L 1047.185732 215.090649 
L 1045.77897 187.60024 
L 1043.635332 160.274445 
L 1040.888796 133.442489 
L 1037.740328 107.268986 
L 1034.457882 90.972277 
" clip-path="url(#p3ef6b3473a)" style="fill: none; stroke: #7a7a7a; stroke-width: 3; stroke-linecap: square"/>
   </g>
   <g id="line2d_49">
    <path d="M 1162.540251 974.616068 
L 1116.117091 753.375894 
L 1108.413392 716.667145 
" clip-path="url(#p3ef6b3473a)" style="fill: none; stroke: #7a7a7a; stroke-width: 3; stroke-linecap: square"/>
   </g>
   <g id="line2d_50">
    <path d="M 1186.991122 955.520934 
L 1162.60724 846.382366 
L 1127.9071 690.987482 
" clip-path="url(#p3ef6b3473a)" style="fill: none; stroke: #7a7a7a; stroke-width: 3; stroke-linecap: square"/>
   </g>
   <g id="line2d_51">
    <path d="M 1006.657577 111.384317 
L 981.426765 -1 
" clip-path="url(#p3ef6b3473a)" style="fill: none; stroke: #7a7a7a; stroke-width: 3; stroke-linecap: square"/>
   </g>
   <g id="line2d_52">
    <path d="M 1034.457882 90.972277 
L 1016.796741 -1 
" clip-path="url(#p3ef6b3473a)" style="fill: none; stroke: #7a7a7a; stroke-width: 3; stroke-linecap: square"/>
   </g>
   <g id="line2d_53">
    <path d="M 667.828799 589.421122 
L 790.552073 539.049475 
L 791.087982 538.884862 
" clip-path="url(#p3ef6b3473a)" style="fill: none; stroke: #7a7a7a; stroke-width: 3; stroke-linecap: square"/>
   </g>
   <g id="line2d_54">
    <path d="M 670.240391 650.163402 
L 790.552073 600.944048 
L 791.087982 600.779435 
" clip-path="url(#p3ef6b3473a)" style="fill: none; stroke: #7a7a7a; stroke-width: 3; stroke-linecap: square"/>
   </g>
   <g id="line2d_55">
    <path d="M 548.521947 874.531228 
L 606.802105 1159.147493 
" clip-path="url(#p3ef6b3473a)" style="fill: none; stroke: #7a7a7a; stroke-width: 3; stroke-linecap: square"/>
   </g>
   <g id="line2d_56">
    <path d="M 521.056586 884.078795 
L 531.908753 930.170498 
L 571.164123 1101.697478 
L 588.112261 1182.522571 
" clip-path="url(#p3ef6b3473a)" style="fill: none; stroke: #7a7a7a; stroke-width: 3; stroke-linecap: square"/>
   </g>
   <g id="line2d_57">
    <path d="M 791.087982 538.884862 
L 959.631519 471.228827 
" clip-path="url(#p3ef6b3473a)" style="fill: none; stroke: #7a7a7a; stroke-width: 3; stroke-linecap: square"/>
   </g>
   <g id="line2d_58">
    <path d="M 791.087982 600.779435 
L 972.158403 529.666521 
" clip-path="url(#p3ef6b3473a)" style="fill: none; stroke: #7a7a7a; stroke-width: 3; stroke-linecap: square"/>
   </g>
   <g id="line2d_59">
    <path d="M 791.087982 489.994734 
L 790.552073 490.159347 
L 666.020104 538.391022 
" clip-path="url(#p3ef6b3473a)" style="fill: none; stroke: #7a7a7a; stroke-width: 3; stroke-linecap: square"/>
   </g>
   <g id="line2d_60">
    <path d="M 791.087982 429.910907 
L 790.552073 430.240134 
L 663.742489 480.117941 
" clip-path="url(#p3ef6b3473a)" style="fill: none; stroke: #7a7a7a; stroke-width: 3; stroke-linecap: square"/>
   </g>
   <g id="line2d_61">
    <path d="M 472.958708 615.594625 
L 666.020104 538.391022 
" clip-path="url(#p3ef6b3473a)" style="fill: none; stroke: #7a7a7a; stroke-width: 3; stroke-linecap: square"/>
   </g>
   <g id="line2d_62">
    <path d="M 489.102982 659.546356 
L 667.828799 589.421122 
" clip-path="url(#p3ef6b3473a)" style="fill: none; stroke: #7a7a7a; stroke-width: 3; stroke-linecap: square"/>
   </g>
   <g id="line2d_63">
    <path d="M 791.087982 429.910907 
L 790.552073 430.240134 
L 663.742489 480.117941 
" clip-path="url(#p3ef6b3473a)" style="fill: none; stroke: #7a7a7a; stroke-width: 3; stroke-linecap: square"/>
   </g>
   <g id="line2d_64">
    <path d="M 791.087982 379.868487 
L 790.552073 380.197713 
L 661.866805 430.733973 
" clip-path="url(#p3ef6b3473a)" style="fill: none; stroke: #7a7a7a; stroke-width: 3; stroke-linecap: square"/>
   </g>
   <g id="line2d_65">
    <path d="M 666.020104 538.391022 
L 472.958708 615.594625 
" clip-path="url(#p3ef6b3473a)" style="fill: none; stroke: #7a7a7a; stroke-width: 3; stroke-linecap: square"/>
   </g>
   <g id="line2d_66">
    <path d="M 663.742489 480.117941 
L 441.942946 568.515242 
" clip-path="url(#p3ef6b3473a)" style="fill: none; stroke: #7a7a7a; stroke-width: 3; stroke-linecap: square"/>
   </g>
   <g id="line2d_67">
    <path d="M 489.102982 659.546356 
L 188.1898 775.763293 
" clip-path="url(#p3ef6b3473a)" style="fill: none; stroke: #7a7a7a; stroke-width: 3; stroke-linecap: square"/>
   </g>
   <g id="line2d_68">
    <path d="M 472.958708 615.594625 
L 188.1898 726.708552 
" clip-path="url(#p3ef6b3473a)" style="fill: none; stroke: #7a7a7a; stroke-width: 3; stroke-linecap: square"/>
   </g>
   <g id="line2d_69">
    <path d="M 663.742489 480.117941 
L 441.942946 568.515242 
" clip-path="url(#p3ef6b3473a)" style="fill: none; stroke: #7a7a7a; stroke-width: 3; stroke-linecap: square"/>
   </g>
   <g id="line2d_70">
    <path d="M 661.866805 430.733973 
L 416.353268 527.526549 
" clip-path="url(#p3ef6b3473a)" style="fill: none; stroke: #7a7a7a; stroke-width: 3; stroke-linecap: square"/>
   </g>
   <g id="line2d_71">
    <path d="M 606.802105 1159.147493 
L 548.521947 874.531228 
" clip-path="url(#p3ef6b3473a)" style="fill: none; stroke: #7a7a7a; stroke-width: 3; stroke-linecap: square"/>
   </g>
   <g id="line2d_72">
    <path d="M 626.563767 1134.45551 
L 585.834646 912.886109 
L 578.599868 875.354294 
L 577.46106 869.428218 
L 576.992139 864.654434 
" clip-path="url(#p3ef6b3473a)" style="fill: none; stroke: #7a7a7a; stroke-width: 3; stroke-linecap: square"/>
   </g>
   <g id="line2d_73">
    <path d="M 188.1898 726.873165 
L 472.958708 615.594625 
" clip-path="url(#p3ef6b3473a)" style="fill: none; stroke: #7a7a7a; stroke-width: 3; stroke-linecap: square"/>
   </g>
   <g id="line2d_74">
    <path d="M 188.1898 776.750972 
L 489.102982 659.546356 
" clip-path="url(#p3ef6b3473a)" style="fill: none; stroke: #7a7a7a; stroke-width: 3; stroke-linecap: square"/>
   </g>
   <g id="line2d_75">
    <path d="M 666.020104 538.391022 
L 605.462331 562.095327 
L 595.548005 568.021403 
L 585.767657 577.07513 
L 576.322252 589.256509 
L 567.479746 604.400925 
L 559.374114 622.672993 
L 552.206325 643.908099 
L 546.31132 668.270857 
L 541.823078 695.432039 
L 539.009554 725.556259 
L 538.004723 758.478904 
L 539.143531 794.364587 
L 542.559954 833.048695 
L 548.521947 874.531228 
" clip-path="url(#p3ef6b3473a)" style="fill: none; stroke: #7a7a7a; stroke-width: 3; stroke-linecap: square"/>
   </g>
   <g id="line2d_76">
    <path d="M 663.742489 480.117941 
L 603.184716 503.822245 
L 592.734481 508.925255 
L 582.284245 516.991303 
L 571.967988 528.020389 
L 561.919685 541.8479 
L 552.340302 558.309222 
L 543.363818 577.404357 
L 535.12421 598.968689 
L 527.889432 622.837607 
L 521.659484 649.011109 
L 516.635332 677.324584 
L 513.017943 707.448804 
L 510.941294 739.548383 
L 510.539362 773.458707 
L 512.013113 808.850551 
L 515.429536 845.888526 
L 521.056586 884.078795 
" clip-path="url(#p3ef6b3473a)" style="fill: none; stroke: #7a7a7a; stroke-width: 3; stroke-linecap: square"/>
   </g>
   <g id="line2d_77">
    <path d="M 670.240391 650.163402 
L 790.552073 600.944048 
L 791.087982 600.779435 
" clip-path="url(#p3ef6b3473a)" style="fill: none; stroke: #7a7a7a; stroke-width: 3; stroke-linecap: square"/>
   </g>
   <g id="line2d_78">
    <path d="M 672.250052 703.498087 
L 790.552073 654.443346 
L 791.087982 654.278733 
" clip-path="url(#p3ef6b3473a)" style="fill: none; stroke: #7a7a7a; stroke-width: 3; stroke-linecap: square"/>
   </g>
   <g id="line2d_79">
    <path d="M 472.958708 615.594625 
L 188.1898 726.708552 
" clip-path="url(#p3ef6b3473a)" style="fill: none; stroke: #7a7a7a; stroke-width: 3; stroke-linecap: square"/>
   </g>
   <g id="line2d_80">
    <path d="M 441.942946 568.515242 
L 188.1898 668.764696 
" clip-path="url(#p3ef6b3473a)" style="fill: none; stroke: #7a7a7a; stroke-width: 3; stroke-linecap: square"/>
   </g>
   <g id="line2d_81">
    <path d="M 489.102982 659.546356 
L 667.828799 589.421122 
" clip-path="url(#p3ef6b3473a)" style="fill: none; stroke: #7a7a7a; stroke-width: 3; stroke-linecap: square"/>
   </g>
   <g id="line2d_82">
    <path d="M 489.839857 720.617862 
L 670.240391 650.163402 
" clip-path="url(#p3ef6b3473a)" style="fill: none; stroke: #7a7a7a; stroke-width: 3; stroke-linecap: square"/>
   </g>
   <g id="line2d_83">
    <path d="M 548.521947 874.531228 
L 512.013113 648.02343 
L 507.256916 635.348212 
L 501.4289 627.11755 
L 495.533896 620.203795 
L 489.571903 615.759238 
L 482.940023 614.113106 
L 472.958708 615.594625 
" clip-path="url(#p3ef6b3473a)" style="fill: none; stroke: #7a7a7a; stroke-width: 3; stroke-linecap: square"/>
   </g>
   <g id="line2d_84">
    <path d="M 576.992139 864.654434 
L 538.942565 622.343767 
L 534.856255 605.553218 
L 527.688466 587.939603 
L 518.711981 573.289026 
L 509.467543 561.930713 
L 500.491059 553.864665 
L 490.375767 551.724693 
L 479.255645 554.193892 
L 441.942946 568.515242 
" clip-path="url(#p3ef6b3473a)" style="fill: none; stroke: #7a7a7a; stroke-width: 3; stroke-linecap: square"/>
   </g>
   <g id="line2d_85">
    <path d="M 441.942946 568.515242 
L 188.1898 668.764696 
" clip-path="url(#p3ef6b3473a)" style="fill: none; stroke: #7a7a7a; stroke-width: 3; stroke-linecap: square"/>
   </g>
   <g id="line2d_86">
    <path d="M 416.353268 527.526549 
L 188.1898 614.936172 
" clip-path="url(#p3ef6b3473a)" style="fill: none; stroke: #7a7a7a; stroke-width: 3; stroke-linecap: square"/>
   </g>
   <g id="line2d_87">
    <path d="M 984.618299 127.681026 
L 990.513303 168.340493 
L 992.388986 201.263138 
L 990.647281 227.93048 
L 985.824095 249.659426 
L 979.996079 270.729919 
L 971.622494 290.318892 
L 958.894643 304.47563 
L 942.884347 317.644688 
L 927.811892 323.735377 
" clip-path="url(#p3ef6b3473a)" style="fill: none; stroke: #7a7a7a; stroke-width: 3; stroke-linecap: square"/>
   </g>
   <g id="line2d_88">
    <path d="M 953.267593 150.726878 
L 954.674356 158.134473 
L 957.487881 178.052673 
L 958.626688 189.740212 
L 958.760666 200.769298 
L 957.822824 212.456837 
L 956.01413 225.955121 
L 953.602537 236.654981 
L 951.123955 244.062576 
L 947.037645 252.622464 
L 942.951336 258.713153 
L 938.798037 262.499257 
L 932.367123 265.626909 
L 931.831214 266.614588 
L 916.69177 272.705277 
" clip-path="url(#p3ef6b3473a)" style="fill: none; stroke: #7a7a7a; stroke-width: 3; stroke-linecap: square"/>
   </g>
   <g id="line2d_89">
    <path d="M 1156.98019 284.557429 
L 938.195139 371.802439 
" clip-path="url(#p3ef6b3473a)" style="fill: none; stroke: #7a7a7a; stroke-width: 3; stroke-linecap: square"/>
   </g>
   <g id="line2d_90">
    <path d="M 1153.831722 233.362717 
L 927.811892 323.735377 
" clip-path="url(#p3ef6b3473a)" style="fill: none; stroke: #7a7a7a; stroke-width: 3; stroke-linecap: square"/>
   </g>
   <g id="line2d_91">
    <path d="M 791.087982 654.278733 
L 982.943582 579.708942 
" clip-path="url(#p3ef6b3473a)" style="fill: none; stroke: #7a7a7a; stroke-width: 3; stroke-linecap: square"/>
   </g>
   <g id="line2d_92">
    <path d="M 791.087982 704.814993 
L 992.388986 622.014541 
" clip-path="url(#p3ef6b3473a)" style="fill: none; stroke: #7a7a7a; stroke-width: 3; stroke-linecap: square"/>
   </g>
   <g id="line2d_93">
    <path d="M 972.158403 529.666521 
L 1169.975995 449.829107 
" clip-path="url(#p3ef6b3473a)" style="fill: none; stroke: #7a7a7a; stroke-width: 3; stroke-linecap: square"/>
   </g>
   <g id="line2d_94">
    <path d="M 982.943582 579.708942 
L 1177.344751 499.871528 
" clip-path="url(#p3ef6b3473a)" style="fill: none; stroke: #7a7a7a; stroke-width: 3; stroke-linecap: square"/>
   </g>
   <g id="line2d_95">
    <path d="M 927.811892 323.735377 
L 791.087982 379.868487 
" clip-path="url(#p3ef6b3473a)" style="fill: none; stroke: #7a7a7a; stroke-width: 3; stroke-linecap: square"/>
   </g>
   <g id="line2d_96">
    <path d="M 916.69177 272.705277 
L 791.087982 326.204575 
" clip-path="url(#p3ef6b3473a)" style="fill: none; stroke: #7a7a7a; stroke-width: 3; stroke-linecap: square"/>
   </g>
   <g id="line2d_97">
    <path d="M 1177.344751 499.871528 
L 1393.450255 414.931104 
L 1393.986164 414.76649 
" clip-path="url(#p3ef6b3473a)" style="fill: none; stroke: #7a7a7a; stroke-width: 3; stroke-linecap: square"/>
   </g>
   <g id="line2d_98">
    <path d="M 1184.110608 546.127844 
L 1346.558174 481.59946 
L 1368.463475 472.545732 
L 1384.272805 467.113496 
L 1393.450255 464.150458 
L 1393.986164 463.985845 
" clip-path="url(#p3ef6b3473a)" style="fill: none; stroke: #7a7a7a; stroke-width: 3; stroke-linecap: square"/>
   </g>
   <g id="line2d_99">
    <path d="M 1153.831722 233.362717 
L 1103.791173 251.634785 
L 1089.455594 254.103983 
L 1076.526777 252.622464 
L 1064.803757 247.84868 
L 1054.152556 239.453406 
L 1044.439196 227.43664 
L 1035.59669 211.798384 
L 1027.491058 192.538637 
L 1020.390258 168.998946 
L 1006.657577 111.384317 
" clip-path="url(#p3ef6b3473a)" style="fill: none; stroke: #7a7a7a; stroke-width: 3; stroke-linecap: square"/>
   </g>
   <g id="line2d_100">
    <path d="M 1150.616265 182.49723 
L 1116.18408 195.995514 
L 1108.078449 199.452392 
L 1097.628214 202.90927 
L 1085.972182 203.40311 
L 1072.976377 195.995514 
L 1061.521311 182.49723 
L 1051.807952 163.895936 
L 1044.037264 138.874725 
L 1039.482033 118.298072 
L 1034.457882 90.972277 
" clip-path="url(#p3ef6b3473a)" style="fill: none; stroke: #7a7a7a; stroke-width: 3; stroke-linecap: square"/>
   </g>
   <g id="line2d_101">
    <path d="M 982.943582 579.708942 
L 1008.399283 568.844469 
L 1020.122303 564.729138 
L 1031.376402 562.424553 
L 1042.094592 562.918393 
L 1052.343861 567.198337 
L 1062.258187 575.922838 
L 1071.904558 589.914962 
L 1081.215985 610.162388 
L 1090.393435 637.488184 
L 1099.436908 672.715414 
L 1108.413392 716.667145 
" clip-path="url(#p3ef6b3473a)" style="fill: none; stroke: #7a7a7a; stroke-width: 3; stroke-linecap: square"/>
   </g>
   <g id="line2d_102">
    <path d="M 992.388986 622.014541 
L 1025.88333 611.479294 
L 1030.036629 610.162388 
L 1032.850153 609.668549 
L 1037.204418 608.680869 
L 1044.506185 609.174709 
L 1047.989597 610.327002 
L 1050.803121 612.466973 
L 1052.745793 615.100785 
L 1053.817612 616.582304 
L 1056.832103 622.343767 
L 1057.903922 625.142192 
L 1058.50682 626.294484 
L 1059.846594 630.080589 
L 1063.932904 644.072713 
L 1066.143531 653.12644 
L 1071.636603 677.818424 
L 1073.110354 685.390632 
L 1085.704227 746.626752 
" clip-path="url(#p3ef6b3473a)" style="fill: none; stroke: #7a7a7a; stroke-width: 3; stroke-linecap: square"/>
   </g>
   <g id="line2d_103">
    <path d="M 1393.986164 138.216273 
L 1393.450255 138.380886 
L 1153.831722 233.362717 
" clip-path="url(#p3ef6b3473a)" style="fill: none; stroke: #7a7a7a; stroke-width: 3; stroke-linecap: square"/>
   </g>
   <g id="line2d_104">
    <path d="M 1393.986164 87.680013 
L 1393.450255 87.844626 
L 1300.135014 121.096497 
L 1150.616265 182.49723 
" clip-path="url(#p3ef6b3473a)" style="fill: none; stroke: #7a7a7a; stroke-width: 3; stroke-linecap: square"/>
   </g>
   <g id="line2d_105">
    <path d="M 1127.9071 690.987482 
L 1119.466526 645.389618 
L 1115.849136 622.014541 
L 1114.576351 597.816396 
L 1116.050103 574.441319 
L 1121.007265 552.54776 
L 1130.318693 533.123399 
L 1144.788249 516.991303 
L 1165.219799 504.974538 
L 1177.344751 499.871528 
" clip-path="url(#p3ef6b3473a)" style="fill: none; stroke: #7a7a7a; stroke-width: 3; stroke-linecap: square"/>
   </g>
   <g id="line2d_106">
    <path d="M 1148.673593 663.8263 
L 1144.922227 644.072713 
L 1143.984385 634.854372 
L 1143.71643 622.343767 
L 1144.453306 607.69319 
L 1145.927057 595.347198 
L 1148.070695 584.482725 
L 1151.085186 575.099771 
L 1154.501609 567.198337 
L 1158.386953 561.930713 
L 1163.143149 557.815383 
L 1172.253611 552.54776 
L 1184.110608 546.127844 
" clip-path="url(#p3ef6b3473a)" style="fill: none; stroke: #7a7a7a; stroke-width: 3; stroke-linecap: square"/>
   </g>
   <g id="line2d_107">
    <path d="M 188.1898 775.763293 
L 187.586902 776.092519 
L 1.49233 853.625348 
" clip-path="url(#p3ef6b3473a)" style="fill: none; stroke: #7a7a7a; stroke-width: 3; stroke-linecap: square"/>
   </g>
   <g id="line2d_108">
    <path d="M 188.1898 726.708552 
L 187.586902 726.873165 
L -1 803.922171 
" clip-path="url(#p3ef6b3473a)" style="fill: none; stroke: #7a7a7a; stroke-width: 3; stroke-linecap: square"/>
   </g>
   <g id="line2d_109">
    <path d="M 14.421147 910.91075 
L 187.586902 838.974771 
L 188.1898 838.645544 
" clip-path="url(#p3ef6b3473a)" style="fill: none; stroke: #7a7a7a; stroke-width: 3; stroke-linecap: square"/>
   </g>
   <g id="line2d_110">
    <path d="M 26.278144 960.953171 
L 187.653891 892.803295 
L 188.1898 892.638682 
" clip-path="url(#p3ef6b3473a)" style="fill: none; stroke: #7a7a7a; stroke-width: 3; stroke-linecap: square"/>
   </g>
   <g id="line2d_111">
    <path d="M 188.1898 614.936172 
L 187.586902 615.100785 
L -1 695.279328 
" clip-path="url(#p3ef6b3473a)" style="fill: none; stroke: #7a7a7a; stroke-width: 3; stroke-linecap: square"/>
   </g>
   <g id="line2d_112">
    <path d="M 188.1898 564.399912 
L 187.586902 564.564525 
L -1 643.871753 
" clip-path="url(#p3ef6b3473a)" style="fill: none; stroke: #7a7a7a; stroke-width: 3; stroke-linecap: square"/>
   </g>
   <g id="line2d_113">
    <path d="M 188.1898 726.708552 
L 187.586902 726.873165 
L -1 803.922171 
" clip-path="url(#p3ef6b3473a)" style="fill: none; stroke: #7a7a7a; stroke-width: 3; stroke-linecap: square"/>
   </g>
   <g id="line2d_114">
    <path d="M 188.1898 668.764696 
L 187.586902 668.92931 
L -1 746.191733 
" clip-path="url(#p3ef6b3473a)" style="fill: none; stroke: #7a7a7a; stroke-width: 3; stroke-linecap: square"/>
   </g>
   <g id="line2d_115">
    <path d="M 1.827273 853.625348 
L 187.586902 777.080198 
L 188.1898 776.750972 
" clip-path="url(#p3ef6b3473a)" style="fill: none; stroke: #7a7a7a; stroke-width: 3; stroke-linecap: square"/>
   </g>
   <g id="line2d_116">
    <path d="M 14.421147 910.91075 
L 187.586902 838.974771 
L 188.1898 838.645544 
" clip-path="url(#p3ef6b3473a)" style="fill: none; stroke: #7a7a7a; stroke-width: 3; stroke-linecap: square"/>
   </g>
   <g id="line2d_117">
    <path d="M -1 804.408492 
L 187.586902 727.037778 
L 188.1898 726.873165 
" clip-path="url(#p3ef6b3473a)" style="fill: none; stroke: #7a7a7a; stroke-width: 3; stroke-linecap: square"/>
   </g>
   <g id="line2d_118">
    <path d="M 1.827273 853.625348 
L 187.586902 777.080198 
L 188.1898 776.750972 
" clip-path="url(#p3ef6b3473a)" style="fill: none; stroke: #7a7a7a; stroke-width: 3; stroke-linecap: square"/>
   </g>
   <g id="line2d_119">
    <path d="M 188.1898 668.764696 
L 187.586902 668.92931 
L -1 746.191733 
" clip-path="url(#p3ef6b3473a)" style="fill: none; stroke: #7a7a7a; stroke-width: 3; stroke-linecap: square"/>
   </g>
   <g id="line2d_120">
    <path d="M 188.1898 614.936172 
L 187.586902 615.100785 
L -1 695.279328 
" clip-path="url(#p3ef6b3473a)" style="fill: none; stroke: #7a7a7a; stroke-width: 3; stroke-linecap: square"/>
   </g>
   <g id="line2d_121">
    <path d="M 26.278144 960.953171 
L 187.653891 892.803295 
L 188.1898 892.638682 
" clip-path="url(#p3ef6b3473a)" style="fill: none; stroke: #7a7a7a; stroke-width: 3; stroke-linecap: square"/>
   </g>
   <g id="line2d_122">
    <path d="M 38.805029 1004.904902 
L 43.427248 1002.106477 
L 75.849772 988.608192 
L 187.653891 945.808754 
L 188.1898 945.479527 
" clip-path="url(#p3ef6b3473a)" style="fill: none; stroke: #7a7a7a; stroke-width: 3; stroke-linecap: square"/>
   </g>
   <g id="line2d_123">
    <path d="M 416.353268 527.526549 
L 188.1898 614.936172 
" clip-path="url(#p3ef6b3473a)" style="fill: none; stroke: #7a7a7a; stroke-width: 3; stroke-linecap: square"/>
   </g>
   <g id="line2d_124">
    <path d="M 388.68694 483.410205 
L 230.660628 547.115523 
L 188.1898 564.399912 
" clip-path="url(#p3ef6b3473a)" style="fill: none; stroke: #7a7a7a; stroke-width: 3; stroke-linecap: square"/>
   </g>
   <g id="line2d_125">
    <path d="M 791.087982 379.868487 
L 790.552073 380.197713 
L 661.866805 430.733973 
" clip-path="url(#p3ef6b3473a)" style="fill: none; stroke: #7a7a7a; stroke-width: 3; stroke-linecap: square"/>
   </g>
   <g id="line2d_126">
    <path d="M 791.087982 326.204575 
L 790.552073 326.369189 
L 659.857145 377.893128 
" clip-path="url(#p3ef6b3473a)" style="fill: none; stroke: #7a7a7a; stroke-width: 3; stroke-linecap: square"/>
   </g>
   <g id="line2d_127">
    <path d="M 661.866805 430.733973 
L 416.353268 527.526549 
" clip-path="url(#p3ef6b3473a)" style="fill: none; stroke: #7a7a7a; stroke-width: 3; stroke-linecap: square"/>
   </g>
   <g id="line2d_128">
    <path d="M 659.857145 377.893128 
L 397.127515 480.117941 
L 396.390639 480.447167 
L 388.68694 483.410205 
" clip-path="url(#p3ef6b3473a)" style="fill: none; stroke: #7a7a7a; stroke-width: 3; stroke-linecap: square"/>
   </g>
   <g id="line2d_129">
    <path d="M 548.521947 874.531228 
L 546.981207 854.448414 
L 547.115185 837.987092 
L 547.718083 821.854996 
L 549.258823 806.381352 
L 551.871382 791.072322 
L 555.421782 776.915585 
L 562.723549 759.960423 
L 572.302931 747.943658 
L 580.073619 740.700676 
L 587.710329 735.268439 
L 672.250052 703.498087 
" clip-path="url(#p3ef6b3473a)" style="fill: none; stroke: #7a7a7a; stroke-width: 3; stroke-linecap: square"/>
   </g>
   <g id="line2d_130">
    <path d="M 576.992139 864.654434 
L 576.188275 856.588386 
L 576.255264 844.736234 
L 576.992139 830.74411 
L 578.063958 820.702703 
L 579.470721 812.307429 
L 582.083279 800.949116 
L 583.490042 796.833785 
L 586.437544 791.895389 
L 588.849137 788.932351 
L 596.418858 783.170888 
L 615.845577 774.446387 
L 674.058746 751.894375 
" clip-path="url(#p3ef6b3473a)" style="fill: none; stroke: #7a7a7a; stroke-width: 3; stroke-linecap: square"/>
   </g>
   <g id="line2d_131">
    <path d="M 489.839857 720.617862 
L 670.240391 650.163402 
" clip-path="url(#p3ef6b3473a)" style="fill: none; stroke: #7a7a7a; stroke-width: 3; stroke-linecap: square"/>
   </g>
   <g id="line2d_132">
    <path d="M 489.906846 771.977188 
L 672.250052 703.498087 
" clip-path="url(#p3ef6b3473a)" style="fill: none; stroke: #7a7a7a; stroke-width: 3; stroke-linecap: square"/>
   </g>
   <g id="line2d_133">
    <path d="M 188.1898 892.638682 
L 489.906846 771.977188 
" clip-path="url(#p3ef6b3473a)" style="fill: none; stroke: #7a7a7a; stroke-width: 3; stroke-linecap: square"/>
   </g>
   <g id="line2d_134">
    <path d="M 188.1898 945.479527 
L 210.63101 936.91964 
L 292.826129 903.009315 
L 489.973835 826.299553 
" clip-path="url(#p3ef6b3473a)" style="fill: none; stroke: #7a7a7a; stroke-width: 3; stroke-linecap: square"/>
   </g>
   <g id="line2d_135">
    <path d="M 672.250052 703.498087 
L 790.552073 654.443346 
L 791.087982 654.278733 
" clip-path="url(#p3ef6b3473a)" style="fill: none; stroke: #7a7a7a; stroke-width: 3; stroke-linecap: square"/>
   </g>
   <g id="line2d_136">
    <path d="M 674.058746 751.894375 
L 790.552073 705.144219 
L 791.087982 704.814993 
" clip-path="url(#p3ef6b3473a)" style="fill: none; stroke: #7a7a7a; stroke-width: 3; stroke-linecap: square"/>
   </g>
   <g id="line2d_137">
    <path d="M 489.906846 771.977188 
L 672.250052 703.498087 
" clip-path="url(#p3ef6b3473a)" style="fill: none; stroke: #7a7a7a; stroke-width: 3; stroke-linecap: square"/>
   </g>
   <g id="line2d_138">
    <path d="M 489.973835 826.299553 
L 596.418858 783.170888 
L 615.845577 774.446387 
L 674.058746 751.894375 
" clip-path="url(#p3ef6b3473a)" style="fill: none; stroke: #7a7a7a; stroke-width: 3; stroke-linecap: square"/>
   </g>
   <g id="line2d_139">
    <path d="M 489.906846 771.977188 
L 500.759013 771.483349 
L 508.797656 771.812575 
L 516.702321 776.257132 
L 522.86528 782.183208 
L 531.104889 793.212294 
L 535.12421 803.912154 
L 537.803757 813.130495 
L 548.521947 874.531228 
" clip-path="url(#p3ef6b3473a)" style="fill: none; stroke: #7a7a7a; stroke-width: 3; stroke-linecap: square"/>
   </g>
   <g id="line2d_140">
    <path d="M 489.973835 826.299553 
L 495.466907 828.933364 
L 496.605715 829.097977 
L 499.084296 830.25027 
L 500.759013 831.567176 
L 501.830832 832.390242 
L 504.51038 835.84712 
L 508.730667 843.913168 
L 514.022773 858.892971 
L 520.453687 881.609596 
L 521.056586 884.078795 
" clip-path="url(#p3ef6b3473a)" style="fill: none; stroke: #7a7a7a; stroke-width: 3; stroke-linecap: square"/>
   </g>
   <g id="line2d_141">
    <path d="M 1339.51697 137.16831 
L 1339.51697 104.358194 
" clip-path="url(#p3ef6b3473a)" style="fill: none; stroke-dasharray: 32,8,5,8; stroke-dashoffset: 0; stroke: #1e90ff; stroke-width: 5"/>
   </g>
   <g id="line2d_142">
    <path d="M 955.079428 562.618745 
L 1150.936293 618.919201 
" clip-path="url(#p3ef6b3473a)" style="fill: none; stroke-dasharray: 32,8,5,8; stroke-dashoffset: 0; stroke: #1e90ff; stroke-width: 5"/>
   </g>
   <g id="line2d_143">
    <path d="M 726.783095 412.899481 
L 297.072584 577.609159 
" clip-path="url(#p3ef6b3473a)" style="fill: none; stroke-dasharray: 32,8,5,8; stroke-dashoffset: 0; stroke: #1e90ff; stroke-width: 5"/>
   </g>
   <g id="line2d_144">
    <path d="M 591.528422 666.964882 
L 973.581455 516.799522 
" clip-path="url(#p3ef6b3473a)" style="fill: none; stroke-dasharray: 32,8,5,8; stroke-dashoffset: 0; stroke: #1e90ff; stroke-width: 5"/>
   </g>
   <g id="line2d_145">
    <path d="M 218.773014 884.888518 
L 648.488432 752.285653 
" clip-path="url(#p3ef6b3473a)" style="fill: none; stroke-dasharray: 32,8,5,8; stroke-dashoffset: 0; stroke: #1e90ff; stroke-width: 5"/>
   </g>
   <g id="line2d_146">
    <path d="M 368.575157 814.578255 
L 495.809505 761.846563 
" clip-path="url(#p3ef6b3473a)" style="fill: none; stroke-dasharray: 32,8,5,8; stroke-dashoffset: 0; stroke: #1e90ff; stroke-width: 5"/>
   </g>
   <g id="line2d_147">
    <path d="M 1169.508645 197.278662 
L 793.093064 315.972192 
" clip-path="url(#p3ef6b3473a)" style="fill: none; stroke-dasharray: 32,8,5,8; stroke-dashoffset: 0; stroke: #1e90ff; stroke-width: 5"/>
   </g>
   <g id="line2d_148">
    <path d="M 133.977374 946.160325 
L 421.556078 835.191078 
" clip-path="url(#p3ef6b3473a)" style="fill: none; stroke-dasharray: 32,8,5,8; stroke-dashoffset: 0; stroke: #1e90ff; stroke-width: 5"/>
   </g>
   <g id="line2d_149">
    <path d="M 514.947728 779.68636 
L 869.819315 655.286024 
" clip-path="url(#p3ef6b3473a)" style="fill: none; stroke-dasharray: 32,8,5,8; stroke-dashoffset: 0; stroke: #1e90ff; stroke-width: 5"/>
   </g>
   <g id="line2d_150">
    <path d="M 1339.51697 137.16831 
" clip-path="url(#p3ef6b3473a)" style="fill: none; stroke: #0000ff; stroke-width: 1.5; stroke-linecap: square"/>
    <defs>
     <path id="mb19c99fa61" d="M 0 10 
C 2.652031 10 5.195799 8.946337 7.071068 7.071068 
C 8.946337 5.195799 10 2.652031 10 0 
C 10 -2.652031 8.946337 -5.195799 7.071068 -7.071068 
C 5.195799 -8.946337 2.652031 -10 0 -10 
C -2.652031 -10 -5.195799 -8.946337 -7.071068 -7.071068 
C -8.946337 -5.195799 -10 -2.652031 -10 0 
C -10 2.652031 -8.946337 5.195799 -7.071068 7.071068 
C -5.195799 8.946337 -2.652031 10 0 10 
z
" style="stroke: #0000ff"/>
    </defs>
    <g clip-path="url(#p3ef6b3473a)">
     <use xlink:href="#mb19c99fa61" x="1339.51697" y="137.16831" style="fill: #0000ff; stroke: #0000ff"/>
    </g>
   </g>
   <g id="line2d_151">
    <path d="M 955.079428 562.618745 
" clip-path="url(#p3ef6b3473a)" style="fill: none; stroke: #0000ff; stroke-width: 1.5; stroke-linecap: square"/>
    <g clip-path="url(#p3ef6b3473a)">
     <use xlink:href="#mb19c99fa61" x="955.079428" y="562.618745" style="fill: #0000ff; stroke: #0000ff"/>
    </g>
   </g>
   <g id="line2d_152">
    <path d="M 726.783095 412.899481 
" clip-path="url(#p3ef6b3473a)" style="fill: none; stroke: #0000ff; stroke-width: 1.5; stroke-linecap: square"/>
    <g clip-path="url(#p3ef6b3473a)">
     <use xlink:href="#mb19c99fa61" x="726.783095" y="412.899481" style="fill: #0000ff; stroke: #0000ff"/>
    </g>
   </g>
   <g id="line2d_153">
    <path d="M 591.528422 666.964882 
" clip-path="url(#p3ef6b3473a)" style="fill: none; stroke: #0000ff; stroke-width: 1.5; stroke-linecap: square"/>
    <g clip-path="url(#p3ef6b3473a)">
     <use xlink:href="#mb19c99fa61" x="591.528422" y="666.964882" style="fill: #0000ff; stroke: #0000ff"/>
    </g>
   </g>
   <g id="line2d_154">
    <path d="M 218.773014 884.888518 
" clip-path="url(#p3ef6b3473a)" style="fill: none; stroke: #0000ff; stroke-width: 1.5; stroke-linecap: square"/>
    <g clip-path="url(#p3ef6b3473a)">
     <use xlink:href="#mb19c99fa61" x="218.773014" y="884.888518" style="fill: #0000ff; stroke: #0000ff"/>
    </g>
   </g>
   <g id="line2d_155">
    <path d="M 368.575157 814.578255 
" clip-path="url(#p3ef6b3473a)" style="fill: none; stroke: #0000ff; stroke-width: 1.5; stroke-linecap: square"/>
    <g clip-path="url(#p3ef6b3473a)">
     <use xlink:href="#mb19c99fa61" x="368.575157" y="814.578255" style="fill: #0000ff; stroke: #0000ff"/>
    </g>
   </g>
   <g id="line2d_156">
    <path d="M 1169.508645 197.278662 
" clip-path="url(#p3ef6b3473a)" style="fill: none; stroke: #0000ff; stroke-width: 1.5; stroke-linecap: square"/>
    <g clip-path="url(#p3ef6b3473a)">
     <use xlink:href="#mb19c99fa61" x="1169.508645" y="197.278662" style="fill: #0000ff; stroke: #0000ff"/>
    </g>
   </g>
   <g id="line2d_157">
    <path d="M 133.977374 946.160325 
" clip-path="url(#p3ef6b3473a)" style="fill: none; stroke: #0000ff; stroke-width: 1.5; stroke-linecap: square"/>
    <g clip-path="url(#p3ef6b3473a)">
     <use xlink:href="#mb19c99fa61" x="133.977374" y="946.160325" style="fill: #0000ff; stroke: #0000ff"/>
    </g>
   </g>
   <g id="line2d_158">
    <path d="M 514.947728 779.68636 
" clip-path="url(#p3ef6b3473a)" style="fill: none; stroke: #0000ff; stroke-width: 1.5; stroke-linecap: square"/>
    <g clip-path="url(#p3ef6b3473a)">
     <use xlink:href="#mb19c99fa61" x="514.947728" y="779.68636" style="fill: #0000ff; stroke: #0000ff"/>
    </g>
   </g>
   <g id="line2d_159">
    <path d="M 1339.51697 104.358194 
" clip-path="url(#p3ef6b3473a)" style="fill: none; stroke: #ff0000; stroke-width: 1.5; stroke-linecap: square"/>
    <defs>
     <path id="m6cbab3d5fd" d="M 0 -10 
L -2.24514 -3.09017 
L -9.510565 -3.09017 
L -3.632713 1.18034 
L -5.877853 8.09017 
L -0 3.81966 
L 5.877853 8.09017 
L 3.632713 1.18034 
L 9.510565 -3.09017 
L 2.24514 -3.09017 
z
" style="stroke: #ff0000; stroke-linejoin: bevel"/>
    </defs>
    <g clip-path="url(#p3ef6b3473a)">
     <use xlink:href="#m6cbab3d5fd" x="1339.51697" y="104.358194" style="fill: #ff0000; stroke: #ff0000; stroke-linejoin: bevel"/>
    </g>
   </g>
   <g id="line2d_160">
    <path d="M 1150.936293 618.919201 
" clip-path="url(#p3ef6b3473a)" style="fill: none; stroke: #ff0000; stroke-width: 1.5; stroke-linecap: square"/>
    <g clip-path="url(#p3ef6b3473a)">
     <use xlink:href="#m6cbab3d5fd" x="1150.936293" y="618.919201" style="fill: #ff0000; stroke: #ff0000; stroke-linejoin: bevel"/>
    </g>
   </g>
   <g id="line2d_161">
    <path d="M 297.072584 577.609159 
" clip-path="url(#p3ef6b3473a)" style="fill: none; stroke: #ff0000; stroke-width: 1.5; stroke-linecap: square"/>
    <g clip-path="url(#p3ef6b3473a)">
     <use xlink:href="#m6cbab3d5fd" x="297.072584" y="577.609159" style="fill: #ff0000; stroke: #ff0000; stroke-linejoin: bevel"/>
    </g>
   </g>
   <g id="line2d_162">
    <path d="M 973.581455 516.799522 
" clip-path="url(#p3ef6b3473a)" style="fill: none; stroke: #ff0000; stroke-width: 1.5; stroke-linecap: square"/>
    <g clip-path="url(#p3ef6b3473a)">
     <use xlink:href="#m6cbab3d5fd" x="973.581455" y="516.799522" style="fill: #ff0000; stroke: #ff0000; stroke-linejoin: bevel"/>
    </g>
   </g>
   <g id="line2d_163">
    <path d="M 648.488432 752.285653 
" clip-path="url(#p3ef6b3473a)" style="fill: none; stroke: #ff0000; stroke-width: 1.5; stroke-linecap: square"/>
    <g clip-path="url(#p3ef6b3473a)">
     <use xlink:href="#m6cbab3d5fd" x="648.488432" y="752.285653" style="fill: #ff0000; stroke: #ff0000; stroke-linejoin: bevel"/>
    </g>
   </g>
   <g id="line2d_164">
    <path d="M 495.809505 761.846563 
" clip-path="url(#p3ef6b3473a)" style="fill: none; stroke: #ff0000; stroke-width: 1.5; stroke-linecap: square"/>
    <g clip-path="url(#p3ef6b3473a)">
     <use xlink:href="#m6cbab3d5fd" x="495.809505" y="761.846563" style="fill: #ff0000; stroke: #ff0000; stroke-linejoin: bevel"/>
    </g>
   </g>
   <g id="line2d_165">
    <path d="M 793.093064 315.972192 
" clip-path="url(#p3ef6b3473a)" style="fill: none; stroke: #ff0000; stroke-width: 1.5; stroke-linecap: square"/>
    <g clip-path="url(#p3ef6b3473a)">
     <use xlink:href="#m6cbab3d5fd" x="793.093064" y="315.972192" style="fill: #ff0000; stroke: #ff0000; stroke-linejoin: bevel"/>
    </g>
   </g>
   <g id="line2d_166">
    <path d="M 421.556078 835.191078 
" clip-path="url(#p3ef6b3473a)" style="fill: none; stroke: #ff0000; stroke-width: 1.5; stroke-linecap: square"/>
    <g clip-path="url(#p3ef6b3473a)">
     <use xlink:href="#m6cbab3d5fd" x="421.556078" y="835.191078" style="fill: #ff0000; stroke: #ff0000; stroke-linejoin: bevel"/>
    </g>
   </g>
   <g id="line2d_167">
    <path d="M 869.819315 655.286024 
" clip-path="url(#p3ef6b3473a)" style="fill: none; stroke: #ff0000; stroke-width: 1.5; stroke-linecap: square"/>
    <g clip-path="url(#p3ef6b3473a)">
     <use xlink:href="#m6cbab3d5fd" x="869.819315" y="655.286024" style="fill: #ff0000; stroke: #ff0000; stroke-linejoin: bevel"/>
    </g>
   </g>
  </g>
 </g>
 <defs>
  <clipPath id="p3ef6b3473a">
   <rect x="0" y="0" width="1440" height="1440"/>
  </clipPath>
 </defs>
</svg>
