<?xml version="1.0" encoding="utf-8" standalone="no"?>
<!DOCTYPE svg PUBLIC "-//W3C//DTD SVG 1.1//EN"
  "http://www.w3.org/Graphics/SVG/1.1/DTD/svg11.dtd">
<svg xmlns:xlink="http://www.w3.org/1999/xlink" width="1440pt" height="1440pt" viewBox="0 0 1440 1440" xmlns="http://www.w3.org/2000/svg" version="1.1">
 <metadata>
  <rdf:RDF xmlns:dc="http://purl.org/dc/elements/1.1/" xmlns:cc="http://creativecommons.org/ns#" xmlns:rdf="http://www.w3.org/1999/02/22-rdf-syntax-ns#">
   <cc:Work>
    <dc:type rdf:resource="http://purl.org/dc/dcmitype/StillImage"/>
    <dc:date>2026-02-27T11:04:48.585991</dc:date>
    <dc:format>image/svg+xml</dc:format>
    <dc:creator>
     <cc:Agent>
      <dc:title>Matplotlib v3.7.3, https://matplotlib.org/</dc:title>
     </cc:Agent>
    </dc:creator>
   </cc:Work>
  </rdf:RDF>
 </metadata>
 <defs>
  <style type="text/css">*{stroke-linejoin: round; stroke-linecap: butt}</style>
 </defs>
 <g id="figure_1">
  <g id="patch_1">
   <path d="M 0 1440 
L 1440 1440 
L 1440 0 
L 0 0 
z
" style="fill: #ffffff"/>
  </g>
  <g id="axes_1">
   <g id="line2d_1">
    <path d="M 545.058265 784.953635 
L 543.731076 786.206623 
L -1 1314.472064 
" clip-path="url(#p62872f368e)" style="fill: none; stroke: #7a7a7a; stroke-width: 3; stroke-linecap: square"/>
   </g>
   <g id="line2d_2">
    <path d="M 545.058265 722.786139 
L 543.731076 724.135511 
L -1 1251.485371 
" clip-path="url(#p62872f368e)" style="fill: none; stroke: #7a7a7a; stroke-width: 3; stroke-linecap: square"/>
   </g>
   <g id="line2d_3">
    <path d="M 1350.758199 -1 
L 1046.652453 295.035211 
L 1045.988858 295.806281 
L 1045.408214 296.384583 
L 1044.495772 297.252037 
L 1043.832178 297.830339 
L 1042.753837 298.89056 
" clip-path="url(#p62872f368e)" style="fill: none; stroke: #7a7a7a; stroke-width: 3; stroke-linecap: square"/>
   </g>
   <g id="line2d_4">
    <path d="M 1285.46977 -1 
L 1046.652453 229.205134 
L 1045.988858 229.87982 
L 1045.408214 230.458122 
L 1044.495772 231.325575 
L 1043.832178 232.000261 
L 1042.753837 232.964099 
" clip-path="url(#p62872f368e)" style="fill: none; stroke: #7a7a7a; stroke-width: 3; stroke-linecap: square"/>
   </g>
   <g id="line2d_5">
    <path d="M -1 1340.474167 
L 8.708336 1330.967381 
L 124.339607 1220.608027 
L 232.256597 1114.682324 
L 351.786484 999.88932 
L 543.814026 813.386831 
L 545.058265 812.133843 
" clip-path="url(#p62872f368e)" style="fill: none; stroke: #7a7a7a; stroke-width: 3; stroke-linecap: square"/>
   </g>
   <g id="line2d_6">
    <path d="M -1 1359.070663 
L 0.911105 1357.280135 
L 1.159953 1356.990984 
L 543.814026 828.904609 
L 545.058265 827.651621 
" clip-path="url(#p62872f368e)" style="fill: none; stroke: #7a7a7a; stroke-width: 3; stroke-linecap: square"/>
   </g>
   <g id="line2d_7">
    <path d="M 1382.412307 -1 
L 1046.735402 323.853942 
L 1045.988858 324.528628 
L 1045.408214 325.10693 
L 1044.495772 325.974384 
L 1043.832178 326.64907 
L 1042.753837 327.612907 
" clip-path="url(#p62872f368e)" style="fill: none; stroke: #7a7a7a; stroke-width: 3; stroke-linecap: square"/>
   </g>
   <g id="line2d_8">
    <path d="M 1363.190541 -1 
L 1046.652453 305.155501 
L 1045.988858 305.830187 
L 1045.408214 306.40849 
L 1044.495772 307.275943 
L 1043.832178 307.950629 
L 1042.753837 309.01085 
" clip-path="url(#p62872f368e)" style="fill: none; stroke: #7a7a7a; stroke-width: 3; stroke-linecap: square"/>
   </g>
   <g id="line2d_9">
    <path d="M 545.058265 812.133843 
L 543.814026 813.386831 
L 351.786484 999.88932 
L 232.256597 1114.682324 
L 124.339607 1220.608027 
L 8.708336 1330.967381 
L -1 1340.474167 
" clip-path="url(#p62872f368e)" style="fill: none; stroke: #7a7a7a; stroke-width: 3; stroke-linecap: square"/>
   </g>
   <g id="line2d_10">
    <path d="M 545.058265 792.375181 
L 543.731076 793.628169 
L -1 1322.013895 
" clip-path="url(#p62872f368e)" style="fill: none; stroke: #7a7a7a; stroke-width: 3; stroke-linecap: square"/>
   </g>
   <g id="line2d_11">
    <path d="M 1042.753837 327.612907 
L 1043.832178 326.64907 
L 1044.495772 325.974384 
L 1045.408214 325.10693 
L 1045.988858 324.528628 
L 1046.735402 323.853942 
L 1382.412307 -1 
" clip-path="url(#p62872f368e)" style="fill: none; stroke: #7a7a7a; stroke-width: 3; stroke-linecap: square"/>
   </g>
   <g id="line2d_12">
    <path d="M 1042.753837 344.865592 
L 1043.832178 343.901755 
L 1044.495772 343.227069 
L 1045.408214 342.359615 
L 1045.988858 341.781313 
L 1046.735402 341.106627 
L 1362.937989 34.028111 
L 1399.242838 -1 
" clip-path="url(#p62872f368e)" style="fill: none; stroke: #7a7a7a; stroke-width: 3; stroke-linecap: square"/>
   </g>
   <g id="line2d_13">
    <path d="M 882.578812 600.282437 
L 899.168665 623.414529 
" clip-path="url(#p62872f368e)" style="fill: none; stroke: #7a7a7a; stroke-width: 3; stroke-linecap: square"/>
   </g>
   <g id="line2d_14">
    <path d="M 859.767765 627.751796 
L 871.54656 644.137027 
" clip-path="url(#p62872f368e)" style="fill: none; stroke: #7a7a7a; stroke-width: 3; stroke-linecap: square"/>
   </g>
   <g id="line2d_15">
    <path d="M 615.067442 156.628196 
L 605.694175 171.953207 
L 599.472981 187.760136 
L 596.237959 203.856217 
L 595.657315 219.952297 
L 597.565148 235.759226 
L 601.712611 250.89147 
L 607.767907 265.156259 
L 612.247167 271.421201 
" clip-path="url(#p62872f368e)" style="fill: none; stroke: #7a7a7a; stroke-width: 3; stroke-linecap: square"/>
   </g>
   <g id="line2d_16">
    <path d="M 599.472981 140.146581 
L 588.523678 155.471592 
L 580.062853 171.76044 
L 574.173456 188.62759 
L 570.606637 205.687507 
L 569.445348 222.747425 
L 570.606637 239.421808 
L 574.007557 255.325121 
L 579.731056 270.071829 
L 587.611236 283.372782 
L 592.090496 289.637723 
" clip-path="url(#p62872f368e)" style="fill: none; stroke: #7a7a7a; stroke-width: 3; stroke-linecap: square"/>
   </g>
   <g id="line2d_17">
    <path d="M 1042.753837 298.89056 
L 1041.3437 300.239932 
L 912.606445 426.213447 
" clip-path="url(#p62872f368e)" style="fill: none; stroke: #7a7a7a; stroke-width: 3; stroke-linecap: square"/>
   </g>
   <g id="line2d_18">
    <path d="M 1042.753837 232.964099 
L 1041.3437 234.313471 
L 884.237797 388.816566 
" clip-path="url(#p62872f368e)" style="fill: none; stroke: #7a7a7a; stroke-width: 3; stroke-linecap: square"/>
   </g>
   <g id="line2d_19">
    <path d="M 737.251705 445.201039 
L 757.076579 472.863166 
L 767.196389 488.670095 
L 773.998228 504.766175 
L 777.399148 520.862256 
L 777.316198 536.669185 
L 773.583482 551.994196 
L 766.035099 566.548137 
L 754.505151 580.13824 
" clip-path="url(#p62872f368e)" style="fill: none; stroke: #7a7a7a; stroke-width: 3; stroke-linecap: square"/>
   </g>
   <g id="line2d_20">
    <path d="M 717.426831 465.248852 
L 737.251705 492.814595 
L 742.477508 507.75407 
L 739.906081 525.295907 
L 727.961388 542.644975 
" clip-path="url(#p62872f368e)" style="fill: none; stroke: #7a7a7a; stroke-width: 3; stroke-linecap: square"/>
   </g>
   <g id="line2d_21">
    <path d="M 737.251705 445.201039 
L 612.247167 271.421201 
" clip-path="url(#p62872f368e)" style="fill: none; stroke: #7a7a7a; stroke-width: 3; stroke-linecap: square"/>
   </g>
   <g id="line2d_22">
    <path d="M 757.242477 425.056843 
L 700.67108 347.757103 
L 653.721798 282.505328 
L 633.565127 253.686597 
" clip-path="url(#p62872f368e)" style="fill: none; stroke: #7a7a7a; stroke-width: 3; stroke-linecap: square"/>
   </g>
   <g id="line2d_23">
    <path d="M 545.058265 812.133843 
L 546.302504 810.880854 
L 546.883148 810.302552 
L 547.629692 809.531482 
L 548.376235 808.856796 
L 549.205728 807.989343 
L 756.91068 604.52332 
" clip-path="url(#p62872f368e)" style="fill: none; stroke: #7a7a7a; stroke-width: 3; stroke-linecap: square"/>
   </g>
   <g id="line2d_24">
    <path d="M 545.058265 827.651621 
L 546.302504 826.398633 
L 546.966098 825.82033 
L 547.629692 825.145644 
L 548.376235 824.470958 
L 549.205728 823.603505 
L 764.956758 614.836378 
" clip-path="url(#p62872f368e)" style="fill: none; stroke: #7a7a7a; stroke-width: 3; stroke-linecap: square"/>
   </g>
   <g id="line2d_25">
    <path d="M 612.247167 271.421201 
L 599.887727 254.2649 
L 534.274861 162.796754 
" clip-path="url(#p62872f368e)" style="fill: none; stroke: #7a7a7a; stroke-width: 3; stroke-linecap: square"/>
   </g>
   <g id="line2d_26">
    <path d="M 633.565127 253.686597 
L 554.763328 142.170639 
" clip-path="url(#p62872f368e)" style="fill: none; stroke: #7a7a7a; stroke-width: 3; stroke-linecap: square"/>
   </g>
   <g id="line2d_27">
    <path d="M 912.606445 426.213447 
L 873.122596 464.863317 
L 860.514308 474.983607 
L 846.910629 482.501537 
L 832.643356 487.417107 
L 817.878388 489.633932 
L 803.113419 489.248397 
L 788.4314 486.164118 
L 774.247076 480.188328 
L 760.726346 471.41741 
L 748.366906 459.75498 
L 737.251705 445.201039 
" clip-path="url(#p62872f368e)" style="fill: none; stroke: #7a7a7a; stroke-width: 3; stroke-linecap: square"/>
   </g>
   <g id="line2d_28">
    <path d="M 884.237797 388.816566 
L 844.753949 427.466436 
L 829.98898 440.189086 
L 813.647975 447.321481 
L 797.058123 449.249155 
L 781.380712 446.068493 
L 778.31159 444.237202 
L 774.91067 442.598679 
L 771.343852 440.092702 
L 767.694084 437.875877 
L 761.970585 430.839866 
L 759.565056 428.141122 
L 757.242477 425.056843 
" clip-path="url(#p62872f368e)" style="fill: none; stroke: #7a7a7a; stroke-width: 3; stroke-linecap: square"/>
   </g>
   <g id="line2d_29">
    <path d="M 1175.804454 1010.587912 
L 1061.915117 849.241573 
L 974.901341 728.472778 
L 931.021181 667.55827 
" clip-path="url(#p62872f368e)" style="fill: none; stroke: #7a7a7a; stroke-width: 3; stroke-linecap: square"/>
   </g>
   <g id="line2d_30">
    <path d="M 1211.970332 975.793391 
L 1152.993407 889.433582 
L 1151.583269 887.313141 
L 1145.776821 879.024141 
L 1122.30218 845.289841 
L 1105.131682 821.483063 
L 1045.242315 738.689452 
L 1021.684725 705.629838 
L 969.260791 632.956516 
" clip-path="url(#p62872f368e)" style="fill: none; stroke: #7a7a7a; stroke-width: 3; stroke-linecap: square"/>
   </g>
   <g id="line2d_31">
    <path d="M 932.431319 433.827761 
L 885.979732 478.838956 
L 875.279277 490.019467 
L 867.316148 502.838501 
L 862.173294 517.103291 
L 859.933664 532.621069 
L 860.680207 549.0063 
L 864.661771 565.873451 
L 871.878357 583.126136 
L 882.578812 600.282437 
" clip-path="url(#p62872f368e)" style="fill: none; stroke: #7a7a7a; stroke-width: 3; stroke-linecap: square"/>
   </g>
   <g id="line2d_32">
    <path d="M 924.551139 422.840017 
L 878.099552 467.851212 
L 863.417533 482.983456 
L 852.053484 499.17592 
L 843.924456 516.139454 
L 838.615703 533.488522 
L 836.210175 550.933975 
L 836.376073 568.090276 
L 839.030449 584.764659 
L 843.924456 600.475204 
L 850.892194 614.932762 
L 859.767765 627.751796 
" clip-path="url(#p62872f368e)" style="fill: none; stroke: #7a7a7a; stroke-width: 3; stroke-linecap: square"/>
   </g>
   <g id="line2d_33">
    <path d="M 912.606445 426.213447 
L 754.505151 580.13824 
" clip-path="url(#p62872f368e)" style="fill: none; stroke: #7a7a7a; stroke-width: 3; stroke-linecap: square"/>
   </g>
   <g id="line2d_34">
    <path d="M 884.237797 388.816566 
L 727.961388 542.644975 
" clip-path="url(#p62872f368e)" style="fill: none; stroke: #7a7a7a; stroke-width: 3; stroke-linecap: square"/>
   </g>
   <g id="line2d_35">
    <path d="M 882.578812 600.282437 
L 871.878357 583.126136 
L 864.661771 565.873451 
L 860.680207 549.0063 
L 859.933664 532.621069 
L 862.173294 517.103291 
L 867.316148 502.838501 
L 875.279277 490.019467 
L 885.979732 478.838956 
L 932.431319 433.827761 
" clip-path="url(#p62872f368e)" style="fill: none; stroke: #7a7a7a; stroke-width: 3; stroke-linecap: square"/>
   </g>
   <g id="line2d_36">
    <path d="M 921.399067 566.64452 
L 901.325345 538.88601 
L 891.122586 525.103139 
L 887.638717 519.898419 
L 885.482036 515.657535 
L 884.071899 511.705803 
L 883.657153 507.657687 
L 884.154848 503.513187 
L 885.979732 499.17592 
L 888.882956 495.03142 
L 893.611064 489.923083 
L 913.767735 470.260805 
L 915.094923 468.815049 
L 940.1456 444.622737 
" clip-path="url(#p62872f368e)" style="fill: none; stroke: #7a7a7a; stroke-width: 3; stroke-linecap: square"/>
   </g>
   <g id="line2d_37">
    <path d="M 737.251705 445.201039 
L 770.265511 491.079688 
L 777.316198 504.862559 
L 781.795459 521.055023 
L 783.454444 538.693243 
L 782.044306 556.909765 
L 777.316198 574.547985 
L 769.021272 590.740449 
L 756.91068 604.52332 
" clip-path="url(#p62872f368e)" style="fill: none; stroke: #7a7a7a; stroke-width: 3; stroke-linecap: square"/>
   </g>
   <g id="line2d_38">
    <path d="M 717.426831 465.248852 
L 750.440638 511.1275 
L 759.482107 527.319965 
L 764.044317 546.114789 
L 763.878418 565.102381 
L 758.818513 581.873147 
L 748.781652 593.921112 
" clip-path="url(#p62872f368e)" style="fill: none; stroke: #7a7a7a; stroke-width: 3; stroke-linecap: square"/>
   </g>
   <g id="line2d_39">
    <path d="M 534.274861 162.796754 
L 599.887727 254.2649 
L 612.247167 271.421201 
" clip-path="url(#p62872f368e)" style="fill: none; stroke: #7a7a7a; stroke-width: 3; stroke-linecap: square"/>
   </g>
   <g id="line2d_40">
    <path d="M 513.786393 181.302427 
L 592.090496 289.637723 
" clip-path="url(#p62872f368e)" style="fill: none; stroke: #7a7a7a; stroke-width: 3; stroke-linecap: square"/>
   </g>
   <g id="line2d_41">
    <path d="M 932.431319 433.827761 
L 1041.3437 328.962279 
L 1042.753837 327.612907 
" clip-path="url(#p62872f368e)" style="fill: none; stroke: #7a7a7a; stroke-width: 3; stroke-linecap: square"/>
   </g>
   <g id="line2d_42">
    <path d="M 940.1456 444.622737 
L 1041.3437 346.311348 
L 1042.753837 344.865592 
" clip-path="url(#p62872f368e)" style="fill: none; stroke: #7a7a7a; stroke-width: 3; stroke-linecap: square"/>
   </g>
   <g id="line2d_43">
    <path d="M 756.91068 604.52332 
L 855.288505 508.139605 
L 932.431319 433.827761 
" clip-path="url(#p62872f368e)" style="fill: none; stroke: #7a7a7a; stroke-width: 3; stroke-linecap: square"/>
   </g>
   <g id="line2d_44">
    <path d="M 764.956758 614.836378 
L 933.675558 450.887678 
L 940.1456 444.622737 
" clip-path="url(#p62872f368e)" style="fill: none; stroke: #7a7a7a; stroke-width: 3; stroke-linecap: square"/>
   </g>
   <g id="line2d_45">
    <path d="M 1042.753837 327.612907 
L 1041.3437 328.962279 
L 932.431319 433.827761 
" clip-path="url(#p62872f368e)" style="fill: none; stroke: #7a7a7a; stroke-width: 3; stroke-linecap: square"/>
   </g>
   <g id="line2d_46">
    <path d="M 1042.753837 309.01085 
L 1041.3437 310.360222 
L 924.551139 422.840017 
" clip-path="url(#p62872f368e)" style="fill: none; stroke: #7a7a7a; stroke-width: 3; stroke-linecap: square"/>
   </g>
   <g id="line2d_47">
    <path d="M 882.578812 600.282437 
L 878.016603 594.017495 
L 866.569605 582.065915 
L 853.54657 572.33116 
L 839.362247 565.102381 
L 824.514329 560.379579 
L 809.417563 558.355521 
L 794.403746 559.126591 
L 779.970575 562.981939 
L 766.532794 569.921567 
L 754.505151 580.13824 
" clip-path="url(#p62872f368e)" style="fill: none; stroke: #7a7a7a; stroke-width: 3; stroke-linecap: square"/>
   </g>
   <g id="line2d_48">
    <path d="M 921.399067 566.64452 
L 916.670959 559.994044 
L 906.551149 547.078626 
L 894.523506 535.416197 
L 881.085725 525.488674 
L 866.486655 517.296058 
L 850.975143 511.1275 
L 834.882986 506.983001 
L 818.459032 504.958943 
L 802.035079 505.055326 
L 785.694074 507.561303 
L 769.933714 512.476872 
L 754.836948 519.898419 
L 740.735574 529.922325 
L 727.961388 542.644975 
" clip-path="url(#p62872f368e)" style="fill: none; stroke: #7a7a7a; stroke-width: 3; stroke-linecap: square"/>
   </g>
   <g id="line2d_49">
    <path d="M 612.247167 271.421201 
L 737.251705 445.201039 
" clip-path="url(#p62872f368e)" style="fill: none; stroke: #7a7a7a; stroke-width: 3; stroke-linecap: square"/>
   </g>
   <g id="line2d_50">
    <path d="M 592.090496 289.637723 
L 609.343943 313.540884 
L 659.030551 383.900996 
L 717.426831 465.248852 
" clip-path="url(#p62872f368e)" style="fill: none; stroke: #7a7a7a; stroke-width: 3; stroke-linecap: square"/>
   </g>
   <g id="line2d_51">
    <path d="M 756.91068 604.52332 
L 549.205728 807.989343 
L 548.376235 808.856796 
L 547.629692 809.531482 
L 546.883148 810.302552 
L 546.302504 810.880854 
L 545.058265 812.133843 
" clip-path="url(#p62872f368e)" style="fill: none; stroke: #7a7a7a; stroke-width: 3; stroke-linecap: square"/>
   </g>
   <g id="line2d_52">
    <path d="M 748.781652 593.921112 
L 549.205728 788.327065 
L 548.376235 789.098135 
L 547.629692 789.772821 
L 546.883148 790.543891 
L 546.302504 791.122193 
L 545.058265 792.375181 
" clip-path="url(#p62872f368e)" style="fill: none; stroke: #7a7a7a; stroke-width: 3; stroke-linecap: square"/>
   </g>
   <g id="line2d_53">
    <path d="M 912.606445 426.213447 
L 885.647935 452.718969 
L 874.615683 468.333131 
L 866.735503 485.103897 
L 861.675598 502.742117 
L 859.353019 520.573105 
L 859.601866 538.404092 
L 862.173294 555.753161 
L 866.984351 572.138392 
L 873.78619 587.077868 
L 882.578812 600.282437 
" clip-path="url(#p62872f368e)" style="fill: none; stroke: #7a7a7a; stroke-width: 3; stroke-linecap: square"/>
   </g>
   <g id="line2d_54">
    <path d="M 884.237797 388.816566 
L 871.54656 401.346449 
L 856.283896 417.153378 
L 844.173304 433.731377 
L 835.048885 450.791295 
L 828.495893 468.333131 
L 824.514329 485.971351 
L 822.689445 503.802338 
L 822.855343 521.440558 
L 824.763176 538.789627 
L 828.164096 555.753161 
L 832.892204 572.042008 
L 838.615703 587.65617 
L 845.168695 602.210111 
L 852.302331 615.607448 
L 859.767765 627.751796 
" clip-path="url(#p62872f368e)" style="fill: none; stroke: #7a7a7a; stroke-width: 3; stroke-linecap: square"/>
   </g>
   <g id="line2d_55">
    <path d="M 737.251705 445.201039 
L 748.698703 460.140515 
L 761.970585 472.381247 
L 776.486706 481.826851 
L 792.081167 488.573711 
L 808.173324 492.910978 
L 824.597278 494.645885 
L 840.855333 493.874815 
L 856.615693 490.790537 
L 871.54656 485.489432 
L 885.150239 477.875119 
L 897.177882 468.04398 
L 932.431319 433.827761 
" clip-path="url(#p62872f368e)" style="fill: none; stroke: #7a7a7a; stroke-width: 3; stroke-linecap: square"/>
   </g>
   <g id="line2d_56">
    <path d="M 717.426831 465.248852 
L 727.629591 478.357037 
L 739.657234 489.344781 
L 753.177963 498.308466 
L 767.777033 505.248094 
L 783.371495 510.06728 
L 799.546601 512.958791 
L 816.053504 513.826244 
L 832.477458 512.766024 
L 848.735513 509.681745 
L 864.329974 504.766175 
L 879.094943 497.922931 
L 892.698622 489.248397 
L 904.809214 478.742572 
L 940.1456 444.622737 
" clip-path="url(#p62872f368e)" style="fill: none; stroke: #7a7a7a; stroke-width: 3; stroke-linecap: square"/>
   </g>
   <g id="line2d_57">
    <path d="M 932.431319 433.827761 
L 855.288505 508.139605 
L 756.91068 604.52332 
" clip-path="url(#p62872f368e)" style="fill: none; stroke: #7a7a7a; stroke-width: 3; stroke-linecap: square"/>
   </g>
   <g id="line2d_58">
    <path d="M 924.551139 422.840017 
L 748.781652 593.921112 
" clip-path="url(#p62872f368e)" style="fill: none; stroke: #7a7a7a; stroke-width: 3; stroke-linecap: square"/>
   </g>
   <g id="line2d_59">
    <path d="M 612.247167 271.421201 
L 607.767907 265.156259 
L 601.712611 250.89147 
L 597.565148 235.759226 
L 595.657315 219.952297 
L 596.237959 203.856217 
L 599.472981 187.760136 
L 605.694175 171.953207 
L 615.067442 156.628196 
" clip-path="url(#p62872f368e)" style="fill: none; stroke: #7a7a7a; stroke-width: 3; stroke-linecap: square"/>
   </g>
   <g id="line2d_60">
    <path d="M 633.565127 253.686597 
L 630.164208 247.807191 
L 628.090476 242.698854 
L 624.523658 235.470075 
L 620.210296 218.024623 
L 620.127347 201.735775 
L 623.943013 186.892683 
L 631.491396 173.977265 
" clip-path="url(#p62872f368e)" style="fill: none; stroke: #7a7a7a; stroke-width: 3; stroke-linecap: square"/>
   </g>
   <g id="line2d_61">
    <path d="M 756.91068 604.52332 
L 785.611125 576.475659 
L 796.643377 566.066218 
L 809.915258 561.343416 
L 824.680227 561.536183 
L 840.10879 566.066218 
L 855.371454 574.547985 
L 869.804626 586.114031 
L 882.578812 600.282437 
" clip-path="url(#p62872f368e)" style="fill: none; stroke: #7a7a7a; stroke-width: 3; stroke-linecap: square"/>
   </g>
   <g id="line2d_62">
    <path d="M 764.956758 614.836378 
L 779.058133 601.246274 
L 787.850755 593.246426 
L 792.993609 590.065763 
L 797.721717 588.909159 
L 801.122637 589.101926 
L 804.772404 589.391077 
L 809.583461 590.836833 
L 820.698663 595.752402 
L 831.482067 602.69203 
L 845.915238 613.005087 
L 859.767765 627.751796 
" clip-path="url(#p62872f368e)" style="fill: none; stroke: #7a7a7a; stroke-width: 3; stroke-linecap: square"/>
   </g>
   <g id="line2d_63">
    <path d="M 882.578812 600.282437 
L 869.804626 586.114031 
L 855.371454 574.547985 
L 840.10879 566.066218 
L 824.680227 561.536183 
L 809.915258 561.343416 
L 796.643377 566.066218 
L 785.611125 576.475659 
L 756.91068 604.52332 
" clip-path="url(#p62872f368e)" style="fill: none; stroke: #7a7a7a; stroke-width: 3; stroke-linecap: square"/>
   </g>
   <g id="line2d_64">
    <path d="M 921.399067 566.64452 
L 911.694003 556.813381 
L 899.998157 548.235231 
L 886.560377 541.295603 
L 871.878357 536.28365 
L 856.283896 533.584906 
L 840.191739 533.488522 
L 823.850735 536.380034 
L 807.675628 542.452208 
L 792.081167 552.186963 
L 777.399148 565.873451 
L 748.781652 593.921112 
" clip-path="url(#p62872f368e)" style="fill: none; stroke: #7a7a7a; stroke-width: 3; stroke-linecap: square"/>
   </g>
   <g id="line2d_65">
    <path d="M 882.578812 600.282437 
L 737.251705 445.201039 
" clip-path="url(#p62872f368e)" style="fill: none; stroke: #7a7a7a; stroke-width: 3; stroke-linecap: square"/>
   </g>
   <g id="line2d_66">
    <path d="M 921.399067 566.64452 
L 780.136473 444.719121 
L 778.31159 444.237202 
L 774.91067 442.598679 
L 770.680258 439.610784 
L 766.864591 436.237354 
L 759.565056 428.141122 
L 757.242477 425.056843 
" clip-path="url(#p62872f368e)" style="fill: none; stroke: #7a7a7a; stroke-width: 3; stroke-linecap: square"/>
   </g>
   <g id="line2d_67">
    <path d="M 718.339273 615.318296 
L 549.205728 780.905519 
L 548.376235 781.772972 
L 547.629692 782.447658 
L 546.883148 783.122344 
L 546.302504 783.79703 
L 545.058265 784.953635 
" clip-path="url(#p62872f368e)" style="fill: none; stroke: #7a7a7a; stroke-width: 3; stroke-linecap: square"/>
   </g>
   <g id="line2d_68">
    <path d="M 691.878459 578.210566 
L 549.122778 718.738023 
L 548.293286 719.605476 
L 547.629692 720.183779 
L 546.883148 720.954848 
L 546.219554 721.629534 
L 545.058265 722.786139 
" clip-path="url(#p62872f368e)" style="fill: none; stroke: #7a7a7a; stroke-width: 3; stroke-linecap: square"/>
   </g>
   <g id="line2d_69">
    <path d="M 754.505151 580.13824 
L 718.339273 615.318296 
" clip-path="url(#p62872f368e)" style="fill: none; stroke: #7a7a7a; stroke-width: 3; stroke-linecap: square"/>
   </g>
   <g id="line2d_70">
    <path d="M 727.961388 542.644975 
L 691.878459 578.210566 
" clip-path="url(#p62872f368e)" style="fill: none; stroke: #7a7a7a; stroke-width: 3; stroke-linecap: square"/>
   </g>
   <g id="line2d_71">
    <path d="M 899.168665 623.414529 
L 882.578812 600.282437 
" clip-path="url(#p62872f368e)" style="fill: none; stroke: #7a7a7a; stroke-width: 3; stroke-linecap: square"/>
   </g>
   <g id="line2d_72">
    <path d="M 940.1456 592.57174 
L 921.399067 566.64452 
" clip-path="url(#p62872f368e)" style="fill: none; stroke: #7a7a7a; stroke-width: 3; stroke-linecap: square"/>
   </g>
   <g id="line2d_73">
    <path d="M 737.251705 445.201039 
L 882.578812 600.282437 
" clip-path="url(#p62872f368e)" style="fill: none; stroke: #7a7a7a; stroke-width: 3; stroke-linecap: square"/>
   </g>
   <g id="line2d_74">
    <path d="M 717.426831 465.248852 
L 859.767765 627.751796 
" clip-path="url(#p62872f368e)" style="fill: none; stroke: #7a7a7a; stroke-width: 3; stroke-linecap: square"/>
   </g>
   <g id="line2d_75">
    <path d="M 899.168665 623.414529 
L 931.021181 667.55827 
" clip-path="url(#p62872f368e)" style="fill: none; stroke: #7a7a7a; stroke-width: 3; stroke-linecap: square"/>
   </g>
   <g id="line2d_76">
    <path d="M 871.54656 644.137027 
L 905.389859 690.979513 
" clip-path="url(#p62872f368e)" style="fill: none; stroke: #7a7a7a; stroke-width: 3; stroke-linecap: square"/>
   </g>
   <g id="line2d_77">
    <path d="M 931.021181 667.55827 
L 899.168665 623.414529 
" clip-path="url(#p62872f368e)" style="fill: none; stroke: #7a7a7a; stroke-width: 3; stroke-linecap: square"/>
   </g>
   <g id="line2d_78">
    <path d="M 969.260791 632.956516 
L 940.1456 592.57174 
" clip-path="url(#p62872f368e)" style="fill: none; stroke: #7a7a7a; stroke-width: 3; stroke-linecap: square"/>
   </g>
   <g id="line2d_79">
    <path d="M 931.021181 667.55827 
L 974.901341 728.472778 
L 1061.915117 849.241573 
L 1175.804454 1010.587912 
" clip-path="url(#p62872f368e)" style="fill: none; stroke: #7a7a7a; stroke-width: 3; stroke-linecap: square"/>
   </g>
   <g id="line2d_80">
    <path d="M 905.389859 690.979513 
L 938.735463 768.761171 
L 981.122535 827.458853 
L 1041.841395 912.662058 
L 1054.117886 930.203894 
L 1072.864419 956.420264 
L 1091.94275 982.443867 
L 1117.491122 1017.913075 
L 1117.325224 1018.780528 
L 1137.233047 1046.731805 
" clip-path="url(#p62872f368e)" style="fill: none; stroke: #7a7a7a; stroke-width: 3; stroke-linecap: square"/>
   </g>
   <g id="line2d_81">
    <path d="M 1315.576107 48.191858 
L 1023.497903 337.528899 
" clip-path="url(#p62872f368e)" style="fill: none; stroke-dasharray: 32,8,5,8; stroke-dashoffset: 0; stroke: #1e90ff; stroke-width: 5"/>
   </g>
   <g id="line2d_82">
    <path d="M 366.557366 987.378332 
L 612.009012 751.714737 
" clip-path="url(#p62872f368e)" style="fill: none; stroke-dasharray: 32,8,5,8; stroke-dashoffset: 0; stroke: #1e90ff; stroke-width: 5"/>
   </g>
   <g id="line2d_83">
    <path d="M 743.242399 592.958686 
L 165.898524 1150.848855 
" clip-path="url(#p62872f368e)" style="fill: none; stroke-dasharray: 32,8,5,8; stroke-dashoffset: 0; stroke: #1e90ff; stroke-width: 5"/>
   </g>
   <g id="line2d_84">
    <path d="M 1315.576107 48.191858 
" clip-path="url(#p62872f368e)" style="fill: none; stroke: #0000ff; stroke-width: 1.5; stroke-linecap: square"/>
    <defs>
     <path id="m28853a3bc8" d="M 0 10 
C 2.652031 10 5.195799 8.946337 7.071068 7.071068 
C 8.946337 5.195799 10 2.652031 10 0 
C 10 -2.652031 8.946337 -5.195799 7.071068 -7.071068 
C 5.195799 -8.946337 2.652031 -10 0 -10 
C -2.652031 -10 -5.195799 -8.946337 -7.071068 -7.071068 
C -8.946337 -5.195799 -10 -2.652031 -10 0 
C -10 2.652031 -8.946337 5.195799 -7.071068 7.071068 
C -5.195799 8.946337 -2.652031 10 0 10 
z
" style="stroke: #0000ff"/>
    </defs>
    <g clip-path="url(#p62872f368e)">
     <use xlink:href="#m28853a3bc8" x="1315.576107" y="48.191858" style="fill: #0000ff; stroke: #0000ff"/>
    </g>
   </g>
   <g id="line2d_85">
    <path d="M 366.557366 987.378332 
" clip-path="url(#p62872f368e)" style="fill: none; stroke: #0000ff; stroke-width: 1.5; stroke-linecap: square"/>
    <g clip-path="url(#p62872f368e)">
     <use xlink:href="#m28853a3bc8" x="366.557366" y="987.378332" style="fill: #0000ff; stroke: #0000ff"/>
    </g>
   </g>
   <g id="line2d_86">
    <path d="M 743.242399 592.958686 
" clip-path="url(#p62872f368e)" style="fill: none; stroke: #0000ff; stroke-width: 1.5; stroke-linecap: square"/>
    <g clip-path="url(#p62872f368e)">
     <use xlink:href="#m28853a3bc8" x="743.242399" y="592.958686" style="fill: #0000ff; stroke: #0000ff"/>
    </g>
   </g>
   <g id="line2d_87">
    <path d="M 1023.497903 337.528899 
" clip-path="url(#p62872f368e)" style="fill: none; stroke: #ff0000; stroke-width: 1.5; stroke-linecap: square"/>
    <defs>
     <path id="mf5c839238e" d="M 0 -10 
L -2.24514 -3.09017 
L -9.510565 -3.09017 
L -3.632713 1.18034 
L -5.877853 8.09017 
L -0 3.81966 
L 5.877853 8.09017 
L 3.632713 1.18034 
L 9.510565 -3.09017 
L 2.24514 -3.09017 
z
" style="stroke: #ff0000; stroke-linejoin: bevel"/>
    </defs>
    <g clip-path="url(#p62872f368e)">
     <use xlink:href="#mf5c839238e" x="1023.497903" y="337.528899" style="fill: #ff0000; stroke: #ff0000; stroke-linejoin: bevel"/>
    </g>
   </g>
   <g id="line2d_88">
    <path d="M 612.009012 751.714737 
" clip-path="url(#p62872f368e)" style="fill: none; stroke: #ff0000; stroke-width: 1.5; stroke-linecap: square"/>
    <g clip-path="url(#p62872f368e)">
     <use xlink:href="#mf5c839238e" x="612.009012" y="751.714737" style="fill: #ff0000; stroke: #ff0000; stroke-linejoin: bevel"/>
    </g>
   </g>
   <g id="line2d_89">
    <path d="M 165.898524 1150.848855 
" clip-path="url(#p62872f368e)" style="fill: none; stroke: #ff0000; stroke-width: 1.5; stroke-linecap: square"/>
    <g clip-path="url(#p62872f368e)">
     <use xlink:href="#mf5c839238e" x="165.898524" y="1150.848855" style="fill: #ff0000; stroke: #ff0000; stroke-linejoin: bevel"/>
    </g>
   </g>
  </g>
 </g>
 <defs>
  <clipPath id="p62872f368e">
   <rect x="0" y="0" width="1440" height="1440"/>
  </clipPath>
 </defs>
</svg>
