<?xml version="1.0" encoding="utf-8" standalone="no"?>
<!DOCTYPE svg PUBLIC "-//W3C//DTD SVG 1.1//EN"
  "http://www.w3.org/Graphics/SVG/1.1/DTD/svg11.dtd">
<svg xmlns:xlink="http://www.w3.org/1999/xlink" width="1440pt" height="1440pt" viewBox="0 0 1440 1440" xmlns="http://www.w3.org/2000/svg" version="1.1">
 <metadata>
  <rdf:RDF xmlns:dc="http://purl.org/dc/elements/1.1/" xmlns:cc="http://creativecommons.org/ns#" xmlns:rdf="http://www.w3.org/1999/02/22-rdf-syntax-ns#">
   <cc:Work>
    <dc:type rdf:resource="http://purl.org/dc/dcmitype/StillImage"/>
    <dc:date>2026-02-27T11:04:14.701443</dc:date>
    <dc:format>image/svg+xml</dc:format>
    <dc:creator>
     <cc:Agent>
      <dc:title>Matplotlib v3.7.3, https://matplotlib.org/</dc:title>
     </cc:Agent>
    </dc:creator>
   </cc:Work>
  </rdf:RDF>
 </metadata>
 <defs>
  <style type="text/css">*{stroke-linejoin: round; stroke-linecap: butt}</style>
 </defs>
 <g id="figure_1">
  <g id="patch_1">
   <path d="M 0 1440 
L 1440 1440 
L 1440 0 
L 0 0 
z
" style="fill: #ffffff"/>
  </g>
  <g id="axes_1">
   <g id="line2d_1">
    <path d="M 968.778465 577.37777 
L 1168.645745 574.059004 
L 1283.828669 573.048945 
L 1284.845288 573.048945 
L 1286.166892 572.976798 
" clip-path="url(#pa4c3ec3c36)" style="fill: none; stroke: #7a7a7a; stroke-width: 3; stroke-linecap: square"/>
   </g>
   <g id="line2d_2">
    <path d="M 956.985685 601.114158 
L 1283.930331 596.424598 
L 1284.845288 596.424598 
L 1286.166892 596.352451 
" clip-path="url(#pa4c3ec3c36)" style="fill: none; stroke: #7a7a7a; stroke-width: 3; stroke-linecap: square"/>
   </g>
   <g id="line2d_3">
    <path d="M 1107.038638 430.847056 
L 1059.664196 431.352085 
L 1027.539038 431.49638 
L 1012.391416 431.857115 
L 1010.256517 432.21785 
L 658.811355 437.340293 
" clip-path="url(#pa4c3ec3c36)" style="fill: none; stroke: #7a7a7a; stroke-width: 3; stroke-linecap: square"/>
   </g>
   <g id="line2d_4">
    <path d="M 1131.640816 406.100608 
L 677.618805 413.098875 
" clip-path="url(#pa4c3ec3c36)" style="fill: none; stroke: #7a7a7a; stroke-width: 3; stroke-linecap: square"/>
   </g>
   <g id="line2d_5">
    <path d="M 251.045505 556.166529 
L 295.980061 556.022235 
L 523.296053 555.372911 
" clip-path="url(#pa4c3ec3c36)" style="fill: none; stroke: #7a7a7a; stroke-width: 3; stroke-linecap: square"/>
   </g>
   <g id="line2d_6">
    <path d="M 250.842181 581.273712 
L 300.859832 581.057271 
L 507.741783 580.3358 
" clip-path="url(#pa4c3ec3c36)" style="fill: none; stroke: #7a7a7a; stroke-width: 3; stroke-linecap: square"/>
   </g>
   <g id="line2d_7">
    <path d="M 1094.330902 287.057931 
L 1189.079785 187.062082 
" clip-path="url(#pa4c3ec3c36)" style="fill: none; stroke: #7a7a7a; stroke-width: 3; stroke-linecap: square"/>
   </g>
   <g id="line2d_8">
    <path d="M 1127.57434 290.665285 
L 1128.794283 287.562961 
L 1133.572392 281.791194 
L 1137.537206 278.544576 
L 1199.347636 211.736383 
L 1212.157035 198.100585 
" clip-path="url(#pa4c3ec3c36)" style="fill: none; stroke: #7a7a7a; stroke-width: 3; stroke-linecap: square"/>
   </g>
   <g id="line2d_9">
    <path d="M 251.147167 533.4402 
L 471.855135 533.800935 
L 522.787743 533.728788 
L 536.918746 533.800935 
" clip-path="url(#pa4c3ec3c36)" style="fill: none; stroke: #7a7a7a; stroke-width: 3; stroke-linecap: square"/>
   </g>
   <g id="line2d_10">
    <path d="M 251.045505 556.166529 
L 295.980061 556.022235 
L 523.296053 555.372911 
" clip-path="url(#pa4c3ec3c36)" style="fill: none; stroke: #7a7a7a; stroke-width: 3; stroke-linecap: square"/>
   </g>
   <g id="line2d_11">
    <path d="M 631.769292 795.983413 
L 632.989234 794.756913 
L 633.192558 794.540472 
L 633.599206 794.107589 
L 634.107515 793.60256 
L 634.412501 793.313972 
L 758.541671 659.553291 
" clip-path="url(#pa4c3ec3c36)" style="fill: none; stroke: #7a7a7a; stroke-width: 3; stroke-linecap: square"/>
   </g>
   <g id="line2d_12">
    <path d="M 663.284478 795.983413 
L 664.504421 794.756913 
L 664.707745 794.540472 
L 665.114392 794.107589 
L 665.622702 793.60256 
L 665.927688 793.313972 
L 682.905224 774.700026 
L 709.947287 745.480459 
L 711.16723 744.109665 
L 794.326657 660.346908 
" clip-path="url(#pa4c3ec3c36)" style="fill: none; stroke: #7a7a7a; stroke-width: 3; stroke-linecap: square"/>
   </g>
   <g id="line2d_13">
    <path d="M 758.541671 659.553291 
L 771.961041 644.76314 
L 784.363792 631.848813 
L 796.359895 620.593869 
L 808.051013 610.998308 
L 820.148778 602.917835 
L 832.653191 596.13601 
L 846.275884 590.652832 
L 861.118521 586.324007 
L 877.791071 582.933095 
L 896.496859 580.480094 
L 917.642533 578.820711 
L 941.634739 577.882799 
L 968.778465 577.37777 
" clip-path="url(#pa4c3ec3c36)" style="fill: none; stroke: #7a7a7a; stroke-width: 3; stroke-linecap: square"/>
   </g>
   <g id="line2d_14">
    <path d="M 794.326657 660.346908 
L 796.258233 658.254643 
L 797.783162 655.801643 
L 809.474279 643.608786 
L 816.895598 637.11555 
L 823.300297 632.42599 
L 836.719667 624.778399 
L 854.002188 616.697927 
L 862.541787 613.523455 
L 885.619037 606.813777 
L 892.633707 605.51513 
L 903.409868 604.072188 
L 911.847805 603.927894 
L 933.705112 602.124217 
L 956.985685 601.114158 
" clip-path="url(#pa4c3ec3c36)" style="fill: none; stroke: #7a7a7a; stroke-width: 3; stroke-linecap: square"/>
   </g>
   <g id="line2d_15">
    <path d="M 162.091349 1143.588031 
L 138.709114 1168.334479 
L 130.271177 1177.064275 
" clip-path="url(#pa4c3ec3c36)" style="fill: none; stroke: #7a7a7a; stroke-width: 3; stroke-linecap: square"/>
   </g>
   <g id="line2d_16">
    <path d="M 134.032667 1134.569647 
L 104.754042 1165.08786 
" clip-path="url(#pa4c3ec3c36)" style="fill: none; stroke: #7a7a7a; stroke-width: 3; stroke-linecap: square"/>
   </g>
   <g id="line2d_17">
    <path d="M 1018.389468 287.274372 
L 1151.363223 146.082542 
" clip-path="url(#pa4c3ec3c36)" style="fill: none; stroke: #7a7a7a; stroke-width: 3; stroke-linecap: square"/>
   </g>
   <g id="line2d_18">
    <path d="M 1056.207692 288.356578 
L 1163.257665 174.797079 
" clip-path="url(#pa4c3ec3c36)" style="fill: none; stroke: #7a7a7a; stroke-width: 3; stroke-linecap: square"/>
   </g>
   <g id="line2d_19">
    <path d="M 1131.640816 406.100608 
L 677.618805 413.098875 
" clip-path="url(#pa4c3ec3c36)" style="fill: none; stroke: #7a7a7a; stroke-width: 3; stroke-linecap: square"/>
   </g>
   <g id="line2d_20">
    <path d="M 1154.514742 380.344102 
L 696.934565 388.641016 
" clip-path="url(#pa4c3ec3c36)" style="fill: none; stroke: #7a7a7a; stroke-width: 3; stroke-linecap: square"/>
   </g>
   <g id="line2d_21">
    <path d="M 696.934565 388.641016 
L 366.736738 389.073898 
" clip-path="url(#pa4c3ec3c36)" style="fill: none; stroke: #7a7a7a; stroke-width: 3; stroke-linecap: square"/>
   </g>
   <g id="line2d_22">
    <path d="M 714.318748 367.213334 
L 608.082071 366.275422 
L 556.641153 366.708304 
L 489.747628 366.347569 
L 440.339948 366.491863 
L 405.978229 366.347569 
L 366.8384 366.419716 
" clip-path="url(#pa4c3ec3c36)" style="fill: none; stroke: #7a7a7a; stroke-width: 3; stroke-linecap: square"/>
   </g>
   <g id="line2d_23">
    <path d="M 588.258002 795.983413 
L 589.477945 794.756913 
L 589.681268 794.540472 
L 590.087916 794.107589 
L 590.494563 793.60256 
L 590.799549 793.313972 
L 638.6823 742.450282 
L 676.398862 702.336507 
L 716.351986 660.202614 
" clip-path="url(#pa4c3ec3c36)" style="fill: none; stroke: #7a7a7a; stroke-width: 3; stroke-linecap: square"/>
   </g>
   <g id="line2d_24">
    <path d="M 631.769292 795.983413 
L 632.989234 794.756913 
L 633.192558 794.540472 
L 633.599206 794.107589 
L 634.107515 793.60256 
L 634.412501 793.313972 
L 758.541671 659.553291 
" clip-path="url(#pa4c3ec3c36)" style="fill: none; stroke: #7a7a7a; stroke-width: 3; stroke-linecap: square"/>
   </g>
   <g id="line2d_25">
    <path d="M 592.019492 653.060054 
L 459.655708 793.313972 
L 459.350722 793.674707 
L 458.944075 794.107589 
L 458.334103 794.684766 
L 457.114161 795.983413 
" clip-path="url(#pa4c3ec3c36)" style="fill: none; stroke: #7a7a7a; stroke-width: 3; stroke-linecap: square"/>
   </g>
   <g id="line2d_26">
    <path d="M 542.815136 653.348642 
L 522.889405 674.848471 
L 445.219719 757.456874 
L 411.366309 793.386119 
L 411.061324 793.674707 
L 410.553014 794.179737 
L 410.044705 794.684766 
L 408.824762 795.983413 
" clip-path="url(#pa4c3ec3c36)" style="fill: none; stroke: #7a7a7a; stroke-width: 3; stroke-linecap: square"/>
   </g>
   <g id="line2d_27">
    <path d="M 1286.166892 467.714212 
L 1284.641964 467.714212 
L 1283.828669 467.786359 
L 1283.523683 467.786359 
L 1283.218698 467.786359 
L 1224.559786 468.50783 
L 1076.743394 472.836655 
" clip-path="url(#pa4c3ec3c36)" style="fill: none; stroke: #7a7a7a; stroke-width: 3; stroke-linecap: square"/>
   </g>
   <g id="line2d_28">
    <path d="M 1286.166892 445.492913 
L 1284.641964 445.56506 
L 1283.828669 445.56506 
L 1283.523683 445.56506 
L 1283.117036 445.56506 
L 1086.807922 451.986149 
" clip-path="url(#pa4c3ec3c36)" style="fill: none; stroke: #7a7a7a; stroke-width: 3; stroke-linecap: square"/>
   </g>
   <g id="line2d_29">
    <path d="M 947.632791 283.450577 
L 907.882991 320.245587 
L 889.075541 335.46862 
L 872.809638 348.022211 
L 858.475312 358.267096 
L 845.462589 366.419716 
L 833.263162 372.768659 
L 821.368721 377.530366 
L 809.067632 380.921278 
L 795.953248 383.302132 
L 781.313935 384.889368 
L 764.641385 385.971574 
L 696.934565 388.641016 
" clip-path="url(#pa4c3ec3c36)" style="fill: none; stroke: #7a7a7a; stroke-width: 3; stroke-linecap: square"/>
   </g>
   <g id="line2d_30">
    <path d="M 913.16941 281.214018 
L 904.121501 290.953873 
L 896.395197 297.95214 
L 881.044252 311.010761 
L 874.436229 316.133203 
L 867.218234 320.89491 
L 856.950383 327.748883 
L 840.989466 336.767267 
L 824.825225 344.054122 
L 817.505569 346.651417 
L 814.760698 347.80577 
L 803.679552 351.413124 
L 791.581786 354.587595 
L 773.892617 358.41139 
L 765.556342 359.998626 
L 748.680468 362.884509 
L 731.60127 365.33751 
L 727.738118 365.481804 
L 714.318748 367.213334 
" clip-path="url(#pa4c3ec3c36)" style="fill: none; stroke: #7a7a7a; stroke-width: 3; stroke-linecap: square"/>
   </g>
   <g id="line2d_31">
    <path d="M 1154.514742 380.344102 
L 1121.372965 378.107542 
L 1104.903738 372.9851 
L 1091.484369 365.842539 
L 1081.216518 356.968449 
L 1074.506833 346.57927 
L 1071.558638 334.819296 
L 1072.575257 322.121411 
L 1077.861675 308.55776 
L 1094.330902 287.057931 
" clip-path="url(#pa4c3ec3c36)" style="fill: none; stroke: #7a7a7a; stroke-width: 3; stroke-linecap: square"/>
   </g>
   <g id="line2d_32">
    <path d="M 1176.880358 353.288948 
L 1170.373997 352.206742 
L 1163.257665 349.681594 
L 1157.564599 347.372888 
L 1151.566547 344.054122 
L 1145.568495 340.013886 
L 1138.858811 334.675002 
L 1134.182363 328.903236 
L 1128.895945 320.822763 
L 1126.761045 316.493939 
L 1124.626146 306.465495 
L 1125.337779 298.890052 
L 1126.862707 292.613256 
L 1127.57434 290.665285 
" clip-path="url(#pa4c3ec3c36)" style="fill: none; stroke: #7a7a7a; stroke-width: 3; stroke-linecap: square"/>
   </g>
   <g id="line2d_33">
    <path d="M 716.351986 660.202614 
L 734.244479 643.464492 
L 775.11256 602.701394 
L 788.53193 592.456509 
L 801.646314 583.654565 
L 814.86236 576.151269 
L 828.180068 569.946621 
L 841.701099 564.896325 
L 855.832102 560.783942 
L 870.471415 557.681618 
L 886.025684 555.372911 
L 902.494911 553.785675 
L 920.082418 552.775616 
L 938.889868 552.270587 
L 959.222247 552.19844 
L 981.181216 552.342734 
" clip-path="url(#pa4c3ec3c36)" style="fill: none; stroke: #7a7a7a; stroke-width: 3; stroke-linecap: square"/>
   </g>
   <g id="line2d_34">
    <path d="M 758.541671 659.553291 
L 771.961041 644.76314 
L 784.363792 631.848813 
L 796.359895 620.593869 
L 808.051013 610.998308 
L 820.148778 602.917835 
L 832.653191 596.13601 
L 846.275884 590.652832 
L 861.118521 586.324007 
L 877.791071 582.933095 
L 896.496859 580.480094 
L 917.642533 578.820711 
L 941.634739 577.882799 
L 968.778465 577.37777 
" clip-path="url(#pa4c3ec3c36)" style="fill: none; stroke: #7a7a7a; stroke-width: 3; stroke-linecap: square"/>
   </g>
   <g id="line2d_35">
    <path d="M 507.741783 580.3358 
L 546.27164 584.087448 
L 574.73697 588.993449 
L 594.256053 594.981656 
L 606.150495 602.05207 
L 611.538575 610.20469 
L 611.640237 619.367369 
L 607.573761 629.612253 
L 600.660753 640.79505 
L 592.019492 653.060054 
" clip-path="url(#pa4c3ec3c36)" style="fill: none; stroke: #7a7a7a; stroke-width: 3; stroke-linecap: square"/>
   </g>
   <g id="line2d_36">
    <path d="M 494.729061 603.711453 
L 501.845393 603.711453 
L 514.248144 604.000041 
L 520.246196 605.0101 
L 527.362528 606.74163 
L 535.49548 609.916101 
L 540.88356 612.585543 
L 541.900179 612.946279 
L 542.103503 613.16272 
L 543.01846 613.595602 
L 546.77995 616.770074 
L 549.016511 619.872398 
L 551.253073 621.964663 
L 551.659721 623.912634 
L 552.981325 626.221341 
L 553.591297 630.117283 
L 553.387973 632.498137 
L 552.879663 636.394079 
L 550.744764 642.959463 
L 547.186597 648.659082 
L 542.815136 653.348642 
" clip-path="url(#pa4c3ec3c36)" style="fill: none; stroke: #7a7a7a; stroke-width: 3; stroke-linecap: square"/>
   </g>
   <g id="line2d_37">
    <path d="M 284.797253 1159.316094 
L 345.794389 1095.97096 
" clip-path="url(#pa4c3ec3c36)" style="fill: none; stroke: #7a7a7a; stroke-width: 3; stroke-linecap: square"/>
   </g>
   <g id="line2d_38">
    <path d="M 317.735706 1160.542594 
L 344.472784 1132.910264 
L 370.803214 1105.422227 
" clip-path="url(#pa4c3ec3c36)" style="fill: none; stroke: #7a7a7a; stroke-width: 3; stroke-linecap: square"/>
   </g>
   <g id="line2d_39">
    <path d="M 345.794389 1095.97096 
L 530.412385 901.751029 
" clip-path="url(#pa4c3ec3c36)" style="fill: none; stroke: #7a7a7a; stroke-width: 3; stroke-linecap: square"/>
   </g>
   <g id="line2d_40">
    <path d="M 370.803214 1105.422227 
L 418.279318 1054.414244 
L 468.703616 1001.241848 
L 543.730093 921.880063 
L 552.269692 912.933826 
" clip-path="url(#pa4c3ec3c36)" style="fill: none; stroke: #7a7a7a; stroke-width: 3; stroke-linecap: square"/>
   </g>
   <g id="line2d_41">
    <path d="M 523.296053 555.372911 
L 981.181216 552.342734 
" clip-path="url(#pa4c3ec3c36)" style="fill: none; stroke: #7a7a7a; stroke-width: 3; stroke-linecap: square"/>
   </g>
   <g id="line2d_42">
    <path d="M 507.741783 580.3358 
L 968.778465 577.37777 
" clip-path="url(#pa4c3ec3c36)" style="fill: none; stroke: #7a7a7a; stroke-width: 3; stroke-linecap: square"/>
   </g>
   <g id="line2d_43">
    <path d="M 536.918746 533.800935 
L 622.924707 534.017376 
L 637.869005 533.873082 
L 645.900295 533.512347 
L 651.695023 532.574435 
L 651.898346 532.430141 
L 957.595657 529.039228 
L 966.948551 528.967081 
L 993.075657 528.606345 
" clip-path="url(#pa4c3ec3c36)" style="fill: none; stroke: #7a7a7a; stroke-width: 3; stroke-linecap: square"/>
   </g>
   <g id="line2d_44">
    <path d="M 523.296053 555.372911 
L 981.181216 552.342734 
" clip-path="url(#pa4c3ec3c36)" style="fill: none; stroke: #7a7a7a; stroke-width: 3; stroke-linecap: square"/>
   </g>
   <g id="line2d_45">
    <path d="M 1286.166892 484.957364 
L 1284.743626 485.029511 
L 1283.828669 485.029511 
L 1283.218698 485.029511 
L 1209.920473 487.193923 
L 1062.104082 492.749248 
" clip-path="url(#pa4c3ec3c36)" style="fill: none; stroke: #7a7a7a; stroke-width: 3; stroke-linecap: square"/>
   </g>
   <g id="line2d_46">
    <path d="M 1286.166892 467.714212 
L 1284.641964 467.714212 
L 1283.828669 467.786359 
L 1283.523683 467.786359 
L 1283.218698 467.786359 
L 1224.559786 468.50783 
L 1076.743394 472.836655 
" clip-path="url(#pa4c3ec3c36)" style="fill: none; stroke: #7a7a7a; stroke-width: 3; stroke-linecap: square"/>
   </g>
   <g id="line2d_47">
    <path d="M 1018.389468 287.274372 
L 623.738002 655.945937 
" clip-path="url(#pa4c3ec3c36)" style="fill: none; stroke: #7a7a7a; stroke-width: 3; stroke-linecap: square"/>
   </g>
   <g id="line2d_48">
    <path d="M 983.824425 285.254254 
L 592.019492 653.060054 
" clip-path="url(#pa4c3ec3c36)" style="fill: none; stroke: #7a7a7a; stroke-width: 3; stroke-linecap: square"/>
   </g>
   <g id="line2d_49">
    <path d="M 658.811355 437.340293 
L 635.327458 437.340293 
L 554.912901 436.90741 
L 442.271524 436.546675 
L 379.139489 436.330234 
L 366.533415 436.402381 
" clip-path="url(#pa4c3ec3c36)" style="fill: none; stroke: #7a7a7a; stroke-width: 3; stroke-linecap: square"/>
   </g>
   <g id="line2d_50">
    <path d="M 677.618805 413.098875 
L 366.635077 413.243169 
" clip-path="url(#pa4c3ec3c36)" style="fill: none; stroke: #7a7a7a; stroke-width: 3; stroke-linecap: square"/>
   </g>
   <g id="line2d_51">
    <path d="M 218.818685 1141.712207 
L 287.948772 1068.050041 
" clip-path="url(#pa4c3ec3c36)" style="fill: none; stroke: #7a7a7a; stroke-width: 3; stroke-linecap: square"/>
   </g>
   <g id="line2d_52">
    <path d="M 247.385677 1155.925181 
L 316.414102 1082.263016 
" clip-path="url(#pa4c3ec3c36)" style="fill: none; stroke: #7a7a7a; stroke-width: 3; stroke-linecap: square"/>
   </g>
   <g id="line2d_53">
    <path d="M 1076.743394 472.836655 
L 1058.342592 473.053096 
L 1040.246775 473.413831 
L 1022.455944 473.918861 
L 1004.868436 474.640332 
L 987.484253 475.650391 
L 953.834167 478.175539 
L 937.059954 479.113451 
L 922.31898 479.61848 
L 905.341444 481.927187 
L 888.46557 485.390246 
L 871.183048 489.863365 
L 854.002188 495.057955 
L 838.752904 500.685427 
L 822.588664 505.880016 
L 806.627746 511.579635 
L 790.565167 517.928578 
L 774.502588 524.854697 
L 758.44001 532.574435 
L 742.275769 540.871349 
L 726.111528 550.034027 
L 709.845625 559.84603 
L 693.47806 570.523797 
L 677.008834 581.995183 
L 660.336283 594.40448 
L 643.562071 607.607395 
L 626.584535 621.820369 
L 609.403675 636.899108 
L 592.019492 653.060054 
" clip-path="url(#pa4c3ec3c36)" style="fill: none; stroke: #7a7a7a; stroke-width: 3; stroke-linecap: square"/>
   </g>
   <g id="line2d_54">
    <path d="M 1086.807922 451.986149 
L 1071.558638 453.140503 
L 1055.801044 454.222709 
L 1039.535142 455.160621 
L 970.913364 458.695828 
L 953.020871 459.778034 
L 934.925055 461.004534 
L 916.625914 462.447476 
L 898.326773 464.106858 
L 879.824309 466.05483 
L 861.321845 468.363536 
L 842.717718 471.105125 
L 824.215254 474.207449 
L 805.814451 477.742656 
L 787.515311 481.855039 
L 769.317832 486.544599 
L 751.425339 491.811336 
L 733.634508 497.655249 
L 716.148662 504.29278 
L 699.069464 511.651782 
L 682.295252 519.732255 
L 665.826026 528.678493 
L 649.865109 538.418348 
L 634.412501 549.168262 
L 619.468203 560.856089 
L 605.032214 573.481827 
L 591.206197 587.189772 
L 578.091813 601.979923 
L 565.5874 617.924427 
L 553.79462 635.023284 
L 552.676339 636.899108 
L 550.744764 642.959463 
L 547.186597 648.659082 
L 542.815136 653.348642 
" clip-path="url(#pa4c3ec3c36)" style="fill: none; stroke: #7a7a7a; stroke-width: 3; stroke-linecap: square"/>
   </g>
   <g id="line2d_55">
    <path d="M 250.842181 581.273712 
L 300.859832 581.057271 
L 507.741783 580.3358 
" clip-path="url(#pa4c3ec3c36)" style="fill: none; stroke: #7a7a7a; stroke-width: 3; stroke-linecap: square"/>
   </g>
   <g id="line2d_56">
    <path d="M 250.740519 604.288629 
L 350.979145 604.144335 
L 494.729061 603.711453 
" clip-path="url(#pa4c3ec3c36)" style="fill: none; stroke: #7a7a7a; stroke-width: 3; stroke-linecap: square"/>
   </g>
   <g id="line2d_57">
    <path d="M 240.167683 1060.835334 
L 162.091349 1143.588031 
" clip-path="url(#pa4c3ec3c36)" style="fill: none; stroke: #7a7a7a; stroke-width: 3; stroke-linecap: square"/>
   </g>
   <g id="line2d_58">
    <path d="M 207.330891 1057.444421 
L 134.032667 1134.569647 
" clip-path="url(#pa4c3ec3c36)" style="fill: none; stroke: #7a7a7a; stroke-width: 3; stroke-linecap: square"/>
   </g>
   <g id="line2d_59">
    <path d="M 564.774105 490.584836 
L 637.869005 490.007659 
L 663.996112 488.420423 
L 693.783046 487.698953 
L 706.694106 487.7711 
L 724.688261 487.049629 
L 739.530898 486.183864 
L 757.220067 484.740923 
L 774.60425 482.937246 
L 791.988434 480.195657 
L 809.779265 476.15542 
L 827.875082 470.74439 
L 843.226028 465.333359 
L 858.576973 458.695828 
L 868.946486 453.429091 
L 877.892733 448.52309 
L 889.888836 441.813412 
L 904.121501 433.372204 
L 914.592676 425.79676 
L 926.283794 415.479728 
L 943.871301 398.885901 
L 955.765742 387.847398 
L 966.033594 376.736748 
L 979.554625 363.822421 
L 995.515542 348.671535 
L 1012.289755 332.366296 
L 1029.877262 314.906703 
L 1056.207692 288.356578 
" clip-path="url(#pa4c3ec3c36)" style="fill: none; stroke: #7a7a7a; stroke-width: 3; stroke-linecap: square"/>
   </g>
   <g id="line2d_60">
    <path d="M 545.458345 517.784284 
L 617.231641 514.826254 
L 645.900295 513.166871 
L 672.637372 511.363194 
L 697.646198 509.415223 
L 720.825109 507.322958 
L 742.479092 505.014251 
L 759.253305 503.427016 
L 778.467402 500.974015 
L 797.579838 498.448867 
L 811.304194 495.562984 
L 826.248492 491.306307 
L 837.532962 487.843247 
L 849.732389 483.658716 
L 860.711873 479.834921 
L 872.504653 475.43395 
L 883.484137 470.527948 
L 895.175255 464.611888 
L 906.561387 458.118651 
L 917.642533 451.120385 
L 928.520355 443.472794 
L 939.398178 435.248028 
L 950.276 426.30179 
L 961.458808 416.706229 
L 972.84494 406.461344 
L 984.63772 395.350694 
L 1009.849869 370.892835 
L 1053.564483 327.82103 
L 1094.330902 287.057931 
" clip-path="url(#pa4c3ec3c36)" style="fill: none; stroke: #7a7a7a; stroke-width: 3; stroke-linecap: square"/>
   </g>
   <g id="line2d_61">
    <path d="M 472.66843 873.685816 
L 548.304878 795.983413 
" clip-path="url(#pa4c3ec3c36)" style="fill: none; stroke: #7a7a7a; stroke-width: 3; stroke-linecap: square"/>
   </g>
   <g id="line2d_62">
    <path d="M 500.828774 887.610201 
L 588.258002 795.983413 
" clip-path="url(#pa4c3ec3c36)" style="fill: none; stroke: #7a7a7a; stroke-width: 3; stroke-linecap: square"/>
   </g>
   <g id="line2d_63">
    <path d="M 1062.104082 492.749248 
L 1021.439325 494.19219 
L 1015.441273 494.841513 
L 1004.055141 495.41869 
L 978.639668 497.005926 
L 955.460757 498.88175 
L 934.315083 500.974015 
L 914.999324 503.427016 
L 897.310154 506.168604 
L 881.044252 509.270929 
L 865.998292 512.733988 
L 852.070612 516.557784 
L 839.05789 520.886608 
L 826.655139 525.576168 
L 814.86236 530.842905 
L 803.374566 536.614671 
L 791.988434 542.891467 
L 780.602302 549.745439 
L 769.012846 557.248735 
L 757.016743 565.329208 
L 701.102702 604.505071 
L 684.226828 616.12075 
L 665.826026 628.530047 
L 645.798633 641.80511 
L 623.738002 655.945937 
" clip-path="url(#pa4c3ec3c36)" style="fill: none; stroke: #7a7a7a; stroke-width: 3; stroke-linecap: square"/>
   </g>
   <g id="line2d_64">
    <path d="M 1076.743394 472.836655 
L 1058.342592 473.053096 
L 1040.246775 473.413831 
L 1022.455944 473.918861 
L 1004.868436 474.640332 
L 987.484253 475.650391 
L 953.834167 478.175539 
L 937.059954 479.113451 
L 922.31898 479.61848 
L 905.341444 481.927187 
L 888.46557 485.390246 
L 871.183048 489.863365 
L 854.002188 495.057955 
L 838.752904 500.685427 
L 822.588664 505.880016 
L 806.627746 511.579635 
L 790.565167 517.928578 
L 774.502588 524.854697 
L 758.44001 532.574435 
L 742.275769 540.871349 
L 726.111528 550.034027 
L 709.845625 559.84603 
L 693.47806 570.523797 
L 677.008834 581.995183 
L 660.336283 594.40448 
L 643.562071 607.607395 
L 626.584535 621.820369 
L 609.403675 636.899108 
L 592.019492 653.060054 
" clip-path="url(#pa4c3ec3c36)" style="fill: none; stroke: #7a7a7a; stroke-width: 3; stroke-linecap: square"/>
   </g>
   <g id="line2d_65">
    <path d="M 1151.363223 146.082542 
L 1018.389468 287.274372 
" clip-path="url(#pa4c3ec3c36)" style="fill: none; stroke: #7a7a7a; stroke-width: 3; stroke-linecap: square"/>
   </g>
   <g id="line2d_66">
    <path d="M 1127.167693 132.879627 
L 983.824425 285.254254 
" clip-path="url(#pa4c3ec3c36)" style="fill: none; stroke: #7a7a7a; stroke-width: 3; stroke-linecap: square"/>
   </g>
   <g id="line2d_67">
    <path d="M 492.695823 795.983413 
L 484.257886 804.857504 
L 240.167683 1060.835334 
" clip-path="url(#pa4c3ec3c36)" style="fill: none; stroke: #7a7a7a; stroke-width: 3; stroke-linecap: square"/>
   </g>
   <g id="line2d_68">
    <path d="M 457.114161 795.983413 
L 207.330891 1057.444421 
" clip-path="url(#pa4c3ec3c36)" style="fill: none; stroke: #7a7a7a; stroke-width: 3; stroke-linecap: square"/>
   </g>
   <g id="line2d_69">
    <path d="M 530.412385 901.751029 
L 631.769292 795.983413 
" clip-path="url(#pa4c3ec3c36)" style="fill: none; stroke: #7a7a7a; stroke-width: 3; stroke-linecap: square"/>
   </g>
   <g id="line2d_70">
    <path d="M 552.269692 912.933826 
L 590.799549 872.459315 
L 663.284478 795.983413 
" clip-path="url(#pa4c3ec3c36)" style="fill: none; stroke: #7a7a7a; stroke-width: 3; stroke-linecap: square"/>
   </g>
   <g id="line2d_71">
    <path d="M 507.741783 580.3358 
L 968.778465 577.37777 
" clip-path="url(#pa4c3ec3c36)" style="fill: none; stroke: #7a7a7a; stroke-width: 3; stroke-linecap: square"/>
   </g>
   <g id="line2d_72">
    <path d="M 494.729061 603.711453 
L 956.985685 601.114158 
" clip-path="url(#pa4c3ec3c36)" style="fill: none; stroke: #7a7a7a; stroke-width: 3; stroke-linecap: square"/>
   </g>
   <g id="line2d_73">
    <path d="M 1286.166892 428.394055 
L 1284.641964 428.394055 
L 1283.828669 428.394055 
L 1283.523683 428.394055 
L 1283.117036 428.394055 
L 1107.038638 430.847056 
" clip-path="url(#pa4c3ec3c36)" style="fill: none; stroke: #7a7a7a; stroke-width: 3; stroke-linecap: square"/>
   </g>
   <g id="line2d_74">
    <path d="M 1286.166892 404.224784 
L 1284.540302 404.224784 
L 1283.828669 404.224784 
L 1283.523683 404.224784 
L 1283.117036 404.224784 
L 1131.640816 406.100608 
" clip-path="url(#pa4c3ec3c36)" style="fill: none; stroke: #7a7a7a; stroke-width: 3; stroke-linecap: square"/>
   </g>
   <g id="line2d_75">
    <path d="M 457.114161 795.983413 
L 207.330891 1057.444421 
" clip-path="url(#pa4c3ec3c36)" style="fill: none; stroke: #7a7a7a; stroke-width: 3; stroke-linecap: square"/>
   </g>
   <g id="line2d_76">
    <path d="M 408.824762 795.983413 
L 293.031867 918.200562 
L 168.59771 1050.30186 
" clip-path="url(#pa4c3ec3c36)" style="fill: none; stroke: #7a7a7a; stroke-width: 3; stroke-linecap: square"/>
   </g>
   <g id="line2d_77">
    <path d="M 287.948772 1068.050041 
L 472.66843 873.685816 
" clip-path="url(#pa4c3ec3c36)" style="fill: none; stroke: #7a7a7a; stroke-width: 3; stroke-linecap: square"/>
   </g>
   <g id="line2d_78">
    <path d="M 316.414102 1082.263016 
L 500.828774 887.610201 
" clip-path="url(#pa4c3ec3c36)" style="fill: none; stroke: #7a7a7a; stroke-width: 3; stroke-linecap: square"/>
   </g>
   <g id="line2d_79">
    <path d="M 993.075657 528.606345 
L 1283.828669 526.081198 
L 1284.743626 526.081198 
L 1286.166892 526.081198 
" clip-path="url(#pa4c3ec3c36)" style="fill: none; stroke: #7a7a7a; stroke-width: 3; stroke-linecap: square"/>
   </g>
   <g id="line2d_80">
    <path d="M 981.181216 552.342734 
L 1283.828669 548.518939 
L 1284.845288 548.518939 
L 1286.166892 548.518939 
" clip-path="url(#pa4c3ec3c36)" style="fill: none; stroke: #7a7a7a; stroke-width: 3; stroke-linecap: square"/>
   </g>
   <g id="line2d_81">
    <path d="M 247.385677 1155.925181 
L 316.414102 1082.263016 
" clip-path="url(#pa4c3ec3c36)" style="fill: none; stroke: #7a7a7a; stroke-width: 3; stroke-linecap: square"/>
   </g>
   <g id="line2d_82">
    <path d="M 284.797253 1159.316094 
L 345.794389 1095.97096 
" clip-path="url(#pa4c3ec3c36)" style="fill: none; stroke: #7a7a7a; stroke-width: 3; stroke-linecap: square"/>
   </g>
   <g id="line2d_83">
    <path d="M 983.824425 285.254254 
L 592.019492 653.060054 
" clip-path="url(#pa4c3ec3c36)" style="fill: none; stroke: #7a7a7a; stroke-width: 3; stroke-linecap: square"/>
   </g>
   <g id="line2d_84">
    <path d="M 947.632791 283.450577 
L 542.815136 653.348642 
" clip-path="url(#pa4c3ec3c36)" style="fill: none; stroke: #7a7a7a; stroke-width: 3; stroke-linecap: square"/>
   </g>
   <g id="line2d_85">
    <path d="M 207.330891 1057.444421 
L 134.032667 1134.569647 
" clip-path="url(#pa4c3ec3c36)" style="fill: none; stroke: #7a7a7a; stroke-width: 3; stroke-linecap: square"/>
   </g>
   <g id="line2d_86">
    <path d="M 168.59771 1050.30186 
L 106.380632 1116.388583 
L 99.060976 1123.891879 
" clip-path="url(#pa4c3ec3c36)" style="fill: none; stroke: #7a7a7a; stroke-width: 3; stroke-linecap: square"/>
   </g>
   <g id="line2d_87">
    <path d="M 1286.166892 378.829013 
L 1284.540302 378.829013 
L 1283.828669 378.829013 
L 1283.523683 378.829013 
L 1283.117036 378.829013 
L 1154.514742 380.344102 
" clip-path="url(#pa4c3ec3c36)" style="fill: none; stroke: #7a7a7a; stroke-width: 3; stroke-linecap: square"/>
   </g>
   <g id="line2d_88">
    <path d="M 1286.166892 353.72183 
L 1284.540302 353.72183 
L 1283.930331 353.72183 
L 1283.523683 353.72183 
L 1283.015374 353.72183 
L 1187.148209 354.515448 
L 1176.880358 353.288948 
" clip-path="url(#pa4c3ec3c36)" style="fill: none; stroke: #7a7a7a; stroke-width: 3; stroke-linecap: square"/>
   </g>
   <g id="line2d_89">
    <path d="M 1154.514742 380.344102 
L 696.934565 388.641016 
" clip-path="url(#pa4c3ec3c36)" style="fill: none; stroke: #7a7a7a; stroke-width: 3; stroke-linecap: square"/>
   </g>
   <g id="line2d_90">
    <path d="M 1176.880358 353.288948 
L 714.318748 367.213334 
" clip-path="url(#pa4c3ec3c36)" style="fill: none; stroke: #7a7a7a; stroke-width: 3; stroke-linecap: square"/>
   </g>
   <g id="line2d_91">
    <path d="M 581.751641 467.28133 
L 610.623618 466.7763 
L 611.335251 466.7763 
L 656.269808 465.04477 
L 675.992215 465.04477 
L 683.210209 465.04477 
L 701.407688 464.684035 
L 716.250324 464.395447 
L 726.21319 463.168946 
L 728.653075 462.59177 
L 731.804594 461.798152 
L 732.109579 461.653858 
L 732.617889 461.36527 
L 737.49766 460.86024 
L 753.865224 459.056563 
L 769.21617 456.747857 
L 783.753821 453.861974 
L 797.6815 450.398914 
L 811.10087 446.214383 
L 824.113592 441.308382 
L 836.92299 435.536616 
L 849.630727 428.899085 
L 862.541787 421.251495 
L 875.656171 412.665992 
L 889.075541 402.926137 
L 903.206544 392.031928 
L 917.947519 379.983366 
L 933.60345 366.56401 
L 950.174338 351.846006 
L 968.066831 335.757208 
L 1018.389468 287.274372 
" clip-path="url(#pa4c3ec3c36)" style="fill: none; stroke: #7a7a7a; stroke-width: 3; stroke-linecap: square"/>
   </g>
   <g id="line2d_92">
    <path d="M 564.774105 490.584836 
L 637.869005 490.007659 
L 663.996112 488.420423 
L 693.783046 487.698953 
L 706.694106 487.7711 
L 724.688261 487.049629 
L 739.530898 486.183864 
L 757.220067 484.740923 
L 774.60425 482.937246 
L 791.988434 480.195657 
L 809.779265 476.15542 
L 827.875082 470.74439 
L 843.226028 465.333359 
L 858.576973 458.695828 
L 868.946486 453.429091 
L 877.892733 448.52309 
L 889.888836 441.813412 
L 904.121501 433.372204 
L 914.592676 425.79676 
L 926.283794 415.479728 
L 943.871301 398.885901 
L 955.765742 387.847398 
L 966.033594 376.736748 
L 979.554625 363.822421 
L 995.515542 348.671535 
L 1012.289755 332.366296 
L 1029.877262 314.906703 
L 1056.207692 288.356578 
" clip-path="url(#pa4c3ec3c36)" style="fill: none; stroke: #7a7a7a; stroke-width: 3; stroke-linecap: square"/>
   </g>
   <g id="line2d_93">
    <path d="M 1286.166892 404.224784 
L 1284.540302 404.224784 
L 1283.828669 404.224784 
L 1283.523683 404.224784 
L 1283.117036 404.224784 
L 1131.640816 406.100608 
" clip-path="url(#pa4c3ec3c36)" style="fill: none; stroke: #7a7a7a; stroke-width: 3; stroke-linecap: square"/>
   </g>
   <g id="line2d_94">
    <path d="M 1286.166892 378.829013 
L 1284.540302 378.829013 
L 1283.828669 378.829013 
L 1283.523683 378.829013 
L 1283.117036 378.829013 
L 1154.514742 380.344102 
" clip-path="url(#pa4c3ec3c36)" style="fill: none; stroke: #7a7a7a; stroke-width: 3; stroke-linecap: square"/>
   </g>
   <g id="line2d_95">
    <path d="M 677.618805 413.098875 
L 366.635077 413.243169 
" clip-path="url(#pa4c3ec3c36)" style="fill: none; stroke: #7a7a7a; stroke-width: 3; stroke-linecap: square"/>
   </g>
   <g id="line2d_96">
    <path d="M 696.934565 388.641016 
L 366.736738 389.073898 
" clip-path="url(#pa4c3ec3c36)" style="fill: none; stroke: #7a7a7a; stroke-width: 3; stroke-linecap: square"/>
   </g>
   <g id="line2d_97">
    <path d="M 1056.207692 288.356578 
L 1163.257665 174.797079 
" clip-path="url(#pa4c3ec3c36)" style="fill: none; stroke: #7a7a7a; stroke-width: 3; stroke-linecap: square"/>
   </g>
   <g id="line2d_98">
    <path d="M 1094.330902 287.057931 
L 1189.079785 187.062082 
" clip-path="url(#pa4c3ec3c36)" style="fill: none; stroke: #7a7a7a; stroke-width: 3; stroke-linecap: square"/>
   </g>
   <g id="line2d_99">
    <path d="M 316.414102 1082.263016 
L 500.828774 887.610201 
" clip-path="url(#pa4c3ec3c36)" style="fill: none; stroke: #7a7a7a; stroke-width: 3; stroke-linecap: square"/>
   </g>
   <g id="line2d_100">
    <path d="M 345.794389 1095.97096 
L 530.412385 901.751029 
" clip-path="url(#pa4c3ec3c36)" style="fill: none; stroke: #7a7a7a; stroke-width: 3; stroke-linecap: square"/>
   </g>
   <g id="line2d_101">
    <path d="M 1127.167693 132.879627 
L 983.824425 285.254254 
" clip-path="url(#pa4c3ec3c36)" style="fill: none; stroke: #7a7a7a; stroke-width: 3; stroke-linecap: square"/>
   </g>
   <g id="line2d_102">
    <path d="M 1102.463853 119.532418 
L 947.632791 283.450577 
" clip-path="url(#pa4c3ec3c36)" style="fill: none; stroke: #7a7a7a; stroke-width: 3; stroke-linecap: square"/>
   </g>
   <g id="line2d_103">
    <path d="M 1102.463853 119.532418 
L 947.632791 283.450577 
" clip-path="url(#pa4c3ec3c36)" style="fill: none; stroke: #7a7a7a; stroke-width: 3; stroke-linecap: square"/>
   </g>
   <g id="line2d_104">
    <path d="M 1077.861675 107.772444 
L 1048.481388 138.434952 
L 1042.889984 144.062424 
L 1040.958408 145.14463 
L 952.4109 237.925772 
L 945.294568 247.08845 
L 928.723679 264.62019 
L 913.16941 281.214018 
" clip-path="url(#pa4c3ec3c36)" style="fill: none; stroke: #7a7a7a; stroke-width: 3; stroke-linecap: square"/>
   </g>
   <g id="line2d_105">
    <path d="M 134.032667 1134.569647 
L 104.754042 1165.08786 
" clip-path="url(#pa4c3ec3c36)" style="fill: none; stroke: #7a7a7a; stroke-width: 3; stroke-linecap: square"/>
   </g>
   <g id="line2d_106">
    <path d="M 99.060976 1123.891879 
L 70.900632 1153.039298 
" clip-path="url(#pa4c3ec3c36)" style="fill: none; stroke: #7a7a7a; stroke-width: 3; stroke-linecap: square"/>
   </g>
   <g id="line2d_107">
    <path d="M 981.181216 552.342734 
L 1283.828669 548.518939 
L 1284.845288 548.518939 
L 1286.166892 548.518939 
" clip-path="url(#pa4c3ec3c36)" style="fill: none; stroke: #7a7a7a; stroke-width: 3; stroke-linecap: square"/>
   </g>
   <g id="line2d_108">
    <path d="M 968.778465 577.37777 
L 1168.645745 574.059004 
L 1283.828669 573.048945 
L 1284.845288 573.048945 
L 1286.166892 572.976798 
" clip-path="url(#pa4c3ec3c36)" style="fill: none; stroke: #7a7a7a; stroke-width: 3; stroke-linecap: square"/>
   </g>
   <g id="line2d_109">
    <path d="M 500.828774 887.610201 
L 588.258002 795.983413 
" clip-path="url(#pa4c3ec3c36)" style="fill: none; stroke: #7a7a7a; stroke-width: 3; stroke-linecap: square"/>
   </g>
   <g id="line2d_110">
    <path d="M 530.412385 901.751029 
L 631.769292 795.983413 
" clip-path="url(#pa4c3ec3c36)" style="fill: none; stroke: #7a7a7a; stroke-width: 3; stroke-linecap: square"/>
   </g>
   <g id="line2d_111">
    <path d="M 548.304878 795.983413 
L 549.524821 794.756913 
L 549.626483 794.540472 
L 550.03313 794.107589 
L 550.54144 793.674707 
L 550.846425 793.313972 
L 676.398862 660.274761 
" clip-path="url(#pa4c3ec3c36)" style="fill: none; stroke: #7a7a7a; stroke-width: 3; stroke-linecap: square"/>
   </g>
   <g id="line2d_112">
    <path d="M 588.258002 795.983413 
L 589.477945 794.756913 
L 589.681268 794.540472 
L 590.087916 794.107589 
L 590.494563 793.60256 
L 590.799549 793.313972 
L 638.6823 742.450282 
L 676.398862 702.336507 
L 716.351986 660.202614 
" clip-path="url(#pa4c3ec3c36)" style="fill: none; stroke: #7a7a7a; stroke-width: 3; stroke-linecap: square"/>
   </g>
   <g id="line2d_113">
    <path d="M 198.282983 1252.169382 
L 284.797253 1159.316094 
" clip-path="url(#pa4c3ec3c36)" style="fill: none; stroke: #7a7a7a; stroke-width: 3; stroke-linecap: square"/>
   </g>
   <g id="line2d_114">
    <path d="M 222.071866 1260.322002 
L 282.865677 1196.616133 
L 317.735706 1160.542594 
" clip-path="url(#pa4c3ec3c36)" style="fill: none; stroke: #7a7a7a; stroke-width: 3; stroke-linecap: square"/>
   </g>
   <g id="line2d_115">
    <path d="M 0.143955 1377.416708 
L 15.291577 1358.586321 
L 15.596562 1358.225586 
L 24.0345 1345.960583 
L 33.692379 1331.96405 
L 36.94556 1327.202343 
L 38.775474 1324.605048 
L 66.529171 1284.202685 
L 97.63771 1239.471497 
L 115.225217 1215.518667 
" clip-path="url(#pa4c3ec3c36)" style="fill: none; stroke: #7a7a7a; stroke-width: 3; stroke-linecap: square"/>
   </g>
   <g id="line2d_116">
    <path d="M 25.864414 1388.383064 
L 36.132265 1374.097943 
L 123.96814 1245.387557 
L 138.200805 1226.340729 
" clip-path="url(#pa4c3ec3c36)" style="fill: none; stroke: #7a7a7a; stroke-width: 3; stroke-linecap: square"/>
   </g>
   <g id="line2d_117">
    <path d="M 512.824878 795.983413 
L 514.04482 794.684766 
L 514.146482 794.540472 
L 514.55313 794.107589 
L 515.061439 793.674707 
L 515.366425 793.313972 
L 578.905108 727.010808 
L 600.965738 702.480801 
L 615.808375 686.824886 
L 624.551297 677.517913 
L 625.059607 675.714236 
L 640.105567 658.976114 
" clip-path="url(#pa4c3ec3c36)" style="fill: none; stroke: #7a7a7a; stroke-width: 3; stroke-linecap: square"/>
   </g>
   <g id="line2d_118">
    <path d="M 548.304878 795.983413 
L 549.524821 794.756913 
L 549.626483 794.540472 
L 550.03313 794.107589 
L 550.54144 793.674707 
L 550.846425 793.313972 
L 676.398862 660.274761 
" clip-path="url(#pa4c3ec3c36)" style="fill: none; stroke: #7a7a7a; stroke-width: 3; stroke-linecap: square"/>
   </g>
   <g id="line2d_119">
    <path d="M 168.699372 1239.327203 
L 247.385677 1155.925181 
" clip-path="url(#pa4c3ec3c36)" style="fill: none; stroke: #7a7a7a; stroke-width: 3; stroke-linecap: square"/>
   </g>
   <g id="line2d_120">
    <path d="M 198.282983 1252.169382 
L 284.797253 1159.316094 
" clip-path="url(#pa4c3ec3c36)" style="fill: none; stroke: #7a7a7a; stroke-width: 3; stroke-linecap: square"/>
   </g>
   <g id="line2d_121">
    <path d="M 58.802867 1398.627949 
L 198.282983 1252.169382 
" clip-path="url(#pa4c3ec3c36)" style="fill: none; stroke: #7a7a7a; stroke-width: 3; stroke-linecap: square"/>
   </g>
   <g id="line2d_122">
    <path d="M 82.388426 1409.666452 
L 187.40516 1296.611982 
L 222.071866 1260.322002 
" clip-path="url(#pa4c3ec3c36)" style="fill: none; stroke: #7a7a7a; stroke-width: 3; stroke-linecap: square"/>
   </g>
   <g id="line2d_123">
    <path d="M 138.200805 1226.340729 
L 218.818685 1141.712207 
" clip-path="url(#pa4c3ec3c36)" style="fill: none; stroke: #7a7a7a; stroke-width: 3; stroke-linecap: square"/>
   </g>
   <g id="line2d_124">
    <path d="M 168.699372 1239.327203 
L 247.385677 1155.925181 
" clip-path="url(#pa4c3ec3c36)" style="fill: none; stroke: #7a7a7a; stroke-width: 3; stroke-linecap: square"/>
   </g>
   <g id="line2d_125">
    <path d="M 0.143955 1377.416708 
L 138.200805 1226.340729 
" clip-path="url(#pa4c3ec3c36)" style="fill: none; stroke: #7a7a7a; stroke-width: 3; stroke-linecap: square"/>
   </g>
   <g id="line2d_126">
    <path d="M 25.864414 1388.383064 
L 168.699372 1239.327203 
" clip-path="url(#pa4c3ec3c36)" style="fill: none; stroke: #7a7a7a; stroke-width: 3; stroke-linecap: square"/>
   </g>
   <g id="line2d_127">
    <path d="M 623.738002 655.945937 
L 496.253989 792.231765 
L 495.23737 793.313972 
L 494.932385 793.674707 
L 494.424075 794.107589 
L 494.017428 794.540472 
L 493.915766 794.684766 
L 492.695823 795.983413 
" clip-path="url(#pa4c3ec3c36)" style="fill: none; stroke: #7a7a7a; stroke-width: 3; stroke-linecap: square"/>
   </g>
   <g id="line2d_128">
    <path d="M 592.019492 653.060054 
L 459.655708 793.313972 
L 459.350722 793.674707 
L 458.944075 794.107589 
L 458.334103 794.684766 
L 457.114161 795.983413 
" clip-path="url(#pa4c3ec3c36)" style="fill: none; stroke: #7a7a7a; stroke-width: 3; stroke-linecap: square"/>
   </g>
   <g id="line2d_129">
    <path d="M 115.225217 1215.518667 
L 123.764816 1204.408017 
L 142.877252 1184.062542 
L 172.664186 1152.75071 
L 176.425676 1148.494033 
L 192.691579 1131.323028 
" clip-path="url(#pa4c3ec3c36)" style="fill: none; stroke: #7a7a7a; stroke-width: 3; stroke-linecap: square"/>
   </g>
   <g id="line2d_130">
    <path d="M 138.200805 1226.340729 
L 218.818685 1141.712207 
" clip-path="url(#pa4c3ec3c36)" style="fill: none; stroke: #7a7a7a; stroke-width: 3; stroke-linecap: square"/>
   </g>
   <g id="line2d_131">
    <path d="M 104.754042 1165.08786 
L 74.153812 1197.842633 
" clip-path="url(#pa4c3ec3c36)" style="fill: none; stroke: #7a7a7a; stroke-width: 3; stroke-linecap: square"/>
   </g>
   <g id="line2d_132">
    <path d="M 70.900632 1153.039298 
L 42.130316 1183.773953 
" clip-path="url(#pa4c3ec3c36)" style="fill: none; stroke: #7a7a7a; stroke-width: 3; stroke-linecap: square"/>
   </g>
   <g id="line2d_133">
    <path d="M 265.989803 1054.774979 
L 328.105219 989.048992 
L 440.94992 871.232815 
L 445.626367 866.326814 
L 448.371238 863.513078 
" clip-path="url(#pa4c3ec3c36)" style="fill: none; stroke: #7a7a7a; stroke-width: 3; stroke-linecap: square"/>
   </g>
   <g id="line2d_134">
    <path d="M 287.948772 1068.050041 
L 472.66843 873.685816 
" clip-path="url(#pa4c3ec3c36)" style="fill: none; stroke: #7a7a7a; stroke-width: 3; stroke-linecap: square"/>
   </g>
   <g id="line2d_135">
    <path d="M 192.691579 1131.323028 
L 251.553814 1070.07016 
L 265.989803 1054.774979 
" clip-path="url(#pa4c3ec3c36)" style="fill: none; stroke: #7a7a7a; stroke-width: 3; stroke-linecap: square"/>
   </g>
   <g id="line2d_136">
    <path d="M 218.818685 1141.712207 
L 287.948772 1068.050041 
" clip-path="url(#pa4c3ec3c36)" style="fill: none; stroke: #7a7a7a; stroke-width: 3; stroke-linecap: square"/>
   </g>
   <g id="line2d_137">
    <path d="M 448.371238 863.513078 
L 484.359548 825.708009 
L 512.824878 795.983413 
" clip-path="url(#pa4c3ec3c36)" style="fill: none; stroke: #7a7a7a; stroke-width: 3; stroke-linecap: square"/>
   </g>
   <g id="line2d_138">
    <path d="M 472.66843 873.685816 
L 548.304878 795.983413 
" clip-path="url(#pa4c3ec3c36)" style="fill: none; stroke: #7a7a7a; stroke-width: 3; stroke-linecap: square"/>
   </g>
   <g id="line2d_139">
    <path d="M 25.864414 1388.383064 
L 168.699372 1239.327203 
" clip-path="url(#pa4c3ec3c36)" style="fill: none; stroke: #7a7a7a; stroke-width: 3; stroke-linecap: square"/>
   </g>
   <g id="line2d_140">
    <path d="M 58.802867 1398.627949 
L 198.282983 1252.169382 
" clip-path="url(#pa4c3ec3c36)" style="fill: none; stroke: #7a7a7a; stroke-width: 3; stroke-linecap: square"/>
   </g>
   <g id="line2d_141">
    <path d="M 130.271177 1177.064275 
L 128.644587 1178.723658 
L 113.395303 1195.678221 
L 100.89089 1210.396225 
" clip-path="url(#pa4c3ec3c36)" style="fill: none; stroke: #7a7a7a; stroke-width: 3; stroke-linecap: square"/>
   </g>
   <g id="line2d_142">
    <path d="M 104.754042 1165.08786 
L 74.153812 1197.842633 
" clip-path="url(#pa4c3ec3c36)" style="fill: none; stroke: #7a7a7a; stroke-width: 3; stroke-linecap: square"/>
   </g>
   <g id="line2d_143">
    <path d="M 676.398862 660.274761 
L 1056.207692 288.356578 
" clip-path="url(#pa4c3ec3c36)" style="fill: none; stroke: #7a7a7a; stroke-width: 3; stroke-linecap: square"/>
   </g>
   <g id="line2d_144">
    <path d="M 716.351986 660.202614 
L 1094.330902 287.057931 
" clip-path="url(#pa4c3ec3c36)" style="fill: none; stroke: #7a7a7a; stroke-width: 3; stroke-linecap: square"/>
   </g>
   <g id="line2d_145">
    <path d="M 640.105567 658.976114 
L 1018.389468 287.274372 
" clip-path="url(#pa4c3ec3c36)" style="fill: none; stroke: #7a7a7a; stroke-width: 3; stroke-linecap: square"/>
   </g>
   <g id="line2d_146">
    <path d="M 676.398862 660.274761 
L 1056.207692 288.356578 
" clip-path="url(#pa4c3ec3c36)" style="fill: none; stroke: #7a7a7a; stroke-width: 3; stroke-linecap: square"/>
   </g>
   <g id="line2d_147">
    <path d="M 100.89089 1210.396225 
L 89.199772 1225.547111 
L 74.967108 1246.036881 
L 66.732494 1256.281766 
L 49.958282 1282.110419 
L 41.622007 1294.519717 
L 33.997365 1306.78472 
L 20.27301 1327.418784 
L 14.986591 1333.406991 
L -1 1350.324853 
" clip-path="url(#pa4c3ec3c36)" style="fill: none; stroke: #7a7a7a; stroke-width: 3; stroke-linecap: square"/>
   </g>
   <g id="line2d_148">
    <path d="M 74.153812 1197.842633 
L 54.939715 1222.444787 
L 39.08046 1245.171116 
L 11.428425 1282.471155 
L -1 1299.298703 
" clip-path="url(#pa4c3ec3c36)" style="fill: none; stroke: #7a7a7a; stroke-width: 3; stroke-linecap: square"/>
   </g>
   <g id="line2d_149">
    <path d="M 74.153812 1197.842633 
L -1 1274.441439 
" clip-path="url(#pa4c3ec3c36)" style="fill: none; stroke: #7a7a7a; stroke-width: 3; stroke-linecap: square"/>
   </g>
   <g id="line2d_150">
    <path d="M 42.130316 1183.773953 
L -1 1229.702918 
" clip-path="url(#pa4c3ec3c36)" style="fill: none; stroke: #7a7a7a; stroke-width: 3; stroke-linecap: square"/>
   </g>
   <g id="line2d_151">
    <path d="M 74.153812 1197.842633 
L 54.939715 1222.444787 
L 39.08046 1245.171116 
L 11.428425 1282.471155 
L -1 1299.298703 
" clip-path="url(#pa4c3ec3c36)" style="fill: none; stroke: #7a7a7a; stroke-width: 3; stroke-linecap: square"/>
   </g>
   <g id="line2d_152">
    <path d="M 42.130316 1183.773953 
L -1 1245.569675 
" clip-path="url(#pa4c3ec3c36)" style="fill: none; stroke: #7a7a7a; stroke-width: 3; stroke-linecap: square"/>
   </g>
   <g id="line2d_153">
    <path d="M 100.89089 1210.396225 
L -1 1313.178426 
" clip-path="url(#pa4c3ec3c36)" style="fill: none; stroke: #7a7a7a; stroke-width: 3; stroke-linecap: square"/>
   </g>
   <g id="line2d_154">
    <path d="M 74.153812 1197.842633 
L -1 1274.441439 
" clip-path="url(#pa4c3ec3c36)" style="fill: none; stroke: #7a7a7a; stroke-width: 3; stroke-linecap: square"/>
   </g>
   <g id="line2d_155">
    <path d="M 367.245048 469.878625 
L 370.396567 470.022919 
L 405.978229 469.806478 
L 452.132728 469.301448 
L 482.732958 469.157154 
L 513.028201 468.796418 
L 581.751641 467.28133 
" clip-path="url(#pa4c3ec3c36)" style="fill: none; stroke: #7a7a7a; stroke-width: 3; stroke-linecap: square"/>
   </g>
   <g id="line2d_156">
    <path d="M 367.550034 494.625072 
L 428.750493 494.552925 
L 482.631296 493.975748 
L 535.393818 491.883483 
L 564.774105 490.584836 
" clip-path="url(#pa4c3ec3c36)" style="fill: none; stroke: #7a7a7a; stroke-width: 3; stroke-linecap: square"/>
   </g>
   <g id="line2d_157">
    <path d="M 367.550034 494.625072 
L 428.750493 494.552925 
L 482.631296 493.975748 
L 535.393818 491.883483 
L 564.774105 490.584836 
" clip-path="url(#pa4c3ec3c36)" style="fill: none; stroke: #7a7a7a; stroke-width: 3; stroke-linecap: square"/>
   </g>
   <g id="line2d_158">
    <path d="M 368.261667 519.948696 
L 462.502241 519.804402 
L 482.834619 519.660108 
L 515.976396 518.722196 
L 545.458345 517.784284 
" clip-path="url(#pa4c3ec3c36)" style="fill: none; stroke: #7a7a7a; stroke-width: 3; stroke-linecap: square"/>
   </g>
   <g id="line2d_159">
    <path d="M 389.700611 1021.58218 
L 687.637465 688.779127 
" clip-path="url(#pa4c3ec3c36)" style="fill: none; stroke-dasharray: 32,8,5,8; stroke-dashoffset: 0; stroke: #1e90ff; stroke-width: 5"/>
   </g>
   <g id="line2d_160">
    <path d="M 791.657239 550.052769 
L 1160.816985 159.475689 
" clip-path="url(#pa4c3ec3c36)" style="fill: none; stroke-dasharray: 32,8,5,8; stroke-dashoffset: 0; stroke: #1e90ff; stroke-width: 5"/>
   </g>
   <g id="line2d_161">
    <path d="M 879.896584 470.1837 
L 1170.506634 140.22179 
" clip-path="url(#pa4c3ec3c36)" style="fill: none; stroke-dasharray: 32,8,5,8; stroke-dashoffset: 0; stroke: #1e90ff; stroke-width: 5"/>
   </g>
   <g id="line2d_162">
    <path d="M 284.995812 1130.574291 
L 627.146654 760.362556 
" clip-path="url(#pa4c3ec3c36)" style="fill: none; stroke-dasharray: 32,8,5,8; stroke-dashoffset: 0; stroke: #1e90ff; stroke-width: 5"/>
   </g>
   <g id="line2d_163">
    <path d="M 818.164783 533.213754 
L 1168.640185 174.644894 
" clip-path="url(#pa4c3ec3c36)" style="fill: none; stroke-dasharray: 32,8,5,8; stroke-dashoffset: 0; stroke: #1e90ff; stroke-width: 5"/>
   </g>
   <g id="line2d_164">
    <path d="M 542.153738 815.166856 
L 857.841712 456.656123 
" clip-path="url(#pa4c3ec3c36)" style="fill: none; stroke-dasharray: 32,8,5,8; stroke-dashoffset: 0; stroke: #1e90ff; stroke-width: 5"/>
   </g>
   <g id="line2d_165">
    <path d="M 203.323785 1223.558768 
L 490.344892 922.608932 
" clip-path="url(#pa4c3ec3c36)" style="fill: none; stroke-dasharray: 32,8,5,8; stroke-dashoffset: 0; stroke: #1e90ff; stroke-width: 5"/>
   </g>
   <g id="line2d_166">
    <path d="M 1006.487482 321.845363 
L 1107.240969 190.247404 
" clip-path="url(#pa4c3ec3c36)" style="fill: none; stroke-dasharray: 32,8,5,8; stroke-dashoffset: 0; stroke: #1e90ff; stroke-width: 5"/>
   </g>
   <g id="line2d_167">
    <path d="M 592.250018 660.193314 
L 250.238167 1024.784412 
" clip-path="url(#pa4c3ec3c36)" style="fill: none; stroke-dasharray: 32,8,5,8; stroke-dashoffset: 0; stroke: #1e90ff; stroke-width: 5"/>
   </g>
   <g id="line2d_168">
    <path d="M 1009.128308 495.266082 
L 1276.42264 584.155297 
" clip-path="url(#pa4c3ec3c36)" style="fill: none; stroke-dasharray: 32,8,5,8; stroke-dashoffset: 0; stroke: #1e90ff; stroke-width: 5"/>
   </g>
   <g id="line2d_169">
    <path d="M 502.312998 890.079337 
L 844.51348 511.247294 
" clip-path="url(#pa4c3ec3c36)" style="fill: none; stroke-dasharray: 32,8,5,8; stroke-dashoffset: 0; stroke: #1e90ff; stroke-width: 5"/>
   </g>
   <g id="line2d_170">
    <path d="M 389.700611 1021.58218 
" clip-path="url(#pa4c3ec3c36)" style="fill: none; stroke: #0000ff; stroke-width: 1.5; stroke-linecap: square"/>
    <defs>
     <path id="m772ee74dd5" d="M 0 10 
C 2.652031 10 5.195799 8.946337 7.071068 7.071068 
C 8.946337 5.195799 10 2.652031 10 0 
C 10 -2.652031 8.946337 -5.195799 7.071068 -7.071068 
C 5.195799 -8.946337 2.652031 -10 0 -10 
C -2.652031 -10 -5.195799 -8.946337 -7.071068 -7.071068 
C -8.946337 -5.195799 -10 -2.652031 -10 0 
C -10 2.652031 -8.946337 5.195799 -7.071068 7.071068 
C -5.195799 8.946337 -2.652031 10 0 10 
z
" style="stroke: #0000ff"/>
    </defs>
    <g clip-path="url(#pa4c3ec3c36)">
     <use xlink:href="#m772ee74dd5" x="389.700611" y="1021.58218" style="fill: #0000ff; stroke: #0000ff"/>
    </g>
   </g>
   <g id="line2d_171">
    <path d="M 791.657239 550.052769 
" clip-path="url(#pa4c3ec3c36)" style="fill: none; stroke: #0000ff; stroke-width: 1.5; stroke-linecap: square"/>
    <g clip-path="url(#pa4c3ec3c36)">
     <use xlink:href="#m772ee74dd5" x="791.657239" y="550.052769" style="fill: #0000ff; stroke: #0000ff"/>
    </g>
   </g>
   <g id="line2d_172">
    <path d="M 879.896584 470.1837 
" clip-path="url(#pa4c3ec3c36)" style="fill: none; stroke: #0000ff; stroke-width: 1.5; stroke-linecap: square"/>
    <g clip-path="url(#pa4c3ec3c36)">
     <use xlink:href="#m772ee74dd5" x="879.896584" y="470.1837" style="fill: #0000ff; stroke: #0000ff"/>
    </g>
   </g>
   <g id="line2d_173">
    <path d="M 284.995812 1130.574291 
" clip-path="url(#pa4c3ec3c36)" style="fill: none; stroke: #0000ff; stroke-width: 1.5; stroke-linecap: square"/>
    <g clip-path="url(#pa4c3ec3c36)">
     <use xlink:href="#m772ee74dd5" x="284.995812" y="1130.574291" style="fill: #0000ff; stroke: #0000ff"/>
    </g>
   </g>
   <g id="line2d_174">
    <path d="M 818.164783 533.213754 
" clip-path="url(#pa4c3ec3c36)" style="fill: none; stroke: #0000ff; stroke-width: 1.5; stroke-linecap: square"/>
    <g clip-path="url(#pa4c3ec3c36)">
     <use xlink:href="#m772ee74dd5" x="818.164783" y="533.213754" style="fill: #0000ff; stroke: #0000ff"/>
    </g>
   </g>
   <g id="line2d_175">
    <path d="M 542.153738 815.166856 
" clip-path="url(#pa4c3ec3c36)" style="fill: none; stroke: #0000ff; stroke-width: 1.5; stroke-linecap: square"/>
    <g clip-path="url(#pa4c3ec3c36)">
     <use xlink:href="#m772ee74dd5" x="542.153738" y="815.166856" style="fill: #0000ff; stroke: #0000ff"/>
    </g>
   </g>
   <g id="line2d_176">
    <path d="M 203.323785 1223.558768 
" clip-path="url(#pa4c3ec3c36)" style="fill: none; stroke: #0000ff; stroke-width: 1.5; stroke-linecap: square"/>
    <g clip-path="url(#pa4c3ec3c36)">
     <use xlink:href="#m772ee74dd5" x="203.323785" y="1223.558768" style="fill: #0000ff; stroke: #0000ff"/>
    </g>
   </g>
   <g id="line2d_177">
    <path d="M 1006.487482 321.845363 
" clip-path="url(#pa4c3ec3c36)" style="fill: none; stroke: #0000ff; stroke-width: 1.5; stroke-linecap: square"/>
    <g clip-path="url(#pa4c3ec3c36)">
     <use xlink:href="#m772ee74dd5" x="1006.487482" y="321.845363" style="fill: #0000ff; stroke: #0000ff"/>
    </g>
   </g>
   <g id="line2d_178">
    <path d="M 592.250018 660.193314 
" clip-path="url(#pa4c3ec3c36)" style="fill: none; stroke: #0000ff; stroke-width: 1.5; stroke-linecap: square"/>
    <g clip-path="url(#pa4c3ec3c36)">
     <use xlink:href="#m772ee74dd5" x="592.250018" y="660.193314" style="fill: #0000ff; stroke: #0000ff"/>
    </g>
   </g>
   <g id="line2d_179">
    <path d="M 1009.128308 495.266082 
" clip-path="url(#pa4c3ec3c36)" style="fill: none; stroke: #0000ff; stroke-width: 1.5; stroke-linecap: square"/>
    <g clip-path="url(#pa4c3ec3c36)">
     <use xlink:href="#m772ee74dd5" x="1009.128308" y="495.266082" style="fill: #0000ff; stroke: #0000ff"/>
    </g>
   </g>
   <g id="line2d_180">
    <path d="M 502.312998 890.079337 
" clip-path="url(#pa4c3ec3c36)" style="fill: none; stroke: #0000ff; stroke-width: 1.5; stroke-linecap: square"/>
    <g clip-path="url(#pa4c3ec3c36)">
     <use xlink:href="#m772ee74dd5" x="502.312998" y="890.079337" style="fill: #0000ff; stroke: #0000ff"/>
    </g>
   </g>
   <g id="line2d_181">
    <path d="M 687.637465 688.779127 
" clip-path="url(#pa4c3ec3c36)" style="fill: none; stroke: #ff0000; stroke-width: 1.5; stroke-linecap: square"/>
    <defs>
     <path id="m6c1e31bf4d" d="M 0 -10 
L -2.24514 -3.09017 
L -9.510565 -3.09017 
L -3.632713 1.18034 
L -5.877853 8.09017 
L -0 3.81966 
L 5.877853 8.09017 
L 3.632713 1.18034 
L 9.510565 -3.09017 
L 2.24514 -3.09017 
z
" style="stroke: #ff0000; stroke-linejoin: bevel"/>
    </defs>
    <g clip-path="url(#pa4c3ec3c36)">
     <use xlink:href="#m6c1e31bf4d" x="687.637465" y="688.779127" style="fill: #ff0000; stroke: #ff0000; stroke-linejoin: bevel"/>
    </g>
   </g>
   <g id="line2d_182">
    <path d="M 1160.816985 159.475689 
" clip-path="url(#pa4c3ec3c36)" style="fill: none; stroke: #ff0000; stroke-width: 1.5; stroke-linecap: square"/>
    <g clip-path="url(#pa4c3ec3c36)">
     <use xlink:href="#m6c1e31bf4d" x="1160.816985" y="159.475689" style="fill: #ff0000; stroke: #ff0000; stroke-linejoin: bevel"/>
    </g>
   </g>
   <g id="line2d_183">
    <path d="M 1170.506634 140.22179 
" clip-path="url(#pa4c3ec3c36)" style="fill: none; stroke: #ff0000; stroke-width: 1.5; stroke-linecap: square"/>
    <g clip-path="url(#pa4c3ec3c36)">
     <use xlink:href="#m6c1e31bf4d" x="1170.506634" y="140.22179" style="fill: #ff0000; stroke: #ff0000; stroke-linejoin: bevel"/>
    </g>
   </g>
   <g id="line2d_184">
    <path d="M 627.146654 760.362556 
" clip-path="url(#pa4c3ec3c36)" style="fill: none; stroke: #ff0000; stroke-width: 1.5; stroke-linecap: square"/>
    <g clip-path="url(#pa4c3ec3c36)">
     <use xlink:href="#m6c1e31bf4d" x="627.146654" y="760.362556" style="fill: #ff0000; stroke: #ff0000; stroke-linejoin: bevel"/>
    </g>
   </g>
   <g id="line2d_185">
    <path d="M 1168.640185 174.644894 
" clip-path="url(#pa4c3ec3c36)" style="fill: none; stroke: #ff0000; stroke-width: 1.5; stroke-linecap: square"/>
    <g clip-path="url(#pa4c3ec3c36)">
     <use xlink:href="#m6c1e31bf4d" x="1168.640185" y="174.644894" style="fill: #ff0000; stroke: #ff0000; stroke-linejoin: bevel"/>
    </g>
   </g>
   <g id="line2d_186">
    <path d="M 857.841712 456.656123 
" clip-path="url(#pa4c3ec3c36)" style="fill: none; stroke: #ff0000; stroke-width: 1.5; stroke-linecap: square"/>
    <g clip-path="url(#pa4c3ec3c36)">
     <use xlink:href="#m6c1e31bf4d" x="857.841712" y="456.656123" style="fill: #ff0000; stroke: #ff0000; stroke-linejoin: bevel"/>
    </g>
   </g>
   <g id="line2d_187">
    <path d="M 490.344892 922.608932 
" clip-path="url(#pa4c3ec3c36)" style="fill: none; stroke: #ff0000; stroke-width: 1.5; stroke-linecap: square"/>
    <g clip-path="url(#pa4c3ec3c36)">
     <use xlink:href="#m6c1e31bf4d" x="490.344892" y="922.608932" style="fill: #ff0000; stroke: #ff0000; stroke-linejoin: bevel"/>
    </g>
   </g>
   <g id="line2d_188">
    <path d="M 1107.240969 190.247404 
" clip-path="url(#pa4c3ec3c36)" style="fill: none; stroke: #ff0000; stroke-width: 1.5; stroke-linecap: square"/>
    <g clip-path="url(#pa4c3ec3c36)">
     <use xlink:href="#m6c1e31bf4d" x="1107.240969" y="190.247404" style="fill: #ff0000; stroke: #ff0000; stroke-linejoin: bevel"/>
    </g>
   </g>
   <g id="line2d_189">
    <path d="M 250.238167 1024.784412 
" clip-path="url(#pa4c3ec3c36)" style="fill: none; stroke: #ff0000; stroke-width: 1.5; stroke-linecap: square"/>
    <g clip-path="url(#pa4c3ec3c36)">
     <use xlink:href="#m6c1e31bf4d" x="250.238167" y="1024.784412" style="fill: #ff0000; stroke: #ff0000; stroke-linejoin: bevel"/>
    </g>
   </g>
   <g id="line2d_190">
    <path d="M 1276.42264 584.155297 
" clip-path="url(#pa4c3ec3c36)" style="fill: none; stroke: #ff0000; stroke-width: 1.5; stroke-linecap: square"/>
    <g clip-path="url(#pa4c3ec3c36)">
     <use xlink:href="#m6c1e31bf4d" x="1276.42264" y="584.155297" style="fill: #ff0000; stroke: #ff0000; stroke-linejoin: bevel"/>
    </g>
   </g>
   <g id="line2d_191">
    <path d="M 844.51348 511.247294 
" clip-path="url(#pa4c3ec3c36)" style="fill: none; stroke: #ff0000; stroke-width: 1.5; stroke-linecap: square"/>
    <g clip-path="url(#pa4c3ec3c36)">
     <use xlink:href="#m6c1e31bf4d" x="844.51348" y="511.247294" style="fill: #ff0000; stroke: #ff0000; stroke-linejoin: bevel"/>
    </g>
   </g>
  </g>
 </g>
 <defs>
  <clipPath id="pa4c3ec3c36">
   <rect x="0" y="0" width="1440" height="1440"/>
  </clipPath>
 </defs>
</svg>
