<?xml version="1.0" encoding="utf-8" standalone="no"?>
<!DOCTYPE svg PUBLIC "-//W3C//DTD SVG 1.1//EN"
  "http://www.w3.org/Graphics/SVG/1.1/DTD/svg11.dtd">
<svg xmlns:xlink="http://www.w3.org/1999/xlink" width="1440pt" height="1440pt" viewBox="0 0 1440 1440" xmlns="http://www.w3.org/2000/svg" version="1.1">
 <metadata>
  <rdf:RDF xmlns:dc="http://purl.org/dc/elements/1.1/" xmlns:cc="http://creativecommons.org/ns#" xmlns:rdf="http://www.w3.org/1999/02/22-rdf-syntax-ns#">
   <cc:Work>
    <dc:type rdf:resource="http://purl.org/dc/dcmitype/StillImage"/>
    <dc:date>2026-02-27T11:04:55.939738</dc:date>
    <dc:format>image/svg+xml</dc:format>
    <dc:creator>
     <cc:Agent>
      <dc:title>Matplotlib v3.7.3, https://matplotlib.org/</dc:title>
     </cc:Agent>
    </dc:creator>
   </cc:Work>
  </rdf:RDF>
 </metadata>
 <defs>
  <style type="text/css">*{stroke-linejoin: round; stroke-linecap: butt}</style>
 </defs>
 <g id="figure_1">
  <g id="patch_1">
   <path d="M 0 1440 
L 1440 1440 
L 1440 0 
L 0 0 
z
" style="fill: #ffffff"/>
  </g>
  <g id="axes_1">
   <g id="line2d_1">
    <path d="M 664.247356 1296.832972 
L 664.181719 1298.448432 
L 664.116082 1299.740801 
L 663.984809 1303.294814 
L 663.919172 1305.87955 
L 658.10002 1441 
" clip-path="url(#p400841a7ec)" style="fill: none; stroke: #7a7a7a; stroke-width: 3; stroke-linecap: square"/>
   </g>
   <g id="line2d_2">
    <path d="M 641.471426 1296.832972 
L 641.40579 1298.448432 
L 641.340153 1299.740801 
L 641.20888 1303.294814 
L 641.077606 1305.87955 
L 635.56255 1441 
" clip-path="url(#p400841a7ec)" style="fill: none; stroke: #7a7a7a; stroke-width: 3; stroke-linecap: square"/>
   </g>
   <g id="line2d_3">
    <path d="M 366.519357 381.189982 
L 216.605171 414.468468 
" clip-path="url(#p400841a7ec)" style="fill: none; stroke: #7a7a7a; stroke-width: 3; stroke-linecap: square"/>
   </g>
   <g id="line2d_4">
    <path d="M 366.650631 271.984855 
L 216.539535 304.294064 
" clip-path="url(#p400841a7ec)" style="fill: none; stroke: #7a7a7a; stroke-width: 3; stroke-linecap: square"/>
   </g>
   <g id="line2d_5">
    <path d="M 216.605171 414.468468 
L 366.519357 381.189982 
" clip-path="url(#p400841a7ec)" style="fill: none; stroke: #7a7a7a; stroke-width: 3; stroke-linecap: square"/>
   </g>
   <g id="line2d_6">
    <path d="M 217.261538 546.290041 
L 366.716267 514.950108 
" clip-path="url(#p400841a7ec)" style="fill: none; stroke: #7a7a7a; stroke-width: 3; stroke-linecap: square"/>
   </g>
   <g id="line2d_7">
    <path d="M 658.10002 1441 
L 663.919172 1305.87955 
L 663.984809 1303.294814 
L 664.116082 1299.740801 
L 664.181719 1298.448432 
L 664.247356 1296.832972 
" clip-path="url(#p400841a7ec)" style="fill: none; stroke: #7a7a7a; stroke-width: 3; stroke-linecap: square"/>
   </g>
   <g id="line2d_8">
    <path d="M 680.574837 1441 
L 686.760738 1305.87955 
L 686.826375 1303.617906 
L 687.023285 1299.740801 
L 687.088922 1298.771524 
L 687.154558 1296.832972 
" clip-path="url(#p400841a7ec)" style="fill: none; stroke: #7a7a7a; stroke-width: 3; stroke-linecap: square"/>
   </g>
   <g id="line2d_9">
    <path d="M 366.650631 271.984855 
L 216.539535 304.294064 
" clip-path="url(#p400841a7ec)" style="fill: none; stroke: #7a7a7a; stroke-width: 3; stroke-linecap: square"/>
   </g>
   <g id="line2d_10">
    <path d="M 366.388084 173.441767 
L 216.408261 200.904595 
" clip-path="url(#p400841a7ec)" style="fill: none; stroke: #7a7a7a; stroke-width: 3; stroke-linecap: square"/>
   </g>
   <g id="line2d_11">
    <path d="M 411.677396 353.727154 
L 411.414849 354.050246 
L 366.519357 381.189982 
" clip-path="url(#p400841a7ec)" style="fill: none; stroke: #7a7a7a; stroke-width: 3; stroke-linecap: square"/>
   </g>
   <g id="line2d_12">
    <path d="M 411.677396 244.198935 
L 411.480486 244.522027 
L 366.650631 271.984855 
" clip-path="url(#p400841a7ec)" style="fill: none; stroke: #7a7a7a; stroke-width: 3; stroke-linecap: square"/>
   </g>
   <g id="line2d_13">
    <path d="M 366.519357 381.189982 
L 411.414849 354.050246 
L 411.677396 353.727154 
" clip-path="url(#p400841a7ec)" style="fill: none; stroke: #7a7a7a; stroke-width: 3; stroke-linecap: square"/>
   </g>
   <g id="line2d_14">
    <path d="M 366.716267 514.950108 
L 411.414849 501.057148 
L 411.677396 501.057148 
" clip-path="url(#p400841a7ec)" style="fill: none; stroke: #7a7a7a; stroke-width: 3; stroke-linecap: square"/>
   </g>
   <g id="line2d_15">
    <path d="M 411.677396 266.169197 
L 411.414849 266.169197 
L 366.650631 271.984855 
" clip-path="url(#p400841a7ec)" style="fill: none; stroke: #7a7a7a; stroke-width: 3; stroke-linecap: square"/>
   </g>
   <g id="line2d_16">
    <path d="M 411.677396 166.979925 
L 411.480486 166.979925 
L 366.388084 173.441767 
" clip-path="url(#p400841a7ec)" style="fill: none; stroke: #7a7a7a; stroke-width: 3; stroke-linecap: square"/>
   </g>
   <g id="line2d_17">
    <path d="M 1441 115.865509 
L 1199.77706 165.687557 
L 1199.58015 165.687557 
L 1199.317603 165.687557 
" clip-path="url(#p400841a7ec)" style="fill: none; stroke: #7a7a7a; stroke-width: 3; stroke-linecap: square"/>
   </g>
   <g id="line2d_18">
    <path d="M 1402.457027 -1 
L 1199.77706 42.266377 
L 1199.58015 42.58947 
L 1199.317603 42.912562 
" clip-path="url(#p400841a7ec)" style="fill: none; stroke: #7a7a7a; stroke-width: 3; stroke-linecap: square"/>
   </g>
   <g id="line2d_19">
    <path d="M 1199.317603 165.687557 
L 1187.10918 168.918478 
" clip-path="url(#p400841a7ec)" style="fill: none; stroke: #7a7a7a; stroke-width: 3; stroke-linecap: square"/>
   </g>
   <g id="line2d_20">
    <path d="M 1199.317603 42.912562 
L 1186.91227 60.682627 
" clip-path="url(#p400841a7ec)" style="fill: none; stroke: #7a7a7a; stroke-width: 3; stroke-linecap: square"/>
   </g>
   <g id="line2d_21">
    <path d="M 753.381973 261.322816 
L 880.782776 235.798541 
L 1004.704835 208.012621 
" clip-path="url(#p400841a7ec)" style="fill: none; stroke: #7a7a7a; stroke-width: 3; stroke-linecap: square"/>
   </g>
   <g id="line2d_22">
    <path d="M 753.841429 432.238533 
L 1005.689386 379.897614 
" clip-path="url(#p400841a7ec)" style="fill: none; stroke: #7a7a7a; stroke-width: 3; stroke-linecap: square"/>
   </g>
   <g id="line2d_23">
    <path d="M 604.255427 288.462552 
L 753.381973 261.322816 
" clip-path="url(#p400841a7ec)" style="fill: none; stroke: #7a7a7a; stroke-width: 3; stroke-linecap: square"/>
   </g>
   <g id="line2d_24">
    <path d="M 605.239977 462.932282 
L 753.841429 432.238533 
" clip-path="url(#p400841a7ec)" style="fill: none; stroke: #7a7a7a; stroke-width: 3; stroke-linecap: square"/>
   </g>
   <g id="line2d_25">
    <path d="M 753.381973 261.322816 
L 604.255427 288.462552 
" clip-path="url(#p400841a7ec)" style="fill: none; stroke: #7a7a7a; stroke-width: 3; stroke-linecap: square"/>
   </g>
   <g id="line2d_26">
    <path d="M 753.119426 157.287162 
L 743.995927 159.225715 
L 706.71429 126.593414 
L 689.845663 111.731177 
L 669.826474 112.700454 
L 637.861409 119.80848 
L 604.255427 127.239598 
" clip-path="url(#p400841a7ec)" style="fill: none; stroke: #7a7a7a; stroke-width: 3; stroke-linecap: square"/>
   </g>
   <g id="line2d_27">
    <path d="M 1199.317603 165.687557 
L 1199.58015 165.687557 
L 1199.77706 165.687557 
L 1441 115.865509 
" clip-path="url(#p400841a7ec)" style="fill: none; stroke: #7a7a7a; stroke-width: 3; stroke-linecap: square"/>
   </g>
   <g id="line2d_28">
    <path d="M 1199.317603 340.480379 
L 1199.58015 340.480379 
L 1199.77706 340.480379 
L 1441 289.204637 
" clip-path="url(#p400841a7ec)" style="fill: none; stroke: #7a7a7a; stroke-width: 3; stroke-linecap: square"/>
   </g>
   <g id="line2d_29">
    <path d="M 604.255427 288.462552 
L 537.502919 303.970972 
L 463.924196 320.771761 
L 454.538151 322.710314 
" clip-path="url(#p400841a7ec)" style="fill: none; stroke: #7a7a7a; stroke-width: 3; stroke-linecap: square"/>
   </g>
   <g id="line2d_30">
    <path d="M 604.255427 127.239598 
L 503.174933 148.886768 
L 452.306503 157.933346 
" clip-path="url(#p400841a7ec)" style="fill: none; stroke: #7a7a7a; stroke-width: 3; stroke-linecap: square"/>
   </g>
   <g id="line2d_31">
    <path d="M 454.538151 322.710314 
L 412.202489 266.169197 
L 412.005579 266.169197 
L 411.677396 266.169197 
" clip-path="url(#p400841a7ec)" style="fill: none; stroke: #7a7a7a; stroke-width: 3; stroke-linecap: square"/>
   </g>
   <g id="line2d_32">
    <path d="M 452.306503 157.933346 
L 412.268126 166.979925 
L 412.005579 166.979925 
L 411.677396 166.979925 
" clip-path="url(#p400841a7ec)" style="fill: none; stroke: #7a7a7a; stroke-width: 3; stroke-linecap: square"/>
   </g>
   <g id="line2d_33">
    <path d="M 669.629564 1170.180872 
L 664.247356 1296.832972 
" clip-path="url(#p400841a7ec)" style="fill: none; stroke: #7a7a7a; stroke-width: 3; stroke-linecap: square"/>
   </g>
   <g id="line2d_34">
    <path d="M 647.510001 1155.641727 
L 641.471426 1296.832972 
" clip-path="url(#p400841a7ec)" style="fill: none; stroke: #7a7a7a; stroke-width: 3; stroke-linecap: square"/>
   </g>
   <g id="line2d_35">
    <path d="M 669.629564 1170.180872 
L 675.668139 1030.605088 
L 680.98471 907.830093 
" clip-path="url(#p400841a7ec)" style="fill: none; stroke: #7a7a7a; stroke-width: 3; stroke-linecap: square"/>
   </g>
   <g id="line2d_36">
    <path d="M 691.749126 1186.012384 
L 701.528992 927.53871 
" clip-path="url(#p400841a7ec)" style="fill: none; stroke: #7a7a7a; stroke-width: 3; stroke-linecap: square"/>
   </g>
   <g id="line2d_37">
    <path d="M 664.247356 1296.832972 
L 669.629564 1170.180872 
" clip-path="url(#p400841a7ec)" style="fill: none; stroke: #7a7a7a; stroke-width: 3; stroke-linecap: square"/>
   </g>
   <g id="line2d_38">
    <path d="M 687.154558 1296.832972 
L 691.749126 1186.012384 
" clip-path="url(#p400841a7ec)" style="fill: none; stroke: #7a7a7a; stroke-width: 3; stroke-linecap: square"/>
   </g>
   <g id="line2d_39">
    <path d="M 753.381973 261.322816 
L 740.911003 268.753934 
L 729.29331 291.047289 
L 718.922713 326.264327 
L 710.324308 372.789588 
L 703.95755 429.007612 
L 700.413169 492.656754 
L 692.142946 631.909446 
" clip-path="url(#p400841a7ec)" style="fill: none; stroke: #7a7a7a; stroke-width: 3; stroke-linecap: square"/>
   </g>
   <g id="line2d_40">
    <path d="M 753.119426 157.287162 
L 739.992089 162.133544 
L 727.389846 177.965056 
L 715.443969 203.489331 
L 704.35137 237.414001 
L 694.44023 279.415973 
L 685.907461 328.202879 
L 678.949973 382.805443 
L 673.895948 441.931296 
L 670.876661 505.257346 
L 667.397917 611.231552 
" clip-path="url(#p400841a7ec)" style="fill: none; stroke: #7a7a7a; stroke-width: 3; stroke-linecap: square"/>
   </g>
   <g id="line2d_41">
    <path clip-path="url(#p400841a7ec)" style="fill: none; stroke: #7a7a7a; stroke-width: 3; stroke-linecap: square"/>
   </g>
   <g id="line2d_42">
    <path clip-path="url(#p400841a7ec)" style="fill: none; stroke: #7a7a7a; stroke-width: 3; stroke-linecap: square"/>
   </g>
   <g id="line2d_43">
    <path d="M 604.255427 288.462552 
L 634.185755 281.677618 
L 644.425077 284.908539 
L 655.320767 304.940248 
L 666.085183 337.57255 
L 676.193232 380.543798 
L 684.857275 429.976888 
L 691.48658 482.963991 
L 693.980774 527.873792 
L 693.980774 581.183987 
L 692.142946 631.909446 
" clip-path="url(#p400841a7ec)" style="fill: none; stroke: #7a7a7a; stroke-width: 3; stroke-linecap: square"/>
   </g>
   <g id="line2d_44">
    <path d="M 605.239977 462.932282 
L 645.278354 454.208795 
L 655.780224 481.025439 
L 664.312992 524.642871 
L 668.841924 572.137409 
L 667.397917 611.231552 
" clip-path="url(#p400841a7ec)" style="fill: none; stroke: #7a7a7a; stroke-width: 3; stroke-linecap: square"/>
   </g>
   <g id="line2d_45">
    <path d="M 411.677396 353.727154 
L 411.939943 353.727154 
L 412.202489 353.404062 
L 454.538151 322.710314 
" clip-path="url(#p400841a7ec)" style="fill: none; stroke: #7a7a7a; stroke-width: 3; stroke-linecap: square"/>
   </g>
   <g id="line2d_46">
    <path d="M 411.677396 501.057148 
L 411.939943 501.057148 
L 412.202489 500.734056 
L 454.735061 492.656754 
" clip-path="url(#p400841a7ec)" style="fill: none; stroke: #7a7a7a; stroke-width: 3; stroke-linecap: square"/>
   </g>
   <g id="line2d_47">
    <path d="M 1094.758366 187.980911 
L 1004.704835 208.012621 
" clip-path="url(#p400841a7ec)" style="fill: none; stroke: #7a7a7a; stroke-width: 3; stroke-linecap: square"/>
   </g>
   <g id="line2d_48">
    <path d="M 1097.974563 77.160323 
L 1004.442289 100.099862 
" clip-path="url(#p400841a7ec)" style="fill: none; stroke: #7a7a7a; stroke-width: 3; stroke-linecap: square"/>
   </g>
   <g id="line2d_49">
    <path d="M 1187.10918 168.918478 
L 1199.317603 165.687557 
" clip-path="url(#p400841a7ec)" style="fill: none; stroke: #7a7a7a; stroke-width: 3; stroke-linecap: square"/>
   </g>
   <g id="line2d_50">
    <path d="M 1186.584087 340.803471 
L 1198.923783 340.480379 
L 1199.317603 340.480379 
" clip-path="url(#p400841a7ec)" style="fill: none; stroke: #7a7a7a; stroke-width: 3; stroke-linecap: square"/>
   </g>
   <g id="line2d_51">
    <path d="M 1004.704835 208.012621 
L 1094.758366 187.980911 
" clip-path="url(#p400841a7ec)" style="fill: none; stroke: #7a7a7a; stroke-width: 3; stroke-linecap: square"/>
   </g>
   <g id="line2d_52">
    <path d="M 1005.689386 379.897614 
L 1090.360708 362.450641 
" clip-path="url(#p400841a7ec)" style="fill: none; stroke: #7a7a7a; stroke-width: 3; stroke-linecap: square"/>
   </g>
   <g id="line2d_53">
    <path d="M 692.142946 631.909446 
L 693.980774 581.183987 
L 693.980774 527.873792 
L 691.48658 482.963991 
L 684.857275 429.976888 
L 676.193232 380.543798 
L 666.085183 337.57255 
L 655.320767 304.940248 
L 644.425077 284.908539 
L 634.185755 281.677618 
L 604.255427 288.462552 
" clip-path="url(#p400841a7ec)" style="fill: none; stroke: #7a7a7a; stroke-width: 3; stroke-linecap: square"/>
   </g>
   <g id="line2d_54">
    <path d="M 717.21616 653.233524 
L 720.366721 592.815303 
L 720.432357 530.458529 
L 717.872527 467.132479 
L 713.081049 404.775705 
L 706.254833 345.003668 
L 697.918975 289.108736 
L 688.270382 238.383277 
L 677.768513 194.765845 
L 666.807186 159.871899 
L 655.583313 134.670716 
L 644.621987 120.777756 
L 634.185755 120.131572 
L 604.255427 127.239598 
" clip-path="url(#p400841a7ec)" style="fill: none; stroke: #7a7a7a; stroke-width: 3; stroke-linecap: square"/>
   </g>
   <g id="line2d_55">
    <path d="M 692.142946 631.909446 
L 700.413169 492.656754 
L 703.95755 429.007612 
L 710.324308 372.789588 
L 718.922713 326.264327 
L 729.29331 291.047289 
L 740.911003 268.753934 
L 753.381973 261.322816 
" clip-path="url(#p400841a7ec)" style="fill: none; stroke: #7a7a7a; stroke-width: 3; stroke-linecap: square"/>
   </g>
   <g id="line2d_56">
    <path d="M 717.21616 653.233524 
L 725.486382 513.980832 
L 729.358946 472.625044 
L 738.613719 443.546756 
L 753.841429 432.238533 
" clip-path="url(#p400841a7ec)" style="fill: none; stroke: #7a7a7a; stroke-width: 3; stroke-linecap: square"/>
   </g>
   <g id="line2d_57">
    <path d="M 454.538151 322.710314 
L 412.202489 353.404062 
L 411.939943 353.727154 
L 411.677396 353.727154 
" clip-path="url(#p400841a7ec)" style="fill: none; stroke: #7a7a7a; stroke-width: 3; stroke-linecap: square"/>
   </g>
   <g id="line2d_58">
    <path d="M 452.306503 157.933346 
L 412.202489 243.875843 
L 412.005579 244.198935 
L 411.677396 244.198935 
" clip-path="url(#p400841a7ec)" style="fill: none; stroke: #7a7a7a; stroke-width: 3; stroke-linecap: square"/>
   </g>
   <g id="line2d_59">
    <path d="M 680.98471 907.830093 
L 684.660364 822.210688 
L 686.629465 772.454506 
" clip-path="url(#p400841a7ec)" style="fill: none; stroke: #7a7a7a; stroke-width: 3; stroke-linecap: square"/>
   </g>
   <g id="line2d_60">
    <path d="M 701.528992 927.53871 
L 702.841726 892.644764 
L 703.169909 881.336541 
L 706.189197 807.02536 
" clip-path="url(#p400841a7ec)" style="fill: none; stroke: #7a7a7a; stroke-width: 3; stroke-linecap: square"/>
   </g>
   <g id="line2d_61">
    <path d="M 680.98471 907.830093 
L 675.668139 1030.605088 
L 669.629564 1170.180872 
" clip-path="url(#p400841a7ec)" style="fill: none; stroke: #7a7a7a; stroke-width: 3; stroke-linecap: square"/>
   </g>
   <g id="line2d_62">
    <path d="M 659.062058 887.152199 
L 647.510001 1155.641727 
" clip-path="url(#p400841a7ec)" style="fill: none; stroke: #7a7a7a; stroke-width: 3; stroke-linecap: square"/>
   </g>
   <g id="line2d_63">
    <path clip-path="url(#p400841a7ec)" style="fill: none; stroke: #7a7a7a; stroke-width: 3; stroke-linecap: square"/>
   </g>
   <g id="line2d_64">
    <path clip-path="url(#p400841a7ec)" style="fill: none; stroke: #7a7a7a; stroke-width: 3; stroke-linecap: square"/>
   </g>
   <g id="line2d_65">
    <path d="M 1159.004512 -1 
L 1158.885406 0.587498 
L 1151.402824 52.605324 
L 1141.557321 98.161309 
L 1130.136538 135.639992 
L 1117.993752 164.072096 
L 1105.916602 181.842161 
L 1094.758366 187.980911 
" clip-path="url(#p400841a7ec)" style="fill: none; stroke: #7a7a7a; stroke-width: 3; stroke-linecap: square"/>
   </g>
   <g id="line2d_66">
    <path d="M 1118.453277 -1 
L 1118.125025 5.756971 
L 1112.217724 29.665786 
L 1097.974563 77.160323 
" clip-path="url(#p400841a7ec)" style="fill: none; stroke: #7a7a7a; stroke-width: 3; stroke-linecap: square"/>
   </g>
   <g id="line2d_67">
    <path d="M 692.142946 631.909446 
L 686.629465 772.454506 
" clip-path="url(#p400841a7ec)" style="fill: none; stroke: #7a7a7a; stroke-width: 3; stroke-linecap: square"/>
   </g>
   <g id="line2d_68">
    <path d="M 667.397917 611.231552 
L 664.575539 717.205758 
" clip-path="url(#p400841a7ec)" style="fill: none; stroke: #7a7a7a; stroke-width: 3; stroke-linecap: square"/>
   </g>
   <g id="line2d_69">
    <path d="M 1004.704835 208.012621 
L 880.782776 235.798541 
L 753.381973 261.322816 
" clip-path="url(#p400841a7ec)" style="fill: none; stroke: #7a7a7a; stroke-width: 3; stroke-linecap: square"/>
   </g>
   <g id="line2d_70">
    <path d="M 1004.442289 100.099862 
L 753.119426 157.287162 
" clip-path="url(#p400841a7ec)" style="fill: none; stroke: #7a7a7a; stroke-width: 3; stroke-linecap: square"/>
   </g>
   <g id="line2d_71">
    <path d="M 1094.758366 187.980911 
L 1187.10918 168.918478 
" clip-path="url(#p400841a7ec)" style="fill: none; stroke: #7a7a7a; stroke-width: 3; stroke-linecap: square"/>
   </g>
   <g id="line2d_72">
    <path d="M 1090.360708 362.450641 
L 1186.584087 340.803471 
" clip-path="url(#p400841a7ec)" style="fill: none; stroke: #7a7a7a; stroke-width: 3; stroke-linecap: square"/>
   </g>
   <g id="line2d_73">
    <path d="M 1187.10918 168.918478 
L 1094.758366 187.980911 
" clip-path="url(#p400841a7ec)" style="fill: none; stroke: #7a7a7a; stroke-width: 3; stroke-linecap: square"/>
   </g>
   <g id="line2d_74">
    <path d="M 1186.91227 60.682627 
L 1097.974563 77.160323 
" clip-path="url(#p400841a7ec)" style="fill: none; stroke: #7a7a7a; stroke-width: 3; stroke-linecap: square"/>
   </g>
   <g id="line2d_75">
    <path d="M 454.538151 322.710314 
L 463.924196 320.771761 
L 537.502919 303.970972 
L 604.255427 288.462552 
" clip-path="url(#p400841a7ec)" style="fill: none; stroke: #7a7a7a; stroke-width: 3; stroke-linecap: square"/>
   </g>
   <g id="line2d_76">
    <path d="M 454.735061 492.656754 
L 605.239977 462.932282 
" clip-path="url(#p400841a7ec)" style="fill: none; stroke: #7a7a7a; stroke-width: 3; stroke-linecap: square"/>
   </g>
   <g id="line2d_77">
    <path d="M 686.629465 772.454506 
L 684.660364 822.210688 
L 680.98471 907.830093 
" clip-path="url(#p400841a7ec)" style="fill: none; stroke: #7a7a7a; stroke-width: 3; stroke-linecap: square"/>
   </g>
   <g id="line2d_78">
    <path d="M 664.575539 717.205758 
L 660.834248 845.796411 
L 659.062058 887.152199 
" clip-path="url(#p400841a7ec)" style="fill: none; stroke: #7a7a7a; stroke-width: 3; stroke-linecap: square"/>
   </g>
   <g id="line2d_79">
    <path d="M 686.629465 772.454506 
L 692.142946 631.909446 
" clip-path="url(#p400841a7ec)" style="fill: none; stroke: #7a7a7a; stroke-width: 3; stroke-linecap: square"/>
   </g>
   <g id="line2d_80">
    <path d="M 706.189197 807.02536 
L 707.567567 779.23944 
L 710.193035 740.145297 
L 717.21616 653.233524 
" clip-path="url(#p400841a7ec)" style="fill: none; stroke: #7a7a7a; stroke-width: 3; stroke-linecap: square"/>
   </g>
   <g id="line2d_81">
    <path d="M 1219.267005 303.04082 
L 1333.565133 229.643068 
" clip-path="url(#p400841a7ec)" style="fill: none; stroke-dasharray: 32,8,5,8; stroke-dashoffset: 0; stroke: #1e90ff; stroke-width: 5"/>
   </g>
   <g id="line2d_82">
    <path d="M 1077.364132 161.546046 
L 850.734491 193.121672 
" clip-path="url(#p400841a7ec)" style="fill: none; stroke-dasharray: 32,8,5,8; stroke-dashoffset: 0; stroke: #1e90ff; stroke-width: 5"/>
   </g>
   <g id="line2d_83">
    <path d="M 1193.987026 286.831 
L 1190.391311 291.863538 
" clip-path="url(#p400841a7ec)" style="fill: none; stroke-dasharray: 32,8,5,8; stroke-dashoffset: 0; stroke: #1e90ff; stroke-width: 5"/>
   </g>
   <g id="line2d_84">
    <path d="M 214.108033 376.217709 
L 213.576317 378.505226 
" clip-path="url(#p400841a7ec)" style="fill: none; stroke-dasharray: 32,8,5,8; stroke-dashoffset: 0; stroke: #1e90ff; stroke-width: 5"/>
   </g>
   <g id="line2d_85">
    <path d="M 343.626108 174.379807 
L 319.835915 172.328929 
" clip-path="url(#p400841a7ec)" style="fill: none; stroke-dasharray: 32,8,5,8; stroke-dashoffset: 0; stroke: #1e90ff; stroke-width: 5"/>
   </g>
   <g id="line2d_86">
    <path d="M 425.320123 169.781108 
L 423.563028 168.093078 
" clip-path="url(#p400841a7ec)" style="fill: none; stroke-dasharray: 32,8,5,8; stroke-dashoffset: 0; stroke: #1e90ff; stroke-width: 5"/>
   </g>
   <g id="line2d_87">
    <path d="M 573.197361 361.222639 
L 724.424737 344.295011 
" clip-path="url(#p400841a7ec)" style="fill: none; stroke-dasharray: 32,8,5,8; stroke-dashoffset: 0; stroke: #1e90ff; stroke-width: 5"/>
   </g>
   <g id="line2d_88">
    <path d="M 831.920431 165.923881 
L 710.106674 183.103924 
" clip-path="url(#p400841a7ec)" style="fill: none; stroke-dasharray: 32,8,5,8; stroke-dashoffset: 0; stroke: #1e90ff; stroke-width: 5"/>
   </g>
   <g id="line2d_89">
    <path d="M 1219.267005 303.04082 
" clip-path="url(#p400841a7ec)" style="fill: none; stroke: #0000ff; stroke-width: 1.5; stroke-linecap: square"/>
    <defs>
     <path id="m2b7f69fa5a" d="M 0 10 
C 2.652031 10 5.195799 8.946337 7.071068 7.071068 
C 8.946337 5.195799 10 2.652031 10 0 
C 10 -2.652031 8.946337 -5.195799 7.071068 -7.071068 
C 5.195799 -8.946337 2.652031 -10 0 -10 
C -2.652031 -10 -5.195799 -8.946337 -7.071068 -7.071068 
C -8.946337 -5.195799 -10 -2.652031 -10 0 
C -10 2.652031 -8.946337 5.195799 -7.071068 7.071068 
C -5.195799 8.946337 -2.652031 10 0 10 
z
" style="stroke: #0000ff"/>
    </defs>
    <g clip-path="url(#p400841a7ec)">
     <use xlink:href="#m2b7f69fa5a" x="1219.267005" y="303.04082" style="fill: #0000ff; stroke: #0000ff"/>
    </g>
   </g>
   <g id="line2d_90">
    <path d="M 1077.364132 161.546046 
" clip-path="url(#p400841a7ec)" style="fill: none; stroke: #0000ff; stroke-width: 1.5; stroke-linecap: square"/>
    <g clip-path="url(#p400841a7ec)">
     <use xlink:href="#m2b7f69fa5a" x="1077.364132" y="161.546046" style="fill: #0000ff; stroke: #0000ff"/>
    </g>
   </g>
   <g id="line2d_91">
    <path d="M 1193.987026 286.831 
" clip-path="url(#p400841a7ec)" style="fill: none; stroke: #0000ff; stroke-width: 1.5; stroke-linecap: square"/>
    <g clip-path="url(#p400841a7ec)">
     <use xlink:href="#m2b7f69fa5a" x="1193.987026" y="286.831" style="fill: #0000ff; stroke: #0000ff"/>
    </g>
   </g>
   <g id="line2d_92">
    <path d="M 214.108033 376.217709 
" clip-path="url(#p400841a7ec)" style="fill: none; stroke: #0000ff; stroke-width: 1.5; stroke-linecap: square"/>
    <g clip-path="url(#p400841a7ec)">
     <use xlink:href="#m2b7f69fa5a" x="214.108033" y="376.217709" style="fill: #0000ff; stroke: #0000ff"/>
    </g>
   </g>
   <g id="line2d_93">
    <path d="M 343.626108 174.379807 
" clip-path="url(#p400841a7ec)" style="fill: none; stroke: #0000ff; stroke-width: 1.5; stroke-linecap: square"/>
    <g clip-path="url(#p400841a7ec)">
     <use xlink:href="#m2b7f69fa5a" x="343.626108" y="174.379807" style="fill: #0000ff; stroke: #0000ff"/>
    </g>
   </g>
   <g id="line2d_94">
    <path d="M 425.320123 169.781108 
" clip-path="url(#p400841a7ec)" style="fill: none; stroke: #0000ff; stroke-width: 1.5; stroke-linecap: square"/>
    <g clip-path="url(#p400841a7ec)">
     <use xlink:href="#m2b7f69fa5a" x="425.320123" y="169.781108" style="fill: #0000ff; stroke: #0000ff"/>
    </g>
   </g>
   <g id="line2d_95">
    <path d="M 573.197361 361.222639 
" clip-path="url(#p400841a7ec)" style="fill: none; stroke: #0000ff; stroke-width: 1.5; stroke-linecap: square"/>
    <g clip-path="url(#p400841a7ec)">
     <use xlink:href="#m2b7f69fa5a" x="573.197361" y="361.222639" style="fill: #0000ff; stroke: #0000ff"/>
    </g>
   </g>
   <g id="line2d_96">
    <path d="M 831.920431 165.923881 
" clip-path="url(#p400841a7ec)" style="fill: none; stroke: #0000ff; stroke-width: 1.5; stroke-linecap: square"/>
    <g clip-path="url(#p400841a7ec)">
     <use xlink:href="#m2b7f69fa5a" x="831.920431" y="165.923881" style="fill: #0000ff; stroke: #0000ff"/>
    </g>
   </g>
   <g id="line2d_97">
    <path d="M 1333.565133 229.643068 
" clip-path="url(#p400841a7ec)" style="fill: none; stroke: #ff0000; stroke-width: 1.5; stroke-linecap: square"/>
    <defs>
     <path id="med419f87f2" d="M 0 -10 
L -2.24514 -3.09017 
L -9.510565 -3.09017 
L -3.632713 1.18034 
L -5.877853 8.09017 
L -0 3.81966 
L 5.877853 8.09017 
L 3.632713 1.18034 
L 9.510565 -3.09017 
L 2.24514 -3.09017 
z
" style="stroke: #ff0000; stroke-linejoin: bevel"/>
    </defs>
    <g clip-path="url(#p400841a7ec)">
     <use xlink:href="#med419f87f2" x="1333.565133" y="229.643068" style="fill: #ff0000; stroke: #ff0000; stroke-linejoin: bevel"/>
    </g>
   </g>
   <g id="line2d_98">
    <path d="M 850.734491 193.121672 
" clip-path="url(#p400841a7ec)" style="fill: none; stroke: #ff0000; stroke-width: 1.5; stroke-linecap: square"/>
    <g clip-path="url(#p400841a7ec)">
     <use xlink:href="#med419f87f2" x="850.734491" y="193.121672" style="fill: #ff0000; stroke: #ff0000; stroke-linejoin: bevel"/>
    </g>
   </g>
   <g id="line2d_99">
    <path d="M 1190.391311 291.863538 
" clip-path="url(#p400841a7ec)" style="fill: none; stroke: #ff0000; stroke-width: 1.5; stroke-linecap: square"/>
    <g clip-path="url(#p400841a7ec)">
     <use xlink:href="#med419f87f2" x="1190.391311" y="291.863538" style="fill: #ff0000; stroke: #ff0000; stroke-linejoin: bevel"/>
    </g>
   </g>
   <g id="line2d_100">
    <path d="M 213.576317 378.505226 
" clip-path="url(#p400841a7ec)" style="fill: none; stroke: #ff0000; stroke-width: 1.5; stroke-linecap: square"/>
    <g clip-path="url(#p400841a7ec)">
     <use xlink:href="#med419f87f2" x="213.576317" y="378.505226" style="fill: #ff0000; stroke: #ff0000; stroke-linejoin: bevel"/>
    </g>
   </g>
   <g id="line2d_101">
    <path d="M 319.835915 172.328929 
" clip-path="url(#p400841a7ec)" style="fill: none; stroke: #ff0000; stroke-width: 1.5; stroke-linecap: square"/>
    <g clip-path="url(#p400841a7ec)">
     <use xlink:href="#med419f87f2" x="319.835915" y="172.328929" style="fill: #ff0000; stroke: #ff0000; stroke-linejoin: bevel"/>
    </g>
   </g>
   <g id="line2d_102">
    <path d="M 423.563028 168.093078 
" clip-path="url(#p400841a7ec)" style="fill: none; stroke: #ff0000; stroke-width: 1.5; stroke-linecap: square"/>
    <g clip-path="url(#p400841a7ec)">
     <use xlink:href="#med419f87f2" x="423.563028" y="168.093078" style="fill: #ff0000; stroke: #ff0000; stroke-linejoin: bevel"/>
    </g>
   </g>
   <g id="line2d_103">
    <path d="M 724.424737 344.295011 
" clip-path="url(#p400841a7ec)" style="fill: none; stroke: #ff0000; stroke-width: 1.5; stroke-linecap: square"/>
    <g clip-path="url(#p400841a7ec)">
     <use xlink:href="#med419f87f2" x="724.424737" y="344.295011" style="fill: #ff0000; stroke: #ff0000; stroke-linejoin: bevel"/>
    </g>
   </g>
   <g id="line2d_104">
    <path d="M 710.106674 183.103924 
" clip-path="url(#p400841a7ec)" style="fill: none; stroke: #ff0000; stroke-width: 1.5; stroke-linecap: square"/>
    <g clip-path="url(#p400841a7ec)">
     <use xlink:href="#med419f87f2" x="710.106674" y="183.103924" style="fill: #ff0000; stroke: #ff0000; stroke-linejoin: bevel"/>
    </g>
   </g>
  </g>
 </g>
 <defs>
  <clipPath id="p400841a7ec">
   <rect x="0" y="0" width="1440" height="1440"/>
  </clipPath>
 </defs>
</svg>
