<?xml version="1.0" encoding="utf-8" standalone="no"?>
<!DOCTYPE svg PUBLIC "-//W3C//DTD SVG 1.1//EN"
  "http://www.w3.org/Graphics/SVG/1.1/DTD/svg11.dtd">
<svg xmlns:xlink="http://www.w3.org/1999/xlink" width="1440pt" height="1440pt" viewBox="0 0 1440 1440" xmlns="http://www.w3.org/2000/svg" version="1.1">
 <metadata>
  <rdf:RDF xmlns:dc="http://purl.org/dc/elements/1.1/" xmlns:cc="http://creativecommons.org/ns#" xmlns:rdf="http://www.w3.org/1999/02/22-rdf-syntax-ns#">
   <cc:Work>
    <dc:type rdf:resource="http://purl.org/dc/dcmitype/StillImage"/>
    <dc:date>2026-02-27T11:04:49.821377</dc:date>
    <dc:format>image/svg+xml</dc:format>
    <dc:creator>
     <cc:Agent>
      <dc:title>Matplotlib v3.7.3, https://matplotlib.org/</dc:title>
     </cc:Agent>
    </dc:creator>
   </cc:Work>
  </rdf:RDF>
 </metadata>
 <defs>
  <style type="text/css">*{stroke-linejoin: round; stroke-linecap: butt}</style>
 </defs>
 <g id="figure_1">
  <g id="patch_1">
   <path d="M 0 1440 
L 1440 1440 
L 1440 0 
L 0 0 
z
" style="fill: #ffffff"/>
  </g>
  <g id="axes_1">
   <g id="line2d_1">
    <path d="M 205.022523 1231.24365 
L 367.369357 1061.160779 
L 367.563089 1060.937963 
L 367.75682 1060.715148 
" clip-path="url(#p41d289a353)" style="fill: none; stroke: #7a7a7a; stroke-width: 3; stroke-linecap: square"/>
   </g>
   <g id="line2d_2">
    <path d="M 218.583715 1246.469409 
L 303.825489 1155.189126 
L 367.369357 1088.34433 
L 367.563089 1088.121514 
L 367.75682 1087.898698 
" clip-path="url(#p41d289a353)" style="fill: none; stroke: #7a7a7a; stroke-width: 3; stroke-linecap: square"/>
   </g>
   <g id="line2d_3">
    <path d="M 84.844537 1329.876861 
L 191.332178 1215.720803 
" clip-path="url(#p41d289a353)" style="fill: none; stroke: #7a7a7a; stroke-width: 3; stroke-linecap: square"/>
   </g>
   <g id="line2d_4">
    <path d="M 97.759957 1345.919612 
L 205.022523 1231.24365 
" clip-path="url(#p41d289a353)" style="fill: none; stroke: #7a7a7a; stroke-width: 3; stroke-linecap: square"/>
   </g>
   <g id="line2d_5">
    <path d="M -1 1421.292865 
L 84.844537 1329.876861 
" clip-path="url(#p41d289a353)" style="fill: none; stroke: #7a7a7a; stroke-width: 3; stroke-linecap: square"/>
   </g>
   <g id="line2d_6">
    <path d="M 8.357637 1441 
L 97.759957 1345.919612 
" clip-path="url(#p41d289a353)" style="fill: none; stroke: #7a7a7a; stroke-width: 3; stroke-linecap: square"/>
   </g>
   <g id="line2d_7">
    <path d="M 72.252002 1191.730948 
L -1 1100.255533 
" clip-path="url(#p41d289a353)" style="fill: none; stroke: #7a7a7a; stroke-width: 3; stroke-linecap: square"/>
   </g>
   <g id="line2d_8">
    <path d="M 93.949908 1169.523622 
L 28.081264 1087.304522 
L 15.747038 1072.078763 
L 4.446045 1057.744268 
L -1 1050.900645 
" clip-path="url(#p41d289a353)" style="fill: none; stroke: #7a7a7a; stroke-width: 3; stroke-linecap: square"/>
   </g>
   <g id="line2d_9">
    <path d="M 8.357637 1441 
L 97.759957 1345.919612 
" clip-path="url(#p41d289a353)" style="fill: none; stroke: #7a7a7a; stroke-width: 3; stroke-linecap: square"/>
   </g>
   <g id="line2d_10">
    <path d="M 35.57683 1441 
L 83.230109 1390.408538 
L 110.417069 1361.962363 
L 110.546223 1361.888091 
" clip-path="url(#p41d289a353)" style="fill: none; stroke: #7a7a7a; stroke-width: 3; stroke-linecap: square"/>
   </g>
   <g id="line2d_11">
    <path d="M 367.75682 997.435407 
L 367.563089 997.658223 
L 367.369357 997.806767 
L 177.641832 1200.3465 
" clip-path="url(#p41d289a353)" style="fill: none; stroke: #7a7a7a; stroke-width: 3; stroke-linecap: square"/>
   </g>
   <g id="line2d_12">
    <path d="M 367.75682 973.891184 
L 367.563089 974.039728 
L 367.369357 974.262544 
L 324.102699 1019.345646 
L 166.534571 1187.794533 
" clip-path="url(#p41d289a353)" style="fill: none; stroke: #7a7a7a; stroke-width: 3; stroke-linecap: square"/>
   </g>
   <g id="line2d_13">
    <path d="M 72.187425 1314.131198 
L -1 1391.885318 
" clip-path="url(#p41d289a353)" style="fill: none; stroke: #7a7a7a; stroke-width: 3; stroke-linecap: square"/>
   </g>
   <g id="line2d_14">
    <path d="M 60.757278 1299.870974 
L -1 1365.573912 
" clip-path="url(#p41d289a353)" style="fill: none; stroke: #7a7a7a; stroke-width: 3; stroke-linecap: square"/>
   </g>
   <g id="line2d_15">
    <path d="M 367.75682 1028.778189 
L 367.563089 1029.001005 
L 367.369357 1029.223821 
L 191.332178 1215.720803 
" clip-path="url(#p41d289a353)" style="fill: none; stroke: #7a7a7a; stroke-width: 3; stroke-linecap: square"/>
   </g>
   <g id="line2d_16">
    <path d="M 367.75682 997.435407 
L 367.563089 997.658223 
L 367.369357 997.806767 
L 177.641832 1200.3465 
" clip-path="url(#p41d289a353)" style="fill: none; stroke: #7a7a7a; stroke-width: 3; stroke-linecap: square"/>
   </g>
   <g id="line2d_17">
    <path d="M -1 1100.255533 
L 72.252002 1191.730948 
" clip-path="url(#p41d289a353)" style="fill: none; stroke: #7a7a7a; stroke-width: 3; stroke-linecap: square"/>
   </g>
   <g id="line2d_18">
    <path d="M -1 1148.572561 
L 50.941558 1213.566915 
" clip-path="url(#p41d289a353)" style="fill: none; stroke: #7a7a7a; stroke-width: 3; stroke-linecap: square"/>
   </g>
   <g id="line2d_19">
    <path d="M 191.332178 1215.720803 
L 367.369357 1029.223821 
L 367.563089 1029.001005 
L 367.75682 1028.778189 
" clip-path="url(#p41d289a353)" style="fill: none; stroke: #7a7a7a; stroke-width: 3; stroke-linecap: square"/>
   </g>
   <g id="line2d_20">
    <path d="M 205.022523 1231.24365 
L 367.369357 1061.160779 
L 367.563089 1060.937963 
L 367.75682 1060.715148 
" clip-path="url(#p41d289a353)" style="fill: none; stroke: #7a7a7a; stroke-width: 3; stroke-linecap: square"/>
   </g>
   <g id="line2d_21">
    <path d="M 84.844537 1329.876861 
L -1 1421.292865 
" clip-path="url(#p41d289a353)" style="fill: none; stroke: #7a7a7a; stroke-width: 3; stroke-linecap: square"/>
   </g>
   <g id="line2d_22">
    <path d="M 72.187425 1314.131198 
L -1 1391.885318 
" clip-path="url(#p41d289a353)" style="fill: none; stroke: #7a7a7a; stroke-width: 3; stroke-linecap: square"/>
   </g>
   <g id="line2d_23">
    <path d="M 72.252002 1191.730948 
L 84.069612 1206.511076 
L 93.045829 1217.577603 
L 103.184434 1226.193154 
L 114.097964 1232.432002 
L 125.592688 1236.294146 
L 137.345721 1238.002402 
L 149.16333 1237.482498 
L 160.658054 1234.95725 
L 171.765316 1230.426658 
L 182.033075 1223.964995 
L 191.332178 1215.720803 
" clip-path="url(#p41d289a353)" style="fill: none; stroke: #7a7a7a; stroke-width: 3; stroke-linecap: square"/>
   </g>
   <g id="line2d_24">
    <path d="M 50.941558 1213.566915 
L 62.759168 1228.347042 
L 71.347923 1238.150946 
L 81.034488 1246.469409 
L 91.495978 1253.228161 
L 102.667817 1258.501473 
L 114.356272 1262.140801 
L 126.367613 1264.146144 
L 138.508108 1264.591776 
L 150.648604 1263.329152 
L 162.595367 1260.358273 
L 174.219246 1255.679137 
L 185.26193 1249.291745 
L 195.594266 1241.121826 
L 205.022523 1231.24365 
" clip-path="url(#p41d289a353)" style="fill: none; stroke: #7a7a7a; stroke-width: 3; stroke-linecap: square"/>
   </g>
   <g id="line2d_25">
    <path d="M 97.759957 1345.919612 
L 205.022523 1231.24365 
" clip-path="url(#p41d289a353)" style="fill: none; stroke: #7a7a7a; stroke-width: 3; stroke-linecap: square"/>
   </g>
   <g id="line2d_26">
    <path d="M 110.546223 1361.888091 
L 218.583715 1246.469409 
" clip-path="url(#p41d289a353)" style="fill: none; stroke: #7a7a7a; stroke-width: 3; stroke-linecap: square"/>
   </g>
   <g id="line2d_27">
    <path d="M 191.332178 1215.720803 
L 84.844537 1329.876861 
" clip-path="url(#p41d289a353)" style="fill: none; stroke: #7a7a7a; stroke-width: 3; stroke-linecap: square"/>
   </g>
   <g id="line2d_28">
    <path d="M 177.641832 1200.3465 
L 72.187425 1314.131198 
" clip-path="url(#p41d289a353)" style="fill: none; stroke: #7a7a7a; stroke-width: 3; stroke-linecap: square"/>
   </g>
   <g id="line2d_29">
    <path d="M 177.641832 1200.3465 
L 163.241138 1216.017891 
L 149.744524 1226.41597 
L 137.926915 1232.432002 
L 127.013384 1234.21453 
L 117.262242 1233.397538 
L 108.156871 1229.683938 
L 99.309808 1223.222275 
L 90.591899 1214.606723 
L 81.680259 1203.985828 
L 72.252002 1191.730948 
" clip-path="url(#p41d289a353)" style="fill: none; stroke: #7a7a7a; stroke-width: 3; stroke-linecap: square"/>
   </g>
   <g id="line2d_30">
    <path d="M 166.534571 1187.794533 
L 157.041737 1197.969796 
L 151.875569 1202.871748 
L 146.257361 1206.808164 
L 141.930695 1208.442147 
L 139.605919 1208.590691 
L 136.506218 1208.887779 
L 135.602139 1208.739235 
L 130.500548 1208.070787 
L 129.725623 1207.847971 
L 128.111195 1207.328068 
L 127.207116 1206.882436 
L 125.528111 1206.139716 
L 121.330599 1203.168836 
L 116.810202 1198.341156 
L 114.872889 1195.89018 
L 113.904233 1194.850372 
L 104.863438 1183.486757 
L 93.949908 1169.523622 
" clip-path="url(#p41d289a353)" style="fill: none; stroke: #7a7a7a; stroke-width: 3; stroke-linecap: square"/>
   </g>
   <g id="line2d_31">
    <path d="M 84.844537 1329.876861 
L 97.953689 1315.839454 
L 102.861548 1308.115166 
L 106.542443 1296.231647 
L 108.673487 1281.600063 
L 109.06095 1265.631584 
L 107.381945 1249.663105 
L 103.378165 1235.031522 
L 96.791301 1223.222275 
L 72.252002 1191.730948 
" clip-path="url(#p41d289a353)" style="fill: none; stroke: #7a7a7a; stroke-width: 3; stroke-linecap: square"/>
   </g>
   <g id="line2d_32">
    <path d="M 97.759957 1345.919612 
L 110.933686 1331.956477 
L 118.295476 1321.706941 
L 124.042838 1309.37779 
L 128.111195 1295.488927 
L 130.694279 1280.560256 
L 131.79209 1265.11168 
L 131.533781 1249.885921 
L 130.048508 1235.254338 
L 127.271693 1221.811107 
L 123.397067 1210.224675 
L 118.553784 1200.940676 
L 93.949908 1169.523622 
" clip-path="url(#p41d289a353)" style="fill: none; stroke: #7a7a7a; stroke-width: 3; stroke-linecap: square"/>
   </g>
   <g id="line2d_33">
    <path d="M 177.641832 1200.3465 
L 72.187425 1314.131198 
" clip-path="url(#p41d289a353)" style="fill: none; stroke: #7a7a7a; stroke-width: 3; stroke-linecap: square"/>
   </g>
   <g id="line2d_34">
    <path d="M 166.534571 1187.794533 
L 157.041737 1197.969796 
L 155.879349 1199.083876 
L 76.96613 1282.639871 
L 76.126628 1283.753951 
L 60.757278 1299.870974 
" clip-path="url(#p41d289a353)" style="fill: none; stroke: #7a7a7a; stroke-width: 3; stroke-linecap: square"/>
   </g>
   <g id="line2d_35">
    <path d="M 72.252002 1191.730948 
L 98.018266 1225.153347 
L 104.798861 1238.522306 
L 107.5111 1251.668449 
L 107.446523 1263.180608 
L 104.15309 1274.172864 
L 98.857768 1283.976767 
L 92.529212 1292.518047 
L 72.187425 1314.131198 
" clip-path="url(#p41d289a353)" style="fill: none; stroke: #7a7a7a; stroke-width: 3; stroke-linecap: square"/>
   </g>
   <g id="line2d_36">
    <path d="M 50.941558 1213.566915 
L 58.690811 1223.667907 
L 73.995584 1241.493186 
L 78.128518 1247.286401 
L 81.357373 1253.302433 
L 83.100955 1259.021377 
L 83.617572 1264.294688 
L 83.423841 1268.08256 
L 82.907224 1270.830624 
L 81.938567 1274.172864 
L 80.582448 1277.143744 
L 78.451404 1280.634528 
L 76.126628 1283.753951 
L 60.757278 1299.870974 
" clip-path="url(#p41d289a353)" style="fill: none; stroke: #7a7a7a; stroke-width: 3; stroke-linecap: square"/>
   </g>
   <g id="line2d_37">
    <path d="M 367.75682 1060.715148 
L 367.950551 1060.566604 
L 368.079705 1060.41806 
L 368.273437 1060.195244 
L 603.72155 809.601529 
L 690.706906 715.573182 
" clip-path="url(#p41d289a353)" style="fill: none; stroke: #7a7a7a; stroke-width: 3; stroke-linecap: square"/>
   </g>
   <g id="line2d_38">
    <path d="M 367.75682 1087.898698 
L 367.950551 1087.675882 
L 368.079705 1087.60161 
L 368.338014 1087.304522 
L 460.360384 989.636847 
L 486.772418 962.081937 
L 501.043958 947.004722 
L 571.432999 871.02447 
L 615.991199 823.78748 
L 670.946313 765.855324 
L 690.642329 746.173245 
L 704.913868 732.358653 
" clip-path="url(#p41d289a353)" style="fill: none; stroke: #7a7a7a; stroke-width: 3; stroke-linecap: square"/>
   </g>
   <g id="line2d_39">
    <path d="M 755.219431 585.820005 
L 755.025699 585.968549 
L 754.896545 586.191365 
L 663.842832 683.85904 
" clip-path="url(#p41d289a353)" style="fill: none; stroke: #7a7a7a; stroke-width: 3; stroke-linecap: square"/>
   </g>
   <g id="line2d_40">
    <path d="M 755.219431 561.830151 
L 755.025699 562.052967 
L 754.896545 562.201511 
L 653.123033 670.192993 
" clip-path="url(#p41d289a353)" style="fill: none; stroke: #7a7a7a; stroke-width: 3; stroke-linecap: square"/>
   </g>
   <g id="line2d_41">
    <path d="M 677.791486 699.678975 
L 754.896545 617.905508 
L 755.025699 617.756964 
L 755.219431 617.60842 
" clip-path="url(#p41d289a353)" style="fill: none; stroke: #7a7a7a; stroke-width: 3; stroke-linecap: square"/>
   </g>
   <g id="line2d_42">
    <path d="M 690.706906 715.573182 
L 754.896545 646.945858 
L 755.025699 646.797314 
L 755.219431 646.574498 
" clip-path="url(#p41d289a353)" style="fill: none; stroke: #7a7a7a; stroke-width: 3; stroke-linecap: square"/>
   </g>
   <g id="line2d_43">
    <path d="M 663.842832 683.85904 
L 511.763757 845.029271 
L 456.421181 904.669684 
L 368.273437 996.841231 
L 368.079705 997.064047 
L 367.950551 997.212591 
L 367.75682 997.435407 
" clip-path="url(#p41d289a353)" style="fill: none; stroke: #7a7a7a; stroke-width: 3; stroke-linecap: square"/>
   </g>
   <g id="line2d_44">
    <path d="M 653.123033 670.192993 
L 537.98206 792.667514 
L 517.70485 814.057849 
L 396.751939 942.399858 
L 368.273437 973.297008 
L 368.079705 973.519824 
L 367.950551 973.668368 
L 367.75682 973.891184 
" clip-path="url(#p41d289a353)" style="fill: none; stroke: #7a7a7a; stroke-width: 3; stroke-linecap: square"/>
   </g>
   <g id="line2d_45">
    <path d="M 677.791486 699.678975 
L 368.273437 1028.184013 
L 368.079705 1028.406829 
L 367.950551 1028.555373 
L 367.75682 1028.778189 
" clip-path="url(#p41d289a353)" style="fill: none; stroke: #7a7a7a; stroke-width: 3; stroke-linecap: square"/>
   </g>
   <g id="line2d_46">
    <path d="M 663.842832 683.85904 
L 511.763757 845.029271 
L 456.421181 904.669684 
L 368.273437 996.841231 
L 368.079705 997.064047 
L 367.950551 997.212591 
L 367.75682 997.435407 
" clip-path="url(#p41d289a353)" style="fill: none; stroke: #7a7a7a; stroke-width: 3; stroke-linecap: square"/>
   </g>
   <g id="line2d_47">
    <path d="M 690.706906 715.573182 
L 755.025699 662.765793 
L 755.219431 662.617249 
" clip-path="url(#p41d289a353)" style="fill: none; stroke: #7a7a7a; stroke-width: 3; stroke-linecap: square"/>
   </g>
   <g id="line2d_48">
    <path d="M 704.913868 732.358653 
L 720.799835 718.246974 
L 729.259436 711.339679 
L 755.025699 692.474592 
L 755.219431 692.326048 
" clip-path="url(#p41d289a353)" style="fill: none; stroke: #7a7a7a; stroke-width: 3; stroke-linecap: square"/>
   </g>
   <g id="line2d_49">
    <path d="M 755.219431 617.60842 
L 755.025699 617.756964 
L 754.896545 617.905508 
L 677.791486 699.678975 
" clip-path="url(#p41d289a353)" style="fill: none; stroke: #7a7a7a; stroke-width: 3; stroke-linecap: square"/>
   </g>
   <g id="line2d_50">
    <path d="M 755.219431 585.820005 
L 755.025699 585.968549 
L 754.896545 586.191365 
L 663.842832 683.85904 
" clip-path="url(#p41d289a353)" style="fill: none; stroke: #7a7a7a; stroke-width: 3; stroke-linecap: square"/>
   </g>
   <g id="line2d_51">
    <path d="M 367.75682 1028.778189 
L 367.950551 1028.555373 
L 368.079705 1028.406829 
L 368.273437 1028.184013 
L 677.791486 699.678975 
" clip-path="url(#p41d289a353)" style="fill: none; stroke: #7a7a7a; stroke-width: 3; stroke-linecap: square"/>
   </g>
   <g id="line2d_52">
    <path d="M 367.75682 1060.715148 
L 367.950551 1060.566604 
L 368.079705 1060.41806 
L 368.273437 1060.195244 
L 603.72155 809.601529 
L 690.706906 715.573182 
" clip-path="url(#p41d289a353)" style="fill: none; stroke: #7a7a7a; stroke-width: 3; stroke-linecap: square"/>
   </g>
   <g id="line2d_53">
    <path d="M 690.706906 715.573182 
L 754.896545 646.945858 
L 755.025699 646.797314 
L 755.219431 646.574498 
" clip-path="url(#p41d289a353)" style="fill: none; stroke: #7a7a7a; stroke-width: 3; stroke-linecap: square"/>
   </g>
   <g id="line2d_54">
    <path d="M 704.913868 732.358653 
L 754.896545 679.254176 
L 755.025699 679.105632 
L 755.219431 678.882816 
" clip-path="url(#p41d289a353)" style="fill: none; stroke: #7a7a7a; stroke-width: 3; stroke-linecap: square"/>
   </g>
   <g id="line2d_55">
    <path d="M 974.006651 415.291503 
L 1367.832396 -1 
" clip-path="url(#p41d289a353)" style="fill: none; stroke: #7a7a7a; stroke-width: 3; stroke-linecap: square"/>
   </g>
   <g id="line2d_56">
    <path d="M 985.759684 431.92843 
L 1194.795762 210.077978 
L 1212.554465 191.212891 
L 1226.503119 176.507036 
L 1259.049979 141.970558 
L 1331.247179 64.727682 
L 1375.030454 18.5305 
L 1377.161498 16.30234 
L 1393.575487 -1 
" clip-path="url(#p41d289a353)" style="fill: none; stroke: #7a7a7a; stroke-width: 3; stroke-linecap: square"/>
   </g>
   <g id="line2d_57">
    <path d="M 935.518699 510.805289 
L 950.242278 528.704841 
" clip-path="url(#p41d289a353)" style="fill: none; stroke: #7a7a7a; stroke-width: 3; stroke-linecap: square"/>
   </g>
   <g id="line2d_58">
    <path d="M 899.61383 544.970408 
L 916.403877 565.840838 
" clip-path="url(#p41d289a353)" style="fill: none; stroke: #7a7a7a; stroke-width: 3; stroke-linecap: square"/>
   </g>
   <g id="line2d_59">
    <path d="M 961.607848 399.100208 
L 854.086973 513.330537 
" clip-path="url(#p41d289a353)" style="fill: none; stroke: #7a7a7a; stroke-width: 3; stroke-linecap: square"/>
   </g>
   <g id="line2d_60">
    <path d="M 948.563273 382.091921 
L 840.332051 496.099434 
" clip-path="url(#p41d289a353)" style="fill: none; stroke: #7a7a7a; stroke-width: 3; stroke-linecap: square"/>
   </g>
   <g id="line2d_61">
    <path d="M 948.563273 382.091921 
L 934.614619 397.020592 
L 922.280393 408.309935 
L 911.173131 416.108495 
L 901.034526 420.490542 
L 891.60627 421.604622 
L 882.565475 419.525006 
L 873.653835 414.325967 
L 861.51334 401.179823 
L 839.23424 374.664721 
" clip-path="url(#p41d289a353)" style="fill: none; stroke: #7a7a7a; stroke-width: 3; stroke-linecap: square"/>
   </g>
   <g id="line2d_62">
    <path d="M 937.908052 368.722961 
L 916.016414 390.781744 
L 914.337409 392.267184 
L 912.270942 393.455536 
L 908.654624 394.866704 
L 905.619501 395.238064 
L 901.874029 395.46088 
L 898.903482 394.71816 
L 896.06209 393.97544 
L 893.414428 392.638544 
L 888.24826 388.7764 
L 882.565475 382.166193 
L 859.317719 352.977298 
" clip-path="url(#p41d289a353)" style="fill: none; stroke: #7a7a7a; stroke-width: 3; stroke-linecap: square"/>
   </g>
   <g id="line2d_63">
    <path d="M 950.242278 528.704841 
L 956.699988 537.097576 
L 1023.666443 607.655972 
" clip-path="url(#p41d289a353)" style="fill: none; stroke: #7a7a7a; stroke-width: 3; stroke-linecap: square"/>
   </g>
   <g id="line2d_64">
    <path d="M 916.403877 565.840838 
L 981.303864 635.210883 
L 981.820481 635.582243 
L 988.665654 642.712354 
L 989.311425 643.529346 
" clip-path="url(#p41d289a353)" style="fill: none; stroke: #7a7a7a; stroke-width: 3; stroke-linecap: square"/>
   </g>
   <g id="line2d_65">
    <path d="M 854.086973 513.330537 
L 755.736047 617.088516 
L 755.477739 617.311332 
L 755.219431 617.60842 
" clip-path="url(#p41d289a353)" style="fill: none; stroke: #7a7a7a; stroke-width: 3; stroke-linecap: square"/>
   </g>
   <g id="line2d_66">
    <path d="M 840.332051 496.099434 
L 755.736047 585.225829 
L 755.477739 585.522917 
L 755.219431 585.820005 
" clip-path="url(#p41d289a353)" style="fill: none; stroke: #7a7a7a; stroke-width: 3; stroke-linecap: square"/>
   </g>
   <g id="line2d_67">
    <path d="M 940.62029 506.497514 
L 929.125566 492.905738 
L 917.759996 484.067371 
L 906.588157 479.536779 
L 896.191244 478.868331 
L 886.892141 481.467851 
L 879.207466 486.741163 
L 854.086973 513.330537 
" clip-path="url(#p41d289a353)" style="fill: none; stroke: #7a7a7a; stroke-width: 3; stroke-linecap: square"/>
   </g>
   <g id="line2d_68">
    <path d="M 977.752123 467.059084 
L 971.294413 457.923628 
L 962.511927 451.016333 
L 951.856706 446.337197 
L 939.845365 443.737677 
L 926.929944 443.217773 
L 913.562484 444.703213 
L 900.259601 448.193997 
L 887.537912 453.467309 
L 875.720303 460.59742 
L 865.452543 469.51006 
L 840.332051 496.099434 
" clip-path="url(#p41d289a353)" style="fill: none; stroke: #7a7a7a; stroke-width: 3; stroke-linecap: square"/>
   </g>
   <g id="line2d_69">
    <path d="M 961.607848 399.100208 
L 927.381984 435.344942 
L 921.182582 442.400781 
L 917.43711 452.873133 
L 916.597608 465.870732 
L 919.051538 480.502315 
L 925.186363 495.728074 
L 932.160689 505.903338 
L 932.483575 507.165962 
L 935.518699 510.805289 
" clip-path="url(#p41d289a353)" style="fill: none; stroke: #7a7a7a; stroke-width: 3; stroke-linecap: square"/>
   </g>
   <g id="line2d_70">
    <path d="M 948.563273 382.091921 
L 914.272832 418.262383 
L 904.586267 429.923086 
L 896.966169 442.475053 
L 891.347961 455.76974 
L 887.602489 469.435788 
L 885.600599 483.324651 
L 885.277714 497.06497 
L 886.569256 510.43393 
L 889.346071 523.134441 
L 893.479006 535.01796 
L 899.61383 544.970408 
" clip-path="url(#p41d289a353)" style="fill: none; stroke: #7a7a7a; stroke-width: 3; stroke-linecap: square"/>
   </g>
   <g id="line2d_71">
    <path d="M 839.23424 374.664721 
L 849.243691 387.142416 
L 867.389856 414.771599 
L 871.522791 427.769198 
L 872.685179 440.246893 
L 870.941597 452.204685 
L 866.679508 463.791116 
L 859.96349 474.931915 
L 851.116427 485.627083 
L 840.332051 496.099434 
" clip-path="url(#p41d289a353)" style="fill: none; stroke: #7a7a7a; stroke-width: 3; stroke-linecap: square"/>
   </g>
   <g id="line2d_72">
    <path d="M 817.730065 397.986128 
L 837.748967 423.164334 
L 846.014836 434.379406 
L 848.081303 437.944461 
L 848.985382 440.172621 
L 850.212347 444.703213 
L 850.858118 450.050797 
L 850.728964 453.838669 
L 849.824885 457.700812 
L 848.404188 461.117324 
L 846.402298 464.533836 
L 843.23802 468.693068 
L 840.009165 472.258124 
L 829.935137 482.879019 
" clip-path="url(#p41d289a353)" style="fill: none; stroke: #7a7a7a; stroke-width: 3; stroke-linecap: square"/>
   </g>
   <g id="line2d_73">
    <path d="M 839.23424 374.664721 
L 932.225267 506.126154 
L 932.483575 507.165962 
L 935.518699 510.805289 
" clip-path="url(#p41d289a353)" style="fill: none; stroke: #7a7a7a; stroke-width: 3; stroke-linecap: square"/>
   </g>
   <g id="line2d_74">
    <path d="M 817.730065 397.986128 
L 837.748967 423.164334 
L 846.014836 434.379406 
L 848.081303 437.944461 
L 848.985382 440.172621 
L 899.61383 544.970408 
" clip-path="url(#p41d289a353)" style="fill: none; stroke: #7a7a7a; stroke-width: 3; stroke-linecap: square"/>
   </g>
   <g id="line2d_75">
    <path d="M 839.23424 374.664721 
L 746.695253 259.543127 
" clip-path="url(#p41d289a353)" style="fill: none; stroke: #7a7a7a; stroke-width: 3; stroke-linecap: square"/>
   </g>
   <g id="line2d_76">
    <path d="M 859.317719 352.977298 
L 768.974353 239.712504 
" clip-path="url(#p41d289a353)" style="fill: none; stroke: #7a7a7a; stroke-width: 3; stroke-linecap: square"/>
   </g>
   <g id="line2d_77">
    <path d="M 1336.413347 302.917973 
L 1307.934845 305.294677 
L 1282.878929 308.488373 
L 1264.539032 312.944692 
L 1243.486897 319.777716 
L 1217.526902 331.364147 
L 1182.784422 354.685554 
L 1161.538555 372.882193 
L 1131.316471 402.442447 
L 1103.225432 431.705614 
L 1067.643449 470.327052 
" clip-path="url(#p41d289a353)" style="fill: none; stroke: #7a7a7a; stroke-width: 3; stroke-linecap: square"/>
   </g>
   <g id="line2d_78">
    <path d="M 1336.413347 272.763542 
L 1296.052658 275.363062 
L 1257.435551 282.121814 
L 1230.765208 290.737365 
L 1207.129989 300.764085 
L 1175.616363 316.806836 
L 1149.979254 334.854931 
L 1113.880654 367.757425 
L 1046.397583 440.172621 
" clip-path="url(#p41d289a353)" style="fill: none; stroke: #7a7a7a; stroke-width: 3; stroke-linecap: square"/>
   </g>
   <g id="line2d_79">
    <path d="M 839.23424 374.664721 
L 851.05185 389.444848 
L 860.867569 403.185167 
L 871.393637 413.657519 
L 882.500898 421.010446 
L 893.866468 425.541038 
L 905.296615 427.546382 
L 916.533031 427.249294 
L 927.381984 424.798318 
L 937.585166 420.564814 
L 946.819692 414.697327 
L 954.891829 407.492943 
L 961.607848 399.100208 
" clip-path="url(#p41d289a353)" style="fill: none; stroke: #7a7a7a; stroke-width: 3; stroke-linecap: square"/>
   </g>
   <g id="line2d_80">
    <path d="M 817.730065 397.986128 
L 837.748967 423.164334 
L 841.623593 428.437646 
L 844.206677 431.18571 
L 853.699511 438.464365 
L 864.290156 444.331853 
L 875.78488 448.713901 
L 887.989952 451.461965 
L 900.647064 452.427501 
L 913.562484 451.536237 
L 926.477905 448.713901 
L 939.199594 443.811949 
L 951.53382 436.681838 
L 963.222275 427.249294 
L 974.006651 415.291503 
" clip-path="url(#p41d289a353)" style="fill: none; stroke: #7a7a7a; stroke-width: 3; stroke-linecap: square"/>
   </g>
   <g id="line2d_81">
    <path d="M 1339.437176 -1 
L 961.607848 399.100208 
" clip-path="url(#p41d289a353)" style="fill: none; stroke: #7a7a7a; stroke-width: 3; stroke-linecap: square"/>
   </g>
   <g id="line2d_82">
    <path d="M 1309.938167 -1 
L 948.563273 382.091921 
" clip-path="url(#p41d289a353)" style="fill: none; stroke: #7a7a7a; stroke-width: 3; stroke-linecap: square"/>
   </g>
   <g id="line2d_83">
    <path d="M 854.086973 513.330537 
L 961.607848 399.100208 
" clip-path="url(#p41d289a353)" style="fill: none; stroke: #7a7a7a; stroke-width: 3; stroke-linecap: square"/>
   </g>
   <g id="line2d_84">
    <path d="M 866.550354 529.001929 
L 974.006651 415.291503 
" clip-path="url(#p41d289a353)" style="fill: none; stroke: #7a7a7a; stroke-width: 3; stroke-linecap: square"/>
   </g>
   <g id="line2d_85">
    <path d="M 840.332051 496.099434 
L 755.736047 585.225829 
L 755.477739 585.522917 
L 755.219431 585.820005 
" clip-path="url(#p41d289a353)" style="fill: none; stroke: #7a7a7a; stroke-width: 3; stroke-linecap: square"/>
   </g>
   <g id="line2d_86">
    <path d="M 829.935137 482.879019 
L 755.736047 561.310247 
L 755.477739 561.533063 
L 755.219431 561.830151 
" clip-path="url(#p41d289a353)" style="fill: none; stroke: #7a7a7a; stroke-width: 3; stroke-linecap: square"/>
   </g>
   <g id="line2d_87">
    <path d="M 755.219431 646.574498 
L 755.477739 646.351682 
L 755.736047 646.054594 
L 866.550354 529.001929 
" clip-path="url(#p41d289a353)" style="fill: none; stroke: #7a7a7a; stroke-width: 3; stroke-linecap: square"/>
   </g>
   <g id="line2d_88">
    <path d="M 755.219431 678.882816 
L 755.477739 678.66 
L 755.67147 678.437184 
L 842.656826 587.008357 
L 880.305277 547.198568 
" clip-path="url(#p41d289a353)" style="fill: none; stroke: #7a7a7a; stroke-width: 3; stroke-linecap: square"/>
   </g>
   <g id="line2d_89">
    <path d="M 755.219431 662.617249 
L 755.477739 662.394433 
L 755.67147 662.245889 
L 801.13375 630.383203 
L 831.484988 614.860356 
L 843.625483 610.404036 
L 859.05941 604.833636 
L 887.989952 598.223429 
L 900.001293 594.881189 
L 908.912933 592.281669 
L 912.077211 591.464677 
L 915.176912 590.573413 
" clip-path="url(#p41d289a353)" style="fill: none; stroke: #7a7a7a; stroke-width: 3; stroke-linecap: square"/>
   </g>
   <g id="line2d_90">
    <path d="M 755.219431 692.326048 
L 755.477739 692.177504 
L 755.67147 692.02896 
L 762.58122 687.424096 
L 767.876543 684.007584 
L 778.725496 677.026016 
L 788.21833 671.307073 
L 798.292357 665.588129 
L 818.246682 655.635682 
L 826.383397 652.516258 
L 837.103196 648.431298 
L 844.271254 646.203138 
L 857.50956 642.043906 
L 860.609261 641.07837 
L 873.201796 637.364771 
L 912.722982 627.486595 
L 912.852136 627.486595 
L 920.924274 625.926883 
" clip-path="url(#p41d289a353)" style="fill: none; stroke: #7a7a7a; stroke-width: 3; stroke-linecap: square"/>
   </g>
   <g id="line2d_91">
    <path d="M 955.279292 522.391721 
L 944.882379 512.216457 
L 940.62029 506.497514 
" clip-path="url(#p41d289a353)" style="fill: none; stroke: #7a7a7a; stroke-width: 3; stroke-linecap: square"/>
   </g>
   <g id="line2d_92">
    <path d="M 989.376002 482.359115 
L 986.599186 478.496971 
L 983.305754 475.526091 
L 983.112023 475.303275 
L 980.012322 471.663948 
L 977.752123 467.059084 
" clip-path="url(#p41d289a353)" style="fill: none; stroke: #7a7a7a; stroke-width: 3; stroke-linecap: square"/>
   </g>
   <g id="line2d_93">
    <path d="M 755.219431 617.60842 
L 755.477739 617.311332 
L 755.736047 617.088516 
L 854.086973 513.330537 
" clip-path="url(#p41d289a353)" style="fill: none; stroke: #7a7a7a; stroke-width: 3; stroke-linecap: square"/>
   </g>
   <g id="line2d_94">
    <path d="M 755.219431 646.574498 
L 755.477739 646.351682 
L 755.736047 646.054594 
L 866.550354 529.001929 
" clip-path="url(#p41d289a353)" style="fill: none; stroke: #7a7a7a; stroke-width: 3; stroke-linecap: square"/>
   </g>
   <g id="line2d_95">
    <path d="M 915.176912 590.573413 
L 923.249049 591.390405 
L 929.70676 592.355941 
L 938.230937 593.098661 
L 949.144467 593.098661 
L 962.253619 592.875845 
L 974.329537 591.910309 
L 985.307644 591.984581 
L 995.446249 593.395749 
L 1004.939083 596.292357 
L 1014.302763 600.971493 
L 1023.666443 607.655972 
" clip-path="url(#p41d289a353)" style="fill: none; stroke: #7a7a7a; stroke-width: 3; stroke-linecap: square"/>
   </g>
   <g id="line2d_96">
    <path d="M 920.924274 625.926883 
L 923.765666 625.704067 
L 935.389545 623.847267 
L 945.980189 623.772995 
L 946.303075 623.847267 
L 956.635411 624.441443 
L 964.642972 626.298243 
L 971.036105 629.269123 
L 975.879387 631.125923 
L 981.820481 635.582243 
L 988.665654 642.712354 
L 989.311425 643.529346 
" clip-path="url(#p41d289a353)" style="fill: none; stroke: #7a7a7a; stroke-width: 3; stroke-linecap: square"/>
   </g>
   <g id="line2d_97">
    <path d="M 915.176912 590.573413 
L 923.701089 591.687493 
L 930.094222 591.836037 
L 939.974519 586.785541 
L 1067.643449 470.327052 
" clip-path="url(#p41d289a353)" style="fill: none; stroke: #7a7a7a; stroke-width: 3; stroke-linecap: square"/>
   </g>
   <g id="line2d_98">
    <path d="M 920.924274 625.926883 
L 948.886159 619.168132 
L 957.926953 613.746276 
L 1056.47161 532.269896 
L 1088.953893 501.224202 
" clip-path="url(#p41d289a353)" style="fill: none; stroke: #7a7a7a; stroke-width: 3; stroke-linecap: square"/>
   </g>
   <g id="line2d_99">
    <path d="M 950.242278 528.704841 
L 952.760785 533.383976 
L 956.893719 537.543208 
L 963.286853 541.999528 
L 970.519488 543.113608 
L 982.337098 543.55924 
L 993.896399 540.068456 
L 1004.293312 533.012616 
L 1067.643449 470.327052 
" clip-path="url(#p41d289a353)" style="fill: none; stroke: #7a7a7a; stroke-width: 3; stroke-linecap: square"/>
   </g>
   <g id="line2d_100">
    <path d="M 916.403877 565.840838 
L 932.418998 582.774854 
L 941.136907 587.676805 
L 952.308745 590.721957 
L 964.190932 591.687493 
L 976.654313 590.573413 
L 989.311425 587.305445 
L 1001.903959 581.809318 
L 1014.173609 574.010758 
L 1025.862064 563.909767 
L 1052.209522 537.840296 
L 1052.403253 537.394664 
L 1053.953103 534.943688 
L 1056.47161 532.269896 
L 1057.892307 531.378632 
L 1067.708026 522.540265 
L 1088.953893 501.224202 
" clip-path="url(#p41d289a353)" style="fill: none; stroke: #7a7a7a; stroke-width: 3; stroke-linecap: square"/>
   </g>
   <g id="line2d_101">
    <path d="M 746.695253 259.543127 
L 839.23424 374.664721 
" clip-path="url(#p41d289a353)" style="fill: none; stroke: #7a7a7a; stroke-width: 3; stroke-linecap: square"/>
   </g>
   <g id="line2d_102">
    <path d="M 723.447497 279.670838 
L 751.603113 314.652948 
L 775.367486 344.955923 
L 817.730065 397.986128 
" clip-path="url(#p41d289a353)" style="fill: none; stroke: #7a7a7a; stroke-width: 3; stroke-linecap: square"/>
   </g>
   <g id="line2d_103">
    <path d="M 1023.666443 607.655972 
L 955.279292 522.391721 
" clip-path="url(#p41d289a353)" style="fill: none; stroke: #7a7a7a; stroke-width: 3; stroke-linecap: square"/>
   </g>
   <g id="line2d_104">
    <path d="M 1057.633998 572.673862 
L 1053.501064 567.994726 
L 989.376002 482.359115 
" clip-path="url(#p41d289a353)" style="fill: none; stroke: #7a7a7a; stroke-width: 3; stroke-linecap: square"/>
   </g>
   <g id="line2d_105">
    <path d="M 940.62029 506.497514 
L 934.16258 497.80769 
L 933.71054 498.17905 
L 839.23424 374.664721 
" clip-path="url(#p41d289a353)" style="fill: none; stroke: #7a7a7a; stroke-width: 3; stroke-linecap: square"/>
   </g>
   <g id="line2d_106">
    <path d="M 977.752123 467.059084 
L 888.377414 388.330768 
L 882.565475 382.166193 
L 859.317719 352.977298 
" clip-path="url(#p41d289a353)" style="fill: none; stroke: #7a7a7a; stroke-width: 3; stroke-linecap: square"/>
   </g>
   <g id="line2d_107">
    <path d="M 1067.643449 470.327052 
L 1103.225432 431.705614 
L 1131.316471 402.442447 
L 1161.538555 372.882193 
L 1182.784422 354.685554 
L 1217.526902 331.364147 
L 1243.486897 319.777716 
L 1264.539032 312.944692 
L 1282.878929 308.488373 
L 1307.934845 305.294677 
L 1336.413347 302.917973 
" clip-path="url(#p41d289a353)" style="fill: none; stroke: #7a7a7a; stroke-width: 3; stroke-linecap: square"/>
   </g>
   <g id="line2d_108">
    <path d="M 1088.953893 501.224202 
L 1142.811196 444.480397 
L 1172.193777 414.177423 
L 1185.49666 401.179823 
L 1198.928697 389.14776 
L 1209.971381 380.309393 
L 1223.855458 371.025393 
L 1231.281825 366.791889 
L 1238.385306 363.226834 
L 1246.522021 359.36469 
L 1256.854357 355.056914 
L 1270.738434 350.006418 
L 1285.139128 345.178739 
L 1304.447681 341.093779 
L 1329.051557 337.900083 
L 1336.413347 337.380179 
" clip-path="url(#p41d289a353)" style="fill: none; stroke: #7a7a7a; stroke-width: 3; stroke-linecap: square"/>
   </g>
   <g id="line2d_109">
    <path d="M 1309.938167 -1 
L 948.563273 382.091921 
" clip-path="url(#p41d289a353)" style="fill: none; stroke: #7a7a7a; stroke-width: 3; stroke-linecap: square"/>
   </g>
   <g id="line2d_110">
    <path d="M 1287.102941 -1 
L 1270.60928 16.30234 
L 1175.035169 117.683615 
L 1046.978776 253.230008 
L 1007.199282 295.787861 
L 937.908052 368.722961 
" clip-path="url(#p41d289a353)" style="fill: none; stroke: #7a7a7a; stroke-width: 3; stroke-linecap: square"/>
   </g>
   <g id="line2d_111">
    <path d="M 1067.643449 470.327052 
L 1030.447038 506.72033 
L 1021.083359 518.306761 
L 1014.044455 531.155816 
L 1009.201172 545.564584 
L 1007.070128 560.641799 
L 1007.522167 575.421926 
L 1010.557291 588.790885 
L 1015.917191 599.931685 
L 1023.666443 607.655972 
" clip-path="url(#p41d289a353)" style="fill: none; stroke: #7a7a7a; stroke-width: 3; stroke-linecap: square"/>
   </g>
   <g id="line2d_112">
    <path d="M 1046.397583 440.172621 
L 1026.701567 461.637228 
L 1024.053905 464.236748 
L 999.579184 490.677579 
L 990.861275 499.218858 
L 983.693217 509.839754 
L 978.010432 522.243177 
L 973.748343 535.909224 
L 970.971528 550.466535 
L 969.615409 565.543751 
L 969.550831 580.620966 
L 970.906951 595.475365 
L 973.619189 609.587044 
L 977.558392 622.510371 
L 982.789137 634.022531 
L 989.311425 643.529346 
" clip-path="url(#p41d289a353)" style="fill: none; stroke: #7a7a7a; stroke-width: 3; stroke-linecap: square"/>
   </g>
   <g id="line2d_113">
    <path d="M 940.62029 506.497514 
L 936.422778 499.887306 
L 934.356311 490.974667 
L 934.550042 480.353771 
L 937.197703 468.39598 
L 942.751334 455.249837 
L 951.53382 441.212429 
L 963.932624 426.580846 
L 974.006651 415.291503 
" clip-path="url(#p41d289a353)" style="fill: none; stroke: #7a7a7a; stroke-width: 3; stroke-linecap: square"/>
   </g>
   <g id="line2d_114">
    <path d="M 977.752123 467.059084 
L 970.906951 458.517804 
L 970.002871 451.016333 
L 975.685656 443.069229 
L 985.759684 431.92843 
" clip-path="url(#p41d289a353)" style="fill: none; stroke: #7a7a7a; stroke-width: 3; stroke-linecap: square"/>
   </g>
   <g id="line2d_115">
    <path d="M 1067.643449 470.327052 
L 1023.860174 509.914026 
L 1008.813709 521.500457 
L 994.99421 529.44756 
L 982.466252 533.755336 
L 971.488144 534.27524 
L 962.059888 531.081544 
L 955.279292 522.391721 
" clip-path="url(#p41d289a353)" style="fill: none; stroke: #7a7a7a; stroke-width: 3; stroke-linecap: square"/>
   </g>
   <g id="line2d_116">
    <path d="M 1046.397583 440.172621 
L 1027.28276 462.528492 
L 1019.920971 469.658604 
L 1011.719679 477.308619 
L 1006.876396 480.799403 
L 1000.741572 482.433387 
L 995.962866 482.656203 
L 989.376002 482.359115 
" clip-path="url(#p41d289a353)" style="fill: none; stroke: #7a7a7a; stroke-width: 3; stroke-linecap: square"/>
   </g>
   <g id="line2d_117">
    <path d="M 961.607848 399.100208 
L 1339.437176 -1 
" clip-path="url(#p41d289a353)" style="fill: none; stroke: #7a7a7a; stroke-width: 3; stroke-linecap: square"/>
   </g>
   <g id="line2d_118">
    <path d="M 974.006651 415.291503 
L 1367.832396 -1 
" clip-path="url(#p41d289a353)" style="fill: none; stroke: #7a7a7a; stroke-width: 3; stroke-linecap: square"/>
   </g>
   <g id="line2d_119">
    <path d="M 866.550354 529.001929 
L 974.006651 415.291503 
" clip-path="url(#p41d289a353)" style="fill: none; stroke: #7a7a7a; stroke-width: 3; stroke-linecap: square"/>
   </g>
   <g id="line2d_120">
    <path d="M 880.305277 547.198568 
L 985.759684 431.92843 
" clip-path="url(#p41d289a353)" style="fill: none; stroke: #7a7a7a; stroke-width: 3; stroke-linecap: square"/>
   </g>
   <g id="line2d_121">
    <path d="M 1023.666443 607.655972 
L 1060.023351 653.110434 
" clip-path="url(#p41d289a353)" style="fill: none; stroke: #7a7a7a; stroke-width: 3; stroke-linecap: square"/>
   </g>
   <g id="line2d_122">
    <path d="M 989.311425 643.529346 
L 1023.73102 686.012928 
" clip-path="url(#p41d289a353)" style="fill: none; stroke: #7a7a7a; stroke-width: 3; stroke-linecap: square"/>
   </g>
   <g id="line2d_123">
    <path d="M 1023.666443 607.655972 
L 1015.917191 599.931685 
L 1010.557291 588.790885 
L 1007.522167 575.421926 
L 1007.070128 560.641799 
L 1009.201172 545.564584 
L 1014.044455 531.155816 
L 1021.083359 518.306761 
L 1030.447038 506.72033 
L 1067.643449 470.327052 
" clip-path="url(#p41d289a353)" style="fill: none; stroke: #7a7a7a; stroke-width: 3; stroke-linecap: square"/>
   </g>
   <g id="line2d_124">
    <path d="M 1057.633998 572.673862 
L 1051.822059 564.726759 
L 1049.884746 559.230631 
L 1048.786935 554.031591 
L 1048.141164 547.347111 
L 1050.401363 538.880104 
L 1053.953103 533.606792 
L 1077.20086 513.924713 
L 1088.953893 501.224202 
" clip-path="url(#p41d289a353)" style="fill: none; stroke: #7a7a7a; stroke-width: 3; stroke-linecap: square"/>
   </g>
   <g id="line2d_125">
    <path d="M 948.563273 382.091921 
L 840.332051 496.099434 
" clip-path="url(#p41d289a353)" style="fill: none; stroke: #7a7a7a; stroke-width: 3; stroke-linecap: square"/>
   </g>
   <g id="line2d_126">
    <path d="M 937.908052 368.722961 
L 843.23802 468.693068 
L 840.009165 472.258124 
L 829.935137 482.879019 
" clip-path="url(#p41d289a353)" style="fill: none; stroke: #7a7a7a; stroke-width: 3; stroke-linecap: square"/>
   </g>
   <g id="line2d_127">
    <path d="M 1060.023351 653.110434 
L 1023.666443 607.655972 
" clip-path="url(#p41d289a353)" style="fill: none; stroke: #7a7a7a; stroke-width: 3; stroke-linecap: square"/>
   </g>
   <g id="line2d_128">
    <path d="M 1096.380259 620.133668 
L 1057.633998 572.673862 
" clip-path="url(#p41d289a353)" style="fill: none; stroke: #7a7a7a; stroke-width: 3; stroke-linecap: square"/>
   </g>
   <g id="line2d_129">
    <path d="M 632.961229 780.467033 
L 838.365602 569.4274 
" clip-path="url(#p41d289a353)" style="fill: none; stroke-dasharray: 32,8,5,8; stroke-dashoffset: 0; stroke: #1e90ff; stroke-width: 5"/>
   </g>
   <g id="line2d_130">
    <path d="M 325.508954 1144.647326 
L 332.808563 1119.430932 
" clip-path="url(#p41d289a353)" style="fill: none; stroke-dasharray: 32,8,5,8; stroke-dashoffset: 0; stroke: #1e90ff; stroke-width: 5"/>
   </g>
   <g id="line2d_131">
    <path d="M 822.006911 570.441931 
L 1132.793673 250.590922 
" clip-path="url(#p41d289a353)" style="fill: none; stroke-dasharray: 32,8,5,8; stroke-dashoffset: 0; stroke: #1e90ff; stroke-width: 5"/>
   </g>
   <g id="line2d_132">
    <path d="M 530.090347 803.84476 
L 129.154204 1217.184012 
" clip-path="url(#p41d289a353)" style="fill: none; stroke-dasharray: 32,8,5,8; stroke-dashoffset: 0; stroke: #1e90ff; stroke-width: 5"/>
   </g>
   <g id="line2d_133">
    <path d="M 1006.634989 376.102617 
L 1231.967452 140.14306 
" clip-path="url(#p41d289a353)" style="fill: none; stroke-dasharray: 32,8,5,8; stroke-dashoffset: 0; stroke: #1e90ff; stroke-width: 5"/>
   </g>
   <g id="line2d_134">
    <path d="M 288.782304 1126.470089 
L 639.360605 760.40761 
" clip-path="url(#p41d289a353)" style="fill: none; stroke-dasharray: 32,8,5,8; stroke-dashoffset: 0; stroke: #1e90ff; stroke-width: 5"/>
   </g>
   <g id="line2d_135">
    <path d="M 632.961229 780.467033 
" clip-path="url(#p41d289a353)" style="fill: none; stroke: #0000ff; stroke-width: 1.5; stroke-linecap: square"/>
    <defs>
     <path id="mb25ce08913" d="M 0 10 
C 2.652031 10 5.195799 8.946337 7.071068 7.071068 
C 8.946337 5.195799 10 2.652031 10 0 
C 10 -2.652031 8.946337 -5.195799 7.071068 -7.071068 
C 5.195799 -8.946337 2.652031 -10 0 -10 
C -2.652031 -10 -5.195799 -8.946337 -7.071068 -7.071068 
C -8.946337 -5.195799 -10 -2.652031 -10 0 
C -10 2.652031 -8.946337 5.195799 -7.071068 7.071068 
C -5.195799 8.946337 -2.652031 10 0 10 
z
" style="stroke: #0000ff"/>
    </defs>
    <g clip-path="url(#p41d289a353)">
     <use xlink:href="#mb25ce08913" x="632.961229" y="780.467033" style="fill: #0000ff; stroke: #0000ff"/>
    </g>
   </g>
   <g id="line2d_136">
    <path d="M 325.508954 1144.647326 
" clip-path="url(#p41d289a353)" style="fill: none; stroke: #0000ff; stroke-width: 1.5; stroke-linecap: square"/>
    <g clip-path="url(#p41d289a353)">
     <use xlink:href="#mb25ce08913" x="325.508954" y="1144.647326" style="fill: #0000ff; stroke: #0000ff"/>
    </g>
   </g>
   <g id="line2d_137">
    <path d="M 822.006911 570.441931 
" clip-path="url(#p41d289a353)" style="fill: none; stroke: #0000ff; stroke-width: 1.5; stroke-linecap: square"/>
    <g clip-path="url(#p41d289a353)">
     <use xlink:href="#mb25ce08913" x="822.006911" y="570.441931" style="fill: #0000ff; stroke: #0000ff"/>
    </g>
   </g>
   <g id="line2d_138">
    <path d="M 530.090347 803.84476 
" clip-path="url(#p41d289a353)" style="fill: none; stroke: #0000ff; stroke-width: 1.5; stroke-linecap: square"/>
    <g clip-path="url(#p41d289a353)">
     <use xlink:href="#mb25ce08913" x="530.090347" y="803.84476" style="fill: #0000ff; stroke: #0000ff"/>
    </g>
   </g>
   <g id="line2d_139">
    <path d="M 1006.634989 376.102617 
" clip-path="url(#p41d289a353)" style="fill: none; stroke: #0000ff; stroke-width: 1.5; stroke-linecap: square"/>
    <g clip-path="url(#p41d289a353)">
     <use xlink:href="#mb25ce08913" x="1006.634989" y="376.102617" style="fill: #0000ff; stroke: #0000ff"/>
    </g>
   </g>
   <g id="line2d_140">
    <path d="M 288.782304 1126.470089 
" clip-path="url(#p41d289a353)" style="fill: none; stroke: #0000ff; stroke-width: 1.5; stroke-linecap: square"/>
    <g clip-path="url(#p41d289a353)">
     <use xlink:href="#mb25ce08913" x="288.782304" y="1126.470089" style="fill: #0000ff; stroke: #0000ff"/>
    </g>
   </g>
   <g id="line2d_141">
    <path d="M 838.365602 569.4274 
" clip-path="url(#p41d289a353)" style="fill: none; stroke: #ff0000; stroke-width: 1.5; stroke-linecap: square"/>
    <defs>
     <path id="m1b513ad2d5" d="M 0 -10 
L -2.24514 -3.09017 
L -9.510565 -3.09017 
L -3.632713 1.18034 
L -5.877853 8.09017 
L -0 3.81966 
L 5.877853 8.09017 
L 3.632713 1.18034 
L 9.510565 -3.09017 
L 2.24514 -3.09017 
z
" style="stroke: #ff0000; stroke-linejoin: bevel"/>
    </defs>
    <g clip-path="url(#p41d289a353)">
     <use xlink:href="#m1b513ad2d5" x="838.365602" y="569.4274" style="fill: #ff0000; stroke: #ff0000; stroke-linejoin: bevel"/>
    </g>
   </g>
   <g id="line2d_142">
    <path d="M 332.808563 1119.430932 
" clip-path="url(#p41d289a353)" style="fill: none; stroke: #ff0000; stroke-width: 1.5; stroke-linecap: square"/>
    <g clip-path="url(#p41d289a353)">
     <use xlink:href="#m1b513ad2d5" x="332.808563" y="1119.430932" style="fill: #ff0000; stroke: #ff0000; stroke-linejoin: bevel"/>
    </g>
   </g>
   <g id="line2d_143">
    <path d="M 1132.793673 250.590922 
" clip-path="url(#p41d289a353)" style="fill: none; stroke: #ff0000; stroke-width: 1.5; stroke-linecap: square"/>
    <g clip-path="url(#p41d289a353)">
     <use xlink:href="#m1b513ad2d5" x="1132.793673" y="250.590922" style="fill: #ff0000; stroke: #ff0000; stroke-linejoin: bevel"/>
    </g>
   </g>
   <g id="line2d_144">
    <path d="M 129.154204 1217.184012 
" clip-path="url(#p41d289a353)" style="fill: none; stroke: #ff0000; stroke-width: 1.5; stroke-linecap: square"/>
    <g clip-path="url(#p41d289a353)">
     <use xlink:href="#m1b513ad2d5" x="129.154204" y="1217.184012" style="fill: #ff0000; stroke: #ff0000; stroke-linejoin: bevel"/>
    </g>
   </g>
   <g id="line2d_145">
    <path d="M 1231.967452 140.14306 
" clip-path="url(#p41d289a353)" style="fill: none; stroke: #ff0000; stroke-width: 1.5; stroke-linecap: square"/>
    <g clip-path="url(#p41d289a353)">
     <use xlink:href="#m1b513ad2d5" x="1231.967452" y="140.14306" style="fill: #ff0000; stroke: #ff0000; stroke-linejoin: bevel"/>
    </g>
   </g>
   <g id="line2d_146">
    <path d="M 639.360605 760.40761 
" clip-path="url(#p41d289a353)" style="fill: none; stroke: #ff0000; stroke-width: 1.5; stroke-linecap: square"/>
    <g clip-path="url(#p41d289a353)">
     <use xlink:href="#m1b513ad2d5" x="639.360605" y="760.40761" style="fill: #ff0000; stroke: #ff0000; stroke-linejoin: bevel"/>
    </g>
   </g>
  </g>
 </g>
 <defs>
  <clipPath id="p41d289a353">
   <rect x="0" y="0" width="1440" height="1440"/>
  </clipPath>
 </defs>
</svg>
