<?xml version="1.0" encoding="utf-8" standalone="no"?>
<!DOCTYPE svg PUBLIC "-//W3C//DTD SVG 1.1//EN"
  "http://www.w3.org/Graphics/SVG/1.1/DTD/svg11.dtd">
<svg xmlns:xlink="http://www.w3.org/1999/xlink" width="1440pt" height="1440pt" viewBox="0 0 1440 1440" xmlns="http://www.w3.org/2000/svg" version="1.1">
 <metadata>
  <rdf:RDF xmlns:dc="http://purl.org/dc/elements/1.1/" xmlns:cc="http://creativecommons.org/ns#" xmlns:rdf="http://www.w3.org/1999/02/22-rdf-syntax-ns#">
   <cc:Work>
    <dc:type rdf:resource="http://purl.org/dc/dcmitype/StillImage"/>
    <dc:date>2026-02-27T11:04:58.566563</dc:date>
    <dc:format>image/svg+xml</dc:format>
    <dc:creator>
     <cc:Agent>
      <dc:title>Matplotlib v3.7.3, https://matplotlib.org/</dc:title>
     </cc:Agent>
    </dc:creator>
   </cc:Work>
  </rdf:RDF>
 </metadata>
 <defs>
  <style type="text/css">*{stroke-linejoin: round; stroke-linecap: butt}</style>
 </defs>
 <g id="figure_1">
  <g id="patch_1">
   <path d="M 0 1440 
L 1440 1440 
L 1440 0 
L 0 0 
z
" style="fill: #ffffff"/>
  </g>
  <g id="axes_1">
   <g id="line2d_1">
    <path d="M 976.396413 276.142418 
L 981.142965 262.997032 
L 980.826529 247.96249 
L 973.073826 233.95124 
L 958.517732 221.514289 
L 937.158247 211.202639 
L 909.628243 203.724725 
L 902.98307 202.465287 
" clip-path="url(#p663c5fd060)" style="fill: none; stroke: #7a7a7a; stroke-width: 3; stroke-linecap: square"/>
   </g>
   <g id="line2d_2">
    <path d="M 1040.791307 289.287803 
L 1046.170733 280.156877 
L 1049.809756 266.303057 
L 1048.227572 251.819519 
L 1042.215272 237.178551 
L 1031.931076 222.852442 
L 1018.007855 209.313482 
L 1000.60383 197.03396 
L 980.193655 186.564881 
L 957.251985 178.378533 
L 932.253476 172.868491 
L 925.608303 171.609053 
" clip-path="url(#p663c5fd060)" style="fill: none; stroke: #7a7a7a; stroke-width: 3; stroke-linecap: square"/>
   </g>
   <g id="line2d_3">
    <path d="M 1068.637747 156.810655 
L 1059.619298 168.381743 
L 1044.272112 182.078132 
L 1021.805097 193.019501 
L 994.275094 200.969704 
L 963.73894 205.456453 
L 932.728131 206.086172 
L 902.98307 202.465287 
" clip-path="url(#p663c5fd060)" style="fill: none; stroke: #7a7a7a; stroke-width: 3; stroke-linecap: square"/>
   </g>
   <g id="line2d_4">
    <path d="M 1007.723659 143.429125 
L 1001.394922 151.851617 
L 997.59768 156.259651 
L 991.585381 161.454833 
L 986.047736 164.997003 
L 978.769689 168.381743 
L 971.649861 170.821904 
L 965.004687 172.238772 
L 956.144456 173.34078 
L 947.600662 173.65564 
L 936.050718 173.025921 
L 925.608303 171.609053 
" clip-path="url(#p663c5fd060)" style="fill: none; stroke: #7a7a7a; stroke-width: 3; stroke-linecap: square"/>
   </g>
   <g id="line2d_5">
    <path d="M 976.396413 276.142418 
L 600.311248 751.737741 
L 599.361937 752.918464 
L 599.045501 753.233324 
L 598.254409 754.335332 
L 597.937972 754.728906 
" clip-path="url(#p663c5fd060)" style="fill: none; stroke: #7a7a7a; stroke-width: 3; stroke-linecap: square"/>
   </g>
   <g id="line2d_6">
    <path d="M 913.109048 264.4139 
L 901.400886 279.291013 
L 897.920081 284.092621 
L 889.534505 294.5617 
L 569.300439 704.036522 
L 562.497047 713.246163 
L 531.960894 751.737741 
L 531.011583 752.918464 
L 530.695147 753.233324 
L 529.904055 754.335332 
L 529.587618 754.728906 
" clip-path="url(#p663c5fd060)" style="fill: none; stroke: #7a7a7a; stroke-width: 3; stroke-linecap: square"/>
   </g>
   <g id="line2d_7">
    <path d="M 1068.637747 156.810655 
L 976.396413 276.142418 
" clip-path="url(#p663c5fd060)" style="fill: none; stroke: #7a7a7a; stroke-width: 3; stroke-linecap: square"/>
   </g>
   <g id="line2d_8">
    <path d="M 1007.723659 143.429125 
L 1001.394922 151.851617 
L 997.59768 156.259651 
L 913.109048 264.4139 
" clip-path="url(#p663c5fd060)" style="fill: none; stroke: #7a7a7a; stroke-width: 3; stroke-linecap: square"/>
   </g>
   <g id="line2d_9">
    <path d="M 1068.637747 156.810655 
L 1155.183218 46.294959 
" clip-path="url(#p663c5fd060)" style="fill: none; stroke: #7a7a7a; stroke-width: 3; stroke-linecap: square"/>
   </g>
   <g id="line2d_10">
    <path d="M 1132.716204 170.192185 
L 1229.387654 46.294959 
" clip-path="url(#p663c5fd060)" style="fill: none; stroke: #7a7a7a; stroke-width: 3; stroke-linecap: square"/>
   </g>
   <g id="line2d_11">
    <path d="M 976.396413 276.142418 
L 985.256644 264.099041 
L 998.072335 255.440403 
L 1011.995556 250.638796 
L 1034.146133 245.522328 
L 1060.41039 242.846022 
L 1086.832865 242.609878 
L 1109.616316 243.711886 
L 1149.329137 251.03237 
" clip-path="url(#p663c5fd060)" style="fill: none; stroke: #7a7a7a; stroke-width: 3; stroke-linecap: square"/>
   </g>
   <g id="line2d_12">
    <path d="M 1040.791307 289.287803 
L 1043.322801 286.768927 
L 1048.544009 283.384187 
L 1051.39194 281.731174 
L 1056.613148 279.527158 
L 1062.150792 277.874145 
L 1068.004874 276.850852 
L 1073.858955 276.299847 
L 1083.510278 276.378562 
L 1093.161601 277.244426 
L 1103.604016 278.818724 
L 1105.977292 279.212298 
L 1128.12787 283.226757 
" clip-path="url(#p663c5fd060)" style="fill: none; stroke: #7a7a7a; stroke-width: 3; stroke-linecap: square"/>
   </g>
   <g id="line2d_13">
    <path d="M 902.98307 202.465287 
L 932.728131 206.086172 
L 963.73894 205.456453 
L 994.275094 200.969704 
L 1021.805097 193.019501 
L 1044.272112 182.078132 
L 1059.619298 168.381743 
L 1068.637747 156.810655 
" clip-path="url(#p663c5fd060)" style="fill: none; stroke: #7a7a7a; stroke-width: 3; stroke-linecap: square"/>
   </g>
   <g id="line2d_14">
    <path d="M 880.199619 235.446823 
L 908.520714 239.776142 
L 937.79112 241.429154 
L 966.903308 240.799435 
L 995.540841 237.965699 
L 1023.070845 233.085377 
L 1048.860446 226.237182 
L 1072.434989 217.49983 
L 1093.161601 206.952036 
L 1110.723845 194.829944 
L 1124.330628 181.054839 
L 1132.716204 170.192185 
" clip-path="url(#p663c5fd060)" style="fill: none; stroke: #7a7a7a; stroke-width: 3; stroke-linecap: square"/>
   </g>
   <g id="line2d_15">
    <path d="M 1149.329137 251.03237 
L 902.98307 202.465287 
" clip-path="url(#p663c5fd060)" style="fill: none; stroke: #7a7a7a; stroke-width: 3; stroke-linecap: square"/>
   </g>
   <g id="line2d_16">
    <path d="M 1169.897531 219.231557 
L 925.608303 171.609053 
" clip-path="url(#p663c5fd060)" style="fill: none; stroke: #7a7a7a; stroke-width: 3; stroke-linecap: square"/>
   </g>
   <g id="line2d_17">
    <path d="M 976.396413 276.142418 
L 1068.637747 156.810655 
" clip-path="url(#p663c5fd060)" style="fill: none; stroke: #7a7a7a; stroke-width: 3; stroke-linecap: square"/>
   </g>
   <g id="line2d_18">
    <path d="M 1040.791307 289.287803 
L 1132.716204 170.192185 
" clip-path="url(#p663c5fd060)" style="fill: none; stroke: #7a7a7a; stroke-width: 3; stroke-linecap: square"/>
   </g>
   <g id="line2d_19">
    <path d="M -1 917.455348 
L 91.480835 935.300848 
L 92.113709 935.458278 
L 94.645203 935.930567 
" clip-path="url(#p663c5fd060)" style="fill: none; stroke: #7a7a7a; stroke-width: 3; stroke-linecap: square"/>
   </g>
   <g id="line2d_20">
    <path d="M -1 953.277775 
L 44.331748 961.985193 
L 91.480835 971.745839 
L 92.113709 971.824554 
L 94.645203 972.296843 
" clip-path="url(#p663c5fd060)" style="fill: none; stroke: #7a7a7a; stroke-width: 3; stroke-linecap: square"/>
   </g>
   <g id="line2d_21">
    <path d="M 902.98307 202.465287 
L 909.628243 203.724725 
L 937.158247 211.202639 
L 958.517732 221.514289 
L 973.073826 233.95124 
L 980.826529 247.96249 
L 981.142965 262.997032 
L 976.396413 276.142418 
" clip-path="url(#p663c5fd060)" style="fill: none; stroke: #7a7a7a; stroke-width: 3; stroke-linecap: square"/>
   </g>
   <g id="line2d_22">
    <path d="M 880.199619 235.446823 
L 885.895481 236.942406 
L 889.692723 237.572125 
L 897.603644 240.563291 
L 903.774162 243.397026 
L 908.204277 246.152047 
L 912.001519 249.458072 
L 913.90014 252.370523 
L 915.165888 256.699842 
L 914.058359 261.422735 
L 913.109048 264.4139 
" clip-path="url(#p663c5fd060)" style="fill: none; stroke: #7a7a7a; stroke-width: 3; stroke-linecap: square"/>
   </g>
   <g id="line2d_23">
    <path d="M 597.937972 754.728906 
L 598.254409 754.335332 
L 599.045501 753.233324 
L 599.361937 752.918464 
L 600.311248 751.737741 
L 976.396413 276.142418 
" clip-path="url(#p663c5fd060)" style="fill: none; stroke: #7a7a7a; stroke-width: 3; stroke-linecap: square"/>
   </g>
   <g id="line2d_24">
    <path d="M 677.521833 754.728906 
L 677.83827 754.335332 
L 678.78758 753.233324 
L 678.945799 752.997179 
L 679.895109 751.737741 
L 740.334542 674.282296 
L 752.51736 657.988315 
L 802.514378 593.442111 
L 867.06749 510.712769 
L 1033.355041 297.474151 
L 1040.791307 289.287803 
" clip-path="url(#p663c5fd060)" style="fill: none; stroke: #7a7a7a; stroke-width: 3; stroke-linecap: square"/>
   </g>
   <g id="line2d_25">
    <path d="M 902.98307 202.465287 
L 1149.329137 251.03237 
" clip-path="url(#p663c5fd060)" style="fill: none; stroke: #7a7a7a; stroke-width: 3; stroke-linecap: square"/>
   </g>
   <g id="line2d_26">
    <path d="M 880.199619 235.446823 
L 1103.604016 278.818724 
L 1128.12787 283.226757 
" clip-path="url(#p663c5fd060)" style="fill: none; stroke: #7a7a7a; stroke-width: 3; stroke-linecap: square"/>
   </g>
   <g id="line2d_27">
    <path d="M 1155.183218 46.294959 
L 1068.637747 156.810655 
" clip-path="url(#p663c5fd060)" style="fill: none; stroke: #7a7a7a; stroke-width: 3; stroke-linecap: square"/>
   </g>
   <g id="line2d_28">
    <path d="M 1083.668496 46.294959 
L 1007.723659 143.429125 
" clip-path="url(#p663c5fd060)" style="fill: none; stroke: #7a7a7a; stroke-width: 3; stroke-linecap: square"/>
   </g>
   <g id="line2d_29">
    <path d="M -1 32.253466 
L 902.98307 202.465287 
" clip-path="url(#p663c5fd060)" style="fill: none; stroke: #7a7a7a; stroke-width: 3; stroke-linecap: square"/>
   </g>
   <g id="line2d_30">
    <path d="M -1 66.2154 
L 777.832306 216.161677 
L 880.199619 235.446823 
" clip-path="url(#p663c5fd060)" style="fill: none; stroke: #7a7a7a; stroke-width: 3; stroke-linecap: square"/>
   </g>
   <g id="line2d_31">
    <path d="M 1149.329137 251.03237 
L 1441 307.66927 
" clip-path="url(#p663c5fd060)" style="fill: none; stroke: #7a7a7a; stroke-width: 3; stroke-linecap: square"/>
   </g>
   <g id="line2d_32">
    <path d="M 1128.12787 283.226757 
L 1313.876286 319.750463 
L 1373.841064 331.321551 
L 1404.218999 336.910307 
L 1433.96406 342.735209 
L 1441 344.102566 
" clip-path="url(#p663c5fd060)" style="fill: none; stroke: #7a7a7a; stroke-width: 3; stroke-linecap: square"/>
   </g>
   <g id="line2d_33">
    <path d="M 1149.329137 251.03237 
L 1124.805283 244.971324 
L 1103.129361 236.312687 
L 1084.934244 225.607463 
L 1070.852805 213.406656 
L 1061.3597 200.103841 
L 1057.087803 186.328736 
L 1058.669987 172.632347 
L 1066.580908 159.408246 
L 1068.637747 156.810655 
" clip-path="url(#p663c5fd060)" style="fill: none; stroke: #7a7a7a; stroke-width: 3; stroke-linecap: square"/>
   </g>
   <g id="line2d_34">
    <path d="M 1169.897531 219.231557 
L 1159.455116 217.027541 
L 1151.227758 214.744809 
L 1144.424366 212.147218 
L 1138.09563 208.605048 
L 1132.716204 204.275729 
L 1128.12787 198.608258 
L 1125.596375 193.491791 
L 1124.647065 189.005042 
L 1124.963502 185.384158 
L 1126.545686 181.448413 
L 1129.868273 176.253231 
L 1130.659365 172.789776 
L 1132.716204 170.192185 
" clip-path="url(#p663c5fd060)" style="fill: none; stroke: #7a7a7a; stroke-width: 3; stroke-linecap: square"/>
   </g>
   <g id="line2d_35">
    <path d="M 1068.637747 156.810655 
L 1066.580908 159.408246 
L 1058.669987 172.632347 
L 1057.087803 186.328736 
L 1061.3597 200.103841 
L 1070.852805 213.406656 
L 1084.934244 225.607463 
L 1103.129361 236.312687 
L 1124.805283 244.971324 
L 1149.329137 251.03237 
" clip-path="url(#p663c5fd060)" style="fill: none; stroke: #7a7a7a; stroke-width: 3; stroke-linecap: square"/>
   </g>
   <g id="line2d_36">
    <path d="M 1007.723659 143.429125 
L 1006.299693 145.318282 
L 998.072335 159.329531 
L 994.433312 174.364074 
L 995.540841 189.792191 
L 1000.762048 205.141593 
L 1009.938716 220.097421 
L 1022.754408 234.42353 
L 1038.734467 247.64763 
L 1057.562458 259.454862 
L 1078.921944 269.609082 
L 1102.496487 277.638 
L 1128.12787 283.226757 
" clip-path="url(#p663c5fd060)" style="fill: none; stroke: #7a7a7a; stroke-width: 3; stroke-linecap: square"/>
   </g>
   <g id="line2d_37">
    <path d="M 94.645203 935.930567 
L 92.113709 935.458278 
L 91.480835 935.300848 
L -1 917.455348 
" clip-path="url(#p663c5fd060)" style="fill: none; stroke: #7a7a7a; stroke-width: 3; stroke-linecap: square"/>
   </g>
   <g id="line2d_38">
    <path d="M 94.645203 899.879151 
L 92.113709 899.406861 
L -1 881.529845 
" clip-path="url(#p663c5fd060)" style="fill: none; stroke: #7a7a7a; stroke-width: 3; stroke-linecap: square"/>
   </g>
   <g id="line2d_39">
    <path d="M 1441 307.66927 
L 1149.329137 251.03237 
" clip-path="url(#p663c5fd060)" style="fill: none; stroke: #7a7a7a; stroke-width: 3; stroke-linecap: square"/>
   </g>
   <g id="line2d_40">
    <path d="M 1441 270.631593 
L 1260.240244 236.391402 
L 1192.048108 223.560876 
L 1169.897531 219.231557 
" clip-path="url(#p663c5fd060)" style="fill: none; stroke: #7a7a7a; stroke-width: 3; stroke-linecap: square"/>
   </g>
   <g id="line2d_41">
    <path d="M 902.98307 202.465287 
L -1 32.253466 
" clip-path="url(#p663c5fd060)" style="fill: none; stroke: #7a7a7a; stroke-width: 3; stroke-linecap: square"/>
   </g>
   <g id="line2d_42">
    <path d="M 925.608303 171.609053 
L 924.658992 171.451623 
L 885.262608 164.131139 
L 205.55631 34.094152 
L 24.132946 -1 
" clip-path="url(#p663c5fd060)" style="fill: none; stroke: #7a7a7a; stroke-width: 3; stroke-linecap: square"/>
   </g>
   <g id="line2d_43">
    <path d="M 1149.329137 251.03237 
L 1109.616316 243.711886 
L 1086.832865 242.609878 
L 1060.41039 242.846022 
L 1034.146133 245.522328 
L 1011.995556 250.638796 
L 998.072335 255.440403 
L 985.256644 264.099041 
L 976.396413 276.142418 
" clip-path="url(#p663c5fd060)" style="fill: none; stroke: #7a7a7a; stroke-width: 3; stroke-linecap: square"/>
   </g>
   <g id="line2d_44">
    <path d="M 1169.897531 219.231557 
L 1143.791493 214.11509 
L 1114.679305 210.73035 
L 1084.776025 209.943201 
L 1054.714527 211.596214 
L 1025.285902 215.610673 
L 997.123025 221.671719 
L 971.016987 229.779352 
L 947.917099 239.697427 
L 928.298016 251.268515 
L 913.109048 264.4139 
" clip-path="url(#p663c5fd060)" style="fill: none; stroke: #7a7a7a; stroke-width: 3; stroke-linecap: square"/>
   </g>
   <g id="line2d_45">
    <path d="M 1441 1195.193302 
L 526.897905 1019.210913 
" clip-path="url(#p663c5fd060)" style="fill: none; stroke: #7a7a7a; stroke-width: 3; stroke-linecap: square"/>
   </g>
   <g id="line2d_46">
    <path d="M 1441 1159.07639 
L 1341.880945 1140.116974 
L 1309.604389 1133.741068 
L 685.274535 1013.543442 
L 671.351315 1011.26071 
L 617.557055 1000.555486 
L 550.788885 987.646245 
" clip-path="url(#p663c5fd060)" style="fill: none; stroke: #7a7a7a; stroke-width: 3; stroke-linecap: square"/>
   </g>
   <g id="line2d_47">
    <path d="M 66.62251 1441 
L 365.198688 1057.230202 
" clip-path="url(#p663c5fd060)" style="fill: none; stroke: #7a7a7a; stroke-width: 3; stroke-linecap: square"/>
   </g>
   <g id="line2d_48">
    <path d="M 136.673439 1441 
L 185.462572 1377.442346 
L 209.986426 1347.924265 
L 308.714715 1223.790894 
L 323.11259 1205.371612 
L 417.885419 1079.900088 
L 428.169616 1068.80129 
" clip-path="url(#p663c5fd060)" style="fill: none; stroke: #7a7a7a; stroke-width: 3; stroke-linecap: square"/>
   </g>
   <g id="line2d_49">
    <path d="M 365.198688 1057.230202 
L 368.679493 1052.822168 
L 384.184897 1040.070357 
L 402.063578 1029.837423 
L 422.473753 1022.044649 
L 445.257204 1017.006897 
L 470.413932 1014.724165 
L 497.627499 1015.432599 
L 526.897905 1019.210913 
" clip-path="url(#p663c5fd060)" style="fill: none; stroke: #7a7a7a; stroke-width: 3; stroke-linecap: square"/>
   </g>
   <g id="line2d_50">
    <path d="M 428.169616 1068.80129 
L 430.70111 1065.888839 
L 435.289444 1063.055103 
L 438.928468 1060.142653 
L 443.833238 1057.308917 
L 449.845538 1054.396466 
L 455.857838 1052.192449 
L 463.135885 1050.303292 
L 473.103645 1048.807709 
L 478.008415 1048.571565 
L 485.128244 1048.807709 
L 502.057614 1050.696867 
" clip-path="url(#p663c5fd060)" style="fill: none; stroke: #7a7a7a; stroke-width: 3; stroke-linecap: square"/>
   </g>
   <g id="line2d_51">
    <path d="M 597.937972 754.728906 
L 460.287953 936.953861 
" clip-path="url(#p663c5fd060)" style="fill: none; stroke: #7a7a7a; stroke-width: 3; stroke-linecap: square"/>
   </g>
   <g id="line2d_52">
    <path d="M 529.587618 754.728906 
L 447.314044 859.655846 
L 398.424554 925.304058 
L 397.317025 926.484781 
" clip-path="url(#p663c5fd060)" style="fill: none; stroke: #7a7a7a; stroke-width: 3; stroke-linecap: square"/>
   </g>
   <g id="line2d_53">
    <path d="M 526.897905 1019.210913 
L 308.081841 977.098451 
" clip-path="url(#p663c5fd060)" style="fill: none; stroke: #7a7a7a; stroke-width: 3; stroke-linecap: square"/>
   </g>
   <g id="line2d_54">
    <path d="M 550.788885 987.646245 
L 332.289258 944.274345 
" clip-path="url(#p663c5fd060)" style="fill: none; stroke: #7a7a7a; stroke-width: 3; stroke-linecap: square"/>
   </g>
   <g id="line2d_55">
    <path d="M 526.897905 1019.210913 
L 1441 1195.193302 
" clip-path="url(#p663c5fd060)" style="fill: none; stroke: #7a7a7a; stroke-width: 3; stroke-linecap: square"/>
   </g>
   <g id="line2d_56">
    <path d="M 502.057614 1050.696867 
L 520.252731 1053.845462 
L 624.835102 1074.232617 
L 753.466671 1098.94909 
L 828.303979 1113.590058 
L 1402.162159 1223.948324 
L 1423.363427 1228.041498 
L 1441 1231.430205 
" clip-path="url(#p663c5fd060)" style="fill: none; stroke: #7a7a7a; stroke-width: 3; stroke-linecap: square"/>
   </g>
   <g id="line2d_57">
    <path d="M 526.897905 1019.210913 
L 497.627499 1015.432599 
L 470.413932 1014.724165 
L 445.257204 1017.006897 
L 422.473753 1022.044649 
L 402.063578 1029.837423 
L 384.184897 1040.070357 
L 368.679493 1052.822168 
L 365.198688 1057.230202 
" clip-path="url(#p663c5fd060)" style="fill: none; stroke: #7a7a7a; stroke-width: 3; stroke-linecap: square"/>
   </g>
   <g id="line2d_58">
    <path d="M 550.788885 987.646245 
L 522.309571 983.002067 
L 492.880946 980.95548 
L 463.294103 981.42777 
L 434.181915 984.261505 
L 406.177256 989.299258 
L 379.913 996.304882 
L 356.180238 1005.278379 
L 335.453626 1015.983603 
L 318.524256 1028.263125 
L 306.025002 1042.038229 
L 302.544197 1046.367548 
" clip-path="url(#p663c5fd060)" style="fill: none; stroke: #7a7a7a; stroke-width: 3; stroke-linecap: square"/>
   </g>
   <g id="line2d_59">
    <path d="M 365.198688 1057.230202 
L 460.287953 936.953861 
" clip-path="url(#p663c5fd060)" style="fill: none; stroke: #7a7a7a; stroke-width: 3; stroke-linecap: square"/>
   </g>
   <g id="line2d_60">
    <path d="M 428.169616 1068.80129 
L 525.473939 948.210089 
" clip-path="url(#p663c5fd060)" style="fill: none; stroke: #7a7a7a; stroke-width: 3; stroke-linecap: square"/>
   </g>
   <g id="line2d_61">
    <path d="M 94.645203 935.930567 
L 95.752732 936.166712 
L 308.081841 977.098451 
" clip-path="url(#p663c5fd060)" style="fill: none; stroke: #7a7a7a; stroke-width: 3; stroke-linecap: square"/>
   </g>
   <g id="line2d_62">
    <path d="M 94.645203 972.296843 
L 95.752732 972.532988 
L 174.545501 987.016526 
L 238.307521 999.689622 
L 268.685456 1005.120949 
L 284.823734 1008.977979 
" clip-path="url(#p663c5fd060)" style="fill: none; stroke: #7a7a7a; stroke-width: 3; stroke-linecap: square"/>
   </g>
   <g id="line2d_63">
    <path d="M 526.897905 1019.210913 
L 503.323361 1012.598863 
L 483.229623 1004.018941 
L 467.407782 993.786006 
L 456.332493 982.057489 
L 450.63663 969.226963 
L 450.63663 955.373143 
L 457.123585 940.889605 
L 460.287953 936.953861 
" clip-path="url(#p663c5fd060)" style="fill: none; stroke: #7a7a7a; stroke-width: 3; stroke-linecap: square"/>
   </g>
   <g id="line2d_64">
    <path d="M 550.788885 987.646245 
L 549.997793 987.410101 
L 542.561528 985.599658 
L 534.175952 982.372348 
L 526.739686 978.279174 
L 522.626008 974.579575 
L 519.303421 968.833388 
L 518.670547 962.457483 
L 520.885605 955.609288 
L 525.473939 948.210089 
" clip-path="url(#p663c5fd060)" style="fill: none; stroke: #7a7a7a; stroke-width: 3; stroke-linecap: square"/>
   </g>
   <g id="line2d_65">
    <path d="M 308.081841 977.098451 
L 337.510466 985.599658 
L 359.02817 996.068738 
L 372.793172 1008.34826 
L 379.121908 1021.887219 
L 378.172598 1036.370758 
L 370.103459 1051.405301 
L 365.198688 1057.230202 
" clip-path="url(#p663c5fd060)" style="fill: none; stroke: #7a7a7a; stroke-width: 3; stroke-linecap: square"/>
   </g>
   <g id="line2d_66">
    <path d="M 284.823734 1008.977979 
L 291.310689 1011.024566 
L 298.272299 1014.015731 
L 303.968162 1017.085612 
L 309.18937 1020.785211 
L 312.511957 1024.012521 
L 313.777704 1026.924972 
L 313.619485 1029.837423 
L 312.511957 1032.671158 
L 308.556496 1038.33863 
L 308.240059 1039.125779 
L 302.544197 1046.367548 
" clip-path="url(#p663c5fd060)" style="fill: none; stroke: #7a7a7a; stroke-width: 3; stroke-linecap: square"/>
   </g>
   <g id="line2d_67">
    <path d="M 365.198688 1057.230202 
L 370.103459 1051.405301 
L 378.172598 1036.370758 
L 379.121908 1021.887219 
L 372.793172 1008.34826 
L 359.02817 996.068738 
L 337.510466 985.599658 
L 308.081841 977.098451 
" clip-path="url(#p663c5fd060)" style="fill: none; stroke: #7a7a7a; stroke-width: 3; stroke-linecap: square"/>
   </g>
   <g id="line2d_68">
    <path d="M 428.169616 1068.80129 
L 433.074386 1063.055103 
L 441.459962 1048.17799 
L 444.466112 1033.143448 
L 442.409273 1018.34505 
L 436.080536 1003.940226 
L 425.79634 990.401266 
L 411.873119 977.8856 
L 395.101968 966.865516 
L 375.641103 957.57716 
L 353.96518 950.256676 
L 332.289258 944.274345 
" clip-path="url(#p663c5fd060)" style="fill: none; stroke: #7a7a7a; stroke-width: 3; stroke-linecap: square"/>
   </g>
   <g id="line2d_69">
    <path d="M 308.081841 977.098451 
L 95.752732 936.166712 
L 94.645203 935.930567 
" clip-path="url(#p663c5fd060)" style="fill: none; stroke: #7a7a7a; stroke-width: 3; stroke-linecap: square"/>
   </g>
   <g id="line2d_70">
    <path d="M 332.289258 944.274345 
L 330.390637 944.0382 
L 315.359888 941.519324 
L 291.785345 936.796431 
L 95.594514 900.115295 
L 94.645203 899.879151 
" clip-path="url(#p663c5fd060)" style="fill: none; stroke: #7a7a7a; stroke-width: 3; stroke-linecap: square"/>
   </g>
   <g id="line2d_71">
    <path d="M 460.287953 936.953861 
L 597.937972 754.728906 
" clip-path="url(#p663c5fd060)" style="fill: none; stroke: #7a7a7a; stroke-width: 3; stroke-linecap: square"/>
   </g>
   <g id="line2d_72">
    <path d="M 525.473939 948.210089 
L 677.521833 754.728906 
" clip-path="url(#p663c5fd060)" style="fill: none; stroke: #7a7a7a; stroke-width: 3; stroke-linecap: square"/>
   </g>
   <g id="line2d_73">
    <path d="M 308.081841 977.098451 
L 526.897905 1019.210913 
" clip-path="url(#p663c5fd060)" style="fill: none; stroke: #7a7a7a; stroke-width: 3; stroke-linecap: square"/>
   </g>
   <g id="line2d_74">
    <path d="M 284.823734 1008.977979 
L 502.057614 1050.696867 
" clip-path="url(#p663c5fd060)" style="fill: none; stroke: #7a7a7a; stroke-width: 3; stroke-linecap: square"/>
   </g>
   <g id="line2d_75">
    <path d="M 365.198688 1057.230202 
L 66.62251 1441 
" clip-path="url(#p663c5fd060)" style="fill: none; stroke: #7a7a7a; stroke-width: 3; stroke-linecap: square"/>
   </g>
   <g id="line2d_76">
    <path d="M 302.544197 1046.367548 
L 241.946545 1121.697691 
L 137.364175 1255.119418 
L 117.112218 1281.410189 
L 38.952322 1381.69295 
L -1 1431.434364 
" clip-path="url(#p663c5fd060)" style="fill: none; stroke: #7a7a7a; stroke-width: 3; stroke-linecap: square"/>
   </g>
   <g id="line2d_77">
    <path d="M 460.287953 936.953861 
L 457.123585 940.889605 
L 450.63663 955.373143 
L 450.63663 969.226963 
L 456.332493 982.057489 
L 467.407782 993.786006 
L 483.229623 1004.018941 
L 503.323361 1012.598863 
L 526.897905 1019.210913 
" clip-path="url(#p663c5fd060)" style="fill: none; stroke: #7a7a7a; stroke-width: 3; stroke-linecap: square"/>
   </g>
   <g id="line2d_78">
    <path d="M 397.317025 926.484781 
L 394.152657 930.420525 
L 385.292426 943.959485 
L 382.128058 958.206879 
L 383.86846 972.847847 
L 390.197197 987.410101 
L 400.639612 1001.42135 
L 415.037487 1014.64545 
L 432.75795 1026.610112 
L 453.326343 1036.843047 
L 476.58445 1045.029395 
L 502.057614 1050.696867 
" clip-path="url(#p663c5fd060)" style="fill: none; stroke: #7a7a7a; stroke-width: 3; stroke-linecap: square"/>
   </g>
   <g id="line2d_79">
    <path d="M 460.287953 936.953861 
L 365.198688 1057.230202 
" clip-path="url(#p663c5fd060)" style="fill: none; stroke: #7a7a7a; stroke-width: 3; stroke-linecap: square"/>
   </g>
   <g id="line2d_80">
    <path d="M 397.317025 926.484781 
L 302.544197 1046.367548 
" clip-path="url(#p663c5fd060)" style="fill: none; stroke: #7a7a7a; stroke-width: 3; stroke-linecap: square"/>
   </g>
   <g id="line2d_81">
    <path d="M 308.081841 977.098451 
L 342.573455 980.404476 
L 373.9007 979.459897 
L 401.114267 974.894434 
L 423.581282 967.652665 
L 440.827089 958.443024 
L 451.744159 947.973944 
L 460.287953 936.953861 
" clip-path="url(#p663c5fd060)" style="fill: none; stroke: #7a7a7a; stroke-width: 3; stroke-linecap: square"/>
   </g>
   <g id="line2d_82">
    <path d="M 284.823734 1008.977979 
L 316.942072 1013.386012 
L 349.376847 1014.566735 
L 381.336966 1012.913723 
L 412.031338 1008.584404 
L 440.66887 1002.051069 
L 466.142035 993.549862 
L 487.976175 983.395642 
L 505.221982 971.824554 
L 516.930145 959.230173 
L 525.473939 948.210089 
" clip-path="url(#p663c5fd060)" style="fill: none; stroke: #7a7a7a; stroke-width: 3; stroke-linecap: square"/>
   </g>
   <g id="line2d_83">
    <path d="M 460.287953 936.953861 
L 451.744159 947.973944 
L 440.827089 958.443024 
L 423.581282 967.652665 
L 401.114267 974.894434 
L 373.9007 979.459897 
L 342.573455 980.404476 
L 308.081841 977.098451 
" clip-path="url(#p663c5fd060)" style="fill: none; stroke: #7a7a7a; stroke-width: 3; stroke-linecap: square"/>
   </g>
   <g id="line2d_84">
    <path d="M 397.317025 926.484781 
L 391.304726 933.72655 
L 385.450644 936.481571 
L 383.235587 937.819724 
L 373.426045 941.676754 
L 359.661043 944.825349 
L 351.433686 945.533783 
L 340.833052 945.376353 
L 332.289258 944.274345 
" clip-path="url(#p663c5fd060)" style="fill: none; stroke: #7a7a7a; stroke-width: 3; stroke-linecap: square"/>
   </g>
   <g id="line2d_85">
    <path d="M 799.057059 593.072251 
L 800.324042 589.04138 
" clip-path="url(#p663c5fd060)" style="fill: none; stroke-dasharray: 32,8,5,8; stroke-dashoffset: 0; stroke: #1e90ff; stroke-width: 5"/>
   </g>
   <g id="line2d_86">
    <path d="M 488.418229 856.497103 
L 451.922927 894.468963 
" clip-path="url(#p663c5fd060)" style="fill: none; stroke-dasharray: 32,8,5,8; stroke-dashoffset: 0; stroke: #1e90ff; stroke-width: 5"/>
   </g>
   <g id="line2d_87">
    <path d="M 1159.297515 114.301851 
L 1171.302955 108.72301 
" clip-path="url(#p663c5fd060)" style="fill: none; stroke-dasharray: 32,8,5,8; stroke-dashoffset: 0; stroke: #1e90ff; stroke-width: 5"/>
   </g>
   <g id="line2d_88">
    <path d="M 942.512024 365.860857 
L 943.856263 365.704235 
" clip-path="url(#p663c5fd060)" style="fill: none; stroke-dasharray: 32,8,5,8; stroke-dashoffset: 0; stroke: #1e90ff; stroke-width: 5"/>
   </g>
   <g id="line2d_89">
    <path d="M 1129.299366 167.830277 
L 1126.804027 165.009148 
" clip-path="url(#p663c5fd060)" style="fill: none; stroke-dasharray: 32,8,5,8; stroke-dashoffset: 0; stroke: #1e90ff; stroke-width: 5"/>
   </g>
   <g id="line2d_90">
    <path d="M 830.735506 543.726514 
L 835.683694 544.439483 
" clip-path="url(#p663c5fd060)" style="fill: none; stroke-dasharray: 32,8,5,8; stroke-dashoffset: 0; stroke: #1e90ff; stroke-width: 5"/>
   </g>
   <g id="line2d_91">
    <path d="M 707.235529 692.925424 
L 701.897202 693.592271 
" clip-path="url(#p663c5fd060)" style="fill: none; stroke-dasharray: 32,8,5,8; stroke-dashoffset: 0; stroke: #1e90ff; stroke-width: 5"/>
   </g>
   <g id="line2d_92">
    <path d="M 1202.672382 39.357442 
L 1197.917332 41.029364 
" clip-path="url(#p663c5fd060)" style="fill: none; stroke-dasharray: 32,8,5,8; stroke-dashoffset: 0; stroke: #1e90ff; stroke-width: 5"/>
   </g>
   <g id="line2d_93">
    <path d="M 316.436824 1203.855351 
L 459.069023 957.252538 
" clip-path="url(#p663c5fd060)" style="fill: none; stroke-dasharray: 32,8,5,8; stroke-dashoffset: 0; stroke: #1e90ff; stroke-width: 5"/>
   </g>
   <g id="line2d_94">
    <path d="M 820.0125 502.960429 
L 875.122414 416.817982 
" clip-path="url(#p663c5fd060)" style="fill: none; stroke-dasharray: 32,8,5,8; stroke-dashoffset: 0; stroke: #1e90ff; stroke-width: 5"/>
   </g>
   <g id="line2d_95">
    <path d="M 799.057059 593.072251 
" clip-path="url(#p663c5fd060)" style="fill: none; stroke: #0000ff; stroke-width: 1.5; stroke-linecap: square"/>
    <defs>
     <path id="mb40b7b0c7f" d="M 0 10 
C 2.652031 10 5.195799 8.946337 7.071068 7.071068 
C 8.946337 5.195799 10 2.652031 10 0 
C 10 -2.652031 8.946337 -5.195799 7.071068 -7.071068 
C 5.195799 -8.946337 2.652031 -10 0 -10 
C -2.652031 -10 -5.195799 -8.946337 -7.071068 -7.071068 
C -8.946337 -5.195799 -10 -2.652031 -10 0 
C -10 2.652031 -8.946337 5.195799 -7.071068 7.071068 
C -5.195799 8.946337 -2.652031 10 0 10 
z
" style="stroke: #0000ff"/>
    </defs>
    <g clip-path="url(#p663c5fd060)">
     <use xlink:href="#mb40b7b0c7f" x="799.057059" y="593.072251" style="fill: #0000ff; stroke: #0000ff"/>
    </g>
   </g>
   <g id="line2d_96">
    <path d="M 488.418229 856.497103 
" clip-path="url(#p663c5fd060)" style="fill: none; stroke: #0000ff; stroke-width: 1.5; stroke-linecap: square"/>
    <g clip-path="url(#p663c5fd060)">
     <use xlink:href="#mb40b7b0c7f" x="488.418229" y="856.497103" style="fill: #0000ff; stroke: #0000ff"/>
    </g>
   </g>
   <g id="line2d_97">
    <path d="M 1159.297515 114.301851 
" clip-path="url(#p663c5fd060)" style="fill: none; stroke: #0000ff; stroke-width: 1.5; stroke-linecap: square"/>
    <g clip-path="url(#p663c5fd060)">
     <use xlink:href="#mb40b7b0c7f" x="1159.297515" y="114.301851" style="fill: #0000ff; stroke: #0000ff"/>
    </g>
   </g>
   <g id="line2d_98">
    <path d="M 942.512024 365.860857 
" clip-path="url(#p663c5fd060)" style="fill: none; stroke: #0000ff; stroke-width: 1.5; stroke-linecap: square"/>
    <g clip-path="url(#p663c5fd060)">
     <use xlink:href="#mb40b7b0c7f" x="942.512024" y="365.860857" style="fill: #0000ff; stroke: #0000ff"/>
    </g>
   </g>
   <g id="line2d_99">
    <path d="M 1129.299366 167.830277 
" clip-path="url(#p663c5fd060)" style="fill: none; stroke: #0000ff; stroke-width: 1.5; stroke-linecap: square"/>
    <g clip-path="url(#p663c5fd060)">
     <use xlink:href="#mb40b7b0c7f" x="1129.299366" y="167.830277" style="fill: #0000ff; stroke: #0000ff"/>
    </g>
   </g>
   <g id="line2d_100">
    <path d="M 830.735506 543.726514 
" clip-path="url(#p663c5fd060)" style="fill: none; stroke: #0000ff; stroke-width: 1.5; stroke-linecap: square"/>
    <g clip-path="url(#p663c5fd060)">
     <use xlink:href="#mb40b7b0c7f" x="830.735506" y="543.726514" style="fill: #0000ff; stroke: #0000ff"/>
    </g>
   </g>
   <g id="line2d_101">
    <path d="M 707.235529 692.925424 
" clip-path="url(#p663c5fd060)" style="fill: none; stroke: #0000ff; stroke-width: 1.5; stroke-linecap: square"/>
    <g clip-path="url(#p663c5fd060)">
     <use xlink:href="#mb40b7b0c7f" x="707.235529" y="692.925424" style="fill: #0000ff; stroke: #0000ff"/>
    </g>
   </g>
   <g id="line2d_102">
    <path d="M 1202.672382 39.357442 
" clip-path="url(#p663c5fd060)" style="fill: none; stroke: #0000ff; stroke-width: 1.5; stroke-linecap: square"/>
    <g clip-path="url(#p663c5fd060)">
     <use xlink:href="#mb40b7b0c7f" x="1202.672382" y="39.357442" style="fill: #0000ff; stroke: #0000ff"/>
    </g>
   </g>
   <g id="line2d_103">
    <path d="M 316.436824 1203.855351 
" clip-path="url(#p663c5fd060)" style="fill: none; stroke: #0000ff; stroke-width: 1.5; stroke-linecap: square"/>
    <g clip-path="url(#p663c5fd060)">
     <use xlink:href="#mb40b7b0c7f" x="316.436824" y="1203.855351" style="fill: #0000ff; stroke: #0000ff"/>
    </g>
   </g>
   <g id="line2d_104">
    <path d="M 820.0125 502.960429 
" clip-path="url(#p663c5fd060)" style="fill: none; stroke: #0000ff; stroke-width: 1.5; stroke-linecap: square"/>
    <g clip-path="url(#p663c5fd060)">
     <use xlink:href="#mb40b7b0c7f" x="820.0125" y="502.960429" style="fill: #0000ff; stroke: #0000ff"/>
    </g>
   </g>
   <g id="line2d_105">
    <path d="M 800.324042 589.04138 
" clip-path="url(#p663c5fd060)" style="fill: none; stroke: #ff0000; stroke-width: 1.5; stroke-linecap: square"/>
    <defs>
     <path id="mbf79aa9df6" d="M 0 -10 
L -2.24514 -3.09017 
L -9.510565 -3.09017 
L -3.632713 1.18034 
L -5.877853 8.09017 
L -0 3.81966 
L 5.877853 8.09017 
L 3.632713 1.18034 
L 9.510565 -3.09017 
L 2.24514 -3.09017 
z
" style="stroke: #ff0000; stroke-linejoin: bevel"/>
    </defs>
    <g clip-path="url(#p663c5fd060)">
     <use xlink:href="#mbf79aa9df6" x="800.324042" y="589.04138" style="fill: #ff0000; stroke: #ff0000; stroke-linejoin: bevel"/>
    </g>
   </g>
   <g id="line2d_106">
    <path d="M 451.922927 894.468963 
" clip-path="url(#p663c5fd060)" style="fill: none; stroke: #ff0000; stroke-width: 1.5; stroke-linecap: square"/>
    <g clip-path="url(#p663c5fd060)">
     <use xlink:href="#mbf79aa9df6" x="451.922927" y="894.468963" style="fill: #ff0000; stroke: #ff0000; stroke-linejoin: bevel"/>
    </g>
   </g>
   <g id="line2d_107">
    <path d="M 1171.302955 108.72301 
" clip-path="url(#p663c5fd060)" style="fill: none; stroke: #ff0000; stroke-width: 1.5; stroke-linecap: square"/>
    <g clip-path="url(#p663c5fd060)">
     <use xlink:href="#mbf79aa9df6" x="1171.302955" y="108.72301" style="fill: #ff0000; stroke: #ff0000; stroke-linejoin: bevel"/>
    </g>
   </g>
   <g id="line2d_108">
    <path d="M 943.856263 365.704235 
" clip-path="url(#p663c5fd060)" style="fill: none; stroke: #ff0000; stroke-width: 1.5; stroke-linecap: square"/>
    <g clip-path="url(#p663c5fd060)">
     <use xlink:href="#mbf79aa9df6" x="943.856263" y="365.704235" style="fill: #ff0000; stroke: #ff0000; stroke-linejoin: bevel"/>
    </g>
   </g>
   <g id="line2d_109">
    <path d="M 1126.804027 165.009148 
" clip-path="url(#p663c5fd060)" style="fill: none; stroke: #ff0000; stroke-width: 1.5; stroke-linecap: square"/>
    <g clip-path="url(#p663c5fd060)">
     <use xlink:href="#mbf79aa9df6" x="1126.804027" y="165.009148" style="fill: #ff0000; stroke: #ff0000; stroke-linejoin: bevel"/>
    </g>
   </g>
   <g id="line2d_110">
    <path d="M 835.683694 544.439483 
" clip-path="url(#p663c5fd060)" style="fill: none; stroke: #ff0000; stroke-width: 1.5; stroke-linecap: square"/>
    <g clip-path="url(#p663c5fd060)">
     <use xlink:href="#mbf79aa9df6" x="835.683694" y="544.439483" style="fill: #ff0000; stroke: #ff0000; stroke-linejoin: bevel"/>
    </g>
   </g>
   <g id="line2d_111">
    <path d="M 701.897202 693.592271 
" clip-path="url(#p663c5fd060)" style="fill: none; stroke: #ff0000; stroke-width: 1.5; stroke-linecap: square"/>
    <g clip-path="url(#p663c5fd060)">
     <use xlink:href="#mbf79aa9df6" x="701.897202" y="693.592271" style="fill: #ff0000; stroke: #ff0000; stroke-linejoin: bevel"/>
    </g>
   </g>
   <g id="line2d_112">
    <path d="M 1197.917332 41.029364 
" clip-path="url(#p663c5fd060)" style="fill: none; stroke: #ff0000; stroke-width: 1.5; stroke-linecap: square"/>
    <g clip-path="url(#p663c5fd060)">
     <use xlink:href="#mbf79aa9df6" x="1197.917332" y="41.029364" style="fill: #ff0000; stroke: #ff0000; stroke-linejoin: bevel"/>
    </g>
   </g>
   <g id="line2d_113">
    <path d="M 459.069023 957.252538 
" clip-path="url(#p663c5fd060)" style="fill: none; stroke: #ff0000; stroke-width: 1.5; stroke-linecap: square"/>
    <g clip-path="url(#p663c5fd060)">
     <use xlink:href="#mbf79aa9df6" x="459.069023" y="957.252538" style="fill: #ff0000; stroke: #ff0000; stroke-linejoin: bevel"/>
    </g>
   </g>
   <g id="line2d_114">
    <path d="M 875.122414 416.817982 
" clip-path="url(#p663c5fd060)" style="fill: none; stroke: #ff0000; stroke-width: 1.5; stroke-linecap: square"/>
    <g clip-path="url(#p663c5fd060)">
     <use xlink:href="#mbf79aa9df6" x="875.122414" y="416.817982" style="fill: #ff0000; stroke: #ff0000; stroke-linejoin: bevel"/>
    </g>
   </g>
  </g>
 </g>
 <defs>
  <clipPath id="p663c5fd060">
   <rect x="0" y="0" width="1440" height="1440"/>
  </clipPath>
 </defs>
</svg>
