<?xml version="1.0" encoding="utf-8" standalone="no"?>
<!DOCTYPE svg PUBLIC "-//W3C//DTD SVG 1.1//EN"
  "http://www.w3.org/Graphics/SVG/1.1/DTD/svg11.dtd">
<svg xmlns:xlink="http://www.w3.org/1999/xlink" width="1440pt" height="1440pt" viewBox="0 0 1440 1440" xmlns="http://www.w3.org/2000/svg" version="1.1">
 <metadata>
  <rdf:RDF xmlns:dc="http://purl.org/dc/elements/1.1/" xmlns:cc="http://creativecommons.org/ns#" xmlns:rdf="http://www.w3.org/1999/02/22-rdf-syntax-ns#">
   <cc:Work>
    <dc:type rdf:resource="http://purl.org/dc/dcmitype/StillImage"/>
    <dc:date>2026-02-27T11:07:41.832945</dc:date>
    <dc:format>image/svg+xml</dc:format>
    <dc:creator>
     <cc:Agent>
      <dc:title>Matplotlib v3.7.3, https://matplotlib.org/</dc:title>
     </cc:Agent>
    </dc:creator>
   </cc:Work>
  </rdf:RDF>
 </metadata>
 <defs>
  <style type="text/css">*{stroke-linejoin: round; stroke-linecap: butt}</style>
 </defs>
 <g id="figure_1">
  <g id="patch_1">
   <path d="M 0 1440 
L 1440 1440 
L 1440 0 
L 0 0 
z
" style="fill: #ffffff"/>
  </g>
  <g id="axes_1">
   <g id="line2d_1">
    <path d="M 917.851588 700.225806 
L 1159.762283 879.243508 
" clip-path="url(#p1d3da87d7c)" style="fill: none; stroke: #7a7a7a; stroke-width: 3; stroke-linecap: square"/>
   </g>
   <g id="line2d_2">
    <path d="M 900.405571 754.604375 
L 1111.535713 911.180128 
L 1142.982993 934.312598 
" clip-path="url(#p1d3da87d7c)" style="fill: none; stroke: #7a7a7a; stroke-width: 3; stroke-linecap: square"/>
   </g>
   <g id="line2d_3">
    <path d="M 983.524175 1037.372934 
L 854.518069 1441 
" clip-path="url(#p1d3da87d7c)" style="fill: none; stroke: #7a7a7a; stroke-width: 3; stroke-linecap: square"/>
   </g>
   <g id="line2d_4">
    <path d="M 945.187385 1008.888922 
L 806.635924 1441 
" clip-path="url(#p1d3da87d7c)" style="fill: none; stroke: #7a7a7a; stroke-width: 3; stroke-linecap: square"/>
   </g>
   <g id="line2d_5">
    <path d="M 933.075183 651.026148 
L 236.012349 135.20658 
" clip-path="url(#p1d3da87d7c)" style="fill: none; stroke: #7a7a7a; stroke-width: 3; stroke-linecap: square"/>
   </g>
   <g id="line2d_6">
    <path d="M 945.854112 610.975901 
L 424.807145 224.456485 
L 236.012349 85.834291 
" clip-path="url(#p1d3da87d7c)" style="fill: none; stroke: #7a7a7a; stroke-width: 3; stroke-linecap: square"/>
   </g>
   <g id="line2d_7">
    <path d="M 854.518069 1441 
L 983.524175 1037.372934 
" clip-path="url(#p1d3da87d7c)" style="fill: none; stroke: #7a7a7a; stroke-width: 3; stroke-linecap: square"/>
   </g>
   <g id="line2d_8">
    <path d="M 897.662427 1441 
L 1000.525707 1121.271298 
L 1018.971814 1063.785382 
" clip-path="url(#p1d3da87d7c)" style="fill: none; stroke: #7a7a7a; stroke-width: 3; stroke-linecap: square"/>
   </g>
   <g id="line2d_9">
    <path d="M 917.851588 700.225806 
L 236.012349 197.008255 
" clip-path="url(#p1d3da87d7c)" style="fill: none; stroke: #7a7a7a; stroke-width: 3; stroke-linecap: square"/>
   </g>
   <g id="line2d_10">
    <path d="M 933.075183 651.026148 
L 236.012349 135.20658 
" clip-path="url(#p1d3da87d7c)" style="fill: none; stroke: #7a7a7a; stroke-width: 3; stroke-linecap: square"/>
   </g>
   <g id="line2d_11">
    <path d="M 1246.103399 882.696115 
L 1174.430272 829.698589 
" clip-path="url(#p1d3da87d7c)" style="fill: none; stroke: #7a7a7a; stroke-width: 3; stroke-linecap: square"/>
   </g>
   <g id="line2d_12">
    <path d="M 1259.104571 840.401673 
L 1232.102137 820.376549 
L 1187.875928 788.094668 
" clip-path="url(#p1d3da87d7c)" style="fill: none; stroke: #7a7a7a; stroke-width: 3; stroke-linecap: square"/>
   </g>
   <g id="line2d_13">
    <path d="M 1085.866733 568.508828 
L 1083.866553 575.068782 
L 1071.309865 607.695924 
L 1058.197572 634.108371 
L 1044.085189 654.133495 
L 1028.972716 668.289186 
L 1012.749031 676.230184 
L 995.080772 678.474378 
L 976.079059 674.849141 
L 955.410529 665.699731 
L 933.075183 651.026148 
" clip-path="url(#p1d3da87d7c)" style="fill: none; stroke: #7a7a7a; stroke-width: 3; stroke-linecap: square"/>
   </g>
   <g id="line2d_14">
    <path d="M 1053.752727 542.441641 
L 1045.085279 570.062501 
L 1038.973617 587.325539 
L 1032.750834 600.618078 
L 1025.527961 611.493792 
L 1017.416118 620.470572 
L 1010.63773 625.649483 
L 1004.414946 628.75683 
L 997.192073 630.828394 
L 989.858079 631.518916 
L 980.857267 630.483133 
L 972.967667 628.238939 
L 965.633673 624.958961 
L 958.855284 620.643202 
L 945.854112 610.975901 
" clip-path="url(#p1d3da87d7c)" style="fill: none; stroke: #7a7a7a; stroke-width: 3; stroke-linecap: square"/>
   </g>
   <g id="line2d_15">
    <path d="M 236.012349 197.008255 
L 917.851588 700.225806 
" clip-path="url(#p1d3da87d7c)" style="fill: none; stroke: #7a7a7a; stroke-width: 3; stroke-linecap: square"/>
   </g>
   <g id="line2d_16">
    <path d="M 236.012349 265.887776 
L 262.68142 285.567639 
L 458.143483 428.678222 
L 546.262538 493.241983 
L 900.405571 754.604375 
" clip-path="url(#p1d3da87d7c)" style="fill: none; stroke: #7a7a7a; stroke-width: 3; stroke-linecap: square"/>
   </g>
   <g id="line2d_17">
    <path d="M 945.187385 1008.888922 
L 806.635924 1441 
" clip-path="url(#p1d3da87d7c)" style="fill: none; stroke: #7a7a7a; stroke-width: 3; stroke-linecap: square"/>
   </g>
   <g id="line2d_18">
    <path d="M 912.073289 984.202778 
L 765.626888 1441 
" clip-path="url(#p1d3da87d7c)" style="fill: none; stroke: #7a7a7a; stroke-width: 3; stroke-linecap: square"/>
   </g>
   <g id="line2d_19">
    <path d="M 917.851588 700.225806 
L 936.186574 713.173084 
L 956.521741 720.42356 
L 978.301482 722.495125 
L 1000.636828 719.733039 
L 1022.972175 712.655193 
L 1044.751916 701.606849 
L 1065.198203 687.105897 
L 1083.866553 669.670229 
L 1099.867995 649.645105 
L 1112.646925 627.548417 
L 1121.647736 603.725425 
L 1143.871962 534.500643 
" clip-path="url(#p1d3da87d7c)" style="fill: none; stroke: #7a7a7a; stroke-width: 3; stroke-linecap: square"/>
   </g>
   <g id="line2d_20">
    <path d="M 900.405571 754.604375 
L 919.629526 766.688502 
L 940.186935 773.766347 
L 961.522191 777.218955 
L 983.301932 776.873694 
L 1005.081673 773.421086 
L 1026.750293 766.688502 
L 1047.974428 757.0212 
L 1068.309595 744.764444 
L 1087.53355 730.263492 
L 1105.424051 713.518345 
L 1121.647736 694.874264 
L 1135.760119 674.67651 
L 1147.65008 653.270343 
L 1156.873133 630.483133 
L 1179.097359 561.258352 
" clip-path="url(#p1d3da87d7c)" style="fill: none; stroke: #7a7a7a; stroke-width: 3; stroke-linecap: square"/>
   </g>
   <g id="line2d_21">
    <path d="M 1105.646294 507.225044 
L 1085.866733 568.508828 
" clip-path="url(#p1d3da87d7c)" style="fill: none; stroke: #7a7a7a; stroke-width: 3; stroke-linecap: square"/>
   </g>
   <g id="line2d_22">
    <path d="M 1073.310046 480.985226 
L 1053.752727 542.441641 
" clip-path="url(#p1d3da87d7c)" style="fill: none; stroke: #7a7a7a; stroke-width: 3; stroke-linecap: square"/>
   </g>
   <g id="line2d_23">
    <path d="M 917.851588 700.225806 
L 959.41089 732.507687 
L 970.856366 747.008638 
L 977.634755 762.200112 
L 984.190901 777.564215 
L 989.524715 800.178795 
L 992.858349 825.728091 
L 992.747228 850.068974 
L 989.302473 872.510923 
L 945.187385 1008.888922 
" clip-path="url(#p1d3da87d7c)" style="fill: none; stroke: #7a7a7a; stroke-width: 3; stroke-linecap: square"/>
   </g>
   <g id="line2d_24">
    <path d="M 900.405571 754.604375 
L 927.185763 775.665281 
L 939.520208 786.195734 
L 944.298416 792.065167 
L 948.298777 798.279861 
L 951.743532 805.875597 
L 954.299318 813.643964 
L 955.743893 821.584962 
L 956.410619 829.698589 
L 956.299498 837.639587 
L 955.077166 846.443736 
L 952.52138 856.974189 
L 948.63214 869.921467 
L 912.073289 984.202778 
" clip-path="url(#p1d3da87d7c)" style="fill: none; stroke: #7a7a7a; stroke-width: 3; stroke-linecap: square"/>
   </g>
   <g id="line2d_25">
    <path d="M 1159.762283 879.243508 
L 1230.879804 931.895773 
" clip-path="url(#p1d3da87d7c)" style="fill: none; stroke: #7a7a7a; stroke-width: 3; stroke-linecap: square"/>
   </g>
   <g id="line2d_26">
    <path d="M 1142.982993 934.312598 
L 1213.878272 986.792233 
" clip-path="url(#p1d3da87d7c)" style="fill: none; stroke: #7a7a7a; stroke-width: 3; stroke-linecap: square"/>
   </g>
   <g id="line2d_27">
    <path d="M 1230.879804 931.895773 
L 1162.984796 882.350855 
L 1146.538869 868.540424 
L 1126.092581 857.14682 
L 1103.31275 849.896344 
L 1080.088434 849.033192 
L 1058.530936 856.111037 
L 1040.307071 873.028814 
L 1027.528141 901.858087 
L 983.524175 1037.372934 
" clip-path="url(#p1d3da87d7c)" style="fill: none; stroke: #7a7a7a; stroke-width: 3; stroke-linecap: square"/>
   </g>
   <g id="line2d_28">
    <path d="M 1246.103399 882.696115 
L 1178.097269 833.151197 
L 1159.428919 821.239701 
L 1139.315995 811.399769 
L 1118.314102 804.149294 
L 1096.756603 799.833534 
L 1075.421347 799.315643 
L 1054.641696 803.113511 
L 1035.195499 811.917661 
L 1017.416118 826.073351 
L 1001.859161 846.443736 
L 989.191352 873.374075 
L 945.187385 1008.888922 
" clip-path="url(#p1d3da87d7c)" style="fill: none; stroke: #7a7a7a; stroke-width: 3; stroke-linecap: square"/>
   </g>
   <g id="line2d_29">
    <path d="M 983.524175 1037.372934 
L 1143.871962 534.500643 
" clip-path="url(#p1d3da87d7c)" style="fill: none; stroke: #7a7a7a; stroke-width: 3; stroke-linecap: square"/>
   </g>
   <g id="line2d_30">
    <path d="M 1018.971814 1063.785382 
L 1030.195048 1028.741415 
L 1142.76075 675.539662 
L 1146.316626 663.455536 
L 1179.097359 561.258352 
" clip-path="url(#p1d3da87d7c)" style="fill: none; stroke: #7a7a7a; stroke-width: 3; stroke-linecap: square"/>
   </g>
   <g id="line2d_31">
    <path d="M 1085.866733 568.508828 
L 945.187385 1008.888922 
" clip-path="url(#p1d3da87d7c)" style="fill: none; stroke: #7a7a7a; stroke-width: 3; stroke-linecap: square"/>
   </g>
   <g id="line2d_32">
    <path d="M 1053.752727 542.441641 
L 1045.085279 570.062501 
L 1038.751375 587.6708 
L 912.073289 984.202778 
" clip-path="url(#p1d3da87d7c)" style="fill: none; stroke: #7a7a7a; stroke-width: 3; stroke-linecap: square"/>
   </g>
   <g id="line2d_33">
    <path d="M 1143.871962 534.500643 
L 1108.979928 643.948303 
L 1100.423601 670.01549 
L 1096.42324 699.535285 
L 1096.645482 730.781383 
L 1100.534722 762.718003 
L 1107.757595 793.61884 
L 1117.647375 822.102853 
L 1129.981821 846.788997 
L 1144.094204 866.46886 
L 1159.762283 879.243508 
" clip-path="url(#p1d3da87d7c)" style="fill: none; stroke: #7a7a7a; stroke-width: 3; stroke-linecap: square"/>
   </g>
   <g id="line2d_34">
    <path d="M 1105.646294 507.225044 
L 1070.75426 616.672703 
L 1063.420265 647.05565 
L 1059.531026 679.1649 
L 1058.97542 712.655193 
L 1061.420085 746.663378 
L 1066.642778 780.326301 
L 1074.421257 813.126073 
L 1084.422158 843.85428 
L 1096.645482 872.165662 
L 1110.535623 897.197067 
L 1126.092581 918.257973 
L 1142.982993 934.312598 
" clip-path="url(#p1d3da87d7c)" style="fill: none; stroke: #7a7a7a; stroke-width: 3; stroke-linecap: square"/>
   </g>
   <g id="line2d_35">
    <path d="M 1174.430272 829.698589 
L 1146.872232 808.810314 
L 1132.759849 796.726187 
L 1118.980829 779.80841 
L 1107.424232 757.366461 
L 1100.31248 728.882449 
L 1099.312389 693.493221 
L 1106.424142 650.853518 
L 1143.871962 534.500643 
" clip-path="url(#p1d3da87d7c)" style="fill: none; stroke: #7a7a7a; stroke-width: 3; stroke-linecap: square"/>
   </g>
   <g id="line2d_36">
    <path d="M 1187.875928 788.094668 
L 1167.318519 772.903195 
L 1153.761742 761.854851 
L 1149.65026 757.193831 
L 1146.205505 752.36018 
L 1142.982993 745.972856 
L 1140.316085 739.067641 
L 1138.093663 730.090861 
L 1136.760209 722.149864 
L 1135.982362 709.893107 
L 1136.982452 698.326872 
L 1139.649359 686.070115 
L 1141.871781 678.474378 
L 1141.76066 677.611227 
L 1179.097359 561.258352 
" clip-path="url(#p1d3da87d7c)" style="fill: none; stroke: #7a7a7a; stroke-width: 3; stroke-linecap: square"/>
   </g>
   <g id="line2d_37">
    <path d="M 1143.871962 534.500643 
L 1225.323748 279.525575 
" clip-path="url(#p1d3da87d7c)" style="fill: none; stroke: #7a7a7a; stroke-width: 3; stroke-linecap: square"/>
   </g>
   <g id="line2d_38">
    <path d="M 1179.097359 561.258352 
L 1252.10394 332.695732 
L 1260.660267 305.592762 
" clip-path="url(#p1d3da87d7c)" style="fill: none; stroke: #7a7a7a; stroke-width: 3; stroke-linecap: square"/>
   </g>
   <g id="line2d_39">
    <path d="M 1174.430272 829.698589 
L 933.075183 651.026148 
" clip-path="url(#p1d3da87d7c)" style="fill: none; stroke: #7a7a7a; stroke-width: 3; stroke-linecap: square"/>
   </g>
   <g id="line2d_40">
    <path d="M 1187.875928 788.094668 
L 962.077797 622.714766 
L 958.855284 620.643202 
L 945.854112 610.975901 
" clip-path="url(#p1d3da87d7c)" style="fill: none; stroke: #7a7a7a; stroke-width: 3; stroke-linecap: square"/>
   </g>
   <g id="line2d_41">
    <path d="M 1230.879804 931.895773 
L 917.851588 700.225806 
" clip-path="url(#p1d3da87d7c)" style="fill: none; stroke: #7a7a7a; stroke-width: 3; stroke-linecap: square"/>
   </g>
   <g id="line2d_42">
    <path d="M 1246.103399 882.696115 
L 933.075183 651.026148 
" clip-path="url(#p1d3da87d7c)" style="fill: none; stroke: #7a7a7a; stroke-width: 3; stroke-linecap: square"/>
   </g>
   <g id="line2d_43">
    <path d="M 983.524175 1037.372934 
L 988.080141 1023.044613 
L 996.303104 990.244841 
L 1001.081313 955.891396 
L 1002.525887 920.847429 
L 1000.85907 885.803462 
L 996.191983 851.450017 
L 988.857989 818.477615 
L 978.968208 787.749408 
L 966.744884 759.783286 
L 952.299138 735.442403 
L 935.964332 715.244649 
L 917.851588 700.225806 
" clip-path="url(#p1d3da87d7c)" style="fill: none; stroke: #7a7a7a; stroke-width: 3; stroke-linecap: square"/>
   </g>
   <g id="line2d_44">
    <path d="M 1018.971814 1063.785382 
L 1023.52778 1049.629691 
L 1030.306169 1019.419375 
L 1034.862135 987.655385 
L 1037.195679 954.510353 
L 1037.3068 920.674799 
L 1035.30662 886.493984 
L 1031.195138 852.485799 
L 1025.194597 819.340767 
L 1017.304997 787.576777 
L 1007.526338 757.366461 
L 995.85862 729.57297 
L 982.635205 704.368935 
L 967.633853 682.617508 
L 951.076805 664.663948 
L 933.075183 651.026148 
" clip-path="url(#p1d3da87d7c)" style="fill: none; stroke: #7a7a7a; stroke-width: 3; stroke-linecap: square"/>
   </g>
   <g id="line2d_45">
    <path d="M 1225.323748 279.525575 
L 1143.871962 534.500643 
" clip-path="url(#p1d3da87d7c)" style="fill: none; stroke: #7a7a7a; stroke-width: 3; stroke-linecap: square"/>
   </g>
   <g id="line2d_46">
    <path d="M 1187.542565 251.559454 
L 1105.646294 507.225044 
" clip-path="url(#p1d3da87d7c)" style="fill: none; stroke: #7a7a7a; stroke-width: 3; stroke-linecap: square"/>
   </g>
   <g id="line2d_47">
    <path d="M 1187.542565 251.559454 
L 1105.646294 507.225044 
" clip-path="url(#p1d3da87d7c)" style="fill: none; stroke: #7a7a7a; stroke-width: 3; stroke-linecap: square"/>
   </g>
   <g id="line2d_48">
    <path d="M 1154.428469 226.70068 
L 1120.869888 331.314689 
L 1073.310046 480.985226 
" clip-path="url(#p1d3da87d7c)" style="fill: none; stroke: #7a7a7a; stroke-width: 3; stroke-linecap: square"/>
   </g>
   <g id="line2d_49">
    <path d="M 1143.871962 534.500643 
L 983.524175 1037.372934 
" clip-path="url(#p1d3da87d7c)" style="fill: none; stroke: #7a7a7a; stroke-width: 3; stroke-linecap: square"/>
   </g>
   <g id="line2d_50">
    <path d="M 1105.646294 507.225044 
L 945.187385 1008.888922 
" clip-path="url(#p1d3da87d7c)" style="fill: none; stroke: #7a7a7a; stroke-width: 3; stroke-linecap: square"/>
   </g>
   <g id="line2d_51">
    <path d="M 222.242255 86.315189 
L 245.192864 128.462858 
" clip-path="url(#p1d3da87d7c)" style="fill: none; stroke-dasharray: 32,8,5,8; stroke-dashoffset: 0; stroke: #1e90ff; stroke-width: 5"/>
   </g>
   <g id="line2d_52">
    <path d="M 1271.87368 922.108867 
L 1273.318309 919.409278 
" clip-path="url(#p1d3da87d7c)" style="fill: none; stroke-dasharray: 32,8,5,8; stroke-dashoffset: 0; stroke: #1e90ff; stroke-width: 5"/>
   </g>
   <g id="line2d_53">
    <path d="M 740.379102 570.272268 
L 746.05724 595.475233 
" clip-path="url(#p1d3da87d7c)" style="fill: none; stroke-dasharray: 32,8,5,8; stroke-dashoffset: 0; stroke: #1e90ff; stroke-width: 5"/>
   </g>
   <g id="line2d_54">
    <path d="M 222.242255 86.315189 
" clip-path="url(#p1d3da87d7c)" style="fill: none; stroke: #0000ff; stroke-width: 1.5; stroke-linecap: square"/>
    <defs>
     <path id="m36babc0d52" d="M 0 10 
C 2.652031 10 5.195799 8.946337 7.071068 7.071068 
C 8.946337 5.195799 10 2.652031 10 0 
C 10 -2.652031 8.946337 -5.195799 7.071068 -7.071068 
C 5.195799 -8.946337 2.652031 -10 0 -10 
C -2.652031 -10 -5.195799 -8.946337 -7.071068 -7.071068 
C -8.946337 -5.195799 -10 -2.652031 -10 0 
C -10 2.652031 -8.946337 5.195799 -7.071068 7.071068 
C -5.195799 8.946337 -2.652031 10 0 10 
z
" style="stroke: #0000ff"/>
    </defs>
    <g clip-path="url(#p1d3da87d7c)">
     <use xlink:href="#m36babc0d52" x="222.242255" y="86.315189" style="fill: #0000ff; stroke: #0000ff"/>
    </g>
   </g>
   <g id="line2d_55">
    <path d="M 1271.87368 922.108867 
" clip-path="url(#p1d3da87d7c)" style="fill: none; stroke: #0000ff; stroke-width: 1.5; stroke-linecap: square"/>
    <g clip-path="url(#p1d3da87d7c)">
     <use xlink:href="#m36babc0d52" x="1271.87368" y="922.108867" style="fill: #0000ff; stroke: #0000ff"/>
    </g>
   </g>
   <g id="line2d_56">
    <path d="M 740.379102 570.272268 
" clip-path="url(#p1d3da87d7c)" style="fill: none; stroke: #0000ff; stroke-width: 1.5; stroke-linecap: square"/>
    <g clip-path="url(#p1d3da87d7c)">
     <use xlink:href="#m36babc0d52" x="740.379102" y="570.272268" style="fill: #0000ff; stroke: #0000ff"/>
    </g>
   </g>
   <g id="line2d_57">
    <path d="M 245.192864 128.462858 
" clip-path="url(#p1d3da87d7c)" style="fill: none; stroke: #ff0000; stroke-width: 1.5; stroke-linecap: square"/>
    <defs>
     <path id="m84cc791e04" d="M 0 -10 
L -2.24514 -3.09017 
L -9.510565 -3.09017 
L -3.632713 1.18034 
L -5.877853 8.09017 
L -0 3.81966 
L 5.877853 8.09017 
L 3.632713 1.18034 
L 9.510565 -3.09017 
L 2.24514 -3.09017 
z
" style="stroke: #ff0000; stroke-linejoin: bevel"/>
    </defs>
    <g clip-path="url(#p1d3da87d7c)">
     <use xlink:href="#m84cc791e04" x="245.192864" y="128.462858" style="fill: #ff0000; stroke: #ff0000; stroke-linejoin: bevel"/>
    </g>
   </g>
   <g id="line2d_58">
    <path d="M 1273.318309 919.409278 
" clip-path="url(#p1d3da87d7c)" style="fill: none; stroke: #ff0000; stroke-width: 1.5; stroke-linecap: square"/>
    <g clip-path="url(#p1d3da87d7c)">
     <use xlink:href="#m84cc791e04" x="1273.318309" y="919.409278" style="fill: #ff0000; stroke: #ff0000; stroke-linejoin: bevel"/>
    </g>
   </g>
   <g id="line2d_59">
    <path d="M 746.05724 595.475233 
" clip-path="url(#p1d3da87d7c)" style="fill: none; stroke: #ff0000; stroke-width: 1.5; stroke-linecap: square"/>
    <g clip-path="url(#p1d3da87d7c)">
     <use xlink:href="#m84cc791e04" x="746.05724" y="595.475233" style="fill: #ff0000; stroke: #ff0000; stroke-linejoin: bevel"/>
    </g>
   </g>
  </g>
 </g>
 <defs>
  <clipPath id="p1d3da87d7c">
   <rect x="0" y="0" width="1440" height="1440"/>
  </clipPath>
 </defs>
</svg>
