<?xml version="1.0" encoding="utf-8" standalone="no"?>
<!DOCTYPE svg PUBLIC "-//W3C//DTD SVG 1.1//EN"
  "http://www.w3.org/Graphics/SVG/1.1/DTD/svg11.dtd">
<svg xmlns:xlink="http://www.w3.org/1999/xlink" width="1440pt" height="1440pt" viewBox="0 0 1440 1440" xmlns="http://www.w3.org/2000/svg" version="1.1">
 <metadata>
  <rdf:RDF xmlns:dc="http://purl.org/dc/elements/1.1/" xmlns:cc="http://creativecommons.org/ns#" xmlns:rdf="http://www.w3.org/1999/02/22-rdf-syntax-ns#">
   <cc:Work>
    <dc:type rdf:resource="http://purl.org/dc/dcmitype/StillImage"/>
    <dc:date>2026-02-27T11:08:11.714888</dc:date>
    <dc:format>image/svg+xml</dc:format>
    <dc:creator>
     <cc:Agent>
      <dc:title>Matplotlib v3.7.3, https://matplotlib.org/</dc:title>
     </cc:Agent>
    </dc:creator>
   </cc:Work>
  </rdf:RDF>
 </metadata>
 <defs>
  <style type="text/css">*{stroke-linejoin: round; stroke-linecap: butt}</style>
 </defs>
 <g id="figure_1">
  <g id="patch_1">
   <path d="M 0 1440 
L 1440 1440 
L 1440 0 
L 0 0 
z
" style="fill: #ffffff"/>
  </g>
  <g id="axes_1">
   <g id="line2d_1">
    <path d="M 756.263029 713.506466 
L 951.609432 641.429194 
" clip-path="url(#p695c0aa5b1)" style="fill: none; stroke: #7a7a7a; stroke-width: 3; stroke-linecap: square"/>
   </g>
   <g id="line2d_2">
    <path d="M 756.263029 767.731266 
L 963.244938 692.150237 
" clip-path="url(#p695c0aa5b1)" style="fill: none; stroke: #7a7a7a; stroke-width: 3; stroke-linecap: square"/>
   </g>
   <g id="line2d_3">
    <path d="M 621.33453 650.272008 
L 755.684868 601.386265 
L 756.263029 601.21942 
" clip-path="url(#p695c0aa5b1)" style="fill: none; stroke: #7a7a7a; stroke-width: 3; stroke-linecap: square"/>
   </g>
   <g id="line2d_4">
    <path d="M 623.285826 701.994124 
L 755.684868 650.93939 
L 756.263029 650.772544 
" clip-path="url(#p695c0aa5b1)" style="fill: none; stroke: #7a7a7a; stroke-width: 3; stroke-linecap: square"/>
   </g>
   <g id="line2d_5">
    <path d="M 105.831055 891.864345 
L 430.468881 773.070323 
" clip-path="url(#p695c0aa5b1)" style="fill: none; stroke: #7a7a7a; stroke-width: 3; stroke-linecap: square"/>
   </g>
   <g id="line2d_6">
    <path d="M 105.831055 954.598267 
L 298.937081 882.020459 
L 431.263853 834.970017 
" clip-path="url(#p695c0aa5b1)" style="fill: none; stroke: #7a7a7a; stroke-width: 3; stroke-linecap: square"/>
   </g>
   <g id="line2d_7">
    <path d="M 938.094901 582.199029 
L 1158.157719 499.777333 
" clip-path="url(#p695c0aa5b1)" style="fill: none; stroke: #7a7a7a; stroke-width: 3; stroke-linecap: square"/>
   </g>
   <g id="line2d_8">
    <path d="M 951.609432 641.429194 
L 1165.02339 560.509109 
" clip-path="url(#p695c0aa5b1)" style="fill: none; stroke: #7a7a7a; stroke-width: 3; stroke-linecap: square"/>
   </g>
   <g id="line2d_9">
    <path d="M 1165.02339 560.509109 
L 1406.116842 471.413592 
L 1406.695003 471.246747 
" clip-path="url(#p695c0aa5b1)" style="fill: none; stroke: #7a7a7a; stroke-width: 3; stroke-linecap: square"/>
   </g>
   <g id="line2d_10">
    <path d="M 1172.973114 611.230152 
L 1406.116842 525.137855 
L 1406.695003 524.971009 
" clip-path="url(#p695c0aa5b1)" style="fill: none; stroke: #7a7a7a; stroke-width: 3; stroke-linecap: square"/>
   </g>
   <g id="line2d_11">
    <path d="M 965.051693 233.992393 
L 1098.607058 830.965724 
" clip-path="url(#p695c0aa5b1)" style="fill: none; stroke: #7a7a7a; stroke-width: 3; stroke-linecap: square"/>
   </g>
   <g id="line2d_12">
    <path d="M 931.22923 257.350768 
L 1046.211149 743.204972 
L 1049.318769 752.882013 
L 1053.00455 766.563347 
L 1058.930708 791.590178 
L 1062.76103 810.276878 
L 1074.107454 861.331612 
" clip-path="url(#p695c0aa5b1)" style="fill: none; stroke: #7a7a7a; stroke-width: 3; stroke-linecap: square"/>
   </g>
   <g id="line2d_13">
    <path d="M 1406.695003 406.343833 
L 1406.116842 406.510678 
L 1158.157719 499.777333 
" clip-path="url(#p695c0aa5b1)" style="fill: none; stroke: #7a7a7a; stroke-width: 3; stroke-linecap: square"/>
   </g>
   <g id="line2d_14">
    <path d="M 1406.695003 356.957554 
L 1406.116842 357.124399 
L 1154.905559 451.225282 
" clip-path="url(#p695c0aa5b1)" style="fill: none; stroke: #7a7a7a; stroke-width: 3; stroke-linecap: square"/>
   </g>
   <g id="line2d_15">
    <path d="M 927.615719 536.483351 
L 756.263029 601.21942 
" clip-path="url(#p695c0aa5b1)" style="fill: none; stroke: #7a7a7a; stroke-width: 3; stroke-linecap: square"/>
   </g>
   <g id="line2d_16">
    <path d="M 914.968431 481.424324 
L 756.263029 540.320799 
" clip-path="url(#p695c0aa5b1)" style="fill: none; stroke: #7a7a7a; stroke-width: 3; stroke-linecap: square"/>
   </g>
   <g id="line2d_17">
    <path d="M 1158.157719 499.777333 
L 1406.116842 406.510678 
L 1406.695003 406.343833 
" clip-path="url(#p695c0aa5b1)" style="fill: none; stroke: #7a7a7a; stroke-width: 3; stroke-linecap: square"/>
   </g>
   <g id="line2d_18">
    <path d="M 1165.02339 560.509109 
L 1406.116842 471.413592 
L 1406.695003 471.246747 
" clip-path="url(#p695c0aa5b1)" style="fill: none; stroke: #7a7a7a; stroke-width: 3; stroke-linecap: square"/>
   </g>
   <g id="line2d_19">
    <path d="M 988.828595 217.474685 
L 1018.748466 345.778903 
L 1024.096462 369.637815 
L 1030.817593 392.662499 
L 1038.839587 414.519264 
L 1048.090175 435.041265 
L 1058.497087 453.727965 
L 1070.060322 470.078828 
L 1082.63534 483.760162 
L 1096.077601 494.605122 
L 1110.459374 501.946325 
L 1125.708391 505.450082 
L 1141.607839 504.782699 
L 1158.157719 499.777333 
" clip-path="url(#p695c0aa5b1)" style="fill: none; stroke: #7a7a7a; stroke-width: 3; stroke-linecap: square"/>
   </g>
   <g id="line2d_20">
    <path d="M 965.051693 233.992393 
L 995.043834 362.129765 
L 1001.259073 387.323441 
L 1008.269284 411.015508 
L 1016.002198 433.539655 
L 1024.457813 454.562193 
L 1033.563861 473.916275 
L 1043.464881 491.768748 
L 1054.088603 507.785919 
L 1065.362757 521.96779 
L 1077.431884 534.147514 
L 1090.223713 544.325092 
L 1103.738244 552.333677 
L 1117.975477 558.006426 
L 1132.935413 561.343336 
L 1148.61805 562.177564 
L 1165.02339 560.509109 
" clip-path="url(#p695c0aa5b1)" style="fill: none; stroke: #7a7a7a; stroke-width: 3; stroke-linecap: square"/>
   </g>
   <g id="line2d_21">
    <path d="M 1119.637692 804.93782 
L 988.828595 217.474685 
" clip-path="url(#p695c0aa5b1)" style="fill: none; stroke: #7a7a7a; stroke-width: 3; stroke-linecap: square"/>
   </g>
   <g id="line2d_22">
    <path d="M 1142.04146 777.408307 
L 1018.820736 196.785838 
" clip-path="url(#p695c0aa5b1)" style="fill: none; stroke: #7a7a7a; stroke-width: 3; stroke-linecap: square"/>
   </g>
   <g id="line2d_23">
    <path d="M 1158.157719 499.777333 
L 1143.125513 504.949545 
L 1129.683253 516.628733 
L 1117.903207 534.147514 
L 1107.857646 556.504816 
L 1099.618841 582.866411 
L 1093.114522 612.231225 
L 1088.416957 644.098723 
L 1085.598419 677.134139 
L 1084.586636 710.836938 
L 1085.526149 744.206045 
L 1088.344687 776.407234 
L 1093.186792 806.43943 
L 1098.607058 830.965724 
" clip-path="url(#p695c0aa5b1)" style="fill: none; stroke: #7a7a7a; stroke-width: 3; stroke-linecap: square"/>
   </g>
   <g id="line2d_24">
    <path d="M 1154.905559 451.225282 
L 1139.728813 456.89803 
L 1125.708391 466.408226 
L 1112.916562 479.255332 
L 1101.208786 495.439349 
L 1090.801875 514.459741 
L 1081.695827 536.14966 
L 1073.890643 560.175418 
L 1067.386324 586.370167 
L 1062.327408 614.400217 
L 1058.713897 643.765032 
L 1056.47352 674.631456 
L 1055.823089 706.165263 
L 1056.618061 738.533297 
L 1059.002978 771.235022 
L 1063.05011 804.103593 
L 1068.687188 836.805318 
L 1074.107454 861.331612 
" clip-path="url(#p695c0aa5b1)" style="fill: none; stroke: #7a7a7a; stroke-width: 3; stroke-linecap: square"/>
   </g>
   <g id="line2d_25">
    <path d="M 914.968431 481.424324 
L 756.263029 540.320799 
" clip-path="url(#p695c0aa5b1)" style="fill: none; stroke: #7a7a7a; stroke-width: 3; stroke-linecap: square"/>
   </g>
   <g id="line2d_26">
    <path d="M 903.766547 432.705427 
L 756.263029 489.599756 
" clip-path="url(#p695c0aa5b1)" style="fill: none; stroke: #7a7a7a; stroke-width: 3; stroke-linecap: square"/>
   </g>
   <g id="line2d_27">
    <path d="M 1406.695003 297.560543 
L 1406.116842 297.727388 
L 1151.002967 392.99619 
" clip-path="url(#p695c0aa5b1)" style="fill: none; stroke: #7a7a7a; stroke-width: 3; stroke-linecap: square"/>
   </g>
   <g id="line2d_28">
    <path d="M 1406.695003 244.670507 
L 1406.116842 244.837353 
L 1147.606267 341.107228 
" clip-path="url(#p695c0aa5b1)" style="fill: none; stroke: #7a7a7a; stroke-width: 3; stroke-linecap: square"/>
   </g>
   <g id="line2d_29">
    <path d="M 1406.695003 356.957554 
L 1406.116842 357.124399 
L 1154.905559 451.225282 
" clip-path="url(#p695c0aa5b1)" style="fill: none; stroke: #7a7a7a; stroke-width: 3; stroke-linecap: square"/>
   </g>
   <g id="line2d_30">
    <path d="M 1406.695003 297.560543 
L 1406.116842 297.727388 
L 1151.002967 392.99619 
" clip-path="url(#p695c0aa5b1)" style="fill: none; stroke: #7a7a7a; stroke-width: 3; stroke-linecap: square"/>
   </g>
   <g id="line2d_31">
    <path d="M 1183.380026 1073.058598 
L 1157.073666 962.440007 
L 1119.637692 804.93782 
" clip-path="url(#p695c0aa5b1)" style="fill: none; stroke: #7a7a7a; stroke-width: 3; stroke-linecap: square"/>
   </g>
   <g id="line2d_32">
    <path d="M 1204.121579 1057.875654 
L 1165.240201 895.701793 
L 1148.184429 805.104666 
L 1142.04146 777.408307 
" clip-path="url(#p695c0aa5b1)" style="fill: none; stroke: #7a7a7a; stroke-width: 3; stroke-linecap: square"/>
   </g>
   <g id="line2d_33">
    <path d="M 912.542235 -1 
L 965.051693 233.992393 
" clip-path="url(#p695c0aa5b1)" style="fill: none; stroke: #7a7a7a; stroke-width: 3; stroke-linecap: square"/>
   </g>
   <g id="line2d_34">
    <path d="M 876.623027 -1 
L 912.294433 160.580357 
L 915.329782 174.094845 
L 920.388697 201.791204 
L 931.22923 257.350768 
" clip-path="url(#p695c0aa5b1)" style="fill: none; stroke: #7a7a7a; stroke-width: 3; stroke-linecap: square"/>
   </g>
   <g id="line2d_35">
    <path d="M 756.263029 601.21942 
L 927.615719 536.483351 
" clip-path="url(#p695c0aa5b1)" style="fill: none; stroke: #7a7a7a; stroke-width: 3; stroke-linecap: square"/>
   </g>
   <g id="line2d_36">
    <path d="M 756.263029 650.772544 
L 938.094901 582.199029 
" clip-path="url(#p695c0aa5b1)" style="fill: none; stroke: #7a7a7a; stroke-width: 3; stroke-linecap: square"/>
   </g>
   <g id="line2d_37">
    <path d="M 1154.905559 451.225282 
L 927.615719 536.483351 
" clip-path="url(#p695c0aa5b1)" style="fill: none; stroke: #7a7a7a; stroke-width: 3; stroke-linecap: square"/>
   </g>
   <g id="line2d_38">
    <path d="M 1151.002967 392.99619 
L 914.968431 481.424324 
" clip-path="url(#p695c0aa5b1)" style="fill: none; stroke: #7a7a7a; stroke-width: 3; stroke-linecap: square"/>
   </g>
   <g id="line2d_39">
    <path d="M 1098.607058 830.965724 
L 1106.918134 868.172279 
L 1157.001396 1092.412681 
" clip-path="url(#p695c0aa5b1)" style="fill: none; stroke: #7a7a7a; stroke-width: 3; stroke-linecap: square"/>
   </g>
   <g id="line2d_40">
    <path d="M 1074.107454 861.331612 
L 1110.242564 1023.338628 
L 1129.755523 1112.2673 
" clip-path="url(#p695c0aa5b1)" style="fill: none; stroke: #7a7a7a; stroke-width: 3; stroke-linecap: square"/>
   </g>
   <g id="line2d_41">
    <path d="M 105.831055 954.598267 
L 298.937081 882.020459 
L 431.263853 834.970017 
" clip-path="url(#p695c0aa5b1)" style="fill: none; stroke: #7a7a7a; stroke-width: 3; stroke-linecap: square"/>
   </g>
   <g id="line2d_42">
    <path d="M 105.831055 1009.323603 
L 431.336123 887.025825 
" clip-path="url(#p695c0aa5b1)" style="fill: none; stroke: #7a7a7a; stroke-width: 3; stroke-linecap: square"/>
   </g>
   <g id="line2d_43">
    <path d="M 1098.607058 830.965724 
L 1070.566213 701.827279 
L 1061.676976 665.955488 
L 1053.14909 634.087991 
L 1043.826232 607.059014 
L 1033.636131 584.701712 
L 1022.795598 566.682394 
L 1011.449174 552.500523 
L 999.741398 542.1561 
L 987.672272 534.981742 
L 975.458605 530.643758 
L 963.244938 528.975302 
L 951.103541 529.642684 
L 939.178955 532.312213 
L 927.615719 536.483351 
" clip-path="url(#p695c0aa5b1)" style="fill: none; stroke: #7a7a7a; stroke-width: 3; stroke-linecap: square"/>
   </g>
   <g id="line2d_44">
    <path d="M 1119.637692 804.93782 
L 1090.151443 677.134139 
L 1081.695827 639.093357 
L 1073.312482 605.724249 
L 1064.134164 575.858898 
L 1053.510442 550.998913 
L 1042.091747 529.976376 
L 1030.02262 512.62444 
L 1017.447602 498.77626 
L 1004.511233 488.264991 
L 991.285783 480.423251 
L 978.060333 475.417885 
L 964.834882 472.748356 
L 951.753973 472.414665 
L 939.034414 473.74943 
L 926.676207 476.919495 
L 914.968431 481.424324 
" clip-path="url(#p695c0aa5b1)" style="fill: none; stroke: #7a7a7a; stroke-width: 3; stroke-linecap: square"/>
   </g>
   <g id="line2d_45">
    <path d="M 936.620881 -1 
L 988.828595 217.474685 
" clip-path="url(#p695c0aa5b1)" style="fill: none; stroke: #7a7a7a; stroke-width: 3; stroke-linecap: square"/>
   </g>
   <g id="line2d_46">
    <path d="M 912.542235 -1 
L 965.051693 233.992393 
" clip-path="url(#p695c0aa5b1)" style="fill: none; stroke: #7a7a7a; stroke-width: 3; stroke-linecap: square"/>
   </g>
   <g id="line2d_47">
    <path d="M 927.615719 536.483351 
L 950.091758 518.464033 
L 968.159312 498.943106 
L 982.252005 478.254259 
L 992.731187 456.564339 
L 1000.030479 433.873346 
L 1004.583503 410.348126 
L 1006.679339 386.155523 
L 1006.89615 361.462383 
L 1005.523016 336.268707 
L 1002.921288 310.74134 
L 999.596858 285.213973 
L 992.369836 233.992393 
L 988.828595 217.474685 
" clip-path="url(#p695c0aa5b1)" style="fill: none; stroke: #7a7a7a; stroke-width: 3; stroke-linecap: square"/>
   </g>
   <g id="line2d_48">
    <path d="M 938.094901 582.199029 
L 958.691914 566.015012 
L 976.253577 547.662002 
L 991.068972 527.473692 
L 1003.282639 505.616927 
L 1013.039119 482.091706 
L 1020.699762 457.565413 
L 1026.264569 431.8712 
L 1030.09489 405.175914 
L 1032.262997 378.146937 
L 1032.985699 350.450578 
L 1032.552078 322.587373 
L 1031.034403 294.724168 
L 1028.721756 267.027809 
L 1025.758677 239.831987 
L 1022.361977 213.303546 
L 1018.820736 196.785838 
" clip-path="url(#p695c0aa5b1)" style="fill: none; stroke: #7a7a7a; stroke-width: 3; stroke-linecap: square"/>
   </g>
   <g id="line2d_49">
    <path d="M 1157.001396 1092.412681 
L 1106.918134 868.172279 
L 1098.607058 830.965724 
" clip-path="url(#p695c0aa5b1)" style="fill: none; stroke: #7a7a7a; stroke-width: 3; stroke-linecap: square"/>
   </g>
   <g id="line2d_50">
    <path d="M 1183.380026 1073.058598 
L 1157.073666 962.440007 
L 1119.637692 804.93782 
" clip-path="url(#p695c0aa5b1)" style="fill: none; stroke: #7a7a7a; stroke-width: 3; stroke-linecap: square"/>
   </g>
   <g id="line2d_51">
    <path d="M 988.828595 217.474685 
L 936.620881 -1 
" clip-path="url(#p695c0aa5b1)" style="fill: none; stroke: #7a7a7a; stroke-width: 3; stroke-linecap: square"/>
   </g>
   <g id="line2d_52">
    <path d="M 1018.820736 196.785838 
L 978.394339 -1 
" clip-path="url(#p695c0aa5b1)" style="fill: none; stroke: #7a7a7a; stroke-width: 3; stroke-linecap: square"/>
   </g>
   <g id="line2d_53">
    <path d="M 623.285826 701.994124 
L 755.684868 650.93939 
L 756.263029 650.772544 
" clip-path="url(#p695c0aa5b1)" style="fill: none; stroke: #7a7a7a; stroke-width: 3; stroke-linecap: square"/>
   </g>
   <g id="line2d_54">
    <path d="M 625.887554 763.560127 
L 755.684868 713.673312 
L 756.263029 713.506466 
" clip-path="url(#p695c0aa5b1)" style="fill: none; stroke: #7a7a7a; stroke-width: 3; stroke-linecap: square"/>
   </g>
   <g id="line2d_55">
    <path d="M 494.572565 990.970594 
L 557.447656 1279.446528 
" clip-path="url(#p695c0aa5b1)" style="fill: none; stroke: #7a7a7a; stroke-width: 3; stroke-linecap: square"/>
   </g>
   <g id="line2d_56">
    <path d="M 464.941775 1000.647635 
L 476.649551 1047.364386 
L 518.999899 1221.217435 
L 537.284265 1303.138594 
" clip-path="url(#p695c0aa5b1)" style="fill: none; stroke: #7a7a7a; stroke-width: 3; stroke-linecap: square"/>
   </g>
   <g id="line2d_57">
    <path d="M 756.263029 650.772544 
L 938.094901 582.199029 
" clip-path="url(#p695c0aa5b1)" style="fill: none; stroke: #7a7a7a; stroke-width: 3; stroke-linecap: square"/>
   </g>
   <g id="line2d_58">
    <path d="M 756.263029 713.506466 
L 951.609432 641.429194 
" clip-path="url(#p695c0aa5b1)" style="fill: none; stroke: #7a7a7a; stroke-width: 3; stroke-linecap: square"/>
   </g>
   <g id="line2d_59">
    <path d="M 756.263029 601.21942 
L 755.684868 601.386265 
L 621.33453 650.272008 
" clip-path="url(#p695c0aa5b1)" style="fill: none; stroke: #7a7a7a; stroke-width: 3; stroke-linecap: square"/>
   </g>
   <g id="line2d_60">
    <path d="M 756.263029 540.320799 
L 755.684868 540.65449 
L 618.877342 591.208688 
" clip-path="url(#p695c0aa5b1)" style="fill: none; stroke: #7a7a7a; stroke-width: 3; stroke-linecap: square"/>
   </g>
   <g id="line2d_61">
    <path d="M 413.051758 728.522565 
L 621.33453 650.272008 
" clip-path="url(#p695c0aa5b1)" style="fill: none; stroke: #7a7a7a; stroke-width: 3; stroke-linecap: square"/>
   </g>
   <g id="line2d_62">
    <path d="M 430.468881 773.070323 
L 623.285826 701.994124 
" clip-path="url(#p695c0aa5b1)" style="fill: none; stroke: #7a7a7a; stroke-width: 3; stroke-linecap: square"/>
   </g>
   <g id="line2d_63">
    <path d="M 756.263029 540.320799 
L 755.684868 540.65449 
L 618.877342 591.208688 
" clip-path="url(#p695c0aa5b1)" style="fill: none; stroke: #7a7a7a; stroke-width: 3; stroke-linecap: square"/>
   </g>
   <g id="line2d_64">
    <path d="M 756.263029 489.599756 
L 755.684868 489.933447 
L 616.853776 541.155027 
" clip-path="url(#p695c0aa5b1)" style="fill: none; stroke: #7a7a7a; stroke-width: 3; stroke-linecap: square"/>
   </g>
   <g id="line2d_65">
    <path d="M 621.33453 650.272008 
L 413.051758 728.522565 
" clip-path="url(#p695c0aa5b1)" style="fill: none; stroke: #7a7a7a; stroke-width: 3; stroke-linecap: square"/>
   </g>
   <g id="line2d_66">
    <path d="M 618.877342 591.208688 
L 379.590646 680.804741 
" clip-path="url(#p695c0aa5b1)" style="fill: none; stroke: #7a7a7a; stroke-width: 3; stroke-linecap: square"/>
   </g>
   <g id="line2d_67">
    <path d="M 430.468881 773.070323 
L 105.831055 890.863272 
" clip-path="url(#p695c0aa5b1)" style="fill: none; stroke: #7a7a7a; stroke-width: 3; stroke-linecap: square"/>
   </g>
   <g id="line2d_68">
    <path d="M 413.051758 728.522565 
L 105.831055 841.143302 
" clip-path="url(#p695c0aa5b1)" style="fill: none; stroke: #7a7a7a; stroke-width: 3; stroke-linecap: square"/>
   </g>
   <g id="line2d_69">
    <path d="M 618.877342 591.208688 
L 379.590646 680.804741 
" clip-path="url(#p695c0aa5b1)" style="fill: none; stroke: #7a7a7a; stroke-width: 3; stroke-linecap: square"/>
   </g>
   <g id="line2d_70">
    <path d="M 616.853776 541.155027 
L 351.983422 639.260202 
" clip-path="url(#p695c0aa5b1)" style="fill: none; stroke: #7a7a7a; stroke-width: 3; stroke-linecap: square"/>
   </g>
   <g id="line2d_71">
    <path d="M 557.447656 1279.446528 
L 494.572565 990.970594 
" clip-path="url(#p695c0aa5b1)" style="fill: none; stroke: #7a7a7a; stroke-width: 3; stroke-linecap: square"/>
   </g>
   <g id="line2d_72">
    <path d="M 578.767371 1254.419697 
L 534.827077 1029.845604 
L 527.021894 991.804822 
L 525.7933 985.798383 
L 525.287408 980.959862 
" clip-path="url(#p695c0aa5b1)" style="fill: none; stroke: #7a7a7a; stroke-width: 3; stroke-linecap: square"/>
   </g>
   <g id="line2d_73">
    <path d="M 105.831055 841.310148 
L 413.051758 728.522565 
" clip-path="url(#p695c0aa5b1)" style="fill: none; stroke: #7a7a7a; stroke-width: 3; stroke-linecap: square"/>
   </g>
   <g id="line2d_74">
    <path d="M 105.831055 891.864345 
L 430.468881 773.070323 
" clip-path="url(#p695c0aa5b1)" style="fill: none; stroke: #7a7a7a; stroke-width: 3; stroke-linecap: square"/>
   </g>
   <g id="line2d_75">
    <path d="M 621.33453 650.272008 
L 556.002252 674.297765 
L 545.306259 680.304204 
L 534.754807 689.480709 
L 524.564706 701.827279 
L 515.025037 717.177068 
L 506.280341 735.696923 
L 498.547427 757.219997 
L 492.187648 781.913136 
L 487.345543 809.44265 
L 484.310194 839.975383 
L 483.226141 873.344491 
L 484.454734 909.716818 
L 488.140516 948.925519 
L 494.572565 990.970594 
" clip-path="url(#p695c0aa5b1)" style="fill: none; stroke: #7a7a7a; stroke-width: 3; stroke-linecap: square"/>
   </g>
   <g id="line2d_76">
    <path d="M 618.877342 591.208688 
L 553.545064 615.234445 
L 542.27091 620.406657 
L 530.996756 628.582088 
L 519.867142 639.760739 
L 509.026609 653.775764 
L 498.691968 670.460318 
L 489.007758 689.8144 
L 480.118521 711.671165 
L 472.313338 735.863768 
L 465.592207 762.392209 
L 460.171941 791.089641 
L 456.269349 821.622374 
L 454.028972 854.157254 
L 453.595351 888.527434 
L 455.185296 924.399225 
L 458.871077 961.939471 
L 464.941775 1000.647635 
" clip-path="url(#p695c0aa5b1)" style="fill: none; stroke: #7a7a7a; stroke-width: 3; stroke-linecap: square"/>
   </g>
   <g id="line2d_77">
    <path d="M 625.887554 763.560127 
L 755.684868 713.673312 
L 756.263029 713.506466 
" clip-path="url(#p695c0aa5b1)" style="fill: none; stroke: #7a7a7a; stroke-width: 3; stroke-linecap: square"/>
   </g>
   <g id="line2d_78">
    <path d="M 628.05566 817.618081 
L 755.684868 767.898111 
L 756.263029 767.731266 
" clip-path="url(#p695c0aa5b1)" style="fill: none; stroke: #7a7a7a; stroke-width: 3; stroke-linecap: square"/>
   </g>
   <g id="line2d_79">
    <path d="M 413.051758 728.522565 
L 105.831055 841.143302 
" clip-path="url(#p695c0aa5b1)" style="fill: none; stroke: #7a7a7a; stroke-width: 3; stroke-linecap: square"/>
   </g>
   <g id="line2d_80">
    <path d="M 379.590646 680.804741 
L 105.831055 782.413673 
" clip-path="url(#p695c0aa5b1)" style="fill: none; stroke: #7a7a7a; stroke-width: 3; stroke-linecap: square"/>
   </g>
   <g id="line2d_81">
    <path d="M 430.468881 773.070323 
L 623.285826 701.994124 
" clip-path="url(#p695c0aa5b1)" style="fill: none; stroke: #7a7a7a; stroke-width: 3; stroke-linecap: square"/>
   </g>
   <g id="line2d_82">
    <path d="M 431.263853 834.970017 
L 625.887554 763.560127 
" clip-path="url(#p695c0aa5b1)" style="fill: none; stroke: #7a7a7a; stroke-width: 3; stroke-linecap: square"/>
   </g>
   <g id="line2d_83">
    <path d="M 494.572565 990.970594 
L 455.185296 761.391135 
L 450.05411 748.544029 
L 443.766601 740.201752 
L 437.406822 733.19424 
L 430.974772 728.68941 
L 423.82002 727.020955 
L 413.051758 728.522565 
" clip-path="url(#p695c0aa5b1)" style="fill: none; stroke: #7a7a7a; stroke-width: 3; stroke-linecap: square"/>
   </g>
   <g id="line2d_84">
    <path d="M 525.287408 980.959862 
L 484.237924 735.363232 
L 479.82944 718.344987 
L 472.096527 700.492514 
L 462.412318 685.643262 
L 452.439027 674.130919 
L 442.754818 665.955488 
L 431.842015 663.786496 
L 419.845158 666.289179 
L 379.590646 680.804741 
" clip-path="url(#p695c0aa5b1)" style="fill: none; stroke: #7a7a7a; stroke-width: 3; stroke-linecap: square"/>
   </g>
   <g id="line2d_85">
    <path d="M 379.590646 680.804741 
L 105.831055 782.413673 
" clip-path="url(#p695c0aa5b1)" style="fill: none; stroke: #7a7a7a; stroke-width: 3; stroke-linecap: square"/>
   </g>
   <g id="line2d_86">
    <path d="M 351.983422 639.260202 
L 105.831055 727.855182 
" clip-path="url(#p695c0aa5b1)" style="fill: none; stroke: #7a7a7a; stroke-width: 3; stroke-linecap: square"/>
   </g>
   <g id="line2d_87">
    <path d="M 965.051693 233.992393 
L 971.411472 275.203241 
L 973.435038 308.572348 
L 971.556013 335.601325 
L 966.352557 357.624936 
L 960.065048 378.981165 
L 951.03127 398.835783 
L 937.299929 413.1845 
L 920.027346 426.532143 
L 903.766547 432.705427 
" clip-path="url(#p695c0aa5b1)" style="fill: none; stroke: #7a7a7a; stroke-width: 3; stroke-linecap: square"/>
   </g>
   <g id="line2d_88">
    <path d="M 931.22923 257.350768 
L 932.746905 264.858817 
L 935.782254 285.047127 
L 937.010848 296.89316 
L 937.155388 308.071811 
L 936.143605 319.917845 
L 934.192309 333.599179 
L 931.590581 344.444138 
L 928.916583 351.952188 
L 924.5081 360.628156 
L 920.099617 366.80144 
L 915.618863 370.638888 
L 908.680922 373.808953 
L 908.10276 374.810026 
L 891.769691 380.983311 
" clip-path="url(#p695c0aa5b1)" style="fill: none; stroke: #7a7a7a; stroke-width: 3; stroke-linecap: square"/>
   </g>
   <g id="line2d_89">
    <path d="M 1151.002967 392.99619 
L 914.968431 481.424324 
" clip-path="url(#p695c0aa5b1)" style="fill: none; stroke: #7a7a7a; stroke-width: 3; stroke-linecap: square"/>
   </g>
   <g id="line2d_90">
    <path d="M 1147.606267 341.107228 
L 903.766547 432.705427 
" clip-path="url(#p695c0aa5b1)" style="fill: none; stroke: #7a7a7a; stroke-width: 3; stroke-linecap: square"/>
   </g>
   <g id="line2d_91">
    <path d="M 756.263029 767.731266 
L 963.244938 692.150237 
" clip-path="url(#p695c0aa5b1)" style="fill: none; stroke: #7a7a7a; stroke-width: 3; stroke-linecap: square"/>
   </g>
   <g id="line2d_92">
    <path d="M 756.263029 818.952846 
L 973.435038 735.02954 
" clip-path="url(#p695c0aa5b1)" style="fill: none; stroke: #7a7a7a; stroke-width: 3; stroke-linecap: square"/>
   </g>
   <g id="line2d_93">
    <path d="M 951.609432 641.429194 
L 1165.02339 560.509109 
" clip-path="url(#p695c0aa5b1)" style="fill: none; stroke: #7a7a7a; stroke-width: 3; stroke-linecap: square"/>
   </g>
   <g id="line2d_94">
    <path d="M 963.244938 692.150237 
L 1172.973114 611.230152 
" clip-path="url(#p695c0aa5b1)" style="fill: none; stroke: #7a7a7a; stroke-width: 3; stroke-linecap: square"/>
   </g>
   <g id="line2d_95">
    <path d="M 903.766547 432.705427 
L 756.263029 489.599756 
" clip-path="url(#p695c0aa5b1)" style="fill: none; stroke: #7a7a7a; stroke-width: 3; stroke-linecap: square"/>
   </g>
   <g id="line2d_96">
    <path d="M 891.769691 380.983311 
L 756.263029 435.208111 
" clip-path="url(#p695c0aa5b1)" style="fill: none; stroke: #7a7a7a; stroke-width: 3; stroke-linecap: square"/>
   </g>
   <g id="line2d_97">
    <path d="M 1172.973114 611.230152 
L 1406.116842 525.137855 
L 1406.695003 524.971009 
" clip-path="url(#p695c0aa5b1)" style="fill: none; stroke: #7a7a7a; stroke-width: 3; stroke-linecap: square"/>
   </g>
   <g id="line2d_98">
    <path d="M 1180.272406 658.113748 
L 1355.527688 592.710297 
L 1379.16005 583.533793 
L 1396.215822 578.02789 
L 1406.116842 575.024671 
L 1406.695003 574.857825 
" clip-path="url(#p695c0aa5b1)" style="fill: none; stroke: #7a7a7a; stroke-width: 3; stroke-linecap: square"/>
   </g>
   <g id="line2d_99">
    <path d="M 1147.606267 341.107228 
L 1093.620413 359.627082 
L 1078.154586 362.129765 
L 1064.206434 360.628156 
L 1051.559146 355.789635 
L 1040.068181 347.280513 
L 1029.588999 335.100788 
L 1020.04933 319.250462 
L 1011.304633 299.729535 
L 1003.64399 275.870623 
L 988.828595 217.474685 
" clip-path="url(#p695c0aa5b1)" style="fill: none; stroke: #7a7a7a; stroke-width: 3; stroke-linecap: square"/>
   </g>
   <g id="line2d_100">
    <path d="M 1144.137297 289.551957 
L 1106.990404 303.233291 
L 1098.245707 306.737047 
L 1086.971553 310.240803 
L 1074.396535 310.74134 
L 1060.376112 303.233291 
L 1048.017905 289.551957 
L 1037.538723 270.698411 
L 1029.155378 245.337889 
L 1024.241003 224.482197 
L 1018.820736 196.785838 
" clip-path="url(#p695c0aa5b1)" style="fill: none; stroke: #7a7a7a; stroke-width: 3; stroke-linecap: square"/>
   </g>
   <g id="line2d_101">
    <path d="M 963.244938 692.150237 
L 990.707621 681.138432 
L 1003.354909 676.967294 
L 1015.496306 674.631456 
L 1027.059541 675.131993 
L 1038.116885 679.469977 
L 1048.812877 688.31279 
L 1059.219789 702.494661 
L 1069.265349 723.016662 
L 1079.166369 750.713021 
L 1088.922849 786.417966 
L 1098.607058 830.965724 
" clip-path="url(#p695c0aa5b1)" style="fill: none; stroke: #7a7a7a; stroke-width: 3; stroke-linecap: square"/>
   </g>
   <g id="line2d_102">
    <path d="M 973.435038 735.02954 
L 1009.570148 724.351426 
L 1014.050902 723.016662 
L 1017.086251 722.516125 
L 1021.783815 721.515052 
L 1029.661269 722.015589 
L 1033.419321 723.183507 
L 1036.45467 725.352499 
L 1038.550506 728.022028 
L 1039.70683 729.523638 
L 1042.958989 735.363232 
L 1044.115313 738.199606 
L 1044.765745 739.367524 
L 1046.211149 743.204972 
L 1050.619633 757.386842 
L 1053.00455 766.563347 
L 1058.930708 791.590178 
L 1060.520653 799.265072 
L 1074.107454 861.331612 
" clip-path="url(#p695c0aa5b1)" style="fill: none; stroke: #7a7a7a; stroke-width: 3; stroke-linecap: square"/>
   </g>
   <g id="line2d_103">
    <path d="M 1406.695003 244.670507 
L 1406.116842 244.837353 
L 1147.606267 341.107228 
" clip-path="url(#p695c0aa5b1)" style="fill: none; stroke: #7a7a7a; stroke-width: 3; stroke-linecap: square"/>
   </g>
   <g id="line2d_104">
    <path d="M 1406.695003 193.448927 
L 1406.116842 193.615773 
L 1305.444426 227.318571 
L 1144.137297 289.551957 
" clip-path="url(#p695c0aa5b1)" style="fill: none; stroke: #7a7a7a; stroke-width: 3; stroke-linecap: square"/>
   </g>
   <g id="line2d_105">
    <path d="M 1119.637692 804.93782 
L 1110.531645 758.721607 
L 1106.629053 735.02954 
L 1105.255919 710.503247 
L 1106.845863 686.81118 
L 1112.19386 664.620724 
L 1122.23942 644.932951 
L 1137.849787 628.582088 
L 1159.892204 616.402364 
L 1172.973114 611.230152 
" clip-path="url(#p695c0aa5b1)" style="fill: none; stroke: #7a7a7a; stroke-width: 3; stroke-linecap: square"/>
   </g>
   <g id="line2d_106">
    <path d="M 1142.04146 777.408307 
L 1137.994328 757.386842 
L 1136.982545 748.043492 
L 1136.693464 735.363232 
L 1137.488436 720.513979 
L 1139.078381 708.000563 
L 1141.391028 696.988758 
L 1144.643188 687.478562 
L 1148.328969 679.469977 
L 1152.520642 674.130919 
L 1157.651828 669.959781 
L 1167.480577 664.620724 
L 1180.272406 658.113748 
" clip-path="url(#p695c0aa5b1)" style="fill: none; stroke: #7a7a7a; stroke-width: 3; stroke-linecap: square"/>
   </g>
   <g id="line2d_107">
    <path d="M 105.831055 890.863272 
L 105.180623 891.196963 
L -1 932.758266 
" clip-path="url(#p695c0aa5b1)" style="fill: none; stroke: #7a7a7a; stroke-width: 3; stroke-linecap: square"/>
   </g>
   <g id="line2d_108">
    <path d="M 105.831055 841.143302 
L 105.180623 841.310148 
L -1 882.06626 
" clip-path="url(#p695c0aa5b1)" style="fill: none; stroke: #7a7a7a; stroke-width: 3; stroke-linecap: square"/>
   </g>
   <g id="line2d_109">
    <path d="M -1 996.372114 
L 105.180623 954.931958 
L 105.831055 954.598267 
" clip-path="url(#p695c0aa5b1)" style="fill: none; stroke: #7a7a7a; stroke-width: 3; stroke-linecap: square"/>
   </g>
   <g id="line2d_110">
    <path d="M -1 1051.646462 
L 105.252894 1009.490449 
L 105.831055 1009.323603 
" clip-path="url(#p695c0aa5b1)" style="fill: none; stroke: #7a7a7a; stroke-width: 3; stroke-linecap: square"/>
   </g>
   <g id="line2d_111">
    <path d="M 105.831055 727.855182 
L 105.180623 728.022028 
L -1 770.433551 
" clip-path="url(#p695c0aa5b1)" style="fill: none; stroke: #7a7a7a; stroke-width: 3; stroke-linecap: square"/>
   </g>
   <g id="line2d_112">
    <path d="M 105.831055 676.633603 
L 105.180623 676.800448 
L -1 718.751077 
" clip-path="url(#p695c0aa5b1)" style="fill: none; stroke: #7a7a7a; stroke-width: 3; stroke-linecap: square"/>
   </g>
   <g id="line2d_113">
    <path d="M 105.831055 841.143302 
L 105.180623 841.310148 
L -1 882.06626 
" clip-path="url(#p695c0aa5b1)" style="fill: none; stroke: #7a7a7a; stroke-width: 3; stroke-linecap: square"/>
   </g>
   <g id="line2d_114">
    <path d="M 105.831055 782.413673 
L 105.180623 782.580519 
L -1 823.44952 
" clip-path="url(#p695c0aa5b1)" style="fill: none; stroke: #7a7a7a; stroke-width: 3; stroke-linecap: square"/>
   </g>
   <g id="line2d_115">
    <path d="M -1 933.303881 
L 105.180623 892.198036 
L 105.831055 891.864345 
" clip-path="url(#p695c0aa5b1)" style="fill: none; stroke: #7a7a7a; stroke-width: 3; stroke-linecap: square"/>
   </g>
   <g id="line2d_116">
    <path d="M -1 996.372114 
L 105.180623 954.931958 
L 105.831055 954.598267 
" clip-path="url(#p695c0aa5b1)" style="fill: none; stroke: #7a7a7a; stroke-width: 3; stroke-linecap: square"/>
   </g>
   <g id="line2d_117">
    <path d="M -1 882.403277 
L 105.180623 841.476993 
L 105.831055 841.310148 
" clip-path="url(#p695c0aa5b1)" style="fill: none; stroke: #7a7a7a; stroke-width: 3; stroke-linecap: square"/>
   </g>
   <g id="line2d_118">
    <path d="M -1 933.303881 
L 105.180623 892.198036 
L 105.831055 891.864345 
" clip-path="url(#p695c0aa5b1)" style="fill: none; stroke: #7a7a7a; stroke-width: 3; stroke-linecap: square"/>
   </g>
   <g id="line2d_119">
    <path d="M 105.831055 782.413673 
L 105.180623 782.580519 
L -1 823.44952 
" clip-path="url(#p695c0aa5b1)" style="fill: none; stroke: #7a7a7a; stroke-width: 3; stroke-linecap: square"/>
   </g>
   <g id="line2d_120">
    <path d="M 105.831055 727.855182 
L 105.180623 728.022028 
L -1 770.433551 
" clip-path="url(#p695c0aa5b1)" style="fill: none; stroke: #7a7a7a; stroke-width: 3; stroke-linecap: square"/>
   </g>
   <g id="line2d_121">
    <path d="M -1 1051.646462 
L 105.252894 1009.490449 
L 105.831055 1009.323603 
" clip-path="url(#p695c0aa5b1)" style="fill: none; stroke: #7a7a7a; stroke-width: 3; stroke-linecap: square"/>
   </g>
   <g id="line2d_122">
    <path d="M -1 1101.427876 
L 105.252894 1063.214712 
L 105.831055 1062.881021 
" clip-path="url(#p695c0aa5b1)" style="fill: none; stroke: #7a7a7a; stroke-width: 3; stroke-linecap: square"/>
   </g>
   <g id="line2d_123">
    <path d="M 351.983422 639.260202 
L 105.831055 727.855182 
" clip-path="url(#p695c0aa5b1)" style="fill: none; stroke: #7a7a7a; stroke-width: 3; stroke-linecap: square"/>
   </g>
   <g id="line2d_124">
    <path d="M 322.135822 594.545598 
L 151.650374 659.114821 
L 105.831055 676.633603 
" clip-path="url(#p695c0aa5b1)" style="fill: none; stroke: #7a7a7a; stroke-width: 3; stroke-linecap: square"/>
   </g>
   <g id="line2d_125">
    <path d="M 756.263029 489.599756 
L 755.684868 489.933447 
L 616.853776 541.155027 
" clip-path="url(#p695c0aa5b1)" style="fill: none; stroke: #7a7a7a; stroke-width: 3; stroke-linecap: square"/>
   </g>
   <g id="line2d_126">
    <path d="M 756.263029 435.208111 
L 755.684868 435.374956 
L 614.68567 487.597609 
" clip-path="url(#p695c0aa5b1)" style="fill: none; stroke: #7a7a7a; stroke-width: 3; stroke-linecap: square"/>
   </g>
   <g id="line2d_127">
    <path d="M 616.853776 541.155027 
L 351.983422 639.260202 
" clip-path="url(#p695c0aa5b1)" style="fill: none; stroke: #7a7a7a; stroke-width: 3; stroke-linecap: square"/>
   </g>
   <g id="line2d_128">
    <path d="M 614.68567 487.597609 
L 331.241869 591.208688 
L 330.446897 591.542379 
L 322.135822 594.545598 
" clip-path="url(#p695c0aa5b1)" style="fill: none; stroke: #7a7a7a; stroke-width: 3; stroke-linecap: square"/>
   </g>
   <g id="line2d_129">
    <path d="M 494.572565 990.970594 
L 492.91035 970.615439 
L 493.054891 953.930885 
L 493.705323 937.580022 
L 495.367538 921.896542 
L 498.186076 906.379907 
L 502.016398 892.031191 
L 509.893852 874.8461 
L 520.228493 862.666376 
L 528.611838 855.325173 
L 536.850643 849.81927 
L 628.05566 817.618081 
" clip-path="url(#p695c0aa5b1)" style="fill: none; stroke: #7a7a7a; stroke-width: 3; stroke-linecap: square"/>
   </g>
   <g id="line2d_130">
    <path d="M 525.287408 980.959862 
L 524.420166 972.784431 
L 524.492436 960.771552 
L 525.287408 946.589681 
L 526.443732 936.412104 
L 527.961406 927.902981 
L 530.779945 916.390639 
L 532.29762 912.219501 
L 535.477509 907.214135 
L 538.079237 904.210915 
L 546.245772 898.371321 
L 567.204136 889.528508 
L 630.006956 866.670669 
" clip-path="url(#p695c0aa5b1)" style="fill: none; stroke: #7a7a7a; stroke-width: 3; stroke-linecap: square"/>
   </g>
   <g id="line2d_131">
    <path d="M 431.263853 834.970017 
L 625.887554 763.560127 
" clip-path="url(#p695c0aa5b1)" style="fill: none; stroke: #7a7a7a; stroke-width: 3; stroke-linecap: square"/>
   </g>
   <g id="line2d_132">
    <path d="M 431.336123 887.025825 
L 628.05566 817.618081 
" clip-path="url(#p695c0aa5b1)" style="fill: none; stroke: #7a7a7a; stroke-width: 3; stroke-linecap: square"/>
   </g>
   <g id="line2d_133">
    <path d="M 105.831055 1009.323603 
L 431.336123 887.025825 
" clip-path="url(#p695c0aa5b1)" style="fill: none; stroke: #7a7a7a; stroke-width: 3; stroke-linecap: square"/>
   </g>
   <g id="line2d_134">
    <path d="M 105.831055 1062.881021 
L 130.041579 1054.205053 
L 218.717138 1019.834872 
L 431.408393 942.084852 
" clip-path="url(#p695c0aa5b1)" style="fill: none; stroke: #7a7a7a; stroke-width: 3; stroke-linecap: square"/>
   </g>
   <g id="line2d_135">
    <path d="M 628.05566 817.618081 
L 755.684868 767.898111 
L 756.263029 767.731266 
" clip-path="url(#p695c0aa5b1)" style="fill: none; stroke: #7a7a7a; stroke-width: 3; stroke-linecap: square"/>
   </g>
   <g id="line2d_136">
    <path d="M 630.006956 866.670669 
L 755.684868 819.286537 
L 756.263029 818.952846 
" clip-path="url(#p695c0aa5b1)" style="fill: none; stroke: #7a7a7a; stroke-width: 3; stroke-linecap: square"/>
   </g>
   <g id="line2d_137">
    <path d="M 431.336123 887.025825 
L 628.05566 817.618081 
" clip-path="url(#p695c0aa5b1)" style="fill: none; stroke: #7a7a7a; stroke-width: 3; stroke-linecap: square"/>
   </g>
   <g id="line2d_138">
    <path d="M 431.408393 942.084852 
L 546.245772 898.371321 
L 567.204136 889.528508 
L 630.006956 866.670669 
" clip-path="url(#p695c0aa5b1)" style="fill: none; stroke: #7a7a7a; stroke-width: 3; stroke-linecap: square"/>
   </g>
   <g id="line2d_139">
    <path d="M 431.336123 887.025825 
L 443.043899 886.525288 
L 451.716325 886.858979 
L 460.244211 891.363809 
L 466.893071 897.370248 
L 475.782308 908.548899 
L 480.118521 919.393859 
L 483.00933 928.737209 
L 494.572565 990.970594 
" clip-path="url(#p695c0aa5b1)" style="fill: none; stroke: #7a7a7a; stroke-width: 3; stroke-linecap: square"/>
   </g>
   <g id="line2d_140">
    <path d="M 431.408393 942.084852 
L 437.334551 944.75438 
L 438.563145 944.921226 
L 441.237143 946.089145 
L 443.043899 947.423909 
L 444.200222 948.258137 
L 447.091031 951.761893 
L 451.644055 959.937324 
L 457.353402 975.120268 
L 464.291343 998.144952 
L 464.941775 1000.647635 
" clip-path="url(#p695c0aa5b1)" style="fill: none; stroke: #7a7a7a; stroke-width: 3; stroke-linecap: square"/>
   </g>
   <g id="line2d_141">
    <path d="M 825.9131 784.084409 
L 1285.919398 605.234629 
" clip-path="url(#p695c0aa5b1)" style="fill: none; stroke-dasharray: 32,8,5,8; stroke-dashoffset: 0; stroke: #1e90ff; stroke-width: 5"/>
   </g>
   <g id="line2d_142">
    <path d="M 386.430415 636.42448 
L 203.865184 713.024341 
" clip-path="url(#p695c0aa5b1)" style="fill: none; stroke-dasharray: 32,8,5,8; stroke-dashoffset: 0; stroke: #1e90ff; stroke-width: 5"/>
   </g>
   <g id="line2d_143">
    <path d="M 710.691857 858.4765 
L 1114.925166 682.266269 
" clip-path="url(#p695c0aa5b1)" style="fill: none; stroke-dasharray: 32,8,5,8; stroke-dashoffset: 0; stroke: #1e90ff; stroke-width: 5"/>
   </g>
   <g id="line2d_144">
    <path d="M 265.374269 939.463389 
L 379.296907 893.825269 
" clip-path="url(#p695c0aa5b1)" style="fill: none; stroke-dasharray: 32,8,5,8; stroke-dashoffset: 0; stroke: #1e90ff; stroke-width: 5"/>
   </g>
   <g id="line2d_145">
    <path d="M 568.882724 570.297272 
L 144.540439 754.674625 
" clip-path="url(#p695c0aa5b1)" style="fill: none; stroke-dasharray: 32,8,5,8; stroke-dashoffset: 0; stroke: #1e90ff; stroke-width: 5"/>
   </g>
   <g id="line2d_146">
    <path d="M 881.186762 765.143205 
L 869.56636 795.314711 
" clip-path="url(#p695c0aa5b1)" style="fill: none; stroke-dasharray: 32,8,5,8; stroke-dashoffset: 0; stroke: #1e90ff; stroke-width: 5"/>
   </g>
   <g id="line2d_147">
    <path d="M 954.111577 83.422768 
L 947.784404 187.395726 
" clip-path="url(#p695c0aa5b1)" style="fill: none; stroke-dasharray: 32,8,5,8; stroke-dashoffset: 0; stroke: #1e90ff; stroke-width: 5"/>
   </g>
   <g id="line2d_148">
    <path d="M 1331.594671 304.212042 
L 830.939903 453.916807 
" clip-path="url(#p695c0aa5b1)" style="fill: none; stroke-dasharray: 32,8,5,8; stroke-dashoffset: 0; stroke: #1e90ff; stroke-width: 5"/>
   </g>
   <g id="line2d_149">
    <path d="M 750.159936 506.243413 
L 442.887996 644.339052 
" clip-path="url(#p695c0aa5b1)" style="fill: none; stroke-dasharray: 32,8,5,8; stroke-dashoffset: 0; stroke: #1e90ff; stroke-width: 5"/>
   </g>
   <g id="line2d_150">
    <path d="M 825.9131 784.084409 
" clip-path="url(#p695c0aa5b1)" style="fill: none; stroke: #0000ff; stroke-width: 1.5; stroke-linecap: square"/>
    <defs>
     <path id="m4f8b15b121" d="M 0 10 
C 2.652031 10 5.195799 8.946337 7.071068 7.071068 
C 8.946337 5.195799 10 2.652031 10 0 
C 10 -2.652031 8.946337 -5.195799 7.071068 -7.071068 
C 5.195799 -8.946337 2.652031 -10 0 -10 
C -2.652031 -10 -5.195799 -8.946337 -7.071068 -7.071068 
C -8.946337 -5.195799 -10 -2.652031 -10 0 
C -10 2.652031 -8.946337 5.195799 -7.071068 7.071068 
C -5.195799 8.946337 -2.652031 10 0 10 
z
" style="stroke: #0000ff"/>
    </defs>
    <g clip-path="url(#p695c0aa5b1)">
     <use xlink:href="#m4f8b15b121" x="825.9131" y="784.084409" style="fill: #0000ff; stroke: #0000ff"/>
    </g>
   </g>
   <g id="line2d_151">
    <path d="M 386.430415 636.42448 
" clip-path="url(#p695c0aa5b1)" style="fill: none; stroke: #0000ff; stroke-width: 1.5; stroke-linecap: square"/>
    <g clip-path="url(#p695c0aa5b1)">
     <use xlink:href="#m4f8b15b121" x="386.430415" y="636.42448" style="fill: #0000ff; stroke: #0000ff"/>
    </g>
   </g>
   <g id="line2d_152">
    <path d="M 710.691857 858.4765 
" clip-path="url(#p695c0aa5b1)" style="fill: none; stroke: #0000ff; stroke-width: 1.5; stroke-linecap: square"/>
    <g clip-path="url(#p695c0aa5b1)">
     <use xlink:href="#m4f8b15b121" x="710.691857" y="858.4765" style="fill: #0000ff; stroke: #0000ff"/>
    </g>
   </g>
   <g id="line2d_153">
    <path d="M 265.374269 939.463389 
" clip-path="url(#p695c0aa5b1)" style="fill: none; stroke: #0000ff; stroke-width: 1.5; stroke-linecap: square"/>
    <g clip-path="url(#p695c0aa5b1)">
     <use xlink:href="#m4f8b15b121" x="265.374269" y="939.463389" style="fill: #0000ff; stroke: #0000ff"/>
    </g>
   </g>
   <g id="line2d_154">
    <path d="M 568.882724 570.297272 
" clip-path="url(#p695c0aa5b1)" style="fill: none; stroke: #0000ff; stroke-width: 1.5; stroke-linecap: square"/>
    <g clip-path="url(#p695c0aa5b1)">
     <use xlink:href="#m4f8b15b121" x="568.882724" y="570.297272" style="fill: #0000ff; stroke: #0000ff"/>
    </g>
   </g>
   <g id="line2d_155">
    <path d="M 881.186762 765.143205 
" clip-path="url(#p695c0aa5b1)" style="fill: none; stroke: #0000ff; stroke-width: 1.5; stroke-linecap: square"/>
    <g clip-path="url(#p695c0aa5b1)">
     <use xlink:href="#m4f8b15b121" x="881.186762" y="765.143205" style="fill: #0000ff; stroke: #0000ff"/>
    </g>
   </g>
   <g id="line2d_156">
    <path d="M 954.111577 83.422768 
" clip-path="url(#p695c0aa5b1)" style="fill: none; stroke: #0000ff; stroke-width: 1.5; stroke-linecap: square"/>
    <g clip-path="url(#p695c0aa5b1)">
     <use xlink:href="#m4f8b15b121" x="954.111577" y="83.422768" style="fill: #0000ff; stroke: #0000ff"/>
    </g>
   </g>
   <g id="line2d_157">
    <path d="M 1331.594671 304.212042 
" clip-path="url(#p695c0aa5b1)" style="fill: none; stroke: #0000ff; stroke-width: 1.5; stroke-linecap: square"/>
    <g clip-path="url(#p695c0aa5b1)">
     <use xlink:href="#m4f8b15b121" x="1331.594671" y="304.212042" style="fill: #0000ff; stroke: #0000ff"/>
    </g>
   </g>
   <g id="line2d_158">
    <path d="M 750.159936 506.243413 
" clip-path="url(#p695c0aa5b1)" style="fill: none; stroke: #0000ff; stroke-width: 1.5; stroke-linecap: square"/>
    <g clip-path="url(#p695c0aa5b1)">
     <use xlink:href="#m4f8b15b121" x="750.159936" y="506.243413" style="fill: #0000ff; stroke: #0000ff"/>
    </g>
   </g>
   <g id="line2d_159">
    <path d="M 1285.919398 605.234629 
" clip-path="url(#p695c0aa5b1)" style="fill: none; stroke: #ff0000; stroke-width: 1.5; stroke-linecap: square"/>
    <defs>
     <path id="mff2ee99dd0" d="M 0 -10 
L -2.24514 -3.09017 
L -9.510565 -3.09017 
L -3.632713 1.18034 
L -5.877853 8.09017 
L -0 3.81966 
L 5.877853 8.09017 
L 3.632713 1.18034 
L 9.510565 -3.09017 
L 2.24514 -3.09017 
z
" style="stroke: #ff0000; stroke-linejoin: bevel"/>
    </defs>
    <g clip-path="url(#p695c0aa5b1)">
     <use xlink:href="#mff2ee99dd0" x="1285.919398" y="605.234629" style="fill: #ff0000; stroke: #ff0000; stroke-linejoin: bevel"/>
    </g>
   </g>
   <g id="line2d_160">
    <path d="M 203.865184 713.024341 
" clip-path="url(#p695c0aa5b1)" style="fill: none; stroke: #ff0000; stroke-width: 1.5; stroke-linecap: square"/>
    <g clip-path="url(#p695c0aa5b1)">
     <use xlink:href="#mff2ee99dd0" x="203.865184" y="713.024341" style="fill: #ff0000; stroke: #ff0000; stroke-linejoin: bevel"/>
    </g>
   </g>
   <g id="line2d_161">
    <path d="M 1114.925166 682.266269 
" clip-path="url(#p695c0aa5b1)" style="fill: none; stroke: #ff0000; stroke-width: 1.5; stroke-linecap: square"/>
    <g clip-path="url(#p695c0aa5b1)">
     <use xlink:href="#mff2ee99dd0" x="1114.925166" y="682.266269" style="fill: #ff0000; stroke: #ff0000; stroke-linejoin: bevel"/>
    </g>
   </g>
   <g id="line2d_162">
    <path d="M 379.296907 893.825269 
" clip-path="url(#p695c0aa5b1)" style="fill: none; stroke: #ff0000; stroke-width: 1.5; stroke-linecap: square"/>
    <g clip-path="url(#p695c0aa5b1)">
     <use xlink:href="#mff2ee99dd0" x="379.296907" y="893.825269" style="fill: #ff0000; stroke: #ff0000; stroke-linejoin: bevel"/>
    </g>
   </g>
   <g id="line2d_163">
    <path d="M 144.540439 754.674625 
" clip-path="url(#p695c0aa5b1)" style="fill: none; stroke: #ff0000; stroke-width: 1.5; stroke-linecap: square"/>
    <g clip-path="url(#p695c0aa5b1)">
     <use xlink:href="#mff2ee99dd0" x="144.540439" y="754.674625" style="fill: #ff0000; stroke: #ff0000; stroke-linejoin: bevel"/>
    </g>
   </g>
   <g id="line2d_164">
    <path d="M 869.56636 795.314711 
" clip-path="url(#p695c0aa5b1)" style="fill: none; stroke: #ff0000; stroke-width: 1.5; stroke-linecap: square"/>
    <g clip-path="url(#p695c0aa5b1)">
     <use xlink:href="#mff2ee99dd0" x="869.56636" y="795.314711" style="fill: #ff0000; stroke: #ff0000; stroke-linejoin: bevel"/>
    </g>
   </g>
   <g id="line2d_165">
    <path d="M 947.784404 187.395726 
" clip-path="url(#p695c0aa5b1)" style="fill: none; stroke: #ff0000; stroke-width: 1.5; stroke-linecap: square"/>
    <g clip-path="url(#p695c0aa5b1)">
     <use xlink:href="#mff2ee99dd0" x="947.784404" y="187.395726" style="fill: #ff0000; stroke: #ff0000; stroke-linejoin: bevel"/>
    </g>
   </g>
   <g id="line2d_166">
    <path d="M 830.939903 453.916807 
" clip-path="url(#p695c0aa5b1)" style="fill: none; stroke: #ff0000; stroke-width: 1.5; stroke-linecap: square"/>
    <g clip-path="url(#p695c0aa5b1)">
     <use xlink:href="#mff2ee99dd0" x="830.939903" y="453.916807" style="fill: #ff0000; stroke: #ff0000; stroke-linejoin: bevel"/>
    </g>
   </g>
   <g id="line2d_167">
    <path d="M 442.887996 644.339052 
" clip-path="url(#p695c0aa5b1)" style="fill: none; stroke: #ff0000; stroke-width: 1.5; stroke-linecap: square"/>
    <g clip-path="url(#p695c0aa5b1)">
     <use xlink:href="#mff2ee99dd0" x="442.887996" y="644.339052" style="fill: #ff0000; stroke: #ff0000; stroke-linejoin: bevel"/>
    </g>
   </g>
  </g>
 </g>
 <defs>
  <clipPath id="p695c0aa5b1">
   <rect x="0" y="0" width="1440" height="1440"/>
  </clipPath>
 </defs>
</svg>
