<?xml version="1.0" encoding="utf-8" standalone="no"?>
<!DOCTYPE svg PUBLIC "-//W3C//DTD SVG 1.1//EN"
  "http://www.w3.org/Graphics/SVG/1.1/DTD/svg11.dtd">
<svg xmlns:xlink="http://www.w3.org/1999/xlink" width="1440pt" height="1440pt" viewBox="0 0 1440 1440" xmlns="http://www.w3.org/2000/svg" version="1.1">
 <metadata>
  <rdf:RDF xmlns:dc="http://purl.org/dc/elements/1.1/" xmlns:cc="http://creativecommons.org/ns#" xmlns:rdf="http://www.w3.org/1999/02/22-rdf-syntax-ns#">
   <cc:Work>
    <dc:type rdf:resource="http://purl.org/dc/dcmitype/StillImage"/>
    <dc:date>2026-02-27T11:07:44.586584</dc:date>
    <dc:format>image/svg+xml</dc:format>
    <dc:creator>
     <cc:Agent>
      <dc:title>Matplotlib v3.7.3, https://matplotlib.org/</dc:title>
     </cc:Agent>
    </dc:creator>
   </cc:Work>
  </rdf:RDF>
 </metadata>
 <defs>
  <style type="text/css">*{stroke-linejoin: round; stroke-linecap: butt}</style>
 </defs>
 <g id="figure_1">
  <g id="patch_1">
   <path d="M 0 1440 
L 1440 1440 
L 1440 0 
L 0 0 
z
" style="fill: #ffffff"/>
  </g>
  <g id="axes_1">
   <g id="line2d_1">
    <path d="M 8.466123 1012.208991 
L 8.030297 1012.345196 
L -1 1016.22982 
" clip-path="url(#p00dd2d2687)" style="fill: none; stroke: #7a7a7a; stroke-width: 3; stroke-linecap: square"/>
   </g>
   <g id="line2d_2">
    <path d="M 8.466123 958.544175 
L 8.030297 958.68038 
L -1 962.616258 
" clip-path="url(#p00dd2d2687)" style="fill: none; stroke: #7a7a7a; stroke-width: 3; stroke-linecap: square"/>
   </g>
   <g id="line2d_3">
    <path d="M 381.969218 848.49044 
L 478.504732 805.858239 
" clip-path="url(#p00dd2d2687)" style="fill: none; stroke: #7a7a7a; stroke-width: 3; stroke-linecap: square"/>
   </g>
   <g id="line2d_4">
    <path d="M 388.797163 898.205308 
L 483.371458 855.981722 
" clip-path="url(#p00dd2d2687)" style="fill: none; stroke: #7a7a7a; stroke-width: 3; stroke-linecap: square"/>
   </g>
   <g id="line2d_5">
    <path d="M 662.205496 675.237532 
L 661.842307 675.373737 
L 473.274817 756.551987 
" clip-path="url(#p00dd2d2687)" style="fill: none; stroke: #7a7a7a; stroke-width: 3; stroke-linecap: square"/>
   </g>
   <g id="line2d_6">
    <path d="M 662.205496 653.853328 
L 661.842307 653.989534 
L 471.168323 736.529834 
" clip-path="url(#p00dd2d2687)" style="fill: none; stroke: #7a7a7a; stroke-width: 3; stroke-linecap: square"/>
   </g>
   <g id="line2d_7">
    <path d="M 388.797163 898.205308 
L 483.371458 855.981722 
" clip-path="url(#p00dd2d2687)" style="fill: none; stroke: #7a7a7a; stroke-width: 3; stroke-linecap: square"/>
   </g>
   <g id="line2d_8">
    <path d="M 391.920584 917.274024 
L 486.131691 877.22972 
" clip-path="url(#p00dd2d2687)" style="fill: none; stroke: #7a7a7a; stroke-width: 3; stroke-linecap: square"/>
   </g>
   <g id="line2d_9">
    <path d="M 662.205496 726.450656 
L 662.641322 726.314451 
L 724.891838 699.345837 
" clip-path="url(#p00dd2d2687)" style="fill: none; stroke: #7a7a7a; stroke-width: 3; stroke-linecap: square"/>
   </g>
   <g id="line2d_10">
    <path d="M 662.205496 778.753421 
L 662.641322 778.48101 
L 731.211318 749.333115 
" clip-path="url(#p00dd2d2687)" style="fill: none; stroke: #7a7a7a; stroke-width: 3; stroke-linecap: square"/>
   </g>
   <g id="line2d_11">
    <path d="M 8.466123 1061.923858 
L 8.829312 1061.651448 
L 388.797163 898.205308 
" clip-path="url(#p00dd2d2687)" style="fill: none; stroke: #7a7a7a; stroke-width: 3; stroke-linecap: square"/>
   </g>
   <g id="line2d_12">
    <path d="M 8.466123 1082.627036 
L 8.829312 1082.490831 
L 109.505175 1036.589707 
L 391.920584 917.274024 
" clip-path="url(#p00dd2d2687)" style="fill: none; stroke: #7a7a7a; stroke-width: 3; stroke-linecap: square"/>
   </g>
   <g id="line2d_13">
    <path d="M 8.466123 958.544175 
L 8.030297 958.68038 
L -1 962.616258 
" clip-path="url(#p00dd2d2687)" style="fill: none; stroke: #7a7a7a; stroke-width: 3; stroke-linecap: square"/>
   </g>
   <g id="line2d_14">
    <path d="M 8.466123 937.704792 
L 8.030297 937.840997 
L -1 941.738687 
" clip-path="url(#p00dd2d2687)" style="fill: none; stroke: #7a7a7a; stroke-width: 3; stroke-linecap: square"/>
   </g>
   <g id="line2d_15">
    <path d="M -1 1016.22982 
L 8.030297 1012.345196 
L 8.466123 1012.208991 
" clip-path="url(#p00dd2d2687)" style="fill: none; stroke: #7a7a7a; stroke-width: 3; stroke-linecap: square"/>
   </g>
   <g id="line2d_16">
    <path d="M -1 1066.034025 
L 8.030297 1062.060064 
L 8.466123 1061.923858 
" clip-path="url(#p00dd2d2687)" style="fill: none; stroke: #7a7a7a; stroke-width: 3; stroke-linecap: square"/>
   </g>
   <g id="line2d_17">
    <path d="M 381.969218 848.49044 
L 8.829312 1012.072786 
L 8.466123 1012.208991 
" clip-path="url(#p00dd2d2687)" style="fill: none; stroke: #7a7a7a; stroke-width: 3; stroke-linecap: square"/>
   </g>
   <g id="line2d_18">
    <path d="M 375.867651 798.503163 
L 8.829312 958.271765 
L 8.466123 958.544175 
" clip-path="url(#p00dd2d2687)" style="fill: none; stroke: #7a7a7a; stroke-width: 3; stroke-linecap: square"/>
   </g>
   <g id="line2d_19">
    <path d="M 375.867651 798.503163 
L 8.829312 958.271765 
L 8.466123 958.544175 
" clip-path="url(#p00dd2d2687)" style="fill: none; stroke: #7a7a7a; stroke-width: 3; stroke-linecap: square"/>
   </g>
   <g id="line2d_20">
    <path d="M 373.761157 778.753421 
L 8.829312 937.432382 
L 8.466123 937.704792 
" clip-path="url(#p00dd2d2687)" style="fill: none; stroke: #7a7a7a; stroke-width: 3; stroke-linecap: square"/>
   </g>
   <g id="line2d_21">
    <path d="M 478.504732 805.858239 
L 381.969218 848.49044 
" clip-path="url(#p00dd2d2687)" style="fill: none; stroke: #7a7a7a; stroke-width: 3; stroke-linecap: square"/>
   </g>
   <g id="line2d_22">
    <path d="M 473.274817 756.551987 
L 375.867651 798.503163 
" clip-path="url(#p00dd2d2687)" style="fill: none; stroke: #7a7a7a; stroke-width: 3; stroke-linecap: square"/>
   </g>
   <g id="line2d_23">
    <path d="M 1069.194573 623.751998 
L 1125.634073 599.507487 
L 1199.579259 568.316515 
L 1230.450285 554.014978 
L 1263.137254 536.716928 
L 1272.652794 532.085954 
L 1295.243121 518.329237 
L 1340.060587 490.407188 
" clip-path="url(#p00dd2d2687)" style="fill: none; stroke: #7a7a7a; stroke-width: 3; stroke-linecap: square"/>
   </g>
   <g id="line2d_24">
    <path d="M 1071.736893 642.820714 
L 1127.740566 618.712408 
L 1201.613115 588.066257 
L 1265.606936 558.918362 
L 1283.330537 549.247799 
L 1314.637389 527.45498 
L 1341.876529 508.522469 
" clip-path="url(#p00dd2d2687)" style="fill: none; stroke: #7a7a7a; stroke-width: 3; stroke-linecap: square"/>
   </g>
   <g id="line2d_25">
    <path d="M 473.274817 756.551987 
L 375.867651 798.503163 
" clip-path="url(#p00dd2d2687)" style="fill: none; stroke: #7a7a7a; stroke-width: 3; stroke-linecap: square"/>
   </g>
   <g id="line2d_26">
    <path d="M 471.168323 736.529834 
L 373.761157 778.753421 
" clip-path="url(#p00dd2d2687)" style="fill: none; stroke: #7a7a7a; stroke-width: 3; stroke-linecap: square"/>
   </g>
   <g id="line2d_27">
    <path d="M -1 1066.034025 
L 8.030297 1062.060064 
L 8.466123 1061.923858 
" clip-path="url(#p00dd2d2687)" style="fill: none; stroke: #7a7a7a; stroke-width: 3; stroke-linecap: square"/>
   </g>
   <g id="line2d_28">
    <path d="M -1 1086.789701 
L 8.030297 1082.763241 
L 8.466123 1082.627036 
" clip-path="url(#p00dd2d2687)" style="fill: none; stroke: #7a7a7a; stroke-width: 3; stroke-linecap: square"/>
   </g>
   <g id="line2d_29">
    <path d="M 662.205496 726.450656 
L 661.842307 726.586861 
L 478.504732 805.858239 
" clip-path="url(#p00dd2d2687)" style="fill: none; stroke: #7a7a7a; stroke-width: 3; stroke-linecap: square"/>
   </g>
   <g id="line2d_30">
    <path d="M 662.205496 675.237532 
L 661.842307 675.373737 
L 473.274817 756.551987 
" clip-path="url(#p00dd2d2687)" style="fill: none; stroke: #7a7a7a; stroke-width: 3; stroke-linecap: square"/>
   </g>
   <g id="line2d_31">
    <path d="M 483.371458 855.981722 
L 661.842307 778.889626 
L 662.205496 778.753421 
" clip-path="url(#p00dd2d2687)" style="fill: none; stroke: #7a7a7a; stroke-width: 3; stroke-linecap: square"/>
   </g>
   <g id="line2d_32">
    <path d="M 486.131691 877.22972 
L 662.205496 820.023571 
" clip-path="url(#p00dd2d2687)" style="fill: none; stroke: #7a7a7a; stroke-width: 3; stroke-linecap: square"/>
   </g>
   <g id="line2d_33">
    <path d="M 8.466123 1012.208991 
L 8.829312 1012.072786 
L 381.969218 848.49044 
" clip-path="url(#p00dd2d2687)" style="fill: none; stroke: #7a7a7a; stroke-width: 3; stroke-linecap: square"/>
   </g>
   <g id="line2d_34">
    <path d="M 8.466123 1061.923858 
L 8.829312 1061.651448 
L 388.797163 898.205308 
" clip-path="url(#p00dd2d2687)" style="fill: none; stroke: #7a7a7a; stroke-width: 3; stroke-linecap: square"/>
   </g>
   <g id="line2d_35">
    <path d="M 1058.51683 551.699491 
L 1105.731341 532.085954 
L 1117.643925 527.18257 
L 1192.024938 496.400213 
L 1255.728208 470.112626 
L 1333.741106 437.832013 
" clip-path="url(#p00dd2d2687)" style="fill: none; stroke: #7a7a7a; stroke-width: 3; stroke-linecap: square"/>
   </g>
   <g id="line2d_36">
    <path d="M 1069.194573 623.751998 
L 1125.634073 599.507487 
L 1199.579259 568.316515 
L 1230.450285 554.014978 
L 1263.137254 536.716928 
L 1272.652794 532.085954 
L 1295.243121 518.329237 
L 1340.060587 490.407188 
" clip-path="url(#p00dd2d2687)" style="fill: none; stroke: #7a7a7a; stroke-width: 3; stroke-linecap: square"/>
   </g>
   <g id="line2d_37">
    <path d="M 899.367612 624.569228 
L 828.110021 654.942969 
L 724.891838 699.345837 
" clip-path="url(#p00dd2d2687)" style="fill: none; stroke: #7a7a7a; stroke-width: 3; stroke-linecap: square"/>
   </g>
   <g id="line2d_38">
    <path d="M 892.975494 575.126771 
L 717.628067 651.537841 
" clip-path="url(#p00dd2d2687)" style="fill: none; stroke: #7a7a7a; stroke-width: 3; stroke-linecap: square"/>
   </g>
   <g id="line2d_39">
    <path d="M 478.504732 805.858239 
L 661.842307 726.586861 
L 662.205496 726.450656 
" clip-path="url(#p00dd2d2687)" style="fill: none; stroke: #7a7a7a; stroke-width: 3; stroke-linecap: square"/>
   </g>
   <g id="line2d_40">
    <path d="M 483.371458 855.981722 
L 661.842307 778.889626 
L 662.205496 778.753421 
" clip-path="url(#p00dd2d2687)" style="fill: none; stroke: #7a7a7a; stroke-width: 3; stroke-linecap: square"/>
   </g>
   <g id="line2d_41">
    <path d="M 662.205496 766.358755 
L 662.641322 766.22255 
L 731.211318 749.333115 
" clip-path="url(#p00dd2d2687)" style="fill: none; stroke: #7a7a7a; stroke-width: 3; stroke-linecap: square"/>
   </g>
   <g id="line2d_42">
    <path d="M 662.205496 812.396084 
L 662.641322 812.259879 
L 734.62529 795.098035 
" clip-path="url(#p00dd2d2687)" style="fill: none; stroke: #7a7a7a; stroke-width: 3; stroke-linecap: square"/>
   </g>
   <g id="line2d_43">
    <path d="M 724.891838 699.345837 
L 828.110021 654.942969 
L 899.367612 624.569228 
" clip-path="url(#p00dd2d2687)" style="fill: none; stroke: #7a7a7a; stroke-width: 3; stroke-linecap: square"/>
   </g>
   <g id="line2d_44">
    <path d="M 731.211318 749.333115 
L 848.884405 696.076915 
L 904.742803 673.466865 
" clip-path="url(#p00dd2d2687)" style="fill: none; stroke: #7a7a7a; stroke-width: 3; stroke-linecap: square"/>
   </g>
   <g id="line2d_45">
    <path d="M 926.025651 282.149565 
L 938.664612 383.077556 
L 994.159821 721.955887 
L 1001.060403 774.939677 
" clip-path="url(#p00dd2d2687)" style="fill: none; stroke: #7a7a7a; stroke-width: 3; stroke-linecap: square"/>
   </g>
   <g id="line2d_46">
    <path d="M 901.546743 293.045974 
L 979.559642 770.308703 
L 979.704917 770.581114 
L 981.666135 783.248189 
" clip-path="url(#p00dd2d2687)" style="fill: none; stroke: #7a7a7a; stroke-width: 3; stroke-linecap: square"/>
   </g>
   <g id="line2d_47">
    <path d="M 1001.060403 774.939677 
L 994.159821 721.955887 
L 938.664612 383.077556 
L 926.025651 282.149565 
" clip-path="url(#p00dd2d2687)" style="fill: none; stroke: #7a7a7a; stroke-width: 3; stroke-linecap: square"/>
   </g>
   <g id="line2d_48">
    <path d="M 1027.064703 763.362242 
L 1026.84679 761.727781 
L 980.286019 397.515299 
L 965.177376 266.485976 
" clip-path="url(#p00dd2d2687)" style="fill: none; stroke: #7a7a7a; stroke-width: 3; stroke-linecap: square"/>
   </g>
   <g id="line2d_49">
    <path d="M 904.742803 673.466865 
L 911.861298 668.835891 
L 929.366986 658.892918 
L 1058.51683 551.699491 
" clip-path="url(#p00dd2d2687)" style="fill: none; stroke: #7a7a7a; stroke-width: 3; stroke-linecap: square"/>
   </g>
   <g id="line2d_50">
    <path d="M 909.682167 716.099067 
L 922.90223 709.152606 
L 973.022248 678.234044 
L 1020.963135 647.587893 
L 1037.161344 637.91733 
L 1069.194573 623.751998 
" clip-path="url(#p00dd2d2687)" style="fill: none; stroke: #7a7a7a; stroke-width: 3; stroke-linecap: square"/>
   </g>
   <g id="line2d_51">
    <path d="M 731.211318 749.333115 
L 848.884405 696.076915 
L 904.742803 673.466865 
" clip-path="url(#p00dd2d2687)" style="fill: none; stroke: #7a7a7a; stroke-width: 3; stroke-linecap: square"/>
   </g>
   <g id="line2d_52">
    <path d="M 734.62529 795.098035 
L 734.843204 795.098035 
L 909.682167 716.099067 
" clip-path="url(#p00dd2d2687)" style="fill: none; stroke: #7a7a7a; stroke-width: 3; stroke-linecap: square"/>
   </g>
   <g id="line2d_53">
    <path d="M 1053.432191 502.257033 
L 1039.1952 509.339699 
L 1014.062553 527.45498 
L 924.137071 604.547076 
L 907.285122 615.579691 
L 899.367612 624.569228 
" clip-path="url(#p00dd2d2687)" style="fill: none; stroke: #7a7a7a; stroke-width: 3; stroke-linecap: square"/>
   </g>
   <g id="line2d_54">
    <path d="M 1049.001291 459.488627 
L 1033.311546 469.15919 
L 1018.638729 480.055599 
L 917.091213 562.459695 
L 903.507961 570.495797 
L 892.975494 575.126771 
" clip-path="url(#p00dd2d2687)" style="fill: none; stroke: #7a7a7a; stroke-width: 3; stroke-linecap: square"/>
   </g>
   <g id="line2d_55">
    <path d="M 1001.060403 774.939677 
L 1034.691662 1045.851655 
" clip-path="url(#p00dd2d2687)" style="fill: none; stroke: #7a7a7a; stroke-width: 3; stroke-linecap: square"/>
   </g>
   <g id="line2d_56">
    <path d="M 981.666135 783.248189 
L 989.728921 834.869929 
L 995.176749 870.147054 
L 1001.350954 917.68264 
L 1014.643655 1053.751551 
" clip-path="url(#p00dd2d2687)" style="fill: none; stroke: #7a7a7a; stroke-width: 3; stroke-linecap: square"/>
   </g>
   <g id="line2d_57">
    <path d="M 1034.691662 1045.851655 
L 1001.060403 774.939677 
" clip-path="url(#p00dd2d2687)" style="fill: none; stroke: #7a7a7a; stroke-width: 3; stroke-linecap: square"/>
   </g>
   <g id="line2d_58">
    <path d="M 1058.153642 1036.453502 
L 1046.023145 926.672177 
L 1027.064703 763.362242 
" clip-path="url(#p00dd2d2687)" style="fill: none; stroke: #7a7a7a; stroke-width: 3; stroke-linecap: square"/>
   </g>
   <g id="line2d_59">
    <path d="M 1058.51683 551.699491 
L 899.367612 624.569228 
" clip-path="url(#p00dd2d2687)" style="fill: none; stroke: #7a7a7a; stroke-width: 3; stroke-linecap: square"/>
   </g>
   <g id="line2d_60">
    <path d="M 1053.432191 502.257033 
L 892.975494 575.126771 
" clip-path="url(#p00dd2d2687)" style="fill: none; stroke: #7a7a7a; stroke-width: 3; stroke-linecap: square"/>
   </g>
   <g id="line2d_61">
    <path d="M 1001.060403 774.939677 
L 1000.551939 771.534549 
L 998.808634 755.598551 
L 995.176749 736.93845 
L 989.728921 716.235272 
L 982.610426 694.442453 
L 974.039176 672.377224 
L 964.08781 650.993021 
L 952.901603 630.970869 
L 940.62583 613.127999 
L 927.405767 598.281641 
L 913.38669 587.385231 
L 892.975494 575.126771 
" clip-path="url(#p00dd2d2687)" style="fill: none; stroke: #7a7a7a; stroke-width: 3; stroke-linecap: square"/>
   </g>
   <g id="line2d_62">
    <path d="M 1027.064703 763.362242 
L 1023.214904 738.845321 
L 1018.130265 717.188708 
L 1015.006843 706.019888 
L 1011.810784 695.259684 
L 1007.888348 683.546044 
L 1003.457448 673.60307 
L 994.232459 652.627482 
L 983.917904 632.60533 
L 972.731697 614.081434 
L 960.819113 597.46441 
L 948.398065 583.162873 
L 935.613828 571.585438 
L 922.611679 563.004516 
L 909.609529 558.101131 
L 896.752655 557.147695 
L 889.997348 554.968414 
" clip-path="url(#p00dd2d2687)" style="fill: none; stroke: #7a7a7a; stroke-width: 3; stroke-linecap: square"/>
   </g>
   <g id="line2d_63">
    <path d="M 1053.432191 502.257033 
L 1038.323548 506.479392 
L 1023.723368 506.751802 
L 1009.849566 503.074264 
L 996.774779 496.127803 
L 984.644281 485.912419 
L 973.530712 473.109138 
L 963.579346 457.71796 
L 954.862821 440.41991 
L 947.59905 421.214989 
L 941.788034 400.648016 
L 937.647684 378.991403 
L 926.025651 282.149565 
" clip-path="url(#p00dd2d2687)" style="fill: none; stroke: #7a7a7a; stroke-width: 3; stroke-linecap: square"/>
   </g>
   <g id="line2d_64">
    <path d="M 1049.001291 459.488627 
L 1043.190274 462.076524 
L 1036.144416 464.528216 
L 1027.863718 466.298883 
L 1019.437743 466.298883 
L 1013.917278 464.664421 
L 1012.391886 463.983396 
L 1007.307246 460.578268 
L 1003.965912 457.581755 
L 999.535011 452.678371 
L 995.104111 446.412935 
L 991.472226 440.1475 
L 988.639355 434.01827 
L 986.169673 427.071809 
L 984.208455 419.444322 
L 982.029324 408.547913 
L 980.286019 397.515299 
L 965.177376 266.485976 
" clip-path="url(#p00dd2d2687)" style="fill: none; stroke: #7a7a7a; stroke-width: 3; stroke-linecap: square"/>
   </g>
   <g id="line2d_65">
    <path d="M 1053.432191 502.257033 
L 892.975494 575.126771 
" clip-path="url(#p00dd2d2687)" style="fill: none; stroke: #7a7a7a; stroke-width: 3; stroke-linecap: square"/>
   </g>
   <g id="line2d_66">
    <path d="M 1049.001291 459.488627 
L 889.997348 554.968414 
" clip-path="url(#p00dd2d2687)" style="fill: none; stroke: #7a7a7a; stroke-width: 3; stroke-linecap: square"/>
   </g>
   <g id="line2d_67">
    <path d="M 1001.060403 774.939677 
L 995.104111 713.51117 
L 994.595647 688.040813 
L 995.612575 664.068712 
L 998.372808 641.731073 
L 1002.948984 621.1641 
L 1009.559015 602.640205 
L 1018.27554 586.29559 
L 1029.316472 572.266463 
L 1058.51683 551.699491 
" clip-path="url(#p00dd2d2687)" style="fill: none; stroke: #7a7a7a; stroke-width: 3; stroke-linecap: square"/>
   </g>
   <g id="line2d_68">
    <path d="M 1027.064703 763.362242 
L 1024.086557 739.934962 
L 1023.868644 737.21086 
L 1020.454671 705.338863 
L 1020.81786 679.732301 
L 1024.740296 661.0722 
L 1031.858792 647.587893 
L 1041.882795 637.91733 
L 1054.449119 630.426048 
L 1069.194573 623.751998 
" clip-path="url(#p00dd2d2687)" style="fill: none; stroke: #7a7a7a; stroke-width: 3; stroke-linecap: square"/>
   </g>
   <g id="line2d_69">
    <path d="M 926.025651 282.149565 
L 898.060133 55.50425 
" clip-path="url(#p00dd2d2687)" style="fill: none; stroke: #7a7a7a; stroke-width: 3; stroke-linecap: square"/>
   </g>
   <g id="line2d_70">
    <path d="M 965.177376 266.485976 
L 937.357133 40.521687 
" clip-path="url(#p00dd2d2687)" style="fill: none; stroke: #7a7a7a; stroke-width: 3; stroke-linecap: square"/>
   </g>
   <g id="line2d_71">
    <path d="M 1001.060403 774.939677 
L 1000.334026 767.857011 
L 997.065329 746.064193 
L 991.835414 724.543784 
L 984.789557 703.840606 
L 976.073032 684.49948 
L 965.903753 667.065225 
L 954.354357 652.082662 
L 941.715396 639.824201 
L 928.059507 631.107074 
L 913.531965 626.20369 
L 899.367612 624.569228 
" clip-path="url(#p00dd2d2687)" style="fill: none; stroke: #7a7a7a; stroke-width: 3; stroke-linecap: square"/>
   </g>
   <g id="line2d_72">
    <path d="M 1027.064703 763.362242 
L 1025.829862 753.964089 
L 1021.76215 731.35404 
L 1015.660583 707.245734 
L 1008.033623 684.363275 
L 999.099185 662.706661 
L 989.002544 642.820714 
L 977.816337 624.977844 
L 965.831115 609.45046 
L 953.046878 596.510974 
L 939.754178 586.29559 
L 925.953013 579.485335 
L 911.861298 575.944002 
L 897.696945 576.352617 
L 892.975494 575.126771 
" clip-path="url(#p00dd2d2687)" style="fill: none; stroke: #7a7a7a; stroke-width: 3; stroke-linecap: square"/>
   </g>
   <g id="line2d_73">
    <path d="M 1333.741106 437.832013 
L 1255.728208 470.112626 
L 1192.024938 496.400213 
L 1117.643925 527.18257 
L 1105.731341 532.085954 
L 1058.51683 551.699491 
" clip-path="url(#p00dd2d2687)" style="fill: none; stroke: #7a7a7a; stroke-width: 3; stroke-linecap: square"/>
   </g>
   <g id="line2d_74">
    <path d="M 1327.421625 384.848223 
L 1249.989829 418.082271 
L 1186.57711 445.187089 
L 1112.123459 477.195292 
L 1053.432191 502.257033 
" clip-path="url(#p00dd2d2687)" style="fill: none; stroke: #7a7a7a; stroke-width: 3; stroke-linecap: square"/>
   </g>
   <g id="line2d_75">
    <path d="M 1001.060403 774.939677 
L 997.065329 726.995476 
L 997.137967 710.378452 
L 998.808634 692.944197 
L 1002.295244 677.553019 
L 1006.145043 667.065225 
L 1011.229682 656.986046 
L 1018.92928 650.17579 
L 1028.662732 643.637945 
L 1038.25091 638.053535 
L 1056.991439 629.200202 
L 1069.194573 623.751998 
" clip-path="url(#p00dd2d2687)" style="fill: none; stroke: #7a7a7a; stroke-width: 3; stroke-linecap: square"/>
   </g>
   <g id="line2d_76">
    <path d="M 1027.064703 763.362242 
L 1025.902499 754.2365 
L 1024.522383 743.6125 
L 1024.086557 739.934962 
L 1022.125339 709.561221 
L 1022.197976 706.292298 
L 1022.343252 698.528607 
L 1022.70644 690.492505 
L 1022.779078 689.402864 
L 1022.779078 683.273634 
L 1024.522383 675.237532 
L 1028.008993 667.610045 
L 1034.183198 660.254969 
L 1071.736893 642.820714 
" clip-path="url(#p00dd2d2687)" style="fill: none; stroke: #7a7a7a; stroke-width: 3; stroke-linecap: square"/>
   </g>
   <g id="line2d_77">
    <path d="M 898.060133 55.50425 
L 926.025651 282.149565 
" clip-path="url(#p00dd2d2687)" style="fill: none; stroke: #7a7a7a; stroke-width: 3; stroke-linecap: square"/>
   </g>
   <g id="line2d_78">
    <path d="M 873.944414 64.766198 
L 885.130621 157.249472 
L 886.728651 170.052753 
L 901.546743 293.045974 
" clip-path="url(#p00dd2d2687)" style="fill: none; stroke: #7a7a7a; stroke-width: 3; stroke-linecap: square"/>
   </g>
   <g id="line2d_79">
    <path d="M 904.742803 673.466865 
L 1035.563315 639.415586 
L 1069.194573 623.751998 
" clip-path="url(#p00dd2d2687)" style="fill: none; stroke: #7a7a7a; stroke-width: 3; stroke-linecap: square"/>
   </g>
   <g id="line2d_80">
    <path d="M 909.682167 716.099067 
L 1071.736893 642.820714 
" clip-path="url(#p00dd2d2687)" style="fill: none; stroke: #7a7a7a; stroke-width: 3; stroke-linecap: square"/>
   </g>
   <g id="line2d_81">
    <path d="M 892.975494 575.126771 
L 717.628067 651.537841 
" clip-path="url(#p00dd2d2687)" style="fill: none; stroke: #7a7a7a; stroke-width: 3; stroke-linecap: square"/>
   </g>
   <g id="line2d_82">
    <path d="M 889.997348 554.968414 
L 767.60281 611.084922 
L 716.683777 631.651894 
" clip-path="url(#p00dd2d2687)" style="fill: none; stroke: #7a7a7a; stroke-width: 3; stroke-linecap: square"/>
   </g>
   <g id="line2d_83">
    <path d="M 717.628067 651.537841 
L 662.641322 674.965122 
L 662.205496 675.237532 
" clip-path="url(#p00dd2d2687)" style="fill: none; stroke: #7a7a7a; stroke-width: 3; stroke-linecap: square"/>
   </g>
   <g id="line2d_84">
    <path d="M 716.683777 631.651894 
L 662.641322 653.717123 
L 662.205496 653.853328 
" clip-path="url(#p00dd2d2687)" style="fill: none; stroke: #7a7a7a; stroke-width: 3; stroke-linecap: square"/>
   </g>
   <g id="line2d_85">
    <path d="M 899.367612 624.569228 
L 909.972718 611.765947 
L 917.81759 601.822974 
L 924.79081 589.564513 
L 930.892377 574.854361 
L 935.977017 557.147695 
L 939.826815 536.444518 
L 942.441773 512.608622 
L 943.603976 485.095189 
L 943.240788 453.904217 
L 941.27957 418.763297 
L 931.909305 335.54197 
L 926.025651 282.149565 
" clip-path="url(#p00dd2d2687)" style="fill: none; stroke: #7a7a7a; stroke-width: 3; stroke-linecap: square"/>
   </g>
   <g id="line2d_86">
    <path d="M 904.742803 673.466865 
L 912.4424 665.975584 
L 922.466403 655.351585 
L 933.507335 643.77415 
L 943.386063 630.698459 
L 952.102588 616.124511 
L 959.65691 599.643692 
L 966.049028 581.392206 
L 971.278943 561.233849 
L 975.346655 539.16862 
L 978.252163 514.924109 
L 979.995468 488.500317 
L 980.503932 459.624832 
L 979.92283 428.570065 
L 978.106888 394.927401 
L 975.201379 358.833045 
L 965.177376 266.485976 
" clip-path="url(#p00dd2d2687)" style="fill: none; stroke: #7a7a7a; stroke-width: 3; stroke-linecap: square"/>
   </g>
   <g id="line2d_87">
    <path d="M 904.742803 673.466865 
L 947.816963 664.204917 
L 960.746475 669.925532 
L 971.424218 679.868506 
L 980.213381 693.625223 
L 987.259239 710.514657 
L 992.997618 730.128194 
L 997.573793 751.648602 
L 1001.060403 774.939677 
" clip-path="url(#p00dd2d2687)" style="fill: none; stroke: #7a7a7a; stroke-width: 3; stroke-linecap: square"/>
   </g>
   <g id="line2d_88">
    <path d="M 909.682167 716.099067 
L 926.534115 710.242247 
L 932.127218 709.288811 
L 938.010873 710.378452 
L 940.335279 711.740503 
L 949.342355 714.05599 
L 961.836041 725.905835 
L 971.278943 742.931475 
L 977.816337 762.953627 
L 978.97854 769.082857 
L 979.704917 770.581114 
L 981.666135 783.248189 
" clip-path="url(#p00dd2d2687)" style="fill: none; stroke: #7a7a7a; stroke-width: 3; stroke-linecap: square"/>
   </g>
   <g id="line2d_89">
    <path d="M 1058.51683 551.699491 
L 1029.316472 572.266463 
L 1018.27554 586.29559 
L 1009.559015 602.640205 
L 1002.948984 621.1641 
L 998.372808 641.731073 
L 995.612575 664.068712 
L 994.595647 688.040813 
L 995.104111 713.51117 
L 1001.060403 774.939677 
" clip-path="url(#p00dd2d2687)" style="fill: none; stroke: #7a7a7a; stroke-width: 3; stroke-linecap: square"/>
   </g>
   <g id="line2d_90">
    <path d="M 1053.432191 502.257033 
L 1039.848939 509.475905 
L 1027.209978 519.146468 
L 1015.73322 531.268723 
L 1005.346028 545.706466 
L 996.338952 562.5959 
L 988.566718 581.664617 
L 982.319875 603.04882 
L 977.671061 626.612305 
L 974.620278 652.491277 
L 973.312799 680.277121 
L 973.821263 710.378452 
L 976.218307 742.386654 
L 980.649207 776.437934 
L 981.666135 783.248189 
" clip-path="url(#p00dd2d2687)" style="fill: none; stroke: #7a7a7a; stroke-width: 3; stroke-linecap: square"/>
   </g>
   <g id="line2d_91">
    <path d="M 724.891838 699.345837 
L 662.641322 726.314451 
L 662.205496 726.450656 
" clip-path="url(#p00dd2d2687)" style="fill: none; stroke: #7a7a7a; stroke-width: 3; stroke-linecap: square"/>
   </g>
   <g id="line2d_92">
    <path d="M 717.628067 651.537841 
L 662.641322 674.965122 
L 662.205496 675.237532 
" clip-path="url(#p00dd2d2687)" style="fill: none; stroke: #7a7a7a; stroke-width: 3; stroke-linecap: square"/>
   </g>
   <g id="line2d_93">
    <path d="M 1327.421625 384.848223 
L 1249.989829 418.082271 
L 1186.57711 445.187089 
L 1112.123459 477.195292 
L 1053.432191 502.257033 
" clip-path="url(#p00dd2d2687)" style="fill: none; stroke: #7a7a7a; stroke-width: 3; stroke-linecap: square"/>
   </g>
   <g id="line2d_94">
    <path d="M 1316.090143 344.122893 
L 1245.19574 374.632839 
L 1182.000934 402.010067 
L 1107.402008 434.29068 
L 1049.001291 459.488627 
" clip-path="url(#p00dd2d2687)" style="fill: none; stroke: #7a7a7a; stroke-width: 3; stroke-linecap: square"/>
   </g>
   <g id="line2d_95">
    <path d="M 926.025651 282.149565 
L 931.909305 335.54197 
L 941.27957 418.763297 
L 943.240788 453.904217 
L 943.603976 485.095189 
L 942.441773 512.608622 
L 939.826815 536.444518 
L 935.977017 557.147695 
L 930.892377 574.854361 
L 924.79081 589.564513 
L 917.81759 601.822974 
L 909.972718 611.765947 
L 899.367612 624.569228 
" clip-path="url(#p00dd2d2687)" style="fill: none; stroke: #7a7a7a; stroke-width: 3; stroke-linecap: square"/>
   </g>
   <g id="line2d_96">
    <path d="M 901.546743 293.045974 
L 918.471329 423.666681 
L 919.633533 432.656219 
L 920.941011 446.412935 
L 922.393766 459.352422 
L 922.90223 469.295395 
L 922.030577 480.055599 
L 920.287272 499.260521 
L 918.689242 524.458467 
L 914.766806 544.344415 
L 908.011499 559.599388 
L 897.769583 571.449233 
L 892.975494 575.126771 
" clip-path="url(#p00dd2d2687)" style="fill: none; stroke: #7a7a7a; stroke-width: 3; stroke-linecap: square"/>
   </g>
   <g id="line2d_97">
    <path d="M 926.025651 282.149565 
L 929.802812 352.431405 
L 935.468553 452.814576 
L 933.870523 492.995085 
L 930.747102 518.329237 
L 926.098289 537.806569 
L 917.81759 551.563286 
L 907.720949 564.366567 
L 892.975494 575.126771 
" clip-path="url(#p00dd2d2687)" style="fill: none; stroke: #7a7a7a; stroke-width: 3; stroke-linecap: square"/>
   </g>
   <g id="line2d_98">
    <path d="M 901.546743 293.045974 
L 919.633533 432.656219 
L 920.941011 446.412935 
L 921.013649 449.681858 
L 921.376838 453.086986 
L 921.013649 477.740112 
L 919.41562 494.765752 
L 915.129995 514.106879 
L 909.827442 529.089441 
L 901.98257 542.165133 
L 889.997348 554.968414 
" clip-path="url(#p00dd2d2687)" style="fill: none; stroke: #7a7a7a; stroke-width: 3; stroke-linecap: square"/>
   </g>
   <g id="line2d_99">
    <path d="M 926.025651 282.149565 
L 943.603976 425.709758 
L 948.470703 449.273243 
L 955.080734 471.066062 
L 963.070882 490.952009 
L 972.441146 508.658674 
L 982.900976 523.913647 
L 994.305097 536.444518 
L 1006.362956 546.251286 
L 1019.074555 552.789132 
L 1032.076705 556.058055 
L 1045.296768 555.785644 
L 1058.51683 551.699491 
" clip-path="url(#p00dd2d2687)" style="fill: none; stroke: #7a7a7a; stroke-width: 3; stroke-linecap: square"/>
   </g>
   <g id="line2d_100">
    <path d="M 901.546743 293.045974 
L 919.633533 432.656219 
L 920.941011 447.230166 
L 924.064433 464.800626 
L 930.383913 491.088214 
L 937.865597 515.332725 
L 946.582122 537.670364 
L 956.242938 557.828721 
L 966.775405 575.671591 
L 978.106888 591.198975 
L 990.092109 604.138461 
L 1002.585795 614.626255 
L 1015.587945 622.253741 
L 1028.808008 627.157126 
L 1042.245984 629.200202 
L 1055.756597 628.110561 
L 1069.194573 623.751998 
" clip-path="url(#p00dd2d2687)" style="fill: none; stroke: #7a7a7a; stroke-width: 3; stroke-linecap: square"/>
   </g>
   <g id="line2d_101">
    <path d="M 478.504732 805.858239 
L 655.377551 767.857011 
L 662.205496 766.358755 
" clip-path="url(#p00dd2d2687)" style="fill: none; stroke: #7a7a7a; stroke-width: 3; stroke-linecap: square"/>
   </g>
   <g id="line2d_102">
    <path d="M 483.371458 855.981722 
L 662.205496 812.396084 
" clip-path="url(#p00dd2d2687)" style="fill: none; stroke: #7a7a7a; stroke-width: 3; stroke-linecap: square"/>
   </g>
   <g id="line2d_103">
    <path d="M 662.205496 778.753421 
L 662.641322 778.48101 
L 731.211318 749.333115 
" clip-path="url(#p00dd2d2687)" style="fill: none; stroke: #7a7a7a; stroke-width: 3; stroke-linecap: square"/>
   </g>
   <g id="line2d_104">
    <path d="M 662.205496 820.023571 
L 662.641322 819.887366 
L 734.62529 795.098035 
" clip-path="url(#p00dd2d2687)" style="fill: none; stroke: #7a7a7a; stroke-width: 3; stroke-linecap: square"/>
   </g>
   <g id="line2d_105">
    <path d="M 926.025651 282.149565 
L 949.051804 470.657446 
L 953.845893 497.353649 
L 959.947461 522.14298 
L 967.283869 544.75303 
L 975.709843 565.047592 
L 985.152745 583.026668 
L 995.4673 598.145436 
L 1006.508231 610.540101 
L 1018.202902 619.938254 
L 1030.406037 626.20369 
L 1043.044999 628.927792 
L 1056.047148 628.246766 
L 1069.194573 623.751998 
" clip-path="url(#p00dd2d2687)" style="fill: none; stroke: #7a7a7a; stroke-width: 3; stroke-linecap: square"/>
   </g>
   <g id="line2d_106">
    <path d="M 901.546743 293.045974 
L 919.633533 432.656219 
L 920.941011 446.412935 
L 925.589825 481.553856 
L 929.439623 507.024212 
L 934.451625 530.723903 
L 941.352207 552.652927 
L 949.414993 572.675079 
L 958.567344 590.654154 
L 968.736623 606.453948 
L 979.704917 620.074459 
L 991.472226 631.379484 
L 1003.820636 640.096612 
L 1016.750148 646.225842 
L 1030.115487 649.767175 
L 1043.844013 650.448201 
L 1057.717816 648.132714 
L 1071.736893 642.820714 
" clip-path="url(#p00dd2d2687)" style="fill: none; stroke: #7a7a7a; stroke-width: 3; stroke-linecap: square"/>
   </g>
   <g id="line2d_107">
    <path d="M 548.93607 847.28162 
L 772.765194 765.239319 
" clip-path="url(#p00dd2d2687)" style="fill: none; stroke-dasharray: 32,8,5,8; stroke-dashoffset: 0; stroke: #1e90ff; stroke-width: 5"/>
   </g>
   <g id="line2d_108">
    <path d="M 540.838809 739.158833 
L 145.275416 895.488787 
" clip-path="url(#p00dd2d2687)" style="fill: none; stroke-dasharray: 32,8,5,8; stroke-dashoffset: 0; stroke: #1e90ff; stroke-width: 5"/>
   </g>
   <g id="line2d_109">
    <path d="M 165.534527 1024.637575 
L 166.066541 1031.384649 
" clip-path="url(#p00dd2d2687)" style="fill: none; stroke-dasharray: 32,8,5,8; stroke-dashoffset: 0; stroke: #1e90ff; stroke-width: 5"/>
   </g>
   <g id="line2d_110">
    <path d="M 603.364696 835.762711 
L 604.290401 831.03078 
" clip-path="url(#p00dd2d2687)" style="fill: none; stroke-dasharray: 32,8,5,8; stroke-dashoffset: 0; stroke: #1e90ff; stroke-width: 5"/>
   </g>
   <g id="line2d_111">
    <path d="M 629.773894 663.275025 
L 624.219663 651.64638 
" clip-path="url(#p00dd2d2687)" style="fill: none; stroke-dasharray: 32,8,5,8; stroke-dashoffset: 0; stroke: #1e90ff; stroke-width: 5"/>
   </g>
   <g id="line2d_112">
    <path d="M 765.565265 782.973252 
L 763.302431 786.79737 
" clip-path="url(#p00dd2d2687)" style="fill: none; stroke-dasharray: 32,8,5,8; stroke-dashoffset: 0; stroke: #1e90ff; stroke-width: 5"/>
   </g>
   <g id="line2d_113">
    <path d="M 1209.400104 406.586905 
L 1210.116551 410.041913 
" clip-path="url(#p00dd2d2687)" style="fill: none; stroke-dasharray: 32,8,5,8; stroke-dashoffset: 0; stroke: #1e90ff; stroke-width: 5"/>
   </g>
   <g id="line2d_114">
    <path d="M 679.240599 630.198064 
L 674.892267 638.651028 
" clip-path="url(#p00dd2d2687)" style="fill: none; stroke-dasharray: 32,8,5,8; stroke-dashoffset: 0; stroke: #1e90ff; stroke-width: 5"/>
   </g>
   <g id="line2d_115">
    <path d="M 783.948138 588.548428 
L 782.571994 588.634887 
" clip-path="url(#p00dd2d2687)" style="fill: none; stroke-dasharray: 32,8,5,8; stroke-dashoffset: 0; stroke: #1e90ff; stroke-width: 5"/>
   </g>
   <g id="line2d_116">
    <path d="M 888.630851 735.497655 
L 886.9887 737.200219 
" clip-path="url(#p00dd2d2687)" style="fill: none; stroke-dasharray: 32,8,5,8; stroke-dashoffset: 0; stroke: #1e90ff; stroke-width: 5"/>
   </g>
   <g id="line2d_117">
    <path d="M 1112.935242 442.314146 
L 1098.787204 446.41094 
" clip-path="url(#p00dd2d2687)" style="fill: none; stroke-dasharray: 32,8,5,8; stroke-dashoffset: 0; stroke: #1e90ff; stroke-width: 5"/>
   </g>
   <g id="line2d_118">
    <path d="M 1149.112225 416.872121 
L 1146.221614 414.128731 
" clip-path="url(#p00dd2d2687)" style="fill: none; stroke-dasharray: 32,8,5,8; stroke-dashoffset: 0; stroke: #1e90ff; stroke-width: 5"/>
   </g>
   <g id="line2d_119">
    <path d="M 880.281771 73.196949 
L 880.852799 68.102558 
" clip-path="url(#p00dd2d2687)" style="fill: none; stroke-dasharray: 32,8,5,8; stroke-dashoffset: 0; stroke: #1e90ff; stroke-width: 5"/>
   </g>
   <g id="line2d_120">
    <path d="M 617.899331 743.611436 
L 504.502222 751.452541 
" clip-path="url(#p00dd2d2687)" style="fill: none; stroke-dasharray: 32,8,5,8; stroke-dashoffset: 0; stroke: #1e90ff; stroke-width: 5"/>
   </g>
   <g id="line2d_121">
    <path d="M 548.93607 847.28162 
" clip-path="url(#p00dd2d2687)" style="fill: none; stroke: #0000ff; stroke-width: 1.5; stroke-linecap: square"/>
    <defs>
     <path id="m0cd780ce95" d="M 0 10 
C 2.652031 10 5.195799 8.946337 7.071068 7.071068 
C 8.946337 5.195799 10 2.652031 10 0 
C 10 -2.652031 8.946337 -5.195799 7.071068 -7.071068 
C 5.195799 -8.946337 2.652031 -10 0 -10 
C -2.652031 -10 -5.195799 -8.946337 -7.071068 -7.071068 
C -8.946337 -5.195799 -10 -2.652031 -10 0 
C -10 2.652031 -8.946337 5.195799 -7.071068 7.071068 
C -5.195799 8.946337 -2.652031 10 0 10 
z
" style="stroke: #0000ff"/>
    </defs>
    <g clip-path="url(#p00dd2d2687)">
     <use xlink:href="#m0cd780ce95" x="548.93607" y="847.28162" style="fill: #0000ff; stroke: #0000ff"/>
    </g>
   </g>
   <g id="line2d_122">
    <path d="M 540.838809 739.158833 
" clip-path="url(#p00dd2d2687)" style="fill: none; stroke: #0000ff; stroke-width: 1.5; stroke-linecap: square"/>
    <g clip-path="url(#p00dd2d2687)">
     <use xlink:href="#m0cd780ce95" x="540.838809" y="739.158833" style="fill: #0000ff; stroke: #0000ff"/>
    </g>
   </g>
   <g id="line2d_123">
    <path d="M 165.534527 1024.637575 
" clip-path="url(#p00dd2d2687)" style="fill: none; stroke: #0000ff; stroke-width: 1.5; stroke-linecap: square"/>
    <g clip-path="url(#p00dd2d2687)">
     <use xlink:href="#m0cd780ce95" x="165.534527" y="1024.637575" style="fill: #0000ff; stroke: #0000ff"/>
    </g>
   </g>
   <g id="line2d_124">
    <path d="M 603.364696 835.762711 
" clip-path="url(#p00dd2d2687)" style="fill: none; stroke: #0000ff; stroke-width: 1.5; stroke-linecap: square"/>
    <g clip-path="url(#p00dd2d2687)">
     <use xlink:href="#m0cd780ce95" x="603.364696" y="835.762711" style="fill: #0000ff; stroke: #0000ff"/>
    </g>
   </g>
   <g id="line2d_125">
    <path d="M 629.773894 663.275025 
" clip-path="url(#p00dd2d2687)" style="fill: none; stroke: #0000ff; stroke-width: 1.5; stroke-linecap: square"/>
    <g clip-path="url(#p00dd2d2687)">
     <use xlink:href="#m0cd780ce95" x="629.773894" y="663.275025" style="fill: #0000ff; stroke: #0000ff"/>
    </g>
   </g>
   <g id="line2d_126">
    <path d="M 765.565265 782.973252 
" clip-path="url(#p00dd2d2687)" style="fill: none; stroke: #0000ff; stroke-width: 1.5; stroke-linecap: square"/>
    <g clip-path="url(#p00dd2d2687)">
     <use xlink:href="#m0cd780ce95" x="765.565265" y="782.973252" style="fill: #0000ff; stroke: #0000ff"/>
    </g>
   </g>
   <g id="line2d_127">
    <path d="M 1209.400104 406.586905 
" clip-path="url(#p00dd2d2687)" style="fill: none; stroke: #0000ff; stroke-width: 1.5; stroke-linecap: square"/>
    <g clip-path="url(#p00dd2d2687)">
     <use xlink:href="#m0cd780ce95" x="1209.400104" y="406.586905" style="fill: #0000ff; stroke: #0000ff"/>
    </g>
   </g>
   <g id="line2d_128">
    <path d="M 679.240599 630.198064 
" clip-path="url(#p00dd2d2687)" style="fill: none; stroke: #0000ff; stroke-width: 1.5; stroke-linecap: square"/>
    <g clip-path="url(#p00dd2d2687)">
     <use xlink:href="#m0cd780ce95" x="679.240599" y="630.198064" style="fill: #0000ff; stroke: #0000ff"/>
    </g>
   </g>
   <g id="line2d_129">
    <path d="M 783.948138 588.548428 
" clip-path="url(#p00dd2d2687)" style="fill: none; stroke: #0000ff; stroke-width: 1.5; stroke-linecap: square"/>
    <g clip-path="url(#p00dd2d2687)">
     <use xlink:href="#m0cd780ce95" x="783.948138" y="588.548428" style="fill: #0000ff; stroke: #0000ff"/>
    </g>
   </g>
   <g id="line2d_130">
    <path d="M 888.630851 735.497655 
" clip-path="url(#p00dd2d2687)" style="fill: none; stroke: #0000ff; stroke-width: 1.5; stroke-linecap: square"/>
    <g clip-path="url(#p00dd2d2687)">
     <use xlink:href="#m0cd780ce95" x="888.630851" y="735.497655" style="fill: #0000ff; stroke: #0000ff"/>
    </g>
   </g>
   <g id="line2d_131">
    <path d="M 1112.935242 442.314146 
" clip-path="url(#p00dd2d2687)" style="fill: none; stroke: #0000ff; stroke-width: 1.5; stroke-linecap: square"/>
    <g clip-path="url(#p00dd2d2687)">
     <use xlink:href="#m0cd780ce95" x="1112.935242" y="442.314146" style="fill: #0000ff; stroke: #0000ff"/>
    </g>
   </g>
   <g id="line2d_132">
    <path d="M 1149.112225 416.872121 
" clip-path="url(#p00dd2d2687)" style="fill: none; stroke: #0000ff; stroke-width: 1.5; stroke-linecap: square"/>
    <g clip-path="url(#p00dd2d2687)">
     <use xlink:href="#m0cd780ce95" x="1149.112225" y="416.872121" style="fill: #0000ff; stroke: #0000ff"/>
    </g>
   </g>
   <g id="line2d_133">
    <path d="M 880.281771 73.196949 
" clip-path="url(#p00dd2d2687)" style="fill: none; stroke: #0000ff; stroke-width: 1.5; stroke-linecap: square"/>
    <g clip-path="url(#p00dd2d2687)">
     <use xlink:href="#m0cd780ce95" x="880.281771" y="73.196949" style="fill: #0000ff; stroke: #0000ff"/>
    </g>
   </g>
   <g id="line2d_134">
    <path d="M 617.899331 743.611436 
" clip-path="url(#p00dd2d2687)" style="fill: none; stroke: #0000ff; stroke-width: 1.5; stroke-linecap: square"/>
    <g clip-path="url(#p00dd2d2687)">
     <use xlink:href="#m0cd780ce95" x="617.899331" y="743.611436" style="fill: #0000ff; stroke: #0000ff"/>
    </g>
   </g>
   <g id="line2d_135">
    <path d="M 772.765194 765.239319 
" clip-path="url(#p00dd2d2687)" style="fill: none; stroke: #ff0000; stroke-width: 1.5; stroke-linecap: square"/>
    <defs>
     <path id="m9b9963db3e" d="M 0 -10 
L -2.24514 -3.09017 
L -9.510565 -3.09017 
L -3.632713 1.18034 
L -5.877853 8.09017 
L -0 3.81966 
L 5.877853 8.09017 
L 3.632713 1.18034 
L 9.510565 -3.09017 
L 2.24514 -3.09017 
z
" style="stroke: #ff0000; stroke-linejoin: bevel"/>
    </defs>
    <g clip-path="url(#p00dd2d2687)">
     <use xlink:href="#m9b9963db3e" x="772.765194" y="765.239319" style="fill: #ff0000; stroke: #ff0000; stroke-linejoin: bevel"/>
    </g>
   </g>
   <g id="line2d_136">
    <path d="M 145.275416 895.488787 
" clip-path="url(#p00dd2d2687)" style="fill: none; stroke: #ff0000; stroke-width: 1.5; stroke-linecap: square"/>
    <g clip-path="url(#p00dd2d2687)">
     <use xlink:href="#m9b9963db3e" x="145.275416" y="895.488787" style="fill: #ff0000; stroke: #ff0000; stroke-linejoin: bevel"/>
    </g>
   </g>
   <g id="line2d_137">
    <path d="M 166.066541 1031.384649 
" clip-path="url(#p00dd2d2687)" style="fill: none; stroke: #ff0000; stroke-width: 1.5; stroke-linecap: square"/>
    <g clip-path="url(#p00dd2d2687)">
     <use xlink:href="#m9b9963db3e" x="166.066541" y="1031.384649" style="fill: #ff0000; stroke: #ff0000; stroke-linejoin: bevel"/>
    </g>
   </g>
   <g id="line2d_138">
    <path d="M 604.290401 831.03078 
" clip-path="url(#p00dd2d2687)" style="fill: none; stroke: #ff0000; stroke-width: 1.5; stroke-linecap: square"/>
    <g clip-path="url(#p00dd2d2687)">
     <use xlink:href="#m9b9963db3e" x="604.290401" y="831.03078" style="fill: #ff0000; stroke: #ff0000; stroke-linejoin: bevel"/>
    </g>
   </g>
   <g id="line2d_139">
    <path d="M 624.219663 651.64638 
" clip-path="url(#p00dd2d2687)" style="fill: none; stroke: #ff0000; stroke-width: 1.5; stroke-linecap: square"/>
    <g clip-path="url(#p00dd2d2687)">
     <use xlink:href="#m9b9963db3e" x="624.219663" y="651.64638" style="fill: #ff0000; stroke: #ff0000; stroke-linejoin: bevel"/>
    </g>
   </g>
   <g id="line2d_140">
    <path d="M 763.302431 786.79737 
" clip-path="url(#p00dd2d2687)" style="fill: none; stroke: #ff0000; stroke-width: 1.5; stroke-linecap: square"/>
    <g clip-path="url(#p00dd2d2687)">
     <use xlink:href="#m9b9963db3e" x="763.302431" y="786.79737" style="fill: #ff0000; stroke: #ff0000; stroke-linejoin: bevel"/>
    </g>
   </g>
   <g id="line2d_141">
    <path d="M 1210.116551 410.041913 
" clip-path="url(#p00dd2d2687)" style="fill: none; stroke: #ff0000; stroke-width: 1.5; stroke-linecap: square"/>
    <g clip-path="url(#p00dd2d2687)">
     <use xlink:href="#m9b9963db3e" x="1210.116551" y="410.041913" style="fill: #ff0000; stroke: #ff0000; stroke-linejoin: bevel"/>
    </g>
   </g>
   <g id="line2d_142">
    <path d="M 674.892267 638.651028 
" clip-path="url(#p00dd2d2687)" style="fill: none; stroke: #ff0000; stroke-width: 1.5; stroke-linecap: square"/>
    <g clip-path="url(#p00dd2d2687)">
     <use xlink:href="#m9b9963db3e" x="674.892267" y="638.651028" style="fill: #ff0000; stroke: #ff0000; stroke-linejoin: bevel"/>
    </g>
   </g>
   <g id="line2d_143">
    <path d="M 782.571994 588.634887 
" clip-path="url(#p00dd2d2687)" style="fill: none; stroke: #ff0000; stroke-width: 1.5; stroke-linecap: square"/>
    <g clip-path="url(#p00dd2d2687)">
     <use xlink:href="#m9b9963db3e" x="782.571994" y="588.634887" style="fill: #ff0000; stroke: #ff0000; stroke-linejoin: bevel"/>
    </g>
   </g>
   <g id="line2d_144">
    <path d="M 886.9887 737.200219 
" clip-path="url(#p00dd2d2687)" style="fill: none; stroke: #ff0000; stroke-width: 1.5; stroke-linecap: square"/>
    <g clip-path="url(#p00dd2d2687)">
     <use xlink:href="#m9b9963db3e" x="886.9887" y="737.200219" style="fill: #ff0000; stroke: #ff0000; stroke-linejoin: bevel"/>
    </g>
   </g>
   <g id="line2d_145">
    <path d="M 1098.787204 446.41094 
" clip-path="url(#p00dd2d2687)" style="fill: none; stroke: #ff0000; stroke-width: 1.5; stroke-linecap: square"/>
    <g clip-path="url(#p00dd2d2687)">
     <use xlink:href="#m9b9963db3e" x="1098.787204" y="446.41094" style="fill: #ff0000; stroke: #ff0000; stroke-linejoin: bevel"/>
    </g>
   </g>
   <g id="line2d_146">
    <path d="M 1146.221614 414.128731 
" clip-path="url(#p00dd2d2687)" style="fill: none; stroke: #ff0000; stroke-width: 1.5; stroke-linecap: square"/>
    <g clip-path="url(#p00dd2d2687)">
     <use xlink:href="#m9b9963db3e" x="1146.221614" y="414.128731" style="fill: #ff0000; stroke: #ff0000; stroke-linejoin: bevel"/>
    </g>
   </g>
   <g id="line2d_147">
    <path d="M 880.852799 68.102558 
" clip-path="url(#p00dd2d2687)" style="fill: none; stroke: #ff0000; stroke-width: 1.5; stroke-linecap: square"/>
    <g clip-path="url(#p00dd2d2687)">
     <use xlink:href="#m9b9963db3e" x="880.852799" y="68.102558" style="fill: #ff0000; stroke: #ff0000; stroke-linejoin: bevel"/>
    </g>
   </g>
   <g id="line2d_148">
    <path d="M 504.502222 751.452541 
" clip-path="url(#p00dd2d2687)" style="fill: none; stroke: #ff0000; stroke-width: 1.5; stroke-linecap: square"/>
    <g clip-path="url(#p00dd2d2687)">
     <use xlink:href="#m9b9963db3e" x="504.502222" y="751.452541" style="fill: #ff0000; stroke: #ff0000; stroke-linejoin: bevel"/>
    </g>
   </g>
  </g>
 </g>
 <defs>
  <clipPath id="p00dd2d2687">
   <rect x="0" y="0" width="1440" height="1440"/>
  </clipPath>
 </defs>
</svg>
