<?xml version="1.0" encoding="utf-8" standalone="no"?>
<!DOCTYPE svg PUBLIC "-//W3C//DTD SVG 1.1//EN"
  "http://www.w3.org/Graphics/SVG/1.1/DTD/svg11.dtd">
<svg xmlns:xlink="http://www.w3.org/1999/xlink" width="1440pt" height="1440pt" viewBox="0 0 1440 1440" xmlns="http://www.w3.org/2000/svg" version="1.1">
 <metadata>
  <rdf:RDF xmlns:dc="http://purl.org/dc/elements/1.1/" xmlns:cc="http://creativecommons.org/ns#" xmlns:rdf="http://www.w3.org/1999/02/22-rdf-syntax-ns#">
   <cc:Work>
    <dc:type rdf:resource="http://purl.org/dc/dcmitype/StillImage"/>
    <dc:date>2026-02-27T11:07:27.743355</dc:date>
    <dc:format>image/svg+xml</dc:format>
    <dc:creator>
     <cc:Agent>
      <dc:title>Matplotlib v3.7.3, https://matplotlib.org/</dc:title>
     </cc:Agent>
    </dc:creator>
   </cc:Work>
  </rdf:RDF>
 </metadata>
 <defs>
  <style type="text/css">*{stroke-linejoin: round; stroke-linecap: butt}</style>
 </defs>
 <g id="figure_1">
  <g id="patch_1">
   <path d="M 0 1440 
L 1440 1440 
L 1440 0 
L 0 0 
z
" style="fill: #ffffff"/>
  </g>
  <g id="axes_1">
   <g id="line2d_1">
    <path d="M 445.931445 839.130296 
L 464.470436 835.747838 
L 464.839371 835.642136 
" clip-path="url(#pdc3ca0d30d)" style="fill: none; stroke: #7a7a7a; stroke-width: 3; stroke-linecap: square"/>
   </g>
   <g id="line2d_2">
    <path d="M 445.654744 894.835147 
L 464.470436 891.452689 
L 464.839371 891.346987 
" clip-path="url(#pdc3ca0d30d)" style="fill: none; stroke: #7a7a7a; stroke-width: 3; stroke-linecap: square"/>
   </g>
   <g id="line2d_3">
    <path d="M 464.839371 835.642136 
L 464.470436 835.747838 
L 445.931445 839.130296 
" clip-path="url(#pdc3ca0d30d)" style="fill: none; stroke: #7a7a7a; stroke-width: 3; stroke-linecap: square"/>
   </g>
   <g id="line2d_4">
    <path d="M 464.839371 779.831583 
L 464.470436 779.937285 
L 442.703263 784.376761 
" clip-path="url(#pdc3ca0d30d)" style="fill: none; stroke: #7a7a7a; stroke-width: 3; stroke-linecap: square"/>
   </g>
   <g id="line2d_5">
    <path clip-path="url(#pdc3ca0d30d)" style="fill: none; stroke: #7a7a7a; stroke-width: 3; stroke-linecap: square"/>
   </g>
   <g id="line2d_6">
    <path clip-path="url(#pdc3ca0d30d)" style="fill: none; stroke: #7a7a7a; stroke-width: 3; stroke-linecap: square"/>
   </g>
   <g id="line2d_7">
    <path d="M 168.768915 889.655758 
L 445.931445 839.130296 
" clip-path="url(#pdc3ca0d30d)" style="fill: none; stroke: #7a7a7a; stroke-width: 3; stroke-linecap: square"/>
   </g>
   <g id="line2d_8">
    <path d="M 176.332086 944.19789 
L 284.33785 924.431652 
L 287.566033 923.797441 
L 385.702782 905.722433 
L 445.654744 894.835147 
" clip-path="url(#pdc3ca0d30d)" style="fill: none; stroke: #7a7a7a; stroke-width: 3; stroke-linecap: square"/>
   </g>
   <g id="line2d_9">
    <path d="M 944.837131 -1 
L 945.838571 25.226396 
" clip-path="url(#pdc3ca0d30d)" style="fill: none; stroke: #7a7a7a; stroke-width: 3; stroke-linecap: square"/>
   </g>
   <g id="line2d_10">
    <path d="M 895.586787 -1 
L 896.677962 26.60052 
" clip-path="url(#pdc3ca0d30d)" style="fill: none; stroke: #7a7a7a; stroke-width: 3; stroke-linecap: square"/>
   </g>
   <g id="line2d_11">
    <path d="M 959.673639 388.206395 
L 959.673639 387.466482 
L 959.581405 386.303763 
L 955.430885 290.855033 
" clip-path="url(#pdc3ca0d30d)" style="fill: none; stroke: #7a7a7a; stroke-width: 3; stroke-linecap: square"/>
   </g>
   <g id="line2d_12">
    <path d="M 1009.941053 388.206395 
L 1009.941053 387.360781 
L 1009.848819 386.303763 
L 1006.805104 326.370839 
L 1005.421597 287.261171 
" clip-path="url(#pdc3ca0d30d)" style="fill: none; stroke: #7a7a7a; stroke-width: 3; stroke-linecap: square"/>
   </g>
   <g id="line2d_13">
    <path d="M 955.430885 290.855033 
L 947.959948 79.87423 
" clip-path="url(#pdc3ca0d30d)" style="fill: none; stroke: #7a7a7a; stroke-width: 3; stroke-linecap: square"/>
   </g>
   <g id="line2d_14">
    <path d="M 1005.421597 287.261171 
L 1002.193415 194.560688 
L 1001.916713 181.665068 
L 999.057466 109.893542 
L 997.305024 78.394404 
" clip-path="url(#pdc3ca0d30d)" style="fill: none; stroke: #7a7a7a; stroke-width: 3; stroke-linecap: square"/>
   </g>
   <g id="line2d_15">
    <path d="M 445.931445 839.130296 
L 168.768915 889.655758 
" clip-path="url(#pdc3ca0d30d)" style="fill: none; stroke: #7a7a7a; stroke-width: 3; stroke-linecap: square"/>
   </g>
   <g id="line2d_16">
    <path d="M 442.703263 784.376761 
L 384.688211 794.629836 
L 352.314151 800.232031 
L 161.021277 834.796522 
" clip-path="url(#pdc3ca0d30d)" style="fill: none; stroke: #7a7a7a; stroke-width: 3; stroke-linecap: square"/>
   </g>
   <g id="line2d_17">
    <path d="M 947.959948 79.87423 
L 945.838571 25.226396 
" clip-path="url(#pdc3ca0d30d)" style="fill: none; stroke: #7a7a7a; stroke-width: 3; stroke-linecap: square"/>
   </g>
   <g id="line2d_18">
    <path d="M 997.305024 78.394404 
L 995.275881 23.852273 
" clip-path="url(#pdc3ca0d30d)" style="fill: none; stroke: #7a7a7a; stroke-width: 3; stroke-linecap: square"/>
   </g>
   <g id="line2d_19">
    <path clip-path="url(#pdc3ca0d30d)" style="fill: none; stroke: #7a7a7a; stroke-width: 3; stroke-linecap: square"/>
   </g>
   <g id="line2d_20">
    <path clip-path="url(#pdc3ca0d30d)" style="fill: none; stroke: #7a7a7a; stroke-width: 3; stroke-linecap: square"/>
   </g>
   <g id="line2d_21">
    <path d="M 955.430885 290.855033 
L 959.581405 386.303763 
L 959.673639 387.466482 
L 959.673639 388.206395 
" clip-path="url(#pdc3ca0d30d)" style="fill: none; stroke: #7a7a7a; stroke-width: 3; stroke-linecap: square"/>
   </g>
   <g id="line2d_22">
    <path d="M 906.915913 293.708981 
L 910.051861 386.303763 
L 910.051861 387.466482 
L 910.144095 388.206395 
" clip-path="url(#pdc3ca0d30d)" style="fill: none; stroke: #7a7a7a; stroke-width: 3; stroke-linecap: square"/>
   </g>
   <g id="line2d_23">
    <path d="M 947.959948 79.87423 
L 955.430885 290.855033 
" clip-path="url(#pdc3ca0d30d)" style="fill: none; stroke: #7a7a7a; stroke-width: 3; stroke-linecap: square"/>
   </g>
   <g id="line2d_24">
    <path d="M 898.891573 81.988266 
L 899.352742 93.192657 
L 905.347938 241.597991 
L 906.915913 293.708981 
" clip-path="url(#pdc3ca0d30d)" style="fill: none; stroke: #7a7a7a; stroke-width: 3; stroke-linecap: square"/>
   </g>
   <g id="line2d_25">
    <path d="M 995.275881 1339.522641 
L 995.183647 1338.677026 
L 995.183647 1337.514307 
L 978.858267 889.867162 
" clip-path="url(#pdc3ca0d30d)" style="fill: none; stroke: #7a7a7a; stroke-width: 3; stroke-linecap: square"/>
   </g>
   <g id="line2d_26">
    <path d="M 1044.713191 1339.522641 
L 1044.713191 1338.571325 
L 1044.620957 1337.514307 
L 1036.781085 1144.608512 
L 1035.766513 1093.871646 
L 1028.203343 888.175933 
" clip-path="url(#pdc3ca0d30d)" style="fill: none; stroke: #7a7a7a; stroke-width: 3; stroke-linecap: square"/>
   </g>
   <g id="line2d_27">
    <path d="M 1083.17468 726.98068 
L 840.692054 767.992981 
" clip-path="url(#pdc3ca0d30d)" style="fill: none; stroke: #7a7a7a; stroke-width: 3; stroke-linecap: square"/>
   </g>
   <g id="line2d_28">
    <path d="M 1079.946497 669.478898 
L 848.070757 708.060057 
L 833.497818 710.808304 
" clip-path="url(#pdc3ca0d30d)" style="fill: none; stroke: #7a7a7a; stroke-width: 3; stroke-linecap: square"/>
   </g>
   <g id="line2d_29">
    <path d="M 978.858267 889.867162 
L 975.999019 868.409696 
L 970.003823 848.220651 
L 961.333847 829.405729 
L 950.45026 812.493441 
L 937.53753 797.483784 
L 923.149059 785.010971 
L 907.561549 775.075002 
L 891.143935 768.098683 
L 874.357386 764.399119 
L 857.478603 764.293418 
L 840.692054 767.992981 
" clip-path="url(#pdc3ca0d30d)" style="fill: none; stroke: #7a7a7a; stroke-width: 3; stroke-linecap: square"/>
   </g>
   <g id="line2d_30">
    <path d="M 1028.203343 888.175933 
L 1027.926641 867.986888 
L 1025.620797 848.114949 
L 1021.470276 828.771519 
L 1015.47508 810.062299 
L 1007.819676 792.198694 
L 998.596297 775.497809 
L 987.804944 759.959644 
L 975.630084 745.901303 
L 962.163951 733.534192 
L 947.498779 722.964012 
L 931.634568 714.507867 
L 914.755785 708.271461 
L 896.954664 704.571898 
L 878.231205 703.409178 
L 859.323279 705.100407 
L 850.561069 707.63725 
L 833.497818 710.808304 
" clip-path="url(#pdc3ca0d30d)" style="fill: none; stroke: #7a7a7a; stroke-width: 3; stroke-linecap: square"/>
   </g>
   <g id="line2d_31">
    <path d="M 549.971157 1128.858943 
L 547.019676 915.129893 
" clip-path="url(#pdc3ca0d30d)" style="fill: none; stroke: #7a7a7a; stroke-width: 3; stroke-linecap: square"/>
   </g>
   <g id="line2d_32">
    <path d="M 588.340412 1127.801925 
L 584.189892 910.161909 
" clip-path="url(#pdc3ca0d30d)" style="fill: none; stroke: #7a7a7a; stroke-width: 3; stroke-linecap: square"/>
   </g>
   <g id="line2d_33">
    <path d="M 517.41263 826.234675 
L 464.839371 835.642136 
" clip-path="url(#pdc3ca0d30d)" style="fill: none; stroke: #7a7a7a; stroke-width: 3; stroke-linecap: square"/>
   </g>
   <g id="line2d_34">
    <path d="M 515.660188 770.31842 
L 464.839371 779.831583 
" clip-path="url(#pdc3ca0d30d)" style="fill: none; stroke: #7a7a7a; stroke-width: 3; stroke-linecap: square"/>
   </g>
   <g id="line2d_35">
    <path d="M 967.97468 604.049481 
L 968.528082 623.28721 
L 967.421277 641.996429 
L 964.56203 660.071438 
L 959.858106 677.300832 
L 953.309508 693.57891 
L 944.916233 708.588566 
L 934.493815 722.435503 
L 922.226721 734.696912 
L 907.838251 745.267093 
L 891.420637 754.146044 
L 872.973879 761.016662 
L 852.313511 765.878945 
L 840.692054 767.992981 
" clip-path="url(#pdc3ca0d30d)" style="fill: none; stroke: #7a7a7a; stroke-width: 3; stroke-linecap: square"/>
   </g>
   <g id="line2d_36">
    <path d="M 918.352902 604.895095 
L 917.983967 613.35124 
L 918.260669 626.881071 
L 916.508227 637.028444 
L 913.833447 647.175818 
L 910.328563 656.68898 
L 906.085809 665.779335 
L 901.197418 673.495567 
L 894.556585 681.634606 
L 888.561389 687.659609 
L 880.813751 694.107419 
L 874.265152 698.546895 
L 868.177722 701.717949 
L 864.672838 702.986371 
L 861.813591 704.571898 
L 855.633927 706.157425 
L 850.561069 707.63725 
L 833.497818 710.808304 
" clip-path="url(#pdc3ca0d30d)" style="fill: none; stroke: #7a7a7a; stroke-width: 3; stroke-linecap: square"/>
   </g>
   <g id="line2d_37">
    <path d="M 603.282286 810.802212 
L 591.93753 813.550459 
L 584.097658 822.535112 
L 582.898619 832.048275 
L 584.189892 910.056207 
" clip-path="url(#pdc3ca0d30d)" style="fill: none; stroke: #7a7a7a; stroke-width: 3; stroke-linecap: square"/>
   </g>
   <g id="line2d_38">
    <path d="M 600.884207 754.357448 
L 594.335608 754.780255 
L 584.282126 756.682888 
L 572.1995 764.082014 
L 558.917834 778.985968 
L 548.864351 797.483784 
L 543.883727 817.567127 
L 545.728403 836.699154 
L 547.019676 915.024192 
" clip-path="url(#pdc3ca0d30d)" style="fill: none; stroke: #7a7a7a; stroke-width: 3; stroke-linecap: square"/>
   </g>
   <g id="line2d_39">
    <path d="M 603.282286 810.802212 
L 517.41263 826.234675 
" clip-path="url(#pdc3ca0d30d)" style="fill: none; stroke: #7a7a7a; stroke-width: 3; stroke-linecap: square"/>
   </g>
   <g id="line2d_40">
    <path d="M 600.884207 754.357448 
L 515.660188 770.31842 
" clip-path="url(#pdc3ca0d30d)" style="fill: none; stroke: #7a7a7a; stroke-width: 3; stroke-linecap: square"/>
   </g>
   <g id="line2d_41">
    <path d="M 464.839371 835.642136 
L 517.41263 826.234675 
" clip-path="url(#pdc3ca0d30d)" style="fill: none; stroke: #7a7a7a; stroke-width: 3; stroke-linecap: square"/>
   </g>
   <g id="line2d_42">
    <path d="M 464.839371 891.346987 
L 519.165072 881.622421 
" clip-path="url(#pdc3ca0d30d)" style="fill: none; stroke: #7a7a7a; stroke-width: 3; stroke-linecap: square"/>
   </g>
   <g id="line2d_43">
    <path d="M 840.692054 767.992981 
L 639.622398 804.2487 
" clip-path="url(#pdc3ca0d30d)" style="fill: none; stroke: #7a7a7a; stroke-width: 3; stroke-linecap: square"/>
   </g>
   <g id="line2d_44">
    <path d="M 833.497818 710.808304 
L 796.604303 717.890325 
L 790.332406 718.947343 
L 630.491253 748.860954 
" clip-path="url(#pdc3ca0d30d)" style="fill: none; stroke: #7a7a7a; stroke-width: 3; stroke-linecap: square"/>
   </g>
   <g id="line2d_45">
    <path d="M 1083.17468 726.98068 
L 1060.669636 734.062701 
L 1041.485008 743.153057 
L 1025.251861 754.040342 
L 1011.877962 766.724559 
L 1001.178843 780.994303 
L 992.785568 796.63817 
L 986.605905 813.444757 
L 982.270917 831.414064 
L 979.688371 850.228985 
L 978.673799 869.678117 
L 978.858267 889.867162 
" clip-path="url(#pdc3ca0d30d)" style="fill: none; stroke: #7a7a7a; stroke-width: 3; stroke-linecap: square"/>
   </g>
   <g id="line2d_46">
    <path d="M 1079.946497 669.478898 
L 1057.718155 672.227145 
L 1037.334488 677.300832 
L 1018.88773 684.382853 
L 1002.193415 693.473208 
L 987.343775 704.360494 
L 974.154343 716.833307 
L 962.717354 730.680244 
L 952.940572 745.6899 
L 944.823999 761.756574 
L 938.2754 778.774565 
L 933.202542 796.426766 
L 929.697658 814.607477 
L 927.668515 832.999591 
L 927.115112 851.70881 
L 927.852982 870.206626 
L 929.328723 896.526376 
" clip-path="url(#pdc3ca0d30d)" style="fill: none; stroke: #7a7a7a; stroke-width: 3; stroke-linecap: square"/>
   </g>
   <g id="line2d_47">
    <path d="M 1294.943455 715.670587 
L 1083.17468 726.98068 
" clip-path="url(#pdc3ca0d30d)" style="fill: none; stroke: #7a7a7a; stroke-width: 3; stroke-linecap: square"/>
   </g>
   <g id="line2d_48">
    <path d="M 1294.943455 661.234158 
L 1251.22464 663.242492 
L 1105.495256 669.161793 
L 1094.888371 669.161793 
L 1088.339772 668.633284 
L 1079.946497 669.478898 
" clip-path="url(#pdc3ca0d30d)" style="fill: none; stroke: #7a7a7a; stroke-width: 3; stroke-linecap: square"/>
   </g>
   <g id="line2d_49">
    <path d="M 967.97468 604.049481 
L 959.673639 388.840606 
L 959.673639 388.206395 
" clip-path="url(#pdc3ca0d30d)" style="fill: none; stroke: #7a7a7a; stroke-width: 3; stroke-linecap: square"/>
   </g>
   <g id="line2d_50">
    <path d="M 1017.873159 603.098165 
L 1014.368275 509.234962 
L 1012.984768 478.792842 
L 1009.941053 388.840606 
L 1009.941053 388.206395 
" clip-path="url(#pdc3ca0d30d)" style="fill: none; stroke: #7a7a7a; stroke-width: 3; stroke-linecap: square"/>
   </g>
   <g id="line2d_51">
    <path d="M 978.858267 889.867162 
L 967.97468 604.049481 
" clip-path="url(#pdc3ca0d30d)" style="fill: none; stroke: #7a7a7a; stroke-width: 3; stroke-linecap: square"/>
   </g>
   <g id="line2d_52">
    <path d="M 1028.203343 888.175933 
L 1017.873159 603.098165 
" clip-path="url(#pdc3ca0d30d)" style="fill: none; stroke: #7a7a7a; stroke-width: 3; stroke-linecap: square"/>
   </g>
   <g id="line2d_53">
    <path d="M 547.019676 915.129893 
L 546.650741 894.41234 
L 546.742974 876.443033 
L 552.277002 858.15662 
L 561.961549 841.13863 
L 574.597578 826.551781 
L 588.709347 815.9816 
L 603.282286 810.802212 
" clip-path="url(#pdc3ca0d30d)" style="fill: none; stroke: #7a7a7a; stroke-width: 3; stroke-linecap: square"/>
   </g>
   <g id="line2d_54">
    <path d="M 584.189892 910.161909 
L 583.820957 889.444355 
L 584.374359 884.582072 
L 584.835528 876.231629 
L 586.403503 872.954873 
L 589.354984 870.840837 
L 593.505504 869.043906 
L 605.588131 865.978554 
" clip-path="url(#pdc3ca0d30d)" style="fill: none; stroke: #7a7a7a; stroke-width: 3; stroke-linecap: square"/>
   </g>
   <g id="line2d_55">
    <path d="M 967.97468 604.049481 
L 978.858267 889.867162 
" clip-path="url(#pdc3ca0d30d)" style="fill: none; stroke: #7a7a7a; stroke-width: 3; stroke-linecap: square"/>
   </g>
   <g id="line2d_56">
    <path d="M 918.352902 604.895095 
L 929.328723 896.526376 
" clip-path="url(#pdc3ca0d30d)" style="fill: none; stroke: #7a7a7a; stroke-width: 3; stroke-linecap: square"/>
   </g>
   <g id="line2d_57">
    <path d="M 547.019676 915.129893 
L 545.91287 846.740826 
L 542.315753 836.170645 
L 532.26227 828.24301 
L 517.41263 826.234675 
" clip-path="url(#pdc3ca0d30d)" style="fill: none; stroke: #7a7a7a; stroke-width: 3; stroke-linecap: square"/>
   </g>
   <g id="line2d_58">
    <path d="M 584.189892 910.161909 
L 583.083086 841.772841 
L 580.039371 822.218007 
L 572.107266 804.2487 
L 560.393575 788.921938 
L 546.189572 777.506143 
L 530.878763 770.952631 
L 515.660188 770.31842 
" clip-path="url(#pdc3ca0d30d)" style="fill: none; stroke: #7a7a7a; stroke-width: 3; stroke-linecap: square"/>
   </g>
   <g id="line2d_59">
    <path d="M 840.692054 767.992981 
L 857.478603 764.293418 
L 874.357386 764.399119 
L 891.143935 768.098683 
L 907.561549 775.075002 
L 923.149059 785.010971 
L 937.53753 797.483784 
L 950.45026 812.493441 
L 961.333847 829.405729 
L 970.003823 848.220651 
L 975.999019 868.409696 
L 978.858267 889.867162 
" clip-path="url(#pdc3ca0d30d)" style="fill: none; stroke: #7a7a7a; stroke-width: 3; stroke-linecap: square"/>
   </g>
   <g id="line2d_60">
    <path d="M 846.871717 821.900901 
L 860.799019 820.63248 
L 876.017594 825.389061 
L 891.420637 834.69082 
L 905.62464 847.692142 
L 917.522798 863.124605 
L 919.644175 867.352678 
L 923.794696 874.751804 
L 925.823839 879.719789 
L 927.391813 885.427686 
L 929.328723 896.526376 
" clip-path="url(#pdc3ca0d30d)" style="fill: none; stroke: #7a7a7a; stroke-width: 3; stroke-linecap: square"/>
   </g>
   <g id="line2d_61">
    <path d="M 639.622398 804.2487 
L 603.282286 810.802212 
" clip-path="url(#pdc3ca0d30d)" style="fill: none; stroke: #7a7a7a; stroke-width: 3; stroke-linecap: square"/>
   </g>
   <g id="line2d_62">
    <path d="M 630.491253 748.860954 
L 600.884207 754.357448 
" clip-path="url(#pdc3ca0d30d)" style="fill: none; stroke: #7a7a7a; stroke-width: 3; stroke-linecap: square"/>
   </g>
   <g id="line2d_63">
    <path d="M 959.673639 388.206395 
L 959.673639 388.840606 
L 967.97468 604.049481 
" clip-path="url(#pdc3ca0d30d)" style="fill: none; stroke: #7a7a7a; stroke-width: 3; stroke-linecap: square"/>
   </g>
   <g id="line2d_64">
    <path d="M 910.144095 388.206395 
L 910.144095 388.946308 
L 918.352902 604.895095 
" clip-path="url(#pdc3ca0d30d)" style="fill: none; stroke: #7a7a7a; stroke-width: 3; stroke-linecap: square"/>
   </g>
   <g id="line2d_65">
    <path d="M 639.622398 804.2487 
L 840.692054 767.992981 
" clip-path="url(#pdc3ca0d30d)" style="fill: none; stroke: #7a7a7a; stroke-width: 3; stroke-linecap: square"/>
   </g>
   <g id="line2d_66">
    <path d="M 648.476841 858.262322 
L 699.113191 849.171967 
L 830.638571 824.649148 
L 843.182366 822.852218 
L 846.871717 821.900901 
" clip-path="url(#pdc3ca0d30d)" style="fill: none; stroke: #7a7a7a; stroke-width: 3; stroke-linecap: square"/>
   </g>
   <g id="line2d_67">
    <path d="M 840.692054 767.992981 
L 852.313511 765.878945 
L 872.973879 761.016662 
L 891.420637 754.146044 
L 907.838251 745.267093 
L 922.226721 734.696912 
L 934.493815 722.435503 
L 944.916233 708.588566 
L 953.309508 693.57891 
L 959.858106 677.300832 
L 964.56203 660.071438 
L 967.421277 641.996429 
L 968.528082 623.28721 
L 967.97468 604.049481 
" clip-path="url(#pdc3ca0d30d)" style="fill: none; stroke: #7a7a7a; stroke-width: 3; stroke-linecap: square"/>
   </g>
   <g id="line2d_68">
    <path d="M 846.871717 821.900901 
L 865.964111 817.778531 
L 886.255544 812.387739 
L 905.071237 806.151332 
L 922.411189 798.752206 
L 938.2754 790.401763 
L 952.663871 780.782899 
L 965.668835 769.895613 
L 977.198058 757.739906 
L 987.251541 744.210075 
L 995.829283 729.200418 
L 1003.115753 712.499533 
L 1008.834247 694.213121 
L 1013.169235 674.23548 
L 1016.120717 652.460908 
L 1017.688691 628.783703 
L 1017.873159 603.098165 
" clip-path="url(#pdc3ca0d30d)" style="fill: none; stroke: #7a7a7a; stroke-width: 3; stroke-linecap: square"/>
   </g>
   <g id="line2d_69">
    <path d="M 517.41263 826.234675 
L 532.446737 826.763184 
L 547.665312 833.316696 
L 561.777082 844.732491 
L 573.398539 859.953551 
L 581.238411 877.711454 
L 584.005424 896.843481 
L 584.189892 910.056207 
" clip-path="url(#pdc3ca0d30d)" style="fill: none; stroke: #7a7a7a; stroke-width: 3; stroke-linecap: square"/>
   </g>
   <g id="line2d_70">
    <path d="M 519.165072 881.622421 
L 535.767154 879.614087 
L 538.810869 880.776807 
L 540.655544 882.468036 
L 542.407986 886.061897 
L 544.344896 891.664093 
L 545.543935 897.900499 
L 546.835208 901.494361 
L 547.019676 915.024192 
" clip-path="url(#pdc3ca0d30d)" style="fill: none; stroke: #7a7a7a; stroke-width: 3; stroke-linecap: square"/>
   </g>
   <g id="line2d_71">
    <path d="M 1083.17468 726.98068 
L 1294.943455 715.670587 
" clip-path="url(#pdc3ca0d30d)" style="fill: none; stroke: #7a7a7a; stroke-width: 3; stroke-linecap: square"/>
   </g>
   <g id="line2d_72">
    <path d="M 1087.878603 763.2364 
L 1113.888531 759.642538 
L 1167.476361 757.317098 
L 1251.593575 774.546493 
L 1294.666753 772.855264 
L 1294.943455 772.855264 
" clip-path="url(#pdc3ca0d30d)" style="fill: none; stroke: #7a7a7a; stroke-width: 3; stroke-linecap: square"/>
   </g>
   <g id="line2d_73">
    <path d="M 967.97468 604.049481 
L 971.202862 638.402568 
L 977.751461 665.673633 
L 987.159307 686.708293 
L 998.688531 702.140756 
L 1011.877962 713.028042 
L 1026.174199 720.004361 
L 1040.931605 724.126732 
L 1055.781245 726.135066 
L 1070.077482 726.769277 
L 1083.17468 726.98068 
" clip-path="url(#pdc3ca0d30d)" style="fill: none; stroke: #7a7a7a; stroke-width: 3; stroke-linecap: square"/>
   </g>
   <g id="line2d_74">
    <path d="M 918.352902 604.895095 
L 920.382046 633.223179 
L 924.163631 658.380209 
L 929.605424 680.471886 
L 936.707426 699.815316 
L 945.100701 716.304798 
L 954.969716 730.257436 
L 966.03777 741.884635 
L 978.304864 751.080692 
L 991.586529 758.162713 
L 1005.882766 763.2364 
L 1021.009107 766.407454 
L 1036.781085 767.887279 
L 1053.290933 767.781577 
L 1070.354183 766.090348 
L 1087.878603 763.2364 
" clip-path="url(#pdc3ca0d30d)" style="fill: none; stroke: #7a7a7a; stroke-width: 3; stroke-linecap: square"/>
   </g>
   <g id="line2d_75">
    <path d="M 840.692054 767.992981 
L 1083.17468 726.98068 
" clip-path="url(#pdc3ca0d30d)" style="fill: none; stroke: #7a7a7a; stroke-width: 3; stroke-linecap: square"/>
   </g>
   <g id="line2d_76">
    <path d="M 846.871717 821.900901 
L 1087.878603 763.2364 
" clip-path="url(#pdc3ca0d30d)" style="fill: none; stroke: #7a7a7a; stroke-width: 3; stroke-linecap: square"/>
   </g>
   <g id="line2d_77">
    <path d="M 584.189892 910.056207 
L 588.340412 1127.801925 
" clip-path="url(#pdc3ca0d30d)" style="fill: none; stroke: #7a7a7a; stroke-width: 3; stroke-linecap: square"/>
   </g>
   <g id="line2d_78">
    <path d="M 547.019676 915.024192 
L 549.971157 1128.858943 
" clip-path="url(#pdc3ca0d30d)" style="fill: none; stroke: #7a7a7a; stroke-width: 3; stroke-linecap: square"/>
   </g>
   <g id="line2d_79">
    <path d="M 603.282286 810.802212 
L 639.622398 804.2487 
" clip-path="url(#pdc3ca0d30d)" style="fill: none; stroke: #7a7a7a; stroke-width: 3; stroke-linecap: square"/>
   </g>
   <g id="line2d_80">
    <path d="M 605.588131 865.978554 
L 648.476841 858.262322 
" clip-path="url(#pdc3ca0d30d)" style="fill: none; stroke: #7a7a7a; stroke-width: 3; stroke-linecap: square"/>
   </g>
   <g id="line2d_81">
    <path d="M 978.858267 889.867162 
L 978.673799 869.678117 
L 979.688371 850.228985 
L 982.270917 831.414064 
L 986.605905 813.444757 
L 992.785568 796.63817 
L 1001.178843 780.994303 
L 1011.877962 766.724559 
L 1025.251861 754.040342 
L 1041.485008 743.153057 
L 1060.669636 734.062701 
L 1083.17468 726.98068 
" clip-path="url(#pdc3ca0d30d)" style="fill: none; stroke: #7a7a7a; stroke-width: 3; stroke-linecap: square"/>
   </g>
   <g id="line2d_82">
    <path d="M 1028.203343 888.175933 
L 1028.295576 852.765828 
L 1031.339291 826.023272 
L 1036.873319 806.362736 
L 1044.528723 792.410098 
L 1053.844335 782.685532 
L 1064.451221 775.497809 
L 1087.878603 763.2364 
" clip-path="url(#pdc3ca0d30d)" style="fill: none; stroke: #7a7a7a; stroke-width: 3; stroke-linecap: square"/>
   </g>
   <g id="line2d_83">
    <path d="M 1083.17468 726.98068 
L 1070.077482 726.769277 
L 1055.781245 726.135066 
L 1040.931605 724.126732 
L 1026.174199 720.004361 
L 1011.877962 713.028042 
L 998.688531 702.140756 
L 987.159307 686.708293 
L 977.751461 665.673633 
L 971.202862 638.402568 
L 967.97468 604.049481 
" clip-path="url(#pdc3ca0d30d)" style="fill: none; stroke: #7a7a7a; stroke-width: 3; stroke-linecap: square"/>
   </g>
   <g id="line2d_84">
    <path d="M 1079.946497 669.478898 
L 1059.56283 658.697314 
L 1043.606385 646.118799 
L 1031.708227 632.800372 
L 1023.314952 619.481945 
L 1017.965392 607.114833 
L 1017.873159 603.098165 
" clip-path="url(#pdc3ca0d30d)" style="fill: none; stroke: #7a7a7a; stroke-width: 3; stroke-linecap: square"/>
   </g>
   <g id="line2d_85">
    <path d="M 978.858267 889.867162 
L 995.183647 1337.514307 
L 995.183647 1338.677026 
L 995.275881 1339.522641 
" clip-path="url(#pdc3ca0d30d)" style="fill: none; stroke: #7a7a7a; stroke-width: 3; stroke-linecap: square"/>
   </g>
   <g id="line2d_86">
    <path d="M 929.328723 896.526376 
L 932.18797 935.318938 
L 934.954984 1025.165473 
L 935.785088 1058.461541 
L 938.459868 1108.141389 
L 941.595817 1185.198005 
L 944.086129 1286.037527 
L 946.023038 1337.514307 
L 946.023038 1338.677026 
L 946.115272 1339.522641 
" clip-path="url(#pdc3ca0d30d)" style="fill: none; stroke: #7a7a7a; stroke-width: 3; stroke-linecap: square"/>
   </g>
   <g id="line2d_87">
    <path d="M 517.41263 826.234675 
L 603.282286 810.802212 
" clip-path="url(#pdc3ca0d30d)" style="fill: none; stroke: #7a7a7a; stroke-width: 3; stroke-linecap: square"/>
   </g>
   <g id="line2d_88">
    <path d="M 519.165072 881.622421 
L 605.588131 865.978554 
" clip-path="url(#pdc3ca0d30d)" style="fill: none; stroke: #7a7a7a; stroke-width: 3; stroke-linecap: square"/>
   </g>
   <g id="line2d_89">
    <path d="M 945.838571 25.226396 
L 947.959948 79.87423 
" clip-path="url(#pdc3ca0d30d)" style="fill: none; stroke: #7a7a7a; stroke-width: 3; stroke-linecap: square"/>
   </g>
   <g id="line2d_90">
    <path d="M 896.677962 26.60052 
L 898.430404 70.466769 
L 898.891573 81.988266 
" clip-path="url(#pdc3ca0d30d)" style="fill: none; stroke: #7a7a7a; stroke-width: 3; stroke-linecap: square"/>
   </g>
   <g id="line2d_91">
    <path d="M 945.838571 25.226396 
L 944.837131 -1 
" clip-path="url(#pdc3ca0d30d)" style="fill: none; stroke: #7a7a7a; stroke-width: 3; stroke-linecap: square"/>
   </g>
   <g id="line2d_92">
    <path d="M 995.275881 23.852273 
L 994.387122 -1 
" clip-path="url(#pdc3ca0d30d)" style="fill: none; stroke: #7a7a7a; stroke-width: 3; stroke-linecap: square"/>
   </g>
   <g id="line2d_93">
    <path d="M 853.410228 742.082929 
L 860.890713 743.899034 
" clip-path="url(#pdc3ca0d30d)" style="fill: none; stroke-dasharray: 32,8,5,8; stroke-dashoffset: 0; stroke: #1e90ff; stroke-width: 5"/>
   </g>
   <g id="line2d_94">
    <path d="M 185.989792 928.164944 
L 184.467574 920.425048 
" clip-path="url(#pdc3ca0d30d)" style="fill: none; stroke-dasharray: 32,8,5,8; stroke-dashoffset: 0; stroke: #1e90ff; stroke-width: 5"/>
   </g>
   <g id="line2d_95">
    <path d="M 512.203763 788.664884 
L 511.140913 786.459107 
" clip-path="url(#pdc3ca0d30d)" style="fill: none; stroke-dasharray: 32,8,5,8; stroke-dashoffset: 0; stroke: #1e90ff; stroke-width: 5"/>
   </g>
   <g id="line2d_96">
    <path d="M 399.933447 859.975538 
L 398.334668 861.477453 
" clip-path="url(#pdc3ca0d30d)" style="fill: none; stroke-dasharray: 32,8,5,8; stroke-dashoffset: 0; stroke: #1e90ff; stroke-width: 5"/>
   </g>
   <g id="line2d_97">
    <path d="M 292.729684 910.352925 
L 290.991293 911.310977 
" clip-path="url(#pdc3ca0d30d)" style="fill: none; stroke-dasharray: 32,8,5,8; stroke-dashoffset: 0; stroke: #1e90ff; stroke-width: 5"/>
   </g>
   <g id="line2d_98">
    <path d="M 984.92444 596.446822 
L 999.673739 670.372925 
" clip-path="url(#pdc3ca0d30d)" style="fill: none; stroke-dasharray: 32,8,5,8; stroke-dashoffset: 0; stroke: #1e90ff; stroke-width: 5"/>
   </g>
   <g id="line2d_99">
    <path d="M 695.09958 836.764237 
L 691.163431 836.517144 
" clip-path="url(#pdc3ca0d30d)" style="fill: none; stroke-dasharray: 32,8,5,8; stroke-dashoffset: 0; stroke: #1e90ff; stroke-width: 5"/>
   </g>
   <g id="line2d_100">
    <path d="M 555.888711 995.250494 
L 554.213371 1005.829707 
" clip-path="url(#pdc3ca0d30d)" style="fill: none; stroke-dasharray: 32,8,5,8; stroke-dashoffset: 0; stroke: #1e90ff; stroke-width: 5"/>
   </g>
   <g id="line2d_101">
    <path d="M 1299.194856 752.971815 
L 1301.649319 748.969933 
" clip-path="url(#pdc3ca0d30d)" style="fill: none; stroke-dasharray: 32,8,5,8; stroke-dashoffset: 0; stroke: #1e90ff; stroke-width: 5"/>
   </g>
   <g id="line2d_102">
    <path d="M 970.553443 118.844209 
L 958.006405 52.850903 
" clip-path="url(#pdc3ca0d30d)" style="fill: none; stroke-dasharray: 32,8,5,8; stroke-dashoffset: 0; stroke: #1e90ff; stroke-width: 5"/>
   </g>
   <g id="line2d_103">
    <path d="M 1018.471777 1122.894585 
L 1019.030224 1122.391366 
" clip-path="url(#pdc3ca0d30d)" style="fill: none; stroke-dasharray: 32,8,5,8; stroke-dashoffset: 0; stroke: #1e90ff; stroke-width: 5"/>
   </g>
   <g id="line2d_104">
    <path d="M 946.666333 687.665596 
L 833.576361 739.233935 
" clip-path="url(#pdc3ca0d30d)" style="fill: none; stroke-dasharray: 32,8,5,8; stroke-dashoffset: 0; stroke: #1e90ff; stroke-width: 5"/>
   </g>
   <g id="line2d_105">
    <path d="M 853.410228 742.082929 
" clip-path="url(#pdc3ca0d30d)" style="fill: none; stroke: #0000ff; stroke-width: 1.5; stroke-linecap: square"/>
    <defs>
     <path id="m76ec0705de" d="M 0 10 
C 2.652031 10 5.195799 8.946337 7.071068 7.071068 
C 8.946337 5.195799 10 2.652031 10 0 
C 10 -2.652031 8.946337 -5.195799 7.071068 -7.071068 
C 5.195799 -8.946337 2.652031 -10 0 -10 
C -2.652031 -10 -5.195799 -8.946337 -7.071068 -7.071068 
C -8.946337 -5.195799 -10 -2.652031 -10 0 
C -10 2.652031 -8.946337 5.195799 -7.071068 7.071068 
C -5.195799 8.946337 -2.652031 10 0 10 
z
" style="stroke: #0000ff"/>
    </defs>
    <g clip-path="url(#pdc3ca0d30d)">
     <use xlink:href="#m76ec0705de" x="853.410228" y="742.082929" style="fill: #0000ff; stroke: #0000ff"/>
    </g>
   </g>
   <g id="line2d_106">
    <path d="M 185.989792 928.164944 
" clip-path="url(#pdc3ca0d30d)" style="fill: none; stroke: #0000ff; stroke-width: 1.5; stroke-linecap: square"/>
    <g clip-path="url(#pdc3ca0d30d)">
     <use xlink:href="#m76ec0705de" x="185.989792" y="928.164944" style="fill: #0000ff; stroke: #0000ff"/>
    </g>
   </g>
   <g id="line2d_107">
    <path d="M 512.203763 788.664884 
" clip-path="url(#pdc3ca0d30d)" style="fill: none; stroke: #0000ff; stroke-width: 1.5; stroke-linecap: square"/>
    <g clip-path="url(#pdc3ca0d30d)">
     <use xlink:href="#m76ec0705de" x="512.203763" y="788.664884" style="fill: #0000ff; stroke: #0000ff"/>
    </g>
   </g>
   <g id="line2d_108">
    <path d="M 399.933447 859.975538 
" clip-path="url(#pdc3ca0d30d)" style="fill: none; stroke: #0000ff; stroke-width: 1.5; stroke-linecap: square"/>
    <g clip-path="url(#pdc3ca0d30d)">
     <use xlink:href="#m76ec0705de" x="399.933447" y="859.975538" style="fill: #0000ff; stroke: #0000ff"/>
    </g>
   </g>
   <g id="line2d_109">
    <path d="M 292.729684 910.352925 
" clip-path="url(#pdc3ca0d30d)" style="fill: none; stroke: #0000ff; stroke-width: 1.5; stroke-linecap: square"/>
    <g clip-path="url(#pdc3ca0d30d)">
     <use xlink:href="#m76ec0705de" x="292.729684" y="910.352925" style="fill: #0000ff; stroke: #0000ff"/>
    </g>
   </g>
   <g id="line2d_110">
    <path d="M 984.92444 596.446822 
" clip-path="url(#pdc3ca0d30d)" style="fill: none; stroke: #0000ff; stroke-width: 1.5; stroke-linecap: square"/>
    <g clip-path="url(#pdc3ca0d30d)">
     <use xlink:href="#m76ec0705de" x="984.92444" y="596.446822" style="fill: #0000ff; stroke: #0000ff"/>
    </g>
   </g>
   <g id="line2d_111">
    <path d="M 695.09958 836.764237 
" clip-path="url(#pdc3ca0d30d)" style="fill: none; stroke: #0000ff; stroke-width: 1.5; stroke-linecap: square"/>
    <g clip-path="url(#pdc3ca0d30d)">
     <use xlink:href="#m76ec0705de" x="695.09958" y="836.764237" style="fill: #0000ff; stroke: #0000ff"/>
    </g>
   </g>
   <g id="line2d_112">
    <path d="M 555.888711 995.250494 
" clip-path="url(#pdc3ca0d30d)" style="fill: none; stroke: #0000ff; stroke-width: 1.5; stroke-linecap: square"/>
    <g clip-path="url(#pdc3ca0d30d)">
     <use xlink:href="#m76ec0705de" x="555.888711" y="995.250494" style="fill: #0000ff; stroke: #0000ff"/>
    </g>
   </g>
   <g id="line2d_113">
    <path d="M 1299.194856 752.971815 
" clip-path="url(#pdc3ca0d30d)" style="fill: none; stroke: #0000ff; stroke-width: 1.5; stroke-linecap: square"/>
    <g clip-path="url(#pdc3ca0d30d)">
     <use xlink:href="#m76ec0705de" x="1299.194856" y="752.971815" style="fill: #0000ff; stroke: #0000ff"/>
    </g>
   </g>
   <g id="line2d_114">
    <path d="M 970.553443 118.844209 
" clip-path="url(#pdc3ca0d30d)" style="fill: none; stroke: #0000ff; stroke-width: 1.5; stroke-linecap: square"/>
    <g clip-path="url(#pdc3ca0d30d)">
     <use xlink:href="#m76ec0705de" x="970.553443" y="118.844209" style="fill: #0000ff; stroke: #0000ff"/>
    </g>
   </g>
   <g id="line2d_115">
    <path d="M 1018.471777 1122.894585 
" clip-path="url(#pdc3ca0d30d)" style="fill: none; stroke: #0000ff; stroke-width: 1.5; stroke-linecap: square"/>
    <g clip-path="url(#pdc3ca0d30d)">
     <use xlink:href="#m76ec0705de" x="1018.471777" y="1122.894585" style="fill: #0000ff; stroke: #0000ff"/>
    </g>
   </g>
   <g id="line2d_116">
    <path d="M 946.666333 687.665596 
" clip-path="url(#pdc3ca0d30d)" style="fill: none; stroke: #0000ff; stroke-width: 1.5; stroke-linecap: square"/>
    <g clip-path="url(#pdc3ca0d30d)">
     <use xlink:href="#m76ec0705de" x="946.666333" y="687.665596" style="fill: #0000ff; stroke: #0000ff"/>
    </g>
   </g>
   <g id="line2d_117">
    <path d="M 860.890713 743.899034 
" clip-path="url(#pdc3ca0d30d)" style="fill: none; stroke: #ff0000; stroke-width: 1.5; stroke-linecap: square"/>
    <defs>
     <path id="md3017aa76c" d="M 0 -10 
L -2.24514 -3.09017 
L -9.510565 -3.09017 
L -3.632713 1.18034 
L -5.877853 8.09017 
L -0 3.81966 
L 5.877853 8.09017 
L 3.632713 1.18034 
L 9.510565 -3.09017 
L 2.24514 -3.09017 
z
" style="stroke: #ff0000; stroke-linejoin: bevel"/>
    </defs>
    <g clip-path="url(#pdc3ca0d30d)">
     <use xlink:href="#md3017aa76c" x="860.890713" y="743.899034" style="fill: #ff0000; stroke: #ff0000; stroke-linejoin: bevel"/>
    </g>
   </g>
   <g id="line2d_118">
    <path d="M 184.467574 920.425048 
" clip-path="url(#pdc3ca0d30d)" style="fill: none; stroke: #ff0000; stroke-width: 1.5; stroke-linecap: square"/>
    <g clip-path="url(#pdc3ca0d30d)">
     <use xlink:href="#md3017aa76c" x="184.467574" y="920.425048" style="fill: #ff0000; stroke: #ff0000; stroke-linejoin: bevel"/>
    </g>
   </g>
   <g id="line2d_119">
    <path d="M 511.140913 786.459107 
" clip-path="url(#pdc3ca0d30d)" style="fill: none; stroke: #ff0000; stroke-width: 1.5; stroke-linecap: square"/>
    <g clip-path="url(#pdc3ca0d30d)">
     <use xlink:href="#md3017aa76c" x="511.140913" y="786.459107" style="fill: #ff0000; stroke: #ff0000; stroke-linejoin: bevel"/>
    </g>
   </g>
   <g id="line2d_120">
    <path d="M 398.334668 861.477453 
" clip-path="url(#pdc3ca0d30d)" style="fill: none; stroke: #ff0000; stroke-width: 1.5; stroke-linecap: square"/>
    <g clip-path="url(#pdc3ca0d30d)">
     <use xlink:href="#md3017aa76c" x="398.334668" y="861.477453" style="fill: #ff0000; stroke: #ff0000; stroke-linejoin: bevel"/>
    </g>
   </g>
   <g id="line2d_121">
    <path d="M 290.991293 911.310977 
" clip-path="url(#pdc3ca0d30d)" style="fill: none; stroke: #ff0000; stroke-width: 1.5; stroke-linecap: square"/>
    <g clip-path="url(#pdc3ca0d30d)">
     <use xlink:href="#md3017aa76c" x="290.991293" y="911.310977" style="fill: #ff0000; stroke: #ff0000; stroke-linejoin: bevel"/>
    </g>
   </g>
   <g id="line2d_122">
    <path d="M 999.673739 670.372925 
" clip-path="url(#pdc3ca0d30d)" style="fill: none; stroke: #ff0000; stroke-width: 1.5; stroke-linecap: square"/>
    <g clip-path="url(#pdc3ca0d30d)">
     <use xlink:href="#md3017aa76c" x="999.673739" y="670.372925" style="fill: #ff0000; stroke: #ff0000; stroke-linejoin: bevel"/>
    </g>
   </g>
   <g id="line2d_123">
    <path d="M 691.163431 836.517144 
" clip-path="url(#pdc3ca0d30d)" style="fill: none; stroke: #ff0000; stroke-width: 1.5; stroke-linecap: square"/>
    <g clip-path="url(#pdc3ca0d30d)">
     <use xlink:href="#md3017aa76c" x="691.163431" y="836.517144" style="fill: #ff0000; stroke: #ff0000; stroke-linejoin: bevel"/>
    </g>
   </g>
   <g id="line2d_124">
    <path d="M 554.213371 1005.829707 
" clip-path="url(#pdc3ca0d30d)" style="fill: none; stroke: #ff0000; stroke-width: 1.5; stroke-linecap: square"/>
    <g clip-path="url(#pdc3ca0d30d)">
     <use xlink:href="#md3017aa76c" x="554.213371" y="1005.829707" style="fill: #ff0000; stroke: #ff0000; stroke-linejoin: bevel"/>
    </g>
   </g>
   <g id="line2d_125">
    <path d="M 1301.649319 748.969933 
" clip-path="url(#pdc3ca0d30d)" style="fill: none; stroke: #ff0000; stroke-width: 1.5; stroke-linecap: square"/>
    <g clip-path="url(#pdc3ca0d30d)">
     <use xlink:href="#md3017aa76c" x="1301.649319" y="748.969933" style="fill: #ff0000; stroke: #ff0000; stroke-linejoin: bevel"/>
    </g>
   </g>
   <g id="line2d_126">
    <path d="M 958.006405 52.850903 
" clip-path="url(#pdc3ca0d30d)" style="fill: none; stroke: #ff0000; stroke-width: 1.5; stroke-linecap: square"/>
    <g clip-path="url(#pdc3ca0d30d)">
     <use xlink:href="#md3017aa76c" x="958.006405" y="52.850903" style="fill: #ff0000; stroke: #ff0000; stroke-linejoin: bevel"/>
    </g>
   </g>
   <g id="line2d_127">
    <path d="M 1019.030224 1122.391366 
" clip-path="url(#pdc3ca0d30d)" style="fill: none; stroke: #ff0000; stroke-width: 1.5; stroke-linecap: square"/>
    <g clip-path="url(#pdc3ca0d30d)">
     <use xlink:href="#md3017aa76c" x="1019.030224" y="1122.391366" style="fill: #ff0000; stroke: #ff0000; stroke-linejoin: bevel"/>
    </g>
   </g>
   <g id="line2d_128">
    <path d="M 833.576361 739.233935 
" clip-path="url(#pdc3ca0d30d)" style="fill: none; stroke: #ff0000; stroke-width: 1.5; stroke-linecap: square"/>
    <g clip-path="url(#pdc3ca0d30d)">
     <use xlink:href="#md3017aa76c" x="833.576361" y="739.233935" style="fill: #ff0000; stroke: #ff0000; stroke-linejoin: bevel"/>
    </g>
   </g>
  </g>
 </g>
 <defs>
  <clipPath id="pdc3ca0d30d">
   <rect x="0" y="0" width="1440" height="1440"/>
  </clipPath>
 </defs>
</svg>
