<?xml version="1.0" encoding="utf-8" standalone="no"?>
<!DOCTYPE svg PUBLIC "-//W3C//DTD SVG 1.1//EN"
  "http://www.w3.org/Graphics/SVG/1.1/DTD/svg11.dtd">
<svg xmlns:xlink="http://www.w3.org/1999/xlink" width="1440pt" height="1440pt" viewBox="0 0 1440 1440" xmlns="http://www.w3.org/2000/svg" version="1.1">
 <metadata>
  <rdf:RDF xmlns:dc="http://purl.org/dc/elements/1.1/" xmlns:cc="http://creativecommons.org/ns#" xmlns:rdf="http://www.w3.org/1999/02/22-rdf-syntax-ns#">
   <cc:Work>
    <dc:type rdf:resource="http://purl.org/dc/dcmitype/StillImage"/>
    <dc:date>2026-02-27T11:07:47.547204</dc:date>
    <dc:format>image/svg+xml</dc:format>
    <dc:creator>
     <cc:Agent>
      <dc:title>Matplotlib v3.7.3, https://matplotlib.org/</dc:title>
     </cc:Agent>
    </dc:creator>
   </cc:Work>
  </rdf:RDF>
 </metadata>
 <defs>
  <style type="text/css">*{stroke-linejoin: round; stroke-linecap: butt}</style>
 </defs>
 <g id="figure_1">
  <g id="patch_1">
   <path d="M 0 1440 
L 1440 1440 
L 1440 0 
L 0 0 
z
" style="fill: #ffffff"/>
  </g>
  <g id="axes_1">
   <g id="line2d_1">
    <path d="M 658.606195 188.183007 
L 643.127156 144.270065 
L 627.743667 98.527417 
L 610.30586 44.159013 
L 596.493181 -1 
" clip-path="url(#pb2f494613f)" style="fill: none; stroke: #7a7a7a; stroke-width: 3; stroke-linecap: square"/>
   </g>
   <g id="line2d_2">
    <path d="M 667.39676 124.404687 
L 665.581317 120.614582 
L 662.189306 111.204666 
L 633.619968 21.679769 
L 626.728433 -1 
" clip-path="url(#pb2f494613f)" style="fill: none; stroke: #7a7a7a; stroke-width: 3; stroke-linecap: square"/>
   </g>
   <g id="line2d_3">
    <path d="M 753.534745 413.759609 
L 658.606195 188.183007 
" clip-path="url(#pb2f494613f)" style="fill: none; stroke: #7a7a7a; stroke-width: 3; stroke-linecap: square"/>
   </g>
   <g id="line2d_4">
    <path d="M 760.127669 373.244692 
L 667.39676 124.404687 
" clip-path="url(#pb2f494613f)" style="fill: none; stroke: #7a7a7a; stroke-width: 3; stroke-linecap: square"/>
   </g>
   <g id="line2d_5">
    <path d="M 570.455199 -1 
L 574.044779 12.531239 
L 594.349073 82.974917 
L 607.152723 124.1433 
L 617.233208 154.856221 
L 627.648117 185.569142 
L 641.550587 223.208806 
L 652.777668 249.216769 
" clip-path="url(#pb2f494613f)" style="fill: none; stroke: #7a7a7a; stroke-width: 3; stroke-linecap: square"/>
   </g>
   <g id="line2d_6">
    <path d="M 551.925041 9.263907 
L 558.995713 36.970883 
L 565.588637 60.626366 
L 576.959042 98.919497 
L 590.957062 144.139372 
L 605.098406 188.313701 
L 617.94983 225.038512 
L 642.888282 292.084165 
" clip-path="url(#pb2f494613f)" style="fill: none; stroke: #7a7a7a; stroke-width: 3; stroke-linecap: square"/>
   </g>
   <g id="line2d_7">
    <path d="M 805.083767 529.031081 
L 770.877002 449.830954 
L 753.534745 413.759609 
" clip-path="url(#pb2f494613f)" style="fill: none; stroke: #7a7a7a; stroke-width: 3; stroke-linecap: square"/>
   </g>
   <g id="line2d_8">
    <path d="M 815.785324 487.601312 
L 806.039263 468.781479 
L 789.12698 434.409147 
L 771.784723 398.337802 
L 760.127669 373.244692 
" clip-path="url(#pb2f494613f)" style="fill: none; stroke: #7a7a7a; stroke-width: 3; stroke-linecap: square"/>
   </g>
   <g id="line2d_9">
    <path d="M 707.862025 866.87321 
L 692.71741 863.997958 
L 683.019123 861.776172 
L 673.225287 859.423693 
L 663.335901 856.809828 
L 653.303191 853.803882 
L 643.222705 850.667243 
L 632.998896 847.269218 
L 622.631762 843.479113 
L 612.216853 839.558315 
L 601.610845 835.245436 
L 590.909287 830.671172 
L 583.79084 827.534533 
" clip-path="url(#pb2f494613f)" style="fill: none; stroke: #7a7a7a; stroke-width: 3; stroke-linecap: square"/>
   </g>
   <g id="line2d_10">
    <path d="M 711.827335 824.136508 
L 682.923574 816.294911 
L 664.625821 810.152327 
L 646.662492 805.055289 
L 628.508064 799.043398 
L 610.114761 792.247347 
L 588.807195 783.490897 
" clip-path="url(#pb2f494613f)" style="fill: none; stroke: #7a7a7a; stroke-width: 3; stroke-linecap: square"/>
   </g>
   <g id="line2d_11">
    <path d="M 967.327026 844.786046 
L 935.126803 852.889029 
L 910.857199 858.378147 
" clip-path="url(#pb2f494613f)" style="fill: none; stroke: #7a7a7a; stroke-width: 3; stroke-linecap: square"/>
   </g>
   <g id="line2d_12">
    <path d="M 966.132656 801.13449 
L 947.596029 805.970142 
L 909.328405 813.681045 
" clip-path="url(#pb2f494613f)" style="fill: none; stroke: #7a7a7a; stroke-width: 3; stroke-linecap: square"/>
   </g>
   <g id="line2d_13">
    <path d="M 652.968767 653.581777 
L 646.758042 694.880854 
L 643.413805 717.752178 
L 638.3019 737.617556 
L 631.756751 754.215603 
L 624.065006 767.415624 
L 615.56109 777.21762 
L 606.674975 783.229511 
L 597.597761 785.320603 
L 588.807195 783.490897 
" clip-path="url(#pb2f494613f)" style="fill: none; stroke: #7a7a7a; stroke-width: 3; stroke-linecap: square"/>
   </g>
   <g id="line2d_14">
    <path d="M 638.063026 639.33621 
L 631.900075 680.635286 
L 628.412514 699.847198 
L 623.061735 716.183858 
L 616.325487 728.861106 
L 608.777066 737.35617 
L 600.894223 740.884888 
L 593.202478 739.055182 
" clip-path="url(#pb2f494613f)" style="fill: none; stroke: #7a7a7a; stroke-width: 3; stroke-linecap: square"/>
   </g>
   <g id="line2d_15">
    <path d="M 580.11218 874.45342 
L 591.769234 880.334618 
L 601.133097 884.124723 
L 619.669723 890.920774 
L 638.015251 896.932664 
L 656.217454 902.160396 
L 674.324108 906.603967 
L 692.287437 910.263379 
L 702.988995 911.701005 
" clip-path="url(#pb2f494613f)" style="fill: none; stroke: #7a7a7a; stroke-width: 3; stroke-linecap: square"/>
   </g>
   <g id="line2d_16">
    <path d="M 576.24242 918.366362 
L 583.599741 921.895081 
L 599.031005 927.906972 
L 615.226666 931.566384 
L 620.720769 935.748569 
L 648.047961 943.720859 
L 661.807107 948.425817 
L 688.561002 954.176321 
L 698.880361 956.006027 
" clip-path="url(#pb2f494613f)" style="fill: none; stroke: #7a7a7a; stroke-width: 3; stroke-linecap: square"/>
   </g>
   <g id="line2d_17">
    <path d="M 652.968767 653.581777 
L 662.42818 592.025242 
" clip-path="url(#pb2f494613f)" style="fill: none; stroke: #7a7a7a; stroke-width: 3; stroke-linecap: square"/>
   </g>
   <g id="line2d_18">
    <path d="M 676.091776 675.799635 
L 687.892154 592.025242 
" clip-path="url(#pb2f494613f)" style="fill: none; stroke: #7a7a7a; stroke-width: 3; stroke-linecap: square"/>
   </g>
   <g id="line2d_19">
    <path d="M 408.600607 718.405644 
L 413.425862 722.195749 
L 426.372836 731.997745 
L 439.128711 741.407661 
L 451.693486 750.425498 
L 464.114937 759.051254 
L 476.393064 767.284931 
L 488.527866 775.257221 
L 500.471569 782.706738 
L 512.271947 789.894868 
L 523.929001 796.690919 
L 535.442731 803.225583 
L 546.813136 809.368167 
L 558.040217 815.118671 
L 569.123973 820.607789 
L 583.79084 827.534533 
" clip-path="url(#pb2f494613f)" style="fill: none; stroke: #7a7a7a; stroke-width: 3; stroke-linecap: square"/>
   </g>
   <g id="line2d_20">
    <path d="M 408.600607 769.114637 
L 413.616962 773.166128 
L 424.12742 781.269112 
L 434.542329 789.110709 
L 444.909463 796.690919 
L 455.181048 804.009742 
L 465.357083 811.06718 
L 475.485343 817.86323 
L 485.518053 824.397894 
L 495.502989 830.801865 
L 505.392374 836.813756 
L 515.233986 842.56426 
L 524.980047 848.053378 
L 534.726109 853.411802 
L 544.376621 858.50884 
L 553.931583 863.213798 
L 563.486545 867.918756 
L 572.993733 872.231635 
L 580.11218 874.45342 
" clip-path="url(#pb2f494613f)" style="fill: none; stroke: #7a7a7a; stroke-width: 3; stroke-linecap: square"/>
   </g>
   <g id="line2d_21">
    <path d="M 638.063026 639.33621 
L 626.119323 720.366043 
L 623.061735 742.191821 
L 618.379804 759.312641 
L 612.360177 771.989889 
L 605.24173 780.092872 
L 597.311112 784.013671 
L 588.807195 783.490897 
" clip-path="url(#pb2f494613f)" style="fill: none; stroke: #7a7a7a; stroke-width: 3; stroke-linecap: square"/>
   </g>
   <g id="line2d_22">
    <path d="M 627.743667 629.40352 
L 615.799964 710.433354 
L 611.404681 727.292787 
L 603.044089 736.310623 
L 593.202478 739.055182 
" clip-path="url(#pb2f494613f)" style="fill: none; stroke: #7a7a7a; stroke-width: 3; stroke-linecap: square"/>
   </g>
   <g id="line2d_23">
    <path d="M 583.79084 827.534533 
L 569.123973 820.607789 
L 558.040217 815.118671 
L 546.813136 809.368167 
L 535.442731 803.225583 
L 523.929001 796.690919 
L 512.271947 789.894868 
L 500.471569 782.706738 
L 488.527866 775.257221 
L 476.393064 767.284931 
L 464.114937 759.051254 
L 451.693486 750.425498 
L 439.128711 741.407661 
L 426.372836 731.997745 
L 413.425862 722.195749 
L 408.600607 718.405644 
" clip-path="url(#pb2f494613f)" style="fill: none; stroke: #7a7a7a; stroke-width: 3; stroke-linecap: square"/>
   </g>
   <g id="line2d_24">
    <path d="M 588.807195 783.490897 
L 572.659309 776.041381 
L 553.549384 766.631464 
L 534.105036 756.176002 
L 514.374039 744.805687 
L 494.260843 732.520518 
L 473.765449 719.05911 
L 452.887857 704.68285 
L 431.580291 689.130349 
L 408.600607 669.395664 
" clip-path="url(#pb2f494613f)" style="fill: none; stroke: #7a7a7a; stroke-width: 3; stroke-linecap: square"/>
   </g>
   <g id="line2d_25">
    <path d="M 662.42818 592.025242 
L 652.968767 653.581777 
" clip-path="url(#pb2f494613f)" style="fill: none; stroke: #7a7a7a; stroke-width: 3; stroke-linecap: square"/>
   </g>
   <g id="line2d_26">
    <path d="M 644.847049 592.025242 
L 638.063026 639.33621 
" clip-path="url(#pb2f494613f)" style="fill: none; stroke: #7a7a7a; stroke-width: 3; stroke-linecap: square"/>
   </g>
   <g id="line2d_27">
    <path d="M 644.847049 592.025242 
L 638.063026 639.33621 
" clip-path="url(#pb2f494613f)" style="fill: none; stroke: #7a7a7a; stroke-width: 3; stroke-linecap: square"/>
   </g>
   <g id="line2d_28">
    <path d="M 633.476644 592.025242 
L 627.743667 629.40352 
" clip-path="url(#pb2f494613f)" style="fill: none; stroke: #7a7a7a; stroke-width: 3; stroke-linecap: square"/>
   </g>
   <g id="line2d_29">
    <path d="M 966.132656 801.13449 
L 947.596029 805.970142 
L 909.328405 813.681045 
" clip-path="url(#pb2f494613f)" style="fill: none; stroke: #7a7a7a; stroke-width: 3; stroke-linecap: square"/>
   </g>
   <g id="line2d_30">
    <path d="M 964.98606 758.136401 
L 908.038485 772.643355 
" clip-path="url(#pb2f494613f)" style="fill: none; stroke: #7a7a7a; stroke-width: 3; stroke-linecap: square"/>
   </g>
   <g id="line2d_31">
    <path d="M 910.857199 858.378147 
L 935.126803 852.889029 
L 967.327026 844.786046 
" clip-path="url(#pb2f494613f)" style="fill: none; stroke: #7a7a7a; stroke-width: 3; stroke-linecap: square"/>
   </g>
   <g id="line2d_32">
    <path d="M 913.914787 905.819807 
L 968.425847 894.580185 
" clip-path="url(#pb2f494613f)" style="fill: none; stroke: #7a7a7a; stroke-width: 3; stroke-linecap: square"/>
   </g>
   <g id="line2d_33">
    <path d="M 652.968767 653.581777 
L 651.392198 673.447156 
L 651.153324 695.795707 
L 652.20437 719.712577 
L 654.545336 744.5443 
L 658.080672 769.24533 
L 662.810378 793.031507 
L 668.68668 814.857285 
L 675.661802 833.938504 
L 683.735746 849.491004 
L 692.81296 860.338546 
L 702.893445 865.958357 
L 707.862025 866.87321 
" clip-path="url(#pb2f494613f)" style="fill: none; stroke: #7a7a7a; stroke-width: 3; stroke-linecap: square"/>
   </g>
   <g id="line2d_34">
    <path d="M 638.063026 639.33621 
L 636.199808 660.247135 
L 635.435411 682.987765 
L 635.72206 707.035329 
L 637.059755 731.997745 
L 639.352946 757.221548 
L 642.601633 782.314658 
L 646.758042 806.492915 
L 651.774397 829.494932 
L 657.650699 850.667243 
L 664.291397 869.617769 
L 671.696493 885.562349 
L 679.818211 898.108904 
L 688.608776 906.73466 
L 698.020414 910.786152 
L 702.988995 911.701005 
" clip-path="url(#pb2f494613f)" style="fill: none; stroke: #7a7a7a; stroke-width: 3; stroke-linecap: square"/>
   </g>
   <g id="line2d_35">
    <path d="M 711.827335 824.136508 
L 707.9098 823.744428 
L 700.170281 817.732537 
L 692.908509 804.663209 
L 686.411135 786.235456 
L 681.012581 764.148292 
L 676.999497 740.362115 
L 674.658531 716.575938 
L 674.228558 694.488774 
L 676.091776 675.799635 
" clip-path="url(#pb2f494613f)" style="fill: none; stroke: #7a7a7a; stroke-width: 3; stroke-linecap: square"/>
   </g>
   <g id="line2d_36">
    <path d="M 715.935968 777.6097 
L 704.278914 775.257221 
L 701.937949 773.950288 
L 699.549208 772.251275 
L 697.160468 769.898796 
L 695.153926 766.892851 
L 693.577357 763.494826 
L 690.280895 755.391842 
L 688.9432 750.948271 
L 686.315585 738.924489 
L 685.694513 734.742304 
L 684.786791 728.469027 
L 684.022394 721.150203 
L 683.640196 713.04722 
L 683.735746 703.637303 
L 683.831295 702.068984 
L 683.735746 699.716505 
L 685.742288 685.078858 
" clip-path="url(#pb2f494613f)" style="fill: none; stroke: #7a7a7a; stroke-width: 3; stroke-linecap: square"/>
   </g>
   <g id="line2d_37">
    <path d="M 583.79084 827.534533 
L 592.676955 829.756319 
L 601.085322 828.057306 
L 609.063715 822.829575 
L 616.421036 814.073125 
L 623.205059 802.049343 
L 629.272461 786.888923 
L 634.575465 768.85325 
L 639.114072 747.942325 
L 642.744957 724.417535 
L 652.968767 653.581777 
" clip-path="url(#pb2f494613f)" style="fill: none; stroke: #7a7a7a; stroke-width: 3; stroke-linecap: square"/>
   </g>
   <g id="line2d_38">
    <path d="M 580.11218 874.45342 
L 589.237169 877.720752 
L 598.409932 877.982139 
L 607.582696 875.23758 
L 616.516586 869.879156 
L 625.116052 861.776172 
L 633.33332 851.32071 
L 640.929515 838.643462 
L 647.856862 823.875121 
L 653.924263 807.015688 
L 659.036168 788.457242 
L 663.097027 768.330477 
L 665.915741 746.635393 
L 676.091776 675.799635 
" clip-path="url(#pb2f494613f)" style="fill: none; stroke: #7a7a7a; stroke-width: 3; stroke-linecap: square"/>
   </g>
   <g id="line2d_39">
    <path d="M 913.914787 905.819807 
L 968.425847 894.580185 
" clip-path="url(#pb2f494613f)" style="fill: none; stroke: #7a7a7a; stroke-width: 3; stroke-linecap: square"/>
   </g>
   <g id="line2d_40">
    <path d="M 913.102615 951.823842 
L 934.505731 948.033737 
L 974.349924 938.231741 
" clip-path="url(#pb2f494613f)" style="fill: none; stroke: #7a7a7a; stroke-width: 3; stroke-linecap: square"/>
   </g>
   <g id="line2d_41">
    <path d="M 702.988995 911.701005 
L 710.155216 913.138631 
L 719.041331 914.445564 
L 727.927446 915.49111 
L 736.813561 916.405963 
L 745.651901 917.190123 
L 754.490241 917.712896 
L 763.328581 918.235669 
L 772.166922 918.497056 
L 780.957487 918.627749 
L 789.795827 918.627749 
L 798.586392 918.497056 
L 807.424732 918.235669 
L 816.215298 917.712896 
L 825.053638 917.190123 
L 833.891978 916.536656 
L 842.730318 915.88319 
L 851.568658 914.968337 
L 860.406998 913.922791 
L 869.293113 912.877245 
L 878.179228 911.701005 
L 887.065343 910.263379 
L 895.999233 908.956446 
L 904.933123 907.388127 
L 913.914787 905.819807 
" clip-path="url(#pb2f494613f)" style="fill: none; stroke: #7a7a7a; stroke-width: 3; stroke-linecap: square"/>
   </g>
   <g id="line2d_42">
    <path d="M 698.880361 956.006027 
L 725.204282 960.449598 
L 778.616521 963.847624 
L 799.494114 963.71693 
L 847.030051 961.495145 
L 886.778694 956.398107 
L 913.102615 951.823842 
" clip-path="url(#pb2f494613f)" style="fill: none; stroke: #7a7a7a; stroke-width: 3; stroke-linecap: square"/>
   </g>
   <g id="line2d_43">
    <path d="M 711.827335 824.136508 
L 693.147383 819.562243 
L 684.213494 812.243419 
L 676.139551 799.304784 
L 669.021104 781.791885 
L 663.049252 761.142347 
L 658.223996 738.663102 
L 654.68866 715.399699 
L 652.586569 692.659068 
L 651.965496 671.61745 
L 652.968767 653.581777 
" clip-path="url(#pb2f494613f)" style="fill: none; stroke: #7a7a7a; stroke-width: 3; stroke-linecap: square"/>
   </g>
   <g id="line2d_44">
    <path d="M 715.935968 777.6097 
L 704.13559 774.603754 
L 701.985724 773.819595 
L 700.600254 772.904742 
L 697.399342 772.120582 
L 691.093067 768.46117 
L 684.404593 752.647283 
L 678.767165 729.122493 
L 675.518478 702.068984 
L 676.091776 675.799635 
" clip-path="url(#pb2f494613f)" style="fill: none; stroke: #7a7a7a; stroke-width: 3; stroke-linecap: square"/>
   </g>
   <g id="line2d_45">
    <path d="M 707.862025 866.87321 
L 711.77956 867.526676 
L 721.191198 868.964303 
L 730.507286 870.271235 
L 739.727825 871.316782 
L 748.900588 872.100941 
L 757.977803 872.754408 
L 766.959467 873.146488 
L 775.845582 873.407874 
L 784.683922 873.538567 
L 793.474487 873.407874 
L 802.217278 873.146488 
L 810.864519 872.754408 
L 819.463985 872.231635 
L 827.967901 871.578168 
L 836.471818 870.663315 
L 844.880185 869.748462 
L 853.288551 868.702916 
L 861.601369 867.526676 
L 869.914186 866.219744 
L 878.131453 864.912811 
L 886.396496 863.344492 
L 894.565988 861.776172 
L 902.735481 860.207853 
L 910.857199 858.378147 
" clip-path="url(#pb2f494613f)" style="fill: none; stroke: #7a7a7a; stroke-width: 3; stroke-linecap: square"/>
   </g>
   <g id="line2d_46">
    <path d="M 702.988995 911.701005 
L 710.155216 913.138631 
L 719.041331 914.445564 
L 727.927446 915.49111 
L 736.813561 916.405963 
L 745.651901 917.190123 
L 754.490241 917.712896 
L 763.328581 918.235669 
L 772.166922 918.497056 
L 780.957487 918.627749 
L 789.795827 918.627749 
L 798.586392 918.497056 
L 807.424732 918.235669 
L 816.215298 917.712896 
L 825.053638 917.190123 
L 833.891978 916.536656 
L 842.730318 915.88319 
L 851.568658 914.968337 
L 860.406998 913.922791 
L 869.293113 912.877245 
L 878.179228 911.701005 
L 887.065343 910.263379 
L 895.999233 908.956446 
L 904.933123 907.388127 
L 913.914787 905.819807 
" clip-path="url(#pb2f494613f)" style="fill: none; stroke: #7a7a7a; stroke-width: 3; stroke-linecap: square"/>
   </g>
   <g id="line2d_47">
    <path d="M 676.091776 675.799635 
L 687.892154 592.025242 
" clip-path="url(#pb2f494613f)" style="fill: none; stroke: #7a7a7a; stroke-width: 3; stroke-linecap: square"/>
   </g>
   <g id="line2d_48">
    <path d="M 685.742288 685.078858 
L 699.262559 592.025242 
" clip-path="url(#pb2f494613f)" style="fill: none; stroke: #7a7a7a; stroke-width: 3; stroke-linecap: square"/>
   </g>
   <g id="line2d_49">
    <path d="M 909.328405 813.681045 
L 884.103305 817.993923 
L 857.492735 821.653335 
L 822.473798 825.44344 
L 787.502636 825.966213 
L 761.417589 825.574134 
L 744.027558 825.574134 
L 726.303103 824.005814 
L 711.827335 824.136508 
" clip-path="url(#pb2f494613f)" style="fill: none; stroke: #7a7a7a; stroke-width: 3; stroke-linecap: square"/>
   </g>
   <g id="line2d_50">
    <path d="M 908.038485 772.643355 
L 900.53784 774.603754 
L 848.51107 779.439406 
L 822.999321 781.791885 
L 787.311537 782.445351 
L 751.00268 781.530498 
L 723.723263 779.178019 
L 715.935968 777.6097 
" clip-path="url(#pb2f494613f)" style="fill: none; stroke: #7a7a7a; stroke-width: 3; stroke-linecap: square"/>
   </g>
   <g id="line2d_51">
    <path d="M 583.79084 827.534533 
L 593.059153 831.586024 
L 602.518566 832.108798 
L 611.977979 829.494932 
L 621.341842 823.613734 
L 630.466831 814.987978 
L 639.114072 803.617663 
L 647.23579 789.764175 
L 654.640885 773.688901 
L 661.13826 755.391842 
L 666.680138 735.39577 
L 671.027646 713.700686 
L 674.037459 690.567975 
L 676.091776 675.799635 
" clip-path="url(#pb2f494613f)" style="fill: none; stroke: #7a7a7a; stroke-width: 3; stroke-linecap: square"/>
   </g>
   <g id="line2d_52">
    <path d="M 580.11218 874.45342 
L 588.902745 878.243525 
L 597.884409 879.158378 
L 606.961624 877.328672 
L 615.991063 872.754408 
L 624.972728 865.696971 
L 633.715518 856.025668 
L 642.123885 844.001886 
L 650.150053 829.625625 
L 657.650699 813.158272 
L 664.482497 794.33844 
L 670.645447 773.558208 
L 675.948451 750.817578 
L 680.343734 726.247241 
L 683.687971 699.716505 
L 685.742288 685.078858 
" clip-path="url(#pb2f494613f)" style="fill: none; stroke: #7a7a7a; stroke-width: 3; stroke-linecap: square"/>
   </g>
   <g id="line2d_53">
    <path d="M 408.600607 769.114637 
L 413.616962 773.166128 
L 424.12742 781.269112 
L 434.542329 789.110709 
L 444.909463 796.690919 
L 455.181048 804.009742 
L 465.357083 811.06718 
L 475.485343 817.86323 
L 485.518053 824.397894 
L 495.502989 830.801865 
L 505.392374 836.813756 
L 515.233986 842.56426 
L 524.980047 848.053378 
L 534.726109 853.411802 
L 544.376621 858.50884 
L 553.931583 863.213798 
L 563.486545 867.918756 
L 572.993733 872.231635 
L 580.11218 874.45342 
" clip-path="url(#pb2f494613f)" style="fill: none; stroke: #7a7a7a; stroke-width: 3; stroke-linecap: square"/>
   </g>
   <g id="line2d_54">
    <path d="M 408.600607 819.170163 
L 430.815894 835.637516 
L 460.054078 855.894975 
L 482.460465 870.794008 
L 503.242508 883.079177 
L 524.597849 894.188106 
L 576.24242 918.366362 
" clip-path="url(#pb2f494613f)" style="fill: none; stroke: #7a7a7a; stroke-width: 3; stroke-linecap: square"/>
   </g>
   <g id="line2d_55">
    <path d="M 588.807195 783.490897 
L 572.659309 776.041381 
L 553.549384 766.631464 
L 534.105036 756.176002 
L 514.374039 744.805687 
L 494.260843 732.520518 
L 473.765449 719.05911 
L 452.887857 704.68285 
L 431.580291 689.130349 
L 408.600607 669.395664 
" clip-path="url(#pb2f494613f)" style="fill: none; stroke: #7a7a7a; stroke-width: 3; stroke-linecap: square"/>
   </g>
   <g id="line2d_56">
    <path d="M 593.202478 739.055182 
L 565.063114 726.377934 
L 544.949918 717.490791 
L 527.98986 708.211568 
L 508.402188 697.494719 
L 489.340038 684.817471 
L 469.943464 670.83329 
L 449.925818 655.411483 
L 430.003722 641.296609 
L 408.600607 626.528268 
" clip-path="url(#pb2f494613f)" style="fill: none; stroke: #7a7a7a; stroke-width: 3; stroke-linecap: square"/>
   </g>
   <g id="line2d_57">
    <path d="M 583.79084 827.534533 
L 590.909287 830.671172 
L 601.610845 835.245436 
L 612.216853 839.558315 
L 622.631762 843.479113 
L 632.998896 847.269218 
L 643.222705 850.667243 
L 653.303191 853.803882 
L 663.335901 856.809828 
L 673.225287 859.423693 
L 683.019123 861.776172 
L 692.71741 863.997958 
L 707.862025 866.87321 
" clip-path="url(#pb2f494613f)" style="fill: none; stroke: #7a7a7a; stroke-width: 3; stroke-linecap: square"/>
   </g>
   <g id="line2d_58">
    <path d="M 580.11218 874.45342 
L 591.769234 880.334618 
L 601.133097 884.124723 
L 619.669723 890.920774 
L 638.015251 896.932664 
L 656.217454 902.160396 
L 674.324108 906.603967 
L 692.287437 910.263379 
L 702.988995 911.701005 
" clip-path="url(#pb2f494613f)" style="fill: none; stroke: #7a7a7a; stroke-width: 3; stroke-linecap: square"/>
   </g>
   <g id="line2d_59">
    <path d="M 910.857199 858.378147 
L 902.735481 860.207853 
L 894.565988 861.776172 
L 886.396496 863.344492 
L 878.131453 864.912811 
L 869.914186 866.219744 
L 861.601369 867.526676 
L 853.288551 868.702916 
L 844.880185 869.748462 
L 836.471818 870.663315 
L 827.967901 871.578168 
L 819.463985 872.231635 
L 810.864519 872.754408 
L 802.217278 873.146488 
L 793.474487 873.407874 
L 784.683922 873.538567 
L 775.845582 873.407874 
L 766.959467 873.146488 
L 757.977803 872.754408 
L 748.900588 872.100941 
L 739.727825 871.316782 
L 730.507286 870.271235 
L 721.191198 868.964303 
L 711.77956 867.526676 
L 707.862025 866.87321 
" clip-path="url(#pb2f494613f)" style="fill: none; stroke: #7a7a7a; stroke-width: 3; stroke-linecap: square"/>
   </g>
   <g id="line2d_60">
    <path d="M 909.328405 813.681045 
L 884.103305 817.993923 
L 857.492735 821.653335 
L 822.473798 825.44344 
L 787.502636 825.966213 
L 761.417589 825.574134 
L 744.027558 825.574134 
L 726.303103 824.005814 
L 711.827335 824.136508 
" clip-path="url(#pb2f494613f)" style="fill: none; stroke: #7a7a7a; stroke-width: 3; stroke-linecap: square"/>
   </g>
   <g id="line2d_61">
    <path d="M 711.827335 824.136508 
L 682.923574 816.294911 
L 664.625821 810.152327 
L 646.662492 805.055289 
L 628.508064 799.043398 
L 610.114761 792.247347 
L 588.807195 783.490897 
" clip-path="url(#pb2f494613f)" style="fill: none; stroke: #7a7a7a; stroke-width: 3; stroke-linecap: square"/>
   </g>
   <g id="line2d_62">
    <path d="M 715.935968 777.6097 
L 688.84765 772.643355 
L 657.555149 763.886906 
L 625.928224 753.170057 
L 593.202478 739.055182 
" clip-path="url(#pb2f494613f)" style="fill: none; stroke: #7a7a7a; stroke-width: 3; stroke-linecap: square"/>
   </g>
   <g id="line2d_63">
    <path d="M 728.930717 123.75122 
L 675.900676 497.664694 
" clip-path="url(#pb2f494613f)" style="fill: none; stroke: #7a7a7a; stroke-width: 3; stroke-linecap: square"/>
   </g>
   <g id="line2d_64">
    <path d="M 713.977201 105.976934 
L 660.947161 478.583475 
" clip-path="url(#pb2f494613f)" style="fill: none; stroke: #7a7a7a; stroke-width: 3; stroke-linecap: square"/>
   </g>
   <g id="line2d_65">
    <path d="M 713.977201 105.976934 
L 660.947161 478.583475 
" clip-path="url(#pb2f494613f)" style="fill: none; stroke: #7a7a7a; stroke-width: 3; stroke-linecap: square"/>
   </g>
   <g id="line2d_66">
    <path d="M 704.517789 94.737312 
L 663.7181 386.575406 
L 656.886302 429.050722 
L 651.487748 466.559694 
" clip-path="url(#pb2f494613f)" style="fill: none; stroke: #7a7a7a; stroke-width: 3; stroke-linecap: square"/>
   </g>
   <g id="line2d_67">
    <path d="M 662.42818 592.025242 
L 662.905928 589.019297 
L 663.049252 588.104444 
L 663.288126 586.274738 
L 663.527 584.706419 
L 675.900676 497.664694 
" clip-path="url(#pb2f494613f)" style="fill: none; stroke: #7a7a7a; stroke-width: 3; stroke-linecap: square"/>
   </g>
   <g id="line2d_68">
    <path d="M 687.892154 592.025242 
L 688.274353 589.019297 
L 688.417677 588.104444 
L 688.656551 586.405431 
L 688.895425 584.837112 
L 697.351567 524.97959 
" clip-path="url(#pb2f494613f)" style="fill: none; stroke: #7a7a7a; stroke-width: 3; stroke-linecap: square"/>
   </g>
   <g id="line2d_69">
    <path d="M 753.534745 413.759609 
L 747.085146 397.030869 
L 741.829916 380.040742 
L 737.816832 362.266456 
L 734.998118 343.577317 
L 733.469324 323.450552 
L 733.373775 301.102001 
L 734.185946 277.577211 
L 736.479137 251.177168 
L 740.062248 222.032567 
L 749.951634 148.84433 
" clip-path="url(#pb2f494613f)" style="fill: none; stroke: #7a7a7a; stroke-width: 3; stroke-linecap: square"/>
   </g>
   <g id="line2d_70">
    <path d="M 760.127669 373.244692 
L 753.773619 355.209019 
L 748.948363 337.30404 
L 745.843 318.222821 
L 744.839729 296.527737 
L 745.795226 278.75345 
L 745.747451 278.492064 
L 746.320749 265.945509 
L 748.040642 250.785089 
L 751.623753 225.691979 
L 755.684612 192.234499 
L 756.831207 189.48994 
L 760.079894 167.010696 
" clip-path="url(#pb2f494613f)" style="fill: none; stroke: #7a7a7a; stroke-width: 3; stroke-linecap: square"/>
   </g>
   <g id="line2d_71">
    <path d="M 687.892154 592.025242 
L 688.274353 589.019297 
L 688.417677 588.104444 
L 688.656551 586.405431 
L 688.895425 584.837112 
L 697.351567 524.97959 
" clip-path="url(#pb2f494613f)" style="fill: none; stroke: #7a7a7a; stroke-width: 3; stroke-linecap: square"/>
   </g>
   <g id="line2d_72">
    <path d="M 699.262559 592.025242 
L 699.692533 589.019297 
L 699.835857 588.104444 
L 700.122506 586.405431 
L 700.313605 584.837112 
L 707.097628 537.395451 
" clip-path="url(#pb2f494613f)" style="fill: none; stroke: #7a7a7a; stroke-width: 3; stroke-linecap: square"/>
   </g>
   <g id="line2d_73">
    <path d="M 728.930717 123.75122 
L 728.548519 126.626473 
L 724.774309 148.321557 
L 719.901278 168.056242 
L 714.024976 185.307755 
L 707.336502 199.42263 
L 700.026956 210.008785 
L 692.144112 216.412756 
L 683.926845 217.981075 
L 675.470703 214.19097 
L 667.014562 204.388974 
L 658.606195 188.183007 
" clip-path="url(#pb2f494613f)" style="fill: none; stroke: #7a7a7a; stroke-width: 3; stroke-linecap: square"/>
   </g>
   <g id="line2d_74">
    <path d="M 713.977201 105.976934 
L 713.547228 108.852187 
L 709.29527 128.586872 
L 702.988995 143.224519 
L 695.153926 151.588889 
L 686.267811 152.111662 
L 676.856173 143.485906 
L 667.39676 124.404687 
" clip-path="url(#pb2f494613f)" style="fill: none; stroke: #7a7a7a; stroke-width: 3; stroke-linecap: square"/>
   </g>
   <g id="line2d_75">
    <path d="M 652.777668 249.216769 
L 661.13826 264.246496 
L 669.9766 274.832652 
L 679.101589 280.975236 
L 688.274353 283.066329 
L 697.399342 281.498009 
L 706.333231 276.270278 
L 714.837148 267.905908 
L 722.767767 256.535593 
L 730.029538 242.290025 
L 736.335813 225.691979 
L 741.591042 206.872146 
L 745.651901 185.961222 
L 749.951634 148.84433 
" clip-path="url(#pb2f494613f)" style="fill: none; stroke: #7a7a7a; stroke-width: 3; stroke-linecap: square"/>
   </g>
   <g id="line2d_76">
    <path d="M 642.888282 292.084165 
L 649.911179 309.074291 
L 657.507374 322.012926 
L 665.629092 331.030762 
L 674.085234 336.51988 
L 682.780249 338.349586 
L 691.618589 337.042653 
L 700.409155 332.468388 
L 709.10417 325.018872 
L 717.512537 314.694102 
L 725.538706 301.886161 
L 733.087126 286.464354 
L 740.014473 268.951454 
L 746.177424 249.216769 
L 751.241554 228.436538 
L 751.623753 225.691979 
L 755.684612 192.234499 
L 756.831207 189.48994 
L 760.079894 167.010696 
" clip-path="url(#pb2f494613f)" style="fill: none; stroke: #7a7a7a; stroke-width: 3; stroke-linecap: square"/>
   </g>
   <g id="line2d_77">
    <path d="M 675.900676 497.664694 
L 680.917032 462.116122 
L 684.786791 432.971521 
L 687.796605 405.918012 
L 689.850921 380.694209 
L 690.997517 357.038725 
L 691.045292 334.690174 
L 690.089795 313.256476 
L 687.939929 292.345552 
L 684.643467 271.9574 
L 680.10486 251.699942 
L 674.324108 231.050403 
L 667.157886 210.008785 
L 658.606195 188.183007 
" clip-path="url(#pb2f494613f)" style="fill: none; stroke: #7a7a7a; stroke-width: 3; stroke-linecap: square"/>
   </g>
   <g id="line2d_78">
    <path d="M 697.351567 524.97959 
L 702.367922 489.431018 
L 706.381006 458.326017 
L 709.390819 428.789336 
L 711.397361 400.951667 
L 712.448407 374.551625 
L 712.639506 349.589208 
L 711.970659 325.803031 
L 710.441865 303.062401 
L 708.196449 281.236623 
L 705.234411 260.325698 
L 702.176823 240.852399 
L 697.208242 220.202861 
L 692.287437 200.860256 
L 686.841108 181.648343 
L 680.821482 162.697818 
L 674.324108 143.616599 
L 667.39676 124.404687 
" clip-path="url(#pb2f494613f)" style="fill: none; stroke: #7a7a7a; stroke-width: 3; stroke-linecap: square"/>
   </g>
   <g id="line2d_79">
    <path d="M 660.947161 478.583475 
L 645.898095 584.706419 
L 645.659221 586.274738 
L 645.420347 588.104444 
L 645.277022 589.019297 
L 644.847049 592.025242 
" clip-path="url(#pb2f494613f)" style="fill: none; stroke: #7a7a7a; stroke-width: 3; stroke-linecap: square"/>
   </g>
   <g id="line2d_80">
    <path d="M 651.487748 466.559694 
L 634.52769 584.706419 
L 634.336591 586.274738 
L 634.049942 588.104444 
L 633.906617 589.019297 
L 633.476644 592.025242 
" clip-path="url(#pb2f494613f)" style="fill: none; stroke: #7a7a7a; stroke-width: 3; stroke-linecap: square"/>
   </g>
   <g id="line2d_81">
    <path d="M 697.351567 524.97959 
L 748.183966 163.481978 
L 749.951634 148.84433 
" clip-path="url(#pb2f494613f)" style="fill: none; stroke: #7a7a7a; stroke-width: 3; stroke-linecap: square"/>
   </g>
   <g id="line2d_82">
    <path d="M 707.097628 537.395451 
L 747.753993 253.268261 
L 748.040642 250.785089 
L 751.623753 225.691979 
L 755.684612 192.234499 
L 756.831207 189.48994 
L 760.079894 167.010696 
" clip-path="url(#pb2f494613f)" style="fill: none; stroke: #7a7a7a; stroke-width: 3; stroke-linecap: square"/>
   </g>
   <g id="line2d_83">
    <path d="M 753.534745 413.759609 
L 744.696405 396.508096 
L 735.71474 385.92194 
L 726.733076 381.478368 
L 717.942511 382.523915 
L 709.581919 388.405112 
L 701.794624 398.337802 
L 694.771727 411.799209 
L 688.704326 428.135869 
L 683.831295 446.563622 
L 680.295959 466.559694 
L 675.900676 497.664694 
" clip-path="url(#pb2f494613f)" style="fill: none; stroke: #7a7a7a; stroke-width: 3; stroke-linecap: square"/>
   </g>
   <g id="line2d_84">
    <path d="M 760.127669 373.244692 
L 751.432653 352.333767 
L 742.689863 337.173347 
L 733.899298 327.502044 
L 725.204282 322.797086 
L 716.700365 322.797086 
L 708.483098 327.109964 
L 700.552479 335.474334 
L 693.099609 347.367422 
L 686.172261 362.39715 
L 679.818211 380.302129 
L 674.180783 400.690281 
L 669.307753 423.300218 
L 665.342443 447.609168 
L 660.947161 478.583475 
" clip-path="url(#pb2f494613f)" style="fill: none; stroke: #7a7a7a; stroke-width: 3; stroke-linecap: square"/>
   </g>
   <g id="line2d_85">
    <path d="M 652.777668 249.216769 
L 658.988393 264.769269 
L 664.864695 280.452463 
L 670.263249 296.65843 
L 674.992955 313.909943 
L 678.958264 332.468388 
L 681.920303 352.85654 
L 683.687971 375.597171 
L 684.165719 400.951667 
L 683.114673 429.442802 
L 680.439284 461.593349 
L 675.900676 497.664694 
" clip-path="url(#pb2f494613f)" style="fill: none; stroke: #7a7a7a; stroke-width: 3; stroke-linecap: square"/>
   </g>
   <g id="line2d_86">
    <path d="M 642.888282 292.084165 
L 646.805816 302.016854 
L 653.350966 318.484208 
L 658.319546 331.030762 
L 660.564962 338.349586 
L 661.759332 342.270384 
L 662.380405 344.88425 
L 665.915741 358.214965 
L 668.877779 375.989251 
L 669.928825 393.50215 
L 669.403302 411.40713 
L 667.540084 431.011122 
L 664.625821 452.967593 
L 660.947161 478.583475 
" clip-path="url(#pb2f494613f)" style="fill: none; stroke: #7a7a7a; stroke-width: 3; stroke-linecap: square"/>
   </g>
   <g id="line2d_87">
    <path d="M 753.534745 413.759609 
L 746.607397 396.377402 
L 740.157798 378.080343 
L 734.281496 358.737738 
L 729.121816 338.480279 
L 724.774309 317.046581 
L 721.430072 294.567337 
L 719.136881 271.042547 
L 718.085835 246.47221 
L 718.372484 220.725634 
L 720.092377 193.802818 
L 723.436614 165.834457 
L 728.930717 123.75122 
" clip-path="url(#pb2f494613f)" style="fill: none; stroke: #7a7a7a; stroke-width: 3; stroke-linecap: square"/>
   </g>
   <g id="line2d_88">
    <path d="M 760.127669 373.244692 
L 754.442466 357.169418 
L 749.282787 340.048599 
L 744.935279 321.228766 
L 741.686592 300.579228 
L 739.727825 277.577211 
L 739.345626 251.830635 
L 740.826645 223.078113 
L 744.409756 190.796873 
L 749.951634 148.84433 
" clip-path="url(#pb2f494613f)" style="fill: none; stroke: #7a7a7a; stroke-width: 3; stroke-linecap: square"/>
   </g>
   <g id="line2d_89">
    <path d="M 652.777668 249.216769 
L 659.418367 268.690068 
L 664.482497 288.555446 
L 668.065607 308.943598 
L 670.311024 329.985216 
L 671.314295 351.810994 
L 671.17097 374.551625 
L 669.928825 398.468495 
L 667.778959 423.430911 
L 664.721371 449.830954 
L 660.947161 478.583475 
" clip-path="url(#pb2f494613f)" style="fill: none; stroke: #7a7a7a; stroke-width: 3; stroke-linecap: square"/>
   </g>
   <g id="line2d_90">
    <path d="M 642.888282 292.084165 
L 658.319546 331.030762 
L 661.759332 342.270384 
L 662.905928 347.367422 
L 663.765874 352.595154 
L 664.91247 363.965469 
L 664.530271 378.603116 
L 663.7181 386.575406 
L 661.616008 399.514041 
L 651.487748 466.559694 
" clip-path="url(#pb2f494613f)" style="fill: none; stroke: #7a7a7a; stroke-width: 3; stroke-linecap: square"/>
   </g>
   <g id="line2d_91">
    <path d="M 652.777668 249.216769 
L 661.854882 264.507883 
L 670.740997 274.571265 
L 679.292688 279.406917 
L 687.414406 279.14553 
L 695.058376 273.917799 
L 702.081273 263.59303 
L 708.387548 248.301916 
L 713.929426 228.044458 
L 718.563583 202.951348 
L 728.930717 123.75122 
" clip-path="url(#pb2f494613f)" style="fill: none; stroke: #7a7a7a; stroke-width: 3; stroke-linecap: square"/>
   </g>
   <g id="line2d_92">
    <path d="M 642.888282 292.084165 
L 651.248874 311.165384 
L 659.800565 325.541645 
L 668.495581 335.343641 
L 677.238371 340.832758 
L 685.885612 342.139691 
L 694.341754 339.525826 
L 702.511246 333.252548 
L 710.250766 323.319859 
L 717.560312 310.119838 
L 724.201011 293.783178 
L 730.172862 274.440572 
L 735.332542 252.484101 
L 739.536725 227.913765 
L 749.951634 148.84433 
" clip-path="url(#pb2f494613f)" style="fill: none; stroke: #7a7a7a; stroke-width: 3; stroke-linecap: square"/>
   </g>
   <g id="line2d_93">
    <path d="M 675.900676 497.664694 
L 663.527 584.706419 
L 663.288126 586.274738 
L 663.049252 588.104444 
L 662.905928 589.019297 
L 662.42818 592.025242 
" clip-path="url(#pb2f494613f)" style="fill: none; stroke: #7a7a7a; stroke-width: 3; stroke-linecap: square"/>
   </g>
   <g id="line2d_94">
    <path d="M 660.947161 478.583475 
L 645.898095 584.706419 
L 645.659221 586.274738 
L 645.420347 588.104444 
L 645.277022 589.019297 
L 644.847049 592.025242 
" clip-path="url(#pb2f494613f)" style="fill: none; stroke: #7a7a7a; stroke-width: 3; stroke-linecap: square"/>
   </g>
   <g id="line2d_95">
    <path d="M 713.977201 105.976934 
L 710.011892 133.814603 
L 705.52106 155.901767 
L 699.16701 174.852293 
L 691.475265 189.751327 
L 683.066898 199.553323 
L 674.371883 203.212735 
L 666.059065 199.814709 
L 658.606195 188.183007 
" clip-path="url(#pb2f494613f)" style="fill: none; stroke: #7a7a7a; stroke-width: 3; stroke-linecap: square"/>
   </g>
   <g id="line2d_96">
    <path d="M 704.517789 94.737312 
L 700.552479 122.574981 
L 697.064918 136.951242 
L 691.379715 145.838385 
L 684.070169 147.668091 
L 675.852902 141.002733 
L 671.648718 132.769057 
L 671.362069 132.376977 
L 667.39676 124.404687 
" clip-path="url(#pb2f494613f)" style="fill: none; stroke: #7a7a7a; stroke-width: 3; stroke-linecap: square"/>
   </g>
   <g id="line2d_97">
    <path d="M 675.900676 497.664694 
L 728.930717 123.75122 
" clip-path="url(#pb2f494613f)" style="fill: none; stroke: #7a7a7a; stroke-width: 3; stroke-linecap: square"/>
   </g>
   <g id="line2d_98">
    <path d="M 697.351567 524.97959 
L 748.183966 163.481978 
L 749.951634 148.84433 
" clip-path="url(#pb2f494613f)" style="fill: none; stroke: #7a7a7a; stroke-width: 3; stroke-linecap: square"/>
   </g>
   <g id="line2d_99">
    <path d="M 753.534745 413.759609 
L 742.450989 391.018978 
L 731.892756 375.858557 
L 721.955595 367.363494 
L 712.591732 364.880322 
L 703.896716 367.494188 
L 695.870548 374.420931 
L 688.513227 385.007087 
L 681.920303 398.337802 
L 676.091776 413.628915 
L 671.027646 430.096269 
L 666.775688 446.955702 
L 663.431451 463.423055 
L 660.947161 478.583475 
" clip-path="url(#pb2f494613f)" style="fill: none; stroke: #7a7a7a; stroke-width: 3; stroke-linecap: square"/>
   </g>
   <g id="line2d_100">
    <path d="M 760.127669 373.244692 
L 751.337104 351.941687 
L 742.403214 336.781267 
L 733.421549 327.240657 
L 724.39211 322.927779 
L 715.505995 323.189166 
L 706.810979 327.502044 
L 698.354838 335.474334 
L 690.32867 346.583263 
L 682.6847 360.175364 
L 675.614028 375.858557 
L 669.164428 392.979377 
L 663.431451 411.145743 
L 658.55842 429.834882 
L 654.497561 448.524021 
L 651.487748 466.559694 
" clip-path="url(#pb2f494613f)" style="fill: none; stroke: #7a7a7a; stroke-width: 3; stroke-linecap: square"/>
   </g>
   <g id="line2d_101">
    <path d="M -1 339.157241 
L 8.916534 349.197128 
L 67.631777 408.401184 
L 129.547933 473.225051 
L 193.183982 533.866733 
L 269.098157 603.264864 
L 343.10134 665.997639 
L 379.123548 695.9264 
L 407.167362 717.229405 
L 407.501786 717.621484 
L 407.883984 717.882871 
L 408.027309 718.013564 
L 408.600607 718.405644 
" clip-path="url(#pb2f494613f)" style="fill: none; stroke: #7a7a7a; stroke-width: 3; stroke-linecap: square"/>
   </g>
   <g id="line2d_102">
    <path d="M -1 391.496903 
L 25.972142 419.118033 
L 137.526326 531.383561 
L 246.930645 633.455012 
L 357.672658 728.076947 
L 407.167362 767.938397 
L 407.501786 768.199784 
L 407.883984 768.591864 
L 408.027309 768.722557 
L 408.600607 769.114637 
" clip-path="url(#pb2f494613f)" style="fill: none; stroke: #7a7a7a; stroke-width: 3; stroke-linecap: square"/>
   </g>
   <g id="line2d_103">
    <path d="M -1 391.496903 
L 25.972142 419.118033 
L 137.526326 531.383561 
L 246.930645 633.455012 
L 357.672658 728.076947 
L 407.167362 767.938397 
L 407.501786 768.199784 
L 407.883984 768.591864 
L 408.027309 768.722557 
L 408.600607 769.114637 
" clip-path="url(#pb2f494613f)" style="fill: none; stroke: #7a7a7a; stroke-width: 3; stroke-linecap: square"/>
   </g>
   <g id="line2d_104">
    <path d="M -1 439.530262 
L 44.604318 485.510219 
L 95.818916 536.349905 
L 158.403919 599.866839 
L 230.209461 668.611504 
L 288.924704 720.496737 
L 345.346756 768.199784 
L 407.167362 818.124617 
L 407.501786 818.386003 
L 407.883984 818.64739 
L 408.027309 818.778083 
L 408.600607 819.170163 
" clip-path="url(#pb2f494613f)" style="fill: none; stroke: #7a7a7a; stroke-width: 3; stroke-linecap: square"/>
   </g>
   <g id="line2d_105">
    <path d="M 408.600607 718.405644 
L 408.027309 718.013564 
L 407.883984 717.882871 
L 407.501786 717.621484 
L 407.167362 717.229405 
L 379.123548 695.9264 
L 343.10134 665.997639 
L 269.098157 603.264864 
L 193.183982 533.866733 
L 129.547933 473.225051 
L 67.631777 408.401184 
L 8.916534 349.197128 
L -1 339.157241 
" clip-path="url(#pb2f494613f)" style="fill: none; stroke: #7a7a7a; stroke-width: 3; stroke-linecap: square"/>
   </g>
   <g id="line2d_106">
    <path d="M 408.600607 669.395664 
L 408.027309 669.003584 
L 407.883984 668.872891 
L 407.501786 668.480811 
L 407.167362 668.219425 
L 355.331692 629.272827 
L 300.10401 582.74602 
L 246.500671 536.611292 
L 188.645375 483.9419 
L 129.165734 424.868537 
L 75.466846 368.278347 
L 23.057878 314.955489 
L -1 290.456186 
" clip-path="url(#pb2f494613f)" style="fill: none; stroke: #7a7a7a; stroke-width: 3; stroke-linecap: square"/>
   </g>
   <g id="line2d_107">
    <path d="M 408.600607 669.395664 
L 408.027309 669.003584 
L 407.883984 668.872891 
L 407.501786 668.480811 
L 407.167362 668.219425 
L 355.331692 629.272827 
L 300.10401 582.74602 
L 246.500671 536.611292 
L 188.645375 483.9419 
L 129.165734 424.868537 
L 75.466846 368.278347 
L 23.057878 314.955489 
L -1 290.456186 
" clip-path="url(#pb2f494613f)" style="fill: none; stroke: #7a7a7a; stroke-width: 3; stroke-linecap: square"/>
   </g>
   <g id="line2d_108">
    <path d="M 408.600607 626.528268 
L 408.075084 626.136188 
L 407.931759 626.005495 
L 407.549561 625.744109 
L 407.167362 625.613415 
L 202.452295 447.609168 
L -1 242.145316 
" clip-path="url(#pb2f494613f)" style="fill: none; stroke: #7a7a7a; stroke-width: 3; stroke-linecap: square"/>
   </g>
   <g id="line2d_109">
    <path d="M 604.193904 807.027813 
L 434.870921 673.750022 
" clip-path="url(#pb2f494613f)" style="fill: none; stroke-dasharray: 32,8,5,8; stroke-dashoffset: 0; stroke: #1e90ff; stroke-width: 5"/>
   </g>
   <g id="line2d_110">
    <path d="M 611.051035 1047.521316 
L 616.794277 1047.92016 
" clip-path="url(#pb2f494613f)" style="fill: none; stroke-dasharray: 32,8,5,8; stroke-dashoffset: 0; stroke: #1e90ff; stroke-width: 5"/>
   </g>
   <g id="line2d_111">
    <path d="M 712.576009 146.149292 
L 710.182603 167.986812 
" clip-path="url(#pb2f494613f)" style="fill: none; stroke-dasharray: 32,8,5,8; stroke-dashoffset: 0; stroke: #1e90ff; stroke-width: 5"/>
   </g>
   <g id="line2d_112">
    <path d="M 702.620979 78.013933 
L 709.350976 65.34664 
" clip-path="url(#pb2f494613f)" style="fill: none; stroke-dasharray: 32,8,5,8; stroke-dashoffset: 0; stroke: #1e90ff; stroke-width: 5"/>
   </g>
   <g id="line2d_113">
    <path d="M 784.455172 864.748551 
L 785.318291 853.389467 
" clip-path="url(#pb2f494613f)" style="fill: none; stroke-dasharray: 32,8,5,8; stroke-dashoffset: 0; stroke: #1e90ff; stroke-width: 5"/>
   </g>
   <g id="line2d_114">
    <path d="M 604.193904 807.027813 
" clip-path="url(#pb2f494613f)" style="fill: none; stroke: #0000ff; stroke-width: 1.5; stroke-linecap: square"/>
    <defs>
     <path id="m9661e7597c" d="M 0 10 
C 2.652031 10 5.195799 8.946337 7.071068 7.071068 
C 8.946337 5.195799 10 2.652031 10 0 
C 10 -2.652031 8.946337 -5.195799 7.071068 -7.071068 
C 5.195799 -8.946337 2.652031 -10 0 -10 
C -2.652031 -10 -5.195799 -8.946337 -7.071068 -7.071068 
C -8.946337 -5.195799 -10 -2.652031 -10 0 
C -10 2.652031 -8.946337 5.195799 -7.071068 7.071068 
C -5.195799 8.946337 -2.652031 10 0 10 
z
" style="stroke: #0000ff"/>
    </defs>
    <g clip-path="url(#pb2f494613f)">
     <use xlink:href="#m9661e7597c" x="604.193904" y="807.027813" style="fill: #0000ff; stroke: #0000ff"/>
    </g>
   </g>
   <g id="line2d_115">
    <path d="M 611.051035 1047.521316 
" clip-path="url(#pb2f494613f)" style="fill: none; stroke: #0000ff; stroke-width: 1.5; stroke-linecap: square"/>
    <g clip-path="url(#pb2f494613f)">
     <use xlink:href="#m9661e7597c" x="611.051035" y="1047.521316" style="fill: #0000ff; stroke: #0000ff"/>
    </g>
   </g>
   <g id="line2d_116">
    <path d="M 712.576009 146.149292 
" clip-path="url(#pb2f494613f)" style="fill: none; stroke: #0000ff; stroke-width: 1.5; stroke-linecap: square"/>
    <g clip-path="url(#pb2f494613f)">
     <use xlink:href="#m9661e7597c" x="712.576009" y="146.149292" style="fill: #0000ff; stroke: #0000ff"/>
    </g>
   </g>
   <g id="line2d_117">
    <path d="M 702.620979 78.013933 
" clip-path="url(#pb2f494613f)" style="fill: none; stroke: #0000ff; stroke-width: 1.5; stroke-linecap: square"/>
    <g clip-path="url(#pb2f494613f)">
     <use xlink:href="#m9661e7597c" x="702.620979" y="78.013933" style="fill: #0000ff; stroke: #0000ff"/>
    </g>
   </g>
   <g id="line2d_118">
    <path d="M 784.455172 864.748551 
" clip-path="url(#pb2f494613f)" style="fill: none; stroke: #0000ff; stroke-width: 1.5; stroke-linecap: square"/>
    <g clip-path="url(#pb2f494613f)">
     <use xlink:href="#m9661e7597c" x="784.455172" y="864.748551" style="fill: #0000ff; stroke: #0000ff"/>
    </g>
   </g>
   <g id="line2d_119">
    <path d="M 434.870921 673.750022 
" clip-path="url(#pb2f494613f)" style="fill: none; stroke: #ff0000; stroke-width: 1.5; stroke-linecap: square"/>
    <defs>
     <path id="m7c4637ab86" d="M 0 -10 
L -2.24514 -3.09017 
L -9.510565 -3.09017 
L -3.632713 1.18034 
L -5.877853 8.09017 
L -0 3.81966 
L 5.877853 8.09017 
L 3.632713 1.18034 
L 9.510565 -3.09017 
L 2.24514 -3.09017 
z
" style="stroke: #ff0000; stroke-linejoin: bevel"/>
    </defs>
    <g clip-path="url(#pb2f494613f)">
     <use xlink:href="#m7c4637ab86" x="434.870921" y="673.750022" style="fill: #ff0000; stroke: #ff0000; stroke-linejoin: bevel"/>
    </g>
   </g>
   <g id="line2d_120">
    <path d="M 616.794277 1047.92016 
" clip-path="url(#pb2f494613f)" style="fill: none; stroke: #ff0000; stroke-width: 1.5; stroke-linecap: square"/>
    <g clip-path="url(#pb2f494613f)">
     <use xlink:href="#m7c4637ab86" x="616.794277" y="1047.92016" style="fill: #ff0000; stroke: #ff0000; stroke-linejoin: bevel"/>
    </g>
   </g>
   <g id="line2d_121">
    <path d="M 710.182603 167.986812 
" clip-path="url(#pb2f494613f)" style="fill: none; stroke: #ff0000; stroke-width: 1.5; stroke-linecap: square"/>
    <g clip-path="url(#pb2f494613f)">
     <use xlink:href="#m7c4637ab86" x="710.182603" y="167.986812" style="fill: #ff0000; stroke: #ff0000; stroke-linejoin: bevel"/>
    </g>
   </g>
   <g id="line2d_122">
    <path d="M 709.350976 65.34664 
" clip-path="url(#pb2f494613f)" style="fill: none; stroke: #ff0000; stroke-width: 1.5; stroke-linecap: square"/>
    <g clip-path="url(#pb2f494613f)">
     <use xlink:href="#m7c4637ab86" x="709.350976" y="65.34664" style="fill: #ff0000; stroke: #ff0000; stroke-linejoin: bevel"/>
    </g>
   </g>
   <g id="line2d_123">
    <path d="M 785.318291 853.389467 
" clip-path="url(#pb2f494613f)" style="fill: none; stroke: #ff0000; stroke-width: 1.5; stroke-linecap: square"/>
    <g clip-path="url(#pb2f494613f)">
     <use xlink:href="#m7c4637ab86" x="785.318291" y="853.389467" style="fill: #ff0000; stroke: #ff0000; stroke-linejoin: bevel"/>
    </g>
   </g>
  </g>
 </g>
 <defs>
  <clipPath id="pb2f494613f">
   <rect x="0" y="0" width="1440" height="1440"/>
  </clipPath>
 </defs>
</svg>
