<?xml version="1.0" encoding="utf-8" standalone="no"?>
<!DOCTYPE svg PUBLIC "-//W3C//DTD SVG 1.1//EN"
  "http://www.w3.org/Graphics/SVG/1.1/DTD/svg11.dtd">
<svg xmlns:xlink="http://www.w3.org/1999/xlink" width="1440pt" height="1440pt" viewBox="0 0 1440 1440" xmlns="http://www.w3.org/2000/svg" version="1.1">
 <metadata>
  <rdf:RDF xmlns:dc="http://purl.org/dc/elements/1.1/" xmlns:cc="http://creativecommons.org/ns#" xmlns:rdf="http://www.w3.org/1999/02/22-rdf-syntax-ns#">
   <cc:Work>
    <dc:type rdf:resource="http://purl.org/dc/dcmitype/StillImage"/>
    <dc:date>2026-02-27T11:08:07.711380</dc:date>
    <dc:format>image/svg+xml</dc:format>
    <dc:creator>
     <cc:Agent>
      <dc:title>Matplotlib v3.7.3, https://matplotlib.org/</dc:title>
     </cc:Agent>
    </dc:creator>
   </cc:Work>
  </rdf:RDF>
 </metadata>
 <defs>
  <style type="text/css">*{stroke-linejoin: round; stroke-linecap: butt}</style>
 </defs>
 <g id="figure_1">
  <g id="patch_1">
   <path d="M 0 1440 
L 1440 1440 
L 1440 0 
L 0 0 
z
" style="fill: #ffffff"/>
  </g>
  <g id="axes_1">
   <g id="line2d_1">
    <path d="M 1015.74701 293.83174 
L 1020.876672 279.623531 
L 1020.534695 263.373424 
L 1012.156246 248.229346 
L 996.42528 234.786849 
L 973.341798 223.641488 
L 943.589755 215.558974 
L 936.408227 214.197709 
" clip-path="url(#p4b3c8fd14a)" style="fill: none; stroke: #7a7a7a; stroke-width: 3; stroke-linecap: square"/>
   </g>
   <g id="line2d_2">
    <path d="M 1085.339433 308.039948 
L 1091.15305 298.170774 
L 1095.085792 283.196853 
L 1093.375904 267.5423 
L 1086.878332 251.717589 
L 1075.764063 236.233194 
L 1060.717052 221.59959 
L 1041.908289 208.327251 
L 1019.85074 197.011732 
L 995.05737 188.163506 
L 968.041147 182.20797 
L 960.859619 180.846704 
" clip-path="url(#p4b3c8fd14a)" style="fill: none; stroke: #7a7a7a; stroke-width: 3; stroke-linecap: square"/>
   </g>
   <g id="line2d_3">
    <path d="M 1115.433454 164.851835 
L 1105.687095 177.358461 
L 1089.101185 192.162224 
L 1064.820782 203.988218 
L 1035.068739 212.581206 
L 1002.067909 217.430714 
L 968.554113 218.111347 
L 936.408227 214.197709 
" clip-path="url(#p4b3c8fd14a)" style="fill: none; stroke: #7a7a7a; stroke-width: 3; stroke-linecap: square"/>
   </g>
   <g id="line2d_4">
    <path d="M 1049.602783 150.388389 
L 1042.763233 159.491852 
L 1038.659503 164.256281 
L 1032.16193 169.871501 
L 1026.177324 173.70006 
L 1018.311841 177.358461 
L 1010.617347 179.995913 
L 1003.435819 181.527337 
L 993.860449 182.718444 
L 984.627056 183.058761 
L 972.144877 182.378128 
L 960.859619 180.846704 
" clip-path="url(#p4b3c8fd14a)" style="fill: none; stroke: #7a7a7a; stroke-width: 3; stroke-linecap: square"/>
   </g>
   <g id="line2d_5">
    <path d="M 1015.74701 293.83174 
L 609.306739 807.87962 
L 608.280807 809.155807 
L 607.938829 809.496123 
L 607.083885 810.68723 
L 606.741908 811.112626 
" clip-path="url(#p4b3c8fd14a)" style="fill: none; stroke: #7a7a7a; stroke-width: 3; stroke-linecap: square"/>
   </g>
   <g id="line2d_6">
    <path d="M 947.351508 281.154955 
L 934.69834 297.234904 
L 930.936587 302.424728 
L 921.874183 313.740248 
L 575.792943 756.32169 
L 568.440427 766.275944 
L 535.439597 807.87962 
L 534.413665 809.155807 
L 534.071687 809.496123 
L 533.216743 810.68723 
L 532.874766 811.112626 
" clip-path="url(#p4b3c8fd14a)" style="fill: none; stroke: #7a7a7a; stroke-width: 3; stroke-linecap: square"/>
   </g>
   <g id="line2d_7">
    <path d="M 1115.433454 164.851835 
L 1015.74701 293.83174 
" clip-path="url(#p4b3c8fd14a)" style="fill: none; stroke: #7a7a7a; stroke-width: 3; stroke-linecap: square"/>
   </g>
   <g id="line2d_8">
    <path d="M 1049.602783 150.388389 
L 1042.763233 159.491852 
L 1038.659503 164.256281 
L 947.351508 281.154955 
" clip-path="url(#p4b3c8fd14a)" style="fill: none; stroke: #7a7a7a; stroke-width: 3; stroke-linecap: square"/>
   </g>
   <g id="line2d_9">
    <path d="M 1115.433454 164.851835 
L 1208.964303 45.400788 
" clip-path="url(#p4b3c8fd14a)" style="fill: none; stroke: #7a7a7a; stroke-width: 3; stroke-linecap: square"/>
   </g>
   <g id="line2d_10">
    <path d="M 1184.683899 179.315281 
L 1289.158029 45.400788 
" clip-path="url(#p4b3c8fd14a)" style="fill: none; stroke: #7a7a7a; stroke-width: 3; stroke-linecap: square"/>
   </g>
   <g id="line2d_11">
    <path d="M 1015.74701 293.83174 
L 1025.32238 280.814639 
L 1039.172469 271.455938 
L 1054.219479 266.266114 
L 1078.157905 260.735973 
L 1106.542038 257.843283 
L 1135.09716 257.588046 
L 1159.719541 258.779153 
L 1202.637719 266.691509 
" clip-path="url(#p4b3c8fd14a)" style="fill: none; stroke: #7a7a7a; stroke-width: 3; stroke-linecap: square"/>
   </g>
   <g id="line2d_12">
    <path d="M 1085.339433 308.039948 
L 1088.075253 305.317417 
L 1093.717882 301.659016 
L 1096.795679 299.872355 
L 1102.438308 297.490141 
L 1108.422915 295.70348 
L 1114.749499 294.597452 
L 1121.076083 294.001898 
L 1131.506397 294.086977 
L 1141.936711 295.022847 
L 1153.221968 296.724429 
L 1155.7868 297.149824 
L 1179.725225 301.488858 
" clip-path="url(#p4b3c8fd14a)" style="fill: none; stroke: #7a7a7a; stroke-width: 3; stroke-linecap: square"/>
   </g>
   <g id="line2d_13">
    <path d="M 936.408227 214.197709 
L 968.554113 218.111347 
L 1002.067909 217.430714 
L 1035.068739 212.581206 
L 1064.820782 203.988218 
L 1089.101185 192.162224 
L 1105.687095 177.358461 
L 1115.433454 164.851835 
" clip-path="url(#p4b3c8fd14a)" style="fill: none; stroke: #7a7a7a; stroke-width: 3; stroke-linecap: square"/>
   </g>
   <g id="line2d_14">
    <path d="M 911.785847 249.845849 
L 942.392834 254.525199 
L 974.025753 256.31186 
L 1005.487684 255.631227 
L 1036.436649 252.56838 
L 1066.188692 247.293476 
L 1094.059859 239.891595 
L 1119.537184 230.447815 
L 1141.936711 219.047217 
L 1160.916462 205.945037 
L 1175.621495 191.056195 
L 1184.683899 179.315281 
" clip-path="url(#p4b3c8fd14a)" style="fill: none; stroke: #7a7a7a; stroke-width: 3; stroke-linecap: square"/>
   </g>
   <g id="line2d_15">
    <path d="M 1202.637719 266.691509 
L 936.408227 214.197709 
" clip-path="url(#p4b3c8fd14a)" style="fill: none; stroke: #7a7a7a; stroke-width: 3; stroke-linecap: square"/>
   </g>
   <g id="line2d_16">
    <path d="M 1224.866257 232.319555 
L 960.859619 180.846704 
" clip-path="url(#p4b3c8fd14a)" style="fill: none; stroke: #7a7a7a; stroke-width: 3; stroke-linecap: square"/>
   </g>
   <g id="line2d_17">
    <path d="M 1015.74701 293.83174 
L 1115.433454 164.851835 
" clip-path="url(#p4b3c8fd14a)" style="fill: none; stroke: #7a7a7a; stroke-width: 3; stroke-linecap: square"/>
   </g>
   <g id="line2d_18">
    <path d="M 1085.339433 308.039948 
L 1184.683899 179.315281 
" clip-path="url(#p4b3c8fd14a)" style="fill: none; stroke: #7a7a7a; stroke-width: 3; stroke-linecap: square"/>
   </g>
   <g id="line2d_19">
    <path d="M -1 994.6262 
L 59.406904 1006.284065 
L 60.090859 1006.454223 
L 62.826679 1006.964698 
" clip-path="url(#p4b3c8fd14a)" style="fill: none; stroke: #7a7a7a; stroke-width: 3; stroke-linecap: square"/>
   </g>
   <g id="line2d_20">
    <path d="M -1 1033.310037 
L 8.452255 1035.125878 
L 59.406904 1045.675685 
L 60.090859 1045.760764 
L 62.826679 1046.271239 
" clip-path="url(#p4b3c8fd14a)" style="fill: none; stroke: #7a7a7a; stroke-width: 3; stroke-linecap: square"/>
   </g>
   <g id="line2d_21">
    <path d="M 936.408227 214.197709 
L 943.589755 215.558974 
L 973.341798 223.641488 
L 996.42528 234.786849 
L 1012.156246 248.229346 
L 1020.534695 263.373424 
L 1020.876672 279.623531 
L 1015.74701 293.83174 
" clip-path="url(#p4b3c8fd14a)" style="fill: none; stroke: #7a7a7a; stroke-width: 3; stroke-linecap: square"/>
   </g>
   <g id="line2d_22">
    <path d="M 911.785847 249.845849 
L 917.941442 251.462351 
L 922.045172 252.142984 
L 930.59461 255.37599 
L 937.263171 258.438837 
L 942.050856 261.416605 
L 946.154586 264.989927 
L 948.206451 268.137854 
L 949.574361 272.817204 
L 948.37744 277.921949 
L 947.351508 281.154955 
" clip-path="url(#p4b3c8fd14a)" style="fill: none; stroke: #7a7a7a; stroke-width: 3; stroke-linecap: square"/>
   </g>
   <g id="line2d_23">
    <path d="M 606.741908 811.112626 
L 607.083885 810.68723 
L 607.938829 809.496123 
L 608.280807 809.155807 
L 609.306739 807.87962 
L 1015.74701 293.83174 
" clip-path="url(#p4b3c8fd14a)" style="fill: none; stroke: #7a7a7a; stroke-width: 3; stroke-linecap: square"/>
   </g>
   <g id="line2d_24">
    <path d="M 692.749252 811.112626 
L 693.091229 810.68723 
L 694.117162 809.496123 
L 694.28815 809.240886 
L 695.314083 807.87962 
L 760.631787 724.161793 
L 773.797921 706.55042 
L 827.830368 636.785564 
L 897.59378 547.367437 
L 1077.302961 316.888174 
L 1085.339433 308.039948 
" clip-path="url(#p4b3c8fd14a)" style="fill: none; stroke: #7a7a7a; stroke-width: 3; stroke-linecap: square"/>
   </g>
   <g id="line2d_25">
    <path d="M 936.408227 214.197709 
L 1202.637719 266.691509 
" clip-path="url(#p4b3c8fd14a)" style="fill: none; stroke: #7a7a7a; stroke-width: 3; stroke-linecap: square"/>
   </g>
   <g id="line2d_26">
    <path d="M 911.785847 249.845849 
L 1153.221968 296.724429 
L 1179.725225 301.488858 
" clip-path="url(#p4b3c8fd14a)" style="fill: none; stroke: #7a7a7a; stroke-width: 3; stroke-linecap: square"/>
   </g>
   <g id="line2d_27">
    <path d="M 1208.964303 45.400788 
L 1115.433454 164.851835 
" clip-path="url(#p4b3c8fd14a)" style="fill: none; stroke: #7a7a7a; stroke-width: 3; stroke-linecap: square"/>
   </g>
   <g id="line2d_28">
    <path d="M 1131.677385 45.400788 
L 1049.602783 150.388389 
" clip-path="url(#p4b3c8fd14a)" style="fill: none; stroke: #7a7a7a; stroke-width: 3; stroke-linecap: square"/>
   </g>
   <g id="line2d_29">
    <path d="M -1 37.669688 
L 936.408227 214.197709 
" clip-path="url(#p4b3c8fd14a)" style="fill: none; stroke: #7a7a7a; stroke-width: 3; stroke-linecap: square"/>
   </g>
   <g id="line2d_30">
    <path d="M -1 74.545003 
L 801.156122 229.001471 
L 911.785847 249.845849 
" clip-path="url(#p4b3c8fd14a)" style="fill: none; stroke: #7a7a7a; stroke-width: 3; stroke-linecap: square"/>
   </g>
   <g id="line2d_31">
    <path d="M 1202.637719 266.691509 
L 1441 312.982814 
" clip-path="url(#p4b3c8fd14a)" style="fill: none; stroke: #7a7a7a; stroke-width: 3; stroke-linecap: square"/>
   </g>
   <g id="line2d_32">
    <path d="M 1179.725225 301.488858 
L 1380.466024 340.965557 
L 1441 352.647972 
" clip-path="url(#p4b3c8fd14a)" style="fill: none; stroke: #7a7a7a; stroke-width: 3; stroke-linecap: square"/>
   </g>
   <g id="line2d_33">
    <path d="M 1202.637719 266.691509 
L 1176.134462 260.140419 
L 1152.709002 250.781719 
L 1133.045295 239.210962 
L 1117.827296 226.023703 
L 1107.567971 211.645336 
L 1102.951275 196.756495 
L 1104.661162 181.952732 
L 1113.2106 167.659445 
L 1115.433454 164.851835 
" clip-path="url(#p4b3c8fd14a)" style="fill: none; stroke: #7a7a7a; stroke-width: 3; stroke-linecap: square"/>
   </g>
   <g id="line2d_34">
    <path d="M 1224.866257 232.319555 
L 1213.580999 229.937341 
L 1204.689584 227.470047 
L 1197.337067 224.662437 
L 1190.497517 220.833878 
L 1184.683899 216.154528 
L 1179.725225 210.028833 
L 1176.989405 204.498692 
L 1175.963473 199.649184 
L 1176.30545 195.735545 
L 1178.015338 191.481591 
L 1181.606102 185.866371 
L 1182.461046 182.122891 
L 1184.683899 179.315281 
" clip-path="url(#p4b3c8fd14a)" style="fill: none; stroke: #7a7a7a; stroke-width: 3; stroke-linecap: square"/>
   </g>
   <g id="line2d_35">
    <path d="M 1115.433454 164.851835 
L 1113.2106 167.659445 
L 1104.661162 181.952732 
L 1102.951275 196.756495 
L 1107.567971 211.645336 
L 1117.827296 226.023703 
L 1133.045295 239.210962 
L 1152.709002 250.781719 
L 1176.134462 260.140419 
L 1202.637719 266.691509 
" clip-path="url(#p4b3c8fd14a)" style="fill: none; stroke: #7a7a7a; stroke-width: 3; stroke-linecap: square"/>
   </g>
   <g id="line2d_36">
    <path d="M 1049.602783 150.388389 
L 1048.063884 152.430287 
L 1039.172469 167.574366 
L 1035.239728 183.824472 
L 1036.436649 200.499975 
L 1042.079278 217.090398 
L 1051.996626 233.255426 
L 1065.846715 248.73982 
L 1083.116579 263.033108 
L 1103.464241 275.794972 
L 1126.547723 286.770175 
L 1152.025047 295.448243 
L 1179.725225 301.488858 
" clip-path="url(#p4b3c8fd14a)" style="fill: none; stroke: #7a7a7a; stroke-width: 3; stroke-linecap: square"/>
   </g>
   <g id="line2d_37">
    <path d="M 62.826679 1006.964698 
L 60.090859 1006.454223 
L 59.406904 1006.284065 
L -1 994.6262 
" clip-path="url(#p4b3c8fd14a)" style="fill: none; stroke: #7a7a7a; stroke-width: 3; stroke-linecap: square"/>
   </g>
   <g id="line2d_38">
    <path d="M 62.826679 967.998473 
L 60.090859 967.487999 
L -1 955.757591 
" clip-path="url(#p4b3c8fd14a)" style="fill: none; stroke: #7a7a7a; stroke-width: 3; stroke-linecap: square"/>
   </g>
   <g id="line2d_39">
    <path d="M 1441 312.982814 
L 1202.637719 266.691509 
" clip-path="url(#p4b3c8fd14a)" style="fill: none; stroke: #7a7a7a; stroke-width: 3; stroke-linecap: square"/>
   </g>
   <g id="line2d_40">
    <path d="M 1441 273.316221 
L 1322.500836 250.866798 
L 1248.804682 236.998906 
L 1224.866257 232.319555 
" clip-path="url(#p4b3c8fd14a)" style="fill: none; stroke: #7a7a7a; stroke-width: 3; stroke-linecap: square"/>
   </g>
   <g id="line2d_41">
    <path d="M 936.408227 214.197709 
L -1 37.669688 
" clip-path="url(#p4b3c8fd14a)" style="fill: none; stroke: #7a7a7a; stroke-width: 3; stroke-linecap: square"/>
   </g>
   <g id="line2d_42">
    <path d="M 960.859619 180.846704 
L 959.833687 180.676546 
L 917.257487 172.76419 
L 182.689796 32.213529 
L 11.010467 -1 
" clip-path="url(#p4b3c8fd14a)" style="fill: none; stroke: #7a7a7a; stroke-width: 3; stroke-linecap: square"/>
   </g>
   <g id="line2d_43">
    <path d="M 1202.637719 266.691509 
L 1159.719541 258.779153 
L 1135.09716 257.588046 
L 1106.542038 257.843283 
L 1078.157905 260.735973 
L 1054.219479 266.266114 
L 1039.172469 271.455938 
L 1025.32238 280.814639 
L 1015.74701 293.83174 
" clip-path="url(#p4b3c8fd14a)" style="fill: none; stroke: #7a7a7a; stroke-width: 3; stroke-linecap: square"/>
   </g>
   <g id="line2d_44">
    <path d="M 1224.866257 232.319555 
L 1196.653112 226.789414 
L 1165.191181 223.131013 
L 1132.874307 222.280223 
L 1100.386443 224.066883 
L 1068.582535 228.405917 
L 1038.146536 234.957007 
L 1009.933392 243.720154 
L 984.969034 254.44012 
L 963.766428 266.946746 
L 947.351508 281.154955 
" clip-path="url(#p4b3c8fd14a)" style="fill: none; stroke: #7a7a7a; stroke-width: 3; stroke-linecap: square"/>
   </g>
   <g id="line2d_45">
    <path d="M 1441 1272.392125 
L 529.967957 1096.978378 
" clip-path="url(#p4b3c8fd14a)" style="fill: none; stroke: #7a7a7a; stroke-width: 3; stroke-linecap: square"/>
   </g>
   <g id="line2d_46">
    <path d="M 1441 1233.450429 
L 1410.731033 1227.659865 
L 1375.849327 1220.768459 
L 701.127701 1090.852684 
L 686.08069 1088.38539 
L 627.944514 1076.814633 
L 555.787259 1062.861662 
" clip-path="url(#p4b3c8fd14a)" style="fill: none; stroke: #7a7a7a; stroke-width: 3; stroke-linecap: square"/>
   </g>
   <g id="line2d_47">
    <path d="M 119.566653 1441 
L 355.21745 1138.07158 
" clip-path="url(#p4b3c8fd14a)" style="fill: none; stroke: #7a7a7a; stroke-width: 3; stroke-linecap: square"/>
   </g>
   <g id="line2d_48">
    <path d="M 196.438766 1441 
L 294.174464 1318.098941 
L 309.734441 1298.190434 
L 412.156705 1162.574359 
L 423.270974 1150.578207 
" clip-path="url(#p4b3c8fd14a)" style="fill: none; stroke: #7a7a7a; stroke-width: 3; stroke-linecap: square"/>
   </g>
   <g id="line2d_49">
    <path d="M 355.21745 1138.07158 
L 358.979202 1133.307151 
L 375.7361 1119.524338 
L 395.057829 1108.464056 
L 417.115379 1100.041226 
L 441.737759 1094.596164 
L 468.924972 1092.12887 
L 498.335037 1092.894582 
L 529.967957 1096.978378 
" clip-path="url(#p4b3c8fd14a)" style="fill: none; stroke: #7a7a7a; stroke-width: 3; stroke-linecap: square"/>
   </g>
   <g id="line2d_50">
    <path d="M 423.270974 1150.578207 
L 426.006794 1147.430281 
L 430.965468 1144.367433 
L 434.898209 1141.219507 
L 440.198861 1138.156659 
L 446.696433 1135.008733 
L 453.194006 1132.626518 
L 461.059489 1130.58462 
L 471.83178 1128.968117 
L 477.132432 1128.71288 
L 484.826926 1128.968117 
L 503.122722 1131.010016 
" clip-path="url(#p4b3c8fd14a)" style="fill: none; stroke: #7a7a7a; stroke-width: 3; stroke-linecap: square"/>
   </g>
   <g id="line2d_51">
    <path d="M 606.741908 811.112626 
L 457.981691 1008.070726 
" clip-path="url(#p4b3c8fd14a)" style="fill: none; stroke: #7a7a7a; stroke-width: 3; stroke-linecap: square"/>
   </g>
   <g id="line2d_52">
    <path d="M 532.874766 811.112626 
L 443.960613 924.523057 
L 391.125088 995.47902 
L 389.928167 996.755207 
" clip-path="url(#p4b3c8fd14a)" style="fill: none; stroke: #7a7a7a; stroke-width: 3; stroke-linecap: square"/>
   </g>
   <g id="line2d_53">
    <path d="M 529.967957 1096.978378 
L 293.490509 1051.461064 
" clip-path="url(#p4b3c8fd14a)" style="fill: none; stroke: #7a7a7a; stroke-width: 3; stroke-linecap: square"/>
   </g>
   <g id="line2d_54">
    <path d="M 555.787259 1062.861662 
L 319.651789 1015.983082 
" clip-path="url(#p4b3c8fd14a)" style="fill: none; stroke: #7a7a7a; stroke-width: 3; stroke-linecap: square"/>
   </g>
   <g id="line2d_55">
    <path d="M 529.967957 1096.978378 
L 1441 1272.392125 
" clip-path="url(#p4b3c8fd14a)" style="fill: none; stroke: #7a7a7a; stroke-width: 3; stroke-linecap: square"/>
   </g>
   <g id="line2d_56">
    <path d="M 503.122722 1131.010016 
L 522.786429 1134.413179 
L 635.809996 1156.448664 
L 774.823854 1183.1635 
L 855.701535 1198.988211 
L 1441 1311.560927 
" clip-path="url(#p4b3c8fd14a)" style="fill: none; stroke: #7a7a7a; stroke-width: 3; stroke-linecap: square"/>
   </g>
   <g id="line2d_57">
    <path d="M 529.967957 1096.978378 
L 498.335037 1092.894582 
L 468.924972 1092.12887 
L 441.737759 1094.596164 
L 417.115379 1100.041226 
L 395.057829 1108.464056 
L 375.7361 1119.524338 
L 358.979202 1133.307151 
L 355.21745 1138.07158 
" clip-path="url(#p4b3c8fd14a)" style="fill: none; stroke: #7a7a7a; stroke-width: 3; stroke-linecap: square"/>
   </g>
   <g id="line2d_58">
    <path d="M 555.787259 1062.861662 
L 525.009283 1057.841996 
L 493.205375 1055.629939 
L 461.230478 1056.140414 
L 429.768547 1059.203261 
L 399.503537 1064.648323 
L 371.119404 1072.220362 
L 345.471091 1081.919379 
L 323.071564 1093.490136 
L 304.775767 1106.762474 
L 291.267655 1121.651315 
L 287.505903 1126.330666 
" clip-path="url(#p4b3c8fd14a)" style="fill: none; stroke: #7a7a7a; stroke-width: 3; stroke-linecap: square"/>
   </g>
   <g id="line2d_59">
    <path d="M 355.21745 1138.07158 
L 457.981691 1008.070726 
" clip-path="url(#p4b3c8fd14a)" style="fill: none; stroke: #7a7a7a; stroke-width: 3; stroke-linecap: square"/>
   </g>
   <g id="line2d_60">
    <path d="M 423.270974 1150.578207 
L 528.429058 1020.237036 
" clip-path="url(#p4b3c8fd14a)" style="fill: none; stroke: #7a7a7a; stroke-width: 3; stroke-linecap: square"/>
   </g>
   <g id="line2d_61">
    <path d="M 62.826679 1006.964698 
L 64.0236 1007.219935 
L 293.490509 1051.461064 
" clip-path="url(#p4b3c8fd14a)" style="fill: none; stroke: #7a7a7a; stroke-width: 3; stroke-linecap: square"/>
   </g>
   <g id="line2d_62">
    <path d="M 62.826679 1046.271239 
L 64.0236 1046.526476 
L 149.176 1062.181029 
L 218.084468 1075.878763 
L 250.914309 1081.749221 
L 268.355162 1085.918096 
" clip-path="url(#p4b3c8fd14a)" style="fill: none; stroke: #7a7a7a; stroke-width: 3; stroke-linecap: square"/>
   </g>
   <g id="line2d_63">
    <path d="M 529.967957 1096.978378 
L 504.490633 1089.831735 
L 482.775061 1080.558113 
L 465.676185 1069.497831 
L 453.706972 1056.821046 
L 447.551377 1042.953154 
L 447.551377 1027.979234 
L 454.561916 1012.324681 
L 457.981691 1008.070726 
" clip-path="url(#p4b3c8fd14a)" style="fill: none; stroke: #7a7a7a; stroke-width: 3; stroke-linecap: square"/>
   </g>
   <g id="line2d_64">
    <path d="M 555.787259 1062.861662 
L 554.932315 1062.606425 
L 546.895844 1060.649606 
L 537.83344 1057.161363 
L 529.796968 1052.73725 
L 525.351261 1048.738533 
L 521.760497 1042.527759 
L 521.076542 1035.636352 
L 523.470384 1028.234471 
L 528.429058 1020.237036 
" clip-path="url(#p4b3c8fd14a)" style="fill: none; stroke: #7a7a7a; stroke-width: 3; stroke-linecap: square"/>
   </g>
   <g id="line2d_65">
    <path d="M 293.490509 1051.461064 
L 325.294417 1060.649606 
L 348.548888 1071.965125 
L 363.42491 1085.237464 
L 370.26446 1099.871068 
L 369.238527 1115.525621 
L 360.518101 1131.775727 
L 355.21745 1138.07158 
" clip-path="url(#p4b3c8fd14a)" style="fill: none; stroke: #7a7a7a; stroke-width: 3; stroke-linecap: square"/>
   </g>
   <g id="line2d_66">
    <path d="M 268.355162 1085.918096 
L 275.365701 1088.130153 
L 282.889206 1091.363158 
L 289.044801 1094.681243 
L 294.68743 1098.67996 
L 298.278194 1102.168203 
L 299.646104 1105.31613 
L 299.475115 1108.464056 
L 298.278194 1111.526903 
L 294.003475 1117.652598 
L 293.661498 1118.503389 
L 287.505903 1126.330666 
" clip-path="url(#p4b3c8fd14a)" style="fill: none; stroke: #7a7a7a; stroke-width: 3; stroke-linecap: square"/>
   </g>
   <g id="line2d_67">
    <path d="M 355.21745 1138.07158 
L 360.518101 1131.775727 
L 369.238527 1115.525621 
L 370.26446 1099.871068 
L 363.42491 1085.237464 
L 348.548888 1071.965125 
L 325.294417 1060.649606 
L 293.490509 1051.461064 
" clip-path="url(#p4b3c8fd14a)" style="fill: none; stroke: #7a7a7a; stroke-width: 3; stroke-linecap: square"/>
   </g>
   <g id="line2d_68">
    <path d="M 423.270974 1150.578207 
L 428.571625 1144.367433 
L 437.634029 1128.287485 
L 440.882816 1112.037378 
L 438.659962 1096.042508 
L 431.820412 1080.473034 
L 420.706143 1065.83943 
L 405.659132 1052.311855 
L 387.534324 1040.400782 
L 366.502707 1030.361449 
L 343.077248 1022.449093 
L 319.651789 1015.983082 
" clip-path="url(#p4b3c8fd14a)" style="fill: none; stroke: #7a7a7a; stroke-width: 3; stroke-linecap: square"/>
   </g>
   <g id="line2d_69">
    <path d="M 293.490509 1051.461064 
L 64.0236 1007.219935 
L 62.826679 1006.964698 
" clip-path="url(#p4b3c8fd14a)" style="fill: none; stroke: #7a7a7a; stroke-width: 3; stroke-linecap: square"/>
   </g>
   <g id="line2d_70">
    <path d="M 319.651789 1015.983082 
L 317.599923 1015.727845 
L 301.355992 1013.005314 
L 275.878667 1007.900568 
L 63.852611 968.253711 
L 62.826679 967.998473 
" clip-path="url(#p4b3c8fd14a)" style="fill: none; stroke: #7a7a7a; stroke-width: 3; stroke-linecap: square"/>
   </g>
   <g id="line2d_71">
    <path d="M 457.981691 1008.070726 
L 606.741908 811.112626 
" clip-path="url(#p4b3c8fd14a)" style="fill: none; stroke: #7a7a7a; stroke-width: 3; stroke-linecap: square"/>
   </g>
   <g id="line2d_72">
    <path d="M 528.429058 1020.237036 
L 692.749252 811.112626 
" clip-path="url(#p4b3c8fd14a)" style="fill: none; stroke: #7a7a7a; stroke-width: 3; stroke-linecap: square"/>
   </g>
   <g id="line2d_73">
    <path d="M 293.490509 1051.461064 
L 529.967957 1096.978378 
" clip-path="url(#p4b3c8fd14a)" style="fill: none; stroke: #7a7a7a; stroke-width: 3; stroke-linecap: square"/>
   </g>
   <g id="line2d_74">
    <path d="M 268.355162 1085.918096 
L 503.122722 1131.010016 
" clip-path="url(#p4b3c8fd14a)" style="fill: none; stroke: #7a7a7a; stroke-width: 3; stroke-linecap: square"/>
   </g>
   <g id="line2d_75">
    <path d="M 355.21745 1138.07158 
L 119.566653 1441 
" clip-path="url(#p4b3c8fd14a)" style="fill: none; stroke: #7a7a7a; stroke-width: 3; stroke-linecap: square"/>
   </g>
   <g id="line2d_76">
    <path d="M 287.505903 1126.330666 
L 222.01721 1207.751358 
L 108.993643 1351.96042 
L 87.107082 1380.376837 
L 39.863719 1441 
" clip-path="url(#p4b3c8fd14a)" style="fill: none; stroke: #7a7a7a; stroke-width: 3; stroke-linecap: square"/>
   </g>
   <g id="line2d_77">
    <path d="M 457.981691 1008.070726 
L 454.561916 1012.324681 
L 447.551377 1027.979234 
L 447.551377 1042.953154 
L 453.706972 1056.821046 
L 465.676185 1069.497831 
L 482.775061 1080.558113 
L 504.490633 1089.831735 
L 529.967957 1096.978378 
" clip-path="url(#p4b3c8fd14a)" style="fill: none; stroke: #7a7a7a; stroke-width: 3; stroke-linecap: square"/>
   </g>
   <g id="line2d_78">
    <path d="M 389.928167 996.755207 
L 386.508392 1001.009161 
L 376.933021 1015.642765 
L 373.513246 1031.042081 
L 375.394123 1046.866793 
L 382.233673 1062.606425 
L 393.518931 1077.750503 
L 409.078907 1092.043791 
L 428.229648 1104.975813 
L 450.458186 1116.036095 
L 475.593533 1124.884321 
L 503.122722 1131.010016 
" clip-path="url(#p4b3c8fd14a)" style="fill: none; stroke: #7a7a7a; stroke-width: 3; stroke-linecap: square"/>
   </g>
   <g id="line2d_79">
    <path d="M 457.981691 1008.070726 
L 355.21745 1138.07158 
" clip-path="url(#p4b3c8fd14a)" style="fill: none; stroke: #7a7a7a; stroke-width: 3; stroke-linecap: square"/>
   </g>
   <g id="line2d_80">
    <path d="M 389.928167 996.755207 
L 287.505903 1126.330666 
" clip-path="url(#p4b3c8fd14a)" style="fill: none; stroke: #7a7a7a; stroke-width: 3; stroke-linecap: square"/>
   </g>
   <g id="line2d_81">
    <path d="M 293.490509 1051.461064 
L 330.766058 1055.034386 
L 364.621831 1054.013436 
L 394.031897 1049.078849 
L 418.3123 1041.251572 
L 436.950074 1031.297319 
L 448.748298 1019.981799 
L 457.981691 1008.070726 
" clip-path="url(#p4b3c8fd14a)" style="fill: none; stroke: #7a7a7a; stroke-width: 3; stroke-linecap: square"/>
   </g>
   <g id="line2d_82">
    <path d="M 268.355162 1085.918096 
L 303.065879 1090.682526 
L 338.118574 1091.958712 
L 372.658303 1090.172051 
L 405.830121 1085.492701 
L 436.779086 1078.431136 
L 464.308275 1069.242594 
L 487.904723 1058.267391 
L 506.542498 1045.760764 
L 519.195665 1032.148109 
L 528.429058 1020.237036 
" clip-path="url(#p4b3c8fd14a)" style="fill: none; stroke: #7a7a7a; stroke-width: 3; stroke-linecap: square"/>
   </g>
   <g id="line2d_83">
    <path d="M 457.981691 1008.070726 
L 448.748298 1019.981799 
L 436.950074 1031.297319 
L 418.3123 1041.251572 
L 394.031897 1049.078849 
L 364.621831 1054.013436 
L 330.766058 1055.034386 
L 293.490509 1051.461064 
" clip-path="url(#p4b3c8fd14a)" style="fill: none; stroke: #7a7a7a; stroke-width: 3; stroke-linecap: square"/>
   </g>
   <g id="line2d_84">
    <path d="M 389.928167 996.755207 
L 383.430594 1004.582483 
L 377.10401 1007.560252 
L 374.710168 1009.006596 
L 364.108865 1013.175472 
L 349.232843 1016.578635 
L 340.341428 1017.344347 
L 328.885181 1017.174189 
L 319.651789 1015.983082 
" clip-path="url(#p4b3c8fd14a)" style="fill: none; stroke: #7a7a7a; stroke-width: 3; stroke-linecap: square"/>
   </g>
   <g id="line2d_85">
    <path d="M 341.97751 1184.762721 
L 711.118687 709.865182 
" clip-path="url(#p4b3c8fd14a)" style="fill: none; stroke-dasharray: 32,8,5,8; stroke-dashoffset: 0; stroke: #1e90ff; stroke-width: 5"/>
   </g>
   <g id="line2d_86">
    <path d="M 458.275745 923.329374 
L 459.87459 923.83827 
" clip-path="url(#p4b3c8fd14a)" style="fill: none; stroke-dasharray: 32,8,5,8; stroke-dashoffset: 0; stroke: #1e90ff; stroke-width: 5"/>
   </g>
   <g id="line2d_87">
    <path d="M 883.572702 519.752043 
L 920.325265 516.632199 
" clip-path="url(#p4b3c8fd14a)" style="fill: none; stroke-dasharray: 32,8,5,8; stroke-dashoffset: 0; stroke: #1e90ff; stroke-width: 5"/>
   </g>
   <g id="line2d_88">
    <path d="M 979.110999 413.566231 
L 977.854465 414.676455 
" clip-path="url(#p4b3c8fd14a)" style="fill: none; stroke-dasharray: 32,8,5,8; stroke-dashoffset: 0; stroke: #1e90ff; stroke-width: 5"/>
   </g>
   <g id="line2d_89">
    <path d="M 399.160224 993.459389 
L 394.635033 1000.025185 
" clip-path="url(#p4b3c8fd14a)" style="fill: none; stroke-dasharray: 32,8,5,8; stroke-dashoffset: 0; stroke: #1e90ff; stroke-width: 5"/>
   </g>
   <g id="line2d_90">
    <path d="M 923.401894 322.690917 
L 920.099841 327.596051 
" clip-path="url(#p4b3c8fd14a)" style="fill: none; stroke-dasharray: 32,8,5,8; stroke-dashoffset: 0; stroke: #1e90ff; stroke-width: 5"/>
   </g>
   <g id="line2d_91">
    <path d="M 557.266379 822.979248 
L 523.853439 814.662435 
" clip-path="url(#p4b3c8fd14a)" style="fill: none; stroke-dasharray: 32,8,5,8; stroke-dashoffset: 0; stroke: #1e90ff; stroke-width: 5"/>
   </g>
   <g id="line2d_92">
    <path d="M 1083.799866 187.917616 
L 1079.679605 192.4686 
" clip-path="url(#p4b3c8fd14a)" style="fill: none; stroke-dasharray: 32,8,5,8; stroke-dashoffset: 0; stroke: #1e90ff; stroke-width: 5"/>
   </g>
   <g id="line2d_93">
    <path d="M 1178.010662 62.109192 
L 1183.516868 42.539547 
" clip-path="url(#p4b3c8fd14a)" style="fill: none; stroke-dasharray: 32,8,5,8; stroke-dashoffset: 0; stroke: #1e90ff; stroke-width: 5"/>
   </g>
   <g id="line2d_94">
    <path d="M 645.74137 741.207979 
L 557.107746 854.493408 
" clip-path="url(#p4b3c8fd14a)" style="fill: none; stroke-dasharray: 32,8,5,8; stroke-dashoffset: 0; stroke: #1e90ff; stroke-width: 5"/>
   </g>
   <g id="line2d_95">
    <path d="M 341.97751 1184.762721 
" clip-path="url(#p4b3c8fd14a)" style="fill: none; stroke: #0000ff; stroke-width: 1.5; stroke-linecap: square"/>
    <defs>
     <path id="m25963acc84" d="M 0 10 
C 2.652031 10 5.195799 8.946337 7.071068 7.071068 
C 8.946337 5.195799 10 2.652031 10 0 
C 10 -2.652031 8.946337 -5.195799 7.071068 -7.071068 
C 5.195799 -8.946337 2.652031 -10 0 -10 
C -2.652031 -10 -5.195799 -8.946337 -7.071068 -7.071068 
C -8.946337 -5.195799 -10 -2.652031 -10 0 
C -10 2.652031 -8.946337 5.195799 -7.071068 7.071068 
C -5.195799 8.946337 -2.652031 10 0 10 
z
" style="stroke: #0000ff"/>
    </defs>
    <g clip-path="url(#p4b3c8fd14a)">
     <use xlink:href="#m25963acc84" x="341.97751" y="1184.762721" style="fill: #0000ff; stroke: #0000ff"/>
    </g>
   </g>
   <g id="line2d_96">
    <path d="M 458.275745 923.329374 
" clip-path="url(#p4b3c8fd14a)" style="fill: none; stroke: #0000ff; stroke-width: 1.5; stroke-linecap: square"/>
    <g clip-path="url(#p4b3c8fd14a)">
     <use xlink:href="#m25963acc84" x="458.275745" y="923.329374" style="fill: #0000ff; stroke: #0000ff"/>
    </g>
   </g>
   <g id="line2d_97">
    <path d="M 883.572702 519.752043 
" clip-path="url(#p4b3c8fd14a)" style="fill: none; stroke: #0000ff; stroke-width: 1.5; stroke-linecap: square"/>
    <g clip-path="url(#p4b3c8fd14a)">
     <use xlink:href="#m25963acc84" x="883.572702" y="519.752043" style="fill: #0000ff; stroke: #0000ff"/>
    </g>
   </g>
   <g id="line2d_98">
    <path d="M 979.110999 413.566231 
" clip-path="url(#p4b3c8fd14a)" style="fill: none; stroke: #0000ff; stroke-width: 1.5; stroke-linecap: square"/>
    <g clip-path="url(#p4b3c8fd14a)">
     <use xlink:href="#m25963acc84" x="979.110999" y="413.566231" style="fill: #0000ff; stroke: #0000ff"/>
    </g>
   </g>
   <g id="line2d_99">
    <path d="M 399.160224 993.459389 
" clip-path="url(#p4b3c8fd14a)" style="fill: none; stroke: #0000ff; stroke-width: 1.5; stroke-linecap: square"/>
    <g clip-path="url(#p4b3c8fd14a)">
     <use xlink:href="#m25963acc84" x="399.160224" y="993.459389" style="fill: #0000ff; stroke: #0000ff"/>
    </g>
   </g>
   <g id="line2d_100">
    <path d="M 923.401894 322.690917 
" clip-path="url(#p4b3c8fd14a)" style="fill: none; stroke: #0000ff; stroke-width: 1.5; stroke-linecap: square"/>
    <g clip-path="url(#p4b3c8fd14a)">
     <use xlink:href="#m25963acc84" x="923.401894" y="322.690917" style="fill: #0000ff; stroke: #0000ff"/>
    </g>
   </g>
   <g id="line2d_101">
    <path d="M 557.266379 822.979248 
" clip-path="url(#p4b3c8fd14a)" style="fill: none; stroke: #0000ff; stroke-width: 1.5; stroke-linecap: square"/>
    <g clip-path="url(#p4b3c8fd14a)">
     <use xlink:href="#m25963acc84" x="557.266379" y="822.979248" style="fill: #0000ff; stroke: #0000ff"/>
    </g>
   </g>
   <g id="line2d_102">
    <path d="M 1083.799866 187.917616 
" clip-path="url(#p4b3c8fd14a)" style="fill: none; stroke: #0000ff; stroke-width: 1.5; stroke-linecap: square"/>
    <g clip-path="url(#p4b3c8fd14a)">
     <use xlink:href="#m25963acc84" x="1083.799866" y="187.917616" style="fill: #0000ff; stroke: #0000ff"/>
    </g>
   </g>
   <g id="line2d_103">
    <path d="M 1178.010662 62.109192 
" clip-path="url(#p4b3c8fd14a)" style="fill: none; stroke: #0000ff; stroke-width: 1.5; stroke-linecap: square"/>
    <g clip-path="url(#p4b3c8fd14a)">
     <use xlink:href="#m25963acc84" x="1178.010662" y="62.109192" style="fill: #0000ff; stroke: #0000ff"/>
    </g>
   </g>
   <g id="line2d_104">
    <path d="M 645.74137 741.207979 
" clip-path="url(#p4b3c8fd14a)" style="fill: none; stroke: #0000ff; stroke-width: 1.5; stroke-linecap: square"/>
    <g clip-path="url(#p4b3c8fd14a)">
     <use xlink:href="#m25963acc84" x="645.74137" y="741.207979" style="fill: #0000ff; stroke: #0000ff"/>
    </g>
   </g>
   <g id="line2d_105">
    <path d="M 711.118687 709.865182 
" clip-path="url(#p4b3c8fd14a)" style="fill: none; stroke: #ff0000; stroke-width: 1.5; stroke-linecap: square"/>
    <defs>
     <path id="m063bb8d8ba" d="M 0 -10 
L -2.24514 -3.09017 
L -9.510565 -3.09017 
L -3.632713 1.18034 
L -5.877853 8.09017 
L -0 3.81966 
L 5.877853 8.09017 
L 3.632713 1.18034 
L 9.510565 -3.09017 
L 2.24514 -3.09017 
z
" style="stroke: #ff0000; stroke-linejoin: bevel"/>
    </defs>
    <g clip-path="url(#p4b3c8fd14a)">
     <use xlink:href="#m063bb8d8ba" x="711.118687" y="709.865182" style="fill: #ff0000; stroke: #ff0000; stroke-linejoin: bevel"/>
    </g>
   </g>
   <g id="line2d_106">
    <path d="M 459.87459 923.83827 
" clip-path="url(#p4b3c8fd14a)" style="fill: none; stroke: #ff0000; stroke-width: 1.5; stroke-linecap: square"/>
    <g clip-path="url(#p4b3c8fd14a)">
     <use xlink:href="#m063bb8d8ba" x="459.87459" y="923.83827" style="fill: #ff0000; stroke: #ff0000; stroke-linejoin: bevel"/>
    </g>
   </g>
   <g id="line2d_107">
    <path d="M 920.325265 516.632199 
" clip-path="url(#p4b3c8fd14a)" style="fill: none; stroke: #ff0000; stroke-width: 1.5; stroke-linecap: square"/>
    <g clip-path="url(#p4b3c8fd14a)">
     <use xlink:href="#m063bb8d8ba" x="920.325265" y="516.632199" style="fill: #ff0000; stroke: #ff0000; stroke-linejoin: bevel"/>
    </g>
   </g>
   <g id="line2d_108">
    <path d="M 977.854465 414.676455 
" clip-path="url(#p4b3c8fd14a)" style="fill: none; stroke: #ff0000; stroke-width: 1.5; stroke-linecap: square"/>
    <g clip-path="url(#p4b3c8fd14a)">
     <use xlink:href="#m063bb8d8ba" x="977.854465" y="414.676455" style="fill: #ff0000; stroke: #ff0000; stroke-linejoin: bevel"/>
    </g>
   </g>
   <g id="line2d_109">
    <path d="M 394.635033 1000.025185 
" clip-path="url(#p4b3c8fd14a)" style="fill: none; stroke: #ff0000; stroke-width: 1.5; stroke-linecap: square"/>
    <g clip-path="url(#p4b3c8fd14a)">
     <use xlink:href="#m063bb8d8ba" x="394.635033" y="1000.025185" style="fill: #ff0000; stroke: #ff0000; stroke-linejoin: bevel"/>
    </g>
   </g>
   <g id="line2d_110">
    <path d="M 920.099841 327.596051 
" clip-path="url(#p4b3c8fd14a)" style="fill: none; stroke: #ff0000; stroke-width: 1.5; stroke-linecap: square"/>
    <g clip-path="url(#p4b3c8fd14a)">
     <use xlink:href="#m063bb8d8ba" x="920.099841" y="327.596051" style="fill: #ff0000; stroke: #ff0000; stroke-linejoin: bevel"/>
    </g>
   </g>
   <g id="line2d_111">
    <path d="M 523.853439 814.662435 
" clip-path="url(#p4b3c8fd14a)" style="fill: none; stroke: #ff0000; stroke-width: 1.5; stroke-linecap: square"/>
    <g clip-path="url(#p4b3c8fd14a)">
     <use xlink:href="#m063bb8d8ba" x="523.853439" y="814.662435" style="fill: #ff0000; stroke: #ff0000; stroke-linejoin: bevel"/>
    </g>
   </g>
   <g id="line2d_112">
    <path d="M 1079.679605 192.4686 
" clip-path="url(#p4b3c8fd14a)" style="fill: none; stroke: #ff0000; stroke-width: 1.5; stroke-linecap: square"/>
    <g clip-path="url(#p4b3c8fd14a)">
     <use xlink:href="#m063bb8d8ba" x="1079.679605" y="192.4686" style="fill: #ff0000; stroke: #ff0000; stroke-linejoin: bevel"/>
    </g>
   </g>
   <g id="line2d_113">
    <path d="M 1183.516868 42.539547 
" clip-path="url(#p4b3c8fd14a)" style="fill: none; stroke: #ff0000; stroke-width: 1.5; stroke-linecap: square"/>
    <g clip-path="url(#p4b3c8fd14a)">
     <use xlink:href="#m063bb8d8ba" x="1183.516868" y="42.539547" style="fill: #ff0000; stroke: #ff0000; stroke-linejoin: bevel"/>
    </g>
   </g>
   <g id="line2d_114">
    <path d="M 557.107746 854.493408 
" clip-path="url(#p4b3c8fd14a)" style="fill: none; stroke: #ff0000; stroke-width: 1.5; stroke-linecap: square"/>
    <g clip-path="url(#p4b3c8fd14a)">
     <use xlink:href="#m063bb8d8ba" x="557.107746" y="854.493408" style="fill: #ff0000; stroke: #ff0000; stroke-linejoin: bevel"/>
    </g>
   </g>
  </g>
 </g>
 <defs>
  <clipPath id="p4b3c8fd14a">
   <rect x="0" y="0" width="1440" height="1440"/>
  </clipPath>
 </defs>
</svg>
