<?xml version="1.0" encoding="utf-8" standalone="no"?>
<!DOCTYPE svg PUBLIC "-//W3C//DTD SVG 1.1//EN"
  "http://www.w3.org/Graphics/SVG/1.1/DTD/svg11.dtd">
<svg xmlns:xlink="http://www.w3.org/1999/xlink" width="1440pt" height="1440pt" viewBox="0 0 1440 1440" xmlns="http://www.w3.org/2000/svg" version="1.1">
 <metadata>
  <rdf:RDF xmlns:dc="http://purl.org/dc/elements/1.1/" xmlns:cc="http://creativecommons.org/ns#" xmlns:rdf="http://www.w3.org/1999/02/22-rdf-syntax-ns#">
   <cc:Work>
    <dc:type rdf:resource="http://purl.org/dc/dcmitype/StillImage"/>
    <dc:date>2026-02-27T11:08:18.925063</dc:date>
    <dc:format>image/svg+xml</dc:format>
    <dc:creator>
     <cc:Agent>
      <dc:title>Matplotlib v3.7.3, https://matplotlib.org/</dc:title>
     </cc:Agent>
    </dc:creator>
   </cc:Work>
  </rdf:RDF>
 </metadata>
 <defs>
  <style type="text/css">*{stroke-linejoin: round; stroke-linecap: butt}</style>
 </defs>
 <g id="figure_1">
  <g id="patch_1">
   <path d="M 0 1440 
L 1440 1440 
L 1440 0 
L 0 0 
z
" style="fill: #ffffff"/>
  </g>
  <g id="axes_1">
   <g id="line2d_1">
    <path d="M 234.689528 83.103184 
L 145.043447 -1 
" clip-path="url(#pbb5ce248bb)" style="fill: none; stroke: #7a7a7a; stroke-width: 3; stroke-linecap: square"/>
   </g>
   <g id="line2d_2">
    <path d="M 250.062225 58.115855 
L 187.851683 -1 
" clip-path="url(#pbb5ce248bb)" style="fill: none; stroke: #7a7a7a; stroke-width: 3; stroke-linecap: square"/>
   </g>
   <g id="line2d_3">
    <path d="M 220.869628 107.238672 
L 105.097795 -1 
" clip-path="url(#pbb5ce248bb)" style="fill: none; stroke: #7a7a7a; stroke-width: 3; stroke-linecap: square"/>
   </g>
   <g id="line2d_4">
    <path d="M 234.689528 83.103184 
L 145.043447 -1 
" clip-path="url(#pbb5ce248bb)" style="fill: none; stroke: #7a7a7a; stroke-width: 3; stroke-linecap: square"/>
   </g>
   <g id="line2d_5">
    <path d="M 66.045715 -1 
L 81.661313 13.630838 
L 206.506249 130.616968 
" clip-path="url(#pbb5ce248bb)" style="fill: none; stroke: #7a7a7a; stroke-width: 3; stroke-linecap: square"/>
   </g>
   <g id="line2d_6">
    <path d="M 17.932714 -1 
L 62.950101 41.836232 
L 102.857002 80.547662 
L 168.540345 142.44809 
L 187.018638 160.147447 
" clip-path="url(#pbb5ce248bb)" style="fill: none; stroke: #7a7a7a; stroke-width: 3; stroke-linecap: square"/>
   </g>
   <g id="line2d_7">
    <path d="M 105.097795 -1 
L 220.869628 107.238672 
" clip-path="url(#pbb5ce248bb)" style="fill: none; stroke: #7a7a7a; stroke-width: 3; stroke-linecap: square"/>
   </g>
   <g id="line2d_8">
    <path d="M 66.045715 -1 
L 81.661313 13.630838 
L 206.506249 130.616968 
" clip-path="url(#pbb5ce248bb)" style="fill: none; stroke: #7a7a7a; stroke-width: 3; stroke-linecap: square"/>
   </g>
   <g id="line2d_9">
    <path d="M 1106.507804 910.903095 
L 694.472931 519.340297 
L 694.240011 519.05635 
L 691.289695 516.31153 
L 690.280377 515.36504 
" clip-path="url(#pbb5ce248bb)" style="fill: none; stroke: #7a7a7a; stroke-width: 3; stroke-linecap: square"/>
   </g>
   <g id="line2d_10">
    <path d="M 1122.967459 885.347872 
L 815.746432 593.071846 
L 694.55057 478.830537 
L 694.317651 478.641239 
L 691.289695 475.80177 
L 690.280377 474.85528 
" clip-path="url(#pbb5ce248bb)" style="fill: none; stroke: #7a7a7a; stroke-width: 3; stroke-linecap: square"/>
   </g>
   <g id="line2d_11">
    <path d="M 1389.039348 1218.701552 
L 1272.812439 1107.962255 
" clip-path="url(#pbb5ce248bb)" style="fill: none; stroke: #7a7a7a; stroke-width: 3; stroke-linecap: square"/>
   </g>
   <g id="line2d_12">
    <path d="M 1389.039348 1180.463368 
L 1287.952216 1084.205363 
" clip-path="url(#pbb5ce248bb)" style="fill: none; stroke: #7a7a7a; stroke-width: 3; stroke-linecap: square"/>
   </g>
   <g id="line2d_13">
    <path d="M 1272.812439 1107.962255 
L 1389.039348 1218.701552 
" clip-path="url(#pbb5ce248bb)" style="fill: none; stroke: #7a7a7a; stroke-width: 3; stroke-linecap: square"/>
   </g>
   <g id="line2d_14">
    <path d="M 1258.37142 1130.48871 
L 1389.039348 1254.762811 
" clip-path="url(#pbb5ce248bb)" style="fill: none; stroke: #7a7a7a; stroke-width: 3; stroke-linecap: square"/>
   </g>
   <g id="line2d_15">
    <path d="M 690.280377 557.105237 
L 691.367335 558.146375 
L 694.162371 560.796547 
L 694.395291 561.080494 
L 888.262085 744.6995 
L 1090.979827 935.038583 
" clip-path="url(#pbb5ce248bb)" style="fill: none; stroke: #7a7a7a; stroke-width: 3; stroke-linecap: square"/>
   </g>
   <g id="line2d_16">
    <path d="M 690.280377 592.220005 
L 691.367335 593.166495 
L 694.084731 595.816666 
L 694.395291 596.100613 
L 1076.461168 957.754336 
" clip-path="url(#pbb5ce248bb)" style="fill: none; stroke: #7a7a7a; stroke-width: 3; stroke-linecap: square"/>
   </g>
   <g id="line2d_17">
    <path d="M 690.280377 592.220005 
L 691.367335 593.166495 
L 694.084731 595.816666 
L 694.395291 596.100613 
L 1076.461168 957.754336 
" clip-path="url(#pbb5ce248bb)" style="fill: none; stroke: #7a7a7a; stroke-width: 3; stroke-linecap: square"/>
   </g>
   <g id="line2d_18">
    <path d="M 690.280377 637.367565 
L 691.367335 638.408704 
L 694.084731 640.964226 
L 694.317651 641.248173 
L 809.845801 751.703524 
L 814.659474 756.341323 
L 871.10367 810.480535 
L 871.56951 810.575184 
L 922.113075 857.994319 
L 1057.594676 986.338326 
" clip-path="url(#pbb5ce248bb)" style="fill: none; stroke: #7a7a7a; stroke-width: 3; stroke-linecap: square"/>
   </g>
   <g id="line2d_19">
    <path d="M 1090.979827 935.038583 
L 1272.812439 1107.962255 
" clip-path="url(#pbb5ce248bb)" style="fill: none; stroke: #7a7a7a; stroke-width: 3; stroke-linecap: square"/>
   </g>
   <g id="line2d_20">
    <path d="M 1076.461168 957.754336 
L 1258.37142 1130.48871 
" clip-path="url(#pbb5ce248bb)" style="fill: none; stroke: #7a7a7a; stroke-width: 3; stroke-linecap: square"/>
   </g>
   <g id="line2d_21">
    <path d="M 1272.812439 1107.962255 
L 1090.979827 935.038583 
" clip-path="url(#pbb5ce248bb)" style="fill: none; stroke: #7a7a7a; stroke-width: 3; stroke-linecap: square"/>
   </g>
   <g id="line2d_22">
    <path d="M 1287.952216 1084.205363 
L 1176.538981 978.009216 
L 1106.507804 910.903095 
" clip-path="url(#pbb5ce248bb)" style="fill: none; stroke: #7a7a7a; stroke-width: 3; stroke-linecap: square"/>
   </g>
   <g id="line2d_23">
    <path d="M 1287.952216 1084.205363 
L 1247.113637 1044.926039 
L 1234.924175 1031.769832 
L 1224.75335 1018.235029 
L 1216.678801 1004.226981 
L 1210.62289 989.934987 
L 1206.507976 975.359045 
L 1204.33406 960.499156 
L 1204.10114 945.544619 
L 1205.653938 930.400783 
L 1208.992453 915.351597 
L 1214.194325 900.207761 
L 1221.026635 885.253223 
L 1229.567022 870.487984 
" clip-path="url(#pbb5ce248bb)" style="fill: none; stroke: #7a7a7a; stroke-width: 3; stroke-linecap: square"/>
   </g>
   <g id="line2d_24">
    <path d="M 1303.169634 1060.827067 
L 1262.253414 1021.453094 
L 1250.374512 1008.202238 
L 1241.057725 994.667435 
L 1234.380695 980.754036 
L 1230.343421 966.462041 
L 1228.945903 951.8861 
L 1230.188142 936.931562 
L 1233.992496 921.598429 
L 1240.436606 905.886699 
L 1249.520473 889.891023 
" clip-path="url(#pbb5ce248bb)" style="fill: none; stroke: #7a7a7a; stroke-width: 3; stroke-linecap: square"/>
   </g>
   <g id="line2d_25">
    <path d="M 1389.039348 617.396632 
L 1229.567022 870.487984 
" clip-path="url(#pbb5ce248bb)" style="fill: none; stroke: #7a7a7a; stroke-width: 3; stroke-linecap: square"/>
   </g>
   <g id="line2d_26">
    <path d="M 1389.039348 567.138028 
L 1208.759533 850.233104 
" clip-path="url(#pbb5ce248bb)" style="fill: none; stroke: #7a7a7a; stroke-width: 3; stroke-linecap: square"/>
   </g>
   <g id="line2d_27">
    <path d="M 1090.979827 935.038583 
L 888.262085 744.6995 
L 694.395291 561.080494 
L 694.162371 560.796547 
L 691.367335 558.146375 
L 690.280377 557.105237 
" clip-path="url(#pbb5ce248bb)" style="fill: none; stroke: #7a7a7a; stroke-width: 3; stroke-linecap: square"/>
   </g>
   <g id="line2d_28">
    <path d="M 1106.507804 910.903095 
L 694.472931 519.340297 
L 694.240011 519.05635 
L 691.289695 516.31153 
L 690.280377 515.36504 
" clip-path="url(#pbb5ce248bb)" style="fill: none; stroke: #7a7a7a; stroke-width: 3; stroke-linecap: square"/>
   </g>
   <g id="line2d_29">
    <path d="M 1389.039348 1180.463368 
L 1287.952216 1084.205363 
" clip-path="url(#pbb5ce248bb)" style="fill: none; stroke: #7a7a7a; stroke-width: 3; stroke-linecap: square"/>
   </g>
   <g id="line2d_30">
    <path d="M 1389.039348 1147.05228 
L 1303.169634 1060.827067 
" clip-path="url(#pbb5ce248bb)" style="fill: none; stroke: #7a7a7a; stroke-width: 3; stroke-linecap: square"/>
   </g>
   <g id="line2d_31">
    <path d="M 1258.37142 1130.48871 
L 1389.039348 1254.762811 
" clip-path="url(#pbb5ce248bb)" style="fill: none; stroke: #7a7a7a; stroke-width: 3; stroke-linecap: square"/>
   </g>
   <g id="line2d_32">
    <path d="M 1239.970767 1158.694104 
L 1244.78444 1163.426553 
L 1389.039348 1299.247828 
" clip-path="url(#pbb5ce248bb)" style="fill: none; stroke: #7a7a7a; stroke-width: 3; stroke-linecap: square"/>
   </g>
   <g id="line2d_33">
    <path d="M 1287.952216 1084.205363 
L 1176.538981 978.009216 
L 1106.507804 910.903095 
" clip-path="url(#pbb5ce248bb)" style="fill: none; stroke: #7a7a7a; stroke-width: 3; stroke-linecap: square"/>
   </g>
   <g id="line2d_34">
    <path d="M 1303.169634 1060.827067 
L 1122.967459 885.347872 
" clip-path="url(#pbb5ce248bb)" style="fill: none; stroke: #7a7a7a; stroke-width: 3; stroke-linecap: square"/>
   </g>
   <g id="line2d_35">
    <path d="M 1229.567022 870.487984 
L 1213.728486 895.286014 
L 1204.566979 907.590381 
L 1194.473794 917.717821 
L 1183.52657 925.573686 
L 1171.802948 930.968677 
L 1159.535846 933.42955 
L 1146.725264 932.956305 
L 1133.526484 929.170346 
L 1120.017144 921.882376 
L 1106.507804 910.903095 
" clip-path="url(#pbb5ce248bb)" style="fill: none; stroke: #7a7a7a; stroke-width: 3; stroke-linecap: square"/>
   </g>
   <g id="line2d_36">
    <path d="M 1208.759533 850.233104 
L 1192.843357 875.125783 
L 1184.924088 885.726468 
L 1176.150781 893.771631 
L 1166.601075 898.977324 
L 1156.43025 901.154251 
L 1145.715946 899.829165 
L 1134.535802 894.718121 
L 1122.967459 885.347872 
" clip-path="url(#pbb5ce248bb)" style="fill: none; stroke: #7a7a7a; stroke-width: 3; stroke-linecap: square"/>
   </g>
   <g id="line2d_37">
    <path d="M 1229.567022 870.487984 
L 1389.039348 617.396632 
" clip-path="url(#pbb5ce248bb)" style="fill: none; stroke: #7a7a7a; stroke-width: 3; stroke-linecap: square"/>
   </g>
   <g id="line2d_38">
    <path d="M 1249.520473 889.891023 
L 1389.039348 669.737514 
" clip-path="url(#pbb5ce248bb)" style="fill: none; stroke: #7a7a7a; stroke-width: 3; stroke-linecap: square"/>
   </g>
   <g id="line2d_39">
    <path d="M 1090.979827 935.038583 
L 1105.265566 946.017864 
L 1119.240745 953.116536 
L 1132.905365 956.523899 
L 1145.948866 956.523899 
L 1158.448887 953.589781 
L 1170.17251 947.816194 
L 1180.964454 939.771031 
L 1190.824719 929.548942 
L 1199.520387 917.528523 
L 1229.567022 870.487984 
" clip-path="url(#pbb5ce248bb)" style="fill: none; stroke: #7a7a7a; stroke-width: 3; stroke-linecap: square"/>
   </g>
   <g id="line2d_40">
    <path d="M 1076.461168 957.754336 
L 1089.815228 968.828266 
L 1103.169289 977.157375 
L 1116.523349 982.741665 
L 1129.799769 985.865081 
L 1142.76563 986.622273 
L 1155.420932 985.107889 
L 1167.688034 981.511228 
L 1179.489296 975.926939 
L 1190.5918 968.544319 
L 1201.073184 959.552667 
L 1210.70053 948.951982 
L 1219.473837 936.931562 
L 1249.520473 889.891023 
" clip-path="url(#pbb5ce248bb)" style="fill: none; stroke: #7a7a7a; stroke-width: 3; stroke-linecap: square"/>
   </g>
   <g id="line2d_41">
    <path d="M 1076.461168 957.754336 
L 1258.37142 1130.48871 
" clip-path="url(#pbb5ce248bb)" style="fill: none; stroke: #7a7a7a; stroke-width: 3; stroke-linecap: square"/>
   </g>
   <g id="line2d_42">
    <path d="M 1057.594676 986.338326 
L 1239.970767 1158.694104 
" clip-path="url(#pbb5ce248bb)" style="fill: none; stroke: #7a7a7a; stroke-width: 3; stroke-linecap: square"/>
   </g>
   <g id="line2d_43">
    <path d="M 1229.567022 870.487984 
L 1219.784397 886.578309 
L 1211.554569 902.195389 
L 1204.799899 917.623172 
L 1199.675666 932.672358 
L 1196.104232 947.437598 
L 1194.085595 961.918891 
L 1193.697395 976.210886 
L 1194.939633 990.408231 
L 1197.734669 1004.32163 
L 1202.315423 1018.235029 
L 1208.448974 1031.95913 
L 1216.368242 1045.683231 
L 1225.995588 1059.312683 
L 1237.331011 1072.942135 
L 1250.452152 1086.666236 
L 1272.812439 1107.962255 
" clip-path="url(#pbb5ce248bb)" style="fill: none; stroke: #7a7a7a; stroke-width: 3; stroke-linecap: square"/>
   </g>
   <g id="line2d_44">
    <path d="M 1208.759533 850.233104 
L 1198.666348 867.080621 
L 1190.048321 883.73884 
L 1182.827811 900.207761 
L 1177.1601 916.392735 
L 1172.889906 932.48306 
L 1170.09487 948.384088 
L 1168.774992 964.001168 
L 1168.852632 979.428951 
L 1170.483069 994.667435 
L 1173.511025 1009.716622 
L 1178.014138 1024.57651 
L 1183.99241 1039.247101 
L 1191.445839 1053.633745 
L 1200.374425 1067.831091 
L 1210.77817 1081.839139 
L 1222.657073 1095.657889 
L 1236.011133 1109.192692 
L 1258.37142 1130.48871 
" clip-path="url(#pbb5ce248bb)" style="fill: none; stroke: #7a7a7a; stroke-width: 3; stroke-linecap: square"/>
   </g>
   <g id="line2d_45">
    <path d="M 690.280377 557.105237 
L 367.453732 247.792396 
" clip-path="url(#pbb5ce248bb)" style="fill: none; stroke: #7a7a7a; stroke-width: 3; stroke-linecap: square"/>
   </g>
   <g id="line2d_46">
    <path d="M 690.280377 515.36504 
L 382.82643 224.792695 
" clip-path="url(#pbb5ce248bb)" style="fill: none; stroke: #7a7a7a; stroke-width: 3; stroke-linecap: square"/>
   </g>
   <g id="line2d_47">
    <path d="M 382.82643 224.792695 
L 373.509643 214.381308 
L 364.736336 203.591326 
L 356.972348 192.1388 
L 350.295318 180.023732 
L 345.171085 167.151471 
L 341.75493 153.332721 
L 340.512692 138.567482 
L 341.52201 122.761103 
L 345.326365 105.724288 
L 352.003395 87.457037 
L 361.9413 67.675402 
" clip-path="url(#pbb5ce248bb)" style="fill: none; stroke: #7a7a7a; stroke-width: 3; stroke-linecap: square"/>
   </g>
   <g id="line2d_48">
    <path d="M 398.820246 200.941154 
L 389.11526 190.719065 
L 381.195992 179.26654 
L 375.295361 166.678226 
L 371.801566 153.143423 
L 371.258087 139.040727 
L 373.897843 124.559434 
L 380.264313 109.794194 
L 390.668058 95.028955 
" clip-path="url(#pbb5ce248bb)" style="fill: none; stroke: #7a7a7a; stroke-width: 3; stroke-linecap: square"/>
   </g>
   <g id="line2d_49">
    <path d="M 690.280377 515.36504 
L 382.82643 224.792695 
" clip-path="url(#pbb5ce248bb)" style="fill: none; stroke: #7a7a7a; stroke-width: 3; stroke-linecap: square"/>
   </g>
   <g id="line2d_50">
    <path d="M 690.280377 474.85528 
L 398.820246 200.941154 
" clip-path="url(#pbb5ce248bb)" style="fill: none; stroke: #7a7a7a; stroke-width: 3; stroke-linecap: square"/>
   </g>
   <g id="line2d_51">
    <path d="M 367.453732 247.792396 
L 220.869628 107.238672 
" clip-path="url(#pbb5ce248bb)" style="fill: none; stroke: #7a7a7a; stroke-width: 3; stroke-linecap: square"/>
   </g>
   <g id="line2d_52">
    <path d="M 382.82643 224.792695 
L 234.689528 83.103184 
" clip-path="url(#pbb5ce248bb)" style="fill: none; stroke: #7a7a7a; stroke-width: 3; stroke-linecap: square"/>
   </g>
   <g id="line2d_53">
    <path d="M 220.869628 107.238672 
L 229.875855 113.769451 
L 240.900719 118.407251 
L 253.40074 121.341369 
L 266.91008 122.477156 
L 281.04054 121.909263 
L 295.326279 119.543038 
L 309.223818 115.473133 
L 322.422599 109.699545 
L 334.379141 102.127627 
L 344.627606 92.852028 
L 352.779794 81.967396 
L 361.9413 67.675402 
" clip-path="url(#pbb5ce248bb)" style="fill: none; stroke: #7a7a7a; stroke-width: 3; stroke-linecap: square"/>
   </g>
   <g id="line2d_54">
    <path d="M 206.506249 130.616968 
L 217.375833 139.703269 
L 229.565295 146.896591 
L 242.608796 152.196934 
L 256.428696 155.793595 
L 270.714435 157.591925 
L 285.310733 157.781223 
L 299.829392 156.361489 
L 314.115131 153.522019 
L 327.935031 149.262816 
L 341.056171 143.678526 
L 353.167993 136.769151 
L 364.115217 128.723989 
L 373.664923 119.543038 
L 381.506552 109.320949 
L 390.668058 95.028955 
" clip-path="url(#pbb5ce248bb)" style="fill: none; stroke: #7a7a7a; stroke-width: 3; stroke-linecap: square"/>
   </g>
   <g id="line2d_55">
    <path d="M 249.984585 255.080367 
L 200.916178 328.906565 
" clip-path="url(#pbb5ce248bb)" style="fill: none; stroke: #7a7a7a; stroke-width: 3; stroke-linecap: square"/>
   </g>
   <g id="line2d_56">
    <path d="M 207.593208 214.097362 
L 158.60244 287.734262 
" clip-path="url(#pbb5ce248bb)" style="fill: none; stroke: #7a7a7a; stroke-width: 3; stroke-linecap: square"/>
   </g>
   <g id="line2d_57">
    <path d="M 200.916178 328.906565 
L 249.984585 255.080367 
" clip-path="url(#pbb5ce248bb)" style="fill: none; stroke: #7a7a7a; stroke-width: 3; stroke-linecap: square"/>
   </g>
   <g id="line2d_58">
    <path d="M 242.686436 369.510974 
L 291.754844 295.590127 
" clip-path="url(#pbb5ce248bb)" style="fill: none; stroke: #7a7a7a; stroke-width: 3; stroke-linecap: square"/>
   </g>
   <g id="line2d_59">
    <path d="M 367.453732 247.792396 
L 690.280377 557.105237 
" clip-path="url(#pbb5ce248bb)" style="fill: none; stroke: #7a7a7a; stroke-width: 3; stroke-linecap: square"/>
   </g>
   <g id="line2d_60">
    <path d="M 352.236315 270.697447 
L 690.280377 592.220005 
" clip-path="url(#pbb5ce248bb)" style="fill: none; stroke: #7a7a7a; stroke-width: 3; stroke-linecap: square"/>
   </g>
   <g id="line2d_61">
    <path d="M 249.984585 255.080367 
L 257.127455 238.706094 
L 262.096407 222.615769 
L 264.969083 206.90404 
L 265.745482 191.665555 
L 264.658524 177.089613 
L 261.630568 163.081566 
L 256.739255 149.925358 
L 250.217505 137.715641 
L 241.987677 126.357764 
L 232.205052 116.230324 
L 220.869628 107.238672 
" clip-path="url(#pbb5ce248bb)" style="fill: none; stroke: #7a7a7a; stroke-width: 3; stroke-linecap: square"/>
   </g>
   <g id="line2d_62">
    <path d="M 291.754844 295.590127 
L 295.248639 287.355666 
L 298.742434 277.79612 
L 302.003309 266.911488 
L 304.720705 254.985718 
L 306.661702 242.113457 
L 307.67102 228.294707 
L 307.515741 213.718766 
L 305.885303 198.480281 
L 302.624428 182.673903 
L 297.422555 166.488929 
L 290.046766 150.020007 
L 280.341781 133.267139 
L 268.074679 116.514271 
L 252.934901 99.666754 
L 234.689528 83.103184 
" clip-path="url(#pbb5ce248bb)" style="fill: none; stroke: #7a7a7a; stroke-width: 3; stroke-linecap: square"/>
   </g>
   <g id="line2d_63">
    <path d="M 206.506249 130.616968 
L 352.236315 270.697447 
" clip-path="url(#pbb5ce248bb)" style="fill: none; stroke: #7a7a7a; stroke-width: 3; stroke-linecap: square"/>
   </g>
   <g id="line2d_64">
    <path d="M 187.018638 160.147447 
L 209.689485 181.632764 
L 316.366688 283.001813 
L 333.758022 299.092139 
" clip-path="url(#pbb5ce248bb)" style="fill: none; stroke: #7a7a7a; stroke-width: 3; stroke-linecap: square"/>
   </g>
   <g id="line2d_65">
    <path d="M 361.9413 67.675402 
L 349.285999 81.872747 
L 336.941257 93.135975 
L 324.829435 101.654383 
L 312.950533 107.42797 
L 301.30455 110.646035 
L 289.813847 111.497876 
L 278.556063 109.983492 
L 267.45356 106.197533 
L 256.428696 100.423946 
L 245.481472 92.66273 
L 234.689528 83.103184 
" clip-path="url(#pbb5ce248bb)" style="fill: none; stroke: #7a7a7a; stroke-width: 3; stroke-linecap: square"/>
   </g>
   <g id="line2d_66">
    <path d="M 332.748703 39.848604 
L 325.062355 54.329896 
L 316.832527 66.161018 
L 307.98158 74.963372 
L 298.509514 80.358364 
L 288.338689 81.967396 
L 277.313825 79.411874 
L 265.357283 72.218552 
L 250.062225 58.115855 
" clip-path="url(#pbb5ce248bb)" style="fill: none; stroke: #7a7a7a; stroke-width: 3; stroke-linecap: square"/>
   </g>
   <g id="line2d_67">
    <path d="M 361.9413 67.675402 
L 249.984585 255.080367 
" clip-path="url(#pbb5ce248bb)" style="fill: none; stroke: #7a7a7a; stroke-width: 3; stroke-linecap: square"/>
   </g>
   <g id="line2d_68">
    <path d="M 332.748703 39.848604 
L 207.593208 214.097362 
" clip-path="url(#pbb5ce248bb)" style="fill: none; stroke: #7a7a7a; stroke-width: 3; stroke-linecap: square"/>
   </g>
   <g id="line2d_69">
    <path d="M 361.9413 67.675402 
L 355.34191 77.708193 
L 347.888481 92.000187 
L 342.608969 108.090513 
L 339.425734 125.505924 
L 338.183495 143.678526 
L 338.571695 162.135076 
L 340.512692 180.21303 
L 343.851207 197.533791 
L 348.43196 213.529468 
L 353.944392 227.537516 
L 360.388503 239.179339 
L 367.453732 247.792396 
" clip-path="url(#pbb5ce248bb)" style="fill: none; stroke: #7a7a7a; stroke-width: 3; stroke-linecap: square"/>
   </g>
   <g id="line2d_70">
    <path d="M 332.748703 39.848604 
L 326.149313 49.881395 
L 319.161723 63.984092 
L 313.726931 79.411874 
L 309.767297 96.070093 
L 307.282821 113.485504 
L 306.273502 131.468809 
L 306.661702 149.830709 
L 308.292139 168.003312 
L 311.164815 185.986617 
L 315.357369 203.307379 
L 320.559241 219.7763 
L 327.003352 235.014784 
L 334.379141 248.738885 
L 342.841889 260.759305 
L 352.236315 270.697447 
" clip-path="url(#pbb5ce248bb)" style="fill: none; stroke: #7a7a7a; stroke-width: 3; stroke-linecap: square"/>
   </g>
   <g id="line2d_71">
    <path d="M 249.984585 255.080367 
L 254.487699 250.063971 
L 262.406967 244.006437 
L 273.198911 238.611445 
L 286.242412 235.298731 
L 301.14927 235.582678 
L 317.220726 241.166968 
L 334.146221 253.471334 
L 352.236315 270.697447 
" clip-path="url(#pbb5ce248bb)" style="fill: none; stroke: #7a7a7a; stroke-width: 3; stroke-linecap: square"/>
   </g>
   <g id="line2d_72">
    <path d="M 291.754844 295.590127 
L 292.375963 294.643637 
L 298.043675 287.828911 
L 303.400827 281.582079 
L 308.990898 279.405152 
L 314.81389 282.339271 
L 333.758022 299.092139 
" clip-path="url(#pbb5ce248bb)" style="fill: none; stroke: #7a7a7a; stroke-width: 3; stroke-linecap: square"/>
   </g>
   <g id="line2d_73">
    <path d="M 249.984585 255.080367 
L 361.9413 67.675402 
" clip-path="url(#pbb5ce248bb)" style="fill: none; stroke: #7a7a7a; stroke-width: 3; stroke-linecap: square"/>
   </g>
   <g id="line2d_74">
    <path d="M 291.754844 295.590127 
L 390.668058 95.028955 
" clip-path="url(#pbb5ce248bb)" style="fill: none; stroke: #7a7a7a; stroke-width: 3; stroke-linecap: square"/>
   </g>
   <g id="line2d_75">
    <path d="M 367.453732 247.792396 
L 346.723883 228.294707 
L 329.876028 221.669279 
L 313.338732 219.681651 
L 297.655475 221.385332 
L 283.369736 225.833834 
L 270.947354 232.364613 
L 260.931809 240.03118 
L 253.7113 247.887045 
L 249.984585 255.080367 
" clip-path="url(#pbb5ce248bb)" style="fill: none; stroke: #7a7a7a; stroke-width: 3; stroke-linecap: square"/>
   </g>
   <g id="line2d_76">
    <path d="M 382.82643 224.792695 
L 362.17422 205.200358 
L 346.258044 192.517396 
L 330.186587 183.525744 
L 314.037491 178.036103 
L 298.121314 175.480581 
L 282.670977 175.480581 
L 267.919399 177.657507 
L 254.099499 181.632764 
L 241.444198 186.933107 
L 230.264054 193.274588 
L 220.714348 200.183963 
L 213.10564 207.282636 
L 207.593208 214.097362 
" clip-path="url(#pbb5ce248bb)" style="fill: none; stroke: #7a7a7a; stroke-width: 3; stroke-linecap: square"/>
   </g>
   <g id="line2d_77">
    <path d="M 406.548764 -1 
L 361.9413 67.675402 
" clip-path="url(#pbb5ce248bb)" style="fill: none; stroke: #7a7a7a; stroke-width: 3; stroke-linecap: square"/>
   </g>
   <g id="line2d_78">
    <path d="M 361.020142 -1 
L 332.748703 39.848604 
" clip-path="url(#pbb5ce248bb)" style="fill: none; stroke: #7a7a7a; stroke-width: 3; stroke-linecap: square"/>
   </g>
   <g id="line2d_79">
    <path d="M 382.82643 224.792695 
L 234.689528 83.103184 
" clip-path="url(#pbb5ce248bb)" style="fill: none; stroke: #7a7a7a; stroke-width: 3; stroke-linecap: square"/>
   </g>
   <g id="line2d_80">
    <path d="M 398.820246 200.941154 
L 250.062225 58.115855 
" clip-path="url(#pbb5ce248bb)" style="fill: none; stroke: #7a7a7a; stroke-width: 3; stroke-linecap: square"/>
   </g>
   <g id="line2d_81">
    <path d="M 361.9413 67.675402 
L 406.548764 -1 
" clip-path="url(#pbb5ce248bb)" style="fill: none; stroke: #7a7a7a; stroke-width: 3; stroke-linecap: square"/>
   </g>
   <g id="line2d_82">
    <path d="M 390.668058 95.028955 
L 452.027486 -1 
" clip-path="url(#pbb5ce248bb)" style="fill: none; stroke: #7a7a7a; stroke-width: 3; stroke-linecap: square"/>
   </g>
   <g id="line2d_83">
    <path d="M 206.506249 130.616968 
L 233.21437 156.26684 
L 241.366558 164.5013 
L 248.431788 176.048475 
L 253.86658 190.151172 
L 257.205095 205.862901 
L 257.981494 222.52112 
L 255.729937 239.179339 
L 249.984585 255.080367 
" clip-path="url(#pbb5ce248bb)" style="fill: none; stroke: #7a7a7a; stroke-width: 3; stroke-linecap: square"/>
   </g>
   <g id="line2d_84">
    <path d="M 187.018638 160.147447 
L 214.347878 186.365213 
L 215.279556 189.015384 
L 216.366515 194.788971 
L 215.667756 201.130452 
L 213.18328 207.093338 
L 207.593208 214.097362 
" clip-path="url(#pbb5ce248bb)" style="fill: none; stroke: #7a7a7a; stroke-width: 3; stroke-linecap: square"/>
   </g>
   <g id="line2d_85">
    <path d="M 352.236315 270.697447 
L 690.280377 592.220005 
" clip-path="url(#pbb5ce248bb)" style="fill: none; stroke: #7a7a7a; stroke-width: 3; stroke-linecap: square"/>
   </g>
   <g id="line2d_86">
    <path d="M 333.758022 299.092139 
L 690.280377 637.367565 
" clip-path="url(#pbb5ce248bb)" style="fill: none; stroke: #7a7a7a; stroke-width: 3; stroke-linecap: square"/>
   </g>
   <g id="line2d_87">
    <path d="M 206.506249 130.616968 
L 221.257828 144.057122 
L 367.453732 247.792396 
" clip-path="url(#pbb5ce248bb)" style="fill: none; stroke: #7a7a7a; stroke-width: 3; stroke-linecap: square"/>
   </g>
   <g id="line2d_88">
    <path d="M 187.018638 160.147447 
L 328.711429 248.738885 
L 340.978531 259.434219 
L 352.236315 270.697447 
" clip-path="url(#pbb5ce248bb)" style="fill: none; stroke: #7a7a7a; stroke-width: 3; stroke-linecap: square"/>
   </g>
   <g id="line2d_89">
    <path d="M 545.215482 389.049794 
L 192.526445 47.324486 
" clip-path="url(#pbb5ce248bb)" style="fill: none; stroke-dasharray: 32,8,5,8; stroke-dashoffset: 0; stroke: #1e90ff; stroke-width: 5"/>
   </g>
   <g id="line2d_90">
    <path d="M 1000.115836 799.243096 
L 687.476925 466.619895 
" clip-path="url(#pbb5ce248bb)" style="fill: none; stroke-dasharray: 32,8,5,8; stroke-dashoffset: 0; stroke: #1e90ff; stroke-width: 5"/>
   </g>
   <g id="line2d_91">
    <path d="M 1290.869247 1156.053083 
L 1054.465652 908.191088 
" clip-path="url(#pbb5ce248bb)" style="fill: none; stroke-dasharray: 32,8,5,8; stroke-dashoffset: 0; stroke: #1e90ff; stroke-width: 5"/>
   </g>
   <g id="line2d_92">
    <path d="M 1285.992113 844.737455 
L 1282.231431 846.835631 
" clip-path="url(#pbb5ce248bb)" style="fill: none; stroke-dasharray: 32,8,5,8; stroke-dashoffset: 0; stroke: #1e90ff; stroke-width: 5"/>
   </g>
   <g id="line2d_93">
    <path d="M 898.274143 684.441934 
L 896.818395 684.093008 
" clip-path="url(#pbb5ce248bb)" style="fill: none; stroke-dasharray: 32,8,5,8; stroke-dashoffset: 0; stroke: #1e90ff; stroke-width: 5"/>
   </g>
   <g id="line2d_94">
    <path d="M 1320.622989 1090.189322 
L 1323.540172 1097.75477 
" clip-path="url(#pbb5ce248bb)" style="fill: none; stroke-dasharray: 32,8,5,8; stroke-dashoffset: 0; stroke: #1e90ff; stroke-width: 5"/>
   </g>
   <g id="line2d_95">
    <path d="M 155.279771 64.077539 
L 548.322215 464.2814 
" clip-path="url(#pbb5ce248bb)" style="fill: none; stroke-dasharray: 32,8,5,8; stroke-dashoffset: 0; stroke: #1e90ff; stroke-width: 5"/>
   </g>
   <g id="line2d_96">
    <path d="M 863.13148 676.943499 
L 528.002401 341.170724 
" clip-path="url(#pbb5ce248bb)" style="fill: none; stroke-dasharray: 32,8,5,8; stroke-dashoffset: 0; stroke: #1e90ff; stroke-width: 5"/>
   </g>
   <g id="line2d_97">
    <path d="M 545.215482 389.049794 
" clip-path="url(#pbb5ce248bb)" style="fill: none; stroke: #0000ff; stroke-width: 1.5; stroke-linecap: square"/>
    <defs>
     <path id="m2226a10666" d="M 0 10 
C 2.652031 10 5.195799 8.946337 7.071068 7.071068 
C 8.946337 5.195799 10 2.652031 10 0 
C 10 -2.652031 8.946337 -5.195799 7.071068 -7.071068 
C 5.195799 -8.946337 2.652031 -10 0 -10 
C -2.652031 -10 -5.195799 -8.946337 -7.071068 -7.071068 
C -8.946337 -5.195799 -10 -2.652031 -10 0 
C -10 2.652031 -8.946337 5.195799 -7.071068 7.071068 
C -5.195799 8.946337 -2.652031 10 0 10 
z
" style="stroke: #0000ff"/>
    </defs>
    <g clip-path="url(#pbb5ce248bb)">
     <use xlink:href="#m2226a10666" x="545.215482" y="389.049794" style="fill: #0000ff; stroke: #0000ff"/>
    </g>
   </g>
   <g id="line2d_98">
    <path d="M 1000.115836 799.243096 
" clip-path="url(#pbb5ce248bb)" style="fill: none; stroke: #0000ff; stroke-width: 1.5; stroke-linecap: square"/>
    <g clip-path="url(#pbb5ce248bb)">
     <use xlink:href="#m2226a10666" x="1000.115836" y="799.243096" style="fill: #0000ff; stroke: #0000ff"/>
    </g>
   </g>
   <g id="line2d_99">
    <path d="M 1290.869247 1156.053083 
" clip-path="url(#pbb5ce248bb)" style="fill: none; stroke: #0000ff; stroke-width: 1.5; stroke-linecap: square"/>
    <g clip-path="url(#pbb5ce248bb)">
     <use xlink:href="#m2226a10666" x="1290.869247" y="1156.053083" style="fill: #0000ff; stroke: #0000ff"/>
    </g>
   </g>
   <g id="line2d_100">
    <path d="M 1285.992113 844.737455 
" clip-path="url(#pbb5ce248bb)" style="fill: none; stroke: #0000ff; stroke-width: 1.5; stroke-linecap: square"/>
    <g clip-path="url(#pbb5ce248bb)">
     <use xlink:href="#m2226a10666" x="1285.992113" y="844.737455" style="fill: #0000ff; stroke: #0000ff"/>
    </g>
   </g>
   <g id="line2d_101">
    <path d="M 898.274143 684.441934 
" clip-path="url(#pbb5ce248bb)" style="fill: none; stroke: #0000ff; stroke-width: 1.5; stroke-linecap: square"/>
    <g clip-path="url(#pbb5ce248bb)">
     <use xlink:href="#m2226a10666" x="898.274143" y="684.441934" style="fill: #0000ff; stroke: #0000ff"/>
    </g>
   </g>
   <g id="line2d_102">
    <path d="M 1320.622989 1090.189322 
" clip-path="url(#pbb5ce248bb)" style="fill: none; stroke: #0000ff; stroke-width: 1.5; stroke-linecap: square"/>
    <g clip-path="url(#pbb5ce248bb)">
     <use xlink:href="#m2226a10666" x="1320.622989" y="1090.189322" style="fill: #0000ff; stroke: #0000ff"/>
    </g>
   </g>
   <g id="line2d_103">
    <path d="M 155.279771 64.077539 
" clip-path="url(#pbb5ce248bb)" style="fill: none; stroke: #0000ff; stroke-width: 1.5; stroke-linecap: square"/>
    <g clip-path="url(#pbb5ce248bb)">
     <use xlink:href="#m2226a10666" x="155.279771" y="64.077539" style="fill: #0000ff; stroke: #0000ff"/>
    </g>
   </g>
   <g id="line2d_104">
    <path d="M 863.13148 676.943499 
" clip-path="url(#pbb5ce248bb)" style="fill: none; stroke: #0000ff; stroke-width: 1.5; stroke-linecap: square"/>
    <g clip-path="url(#pbb5ce248bb)">
     <use xlink:href="#m2226a10666" x="863.13148" y="676.943499" style="fill: #0000ff; stroke: #0000ff"/>
    </g>
   </g>
   <g id="line2d_105">
    <path d="M 192.526445 47.324486 
" clip-path="url(#pbb5ce248bb)" style="fill: none; stroke: #ff0000; stroke-width: 1.5; stroke-linecap: square"/>
    <defs>
     <path id="mcd5b5c0d8e" d="M 0 -10 
L -2.24514 -3.09017 
L -9.510565 -3.09017 
L -3.632713 1.18034 
L -5.877853 8.09017 
L -0 3.81966 
L 5.877853 8.09017 
L 3.632713 1.18034 
L 9.510565 -3.09017 
L 2.24514 -3.09017 
z
" style="stroke: #ff0000; stroke-linejoin: bevel"/>
    </defs>
    <g clip-path="url(#pbb5ce248bb)">
     <use xlink:href="#mcd5b5c0d8e" x="192.526445" y="47.324486" style="fill: #ff0000; stroke: #ff0000; stroke-linejoin: bevel"/>
    </g>
   </g>
   <g id="line2d_106">
    <path d="M 687.476925 466.619895 
" clip-path="url(#pbb5ce248bb)" style="fill: none; stroke: #ff0000; stroke-width: 1.5; stroke-linecap: square"/>
    <g clip-path="url(#pbb5ce248bb)">
     <use xlink:href="#mcd5b5c0d8e" x="687.476925" y="466.619895" style="fill: #ff0000; stroke: #ff0000; stroke-linejoin: bevel"/>
    </g>
   </g>
   <g id="line2d_107">
    <path d="M 1054.465652 908.191088 
" clip-path="url(#pbb5ce248bb)" style="fill: none; stroke: #ff0000; stroke-width: 1.5; stroke-linecap: square"/>
    <g clip-path="url(#pbb5ce248bb)">
     <use xlink:href="#mcd5b5c0d8e" x="1054.465652" y="908.191088" style="fill: #ff0000; stroke: #ff0000; stroke-linejoin: bevel"/>
    </g>
   </g>
   <g id="line2d_108">
    <path d="M 1282.231431 846.835631 
" clip-path="url(#pbb5ce248bb)" style="fill: none; stroke: #ff0000; stroke-width: 1.5; stroke-linecap: square"/>
    <g clip-path="url(#pbb5ce248bb)">
     <use xlink:href="#mcd5b5c0d8e" x="1282.231431" y="846.835631" style="fill: #ff0000; stroke: #ff0000; stroke-linejoin: bevel"/>
    </g>
   </g>
   <g id="line2d_109">
    <path d="M 896.818395 684.093008 
" clip-path="url(#pbb5ce248bb)" style="fill: none; stroke: #ff0000; stroke-width: 1.5; stroke-linecap: square"/>
    <g clip-path="url(#pbb5ce248bb)">
     <use xlink:href="#mcd5b5c0d8e" x="896.818395" y="684.093008" style="fill: #ff0000; stroke: #ff0000; stroke-linejoin: bevel"/>
    </g>
   </g>
   <g id="line2d_110">
    <path d="M 1323.540172 1097.75477 
" clip-path="url(#pbb5ce248bb)" style="fill: none; stroke: #ff0000; stroke-width: 1.5; stroke-linecap: square"/>
    <g clip-path="url(#pbb5ce248bb)">
     <use xlink:href="#mcd5b5c0d8e" x="1323.540172" y="1097.75477" style="fill: #ff0000; stroke: #ff0000; stroke-linejoin: bevel"/>
    </g>
   </g>
   <g id="line2d_111">
    <path d="M 548.322215 464.2814 
" clip-path="url(#pbb5ce248bb)" style="fill: none; stroke: #ff0000; stroke-width: 1.5; stroke-linecap: square"/>
    <g clip-path="url(#pbb5ce248bb)">
     <use xlink:href="#mcd5b5c0d8e" x="548.322215" y="464.2814" style="fill: #ff0000; stroke: #ff0000; stroke-linejoin: bevel"/>
    </g>
   </g>
   <g id="line2d_112">
    <path d="M 528.002401 341.170724 
" clip-path="url(#pbb5ce248bb)" style="fill: none; stroke: #ff0000; stroke-width: 1.5; stroke-linecap: square"/>
    <g clip-path="url(#pbb5ce248bb)">
     <use xlink:href="#mcd5b5c0d8e" x="528.002401" y="341.170724" style="fill: #ff0000; stroke: #ff0000; stroke-linejoin: bevel"/>
    </g>
   </g>
  </g>
 </g>
 <defs>
  <clipPath id="pbb5ce248bb">
   <rect x="0" y="0" width="1440" height="1440"/>
  </clipPath>
 </defs>
</svg>
