<?xml version="1.0" encoding="utf-8" standalone="no"?>
<!DOCTYPE svg PUBLIC "-//W3C//DTD SVG 1.1//EN"
  "http://www.w3.org/Graphics/SVG/1.1/DTD/svg11.dtd">
<svg xmlns:xlink="http://www.w3.org/1999/xlink" width="1440pt" height="1440pt" viewBox="0 0 1440 1440" xmlns="http://www.w3.org/2000/svg" version="1.1">
 <metadata>
  <rdf:RDF xmlns:dc="http://purl.org/dc/elements/1.1/" xmlns:cc="http://creativecommons.org/ns#" xmlns:rdf="http://www.w3.org/1999/02/22-rdf-syntax-ns#">
   <cc:Work>
    <dc:type rdf:resource="http://purl.org/dc/dcmitype/StillImage"/>
    <dc:date>2026-02-27T11:07:21.979620</dc:date>
    <dc:format>image/svg+xml</dc:format>
    <dc:creator>
     <cc:Agent>
      <dc:title>Matplotlib v3.7.3, https://matplotlib.org/</dc:title>
     </cc:Agent>
    </dc:creator>
   </cc:Work>
  </rdf:RDF>
 </metadata>
 <defs>
  <style type="text/css">*{stroke-linejoin: round; stroke-linecap: butt}</style>
 </defs>
 <g id="figure_1">
  <g id="patch_1">
   <path d="M 0 1440 
L 1440 1440 
L 1440 0 
L 0 0 
z
" style="fill: #ffffff"/>
  </g>
  <g id="axes_1">
   <g id="line2d_1">
    <path d="M 354.177056 65.720579 
L 348.095001 69.518162 
L 317.80398 80.815972 
L 290.136592 88.03138 
L 265.092835 91.544144 
L 242.791966 91.544144 
L 223.353241 88.601017 
L 206.776659 82.904643 
L 193.300733 74.739839 
L 182.68695 64.581304 
" clip-path="url(#peb8c7f0ff5)" style="fill: none; stroke: #7a7a7a; stroke-width: 3; stroke-linecap: square"/>
   </g>
   <g id="line2d_2">
    <path d="M 344.755833 51.004944 
L 338.673778 54.802527 
L 327.105947 58.030473 
L 324.840084 59.074808 
L 317.565469 61.638177 
L 311.364157 62.682512 
L 305.282102 62.682512 
L 290.375104 61.638177 
L 283.100489 60.498902 
L 277.018434 58.979869 
L 267.358699 55.372165 
L 260.79962 51.95434 
L 253.882773 47.112422 
L 248.158486 41.890745 
L 239.095031 32.396787 
" clip-path="url(#peb8c7f0ff5)" style="fill: none; stroke: #7a7a7a; stroke-width: 3; stroke-linecap: square"/>
   </g>
   <g id="line2d_3">
    <path d="M 372.065453 94.86703 
L 342.370713 105.310383 
L 314.703325 111.861214 
L 289.063288 114.519522 
L 265.808371 113.854945 
L 245.05783 109.962423 
L 227.050176 103.316652 
L 211.904666 94.012573 
L 199.979068 82.524884 
L 182.68695 64.581304 
" clip-path="url(#peb8c7f0ff5)" style="fill: none; stroke: #7a7a7a; stroke-width: 3; stroke-linecap: square"/>
   </g>
   <g id="line2d_4">
    <path d="M 354.177056 65.720579 
L 331.637675 72.27141 
L 309.21755 73.505624 
L 288.228496 69.99286 
L 270.101587 62.112875 
L 256.267892 50.340367 
L 239.095031 32.396787 
" clip-path="url(#peb8c7f0ff5)" style="fill: none; stroke: #7a7a7a; stroke-width: 3; stroke-linecap: square"/>
   </g>
   <g id="line2d_5">
    <path d="M 130.929853 203.477908 
L -1 284.351984 
" clip-path="url(#peb8c7f0ff5)" style="fill: none; stroke: #7a7a7a; stroke-width: 3; stroke-linecap: square"/>
   </g>
   <g id="line2d_6">
    <path d="M 114.830295 191.7054 
L 36.598369 241.16892 
L -1 263.931693 
" clip-path="url(#peb8c7f0ff5)" style="fill: none; stroke: #7a7a7a; stroke-width: 3; stroke-linecap: square"/>
   </g>
   <g id="line2d_7">
    <path d="M 460.949252 -1 
L 354.177056 65.720579 
" clip-path="url(#peb8c7f0ff5)" style="fill: none; stroke: #7a7a7a; stroke-width: 3; stroke-linecap: square"/>
   </g>
   <g id="line2d_8">
    <path d="M 429.756666 -1 
L 344.755833 51.004944 
" clip-path="url(#peb8c7f0ff5)" style="fill: none; stroke: #7a7a7a; stroke-width: 3; stroke-linecap: square"/>
   </g>
   <g id="line2d_9">
    <path d="M 483.569799 375.603364 
L 591.138697 484.309181 
" clip-path="url(#peb8c7f0ff5)" style="fill: none; stroke: #7a7a7a; stroke-width: 3; stroke-linecap: square"/>
   </g>
   <g id="line2d_10">
    <path d="M 453.398035 395.255857 
L 458.526042 398.578742 
L 466.754705 406.173908 
L 495.018374 435.13048 
L 513.741563 455.447549 
L 532.584009 476.619076 
L 542.005231 487.062429 
L 544.032583 489.435919 
" clip-path="url(#peb8c7f0ff5)" style="fill: none; stroke: #7a7a7a; stroke-width: 3; stroke-linecap: square"/>
   </g>
   <g id="line2d_11">
    <path d="M 122.70119 501.208426 
L 123.058958 501.018547 
L 128.425477 497.695662 
L 164.321528 475.100042 
" clip-path="url(#peb8c7f0ff5)" style="fill: none; stroke: #7a7a7a; stroke-width: 3; stroke-linecap: square"/>
   </g>
   <g id="line2d_12">
    <path d="M 154.065514 501.208426 
L 154.542538 501.018547 
L 159.432033 497.980481 
L 159.909057 497.695662 
L 179.944062 485.163638 
" clip-path="url(#peb8c7f0ff5)" style="fill: none; stroke: #7a7a7a; stroke-width: 3; stroke-linecap: square"/>
   </g>
   <g id="line2d_13">
    <path d="M 483.569799 375.603364 
L 465.323633 357.185086 
L 454.471339 344.84294 
L 447.793004 330.222245 
L 445.169372 314.082517 
L 446.481188 297.183272 
L 451.609195 280.473906 
L 460.434138 264.618996 
L 472.83676 250.472999 
L 487.863014 237.466277 
" clip-path="url(#peb8c7f0ff5)" style="fill: none; stroke: #7a7a7a; stroke-width: 3; stroke-linecap: square"/>
   </g>
   <g id="line2d_14">
    <path d="M 516.961475 354.621717 
L 498.834565 336.108499 
L 487.028223 320.443469 
L 485.477895 301.455553 
L 492.036974 282.752456 
L 504.558852 268.036821 
" clip-path="url(#peb8c7f0ff5)" style="fill: none; stroke: #7a7a7a; stroke-width: 3; stroke-linecap: square"/>
   </g>
   <g id="line2d_15">
    <path d="M 182.68695 64.581304 
L 192.465941 76.163933 
L 198.786508 89.455474 
L 201.290884 104.076169 
L 199.979068 120.026018 
L 194.135525 137.115142 
L 183.640998 155.153662 
L 168.13772 174.046638 
L 147.267923 193.509252 
L 130.929853 203.477908 
" clip-path="url(#peb8c7f0ff5)" style="fill: none; stroke: #7a7a7a; stroke-width: 3; stroke-linecap: square"/>
   </g>
   <g id="line2d_16">
    <path d="M 130.810597 96.670882 
L 144.048011 113.854945 
L 144.644291 115.563858 
L 145.598339 116.703133 
L 146.790899 119.171562 
L 147.148667 121.73493 
L 147.029411 122.304568 
L 150.487834 132.273224 
L 150.249322 150.596562 
L 143.690243 167.495807 
L 131.168365 181.736744 
L 114.830295 191.7054 
" clip-path="url(#peb8c7f0ff5)" style="fill: none; stroke: #7a7a7a; stroke-width: 3; stroke-linecap: square"/>
   </g>
   <g id="line2d_17">
    <path d="M 276.899178 366.299285 
L 281.430905 363.451098 
L 301.585167 354.241959 
L 322.812732 347.691128 
L 344.755833 343.513786 
L 366.937446 341.709934 
L 389.119059 342.184632 
L 410.823648 344.84294 
L 431.454934 349.684859 
L 450.774403 356.425569 
L 468.305033 365.065071 
L 483.569799 375.603364 
" clip-path="url(#peb8c7f0ff5)" style="fill: none; stroke: #7a7a7a; stroke-width: 3; stroke-linecap: square"/>
   </g>
   <g id="line2d_18">
    <path d="M 300.988887 391.743092 
L 305.520614 388.894905 
L 329.371811 380.825041 
L 353.700032 375.983122 
L 377.551229 374.27421 
L 400.329122 375.413485 
L 421.079663 379.400947 
L 439.087317 386.046717 
L 453.398035 395.255857 
" clip-path="url(#peb8c7f0ff5)" style="fill: none; stroke: #7a7a7a; stroke-width: 3; stroke-linecap: square"/>
   </g>
   <g id="line2d_19">
    <path d="M 597.992658 -1 
L 539.500856 34.675337 
" clip-path="url(#peb8c7f0ff5)" style="fill: none; stroke: #7a7a7a; stroke-width: 3; stroke-linecap: square"/>
   </g>
   <g id="line2d_20">
    <path d="M 527.854309 -1 
L 512.071979 8.661892 
" clip-path="url(#peb8c7f0ff5)" style="fill: none; stroke: #7a7a7a; stroke-width: 3; stroke-linecap: square"/>
   </g>
   <g id="line2d_21">
    <path d="M 132.360925 456.207066 
L 276.899178 366.299285 
" clip-path="url(#peb8c7f0ff5)" style="fill: none; stroke: #7a7a7a; stroke-width: 3; stroke-linecap: square"/>
   </g>
   <g id="line2d_22">
    <path d="M 164.321528 475.100042 
L 300.988887 391.743092 
" clip-path="url(#peb8c7f0ff5)" style="fill: none; stroke: #7a7a7a; stroke-width: 3; stroke-linecap: square"/>
   </g>
   <g id="line2d_23">
    <path d="M 504.558852 268.036821 
L 942.530172 -1 
" clip-path="url(#peb8c7f0ff5)" style="fill: none; stroke: #7a7a7a; stroke-width: 3; stroke-linecap: square"/>
   </g>
   <g id="line2d_24">
    <path d="M 518.273291 277.3409 
L 537.115736 263.669601 
L 550.710918 254.460461 
L 582.313754 234.997848 
L 616.182454 215.820053 
L 635.144155 205.376699 
L 653.748089 193.88901 
L 655.775441 192.844675 
L 825.953731 88.221259 
L 832.870578 83.284401 
L 854.336655 69.518162 
L 898.461369 42.270503 
L 920.762238 29.833418 
L 925.293966 27.17511 
L 971.126177 -1 
" clip-path="url(#peb8c7f0ff5)" style="fill: none; stroke: #7a7a7a; stroke-width: 3; stroke-linecap: square"/>
   </g>
   <g id="line2d_25">
    <path d="M 300.988887 391.743092 
L 504.558852 268.036821 
" clip-path="url(#peb8c7f0ff5)" style="fill: none; stroke: #7a7a7a; stroke-width: 3; stroke-linecap: square"/>
   </g>
   <g id="line2d_26">
    <path d="M 310.529365 403.5156 
L 329.729579 392.882367 
L 343.682529 384.242865 
L 518.273291 277.3409 
" clip-path="url(#peb8c7f0ff5)" style="fill: none; stroke: #7a7a7a; stroke-width: 3; stroke-linecap: square"/>
   </g>
   <g id="line2d_27">
    <path d="M 527.854309 -1 
L 512.071979 8.661892 
" clip-path="url(#peb8c7f0ff5)" style="fill: none; stroke: #7a7a7a; stroke-width: 3; stroke-linecap: square"/>
   </g>
   <g id="line2d_28">
    <path clip-path="url(#peb8c7f0ff5)" style="fill: none; stroke: #7a7a7a; stroke-width: 3; stroke-linecap: square"/>
   </g>
   <g id="line2d_29">
    <path d="M 468.662801 201.768995 
L 515.053379 173.382061 
L 516.603707 172.622545 
L 540.097136 159.425943 
L 551.068686 152.400414 
L 566.333452 144.045731 
L 574.085091 140.058269 
L 585.652922 132.368163 
L 594.835633 126.671788 
L 608.311559 117.747468 
L 621.429717 109.297846 
L 636.813739 99.898827 
L 652.674785 90.404869 
L 683.085061 71.227075 
L 718.027065 49.580851 
L 751.060972 29.35872 
L 789.342143 7.047919 
L 801.707107 -1 
" clip-path="url(#peb8c7f0ff5)" style="fill: none; stroke: #7a7a7a; stroke-width: 3; stroke-linecap: square"/>
   </g>
   <g id="line2d_30">
    <path d="M 487.863014 237.466277 
L 876.588069 -1 
" clip-path="url(#peb8c7f0ff5)" style="fill: none; stroke: #7a7a7a; stroke-width: 3; stroke-linecap: square"/>
   </g>
   <g id="line2d_31">
    <path d="M 162.055665 224.079796 
L -1 324.307243 
" clip-path="url(#peb8c7f0ff5)" style="fill: none; stroke: #7a7a7a; stroke-width: 3; stroke-linecap: square"/>
   </g>
   <g id="line2d_32">
    <path d="M 130.929853 203.477908 
L -1 284.351984 
" clip-path="url(#peb8c7f0ff5)" style="fill: none; stroke: #7a7a7a; stroke-width: 3; stroke-linecap: square"/>
   </g>
   <g id="line2d_33">
    <path d="M 483.569799 375.603364 
L 182.68695 64.581304 
" clip-path="url(#peb8c7f0ff5)" style="fill: none; stroke: #7a7a7a; stroke-width: 3; stroke-linecap: square"/>
   </g>
   <g id="line2d_34">
    <path d="M 516.961475 354.621717 
L 239.095031 32.396787 
" clip-path="url(#peb8c7f0ff5)" style="fill: none; stroke: #7a7a7a; stroke-width: 3; stroke-linecap: square"/>
   </g>
   <g id="line2d_35">
    <path d="M 189.246029 249.618543 
L 119.600534 291.012199 
L 116.022855 293.00593 
L 97.895945 303.923982 
L -1 366.041069 
" clip-path="url(#peb8c7f0ff5)" style="fill: none; stroke: #7a7a7a; stroke-width: 3; stroke-linecap: square"/>
   </g>
   <g id="line2d_36">
    <path d="M 162.055665 224.079796 
L -1 324.307243 
" clip-path="url(#peb8c7f0ff5)" style="fill: none; stroke: #7a7a7a; stroke-width: 3; stroke-linecap: square"/>
   </g>
   <g id="line2d_37">
    <path d="M 483.569799 375.603364 
L 379.57858 270.220431 
L 363.121255 259.492259 
L 342.847737 251.042637 
L 320.069844 244.871564 
L 295.622367 240.694222 
L 270.817123 238.700491 
L 246.727414 238.605552 
L 224.307289 240.409404 
L 204.868563 244.206987 
L 189.246029 249.618543 
" clip-path="url(#peb8c7f0ff5)" style="fill: none; stroke: #7a7a7a; stroke-width: 3; stroke-linecap: square"/>
   </g>
   <g id="line2d_38">
    <path d="M 516.961475 354.621717 
L 413.089512 249.238785 
L 398.30177 236.8017 
L 380.532628 226.548225 
L 360.259111 218.288482 
L 338.196754 212.02247 
L 314.822581 207.655249 
L 290.732872 205.09188 
L 266.404651 204.237424 
L 242.434198 205.09188 
L 219.537049 207.655249 
L 198.070972 211.642711 
L 178.751503 217.149207 
L 162.055665 224.079796 
" clip-path="url(#peb8c7f0ff5)" style="fill: none; stroke: #7a7a7a; stroke-width: 3; stroke-linecap: square"/>
   </g>
   <g id="line2d_39">
    <path d="M 57.110398 501.208426 
L 57.468166 501.018547 
L 62.834686 497.695662 
L 132.360925 456.207066 
" clip-path="url(#peb8c7f0ff5)" style="fill: none; stroke: #7a7a7a; stroke-width: 3; stroke-linecap: square"/>
   </g>
   <g id="line2d_40">
    <path d="M 122.70119 501.208426 
L 123.058958 501.018547 
L 128.425477 497.695662 
L 164.321528 475.100042 
" clip-path="url(#peb8c7f0ff5)" style="fill: none; stroke: #7a7a7a; stroke-width: 3; stroke-linecap: square"/>
   </g>
   <g id="line2d_41">
    <path d="M 354.177056 65.720579 
L 130.929853 203.477908 
" clip-path="url(#peb8c7f0ff5)" style="fill: none; stroke: #7a7a7a; stroke-width: 3; stroke-linecap: square"/>
   </g>
   <g id="line2d_42">
    <path d="M 344.755833 51.004944 
L 114.830295 191.7054 
" clip-path="url(#peb8c7f0ff5)" style="fill: none; stroke: #7a7a7a; stroke-width: 3; stroke-linecap: square"/>
   </g>
   <g id="line2d_43">
    <path d="M 251.020629 338.387049 
L 266.762419 327.943695 
L 278.688018 315.791429 
L 287.035936 302.12013 
L 292.044688 287.214616 
L 294.07204 271.169827 
L 293.356504 254.175643 
L 290.136592 236.421941 
L 284.770073 218.288482 
L 277.376202 199.775264 
L 268.432003 181.072167 
L 258.056732 162.558949 
L 246.608158 144.33055 
L 234.444047 126.576849 
L 221.564401 109.582664 
L 208.565499 93.442936 
L 195.44734 78.347543 
L 182.68695 64.581304 
" clip-path="url(#peb8c7f0ff5)" style="fill: none; stroke: #7a7a7a; stroke-width: 3; stroke-linecap: square"/>
   </g>
   <g id="line2d_44">
    <path d="M 276.899178 366.299285 
L 293.595016 356.805327 
L 307.547966 345.507517 
L 318.758028 332.595735 
L 327.582971 318.259858 
L 333.903538 302.594828 
L 338.077498 285.885462 
L 340.224106 268.2267 
L 340.343362 249.808422 
L 338.673778 230.725567 
L 335.215354 211.357893 
L 330.325859 191.61046 
L 324.005292 171.957968 
L 316.372909 152.305475 
L 307.667222 132.937801 
L 298.007487 114.044825 
L 287.393704 95.721486 
L 276.064386 78.252603 
L 264.138787 61.828056 
L 251.736165 46.447845 
L 239.095031 32.396787 
" clip-path="url(#peb8c7f0ff5)" style="fill: none; stroke: #7a7a7a; stroke-width: 3; stroke-linecap: square"/>
   </g>
   <g id="line2d_45">
    <path d="M 276.899178 366.299285 
L 487.863014 237.466277 
" clip-path="url(#peb8c7f0ff5)" style="fill: none; stroke: #7a7a7a; stroke-width: 3; stroke-linecap: square"/>
   </g>
   <g id="line2d_46">
    <path d="M 300.988887 391.743092 
L 504.558852 268.036821 
" clip-path="url(#peb8c7f0ff5)" style="fill: none; stroke: #7a7a7a; stroke-width: 3; stroke-linecap: square"/>
   </g>
   <g id="line2d_47">
    <path d="M 483.569799 375.603364 
L 443.976812 342.75427 
L 410.585136 316.645885 
L 379.340069 293.575568 
L 350.003096 273.543317 
L 322.812732 256.169374 
L 297.530463 241.453739 
L 274.15629 229.111594 
L 252.690213 219.047999 
L 233.132231 211.073074 
L 215.243834 204.996941 
L 199.02502 200.62972 
L 184.595046 197.781533 
L 171.834655 196.357439 
L 160.624593 196.072621 
L 150.964858 196.832137 
L 142.855451 198.44611 
L 136.177116 200.72466 
L 130.929853 203.477908 
" clip-path="url(#peb8c7f0ff5)" style="fill: none; stroke: #7a7a7a; stroke-width: 3; stroke-linecap: square"/>
   </g>
   <g id="line2d_48">
    <path d="M 516.961475 354.621717 
L 513.026027 351.108952 
L 482.496495 323.101777 
L 452.682499 298.037728 
L 423.703295 275.916806 
L 395.439626 256.644072 
L 368.130006 239.839766 
L 341.893689 225.50389 
L 316.611421 213.446563 
L 292.402456 203.572847 
L 269.386051 195.597923 
L 247.681462 189.42685 
L 227.288688 184.86975 
L 208.207731 181.831684 
L 190.677101 180.122771 
L 174.696799 179.553134 
L 160.266825 180.027832 
L 147.625691 181.262046 
L 136.534884 183.255777 
L 127.471429 185.724206 
L 120.077558 188.667333 
L 114.830295 191.7054 
" clip-path="url(#peb8c7f0ff5)" style="fill: none; stroke: #7a7a7a; stroke-width: 3; stroke-linecap: square"/>
   </g>
   <g id="line2d_49">
    <path clip-path="url(#peb8c7f0ff5)" style="fill: none; stroke: #7a7a7a; stroke-width: 3; stroke-linecap: square"/>
   </g>
   <g id="line2d_50">
    <path clip-path="url(#peb8c7f0ff5)" style="fill: none; stroke: #7a7a7a; stroke-width: 3; stroke-linecap: square"/>
   </g>
   <g id="line2d_51">
    <path d="M 182.68695 64.581304 
L 192.704453 74.929718 
L 201.529396 90.404869 
L 208.207731 105.500262 
L 212.262434 120.595655 
L 213.454994 135.880928 
L 211.308386 151.545958 
L 205.345587 167.970505 
L 195.44734 185.344448 
L 181.136622 203.952606 
L 162.055665 224.079796 
" clip-path="url(#peb8c7f0ff5)" style="fill: none; stroke: #7a7a7a; stroke-width: 3; stroke-linecap: square"/>
   </g>
   <g id="line2d_52">
    <path d="M 130.810597 96.670882 
L 140.828099 107.019296 
L 151.441882 121.070353 
L 157.404681 136.355626 
L 158.477985 152.590293 
L 154.661794 169.394599 
L 145.479083 186.483723 
L 130.929853 203.477908 
" clip-path="url(#peb8c7f0ff5)" style="fill: none; stroke: #7a7a7a; stroke-width: 3; stroke-linecap: square"/>
   </g>
   <g id="line2d_53">
    <path d="M 391.027155 125.247695 
L 189.246029 249.618543 
" clip-path="url(#peb8c7f0ff5)" style="fill: none; stroke: #7a7a7a; stroke-width: 3; stroke-linecap: square"/>
   </g>
   <g id="line2d_54">
    <path d="M 372.065453 94.86703 
L 162.055665 224.079796 
" clip-path="url(#peb8c7f0ff5)" style="fill: none; stroke: #7a7a7a; stroke-width: 3; stroke-linecap: square"/>
   </g>
   <g id="line2d_55">
    <path d="M 164.321528 475.100042 
L 300.988887 391.743092 
" clip-path="url(#peb8c7f0ff5)" style="fill: none; stroke: #7a7a7a; stroke-width: 3; stroke-linecap: square"/>
   </g>
   <g id="line2d_56">
    <path d="M 179.944062 485.163638 
L 202.00642 471.397399 
L 228.004224 455.067791 
L 260.441852 434.655782 
L 291.209896 414.71847 
L 310.529365 403.5156 
" clip-path="url(#peb8c7f0ff5)" style="fill: none; stroke: #7a7a7a; stroke-width: 3; stroke-linecap: square"/>
   </g>
   <g id="line2d_57">
    <path d="M 391.027155 125.247695 
L 383.991052 131.798526 
L 378.266765 140.248148 
L 373.973549 150.596562 
L 371.230662 162.653889 
L 370.157358 176.325188 
L 370.99215 191.515521 
L 373.735037 208.129947 
L 378.505277 226.073527 
L 385.54138 245.156383 
L 394.962602 265.378513 
L 406.768945 286.644979 
L 421.198919 308.86084 
L 438.252525 331.836218 
L 458.28753 355.476173 
L 483.569799 375.603364 
" clip-path="url(#peb8c7f0ff5)" style="fill: none; stroke: #7a7a7a; stroke-width: 3; stroke-linecap: square"/>
   </g>
   <g id="line2d_58">
    <path d="M 372.065453 94.86703 
L 357.039199 105.500262 
L 345.471369 118.032287 
L 337.004194 132.273224 
L 331.637675 147.938254 
L 328.894787 164.837499 
L 328.656275 182.781079 
L 330.802883 201.389237 
L 334.976842 220.472092 
L 341.058897 239.744827 
L 348.69128 259.112501 
L 357.635479 278.290296 
L 367.891494 296.993393 
L 378.982301 314.936973 
L 390.788643 332.026097 
L 403.072009 347.881007 
L 415.593888 362.311823 
L 428.115766 375.128666 
L 453.398035 395.255857 
" clip-path="url(#peb8c7f0ff5)" style="fill: none; stroke: #7a7a7a; stroke-width: 3; stroke-linecap: square"/>
   </g>
   <g id="line2d_59">
    <path d="M -1 491.898235 
L 92.41017 434.9406 
" clip-path="url(#peb8c7f0ff5)" style="fill: none; stroke: #7a7a7a; stroke-width: 3; stroke-linecap: square"/>
   </g>
   <g id="line2d_60">
    <path d="M 57.110398 501.208426 
L 57.468166 501.018547 
L 62.834686 497.695662 
L 132.360925 456.207066 
" clip-path="url(#peb8c7f0ff5)" style="fill: none; stroke: #7a7a7a; stroke-width: 3; stroke-linecap: square"/>
   </g>
   <g id="line2d_61">
    <path d="M 539.500856 34.675337 
L 391.027155 125.247695 
" clip-path="url(#peb8c7f0ff5)" style="fill: none; stroke: #7a7a7a; stroke-width: 3; stroke-linecap: square"/>
   </g>
   <g id="line2d_62">
    <path d="M 512.071979 8.661892 
L 372.065453 94.86703 
" clip-path="url(#peb8c7f0ff5)" style="fill: none; stroke: #7a7a7a; stroke-width: 3; stroke-linecap: square"/>
   </g>
   <g id="line2d_63">
    <path d="M 300.988887 391.743092 
L 334.14205 371.710841 
L 358.351015 363.735916 
L 381.248164 359.748454 
L 403.191265 359.083877 
L 424.180319 361.077608 
L 444.573092 364.970131 
L 464.25033 370.001929 
L 483.569799 375.603364 
" clip-path="url(#peb8c7f0ff5)" style="fill: none; stroke: #7a7a7a; stroke-width: 3; stroke-linecap: square"/>
   </g>
   <g id="line2d_64">
    <path d="M 310.529365 403.5156 
L 343.682529 383.388409 
L 361.570927 375.603364 
L 381.844444 372.090599 
L 402.833497 372.470358 
L 422.868503 376.647699 
L 440.279877 384.337805 
L 453.398035 395.255857 
" clip-path="url(#peb8c7f0ff5)" style="fill: none; stroke: #7a7a7a; stroke-width: 3; stroke-linecap: square"/>
   </g>
   <g id="line2d_65">
    <path d="M 182.68695 64.581304 
L 296.934183 182.781079 
L 311.960437 192.939614 
L 328.894787 201.199358 
L 347.737233 207.275491 
L 368.60703 211.262953 
L 391.146411 212.781986 
L 415.355376 211.832591 
L 441.233925 208.224887 
L 468.662801 201.768995 
" clip-path="url(#peb8c7f0ff5)" style="fill: none; stroke: #7a7a7a; stroke-width: 3; stroke-linecap: square"/>
   </g>
   <g id="line2d_66">
    <path d="M 130.810597 96.670882 
L 245.177086 214.870657 
L 264.615811 226.833044 
L 285.008585 237.086519 
L 306.116894 245.536141 
L 327.940739 252.086972 
L 350.122352 256.739011 
L 372.900245 259.30238 
L 395.91665 259.777078 
L 419.052311 257.973226 
L 442.307228 253.985764 
L 465.562145 247.624812 
L 487.863014 237.466277 
" clip-path="url(#peb8c7f0ff5)" style="fill: none; stroke: #7a7a7a; stroke-width: 3; stroke-linecap: square"/>
   </g>
   <g id="line2d_67">
    <path d="M 182.68695 64.581304 
L 209.758058 92.018842 
L 243.507502 124.962876 
L 274.871826 153.919448 
L 303.85103 179.078436 
L 330.445115 200.62972 
L 354.773336 218.858119 
L 377.074205 234.048452 
L 397.10921 246.390597 
L 415.23612 256.169374 
L 431.454934 263.669601 
L 445.765652 269.081157 
L 458.28753 272.688861 
L 469.139825 274.777531 
L 478.322536 275.537048 
L 485.835663 275.252229 
L 492.036974 274.207894 
L 496.687957 272.593921 
L 504.558852 268.036821 
" clip-path="url(#peb8c7f0ff5)" style="fill: none; stroke: #7a7a7a; stroke-width: 3; stroke-linecap: square"/>
   </g>
   <g id="line2d_68">
    <path d="M 130.810597 96.670882 
L 157.881705 124.10842 
L 199.382788 150.311744 
L 237.186935 173.76182 
L 271.532658 194.743466 
L 302.65847 213.161745 
L 330.802883 229.206533 
L 356.085152 243.067712 
L 378.743789 254.84022 
L 398.89805 264.618996 
L 416.905704 272.593921 
L 433.005262 278.764994 
L 447.196724 283.322093 
L 459.837858 286.36016 
L 471.047921 287.974133 
L 481.184679 288.448831 
L 490.248134 287.689314 
L 498.596053 285.980402 
L 506.347692 283.417033 
L 513.741563 279.999208 
L 518.273291 277.3409 
" clip-path="url(#peb8c7f0ff5)" style="fill: none; stroke: #7a7a7a; stroke-width: 3; stroke-linecap: square"/>
   </g>
   <g id="line2d_69">
    <path d="M 182.68695 64.581304 
L 119.928703 -1 
" clip-path="url(#peb8c7f0ff5)" style="fill: none; stroke: #7a7a7a; stroke-width: 3; stroke-linecap: square"/>
   </g>
   <g id="line2d_70">
    <path d="M 239.095031 32.396787 
L 206.884985 -1 
" clip-path="url(#peb8c7f0ff5)" style="fill: none; stroke: #7a7a7a; stroke-width: 3; stroke-linecap: square"/>
   </g>
   <g id="line2d_71">
    <path d="M 372.065453 94.86703 
L 162.055665 224.079796 
" clip-path="url(#peb8c7f0ff5)" style="fill: none; stroke: #7a7a7a; stroke-width: 3; stroke-linecap: square"/>
   </g>
   <g id="line2d_72">
    <path d="M 354.177056 65.720579 
L 130.929853 203.477908 
" clip-path="url(#peb8c7f0ff5)" style="fill: none; stroke: #7a7a7a; stroke-width: 3; stroke-linecap: square"/>
   </g>
   <g id="line2d_73">
    <path d="M 607.596023 501.208426 
L 607.357511 501.018547 
L 604.137599 497.600722 
L 591.138697 484.309181 
" clip-path="url(#peb8c7f0ff5)" style="fill: none; stroke: #7a7a7a; stroke-width: 3; stroke-linecap: square"/>
   </g>
   <g id="line2d_74">
    <path d="M 659.830144 501.208426 
L 659.591632 500.923608 
L 656.252465 497.600722 
L 648.97785 490.195435 
L 647.546778 488.676402 
L 633.474572 473.581009 
" clip-path="url(#peb8c7f0ff5)" style="fill: none; stroke: #7a7a7a; stroke-width: 3; stroke-linecap: square"/>
   </g>
   <g id="line2d_75">
    <path d="M 182.68695 64.581304 
L 483.569799 375.603364 
" clip-path="url(#peb8c7f0ff5)" style="fill: none; stroke: #7a7a7a; stroke-width: 3; stroke-linecap: square"/>
   </g>
   <g id="line2d_76">
    <path d="M 130.810597 96.670882 
L 453.398035 395.255857 
" clip-path="url(#peb8c7f0ff5)" style="fill: none; stroke: #7a7a7a; stroke-width: 3; stroke-linecap: square"/>
   </g>
   <g id="line2d_77">
    <path d="M 251.020629 338.387049 
L 468.662801 201.768995 
" clip-path="url(#peb8c7f0ff5)" style="fill: none; stroke: #7a7a7a; stroke-width: 3; stroke-linecap: square"/>
   </g>
   <g id="line2d_78">
    <path d="M 276.899178 366.299285 
L 487.863014 237.466277 
" clip-path="url(#peb8c7f0ff5)" style="fill: none; stroke: #7a7a7a; stroke-width: 3; stroke-linecap: square"/>
   </g>
   <g id="line2d_79">
    <path d="M 512.071979 8.661892 
L 372.065453 94.86703 
" clip-path="url(#peb8c7f0ff5)" style="fill: none; stroke: #7a7a7a; stroke-width: 3; stroke-linecap: square"/>
   </g>
   <g id="line2d_80">
    <path d="M 460.949252 -1 
L 354.177056 65.720579 
" clip-path="url(#peb8c7f0ff5)" style="fill: none; stroke: #7a7a7a; stroke-width: 3; stroke-linecap: square"/>
   </g>
   <g id="line2d_81">
    <path d="M 487.863014 237.466277 
L 876.588069 -1 
" clip-path="url(#peb8c7f0ff5)" style="fill: none; stroke: #7a7a7a; stroke-width: 3; stroke-linecap: square"/>
   </g>
   <g id="line2d_82">
    <path d="M 504.558852 268.036821 
L 942.530172 -1 
" clip-path="url(#peb8c7f0ff5)" style="fill: none; stroke: #7a7a7a; stroke-width: 3; stroke-linecap: square"/>
   </g>
   <g id="line2d_83">
    <path d="M 483.569799 375.603364 
L 473.43304 363.071339 
L 467.589497 350.064617 
L 465.800657 335.728741 
L 468.185777 320.253589 
L 475.341136 303.734103 
L 487.266735 286.26522 
L 504.558852 268.036821 
" clip-path="url(#peb8c7f0ff5)" style="fill: none; stroke: #7a7a7a; stroke-width: 3; stroke-linecap: square"/>
   </g>
   <g id="line2d_84">
    <path d="M 516.961475 354.621717 
L 516.245939 353.767261 
L 505.632156 339.431384 
L 500.742661 324.430931 
L 498.834565 320.728287 
L 497.761261 317.215523 
L 497.999773 310.474813 
L 500.027125 297.088332 
L 501.815965 292.626172 
L 505.155132 287.784254 
L 511.237187 282.467637 
L 518.273291 277.3409 
" clip-path="url(#peb8c7f0ff5)" style="fill: none; stroke: #7a7a7a; stroke-width: 3; stroke-linecap: square"/>
   </g>
   <g id="line2d_85">
    <path d="M 92.41017 434.9406 
L 139.993308 406.458727 
L 174.219775 385.097322 
L 212.620202 360.60291 
L 251.020629 338.387049 
" clip-path="url(#peb8c7f0ff5)" style="fill: none; stroke: #7a7a7a; stroke-width: 3; stroke-linecap: square"/>
   </g>
   <g id="line2d_86">
    <path d="M 132.360925 456.207066 
L 276.899178 366.299285 
" clip-path="url(#peb8c7f0ff5)" style="fill: none; stroke: #7a7a7a; stroke-width: 3; stroke-linecap: square"/>
   </g>
   <g id="line2d_87">
    <path d="M 1419.96779 1345.221281 
L 607.596023 501.208426 
" clip-path="url(#peb8c7f0ff5)" style="fill: none; stroke: #7a7a7a; stroke-width: 3; stroke-linecap: square"/>
   </g>
   <g id="line2d_88">
    <path d="M 1441 1320.096347 
L 1031.908816 892.169611 
L 1021.056521 881.916137 
L 876.876036 734.474971 
L 777.655057 629.376858 
L 755.473444 601.84438 
L 684.873901 526.557294 
L 659.830144 501.208426 
" clip-path="url(#peb8c7f0ff5)" style="fill: none; stroke: #7a7a7a; stroke-width: 3; stroke-linecap: square"/>
   </g>
   <g id="line2d_89">
    <path d="M 607.596023 501.208426 
L 1419.96779 1345.221281 
" clip-path="url(#peb8c7f0ff5)" style="fill: none; stroke: #7a7a7a; stroke-width: 3; stroke-linecap: square"/>
   </g>
   <g id="line2d_90">
    <path d="M 555.004134 501.208426 
L 715.284177 663.555106 
L 715.999713 663.934864 
L 730.906711 679.504955 
L 794.112383 743.968929 
L 804.368397 752.323612 
L 821.422003 768.843099 
L 829.889178 778.052238 
L 840.502961 788.78041 
L 855.886983 806.059414 
L 866.381509 816.123009 
L 873.77538 824.097933 
L 920.881494 871.187965 
L 962.382577 914.765231 
L 988.857406 944.006621 
L 1013.66265 969.355489 
L 1024.872713 980.178601 
L 1036.082775 992.330867 
L 1052.301589 1008.375656 
L 1060.768764 1017.584795 
L 1179.905493 1139.392274 
L 1204.233714 1164.456323 
L 1204.94925 1165.1209 
L 1208.049905 1168.443785 
L 1391.823377 1358.512822 
" clip-path="url(#peb8c7f0ff5)" style="fill: none; stroke: #7a7a7a; stroke-width: 3; stroke-linecap: square"/>
   </g>
   <g id="line2d_91">
    <path d="M 119.928703 -1 
L 182.68695 64.581304 
" clip-path="url(#peb8c7f0ff5)" style="fill: none; stroke: #7a7a7a; stroke-width: 3; stroke-linecap: square"/>
   </g>
   <g id="line2d_92">
    <path d="M 35.458128 -1 
L 130.810597 96.670882 
" clip-path="url(#peb8c7f0ff5)" style="fill: none; stroke: #7a7a7a; stroke-width: 3; stroke-linecap: square"/>
   </g>
   <g id="line2d_93">
    <path d="M 591.138697 484.309181 
L 483.569799 375.603364 
" clip-path="url(#peb8c7f0ff5)" style="fill: none; stroke: #7a7a7a; stroke-width: 3; stroke-linecap: square"/>
   </g>
   <g id="line2d_94">
    <path d="M 633.474572 473.581009 
L 516.961475 354.621717 
" clip-path="url(#peb8c7f0ff5)" style="fill: none; stroke: #7a7a7a; stroke-width: 3; stroke-linecap: square"/>
   </g>
   <g id="line2d_95">
    <path d="M 591.138697 484.309181 
L 604.137599 497.600722 
L 607.357511 501.018547 
L 607.596023 501.208426 
" clip-path="url(#peb8c7f0ff5)" style="fill: none; stroke: #7a7a7a; stroke-width: 3; stroke-linecap: square"/>
   </g>
   <g id="line2d_96">
    <path d="M 544.032583 489.435919 
L 551.54571 497.600722 
L 554.765622 501.018547 
L 555.004134 501.208426 
" clip-path="url(#peb8c7f0ff5)" style="fill: none; stroke: #7a7a7a; stroke-width: 3; stroke-linecap: square"/>
   </g>
   <g id="line2d_97">
    <path d="M 249.695857 60.776628 
L 238.511969 47.469789 
" clip-path="url(#peb8c7f0ff5)" style="fill: none; stroke-dasharray: 32,8,5,8; stroke-dashoffset: 0; stroke: #1e90ff; stroke-width: 5"/>
   </g>
   <g id="line2d_98">
    <path d="M 1052.262284 1053.124694 
L 1261.116023 1155.181264 
" clip-path="url(#peb8c7f0ff5)" style="fill: none; stroke-dasharray: 32,8,5,8; stroke-dashoffset: 0; stroke: #1e90ff; stroke-width: 5"/>
   </g>
   <g id="line2d_99">
    <path d="M 249.695857 60.776628 
" clip-path="url(#peb8c7f0ff5)" style="fill: none; stroke: #0000ff; stroke-width: 1.5; stroke-linecap: square"/>
    <defs>
     <path id="me6fc842696" d="M 0 10 
C 2.652031 10 5.195799 8.946337 7.071068 7.071068 
C 8.946337 5.195799 10 2.652031 10 0 
C 10 -2.652031 8.946337 -5.195799 7.071068 -7.071068 
C 5.195799 -8.946337 2.652031 -10 0 -10 
C -2.652031 -10 -5.195799 -8.946337 -7.071068 -7.071068 
C -8.946337 -5.195799 -10 -2.652031 -10 0 
C -10 2.652031 -8.946337 5.195799 -7.071068 7.071068 
C -5.195799 8.946337 -2.652031 10 0 10 
z
" style="stroke: #0000ff"/>
    </defs>
    <g clip-path="url(#peb8c7f0ff5)">
     <use xlink:href="#me6fc842696" x="249.695857" y="60.776628" style="fill: #0000ff; stroke: #0000ff"/>
    </g>
   </g>
   <g id="line2d_100">
    <path d="M 1052.262284 1053.124694 
" clip-path="url(#peb8c7f0ff5)" style="fill: none; stroke: #0000ff; stroke-width: 1.5; stroke-linecap: square"/>
    <g clip-path="url(#peb8c7f0ff5)">
     <use xlink:href="#me6fc842696" x="1052.262284" y="1053.124694" style="fill: #0000ff; stroke: #0000ff"/>
    </g>
   </g>
   <g id="line2d_101">
    <path d="M 238.511969 47.469789 
" clip-path="url(#peb8c7f0ff5)" style="fill: none; stroke: #ff0000; stroke-width: 1.5; stroke-linecap: square"/>
    <defs>
     <path id="m227a5df954" d="M 0 -10 
L -2.24514 -3.09017 
L -9.510565 -3.09017 
L -3.632713 1.18034 
L -5.877853 8.09017 
L -0 3.81966 
L 5.877853 8.09017 
L 3.632713 1.18034 
L 9.510565 -3.09017 
L 2.24514 -3.09017 
z
" style="stroke: #ff0000; stroke-linejoin: bevel"/>
    </defs>
    <g clip-path="url(#peb8c7f0ff5)">
     <use xlink:href="#m227a5df954" x="238.511969" y="47.469789" style="fill: #ff0000; stroke: #ff0000; stroke-linejoin: bevel"/>
    </g>
   </g>
   <g id="line2d_102">
    <path d="M 1261.116023 1155.181264 
" clip-path="url(#peb8c7f0ff5)" style="fill: none; stroke: #ff0000; stroke-width: 1.5; stroke-linecap: square"/>
    <g clip-path="url(#peb8c7f0ff5)">
     <use xlink:href="#m227a5df954" x="1261.116023" y="1155.181264" style="fill: #ff0000; stroke: #ff0000; stroke-linejoin: bevel"/>
    </g>
   </g>
  </g>
 </g>
 <defs>
  <clipPath id="peb8c7f0ff5">
   <rect x="0" y="0" width="1440" height="1440"/>
  </clipPath>
 </defs>
</svg>
