<?xml version="1.0" encoding="utf-8" standalone="no"?>
<!DOCTYPE svg PUBLIC "-//W3C//DTD SVG 1.1//EN"
  "http://www.w3.org/Graphics/SVG/1.1/DTD/svg11.dtd">
<svg xmlns:xlink="http://www.w3.org/1999/xlink" width="1440pt" height="1440pt" viewBox="0 0 1440 1440" xmlns="http://www.w3.org/2000/svg" version="1.1">
 <metadata>
  <rdf:RDF xmlns:dc="http://purl.org/dc/elements/1.1/" xmlns:cc="http://creativecommons.org/ns#" xmlns:rdf="http://www.w3.org/1999/02/22-rdf-syntax-ns#">
   <cc:Work>
    <dc:type rdf:resource="http://purl.org/dc/dcmitype/StillImage"/>
    <dc:date>2026-02-27T11:08:30.050115</dc:date>
    <dc:format>image/svg+xml</dc:format>
    <dc:creator>
     <cc:Agent>
      <dc:title>Matplotlib v3.7.3, https://matplotlib.org/</dc:title>
     </cc:Agent>
    </dc:creator>
   </cc:Work>
  </rdf:RDF>
 </metadata>
 <defs>
  <style type="text/css">*{stroke-linejoin: round; stroke-linecap: butt}</style>
 </defs>
 <g id="figure_1">
  <g id="patch_1">
   <path d="M 0 1440 
L 1440 1440 
L 1440 0 
L 0 0 
z
" style="fill: #ffffff"/>
  </g>
  <g id="axes_1">
   <g id="line2d_1">
    <path d="M 1019.32078 248.366242 
L 1018.90513 248.809851 
L 1018.48948 249.164738 
L 1018.32322 249.342181 
L 1017.74131 249.874512 
L 841.671963 425.011256 
L 748.316969 516.21722 
L 680.898536 583.290866 
L 603.171983 659.680297 
L 520.70702 741.126868 
L 520.54076 741.304311 
" clip-path="url(#p1124df3eff)" style="fill: none; stroke: #7a7a7a; stroke-width: 3; stroke-linecap: square"/>
   </g>
   <g id="line2d_2">
    <path d="M 1019.32078 218.289567 
L 1018.90513 218.733176 
L 1018.48948 219.088063 
L 1018.32322 219.265506 
L 1017.82444 219.797837 
L 933.613747 304.083504 
L 836.767293 399.370669 
L 796.033591 439.739067 
L 786.639901 448.611242 
L 693.451167 542.390137 
L 612.815064 621.086334 
L 520.70702 710.784028 
L 520.54076 710.961471 
" clip-path="url(#p1124df3eff)" style="fill: none; stroke: #7a7a7a; stroke-width: 3; stroke-linecap: square"/>
   </g>
   <g id="line2d_3">
    <path d="M 520.54076 813.701263 
L 520.70702 813.52382 
L 687.881457 648.235191 
L 1017.65818 324.755673 
L 1018.32322 324.134621 
L 1018.48948 323.957177 
L 1018.90513 323.60229 
L 1019.32078 323.158681 
" clip-path="url(#p1124df3eff)" style="fill: none; stroke: #7a7a7a; stroke-width: 3; stroke-linecap: square"/>
   </g>
   <g id="line2d_4">
    <path d="M 520.54076 847.149365 
L 520.70702 846.971921 
L 730.277758 639.451737 
L 798.693751 572.732977 
L 915.075756 456.773644 
L 961.711688 412.057879 
L 1017.65818 357.139113 
L 1018.32322 356.429339 
L 1018.48948 356.251896 
L 1018.90513 355.897009 
L 1019.32078 355.4534 
" clip-path="url(#p1124df3eff)" style="fill: none; stroke: #7a7a7a; stroke-width: 3; stroke-linecap: square"/>
   </g>
   <g id="line2d_5">
    <path d="M 520.54076 777.502787 
L 520.70702 777.325344 
L 1017.74131 287.581258 
L 1018.32322 286.960205 
L 1018.48948 286.782762 
L 1018.90513 286.427875 
L 1019.32078 285.984266 
" clip-path="url(#p1124df3eff)" style="fill: none; stroke: #7a7a7a; stroke-width: 3; stroke-linecap: square"/>
   </g>
   <g id="line2d_6">
    <path d="M 520.54076 813.701263 
L 520.70702 813.52382 
L 687.881457 648.235191 
L 1017.65818 324.755673 
L 1018.32322 324.134621 
L 1018.48948 323.957177 
L 1018.90513 323.60229 
L 1019.32078 323.158681 
" clip-path="url(#p1124df3eff)" style="fill: none; stroke: #7a7a7a; stroke-width: 3; stroke-linecap: square"/>
   </g>
   <g id="line2d_7">
    <path d="M -1 1287.062064 
L 18.01989 1268.666422 
L 19.93188 1266.891986 
L 20.51379 1266.270934 
L 21.0957 1265.738604 
L 21.51135 1265.294995 
L 21.76074 1265.117551 
" clip-path="url(#p1124df3eff)" style="fill: none; stroke: #7a7a7a; stroke-width: 3; stroke-linecap: square"/>
   </g>
   <g id="line2d_8">
    <path d="M -1 1321.619542 
L 18.01989 1303.356628 
L 19.93188 1301.493471 
L 20.51379 1300.96114 
L 21.0957 1300.340088 
L 21.51135 1299.896479 
L 21.76074 1299.719036 
" clip-path="url(#p1124df3eff)" style="fill: none; stroke: #7a7a7a; stroke-width: 3; stroke-linecap: square"/>
   </g>
   <g id="line2d_9">
    <path d="M 1019.32078 285.984266 
L 1018.90513 286.427875 
L 1018.48948 286.782762 
L 1018.32322 286.960205 
L 1017.74131 287.581258 
L 520.70702 777.325344 
L 520.54076 777.502787 
" clip-path="url(#p1124df3eff)" style="fill: none; stroke: #7a7a7a; stroke-width: 3; stroke-linecap: square"/>
   </g>
   <g id="line2d_10">
    <path d="M 1019.32078 248.366242 
L 1018.90513 248.809851 
L 1018.48948 249.164738 
L 1018.32322 249.342181 
L 1017.74131 249.874512 
L 841.671963 425.011256 
L 748.316969 516.21722 
L 680.898536 583.290866 
L 603.171983 659.680297 
L 520.70702 741.126868 
L 520.54076 741.304311 
" clip-path="url(#p1124df3eff)" style="fill: none; stroke: #7a7a7a; stroke-width: 3; stroke-linecap: square"/>
   </g>
   <g id="line2d_11">
    <path d="M -1 1321.619542 
L 18.01989 1303.356628 
L 19.93188 1301.493471 
L 20.51379 1300.96114 
L 21.0957 1300.340088 
L 21.51135 1299.896479 
L 21.76074 1299.719036 
" clip-path="url(#p1124df3eff)" style="fill: none; stroke: #7a7a7a; stroke-width: 3; stroke-linecap: square"/>
   </g>
   <g id="line2d_12">
    <path d="M -1 1353.081156 
L 15.775379 1337.248338 
L 18.01989 1335.207738 
L 19.93188 1333.344581 
L 20.51379 1332.81225 
L 21.0957 1332.191198 
L 21.51135 1331.747589 
L 21.76074 1331.570146 
" clip-path="url(#p1124df3eff)" style="fill: none; stroke: #7a7a7a; stroke-width: 3; stroke-linecap: square"/>
   </g>
   <g id="line2d_13">
    <path d="M 21.76074 1265.117551 
L 21.51135 1265.294995 
L 21.0957 1265.738604 
L 20.51379 1266.270934 
L 19.93188 1266.891986 
L 18.01989 1268.666422 
L -1 1287.062064 
" clip-path="url(#p1124df3eff)" style="fill: none; stroke: #7a7a7a; stroke-width: 3; stroke-linecap: square"/>
   </g>
   <g id="line2d_14">
    <path d="M 21.76074 1228.12058 
L 21.51135 1228.386745 
L 21.0957 1228.741632 
L 20.51379 1229.362684 
L 19.93188 1229.895015 
L 18.10302 1231.758172 
L -1 1250.277687 
" clip-path="url(#p1124df3eff)" style="fill: none; stroke: #7a7a7a; stroke-width: 3; stroke-linecap: square"/>
   </g>
   <g id="line2d_15">
    <path d="M 21.76074 1265.117551 
L 186.607536 1106.749219 
" clip-path="url(#p1124df3eff)" style="fill: none; stroke: #7a7a7a; stroke-width: 3; stroke-linecap: square"/>
   </g>
   <g id="line2d_16">
    <path d="M 21.76074 1299.719036 
L 200.905897 1125.558231 
" clip-path="url(#p1124df3eff)" style="fill: none; stroke: #7a7a7a; stroke-width: 3; stroke-linecap: square"/>
   </g>
   <g id="line2d_17">
    <path d="M 186.607536 1106.749219 
L 314.128962 979.344779 
" clip-path="url(#p1124df3eff)" style="fill: none; stroke: #7a7a7a; stroke-width: 3; stroke-linecap: square"/>
   </g>
   <g id="line2d_18">
    <path d="M 200.905897 1125.558231 
L 331.253742 997.976348 
" clip-path="url(#p1124df3eff)" style="fill: none; stroke: #7a7a7a; stroke-width: 3; stroke-linecap: square"/>
   </g>
   <g id="line2d_19">
    <path d="M 21.76074 1299.719036 
L 200.905897 1125.558231 
" clip-path="url(#p1124df3eff)" style="fill: none; stroke: #7a7a7a; stroke-width: 3; stroke-linecap: square"/>
   </g>
   <g id="line2d_20">
    <path d="M 21.76074 1331.570146 
L 215.786168 1143.036417 
" clip-path="url(#p1124df3eff)" style="fill: none; stroke: #7a7a7a; stroke-width: 3; stroke-linecap: square"/>
   </g>
   <g id="line2d_21">
    <path d="M 175.384986 938.798937 
L 53.350141 800.659165 
" clip-path="url(#p1124df3eff)" style="fill: none; stroke: #7a7a7a; stroke-width: 3; stroke-linecap: square"/>
   </g>
   <g id="line2d_22">
    <path d="M 195.419317 920.256091 
L 178.876446 901.5358 
L 177.296976 899.672644 
L 67.897892 776.171961 
" clip-path="url(#p1124df3eff)" style="fill: none; stroke: #7a7a7a; stroke-width: 3; stroke-linecap: square"/>
   </g>
   <g id="line2d_23">
    <path d="M 286.69606 1110.386811 
L 410.476635 1249.768688 
" clip-path="url(#p1124df3eff)" style="fill: none; stroke: #7a7a7a; stroke-width: 3; stroke-linecap: square"/>
   </g>
   <g id="line2d_24">
    <path d="M 248.705649 1144.72213 
L 379.386014 1283.837842 
" clip-path="url(#p1124df3eff)" style="fill: none; stroke: #7a7a7a; stroke-width: 3; stroke-linecap: square"/>
   </g>
   <g id="line2d_25">
    <path d="M 21.76074 1228.12058 
L 21.51135 1228.386745 
L 21.0957 1228.741632 
L 20.51379 1229.362684 
L 19.93188 1229.895015 
L 18.10302 1231.758172 
L -1 1250.277687 
" clip-path="url(#p1124df3eff)" style="fill: none; stroke: #7a7a7a; stroke-width: 3; stroke-linecap: square"/>
   </g>
   <g id="line2d_26">
    <path d="M 21.76074 1196.180748 
L 21.51135 1196.446913 
L 21.17883 1196.8018 
L 20.51379 1197.422853 
L 19.93188 1197.955183 
L 18.10302 1199.729618 
L -1 1218.29038 
" clip-path="url(#p1124df3eff)" style="fill: none; stroke: #7a7a7a; stroke-width: 3; stroke-linecap: square"/>
   </g>
   <g id="line2d_27">
    <path d="M 314.128962 979.344779 
L 279.13123 1013.680098 
L 271.15075 1021.753778 
L 265.66417 1033.287606 
L 263.087139 1047.394365 
L 263.585919 1063.009394 
L 267.49303 1079.334197 
L 275.05786 1095.392835 
L 286.69606 1110.386811 
" clip-path="url(#p1124df3eff)" style="fill: none; stroke: #7a7a7a; stroke-width: 3; stroke-linecap: square"/>
   </g>
   <g id="line2d_28">
    <path d="M 297.669221 960.092159 
L 262.754619 994.427478 
L 250.783899 1005.16281 
L 241.140819 1018.82596 
L 233.742248 1034.618433 
L 228.754448 1051.741731 
L 226.094288 1069.663526 
L 225.761768 1087.58532 
L 227.840018 1104.708619 
L 232.329038 1120.501091 
L 239.228829 1134.07552 
L 248.705649 1144.72213 
" clip-path="url(#p1124df3eff)" style="fill: none; stroke: #7a7a7a; stroke-width: 3; stroke-linecap: square"/>
   </g>
   <g id="line2d_29">
    <path d="M 175.384986 938.798937 
L 205.727437 973.489144 
L 218.363198 984.93425 
L 232.245908 993.362817 
L 246.793659 998.774844 
L 261.673929 1001.170331 
L 276.30481 1000.460557 
L 290.187521 996.645522 
L 302.989541 989.636503 
L 314.128962 979.344779 
" clip-path="url(#p1124df3eff)" style="fill: none; stroke: #7a7a7a; stroke-width: 3; stroke-linecap: square"/>
   </g>
   <g id="line2d_30">
    <path d="M 156.514475 958.67261 
L 186.025626 991.854547 
L 187.688226 994.250034 
L 198.661387 1005.428975 
L 211.879057 1015.27709 
L 226.094288 1022.729717 
L 241.057689 1027.609414 
L 256.519869 1029.91618 
L 272.23144 1029.472571 
L 287.77675 1026.189866 
L 303.072671 1019.979343 
L 317.620422 1010.574837 
L 331.253742 997.976348 
" clip-path="url(#p1124df3eff)" style="fill: none; stroke: #7a7a7a; stroke-width: 3; stroke-linecap: square"/>
   </g>
   <g id="line2d_31">
    <path d="M 297.669221 960.092159 
L 168.402066 1085.988329 
" clip-path="url(#p1124df3eff)" style="fill: none; stroke: #7a7a7a; stroke-width: 3; stroke-linecap: square"/>
   </g>
   <g id="line2d_32">
    <path d="M 283.70338 943.678634 
L 272.06518 953.970357 
L 183.697986 1040.296625 
L 154.353095 1068.598865 
" clip-path="url(#p1124df3eff)" style="fill: none; stroke: #7a7a7a; stroke-width: 3; stroke-linecap: square"/>
   </g>
   <g id="line2d_33">
    <path d="M 175.384986 938.798937 
L 191.595337 956.720732 
L 204.064837 972.513204 
L 213.042877 986.44252 
L 218.529458 998.952287 
L 220.690838 1010.663559 
L 219.610148 1021.8425 
L 215.453648 1032.932719 
L 208.304467 1044.377826 
L 198.245737 1056.621428 
L 185.443716 1070.195856 
L 168.402066 1085.988329 
" clip-path="url(#p1124df3eff)" style="fill: none; stroke: #7a7a7a; stroke-width: 3; stroke-linecap: square"/>
   </g>
   <g id="line2d_34">
    <path d="M 156.514475 958.67261 
L 174.304296 977.481622 
L 186.856926 992.03199 
L 194.588017 1003.388375 
L 197.746957 1012.881603 
L 196.749397 1021.487613 
L 194.089237 1026.456031 
L 193.922977 1026.722196 
L 193.590457 1027.254527 
L 191.761597 1030.625954 
L 190.514647 1032.134223 
L 189.683346 1033.46505 
L 186.940056 1036.659033 
L 183.199206 1041.272564 
L 154.353095 1068.598865 
" clip-path="url(#p1124df3eff)" style="fill: none; stroke: #7a7a7a; stroke-width: 3; stroke-linecap: square"/>
   </g>
   <g id="line2d_35">
    <path d="M 410.476635 1249.768688 
L 286.69606 1110.386811 
" clip-path="url(#p1124df3eff)" style="fill: none; stroke: #7a7a7a; stroke-width: 3; stroke-linecap: square"/>
   </g>
   <g id="line2d_36">
    <path d="M 448.383917 1213.215325 
L 322.691352 1072.502622 
" clip-path="url(#p1124df3eff)" style="fill: none; stroke: #7a7a7a; stroke-width: 3; stroke-linecap: square"/>
   </g>
   <g id="line2d_37">
    <path d="M 168.402066 1085.988329 
L 21.76074 1228.12058 
" clip-path="url(#p1124df3eff)" style="fill: none; stroke: #7a7a7a; stroke-width: 3; stroke-linecap: square"/>
   </g>
   <g id="line2d_38">
    <path d="M 154.353095 1068.598865 
L 21.76074 1196.180748 
" clip-path="url(#p1124df3eff)" style="fill: none; stroke: #7a7a7a; stroke-width: 3; stroke-linecap: square"/>
   </g>
   <g id="line2d_39">
    <path d="M 286.69606 1110.386811 
L 278.96497 1100.627418 
L 274.8916 1087.851485 
L 274.72534 1073.301118 
L 278.63245 1057.952254 
L 286.69606 1042.869556 
L 299.165561 1029.206406 
L 331.253742 997.976348 
" clip-path="url(#p1124df3eff)" style="fill: none; stroke: #7a7a7a; stroke-width: 3; stroke-linecap: square"/>
   </g>
   <g id="line2d_40">
    <path d="M 322.691352 1072.502622 
L 310.304981 1057.331202 
L 309.889331 1055.73421 
L 310.554371 1054.048497 
L 312.050711 1052.451505 
L 312.050711 1052.18534 
L 314.710872 1047.1282 
L 346.799053 1015.898142 
" clip-path="url(#p1124df3eff)" style="fill: none; stroke: #7a7a7a; stroke-width: 3; stroke-linecap: square"/>
   </g>
   <g id="line2d_41">
    <path d="M 186.607536 1106.749219 
L 21.76074 1265.117551 
" clip-path="url(#p1124df3eff)" style="fill: none; stroke: #7a7a7a; stroke-width: 3; stroke-linecap: square"/>
   </g>
   <g id="line2d_42">
    <path d="M 168.402066 1085.988329 
L 21.76074 1228.12058 
" clip-path="url(#p1124df3eff)" style="fill: none; stroke: #7a7a7a; stroke-width: 3; stroke-linecap: square"/>
   </g>
   <g id="line2d_43">
    <path d="M 297.669221 960.092159 
L 281.62513 972.601926 
L 266.24608 982.095154 
L 253.444059 987.595903 
L 241.722729 989.281616 
L 230.333918 987.063572 
L 218.695718 980.941771 
L 206.143087 970.916213 
L 191.927857 956.809454 
L 175.384986 938.798937 
" clip-path="url(#p1124df3eff)" style="fill: none; stroke: #7a7a7a; stroke-width: 3; stroke-linecap: square"/>
   </g>
   <g id="line2d_44">
    <path d="M 283.70338 943.678634 
L 279.54688 947.671113 
L 272.06518 953.970357 
L 265.33165 959.027498 
L 258.265599 963.108698 
L 251.448939 965.947794 
L 247.624959 966.835012 
L 244.632279 966.923734 
L 241.140819 966.391403 
L 238.563788 965.326742 
L 235.487978 963.463585 
L 231.747128 960.358324 
L 226.509938 955.212462 
L 195.419317 920.256091 
" clip-path="url(#p1124df3eff)" style="fill: none; stroke: #7a7a7a; stroke-width: 3; stroke-linecap: square"/>
   </g>
   <g id="line2d_45">
    <path d="M 314.128962 979.344779 
L 517.79747 780.16444 
L 519.12755 778.833614 
L 519.5432 778.390005 
L 520.04198 777.946396 
L 520.29137 777.680231 
L 520.54076 777.502787 
" clip-path="url(#p1124df3eff)" style="fill: none; stroke: #7a7a7a; stroke-width: 3; stroke-linecap: square"/>
   </g>
   <g id="line2d_46">
    <path d="M 331.253742 997.976348 
L 517.79747 816.451638 
L 519.12755 815.120811 
L 519.5432 814.677203 
L 520.04198 814.233594 
L 520.29137 813.967428 
L 520.54076 813.701263 
" clip-path="url(#p1124df3eff)" style="fill: none; stroke: #7a7a7a; stroke-width: 3; stroke-linecap: square"/>
   </g>
   <g id="line2d_47">
    <path d="M 520.54076 777.502787 
L 520.29137 777.680231 
L 520.04198 777.946396 
L 519.5432 778.390005 
L 519.12755 778.833614 
L 517.79747 780.16444 
L 314.128962 979.344779 
" clip-path="url(#p1124df3eff)" style="fill: none; stroke: #7a7a7a; stroke-width: 3; stroke-linecap: square"/>
   </g>
   <g id="line2d_48">
    <path d="M 520.54076 741.304311 
L 520.29137 741.481755 
L 520.04198 741.74792 
L 519.5432 742.191529 
L 519.12755 742.635138 
L 518.12999 743.699799 
L 297.669221 960.092159 
" clip-path="url(#p1124df3eff)" style="fill: none; stroke: #7a7a7a; stroke-width: 3; stroke-linecap: square"/>
   </g>
   <g id="line2d_49">
    <path d="M 175.384986 938.798937 
L 196.084357 961.245541 
L 211.463407 979.610945 
L 222.602828 994.604921 
L 230.333918 1007.025967 
L 235.654238 1017.761299 
L 239.561349 1027.609414 
L 242.969679 1037.191363 
L 246.959919 1047.394365 
L 252.280239 1059.016915 
L 260.094459 1072.857509 
L 271.23388 1089.714642 
L 286.69606 1110.386811 
" clip-path="url(#p1124df3eff)" style="fill: none; stroke: #7a7a7a; stroke-width: 3; stroke-linecap: square"/>
   </g>
   <g id="line2d_50">
    <path d="M 156.514475 958.67261 
L 184.529286 990.257555 
L 192.177247 999.395896 
L 196.915657 1005.783862 
L 199.492687 1010.752281 
L 200.822767 1015.365812 
L 203.150407 1028.851518 
L 205.893697 1040.207903 
L 210.964627 1056.266541 
L 219.194498 1078.180814 
L 231.414608 1107.28155 
L 248.705649 1144.72213 
" clip-path="url(#p1124df3eff)" style="fill: none; stroke: #7a7a7a; stroke-width: 3; stroke-linecap: square"/>
   </g>
   <g id="line2d_51">
    <path d="M 314.128962 979.344779 
L 186.607536 1106.749219 
" clip-path="url(#p1124df3eff)" style="fill: none; stroke: #7a7a7a; stroke-width: 3; stroke-linecap: square"/>
   </g>
   <g id="line2d_52">
    <path d="M 297.669221 960.092159 
L 168.402066 1085.988329 
" clip-path="url(#p1124df3eff)" style="fill: none; stroke: #7a7a7a; stroke-width: 3; stroke-linecap: square"/>
   </g>
   <g id="line2d_53">
    <path d="M 520.54076 741.304311 
L 520.29137 741.481755 
L 520.04198 741.74792 
L 519.5432 742.191529 
L 519.12755 742.635138 
L 518.12999 743.699799 
L 297.669221 960.092159 
" clip-path="url(#p1124df3eff)" style="fill: none; stroke: #7a7a7a; stroke-width: 3; stroke-linecap: square"/>
   </g>
   <g id="line2d_54">
    <path d="M 520.54076 710.961471 
L 520.29137 711.138915 
L 520.04198 711.40508 
L 519.62633 711.848689 
L 519.21068 712.292298 
L 517.8806 713.534402 
L 460.604028 768.719334 
L 370.075454 859.659132 
L 283.70338 943.678634 
" clip-path="url(#p1124df3eff)" style="fill: none; stroke: #7a7a7a; stroke-width: 3; stroke-linecap: square"/>
   </g>
   <g id="line2d_55">
    <path d="M 200.905897 1125.558231 
L 209.468287 1117.218386 
L 223.018478 1105.684558 
L 237.483098 1098.675539 
L 251.947719 1095.925165 
L 265.49791 1097.16727 
L 277.3855 1102.135688 
L 286.69606 1110.386811 
" clip-path="url(#p1124df3eff)" style="fill: none; stroke: #7a7a7a; stroke-width: 3; stroke-linecap: square"/>
   </g>
   <g id="line2d_56">
    <path d="M 215.786168 1143.036417 
L 224.348558 1134.696572 
L 233.077208 1128.663493 
L 240.309519 1133.188302 
L 248.705649 1144.72213 
" clip-path="url(#p1124df3eff)" style="fill: none; stroke: #7a7a7a; stroke-width: 3; stroke-linecap: square"/>
   </g>
   <g id="line2d_57">
    <path d="M 286.69606 1110.386811 
L 274.47595 1097.344713 
L 260.426979 1088.295094 
L 245.629839 1083.060511 
L 230.915828 1081.374797 
L 217.448768 1083.149232 
L 205.976827 1088.117651 
L 186.607536 1106.749219 
" clip-path="url(#p1124df3eff)" style="fill: none; stroke: #7a7a7a; stroke-width: 3; stroke-linecap: square"/>
   </g>
   <g id="line2d_58">
    <path d="M 322.691352 1072.502622 
L 313.796442 1061.589846 
L 302.573891 1053.072558 
L 289.356221 1046.950756 
L 274.72534 1043.313165 
L 258.930639 1042.07106 
L 242.554029 1043.490608 
L 225.928028 1047.394365 
L 209.634547 1054.048497 
L 194.006107 1063.275559 
L 179.541486 1075.341718 
L 168.402066 1085.988329 
" clip-path="url(#p1124df3eff)" style="fill: none; stroke: #7a7a7a; stroke-width: 3; stroke-linecap: square"/>
   </g>
   <g id="line2d_59">
    <path d="M 186.607536 1106.749219 
L 198.245737 1094.328174 
L 207.971947 1080.221414 
L 215.619908 1064.872551 
L 220.857098 1048.63647 
L 223.517258 1032.045502 
L 223.350998 1015.27709 
L 220.192058 998.863565 
L 213.791047 983.248537 
L 203.981707 968.698169 
L 190.514647 955.744793 
L 175.384986 938.798937 
" clip-path="url(#p1124df3eff)" style="fill: none; stroke: #7a7a7a; stroke-width: 3; stroke-linecap: square"/>
   </g>
   <g id="line2d_60">
    <path d="M 200.905897 1125.558231 
L 213.957307 1111.895081 
L 224.930468 1097.255991 
L 233.825378 1081.99585 
L 240.725169 1066.114655 
L 245.546709 1049.967296 
L 248.289999 1033.819937 
L 249.038169 1017.761299 
L 247.708089 1002.14627 
L 244.299759 987.152294 
L 238.896308 972.868091 
L 231.830258 960.447046 
L 226.509938 955.212462 
L 211.297147 938.089163 
L 210.465847 937.379389 
L 195.419317 920.256091 
" clip-path="url(#p1124df3eff)" style="fill: none; stroke: #7a7a7a; stroke-width: 3; stroke-linecap: square"/>
   </g>
   <g id="line2d_61">
    <path d="M 53.350141 800.659165 
L 175.384986 938.798937 
" clip-path="url(#p1124df3eff)" style="fill: none; stroke: #7a7a7a; stroke-width: 3; stroke-linecap: square"/>
   </g>
   <g id="line2d_62">
    <path d="M 30.07374 814.677203 
L 85.521452 876.782431 
L 136.563274 936.048563 
L 156.514475 958.67261 
" clip-path="url(#p1124df3eff)" style="fill: none; stroke: #7a7a7a; stroke-width: 3; stroke-linecap: square"/>
   </g>
   <g id="line2d_63">
    <path d="M 331.253742 997.976348 
L 517.79747 816.451638 
L 519.12755 815.120811 
L 519.5432 814.677203 
L 520.04198 814.233594 
L 520.29137 813.967428 
L 520.54076 813.701263 
" clip-path="url(#p1124df3eff)" style="fill: none; stroke: #7a7a7a; stroke-width: 3; stroke-linecap: square"/>
   </g>
   <g id="line2d_64">
    <path d="M 346.799053 1015.898142 
L 517.71434 849.899739 
L 519.12755 848.568913 
L 519.5432 848.125304 
L 519.95885 847.681695 
L 520.29137 847.41553 
L 520.54076 847.149365 
" clip-path="url(#p1124df3eff)" style="fill: none; stroke: #7a7a7a; stroke-width: 3; stroke-linecap: square"/>
   </g>
   <g id="line2d_65">
    <path d="M 286.69606 1110.386811 
L 271.23388 1089.714642 
L 260.094459 1072.857509 
L 252.280239 1059.016915 
L 246.959919 1047.394365 
L 242.969679 1037.191363 
L 239.561349 1027.609414 
L 235.654238 1017.761299 
L 230.333918 1007.025967 
L 222.602828 994.604921 
L 211.463407 979.610945 
L 196.084357 961.245541 
L 175.384986 938.798937 
" clip-path="url(#p1124df3eff)" style="fill: none; stroke: #7a7a7a; stroke-width: 3; stroke-linecap: square"/>
   </g>
   <g id="line2d_66">
    <path d="M 322.691352 1072.502622 
L 195.419317 920.256091 
" clip-path="url(#p1124df3eff)" style="fill: none; stroke: #7a7a7a; stroke-width: 3; stroke-linecap: square"/>
   </g>
   <g id="line2d_67">
    <path d="M 200.905897 1125.558231 
L 331.253742 997.976348 
" clip-path="url(#p1124df3eff)" style="fill: none; stroke: #7a7a7a; stroke-width: 3; stroke-linecap: square"/>
   </g>
   <g id="line2d_68">
    <path d="M 215.786168 1143.036417 
L 346.799053 1015.898142 
" clip-path="url(#p1124df3eff)" style="fill: none; stroke: #7a7a7a; stroke-width: 3; stroke-linecap: square"/>
   </g>
   <g id="line2d_69">
    <path d="M 1141.106235 165.500123 
L 1308.688798 -1 
" clip-path="url(#p1124df3eff)" style="fill: none; stroke: #7a7a7a; stroke-width: 3; stroke-linecap: square"/>
   </g>
   <g id="line2d_70">
    <path d="M 1158.147886 186.08357 
L 1346.183997 -1 
" clip-path="url(#p1124df3eff)" style="fill: none; stroke: #7a7a7a; stroke-width: 3; stroke-linecap: square"/>
   </g>
   <g id="line2d_71">
    <path d="M 1308.688798 -1 
L 1141.106235 165.500123 
" clip-path="url(#p1124df3eff)" style="fill: none; stroke: #7a7a7a; stroke-width: 3; stroke-linecap: square"/>
   </g>
   <g id="line2d_72">
    <path d="M 1272.278227 -1 
L 1121.570684 146.336224 
" clip-path="url(#p1124df3eff)" style="fill: none; stroke: #7a7a7a; stroke-width: 3; stroke-linecap: square"/>
   </g>
   <g id="line2d_73">
    <path d="M 1019.32078 323.158681 
L 1019.6533 322.892516 
L 1158.147886 186.08357 
" clip-path="url(#p1124df3eff)" style="fill: none; stroke: #7a7a7a; stroke-width: 3; stroke-linecap: square"/>
   </g>
   <g id="line2d_74">
    <path d="M 1019.32078 355.4534 
L 1019.57017 355.098513 
L 1116.167234 259.36774 
L 1173.526937 203.739199 
" clip-path="url(#p1124df3eff)" style="fill: none; stroke: #7a7a7a; stroke-width: 3; stroke-linecap: square"/>
   </g>
   <g id="line2d_75">
    <path d="M 1186.353077 -1 
L 1339.703813 159.2896 
" clip-path="url(#p1124df3eff)" style="fill: none; stroke: #7a7a7a; stroke-width: 3; stroke-linecap: square"/>
   </g>
   <g id="line2d_76">
    <path d="M 1142.020665 27.449073 
L 1298.803852 199.74672 
" clip-path="url(#p1124df3eff)" style="fill: none; stroke: #7a7a7a; stroke-width: 3; stroke-linecap: square"/>
   </g>
   <g id="line2d_77">
    <path d="M 1339.703813 159.2896 
L 1186.353077 -1 
" clip-path="url(#p1124df3eff)" style="fill: none; stroke: #7a7a7a; stroke-width: 3; stroke-linecap: square"/>
   </g>
   <g id="line2d_78">
    <path d="M 1390.080595 108.984365 
L 1289.720531 -1 
" clip-path="url(#p1124df3eff)" style="fill: none; stroke: #7a7a7a; stroke-width: 3; stroke-linecap: square"/>
   </g>
   <g id="line2d_79">
    <path d="M 1158.147886 186.08357 
L 1346.183997 -1 
" clip-path="url(#p1124df3eff)" style="fill: none; stroke: #7a7a7a; stroke-width: 3; stroke-linecap: square"/>
   </g>
   <g id="line2d_80">
    <path d="M 1173.526937 203.739199 
L 1380.405294 -1 
" clip-path="url(#p1124df3eff)" style="fill: none; stroke: #7a7a7a; stroke-width: 3; stroke-linecap: square"/>
   </g>
   <g id="line2d_81">
    <path d="M 1339.703813 159.2896 
L 1365.224724 186.08357 
L 1427.489097 257.85947 
L 1441 274.717302 
" clip-path="url(#p1124df3eff)" style="fill: none; stroke: #7a7a7a; stroke-width: 3; stroke-linecap: square"/>
   </g>
   <g id="line2d_82">
    <path d="M 1298.803852 199.74672 
L 1395.068396 302.131625 
L 1407.537896 316.948158 
" clip-path="url(#p1124df3eff)" style="fill: none; stroke: #7a7a7a; stroke-width: 3; stroke-linecap: square"/>
   </g>
   <g id="line2d_83">
    <path d="M 1121.570684 146.336224 
L 1019.6533 248.100077 
L 1019.32078 248.366242 
" clip-path="url(#p1124df3eff)" style="fill: none; stroke: #7a7a7a; stroke-width: 3; stroke-linecap: square"/>
   </g>
   <g id="line2d_84">
    <path d="M 1105.609724 132.673074 
L 1063.629072 175.880568 
L 1019.6533 218.023402 
L 1019.32078 218.289567 
" clip-path="url(#p1124df3eff)" style="fill: none; stroke: #7a7a7a; stroke-width: 3; stroke-linecap: square"/>
   </g>
   <g id="line2d_85">
    <path d="M 1141.106235 165.500123 
L 1019.6533 285.718101 
L 1019.32078 285.984266 
" clip-path="url(#p1124df3eff)" style="fill: none; stroke: #7a7a7a; stroke-width: 3; stroke-linecap: square"/>
   </g>
   <g id="line2d_86">
    <path d="M 1121.570684 146.336224 
L 1019.6533 248.100077 
L 1019.32078 248.366242 
" clip-path="url(#p1124df3eff)" style="fill: none; stroke: #7a7a7a; stroke-width: 3; stroke-linecap: square"/>
   </g>
   <g id="line2d_87">
    <path d="M 1019.32078 285.984266 
L 1019.6533 285.718101 
L 1141.106235 165.500123 
" clip-path="url(#p1124df3eff)" style="fill: none; stroke: #7a7a7a; stroke-width: 3; stroke-linecap: square"/>
   </g>
   <g id="line2d_88">
    <path d="M 1019.32078 323.158681 
L 1019.6533 322.892516 
L 1158.147886 186.08357 
" clip-path="url(#p1124df3eff)" style="fill: none; stroke: #7a7a7a; stroke-width: 3; stroke-linecap: square"/>
   </g>
   <g id="line2d_89">
    <path clip-path="url(#p1124df3eff)" style="fill: none; stroke: #7a7a7a; stroke-width: 3; stroke-linecap: square"/>
   </g>
   <g id="line2d_90">
    <path clip-path="url(#p1124df3eff)" style="fill: none; stroke: #7a7a7a; stroke-width: 3; stroke-linecap: square"/>
   </g>
   <g id="line2d_91">
    <path d="M 1272.278227 -1 
L 1121.570684 146.336224 
" clip-path="url(#p1124df3eff)" style="fill: none; stroke: #7a7a7a; stroke-width: 3; stroke-linecap: square"/>
   </g>
   <g id="line2d_92">
    <path d="M 1241.498118 -1 
L 1152.744436 86.271596 
L 1149.169846 90.352797 
L 1105.609724 132.673074 
" clip-path="url(#p1124df3eff)" style="fill: none; stroke: #7a7a7a; stroke-width: 3; stroke-linecap: square"/>
   </g>
   <g id="line2d_93">
    <path d="M 1441 274.717302 
L 1427.489097 257.85947 
L 1365.224724 186.08357 
L 1339.703813 159.2896 
" clip-path="url(#p1124df3eff)" style="fill: none; stroke: #7a7a7a; stroke-width: 3; stroke-linecap: square"/>
   </g>
   <g id="line2d_94">
    <path d="M 1441 188.695484 
L 1421.088087 161.418922 
L 1412.858216 149.17532 
L 1403.797046 134.181344 
L 1394.486486 117.412932 
L 1390.080595 108.984365 
" clip-path="url(#p1124df3eff)" style="fill: none; stroke: #7a7a7a; stroke-width: 3; stroke-linecap: square"/>
   </g>
   <g id="line2d_95">
    <path clip-path="url(#p1124df3eff)" style="fill: none; stroke: #7a7a7a; stroke-width: 3; stroke-linecap: square"/>
   </g>
   <g id="line2d_96">
    <path d="M 1117.633859 -1 
L 1142.020665 27.449073 
" clip-path="url(#p1124df3eff)" style="fill: none; stroke: #7a7a7a; stroke-width: 3; stroke-linecap: square"/>
   </g>
   <g id="line2d_97">
    <path d="M 1339.703813 159.2896 
L 1330.892033 148.021937 
L 1323.909113 135.068561 
L 1318.838182 120.784359 
L 1315.596112 105.435495 
L 1314.432292 89.288136 
L 1315.346722 72.519724 
L 1318.422532 55.573869 
L 1323.742853 38.628014 
L 1331.390813 21.859602 
L 1341.449543 5.712243 
L 1346.93896 -1 
" clip-path="url(#p1124df3eff)" style="fill: none; stroke: #7a7a7a; stroke-width: 3; stroke-linecap: square"/>
   </g>
   <g id="line2d_98">
    <path d="M 1390.080595 108.984365 
L 1378.608655 96.829485 
L 1370.877565 82.456561 
L 1366.471674 66.664088 
L 1365.224724 50.161842 
L 1366.721064 33.925761 
L 1370.711305 18.754341 
L 1376.862925 5.357356 
L 1381.578629 -1 
" clip-path="url(#p1124df3eff)" style="fill: none; stroke: #7a7a7a; stroke-width: 3; stroke-linecap: square"/>
   </g>
   <g id="line2d_99">
    <path d="M 1268.557155 -1 
L 1261.06283 3.937808 
L 1245.600649 10.503217 
L 1230.969769 13.253592 
L 1217.087058 12.455096 
L 1203.952518 8.373895 
L 1191.483017 1.364877 
L 1188.578233 -1 
" clip-path="url(#p1124df3eff)" style="fill: none; stroke: #7a7a7a; stroke-width: 3; stroke-linecap: square"/>
   </g>
   <g id="line2d_100">
    <path clip-path="url(#p1124df3eff)" style="fill: none; stroke: #7a7a7a; stroke-width: 3; stroke-linecap: square"/>
   </g>
   <g id="line2d_101">
    <path d="M 1141.106235 165.500123 
L 1193.145617 114.218949 
L 1201.791138 105.16933 
L 1208.774058 94.167832 
L 1213.844988 81.3919 
L 1216.505148 67.285141 
L 1216.422018 52.379886 
L 1213.013688 36.9423 
L 1206.030768 21.415993 
L 1195.057607 6.244573 
L 1187.294344 -1 
" clip-path="url(#p1124df3eff)" style="fill: none; stroke: #7a7a7a; stroke-width: 3; stroke-linecap: square"/>
   </g>
   <g id="line2d_102">
    <path d="M 1158.147886 186.08357 
L 1210.104138 134.713674 
L 1223.488069 121.316689 
L 1234.876879 106.588878 
L 1244.436829 90.973849 
L 1252.08479 74.471603 
L 1257.82076 57.614469 
L 1261.64474 40.579892 
L 1263.55673 23.722759 
L 1263.63986 7.131791 
L 1262.740956 -1 
" clip-path="url(#p1124df3eff)" style="fill: none; stroke: #7a7a7a; stroke-width: 3; stroke-linecap: square"/>
   </g>
   <g id="line2d_103">
    <path d="M 1311.821186 -1 
L 1305.620512 11.745322 
L 1300.715842 27.005464 
L 1297.806292 43.418989 
L 1297.058122 60.631009 
L 1298.388202 78.109195 
L 1301.962792 95.764824 
L 1307.781892 112.976844 
L 1315.928632 129.567812 
L 1326.569273 145.182841 
L 1339.703813 159.2896 
" clip-path="url(#p1124df3eff)" style="fill: none; stroke: #7a7a7a; stroke-width: 3; stroke-linecap: square"/>
   </g>
   <g id="line2d_104">
    <path d="M 1281.632325 -1 
L 1274.197371 14.052088 
L 1267.6301 31.175386 
L 1262.72543 49.008459 
L 1259.3171 67.107697 
L 1257.40511 85.295657 
L 1257.15572 103.217451 
L 1258.40267 120.695637 
L 1261.22909 137.375327 
L 1265.63498 152.990356 
L 1271.620341 167.36328 
L 1279.102041 180.139213 
L 1288.163211 190.963267 
L 1298.803852 199.74672 
" clip-path="url(#p1124df3eff)" style="fill: none; stroke: #7a7a7a; stroke-width: 3; stroke-linecap: square"/>
   </g>
   <g id="line2d_105">
    <path d="M 1339.703813 159.2896 
L 1327.068053 142.343745 
L 1314.016642 127.970821 
L 1300.466452 116.259549 
L 1286.750001 107.032487 
L 1272.784161 100.378355 
L 1258.81832 96.297154 
L 1244.935609 94.788885 
L 1231.302289 95.942267 
L 1217.918358 99.579859 
L 1204.950078 105.790382 
L 1192.563707 114.662558 
L 1180.842377 126.107664 
L 1141.106235 165.500123 
" clip-path="url(#p1124df3eff)" style="fill: none; stroke: #7a7a7a; stroke-width: 3; stroke-linecap: square"/>
   </g>
   <g id="line2d_106">
    <path d="M 1390.080595 108.984365 
L 1378.774915 96.030989 
L 1366.554804 84.674604 
L 1353.503394 74.82649 
L 1339.870073 66.664088 
L 1325.571713 60.1874 
L 1310.857702 55.307704 
L 1295.811171 52.202442 
L 1280.432121 50.871616 
L 1264.96994 51.315225 
L 1249.42463 53.533269 
L 1233.962449 57.614469 
L 1218.666528 63.558827 
L 1203.619998 71.455063 
L 1188.989117 81.303178 
L 1174.857017 93.103171 
L 1161.306826 106.855043 
L 1121.570684 146.336224 
" clip-path="url(#p1124df3eff)" style="fill: none; stroke: #7a7a7a; stroke-width: 3; stroke-linecap: square"/>
   </g>
   <g id="line2d_107">
    <path d="M 1186.631441 -1 
L 1192.314317 4.736303 
L 1206.695808 14.761862 
L 1221.991728 21.859602 
L 1237.703299 26.118246 
L 1253.24861 27.537794 
L 1267.96262 26.206968 
L 1281.180291 22.214489 
L 1292.485971 15.471636 
L 1301.131492 6.06713 
L 1308.290107 -1 
" clip-path="url(#p1124df3eff)" style="fill: none; stroke: #7a7a7a; stroke-width: 3; stroke-linecap: square"/>
   </g>
   <g id="line2d_108">
    <path d="M 1142.020665 27.449073 
L 1178.015957 48.298685 
L 1196.637077 55.751312 
L 1216.172628 59.300183 
L 1231.634809 61.163339 
L 1247.84516 62.671609 
L 1264.47116 58.590409 
L 1279.351431 51.58139 
L 1294.231701 44.661093 
L 1307.532502 35.966361 
L 1318.921312 25.585916 
L 1345.851388 -1 
" clip-path="url(#p1124df3eff)" style="fill: none; stroke: #7a7a7a; stroke-width: 3; stroke-linecap: square"/>
   </g>
   <g id="line2d_109">
    <path d="M 1158.147886 186.08357 
L 1176.852137 167.629445 
L 1190.485457 154.676069 
L 1205.781378 144.561789 
L 1222.241119 136.931718 
L 1239.365899 131.9633 
L 1256.65694 129.390369 
L 1273.781721 129.124204 
L 1290.158331 131.076082 
L 1305.371122 135.157283 
L 1319.004442 141.367806 
L 1330.559513 149.441485 
L 1339.703813 159.2896 
" clip-path="url(#p1124df3eff)" style="fill: none; stroke: #7a7a7a; stroke-width: 3; stroke-linecap: square"/>
   </g>
   <g id="line2d_110">
    <path d="M 1173.526937 203.739199 
L 1192.231187 185.285074 
L 1202.040528 179.163273 
L 1214.593158 174.46102 
L 1228.974649 171.533202 
L 1244.436829 170.823428 
L 1259.98214 172.95275 
L 1274.779281 178.098612 
L 1287.996951 186.882066 
L 1298.803852 199.74672 
" clip-path="url(#p1124df3eff)" style="fill: none; stroke: #7a7a7a; stroke-width: 3; stroke-linecap: square"/>
   </g>
   <g id="line2d_111">
    <path d="M 1185.239013 -1 
L 1197.884028 14.406975 
L 1202.289918 25.940803 
L 1200.461058 55.396425 
L 1194.060047 73.761829 
L 1177.683437 89.820466 
L 1121.570684 146.336224 
" clip-path="url(#p1124df3eff)" style="fill: none; stroke: #7a7a7a; stroke-width: 3; stroke-linecap: square"/>
   </g>
   <g id="line2d_112">
    <path d="M 1142.020665 27.449073 
L 1155.653986 42.620493 
L 1158.064756 49.274624 
L 1159.145446 51.58139 
L 1161.140566 56.727252 
L 1161.389956 58.501687 
L 1162.221256 60.897174 
L 1161.223696 74.649046 
L 1154.739556 84.852048 
L 1150.167406 89.288136 
L 1149.169846 90.352797 
L 1105.609724 132.673074 
" clip-path="url(#p1124df3eff)" style="fill: none; stroke: #7a7a7a; stroke-width: 3; stroke-linecap: square"/>
   </g>
   <g id="line2d_113">
    <path d="M 875.312662 468.416641 
L 1302.583831 44.360877 
" clip-path="url(#p1124df3eff)" style="fill: none; stroke-dasharray: 32,8,5,8; stroke-dashoffset: 0; stroke: #1e90ff; stroke-width: 5"/>
   </g>
   <g id="line2d_114">
    <path d="M 531.946781 826.810509 
L 958.278273 420.61498 
" clip-path="url(#p1124df3eff)" style="fill: none; stroke-dasharray: 32,8,5,8; stroke-dashoffset: 0; stroke: #1e90ff; stroke-width: 5"/>
   </g>
   <g id="line2d_115">
    <path d="M 976.400045 369.157012 
L 1315.304995 44.360877 
" clip-path="url(#p1124df3eff)" style="fill: none; stroke-dasharray: 32,8,5,8; stroke-dashoffset: 0; stroke: #1e90ff; stroke-width: 5"/>
   </g>
   <g id="line2d_116">
    <path d="M 166.260007 1173.834736 
L 589.626339 734.488765 
" clip-path="url(#p1124df3eff)" style="fill: none; stroke-dasharray: 32,8,5,8; stroke-dashoffset: 0; stroke: #1e90ff; stroke-width: 5"/>
   </g>
   <g id="line2d_117">
    <path d="M 875.312662 468.416641 
" clip-path="url(#p1124df3eff)" style="fill: none; stroke: #0000ff; stroke-width: 1.5; stroke-linecap: square"/>
    <defs>
     <path id="m07676d7a86" d="M 0 10 
C 2.652031 10 5.195799 8.946337 7.071068 7.071068 
C 8.946337 5.195799 10 2.652031 10 0 
C 10 -2.652031 8.946337 -5.195799 7.071068 -7.071068 
C 5.195799 -8.946337 2.652031 -10 0 -10 
C -2.652031 -10 -5.195799 -8.946337 -7.071068 -7.071068 
C -8.946337 -5.195799 -10 -2.652031 -10 0 
C -10 2.652031 -8.946337 5.195799 -7.071068 7.071068 
C -5.195799 8.946337 -2.652031 10 0 10 
z
" style="stroke: #0000ff"/>
    </defs>
    <g clip-path="url(#p1124df3eff)">
     <use xlink:href="#m07676d7a86" x="875.312662" y="468.416641" style="fill: #0000ff; stroke: #0000ff"/>
    </g>
   </g>
   <g id="line2d_118">
    <path d="M 531.946781 826.810509 
" clip-path="url(#p1124df3eff)" style="fill: none; stroke: #0000ff; stroke-width: 1.5; stroke-linecap: square"/>
    <g clip-path="url(#p1124df3eff)">
     <use xlink:href="#m07676d7a86" x="531.946781" y="826.810509" style="fill: #0000ff; stroke: #0000ff"/>
    </g>
   </g>
   <g id="line2d_119">
    <path d="M 976.400045 369.157012 
" clip-path="url(#p1124df3eff)" style="fill: none; stroke: #0000ff; stroke-width: 1.5; stroke-linecap: square"/>
    <g clip-path="url(#p1124df3eff)">
     <use xlink:href="#m07676d7a86" x="976.400045" y="369.157012" style="fill: #0000ff; stroke: #0000ff"/>
    </g>
   </g>
   <g id="line2d_120">
    <path d="M 166.260007 1173.834736 
" clip-path="url(#p1124df3eff)" style="fill: none; stroke: #0000ff; stroke-width: 1.5; stroke-linecap: square"/>
    <g clip-path="url(#p1124df3eff)">
     <use xlink:href="#m07676d7a86" x="166.260007" y="1173.834736" style="fill: #0000ff; stroke: #0000ff"/>
    </g>
   </g>
   <g id="line2d_121">
    <path d="M 1302.583831 44.360877 
" clip-path="url(#p1124df3eff)" style="fill: none; stroke: #ff0000; stroke-width: 1.5; stroke-linecap: square"/>
    <defs>
     <path id="mf8ab32368f" d="M 0 -10 
L -2.24514 -3.09017 
L -9.510565 -3.09017 
L -3.632713 1.18034 
L -5.877853 8.09017 
L -0 3.81966 
L 5.877853 8.09017 
L 3.632713 1.18034 
L 9.510565 -3.09017 
L 2.24514 -3.09017 
z
" style="stroke: #ff0000; stroke-linejoin: bevel"/>
    </defs>
    <g clip-path="url(#p1124df3eff)">
     <use xlink:href="#mf8ab32368f" x="1302.583831" y="44.360877" style="fill: #ff0000; stroke: #ff0000; stroke-linejoin: bevel"/>
    </g>
   </g>
   <g id="line2d_122">
    <path d="M 958.278273 420.61498 
" clip-path="url(#p1124df3eff)" style="fill: none; stroke: #ff0000; stroke-width: 1.5; stroke-linecap: square"/>
    <g clip-path="url(#p1124df3eff)">
     <use xlink:href="#mf8ab32368f" x="958.278273" y="420.61498" style="fill: #ff0000; stroke: #ff0000; stroke-linejoin: bevel"/>
    </g>
   </g>
   <g id="line2d_123">
    <path d="M 1315.304995 44.360877 
" clip-path="url(#p1124df3eff)" style="fill: none; stroke: #ff0000; stroke-width: 1.5; stroke-linecap: square"/>
    <g clip-path="url(#p1124df3eff)">
     <use xlink:href="#mf8ab32368f" x="1315.304995" y="44.360877" style="fill: #ff0000; stroke: #ff0000; stroke-linejoin: bevel"/>
    </g>
   </g>
   <g id="line2d_124">
    <path d="M 589.626339 734.488765 
" clip-path="url(#p1124df3eff)" style="fill: none; stroke: #ff0000; stroke-width: 1.5; stroke-linecap: square"/>
    <g clip-path="url(#p1124df3eff)">
     <use xlink:href="#mf8ab32368f" x="589.626339" y="734.488765" style="fill: #ff0000; stroke: #ff0000; stroke-linejoin: bevel"/>
    </g>
   </g>
  </g>
 </g>
 <defs>
  <clipPath id="p1124df3eff">
   <rect x="0" y="0" width="1440" height="1440"/>
  </clipPath>
 </defs>
</svg>
