<?xml version="1.0" encoding="utf-8" standalone="no"?>
<!DOCTYPE svg PUBLIC "-//W3C//DTD SVG 1.1//EN"
  "http://www.w3.org/Graphics/SVG/1.1/DTD/svg11.dtd">
<svg xmlns:xlink="http://www.w3.org/1999/xlink" width="1440pt" height="1440pt" viewBox="0 0 1440 1440" xmlns="http://www.w3.org/2000/svg" version="1.1">
 <metadata>
  <rdf:RDF xmlns:dc="http://purl.org/dc/elements/1.1/" xmlns:cc="http://creativecommons.org/ns#" xmlns:rdf="http://www.w3.org/1999/02/22-rdf-syntax-ns#">
   <cc:Work>
    <dc:type rdf:resource="http://purl.org/dc/dcmitype/StillImage"/>
    <dc:date>2026-02-27T11:07:40.647657</dc:date>
    <dc:format>image/svg+xml</dc:format>
    <dc:creator>
     <cc:Agent>
      <dc:title>Matplotlib v3.7.3, https://matplotlib.org/</dc:title>
     </cc:Agent>
    </dc:creator>
   </cc:Work>
  </rdf:RDF>
 </metadata>
 <defs>
  <style type="text/css">*{stroke-linejoin: round; stroke-linecap: butt}</style>
 </defs>
 <g id="figure_1">
  <g id="patch_1">
   <path d="M 0 1440 
L 1440 1440 
L 1440 0 
L 0 0 
z
" style="fill: #ffffff"/>
  </g>
  <g id="axes_1">
   <g id="line2d_1">
    <path d="M 1338.213977 -1 
L 1307.856882 29.798587 
" clip-path="url(#p5712c22e77)" style="fill: none; stroke: #7a7a7a; stroke-width: 3; stroke-linecap: square"/>
   </g>
   <g id="line2d_2">
    <path clip-path="url(#p5712c22e77)" style="fill: none; stroke: #7a7a7a; stroke-width: 3; stroke-linecap: square"/>
   </g>
   <g id="line2d_3">
    <path d="M 1307.856882 29.798587 
L 1338.213977 -1 
" clip-path="url(#p5712c22e77)" style="fill: none; stroke: #7a7a7a; stroke-width: 3; stroke-linecap: square"/>
   </g>
   <g id="line2d_4">
    <path d="M 1307.856882 76.298397 
L 1338.92187 45.08109 
L 1383.99766 -1 
" clip-path="url(#p5712c22e77)" style="fill: none; stroke: #7a7a7a; stroke-width: 3; stroke-linecap: square"/>
   </g>
   <g id="line2d_5">
    <path d="M 537.650562 809.392599 
L 537.222669 809.858529 
L 536.538041 810.417645 
L 536.281306 810.790389 
L 536.110149 810.976761 
L 535.5111 811.535877 
L 24.179681 1326.9476 
" clip-path="url(#p5712c22e77)" style="fill: none; stroke: #7a7a7a; stroke-width: 3; stroke-linecap: square"/>
   </g>
   <g id="line2d_6">
    <path d="M 537.650562 759.910837 
L 537.137091 760.376767 
L 536.538041 760.935883 
L 536.02457 761.401813 
L 535.5111 761.960929 
L 329.43812 969.858878 
L 291.270118 1008.437879 
L 227.770885 1071.990725 
L 213.479279 1086.807298 
L 132.522037 1167.506368 
L 24.179681 1277.838582 
" clip-path="url(#p5712c22e77)" style="fill: none; stroke: #7a7a7a; stroke-width: 3; stroke-linecap: square"/>
   </g>
   <g id="line2d_7">
    <path d="M 24.179681 1326.9476 
L 535.5111 811.535877 
L 536.110149 810.976761 
L 536.281306 810.790389 
L 536.538041 810.417645 
L 537.222669 809.858529 
L 537.650562 809.392599 
" clip-path="url(#p5712c22e77)" style="fill: none; stroke: #7a7a7a; stroke-width: 3; stroke-linecap: square"/>
   </g>
   <g id="line2d_8">
    <path d="M 24.179681 1370.279087 
L 148.011742 1245.689415 
L 154.173393 1238.327722 
L 209.628248 1184.838962 
L 361.102157 1031.734377 
L 514.62995 877.138815 
L 535.5111 856.358339 
L 536.110149 855.799223 
L 536.281306 855.612851 
L 536.62362 855.240107 
L 537.222669 854.587805 
L 537.650562 854.121875 
" clip-path="url(#p5712c22e77)" style="fill: none; stroke: #7a7a7a; stroke-width: 3; stroke-linecap: square"/>
   </g>
   <g id="line2d_9">
    <path d="M 1307.856882 29.798587 
L 1307.086675 30.637261 
L 1306.487626 31.196377 
L 1306.316469 31.475935 
L 918.560376 427.702774 
L 918.132484 428.168704 
" clip-path="url(#p5712c22e77)" style="fill: none; stroke: #7a7a7a; stroke-width: 3; stroke-linecap: square"/>
   </g>
   <g id="line2d_10">
    <path d="M 1286.816223 -1 
L 1281.156396 7.154391 
L 1250.947192 41.446836 
L 1107.774395 184.487334 
L 867.12771 427.79596 
L 866.699817 428.168704 
" clip-path="url(#p5712c22e77)" style="fill: none; stroke: #7a7a7a; stroke-width: 3; stroke-linecap: square"/>
   </g>
   <g id="line2d_11">
    <path d="M 918.132484 428.168704 
L 918.560376 427.702774 
L 1306.316469 31.475935 
L 1306.487626 31.196377 
L 1307.086675 30.637261 
L 1307.856882 29.798587 
" clip-path="url(#p5712c22e77)" style="fill: none; stroke: #7a7a7a; stroke-width: 3; stroke-linecap: square"/>
   </g>
   <g id="line2d_12">
    <path d="M 960.57941 428.168704 
L 961.007302 427.702774 
L 1047.184832 339.828384 
L 1078.164241 305.815496 
L 1151.504999 231.173517 
L 1165.197555 218.77978 
L 1204.392499 179.828035 
L 1206.61754 176.939269 
L 1211.153199 173.118643 
L 1306.316469 78.628047 
L 1306.487626 78.441675 
L 1307.086675 77.137071 
L 1307.856882 76.298397 
" clip-path="url(#p5712c22e77)" style="fill: none; stroke: #7a7a7a; stroke-width: 3; stroke-linecap: square"/>
   </g>
   <g id="line2d_13">
    <path d="M 941.580987 936.964222 
L 759.641139 724.127416 
" clip-path="url(#p5712c22e77)" style="fill: none; stroke: #7a7a7a; stroke-width: 3; stroke-linecap: square"/>
   </g>
   <g id="line2d_14">
    <path d="M 969.308415 910.126657 
L 935.761651 870.52261 
L 788.737822 694.02834 
" clip-path="url(#p5712c22e77)" style="fill: none; stroke: #7a7a7a; stroke-width: 3; stroke-linecap: square"/>
   </g>
   <g id="line2d_15">
    <path d="M 759.641139 724.127416 
L 941.580987 936.964222 
" clip-path="url(#p5712c22e77)" style="fill: none; stroke: #7a7a7a; stroke-width: 3; stroke-linecap: square"/>
   </g>
   <g id="line2d_16">
    <path d="M 733.539702 752.362772 
L 753.39391 775.19334 
L 875.599979 921.122604 
L 911.970833 964.547276 
" clip-path="url(#p5712c22e77)" style="fill: none; stroke: #7a7a7a; stroke-width: 3; stroke-linecap: square"/>
   </g>
   <g id="line2d_17">
    <path d="M 640.601473 584.721171 
L 441.717085 349.799285 
" clip-path="url(#p5712c22e77)" style="fill: none; stroke: #7a7a7a; stroke-width: 3; stroke-linecap: square"/>
   </g>
   <g id="line2d_18">
    <path d="M 668.500057 556.85856 
L 554.595101 422.018429 
L 551.25754 418.104617 
L 469.872405 319.979767 
" clip-path="url(#p5712c22e77)" style="fill: none; stroke: #7a7a7a; stroke-width: 3; stroke-linecap: square"/>
   </g>
   <g id="line2d_19">
    <path d="M 782.747328 563.381579 
L 916.0786 430.218796 
L 916.420914 429.846052 
L 916.934385 429.380122 
L 918.132484 428.168704 
" clip-path="url(#p5712c22e77)" style="fill: none; stroke: #7a7a7a; stroke-width: 3; stroke-linecap: square"/>
   </g>
   <g id="line2d_20">
    <path d="M 802.259222 588.728169 
L 869.35275 519.770535 
L 930.883677 457.522292 
L 952.021562 436.741816 
L 958.525526 430.218796 
L 958.86784 429.846052 
L 959.381311 429.380122 
L 960.57941 428.168704 
" clip-path="url(#p5712c22e77)" style="fill: none; stroke: #7a7a7a; stroke-width: 3; stroke-linecap: square"/>
   </g>
   <g id="line2d_21">
    <path d="M 918.132484 428.168704 
L 916.934385 429.380122 
L 916.420914 429.846052 
L 916.0786 430.218796 
L 782.747328 563.381579 
" clip-path="url(#p5712c22e77)" style="fill: none; stroke: #7a7a7a; stroke-width: 3; stroke-linecap: square"/>
   </g>
   <g id="line2d_22">
    <path d="M 866.699817 428.168704 
L 865.587297 429.380122 
L 865.073826 429.846052 
L 864.731512 430.218796 
L 761.352708 535.332596 
" clip-path="url(#p5712c22e77)" style="fill: none; stroke: #7a7a7a; stroke-width: 3; stroke-linecap: square"/>
   </g>
   <g id="line2d_23">
    <path d="M 628.278172 717.883955 
L 639.488953 706.515263 
L 649.75837 692.910109 
L 657.460434 677.720792 
L 662.423985 661.506429 
L 664.477869 644.826137 
L 663.536506 628.332216 
L 659.34316 612.397411 
L 651.812254 597.674024 
L 640.601473 584.721171 
" clip-path="url(#p5712c22e77)" style="fill: none; stroke: #7a7a7a; stroke-width: 3; stroke-linecap: square"/>
   </g>
   <g id="line2d_24">
    <path d="M 647.53333 743.137358 
L 658.744111 731.768667 
L 680.053152 710.242703 
L 688.268686 695.42613 
L 693.831288 677.254862 
L 697.340005 657.592617 
L 698.538104 637.278071 
L 697.425584 617.243083 
L 693.916866 598.23314 
L 688.867736 585.746217 
L 683.390713 574.936642 
L 676.80117 565.897601 
L 669.270264 557.79042 
L 668.500057 556.85856 
" clip-path="url(#p5712c22e77)" style="fill: none; stroke: #7a7a7a; stroke-width: 3; stroke-linecap: square"/>
   </g>
   <g id="line2d_25">
    <path d="M 782.747328 563.381579 
L 729.945406 616.311223 
L 723.954913 623.206986 
L 718.820204 630.661866 
L 715.568221 636.905327 
L 713.856652 642.496487 
L 711.888347 653.958364 
L 713.343181 664.581567 
L 716.252849 672.222818 
L 719.847145 677.720792 
L 759.641139 724.127416 
" clip-path="url(#p5712c22e77)" style="fill: none; stroke: #7a7a7a; stroke-width: 3; stroke-linecap: square"/>
   </g>
   <g id="line2d_26">
    <path d="M 761.352708 535.332596 
L 751.939075 544.930753 
L 734.737801 561.890603 
L 701.362194 595.344375 
L 691.862983 608.576785 
L 685.359018 622.18194 
L 681.679143 636.998513 
L 680.566623 649.671808 
L 681.422408 665.140683 
L 685.615753 680.702744 
L 692.804346 697.103478 
L 702.988185 714.529259 
L 717.793262 734.191503 
L 724.981854 742.485056 
L 733.539702 752.362772 
" clip-path="url(#p5712c22e77)" style="fill: none; stroke: #7a7a7a; stroke-width: 3; stroke-linecap: square"/>
   </g>
   <g id="line2d_27">
    <path d="M 640.601473 584.721171 
L 651.812254 597.674024 
L 659.34316 612.397411 
L 663.536506 628.332216 
L 664.477869 644.826137 
L 662.423985 661.506429 
L 657.460434 677.720792 
L 649.75837 692.910109 
L 639.488953 706.515263 
L 628.278172 717.883955 
" clip-path="url(#p5712c22e77)" style="fill: none; stroke: #7a7a7a; stroke-width: 3; stroke-linecap: square"/>
   </g>
   <g id="line2d_28">
    <path d="M 613.72983 611.465551 
L 617.752019 616.311223 
L 621.774207 621.995568 
L 624.855033 627.866286 
L 626.908916 634.948421 
L 628.192593 642.962417 
L 627.507966 652.467388 
L 626.395445 661.040499 
L 623.913669 667.656705 
L 619.463588 676.043444 
L 617.152969 679.584512 
L 606.96913 689.928157 
" clip-path="url(#p5712c22e77)" style="fill: none; stroke: #7a7a7a; stroke-width: 3; stroke-linecap: square"/>
   </g>
   <g id="line2d_29">
    <path d="M 628.278172 717.883955 
L 782.747328 563.381579 
" clip-path="url(#p5712c22e77)" style="fill: none; stroke: #7a7a7a; stroke-width: 3; stroke-linecap: square"/>
   </g>
   <g id="line2d_30">
    <path d="M 647.53333 743.137358 
L 750.56982 637.557629 
L 769.739399 619.293175 
L 802.259222 588.728169 
" clip-path="url(#p5712c22e77)" style="fill: none; stroke: #7a7a7a; stroke-width: 3; stroke-linecap: square"/>
   </g>
   <g id="line2d_31">
    <path d="M 759.641139 724.127416 
L 719.847145 677.720792 
L 716.252849 672.222818 
L 713.343181 664.581567 
L 711.888347 653.958364 
L 713.856652 642.496487 
L 715.568221 636.905327 
L 718.820204 630.661866 
L 723.954913 623.206986 
L 729.945406 616.311223 
L 782.747328 563.381579 
" clip-path="url(#p5712c22e77)" style="fill: none; stroke: #7a7a7a; stroke-width: 3; stroke-linecap: square"/>
   </g>
   <g id="line2d_32">
    <path d="M 788.737822 694.02834 
L 766.401839 668.402193 
L 761.951758 663.183777 
L 761.523865 662.717847 
L 757.501677 657.965361 
L 753.308331 650.883226 
L 752.623703 648.553576 
L 752.366968 647.808088 
L 752.281389 644.826137 
L 752.281389 644.360207 
L 752.79486 641.564627 
L 755.61895 636.718955 
L 759.726717 632.4324 
L 776.243364 613.142899 
L 802.259222 588.728169 
" clip-path="url(#p5712c22e77)" style="fill: none; stroke: #7a7a7a; stroke-width: 3; stroke-linecap: square"/>
   </g>
   <g id="line2d_33">
    <path d="M 759.641139 724.127416 
L 640.601473 584.721171 
" clip-path="url(#p5712c22e77)" style="fill: none; stroke: #7a7a7a; stroke-width: 3; stroke-linecap: square"/>
   </g>
   <g id="line2d_34">
    <path d="M 788.737822 694.02834 
L 668.500057 556.85856 
" clip-path="url(#p5712c22e77)" style="fill: none; stroke: #7a7a7a; stroke-width: 3; stroke-linecap: square"/>
   </g>
   <g id="line2d_35">
    <path d="M 782.747328 563.381579 
L 628.278172 717.883955 
" clip-path="url(#p5712c22e77)" style="fill: none; stroke: #7a7a7a; stroke-width: 3; stroke-linecap: square"/>
   </g>
   <g id="line2d_36">
    <path d="M 761.352708 535.332596 
L 606.96913 689.928157 
" clip-path="url(#p5712c22e77)" style="fill: none; stroke: #7a7a7a; stroke-width: 3; stroke-linecap: square"/>
   </g>
   <g id="line2d_37">
    <path d="M 640.601473 584.721171 
L 759.641139 724.127416 
" clip-path="url(#p5712c22e77)" style="fill: none; stroke: #7a7a7a; stroke-width: 3; stroke-linecap: square"/>
   </g>
   <g id="line2d_38">
    <path d="M 613.72983 611.465551 
L 733.539702 752.362772 
" clip-path="url(#p5712c22e77)" style="fill: none; stroke: #7a7a7a; stroke-width: 3; stroke-linecap: square"/>
   </g>
   <g id="line2d_39">
    <path d="M 782.747328 563.381579 
L 754.677587 591.616935 
L 741.926393 601.308278 
L 727.46363 607.924484 
L 711.973925 611.372365 
L 695.97075 611.745109 
L 680.309888 609.229087 
L 665.419232 603.8243 
L 649.416056 594.692073 
L 640.601473 584.721171 
" clip-path="url(#p5712c22e77)" style="fill: none; stroke: #7a7a7a; stroke-width: 3; stroke-linecap: square"/>
   </g>
   <g id="line2d_40">
    <path d="M 761.352708 535.332596 
L 751.939075 544.930753 
L 730.972348 565.618043 
L 727.46363 568.506809 
L 722.756814 571.954691 
L 716.424006 574.563898 
L 710.60467 576.054874 
L 703.672813 576.427618 
L 697.511162 576.054874 
L 689.894677 574.470712 
L 683.904184 571.488761 
L 678.855054 568.227251 
L 668.500057 556.85856 
" clip-path="url(#p5712c22e77)" style="fill: none; stroke: #7a7a7a; stroke-width: 3; stroke-linecap: square"/>
   </g>
   <g id="line2d_41">
    <path d="M 640.601473 584.721171 
L 649.416056 594.692073 
L 665.419232 603.8243 
L 680.309888 609.229087 
L 695.97075 611.745109 
L 711.973925 611.372365 
L 727.46363 607.924484 
L 741.926393 601.308278 
L 754.677587 591.616935 
L 782.747328 563.381579 
" clip-path="url(#p5712c22e77)" style="fill: none; stroke: #7a7a7a; stroke-width: 3; stroke-linecap: square"/>
   </g>
   <g id="line2d_42">
    <path d="M 613.72983 611.465551 
L 616.211606 614.540689 
L 617.238548 615.752107 
L 628.021436 627.213984 
L 637.435069 634.855235 
L 647.704487 640.725953 
L 662.937456 646.13074 
L 679.282946 649.299064 
L 696.227485 650.137738 
L 713.257603 648.553576 
L 730.030985 644.546579 
L 745.948582 637.930373 
L 758.528618 630.009564 
L 776.243364 613.142899 
L 802.259222 588.728169 
" clip-path="url(#p5712c22e77)" style="fill: none; stroke: #7a7a7a; stroke-width: 3; stroke-linecap: square"/>
   </g>
   <g id="line2d_43">
    <path d="M 537.650562 809.392599 
L 628.278172 717.883955 
" clip-path="url(#p5712c22e77)" style="fill: none; stroke: #7a7a7a; stroke-width: 3; stroke-linecap: square"/>
   </g>
   <g id="line2d_44">
    <path d="M 537.650562 854.121875 
L 597.555498 793.08505 
L 603.888305 786.655217 
L 630.503212 759.910837 
L 633.498459 757.115257 
L 647.53333 743.137358 
" clip-path="url(#p5712c22e77)" style="fill: none; stroke: #7a7a7a; stroke-width: 3; stroke-linecap: square"/>
   </g>
   <g id="line2d_45">
    <path d="M 628.278172 717.883955 
L 537.650562 809.392599 
" clip-path="url(#p5712c22e77)" style="fill: none; stroke: #7a7a7a; stroke-width: 3; stroke-linecap: square"/>
   </g>
   <g id="line2d_46">
    <path d="M 606.96913 689.928157 
L 568.886707 729.15946 
L 537.650562 759.910837 
" clip-path="url(#p5712c22e77)" style="fill: none; stroke: #7a7a7a; stroke-width: 3; stroke-linecap: square"/>
   </g>
   <g id="line2d_47">
    <path d="M 628.278172 717.883955 
L 640.601473 706.328891 
L 655.064236 698.501268 
L 671.238569 693.655597 
L 688.354265 691.698691 
L 705.555539 692.723737 
L 722.157764 696.637548 
L 737.219577 703.160568 
L 749.286143 712.665539 
L 759.641139 724.127416 
" clip-path="url(#p5712c22e77)" style="fill: none; stroke: #7a7a7a; stroke-width: 3; stroke-linecap: square"/>
   </g>
   <g id="line2d_48">
    <path d="M 647.53333 743.137358 
L 665.076918 727.948042 
L 670.553941 724.96609 
L 676.458856 723.475114 
L 681.165672 723.475114 
L 688.782157 724.593346 
L 704.100705 726.36388 
L 708.8931 727.482112 
L 711.802768 728.600344 
L 715.054751 731.116365 
L 733.539702 752.362772 
" clip-path="url(#p5712c22e77)" style="fill: none; stroke: #7a7a7a; stroke-width: 3; stroke-linecap: square"/>
   </g>
   <g id="line2d_49">
    <path d="M 441.717085 349.799285 
L 640.601473 584.721171 
" clip-path="url(#p5712c22e77)" style="fill: none; stroke: #7a7a7a; stroke-width: 3; stroke-linecap: square"/>
   </g>
   <g id="line2d_50">
    <path d="M 414.503129 377.102781 
L 484.677482 459.758756 
L 581.809057 573.072922 
L 613.72983 611.465551 
" clip-path="url(#p5712c22e77)" style="fill: none; stroke: #7a7a7a; stroke-width: 3; stroke-linecap: square"/>
   </g>
   <g id="line2d_51">
    <path d="M 759.641139 724.127416 
L 749.286143 712.665539 
L 737.219577 703.160568 
L 722.157764 696.637548 
L 705.555539 692.723737 
L 688.354265 691.698691 
L 671.238569 693.655597 
L 655.064236 698.501268 
L 640.601473 706.328891 
L 628.278172 717.883955 
" clip-path="url(#p5712c22e77)" style="fill: none; stroke: #7a7a7a; stroke-width: 3; stroke-linecap: square"/>
   </g>
   <g id="line2d_52">
    <path d="M 788.737822 694.02834 
L 777.01357 684.150625 
L 766.31626 673.434236 
L 752.366968 665.047497 
L 736.706106 658.804035 
L 719.932724 654.610666 
L 702.389136 652.65376 
L 684.588812 652.840132 
L 666.959645 655.356154 
L 650.015106 660.201825 
L 634.097508 667.470333 
L 619.720324 677.161676 
L 612.531732 684.336997 
L 606.96913 689.928157 
" clip-path="url(#p5712c22e77)" style="fill: none; stroke: #7a7a7a; stroke-width: 3; stroke-linecap: square"/>
   </g>
   <g id="line2d_53">
    <path d="M 457.213894 871.276516 
L 171.15696 1160.442023 
" clip-path="url(#p5712c22e77)" style="fill: none; stroke-dasharray: 32,8,5,8; stroke-dashoffset: 0; stroke: #1e90ff; stroke-width: 5"/>
   </g>
   <g id="line2d_54">
    <path d="M 1266.214677 46.592996 
L 958.472708 355.391036 
" clip-path="url(#p5712c22e77)" style="fill: none; stroke-dasharray: 32,8,5,8; stroke-dashoffset: 0; stroke: #1e90ff; stroke-width: 5"/>
   </g>
   <g id="line2d_55">
    <path d="M 457.213894 871.276516 
" clip-path="url(#p5712c22e77)" style="fill: none; stroke: #0000ff; stroke-width: 1.5; stroke-linecap: square"/>
    <defs>
     <path id="md0c5e06b54" d="M 0 10 
C 2.652031 10 5.195799 8.946337 7.071068 7.071068 
C 8.946337 5.195799 10 2.652031 10 0 
C 10 -2.652031 8.946337 -5.195799 7.071068 -7.071068 
C 5.195799 -8.946337 2.652031 -10 0 -10 
C -2.652031 -10 -5.195799 -8.946337 -7.071068 -7.071068 
C -8.946337 -5.195799 -10 -2.652031 -10 0 
C -10 2.652031 -8.946337 5.195799 -7.071068 7.071068 
C -5.195799 8.946337 -2.652031 10 0 10 
z
" style="stroke: #0000ff"/>
    </defs>
    <g clip-path="url(#p5712c22e77)">
     <use xlink:href="#md0c5e06b54" x="457.213894" y="871.276516" style="fill: #0000ff; stroke: #0000ff"/>
    </g>
   </g>
   <g id="line2d_56">
    <path d="M 1266.214677 46.592996 
" clip-path="url(#p5712c22e77)" style="fill: none; stroke: #0000ff; stroke-width: 1.5; stroke-linecap: square"/>
    <g clip-path="url(#p5712c22e77)">
     <use xlink:href="#md0c5e06b54" x="1266.214677" y="46.592996" style="fill: #0000ff; stroke: #0000ff"/>
    </g>
   </g>
   <g id="line2d_57">
    <path d="M 171.15696 1160.442023 
" clip-path="url(#p5712c22e77)" style="fill: none; stroke: #ff0000; stroke-width: 1.5; stroke-linecap: square"/>
    <defs>
     <path id="m905f3b022b" d="M 0 -10 
L -2.24514 -3.09017 
L -9.510565 -3.09017 
L -3.632713 1.18034 
L -5.877853 8.09017 
L -0 3.81966 
L 5.877853 8.09017 
L 3.632713 1.18034 
L 9.510565 -3.09017 
L 2.24514 -3.09017 
z
" style="stroke: #ff0000; stroke-linejoin: bevel"/>
    </defs>
    <g clip-path="url(#p5712c22e77)">
     <use xlink:href="#m905f3b022b" x="171.15696" y="1160.442023" style="fill: #ff0000; stroke: #ff0000; stroke-linejoin: bevel"/>
    </g>
   </g>
   <g id="line2d_58">
    <path d="M 958.472708 355.391036 
" clip-path="url(#p5712c22e77)" style="fill: none; stroke: #ff0000; stroke-width: 1.5; stroke-linecap: square"/>
    <g clip-path="url(#p5712c22e77)">
     <use xlink:href="#m905f3b022b" x="958.472708" y="355.391036" style="fill: #ff0000; stroke: #ff0000; stroke-linejoin: bevel"/>
    </g>
   </g>
  </g>
 </g>
 <defs>
  <clipPath id="p5712c22e77">
   <rect x="0" y="0" width="1440" height="1440"/>
  </clipPath>
 </defs>
</svg>
