<?xml version="1.0" encoding="utf-8" standalone="no"?>
<!DOCTYPE svg PUBLIC "-//W3C//DTD SVG 1.1//EN"
  "http://www.w3.org/Graphics/SVG/1.1/DTD/svg11.dtd">
<svg xmlns:xlink="http://www.w3.org/1999/xlink" width="1440pt" height="1440pt" viewBox="0 0 1440 1440" xmlns="http://www.w3.org/2000/svg" version="1.1">
 <metadata>
  <rdf:RDF xmlns:dc="http://purl.org/dc/elements/1.1/" xmlns:cc="http://creativecommons.org/ns#" xmlns:rdf="http://www.w3.org/1999/02/22-rdf-syntax-ns#">
   <cc:Work>
    <dc:type rdf:resource="http://purl.org/dc/dcmitype/StillImage"/>
    <dc:date>2026-02-27T11:08:09.123521</dc:date>
    <dc:format>image/svg+xml</dc:format>
    <dc:creator>
     <cc:Agent>
      <dc:title>Matplotlib v3.7.3, https://matplotlib.org/</dc:title>
     </cc:Agent>
    </dc:creator>
   </cc:Work>
  </rdf:RDF>
 </metadata>
 <defs>
  <style type="text/css">*{stroke-linejoin: round; stroke-linecap: butt}</style>
 </defs>
 <g id="figure_1">
  <g id="patch_1">
   <path d="M 0 1440 
L 1440 1440 
L 1440 0 
L 0 0 
z
" style="fill: #ffffff"/>
  </g>
  <g id="axes_1">
   <g id="line2d_1">
    <path d="M 1228.450876 1096.901257 
L 1240.025926 1109.160968 
L 1251.431998 1120.470984 
L 1262.66909 1130.744967 
L 1274.159651 1139.551239 
L 1285.988169 1146.630791 
L 1298.408113 1151.724614 
L 1311.757441 1154.487366 
L 1326.120642 1154.660038 
L 1341.751184 1151.897286 
L 1358.902536 1146.026439 
L 1377.828165 1136.615815 
L 1398.697051 1123.406408 
" clip-path="url(#p57e0dcd93d)" style="fill: none; stroke: #7a7a7a; stroke-width: 3; stroke-linecap: square"/>
   </g>
   <g id="line2d_2">
    <path d="M 1192.542874 1130.572295 
L 1202.850583 1140.932615 
L 1213.496249 1150.94759 
L 1224.733342 1160.271878 
L 1236.392881 1168.732806 
L 1248.643847 1176.157701 
L 1261.401749 1182.287557 
L 1274.835566 1186.863365 
L 1288.945299 1189.798789 
L 1303.646457 1190.748485 
L 1319.19251 1189.626117 
L 1335.414478 1186.086341 
L 1352.48134 1180.042821 
L 1370.308607 1171.150213 
L 1389.065258 1159.408518 
L 1408.751292 1144.386055 
" clip-path="url(#p57e0dcd93d)" style="fill: none; stroke: #7a7a7a; stroke-width: 3; stroke-linecap: square"/>
   </g>
   <g id="line2d_3">
    <path d="M 1173.448266 1373.867133 
L 1262.331132 1285.890753 
" clip-path="url(#p57e0dcd93d)" style="fill: none; stroke: #7a7a7a; stroke-width: 3; stroke-linecap: square"/>
   </g>
   <g id="line2d_4">
    <path d="M 1183.924953 1384.05478 
L 1201.498752 1366.614909 
L 1201.83671 1366.096893 
L 1209.356268 1357.894973 
L 1270.949053 1297.459776 
" clip-path="url(#p57e0dcd93d)" style="fill: none; stroke: #7a7a7a; stroke-width: 3; stroke-linecap: square"/>
   </g>
   <g id="line2d_5">
    <path d="M 1139.905967 1341.232126 
L 1228.873323 1253.514754 
" clip-path="url(#p57e0dcd93d)" style="fill: none; stroke: #7a7a7a; stroke-width: 3; stroke-linecap: square"/>
   </g>
   <g id="line2d_6">
    <path d="M 1156.972829 1357.808637 
L 1245.010802 1270.263937 
" clip-path="url(#p57e0dcd93d)" style="fill: none; stroke: #7a7a7a; stroke-width: 3; stroke-linecap: square"/>
   </g>
   <g id="line2d_7">
    <path d="M 1228.873323 1253.514754 
L 1139.905967 1341.232126 
" clip-path="url(#p57e0dcd93d)" style="fill: none; stroke: #7a7a7a; stroke-width: 3; stroke-linecap: square"/>
   </g>
   <g id="line2d_8">
    <path d="M 1210.961567 1233.225795 
L 1166.604623 1278.724865 
L 1121.487274 1323.446911 
" clip-path="url(#p57e0dcd93d)" style="fill: none; stroke: #7a7a7a; stroke-width: 3; stroke-linecap: square"/>
   </g>
   <g id="line2d_9">
    <path d="M 1228.450876 1096.901257 
L 1241.039799 1109.33364 
L 1250.840572 1124.183431 
L 1257.937683 1140.673607 
L 1262.331132 1158.199814 
L 1264.10541 1175.985029 
L 1263.345005 1193.424901 
L 1260.218897 1209.82874 
L 1254.642595 1224.419523 
L 1246.78508 1236.592899 
L 1236.730839 1245.658178 
L 1228.873323 1253.514754 
" clip-path="url(#p57e0dcd93d)" style="fill: none; stroke: #7a7a7a; stroke-width: 3; stroke-linecap: square"/>
   </g>
   <g id="line2d_10">
    <path d="M 1192.542874 1130.572295 
L 1206.821585 1145.594759 
L 1215.777464 1154.660038 
L 1216.960315 1156.818438 
L 1220.255403 1161.912262 
L 1222.536617 1167.178758 
L 1223.803958 1169.423494 
L 1227.774961 1185.136645 
L 1228.028429 1200.504452 
L 1225.155789 1214.490884 
L 1219.326019 1225.800899 
L 1210.961567 1233.225795 
" clip-path="url(#p57e0dcd93d)" style="fill: none; stroke: #7a7a7a; stroke-width: 3; stroke-linecap: square"/>
   </g>
   <g id="line2d_11">
    <path d="M 1228.450876 1096.901257 
L 1238.08267 1106.570888 
L 1245.010802 1119.69396 
L 1249.150783 1135.493447 
L 1250.418125 1152.933318 
L 1248.812826 1171.063877 
L 1244.419376 1188.762757 
L 1237.068797 1205.252932 
L 1226.845577 1219.498371 
L 1213.665228 1230.549379 
L 1210.961567 1233.225795 
" clip-path="url(#p57e0dcd93d)" style="fill: none; stroke: #7a7a7a; stroke-width: 3; stroke-linecap: square"/>
   </g>
   <g id="line2d_12">
    <path d="M 1192.542874 1130.572295 
L 1212.989313 1151.983622 
L 1217.213784 1157.163782 
L 1220.255403 1161.912262 
L 1222.283149 1166.401734 
L 1224.141916 1171.495557 
L 1225.240278 1176.762053 
L 1225.662725 1184.100613 
L 1225.155789 1190.834821 
L 1223.803958 1196.705668 
L 1221.691723 1202.144836 
L 1218.734593 1206.288964 
L 1213.242781 1211.98714 
L 1202.005689 1223.038147 
" clip-path="url(#p57e0dcd93d)" style="fill: none; stroke: #7a7a7a; stroke-width: 3; stroke-linecap: square"/>
   </g>
   <g id="line2d_13">
    <path d="M 1441 1005.702984 
L 1370.562076 1076.78497 
" clip-path="url(#p57e0dcd93d)" style="fill: none; stroke: #7a7a7a; stroke-width: 3; stroke-linecap: square"/>
   </g>
   <g id="line2d_14">
    <path d="M 1441 986.321426 
L 1360.423346 1065.99297 
" clip-path="url(#p57e0dcd93d)" style="fill: none; stroke: #7a7a7a; stroke-width: 3; stroke-linecap: square"/>
   </g>
   <g id="line2d_15">
    <path d="M 1398.697051 1123.406408 
L 1431.563435 1086.713609 
L 1441 1072.808917 
" clip-path="url(#p57e0dcd93d)" style="fill: none; stroke: #7a7a7a; stroke-width: 3; stroke-linecap: square"/>
   </g>
   <g id="line2d_16">
    <path d="M 1408.751292 1144.386055 
L 1441 1111.86161 
" clip-path="url(#p57e0dcd93d)" style="fill: none; stroke: #7a7a7a; stroke-width: 3; stroke-linecap: square"/>
   </g>
   <g id="line2d_17">
    <path d="M 1045.024352 903.681297 
L 1046.376182 905.149009 
L 1228.450876 1096.901257 
" clip-path="url(#p57e0dcd93d)" style="fill: none; stroke: #7a7a7a; stroke-width: 3; stroke-linecap: square"/>
   </g>
   <g id="line2d_18">
    <path d="M 1045.024352 976.117198 
L 1046.460672 977.58491 
L 1192.542874 1130.572295 
" clip-path="url(#p57e0dcd93d)" style="fill: none; stroke: #7a7a7a; stroke-width: 3; stroke-linecap: square"/>
   </g>
   <g id="line2d_19">
    <path d="M 1245.010802 1270.263937 
L 1398.697051 1123.406408 
" clip-path="url(#p57e0dcd93d)" style="fill: none; stroke: #7a7a7a; stroke-width: 3; stroke-linecap: square"/>
   </g>
   <g id="line2d_20">
    <path d="M 1262.331132 1285.890753 
L 1408.751292 1144.386055 
" clip-path="url(#p57e0dcd93d)" style="fill: none; stroke: #7a7a7a; stroke-width: 3; stroke-linecap: square"/>
   </g>
   <g id="line2d_21">
    <path d="M 1210.961567 1233.225795 
L 1166.604623 1278.724865 
L 1121.487274 1323.446911 
" clip-path="url(#p57e0dcd93d)" style="fill: none; stroke: #7a7a7a; stroke-width: 3; stroke-linecap: square"/>
   </g>
   <g id="line2d_22">
    <path d="M 1202.005689 1223.038147 
L 1111.010586 1313.259263 
" clip-path="url(#p57e0dcd93d)" style="fill: none; stroke: #7a7a7a; stroke-width: 3; stroke-linecap: square"/>
   </g>
   <g id="line2d_23">
    <path d="M 1441 1040.722198 
L 1385.85466 1094.829193 
" clip-path="url(#p57e0dcd93d)" style="fill: none; stroke: #7a7a7a; stroke-width: 3; stroke-linecap: square"/>
   </g>
   <g id="line2d_24">
    <path d="M 1441 1005.702984 
L 1370.562076 1076.78497 
" clip-path="url(#p57e0dcd93d)" style="fill: none; stroke: #7a7a7a; stroke-width: 3; stroke-linecap: square"/>
   </g>
   <g id="line2d_25">
    <path d="M 1385.85466 1094.829193 
L 1370.900033 1108.0386 
L 1354.931533 1117.794568 
L 1338.287118 1124.356103 
L 1321.389235 1128.068551 
L 1304.406862 1129.104583 
L 1287.931426 1127.636871 
L 1272.300884 1124.01076 
L 1257.768704 1118.485256 
L 1244.757334 1111.233032 
L 1233.773709 1102.513096 
L 1228.450876 1096.901257 
" clip-path="url(#p57e0dcd93d)" style="fill: none; stroke: #7a7a7a; stroke-width: 3; stroke-linecap: square"/>
   </g>
   <g id="line2d_26">
    <path d="M 1370.562076 1076.78497 
L 1360.169877 1085.936585 
L 1346.482592 1092.325449 
L 1330.85205 1095.519881 
L 1314.292124 1094.829193 
L 1298.239135 1089.908041 
L 1283.706955 1080.238409 
L 1272.131905 1065.215946 
L 1266.809071 1059.604106 
" clip-path="url(#p57e0dcd93d)" style="fill: none; stroke: #7a7a7a; stroke-width: 3; stroke-linecap: square"/>
   </g>
   <g id="line2d_27">
    <path d="M 1228.873323 1253.514754 
L 1236.730839 1245.658178 
L 1246.78508 1236.592899 
L 1254.642595 1224.419523 
L 1260.218897 1209.82874 
L 1263.345005 1193.424901 
L 1264.10541 1175.985029 
L 1262.331132 1158.199814 
L 1257.937683 1140.673607 
L 1250.840572 1124.183431 
L 1241.039799 1109.33364 
L 1228.450876 1096.901257 
" clip-path="url(#p57e0dcd93d)" style="fill: none; stroke: #7a7a7a; stroke-width: 3; stroke-linecap: square"/>
   </g>
   <g id="line2d_28">
    <path d="M 1245.010802 1270.263937 
L 1252.868318 1262.493698 
L 1265.372751 1251.701698 
L 1276.102907 1239.010307 
L 1284.889807 1224.592195 
L 1291.986918 1208.879044 
L 1297.225262 1192.216197 
L 1300.689328 1175.035333 
L 1302.379116 1157.595462 
L 1302.379116 1140.241927 
L 1300.604838 1123.492744 
L 1297.225262 1107.520584 
L 1292.071407 1092.843465 
L 1285.312254 1079.720393 
L 1282.94655 1076.525962 
L 1266.809071 1059.604106 
" clip-path="url(#p57e0dcd93d)" style="fill: none; stroke: #7a7a7a; stroke-width: 3; stroke-linecap: square"/>
   </g>
   <g id="line2d_29">
    <path d="M 1228.450876 1096.901257 
L 1257.430746 1127.550535 
L 1272.131905 1138.083527 
L 1287.677957 1146.889799 
L 1303.730947 1153.96935 
L 1320.037404 1159.14951 
L 1336.428351 1162.257606 
L 1352.56583 1163.379974 
L 1368.111882 1162.257606 
L 1382.813041 1158.71783 
L 1396.500327 1152.846982 
L 1408.751292 1144.386055 
" clip-path="url(#p57e0dcd93d)" style="fill: none; stroke: #7a7a7a; stroke-width: 3; stroke-linecap: square"/>
   </g>
   <g id="line2d_30">
    <path d="M 1192.542874 1130.572295 
L 1212.989313 1151.983622 
L 1214.087675 1153.278662 
L 1221.522744 1161.221574 
L 1230.73209 1172.186245 
L 1241.800204 1181.251525 
L 1254.473617 1188.503749 
L 1268.49886 1193.85658 
L 1283.706955 1197.223684 
L 1299.844433 1198.60506 
L 1316.573338 1198.087044 
L 1333.72469 1195.5833 
L 1351.04502 1191.007493 
L 1368.365351 1184.445957 
L 1385.347724 1175.812357 
L 1401.73867 1165.020358 
L 1417.369213 1152.24263 
" clip-path="url(#p57e0dcd93d)" style="fill: none; stroke: #7a7a7a; stroke-width: 3; stroke-linecap: square"/>
   </g>
   <g id="line2d_31">
    <path d="M 1385.85466 1094.829193 
L 1228.873323 1253.514754 
" clip-path="url(#p57e0dcd93d)" style="fill: none; stroke: #7a7a7a; stroke-width: 3; stroke-linecap: square"/>
   </g>
   <g id="line2d_32">
    <path d="M 1370.562076 1076.78497 
L 1210.961567 1233.225795 
" clip-path="url(#p57e0dcd93d)" style="fill: none; stroke: #7a7a7a; stroke-width: 3; stroke-linecap: square"/>
   </g>
   <g id="line2d_33">
    <path d="M 1228.450876 1096.901257 
L 1046.376182 905.149009 
L 1045.024352 903.681297 
" clip-path="url(#p57e0dcd93d)" style="fill: none; stroke: #7a7a7a; stroke-width: 3; stroke-linecap: square"/>
   </g>
   <g id="line2d_34">
    <path d="M 1266.809071 1059.604106 
L 1046.376182 828.396308 
L 1045.024352 827.014932 
" clip-path="url(#p57e0dcd93d)" style="fill: none; stroke: #7a7a7a; stroke-width: 3; stroke-linecap: square"/>
   </g>
   <g id="line2d_35">
    <path d="M 1262.331132 1285.890753 
L 1408.751292 1144.386055 
" clip-path="url(#p57e0dcd93d)" style="fill: none; stroke: #7a7a7a; stroke-width: 3; stroke-linecap: square"/>
   </g>
   <g id="line2d_36">
    <path d="M 1270.949053 1297.459776 
L 1417.369213 1152.24263 
" clip-path="url(#p57e0dcd93d)" style="fill: none; stroke: #7a7a7a; stroke-width: 3; stroke-linecap: square"/>
   </g>
   <g id="line2d_37">
    <path d="M 1370.562076 1076.78497 
L 1210.961567 1233.225795 
" clip-path="url(#p57e0dcd93d)" style="fill: none; stroke: #7a7a7a; stroke-width: 3; stroke-linecap: square"/>
   </g>
   <g id="line2d_38">
    <path d="M 1360.423346 1065.99297 
L 1346.73606 1080.497417 
L 1340.821801 1086.109257 
L 1202.005689 1223.038147 
" clip-path="url(#p57e0dcd93d)" style="fill: none; stroke: #7a7a7a; stroke-width: 3; stroke-linecap: square"/>
   </g>
   <g id="line2d_39">
    <path d="M 1156.972829 1357.808637 
L 1245.010802 1270.263937 
" clip-path="url(#p57e0dcd93d)" style="fill: none; stroke: #7a7a7a; stroke-width: 3; stroke-linecap: square"/>
   </g>
   <g id="line2d_40">
    <path d="M 1173.448266 1373.867133 
L 1262.331132 1285.890753 
" clip-path="url(#p57e0dcd93d)" style="fill: none; stroke: #7a7a7a; stroke-width: 3; stroke-linecap: square"/>
   </g>
   <g id="line2d_41">
    <path d="M 1370.562076 1076.78497 
L 1362.197623 1085.245897 
L 1350.369105 1098.023625 
L 1336.59733 1108.0386 
L 1321.389235 1115.204488 
L 1305.420735 1119.780296 
L 1289.283256 1121.766024 
L 1273.737204 1121.334344 
L 1259.205024 1118.485256 
L 1246.362633 1113.391432 
L 1235.970434 1106.225544 
L 1228.450876 1096.901257 
" clip-path="url(#p57e0dcd93d)" style="fill: none; stroke: #7a7a7a; stroke-width: 3; stroke-linecap: square"/>
   </g>
   <g id="line2d_42">
    <path d="M 1360.423346 1065.99297 
L 1346.73606 1080.497417 
L 1340.821801 1086.109257 
L 1334.823052 1089.390025 
L 1327.725941 1092.066441 
L 1321.135767 1093.188809 
L 1315.897423 1093.447817 
L 1310.743568 1093.016137 
L 1303.477478 1091.203081 
L 1296.718325 1088.267657 
L 1293.08528 1085.936585 
L 1289.114278 1082.655817 
L 1284.636338 1078.339017 
L 1266.809071 1059.604106 
" clip-path="url(#p57e0dcd93d)" style="fill: none; stroke: #7a7a7a; stroke-width: 3; stroke-linecap: square"/>
   </g>
   <g id="line2d_43">
    <path d="M 1045.024352 903.681297 
L 1043.503542 902.127249 
L 1043.081095 901.695569 
L 1042.743137 901.350225 
L 368.095142 194.949104 
L 215.084808 36.695222 
L 213.901956 35.400182 
" clip-path="url(#p57e0dcd93d)" style="fill: none; stroke: #7a7a7a; stroke-width: 3; stroke-linecap: square"/>
   </g>
   <g id="line2d_44">
    <path d="M 1045.024352 827.014932 
L 1043.503542 825.374548 
L 1043.081095 824.942868 
L 1042.658648 824.511188 
L 981.657289 761.140567 
L 958.33821 736.448472 
L 288.252643 36.52255 
L 287.154281 35.400182 
" clip-path="url(#p57e0dcd93d)" style="fill: none; stroke: #7a7a7a; stroke-width: 3; stroke-linecap: square"/>
   </g>
   <g id="line2d_45">
    <path d="M 213.901956 35.400182 
L 215.084808 36.695222 
L 368.095142 194.949104 
L 1042.743137 901.350225 
L 1043.081095 901.695569 
L 1043.503542 902.127249 
L 1045.024352 903.681297 
" clip-path="url(#p57e0dcd93d)" style="fill: none; stroke: #7a7a7a; stroke-width: 3; stroke-linecap: square"/>
   </g>
   <g id="line2d_46">
    <path d="M 147.408785 35.400182 
L 148.760616 36.781558 
L 615.649134 524.925281 
L 633.222933 543.055841 
L 732.751466 646.659036 
L 845.544838 765.284695 
L 875.454092 795.502294 
L 914.065755 837.893268 
L 1042.743137 973.786126 
L 1043.165584 974.13147 
L 1043.588032 974.56315 
L 1045.024352 976.117198 
" clip-path="url(#p57e0dcd93d)" style="fill: none; stroke: #7a7a7a; stroke-width: 3; stroke-linecap: square"/>
   </g>
   <g id="line2d_47">
    <path d="M 945.175848 849.879448 
L 936.182345 836.278262 
" clip-path="url(#p57e0dcd93d)" style="fill: none; stroke-dasharray: 32,8,5,8; stroke-dashoffset: 0; stroke: #1e90ff; stroke-width: 5"/>
   </g>
   <g id="line2d_48">
    <path d="M 629.776194 421.842821 
L 609.247906 480.315118 
" clip-path="url(#p57e0dcd93d)" style="fill: none; stroke-dasharray: 32,8,5,8; stroke-dashoffset: 0; stroke: #1e90ff; stroke-width: 5"/>
   </g>
   <g id="line2d_49">
    <path d="M 650.411744 517.984887 
L 1076.155071 904.922335 
" clip-path="url(#p57e0dcd93d)" style="fill: none; stroke-dasharray: 32,8,5,8; stroke-dashoffset: 0; stroke: #1e90ff; stroke-width: 5"/>
   </g>
   <g id="line2d_50">
    <path d="M 283.353082 156.618893 
L 168.978834 43.436217 
" clip-path="url(#p57e0dcd93d)" style="fill: none; stroke-dasharray: 32,8,5,8; stroke-dashoffset: 0; stroke: #1e90ff; stroke-width: 5"/>
   </g>
   <g id="line2d_51">
    <path d="M 978.191903 783.785302 
L 556.318256 362.885727 
" clip-path="url(#p57e0dcd93d)" style="fill: none; stroke-dasharray: 32,8,5,8; stroke-dashoffset: 0; stroke: #1e90ff; stroke-width: 5"/>
   </g>
   <g id="line2d_52">
    <path d="M 1169.782382 989.761257 
L 1313.265874 1180.992011 
" clip-path="url(#p57e0dcd93d)" style="fill: none; stroke-dasharray: 32,8,5,8; stroke-dashoffset: 0; stroke: #1e90ff; stroke-width: 5"/>
   </g>
   <g id="line2d_53">
    <path d="M 945.175848 849.879448 
" clip-path="url(#p57e0dcd93d)" style="fill: none; stroke: #0000ff; stroke-width: 1.5; stroke-linecap: square"/>
    <defs>
     <path id="m768537ddd4" d="M 0 10 
C 2.652031 10 5.195799 8.946337 7.071068 7.071068 
C 8.946337 5.195799 10 2.652031 10 0 
C 10 -2.652031 8.946337 -5.195799 7.071068 -7.071068 
C 5.195799 -8.946337 2.652031 -10 0 -10 
C -2.652031 -10 -5.195799 -8.946337 -7.071068 -7.071068 
C -8.946337 -5.195799 -10 -2.652031 -10 0 
C -10 2.652031 -8.946337 5.195799 -7.071068 7.071068 
C -5.195799 8.946337 -2.652031 10 0 10 
z
" style="stroke: #0000ff"/>
    </defs>
    <g clip-path="url(#p57e0dcd93d)">
     <use xlink:href="#m768537ddd4" x="945.175848" y="849.879448" style="fill: #0000ff; stroke: #0000ff"/>
    </g>
   </g>
   <g id="line2d_54">
    <path d="M 629.776194 421.842821 
" clip-path="url(#p57e0dcd93d)" style="fill: none; stroke: #0000ff; stroke-width: 1.5; stroke-linecap: square"/>
    <g clip-path="url(#p57e0dcd93d)">
     <use xlink:href="#m768537ddd4" x="629.776194" y="421.842821" style="fill: #0000ff; stroke: #0000ff"/>
    </g>
   </g>
   <g id="line2d_55">
    <path d="M 650.411744 517.984887 
" clip-path="url(#p57e0dcd93d)" style="fill: none; stroke: #0000ff; stroke-width: 1.5; stroke-linecap: square"/>
    <g clip-path="url(#p57e0dcd93d)">
     <use xlink:href="#m768537ddd4" x="650.411744" y="517.984887" style="fill: #0000ff; stroke: #0000ff"/>
    </g>
   </g>
   <g id="line2d_56">
    <path d="M 283.353082 156.618893 
" clip-path="url(#p57e0dcd93d)" style="fill: none; stroke: #0000ff; stroke-width: 1.5; stroke-linecap: square"/>
    <g clip-path="url(#p57e0dcd93d)">
     <use xlink:href="#m768537ddd4" x="283.353082" y="156.618893" style="fill: #0000ff; stroke: #0000ff"/>
    </g>
   </g>
   <g id="line2d_57">
    <path d="M 978.191903 783.785302 
" clip-path="url(#p57e0dcd93d)" style="fill: none; stroke: #0000ff; stroke-width: 1.5; stroke-linecap: square"/>
    <g clip-path="url(#p57e0dcd93d)">
     <use xlink:href="#m768537ddd4" x="978.191903" y="783.785302" style="fill: #0000ff; stroke: #0000ff"/>
    </g>
   </g>
   <g id="line2d_58">
    <path d="M 1169.782382 989.761257 
" clip-path="url(#p57e0dcd93d)" style="fill: none; stroke: #0000ff; stroke-width: 1.5; stroke-linecap: square"/>
    <g clip-path="url(#p57e0dcd93d)">
     <use xlink:href="#m768537ddd4" x="1169.782382" y="989.761257" style="fill: #0000ff; stroke: #0000ff"/>
    </g>
   </g>
   <g id="line2d_59">
    <path d="M 936.182345 836.278262 
" clip-path="url(#p57e0dcd93d)" style="fill: none; stroke: #ff0000; stroke-width: 1.5; stroke-linecap: square"/>
    <defs>
     <path id="m56c6302d9c" d="M 0 -10 
L -2.24514 -3.09017 
L -9.510565 -3.09017 
L -3.632713 1.18034 
L -5.877853 8.09017 
L -0 3.81966 
L 5.877853 8.09017 
L 3.632713 1.18034 
L 9.510565 -3.09017 
L 2.24514 -3.09017 
z
" style="stroke: #ff0000; stroke-linejoin: bevel"/>
    </defs>
    <g clip-path="url(#p57e0dcd93d)">
     <use xlink:href="#m56c6302d9c" x="936.182345" y="836.278262" style="fill: #ff0000; stroke: #ff0000; stroke-linejoin: bevel"/>
    </g>
   </g>
   <g id="line2d_60">
    <path d="M 609.247906 480.315118 
" clip-path="url(#p57e0dcd93d)" style="fill: none; stroke: #ff0000; stroke-width: 1.5; stroke-linecap: square"/>
    <g clip-path="url(#p57e0dcd93d)">
     <use xlink:href="#m56c6302d9c" x="609.247906" y="480.315118" style="fill: #ff0000; stroke: #ff0000; stroke-linejoin: bevel"/>
    </g>
   </g>
   <g id="line2d_61">
    <path d="M 1076.155071 904.922335 
" clip-path="url(#p57e0dcd93d)" style="fill: none; stroke: #ff0000; stroke-width: 1.5; stroke-linecap: square"/>
    <g clip-path="url(#p57e0dcd93d)">
     <use xlink:href="#m56c6302d9c" x="1076.155071" y="904.922335" style="fill: #ff0000; stroke: #ff0000; stroke-linejoin: bevel"/>
    </g>
   </g>
   <g id="line2d_62">
    <path d="M 168.978834 43.436217 
" clip-path="url(#p57e0dcd93d)" style="fill: none; stroke: #ff0000; stroke-width: 1.5; stroke-linecap: square"/>
    <g clip-path="url(#p57e0dcd93d)">
     <use xlink:href="#m56c6302d9c" x="168.978834" y="43.436217" style="fill: #ff0000; stroke: #ff0000; stroke-linejoin: bevel"/>
    </g>
   </g>
   <g id="line2d_63">
    <path d="M 556.318256 362.885727 
" clip-path="url(#p57e0dcd93d)" style="fill: none; stroke: #ff0000; stroke-width: 1.5; stroke-linecap: square"/>
    <g clip-path="url(#p57e0dcd93d)">
     <use xlink:href="#m56c6302d9c" x="556.318256" y="362.885727" style="fill: #ff0000; stroke: #ff0000; stroke-linejoin: bevel"/>
    </g>
   </g>
   <g id="line2d_64">
    <path d="M 1313.265874 1180.992011 
" clip-path="url(#p57e0dcd93d)" style="fill: none; stroke: #ff0000; stroke-width: 1.5; stroke-linecap: square"/>
    <g clip-path="url(#p57e0dcd93d)">
     <use xlink:href="#m56c6302d9c" x="1313.265874" y="1180.992011" style="fill: #ff0000; stroke: #ff0000; stroke-linejoin: bevel"/>
    </g>
   </g>
  </g>
 </g>
 <defs>
  <clipPath id="p57e0dcd93d">
   <rect x="0" y="0" width="1440" height="1440"/>
  </clipPath>
 </defs>
</svg>
