<?xml version="1.0" encoding="utf-8" standalone="no"?>
<!DOCTYPE svg PUBLIC "-//W3C//DTD SVG 1.1//EN"
  "http://www.w3.org/Graphics/SVG/1.1/DTD/svg11.dtd">
<svg xmlns:xlink="http://www.w3.org/1999/xlink" width="1440pt" height="1440pt" viewBox="0 0 1440 1440" xmlns="http://www.w3.org/2000/svg" version="1.1">
 <metadata>
  <rdf:RDF xmlns:dc="http://purl.org/dc/elements/1.1/" xmlns:cc="http://creativecommons.org/ns#" xmlns:rdf="http://www.w3.org/1999/02/22-rdf-syntax-ns#">
   <cc:Work>
    <dc:type rdf:resource="http://purl.org/dc/dcmitype/StillImage"/>
    <dc:date>2026-02-27T11:07:57.810699</dc:date>
    <dc:format>image/svg+xml</dc:format>
    <dc:creator>
     <cc:Agent>
      <dc:title>Matplotlib v3.7.3, https://matplotlib.org/</dc:title>
     </cc:Agent>
    </dc:creator>
   </cc:Work>
  </rdf:RDF>
 </metadata>
 <defs>
  <style type="text/css">*{stroke-linejoin: round; stroke-linecap: butt}</style>
 </defs>
 <g id="figure_1">
  <g id="patch_1">
   <path d="M 0 1440 
L 1440 1440 
L 1440 0 
L 0 0 
z
" style="fill: #ffffff"/>
  </g>
  <g id="axes_1">
   <g id="line2d_1">
    <path d="M 620.537321 722.796935 
L 619.229065 723.975915 
L 27.979066 1271.294947 
" clip-path="url(#p5917a6795d)" style="fill: none; stroke: #7a7a7a; stroke-width: 3; stroke-linecap: square"/>
   </g>
   <g id="line2d_2">
    <path d="M 620.537321 664.301363 
L 619.229065 665.571034 
L 9.581714 1228.942339 
" clip-path="url(#p5917a6795d)" style="fill: none; stroke: #7a7a7a; stroke-width: 3; stroke-linecap: square"/>
   </g>
   <g id="line2d_3">
    <path d="M 1397.81125 -1 
L 1114.976368 261.815553 
L 1114.32224 262.54108 
L 1113.749878 263.085224 
L 1112.850452 263.901442 
L 1112.196324 264.445586 
L 1111.133365 265.443185 
" clip-path="url(#p5917a6795d)" style="fill: none; stroke: #7a7a7a; stroke-width: 3; stroke-linecap: square"/>
   </g>
   <g id="line2d_4">
    <path d="M 1333.28686 -1 
L 1114.976368 199.873731 
L 1114.32224 200.508566 
L 1113.749878 201.052711 
L 1112.850452 201.868928 
L 1112.196324 202.503764 
L 1111.133365 203.410672 
" clip-path="url(#p5917a6795d)" style="fill: none; stroke: #7a7a7a; stroke-width: 3; stroke-linecap: square"/>
   </g>
   <g id="line2d_5">
    <path d="M 38.281583 1286.621694 
L 91.838318 1236.560367 
L 205.820132 1132.719391 
L 312.197708 1033.050192 
L 430.022524 925.037438 
L 619.310831 749.550723 
L 620.537321 748.371743 
" clip-path="url(#p5917a6795d)" style="fill: none; stroke: #7a7a7a; stroke-width: 3; stroke-linecap: square"/>
   </g>
   <g id="line2d_6">
    <path d="M 45.31346 1296.053538 
L 84.152313 1261.318958 
L 84.397611 1261.046885 
L 619.310831 764.151944 
L 620.537321 762.972963 
" clip-path="url(#p5917a6795d)" style="fill: none; stroke: #7a7a7a; stroke-width: 3; stroke-linecap: square"/>
   </g>
   <g id="line2d_7">
    <path d="M 1428.914022 -1 
L 1115.058134 288.932105 
L 1114.32224 289.566941 
L 1113.749878 290.111085 
L 1112.850452 290.927303 
L 1112.196324 291.562138 
L 1111.133365 292.469046 
" clip-path="url(#p5917a6795d)" style="fill: none; stroke: #7a7a7a; stroke-width: 3; stroke-linecap: square"/>
   </g>
   <g id="line2d_8">
    <path d="M 1409.95662 -1 
L 1114.976368 271.338088 
L 1114.32224 271.972924 
L 1113.749878 272.517068 
L 1112.850452 273.333286 
L 1112.196324 273.968121 
L 1111.133365 274.96572 
" clip-path="url(#p5917a6795d)" style="fill: none; stroke: #7a7a7a; stroke-width: 3; stroke-linecap: square"/>
   </g>
   <g id="line2d_9">
    <path d="M 620.537321 748.371743 
L 619.310831 749.550723 
L 430.022524 925.037438 
L 312.197708 1033.050192 
L 205.820132 1132.719391 
L 91.838318 1236.560367 
L 38.281583 1286.621694 
" clip-path="url(#p5917a6795d)" style="fill: none; stroke: #7a7a7a; stroke-width: 3; stroke-linecap: square"/>
   </g>
   <g id="line2d_10">
    <path d="M 620.537321 729.780127 
L 619.229065 730.959107 
L 30.268514 1276.282941 
" clip-path="url(#p5917a6795d)" style="fill: none; stroke: #7a7a7a; stroke-width: 3; stroke-linecap: square"/>
   </g>
   <g id="line2d_11">
    <path d="M 1111.133365 292.469046 
L 1112.196324 291.562138 
L 1112.850452 290.927303 
L 1113.749878 290.111085 
L 1114.32224 289.566941 
L 1115.058134 288.932105 
L 1428.914022 -1 
" clip-path="url(#p5917a6795d)" style="fill: none; stroke: #7a7a7a; stroke-width: 3; stroke-linecap: square"/>
   </g>
   <g id="line2d_12">
    <path d="M 1111.133365 308.702701 
L 1112.196324 307.795793 
L 1112.850452 307.160957 
L 1113.749878 306.34474 
L 1114.32224 305.800595 
L 1115.058134 305.16576 
L 1426.750154 16.224843 
L 1441 3.100982 
" clip-path="url(#p5917a6795d)" style="fill: none; stroke: #7a7a7a; stroke-width: 3; stroke-linecap: square"/>
   </g>
   <g id="line2d_13">
    <path d="M 953.243205 549.033345 
L 969.596407 570.799139 
" clip-path="url(#p5917a6795d)" style="fill: none; stroke: #7a7a7a; stroke-width: 3; stroke-linecap: square"/>
   </g>
   <g id="line2d_14">
    <path d="M 930.757553 574.880225 
L 942.368326 590.297663 
" clip-path="url(#p5917a6795d)" style="fill: none; stroke: #7a7a7a; stroke-width: 3; stroke-linecap: square"/>
   </g>
   <g id="line2d_15">
    <path d="M 689.547832 131.583551 
L 680.308273 146.00339 
L 674.175822 160.876683 
L 670.986948 176.022048 
L 670.414586 191.167413 
L 672.295204 206.040706 
L 676.383504 220.279163 
L 682.352423 233.701402 
L 686.767787 239.596305 
" clip-path="url(#p5917a6795d)" style="fill: none; stroke: #7a7a7a; stroke-width: 3; stroke-linecap: square"/>
   </g>
   <g id="line2d_16">
    <path d="M 674.175822 116.075423 
L 663.382709 130.495262 
L 655.042576 145.822008 
L 649.23719 161.6929 
L 645.721252 177.745173 
L 644.576528 193.797446 
L 645.721252 209.486956 
L 649.073658 224.45094 
L 654.715512 238.326634 
L 662.483283 250.841965 
L 666.898648 256.736868 
" clip-path="url(#p5917a6795d)" style="fill: none; stroke: #7a7a7a; stroke-width: 3; stroke-linecap: square"/>
   </g>
   <g id="line2d_17">
    <path d="M 1111.133365 265.443185 
L 1109.743343 266.712857 
L 982.8425 385.245744 
" clip-path="url(#p5917a6795d)" style="fill: none; stroke: #7a7a7a; stroke-width: 3; stroke-linecap: square"/>
   </g>
   <g id="line2d_18">
    <path d="M 1111.133365 203.410672 
L 1109.743343 204.680343 
L 954.878525 350.05771 
" clip-path="url(#p5917a6795d)" style="fill: none; stroke: #7a7a7a; stroke-width: 3; stroke-linecap: square"/>
   </g>
   <g id="line2d_19">
    <path d="M 809.98916 403.111833 
L 829.531236 429.140095 
L 839.506689 444.013388 
L 846.211502 459.158753 
L 849.563908 474.304118 
L 849.482142 489.177411 
L 845.802672 503.59725 
L 838.361965 517.291562 
L 826.99649 530.078966 
" clip-path="url(#p5917a6795d)" style="fill: none; stroke: #7a7a7a; stroke-width: 3; stroke-linecap: square"/>
   </g>
   <g id="line2d_20">
    <path d="M 790.447085 421.975522 
L 809.98916 447.913093 
L 815.140419 461.970168 
L 812.605673 478.475895 
L 800.831368 494.800241 
" clip-path="url(#p5917a6795d)" style="fill: none; stroke: #7a7a7a; stroke-width: 3; stroke-linecap: square"/>
   </g>
   <g id="line2d_21">
    <path d="M 809.98916 403.111833 
L 686.767787 239.596305 
" clip-path="url(#p5917a6795d)" style="fill: none; stroke: #7a7a7a; stroke-width: 3; stroke-linecap: square"/>
   </g>
   <g id="line2d_22">
    <path d="M 829.694768 384.157454 
L 773.930351 311.423426 
L 727.650791 250.025748 
L 707.781651 222.909196 
" clip-path="url(#p5917a6795d)" style="fill: none; stroke: #7a7a7a; stroke-width: 3; stroke-linecap: square"/>
   </g>
   <g id="line2d_23">
    <path d="M 620.537321 748.371743 
L 621.763811 747.192762 
L 622.336174 746.648617 
L 623.072068 745.923091 
L 623.807962 745.288255 
L 624.625622 744.472038 
L 829.367704 553.02374 
" clip-path="url(#p5917a6795d)" style="fill: none; stroke: #7a7a7a; stroke-width: 3; stroke-linecap: square"/>
   </g>
   <g id="line2d_24">
    <path d="M 620.537321 762.972963 
L 621.763811 761.793982 
L 622.41794 761.249838 
L 623.072068 760.615002 
L 623.807962 759.980166 
L 624.625622 759.163949 
L 837.299007 562.727657 
" clip-path="url(#p5917a6795d)" style="fill: none; stroke: #7a7a7a; stroke-width: 3; stroke-linecap: square"/>
   </g>
   <g id="line2d_25">
    <path d="M 686.767787 239.596305 
L 674.584652 223.453341 
L 609.90774 137.387763 
" clip-path="url(#p5917a6795d)" style="fill: none; stroke: #7a7a7a; stroke-width: 3; stroke-linecap: square"/>
   </g>
   <g id="line2d_26">
    <path d="M 707.781651 222.909196 
L 630.103944 117.97993 
" clip-path="url(#p5917a6795d)" style="fill: none; stroke: #7a7a7a; stroke-width: 3; stroke-linecap: square"/>
   </g>
   <g id="line2d_27">
    <path d="M 982.8425 385.245744 
L 943.92188 421.612758 
L 931.493447 431.135293 
L 918.083822 438.209176 
L 904.020069 442.834408 
L 889.46572 444.920296 
L 874.91137 444.557533 
L 860.438787 441.655427 
L 846.4568 436.032597 
L 833.12894 427.779733 
L 820.945805 416.806145 
L 809.98916 403.111833 
" clip-path="url(#p5917a6795d)" style="fill: none; stroke: #7a7a7a; stroke-width: 3; stroke-linecap: square"/>
   </g>
   <g id="line2d_28">
    <path d="M 954.878525 350.05771 
L 915.957906 386.424724 
L 901.403557 398.395911 
L 885.295653 405.107031 
L 868.942452 406.920847 
L 853.488676 403.928051 
L 850.463334 402.204925 
L 847.110928 400.663181 
L 843.594989 398.30522 
L 839.997285 396.219332 
L 834.355431 389.598903 
L 831.984216 387.05956 
L 829.694768 384.157454 
" clip-path="url(#p5917a6795d)" style="fill: none; stroke: #7a7a7a; stroke-width: 3; stroke-linecap: square"/>
   </g>
   <g id="line2d_29">
    <path d="M 1242.286041 935.104118 
L 1130.021313 783.287704 
L 1044.248771 669.652121 
L 1000.994554 612.335529 
" clip-path="url(#p5917a6795d)" style="fill: none; stroke: #7a7a7a; stroke-width: 3; stroke-linecap: square"/>
   </g>
   <g id="line2d_30">
    <path d="M 1277.93602 902.364736 
L 1219.800389 821.105772 
L 1218.410367 819.110574 
L 1212.686747 811.311164 
L 1189.546967 779.569381 
L 1172.621403 757.168751 
L 1113.586346 679.265346 
L 1090.3648 648.158399 
L 1038.688683 579.777529 
" clip-path="url(#p5917a6795d)" style="fill: none; stroke: #7a7a7a; stroke-width: 3; stroke-linecap: square"/>
   </g>
   <g id="line2d_31">
    <path d="M 1002.384576 392.410318 
L 956.595612 434.762926 
L 946.047797 445.283059 
L 938.19826 457.344937 
L 933.128767 470.767177 
L 930.921085 485.368397 
L 931.656979 500.785834 
L 935.581748 516.656726 
L 942.69539 532.890381 
L 953.243205 549.033345 
" clip-path="url(#p5917a6795d)" style="fill: none; stroke: #7a7a7a; stroke-width: 3; stroke-linecap: square"/>
   </g>
   <g id="line2d_32">
    <path d="M 994.616805 382.071566 
L 948.827841 424.424173 
L 934.355258 438.66263 
L 923.153315 453.898686 
L 915.140246 469.860269 
L 909.907221 486.184614 
L 907.536007 502.599651 
L 907.699539 518.742615 
L 910.316051 534.432125 
L 915.140246 549.214726 
L 922.00859 562.818348 
L 930.757553 574.880225 
" clip-path="url(#p5917a6795d)" style="fill: none; stroke: #7a7a7a; stroke-width: 3; stroke-linecap: square"/>
   </g>
   <g id="line2d_33">
    <path d="M 982.8425 385.245744 
L 826.99649 530.078966 
" clip-path="url(#p5917a6795d)" style="fill: none; stroke: #7a7a7a; stroke-width: 3; stroke-linecap: square"/>
   </g>
   <g id="line2d_34">
    <path d="M 954.878525 350.05771 
L 800.831368 494.800241 
" clip-path="url(#p5917a6795d)" style="fill: none; stroke: #7a7a7a; stroke-width: 3; stroke-linecap: square"/>
   </g>
   <g id="line2d_35">
    <path d="M 953.243205 549.033345 
L 942.69539 532.890381 
L 935.581748 516.656726 
L 931.656979 500.785834 
L 930.921085 485.368397 
L 933.128767 470.767177 
L 938.19826 457.344937 
L 946.047797 445.283059 
L 956.595612 434.762926 
L 1002.384576 392.410318 
" clip-path="url(#p5917a6795d)" style="fill: none; stroke: #7a7a7a; stroke-width: 3; stroke-linecap: square"/>
   </g>
   <g id="line2d_36">
    <path d="M 991.509697 517.382253 
L 971.722323 491.2633 
L 961.665104 478.294514 
L 958.230932 473.39721 
L 956.105016 469.406815 
L 954.714993 465.688491 
L 954.306163 461.879477 
L 954.796759 457.979773 
L 956.595612 453.898686 
L 959.457422 449.998981 
L 964.118084 445.192369 
L 983.987224 426.691444 
L 985.29548 425.331081 
L 1009.988814 402.567688 
" clip-path="url(#p5917a6795d)" style="fill: none; stroke: #7a7a7a; stroke-width: 3; stroke-linecap: square"/>
   </g>
   <g id="line2d_37">
    <path d="M 809.98916 403.111833 
L 842.532031 446.280658 
L 849.482142 459.249444 
L 853.897506 474.4855 
L 855.532827 491.081918 
L 854.142804 508.222481 
L 849.482142 524.818899 
L 841.305541 540.054955 
L 829.367704 553.02374 
" clip-path="url(#p5917a6795d)" style="fill: none; stroke: #7a7a7a; stroke-width: 3; stroke-linecap: square"/>
   </g>
   <g id="line2d_38">
    <path d="M 790.447085 421.975522 
L 822.989956 465.144347 
L 831.90245 480.380402 
L 836.399581 498.06511 
L 836.236049 515.9312 
L 831.248322 531.7114 
L 821.354635 543.047751 
" clip-path="url(#p5917a6795d)" style="fill: none; stroke: #7a7a7a; stroke-width: 3; stroke-linecap: square"/>
   </g>
   <g id="line2d_39">
    <path d="M 609.90774 137.387763 
L 674.584652 223.453341 
L 686.767787 239.596305 
" clip-path="url(#p5917a6795d)" style="fill: none; stroke: #7a7a7a; stroke-width: 3; stroke-linecap: square"/>
   </g>
   <g id="line2d_40">
    <path d="M 589.711537 154.800399 
L 666.898648 256.736868 
" clip-path="url(#p5917a6795d)" style="fill: none; stroke: #7a7a7a; stroke-width: 3; stroke-linecap: square"/>
   </g>
   <g id="line2d_41">
    <path d="M 1002.384576 392.410318 
L 1109.743343 293.738718 
L 1111.133365 292.469046 
" clip-path="url(#p5917a6795d)" style="fill: none; stroke: #7a7a7a; stroke-width: 3; stroke-linecap: square"/>
   </g>
   <g id="line2d_42">
    <path d="M 1009.988814 402.567688 
L 1109.743343 310.063063 
L 1111.133365 308.702701 
" clip-path="url(#p5917a6795d)" style="fill: none; stroke: #7a7a7a; stroke-width: 3; stroke-linecap: square"/>
   </g>
   <g id="line2d_43">
    <path d="M 829.367704 553.02374 
L 926.342189 462.332932 
L 1002.384576 392.410318 
" clip-path="url(#p5917a6795d)" style="fill: none; stroke: #7a7a7a; stroke-width: 3; stroke-linecap: square"/>
   </g>
   <g id="line2d_44">
    <path d="M 837.299007 562.727657 
L 1003.611066 408.462591 
L 1009.988814 402.567688 
" clip-path="url(#p5917a6795d)" style="fill: none; stroke: #7a7a7a; stroke-width: 3; stroke-linecap: square"/>
   </g>
   <g id="line2d_45">
    <path d="M 1111.133365 292.469046 
L 1109.743343 293.738718 
L 1002.384576 392.410318 
" clip-path="url(#p5917a6795d)" style="fill: none; stroke: #7a7a7a; stroke-width: 3; stroke-linecap: square"/>
   </g>
   <g id="line2d_46">
    <path d="M 1111.133365 274.96572 
L 1109.743343 276.235392 
L 994.616805 382.071566 
" clip-path="url(#p5917a6795d)" style="fill: none; stroke: #7a7a7a; stroke-width: 3; stroke-linecap: square"/>
   </g>
   <g id="line2d_47">
    <path d="M 953.243205 549.033345 
L 948.746075 543.138442 
L 937.462366 531.892782 
L 924.625103 522.73301 
L 910.643115 515.9312 
L 896.007 511.48735 
L 881.125587 509.582843 
L 866.325939 510.308369 
L 852.098654 513.936002 
L 838.852561 520.46574 
L 826.99649 530.078966 
" clip-path="url(#p5917a6795d)" style="fill: none; stroke: #7a7a7a; stroke-width: 3; stroke-linecap: square"/>
   </g>
   <g id="line2d_48">
    <path d="M 991.509697 517.382253 
L 986.849034 511.124587 
L 976.873581 498.972018 
L 965.01751 487.99843 
L 951.771417 478.657277 
L 937.3806 470.948558 
L 922.090356 465.144347 
L 906.227751 461.244642 
L 890.038082 459.340135 
L 873.848412 459.430826 
L 857.740509 461.788787 
L 842.204967 466.414018 
L 827.323554 473.39721 
L 813.423333 482.829054 
L 800.831368 494.800241 
" clip-path="url(#p5917a6795d)" style="fill: none; stroke: #7a7a7a; stroke-width: 3; stroke-linecap: square"/>
   </g>
   <g id="line2d_49">
    <path d="M 686.767787 239.596305 
L 809.98916 403.111833 
" clip-path="url(#p5917a6795d)" style="fill: none; stroke: #7a7a7a; stroke-width: 3; stroke-linecap: square"/>
   </g>
   <g id="line2d_50">
    <path d="M 666.898648 256.736868 
L 683.905977 279.228188 
L 732.883815 345.432479 
L 790.447085 421.975522 
" clip-path="url(#p5917a6795d)" style="fill: none; stroke: #7a7a7a; stroke-width: 3; stroke-linecap: square"/>
   </g>
   <g id="line2d_51">
    <path d="M 829.367704 553.02374 
L 624.625622 744.472038 
L 623.807962 745.288255 
L 623.072068 745.923091 
L 622.336174 746.648617 
L 621.763811 747.192762 
L 620.537321 748.371743 
" clip-path="url(#p5917a6795d)" style="fill: none; stroke: #7a7a7a; stroke-width: 3; stroke-linecap: square"/>
   </g>
   <g id="line2d_52">
    <path d="M 821.354635 543.047751 
L 624.625622 725.971113 
L 623.807962 726.696639 
L 623.072068 727.331475 
L 622.336174 728.057002 
L 621.763811 728.601146 
L 620.537321 729.780127 
" clip-path="url(#p5917a6795d)" style="fill: none; stroke: #7a7a7a; stroke-width: 3; stroke-linecap: square"/>
   </g>
   <g id="line2d_53">
    <path d="M 982.8425 385.245744 
L 956.268548 410.185716 
L 945.393669 424.877627 
L 937.625898 440.657828 
L 932.638171 457.254246 
L 930.348723 474.032046 
L 930.594021 490.809846 
L 933.128767 507.134191 
L 937.871196 522.551629 
L 944.576009 536.608704 
L 953.243205 549.033345 
" clip-path="url(#p5917a6795d)" style="fill: none; stroke: #7a7a7a; stroke-width: 3; stroke-linecap: square"/>
   </g>
   <g id="line2d_54">
    <path d="M 954.878525 350.05771 
L 942.368326 361.847515 
L 927.323381 376.720808 
L 915.385544 392.319627 
L 906.391283 408.3719 
L 899.931769 424.877627 
L 896.007 441.474045 
L 894.208148 458.251845 
L 894.37168 474.848263 
L 896.252298 491.172609 
L 899.604704 507.134191 
L 904.265367 522.460938 
L 909.907221 537.152849 
L 916.366736 550.847161 
L 923.398613 563.453183 
L 930.757553 574.880225 
" clip-path="url(#p5917a6795d)" style="fill: none; stroke: #7a7a7a; stroke-width: 3; stroke-linecap: square"/>
   </g>
   <g id="line2d_55">
    <path d="M 809.98916 403.111833 
L 821.272869 417.168909 
L 834.355431 428.686641 
L 848.664482 437.574341 
L 864.036491 443.922697 
L 879.899097 448.003784 
L 896.088766 449.636218 
L 912.114904 448.910692 
L 927.650445 446.008586 
L 942.368326 441.020591 
L 955.777952 433.856018 
L 967.634023 424.605555 
L 1002.384576 392.410318 
" clip-path="url(#p5917a6795d)" style="fill: none; stroke: #7a7a7a; stroke-width: 3; stroke-linecap: square"/>
   </g>
   <g id="line2d_56">
    <path d="M 790.447085 421.975522 
L 800.504304 434.309472 
L 812.360375 444.648224 
L 825.688234 453.082469 
L 840.079051 459.612207 
L 855.451061 464.146748 
L 871.395432 466.867472 
L 887.666867 467.683689 
L 903.856537 466.68609 
L 919.882674 463.783984 
L 935.254684 459.158753 
L 949.809033 452.719706 
L 963.218658 444.557533 
L 975.156495 434.672235 
L 1009.988814 402.567688 
" clip-path="url(#p5917a6795d)" style="fill: none; stroke: #7a7a7a; stroke-width: 3; stroke-linecap: square"/>
   </g>
   <g id="line2d_57">
    <path d="M 1002.384576 392.410318 
L 926.342189 462.332932 
L 829.367704 553.02374 
" clip-path="url(#p5917a6795d)" style="fill: none; stroke: #7a7a7a; stroke-width: 3; stroke-linecap: square"/>
   </g>
   <g id="line2d_58">
    <path d="M 994.616805 382.071566 
L 821.354635 543.047751 
" clip-path="url(#p5917a6795d)" style="fill: none; stroke: #7a7a7a; stroke-width: 3; stroke-linecap: square"/>
   </g>
   <g id="line2d_59">
    <path d="M 686.767787 239.596305 
L 682.352423 233.701402 
L 676.383504 220.279163 
L 672.295204 206.040706 
L 670.414586 191.167413 
L 670.986948 176.022048 
L 674.175822 160.876683 
L 680.308273 146.00339 
L 689.547832 131.583551 
" clip-path="url(#p5917a6795d)" style="fill: none; stroke: #7a7a7a; stroke-width: 3; stroke-linecap: square"/>
   </g>
   <g id="line2d_60">
    <path d="M 707.781651 222.909196 
L 704.429245 217.377057 
L 702.385095 212.570444 
L 698.869156 205.768633 
L 694.617324 189.353597 
L 694.535558 174.02685 
L 698.296794 160.060465 
L 705.737501 147.907897 
" clip-path="url(#p5917a6795d)" style="fill: none; stroke: #7a7a7a; stroke-width: 3; stroke-linecap: square"/>
   </g>
   <g id="line2d_61">
    <path d="M 829.367704 553.02374 
L 857.658743 526.632715 
L 868.533622 516.838108 
L 881.616183 512.394258 
L 896.170532 512.57564 
L 911.37901 516.838108 
L 926.423955 524.818899 
L 940.65124 535.701796 
L 953.243205 549.033345 
" clip-path="url(#p5917a6795d)" style="fill: none; stroke: #7a7a7a; stroke-width: 3; stroke-linecap: square"/>
   </g>
   <g id="line2d_62">
    <path d="M 837.299007 562.727657 
L 851.199228 549.940253 
L 859.866425 542.412916 
L 864.935917 539.420119 
L 869.59658 538.331829 
L 872.948986 538.513211 
L 876.54669 538.785283 
L 881.289119 540.145646 
L 892.245764 544.770877 
L 902.875345 551.300615 
L 917.10263 561.004532 
L 930.757553 574.880225 
" clip-path="url(#p5917a6795d)" style="fill: none; stroke: #7a7a7a; stroke-width: 3; stroke-linecap: square"/>
   </g>
   <g id="line2d_63">
    <path d="M 953.243205 549.033345 
L 940.65124 535.701796 
L 926.423955 524.818899 
L 911.37901 516.838108 
L 896.170532 512.57564 
L 881.616183 512.394258 
L 868.533622 516.838108 
L 857.658743 526.632715 
L 829.367704 553.02374 
" clip-path="url(#p5917a6795d)" style="fill: none; stroke: #7a7a7a; stroke-width: 3; stroke-linecap: square"/>
   </g>
   <g id="line2d_64">
    <path d="M 991.509697 517.382253 
L 981.943074 508.13179 
L 970.414067 500.060308 
L 957.167974 493.53057 
L 942.69539 488.814648 
L 927.323381 486.275305 
L 911.460776 486.184614 
L 895.352872 488.905339 
L 879.408501 494.618859 
L 864.036491 503.778631 
L 849.563908 516.656726 
L 821.354635 543.047751 
" clip-path="url(#p5917a6795d)" style="fill: none; stroke: #7a7a7a; stroke-width: 3; stroke-linecap: square"/>
   </g>
   <g id="line2d_65">
    <path d="M 953.243205 549.033345 
L 809.98916 403.111833 
" clip-path="url(#p5917a6795d)" style="fill: none; stroke: #7a7a7a; stroke-width: 3; stroke-linecap: square"/>
   </g>
   <g id="line2d_66">
    <path d="M 991.509697 517.382253 
L 852.262186 402.658379 
L 850.463334 402.204925 
L 847.110928 400.663181 
L 842.940861 397.851766 
L 839.179625 394.677588 
L 831.984216 387.05956 
L 829.694768 384.157454 
" clip-path="url(#p5917a6795d)" style="fill: none; stroke: #7a7a7a; stroke-width: 3; stroke-linecap: square"/>
   </g>
   <g id="line2d_67">
    <path d="M 791.346511 563.181111 
L 624.625622 718.987921 
L 623.807962 719.804138 
L 623.072068 720.438974 
L 622.336174 721.073809 
L 621.763811 721.708645 
L 620.537321 722.796935 
" clip-path="url(#p5917a6795d)" style="fill: none; stroke: #7a7a7a; stroke-width: 3; stroke-linecap: square"/>
   </g>
   <g id="line2d_68">
    <path d="M 765.263154 528.26515 
L 624.543856 660.492349 
L 623.726196 661.308566 
L 623.072068 661.852711 
L 622.336174 662.578238 
L 621.682045 663.213073 
L 620.537321 664.301363 
" clip-path="url(#p5917a6795d)" style="fill: none; stroke: #7a7a7a; stroke-width: 3; stroke-linecap: square"/>
   </g>
   <g id="line2d_69">
    <path d="M 826.99649 530.078966 
L 791.346511 563.181111 
" clip-path="url(#p5917a6795d)" style="fill: none; stroke: #7a7a7a; stroke-width: 3; stroke-linecap: square"/>
   </g>
   <g id="line2d_70">
    <path d="M 800.831368 494.800241 
L 765.263154 528.26515 
" clip-path="url(#p5917a6795d)" style="fill: none; stroke: #7a7a7a; stroke-width: 3; stroke-linecap: square"/>
   </g>
   <g id="line2d_71">
    <path d="M 969.596407 570.799139 
L 953.243205 549.033345 
" clip-path="url(#p5917a6795d)" style="fill: none; stroke: #7a7a7a; stroke-width: 3; stroke-linecap: square"/>
   </g>
   <g id="line2d_72">
    <path d="M 1009.988814 541.77808 
L 991.509697 517.382253 
" clip-path="url(#p5917a6795d)" style="fill: none; stroke: #7a7a7a; stroke-width: 3; stroke-linecap: square"/>
   </g>
   <g id="line2d_73">
    <path d="M 809.98916 403.111833 
L 953.243205 549.033345 
" clip-path="url(#p5917a6795d)" style="fill: none; stroke: #7a7a7a; stroke-width: 3; stroke-linecap: square"/>
   </g>
   <g id="line2d_74">
    <path d="M 790.447085 421.975522 
L 930.757553 574.880225 
" clip-path="url(#p5917a6795d)" style="fill: none; stroke: #7a7a7a; stroke-width: 3; stroke-linecap: square"/>
   </g>
   <g id="line2d_75">
    <path d="M 969.596407 570.799139 
L 1000.994554 612.335529 
" clip-path="url(#p5917a6795d)" style="fill: none; stroke: #7a7a7a; stroke-width: 3; stroke-linecap: square"/>
   </g>
   <g id="line2d_76">
    <path d="M 942.368326 590.297663 
L 975.728857 634.373396 
" clip-path="url(#p5917a6795d)" style="fill: none; stroke: #7a7a7a; stroke-width: 3; stroke-linecap: square"/>
   </g>
   <g id="line2d_77">
    <path d="M 1000.994554 612.335529 
L 969.596407 570.799139 
" clip-path="url(#p5917a6795d)" style="fill: none; stroke: #7a7a7a; stroke-width: 3; stroke-linecap: square"/>
   </g>
   <g id="line2d_78">
    <path d="M 1038.688683 579.777529 
L 1009.988814 541.77808 
" clip-path="url(#p5917a6795d)" style="fill: none; stroke: #7a7a7a; stroke-width: 3; stroke-linecap: square"/>
   </g>
   <g id="line2d_79">
    <path d="M 1000.994554 612.335529 
L 1044.248771 669.652121 
L 1130.021313 783.287704 
L 1242.286041 935.104118 
" clip-path="url(#p5917a6795d)" style="fill: none; stroke: #7a7a7a; stroke-width: 3; stroke-linecap: square"/>
   </g>
   <g id="line2d_80">
    <path d="M 975.728857 634.373396 
L 1008.598792 707.560879 
L 1050.381222 762.791581 
L 1110.233939 842.962256 
L 1122.335309 859.467984 
L 1140.814426 884.135884 
L 1159.620608 908.622402 
L 1184.804538 941.99662 
L 1184.641006 942.812837 
L 1204.264848 969.113172 
" clip-path="url(#p5917a6795d)" style="fill: none; stroke: #7a7a7a; stroke-width: 3; stroke-linecap: square"/>
   </g>
   <g id="line2d_81">
    <path d="M 1317.350989 45.345404 
L 591.1856 783.376734 
" clip-path="url(#p5917a6795d)" style="fill: none; stroke-dasharray: 32,8,5,8; stroke-dashoffset: 0; stroke: #1e90ff; stroke-width: 5"/>
   </g>
   <g id="line2d_82">
    <path d="M 780.763562 348.762178 
L 1045.716567 353.523667 
" clip-path="url(#p5917a6795d)" style="fill: none; stroke-dasharray: 32,8,5,8; stroke-dashoffset: 0; stroke: #1e90ff; stroke-width: 5"/>
   </g>
   <g id="line2d_83">
    <path d="M 528.730225 825.183404 
L 163.532015 1167.927573 
" clip-path="url(#p5917a6795d)" style="fill: none; stroke-dasharray: 32,8,5,8; stroke-dashoffset: 0; stroke: #1e90ff; stroke-width: 5"/>
   </g>
   <g id="line2d_84">
    <path d="M 1317.350989 45.345404 
" clip-path="url(#p5917a6795d)" style="fill: none; stroke: #0000ff; stroke-width: 1.5; stroke-linecap: square"/>
    <defs>
     <path id="me37787bb92" d="M 0 10 
C 2.652031 10 5.195799 8.946337 7.071068 7.071068 
C 8.946337 5.195799 10 2.652031 10 0 
C 10 -2.652031 8.946337 -5.195799 7.071068 -7.071068 
C 5.195799 -8.946337 2.652031 -10 0 -10 
C -2.652031 -10 -5.195799 -8.946337 -7.071068 -7.071068 
C -8.946337 -5.195799 -10 -2.652031 -10 0 
C -10 2.652031 -8.946337 5.195799 -7.071068 7.071068 
C -5.195799 8.946337 -2.652031 10 0 10 
z
" style="stroke: #0000ff"/>
    </defs>
    <g clip-path="url(#p5917a6795d)">
     <use xlink:href="#me37787bb92" x="1317.350989" y="45.345404" style="fill: #0000ff; stroke: #0000ff"/>
    </g>
   </g>
   <g id="line2d_85">
    <path d="M 780.763562 348.762178 
" clip-path="url(#p5917a6795d)" style="fill: none; stroke: #0000ff; stroke-width: 1.5; stroke-linecap: square"/>
    <g clip-path="url(#p5917a6795d)">
     <use xlink:href="#me37787bb92" x="780.763562" y="348.762178" style="fill: #0000ff; stroke: #0000ff"/>
    </g>
   </g>
   <g id="line2d_86">
    <path d="M 528.730225 825.183404 
" clip-path="url(#p5917a6795d)" style="fill: none; stroke: #0000ff; stroke-width: 1.5; stroke-linecap: square"/>
    <g clip-path="url(#p5917a6795d)">
     <use xlink:href="#me37787bb92" x="528.730225" y="825.183404" style="fill: #0000ff; stroke: #0000ff"/>
    </g>
   </g>
   <g id="line2d_87">
    <path d="M 591.1856 783.376734 
" clip-path="url(#p5917a6795d)" style="fill: none; stroke: #ff0000; stroke-width: 1.5; stroke-linecap: square"/>
    <defs>
     <path id="mfe5c622ea7" d="M 0 -10 
L -2.24514 -3.09017 
L -9.510565 -3.09017 
L -3.632713 1.18034 
L -5.877853 8.09017 
L -0 3.81966 
L 5.877853 8.09017 
L 3.632713 1.18034 
L 9.510565 -3.09017 
L 2.24514 -3.09017 
z
" style="stroke: #ff0000; stroke-linejoin: bevel"/>
    </defs>
    <g clip-path="url(#p5917a6795d)">
     <use xlink:href="#mfe5c622ea7" x="591.1856" y="783.376734" style="fill: #ff0000; stroke: #ff0000; stroke-linejoin: bevel"/>
    </g>
   </g>
   <g id="line2d_88">
    <path d="M 1045.716567 353.523667 
" clip-path="url(#p5917a6795d)" style="fill: none; stroke: #ff0000; stroke-width: 1.5; stroke-linecap: square"/>
    <g clip-path="url(#p5917a6795d)">
     <use xlink:href="#mfe5c622ea7" x="1045.716567" y="353.523667" style="fill: #ff0000; stroke: #ff0000; stroke-linejoin: bevel"/>
    </g>
   </g>
   <g id="line2d_89">
    <path d="M 163.532015 1167.927573 
" clip-path="url(#p5917a6795d)" style="fill: none; stroke: #ff0000; stroke-width: 1.5; stroke-linecap: square"/>
    <g clip-path="url(#p5917a6795d)">
     <use xlink:href="#mfe5c622ea7" x="163.532015" y="1167.927573" style="fill: #ff0000; stroke: #ff0000; stroke-linejoin: bevel"/>
    </g>
   </g>
  </g>
 </g>
 <defs>
  <clipPath id="p5917a6795d">
   <rect x="0" y="0" width="1440" height="1440"/>
  </clipPath>
 </defs>
</svg>
