<?xml version="1.0" encoding="utf-8" standalone="no"?>
<!DOCTYPE svg PUBLIC "-//W3C//DTD SVG 1.1//EN"
  "http://www.w3.org/Graphics/SVG/1.1/DTD/svg11.dtd">
<svg xmlns:xlink="http://www.w3.org/1999/xlink" width="1440pt" height="1440pt" viewBox="0 0 1440 1440" xmlns="http://www.w3.org/2000/svg" version="1.1">
 <metadata>
  <rdf:RDF xmlns:dc="http://purl.org/dc/elements/1.1/" xmlns:cc="http://creativecommons.org/ns#" xmlns:rdf="http://www.w3.org/1999/02/22-rdf-syntax-ns#">
   <cc:Work>
    <dc:type rdf:resource="http://purl.org/dc/dcmitype/StillImage"/>
    <dc:date>2026-02-27T11:08:06.408579</dc:date>
    <dc:format>image/svg+xml</dc:format>
    <dc:creator>
     <cc:Agent>
      <dc:title>Matplotlib v3.7.3, https://matplotlib.org/</dc:title>
     </cc:Agent>
    </dc:creator>
   </cc:Work>
  </rdf:RDF>
 </metadata>
 <defs>
  <style type="text/css">*{stroke-linejoin: round; stroke-linecap: butt}</style>
 </defs>
 <g id="figure_1">
  <g id="patch_1">
   <path d="M 0 1440 
L 1440 1440 
L 1440 0 
L 0 0 
z
" style="fill: #ffffff"/>
  </g>
  <g id="axes_1">
   <g id="line2d_1">
    <path d="M 1195.979509 150.443179 
L 847.935368 458.179136 
" clip-path="url(#pde445f5d4e)" style="fill: none; stroke: #7a7a7a; stroke-width: 3; stroke-linecap: square"/>
   </g>
   <g id="line2d_2">
    <path d="M 1195.979509 114.064363 
L 807.446153 458.179136 
" clip-path="url(#pde445f5d4e)" style="fill: none; stroke: #7a7a7a; stroke-width: 3; stroke-linecap: square"/>
   </g>
   <g id="line2d_3">
    <path d="M 696.628515 659.492215 
L 924.644201 458.179136 
" clip-path="url(#pde445f5d4e)" style="fill: none; stroke: #7a7a7a; stroke-width: 3; stroke-linecap: square"/>
   </g>
   <g id="line2d_4">
    <path d="M 703.392709 689.426299 
L 705.407575 687.391121 
L 712.939337 680.77679 
L 718.024475 676.282438 
L 737.069757 659.661813 
L 782.883976 619.12784 
L 864.821866 546.539805 
L 920.662442 497.101926 
L 965.613146 458.179136 
" clip-path="url(#pde445f5d4e)" style="fill: none; stroke: #7a7a7a; stroke-width: 3; stroke-linecap: square"/>
   </g>
   <g id="line2d_5">
    <path d="M 881.852282 458.179136 
L 1092.50174 272.638692 
L 1195.979509 180.631661 
" clip-path="url(#pde445f5d4e)" style="fill: none; stroke: #7a7a7a; stroke-width: 3; stroke-linecap: square"/>
   </g>
   <g id="line2d_6">
    <path d="M 924.644201 458.179136 
L 1195.979509 218.197665 
" clip-path="url(#pde445f5d4e)" style="fill: none; stroke: #7a7a7a; stroke-width: 3; stroke-linecap: square"/>
   </g>
   <g id="line2d_7">
    <path d="M 484.971624 846.050249 
L 493.175008 839.011923 
L 501.810148 834.178374 
L 510.733127 831.295204 
L 519.800025 830.447213 
L 528.914895 831.464802 
L 537.93382 834.178374 
L 546.71288 838.587927 
L 555.156128 844.523865 
L 563.119647 851.901387 
L 570.459516 860.635695 
L 577.031818 870.55719 
L 582.788578 881.750672 
L 587.489933 893.876945 
L 588.065609 895.912123 
" clip-path="url(#pde445f5d4e)" style="fill: none; stroke: #7a7a7a; stroke-width: 3; stroke-linecap: square"/>
   </g>
   <g id="line2d_8">
    <path d="M 494.470279 874.542748 
L 500.322985 870.133195 
L 507.90272 868.69161 
L 516.633806 870.217994 
L 525.79665 874.797146 
L 534.815575 882.429065 
L 543.066931 893.198552 
L 549.927071 907.020806 
L 555.34802 926.015806 
" clip-path="url(#pde445f5d4e)" style="fill: none; stroke: #7a7a7a; stroke-width: 3; stroke-linecap: square"/>
   </g>
   <g id="line2d_9">
    <path d="M 924.644201 458.179136 
L 1195.979509 218.197665 
" clip-path="url(#pde445f5d4e)" style="fill: none; stroke: #7a7a7a; stroke-width: 3; stroke-linecap: square"/>
   </g>
   <g id="line2d_10">
    <path d="M 965.613146 458.179136 
L 965.757065 458.094337 
L 1195.979509 253.219696 
" clip-path="url(#pde445f5d4e)" style="fill: none; stroke: #7a7a7a; stroke-width: 3; stroke-linecap: square"/>
   </g>
   <g id="line2d_11">
    <path d="M 847.935368 458.179136 
L 682.668371 604.372796 
" clip-path="url(#pde445f5d4e)" style="fill: none; stroke: #7a7a7a; stroke-width: 3; stroke-linecap: square"/>
   </g>
   <g id="line2d_12">
    <path d="M 807.446153 458.179136 
L 675.184583 574.862707 
" clip-path="url(#pde445f5d4e)" style="fill: none; stroke: #7a7a7a; stroke-width: 3; stroke-linecap: square"/>
   </g>
   <g id="line2d_13">
    <path d="M -1 1274.895397 
L 1.019965 1273.098548 
L 188.546436 1107.994688 
" clip-path="url(#pde445f5d4e)" style="fill: none; stroke: #7a7a7a; stroke-width: 3; stroke-linecap: square"/>
   </g>
   <g id="line2d_14">
    <path d="M -1 1310.536236 
L 106.752465 1215.435156 
L 188.546436 1144.882299 
" clip-path="url(#pde445f5d4e)" style="fill: none; stroke: #7a7a7a; stroke-width: 3; stroke-linecap: square"/>
   </g>
   <g id="line2d_15">
    <path d="M 188.546436 1071.276675 
L -1 1238.746926 
" clip-path="url(#pde445f5d4e)" style="fill: none; stroke: #7a7a7a; stroke-width: 3; stroke-linecap: square"/>
   </g>
   <g id="line2d_16">
    <path d="M 188.546436 1042.190581 
L -1 1207.378162 
" clip-path="url(#pde445f5d4e)" style="fill: none; stroke: #7a7a7a; stroke-width: 3; stroke-linecap: square"/>
   </g>
   <g id="line2d_17">
    <path d="M 601.114266 885.397034 
L 598.95548 875.30594 
L 597.660209 864.366856 
L 597.132506 852.664579 
L 597.51629 840.283909 
L 598.715615 827.309646 
L 600.826428 813.911387 
L 603.848727 800.173932 
L 607.73454 786.266879 
L 612.579813 772.190227 
L 618.384547 758.113575 
L 625.14874 744.121723 
L 632.872394 730.299468 
L 641.60348 716.90121 
L 651.342 703.842147 
L 662.087953 691.29188 
L 673.889312 679.504804 
L 696.628515 659.492215 
" clip-path="url(#pde445f5d4e)" style="fill: none; stroke: #7a7a7a; stroke-width: 3; stroke-linecap: square"/>
   </g>
   <g id="line2d_18">
    <path d="M 631.481177 859.278909 
L 629.754149 850.375003 
L 628.410905 841.386298 
L 627.739282 834.941566 
L 627.595363 828.920829 
L 627.931174 823.408887 
L 627.883201 821.034512 
L 628.842662 808.399445 
L 630.953474 795.849178 
L 634.215638 783.29891 
L 638.677127 770.91824 
L 644.385915 758.537571 
L 651.342 746.2417 
L 659.64133 734.030629 
L 669.283903 721.904357 
L 680.269721 709.778085 
L 703.392709 689.426299 
" clip-path="url(#pde445f5d4e)" style="fill: none; stroke: #7a7a7a; stroke-width: 3; stroke-linecap: square"/>
   </g>
   <g id="line2d_19">
    <path d="M -1 1207.703057 
L 1.355776 1205.598459 
L 188.546436 1042.444979 
" clip-path="url(#pde445f5d4e)" style="fill: none; stroke: #7a7a7a; stroke-width: 3; stroke-linecap: square"/>
   </g>
   <g id="line2d_20">
    <path d="M -1 1239.085189 
L 188.546436 1071.615871 
" clip-path="url(#pde445f5d4e)" style="fill: none; stroke: #7a7a7a; stroke-width: 3; stroke-linecap: square"/>
   </g>
   <g id="line2d_21">
    <path d="M 807.446153 458.179136 
L 675.184583 574.862707 
" clip-path="url(#pde445f5d4e)" style="fill: none; stroke: #7a7a7a; stroke-width: 3; stroke-linecap: square"/>
   </g>
   <g id="line2d_22">
    <path d="M 765.613694 458.179136 
L 667.604848 544.928622 
" clip-path="url(#pde445f5d4e)" style="fill: none; stroke: #7a7a7a; stroke-width: 3; stroke-linecap: square"/>
   </g>
   <g id="line2d_23">
    <path d="M 188.546436 1107.994688 
L 484.971624 846.050249 
" clip-path="url(#pde445f5d4e)" style="fill: none; stroke: #7a7a7a; stroke-width: 3; stroke-linecap: square"/>
   </g>
   <g id="line2d_24">
    <path d="M 188.546436 1144.882299 
L 494.470279 874.542748 
" clip-path="url(#pde445f5d4e)" style="fill: none; stroke: #7a7a7a; stroke-width: 3; stroke-linecap: square"/>
   </g>
   <g id="line2d_25">
    <path d="M 881.612417 458.179136 
L 688.808916 628.62534 
" clip-path="url(#pde445f5d4e)" style="fill: none; stroke: #7a7a7a; stroke-width: 3; stroke-linecap: square"/>
   </g>
   <g id="line2d_26">
    <path d="M 847.935368 458.179136 
L 682.668371 604.372796 
" clip-path="url(#pde445f5d4e)" style="fill: none; stroke: #7a7a7a; stroke-width: 3; stroke-linecap: square"/>
   </g>
   <g id="line2d_27">
    <path d="M 688.808916 628.62534 
L 612.675759 695.871031 
L 606.343323 704.011745 
L 600.298724 714.187638 
L 594.685883 726.059513 
L 589.552772 739.457772 
L 585.043309 754.128017 
L 581.253442 769.731053 
L 578.231143 786.012481 
L 576.120331 802.717905 
L 575.016952 819.508128 
L 575.016952 836.213552 
L 576.216277 852.494981 
L 578.758846 868.013217 
L 582.644659 882.598663 
L 588.065609 895.912123 
" clip-path="url(#pde445f5d4e)" style="fill: none; stroke: #7a7a7a; stroke-width: 3; stroke-linecap: square"/>
   </g>
   <g id="line2d_28">
    <path d="M 682.668371 604.372796 
L 613.107516 665.852148 
L 604.37643 673.060072 
L 596.029127 682.048777 
L 588.113582 692.733464 
L 580.677766 704.774937 
L 573.721681 718.088397 
L 567.389244 732.504245 
L 561.584511 747.683285 
L 556.499372 763.540718 
L 552.085856 779.906946 
L 548.391935 796.442771 
L 545.465582 813.148195 
L 543.354769 829.684021 
L 542.107471 845.965449 
L 541.819633 861.738083 
L 542.443282 876.747525 
L 544.074364 890.908976 
L 546.71288 903.968038 
L 550.454774 915.755114 
L 555.34802 926.015806 
" clip-path="url(#pde445f5d4e)" style="fill: none; stroke: #7a7a7a; stroke-width: 3; stroke-linecap: square"/>
   </g>
   <g id="line2d_29">
    <path d="M 621.454819 964.429801 
L 620.687251 960.189846 
L 601.114266 885.397034 
" clip-path="url(#pde445f5d4e)" style="fill: none; stroke: #7a7a7a; stroke-width: 3; stroke-linecap: square"/>
   </g>
   <g id="line2d_30">
    <path d="M 656.810923 943.484422 
L 654.796056 938.820471 
L 649.42308 923.72623 
L 639.876452 891.587369 
L 637.381856 883.022659 
L 633.400097 868.182815 
L 631.960907 861.822882 
L 631.481177 859.278909 
" clip-path="url(#pde445f5d4e)" style="fill: none; stroke: #7a7a7a; stroke-width: 3; stroke-linecap: square"/>
   </g>
   <g id="line2d_31">
    <path d="M 847.887395 458.179136 
L 1195.979509 150.443179 
" clip-path="url(#pde445f5d4e)" style="fill: none; stroke: #7a7a7a; stroke-width: 3; stroke-linecap: square"/>
   </g>
   <g id="line2d_32">
    <path d="M 881.852282 458.179136 
L 1092.50174 272.638692 
L 1195.979509 180.631661 
" clip-path="url(#pde445f5d4e)" style="fill: none; stroke: #7a7a7a; stroke-width: 3; stroke-linecap: square"/>
   </g>
   <g id="line2d_33">
    <path d="M 688.808916 628.62534 
L 475.424996 817.303351 
" clip-path="url(#pde445f5d4e)" style="fill: none; stroke: #7a7a7a; stroke-width: 3; stroke-linecap: square"/>
   </g>
   <g id="line2d_34">
    <path d="M 682.668371 604.372796 
L 467.797289 794.407593 
" clip-path="url(#pde445f5d4e)" style="fill: none; stroke: #7a7a7a; stroke-width: 3; stroke-linecap: square"/>
   </g>
   <g id="line2d_35">
    <path d="M 188.546436 1042.444979 
L 467.701343 794.068396 
" clip-path="url(#pde445f5d4e)" style="fill: none; stroke: #7a7a7a; stroke-width: 3; stroke-linecap: square"/>
   </g>
   <g id="line2d_36">
    <path d="M 188.546436 1071.615871 
L 475.424996 817.303351 
" clip-path="url(#pde445f5d4e)" style="fill: none; stroke: #7a7a7a; stroke-width: 3; stroke-linecap: square"/>
   </g>
   <g id="line2d_37">
    <path d="M 475.424996 817.303351 
L 188.546436 1071.276675 
" clip-path="url(#pde445f5d4e)" style="fill: none; stroke: #7a7a7a; stroke-width: 3; stroke-linecap: square"/>
   </g>
   <g id="line2d_38">
    <path d="M 467.797289 794.407593 
L 188.546436 1042.190581 
" clip-path="url(#pde445f5d4e)" style="fill: none; stroke: #7a7a7a; stroke-width: 3; stroke-linecap: square"/>
   </g>
   <g id="line2d_39">
    <path d="M 475.424996 817.303351 
L 609.509541 698.499804 
L 688.808916 628.62534 
" clip-path="url(#pde445f5d4e)" style="fill: none; stroke: #7a7a7a; stroke-width: 3; stroke-linecap: square"/>
   </g>
   <g id="line2d_40">
    <path d="M 484.971624 846.050249 
L 622.798063 724.617928 
L 696.628515 659.492215 
" clip-path="url(#pde445f5d4e)" style="fill: none; stroke: #7a7a7a; stroke-width: 3; stroke-linecap: square"/>
   </g>
   <g id="line2d_41">
    <path d="M 188.546436 1042.190581 
L -1 1207.378162 
" clip-path="url(#pde445f5d4e)" style="fill: none; stroke: #7a7a7a; stroke-width: 3; stroke-linecap: square"/>
   </g>
   <g id="line2d_42">
    <path d="M 188.546436 1005.387769 
L -1 1171.653954 
" clip-path="url(#pde445f5d4e)" style="fill: none; stroke: #7a7a7a; stroke-width: 3; stroke-linecap: square"/>
   </g>
   <g id="line2d_43">
    <path d="M 588.065609 895.912123 
L 593.342639 918.807882 
L 605.096025 966.804176 
L 606.727107 972.740113 
L 606.918999 973.333707 
" clip-path="url(#pde445f5d4e)" style="fill: none; stroke: #7a7a7a; stroke-width: 3; stroke-linecap: square"/>
   </g>
   <g id="line2d_44">
    <path d="M 555.34802 926.015806 
L 555.875723 927.626989 
L 557.650724 931.782145 
L 559.425726 936.954891 
L 561.632484 944.58681 
L 561.872349 945.5196 
L 563.791269 953.066721 
L 566.861541 967.482569 
L 568.780461 979.015247 
L 569.356137 983.255203 
L 569.835867 990.208729 
L 570.027759 997.331854 
" clip-path="url(#pde445f5d4e)" style="fill: none; stroke: #7a7a7a; stroke-width: 3; stroke-linecap: square"/>
   </g>
   <g id="line2d_45">
    <path d="M 1195.979509 180.886059 
L 881.612417 458.179136 
" clip-path="url(#pde445f5d4e)" style="fill: none; stroke: #7a7a7a; stroke-width: 3; stroke-linecap: square"/>
   </g>
   <g id="line2d_46">
    <path d="M 1195.979509 150.443179 
L 847.935368 458.179136 
" clip-path="url(#pde445f5d4e)" style="fill: none; stroke: #7a7a7a; stroke-width: 3; stroke-linecap: square"/>
   </g>
   <g id="line2d_47">
    <path d="M 484.971624 846.050249 
L 622.798063 724.617928 
L 696.628515 659.492215 
" clip-path="url(#pde445f5d4e)" style="fill: none; stroke: #7a7a7a; stroke-width: 3; stroke-linecap: square"/>
   </g>
   <g id="line2d_48">
    <path d="M 494.470279 874.542748 
L 703.392709 689.426299 
" clip-path="url(#pde445f5d4e)" style="fill: none; stroke: #7a7a7a; stroke-width: 3; stroke-linecap: square"/>
   </g>
   <g id="line2d_49">
    <path d="M 188.546436 1071.615871 
L 475.424996 817.303351 
" clip-path="url(#pde445f5d4e)" style="fill: none; stroke: #7a7a7a; stroke-width: 3; stroke-linecap: square"/>
   </g>
   <g id="line2d_50">
    <path d="M 188.546436 1107.994688 
L 484.971624 846.050249 
" clip-path="url(#pde445f5d4e)" style="fill: none; stroke: #7a7a7a; stroke-width: 3; stroke-linecap: square"/>
   </g>
   <g id="line2d_51">
    <path d="M 467.797289 794.407593 
L 188.546436 1042.190581 
" clip-path="url(#pde445f5d4e)" style="fill: none; stroke: #7a7a7a; stroke-width: 3; stroke-linecap: square"/>
   </g>
   <g id="line2d_52">
    <path d="M 458.346607 765.915093 
L 188.546436 1005.387769 
" clip-path="url(#pde445f5d4e)" style="fill: none; stroke: #7a7a7a; stroke-width: 3; stroke-linecap: square"/>
   </g>
   <g id="line2d_53">
    <path d="M 601.114266 885.397034 
L 597.948047 867.928418 
L 593.582504 852.070985 
L 588.161555 837.570338 
L 581.829118 824.680874 
L 574.633168 813.232994 
L 566.813568 803.2267 
L 558.466265 794.746789 
L 549.687206 787.708463 
L 540.668281 782.026923 
L 531.505437 777.871767 
L 522.342594 775.158196 
L 513.323669 773.80141 
L 504.592583 773.886209 
L 496.293253 775.327794 
L 488.521626 778.126164 
L 481.421622 782.36612 
L 467.797289 794.407593 
" clip-path="url(#pde445f5d4e)" style="fill: none; stroke: #7a7a7a; stroke-width: 3; stroke-linecap: square"/>
   </g>
   <g id="line2d_54">
    <path d="M 631.481177 859.278909 
L 628.171039 844.778262 
L 623.901442 831.125606 
L 618.768331 818.236142 
L 612.819678 806.364267 
L 606.103458 795.255584 
L 598.763588 785.16449 
L 590.896016 775.921388 
L 582.50074 767.695874 
L 573.721681 760.48795 
L 564.558837 754.212816 
L 555.204101 749.040071 
L 545.657474 744.969714 
L 536.0149 741.916946 
L 526.420299 739.966567 
L 516.873671 739.118575 
L 507.470963 739.457772 
L 498.308119 740.984156 
L 489.481086 743.782526 
L 481.037838 747.683285 
L 473.074319 752.94083 
L 458.346607 765.915093 
" clip-path="url(#pde445f5d4e)" style="fill: none; stroke: #7a7a7a; stroke-width: 3; stroke-linecap: square"/>
   </g>
   <g id="line2d_55">
    <path d="M 467.701343 794.068396 
L 600.682509 676.197639 
L 682.572425 604.033599 
" clip-path="url(#pde445f5d4e)" style="fill: none; stroke: #7a7a7a; stroke-width: 3; stroke-linecap: square"/>
   </g>
   <g id="line2d_56">
    <path d="M 475.424996 817.303351 
L 609.509541 698.499804 
L 688.808916 628.62534 
" clip-path="url(#pde445f5d4e)" style="fill: none; stroke: #7a7a7a; stroke-width: 3; stroke-linecap: square"/>
   </g>
   <g id="line2d_57">
    <path d="M 688.808916 628.62534 
L 881.852282 458.179136 
" clip-path="url(#pde445f5d4e)" style="fill: none; stroke: #7a7a7a; stroke-width: 3; stroke-linecap: square"/>
   </g>
   <g id="line2d_58">
    <path d="M 696.628515 659.492215 
L 924.644201 458.179136 
" clip-path="url(#pde445f5d4e)" style="fill: none; stroke: #7a7a7a; stroke-width: 3; stroke-linecap: square"/>
   </g>
   <g id="line2d_59">
    <path d="M 458.346607 765.915093 
L 188.546436 1005.387769 
" clip-path="url(#pde445f5d4e)" style="fill: none; stroke: #7a7a7a; stroke-width: 3; stroke-linecap: square"/>
   </g>
   <g id="line2d_60">
    <path d="M 448.943899 737.676991 
L 188.546436 967.736966 
" clip-path="url(#pde445f5d4e)" style="fill: none; stroke: #7a7a7a; stroke-width: 3; stroke-linecap: square"/>
   </g>
   <g id="line2d_61">
    <path d="M 1195.979509 114.064363 
L 807.446153 458.179136 
" clip-path="url(#pde445f5d4e)" style="fill: none; stroke: #7a7a7a; stroke-width: 3; stroke-linecap: square"/>
   </g>
   <g id="line2d_62">
    <path d="M 1195.979509 51.313024 
L 989.263837 253.134897 
L 961.19963 279.083424 
L 920.182712 318.854205 
L 898.738779 339.290789 
L 870.96241 364.645722 
L 765.613694 458.179136 
" clip-path="url(#pde445f5d4e)" style="fill: none; stroke: #7a7a7a; stroke-width: 3; stroke-linecap: square"/>
   </g>
   <g id="line2d_63">
    <path d="M -1 1239.085189 
L 188.546436 1071.615871 
" clip-path="url(#pde445f5d4e)" style="fill: none; stroke: #7a7a7a; stroke-width: 3; stroke-linecap: square"/>
   </g>
   <g id="line2d_64">
    <path d="M -1 1274.895397 
L 1.019965 1273.098548 
L 188.546436 1107.994688 
" clip-path="url(#pde445f5d4e)" style="fill: none; stroke: #7a7a7a; stroke-width: 3; stroke-linecap: square"/>
   </g>
   <g id="line2d_65">
    <path d="M 682.668371 604.372796 
L 467.797289 794.407593 
" clip-path="url(#pde445f5d4e)" style="fill: none; stroke: #7a7a7a; stroke-width: 3; stroke-linecap: square"/>
   </g>
   <g id="line2d_66">
    <path d="M 675.184583 574.862707 
L 458.346607 765.915093 
" clip-path="url(#pde445f5d4e)" style="fill: none; stroke: #7a7a7a; stroke-width: 3; stroke-linecap: square"/>
   </g>
   <g id="line2d_67">
    <path d="M 188.546436 1005.387769 
L -1 1171.653954 
" clip-path="url(#pde445f5d4e)" style="fill: none; stroke: #7a7a7a; stroke-width: 3; stroke-linecap: square"/>
   </g>
   <g id="line2d_68">
    <path d="M 188.546436 967.736966 
L -1 1135.587107 
" clip-path="url(#pde445f5d4e)" style="fill: none; stroke: #7a7a7a; stroke-width: 3; stroke-linecap: square"/>
   </g>
   <g id="line2d_69">
    <path d="M 682.572425 604.033599 
L 847.887395 458.179136 
" clip-path="url(#pde445f5d4e)" style="fill: none; stroke: #7a7a7a; stroke-width: 3; stroke-linecap: square"/>
   </g>
   <g id="line2d_70">
    <path d="M 688.808916 628.62534 
L 881.852282 458.179136 
" clip-path="url(#pde445f5d4e)" style="fill: none; stroke: #7a7a7a; stroke-width: 3; stroke-linecap: square"/>
   </g>
   <g id="line2d_71">
    <path d="M 675.184583 574.862707 
L 458.346607 765.915093 
" clip-path="url(#pde445f5d4e)" style="fill: none; stroke: #7a7a7a; stroke-width: 3; stroke-linecap: square"/>
   </g>
   <g id="line2d_72">
    <path d="M 667.604848 544.928622 
L 633.496043 575.625898 
L 593.534531 610.054336 
L 448.943899 737.676991 
" clip-path="url(#pde445f5d4e)" style="fill: none; stroke: #7a7a7a; stroke-width: 3; stroke-linecap: square"/>
   </g>
   <g id="line2d_73">
    <path d="M 437.780009 911.996429 
L 734.931539 642.910656 
" clip-path="url(#pde445f5d4e)" style="fill: none; stroke-dasharray: 32,8,5,8; stroke-dashoffset: 0; stroke: #1e90ff; stroke-width: 5"/>
   </g>
   <g id="line2d_74">
    <path d="M 604.299387 657.529496 
L 956.927901 302.674945 
" clip-path="url(#pde445f5d4e)" style="fill: none; stroke-dasharray: 32,8,5,8; stroke-dashoffset: 0; stroke: #1e90ff; stroke-width: 5"/>
   </g>
   <g id="line2d_75">
    <path d="M 285.838755 1035.882106 
L 644.533582 715.637898 
" clip-path="url(#pde445f5d4e)" style="fill: none; stroke-dasharray: 32,8,5,8; stroke-dashoffset: 0; stroke: #1e90ff; stroke-width: 5"/>
   </g>
   <g id="line2d_76">
    <path d="M 95.946007 1185.602681 
L 412.430212 897.364649 
" clip-path="url(#pde445f5d4e)" style="fill: none; stroke-dasharray: 32,8,5,8; stroke-dashoffset: 0; stroke: #1e90ff; stroke-width: 5"/>
   </g>
   <g id="line2d_77">
    <path d="M 768.045326 592.662372 
L 959.275603 420.190337 
" clip-path="url(#pde445f5d4e)" style="fill: none; stroke-dasharray: 32,8,5,8; stroke-dashoffset: 0; stroke: #1e90ff; stroke-width: 5"/>
   </g>
   <g id="line2d_78">
    <path d="M 437.780009 911.996429 
" clip-path="url(#pde445f5d4e)" style="fill: none; stroke: #0000ff; stroke-width: 1.5; stroke-linecap: square"/>
    <defs>
     <path id="m25a02d2a6b" d="M 0 10 
C 2.652031 10 5.195799 8.946337 7.071068 7.071068 
C 8.946337 5.195799 10 2.652031 10 0 
C 10 -2.652031 8.946337 -5.195799 7.071068 -7.071068 
C 5.195799 -8.946337 2.652031 -10 0 -10 
C -2.652031 -10 -5.195799 -8.946337 -7.071068 -7.071068 
C -8.946337 -5.195799 -10 -2.652031 -10 0 
C -10 2.652031 -8.946337 5.195799 -7.071068 7.071068 
C -5.195799 8.946337 -2.652031 10 0 10 
z
" style="stroke: #0000ff"/>
    </defs>
    <g clip-path="url(#pde445f5d4e)">
     <use xlink:href="#m25a02d2a6b" x="437.780009" y="911.996429" style="fill: #0000ff; stroke: #0000ff"/>
    </g>
   </g>
   <g id="line2d_79">
    <path d="M 604.299387 657.529496 
" clip-path="url(#pde445f5d4e)" style="fill: none; stroke: #0000ff; stroke-width: 1.5; stroke-linecap: square"/>
    <g clip-path="url(#pde445f5d4e)">
     <use xlink:href="#m25a02d2a6b" x="604.299387" y="657.529496" style="fill: #0000ff; stroke: #0000ff"/>
    </g>
   </g>
   <g id="line2d_80">
    <path d="M 285.838755 1035.882106 
" clip-path="url(#pde445f5d4e)" style="fill: none; stroke: #0000ff; stroke-width: 1.5; stroke-linecap: square"/>
    <g clip-path="url(#pde445f5d4e)">
     <use xlink:href="#m25a02d2a6b" x="285.838755" y="1035.882106" style="fill: #0000ff; stroke: #0000ff"/>
    </g>
   </g>
   <g id="line2d_81">
    <path d="M 95.946007 1185.602681 
" clip-path="url(#pde445f5d4e)" style="fill: none; stroke: #0000ff; stroke-width: 1.5; stroke-linecap: square"/>
    <g clip-path="url(#pde445f5d4e)">
     <use xlink:href="#m25a02d2a6b" x="95.946007" y="1185.602681" style="fill: #0000ff; stroke: #0000ff"/>
    </g>
   </g>
   <g id="line2d_82">
    <path d="M 768.045326 592.662372 
" clip-path="url(#pde445f5d4e)" style="fill: none; stroke: #0000ff; stroke-width: 1.5; stroke-linecap: square"/>
    <g clip-path="url(#pde445f5d4e)">
     <use xlink:href="#m25a02d2a6b" x="768.045326" y="592.662372" style="fill: #0000ff; stroke: #0000ff"/>
    </g>
   </g>
   <g id="line2d_83">
    <path d="M 734.931539 642.910656 
" clip-path="url(#pde445f5d4e)" style="fill: none; stroke: #ff0000; stroke-width: 1.5; stroke-linecap: square"/>
    <defs>
     <path id="me6772d344f" d="M 0 -10 
L -2.24514 -3.09017 
L -9.510565 -3.09017 
L -3.632713 1.18034 
L -5.877853 8.09017 
L -0 3.81966 
L 5.877853 8.09017 
L 3.632713 1.18034 
L 9.510565 -3.09017 
L 2.24514 -3.09017 
z
" style="stroke: #ff0000; stroke-linejoin: bevel"/>
    </defs>
    <g clip-path="url(#pde445f5d4e)">
     <use xlink:href="#me6772d344f" x="734.931539" y="642.910656" style="fill: #ff0000; stroke: #ff0000; stroke-linejoin: bevel"/>
    </g>
   </g>
   <g id="line2d_84">
    <path d="M 956.927901 302.674945 
" clip-path="url(#pde445f5d4e)" style="fill: none; stroke: #ff0000; stroke-width: 1.5; stroke-linecap: square"/>
    <g clip-path="url(#pde445f5d4e)">
     <use xlink:href="#me6772d344f" x="956.927901" y="302.674945" style="fill: #ff0000; stroke: #ff0000; stroke-linejoin: bevel"/>
    </g>
   </g>
   <g id="line2d_85">
    <path d="M 644.533582 715.637898 
" clip-path="url(#pde445f5d4e)" style="fill: none; stroke: #ff0000; stroke-width: 1.5; stroke-linecap: square"/>
    <g clip-path="url(#pde445f5d4e)">
     <use xlink:href="#me6772d344f" x="644.533582" y="715.637898" style="fill: #ff0000; stroke: #ff0000; stroke-linejoin: bevel"/>
    </g>
   </g>
   <g id="line2d_86">
    <path d="M 412.430212 897.364649 
" clip-path="url(#pde445f5d4e)" style="fill: none; stroke: #ff0000; stroke-width: 1.5; stroke-linecap: square"/>
    <g clip-path="url(#pde445f5d4e)">
     <use xlink:href="#me6772d344f" x="412.430212" y="897.364649" style="fill: #ff0000; stroke: #ff0000; stroke-linejoin: bevel"/>
    </g>
   </g>
   <g id="line2d_87">
    <path d="M 959.275603 420.190337 
" clip-path="url(#pde445f5d4e)" style="fill: none; stroke: #ff0000; stroke-width: 1.5; stroke-linecap: square"/>
    <g clip-path="url(#pde445f5d4e)">
     <use xlink:href="#me6772d344f" x="959.275603" y="420.190337" style="fill: #ff0000; stroke: #ff0000; stroke-linejoin: bevel"/>
    </g>
   </g>
  </g>
 </g>
 <defs>
  <clipPath id="pde445f5d4e">
   <rect x="0" y="0" width="1440" height="1440"/>
  </clipPath>
 </defs>
</svg>
