<?xml version="1.0" encoding="utf-8" standalone="no"?>
<!DOCTYPE svg PUBLIC "-//W3C//DTD SVG 1.1//EN"
  "http://www.w3.org/Graphics/SVG/1.1/DTD/svg11.dtd">
<svg xmlns:xlink="http://www.w3.org/1999/xlink" width="1440pt" height="1440pt" viewBox="0 0 1440 1440" xmlns="http://www.w3.org/2000/svg" version="1.1">
 <metadata>
  <rdf:RDF xmlns:dc="http://purl.org/dc/elements/1.1/" xmlns:cc="http://creativecommons.org/ns#" xmlns:rdf="http://www.w3.org/1999/02/22-rdf-syntax-ns#">
   <cc:Work>
    <dc:type rdf:resource="http://purl.org/dc/dcmitype/StillImage"/>
    <dc:date>2026-02-27T11:07:29.057038</dc:date>
    <dc:format>image/svg+xml</dc:format>
    <dc:creator>
     <cc:Agent>
      <dc:title>Matplotlib v3.7.3, https://matplotlib.org/</dc:title>
     </cc:Agent>
    </dc:creator>
   </cc:Work>
  </rdf:RDF>
 </metadata>
 <defs>
  <style type="text/css">*{stroke-linejoin: round; stroke-linecap: butt}</style>
 </defs>
 <g id="figure_1">
  <g id="patch_1">
   <path d="M 0 1440 
L 1440 1440 
L 1440 0 
L 0 0 
z
" style="fill: #ffffff"/>
  </g>
  <g id="axes_1">
   <g id="line2d_1">
    <path d="M 1118.838061 1409.585852 
L 1118.490872 1411.886352 
L 1118.421434 1412.499818 
L 1114.420951 1441 
" clip-path="url(#p2eccd2174b)" style="fill: none; stroke: #7a7a7a; stroke-width: 3; stroke-linecap: square"/>
   </g>
   <g id="line2d_2">
    <path d="M 1076.272648 1409.585852 
L 1075.925458 1412.039718 
L 1075.856021 1412.499818 
L 1071.941728 1441 
" clip-path="url(#p2eccd2174b)" style="fill: none; stroke: #7a7a7a; stroke-width: 3; stroke-linecap: square"/>
   </g>
   <g id="line2d_3">
    <path d="M 383.352162 310.407304 
L 538.684673 425.432267 
" clip-path="url(#p2eccd2174b)" style="fill: none; stroke: #7a7a7a; stroke-width: 3; stroke-linecap: square"/>
   </g>
   <g id="line2d_4">
    <path d="M 376.200061 360.711554 
L 530.560442 477.88365 
" clip-path="url(#p2eccd2174b)" style="fill: none; stroke: #7a7a7a; stroke-width: 3; stroke-linecap: square"/>
   </g>
   <g id="line2d_5">
    <path d="M 383.352162 310.407304 
L 292.249679 242.005792 
L 291.416424 241.392326 
L 290.860922 240.932226 
" clip-path="url(#p2eccd2174b)" style="fill: none; stroke: #7a7a7a; stroke-width: 3; stroke-linecap: square"/>
   </g>
   <g id="line2d_6">
    <path d="M 391.406955 256.728988 
L 292.249679 182.192811 
L 291.416424 181.579345 
L 290.860922 181.119245 
" clip-path="url(#p2eccd2174b)" style="fill: none; stroke: #7a7a7a; stroke-width: 3; stroke-linecap: square"/>
   </g>
   <g id="line2d_7">
    <path d="M 439.805149 569.903621 
L 441.957723 554.566959 
L 443.415918 517.452238 
L 443.415918 483.098115 
L 441.957723 451.657959 
L 438.833018 422.978401 
L 434.111243 397.212809 
L 427.72296 374.207817 
L 419.459853 354.11679 
L 409.391362 336.632995 
L 397.309173 322.216533 
L 383.352162 310.407304 
" clip-path="url(#p2eccd2174b)" style="fill: none; stroke: #7a7a7a; stroke-width: 3; stroke-linecap: square"/>
   </g>
   <g id="line2d_8">
    <path d="M 475.982278 578.338785 
L 478.482041 544.444762 
L 479.384733 511.777673 
L 478.829231 480.644249 
L 476.88497 450.891125 
L 473.551953 422.825034 
L 468.969053 396.29261 
L 463.20571 371.753951 
L 456.261923 349.209058 
L 448.276569 328.504565 
L 439.388521 310.10057 
L 429.528344 293.843709 
L 418.90435 279.887347 
L 407.447102 268.538217 
L 391.406955 256.728988 
" clip-path="url(#p2eccd2174b)" style="fill: none; stroke: #7a7a7a; stroke-width: 3; stroke-linecap: square"/>
   </g>
   <g id="line2d_9">
    <path d="M 495.980384 172.684081 
L 515.839614 32.046893 
L 516.047928 30.513227 
L 516.256241 29.286294 
" clip-path="url(#p2eccd2174b)" style="fill: none; stroke: #7a7a7a; stroke-width: 3; stroke-linecap: square"/>
   </g>
   <g id="line2d_10">
    <path d="M 530.491004 199.216506 
L 553.961004 32.046893 
L 554.09988 30.513227 
L 554.238755 29.286294 
" clip-path="url(#p2eccd2174b)" style="fill: none; stroke: #7a7a7a; stroke-width: 3; stroke-linecap: square"/>
   </g>
   <g id="line2d_11">
    <path d="M 320.441453 1409.585852 
L 320.649767 1408.052186 
L 320.858081 1406.825253 
L 439.805149 569.903621 
" clip-path="url(#p2eccd2174b)" style="fill: none; stroke: #7a7a7a; stroke-width: 3; stroke-linecap: square"/>
   </g>
   <g id="line2d_12">
    <path d="M 359.048908 1409.585852 
L 359.257222 1408.052186 
L 359.396097 1406.825253 
L 475.982278 578.338785 
" clip-path="url(#p2eccd2174b)" style="fill: none; stroke: #7a7a7a; stroke-width: 3; stroke-linecap: square"/>
   </g>
   <g id="line2d_13">
    <path d="M 439.805149 569.903621 
L 495.980384 172.684081 
" clip-path="url(#p2eccd2174b)" style="fill: none; stroke: #7a7a7a; stroke-width: 3; stroke-linecap: square"/>
   </g>
   <g id="line2d_14">
    <path d="M 475.982278 578.338785 
L 530.491004 199.216506 
" clip-path="url(#p2eccd2174b)" style="fill: none; stroke: #7a7a7a; stroke-width: 3; stroke-linecap: square"/>
   </g>
   <g id="line2d_15">
    <path d="M 1114.420951 1441 
L 1118.421434 1412.499818 
L 1118.490872 1411.886352 
L 1118.838061 1409.585852 
" clip-path="url(#p2eccd2174b)" style="fill: none; stroke: #7a7a7a; stroke-width: 3; stroke-linecap: square"/>
   </g>
   <g id="line2d_16">
    <path d="M 1157.541653 1441 
L 1161.611788 1412.499818 
L 1161.750663 1411.886352 
L 1161.958977 1409.585852 
" clip-path="url(#p2eccd2174b)" style="fill: none; stroke: #7a7a7a; stroke-width: 3; stroke-linecap: square"/>
   </g>
   <g id="line2d_17">
    <path d="M 383.352162 310.407304 
L 394.392783 319.609301 
L 406.058345 322.83 
L 418.487723 321.142967 
L 431.264291 314.548202 
L 443.971421 303.965906 
L 456.261923 289.396077 
L 467.580296 271.298816 
L 477.718225 250.28759 
L 486.050769 226.515764 
L 492.300177 200.596805 
L 495.980384 172.684081 
" clip-path="url(#p2eccd2174b)" style="fill: none; stroke: #7a7a7a; stroke-width: 3; stroke-linecap: square"/>
   </g>
   <g id="line2d_18">
    <path d="M 376.200061 360.711554 
L 389.393256 371.907317 
L 402.378138 378.502082 
L 415.710208 380.955948 
L 429.181155 379.729015 
L 442.582663 374.821283 
L 455.70642 366.386119 
L 468.482988 354.883623 
L 480.634615 340.160428 
L 491.952988 322.676633 
L 502.368668 302.585606 
L 511.534466 279.887347 
L 519.450383 255.041955 
L 525.838667 228.04943 
L 530.491004 199.216506 
" clip-path="url(#p2eccd2174b)" style="fill: none; stroke: #7a7a7a; stroke-width: 3; stroke-linecap: square"/>
   </g>
   <g id="line2d_19">
    <path d="M 495.980384 172.684081 
L 492.300177 200.596805 
L 486.050769 226.515764 
L 477.718225 250.28759 
L 467.580296 271.298816 
L 456.261923 289.396077 
L 443.971421 303.965906 
L 431.264291 314.548202 
L 418.487723 321.142967 
L 406.058345 322.83 
L 394.392783 319.609301 
L 383.352162 310.407304 
" clip-path="url(#p2eccd2174b)" style="fill: none; stroke: #7a7a7a; stroke-width: 3; stroke-linecap: square"/>
   </g>
   <g id="line2d_20">
    <path d="M 459.594941 147.071856 
L 455.498107 174.98458 
L 454.803728 178.358646 
L 453.553847 186.947177 
L 452.026213 194.768874 
L 450.081953 202.743938 
L 448.970947 208.418503 
L 439.805149 232.803795 
L 428.764528 249.214023 
L 416.474025 258.109287 
L 403.766895 260.409786 
L 391.406955 256.728988 
" clip-path="url(#p2eccd2174b)" style="fill: none; stroke: #7a7a7a; stroke-width: 3; stroke-linecap: square"/>
   </g>
   <g id="line2d_21">
    <path d="M 495.980384 172.684081 
L 491.605798 202.437205 
L 487.022899 229.736463 
L 485.495266 258.722754 
L 486.814585 288.169144 
L 490.703106 317.462168 
L 496.813638 345.374893 
L 504.937869 371.140484 
L 514.798046 393.685377 
L 526.185857 412.089371 
L 538.684673 425.432267 
" clip-path="url(#p2eccd2174b)" style="fill: none; stroke: #7a7a7a; stroke-width: 3; stroke-linecap: square"/>
   </g>
   <g id="line2d_22">
    <path d="M 459.594941 147.071856 
L 455.220355 176.82498 
L 452.442841 202.437205 
L 451.401273 229.583096 
L 452.026213 257.649187 
L 454.178787 286.328745 
L 457.789556 314.854936 
L 462.858521 342.921027 
L 469.177367 369.760185 
L 476.815532 395.065677 
L 485.564704 418.070669 
L 495.355443 438.468429 
L 506.187751 455.492124 
L 517.992188 468.83502 
L 530.560442 477.88365 
" clip-path="url(#p2eccd2174b)" style="fill: none; stroke: #7a7a7a; stroke-width: 3; stroke-linecap: square"/>
   </g>
   <g id="line2d_23">
    <path d="M 516.256241 29.286294 
L 516.047928 30.513227 
L 515.839614 32.046893 
L 495.980384 172.684081 
" clip-path="url(#p2eccd2174b)" style="fill: none; stroke: #7a7a7a; stroke-width: 3; stroke-linecap: square"/>
   </g>
   <g id="line2d_24">
    <path d="M 476.815532 29.286294 
L 476.607219 30.513227 
L 476.398905 32.046893 
L 465.566598 107.810002 
L 459.594941 147.071856 
" clip-path="url(#p2eccd2174b)" style="fill: none; stroke: #7a7a7a; stroke-width: 3; stroke-linecap: square"/>
   </g>
   <g id="line2d_25">
    <path d="M 538.684673 425.432267 
L 708.182509 541.83753 
" clip-path="url(#p2eccd2174b)" style="fill: none; stroke: #7a7a7a; stroke-width: 3; stroke-linecap: square"/>
   </g>
   <g id="line2d_26">
    <path d="M 530.560442 477.88365 
L 700.960971 595.822579 
" clip-path="url(#p2eccd2174b)" style="fill: none; stroke: #7a7a7a; stroke-width: 3; stroke-linecap: square"/>
   </g>
   <g id="line2d_27">
    <path d="M 495.980384 172.684081 
L 439.805149 569.903621 
" clip-path="url(#p2eccd2174b)" style="fill: none; stroke: #7a7a7a; stroke-width: 3; stroke-linecap: square"/>
   </g>
   <g id="line2d_28">
    <path d="M 459.594941 147.071856 
L 415.710208 563.922323 
" clip-path="url(#p2eccd2174b)" style="fill: none; stroke: #7a7a7a; stroke-width: 3; stroke-linecap: square"/>
   </g>
   <g id="line2d_29">
    <path d="M 538.684673 425.432267 
L 525.908105 416.537003 
L 512.784348 414.696604 
L 499.730029 418.990869 
L 487.092337 428.652966 
L 475.357337 442.762695 
L 464.872219 460.859956 
L 456.123048 481.871182 
L 449.52645 505.029542 
L 445.499054 529.721567 
L 439.805149 569.903621 
" clip-path="url(#p2eccd2174b)" style="fill: none; stroke: #7a7a7a; stroke-width: 3; stroke-linecap: square"/>
   </g>
   <g id="line2d_30">
    <path d="M 546.808903 369.606818 
L 530.282691 362.858687 
L 514.867484 361.478387 
L 500.632721 364.852453 
L 487.439526 372.520784 
L 475.426775 383.869914 
L 464.52503 398.439742 
L 454.664852 415.616803 
L 445.915681 434.634264 
L 438.277516 455.338757 
L 431.750356 476.96345 
L 426.264764 498.894877 
L 421.820741 520.672937 
L 415.710208 563.922323 
" clip-path="url(#p2eccd2174b)" style="fill: none; stroke: #7a7a7a; stroke-width: 3; stroke-linecap: square"/>
   </g>
   <g id="line2d_31">
    <path d="M 538.684673 425.432267 
L 383.352162 310.407304 
" clip-path="url(#p2eccd2174b)" style="fill: none; stroke: #7a7a7a; stroke-width: 3; stroke-linecap: square"/>
   </g>
   <g id="line2d_32">
    <path d="M 546.808903 369.606818 
L 391.406955 256.728988 
" clip-path="url(#p2eccd2174b)" style="fill: none; stroke: #7a7a7a; stroke-width: 3; stroke-linecap: square"/>
   </g>
   <g id="line2d_33">
    <path d="M 383.352162 310.407304 
L 397.309173 322.216533 
L 409.391362 336.632995 
L 419.459853 354.11679 
L 427.72296 374.207817 
L 434.111243 397.212809 
L 438.833018 422.978401 
L 441.957723 451.657959 
L 443.415918 483.098115 
L 443.415918 517.452238 
L 441.957723 554.566959 
L 439.805149 569.903621 
" clip-path="url(#p2eccd2174b)" style="fill: none; stroke: #7a7a7a; stroke-width: 3; stroke-linecap: square"/>
   </g>
   <g id="line2d_34">
    <path d="M 376.200061 360.711554 
L 386.33799 369.913551 
L 395.503789 383.256447 
L 403.350268 400.740242 
L 409.877427 422.518301 
L 414.738078 448.130526 
L 417.793344 477.730284 
L 418.90435 511.317573 
L 417.862782 548.585661 
L 415.710208 563.922323 
" clip-path="url(#p2eccd2174b)" style="fill: none; stroke: #7a7a7a; stroke-width: 3; stroke-linecap: square"/>
   </g>
   <g id="line2d_35">
    <path d="M 915.801735 685.081951 
L 914.621291 684.161751 
L 914.412977 684.008384 
L 914.204664 683.855018 
L 708.182509 541.83753 
" clip-path="url(#p2eccd2174b)" style="fill: none; stroke: #7a7a7a; stroke-width: 3; stroke-linecap: square"/>
   </g>
   <g id="line2d_36">
    <path d="M 915.801735 624.655503 
L 914.621291 623.735304 
L 914.412977 623.581937 
L 914.204664 623.42857 
L 747.900969 510.55074 
L 732.485763 503.189142 
L 729.222183 501.195376 
L 726.37523 498.28141 
L 726.166917 497.974677 
L 714.084728 485.398614 
" clip-path="url(#p2eccd2174b)" style="fill: none; stroke: #7a7a7a; stroke-width: 3; stroke-linecap: square"/>
   </g>
   <g id="line2d_37">
    <path d="M 538.684673 425.432267 
L 526.185857 412.089371 
L 514.798046 393.685377 
L 504.937869 371.140484 
L 496.813638 345.374893 
L 490.703106 317.462168 
L 486.814585 288.169144 
L 485.495266 258.722754 
L 487.022899 229.736463 
L 491.605798 202.437205 
L 495.980384 172.684081 
" clip-path="url(#p2eccd2174b)" style="fill: none; stroke: #7a7a7a; stroke-width: 3; stroke-linecap: square"/>
   </g>
   <g id="line2d_38">
    <path d="M 546.808903 369.606818 
L 534.86559 351.202824 
L 526.671922 327.891098 
L 522.019584 301.97214 
L 520.769703 276.359915 
L 522.783401 253.661655 
L 530.491004 199.216506 
" clip-path="url(#p2eccd2174b)" style="fill: none; stroke: #7a7a7a; stroke-width: 3; stroke-linecap: square"/>
   </g>
   <g id="line2d_39">
    <path d="M 439.805149 569.903621 
L 320.858081 1406.825253 
L 320.649767 1408.052186 
L 320.441453 1409.585852 
" clip-path="url(#p2eccd2174b)" style="fill: none; stroke: #7a7a7a; stroke-width: 3; stroke-linecap: square"/>
   </g>
   <g id="line2d_40">
    <path d="M 415.710208 563.922323 
L 297.179768 1406.825253 
L 296.971454 1408.052186 
L 296.76314 1409.585852 
" clip-path="url(#p2eccd2174b)" style="fill: none; stroke: #7a7a7a; stroke-width: 3; stroke-linecap: square"/>
   </g>
   <g id="line2d_41">
    <path d="M 439.805149 569.903621 
L 445.499054 529.721567 
L 449.52645 505.029542 
L 456.123048 481.871182 
L 464.872219 460.859956 
L 475.357337 442.762695 
L 487.092337 428.652966 
L 499.730029 418.990869 
L 512.784348 414.696604 
L 525.908105 416.537003 
L 538.684673 425.432267 
" clip-path="url(#p2eccd2174b)" style="fill: none; stroke: #7a7a7a; stroke-width: 3; stroke-linecap: square"/>
   </g>
   <g id="line2d_42">
    <path d="M 475.982278 578.338785 
L 481.606745 538.156731 
L 485.842455 517.145504 
L 491.88355 496.594378 
L 500.632721 480.490883 
L 513.200975 472.822552 
L 530.560442 477.88365 
" clip-path="url(#p2eccd2174b)" style="fill: none; stroke: #7a7a7a; stroke-width: 3; stroke-linecap: square"/>
   </g>
   <g id="line2d_43">
    <path d="M 290.860922 240.932226 
L 291.416424 241.392326 
L 292.249679 242.005792 
L 383.352162 310.407304 
" clip-path="url(#p2eccd2174b)" style="fill: none; stroke: #7a7a7a; stroke-width: 3; stroke-linecap: square"/>
   </g>
   <g id="line2d_44">
    <path d="M 290.860922 300.438474 
L 291.416424 300.898573 
L 292.249679 301.51204 
L 376.200061 360.711554 
" clip-path="url(#p2eccd2174b)" style="fill: none; stroke: #7a7a7a; stroke-width: 3; stroke-linecap: square"/>
   </g>
   <g id="line2d_45">
    <path d="M 520.512443 -1 
L 516.603431 26.832428 
L 516.395117 28.059361 
L 516.256241 29.286294 
" clip-path="url(#p2eccd2174b)" style="fill: none; stroke: #7a7a7a; stroke-width: 3; stroke-linecap: square"/>
   </g>
   <g id="line2d_46">
    <path d="M 481.173001 -1 
L 477.162722 26.832428 
L 476.954408 28.059361 
L 476.815532 29.286294 
" clip-path="url(#p2eccd2174b)" style="fill: none; stroke: #7a7a7a; stroke-width: 3; stroke-linecap: square"/>
   </g>
   <g id="line2d_47">
    <path d="M 516.256241 29.286294 
L 516.395117 28.059361 
L 516.603431 26.832428 
L 520.512443 -1 
" clip-path="url(#p2eccd2174b)" style="fill: none; stroke: #7a7a7a; stroke-width: 3; stroke-linecap: square"/>
   </g>
   <g id="line2d_48">
    <path d="M 554.238755 29.286294 
L 554.377631 27.905994 
L 554.516507 26.832428 
L 557.677618 -1 
" clip-path="url(#p2eccd2174b)" style="fill: none; stroke: #7a7a7a; stroke-width: 3; stroke-linecap: square"/>
   </g>
   <g id="line2d_49">
    <path d="M -1 21.100521 
L 18.94223 35.881058 
L 289.124975 239.705293 
L 289.333288 239.85866 
L 289.541602 240.012026 
L 290.860922 240.932226 
" clip-path="url(#p2eccd2174b)" style="fill: none; stroke: #7a7a7a; stroke-width: 3; stroke-linecap: square"/>
   </g>
   <g id="line2d_50">
    <path d="M -1 81.364157 
L 1.929952 83.578076 
L 137.611547 184.186577 
L 289.124975 299.211541 
L 289.333288 299.364907 
L 289.541602 299.518274 
L 290.860922 300.438474 
" clip-path="url(#p2eccd2174b)" style="fill: none; stroke: #7a7a7a; stroke-width: 3; stroke-linecap: square"/>
   </g>
   <g id="line2d_51">
    <path d="M 290.860922 240.932226 
L 289.541602 240.012026 
L 289.333288 239.85866 
L 289.124975 239.705293 
L 18.94223 35.881058 
L -1 21.100521 
" clip-path="url(#p2eccd2174b)" style="fill: none; stroke: #7a7a7a; stroke-width: 3; stroke-linecap: square"/>
   </g>
   <g id="line2d_52">
    <path d="M 290.860922 181.119245 
L 289.541602 180.199045 
L 289.333288 180.045679 
L 289.124975 179.892312 
L 50.00037 -1 
" clip-path="url(#p2eccd2174b)" style="fill: none; stroke: #7a7a7a; stroke-width: 3; stroke-linecap: square"/>
   </g>
   <g id="line2d_53">
    <path d="M 1154.945752 917.585743 
L 1160.500782 955.467298 
L 1162.306166 983.840122 
L 1162.51448 1015.587012 
L 1161.195161 1050.707967 
" clip-path="url(#p2eccd2174b)" style="fill: none; stroke: #7a7a7a; stroke-width: 3; stroke-linecap: square"/>
   </g>
   <g id="line2d_54">
    <path d="M 1126.267913 946.111934 
L 1130.573061 969.270293 
L 1133.350575 994.422418 
L 1135.017084 1022.335143 
L 1135.850339 1053.468566 
" clip-path="url(#p2eccd2174b)" style="fill: none; stroke: #7a7a7a; stroke-width: 3; stroke-linecap: square"/>
   </g>
   <g id="line2d_55">
    <path d="M 1233.410543 840.749068 
L 1231.257969 827.252805 
L 1228.063827 803.941079 
L 1226.258443 776.181722 
L 1225.772378 743.207899 
L 1226.813946 704.559511 
L 1229.383147 659.469725 
L 1233.688295 607.171709 
" clip-path="url(#p2eccd2174b)" style="fill: none; stroke: #7a7a7a; stroke-width: 3; stroke-linecap: square"/>
   </g>
   <g id="line2d_56">
    <path d="M 1262.852199 811.60941 
L 1258.755365 787.070751 
L 1258.199862 783.850052 
L 1254.172466 750.87623 
L 1253.478087 739.067 
L 1253.686401 732.778969 
L 1254.241904 727.25777 
L 1258.547052 700.725346 
L 1262.296696 678.487186 
L 1266.254655 656.862493 
L 1269.726548 635.851266 
" clip-path="url(#p2eccd2174b)" style="fill: none; stroke: #7a7a7a; stroke-width: 3; stroke-linecap: square"/>
   </g>
   <g id="line2d_57">
    <path d="M 1374.577729 1002.397483 
L 1441 1047.928847 
" clip-path="url(#p2eccd2174b)" style="fill: none; stroke: #7a7a7a; stroke-width: 3; stroke-linecap: square"/>
   </g>
   <g id="line2d_58">
    <path d="M 1363.745422 1055.308966 
L 1441 1108.037734 
" clip-path="url(#p2eccd2174b)" style="fill: none; stroke: #7a7a7a; stroke-width: 3; stroke-linecap: square"/>
   </g>
   <g id="line2d_59">
    <path d="M 1441 1047.928847 
L 1374.577729 1002.397483 
" clip-path="url(#p2eccd2174b)" style="fill: none; stroke: #7a7a7a; stroke-width: 3; stroke-linecap: square"/>
   </g>
   <g id="line2d_60">
    <path d="M 1441 988.216119 
L 1383.67409 948.5658 
" clip-path="url(#p2eccd2174b)" style="fill: none; stroke: #7a7a7a; stroke-width: 3; stroke-linecap: square"/>
   </g>
   <g id="line2d_61">
    <path d="M 1154.945752 917.585743 
L 1156.056758 922.340108 
L 1159.042587 931.848838 
L 1162.583918 944.271534 
L 1173.693977 961.755329 
L 1187.442675 971.877526 
L 1201.677438 972.337625 
L 1207.163029 967.58326 
L 1208.7601 966.663061 
L 1212.648621 963.442362 
L 1214.454005 961.295229 
" clip-path="url(#p2eccd2174b)" style="fill: none; stroke: #7a7a7a; stroke-width: 3; stroke-linecap: square"/>
   </g>
   <g id="line2d_62">
    <path d="M 1126.267913 946.111934 
L 1127.448357 950.099466 
L 1131.89238 972.490992 
L 1139.669421 992.735386 
L 1150.015664 1010.21918 
L 1162.306166 1024.328909 
L 1175.777113 1034.604472 
L 1189.734124 1040.279037 
L 1203.55226 1040.739137 
L 1216.467704 1035.524672 
L 1227.786076 1024.022176 
" clip-path="url(#p2eccd2174b)" style="fill: none; stroke: #7a7a7a; stroke-width: 3; stroke-linecap: square"/>
   </g>
   <g id="line2d_63">
    <path d="M 1374.577729 1002.397483 
L 1357.357138 984.913688 
L 1340.067109 972.030892 
L 1331.387375 965.896228 
L 1300.140335 943.351335 
L 1286.59995 928.014673 
L 1281.947613 922.493475 
" clip-path="url(#p2eccd2174b)" style="fill: none; stroke: #7a7a7a; stroke-width: 3; stroke-linecap: square"/>
   </g>
   <g id="line2d_64">
    <path d="M 1383.67409 948.5658 
L 1347.080333 932.308938 
L 1342.219683 929.701706 
L 1337.220156 925.714174 
L 1317.083174 909.917412 
L 1309.445009 902.402448 
L 1294.09924 882.924887 
" clip-path="url(#p2eccd2174b)" style="fill: none; stroke: #7a7a7a; stroke-width: 3; stroke-linecap: square"/>
   </g>
   <g id="line2d_65">
    <path d="M 1112.727529 838.141835 
L 1114.671789 840.595701 
L 1125.365221 852.711664 
L 1135.989214 868.968525 
L 1144.807824 887.065786 
L 1151.75161 907.31018 
L 1154.945752 917.585743 
" clip-path="url(#p2eccd2174b)" style="fill: none; stroke: #7a7a7a; stroke-width: 3; stroke-linecap: square"/>
   </g>
   <g id="line2d_66">
    <path d="M 1101.339718 883.231621 
L 1106.130931 891.513418 
L 1112.172026 903.936114 
L 1116.546611 914.365044 
L 1119.18525 922.033375 
L 1120.15738 924.487241 
L 1120.782321 926.634373 
L 1120.921197 926.941107 
L 1124.184777 938.903703 
L 1126.267913 946.111934 
" clip-path="url(#p2eccd2174b)" style="fill: none; stroke: #7a7a7a; stroke-width: 3; stroke-linecap: square"/>
   </g>
   <g id="line2d_67">
    <path d="M 1312.153086 29.286294 
L 1311.875334 31.28006 
L 1311.736459 32.200259 
L 1311.736459 32.660359 
L 1246.187111 500.735276 
" clip-path="url(#p2eccd2174b)" style="fill: none; stroke: #7a7a7a; stroke-width: 3; stroke-linecap: square"/>
   </g>
   <g id="line2d_68">
    <path d="M 1270.629241 29.286294 
L 1270.351489 31.28006 
L 1270.212613 32.200259 
L 1270.212613 32.660359 
L 1227.716638 331.87863 
L 1212.370869 443.376161 
L 1208.065721 470.522053 
" clip-path="url(#p2eccd2174b)" style="fill: none; stroke: #7a7a7a; stroke-width: 3; stroke-linecap: square"/>
   </g>
   <g id="line2d_69">
    <path d="M 1140.710989 1254.532202 
L 1145.779954 1240.729206 
L 1147.377025 1226.619478 
L 1158.764835 1148.095769 
L 1159.042587 1146.408737 
L 1167.305693 1092.423687 
L 1175.360486 1062.977297 
" clip-path="url(#p2eccd2174b)" style="fill: none; stroke: #7a7a7a; stroke-width: 3; stroke-linecap: square"/>
   </g>
   <g id="line2d_70">
    <path d="M 1176.957557 1278.917494 
L 1170.430397 1249.011004 
L 1168.833326 1237.968607 
L 1168.416699 1226.159378 
L 1169.111077 1215.116981 
L 1171.124776 1199.013486 
L 1173.346787 1185.057124 
L 1175.360486 1174.321461 
L 1179.387882 1155.150634 
L 1182.095959 1138.280306 
L 1184.595722 1126.624443 
L 1191.19232 1101.932417 
" clip-path="url(#p2eccd2174b)" style="fill: none; stroke: #7a7a7a; stroke-width: 3; stroke-linecap: square"/>
   </g>
   <g id="line2d_71">
    <path d="M 1233.688295 607.171709 
L 1246.464863 522.820069 
L 1246.256549 514.231539 
L 1246.187111 500.735276 
" clip-path="url(#p2eccd2174b)" style="fill: none; stroke: #7a7a7a; stroke-width: 3; stroke-linecap: square"/>
   </g>
   <g id="line2d_72">
    <path d="M 1269.726548 635.851266 
L 1280.836607 559.167958 
L 1285.141755 530.181667 
" clip-path="url(#p2eccd2174b)" style="fill: none; stroke: #7a7a7a; stroke-width: 3; stroke-linecap: square"/>
   </g>
   <g id="line2d_73">
    <path d="M 1281.947613 922.493475 
L 1272.295749 911.451078 
L 1263.338265 900.715415 
L 1255.075158 889.519652 
L 1247.645306 877.250323 
L 1241.118147 863.29396 
L 1233.410543 840.749068 
" clip-path="url(#p2eccd2174b)" style="fill: none; stroke: #7a7a7a; stroke-width: 3; stroke-linecap: square"/>
   </g>
   <g id="line2d_74">
    <path d="M 1294.09924 882.924887 
L 1285.488944 869.428625 
L 1281.253234 861.760294 
L 1273.337318 844.2765 
L 1268.407229 831.853804 
L 1266.879596 827.099439 
L 1266.185217 825.259039 
L 1265.907466 823.87874 
L 1265.421401 822.49844 
L 1262.852199 811.60941 
" clip-path="url(#p2eccd2174b)" style="fill: none; stroke: #7a7a7a; stroke-width: 3; stroke-linecap: square"/>
   </g>
   <g id="line2d_75">
    <path d="M 1229.105396 603.49091 
L 1220.772851 653.028328 
L 1216.537141 674.653021 
L 1211.954242 691.676715 
L 1209.315603 701.338812 
L 1197.094538 751.949796 
L 1189.109183 771.27399 
L 1177.443622 789.83135 
" clip-path="url(#p2eccd2174b)" style="fill: none; stroke: #7a7a7a; stroke-width: 3; stroke-linecap: square"/>
   </g>
   <g id="line2d_76">
    <path d="M 1210.634923 591.068214 
L 1207.371343 609.165475 
L 1203.830012 624.80887 
L 1203.55226 626.342536 
L 1203.205071 627.722836 
L 1202.510692 630.790168 
L 1199.872053 640.758998 
L 1196.122408 655.942293 
L 1188.345367 680.327585 
L 1187.026047 683.394918 
L 1186.053917 686.155517 
L 1180.915515 698.118113 
L 1180.151698 699.958513 
L 1178.693503 702.565745 
L 1176.054864 707.78021 
L 1172.860722 712.841308 
L 1171.402527 715.448541 
L 1170.708148 716.368741 
L 1170.360959 716.982207 
L 1163.069983 726.490937 
L 1162.236729 727.411137 
" clip-path="url(#p2eccd2174b)" style="fill: none; stroke: #7a7a7a; stroke-width: 3; stroke-linecap: square"/>
   </g>
   <g id="line2d_77">
    <path d="M 1214.454005 961.295229 
L 1219.245218 957.000964 
L 1230.494153 950.406199 
L 1243.965099 947.032134 
L 1260.144123 946.878767 
L 1279.44785 949.946099 
" clip-path="url(#p2eccd2174b)" style="fill: none; stroke: #7a7a7a; stroke-width: 3; stroke-linecap: square"/>
   </g>
   <g id="line2d_78">
    <path d="M 1227.786076 1024.022176 
L 1229.174833 1022.948609 
L 1236.257496 1017.274044 
L 1242.159715 1014.206712 
L 1246.742614 1012.673046 
L 1251.881016 1011.292746 
L 1257.227732 1009.605714 
L 1259.935809 1009.452347 
L 1260.282998 1009.29898 
L 1268.962732 1008.072047 
L 1276.253708 1008.072047 
" clip-path="url(#p2eccd2174b)" style="fill: none; stroke: #7a7a7a; stroke-width: 3; stroke-linecap: square"/>
   </g>
   <g id="line2d_79">
    <path d="M 1118.838061 1409.585852 
L 1118.976937 1408.205553 
L 1119.18525 1407.131987 
L 1140.710989 1254.532202 
" clip-path="url(#p2eccd2174b)" style="fill: none; stroke: #7a7a7a; stroke-width: 3; stroke-linecap: square"/>
   </g>
   <g id="line2d_80">
    <path d="M 1161.958977 1409.585852 
L 1162.097853 1408.205553 
L 1162.236729 1407.131987 
L 1176.957557 1278.917494 
" clip-path="url(#p2eccd2174b)" style="fill: none; stroke: #7a7a7a; stroke-width: 3; stroke-linecap: square"/>
   </g>
   <g id="line2d_81">
    <path d="M 1114.463475 803.174246 
L 1104.742174 801.18048 
L 1087.93821 796.426115 
L 1082.938683 793.052049 
L 1082.660932 792.898683 
L 1079.536228 790.75155 
L 1065.995843 781.70292 
L 1050.233447 771.27399 
L 1030.513093 758.54456 
L 1027.318951 758.54456 
L 1024.263685 760.84506 
" clip-path="url(#p2eccd2174b)" style="fill: none; stroke: #7a7a7a; stroke-width: 3; stroke-linecap: square"/>
   </g>
   <g id="line2d_82">
    <path d="M 1118.699185 748.57573 
L 1102.381286 748.729097 
L 1093.979304 747.962264 
L 1081.133299 744.434832 
L 1072.453565 741.060766 
L 1061.20463 735.079468 
L 1056.899483 731.091936 
L 1032.040726 703.792678 
" clip-path="url(#p2eccd2174b)" style="fill: none; stroke: #7a7a7a; stroke-width: 3; stroke-linecap: square"/>
   </g>
   <g id="line2d_83">
    <path d="M 1279.44785 949.946099 
L 1293.821489 954.393731 
L 1322.013263 973.257825 
L 1348.330215 991.355086 
L 1355.34344 996.109451 
L 1374.577729 1002.397483 
" clip-path="url(#p2eccd2174b)" style="fill: none; stroke: #7a7a7a; stroke-width: 3; stroke-linecap: square"/>
   </g>
   <g id="line2d_84">
    <path d="M 1276.253708 1008.072047 
L 1289.516341 1008.072047 
L 1304.86211 1011.906213 
L 1322.638204 1019.574544 
L 1329.998618 1024.789009 
L 1333.123322 1028.163074 
L 1363.745422 1055.308966 
" clip-path="url(#p2eccd2174b)" style="fill: none; stroke: #7a7a7a; stroke-width: 3; stroke-linecap: square"/>
   </g>
   <g id="line2d_85">
    <path d="M 1246.187111 500.735276 
L 1311.736459 32.660359 
L 1311.736459 32.200259 
L 1311.875334 31.28006 
L 1312.153086 29.286294 
" clip-path="url(#p2eccd2174b)" style="fill: none; stroke: #7a7a7a; stroke-width: 3; stroke-linecap: square"/>
   </g>
   <g id="line2d_86">
    <path d="M 1285.141755 530.181667 
L 1354.787937 32.660359 
L 1354.787937 32.200259 
L 1354.926813 31.28006 
L 1355.204564 29.286294 
" clip-path="url(#p2eccd2174b)" style="fill: none; stroke: #7a7a7a; stroke-width: 3; stroke-linecap: square"/>
   </g>
   <g id="line2d_87">
    <path d="M 1246.187111 500.735276 
L 1242.576342 512.084406 
L 1241.395898 517.145504 
L 1233.20223 576.651752 
L 1231.049656 590.914847 
L 1229.105396 603.49091 
" clip-path="url(#p2eccd2174b)" style="fill: none; stroke: #7a7a7a; stroke-width: 3; stroke-linecap: square"/>
   </g>
   <g id="line2d_88">
    <path d="M 1208.065721 470.522053 
L 1218.134212 525.427302 
L 1218.689715 532.788899 
L 1218.20365 541.37743 
L 1216.606579 553.800126 
L 1210.634923 591.068214 
" clip-path="url(#p2eccd2174b)" style="fill: none; stroke: #7a7a7a; stroke-width: 3; stroke-linecap: square"/>
   </g>
   <g id="line2d_89">
    <path d="M 1175.360486 1062.977297 
L 1177.304746 1057.762832 
L 1178.762941 1049.787767 
L 1181.957083 1037.671805 
L 1188.345367 1015.280278 
L 1194.803089 996.109451 
L 1201.816313 979.85259 
L 1214.454005 961.295229 
" clip-path="url(#p2eccd2174b)" style="fill: none; stroke: #7a7a7a; stroke-width: 3; stroke-linecap: square"/>
   </g>
   <g id="line2d_90">
    <path d="M 1191.19232 1101.932417 
L 1199.177674 1075.860092 
L 1202.649568 1066.504729 
L 1207.093591 1055.922432 
L 1209.454479 1051.0147 
L 1210.634923 1048.254101 
L 1211.884804 1046.106969 
L 1216.051076 1039.052104 
L 1216.676017 1038.131904 
L 1219.106343 1034.144372 
L 1221.120041 1031.843873 
L 1221.814419 1030.770307 
L 1227.786076 1024.022176 
" clip-path="url(#p2eccd2174b)" style="fill: none; stroke: #7a7a7a; stroke-width: 3; stroke-linecap: square"/>
   </g>
   <g id="line2d_91">
    <path d="M 1024.263685 760.84506 
L 917.25993 686.00215 
L 916.496113 685.54205 
L 916.079486 685.235317 
L 915.801735 685.081951 
" clip-path="url(#p2eccd2174b)" style="fill: none; stroke: #7a7a7a; stroke-width: 3; stroke-linecap: square"/>
   </g>
   <g id="line2d_92">
    <path d="M 1032.040726 703.792678 
L 917.25993 625.575703 
L 916.496113 625.115603 
L 916.148924 624.80887 
L 915.801735 624.655503 
" clip-path="url(#p2eccd2174b)" style="fill: none; stroke: #7a7a7a; stroke-width: 3; stroke-linecap: square"/>
   </g>
   <g id="line2d_93">
    <path d="M 1177.443622 789.83135 
L 1171.95803 794.432349 
L 1162.445042 800.106914 
L 1152.168238 803.02088 
L 1140.849865 803.941079 
L 1114.463475 803.174246 
" clip-path="url(#p2eccd2174b)" style="fill: none; stroke: #7a7a7a; stroke-width: 3; stroke-linecap: square"/>
   </g>
   <g id="line2d_94">
    <path d="M 1162.236729 727.411137 
L 1157.445516 732.318869 
L 1150.085102 737.993434 
L 1144.182883 741.520866 
L 1135.086522 745.048298 
L 1130.92025 746.275231 
L 1127.101167 747.348797 
L 1118.699185 748.57573 
" clip-path="url(#p2eccd2174b)" style="fill: none; stroke: #7a7a7a; stroke-width: 3; stroke-linecap: square"/>
   </g>
   <g id="line2d_95">
    <path d="M 1024.263685 760.84506 
L 1028.082767 766.212891 
L 1058.149364 788.757784 
L 1069.328861 797.192948 
L 1083.424748 806.855045 
L 1086.757766 810.229111 
L 1090.368535 814.216643 
L 1097.173446 820.964774 
L 1112.727529 838.141835 
" clip-path="url(#p2eccd2174b)" style="fill: none; stroke: #7a7a7a; stroke-width: 3; stroke-linecap: square"/>
   </g>
   <g id="line2d_96">
    <path d="M 1017.528211 814.830109 
L 1040.581584 823.265273 
L 1043.428536 824.032106 
L 1049.747382 827.712905 
L 1059.190932 834.921136 
L 1077.244778 852.098197 
L 1084.258003 859.919895 
L 1090.8546 868.355059 
L 1101.339718 883.231621 
" clip-path="url(#p2eccd2174b)" style="fill: none; stroke: #7a7a7a; stroke-width: 3; stroke-linecap: square"/>
   </g>
   <g id="line2d_97">
    <path d="M 1161.195161 1050.707967 
L 1159.806403 1089.509721 
L 1151.890486 1158.984799 
L 1143.766256 1209.442416 
L 1141.752557 1221.865112 
L 1140.155486 1238.121974 
L 1140.710989 1254.532202 
" clip-path="url(#p2eccd2174b)" style="fill: none; stroke: #7a7a7a; stroke-width: 3; stroke-linecap: square"/>
   </g>
   <g id="line2d_98">
    <path d="M 1135.850339 1053.468566 
L 1135.433711 1084.448623 
L 1132.170132 1141.961105 
L 1130.850812 1156.6843 
L 1128.698238 1173.861361 
L 1126.892854 1181.683059 
L 1124.462528 1187.357623 
L 1102.381286 1228.76661 
" clip-path="url(#p2eccd2174b)" style="fill: none; stroke: #7a7a7a; stroke-width: 3; stroke-linecap: square"/>
   </g>
   <g id="line2d_99">
    <path d="M 1214.454005 961.295229 
L 1216.189952 959.148096 
L 1219.245218 954.700464 
L 1224.314183 947.6456 
L 1231.605159 926.174274 
L 1235.979744 900.255315 
L 1237.160188 873.876257 
L 1236.46581 866.054559 
L 1236.326934 862.527127 
L 1235.771431 855.318896 
L 1234.590987 846.883732 
L 1233.410543 840.749068 
" clip-path="url(#p2eccd2174b)" style="fill: none; stroke: #7a7a7a; stroke-width: 3; stroke-linecap: square"/>
   </g>
   <g id="line2d_100">
    <path d="M 1227.786076 1024.022176 
L 1239.451638 1009.605714 
L 1249.242377 988.90122 
L 1257.158294 963.442362 
L 1263.060513 934.762804 
L 1266.810158 904.702947 
L 1268.407229 874.64309 
L 1267.643412 846.423632 
L 1264.518708 821.424874 
L 1262.852199 811.60941 
" clip-path="url(#p2eccd2174b)" style="fill: none; stroke: #7a7a7a; stroke-width: 3; stroke-linecap: square"/>
   </g>
   <g id="line2d_101">
    <path d="M 1140.710989 1254.532202 
L 1119.18525 1407.131987 
L 1118.976937 1408.205553 
L 1118.838061 1409.585852 
" clip-path="url(#p2eccd2174b)" style="fill: none; stroke: #7a7a7a; stroke-width: 3; stroke-linecap: square"/>
   </g>
   <g id="line2d_102">
    <path d="M 1102.381286 1228.76661 
L 1076.619837 1407.131987 
L 1076.480961 1408.205553 
L 1076.272648 1409.585852 
" clip-path="url(#p2eccd2174b)" style="fill: none; stroke: #7a7a7a; stroke-width: 3; stroke-linecap: square"/>
   </g>
   <g id="line2d_103">
    <path d="M 1177.443622 789.83135 
L 1176.540929 790.75155 
L 1172.93016 794.739082 
L 1169.458267 799.800181 
L 1165.986373 805.628112 
L 1162.375604 812.836343 
L 1159.042587 821.11814 
L 1156.959451 827.406172 
L 1154.945752 835.227869 
L 1153.556995 842.282734 
L 1151.890486 853.78523 
L 1151.196107 861.606928 
L 1150.77948 870.962291 
L 1150.77948 880.931121 
L 1151.12667 889.979752 
L 1151.057232 891.973518 
L 1151.612735 895.194217 
L 1151.821048 898.108183 
L 1153.001492 907.463546 
L 1154.598563 916.052077 
L 1154.945752 917.585743 
" clip-path="url(#p2eccd2174b)" style="fill: none; stroke: #7a7a7a; stroke-width: 3; stroke-linecap: square"/>
   </g>
   <g id="line2d_104">
    <path d="M 1162.236729 727.411137 
L 1160.431344 729.711636 
L 1149.737912 742.441066 
L 1140.3638 760.84506 
L 1132.517321 783.850052 
L 1126.267913 810.075744 
L 1121.823889 838.295202 
L 1119.393564 867.281492 
L 1119.254688 895.807683 
L 1121.4767 922.493475 
L 1126.267913 946.111934 
" clip-path="url(#p2eccd2174b)" style="fill: none; stroke: #7a7a7a; stroke-width: 3; stroke-linecap: square"/>
   </g>
   <g id="line2d_105">
    <path d="M 1233.410543 840.749068 
L 1232.85504 837.528369 
L 1230.91078 829.706671 
L 1228.411017 821.271507 
L 1226.813946 817.283975 
L 1225.147437 811.456044 
L 1214.037378 792.898683 
L 1208.135159 788.144318 
L 1201.399686 782.929853 
L 1188.692556 782.009653 
L 1182.7209 786.150552 
L 1179.665633 787.990951 
L 1177.443622 789.83135 
" clip-path="url(#p2eccd2174b)" style="fill: none; stroke: #7a7a7a; stroke-width: 3; stroke-linecap: square"/>
   </g>
   <g id="line2d_106">
    <path d="M 1262.852199 811.60941 
L 1262.50501 809.615644 
L 1256.255602 785.230352 
L 1247.436993 763.759025 
L 1236.604685 745.508398 
L 1224.38362 730.938569 
L 1211.329301 720.509639 
L 1197.997231 714.528341 
L 1185.012349 713.454775 
L 1172.860722 717.595674 
L 1162.236729 727.411137 
" clip-path="url(#p2eccd2174b)" style="fill: none; stroke: #7a7a7a; stroke-width: 3; stroke-linecap: square"/>
   </g>
   <g id="line2d_107">
    <path d="M 915.801735 685.081951 
L 916.079486 685.235317 
L 916.496113 685.54205 
L 917.25993 686.00215 
L 1024.263685 760.84506 
" clip-path="url(#p2eccd2174b)" style="fill: none; stroke: #7a7a7a; stroke-width: 3; stroke-linecap: square"/>
   </g>
   <g id="line2d_108">
    <path d="M 915.801735 744.894932 
L 916.079486 745.048298 
L 916.426675 745.355031 
L 917.25993 745.815131 
L 1017.528211 814.830109 
" clip-path="url(#p2eccd2174b)" style="fill: none; stroke: #7a7a7a; stroke-width: 3; stroke-linecap: square"/>
   </g>
   <g id="line2d_109">
    <path d="M 708.182509 541.83753 
L 914.204664 683.855018 
L 914.412977 684.008384 
L 914.621291 684.161751 
L 915.801735 685.081951 
" clip-path="url(#p2eccd2174b)" style="fill: none; stroke: #7a7a7a; stroke-width: 3; stroke-linecap: square"/>
   </g>
   <g id="line2d_110">
    <path d="M 700.960971 595.822579 
L 914.204664 743.821365 
L 914.412977 743.821365 
L 914.621291 743.974732 
L 915.801735 744.894932 
" clip-path="url(#p2eccd2174b)" style="fill: none; stroke: #7a7a7a; stroke-width: 3; stroke-linecap: square"/>
   </g>
   <g id="line2d_111">
    <path d="M 708.182509 541.83753 
L 538.684673 425.432267 
" clip-path="url(#p2eccd2174b)" style="fill: none; stroke: #7a7a7a; stroke-width: 3; stroke-linecap: square"/>
   </g>
   <g id="line2d_112">
    <path d="M 714.084728 485.398614 
L 546.808903 369.606818 
" clip-path="url(#p2eccd2174b)" style="fill: none; stroke: #7a7a7a; stroke-width: 3; stroke-linecap: square"/>
   </g>
   <g id="line2d_113">
    <path d="M 499.335999 462.655105 
L 531.247158 411.441242 
" clip-path="url(#p2eccd2174b)" style="fill: none; stroke-dasharray: 32,8,5,8; stroke-dashoffset: 0; stroke: #1e90ff; stroke-width: 5"/>
   </g>
   <g id="line2d_114">
    <path d="M 138.875736 76.683309 
L 145.405879 86.490572 
" clip-path="url(#p2eccd2174b)" style="fill: none; stroke-dasharray: 32,8,5,8; stroke-dashoffset: 0; stroke: #1e90ff; stroke-width: 5"/>
   </g>
   <g id="line2d_115">
    <path d="M 1267.283051 889.408086 
L 1335.843198 979.900147 
" clip-path="url(#p2eccd2174b)" style="fill: none; stroke-dasharray: 32,8,5,8; stroke-dashoffset: 0; stroke: #1e90ff; stroke-width: 5"/>
   </g>
   <g id="line2d_116">
    <path d="M 810.49046 614.892933 
L 943.91551 723.630511 
" clip-path="url(#p2eccd2174b)" style="fill: none; stroke-dasharray: 32,8,5,8; stroke-dashoffset: 0; stroke: #1e90ff; stroke-width: 5"/>
   </g>
   <g id="line2d_117">
    <path d="M 499.335999 462.655105 
" clip-path="url(#p2eccd2174b)" style="fill: none; stroke: #0000ff; stroke-width: 1.5; stroke-linecap: square"/>
    <defs>
     <path id="m8082c68a01" d="M 0 10 
C 2.652031 10 5.195799 8.946337 7.071068 7.071068 
C 8.946337 5.195799 10 2.652031 10 0 
C 10 -2.652031 8.946337 -5.195799 7.071068 -7.071068 
C 5.195799 -8.946337 2.652031 -10 0 -10 
C -2.652031 -10 -5.195799 -8.946337 -7.071068 -7.071068 
C -8.946337 -5.195799 -10 -2.652031 -10 0 
C -10 2.652031 -8.946337 5.195799 -7.071068 7.071068 
C -5.195799 8.946337 -2.652031 10 0 10 
z
" style="stroke: #0000ff"/>
    </defs>
    <g clip-path="url(#p2eccd2174b)">
     <use xlink:href="#m8082c68a01" x="499.335999" y="462.655105" style="fill: #0000ff; stroke: #0000ff"/>
    </g>
   </g>
   <g id="line2d_118">
    <path d="M 138.875736 76.683309 
" clip-path="url(#p2eccd2174b)" style="fill: none; stroke: #0000ff; stroke-width: 1.5; stroke-linecap: square"/>
    <g clip-path="url(#p2eccd2174b)">
     <use xlink:href="#m8082c68a01" x="138.875736" y="76.683309" style="fill: #0000ff; stroke: #0000ff"/>
    </g>
   </g>
   <g id="line2d_119">
    <path d="M 1267.283051 889.408086 
" clip-path="url(#p2eccd2174b)" style="fill: none; stroke: #0000ff; stroke-width: 1.5; stroke-linecap: square"/>
    <g clip-path="url(#p2eccd2174b)">
     <use xlink:href="#m8082c68a01" x="1267.283051" y="889.408086" style="fill: #0000ff; stroke: #0000ff"/>
    </g>
   </g>
   <g id="line2d_120">
    <path d="M 810.49046 614.892933 
" clip-path="url(#p2eccd2174b)" style="fill: none; stroke: #0000ff; stroke-width: 1.5; stroke-linecap: square"/>
    <g clip-path="url(#p2eccd2174b)">
     <use xlink:href="#m8082c68a01" x="810.49046" y="614.892933" style="fill: #0000ff; stroke: #0000ff"/>
    </g>
   </g>
   <g id="line2d_121">
    <path d="M 531.247158 411.441242 
" clip-path="url(#p2eccd2174b)" style="fill: none; stroke: #ff0000; stroke-width: 1.5; stroke-linecap: square"/>
    <defs>
     <path id="mba64d5622e" d="M 0 -10 
L -2.24514 -3.09017 
L -9.510565 -3.09017 
L -3.632713 1.18034 
L -5.877853 8.09017 
L -0 3.81966 
L 5.877853 8.09017 
L 3.632713 1.18034 
L 9.510565 -3.09017 
L 2.24514 -3.09017 
z
" style="stroke: #ff0000; stroke-linejoin: bevel"/>
    </defs>
    <g clip-path="url(#p2eccd2174b)">
     <use xlink:href="#mba64d5622e" x="531.247158" y="411.441242" style="fill: #ff0000; stroke: #ff0000; stroke-linejoin: bevel"/>
    </g>
   </g>
   <g id="line2d_122">
    <path d="M 145.405879 86.490572 
" clip-path="url(#p2eccd2174b)" style="fill: none; stroke: #ff0000; stroke-width: 1.5; stroke-linecap: square"/>
    <g clip-path="url(#p2eccd2174b)">
     <use xlink:href="#mba64d5622e" x="145.405879" y="86.490572" style="fill: #ff0000; stroke: #ff0000; stroke-linejoin: bevel"/>
    </g>
   </g>
   <g id="line2d_123">
    <path d="M 1335.843198 979.900147 
" clip-path="url(#p2eccd2174b)" style="fill: none; stroke: #ff0000; stroke-width: 1.5; stroke-linecap: square"/>
    <g clip-path="url(#p2eccd2174b)">
     <use xlink:href="#mba64d5622e" x="1335.843198" y="979.900147" style="fill: #ff0000; stroke: #ff0000; stroke-linejoin: bevel"/>
    </g>
   </g>
   <g id="line2d_124">
    <path d="M 943.91551 723.630511 
" clip-path="url(#p2eccd2174b)" style="fill: none; stroke: #ff0000; stroke-width: 1.5; stroke-linecap: square"/>
    <g clip-path="url(#p2eccd2174b)">
     <use xlink:href="#mba64d5622e" x="943.91551" y="723.630511" style="fill: #ff0000; stroke: #ff0000; stroke-linejoin: bevel"/>
    </g>
   </g>
  </g>
 </g>
 <defs>
  <clipPath id="p2eccd2174b">
   <rect x="0" y="0" width="1440" height="1440"/>
  </clipPath>
 </defs>
</svg>
