<?xml version="1.0" encoding="utf-8" standalone="no"?>
<!DOCTYPE svg PUBLIC "-//W3C//DTD SVG 1.1//EN"
  "http://www.w3.org/Graphics/SVG/1.1/DTD/svg11.dtd">
<svg xmlns:xlink="http://www.w3.org/1999/xlink" width="1440pt" height="1440pt" viewBox="0 0 1440 1440" xmlns="http://www.w3.org/2000/svg" version="1.1">
 <metadata>
  <rdf:RDF xmlns:dc="http://purl.org/dc/elements/1.1/" xmlns:cc="http://creativecommons.org/ns#" xmlns:rdf="http://www.w3.org/1999/02/22-rdf-syntax-ns#">
   <cc:Work>
    <dc:type rdf:resource="http://purl.org/dc/dcmitype/StillImage"/>
    <dc:date>2026-02-27T11:07:23.399566</dc:date>
    <dc:format>image/svg+xml</dc:format>
    <dc:creator>
     <cc:Agent>
      <dc:title>Matplotlib v3.7.3, https://matplotlib.org/</dc:title>
     </cc:Agent>
    </dc:creator>
   </cc:Work>
  </rdf:RDF>
 </metadata>
 <defs>
  <style type="text/css">*{stroke-linejoin: round; stroke-linecap: butt}</style>
 </defs>
 <g id="figure_1">
  <g id="patch_1">
   <path d="M 0 1440 
L 1440 1440 
L 1440 0 
L 0 0 
z
" style="fill: #ffffff"/>
  </g>
  <g id="axes_1">
   <g id="line2d_1">
    <path d="M 999.879177 566.188087 
L 1186.555178 562.93364 
L 1294.136007 561.943156 
L 1295.085529 561.943156 
L 1296.319907 561.872407 
" clip-path="url(#paa812ab976)" style="fill: none; stroke: #7a7a7a; stroke-width: 3; stroke-linecap: square"/>
   </g>
   <g id="line2d_2">
    <path d="M 988.864723 589.46446 
L 1294.230959 584.865785 
L 1295.085529 584.865785 
L 1296.319907 584.795036 
" clip-path="url(#paa812ab976)" style="fill: none; stroke: #7a7a7a; stroke-width: 3; stroke-linecap: square"/>
   </g>
   <g id="line2d_3">
    <path d="M 1129.014152 422.497165 
L 1084.766433 422.992407 
L 1054.761542 423.133904 
L 1040.613666 423.487648 
L 1038.61967 423.841393 
L 710.369957 428.864561 
" clip-path="url(#paa812ab976)" style="fill: none; stroke: #7a7a7a; stroke-width: 3; stroke-linecap: square"/>
   </g>
   <g id="line2d_4">
    <path d="M 1151.992582 398.230308 
L 727.936111 405.092946 
" clip-path="url(#paa812ab976)" style="fill: none; stroke: #7a7a7a; stroke-width: 3; stroke-linecap: square"/>
   </g>
   <g id="line2d_5">
    <path d="M 329.516731 545.387924 
L 371.485598 545.246427 
L 583.79869 544.609687 
" clip-path="url(#paa812ab976)" style="fill: none; stroke: #7a7a7a; stroke-width: 3; stroke-linecap: square"/>
   </g>
   <g id="line2d_6">
    <path d="M 329.326827 570.008526 
L 376.043303 569.796279 
L 569.271006 569.08879 
" clip-path="url(#paa812ab976)" style="fill: none; stroke: #7a7a7a; stroke-width: 3; stroke-linecap: square"/>
   </g>
   <g id="line2d_7">
    <path d="M 1117.145129 281.494698 
L 1205.640568 183.436786 
" clip-path="url(#paa812ab976)" style="fill: none; stroke: #7a7a7a; stroke-width: 3; stroke-linecap: square"/>
   </g>
   <g id="line2d_8">
    <path d="M 1148.194494 285.032141 
L 1149.333921 281.98994 
L 1153.796673 276.330032 
L 1157.499809 273.146333 
L 1215.230739 207.632894 
L 1227.194715 194.261361 
" clip-path="url(#paa812ab976)" style="fill: none; stroke: #7a7a7a; stroke-width: 3; stroke-linecap: square"/>
   </g>
   <g id="line2d_9">
    <path d="M 329.611684 523.102035 
L 535.752883 523.455779 
L 583.323929 523.385031 
L 596.522283 523.455779 
" clip-path="url(#paa812ab976)" style="fill: none; stroke: #7a7a7a; stroke-width: 3; stroke-linecap: square"/>
   </g>
   <g id="line2d_10">
    <path d="M 329.516731 545.387924 
L 371.485598 545.246427 
L 583.79869 544.609687 
" clip-path="url(#paa812ab976)" style="fill: none; stroke: #7a7a7a; stroke-width: 3; stroke-linecap: square"/>
   </g>
   <g id="line2d_11">
    <path d="M 685.112675 780.557116 
L 686.252101 779.354385 
L 686.442005 779.142138 
L 686.821814 778.717645 
L 687.296575 778.222403 
L 687.581431 777.939408 
L 803.518053 646.771032 
" clip-path="url(#paa812ab976)" style="fill: none; stroke: #7a7a7a; stroke-width: 3; stroke-linecap: square"/>
   </g>
   <g id="line2d_12">
    <path d="M 714.547853 780.557116 
L 715.687279 779.354385 
L 715.877183 779.142138 
L 716.256992 778.717645 
L 716.731753 778.222403 
L 717.01661 777.939408 
L 732.873625 759.686204 
L 758.130907 731.032918 
L 759.270333 729.688689 
L 836.941223 647.54927 
" clip-path="url(#paa812ab976)" style="fill: none; stroke: #7a7a7a; stroke-width: 3; stroke-linecap: square"/>
   </g>
   <g id="line2d_13">
    <path d="M 803.518053 646.771032 
L 816.051742 632.267517 
L 827.635908 619.603472 
L 838.840267 608.566651 
L 849.759768 599.157053 
L 861.059079 591.233182 
L 872.738198 584.582789 
L 885.461791 579.205877 
L 899.32481 574.960945 
L 914.896969 571.635749 
L 932.368172 569.230288 
L 952.118227 567.603064 
L 974.526943 566.683329 
L 999.879177 566.188087 
" clip-path="url(#paa812ab976)" style="fill: none; stroke: #7a7a7a; stroke-width: 3; stroke-linecap: square"/>
   </g>
   <g id="line2d_14">
    <path d="M 836.941223 647.54927 
L 838.745314 645.497553 
L 840.169597 643.092092 
L 851.089099 631.135536 
L 858.020609 624.768139 
L 864.002596 620.169463 
L 876.536285 612.670085 
L 892.678157 604.746213 
L 900.654141 601.633263 
L 922.208287 595.05362 
L 928.759988 593.780141 
L 938.82492 592.365163 
L 946.705952 592.223666 
L 967.120672 590.454944 
L 988.864723 589.46446 
" clip-path="url(#paa812ab976)" style="fill: none; stroke: #7a7a7a; stroke-width: 3; stroke-linecap: square"/>
   </g>
   <g id="line2d_15">
    <path d="M 246.433567 1121.425095 
L 224.594564 1145.691952 
L 216.713532 1154.252563 
" clip-path="url(#paa812ab976)" style="fill: none; stroke: #7a7a7a; stroke-width: 3; stroke-linecap: square"/>
   </g>
   <g id="line2d_16">
    <path d="M 220.226763 1112.581488 
L 192.880533 1142.508254 
" clip-path="url(#paa812ab976)" style="fill: none; stroke: #7a7a7a; stroke-width: 3; stroke-linecap: square"/>
   </g>
   <g id="line2d_17">
    <path d="M 1046.215845 281.706945 
L 1170.413306 143.251437 
" clip-path="url(#paa812ab976)" style="fill: none; stroke: #7a7a7a; stroke-width: 3; stroke-linecap: square"/>
   </g>
   <g id="line2d_18">
    <path d="M 1081.538059 282.768178 
L 1181.522712 171.409481 
" clip-path="url(#paa812ab976)" style="fill: none; stroke: #7a7a7a; stroke-width: 3; stroke-linecap: square"/>
   </g>
   <g id="line2d_19">
    <path d="M 1151.992582 398.230308 
L 727.936111 405.092946 
" clip-path="url(#paa812ab976)" style="fill: none; stroke: #7a7a7a; stroke-width: 3; stroke-linecap: square"/>
   </g>
   <g id="line2d_20">
    <path d="M 1173.356824 372.972967 
L 745.977027 381.109085 
" clip-path="url(#paa812ab976)" style="fill: none; stroke: #7a7a7a; stroke-width: 3; stroke-linecap: square"/>
   </g>
   <g id="line2d_21">
    <path d="M 745.977027 381.109085 
L 437.572321 381.533578 
" clip-path="url(#paa812ab976)" style="fill: none; stroke: #7a7a7a; stroke-width: 3; stroke-linecap: square"/>
   </g>
   <g id="line2d_22">
    <path d="M 762.213851 360.096675 
L 662.988815 359.17694 
L 614.943008 359.601433 
L 552.464468 359.247689 
L 506.317705 359.389187 
L 474.223866 359.247689 
L 437.667273 359.318438 
" clip-path="url(#paa812ab976)" style="fill: none; stroke: #7a7a7a; stroke-width: 3; stroke-linecap: square"/>
   </g>
   <g id="line2d_23">
    <path d="M 644.473138 780.557116 
L 645.612564 779.354385 
L 645.802469 779.142138 
L 646.182278 778.717645 
L 646.562086 778.222403 
L 646.846943 777.939408 
L 691.569423 728.061466 
L 726.796685 688.725103 
L 764.112895 647.407772 
" clip-path="url(#paa812ab976)" style="fill: none; stroke: #7a7a7a; stroke-width: 3; stroke-linecap: square"/>
   </g>
   <g id="line2d_24">
    <path d="M 685.112675 780.557116 
L 686.252101 779.354385 
L 686.442005 779.142138 
L 686.821814 778.717645 
L 687.296575 778.222403 
L 687.581431 777.939408 
L 803.518053 646.771032 
" clip-path="url(#paa812ab976)" style="fill: none; stroke: #7a7a7a; stroke-width: 3; stroke-linecap: square"/>
   </g>
   <g id="line2d_25">
    <path d="M 647.986369 640.403635 
L 524.358621 777.939408 
L 524.073764 778.293152 
L 523.693955 778.717645 
L 523.124242 779.283636 
L 521.984816 780.557116 
" clip-path="url(#paa812ab976)" style="fill: none; stroke: #7a7a7a; stroke-width: 3; stroke-linecap: square"/>
   </g>
   <g id="line2d_26">
    <path d="M 602.02951 640.686631 
L 583.418881 661.769789 
L 510.87541 742.777227 
L 479.256331 778.010157 
L 478.971475 778.293152 
L 478.496714 778.788394 
L 478.021953 779.283636 
L 476.882527 780.557116 
" clip-path="url(#paa812ab976)" style="fill: none; stroke: #7a7a7a; stroke-width: 3; stroke-linecap: square"/>
   </g>
   <g id="line2d_27">
    <path d="M 1296.319907 458.649829 
L 1294.895624 458.649829 
L 1294.136007 458.720578 
L 1293.85115 458.720578 
L 1293.566294 458.720578 
L 1238.778881 459.428066 
L 1100.7184 463.672998 
" clip-path="url(#paa812ab976)" style="fill: none; stroke: #7a7a7a; stroke-width: 3; stroke-linecap: square"/>
   </g>
   <g id="line2d_28">
    <path d="M 1296.319907 436.859182 
L 1294.895624 436.929931 
L 1294.136007 436.929931 
L 1293.85115 436.929931 
L 1293.471342 436.929931 
L 1110.118667 443.226579 
" clip-path="url(#paa812ab976)" style="fill: none; stroke: #7a7a7a; stroke-width: 3; stroke-linecap: square"/>
   </g>
   <g id="line2d_29">
    <path d="M 980.129122 277.957255 
L 943.002817 314.039171 
L 925.436662 328.967179 
L 910.244312 341.27748 
L 896.856053 351.323817 
L 884.702173 359.318438 
L 873.307911 365.544337 
L 862.198505 370.213761 
L 850.70929 373.538957 
L 838.460458 375.87367 
L 824.787343 377.430144 
L 809.215184 378.491377 
L 745.977027 381.109085 
" clip-path="url(#paa812ab976)" style="fill: none; stroke: #7a7a7a; stroke-width: 3; stroke-linecap: square"/>
   </g>
   <g id="line2d_30">
    <path d="M 947.94033 275.764041 
L 939.489586 285.315136 
L 932.273219 292.177775 
L 917.935439 304.983318 
L 911.763547 310.006486 
L 905.021941 314.675911 
L 895.431771 321.397052 
L 880.524277 330.240659 
L 865.426879 337.386293 
L 858.590322 339.933252 
L 856.026613 341.065233 
L 845.676824 344.602676 
L 834.377514 347.715626 
L 817.855833 351.465315 
L 810.069754 353.02179 
L 794.307691 355.851744 
L 778.355723 358.257205 
L 774.74754 358.398703 
L 762.213851 360.096675 
" clip-path="url(#paa812ab976)" style="fill: none; stroke: #7a7a7a; stroke-width: 3; stroke-linecap: square"/>
   </g>
   <g id="line2d_31">
    <path d="M 1173.356824 372.972967 
L 1142.402411 370.779752 
L 1127.020156 365.756583 
L 1114.486468 358.752447 
L 1104.896297 350.050338 
L 1098.629452 339.862503 
L 1095.875839 328.33044 
L 1096.825361 315.878641 
L 1101.762875 302.577857 
L 1117.145129 281.494698 
" clip-path="url(#paa812ab976)" style="fill: none; stroke: #7a7a7a; stroke-width: 3; stroke-linecap: square"/>
   </g>
   <g id="line2d_32">
    <path d="M 1194.246305 346.442146 
L 1188.169365 345.380913 
L 1181.522712 342.904704 
L 1176.20539 340.64074 
L 1170.603211 337.386293 
L 1165.001032 333.424357 
L 1158.734187 328.188942 
L 1154.366387 322.529034 
L 1149.428873 314.605162 
L 1147.434877 310.360231 
L 1145.440881 300.52614 
L 1146.105546 293.09751 
L 1147.529829 286.94236 
L 1148.194494 285.032141 
" clip-path="url(#paa812ab976)" style="fill: none; stroke: #7a7a7a; stroke-width: 3; stroke-linecap: square"/>
   </g>
   <g id="line2d_33">
    <path d="M 764.112895 647.407772 
L 780.82448 630.994038 
L 818.995259 591.020935 
L 831.528948 580.974598 
L 843.77778 572.343238 
L 856.121565 564.985357 
L 868.560301 558.900955 
L 881.188942 553.948536 
L 894.387296 549.915851 
L 908.060411 546.87365 
L 922.588096 544.609687 
L 937.970351 543.053212 
L 954.397079 542.062728 
L 971.963234 541.567486 
L 990.953671 541.496737 
L 1011.463344 541.638235 
" clip-path="url(#paa812ab976)" style="fill: none; stroke: #7a7a7a; stroke-width: 3; stroke-linecap: square"/>
   </g>
   <g id="line2d_34">
    <path d="M 803.518053 646.771032 
L 816.051742 632.267517 
L 827.635908 619.603472 
L 838.840267 608.566651 
L 849.759768 599.157053 
L 861.059079 591.233182 
L 872.738198 584.582789 
L 885.461791 579.205877 
L 899.32481 574.960945 
L 914.896969 571.635749 
L 932.368172 569.230288 
L 952.118227 567.603064 
L 974.526943 566.683329 
L 999.879177 566.188087 
" clip-path="url(#paa812ab976)" style="fill: none; stroke: #7a7a7a; stroke-width: 3; stroke-linecap: square"/>
   </g>
   <g id="line2d_35">
    <path d="M 569.271006 569.08879 
L 605.257885 572.767731 
L 631.844497 577.578653 
L 650.075317 583.450808 
L 661.184723 590.384196 
L 666.217189 598.378816 
L 666.312141 607.363921 
L 662.514054 617.410258 
L 656.057305 628.37633 
L 647.986369 640.403635 
" clip-path="url(#paa812ab976)" style="fill: none; stroke: #7a7a7a; stroke-width: 3; stroke-linecap: square"/>
   </g>
   <g id="line2d_36">
    <path d="M 557.117125 592.011419 
L 563.763779 592.011419 
L 575.347946 592.294415 
L 580.950125 593.284899 
L 587.596778 594.982871 
L 595.192953 598.095821 
L 600.225419 600.713528 
L 601.174941 601.067272 
L 601.364845 601.279519 
L 602.219415 601.704012 
L 605.732646 604.816962 
L 607.821594 607.859162 
L 609.910542 609.910879 
L 610.290351 611.821098 
L 611.524729 614.085062 
L 612.094442 617.9055 
L 611.904538 620.240212 
L 611.429777 624.06065 
L 609.435781 630.498796 
L 606.112454 636.087955 
L 602.02951 640.686631 
" clip-path="url(#paa812ab976)" style="fill: none; stroke: #7a7a7a; stroke-width: 3; stroke-linecap: square"/>
   </g>
   <g id="line2d_37">
    <path d="M 361.040858 1136.848345 
L 418.01217 1074.730851 
" clip-path="url(#paa812ab976)" style="fill: none; stroke: #7a7a7a; stroke-width: 3; stroke-linecap: square"/>
   </g>
   <g id="line2d_38">
    <path d="M 391.805367 1138.051076 
L 416.777792 1110.954265 
L 441.370409 1083.998951 
" clip-path="url(#paa812ab976)" style="fill: none; stroke: #7a7a7a; stroke-width: 3; stroke-linecap: square"/>
   </g>
   <g id="line2d_39">
    <path d="M 418.01217 1074.730851 
L 590.445343 884.274936 
" clip-path="url(#paa812ab976)" style="fill: none; stroke: #7a7a7a; stroke-width: 3; stroke-linecap: square"/>
   </g>
   <g id="line2d_40">
    <path d="M 441.370409 1083.998951 
L 485.71308 1033.979511 
L 532.809365 981.837606 
L 602.88408 904.013866 
L 610.860064 895.241008 
" clip-path="url(#paa812ab976)" style="fill: none; stroke: #7a7a7a; stroke-width: 3; stroke-linecap: square"/>
   </g>
   <g id="line2d_41">
    <path d="M 583.79869 544.609687 
L 1011.463344 541.638235 
" clip-path="url(#paa812ab976)" style="fill: none; stroke: #7a7a7a; stroke-width: 3; stroke-linecap: square"/>
   </g>
   <g id="line2d_42">
    <path d="M 569.271006 569.08879 
L 999.879177 566.188087 
" clip-path="url(#paa812ab976)" style="fill: none; stroke: #7a7a7a; stroke-width: 3; stroke-linecap: square"/>
   </g>
   <g id="line2d_43">
    <path d="M 596.522283 523.455779 
L 676.851834 523.668026 
L 690.809806 523.526528 
L 698.311029 523.172784 
L 703.723303 522.253049 
L 703.913208 522.111551 
L 989.434436 518.786355 
L 998.170038 518.715606 
L 1022.57275 518.361862 
" clip-path="url(#paa812ab976)" style="fill: none; stroke: #7a7a7a; stroke-width: 3; stroke-linecap: square"/>
   </g>
   <g id="line2d_44">
    <path d="M 583.79869 544.609687 
L 1011.463344 541.638235 
" clip-path="url(#paa812ab976)" style="fill: none; stroke: #7a7a7a; stroke-width: 3; stroke-linecap: square"/>
   </g>
   <g id="line2d_45">
    <path d="M 1296.319907 475.558805 
L 1294.990577 475.629554 
L 1294.136007 475.629554 
L 1293.566294 475.629554 
L 1225.105766 477.75202 
L 1087.045285 483.199681 
" clip-path="url(#paa812ab976)" style="fill: none; stroke: #7a7a7a; stroke-width: 3; stroke-linecap: square"/>
   </g>
   <g id="line2d_46">
    <path d="M 1296.319907 458.649829 
L 1294.895624 458.649829 
L 1294.136007 458.720578 
L 1293.85115 458.720578 
L 1293.566294 458.720578 
L 1238.778881 459.428066 
L 1100.7184 463.672998 
" clip-path="url(#paa812ab976)" style="fill: none; stroke: #7a7a7a; stroke-width: 3; stroke-linecap: square"/>
   </g>
   <g id="line2d_47">
    <path d="M 1046.215845 281.706945 
L 677.611452 643.23359 
" clip-path="url(#paa812ab976)" style="fill: none; stroke: #7a7a7a; stroke-width: 3; stroke-linecap: square"/>
   </g>
   <g id="line2d_48">
    <path d="M 1013.932101 279.725977 
L 647.986369 640.403635 
" clip-path="url(#paa812ab976)" style="fill: none; stroke: #7a7a7a; stroke-width: 3; stroke-linecap: square"/>
   </g>
   <g id="line2d_49">
    <path d="M 710.369957 428.864561 
L 688.436001 428.864561 
L 613.328821 428.440068 
L 508.121797 428.086324 
L 449.156488 427.874077 
L 437.382417 427.944826 
" clip-path="url(#paa812ab976)" style="fill: none; stroke: #7a7a7a; stroke-width: 3; stroke-linecap: square"/>
   </g>
   <g id="line2d_50">
    <path d="M 727.936111 405.092946 
L 437.477369 405.234444 
" clip-path="url(#paa812ab976)" style="fill: none; stroke: #7a7a7a; stroke-width: 3; stroke-linecap: square"/>
   </g>
   <g id="line2d_51">
    <path d="M 299.416888 1119.585625 
L 363.984376 1047.351045 
" clip-path="url(#paa812ab976)" style="fill: none; stroke: #7a7a7a; stroke-width: 3; stroke-linecap: square"/>
   </g>
   <g id="line2d_52">
    <path d="M 326.098453 1133.523149 
L 390.570988 1061.288569 
" clip-path="url(#paa812ab976)" style="fill: none; stroke: #7a7a7a; stroke-width: 3; stroke-linecap: square"/>
   </g>
   <g id="line2d_53">
    <path d="M 1100.7184 463.672998 
L 1083.532054 463.885244 
L 1066.630565 464.238988 
L 1050.013932 464.73423 
L 1033.587204 465.441719 
L 1017.35038 466.432203 
L 985.921205 468.908413 
L 970.254094 469.828148 
L 956.486027 470.32339 
L 940.629012 472.587353 
L 924.866949 475.983298 
L 908.725077 480.369727 
L 892.678157 485.463645 
L 878.435329 490.982055 
L 863.337931 496.075973 
L 848.430438 501.665132 
L 833.427992 507.891032 
L 818.425546 514.682922 
L 803.423101 522.253049 
L 788.325703 530.389167 
L 773.228305 539.374272 
L 758.035955 548.996116 
L 742.748653 559.466946 
L 727.366398 570.716014 
L 711.794239 582.884817 
L 696.127128 595.831857 
L 680.270113 609.769382 
L 664.223193 624.555892 
L 647.986369 640.403635 
" clip-path="url(#paa812ab976)" style="fill: none; stroke: #7a7a7a; stroke-width: 3; stroke-linecap: square"/>
   </g>
   <g id="line2d_54">
    <path d="M 1110.118667 443.226579 
L 1095.875839 444.35856 
L 1081.15825 445.419793 
L 1065.9659 446.339528 
L 1001.873173 449.806222 
L 985.161588 450.867455 
L 968.260099 452.070186 
L 951.168705 453.485163 
L 934.077311 455.112386 
L 916.796013 457.022605 
L 899.514715 459.286569 
L 882.138464 461.975025 
L 864.857166 465.017226 
L 847.67082 468.48392 
L 830.579426 472.516604 
L 813.582985 477.11528 
L 796.8714 482.279946 
L 780.254767 488.010603 
L 763.92299 494.519498 
L 747.971023 501.735881 
L 732.303912 509.659753 
L 716.921657 518.432611 
L 702.014164 527.983706 
L 687.581431 538.525285 
L 673.62346 549.9866 
L 660.140249 562.367649 
L 647.226752 575.809932 
L 634.977919 590.313447 
L 623.2988 605.948943 
L 612.284347 622.716422 
L 611.239873 624.555892 
L 609.435781 630.498796 
L 606.112454 636.087955 
L 602.02951 640.686631 
" clip-path="url(#paa812ab976)" style="fill: none; stroke: #7a7a7a; stroke-width: 3; stroke-linecap: square"/>
   </g>
   <g id="line2d_55">
    <path d="M 329.326827 570.008526 
L 376.043303 569.796279 
L 569.271006 569.08879 
" clip-path="url(#paa812ab976)" style="fill: none; stroke: #7a7a7a; stroke-width: 3; stroke-linecap: square"/>
   </g>
   <g id="line2d_56">
    <path d="M 329.231875 592.57741 
L 422.854732 592.435912 
L 557.117125 592.011419 
" clip-path="url(#paa812ab976)" style="fill: none; stroke: #7a7a7a; stroke-width: 3; stroke-linecap: square"/>
   </g>
   <g id="line2d_57">
    <path d="M 319.356847 1040.276159 
L 246.433567 1121.425095 
" clip-path="url(#paa812ab976)" style="fill: none; stroke: #7a7a7a; stroke-width: 3; stroke-linecap: square"/>
   </g>
   <g id="line2d_58">
    <path d="M 288.687291 1036.950963 
L 220.226763 1112.581488 
" clip-path="url(#paa812ab976)" style="fill: none; stroke: #7a7a7a; stroke-width: 3; stroke-linecap: square"/>
   </g>
   <g id="line2d_59">
    <path d="M 622.539183 481.077216 
L 690.809806 480.511225 
L 715.212518 478.95475 
L 743.033509 478.247262 
L 755.092437 478.31801 
L 771.898974 477.610522 
L 785.761994 476.761536 
L 802.283674 475.346559 
L 818.520498 473.577837 
L 834.757323 470.889381 
L 851.373955 466.927445 
L 868.275445 461.621281 
L 882.613225 456.315117 
L 896.951006 449.806222 
L 906.636129 444.641556 
L 914.991921 439.830634 
L 926.196279 433.25099 
L 939.489586 424.973374 
L 949.269661 417.544745 
L 960.189163 407.427659 
L 976.615891 391.155422 
L 987.725297 380.330847 
L 997.315468 369.435524 
L 1009.944109 356.771479 
L 1024.851602 341.91422 
L 1040.518713 325.924979 
L 1056.945442 308.803756 
L 1081.538059 282.768178 
" clip-path="url(#paa812ab976)" style="fill: none; stroke: #7a7a7a; stroke-width: 3; stroke-linecap: square"/>
   </g>
   <g id="line2d_60">
    <path d="M 604.498267 507.749534 
L 671.534512 504.848831 
L 698.311029 503.221607 
L 723.283454 501.452886 
L 746.641692 499.542667 
L 768.290791 497.49095 
L 788.515607 495.226987 
L 804.182718 493.670512 
L 822.128682 491.265051 
L 839.979693 488.788841 
L 852.798238 485.958887 
L 866.75621 481.784704 
L 877.295903 478.388759 
L 888.690165 474.285326 
L 898.945001 470.535637 
L 909.959455 466.219956 
L 920.214292 461.409034 
L 931.133793 455.607628 
L 941.768438 449.240231 
L 952.118227 442.377593 
L 962.278111 434.878214 
L 972.437995 426.812845 
L 982.597879 418.039987 
L 993.04262 408.630389 
L 1003.677265 398.584052 
L 1014.691718 387.688728 
L 1038.239861 363.704867 
L 1079.069302 321.467801 
L 1117.145129 281.494698 
" clip-path="url(#paa812ab976)" style="fill: none; stroke: #7a7a7a; stroke-width: 3; stroke-linecap: square"/>
   </g>
   <g id="line2d_61">
    <path d="M 536.512501 856.753632 
L 607.156928 780.557116 
" clip-path="url(#paa812ab976)" style="fill: none; stroke: #7a7a7a; stroke-width: 3; stroke-linecap: square"/>
   </g>
   <g id="line2d_62">
    <path d="M 562.814257 870.40816 
L 644.473138 780.557116 
" clip-path="url(#paa812ab976)" style="fill: none; stroke: #7a7a7a; stroke-width: 3; stroke-linecap: square"/>
   </g>
   <g id="line2d_63">
    <path d="M 1087.045285 483.199681 
L 1049.06441 484.614658 
L 1043.462231 485.251398 
L 1032.827586 485.817389 
L 1009.089539 487.373864 
L 987.44044 489.213334 
L 967.690385 491.265051 
L 949.64947 493.670512 
L 933.127789 496.358968 
L 917.935439 499.401169 
L 903.882515 502.797114 
L 890.874065 506.546803 
L 878.720185 510.791735 
L 867.136019 515.39041 
L 856.121565 520.555076 
L 845.391968 526.214985 
L 834.757323 532.370135 
L 824.122677 539.091276 
L 813.298128 546.449157 
L 802.09377 554.373029 
L 749.870067 592.789657 
L 734.108003 604.180222 
L 716.921657 616.349025 
L 698.216076 629.366814 
L 677.611452 643.23359 
" clip-path="url(#paa812ab976)" style="fill: none; stroke: #7a7a7a; stroke-width: 3; stroke-linecap: square"/>
   </g>
   <g id="line2d_64">
    <path d="M 1100.7184 463.672998 
L 1083.532054 463.885244 
L 1066.630565 464.238988 
L 1050.013932 464.73423 
L 1033.587204 465.441719 
L 1017.35038 466.432203 
L 985.921205 468.908413 
L 970.254094 469.828148 
L 956.486027 470.32339 
L 940.629012 472.587353 
L 924.866949 475.983298 
L 908.725077 480.369727 
L 892.678157 485.463645 
L 878.435329 490.982055 
L 863.337931 496.075973 
L 848.430438 501.665132 
L 833.427992 507.891032 
L 818.425546 514.682922 
L 803.423101 522.253049 
L 788.325703 530.389167 
L 773.228305 539.374272 
L 758.035955 548.996116 
L 742.748653 559.466946 
L 727.366398 570.716014 
L 711.794239 582.884817 
L 696.127128 595.831857 
L 680.270113 609.769382 
L 664.223193 624.555892 
L 647.986369 640.403635 
" clip-path="url(#paa812ab976)" style="fill: none; stroke: #7a7a7a; stroke-width: 3; stroke-linecap: square"/>
   </g>
   <g id="line2d_65">
    <path d="M 1170.413306 143.251437 
L 1046.215845 281.706945 
" clip-path="url(#paa812ab976)" style="fill: none; stroke: #7a7a7a; stroke-width: 3; stroke-linecap: square"/>
   </g>
   <g id="line2d_66">
    <path d="M 1147.814686 130.304397 
L 1013.932101 279.725977 
" clip-path="url(#paa812ab976)" style="fill: none; stroke: #7a7a7a; stroke-width: 3; stroke-linecap: square"/>
   </g>
   <g id="line2d_67">
    <path d="M 555.218082 780.557116 
L 547.33705 789.259225 
L 319.356847 1040.276159 
" clip-path="url(#paa812ab976)" style="fill: none; stroke: #7a7a7a; stroke-width: 3; stroke-linecap: square"/>
   </g>
   <g id="line2d_68">
    <path d="M 521.984816 780.557116 
L 288.687291 1036.950963 
" clip-path="url(#paa812ab976)" style="fill: none; stroke: #7a7a7a; stroke-width: 3; stroke-linecap: square"/>
   </g>
   <g id="line2d_69">
    <path d="M 590.445343 884.274936 
L 685.112675 780.557116 
" clip-path="url(#paa812ab976)" style="fill: none; stroke: #7a7a7a; stroke-width: 3; stroke-linecap: square"/>
   </g>
   <g id="line2d_70">
    <path d="M 610.860064 895.241008 
L 646.846943 855.550901 
L 714.547853 780.557116 
" clip-path="url(#paa812ab976)" style="fill: none; stroke: #7a7a7a; stroke-width: 3; stroke-linecap: square"/>
   </g>
   <g id="line2d_71">
    <path d="M 569.271006 569.08879 
L 999.879177 566.188087 
" clip-path="url(#paa812ab976)" style="fill: none; stroke: #7a7a7a; stroke-width: 3; stroke-linecap: square"/>
   </g>
   <g id="line2d_72">
    <path d="M 557.117125 592.011419 
L 988.864723 589.46446 
" clip-path="url(#paa812ab976)" style="fill: none; stroke: #7a7a7a; stroke-width: 3; stroke-linecap: square"/>
   </g>
   <g id="line2d_73">
    <path d="M 1296.319907 420.091703 
L 1294.895624 420.091703 
L 1294.136007 420.091703 
L 1293.85115 420.091703 
L 1293.471342 420.091703 
L 1129.014152 422.497165 
" clip-path="url(#paa812ab976)" style="fill: none; stroke: #7a7a7a; stroke-width: 3; stroke-linecap: square"/>
   </g>
   <g id="line2d_74">
    <path d="M 1296.319907 396.390837 
L 1294.800672 396.390837 
L 1294.136007 396.390837 
L 1293.85115 396.390837 
L 1293.471342 396.390837 
L 1151.992582 398.230308 
" clip-path="url(#paa812ab976)" style="fill: none; stroke: #7a7a7a; stroke-width: 3; stroke-linecap: square"/>
   </g>
   <g id="line2d_75">
    <path d="M 521.984816 780.557116 
L 288.687291 1036.950963 
" clip-path="url(#paa812ab976)" style="fill: none; stroke: #7a7a7a; stroke-width: 3; stroke-linecap: square"/>
   </g>
   <g id="line2d_76">
    <path d="M 476.882527 780.557116 
L 368.731985 900.405675 
L 252.510507 1029.946827 
" clip-path="url(#paa812ab976)" style="fill: none; stroke: #7a7a7a; stroke-width: 3; stroke-linecap: square"/>
   </g>
   <g id="line2d_77">
    <path d="M 363.984376 1047.351045 
L 536.512501 856.753632 
" clip-path="url(#paa812ab976)" style="fill: none; stroke: #7a7a7a; stroke-width: 3; stroke-linecap: square"/>
   </g>
   <g id="line2d_78">
    <path d="M 390.570988 1061.288569 
L 562.814257 870.40816 
" clip-path="url(#paa812ab976)" style="fill: none; stroke: #7a7a7a; stroke-width: 3; stroke-linecap: square"/>
   </g>
   <g id="line2d_79">
    <path d="M 1022.57275 518.361862 
L 1294.136007 515.885652 
L 1294.990577 515.885652 
L 1296.319907 515.885652 
" clip-path="url(#paa812ab976)" style="fill: none; stroke: #7a7a7a; stroke-width: 3; stroke-linecap: square"/>
   </g>
   <g id="line2d_80">
    <path d="M 1011.463344 541.638235 
L 1294.136007 537.888546 
L 1295.085529 537.888546 
L 1296.319907 537.888546 
" clip-path="url(#paa812ab976)" style="fill: none; stroke: #7a7a7a; stroke-width: 3; stroke-linecap: square"/>
   </g>
   <g id="line2d_81">
    <path d="M 326.098453 1133.523149 
L 390.570988 1061.288569 
" clip-path="url(#paa812ab976)" style="fill: none; stroke: #7a7a7a; stroke-width: 3; stroke-linecap: square"/>
   </g>
   <g id="line2d_82">
    <path d="M 361.040858 1136.848345 
L 418.01217 1074.730851 
" clip-path="url(#paa812ab976)" style="fill: none; stroke: #7a7a7a; stroke-width: 3; stroke-linecap: square"/>
   </g>
   <g id="line2d_83">
    <path d="M 1013.932101 279.725977 
L 647.986369 640.403635 
" clip-path="url(#paa812ab976)" style="fill: none; stroke: #7a7a7a; stroke-width: 3; stroke-linecap: square"/>
   </g>
   <g id="line2d_84">
    <path d="M 980.129122 277.957255 
L 602.02951 640.686631 
" clip-path="url(#paa812ab976)" style="fill: none; stroke: #7a7a7a; stroke-width: 3; stroke-linecap: square"/>
   </g>
   <g id="line2d_85">
    <path d="M 288.687291 1036.950963 
L 220.226763 1112.581488 
" clip-path="url(#paa812ab976)" style="fill: none; stroke: #7a7a7a; stroke-width: 3; stroke-linecap: square"/>
   </g>
   <g id="line2d_86">
    <path d="M 252.510507 1029.946827 
L 194.399768 1094.752777 
L 187.563211 1102.110658 
" clip-path="url(#paa812ab976)" style="fill: none; stroke: #7a7a7a; stroke-width: 3; stroke-linecap: square"/>
   </g>
   <g id="line2d_87">
    <path d="M 1296.319907 371.487241 
L 1294.800672 371.487241 
L 1294.136007 371.487241 
L 1293.85115 371.487241 
L 1293.471342 371.487241 
L 1173.356824 372.972967 
" clip-path="url(#paa812ab976)" style="fill: none; stroke: #7a7a7a; stroke-width: 3; stroke-linecap: square"/>
   </g>
   <g id="line2d_88">
    <path d="M 1296.319907 346.866639 
L 1294.800672 346.866639 
L 1294.230959 346.866639 
L 1293.85115 346.866639 
L 1293.376389 346.866639 
L 1203.836476 347.644877 
L 1194.246305 346.442146 
" clip-path="url(#paa812ab976)" style="fill: none; stroke: #7a7a7a; stroke-width: 3; stroke-linecap: square"/>
   </g>
   <g id="line2d_89">
    <path d="M 1173.356824 372.972967 
L 745.977027 381.109085 
" clip-path="url(#paa812ab976)" style="fill: none; stroke: #7a7a7a; stroke-width: 3; stroke-linecap: square"/>
   </g>
   <g id="line2d_90">
    <path d="M 1194.246305 346.442146 
L 762.213851 360.096675 
" clip-path="url(#paa812ab976)" style="fill: none; stroke: #7a7a7a; stroke-width: 3; stroke-linecap: square"/>
   </g>
   <g id="line2d_91">
    <path d="M 638.396198 458.225336 
L 665.36262 457.730094 
L 666.027285 457.730094 
L 707.996152 456.032121 
L 726.416876 456.032121 
L 733.158482 456.032121 
L 750.154923 455.678377 
L 764.017943 455.395382 
L 773.323257 454.192651 
L 775.60211 453.62666 
L 778.545627 452.848423 
L 778.830484 452.706925 
L 779.305245 452.42393 
L 783.86295 451.928688 
L 799.150252 450.159967 
L 813.488032 447.896003 
L 827.066195 445.066049 
L 840.074645 441.670104 
L 852.608334 437.56667 
L 864.762214 432.755748 
L 876.72619 427.09584 
L 888.595213 420.586945 
L 900.654141 413.087567 
L 912.902973 404.668453 
L 925.436662 395.117358 
L 938.635016 384.434281 
L 952.403083 372.619222 
L 967.02572 359.459935 
L 982.502927 345.027169 
L 999.214512 329.250175 
L 1046.215845 281.706945 
" clip-path="url(#paa812ab976)" style="fill: none; stroke: #7a7a7a; stroke-width: 3; stroke-linecap: square"/>
   </g>
   <g id="line2d_92">
    <path d="M 622.539183 481.077216 
L 690.809806 480.511225 
L 715.212518 478.95475 
L 743.033509 478.247262 
L 755.092437 478.31801 
L 771.898974 477.610522 
L 785.761994 476.761536 
L 802.283674 475.346559 
L 818.520498 473.577837 
L 834.757323 470.889381 
L 851.373955 466.927445 
L 868.275445 461.621281 
L 882.613225 456.315117 
L 896.951006 449.806222 
L 906.636129 444.641556 
L 914.991921 439.830634 
L 926.196279 433.25099 
L 939.489586 424.973374 
L 949.269661 417.544745 
L 960.189163 407.427659 
L 976.615891 391.155422 
L 987.725297 380.330847 
L 997.315468 369.435524 
L 1009.944109 356.771479 
L 1024.851602 341.91422 
L 1040.518713 325.924979 
L 1056.945442 308.803756 
L 1081.538059 282.768178 
" clip-path="url(#paa812ab976)" style="fill: none; stroke: #7a7a7a; stroke-width: 3; stroke-linecap: square"/>
   </g>
   <g id="line2d_93">
    <path d="M 1296.319907 396.390837 
L 1294.800672 396.390837 
L 1294.136007 396.390837 
L 1293.85115 396.390837 
L 1293.471342 396.390837 
L 1151.992582 398.230308 
" clip-path="url(#paa812ab976)" style="fill: none; stroke: #7a7a7a; stroke-width: 3; stroke-linecap: square"/>
   </g>
   <g id="line2d_94">
    <path d="M 1296.319907 371.487241 
L 1294.800672 371.487241 
L 1294.136007 371.487241 
L 1293.85115 371.487241 
L 1293.471342 371.487241 
L 1173.356824 372.972967 
" clip-path="url(#paa812ab976)" style="fill: none; stroke: #7a7a7a; stroke-width: 3; stroke-linecap: square"/>
   </g>
   <g id="line2d_95">
    <path d="M 727.936111 405.092946 
L 437.477369 405.234444 
" clip-path="url(#paa812ab976)" style="fill: none; stroke: #7a7a7a; stroke-width: 3; stroke-linecap: square"/>
   </g>
   <g id="line2d_96">
    <path d="M 745.977027 381.109085 
L 437.572321 381.533578 
" clip-path="url(#paa812ab976)" style="fill: none; stroke: #7a7a7a; stroke-width: 3; stroke-linecap: square"/>
   </g>
   <g id="line2d_97">
    <path d="M 1081.538059 282.768178 
L 1181.522712 171.409481 
" clip-path="url(#paa812ab976)" style="fill: none; stroke: #7a7a7a; stroke-width: 3; stroke-linecap: square"/>
   </g>
   <g id="line2d_98">
    <path d="M 1117.145129 281.494698 
L 1205.640568 183.436786 
" clip-path="url(#paa812ab976)" style="fill: none; stroke: #7a7a7a; stroke-width: 3; stroke-linecap: square"/>
   </g>
   <g id="line2d_99">
    <path d="M 390.570988 1061.288569 
L 562.814257 870.40816 
" clip-path="url(#paa812ab976)" style="fill: none; stroke: #7a7a7a; stroke-width: 3; stroke-linecap: square"/>
   </g>
   <g id="line2d_100">
    <path d="M 418.01217 1074.730851 
L 590.445343 884.274936 
" clip-path="url(#paa812ab976)" style="fill: none; stroke: #7a7a7a; stroke-width: 3; stroke-linecap: square"/>
   </g>
   <g id="line2d_101">
    <path d="M 1147.814686 130.304397 
L 1013.932101 279.725977 
" clip-path="url(#paa812ab976)" style="fill: none; stroke: #7a7a7a; stroke-width: 3; stroke-linecap: square"/>
   </g>
   <g id="line2d_102">
    <path d="M 1124.741304 117.215859 
L 980.129122 277.957255 
" clip-path="url(#paa812ab976)" style="fill: none; stroke: #7a7a7a; stroke-width: 3; stroke-linecap: square"/>
   </g>
   <g id="line2d_103">
    <path d="M 1124.741304 117.215859 
L 980.129122 277.957255 
" clip-path="url(#paa812ab976)" style="fill: none; stroke: #7a7a7a; stroke-width: 3; stroke-linecap: square"/>
   </g>
   <g id="line2d_104">
    <path d="M 1101.762875 105.683795 
L 1074.321692 135.752059 
L 1069.099322 141.270469 
L 1067.29523 142.331702 
L 984.591875 233.314728 
L 977.945222 242.299833 
L 962.468015 259.491804 
L 947.94033 275.764041 
" clip-path="url(#paa812ab976)" style="fill: none; stroke: #7a7a7a; stroke-width: 3; stroke-linecap: square"/>
   </g>
   <g id="line2d_105">
    <path d="M 220.226763 1112.581488 
L 192.880533 1142.508254 
" clip-path="url(#paa812ab976)" style="fill: none; stroke: #7a7a7a; stroke-width: 3; stroke-linecap: square"/>
   </g>
   <g id="line2d_106">
    <path d="M 187.563211 1102.110658 
L 161.261455 1130.693195 
" clip-path="url(#paa812ab976)" style="fill: none; stroke: #7a7a7a; stroke-width: 3; stroke-linecap: square"/>
   </g>
   <g id="line2d_107">
    <path d="M 1011.463344 541.638235 
L 1294.136007 537.888546 
L 1295.085529 537.888546 
L 1296.319907 537.888546 
" clip-path="url(#paa812ab976)" style="fill: none; stroke: #7a7a7a; stroke-width: 3; stroke-linecap: square"/>
   </g>
   <g id="line2d_108">
    <path d="M 999.879177 566.188087 
L 1186.555178 562.93364 
L 1294.136007 561.943156 
L 1295.085529 561.943156 
L 1296.319907 561.872407 
" clip-path="url(#paa812ab976)" style="fill: none; stroke: #7a7a7a; stroke-width: 3; stroke-linecap: square"/>
   </g>
   <g id="line2d_109">
    <path d="M 562.814257 870.40816 
L 644.473138 780.557116 
" clip-path="url(#paa812ab976)" style="fill: none; stroke: #7a7a7a; stroke-width: 3; stroke-linecap: square"/>
   </g>
   <g id="line2d_110">
    <path d="M 590.445343 884.274936 
L 685.112675 780.557116 
" clip-path="url(#paa812ab976)" style="fill: none; stroke: #7a7a7a; stroke-width: 3; stroke-linecap: square"/>
   </g>
   <g id="line2d_111">
    <path d="M 607.156928 780.557116 
L 608.296355 779.354385 
L 608.391307 779.142138 
L 608.771116 778.717645 
L 609.245877 778.293152 
L 609.530733 777.939408 
L 726.796685 647.478521 
" clip-path="url(#paa812ab976)" style="fill: none; stroke: #7a7a7a; stroke-width: 3; stroke-linecap: square"/>
   </g>
   <g id="line2d_112">
    <path d="M 644.473138 780.557116 
L 645.612564 779.354385 
L 645.802469 779.142138 
L 646.182278 778.717645 
L 646.562086 778.222403 
L 646.846943 777.939408 
L 691.569423 728.061466 
L 726.796685 688.725103 
L 764.112895 647.407772 
" clip-path="url(#paa812ab976)" style="fill: none; stroke: #7a7a7a; stroke-width: 3; stroke-linecap: square"/>
   </g>
   <g id="line2d_113">
    <path d="M 280.236546 1227.902121 
L 361.040858 1136.848345 
" clip-path="url(#paa812ab976)" style="fill: none; stroke: #7a7a7a; stroke-width: 3; stroke-linecap: square"/>
   </g>
   <g id="line2d_114">
    <path d="M 302.455358 1235.896741 
L 359.236766 1173.425503 
L 391.805367 1138.051076 
" clip-path="url(#paa812ab976)" style="fill: none; stroke: #7a7a7a; stroke-width: 3; stroke-linecap: square"/>
   </g>
   <g id="line2d_115">
    <path d="M 95.174732 1350.722131 
L 109.322608 1332.256681 
L 109.607465 1331.902936 
L 117.488496 1319.875631 
L 126.508954 1306.150353 
L 129.547424 1301.480929 
L 131.256563 1298.93397 
L 157.178511 1259.314612 
L 186.23388 1215.450322 
L 202.660609 1191.961703 
" clip-path="url(#paa812ab976)" style="fill: none; stroke: #7a7a7a; stroke-width: 3; stroke-linecap: square"/>
   </g>
   <g id="line2d_116">
    <path d="M 119.197635 1361.475957 
L 128.787806 1347.467684 
L 210.826497 1221.251728 
L 224.119803 1202.574031 
" clip-path="url(#paa812ab976)" style="fill: none; stroke: #7a7a7a; stroke-width: 3; stroke-linecap: square"/>
   </g>
   <g id="line2d_117">
    <path d="M 574.018615 780.557116 
L 575.158041 779.283636 
L 575.252993 779.142138 
L 575.632802 778.717645 
L 576.107563 778.293152 
L 576.39242 777.939408 
L 635.737537 712.921211 
L 656.342162 688.866601 
L 670.205181 673.514099 
L 678.371069 664.387497 
L 678.84583 662.618776 
L 692.898754 646.205041 
" clip-path="url(#paa812ab976)" style="fill: none; stroke: #7a7a7a; stroke-width: 3; stroke-linecap: square"/>
   </g>
   <g id="line2d_118">
    <path d="M 607.156928 780.557116 
L 608.296355 779.354385 
L 608.391307 779.142138 
L 608.771116 778.717645 
L 609.245877 778.293152 
L 609.530733 777.939408 
L 726.796685 647.478521 
" clip-path="url(#paa812ab976)" style="fill: none; stroke: #7a7a7a; stroke-width: 3; stroke-linecap: square"/>
   </g>
   <g id="line2d_119">
    <path d="M 252.605459 1215.308825 
L 326.098453 1133.523149 
" clip-path="url(#paa812ab976)" style="fill: none; stroke: #7a7a7a; stroke-width: 3; stroke-linecap: square"/>
   </g>
   <g id="line2d_120">
    <path d="M 280.236546 1227.902121 
L 361.040858 1136.848345 
" clip-path="url(#paa812ab976)" style="fill: none; stroke: #7a7a7a; stroke-width: 3; stroke-linecap: square"/>
   </g>
   <g id="line2d_121">
    <path d="M 149.962144 1371.522295 
L 280.236546 1227.902121 
" clip-path="url(#paa812ab976)" style="fill: none; stroke: #7a7a7a; stroke-width: 3; stroke-linecap: square"/>
   </g>
   <g id="line2d_122">
    <path d="M 171.991052 1382.346869 
L 270.076662 1271.483415 
L 302.455358 1235.896741 
" clip-path="url(#paa812ab976)" style="fill: none; stroke: #7a7a7a; stroke-width: 3; stroke-linecap: square"/>
   </g>
   <g id="line2d_123">
    <path d="M 224.119803 1202.574031 
L 299.416888 1119.585625 
" clip-path="url(#paa812ab976)" style="fill: none; stroke: #7a7a7a; stroke-width: 3; stroke-linecap: square"/>
   </g>
   <g id="line2d_124">
    <path d="M 252.605459 1215.308825 
L 326.098453 1133.523149 
" clip-path="url(#paa812ab976)" style="fill: none; stroke: #7a7a7a; stroke-width: 3; stroke-linecap: square"/>
   </g>
   <g id="line2d_125">
    <path d="M 95.174732 1350.722131 
L 224.119803 1202.574031 
" clip-path="url(#paa812ab976)" style="fill: none; stroke: #7a7a7a; stroke-width: 3; stroke-linecap: square"/>
   </g>
   <g id="line2d_126">
    <path d="M 119.197635 1361.475957 
L 252.605459 1215.308825 
" clip-path="url(#paa812ab976)" style="fill: none; stroke: #7a7a7a; stroke-width: 3; stroke-linecap: square"/>
   </g>
   <g id="line2d_127">
    <path d="M 677.611452 643.23359 
L 558.541408 776.878175 
L 557.591886 777.939408 
L 557.30703 778.293152 
L 556.832269 778.717645 
L 556.45246 779.142138 
L 556.357508 779.283636 
L 555.218082 780.557116 
" clip-path="url(#paa812ab976)" style="fill: none; stroke: #7a7a7a; stroke-width: 3; stroke-linecap: square"/>
   </g>
   <g id="line2d_128">
    <path d="M 647.986369 640.403635 
L 524.358621 777.939408 
L 524.073764 778.293152 
L 523.693955 778.717645 
L 523.124242 779.283636 
L 521.984816 780.557116 
" clip-path="url(#paa812ab976)" style="fill: none; stroke: #7a7a7a; stroke-width: 3; stroke-linecap: square"/>
   </g>
   <g id="line2d_129">
    <path d="M 202.660609 1191.961703 
L 210.636592 1181.066379 
L 228.487604 1161.115202 
L 256.308595 1130.4102 
L 259.821826 1126.236017 
L 275.014176 1109.39779 
" clip-path="url(#paa812ab976)" style="fill: none; stroke: #7a7a7a; stroke-width: 3; stroke-linecap: square"/>
   </g>
   <g id="line2d_130">
    <path d="M 224.119803 1202.574031 
L 299.416888 1119.585625 
" clip-path="url(#paa812ab976)" style="fill: none; stroke: #7a7a7a; stroke-width: 3; stroke-linecap: square"/>
   </g>
   <g id="line2d_131">
    <path d="M 192.880533 1142.508254 
L 164.299925 1174.628233 
" clip-path="url(#paa812ab976)" style="fill: none; stroke: #7a7a7a; stroke-width: 3; stroke-linecap: square"/>
   </g>
   <g id="line2d_132">
    <path d="M 161.261455 1130.693195 
L 134.389986 1160.832207 
" clip-path="url(#paa812ab976)" style="fill: none; stroke: #7a7a7a; stroke-width: 3; stroke-linecap: square"/>
   </g>
   <g id="line2d_133">
    <path d="M 343.474703 1034.333256 
L 401.49049 969.881049 
L 506.887418 854.34817 
L 511.255219 849.537248 
L 513.818928 846.778043 
" clip-path="url(#paa812ab976)" style="fill: none; stroke: #7a7a7a; stroke-width: 3; stroke-linecap: square"/>
   </g>
   <g id="line2d_134">
    <path d="M 363.984376 1047.351045 
L 536.512501 856.753632 
" clip-path="url(#paa812ab976)" style="fill: none; stroke: #7a7a7a; stroke-width: 3; stroke-linecap: square"/>
   </g>
   <g id="line2d_135">
    <path d="M 275.014176 1109.39779 
L 329.991492 1049.332013 
L 343.474703 1034.333256 
" clip-path="url(#paa812ab976)" style="fill: none; stroke: #7a7a7a; stroke-width: 3; stroke-linecap: square"/>
   </g>
   <g id="line2d_136">
    <path d="M 299.416888 1119.585625 
L 363.984376 1047.351045 
" clip-path="url(#paa812ab976)" style="fill: none; stroke: #7a7a7a; stroke-width: 3; stroke-linecap: square"/>
   </g>
   <g id="line2d_137">
    <path d="M 513.818928 846.778043 
L 547.432002 809.705643 
L 574.018615 780.557116 
" clip-path="url(#paa812ab976)" style="fill: none; stroke: #7a7a7a; stroke-width: 3; stroke-linecap: square"/>
   </g>
   <g id="line2d_138">
    <path d="M 536.512501 856.753632 
L 607.156928 780.557116 
" clip-path="url(#paa812ab976)" style="fill: none; stroke: #7a7a7a; stroke-width: 3; stroke-linecap: square"/>
   </g>
   <g id="line2d_139">
    <path d="M 119.197635 1361.475957 
L 252.605459 1215.308825 
" clip-path="url(#paa812ab976)" style="fill: none; stroke: #7a7a7a; stroke-width: 3; stroke-linecap: square"/>
   </g>
   <g id="line2d_140">
    <path d="M 149.962144 1371.522295 
L 280.236546 1227.902121 
" clip-path="url(#paa812ab976)" style="fill: none; stroke: #7a7a7a; stroke-width: 3; stroke-linecap: square"/>
   </g>
   <g id="line2d_141">
    <path d="M 216.713532 1154.252563 
L 215.194297 1155.879787 
L 200.951469 1172.505768 
L 189.27235 1186.938534 
" clip-path="url(#paa812ab976)" style="fill: none; stroke: #7a7a7a; stroke-width: 3; stroke-linecap: square"/>
   </g>
   <g id="line2d_142">
    <path d="M 192.880533 1142.508254 
L 164.299925 1174.628233 
" clip-path="url(#paa812ab976)" style="fill: none; stroke: #7a7a7a; stroke-width: 3; stroke-linecap: square"/>
   </g>
   <g id="line2d_143">
    <path d="M 726.796685 647.478521 
L 1081.538059 282.768178 
" clip-path="url(#paa812ab976)" style="fill: none; stroke: #7a7a7a; stroke-width: 3; stroke-linecap: square"/>
   </g>
   <g id="line2d_144">
    <path d="M 764.112895 647.407772 
L 1117.145129 281.494698 
" clip-path="url(#paa812ab976)" style="fill: none; stroke: #7a7a7a; stroke-width: 3; stroke-linecap: square"/>
   </g>
   <g id="line2d_145">
    <path d="M 692.898754 646.205041 
L 1046.215845 281.706945 
" clip-path="url(#paa812ab976)" style="fill: none; stroke: #7a7a7a; stroke-width: 3; stroke-linecap: square"/>
   </g>
   <g id="line2d_146">
    <path d="M 726.796685 647.478521 
L 1081.538059 282.768178 
" clip-path="url(#paa812ab976)" style="fill: none; stroke: #7a7a7a; stroke-width: 3; stroke-linecap: square"/>
   </g>
   <g id="line2d_147">
    <path d="M 189.27235 1186.938534 
L 178.352848 1201.795793 
L 165.059542 1221.888468 
L 157.368415 1231.934805 
L 141.701304 1257.262895 
L 133.915225 1269.431698 
L 126.79381 1281.459003 
L 113.975265 1301.693175 
L 109.037751 1307.56533 
L 76.754008 1343.434999 
" clip-path="url(#paa812ab976)" style="fill: none; stroke: #7a7a7a; stroke-width: 3; stroke-linecap: square"/>
   </g>
   <g id="line2d_148">
    <path d="M 164.299925 1174.628233 
L 146.353961 1198.753593 
L 131.54142 1221.039482 
L 105.714425 1257.616639 
L 77.893434 1297.165249 
L 52.731104 1331.549192 
" clip-path="url(#paa812ab976)" style="fill: none; stroke: #7a7a7a; stroke-width: 3; stroke-linecap: square"/>
   </g>
   <g id="line2d_149">
    <path d="M 164.299925 1174.628233 
L 28.898105 1319.521887 
" clip-path="url(#paa812ab976)" style="fill: none; stroke: #7a7a7a; stroke-width: 3; stroke-linecap: square"/>
   </g>
   <g id="line2d_150">
    <path d="M 134.389986 1160.832207 
L 44.090455 1261.790822 
L 3.166062 1307.353084 
" clip-path="url(#paa812ab976)" style="fill: none; stroke: #7a7a7a; stroke-width: 3; stroke-linecap: square"/>
   </g>
   <g id="line2d_151">
    <path d="M 164.299925 1174.628233 
L 146.353961 1198.753593 
L 131.54142 1221.039482 
L 105.714425 1257.616639 
L 77.893434 1297.165249 
L 52.731104 1331.549192 
" clip-path="url(#paa812ab976)" style="fill: none; stroke: #7a7a7a; stroke-width: 3; stroke-linecap: square"/>
   </g>
   <g id="line2d_152">
    <path d="M 134.389986 1160.832207 
L 28.898105 1319.521887 
" clip-path="url(#paa812ab976)" style="fill: none; stroke: #7a7a7a; stroke-width: 3; stroke-linecap: square"/>
   </g>
   <g id="line2d_153">
    <path d="M 189.27235 1186.938534 
L 52.731104 1331.549192 
" clip-path="url(#paa812ab976)" style="fill: none; stroke: #7a7a7a; stroke-width: 3; stroke-linecap: square"/>
   </g>
   <g id="line2d_154">
    <path d="M 164.299925 1174.628233 
L 28.898105 1319.521887 
" clip-path="url(#paa812ab976)" style="fill: none; stroke: #7a7a7a; stroke-width: 3; stroke-linecap: square"/>
   </g>
   <g id="line2d_155">
    <path d="M 438.047082 460.772295 
L 440.9906 460.913792 
L 474.223866 460.701546 
L 517.332159 460.206304 
L 545.912767 460.064806 
L 574.208519 459.711062 
L 638.396198 458.225336 
" clip-path="url(#paa812ab976)" style="fill: none; stroke: #7a7a7a; stroke-width: 3; stroke-linecap: square"/>
   </g>
   <g id="line2d_156">
    <path d="M 438.331939 485.039152 
L 495.493156 484.968403 
L 545.817815 484.402412 
L 595.098001 482.350695 
L 622.539183 481.077216 
" clip-path="url(#paa812ab976)" style="fill: none; stroke: #7a7a7a; stroke-width: 3; stroke-linecap: square"/>
   </g>
   <g id="line2d_157">
    <path d="M 438.331939 485.039152 
L 495.493156 484.968403 
L 545.817815 484.402412 
L 595.098001 482.350695 
L 622.539183 481.077216 
" clip-path="url(#paa812ab976)" style="fill: none; stroke: #7a7a7a; stroke-width: 3; stroke-linecap: square"/>
   </g>
   <g id="line2d_158">
    <path d="M 438.996604 509.871999 
L 527.017282 509.730502 
L 546.00772 509.589004 
L 576.962133 508.669269 
L 604.498267 507.749534 
" clip-path="url(#paa812ab976)" style="fill: none; stroke: #7a7a7a; stroke-width: 3; stroke-linecap: square"/>
   </g>
   <g id="line2d_159">
    <path d="M 567.483048 847.205438 
L 613.396697 786.348642 
" clip-path="url(#paa812ab976)" style="fill: none; stroke-dasharray: 32,8,5,8; stroke-dashoffset: 0; stroke: #1e90ff; stroke-width: 5"/>
   </g>
   <g id="line2d_160">
    <path d="M 539.498116 938.634859 
L 574.63228 900.622896 
" clip-path="url(#paa812ab976)" style="fill: none; stroke-dasharray: 32,8,5,8; stroke-dashoffset: 0; stroke: #1e90ff; stroke-width: 5"/>
   </g>
   <g id="line2d_161">
    <path d="M 574.488554 807.081027 
L 570.760939 818.75217 
" clip-path="url(#paa812ab976)" style="fill: none; stroke-dasharray: 32,8,5,8; stroke-dashoffset: 0; stroke: #1e90ff; stroke-width: 5"/>
   </g>
   <g id="line2d_162">
    <path d="M 342.272964 989.442417 
L 189.904376 1161.029115 
" clip-path="url(#paa812ab976)" style="fill: none; stroke-dasharray: 32,8,5,8; stroke-dashoffset: 0; stroke: #1e90ff; stroke-width: 5"/>
   </g>
   <g id="line2d_163">
    <path d="M 268.332657 1183.737494 
L 212.45552 1227.753437 
" clip-path="url(#paa812ab976)" style="fill: none; stroke-dasharray: 32,8,5,8; stroke-dashoffset: 0; stroke: #1e90ff; stroke-width: 5"/>
   </g>
   <g id="line2d_164">
    <path d="M 775.710229 604.63325 
L 779.794842 597.801909 
" clip-path="url(#paa812ab976)" style="fill: none; stroke-dasharray: 32,8,5,8; stroke-dashoffset: 0; stroke: #1e90ff; stroke-width: 5"/>
   </g>
   <g id="line2d_165">
    <path d="M 1136.370907 306.603701 
L 1217.321356 141.520163 
" clip-path="url(#paa812ab976)" style="fill: none; stroke-dasharray: 32,8,5,8; stroke-dashoffset: 0; stroke: #1e90ff; stroke-width: 5"/>
   </g>
   <g id="line2d_166">
    <path d="M 964.8357 348.477834 
L 626.035352 687.650881 
" clip-path="url(#paa812ab976)" style="fill: none; stroke-dasharray: 32,8,5,8; stroke-dashoffset: 0; stroke: #1e90ff; stroke-width: 5"/>
   </g>
   <g id="line2d_167">
    <path d="M 719.796001 718.904049 
L 742.402782 695.452946 
" clip-path="url(#paa812ab976)" style="fill: none; stroke-dasharray: 32,8,5,8; stroke-dashoffset: 0; stroke: #1e90ff; stroke-width: 5"/>
   </g>
   <g id="line2d_168">
    <path d="M 987.317299 253.305425 
L 889.833671 336.266057 
" clip-path="url(#paa812ab976)" style="fill: none; stroke-dasharray: 32,8,5,8; stroke-dashoffset: 0; stroke: #1e90ff; stroke-width: 5"/>
   </g>
   <g id="line2d_169">
    <path d="M 646.245146 782.370746 
L 698.997392 714.604882 
" clip-path="url(#paa812ab976)" style="fill: none; stroke-dasharray: 32,8,5,8; stroke-dashoffset: 0; stroke: #1e90ff; stroke-width: 5"/>
   </g>
   <g id="line2d_170">
    <path d="M 567.483048 847.205438 
" clip-path="url(#paa812ab976)" style="fill: none; stroke: #0000ff; stroke-width: 1.5; stroke-linecap: square"/>
    <defs>
     <path id="m78734c5be4" d="M 0 10 
C 2.652031 10 5.195799 8.946337 7.071068 7.071068 
C 8.946337 5.195799 10 2.652031 10 0 
C 10 -2.652031 8.946337 -5.195799 7.071068 -7.071068 
C 5.195799 -8.946337 2.652031 -10 0 -10 
C -2.652031 -10 -5.195799 -8.946337 -7.071068 -7.071068 
C -8.946337 -5.195799 -10 -2.652031 -10 0 
C -10 2.652031 -8.946337 5.195799 -7.071068 7.071068 
C -5.195799 8.946337 -2.652031 10 0 10 
z
" style="stroke: #0000ff"/>
    </defs>
    <g clip-path="url(#paa812ab976)">
     <use xlink:href="#m78734c5be4" x="567.483048" y="847.205438" style="fill: #0000ff; stroke: #0000ff"/>
    </g>
   </g>
   <g id="line2d_171">
    <path d="M 539.498116 938.634859 
" clip-path="url(#paa812ab976)" style="fill: none; stroke: #0000ff; stroke-width: 1.5; stroke-linecap: square"/>
    <g clip-path="url(#paa812ab976)">
     <use xlink:href="#m78734c5be4" x="539.498116" y="938.634859" style="fill: #0000ff; stroke: #0000ff"/>
    </g>
   </g>
   <g id="line2d_172">
    <path d="M 574.488554 807.081027 
" clip-path="url(#paa812ab976)" style="fill: none; stroke: #0000ff; stroke-width: 1.5; stroke-linecap: square"/>
    <g clip-path="url(#paa812ab976)">
     <use xlink:href="#m78734c5be4" x="574.488554" y="807.081027" style="fill: #0000ff; stroke: #0000ff"/>
    </g>
   </g>
   <g id="line2d_173">
    <path d="M 342.272964 989.442417 
" clip-path="url(#paa812ab976)" style="fill: none; stroke: #0000ff; stroke-width: 1.5; stroke-linecap: square"/>
    <g clip-path="url(#paa812ab976)">
     <use xlink:href="#m78734c5be4" x="342.272964" y="989.442417" style="fill: #0000ff; stroke: #0000ff"/>
    </g>
   </g>
   <g id="line2d_174">
    <path d="M 268.332657 1183.737494 
" clip-path="url(#paa812ab976)" style="fill: none; stroke: #0000ff; stroke-width: 1.5; stroke-linecap: square"/>
    <g clip-path="url(#paa812ab976)">
     <use xlink:href="#m78734c5be4" x="268.332657" y="1183.737494" style="fill: #0000ff; stroke: #0000ff"/>
    </g>
   </g>
   <g id="line2d_175">
    <path d="M 775.710229 604.63325 
" clip-path="url(#paa812ab976)" style="fill: none; stroke: #0000ff; stroke-width: 1.5; stroke-linecap: square"/>
    <g clip-path="url(#paa812ab976)">
     <use xlink:href="#m78734c5be4" x="775.710229" y="604.63325" style="fill: #0000ff; stroke: #0000ff"/>
    </g>
   </g>
   <g id="line2d_176">
    <path d="M 1136.370907 306.603701 
" clip-path="url(#paa812ab976)" style="fill: none; stroke: #0000ff; stroke-width: 1.5; stroke-linecap: square"/>
    <g clip-path="url(#paa812ab976)">
     <use xlink:href="#m78734c5be4" x="1136.370907" y="306.603701" style="fill: #0000ff; stroke: #0000ff"/>
    </g>
   </g>
   <g id="line2d_177">
    <path d="M 964.8357 348.477834 
" clip-path="url(#paa812ab976)" style="fill: none; stroke: #0000ff; stroke-width: 1.5; stroke-linecap: square"/>
    <g clip-path="url(#paa812ab976)">
     <use xlink:href="#m78734c5be4" x="964.8357" y="348.477834" style="fill: #0000ff; stroke: #0000ff"/>
    </g>
   </g>
   <g id="line2d_178">
    <path d="M 719.796001 718.904049 
" clip-path="url(#paa812ab976)" style="fill: none; stroke: #0000ff; stroke-width: 1.5; stroke-linecap: square"/>
    <g clip-path="url(#paa812ab976)">
     <use xlink:href="#m78734c5be4" x="719.796001" y="718.904049" style="fill: #0000ff; stroke: #0000ff"/>
    </g>
   </g>
   <g id="line2d_179">
    <path d="M 987.317299 253.305425 
" clip-path="url(#paa812ab976)" style="fill: none; stroke: #0000ff; stroke-width: 1.5; stroke-linecap: square"/>
    <g clip-path="url(#paa812ab976)">
     <use xlink:href="#m78734c5be4" x="987.317299" y="253.305425" style="fill: #0000ff; stroke: #0000ff"/>
    </g>
   </g>
   <g id="line2d_180">
    <path d="M 646.245146 782.370746 
" clip-path="url(#paa812ab976)" style="fill: none; stroke: #0000ff; stroke-width: 1.5; stroke-linecap: square"/>
    <g clip-path="url(#paa812ab976)">
     <use xlink:href="#m78734c5be4" x="646.245146" y="782.370746" style="fill: #0000ff; stroke: #0000ff"/>
    </g>
   </g>
   <g id="line2d_181">
    <path d="M 613.396697 786.348642 
" clip-path="url(#paa812ab976)" style="fill: none; stroke: #ff0000; stroke-width: 1.5; stroke-linecap: square"/>
    <defs>
     <path id="m5e6c4f3e3c" d="M 0 -10 
L -2.24514 -3.09017 
L -9.510565 -3.09017 
L -3.632713 1.18034 
L -5.877853 8.09017 
L -0 3.81966 
L 5.877853 8.09017 
L 3.632713 1.18034 
L 9.510565 -3.09017 
L 2.24514 -3.09017 
z
" style="stroke: #ff0000; stroke-linejoin: bevel"/>
    </defs>
    <g clip-path="url(#paa812ab976)">
     <use xlink:href="#m5e6c4f3e3c" x="613.396697" y="786.348642" style="fill: #ff0000; stroke: #ff0000; stroke-linejoin: bevel"/>
    </g>
   </g>
   <g id="line2d_182">
    <path d="M 574.63228 900.622896 
" clip-path="url(#paa812ab976)" style="fill: none; stroke: #ff0000; stroke-width: 1.5; stroke-linecap: square"/>
    <g clip-path="url(#paa812ab976)">
     <use xlink:href="#m5e6c4f3e3c" x="574.63228" y="900.622896" style="fill: #ff0000; stroke: #ff0000; stroke-linejoin: bevel"/>
    </g>
   </g>
   <g id="line2d_183">
    <path d="M 570.760939 818.75217 
" clip-path="url(#paa812ab976)" style="fill: none; stroke: #ff0000; stroke-width: 1.5; stroke-linecap: square"/>
    <g clip-path="url(#paa812ab976)">
     <use xlink:href="#m5e6c4f3e3c" x="570.760939" y="818.75217" style="fill: #ff0000; stroke: #ff0000; stroke-linejoin: bevel"/>
    </g>
   </g>
   <g id="line2d_184">
    <path d="M 189.904376 1161.029115 
" clip-path="url(#paa812ab976)" style="fill: none; stroke: #ff0000; stroke-width: 1.5; stroke-linecap: square"/>
    <g clip-path="url(#paa812ab976)">
     <use xlink:href="#m5e6c4f3e3c" x="189.904376" y="1161.029115" style="fill: #ff0000; stroke: #ff0000; stroke-linejoin: bevel"/>
    </g>
   </g>
   <g id="line2d_185">
    <path d="M 212.45552 1227.753437 
" clip-path="url(#paa812ab976)" style="fill: none; stroke: #ff0000; stroke-width: 1.5; stroke-linecap: square"/>
    <g clip-path="url(#paa812ab976)">
     <use xlink:href="#m5e6c4f3e3c" x="212.45552" y="1227.753437" style="fill: #ff0000; stroke: #ff0000; stroke-linejoin: bevel"/>
    </g>
   </g>
   <g id="line2d_186">
    <path d="M 779.794842 597.801909 
" clip-path="url(#paa812ab976)" style="fill: none; stroke: #ff0000; stroke-width: 1.5; stroke-linecap: square"/>
    <g clip-path="url(#paa812ab976)">
     <use xlink:href="#m5e6c4f3e3c" x="779.794842" y="597.801909" style="fill: #ff0000; stroke: #ff0000; stroke-linejoin: bevel"/>
    </g>
   </g>
   <g id="line2d_187">
    <path d="M 1217.321356 141.520163 
" clip-path="url(#paa812ab976)" style="fill: none; stroke: #ff0000; stroke-width: 1.5; stroke-linecap: square"/>
    <g clip-path="url(#paa812ab976)">
     <use xlink:href="#m5e6c4f3e3c" x="1217.321356" y="141.520163" style="fill: #ff0000; stroke: #ff0000; stroke-linejoin: bevel"/>
    </g>
   </g>
   <g id="line2d_188">
    <path d="M 626.035352 687.650881 
" clip-path="url(#paa812ab976)" style="fill: none; stroke: #ff0000; stroke-width: 1.5; stroke-linecap: square"/>
    <g clip-path="url(#paa812ab976)">
     <use xlink:href="#m5e6c4f3e3c" x="626.035352" y="687.650881" style="fill: #ff0000; stroke: #ff0000; stroke-linejoin: bevel"/>
    </g>
   </g>
   <g id="line2d_189">
    <path d="M 742.402782 695.452946 
" clip-path="url(#paa812ab976)" style="fill: none; stroke: #ff0000; stroke-width: 1.5; stroke-linecap: square"/>
    <g clip-path="url(#paa812ab976)">
     <use xlink:href="#m5e6c4f3e3c" x="742.402782" y="695.452946" style="fill: #ff0000; stroke: #ff0000; stroke-linejoin: bevel"/>
    </g>
   </g>
   <g id="line2d_190">
    <path d="M 889.833671 336.266057 
" clip-path="url(#paa812ab976)" style="fill: none; stroke: #ff0000; stroke-width: 1.5; stroke-linecap: square"/>
    <g clip-path="url(#paa812ab976)">
     <use xlink:href="#m5e6c4f3e3c" x="889.833671" y="336.266057" style="fill: #ff0000; stroke: #ff0000; stroke-linejoin: bevel"/>
    </g>
   </g>
   <g id="line2d_191">
    <path d="M 698.997392 714.604882 
" clip-path="url(#paa812ab976)" style="fill: none; stroke: #ff0000; stroke-width: 1.5; stroke-linecap: square"/>
    <g clip-path="url(#paa812ab976)">
     <use xlink:href="#m5e6c4f3e3c" x="698.997392" y="714.604882" style="fill: #ff0000; stroke: #ff0000; stroke-linejoin: bevel"/>
    </g>
   </g>
  </g>
 </g>
 <defs>
  <clipPath id="paa812ab976">
   <rect x="0" y="0" width="1440" height="1440"/>
  </clipPath>
 </defs>
</svg>
