<?xml version="1.0" encoding="utf-8" standalone="no"?>
<!DOCTYPE svg PUBLIC "-//W3C//DTD SVG 1.1//EN"
  "http://www.w3.org/Graphics/SVG/1.1/DTD/svg11.dtd">
<svg xmlns:xlink="http://www.w3.org/1999/xlink" width="1440pt" height="1440pt" viewBox="0 0 1440 1440" xmlns="http://www.w3.org/2000/svg" version="1.1">
 <metadata>
  <rdf:RDF xmlns:dc="http://purl.org/dc/elements/1.1/" xmlns:cc="http://creativecommons.org/ns#" xmlns:rdf="http://www.w3.org/1999/02/22-rdf-syntax-ns#">
   <cc:Work>
    <dc:type rdf:resource="http://purl.org/dc/dcmitype/StillImage"/>
    <dc:date>2026-02-27T11:07:18.708009</dc:date>
    <dc:format>image/svg+xml</dc:format>
    <dc:creator>
     <cc:Agent>
      <dc:title>Matplotlib v3.7.3, https://matplotlib.org/</dc:title>
     </cc:Agent>
    </dc:creator>
   </cc:Work>
  </rdf:RDF>
 </metadata>
 <defs>
  <style type="text/css">*{stroke-linejoin: round; stroke-linecap: butt}</style>
 </defs>
 <g id="figure_1">
  <g id="patch_1">
   <path d="M 0 1440 
L 1440 1440 
L 1440 0 
L 0 0 
z
" style="fill: #ffffff"/>
  </g>
  <g id="axes_1">
   <g id="line2d_1">
    <path d="M 489.034718 469.521427 
L 453.121515 505.331131 
L 450.690254 510.294097 
L 451.3849 517.471308 
L 455.344383 525.030286 
" clip-path="url(#p0a8013ceb9)" style="fill: none; stroke: #7a7a7a; stroke-width: 3; stroke-linecap: square"/>
   </g>
   <g id="line2d_2">
    <path d="M 472.849464 451.731105 
L 436.866796 487.388103 
L 428.600508 498.15392 
L 424.432631 511.28669 
L 423.876914 525.106639 
L 426.447105 537.857643 
L 431.587486 548.012633 
" clip-path="url(#p0a8013ceb9)" style="fill: none; stroke: #7a7a7a; stroke-width: 3; stroke-linecap: square"/>
   </g>
   <g id="line2d_3">
    <path d="M 511.541252 591.381315 
L 455.344383 525.030286 
" clip-path="url(#p0a8013ceb9)" style="fill: none; stroke: #7a7a7a; stroke-width: 3; stroke-linecap: square"/>
   </g>
   <g id="line2d_4">
    <path d="M 535.228684 569.696974 
L 478.128774 503.040532 
" clip-path="url(#p0a8013ceb9)" style="fill: none; stroke: #7a7a7a; stroke-width: 3; stroke-linecap: square"/>
   </g>
   <g id="line2d_5">
    <path d="M 455.344383 525.030286 
L 450.342931 514.340822 
L 447.77274 501.437112 
L 448.120063 487.769869 
L 452.079546 474.866159 
L 459.998511 464.558462 
L 472.78 451.807459 
" clip-path="url(#p0a8013ceb9)" style="fill: none; stroke: #7a7a7a; stroke-width: 3; stroke-linecap: square"/>
   </g>
   <g id="line2d_6">
    <path d="M 478.128774 503.040532 
L 477.225735 501.513466 
L 472.015889 495.176141 
L 471.112849 492.809188 
L 470.904455 490.976708 
L 471.529637 488.533402 
L 473.891433 485.02115 
L 476.25323 482.577844 
L 476.461624 482.196077 
L 488.895789 469.674134 
" clip-path="url(#p0a8013ceb9)" style="fill: none; stroke: #7a7a7a; stroke-width: 3; stroke-linecap: square"/>
   </g>
   <g id="line2d_7">
    <path d="M 12.090709 1409.430713 
L 12.229638 1409.201653 
L 12.438032 1409.048947 
L 12.576961 1408.89624 
L 12.71589 1408.819887 
L 13.757859 1407.674587 
L 13.966253 1407.52188 
L 350.661216 1066.833397 
L 462.151914 951.768954 
L 462.568702 951.310834 
" clip-path="url(#p0a8013ceb9)" style="fill: none; stroke: #7a7a7a; stroke-width: 3; stroke-linecap: square"/>
   </g>
   <g id="line2d_8">
    <path d="M 40.29334 1409.430713 
L 40.501734 1409.201653 
L 40.640663 1409.048947 
L 40.779593 1408.89624 
L 40.918522 1408.819887 
L 42.029955 1407.674587 
L 42.238349 1407.445527 
L 76.345473 1372.323003 
L 254.035944 1192.052831 
L 299.952051 1146.240843 
L 368.096833 1077.217447 
L 368.930408 1075.766734 
L 491.813303 951.768954 
L 492.299555 951.310834 
" clip-path="url(#p0a8013ceb9)" style="fill: none; stroke: #7a7a7a; stroke-width: 3; stroke-linecap: square"/>
   </g>
   <g id="line2d_9">
    <path d="M 455.344383 525.030286 
L 511.541252 591.381315 
" clip-path="url(#p0a8013ceb9)" style="fill: none; stroke: #7a7a7a; stroke-width: 3; stroke-linecap: square"/>
   </g>
   <g id="line2d_10">
    <path d="M 431.587486 548.012633 
L 451.107041 570.765921 
L 460.484764 581.608091 
L 487.645426 613.37107 
" clip-path="url(#p0a8013ceb9)" style="fill: none; stroke: #7a7a7a; stroke-width: 3; stroke-linecap: square"/>
   </g>
   <g id="line2d_11">
    <path d="M 455.344383 525.030286 
L 450.968112 522.35792 
L 443.674328 522.968747 
L 432.559991 529.153365 
L 416.930453 543.126021 
L 403.732178 556.640558 
" clip-path="url(#p0a8013ceb9)" style="fill: none; stroke: #7a7a7a; stroke-width: 3; stroke-linecap: square"/>
   </g>
   <g id="line2d_12">
    <path d="M 478.128774 503.040532 
L 471.460172 496.77956 
L 462.777096 492.503775 
L 452.357404 490.671295 
L 440.478956 491.892948 
L 427.419609 496.626854 
L 413.526688 505.331131 
L 399.008584 518.692961 
L 385.810308 532.131144 
" clip-path="url(#p0a8013ceb9)" style="fill: none; stroke: #7a7a7a; stroke-width: 3; stroke-linecap: square"/>
   </g>
   <g id="line2d_13">
    <path d="M 455.344383 525.030286 
L 420.403684 483.952204 
" clip-path="url(#p0a8013ceb9)" style="fill: none; stroke: #7a7a7a; stroke-width: 3; stroke-linecap: square"/>
   </g>
   <g id="line2d_14">
    <path d="M 478.128774 503.040532 
L 444.646833 463.489516 
" clip-path="url(#p0a8013ceb9)" style="fill: none; stroke: #7a7a7a; stroke-width: 3; stroke-linecap: square"/>
   </g>
   <g id="line2d_15">
    <path d="M 385.810308 532.207498 
L 395.32696 522.663333 
L 406.302368 514.188116 
L 419.431179 510.82857 
L 433.115707 511.897516 
L 445.619337 516.860482 
L 455.344383 525.030286 
" clip-path="url(#p0a8013ceb9)" style="fill: none; stroke: #7a7a7a; stroke-width: 3; stroke-linecap: square"/>
   </g>
   <g id="line2d_16">
    <path d="M 403.801642 556.564204 
L 413.387758 547.02004 
L 418.667069 542.744255 
L 420.889936 541.522602 
L 423.460127 541.522602 
L 425.960853 542.515195 
L 428.114256 544.271321 
L 430.823375 547.401807 
L 431.587486 548.012633 
" clip-path="url(#p0a8013ceb9)" style="fill: none; stroke: #7a7a7a; stroke-width: 3; stroke-linecap: square"/>
   </g>
   <g id="line2d_17">
    <path d="M 420.403684 483.952204 
L 455.344383 525.030286 
" clip-path="url(#p0a8013ceb9)" style="fill: none; stroke: #7a7a7a; stroke-width: 3; stroke-linecap: square"/>
   </g>
   <g id="line2d_18">
    <path d="M 395.118566 505.254778 
L 431.587486 548.012633 
" clip-path="url(#p0a8013ceb9)" style="fill: none; stroke: #7a7a7a; stroke-width: 3; stroke-linecap: square"/>
   </g>
   <g id="line2d_19">
    <path d="M -1 1391.720886 
L 7.992297 1382.019874 
L 430.962305 951.768954 
L 431.379092 951.310834 
" clip-path="url(#p0a8013ceb9)" style="fill: none; stroke: #7a7a7a; stroke-width: 3; stroke-linecap: square"/>
   </g>
   <g id="line2d_20">
    <path d="M 12.090709 1409.430713 
L 12.229638 1409.201653 
L 12.438032 1409.048947 
L 12.576961 1408.89624 
L 12.71589 1408.819887 
L 13.757859 1407.674587 
L 13.966253 1407.52188 
L 350.661216 1066.833397 
L 462.151914 951.768954 
L 462.568702 951.310834 
" clip-path="url(#p0a8013ceb9)" style="fill: none; stroke: #7a7a7a; stroke-width: 3; stroke-linecap: square"/>
   </g>
   <g id="line2d_21">
    <path d="M 915.68635 490.824002 
L 916.033673 490.442235 
L 916.311532 490.213175 
L 917.145107 489.373289 
L 1021.133628 382.70771 
L 1243.281449 156.16743 
L 1398.630364 -1 
" clip-path="url(#p0a8013ceb9)" style="fill: none; stroke: #7a7a7a; stroke-width: 3; stroke-linecap: square"/>
   </g>
   <g id="line2d_22">
    <path d="M 915.68635 518.463901 
L 916.033673 518.082135 
L 916.311532 517.853075 
L 917.145107 517.013188 
L 939.998964 494.870727 
L 995.084399 437.682096 
L 1082.331949 349.494019 
L 1119.078727 312.539015 
L 1141.654725 289.709375 
L 1219.316159 209.691102 
L 1223.692429 205.109904 
L 1279.958763 147.234092 
L 1280.375551 146.775972 
L 1426.204844 -1 
" clip-path="url(#p0a8013ceb9)" style="fill: none; stroke: #7a7a7a; stroke-width: 3; stroke-linecap: square"/>
   </g>
   <g id="line2d_23">
    <path d="M 1337.245353 -1 
L 1197.851594 140.285941 
L 917.145107 426.992632 
L 916.311532 427.832518 
L 916.103138 428.061578 
L 915.68635 428.443345 
" clip-path="url(#p0a8013ceb9)" style="fill: none; stroke: #7a7a7a; stroke-width: 3; stroke-linecap: square"/>
   </g>
   <g id="line2d_24">
    <path d="M 1312.33208 -1 
L 1280.722874 31.329763 
L 1147.142429 167.0096 
L 1063.715433 251.685425 
L 1006.129272 309.40853 
L 994.528682 321.16694 
L 975.912167 340.178915 
L 917.145107 399.352733 
L 916.311532 400.192619 
L 916.103138 400.421679 
L 915.68635 400.803445 
" clip-path="url(#p0a8013ceb9)" style="fill: none; stroke: #7a7a7a; stroke-width: 3; stroke-linecap: square"/>
   </g>
   <g id="line2d_25">
    <path d="M 1368.290687 -1 
L 1285.377002 82.410129 
L 1203.478228 166.475127 
L 917.145107 459.061023 
L 916.311532 459.90091 
L 916.103138 460.12997 
L 915.68635 460.511736 
" clip-path="url(#p0a8013ceb9)" style="fill: none; stroke: #7a7a7a; stroke-width: 3; stroke-linecap: square"/>
   </g>
   <g id="line2d_26">
    <path d="M 1337.245353 -1 
L 1197.851594 140.285941 
L 917.145107 426.992632 
L 916.311532 427.832518 
L 916.103138 428.061578 
L 915.68635 428.443345 
" clip-path="url(#p0a8013ceb9)" style="fill: none; stroke: #7a7a7a; stroke-width: 3; stroke-linecap: square"/>
   </g>
   <g id="line2d_27">
    <path d="M 915.68635 460.511736 
L 916.103138 460.12997 
L 916.311532 459.90091 
L 917.145107 459.061023 
L 1203.478228 166.475127 
L 1285.377002 82.410129 
L 1368.290687 -1 
" clip-path="url(#p0a8013ceb9)" style="fill: none; stroke: #7a7a7a; stroke-width: 3; stroke-linecap: square"/>
   </g>
   <g id="line2d_28">
    <path d="M 915.68635 490.824002 
L 916.033673 490.442235 
L 916.311532 490.213175 
L 917.145107 489.373289 
L 1021.133628 382.70771 
L 1243.281449 156.16743 
L 1398.630364 -1 
" clip-path="url(#p0a8013ceb9)" style="fill: none; stroke: #7a7a7a; stroke-width: 3; stroke-linecap: square"/>
   </g>
   <g id="line2d_29">
    <path d="M 704.86126 641.392735 
L 682.771514 665.444029 
L 673.185398 675.217253 
L 664.641251 683.234351 
L 656.513892 689.877089 
L 648.872785 694.916408 
L 641.440072 698.275954 
L 634.146288 700.03208 
L 626.783039 699.955727 
L 619.141932 698.123247 
L 611.153502 694.458288 
L 602.470426 688.808143 
L 593.162168 681.249165 
L 582.811941 671.705001 
L 571.48921 660.022944 
L 558.846651 646.202994 
L 544.745335 630.245152 
L 529.115798 611.99671 
L 511.541252 591.381315 
" clip-path="url(#p0a8013ceb9)" style="fill: none; stroke: #7a7a7a; stroke-width: 3; stroke-linecap: square"/>
   </g>
   <g id="line2d_30">
    <path d="M 693.607993 627.267373 
L 690.621015 630.321505 
L 687.98136 632.993871 
L 687.425643 633.604698 
L 662.001596 659.488471 
L 656.236033 665.444029 
L 654.291024 667.429215 
L 653.526914 668.040042 
L 647.90028 672.773947 
L 641.648465 675.980786 
L 635.605044 676.897026 
L 629.422694 675.522666 
L 622.823556 671.705001 
L 615.460308 665.444029 
L 606.916161 656.663398 
L 596.982721 645.210401 
L 585.243202 631.085038 
L 555.165026 594.206388 
L 535.228684 569.696974 
" clip-path="url(#p0a8013ceb9)" style="fill: none; stroke: #7a7a7a; stroke-width: 3; stroke-linecap: square"/>
   </g>
   <g id="line2d_31">
    <path d="M 400.675735 951.310834 
L 400.189483 951.768954 
L 363.095381 991.014557 
L 253.619156 1101.192388 
L -1 1359.346094 
" clip-path="url(#p0a8013ceb9)" style="fill: none; stroke: #7a7a7a; stroke-width: 3; stroke-linecap: square"/>
   </g>
   <g id="line2d_32">
    <path d="M 373.306679 951.310834 
L 372.889891 951.768954 
L 346.910127 979.56156 
L 328.710399 998.115415 
L 288.420926 1039.193497 
L -1 1334.267715 
" clip-path="url(#p0a8013ceb9)" style="fill: none; stroke: #7a7a7a; stroke-width: 3; stroke-linecap: square"/>
   </g>
   <g id="line2d_33">
    <path d="M 431.379092 951.310834 
L 430.962305 951.768954 
L 7.992297 1382.019874 
L -1 1391.720886 
" clip-path="url(#p0a8013ceb9)" style="fill: none; stroke: #7a7a7a; stroke-width: 3; stroke-linecap: square"/>
   </g>
   <g id="line2d_34">
    <path d="M 400.675735 951.310834 
L 400.189483 951.768954 
L 363.095381 991.014557 
L 253.619156 1101.192388 
L -1 1359.346094 
" clip-path="url(#p0a8013ceb9)" style="fill: none; stroke: #7a7a7a; stroke-width: 3; stroke-linecap: square"/>
   </g>
   <g id="line2d_35">
    <path d="M 524.670063 888.013937 
L 724.45028 684.150591 
L 733.689073 674.68278 
" clip-path="url(#p0a8013ceb9)" style="fill: none; stroke: #7a7a7a; stroke-width: 3; stroke-linecap: square"/>
   </g>
   <g id="line2d_36">
    <path d="M 538.771379 903.819073 
L 733.966932 703.315273 
L 747.720924 690.869682 
" clip-path="url(#p0a8013ceb9)" style="fill: none; stroke: #7a7a7a; stroke-width: 3; stroke-linecap: square"/>
   </g>
   <g id="line2d_37">
    <path d="M 462.568702 951.310834 
L 462.84656 951.005421 
L 497.231542 916.035603 
" clip-path="url(#p0a8013ceb9)" style="fill: none; stroke: #7a7a7a; stroke-width: 3; stroke-linecap: square"/>
   </g>
   <g id="line2d_38">
    <path d="M 492.299555 951.310834 
L 492.507949 951.081774 
L 511.471787 931.688032 
" clip-path="url(#p0a8013ceb9)" style="fill: none; stroke: #7a7a7a; stroke-width: 3; stroke-linecap: square"/>
   </g>
   <g id="line2d_39">
    <path d="M 431.379092 951.310834 
L 431.656951 951.005421 
L 482.713439 899.008814 
" clip-path="url(#p0a8013ceb9)" style="fill: none; stroke: #7a7a7a; stroke-width: 3; stroke-linecap: square"/>
   </g>
   <g id="line2d_40">
    <path d="M 462.568702 951.310834 
L 462.84656 951.005421 
L 497.231542 916.035603 
" clip-path="url(#p0a8013ceb9)" style="fill: none; stroke: #7a7a7a; stroke-width: 3; stroke-linecap: square"/>
   </g>
   <g id="line2d_41">
    <path d="M 719.93508 658.724938 
L 699.651414 679.493039 
L 695.06675 684.914124 
L 690.482086 691.556862 
L 685.758493 704.155159 
L 682.771514 719.120408 
L 681.590616 735.460017 
L 682.424191 752.028686 
L 685.341705 767.757469 
L 690.551551 781.653772 
L 698.192658 792.648649 
" clip-path="url(#p0a8013ceb9)" style="fill: none; stroke: #7a7a7a; stroke-width: 3; stroke-linecap: square"/>
   </g>
   <g id="line2d_42">
    <path d="M 704.86126 641.392735 
L 687.495108 660.86283 
L 682.910444 666.054856 
L 673.81058 676.820673 
L 670.823601 681.325518 
L 668.39234 685.448597 
L 663.599282 698.42866 
L 660.195516 712.630377 
L 658.250507 727.671979 
L 657.764255 743.171702 
L 658.806224 758.595071 
L 661.445879 773.560321 
L 665.68322 787.762037 
L 671.657177 800.665747 
L 679.367748 811.889684 
" clip-path="url(#p0a8013ceb9)" style="fill: none; stroke: #7a7a7a; stroke-width: 3; stroke-linecap: square"/>
   </g>
   <g id="line2d_43">
    <path d="M 698.192658 792.648649 
L 691.454591 779.973999 
L 687.634037 766.306756 
L 686.453139 752.486806 
L 687.564572 738.97227 
L 690.69048 726.603033 
L 695.483538 715.913569 
L 701.526959 707.591058 
L 733.689073 674.68278 
" clip-path="url(#p0a8013ceb9)" style="fill: none; stroke: #7a7a7a; stroke-width: 3; stroke-linecap: square"/>
   </g>
   <g id="line2d_44">
    <path d="M 715.628275 777.91246 
L 709.168066 764.77969 
L 707.709309 748.898201 
L 710.210035 734.009304 
L 715.628275 723.77796 
L 729.104409 709.958011 
L 733.966932 703.315273 
L 747.720924 690.869682 
" clip-path="url(#p0a8013ceb9)" style="fill: none; stroke: #7a7a7a; stroke-width: 3; stroke-linecap: square"/>
   </g>
   <g id="line2d_45">
    <path d="M 915.68635 1053.624274 
L 776.340343 883.203678 
" clip-path="url(#p0a8013ceb9)" style="fill: none; stroke: #7a7a7a; stroke-width: 3; stroke-linecap: square"/>
   </g>
   <g id="line2d_46">
    <path d="M 915.68635 1015.52397 
L 794.123283 867.703956 
" clip-path="url(#p0a8013ceb9)" style="fill: none; stroke: #7a7a7a; stroke-width: 3; stroke-linecap: square"/>
   </g>
   <g id="line2d_47">
    <path d="M 719.93508 658.724938 
L 509.943566 871.521622 
" clip-path="url(#p0a8013ceb9)" style="fill: none; stroke: #7a7a7a; stroke-width: 3; stroke-linecap: square"/>
   </g>
   <g id="line2d_48">
    <path d="M 704.86126 641.392735 
L 675.199872 673.613834 
L 495.425462 855.182013 
" clip-path="url(#p0a8013ceb9)" style="fill: none; stroke: #7a7a7a; stroke-width: 3; stroke-linecap: square"/>
   </g>
   <g id="line2d_49">
    <path d="M 495.425462 855.182013 
L 467.500689 883.509092 
" clip-path="url(#p0a8013ceb9)" style="fill: none; stroke: #7a7a7a; stroke-width: 3; stroke-linecap: square"/>
   </g>
   <g id="line2d_50">
    <path d="M 482.991297 841.209356 
L 454.719201 869.612789 
" clip-path="url(#p0a8013ceb9)" style="fill: none; stroke: #7a7a7a; stroke-width: 3; stroke-linecap: square"/>
   </g>
   <g id="line2d_51">
    <path d="M 698.192658 792.648649 
L 587.743928 681.707285 
L 511.541252 591.381315 
" clip-path="url(#p0a8013ceb9)" style="fill: none; stroke: #7a7a7a; stroke-width: 3; stroke-linecap: square"/>
   </g>
   <g id="line2d_52">
    <path d="M 715.628275 777.91246 
L 612.473329 660.63377 
L 535.228684 569.696974 
" clip-path="url(#p0a8013ceb9)" style="fill: none; stroke: #7a7a7a; stroke-width: 3; stroke-linecap: square"/>
   </g>
   <g id="line2d_53">
    <path d="M 511.541252 591.381315 
L 528.69901 613.14201 
L 541.272105 627.572786 
L 562.806134 652.616673 
L 574.406723 665.214969 
L 586.910353 677.278793 
L 600.664346 688.50273 
L 612.403865 696.138061 
L 626.018928 700.871966 
L 639.217204 700.71926 
L 654.638347 697.207007 
L 667.975552 693.618402 
L 686.939391 684.761417 
L 703.95822 673.30842 
L 719.93508 658.724938 
" clip-path="url(#p0a8013ceb9)" style="fill: none; stroke: #7a7a7a; stroke-width: 3; stroke-linecap: square"/>
   </g>
   <g id="line2d_54">
    <path d="M 487.645426 613.37107 
L 492.716342 620.700988 
L 543.91176 681.096458 
L 553.497876 692.396749 
L 565.932041 704.765985 
L 576.073874 714.31015 
L 587.674464 721.411008 
L 603.304001 726.450326 
L 618.864073 728.435513 
L 634.215752 728.053746 
L 648.80332 726.06856 
L 665.752685 719.807588 
L 682.424191 713.546616 
L 699.234627 704.155159 
L 716.322921 691.327802 
L 733.689073 674.68278 
" clip-path="url(#p0a8013ceb9)" style="fill: none; stroke: #7a7a7a; stroke-width: 3; stroke-linecap: square"/>
   </g>
   <g id="line2d_55">
    <path d="M 915.68635 428.443345 
L 735.634082 610.62235 
L 704.86126 641.392735 
" clip-path="url(#p0a8013ceb9)" style="fill: none; stroke: #7a7a7a; stroke-width: 3; stroke-linecap: square"/>
   </g>
   <g id="line2d_56">
    <path d="M 915.68635 400.803445 
L 693.607993 627.267373 
" clip-path="url(#p0a8013ceb9)" style="fill: none; stroke: #7a7a7a; stroke-width: 3; stroke-linecap: square"/>
   </g>
   <g id="line2d_57">
    <path d="M 698.192658 792.648649 
L 772.797648 878.85154 
L 776.340343 883.203678 
" clip-path="url(#p0a8013ceb9)" style="fill: none; stroke: #7a7a7a; stroke-width: 3; stroke-linecap: square"/>
   </g>
   <g id="line2d_58">
    <path d="M 679.367748 811.889684 
L 703.95822 834.642971 
L 758.279545 899.008814 
" clip-path="url(#p0a8013ceb9)" style="fill: none; stroke: #7a7a7a; stroke-width: 3; stroke-linecap: square"/>
   </g>
   <g id="line2d_59">
    <path d="M 698.192658 792.648649 
L 688.467612 784.707904 
L 677.005952 778.675993 
L 664.293928 774.629267 
L 650.887259 772.415021 
L 637.272195 772.185961 
L 623.93499 773.713027 
L 611.43136 777.148926 
L 600.178094 782.493658 
L 590.800371 789.594516 
L 509.943566 871.521622 
" clip-path="url(#p0a8013ceb9)" style="fill: none; stroke: #7a7a7a; stroke-width: 3; stroke-linecap: square"/>
   </g>
   <g id="line2d_60">
    <path d="M 715.628275 777.91246 
L 705.694835 768.521002 
L 694.094246 760.962024 
L 681.312758 755.235525 
L 667.558765 751.265153 
L 653.31852 749.050907 
L 638.869881 748.669141 
L 624.629636 750.119854 
L 610.875643 753.250339 
L 598.024691 758.136951 
L 586.354636 764.856043 
L 576.282268 773.254907 
L 495.425462 855.182013 
" clip-path="url(#p0a8013ceb9)" style="fill: none; stroke: #7a7a7a; stroke-width: 3; stroke-linecap: square"/>
   </g>
   <g id="line2d_61">
    <path d="M 733.689073 674.68278 
L 915.68635 490.824002 
" clip-path="url(#p0a8013ceb9)" style="fill: none; stroke: #7a7a7a; stroke-width: 3; stroke-linecap: square"/>
   </g>
   <g id="line2d_62">
    <path d="M 747.720924 690.869682 
L 901.237711 533.352797 
L 915.68635 518.463901 
" clip-path="url(#p0a8013ceb9)" style="fill: none; stroke: #7a7a7a; stroke-width: 3; stroke-linecap: square"/>
   </g>
   <g id="line2d_63">
    <path d="M 915.68635 460.511736 
L 719.93508 658.724938 
" clip-path="url(#p0a8013ceb9)" style="fill: none; stroke: #7a7a7a; stroke-width: 3; stroke-linecap: square"/>
   </g>
   <g id="line2d_64">
    <path d="M 915.68635 428.443345 
L 735.634082 610.62235 
L 704.86126 641.392735 
" clip-path="url(#p0a8013ceb9)" style="fill: none; stroke: #7a7a7a; stroke-width: 3; stroke-linecap: square"/>
   </g>
   <g id="line2d_65">
    <path d="M 524.670063 888.013937 
L 616.502277 794.252069 
L 627.616614 785.471438 
L 640.050779 779.973999 
L 653.040661 777.45434 
L 666.030543 777.759753 
L 678.325779 780.584825 
L 689.231723 785.624144 
L 698.192658 792.648649 
" clip-path="url(#p0a8013ceb9)" style="fill: none; stroke: #7a7a7a; stroke-width: 3; stroke-linecap: square"/>
   </g>
   <g id="line2d_66">
    <path d="M 538.771379 903.819073 
L 630.603593 810.057204 
L 646.99724 803.0327 
L 661.862667 803.185406 
L 673.254863 807.232132 
L 679.367748 811.889684 
" clip-path="url(#p0a8013ceb9)" style="fill: none; stroke: #7a7a7a; stroke-width: 3; stroke-linecap: square"/>
   </g>
   <g id="line2d_67">
    <path d="M 704.86126 641.392735 
L 675.199872 673.613834 
L 495.425462 855.182013 
" clip-path="url(#p0a8013ceb9)" style="fill: none; stroke: #7a7a7a; stroke-width: 3; stroke-linecap: square"/>
   </g>
   <g id="line2d_68">
    <path d="M 693.607993 627.267373 
L 654.291024 667.429215 
L 650.053683 670.636054 
L 570.794564 753.097633 
L 482.991297 841.209356 
" clip-path="url(#p0a8013ceb9)" style="fill: none; stroke: #7a7a7a; stroke-width: 3; stroke-linecap: square"/>
   </g>
   <g id="line2d_69">
    <path d="M 509.943566 871.521622 
L 541.133175 841.209356 
L 554.817703 827.771173 
L 566.348829 816.470883 
L 576.212803 805.934125 
L 585.173738 795.015602 
L 592.74538 784.555198 
L 598.858266 774.47656 
L 603.651324 764.703336 
L 606.985625 755.159172 
L 609.000099 745.767715 
L 609.62528 736.299904 
L 608.791705 726.832093 
L 606.638302 717.211576 
L 603.165072 707.285645 
L 598.302549 697.054301 
L 592.050734 686.364837 
L 584.479092 675.1409 
L 575.587622 663.306136 
L 565.376324 650.70784 
L 553.845199 637.269657 
L 540.924782 622.915234 
L 526.754001 607.568218 
L 511.541252 591.381315 
" clip-path="url(#p0a8013ceb9)" style="fill: none; stroke: #7a7a7a; stroke-width: 3; stroke-linecap: square"/>
   </g>
   <g id="line2d_70">
    <path d="M 524.670063 888.013937 
L 555.026097 856.403666 
L 602.678819 807.842958 
L 611.292431 796.695375 
L 618.65568 786.005911 
L 624.768565 775.698213 
L 629.700553 765.695929 
L 633.382177 755.922705 
L 635.882903 746.302188 
L 637.20273 736.758024 
L 637.34166 727.21386 
L 636.29969 717.593342 
L 634.076823 707.820118 
L 630.742522 697.817834 
L 626.227322 687.58649 
L 620.531224 676.897026 
L 613.793157 665.825796 
L 605.874191 654.220092 
L 597.816297 643.377922 
L 535.228684 569.696974 
" clip-path="url(#p0a8013ceb9)" style="fill: none; stroke: #7a7a7a; stroke-width: 3; stroke-linecap: square"/>
   </g>
   <g id="line2d_71">
    <path d="M 509.943566 871.521622 
L 719.93508 658.724938 
" clip-path="url(#p0a8013ceb9)" style="fill: none; stroke: #7a7a7a; stroke-width: 3; stroke-linecap: square"/>
   </g>
   <g id="line2d_72">
    <path d="M 524.670063 888.013937 
L 724.45028 684.150591 
L 733.689073 674.68278 
" clip-path="url(#p0a8013ceb9)" style="fill: none; stroke: #7a7a7a; stroke-width: 3; stroke-linecap: square"/>
   </g>
   <g id="line2d_73">
    <path d="M 511.541252 591.381315 
L 587.743928 681.707285 
L 698.192658 792.648649 
" clip-path="url(#p0a8013ceb9)" style="fill: none; stroke: #7a7a7a; stroke-width: 3; stroke-linecap: square"/>
   </g>
   <g id="line2d_74">
    <path d="M 487.645426 613.37107 
L 554.748239 693.847462 
L 561.347377 701.6355 
L 566.279364 707.667411 
L 679.367748 811.889684 
" clip-path="url(#p0a8013ceb9)" style="fill: none; stroke: #7a7a7a; stroke-width: 3; stroke-linecap: square"/>
   </g>
   <g id="line2d_75">
    <path d="M 719.93508 658.724938 
L 915.68635 460.511736 
" clip-path="url(#p0a8013ceb9)" style="fill: none; stroke: #7a7a7a; stroke-width: 3; stroke-linecap: square"/>
   </g>
   <g id="line2d_76">
    <path d="M 733.689073 674.68278 
L 915.68635 490.824002 
" clip-path="url(#p0a8013ceb9)" style="fill: none; stroke: #7a7a7a; stroke-width: 3; stroke-linecap: square"/>
   </g>
   <g id="line2d_77">
    <path d="M 509.943566 871.521622 
L 482.713439 899.008814 
" clip-path="url(#p0a8013ceb9)" style="fill: none; stroke: #7a7a7a; stroke-width: 3; stroke-linecap: square"/>
   </g>
   <g id="line2d_78">
    <path d="M 495.425462 855.182013 
L 467.500689 883.509092 
" clip-path="url(#p0a8013ceb9)" style="fill: none; stroke: #7a7a7a; stroke-width: 3; stroke-linecap: square"/>
   </g>
   <g id="line2d_79">
    <path d="M 511.541252 591.381315 
L 576.212803 667.810982 
L 584.826415 678.653152 
L 592.050734 688.426376 
L 597.816297 697.359714 
L 602.123103 705.605872 
L 604.971152 713.317557 
L 606.429908 720.647475 
L 606.429908 727.748333 
L 604.971152 734.772838 
L 602.123103 741.950049 
L 597.816297 749.35632 
L 592.050734 757.220712 
L 584.895879 765.619576 
L 576.282268 774.781974 
L 566.279364 784.860611 
L 512.235898 837.544397 
L 495.425462 855.182013 
" clip-path="url(#p0a8013ceb9)" style="fill: none; stroke: #7a7a7a; stroke-width: 3; stroke-linecap: square"/>
   </g>
   <g id="line2d_80">
    <path d="M 487.645426 613.37107 
L 504.039074 631.543158 
L 540.716388 677.278793 
L 561.347377 701.6355 
L 569.752595 711.866844 
L 575.240299 720.113001 
L 575.309763 720.494768 
L 576.004409 721.640068 
L 577.741025 728.740926 
L 577.741025 735.460017 
L 577.879954 737.063437 
L 576.837985 739.583096 
L 576.143339 742.560876 
L 572.809037 749.661734 
L 571.350281 751.87598 
L 570.794564 753.097633 
L 541.549963 782.417305 
L 501.816206 823.419034 
L 482.991297 841.209356 
" clip-path="url(#p0a8013ceb9)" style="fill: none; stroke: #7a7a7a; stroke-width: 3; stroke-linecap: square"/>
   </g>
   <g id="line2d_81">
    <path d="M 482.713439 899.008814 
L 509.943566 871.521622 
" clip-path="url(#p0a8013ceb9)" style="fill: none; stroke: #7a7a7a; stroke-width: 3; stroke-linecap: square"/>
   </g>
   <g id="line2d_82">
    <path d="M 497.231542 916.035603 
L 524.670063 888.013937 
" clip-path="url(#p0a8013ceb9)" style="fill: none; stroke: #7a7a7a; stroke-width: 3; stroke-linecap: square"/>
   </g>
   <g id="line2d_83">
    <path d="M 497.231542 916.035603 
L 524.670063 888.013937 
" clip-path="url(#p0a8013ceb9)" style="fill: none; stroke: #7a7a7a; stroke-width: 3; stroke-linecap: square"/>
   </g>
   <g id="line2d_84">
    <path d="M 511.471787 931.688032 
L 538.771379 903.819073 
" clip-path="url(#p0a8013ceb9)" style="fill: none; stroke: #7a7a7a; stroke-width: 3; stroke-linecap: square"/>
   </g>
   <g id="line2d_85">
    <path d="M 467.500689 883.509092 
L 400.953593 951.005421 
L 400.675735 951.310834 
" clip-path="url(#p0a8013ceb9)" style="fill: none; stroke: #7a7a7a; stroke-width: 3; stroke-linecap: square"/>
   </g>
   <g id="line2d_86">
    <path d="M 454.719201 869.612789 
L 373.654002 951.005421 
L 373.306679 951.310834 
" clip-path="url(#p0a8013ceb9)" style="fill: none; stroke: #7a7a7a; stroke-width: 3; stroke-linecap: square"/>
   </g>
   <g id="line2d_87">
    <path d="M 482.713439 899.008814 
L 431.656951 951.005421 
L 431.379092 951.310834 
" clip-path="url(#p0a8013ceb9)" style="fill: none; stroke: #7a7a7a; stroke-width: 3; stroke-linecap: square"/>
   </g>
   <g id="line2d_88">
    <path d="M 467.500689 883.509092 
L 400.953593 951.005421 
L 400.675735 951.310834 
" clip-path="url(#p0a8013ceb9)" style="fill: none; stroke: #7a7a7a; stroke-width: 3; stroke-linecap: square"/>
   </g>
   <g id="line2d_89">
    <path d="M 776.340343 883.203678 
L 772.797648 878.85154 
L 698.192658 792.648649 
" clip-path="url(#p0a8013ceb9)" style="fill: none; stroke: #7a7a7a; stroke-width: 3; stroke-linecap: square"/>
   </g>
   <g id="line2d_90">
    <path d="M 794.123283 867.703956 
L 778.076959 848.157508 
L 777.521242 847.623035 
L 776.89606 846.783148 
L 715.628275 777.91246 
" clip-path="url(#p0a8013ceb9)" style="fill: none; stroke: #7a7a7a; stroke-width: 3; stroke-linecap: square"/>
   </g>
   <g id="line2d_91">
    <path d="M 776.340343 883.203678 
L 915.68635 1053.624274 
" clip-path="url(#p0a8013ceb9)" style="fill: none; stroke: #7a7a7a; stroke-width: 3; stroke-linecap: square"/>
   </g>
   <g id="line2d_92">
    <path d="M 758.279545 899.008814 
L 762.655815 904.124486 
L 905.89184 1073.170722 
" clip-path="url(#p0a8013ceb9)" style="fill: none; stroke: #7a7a7a; stroke-width: 3; stroke-linecap: square"/>
   </g>
   <g id="line2d_93">
    <path d="M 699.825415 642.101352 
L 387.578942 954.866594 
" clip-path="url(#p0a8013ceb9)" style="fill: none; stroke-dasharray: 32,8,5,8; stroke-dashoffset: 0; stroke: #1e90ff; stroke-width: 5"/>
   </g>
   <g id="line2d_94">
    <path d="M 404.125969 934.835966 
L 138.929219 1210.94006 
" clip-path="url(#p0a8013ceb9)" style="fill: none; stroke-dasharray: 32,8,5,8; stroke-dashoffset: 0; stroke: #1e90ff; stroke-width: 5"/>
   </g>
   <g id="line2d_95">
    <path d="M 1146.790154 227.086796 
L 1335.803086 38.176657 
" clip-path="url(#p0a8013ceb9)" style="fill: none; stroke-dasharray: 32,8,5,8; stroke-dashoffset: 0; stroke: #1e90ff; stroke-width: 5"/>
   </g>
   <g id="line2d_96">
    <path d="M 854.026334 487.918363 
L 653.623649 686.9524 
" clip-path="url(#p0a8013ceb9)" style="fill: none; stroke-dasharray: 32,8,5,8; stroke-dashoffset: 0; stroke: #1e90ff; stroke-width: 5"/>
   </g>
   <g id="line2d_97">
    <path d="M 699.825415 642.101352 
" clip-path="url(#p0a8013ceb9)" style="fill: none; stroke: #0000ff; stroke-width: 1.5; stroke-linecap: square"/>
    <defs>
     <path id="mb0cf5872dd" d="M 0 10 
C 2.652031 10 5.195799 8.946337 7.071068 7.071068 
C 8.946337 5.195799 10 2.652031 10 0 
C 10 -2.652031 8.946337 -5.195799 7.071068 -7.071068 
C 5.195799 -8.946337 2.652031 -10 0 -10 
C -2.652031 -10 -5.195799 -8.946337 -7.071068 -7.071068 
C -8.946337 -5.195799 -10 -2.652031 -10 0 
C -10 2.652031 -8.946337 5.195799 -7.071068 7.071068 
C -5.195799 8.946337 -2.652031 10 0 10 
z
" style="stroke: #0000ff"/>
    </defs>
    <g clip-path="url(#p0a8013ceb9)">
     <use xlink:href="#mb0cf5872dd" x="699.825415" y="642.101352" style="fill: #0000ff; stroke: #0000ff"/>
    </g>
   </g>
   <g id="line2d_98">
    <path d="M 404.125969 934.835966 
" clip-path="url(#p0a8013ceb9)" style="fill: none; stroke: #0000ff; stroke-width: 1.5; stroke-linecap: square"/>
    <g clip-path="url(#p0a8013ceb9)">
     <use xlink:href="#mb0cf5872dd" x="404.125969" y="934.835966" style="fill: #0000ff; stroke: #0000ff"/>
    </g>
   </g>
   <g id="line2d_99">
    <path d="M 1146.790154 227.086796 
" clip-path="url(#p0a8013ceb9)" style="fill: none; stroke: #0000ff; stroke-width: 1.5; stroke-linecap: square"/>
    <g clip-path="url(#p0a8013ceb9)">
     <use xlink:href="#mb0cf5872dd" x="1146.790154" y="227.086796" style="fill: #0000ff; stroke: #0000ff"/>
    </g>
   </g>
   <g id="line2d_100">
    <path d="M 854.026334 487.918363 
" clip-path="url(#p0a8013ceb9)" style="fill: none; stroke: #0000ff; stroke-width: 1.5; stroke-linecap: square"/>
    <g clip-path="url(#p0a8013ceb9)">
     <use xlink:href="#mb0cf5872dd" x="854.026334" y="487.918363" style="fill: #0000ff; stroke: #0000ff"/>
    </g>
   </g>
   <g id="line2d_101">
    <path d="M 387.578942 954.866594 
" clip-path="url(#p0a8013ceb9)" style="fill: none; stroke: #ff0000; stroke-width: 1.5; stroke-linecap: square"/>
    <defs>
     <path id="m09df27190f" d="M 0 -10 
L -2.24514 -3.09017 
L -9.510565 -3.09017 
L -3.632713 1.18034 
L -5.877853 8.09017 
L -0 3.81966 
L 5.877853 8.09017 
L 3.632713 1.18034 
L 9.510565 -3.09017 
L 2.24514 -3.09017 
z
" style="stroke: #ff0000; stroke-linejoin: bevel"/>
    </defs>
    <g clip-path="url(#p0a8013ceb9)">
     <use xlink:href="#m09df27190f" x="387.578942" y="954.866594" style="fill: #ff0000; stroke: #ff0000; stroke-linejoin: bevel"/>
    </g>
   </g>
   <g id="line2d_102">
    <path d="M 138.929219 1210.94006 
" clip-path="url(#p0a8013ceb9)" style="fill: none; stroke: #ff0000; stroke-width: 1.5; stroke-linecap: square"/>
    <g clip-path="url(#p0a8013ceb9)">
     <use xlink:href="#m09df27190f" x="138.929219" y="1210.94006" style="fill: #ff0000; stroke: #ff0000; stroke-linejoin: bevel"/>
    </g>
   </g>
   <g id="line2d_103">
    <path d="M 1335.803086 38.176657 
" clip-path="url(#p0a8013ceb9)" style="fill: none; stroke: #ff0000; stroke-width: 1.5; stroke-linecap: square"/>
    <g clip-path="url(#p0a8013ceb9)">
     <use xlink:href="#m09df27190f" x="1335.803086" y="38.176657" style="fill: #ff0000; stroke: #ff0000; stroke-linejoin: bevel"/>
    </g>
   </g>
   <g id="line2d_104">
    <path d="M 653.623649 686.9524 
" clip-path="url(#p0a8013ceb9)" style="fill: none; stroke: #ff0000; stroke-width: 1.5; stroke-linecap: square"/>
    <g clip-path="url(#p0a8013ceb9)">
     <use xlink:href="#m09df27190f" x="653.623649" y="686.9524" style="fill: #ff0000; stroke: #ff0000; stroke-linejoin: bevel"/>
    </g>
   </g>
  </g>
 </g>
 <defs>
  <clipPath id="p0a8013ceb9">
   <rect x="0" y="0" width="1440" height="1440"/>
  </clipPath>
 </defs>
</svg>
