<?xml version="1.0" encoding="utf-8" standalone="no"?>
<!DOCTYPE svg PUBLIC "-//W3C//DTD SVG 1.1//EN"
  "http://www.w3.org/Graphics/SVG/1.1/DTD/svg11.dtd">
<svg xmlns:xlink="http://www.w3.org/1999/xlink" width="1440pt" height="1440pt" viewBox="0 0 1440 1440" xmlns="http://www.w3.org/2000/svg" version="1.1">
 <metadata>
  <rdf:RDF xmlns:dc="http://purl.org/dc/elements/1.1/" xmlns:cc="http://creativecommons.org/ns#" xmlns:rdf="http://www.w3.org/1999/02/22-rdf-syntax-ns#">
   <cc:Work>
    <dc:type rdf:resource="http://purl.org/dc/dcmitype/StillImage"/>
    <dc:date>2026-02-27T11:08:13.300576</dc:date>
    <dc:format>image/svg+xml</dc:format>
    <dc:creator>
     <cc:Agent>
      <dc:title>Matplotlib v3.7.3, https://matplotlib.org/</dc:title>
     </cc:Agent>
    </dc:creator>
   </cc:Work>
  </rdf:RDF>
 </metadata>
 <defs>
  <style type="text/css">*{stroke-linejoin: round; stroke-linecap: butt}</style>
 </defs>
 <g id="figure_1">
  <g id="patch_1">
   <path d="M 0 1440 
L 1440 1440 
L 1440 0 
L 0 0 
z
" style="fill: #ffffff"/>
  </g>
  <g id="axes_1">
   <g id="line2d_1">
    <path d="M 954.310216 669.470529 
L 976.270258 632.136743 
L 1079.796173 458.293639 
L 1080.423603 457.31332 
" clip-path="url(#pc0b00c54bb)" style="fill: none; stroke: #7a7a7a; stroke-width: 3; stroke-linecap: square"/>
   </g>
   <g id="line2d_2">
    <path d="M 999.014588 676.577837 
L 1024.896067 630.911345 
L 1130.147414 458.293639 
L 1130.774844 457.31332 
" clip-path="url(#pc0b00c54bb)" style="fill: none; stroke: #7a7a7a; stroke-width: 3; stroke-linecap: square"/>
   </g>
   <g id="line2d_3">
    <path d="M 1032.582082 457.31332 
L 1031.954652 458.293639 
L 963.721662 573.154261 
L 911.64499 662.853381 
" clip-path="url(#pc0b00c54bb)" style="fill: none; stroke: #7a7a7a; stroke-width: 3; stroke-linecap: square"/>
   </g>
   <g id="line2d_4">
    <path d="M 981.603411 457.31332 
L 980.975982 458.293639 
L 864.901471 655.500994 
" clip-path="url(#pc0b00c54bb)" style="fill: none; stroke: #7a7a7a; stroke-width: 3; stroke-linecap: square"/>
   </g>
   <g id="line2d_5">
    <path d="M 1159.479757 803.529051 
L 534.40283 727.799466 
" clip-path="url(#pc0b00c54bb)" style="fill: none; stroke: #7a7a7a; stroke-width: 3; stroke-linecap: square"/>
   </g>
   <g id="line2d_6">
    <path d="M 1174.224357 778.776015 
L 1140.81372 772.812412 
L 1101.599359 766.35865 
L 1095.168203 764.888173 
L 571.891759 682.214667 
" clip-path="url(#pc0b00c54bb)" style="fill: none; stroke: #7a7a7a; stroke-width: 3; stroke-linecap: square"/>
   </g>
   <g id="line2d_7">
    <path d="M 534.40283 727.799466 
L 1144.578299 827.628541 
" clip-path="url(#pc0b00c54bb)" style="fill: none; stroke: #7a7a7a; stroke-width: 3; stroke-linecap: square"/>
   </g>
   <g id="line2d_8">
    <path d="M 519.65823 753.777899 
L 1124.500546 861.93968 
" clip-path="url(#pc0b00c54bb)" style="fill: none; stroke: #7a7a7a; stroke-width: 3; stroke-linecap: square"/>
   </g>
   <g id="line2d_9">
    <path d="M 1006.85746 677.721541 
L 1139.872576 457.31332 
" clip-path="url(#pc0b00c54bb)" style="fill: none; stroke: #7a7a7a; stroke-width: 3; stroke-linecap: square"/>
   </g>
   <g id="line2d_10">
    <path d="M 1041.209241 683.521758 
L 1177.518363 458.293639 
L 1177.988935 457.31332 
" clip-path="url(#pc0b00c54bb)" style="fill: none; stroke: #7a7a7a; stroke-width: 3; stroke-linecap: square"/>
   </g>
   <g id="line2d_11">
    <path d="M 981.603411 457.31332 
L 980.975982 458.293639 
L 864.901471 655.500994 
" clip-path="url(#pc0b00c54bb)" style="fill: none; stroke: #7a7a7a; stroke-width: 3; stroke-linecap: square"/>
   </g>
   <g id="line2d_12">
    <path d="M 931.722743 457.31332 
L 931.252171 458.293639 
L 839.019992 615.307946 
L 819.569669 648.393687 
" clip-path="url(#pc0b00c54bb)" style="fill: none; stroke: #7a7a7a; stroke-width: 3; stroke-linecap: square"/>
   </g>
   <g id="line2d_13">
    <path d="M 415.348027 708.356487 
L 534.40283 727.799466 
" clip-path="url(#pc0b00c54bb)" style="fill: none; stroke: #7a7a7a; stroke-width: 3; stroke-linecap: square"/>
   </g>
   <g id="line2d_14">
    <path d="M 399.505425 733.763068 
L 519.65823 753.777899 
" clip-path="url(#pc0b00c54bb)" style="fill: none; stroke: #7a7a7a; stroke-width: 3; stroke-linecap: square"/>
   </g>
   <g id="line2d_15">
    <path d="M 1441 849.240463 
L 1159.479757 803.529051 
" clip-path="url(#pc0b00c54bb)" style="fill: none; stroke: #7a7a7a; stroke-width: 3; stroke-linecap: square"/>
   </g>
   <g id="line2d_16">
    <path d="M 1441 818.693387 
L 1174.224357 778.776015 
" clip-path="url(#pc0b00c54bb)" style="fill: none; stroke: #7a7a7a; stroke-width: 3; stroke-linecap: square"/>
   </g>
   <g id="line2d_17">
    <path d="M 151.984373 693.406634 
L 154.180378 693.815099 
L 399.505425 733.763068 
" clip-path="url(#pc0b00c54bb)" style="fill: none; stroke: #7a7a7a; stroke-width: 3; stroke-linecap: square"/>
   </g>
   <g id="line2d_18">
    <path d="M 151.984373 722.979568 
L 154.180378 723.30634 
L 383.505965 759.578116 
" clip-path="url(#pc0b00c54bb)" style="fill: none; stroke: #7a7a7a; stroke-width: 3; stroke-linecap: square"/>
   </g>
   <g id="line2d_19">
    <path d="M 810.158222 912.180991 
L 954.310216 669.470529 
" clip-path="url(#pc0b00c54bb)" style="fill: none; stroke: #7a7a7a; stroke-width: 3; stroke-linecap: square"/>
   </g>
   <g id="line2d_20">
    <path d="M 853.921449 921.248935 
L 999.014588 676.577837 
" clip-path="url(#pc0b00c54bb)" style="fill: none; stroke: #7a7a7a; stroke-width: 3; stroke-linecap: square"/>
   </g>
   <g id="line2d_21">
    <path d="M 151.984373 665.222484 
L 152.454946 665.304177 
L 152.925518 665.304177 
L 154.180378 665.549256 
L 415.348027 708.356487 
" clip-path="url(#pc0b00c54bb)" style="fill: none; stroke: #7a7a7a; stroke-width: 3; stroke-linecap: square"/>
   </g>
   <g id="line2d_22">
    <path d="M 151.984373 693.406634 
L 154.180378 693.815099 
L 399.505425 733.763068 
" clip-path="url(#pc0b00c54bb)" style="fill: none; stroke: #7a7a7a; stroke-width: 3; stroke-linecap: square"/>
   </g>
   <g id="line2d_23">
    <path d="M 768.277283 903.929979 
L 624.909577 1146.150281 
L 599.028098 1189.611057 
L 598.400668 1190.836455 
L 598.243811 1191.081534 
L 597.930096 1191.653387 
L 597.616381 1192.143546 
L 597.302666 1192.552012 
" clip-path="url(#pc0b00c54bb)" style="fill: none; stroke: #7a7a7a; stroke-width: 3; stroke-linecap: square"/>
   </g>
   <g id="line2d_24">
    <path d="M 720.435762 894.290183 
L 543.029989 1189.529364 
L 542.402559 1190.754762 
L 542.245702 1191.081534 
L 541.931987 1191.653387 
L 541.618272 1192.061853 
L 541.304557 1192.552012 
" clip-path="url(#pc0b00c54bb)" style="fill: none; stroke: #7a7a7a; stroke-width: 3; stroke-linecap: square"/>
   </g>
   <g id="line2d_25">
    <path d="M 922.468154 457.31332 
L 848.431439 577.157227 
L 809.530792 646.514744 
" clip-path="url(#pc0b00c54bb)" style="fill: none; stroke: #7a7a7a; stroke-width: 3; stroke-linecap: square"/>
   </g>
   <g id="line2d_26">
    <path d="M 884.194937 457.31332 
L 820.040241 574.869818 
L 774.865296 641.368073 
" clip-path="url(#pc0b00c54bb)" style="fill: none; stroke: #7a7a7a; stroke-width: 3; stroke-linecap: square"/>
   </g>
   <g id="line2d_27">
    <path d="M 644.673615 1192.552012 
L 644.830472 1192.143546 
L 645.144187 1191.73508 
L 645.457902 1191.163228 
L 645.61476 1190.836455 
L 646.399047 1189.611057 
L 663.810224 1160.038123 
L 810.158222 912.180991 
" clip-path="url(#pc0b00c54bb)" style="fill: none; stroke: #7a7a7a; stroke-width: 3; stroke-linecap: square"/>
   </g>
   <g id="line2d_28">
    <path d="M 693.769996 1192.552012 
L 694.240568 1191.73508 
L 694.397426 1191.49 
L 694.711141 1191.163228 
L 694.867998 1190.836455 
L 695.495428 1189.611057 
L 853.921449 921.248935 
" clip-path="url(#pc0b00c54bb)" style="fill: none; stroke: #7a7a7a; stroke-width: 3; stroke-linecap: square"/>
   </g>
   <g id="line2d_29">
    <path d="M 911.64499 662.853381 
L 963.721662 573.154261 
L 1031.954652 458.293639 
L 1032.582082 457.31332 
" clip-path="url(#pc0b00c54bb)" style="fill: none; stroke: #7a7a7a; stroke-width: 3; stroke-linecap: square"/>
   </g>
   <g id="line2d_30">
    <path d="M 954.310216 669.470529 
L 976.270258 632.136743 
L 1079.796173 458.293639 
L 1080.423603 457.31332 
" clip-path="url(#pc0b00c54bb)" style="fill: none; stroke: #7a7a7a; stroke-width: 3; stroke-linecap: square"/>
   </g>
   <g id="line2d_31">
    <path d="M 911.64499 662.853381 
L 768.277283 903.929979 
" clip-path="url(#pc0b00c54bb)" style="fill: none; stroke: #7a7a7a; stroke-width: 3; stroke-linecap: square"/>
   </g>
   <g id="line2d_32">
    <path d="M 864.901471 655.500994 
L 720.435762 894.290183 
" clip-path="url(#pc0b00c54bb)" style="fill: none; stroke: #7a7a7a; stroke-width: 3; stroke-linecap: square"/>
   </g>
   <g id="line2d_33">
    <path d="M 534.40283 727.799466 
L 415.348027 708.356487 
" clip-path="url(#pc0b00c54bb)" style="fill: none; stroke: #7a7a7a; stroke-width: 3; stroke-linecap: square"/>
   </g>
   <g id="line2d_34">
    <path d="M 571.891759 682.214667 
L 523.109093 674.698893 
L 457.228966 663.915393 
L 442.79808 659.99412 
" clip-path="url(#pc0b00c54bb)" style="fill: none; stroke: #7a7a7a; stroke-width: 3; stroke-linecap: square"/>
   </g>
   <g id="line2d_35">
    <path d="M 809.530792 646.514744 
L 677.299964 864.717249 
L 677.299964 864.962328 
L 665.535655 884.160227 
" clip-path="url(#pc0b00c54bb)" style="fill: none; stroke: #7a7a7a; stroke-width: 3; stroke-linecap: square"/>
   </g>
   <g id="line2d_36">
    <path d="M 774.865296 641.368073 
L 767.179281 654.684062 
L 764.983277 657.461631 
L 666.947372 830.569496 
L 644.3599 856.54793 
L 643.889328 857.364862 
L 643.73247 857.691634 
L 631.968162 876.889534 
" clip-path="url(#pc0b00c54bb)" style="fill: none; stroke: #7a7a7a; stroke-width: 3; stroke-linecap: square"/>
   </g>
   <g id="line2d_37">
    <path d="M 703.96573 1192.552012 
L 704.436302 1191.73508 
L 704.436302 1191.49 
L 704.750017 1191.163228 
L 704.906875 1190.836455 
L 755.885545 1107.754483 
L 764.826419 1091.742618 
L 865.528901 924.598355 
" clip-path="url(#pc0b00c54bb)" style="fill: none; stroke: #7a7a7a; stroke-width: 3; stroke-linecap: square"/>
   </g>
   <g id="line2d_38">
    <path d="M 738.160653 1192.552012 
L 738.631226 1191.73508 
L 738.788083 1191.571694 
L 739.101798 1191.163228 
L 739.258656 1190.836455 
L 896.429818 929.663333 
" clip-path="url(#pc0b00c54bb)" style="fill: none; stroke: #7a7a7a; stroke-width: 3; stroke-linecap: square"/>
   </g>
   <g id="line2d_39">
    <path d="M 1144.578299 827.628541 
L 1089.050763 820.68462 
L 1052.189263 817.253506 
L 1017.680624 815.211177 
L 985.211133 814.639324 
L 954.780788 815.701336 
L 926.546448 818.397211 
L 900.194396 822.645257 
L 875.881492 828.690553 
L 853.450877 836.533099 
L 832.902552 846.172895 
L 814.079658 857.609941 
L 797.139054 871.089317 
L 781.923881 886.447637 
L 768.277283 903.929979 
" clip-path="url(#pc0b00c54bb)" style="fill: none; stroke: #7a7a7a; stroke-width: 3; stroke-linecap: square"/>
   </g>
   <g id="line2d_40">
    <path d="M 1159.479757 803.529051 
L 1103.95222 796.58513 
L 1068.031865 793.235709 
L 1033.209512 791.029993 
L 999.798875 789.967982 
L 967.799956 790.131368 
L 937.055896 791.520152 
L 908.037269 794.134334 
L 880.587215 798.055607 
L 854.862594 803.283971 
L 831.020262 809.90112 
L 808.903362 817.743666 
L 788.825609 827.056689 
L 770.630145 837.758497 
L 754.787543 849.849088 
L 740.984088 863.410158 
L 729.533494 878.441704 
L 720.435762 894.290183 
" clip-path="url(#pc0b00c54bb)" style="fill: none; stroke: #7a7a7a; stroke-width: 3; stroke-linecap: square"/>
   </g>
   <g id="line2d_41">
    <path d="M 768.277283 903.929979 
L 911.64499 662.853381 
" clip-path="url(#pc0b00c54bb)" style="fill: none; stroke: #7a7a7a; stroke-width: 3; stroke-linecap: square"/>
   </g>
   <g id="line2d_42">
    <path d="M 810.158222 912.180991 
L 954.310216 669.470529 
" clip-path="url(#pc0b00c54bb)" style="fill: none; stroke: #7a7a7a; stroke-width: 3; stroke-linecap: square"/>
   </g>
   <g id="line2d_43">
    <path d="M 534.40283 727.799466 
L 611.733551 737.847728 
L 646.712762 741.442228 
L 680.750828 742.912705 
L 713.690892 742.340853 
L 744.905524 739.890057 
L 774.551581 735.560319 
L 802.158492 729.596716 
L 827.569398 721.917556 
L 850.470586 712.767919 
L 870.548339 702.147805 
L 887.645801 690.302292 
L 901.292399 677.149689 
L 911.64499 662.853381 
" clip-path="url(#pc0b00c54bb)" style="fill: none; stroke: #7a7a7a; stroke-width: 3; stroke-linecap: square"/>
   </g>
   <g id="line2d_44">
    <path d="M 519.65823 753.777899 
L 597.459523 763.417696 
L 628.203583 766.195264 
L 658.947643 767.502355 
L 689.691702 767.420662 
L 720.122047 765.868491 
L 749.924962 762.927536 
L 778.786732 758.679491 
L 806.393643 753.206047 
L 832.745694 746.507206 
L 857.372313 738.66466 
L 879.959786 729.678409 
L 900.351254 719.630147 
L 918.233003 708.519873 
L 933.448175 696.429281 
L 945.526199 683.440065 
L 954.310216 669.470529 
" clip-path="url(#pc0b00c54bb)" style="fill: none; stroke: #7a7a7a; stroke-width: 3; stroke-linecap: square"/>
   </g>
   <g id="line2d_45">
    <path d="M 768.277283 903.929979 
L 775.179011 889.551978 
L 778.94359 875.01059 
L 779.727877 860.469203 
L 777.218158 846.009509 
L 771.414432 831.794894 
L 762.473558 817.988745 
L 750.081819 804.509369 
L 734.552932 791.683539 
L 715.573181 779.511254 
L 693.299424 768.237594 
L 667.574802 757.862559 
L 638.399317 748.467842 
L 605.772968 740.298523 
L 569.538898 733.517989 
L 534.40283 727.799466 
" clip-path="url(#pc0b00c54bb)" style="fill: none; stroke: #7a7a7a; stroke-width: 3; stroke-linecap: square"/>
   </g>
   <g id="line2d_46">
    <path d="M 810.158222 912.180991 
L 819.569669 896.414206 
L 826.000824 880.484034 
L 829.765403 864.472169 
L 830.706547 848.541997 
L 828.981115 832.856905 
L 824.745964 817.3352 
L 818.001094 802.22196 
L 808.903362 787.517186 
L 797.609626 773.384265 
L 784.119885 759.904889 
L 768.434141 747.242444 
L 750.709249 735.396932 
L 731.102068 724.531738 
L 709.612598 714.646862 
L 686.397696 705.987384 
L 661.457362 698.553304 
L 634.948453 692.426315 
L 607.027828 687.851497 
L 571.891759 682.214667 
" clip-path="url(#pc0b00c54bb)" style="fill: none; stroke: #7a7a7a; stroke-width: 3; stroke-linecap: square"/>
   </g>
   <g id="line2d_47">
    <path d="M 864.901471 655.500994 
L 720.435762 894.290183 
" clip-path="url(#pc0b00c54bb)" style="fill: none; stroke: #7a7a7a; stroke-width: 3; stroke-linecap: square"/>
   </g>
   <g id="line2d_48">
    <path d="M 819.569669 648.393687 
L 676.358819 885.549012 
" clip-path="url(#pc0b00c54bb)" style="fill: none; stroke: #7a7a7a; stroke-width: 3; stroke-linecap: square"/>
   </g>
   <g id="line2d_49">
    <path d="M 865.528901 924.598355 
L 1006.85746 677.721541 
" clip-path="url(#pc0b00c54bb)" style="fill: none; stroke: #7a7a7a; stroke-width: 3; stroke-linecap: square"/>
   </g>
   <g id="line2d_50">
    <path d="M 896.429818 929.663333 
L 1011.249469 729.760102 
L 1028.974361 704.190134 
L 1031.48408 699.615316 
L 1041.209241 683.521758 
" clip-path="url(#pc0b00c54bb)" style="fill: none; stroke: #7a7a7a; stroke-width: 3; stroke-linecap: square"/>
   </g>
   <g id="line2d_51">
    <path d="M 720.435762 894.290183 
L 543.029989 1189.529364 
L 542.402559 1190.754762 
L 542.245702 1191.081534 
L 541.931987 1191.653387 
L 541.618272 1192.061853 
L 541.304557 1192.552012 
" clip-path="url(#pc0b00c54bb)" style="fill: none; stroke: #7a7a7a; stroke-width: 3; stroke-linecap: square"/>
   </g>
   <g id="line2d_52">
    <path d="M 676.358819 885.549012 
L 527.03053 1131.445507 
L 491.267032 1189.529364 
L 490.639602 1190.754762 
L 490.482744 1190.999841 
L 490.012172 1191.571694 
L 489.5416 1192.552012 
" clip-path="url(#pc0b00c54bb)" style="fill: none; stroke: #7a7a7a; stroke-width: 3; stroke-linecap: square"/>
   </g>
   <g id="line2d_53">
    <path d="M 597.302666 1192.552012 
L 597.616381 1192.143546 
L 597.930096 1191.653387 
L 598.243811 1191.081534 
L 598.400668 1190.836455 
L 599.028098 1189.611057 
L 624.909577 1146.150281 
L 768.277283 903.929979 
" clip-path="url(#pc0b00c54bb)" style="fill: none; stroke: #7a7a7a; stroke-width: 3; stroke-linecap: square"/>
   </g>
   <g id="line2d_54">
    <path d="M 644.673615 1192.552012 
L 644.830472 1192.143546 
L 645.144187 1191.73508 
L 645.457902 1191.163228 
L 645.61476 1190.836455 
L 646.399047 1189.611057 
L 663.810224 1160.038123 
L 810.158222 912.180991 
" clip-path="url(#pc0b00c54bb)" style="fill: none; stroke: #7a7a7a; stroke-width: 3; stroke-linecap: square"/>
   </g>
   <g id="line2d_55">
    <path d="M 415.348027 708.356487 
L 154.180378 665.549256 
L 152.925518 665.304177 
L 152.454946 665.304177 
L 151.984373 665.222484 
" clip-path="url(#pc0b00c54bb)" style="fill: none; stroke: #7a7a7a; stroke-width: 3; stroke-linecap: square"/>
   </g>
   <g id="line2d_56">
    <path d="M 442.79808 659.99412 
L 423.661472 657.053165 
L 154.180378 630.666265 
L 153.082376 630.584572 
L 152.454946 630.502879 
L 151.984373 630.502879 
" clip-path="url(#pc0b00c54bb)" style="fill: none; stroke: #7a7a7a; stroke-width: 3; stroke-linecap: square"/>
   </g>
   <g id="line2d_57">
    <path d="M 1441 877.257569 
L 1144.578299 827.628541 
" clip-path="url(#pc0b00c54bb)" style="fill: none; stroke: #7a7a7a; stroke-width: 3; stroke-linecap: square"/>
   </g>
   <g id="line2d_58">
    <path d="M 1441 849.240463 
L 1159.479757 803.529051 
" clip-path="url(#pc0b00c54bb)" style="fill: none; stroke: #7a7a7a; stroke-width: 3; stroke-linecap: square"/>
   </g>
   <g id="line2d_59">
    <path d="M 399.505425 733.763068 
L 519.65823 753.777899 
" clip-path="url(#pc0b00c54bb)" style="fill: none; stroke: #7a7a7a; stroke-width: 3; stroke-linecap: square"/>
   </g>
   <g id="line2d_60">
    <path d="M 383.505965 759.578116 
L 463.973836 772.322253 
L 466.16984 772.322253 
L 473.54214 773.384265 
L 504.91363 778.857708 
" clip-path="url(#pc0b00c54bb)" style="fill: none; stroke: #7a7a7a; stroke-width: 3; stroke-linecap: square"/>
   </g>
   <g id="line2d_61">
    <path d="M 1144.578299 827.628541 
L 1441 877.257569 
" clip-path="url(#pc0b00c54bb)" style="fill: none; stroke: #7a7a7a; stroke-width: 3; stroke-linecap: square"/>
   </g>
   <g id="line2d_62">
    <path d="M 1124.500546 861.93968 
L 1441 911.743884 
" clip-path="url(#pc0b00c54bb)" style="fill: none; stroke: #7a7a7a; stroke-width: 3; stroke-linecap: square"/>
   </g>
   <g id="line2d_63">
    <path d="M 665.535655 884.160227 
L 558.245162 1060.372434 
L 479.659581 1190.999841 
L 479.345866 1191.571694 
L 478.718436 1192.552012 
" clip-path="url(#pc0b00c54bb)" style="fill: none; stroke: #7a7a7a; stroke-width: 3; stroke-linecap: square"/>
   </g>
   <g id="line2d_64">
    <path d="M 631.968162 876.889534 
L 606.086683 920.186923 
L 588.048077 951.148641 
L 569.068325 983.172371 
L 538.951696 1032.188284 
L 490.796459 1112.901154 
L 464.758123 1158.15918 
L 446.562659 1190.999841 
L 446.248944 1191.571694 
L 445.778372 1192.552012 
" clip-path="url(#pc0b00c54bb)" style="fill: none; stroke: #7a7a7a; stroke-width: 3; stroke-linecap: square"/>
   </g>
   <g id="line2d_65">
    <path d="M 911.64499 662.853381 
L 905.056977 678.865246 
L 903.01783 694.550338 
L 905.056977 709.908657 
L 911.01756 724.858511 
L 920.585865 739.154819 
L 933.76189 752.879274 
L 950.075065 765.786798 
L 969.211673 777.795697 
L 991.328573 788.824277 
L 1015.641478 798.790846 
L 1042.307244 807.61371 
L 1071.012156 815.04779 
L 1144.578299 827.628541 
" clip-path="url(#pc0b00c54bb)" style="fill: none; stroke: #7a7a7a; stroke-width: 3; stroke-linecap: square"/>
   </g>
   <g id="line2d_66">
    <path d="M 864.901471 655.500994 
L 856.901741 672.901643 
L 852.03916 690.138906 
L 850.470586 707.131089 
L 852.03916 723.714806 
L 856.744884 739.890057 
L 864.274041 755.493456 
L 874.78349 770.279923 
L 887.959516 784.331152 
L 903.958975 797.402062 
L 922.468154 809.492654 
L 943.643909 820.357848 
L 967.015669 829.997644 
L 992.897148 838.248656 
L 1020.817773 844.947497 
L 1124.500546 861.93968 
" clip-path="url(#pc0b00c54bb)" style="fill: none; stroke: #7a7a7a; stroke-width: 3; stroke-linecap: square"/>
   </g>
   <g id="line2d_67">
    <path d="M 1276.65227 45.416267 
L 1034.150656 454.617445 
L 1033.523226 455.597763 
L 1033.209512 456.169616 
L 1032.895797 456.578082 
L 1032.582082 457.31332 
" clip-path="url(#pc0b00c54bb)" style="fill: none; stroke: #7a7a7a; stroke-width: 3; stroke-linecap: square"/>
   </g>
   <g id="line2d_68">
    <path d="M 1233.045899 37.737107 
L 982.544556 455.597763 
L 982.230841 456.169616 
L 981.917126 456.659775 
L 981.603411 457.31332 
" clip-path="url(#pc0b00c54bb)" style="fill: none; stroke: #7a7a7a; stroke-width: 3; stroke-linecap: square"/>
   </g>
   <g id="line2d_69">
    <path d="M 1233.045899 37.737107 
L 982.544556 455.597763 
L 982.230841 456.169616 
L 981.917126 456.659775 
L 981.603411 457.31332 
" clip-path="url(#pc0b00c54bb)" style="fill: none; stroke: #7a7a7a; stroke-width: 3; stroke-linecap: square"/>
   </g>
   <g id="line2d_70">
    <path d="M 1185.361235 31.528425 
L 1139.558861 110.035578 
L 932.820745 455.597763 
L 932.507031 456.169616 
L 932.193316 456.659775 
L 931.722743 457.31332 
" clip-path="url(#pc0b00c54bb)" style="fill: none; stroke: #7a7a7a; stroke-width: 3; stroke-linecap: square"/>
   </g>
   <g id="line2d_71">
    <path d="M 1032.582082 457.31332 
L 1032.895797 456.578082 
L 1033.209512 456.169616 
L 1033.523226 455.597763 
L 1034.150656 454.617445 
L 1276.65227 45.416267 
" clip-path="url(#pc0b00c54bb)" style="fill: none; stroke: #7a7a7a; stroke-width: 3; stroke-linecap: square"/>
   </g>
   <g id="line2d_72">
    <path d="M 1080.423603 457.31332 
L 1080.894176 456.578082 
L 1081.051033 456.169616 
L 1081.364748 455.597763 
L 1319.63121 52.93204 
" clip-path="url(#pc0b00c54bb)" style="fill: none; stroke: #7a7a7a; stroke-width: 3; stroke-linecap: square"/>
   </g>
   <g id="line2d_73">
    <path d="M 1139.872576 457.31332 
L 1140.186291 456.578082 
L 1140.500005 456.169616 
L 1375.001889 64.859246 
" clip-path="url(#pc0b00c54bb)" style="fill: none; stroke: #7a7a7a; stroke-width: 3; stroke-linecap: square"/>
   </g>
   <g id="line2d_74">
    <path d="M 1177.988935 457.31332 
L 1177.832078 456.578082 
L 1177.988935 456.169616 
L 1177.988935 455.597763 
L 1263.005672 312.471298 
L 1270.848544 300.21732 
L 1323.082074 209.864654 
L 1371.551025 131.112421 
L 1409.196812 68.617132 
" clip-path="url(#pc0b00c54bb)" style="fill: none; stroke: #7a7a7a; stroke-width: 3; stroke-linecap: square"/>
   </g>
   <g id="line2d_75">
    <path d="M 1080.423603 457.31332 
L 1080.894176 456.578082 
L 1081.051033 456.169616 
L 1081.364748 455.597763 
L 1319.63121 52.93204 
" clip-path="url(#pc0b00c54bb)" style="fill: none; stroke: #7a7a7a; stroke-width: 3; stroke-linecap: square"/>
   </g>
   <g id="line2d_76">
    <path d="M 1130.774844 457.31332 
L 1131.245416 456.578082 
L 1131.402274 456.169616 
L 1131.715988 455.597763 
L 1363.86501 60.692893 
" clip-path="url(#pc0b00c54bb)" style="fill: none; stroke: #7a7a7a; stroke-width: 3; stroke-linecap: square"/>
   </g>
   <g id="line2d_77">
    <path d="M 1177.204648 29.731175 
L 923.095584 456.169616 
L 922.781869 456.659775 
L 922.468154 457.31332 
" clip-path="url(#pc0b00c54bb)" style="fill: none; stroke: #7a7a7a; stroke-width: 3; stroke-linecap: square"/>
   </g>
   <g id="line2d_78">
    <path d="M 1145.048871 22.297095 
L 1122.461399 59.957654 
L 1120.422252 62.898609 
L 1095.011346 104.970601 
L 1069.129867 149.084922 
L 1019.406056 230.696417 
L 952.741641 348.988153 
L 897.370962 434.275841 
L 892.037809 443.343785 
L 884.979224 454.617445 
L 885.136081 455.597763 
L 884.822367 456.169616 
L 884.508652 456.659775 
L 884.194937 457.31332 
" clip-path="url(#pc0b00c54bb)" style="fill: none; stroke: #7a7a7a; stroke-width: 3; stroke-linecap: square"/>
   </g>
   <g id="line2d_79">
    <path d="M 865.528901 924.598355 
L 873.371773 907.197706 
L 884.979224 892.656319 
L 901.292399 879.176943 
L 921.527009 866.841272 
L 944.898769 855.894384 
L 970.937105 846.336281 
L 998.857731 838.412042 
L 1028.033216 832.285053 
L 1057.836131 827.955314 
L 1087.639046 825.667905 
L 1116.657673 825.504518 
L 1144.578299 827.628541 
" clip-path="url(#pc0b00c54bb)" style="fill: none; stroke: #7a7a7a; stroke-width: 3; stroke-linecap: square"/>
   </g>
   <g id="line2d_80">
    <path d="M 896.429818 929.663333 
L 908.821556 912.67115 
L 911.331275 910.383741 
L 919.64472 898.946694 
L 927.487592 891.104148 
L 937.055896 884.487 
L 942.38905 881.546045 
L 948.977062 878.605091 
L 962.466803 873.703499 
L 973.603682 870.762545 
L 983.799416 868.638522 
L 991.956003 867.57651 
L 1001.524307 867.086351 
L 1010.778897 867.086351 
L 1038.385807 862.266453 
L 1067.561293 859.652271 
L 1096.57992 859.652271 
L 1124.500546 861.93968 
" clip-path="url(#pc0b00c54bb)" style="fill: none; stroke: #7a7a7a; stroke-width: 3; stroke-linecap: square"/>
   </g>
   <g id="line2d_81">
    <path d="M 519.65823 753.777899 
L 615.811845 771.505321 
L 652.35963 785.474856 
L 670.398236 795.686505 
L 687.025126 808.348949 
L 691.417134 812.106836 
L 697.064002 819.704302 
L 697.84829 828.200394 
L 675.574532 864.063703 
L 665.535655 884.160227 
" clip-path="url(#pc0b00c54bb)" style="fill: none; stroke: #7a7a7a; stroke-width: 3; stroke-linecap: square"/>
   </g>
   <g id="line2d_82">
    <path d="M 504.91363 778.857708 
L 589.930366 793.154016 
L 598.400668 795.196346 
L 615.49813 801.323335 
L 636.830743 810.963131 
L 662.241649 826.811609 
L 666.633658 829.997644 
L 631.968162 876.889534 
" clip-path="url(#pc0b00c54bb)" style="fill: none; stroke: #7a7a7a; stroke-width: 3; stroke-linecap: square"/>
   </g>
   <g id="line2d_83">
    <path d="M 864.901471 655.500994 
L 853.137162 671.0227 
L 836.980845 685.073928 
L 817.373664 697.572986 
L 794.629334 708.43818 
L 769.375285 717.66951 
L 742.08209 725.266977 
L 713.377177 731.067193 
L 683.887977 735.151853 
L 653.928204 737.520955 
L 624.282147 738.011114 
L 595.420377 736.704023 
L 567.813466 733.517989 
L 534.40283 727.799466 
" clip-path="url(#pc0b00c54bb)" style="fill: none; stroke: #7a7a7a; stroke-width: 3; stroke-linecap: square"/>
   </g>
   <g id="line2d_84">
    <path d="M 819.569669 648.393687 
L 812.667941 657.298244 
L 797.139054 666.692961 
L 775.022154 675.924291 
L 748.19953 684.33869 
L 718.239758 691.037531 
L 687.025126 695.448963 
L 656.594781 696.919441 
L 605.302396 687.93319 
L 571.891759 682.214667 
" clip-path="url(#pc0b00c54bb)" style="fill: none; stroke: #7a7a7a; stroke-width: 3; stroke-linecap: square"/>
   </g>
   <g id="line2d_85">
    <path d="M 1159.479757 803.529051 
L 1121.206539 797.483755 
L 1043.875818 780.573265 
L 1023.013778 775.83506 
L 1005.602601 767.910821 
L 988.348282 758.434411 
L 977.838833 748.549535 
L 975.956543 739.154819 
L 997.446014 698.471611 
L 1006.85746 677.721541 
" clip-path="url(#pc0b00c54bb)" style="fill: none; stroke: #7a7a7a; stroke-width: 3; stroke-linecap: square"/>
   </g>
   <g id="line2d_86">
    <path d="M 1174.224357 778.776015 
L 1126.853408 770.525003 
L 1101.599359 766.35865 
L 1090.46248 763.826162 
L 1077.913884 760.395048 
L 1027.876358 750.101706 
L 1013.288616 741.278842 
L 1008.11232 734.171534 
L 1027.092071 701.085793 
L 1038.072092 688.831815 
L 1041.209241 683.521758 
" clip-path="url(#pc0b00c54bb)" style="fill: none; stroke: #7a7a7a; stroke-width: 3; stroke-linecap: square"/>
   </g>
   <g id="line2d_87">
    <path d="M 1159.479757 803.529051 
L 1076.502167 790.458141 
L 1052.189263 784.739618 
L 1027.562643 778.122469 
L 1007.171175 768.319287 
L 987.407137 756.392081 
L 971.721392 747.160751 
L 957.76108 732.374284 
L 948.035918 720.120306 
L 945.369341 709.010032 
L 945.683056 690.302292 
L 954.310216 669.470529 
" clip-path="url(#pc0b00c54bb)" style="fill: none; stroke: #7a7a7a; stroke-width: 3; stroke-linecap: square"/>
   </g>
   <g id="line2d_88">
    <path d="M 1174.224357 778.776015 
L 1091.560482 765.214946 
L 1068.031865 758.516104 
L 1041.366099 750.183399 
L 1011.563184 734.334921 
L 997.132299 723.55142 
L 989.759999 705.987384 
L 987.407137 696.265895 
L 999.014588 676.577837 
" clip-path="url(#pc0b00c54bb)" style="fill: none; stroke: #7a7a7a; stroke-width: 3; stroke-linecap: square"/>
   </g>
   <g id="line2d_89">
    <path d="M 519.65823 753.777899 
L 620.203853 772.403946 
L 643.261898 780.818345 
L 664.594511 791.520152 
L 683.731119 804.100903 
L 700.044294 818.152132 
L 712.906604 833.183678 
L 722.004336 848.787077 
L 726.553202 864.553862 
L 726.239487 880.157261 
L 720.435762 894.290183 
" clip-path="url(#pc0b00c54bb)" style="fill: none; stroke: #7a7a7a; stroke-width: 3; stroke-linecap: square"/>
   </g>
   <g id="line2d_90">
    <path d="M 504.91363 778.857708 
L 589.930366 793.154016 
L 602.635819 796.993596 
L 614.400128 801.486721 
L 631.811304 807.368631 
L 662.241649 826.811609 
L 667.261087 829.670871 
L 683.574262 864.798942 
L 683.10369 869.37376 
L 676.358819 885.549012 
" clip-path="url(#pc0b00c54bb)" style="fill: none; stroke: #7a7a7a; stroke-width: 3; stroke-linecap: square"/>
   </g>
   <g id="line2d_91">
    <path d="M 810.158222 912.180991 
L 818.314809 900.498865 
L 831.020262 888.816739 
L 847.490294 877.461386 
L 867.41119 866.514499 
L 890.15552 856.30285 
L 915.566426 846.908134 
L 942.859622 838.657122 
L 971.721392 831.713201 
L 1001.524307 826.239757 
L 1031.954652 822.48187 
L 1062.384997 820.68462 
L 1092.501627 821.011393 
L 1121.833969 823.788961 
L 1144.578299 827.628541 
" clip-path="url(#pc0b00c54bb)" style="fill: none; stroke: #7a7a7a; stroke-width: 3; stroke-linecap: square"/>
   </g>
   <g id="line2d_92">
    <path d="M 853.921449 921.248935 
L 863.332896 910.547127 
L 878.704926 899.681933 
L 898.939537 889.225205 
L 923.252441 879.503716 
L 950.702494 870.844238 
L 980.348552 863.73693 
L 1011.092612 858.59026 
L 1042.307244 855.812691 
L 1072.894446 855.730998 
L 1101.913073 858.835339 
L 1124.500546 861.93968 
" clip-path="url(#pc0b00c54bb)" style="fill: none; stroke: #7a7a7a; stroke-width: 3; stroke-linecap: square"/>
   </g>
   <g id="line2d_93">
    <path d="M 809.530792 646.514744 
L 800.119345 669.143757 
L 788.041322 686.626099 
L 777.375015 696.756054 
L 758.708979 706.967703 
L 733.611787 716.035647 
L 705.848019 722.979568 
L 676.515677 728.044545 
L 647.026477 731.312273 
L 618.007849 732.946136 
L 591.028368 733.191216 
L 567.029179 732.047511 
L 546.951425 729.760102 
L 534.40283 727.799466 
" clip-path="url(#pc0b00c54bb)" style="fill: none; stroke: #7a7a7a; stroke-width: 3; stroke-linecap: square"/>
   </g>
   <g id="line2d_94">
    <path d="M 774.865296 641.368073 
L 766.708709 660.320892 
L 751.964109 675.025666 
L 732.20007 685.727474 
L 708.514596 692.753088 
L 682.633117 696.510975 
L 655.810494 697.16452 
L 584.597213 684.256996 
L 572.362332 682.29636 
L 571.891759 682.214667 
" clip-path="url(#pc0b00c54bb)" style="fill: none; stroke: #7a7a7a; stroke-width: 3; stroke-linecap: square"/>
   </g>
   <g id="line2d_95">
    <path d="M 534.40283 727.799466 
L 705.534304 755.983615 
L 734.239217 759.16965 
L 764.355847 759.741502 
L 795.413622 757.944252 
L 826.628254 754.022979 
L 857.529171 748.304456 
L 887.332086 740.952069 
L 915.252711 732.292591 
L 940.977333 722.571102 
L 963.564805 711.950987 
L 994.936294 697.572986 
L 1006.85746 677.721541 
" clip-path="url(#pc0b00c54bb)" style="fill: none; stroke: #7a7a7a; stroke-width: 3; stroke-linecap: square"/>
   </g>
   <g id="line2d_96">
    <path d="M 519.65823 753.777899 
L 690.789704 782.043742 
L 719.024045 784.903004 
L 748.356388 785.719936 
L 778.786732 784.576231 
L 809.530792 781.71697 
L 840.274852 777.142151 
L 870.548339 771.015162 
L 899.880681 763.581082 
L 927.801307 754.839911 
L 953.996501 744.955035 
L 977.681975 734.089841 
L 998.857731 722.407715 
L 1016.73948 709.990351 
L 1031.013507 697.001134 
L 1041.209241 683.521758 
" clip-path="url(#pc0b00c54bb)" style="fill: none; stroke: #7a7a7a; stroke-width: 3; stroke-linecap: square"/>
   </g>
   <g id="line2d_97">
    <path d="M 1144.578299 827.628541 
L 980.191694 800.588096 
L 954.780788 797.565448 
L 927.330735 796.748516 
L 898.468964 797.892221 
L 868.979764 800.914869 
L 839.176849 805.653074 
L 809.844507 811.861756 
L 781.610166 819.459223 
L 754.787543 828.200394 
L 730.317781 838.003576 
L 708.514596 848.623691 
L 689.534845 857.773328 
L 677.299964 864.717249 
L 665.535655 884.160227 
" clip-path="url(#pc0b00c54bb)" style="fill: none; stroke: #7a7a7a; stroke-width: 3; stroke-linecap: square"/>
   </g>
   <g id="line2d_98">
    <path d="M 1159.479757 803.529051 
L 995.250009 776.406912 
L 969.839103 773.384265 
L 942.859622 772.158867 
L 914.625282 772.730719 
L 885.449796 774.936435 
L 855.803739 778.612629 
L 826.314539 783.840993 
L 797.139054 790.294754 
L 768.904713 797.973914 
L 742.08209 806.796778 
L 716.828041 816.599961 
L 693.769996 827.301769 
L 673.378528 838.738815 
L 655.967351 850.9111 
L 642.007038 863.655237 
L 631.968162 876.889534 
" clip-path="url(#pc0b00c54bb)" style="fill: none; stroke: #7a7a7a; stroke-width: 3; stroke-linecap: square"/>
   </g>
   <g id="line2d_99">
    <path d="M 874.239965 477.166201 
L 876.341418 470.885638 
" clip-path="url(#pc0b00c54bb)" style="fill: none; stroke-dasharray: 32,8,5,8; stroke-dashoffset: 0; stroke: #1e90ff; stroke-width: 5"/>
   </g>
   <g id="line2d_100">
    <path d="M 1066.995403 198.861882 
L 1028.310952 205.590202 
" clip-path="url(#pc0b00c54bb)" style="fill: none; stroke-dasharray: 32,8,5,8; stroke-dashoffset: 0; stroke: #1e90ff; stroke-width: 5"/>
   </g>
   <g id="line2d_101">
    <path d="M 949.090953 641.274572 
L 933.207987 664.211889 
" clip-path="url(#pc0b00c54bb)" style="fill: none; stroke-dasharray: 32,8,5,8; stroke-dashoffset: 0; stroke: #1e90ff; stroke-width: 5"/>
   </g>
   <g id="line2d_102">
    <path d="M 1193.98828 48.968046 
L 1204.713829 40.846594 
" clip-path="url(#pc0b00c54bb)" style="fill: none; stroke-dasharray: 32,8,5,8; stroke-dashoffset: 0; stroke: #1e90ff; stroke-width: 5"/>
   </g>
   <g id="line2d_103">
    <path d="M 500.930921 1193.307415 
L 501.851922 1194.920436 
" clip-path="url(#pc0b00c54bb)" style="fill: none; stroke-dasharray: 32,8,5,8; stroke-dashoffset: 0; stroke: #1e90ff; stroke-width: 5"/>
   </g>
   <g id="line2d_104">
    <path d="M 781.109685 1101.965515 
L 856.423567 974.120463 
" clip-path="url(#pc0b00c54bb)" style="fill: none; stroke-dasharray: 32,8,5,8; stroke-dashoffset: 0; stroke: #1e90ff; stroke-width: 5"/>
   </g>
   <g id="line2d_105">
    <path d="M 450.236593 726.153914 
L 454.152285 733.429714 
" clip-path="url(#pc0b00c54bb)" style="fill: none; stroke-dasharray: 32,8,5,8; stroke-dashoffset: 0; stroke: #1e90ff; stroke-width: 5"/>
   </g>
   <g id="line2d_106">
    <path d="M 874.239965 477.166201 
" clip-path="url(#pc0b00c54bb)" style="fill: none; stroke: #0000ff; stroke-width: 1.5; stroke-linecap: square"/>
    <defs>
     <path id="mde1ee5ef65" d="M 0 10 
C 2.652031 10 5.195799 8.946337 7.071068 7.071068 
C 8.946337 5.195799 10 2.652031 10 0 
C 10 -2.652031 8.946337 -5.195799 7.071068 -7.071068 
C 5.195799 -8.946337 2.652031 -10 0 -10 
C -2.652031 -10 -5.195799 -8.946337 -7.071068 -7.071068 
C -8.946337 -5.195799 -10 -2.652031 -10 0 
C -10 2.652031 -8.946337 5.195799 -7.071068 7.071068 
C -5.195799 8.946337 -2.652031 10 0 10 
z
" style="stroke: #0000ff"/>
    </defs>
    <g clip-path="url(#pc0b00c54bb)">
     <use xlink:href="#mde1ee5ef65" x="874.239965" y="477.166201" style="fill: #0000ff; stroke: #0000ff"/>
    </g>
   </g>
   <g id="line2d_107">
    <path d="M 1066.995403 198.861882 
" clip-path="url(#pc0b00c54bb)" style="fill: none; stroke: #0000ff; stroke-width: 1.5; stroke-linecap: square"/>
    <g clip-path="url(#pc0b00c54bb)">
     <use xlink:href="#mde1ee5ef65" x="1066.995403" y="198.861882" style="fill: #0000ff; stroke: #0000ff"/>
    </g>
   </g>
   <g id="line2d_108">
    <path d="M 949.090953 641.274572 
" clip-path="url(#pc0b00c54bb)" style="fill: none; stroke: #0000ff; stroke-width: 1.5; stroke-linecap: square"/>
    <g clip-path="url(#pc0b00c54bb)">
     <use xlink:href="#mde1ee5ef65" x="949.090953" y="641.274572" style="fill: #0000ff; stroke: #0000ff"/>
    </g>
   </g>
   <g id="line2d_109">
    <path d="M 1193.98828 48.968046 
" clip-path="url(#pc0b00c54bb)" style="fill: none; stroke: #0000ff; stroke-width: 1.5; stroke-linecap: square"/>
    <g clip-path="url(#pc0b00c54bb)">
     <use xlink:href="#mde1ee5ef65" x="1193.98828" y="48.968046" style="fill: #0000ff; stroke: #0000ff"/>
    </g>
   </g>
   <g id="line2d_110">
    <path d="M 500.930921 1193.307415 
" clip-path="url(#pc0b00c54bb)" style="fill: none; stroke: #0000ff; stroke-width: 1.5; stroke-linecap: square"/>
    <g clip-path="url(#pc0b00c54bb)">
     <use xlink:href="#mde1ee5ef65" x="500.930921" y="1193.307415" style="fill: #0000ff; stroke: #0000ff"/>
    </g>
   </g>
   <g id="line2d_111">
    <path d="M 781.109685 1101.965515 
" clip-path="url(#pc0b00c54bb)" style="fill: none; stroke: #0000ff; stroke-width: 1.5; stroke-linecap: square"/>
    <g clip-path="url(#pc0b00c54bb)">
     <use xlink:href="#mde1ee5ef65" x="781.109685" y="1101.965515" style="fill: #0000ff; stroke: #0000ff"/>
    </g>
   </g>
   <g id="line2d_112">
    <path d="M 450.236593 726.153914 
" clip-path="url(#pc0b00c54bb)" style="fill: none; stroke: #0000ff; stroke-width: 1.5; stroke-linecap: square"/>
    <g clip-path="url(#pc0b00c54bb)">
     <use xlink:href="#mde1ee5ef65" x="450.236593" y="726.153914" style="fill: #0000ff; stroke: #0000ff"/>
    </g>
   </g>
   <g id="line2d_113">
    <path d="M 876.341418 470.885638 
" clip-path="url(#pc0b00c54bb)" style="fill: none; stroke: #ff0000; stroke-width: 1.5; stroke-linecap: square"/>
    <defs>
     <path id="m99490d5b18" d="M 0 -10 
L -2.24514 -3.09017 
L -9.510565 -3.09017 
L -3.632713 1.18034 
L -5.877853 8.09017 
L -0 3.81966 
L 5.877853 8.09017 
L 3.632713 1.18034 
L 9.510565 -3.09017 
L 2.24514 -3.09017 
z
" style="stroke: #ff0000; stroke-linejoin: bevel"/>
    </defs>
    <g clip-path="url(#pc0b00c54bb)">
     <use xlink:href="#m99490d5b18" x="876.341418" y="470.885638" style="fill: #ff0000; stroke: #ff0000; stroke-linejoin: bevel"/>
    </g>
   </g>
   <g id="line2d_114">
    <path d="M 1028.310952 205.590202 
" clip-path="url(#pc0b00c54bb)" style="fill: none; stroke: #ff0000; stroke-width: 1.5; stroke-linecap: square"/>
    <g clip-path="url(#pc0b00c54bb)">
     <use xlink:href="#m99490d5b18" x="1028.310952" y="205.590202" style="fill: #ff0000; stroke: #ff0000; stroke-linejoin: bevel"/>
    </g>
   </g>
   <g id="line2d_115">
    <path d="M 933.207987 664.211889 
" clip-path="url(#pc0b00c54bb)" style="fill: none; stroke: #ff0000; stroke-width: 1.5; stroke-linecap: square"/>
    <g clip-path="url(#pc0b00c54bb)">
     <use xlink:href="#m99490d5b18" x="933.207987" y="664.211889" style="fill: #ff0000; stroke: #ff0000; stroke-linejoin: bevel"/>
    </g>
   </g>
   <g id="line2d_116">
    <path d="M 1204.713829 40.846594 
" clip-path="url(#pc0b00c54bb)" style="fill: none; stroke: #ff0000; stroke-width: 1.5; stroke-linecap: square"/>
    <g clip-path="url(#pc0b00c54bb)">
     <use xlink:href="#m99490d5b18" x="1204.713829" y="40.846594" style="fill: #ff0000; stroke: #ff0000; stroke-linejoin: bevel"/>
    </g>
   </g>
   <g id="line2d_117">
    <path d="M 501.851922 1194.920436 
" clip-path="url(#pc0b00c54bb)" style="fill: none; stroke: #ff0000; stroke-width: 1.5; stroke-linecap: square"/>
    <g clip-path="url(#pc0b00c54bb)">
     <use xlink:href="#m99490d5b18" x="501.851922" y="1194.920436" style="fill: #ff0000; stroke: #ff0000; stroke-linejoin: bevel"/>
    </g>
   </g>
   <g id="line2d_118">
    <path d="M 856.423567 974.120463 
" clip-path="url(#pc0b00c54bb)" style="fill: none; stroke: #ff0000; stroke-width: 1.5; stroke-linecap: square"/>
    <g clip-path="url(#pc0b00c54bb)">
     <use xlink:href="#m99490d5b18" x="856.423567" y="974.120463" style="fill: #ff0000; stroke: #ff0000; stroke-linejoin: bevel"/>
    </g>
   </g>
   <g id="line2d_119">
    <path d="M 454.152285 733.429714 
" clip-path="url(#pc0b00c54bb)" style="fill: none; stroke: #ff0000; stroke-width: 1.5; stroke-linecap: square"/>
    <g clip-path="url(#pc0b00c54bb)">
     <use xlink:href="#m99490d5b18" x="454.152285" y="733.429714" style="fill: #ff0000; stroke: #ff0000; stroke-linejoin: bevel"/>
    </g>
   </g>
  </g>
 </g>
 <defs>
  <clipPath id="pc0b00c54bb">
   <rect x="0" y="0" width="1440" height="1440"/>
  </clipPath>
 </defs>
</svg>
