<?xml version="1.0" encoding="utf-8" standalone="no"?>
<!DOCTYPE svg PUBLIC "-//W3C//DTD SVG 1.1//EN"
  "http://www.w3.org/Graphics/SVG/1.1/DTD/svg11.dtd">
<svg xmlns:xlink="http://www.w3.org/1999/xlink" width="1440pt" height="1440pt" viewBox="0 0 1440 1440" xmlns="http://www.w3.org/2000/svg" version="1.1">
 <metadata>
  <rdf:RDF xmlns:dc="http://purl.org/dc/elements/1.1/" xmlns:cc="http://creativecommons.org/ns#" xmlns:rdf="http://www.w3.org/1999/02/22-rdf-syntax-ns#">
   <cc:Work>
    <dc:type rdf:resource="http://purl.org/dc/dcmitype/StillImage"/>
    <dc:date>2026-02-27T11:07:48.869458</dc:date>
    <dc:format>image/svg+xml</dc:format>
    <dc:creator>
     <cc:Agent>
      <dc:title>Matplotlib v3.7.3, https://matplotlib.org/</dc:title>
     </cc:Agent>
    </dc:creator>
   </cc:Work>
  </rdf:RDF>
 </metadata>
 <defs>
  <style type="text/css">*{stroke-linejoin: round; stroke-linecap: butt}</style>
 </defs>
 <g id="figure_1">
  <g id="patch_1">
   <path d="M 0 1440 
L 1440 1440 
L 1440 0 
L 0 0 
z
" style="fill: #ffffff"/>
  </g>
  <g id="axes_1">
   <g id="line2d_1">
    <path d="M 951.586451 26.415495 
L 895.818316 165.818689 
" clip-path="url(#p5d9dcd3e4c)" style="fill: none; stroke: #7a7a7a; stroke-width: 3; stroke-linecap: square"/>
   </g>
   <g id="line2d_2">
    <path d="M 924.198542 20.255289 
L 867.239628 158.821911 
" clip-path="url(#p5d9dcd3e4c)" style="fill: none; stroke: #7a7a7a; stroke-width: 3; stroke-linecap: square"/>
   </g>
   <g id="line2d_3">
    <path d="M 982.149771 183.614841 
L 971.432763 209.54855 
L 890.757507 408.500408 
" clip-path="url(#p5d9dcd3e4c)" style="fill: none; stroke: #7a7a7a; stroke-width: 3; stroke-linecap: square"/>
   </g>
   <g id="line2d_4">
    <path d="M 953.868777 177.758842 
L 862.674976 402.568357 
" clip-path="url(#p5d9dcd3e4c)" style="fill: none; stroke: #7a7a7a; stroke-width: 3; stroke-linecap: square"/>
   </g>
   <g id="line2d_5">
    <path d="M 1010.13307 39.496428 
L 953.868777 177.758842 
" clip-path="url(#p5d9dcd3e4c)" style="fill: none; stroke: #7a7a7a; stroke-width: 3; stroke-linecap: square"/>
   </g>
   <g id="line2d_6">
    <path d="M 982.249002 33.260169 
L 925.587783 171.902843 
" clip-path="url(#p5d9dcd3e4c)" style="fill: none; stroke: #7a7a7a; stroke-width: 3; stroke-linecap: square"/>
   </g>
   <g id="line2d_7">
    <path d="M 833.897825 396.484202 
L 779.915858 529.499033 
L 779.717395 529.955345 
" clip-path="url(#p5d9dcd3e4c)" style="fill: none; stroke: #7a7a7a; stroke-width: 3; stroke-linecap: square"/>
   </g>
   <g id="line2d_8">
    <path d="M 806.112989 390.628203 
L 750.245623 529.499033 
L 750.04716 529.955345 
" clip-path="url(#p5d9dcd3e4c)" style="fill: none; stroke: #7a7a7a; stroke-width: 3; stroke-linecap: square"/>
   </g>
   <g id="line2d_9">
    <path d="M 895.818316 165.818689 
L 806.112989 390.628203 
" clip-path="url(#p5d9dcd3e4c)" style="fill: none; stroke: #7a7a7a; stroke-width: 3; stroke-linecap: square"/>
   </g>
   <g id="line2d_10">
    <path d="M 867.239628 158.821911 
L 775.946596 384.087737 
" clip-path="url(#p5d9dcd3e4c)" style="fill: none; stroke: #7a7a7a; stroke-width: 3; stroke-linecap: square"/>
   </g>
   <g id="line2d_11">
    <path d="M 806.112989 390.628203 
L 750.245623 529.499033 
L 750.04716 529.955345 
" clip-path="url(#p5d9dcd3e4c)" style="fill: none; stroke: #7a7a7a; stroke-width: 3; stroke-linecap: square"/>
   </g>
   <g id="line2d_12">
    <path d="M 775.946596 384.087737 
L 719.186146 529.499033 
L 718.987682 529.955345 
" clip-path="url(#p5d9dcd3e4c)" style="fill: none; stroke: #7a7a7a; stroke-width: 3; stroke-linecap: square"/>
   </g>
   <g id="line2d_13">
    <path d="M 982.249002 33.260169 
L 925.587783 171.902843 
" clip-path="url(#p5d9dcd3e4c)" style="fill: none; stroke: #7a7a7a; stroke-width: 3; stroke-linecap: square"/>
   </g>
   <g id="line2d_14">
    <path d="M 951.586451 26.415495 
L 895.818316 165.818689 
" clip-path="url(#p5d9dcd3e4c)" style="fill: none; stroke: #7a7a7a; stroke-width: 3; stroke-linecap: square"/>
   </g>
   <g id="line2d_15">
    <path d="M 890.757507 408.500408 
L 848.484864 512.84366 
L 847.988706 513.756283 
L 841.737118 529.499033 
L 841.538655 529.955345 
" clip-path="url(#p5d9dcd3e4c)" style="fill: none; stroke: #7a7a7a; stroke-width: 3; stroke-linecap: square"/>
   </g>
   <g id="line2d_16">
    <path d="M 862.674976 402.568357 
L 811.669956 529.499033 
L 811.471493 529.955345 
" clip-path="url(#p5d9dcd3e4c)" style="fill: none; stroke: #7a7a7a; stroke-width: 3; stroke-linecap: square"/>
   </g>
   <g id="line2d_17">
    <path d="M 925.587783 171.902843 
L 833.897825 396.484202 
" clip-path="url(#p5d9dcd3e4c)" style="fill: none; stroke: #7a7a7a; stroke-width: 3; stroke-linecap: square"/>
   </g>
   <g id="line2d_18">
    <path d="M 895.818316 165.818689 
L 806.112989 390.628203 
" clip-path="url(#p5d9dcd3e4c)" style="fill: none; stroke: #7a7a7a; stroke-width: 3; stroke-linecap: square"/>
   </g>
   <g id="line2d_19">
    <path d="M 953.868777 177.758842 
L 862.674976 402.568357 
" clip-path="url(#p5d9dcd3e4c)" style="fill: none; stroke: #7a7a7a; stroke-width: 3; stroke-linecap: square"/>
   </g>
   <g id="line2d_20">
    <path d="M 925.587783 171.902843 
L 833.897825 396.484202 
" clip-path="url(#p5d9dcd3e4c)" style="fill: none; stroke: #7a7a7a; stroke-width: 3; stroke-linecap: square"/>
   </g>
   <g id="line2d_21">
    <path d="M 862.674976 402.568357 
L 811.669956 529.499033 
L 811.471493 529.955345 
" clip-path="url(#p5d9dcd3e4c)" style="fill: none; stroke: #7a7a7a; stroke-width: 3; stroke-linecap: square"/>
   </g>
   <g id="line2d_22">
    <path d="M 833.897825 396.484202 
L 779.915858 529.499033 
L 779.717395 529.955345 
" clip-path="url(#p5d9dcd3e4c)" style="fill: none; stroke: #7a7a7a; stroke-width: 3; stroke-linecap: square"/>
   </g>
   <g id="line2d_23">
    <path d="M 1038.116369 45.808738 
L 1030.277076 63.909098 
L 1018.964678 92.732781 
L 985.92057 174.564661 
L 982.149771 183.614841 
" clip-path="url(#p5d9dcd3e4c)" style="fill: none; stroke: #7a7a7a; stroke-width: 3; stroke-linecap: square"/>
   </g>
   <g id="line2d_24">
    <path d="M 1010.13307 39.496428 
L 953.868777 177.758842 
" clip-path="url(#p5d9dcd3e4c)" style="fill: none; stroke: #7a7a7a; stroke-width: 3; stroke-linecap: square"/>
   </g>
   <g id="line2d_25">
    <path d="M 856.621852 157.529028 
L 775.946596 384.087737 
" clip-path="url(#p5d9dcd3e4c)" style="fill: none; stroke: #7a7a7a; stroke-width: 3; stroke-linecap: square"/>
   </g>
   <g id="line2d_26">
    <path d="M 840.844034 154.639055 
L 830.325489 180.344608 
L 827.547005 190.155307 
L 822.982354 199.661799 
L 817.921544 212.970887 
L 807.700694 238.068025 
L 801.449106 250.616594 
L 749.749465 378.764102 
" clip-path="url(#p5d9dcd3e4c)" style="fill: none; stroke: #7a7a7a; stroke-width: 3; stroke-linecap: square"/>
   </g>
   <g id="line2d_27">
    <path d="M 925.587783 171.902843 
L 775.946596 384.087737 
" clip-path="url(#p5d9dcd3e4c)" style="fill: none; stroke: #7a7a7a; stroke-width: 3; stroke-linecap: square"/>
   </g>
   <g id="line2d_28">
    <path d="M 895.818316 165.818689 
L 749.749465 378.764102 
" clip-path="url(#p5d9dcd3e4c)" style="fill: none; stroke: #7a7a7a; stroke-width: 3; stroke-linecap: square"/>
   </g>
   <g id="line2d_29">
    <path d="M 895.818316 165.818689 
L 775.946596 384.087737 
" clip-path="url(#p5d9dcd3e4c)" style="fill: none; stroke: #7a7a7a; stroke-width: 3; stroke-linecap: square"/>
   </g>
   <g id="line2d_30">
    <path d="M 867.239628 158.821911 
L 749.749465 378.764102 
" clip-path="url(#p5d9dcd3e4c)" style="fill: none; stroke: #7a7a7a; stroke-width: 3; stroke-linecap: square"/>
   </g>
   <g id="line2d_31">
    <path d="M 471.008022 1214.422743 
L 470.511865 1215.715626 
L 470.313402 1216.171938 
L 462.176414 1236.173596 
" clip-path="url(#p5d9dcd3e4c)" style="fill: none; stroke: #7a7a7a; stroke-width: 3; stroke-linecap: square"/>
   </g>
   <g id="line2d_32">
    <path d="M 424.766117 1214.422743 
L 423.972265 1215.791678 
L 423.67457 1216.24799 
L 418.712992 1229.024715 
" clip-path="url(#p5d9dcd3e4c)" style="fill: none; stroke: #7a7a7a; stroke-width: 3; stroke-linecap: square"/>
   </g>
   <g id="line2d_33">
    <path d="M 913.779228 18.810302 
L 856.621852 157.529028 
" clip-path="url(#p5d9dcd3e4c)" style="fill: none; stroke: #7a7a7a; stroke-width: 3; stroke-linecap: square"/>
   </g>
   <g id="line2d_34">
    <path d="M 898.894495 14.39929 
L 840.844034 154.639055 
" clip-path="url(#p5d9dcd3e4c)" style="fill: none; stroke: #7a7a7a; stroke-width: 3; stroke-linecap: square"/>
   </g>
   <g id="line2d_35">
    <path d="M 775.946596 384.087737 
L 719.186146 529.499033 
L 718.987682 529.955345 
" clip-path="url(#p5d9dcd3e4c)" style="fill: none; stroke: #7a7a7a; stroke-width: 3; stroke-linecap: square"/>
   </g>
   <g id="line2d_36">
    <path d="M 749.749465 378.764102 
L 689.416679 529.499033 
L 689.218215 529.955345 
" clip-path="url(#p5d9dcd3e4c)" style="fill: none; stroke: #7a7a7a; stroke-width: 3; stroke-linecap: square"/>
   </g>
   <g id="line2d_37">
    <path d="M 536.302387 1214.422743 
L 535.806229 1215.715626 
L 535.607766 1216.095886 
L 523.501516 1246.212452 
" clip-path="url(#p5d9dcd3e4c)" style="fill: none; stroke: #7a7a7a; stroke-width: 3; stroke-linecap: square"/>
   </g>
   <g id="line2d_38">
    <path d="M 503.059815 1214.422743 
L 502.563657 1215.715626 
L 502.365194 1216.171938 
L 492.342807 1241.116972 
" clip-path="url(#p5d9dcd3e4c)" style="fill: none; stroke: #7a7a7a; stroke-width: 3; stroke-linecap: square"/>
   </g>
   <g id="line2d_39">
    <path d="M 503.059815 1214.422743 
L 502.563657 1215.715626 
L 502.365194 1216.171938 
L 492.342807 1241.116972 
" clip-path="url(#p5d9dcd3e4c)" style="fill: none; stroke: #7a7a7a; stroke-width: 3; stroke-linecap: square"/>
   </g>
   <g id="line2d_40">
    <path d="M 471.008022 1214.422743 
L 470.511865 1215.715626 
L 470.313402 1216.171938 
L 462.176414 1236.173596 
" clip-path="url(#p5d9dcd3e4c)" style="fill: none; stroke: #7a7a7a; stroke-width: 3; stroke-linecap: square"/>
   </g>
   <g id="line2d_41">
    <path d="M 825.165448 729.439566 
L 550.889426 661.981501 
" clip-path="url(#p5d9dcd3e4c)" style="fill: none; stroke: #7a7a7a; stroke-width: 3; stroke-linecap: square"/>
   </g>
   <g id="line2d_42">
    <path d="M 835.088604 707.232401 
L 556.446393 639.622232 
" clip-path="url(#p5d9dcd3e4c)" style="fill: none; stroke: #7a7a7a; stroke-width: 3; stroke-linecap: square"/>
   </g>
   <g id="line2d_43">
    <path d="M 815.242292 751.874886 
L 544.340143 686.318119 
" clip-path="url(#p5d9dcd3e4c)" style="fill: none; stroke: #7a7a7a; stroke-width: 3; stroke-linecap: square"/>
   </g>
   <g id="line2d_44">
    <path d="M 825.165448 729.439566 
L 550.889426 661.981501 
" clip-path="url(#p5d9dcd3e4c)" style="fill: none; stroke: #7a7a7a; stroke-width: 3; stroke-linecap: square"/>
   </g>
   <g id="line2d_45">
    <path d="M 578.971956 1214.422743 
L 578.773493 1215.715626 
L 578.773493 1216.095886 
L 563.591065 1252.82897 
" clip-path="url(#p5d9dcd3e4c)" style="fill: none; stroke: #7a7a7a; stroke-width: 3; stroke-linecap: square"/>
   </g>
   <g id="line2d_46">
    <path d="M 536.302387 1214.422743 
L 535.806229 1215.715626 
L 535.607766 1216.095886 
L 523.501516 1246.212452 
" clip-path="url(#p5d9dcd3e4c)" style="fill: none; stroke: #7a7a7a; stroke-width: 3; stroke-linecap: square"/>
   </g>
   <g id="line2d_47">
    <path d="M 633.053154 892.723066 
L 509.212172 1199.288409 
" clip-path="url(#p5d9dcd3e4c)" style="fill: none; stroke: #7a7a7a; stroke-width: 3; stroke-linecap: square"/>
   </g>
   <g id="line2d_48">
    <path d="M 604.375235 887.171275 
L 477.755768 1197.919474 
" clip-path="url(#p5d9dcd3e4c)" style="fill: none; stroke: #7a7a7a; stroke-width: 3; stroke-linecap: square"/>
   </g>
   <g id="line2d_49">
    <path d="M 805.716063 774.614414 
L 538.882407 707.232401 
" clip-path="url(#p5d9dcd3e4c)" style="fill: none; stroke: #7a7a7a; stroke-width: 3; stroke-linecap: square"/>
   </g>
   <g id="line2d_50">
    <path d="M 815.242292 751.874886 
L 544.340143 686.318119 
" clip-path="url(#p5d9dcd3e4c)" style="fill: none; stroke: #7a7a7a; stroke-width: 3; stroke-linecap: square"/>
   </g>
   <g id="line2d_51">
    <path d="M 551.78251 765.868442 
L 821.096954 831.349156 
" clip-path="url(#p5d9dcd3e4c)" style="fill: none; stroke: #7a7a7a; stroke-width: 3; stroke-linecap: square"/>
   </g>
   <g id="line2d_52">
    <path d="M 547.217858 789.292437 
L 812.761503 853.708424 
" clip-path="url(#p5d9dcd3e4c)" style="fill: none; stroke: #7a7a7a; stroke-width: 3; stroke-linecap: square"/>
   </g>
   <g id="line2d_53">
    <path d="M 679.890449 624.18369 
L 671.257304 643.196673 
L 661.234917 656.962073 
L 649.426361 666.316461 
L 636.030101 671.868252 
L 621.244599 674.225862 
L 605.069855 673.845602 
L 588.79588 671.259837 
L 550.889426 661.981501 
" clip-path="url(#p5d9dcd3e4c)" style="fill: none; stroke: #7a7a7a; stroke-width: 3; stroke-linecap: square"/>
   </g>
   <g id="line2d_54">
    <path d="M 652.998697 617.947432 
L 649.227898 625.552625 
L 648.930203 626.084988 
L 646.350183 631.788883 
L 644.365552 633.61413 
L 641.289374 637.188571 
L 635.732406 641.675635 
L 631.862376 643.805089 
L 628.29004 645.402179 
L 626.007714 646.61901 
L 623.328462 647.151374 
L 622.733073 647.303478 
L 618.565347 648.292153 
L 614.496853 648.900568 
L 608.939886 649.280828 
L 599.413657 648.368205 
L 597.925183 648.063997 
L 579.170419 644.869816 
L 556.446393 639.622232 
" clip-path="url(#p5d9dcd3e4c)" style="fill: none; stroke: #7a7a7a; stroke-width: 3; stroke-linecap: square"/>
   </g>
   <g id="line2d_55">
    <path d="M 828.440089 811.803809 
L 1166.918929 894.472261 
L 1247.29649 910.59527 
" clip-path="url(#p5d9dcd3e4c)" style="fill: none; stroke: #7a7a7a; stroke-width: 3; stroke-linecap: square"/>
   </g>
   <g id="line2d_56">
    <path d="M 821.096954 831.349156 
L 1237.968724 932.878487 
" clip-path="url(#p5d9dcd3e4c)" style="fill: none; stroke: #7a7a7a; stroke-width: 3; stroke-linecap: square"/>
   </g>
   <g id="line2d_57">
    <path d="M 1140.027177 852.263438 
L 944.441779 808.229368 
" clip-path="url(#p5d9dcd3e4c)" style="fill: none; stroke: #7a7a7a; stroke-width: 3; stroke-linecap: square"/>
   </g>
   <g id="line2d_58">
    <path d="M 1147.370312 832.489935 
L 955.456482 785.946152 
" clip-path="url(#p5d9dcd3e4c)" style="fill: none; stroke: #7a7a7a; stroke-width: 3; stroke-linecap: square"/>
   </g>
   <g id="line2d_59">
    <path d="M 538.882407 707.232401 
L 299.635124 649.432932 
L 243.172368 635.287272 
L 200.006641 625.324469 
" clip-path="url(#p5d9dcd3e4c)" style="fill: none; stroke: #7a7a7a; stroke-width: 3; stroke-linecap: square"/>
   </g>
   <g id="line2d_60">
    <path d="M 544.340143 686.318119 
L 200.006641 602.737045 
" clip-path="url(#p5d9dcd3e4c)" style="fill: none; stroke: #7a7a7a; stroke-width: 3; stroke-linecap: square"/>
   </g>
   <g id="line2d_61">
    <path d="M 1147.370312 832.489935 
L 955.456482 785.946152 
" clip-path="url(#p5d9dcd3e4c)" style="fill: none; stroke: #7a7a7a; stroke-width: 3; stroke-linecap: square"/>
   </g>
   <g id="line2d_62">
    <path d="M 1155.804995 809.674355 
L 965.280406 763.43478 
" clip-path="url(#p5d9dcd3e4c)" style="fill: none; stroke: #7a7a7a; stroke-width: 3; stroke-linecap: square"/>
   </g>
   <g id="line2d_63">
    <path d="M 691.302078 903.978752 
L 687.332816 915.082334 
L 656.670265 988.928762 
L 646.747109 1012.428809 
L 614.000696 1094.184637 
L 590.68128 1150.15886 
L 588.398954 1156.623274 
L 587.50587 1162.859533 
L 580.956587 1202.48259 
" clip-path="url(#p5d9dcd3e4c)" style="fill: none; stroke: #7a7a7a; stroke-width: 3; stroke-linecap: square"/>
   </g>
   <g id="line2d_64">
    <path d="M 663.318779 898.122753 
L 541.760122 1200.733396 
" clip-path="url(#p5d9dcd3e4c)" style="fill: none; stroke: #7a7a7a; stroke-width: 3; stroke-linecap: square"/>
   </g>
   <g id="line2d_65">
    <path d="M 1155.804995 809.674355 
L 965.280406 763.43478 
" clip-path="url(#p5d9dcd3e4c)" style="fill: none; stroke: #7a7a7a; stroke-width: 3; stroke-linecap: square"/>
   </g>
   <g id="line2d_66">
    <path d="M 1164.041214 787.467191 
L 974.806635 741.227615 
" clip-path="url(#p5d9dcd3e4c)" style="fill: none; stroke: #7a7a7a; stroke-width: 3; stroke-linecap: square"/>
   </g>
   <g id="line2d_67">
    <path d="M 791.625182 650.801867 
L 750.344854 753.928288 
L 750.344854 765.488182 
L 757.886453 778.112803 
L 769.992703 789.900852 
L 783.587426 798.951033 
L 795.495213 803.285993 
L 828.440089 811.803809 
" clip-path="url(#p5d9dcd3e4c)" style="fill: none; stroke: #7a7a7a; stroke-width: 3; stroke-linecap: square"/>
   </g>
   <g id="line2d_68">
    <path d="M 765.428051 644.565608 
L 724.147723 747.69203 
L 721.468471 762.065845 
L 723.94926 775.907297 
L 730.895469 788.684022 
L 741.414014 800.167863 
L 755.008738 809.902511 
L 770.786555 817.583756 
L 788.152077 822.83134 
L 821.096954 831.349156 
" clip-path="url(#p5d9dcd3e4c)" style="fill: none; stroke: #7a7a7a; stroke-width: 3; stroke-linecap: square"/>
   </g>
   <g id="line2d_69">
    <path d="M 555.553309 746.170991 
L 828.440089 811.803809 
" clip-path="url(#p5d9dcd3e4c)" style="fill: none; stroke: #7a7a7a; stroke-width: 3; stroke-linecap: square"/>
   </g>
   <g id="line2d_70">
    <path d="M 551.78251 765.868442 
L 821.096954 831.349156 
" clip-path="url(#p5d9dcd3e4c)" style="fill: none; stroke: #7a7a7a; stroke-width: 3; stroke-linecap: square"/>
   </g>
   <g id="line2d_71">
    <path d="M 708.965295 630.87626 
L 604.375235 887.171275 
" clip-path="url(#p5d9dcd3e4c)" style="fill: none; stroke: #7a7a7a; stroke-width: 3; stroke-linecap: square"/>
   </g>
   <g id="line2d_72">
    <path d="M 679.890449 624.18369 
L 586.612786 856.750502 
L 576.788862 882.075795 
" clip-path="url(#p5d9dcd3e4c)" style="fill: none; stroke: #7a7a7a; stroke-width: 3; stroke-linecap: square"/>
   </g>
   <g id="line2d_73">
    <path d="M 200.006641 704.950843 
L 547.217858 789.292437 
" clip-path="url(#p5d9dcd3e4c)" style="fill: none; stroke: #7a7a7a; stroke-width: 3; stroke-linecap: square"/>
   </g>
   <g id="line2d_74">
    <path d="M 200.006641 730.200085 
L 212.311354 733.16611 
L 268.575647 747.007562 
L 542.454743 813.933263 
" clip-path="url(#p5d9dcd3e4c)" style="fill: none; stroke: #7a7a7a; stroke-width: 3; stroke-linecap: square"/>
   </g>
   <g id="line2d_75">
    <path d="M 955.456482 785.946152 
L 815.242292 751.874886 
" clip-path="url(#p5d9dcd3e4c)" style="fill: none; stroke: #7a7a7a; stroke-width: 3; stroke-linecap: square"/>
   </g>
   <g id="line2d_76">
    <path d="M 965.280406 763.43478 
L 825.165448 729.439566 
" clip-path="url(#p5d9dcd3e4c)" style="fill: none; stroke: #7a7a7a; stroke-width: 3; stroke-linecap: square"/>
   </g>
   <g id="line2d_77">
    <path d="M 934.816318 827.394456 
L 799.960633 794.463968 
" clip-path="url(#p5d9dcd3e4c)" style="fill: none; stroke: #7a7a7a; stroke-width: 3; stroke-linecap: square"/>
   </g>
   <g id="line2d_78">
    <path d="M 944.441779 808.229368 
L 805.716063 774.614414 
" clip-path="url(#p5d9dcd3e4c)" style="fill: none; stroke: #7a7a7a; stroke-width: 3; stroke-linecap: square"/>
   </g>
   <g id="line2d_79">
    <path d="M 791.625182 650.801867 
L 701.026771 882.303951 
L 697.355203 889.528885 
L 691.302078 903.978752 
" clip-path="url(#p5d9dcd3e4c)" style="fill: none; stroke: #7a7a7a; stroke-width: 3; stroke-linecap: square"/>
   </g>
   <g id="line2d_80">
    <path d="M 765.428051 644.565608 
L 663.318779 898.122753 
" clip-path="url(#p5d9dcd3e4c)" style="fill: none; stroke: #7a7a7a; stroke-width: 3; stroke-linecap: square"/>
   </g>
   <g id="line2d_81">
    <path d="M 841.538655 529.955345 
L 841.141729 531.020072 
L 840.943266 531.476384 
L 824.66929 572.772583 
L 816.135376 592.926346 
L 802.044495 628.290494 
L 791.625182 650.801867 
" clip-path="url(#p5d9dcd3e4c)" style="fill: none; stroke: #7a7a7a; stroke-width: 3; stroke-linecap: square"/>
   </g>
   <g id="line2d_82">
    <path d="M 811.471493 529.955345 
L 810.975335 531.020072 
L 810.776872 531.476384 
L 765.428051 644.565608 
" clip-path="url(#p5d9dcd3e4c)" style="fill: none; stroke: #7a7a7a; stroke-width: 3; stroke-linecap: square"/>
   </g>
   <g id="line2d_83">
    <path d="M 550.889426 661.981501 
L 200.006641 578.020167 
" clip-path="url(#p5d9dcd3e4c)" style="fill: none; stroke: #7a7a7a; stroke-width: 3; stroke-linecap: square"/>
   </g>
   <g id="line2d_84">
    <path d="M 556.446393 639.622232 
L 200.006641 552.999081 
" clip-path="url(#p5d9dcd3e4c)" style="fill: none; stroke: #7a7a7a; stroke-width: 3; stroke-linecap: square"/>
   </g>
   <g id="line2d_85">
    <path d="M 200.006641 660.76467 
L 225.509151 666.848825 
L 253.591682 674.225862 
L 291.001979 682.591575 
L 555.553309 746.170991 
" clip-path="url(#p5d9dcd3e4c)" style="fill: none; stroke: #7a7a7a; stroke-width: 3; stroke-linecap: square"/>
   </g>
   <g id="line2d_86">
    <path d="M 200.006641 680.157913 
L 551.78251 765.868442 
" clip-path="url(#p5d9dcd3e4c)" style="fill: none; stroke: #7a7a7a; stroke-width: 3; stroke-linecap: square"/>
   </g>
   <g id="line2d_87">
    <path d="M 200.006641 680.157913 
L 551.78251 765.868442 
" clip-path="url(#p5d9dcd3e4c)" style="fill: none; stroke: #7a7a7a; stroke-width: 3; stroke-linecap: square"/>
   </g>
   <g id="line2d_88">
    <path d="M 200.006641 704.950843 
L 547.217858 789.292437 
" clip-path="url(#p5d9dcd3e4c)" style="fill: none; stroke: #7a7a7a; stroke-width: 3; stroke-linecap: square"/>
   </g>
   <g id="line2d_89">
    <path d="M 944.441779 808.229368 
L 805.716063 774.614414 
" clip-path="url(#p5d9dcd3e4c)" style="fill: none; stroke: #7a7a7a; stroke-width: 3; stroke-linecap: square"/>
   </g>
   <g id="line2d_90">
    <path d="M 955.456482 785.946152 
L 815.242292 751.874886 
" clip-path="url(#p5d9dcd3e4c)" style="fill: none; stroke: #7a7a7a; stroke-width: 3; stroke-linecap: square"/>
   </g>
   <g id="line2d_91">
    <path d="M 736.253973 637.492778 
L 633.053154 892.723066 
" clip-path="url(#p5d9dcd3e4c)" style="fill: none; stroke: #7a7a7a; stroke-width: 3; stroke-linecap: square"/>
   </g>
   <g id="line2d_92">
    <path d="M 708.965295 630.87626 
L 604.375235 887.171275 
" clip-path="url(#p5d9dcd3e4c)" style="fill: none; stroke: #7a7a7a; stroke-width: 3; stroke-linecap: square"/>
   </g>
   <g id="line2d_93">
    <path d="M 718.987682 529.955345 
L 718.590756 531.020072 
L 718.392293 531.476384 
L 679.890449 624.18369 
" clip-path="url(#p5d9dcd3e4c)" style="fill: none; stroke: #7a7a7a; stroke-width: 3; stroke-linecap: square"/>
   </g>
   <g id="line2d_94">
    <path d="M 689.218215 529.955345 
L 688.821289 530.94402 
L 687.729742 531.476384 
L 660.242601 600.075227 
L 652.998697 617.947432 
" clip-path="url(#p5d9dcd3e4c)" style="fill: none; stroke: #7a7a7a; stroke-width: 3; stroke-linecap: square"/>
   </g>
   <g id="line2d_95">
    <path d="M 663.318779 898.122753 
L 541.760122 1200.733396 
" clip-path="url(#p5d9dcd3e4c)" style="fill: none; stroke: #7a7a7a; stroke-width: 3; stroke-linecap: square"/>
   </g>
   <g id="line2d_96">
    <path d="M 633.053154 892.723066 
L 509.212172 1199.288409 
" clip-path="url(#p5d9dcd3e4c)" style="fill: none; stroke: #7a7a7a; stroke-width: 3; stroke-linecap: square"/>
   </g>
   <g id="line2d_97">
    <path d="M 811.471493 529.955345 
L 810.975335 531.020072 
L 810.776872 531.476384 
L 765.428051 644.565608 
" clip-path="url(#p5d9dcd3e4c)" style="fill: none; stroke: #7a7a7a; stroke-width: 3; stroke-linecap: square"/>
   </g>
   <g id="line2d_98">
    <path d="M 779.717395 529.955345 
L 779.320469 531.020072 
L 779.122006 531.476384 
L 736.253973 637.492778 
" clip-path="url(#p5d9dcd3e4c)" style="fill: none; stroke: #7a7a7a; stroke-width: 3; stroke-linecap: square"/>
   </g>
   <g id="line2d_99">
    <path d="M 547.217858 789.292437 
L 576.094241 796.745526 
L 589.093575 804.730979 
L 600.802899 817.127445 
L 609.535275 831.50126 
L 614.496853 846.86375 
L 614.496853 862.302293 
L 604.375235 887.171275 
" clip-path="url(#p5d9dcd3e4c)" style="fill: none; stroke: #7a7a7a; stroke-width: 3; stroke-linecap: square"/>
   </g>
   <g id="line2d_100">
    <path d="M 542.454743 813.933263 
L 552.080204 816.975341 
L 558.034098 818.648483 
L 566.568011 821.690561 
L 573.315757 825.112898 
L 576.68963 827.394456 
L 579.666577 829.980221 
L 582.445061 833.022299 
L 584.33046 835.83622 
L 586.414323 839.714869 
L 587.605101 843.213258 
L 588.200491 845.951127 
L 588.200491 849.449516 
L 586.612786 856.750502 
L 580.857356 871.808784 
L 576.788862 882.075795 
" clip-path="url(#p5d9dcd3e4c)" style="fill: none; stroke: #7a7a7a; stroke-width: 3; stroke-linecap: square"/>
   </g>
   <g id="line2d_101">
    <path d="M 779.717395 529.955345 
L 779.320469 531.020072 
L 779.122006 531.476384 
L 736.253973 637.492778 
" clip-path="url(#p5d9dcd3e4c)" style="fill: none; stroke: #7a7a7a; stroke-width: 3; stroke-linecap: square"/>
   </g>
   <g id="line2d_102">
    <path d="M 750.04716 529.955345 
L 749.650233 531.020072 
L 749.45177 531.476384 
L 708.965295 630.87626 
" clip-path="url(#p5d9dcd3e4c)" style="fill: none; stroke: #7a7a7a; stroke-width: 3; stroke-linecap: square"/>
   </g>
   <g id="line2d_103">
    <path d="M 544.340143 686.318119 
L 200.006641 602.737045 
" clip-path="url(#p5d9dcd3e4c)" style="fill: none; stroke: #7a7a7a; stroke-width: 3; stroke-linecap: square"/>
   </g>
   <g id="line2d_104">
    <path d="M 550.889426 661.981501 
L 200.006641 578.020167 
" clip-path="url(#p5d9dcd3e4c)" style="fill: none; stroke: #7a7a7a; stroke-width: 3; stroke-linecap: square"/>
   </g>
   <g id="line2d_105">
    <path d="M 1140.027177 852.263438 
L 1034.047875 845.114556 
L 934.816318 827.394456 
" clip-path="url(#p5d9dcd3e4c)" style="fill: none; stroke: #7a7a7a; stroke-width: 3; stroke-linecap: square"/>
   </g>
   <g id="line2d_106">
    <path d="M 1147.370312 832.489935 
L 1055.184196 825.721313 
L 1026.010119 821.842664 
L 944.441779 808.229368 
" clip-path="url(#p5d9dcd3e4c)" style="fill: none; stroke: #7a7a7a; stroke-width: 3; stroke-linecap: square"/>
   </g>
   <g id="line2d_107">
    <path d="M 765.428051 644.565608 
L 663.318779 898.122753 
" clip-path="url(#p5d9dcd3e4c)" style="fill: none; stroke: #7a7a7a; stroke-width: 3; stroke-linecap: square"/>
   </g>
   <g id="line2d_108">
    <path d="M 736.253973 637.492778 
L 633.053154 892.723066 
" clip-path="url(#p5d9dcd3e4c)" style="fill: none; stroke: #7a7a7a; stroke-width: 3; stroke-linecap: square"/>
   </g>
   <g id="line2d_109">
    <path d="M 812.761503 853.708424 
L 1228.740189 954.781444 
" clip-path="url(#p5d9dcd3e4c)" style="fill: none; stroke: #7a7a7a; stroke-width: 3; stroke-linecap: square"/>
   </g>
   <g id="line2d_110">
    <path d="M 804.029127 876.904264 
L 836.279382 884.661561 
L 923.801615 907.02083 
L 951.48722 913.789452 
L 973.119699 918.580723 
L 990.485221 923.143839 
L 1006.95766 926.946436 
L 1032.956328 933.715058 
L 1157.789626 964.287935 
L 1185.47523 970.828401 
L 1201.848437 974.250738 
L 1218.717802 978.433595 
" clip-path="url(#p5d9dcd3e4c)" style="fill: none; stroke: #7a7a7a; stroke-width: 3; stroke-linecap: square"/>
   </g>
   <g id="line2d_111">
    <path d="M 799.960633 794.463968 
L 782.892805 792.106359 
L 765.527283 793.931605 
L 749.253307 799.179188 
L 735.757816 807.012537 
L 726.430049 816.823237 
L 722.857713 827.698663 
L 691.302078 903.978752 
" clip-path="url(#p5d9dcd3e4c)" style="fill: none; stroke: #7a7a7a; stroke-width: 3; stroke-linecap: square"/>
   </g>
   <g id="line2d_112">
    <path d="M 805.716063 774.614414 
L 787.65592 771.496285 
L 769.000387 771.952596 
L 750.642549 775.374933 
L 733.47549 781.383036 
L 718.392293 789.520593 
L 706.385275 799.25524 
L 698.248287 810.206719 
L 694.874414 821.842664 
L 663.318779 898.122753 
" clip-path="url(#p5d9dcd3e4c)" style="fill: none; stroke: #7a7a7a; stroke-width: 3; stroke-linecap: square"/>
   </g>
   <g id="line2d_113">
    <path d="M 965.280406 763.43478 
L 825.165448 729.439566 
" clip-path="url(#p5d9dcd3e4c)" style="fill: none; stroke: #7a7a7a; stroke-width: 3; stroke-linecap: square"/>
   </g>
   <g id="line2d_114">
    <path d="M 974.806635 741.227615 
L 953.074925 735.980032 
L 936.602486 732.101383 
L 931.343214 730.656397 
L 903.459146 723.811723 
L 884.60515 719.476762 
L 874.781226 716.814945 
L 835.088604 707.232401 
" clip-path="url(#p5d9dcd3e4c)" style="fill: none; stroke: #7a7a7a; stroke-width: 3; stroke-linecap: square"/>
   </g>
   <g id="line2d_115">
    <path d="M 604.375235 887.171275 
L 477.755768 1197.919474 
" clip-path="url(#p5d9dcd3e4c)" style="fill: none; stroke: #7a7a7a; stroke-width: 3; stroke-linecap: square"/>
   </g>
   <g id="line2d_116">
    <path d="M 576.788862 882.075795 
L 555.057151 938.202122 
L 550.690962 948.469133 
L 546.324774 961.017702 
L 537.592397 983.072763 
L 527.57001 1006.724914 
L 518.539938 1026.878676 
L 500.579026 1070.988797 
L 479.541936 1121.107021 
L 477.25961 1126.126449 
L 474.878053 1130.08115 
L 435.681588 1196.018176 
" clip-path="url(#p5d9dcd3e4c)" style="fill: none; stroke: #7a7a7a; stroke-width: 3; stroke-linecap: square"/>
   </g>
   <g id="line2d_117">
    <path d="M 821.096954 831.349156 
L 1237.968724 932.878487 
" clip-path="url(#p5d9dcd3e4c)" style="fill: none; stroke: #7a7a7a; stroke-width: 3; stroke-linecap: square"/>
   </g>
   <g id="line2d_118">
    <path d="M 812.761503 853.708424 
L 1228.740189 954.781444 
" clip-path="url(#p5d9dcd3e4c)" style="fill: none; stroke: #7a7a7a; stroke-width: 3; stroke-linecap: square"/>
   </g>
   <g id="line2d_119">
    <path d="M 750.04716 529.955345 
L 749.650233 531.020072 
L 749.45177 531.476384 
L 708.965295 630.87626 
" clip-path="url(#p5d9dcd3e4c)" style="fill: none; stroke: #7a7a7a; stroke-width: 3; stroke-linecap: square"/>
   </g>
   <g id="line2d_120">
    <path d="M 718.987682 529.955345 
L 718.590756 531.020072 
L 718.392293 531.476384 
L 679.890449 624.18369 
" clip-path="url(#p5d9dcd3e4c)" style="fill: none; stroke: #7a7a7a; stroke-width: 3; stroke-linecap: square"/>
   </g>
   <g id="line2d_121">
    <path d="M 547.217858 789.292437 
L 812.761503 853.708424 
" clip-path="url(#p5d9dcd3e4c)" style="fill: none; stroke: #7a7a7a; stroke-width: 3; stroke-linecap: square"/>
   </g>
   <g id="line2d_122">
    <path d="M 542.454743 813.933263 
L 746.87175 863.823332 
L 780.709711 871.352473 
L 804.029127 876.904264 
" clip-path="url(#p5d9dcd3e4c)" style="fill: none; stroke: #7a7a7a; stroke-width: 3; stroke-linecap: square"/>
   </g>
   <g id="line2d_123">
    <path d="M 492.342807 1241.116972 
L 481.228873 1268.723824 
L 411.629186 1441 
" clip-path="url(#p5d9dcd3e4c)" style="fill: none; stroke: #7a7a7a; stroke-width: 3; stroke-linecap: square"/>
   </g>
   <g id="line2d_124">
    <path d="M 462.176414 1236.173596 
L 451.7571 1261.955202 
L 380.035389 1441 
" clip-path="url(#p5d9dcd3e4c)" style="fill: none; stroke: #7a7a7a; stroke-width: 3; stroke-linecap: square"/>
   </g>
   <g id="line2d_125">
    <path d="M 563.591065 1252.82897 
L 552.874057 1278.990835 
L 550.194805 1284.770782 
L 541.462428 1302.338778 
L 528.661557 1336.181889 
L 520.127643 1357.47643 
L 517.249928 1365.613987 
L 508.120625 1388.049307 
L 504.845983 1395.578448 
L 489.564324 1433.224155 
L 486.155328 1441 
" clip-path="url(#p5d9dcd3e4c)" style="fill: none; stroke: #7a7a7a; stroke-width: 3; stroke-linecap: square"/>
   </g>
   <g id="line2d_126">
    <path d="M 523.501516 1246.212452 
L 511.593729 1275.720602 
L 444.834082 1441 
" clip-path="url(#p5d9dcd3e4c)" style="fill: none; stroke: #7a7a7a; stroke-width: 3; stroke-linecap: square"/>
   </g>
   <g id="line2d_127">
    <path d="M 799.960633 794.463968 
L 783.388963 791.802151 
L 765.428051 791.421891 
L 746.673287 793.018982 
L 727.422365 796.517371 
L 708.270674 801.688902 
L 689.416679 808.381472 
L 671.554998 816.442977 
L 655.08256 825.569209 
L 640.297058 835.684116 
L 627.793882 846.559543 
L 617.969958 858.043385 
L 611.222212 869.907486 
L 604.375235 887.171275 
" clip-path="url(#p5d9dcd3e4c)" style="fill: none; stroke: #7a7a7a; stroke-width: 3; stroke-linecap: square"/>
   </g>
   <g id="line2d_128">
    <path d="M 805.716063 774.614414 
L 788.350541 771.800492 
L 769.992703 770.887869 
L 750.940244 771.800492 
L 731.59009 774.386258 
L 712.041474 778.493062 
L 692.790552 784.044854 
L 674.135019 790.889528 
L 656.273339 798.951033 
L 639.503206 808.001213 
L 624.221546 818.040068 
L 610.726054 828.839442 
L 599.215194 840.323284 
L 590.08589 852.33949 
L 583.635839 864.812007 
L 576.788862 882.075795 
" clip-path="url(#p5d9dcd3e4c)" style="fill: none; stroke: #7a7a7a; stroke-width: 3; stroke-linecap: square"/>
   </g>
   <g id="line2d_129">
    <path d="M 477.755768 1197.919474 
L 471.206486 1214.118536 
L 471.008022 1214.422743 
" clip-path="url(#p5d9dcd3e4c)" style="fill: none; stroke: #7a7a7a; stroke-width: 3; stroke-linecap: square"/>
   </g>
   <g id="line2d_130">
    <path d="M 435.681588 1196.018176 
L 424.96458 1214.118536 
L 424.766117 1214.422743 
" clip-path="url(#p5d9dcd3e4c)" style="fill: none; stroke: #7a7a7a; stroke-width: 3; stroke-linecap: square"/>
   </g>
   <g id="line2d_131">
    <path d="M 462.176414 1236.173596 
L 451.7571 1261.955202 
L 380.035389 1441 
" clip-path="url(#p5d9dcd3e4c)" style="fill: none; stroke: #7a7a7a; stroke-width: 3; stroke-linecap: square"/>
   </g>
   <g id="line2d_132">
    <path d="M 418.712992 1229.024715 
L 409.583689 1252.144502 
L 359.174058 1382.573568 
L 339.853448 1441 
" clip-path="url(#p5d9dcd3e4c)" style="fill: none; stroke: #7a7a7a; stroke-width: 3; stroke-linecap: square"/>
   </g>
   <g id="line2d_133">
    <path d="M 547.217858 789.292437 
L 563.888759 793.399241 
L 580.063503 798.951033 
L 594.55131 807.012537 
L 607.25295 817.127445 
L 617.870726 828.839442 
L 626.305409 841.540115 
L 632.259302 854.773151 
L 635.434712 868.006188 
L 635.831638 880.706861 
L 633.053154 892.723066 
" clip-path="url(#p5d9dcd3e4c)" style="fill: none; stroke: #7a7a7a; stroke-width: 3; stroke-linecap: square"/>
   </g>
   <g id="line2d_134">
    <path d="M 542.454743 813.933263 
L 559.125645 818.040068 
L 565.17877 821.158197 
L 566.568011 821.690561 
L 573.315757 825.112898 
L 576.68963 827.394456 
L 579.666577 829.980221 
L 579.964272 830.284429 
L 588.895112 838.117778 
L 598.32211 851.046607 
L 604.07754 864.279643 
L 606.161403 876.75216 
L 604.375235 887.171275 
" clip-path="url(#p5d9dcd3e4c)" style="fill: none; stroke: #7a7a7a; stroke-width: 3; stroke-linecap: square"/>
   </g>
   <g id="line2d_135">
    <path d="M 580.956587 1202.48259 
L 579.071188 1214.042484 
L 578.971956 1214.422743 
" clip-path="url(#p5d9dcd3e4c)" style="fill: none; stroke: #7a7a7a; stroke-width: 3; stroke-linecap: square"/>
   </g>
   <g id="line2d_136">
    <path d="M 541.760122 1200.733396 
L 536.401618 1214.042484 
L 536.302387 1214.422743 
" clip-path="url(#p5d9dcd3e4c)" style="fill: none; stroke: #7a7a7a; stroke-width: 3; stroke-linecap: square"/>
   </g>
   <g id="line2d_137">
    <path d="M 523.501516 1246.212452 
L 511.593729 1275.720602 
L 444.834082 1441 
" clip-path="url(#p5d9dcd3e4c)" style="fill: none; stroke: #7a7a7a; stroke-width: 3; stroke-linecap: square"/>
   </g>
   <g id="line2d_138">
    <path d="M 492.342807 1241.116972 
L 481.228873 1268.723824 
L 411.629186 1441 
" clip-path="url(#p5d9dcd3e4c)" style="fill: none; stroke: #7a7a7a; stroke-width: 3; stroke-linecap: square"/>
   </g>
   <g id="line2d_139">
    <path d="M 541.760122 1200.733396 
L 536.401618 1214.042484 
L 536.302387 1214.422743 
" clip-path="url(#p5d9dcd3e4c)" style="fill: none; stroke: #7a7a7a; stroke-width: 3; stroke-linecap: square"/>
   </g>
   <g id="line2d_140">
    <path d="M 509.212172 1199.288409 
L 503.258278 1214.042484 
L 503.059815 1214.422743 
" clip-path="url(#p5d9dcd3e4c)" style="fill: none; stroke: #7a7a7a; stroke-width: 3; stroke-linecap: square"/>
   </g>
   <g id="line2d_141">
    <path d="M 509.212172 1199.288409 
L 503.258278 1214.042484 
L 503.059815 1214.422743 
" clip-path="url(#p5d9dcd3e4c)" style="fill: none; stroke: #7a7a7a; stroke-width: 3; stroke-linecap: square"/>
   </g>
   <g id="line2d_142">
    <path d="M 477.755768 1197.919474 
L 471.206486 1214.118536 
L 471.008022 1214.422743 
" clip-path="url(#p5d9dcd3e4c)" style="fill: none; stroke: #7a7a7a; stroke-width: 3; stroke-linecap: square"/>
   </g>
   <g id="line2d_143">
    <path d="M 878.627327 39.422697 
L 879.552929 38.025967 
" clip-path="url(#p5d9dcd3e4c)" style="fill: none; stroke-dasharray: 32,8,5,8; stroke-dashoffset: 0; stroke: #1e90ff; stroke-width: 5"/>
   </g>
   <g id="line2d_144">
    <path d="M 938.118263 265.285194 
L 950.976605 273.789745 
" clip-path="url(#p5d9dcd3e4c)" style="fill: none; stroke-dasharray: 32,8,5,8; stroke-dashoffset: 0; stroke: #1e90ff; stroke-width: 5"/>
   </g>
   <g id="line2d_145">
    <path d="M 198.463113 588.491289 
L 217.745857 556.822788 
" clip-path="url(#p5d9dcd3e4c)" style="fill: none; stroke-dasharray: 32,8,5,8; stroke-dashoffset: 0; stroke: #1e90ff; stroke-width: 5"/>
   </g>
   <g id="line2d_146">
    <path d="M 943.831163 901.462818 
L 942.484173 900.438364 
" clip-path="url(#p5d9dcd3e4c)" style="fill: none; stroke-dasharray: 32,8,5,8; stroke-dashoffset: 0; stroke: #1e90ff; stroke-width: 5"/>
   </g>
   <g id="line2d_147">
    <path d="M 564.760137 964.279236 
L 500.466761 1211.8442 
" clip-path="url(#p5d9dcd3e4c)" style="fill: none; stroke-dasharray: 32,8,5,8; stroke-dashoffset: 0; stroke: #1e90ff; stroke-width: 5"/>
   </g>
   <g id="line2d_148">
    <path d="M 554.11261 1021.586485 
L 462.532373 1204.438142 
" clip-path="url(#p5d9dcd3e4c)" style="fill: none; stroke-dasharray: 32,8,5,8; stroke-dashoffset: 0; stroke: #1e90ff; stroke-width: 5"/>
   </g>
   <g id="line2d_149">
    <path d="M 1190.326856 961.514556 
L 1291.152665 941.092541 
" clip-path="url(#p5d9dcd3e4c)" style="fill: none; stroke-dasharray: 32,8,5,8; stroke-dashoffset: 0; stroke: #1e90ff; stroke-width: 5"/>
   </g>
   <g id="line2d_150">
    <path d="M 862.192252 456.653239 
L 875.604169 464.468939 
" clip-path="url(#p5d9dcd3e4c)" style="fill: none; stroke-dasharray: 32,8,5,8; stroke-dashoffset: 0; stroke: #1e90ff; stroke-width: 5"/>
   </g>
   <g id="line2d_151">
    <path d="M 928.76458 762.793834 
L 616.976625 766.587843 
" clip-path="url(#p5d9dcd3e4c)" style="fill: none; stroke-dasharray: 32,8,5,8; stroke-dashoffset: 0; stroke: #1e90ff; stroke-width: 5"/>
   </g>
   <g id="line2d_152">
    <path d="M 834.844219 191.20674 
L 798.314815 281.91436 
" clip-path="url(#p5d9dcd3e4c)" style="fill: none; stroke-dasharray: 32,8,5,8; stroke-dashoffset: 0; stroke: #1e90ff; stroke-width: 5"/>
   </g>
   <g id="line2d_153">
    <path d="M 750.705441 559.615552 
L 635.842976 938.350141 
" clip-path="url(#p5d9dcd3e4c)" style="fill: none; stroke-dasharray: 32,8,5,8; stroke-dashoffset: 0; stroke: #1e90ff; stroke-width: 5"/>
   </g>
   <g id="line2d_154">
    <path d="M 878.627327 39.422697 
" clip-path="url(#p5d9dcd3e4c)" style="fill: none; stroke: #0000ff; stroke-width: 1.5; stroke-linecap: square"/>
    <defs>
     <path id="m5c789d7768" d="M 0 10 
C 2.652031 10 5.195799 8.946337 7.071068 7.071068 
C 8.946337 5.195799 10 2.652031 10 0 
C 10 -2.652031 8.946337 -5.195799 7.071068 -7.071068 
C 5.195799 -8.946337 2.652031 -10 0 -10 
C -2.652031 -10 -5.195799 -8.946337 -7.071068 -7.071068 
C -8.946337 -5.195799 -10 -2.652031 -10 0 
C -10 2.652031 -8.946337 5.195799 -7.071068 7.071068 
C -5.195799 8.946337 -2.652031 10 0 10 
z
" style="stroke: #0000ff"/>
    </defs>
    <g clip-path="url(#p5d9dcd3e4c)">
     <use xlink:href="#m5c789d7768" x="878.627327" y="39.422697" style="fill: #0000ff; stroke: #0000ff"/>
    </g>
   </g>
   <g id="line2d_155">
    <path d="M 938.118263 265.285194 
" clip-path="url(#p5d9dcd3e4c)" style="fill: none; stroke: #0000ff; stroke-width: 1.5; stroke-linecap: square"/>
    <g clip-path="url(#p5d9dcd3e4c)">
     <use xlink:href="#m5c789d7768" x="938.118263" y="265.285194" style="fill: #0000ff; stroke: #0000ff"/>
    </g>
   </g>
   <g id="line2d_156">
    <path d="M 198.463113 588.491289 
" clip-path="url(#p5d9dcd3e4c)" style="fill: none; stroke: #0000ff; stroke-width: 1.5; stroke-linecap: square"/>
    <g clip-path="url(#p5d9dcd3e4c)">
     <use xlink:href="#m5c789d7768" x="198.463113" y="588.491289" style="fill: #0000ff; stroke: #0000ff"/>
    </g>
   </g>
   <g id="line2d_157">
    <path d="M 943.831163 901.462818 
" clip-path="url(#p5d9dcd3e4c)" style="fill: none; stroke: #0000ff; stroke-width: 1.5; stroke-linecap: square"/>
    <g clip-path="url(#p5d9dcd3e4c)">
     <use xlink:href="#m5c789d7768" x="943.831163" y="901.462818" style="fill: #0000ff; stroke: #0000ff"/>
    </g>
   </g>
   <g id="line2d_158">
    <path d="M 564.760137 964.279236 
" clip-path="url(#p5d9dcd3e4c)" style="fill: none; stroke: #0000ff; stroke-width: 1.5; stroke-linecap: square"/>
    <g clip-path="url(#p5d9dcd3e4c)">
     <use xlink:href="#m5c789d7768" x="564.760137" y="964.279236" style="fill: #0000ff; stroke: #0000ff"/>
    </g>
   </g>
   <g id="line2d_159">
    <path d="M 554.11261 1021.586485 
" clip-path="url(#p5d9dcd3e4c)" style="fill: none; stroke: #0000ff; stroke-width: 1.5; stroke-linecap: square"/>
    <g clip-path="url(#p5d9dcd3e4c)">
     <use xlink:href="#m5c789d7768" x="554.11261" y="1021.586485" style="fill: #0000ff; stroke: #0000ff"/>
    </g>
   </g>
   <g id="line2d_160">
    <path d="M 1190.326856 961.514556 
" clip-path="url(#p5d9dcd3e4c)" style="fill: none; stroke: #0000ff; stroke-width: 1.5; stroke-linecap: square"/>
    <g clip-path="url(#p5d9dcd3e4c)">
     <use xlink:href="#m5c789d7768" x="1190.326856" y="961.514556" style="fill: #0000ff; stroke: #0000ff"/>
    </g>
   </g>
   <g id="line2d_161">
    <path d="M 862.192252 456.653239 
" clip-path="url(#p5d9dcd3e4c)" style="fill: none; stroke: #0000ff; stroke-width: 1.5; stroke-linecap: square"/>
    <g clip-path="url(#p5d9dcd3e4c)">
     <use xlink:href="#m5c789d7768" x="862.192252" y="456.653239" style="fill: #0000ff; stroke: #0000ff"/>
    </g>
   </g>
   <g id="line2d_162">
    <path d="M 928.76458 762.793834 
" clip-path="url(#p5d9dcd3e4c)" style="fill: none; stroke: #0000ff; stroke-width: 1.5; stroke-linecap: square"/>
    <g clip-path="url(#p5d9dcd3e4c)">
     <use xlink:href="#m5c789d7768" x="928.76458" y="762.793834" style="fill: #0000ff; stroke: #0000ff"/>
    </g>
   </g>
   <g id="line2d_163">
    <path d="M 834.844219 191.20674 
" clip-path="url(#p5d9dcd3e4c)" style="fill: none; stroke: #0000ff; stroke-width: 1.5; stroke-linecap: square"/>
    <g clip-path="url(#p5d9dcd3e4c)">
     <use xlink:href="#m5c789d7768" x="834.844219" y="191.20674" style="fill: #0000ff; stroke: #0000ff"/>
    </g>
   </g>
   <g id="line2d_164">
    <path d="M 750.705441 559.615552 
" clip-path="url(#p5d9dcd3e4c)" style="fill: none; stroke: #0000ff; stroke-width: 1.5; stroke-linecap: square"/>
    <g clip-path="url(#p5d9dcd3e4c)">
     <use xlink:href="#m5c789d7768" x="750.705441" y="559.615552" style="fill: #0000ff; stroke: #0000ff"/>
    </g>
   </g>
   <g id="line2d_165">
    <path d="M 879.552929 38.025967 
" clip-path="url(#p5d9dcd3e4c)" style="fill: none; stroke: #ff0000; stroke-width: 1.5; stroke-linecap: square"/>
    <defs>
     <path id="m76ef4de11c" d="M 0 -10 
L -2.24514 -3.09017 
L -9.510565 -3.09017 
L -3.632713 1.18034 
L -5.877853 8.09017 
L -0 3.81966 
L 5.877853 8.09017 
L 3.632713 1.18034 
L 9.510565 -3.09017 
L 2.24514 -3.09017 
z
" style="stroke: #ff0000; stroke-linejoin: bevel"/>
    </defs>
    <g clip-path="url(#p5d9dcd3e4c)">
     <use xlink:href="#m76ef4de11c" x="879.552929" y="38.025967" style="fill: #ff0000; stroke: #ff0000; stroke-linejoin: bevel"/>
    </g>
   </g>
   <g id="line2d_166">
    <path d="M 950.976605 273.789745 
" clip-path="url(#p5d9dcd3e4c)" style="fill: none; stroke: #ff0000; stroke-width: 1.5; stroke-linecap: square"/>
    <g clip-path="url(#p5d9dcd3e4c)">
     <use xlink:href="#m76ef4de11c" x="950.976605" y="273.789745" style="fill: #ff0000; stroke: #ff0000; stroke-linejoin: bevel"/>
    </g>
   </g>
   <g id="line2d_167">
    <path d="M 217.745857 556.822788 
" clip-path="url(#p5d9dcd3e4c)" style="fill: none; stroke: #ff0000; stroke-width: 1.5; stroke-linecap: square"/>
    <g clip-path="url(#p5d9dcd3e4c)">
     <use xlink:href="#m76ef4de11c" x="217.745857" y="556.822788" style="fill: #ff0000; stroke: #ff0000; stroke-linejoin: bevel"/>
    </g>
   </g>
   <g id="line2d_168">
    <path d="M 942.484173 900.438364 
" clip-path="url(#p5d9dcd3e4c)" style="fill: none; stroke: #ff0000; stroke-width: 1.5; stroke-linecap: square"/>
    <g clip-path="url(#p5d9dcd3e4c)">
     <use xlink:href="#m76ef4de11c" x="942.484173" y="900.438364" style="fill: #ff0000; stroke: #ff0000; stroke-linejoin: bevel"/>
    </g>
   </g>
   <g id="line2d_169">
    <path d="M 500.466761 1211.8442 
" clip-path="url(#p5d9dcd3e4c)" style="fill: none; stroke: #ff0000; stroke-width: 1.5; stroke-linecap: square"/>
    <g clip-path="url(#p5d9dcd3e4c)">
     <use xlink:href="#m76ef4de11c" x="500.466761" y="1211.8442" style="fill: #ff0000; stroke: #ff0000; stroke-linejoin: bevel"/>
    </g>
   </g>
   <g id="line2d_170">
    <path d="M 462.532373 1204.438142 
" clip-path="url(#p5d9dcd3e4c)" style="fill: none; stroke: #ff0000; stroke-width: 1.5; stroke-linecap: square"/>
    <g clip-path="url(#p5d9dcd3e4c)">
     <use xlink:href="#m76ef4de11c" x="462.532373" y="1204.438142" style="fill: #ff0000; stroke: #ff0000; stroke-linejoin: bevel"/>
    </g>
   </g>
   <g id="line2d_171">
    <path d="M 1291.152665 941.092541 
" clip-path="url(#p5d9dcd3e4c)" style="fill: none; stroke: #ff0000; stroke-width: 1.5; stroke-linecap: square"/>
    <g clip-path="url(#p5d9dcd3e4c)">
     <use xlink:href="#m76ef4de11c" x="1291.152665" y="941.092541" style="fill: #ff0000; stroke: #ff0000; stroke-linejoin: bevel"/>
    </g>
   </g>
   <g id="line2d_172">
    <path d="M 875.604169 464.468939 
" clip-path="url(#p5d9dcd3e4c)" style="fill: none; stroke: #ff0000; stroke-width: 1.5; stroke-linecap: square"/>
    <g clip-path="url(#p5d9dcd3e4c)">
     <use xlink:href="#m76ef4de11c" x="875.604169" y="464.468939" style="fill: #ff0000; stroke: #ff0000; stroke-linejoin: bevel"/>
    </g>
   </g>
   <g id="line2d_173">
    <path d="M 616.976625 766.587843 
" clip-path="url(#p5d9dcd3e4c)" style="fill: none; stroke: #ff0000; stroke-width: 1.5; stroke-linecap: square"/>
    <g clip-path="url(#p5d9dcd3e4c)">
     <use xlink:href="#m76ef4de11c" x="616.976625" y="766.587843" style="fill: #ff0000; stroke: #ff0000; stroke-linejoin: bevel"/>
    </g>
   </g>
   <g id="line2d_174">
    <path d="M 798.314815 281.91436 
" clip-path="url(#p5d9dcd3e4c)" style="fill: none; stroke: #ff0000; stroke-width: 1.5; stroke-linecap: square"/>
    <g clip-path="url(#p5d9dcd3e4c)">
     <use xlink:href="#m76ef4de11c" x="798.314815" y="281.91436" style="fill: #ff0000; stroke: #ff0000; stroke-linejoin: bevel"/>
    </g>
   </g>
   <g id="line2d_175">
    <path d="M 635.842976 938.350141 
" clip-path="url(#p5d9dcd3e4c)" style="fill: none; stroke: #ff0000; stroke-width: 1.5; stroke-linecap: square"/>
    <g clip-path="url(#p5d9dcd3e4c)">
     <use xlink:href="#m76ef4de11c" x="635.842976" y="938.350141" style="fill: #ff0000; stroke: #ff0000; stroke-linejoin: bevel"/>
    </g>
   </g>
  </g>
 </g>
 <defs>
  <clipPath id="p5d9dcd3e4c">
   <rect x="0" y="0" width="1440" height="1440"/>
  </clipPath>
 </defs>
</svg>
