<?xml version="1.0" encoding="utf-8" standalone="no"?>
<!DOCTYPE svg PUBLIC "-//W3C//DTD SVG 1.1//EN"
  "http://www.w3.org/Graphics/SVG/1.1/DTD/svg11.dtd">
<svg xmlns:xlink="http://www.w3.org/1999/xlink" width="1440pt" height="1440pt" viewBox="0 0 1440 1440" xmlns="http://www.w3.org/2000/svg" version="1.1">
 <metadata>
  <rdf:RDF xmlns:dc="http://purl.org/dc/elements/1.1/" xmlns:cc="http://creativecommons.org/ns#" xmlns:rdf="http://www.w3.org/1999/02/22-rdf-syntax-ns#">
   <cc:Work>
    <dc:type rdf:resource="http://purl.org/dc/dcmitype/StillImage"/>
    <dc:date>2026-02-27T11:07:53.422065</dc:date>
    <dc:format>image/svg+xml</dc:format>
    <dc:creator>
     <cc:Agent>
      <dc:title>Matplotlib v3.7.3, https://matplotlib.org/</dc:title>
     </cc:Agent>
    </dc:creator>
   </cc:Work>
  </rdf:RDF>
 </metadata>
 <defs>
  <style type="text/css">*{stroke-linejoin: round; stroke-linecap: butt}</style>
 </defs>
 <g id="figure_1">
  <g id="patch_1">
   <path d="M 0 1440 
L 1440 1440 
L 1440 0 
L 0 0 
z
" style="fill: #ffffff"/>
  </g>
  <g id="axes_1">
   <g id="line2d_1">
    <path d="M 431.10481 939.082583 
L 382.075134 989.039756 
L -1 1361.310186 
" clip-path="url(#p257df1d83e)" style="fill: none; stroke: #7a7a7a; stroke-width: 3; stroke-linecap: square"/>
   </g>
   <g id="line2d_2">
    <path d="M 431.10481 883.266724 
L 354.176345 958.637927 
L 162.11838 1145.244991 
L 145.725021 1161.554306 
L 124.669332 1181.743021 
L 83.535539 1221.645423 
L 71.27812 1234.471195 
L -1 1304.258063 
" clip-path="url(#p257df1d83e)" style="fill: none; stroke: #7a7a7a; stroke-width: 3; stroke-linecap: square"/>
   </g>
   <g id="line2d_3">
    <path clip-path="url(#p257df1d83e)" style="fill: none; stroke: #7a7a7a; stroke-width: 3; stroke-linecap: square"/>
   </g>
   <g id="line2d_4">
    <path clip-path="url(#p257df1d83e)" style="fill: none; stroke: #7a7a7a; stroke-width: 3; stroke-linecap: square"/>
   </g>
   <g id="line2d_5">
    <path d="M 755.437624 980.41007 
L 727.012443 947.395583 
" clip-path="url(#p257df1d83e)" style="fill: none; stroke: #7a7a7a; stroke-width: 3; stroke-linecap: square"/>
   </g>
   <g id="line2d_6">
    <path d="M 781.45644 958.79627 
L 771.379789 947.395583 
" clip-path="url(#p257df1d83e)" style="fill: none; stroke: #7a7a7a; stroke-width: 3; stroke-linecap: square"/>
   </g>
   <g id="line2d_7">
    <path d="M 497.054237 684.54643 
L 340.941341 509.102537 
" clip-path="url(#p257df1d83e)" style="fill: none; stroke: #7a7a7a; stroke-width: 3; stroke-linecap: square"/>
   </g>
   <g id="line2d_8">
    <path d="M 519.989898 660.874172 
L 363.877002 485.192765 
L 362.222627 482.896793 
" clip-path="url(#p257df1d83e)" style="fill: none; stroke: #7a7a7a; stroke-width: 3; stroke-linecap: square"/>
   </g>
   <g id="line2d_9">
    <path d="M 749.722508 1023.083472 
L 730.020399 1001.073814 
" clip-path="url(#p257df1d83e)" style="fill: none; stroke: #7a7a7a; stroke-width: 3; stroke-linecap: square"/>
   </g>
   <g id="line2d_10">
    <path d="M 773.936551 1002.103043 
L 755.437624 980.41007 
" clip-path="url(#p257df1d83e)" style="fill: none; stroke: #7a7a7a; stroke-width: 3; stroke-linecap: square"/>
   </g>
   <g id="line2d_11">
    <path d="M -1 1361.310186 
L 382.075134 989.039756 
L 431.10481 939.082583 
" clip-path="url(#p257df1d83e)" style="fill: none; stroke: #7a7a7a; stroke-width: 3; stroke-linecap: square"/>
   </g>
   <g id="line2d_12">
    <path d="M -1 1419.360127 
L 39.318592 1379.671601 
L 43.379332 1375.554686 
L 47.816066 1371.279429 
L 74.436473 1345.073685 
L 76.842838 1342.540199 
L 112.938305 1307.150569 
L 161.892783 1259.806053 
L 177.985345 1244.050938 
L 181.820489 1240.567395 
L 204.380156 1218.874423 
L 206.560924 1216.578451 
L 225.360646 1198.606536 
L 236.339684 1187.20585 
L 247.544319 1176.280193 
L 282.135808 1141.523934 
L 326.277557 1098.850532 
L 360.417853 1066.706931 
L 400.574061 1027.358729 
L 431.10481 998.0653 
" clip-path="url(#p257df1d83e)" style="fill: none; stroke: #7a7a7a; stroke-width: 3; stroke-linecap: square"/>
   </g>
   <g id="line2d_13">
    <path d="M 648.504802 859.27778 
L 497.054237 684.54643 
" clip-path="url(#p257df1d83e)" style="fill: none; stroke: #7a7a7a; stroke-width: 3; stroke-linecap: square"/>
   </g>
   <g id="line2d_14">
    <path d="M 673.01964 835.209664 
L 566.688409 714.473231 
L 559.394117 707.268631 
L 556.235764 704.022602 
L 534.277688 677.658515 
L 519.989898 660.874172 
" clip-path="url(#p257df1d83e)" style="fill: none; stroke: #7a7a7a; stroke-width: 3; stroke-linecap: square"/>
   </g>
   <g id="line2d_15">
    <path d="M 882.298152 497.622679 
L 882.899743 497.068479 
L 1285.5898 113.007864 
" clip-path="url(#p257df1d83e)" style="fill: none; stroke: #7a7a7a; stroke-width: 3; stroke-linecap: square"/>
   </g>
   <g id="line2d_16">
    <path d="M 882.298152 557.476282 
L 882.899743 556.84291 
L 915.912056 525.174338 
L 1204.2998 243.244869 
L 1276.565934 173.494838 
L 1311.458219 138.81775 
" clip-path="url(#p257df1d83e)" style="fill: none; stroke: #7a7a7a; stroke-width: 3; stroke-linecap: square"/>
   </g>
   <g id="line2d_17">
    <path d="M 438.023108 932.194668 
L 765.063082 611.075341 
" clip-path="url(#p257df1d83e)" style="fill: none; stroke: #7a7a7a; stroke-width: 3; stroke-linecap: square"/>
   </g>
   <g id="line2d_18">
    <path d="M 465.621101 964.417441 
L 516.380352 914.697782 
L 563.078863 868.224152 
L 567.96679 864.186409 
L 660.687022 773.455948 
L 666.552536 766.251347 
L 733.705145 701.964145 
L 793.187467 643.693971 
" clip-path="url(#p257df1d83e)" style="fill: none; stroke: #7a7a7a; stroke-width: 3; stroke-linecap: square"/>
   </g>
   <g id="line2d_19">
    <path d="M 773.936551 1002.103043 
L 755.437624 980.41007 
" clip-path="url(#p257df1d83e)" style="fill: none; stroke: #7a7a7a; stroke-width: 3; stroke-linecap: square"/>
   </g>
   <g id="line2d_20">
    <path d="M 799.880168 979.539185 
L 781.45644 958.79627 
" clip-path="url(#p257df1d83e)" style="fill: none; stroke: #7a7a7a; stroke-width: 3; stroke-linecap: square"/>
   </g>
   <g id="line2d_21">
    <path d="M 1404.871932 -1 
L 1385.303529 17.68546 
" clip-path="url(#p257df1d83e)" style="fill: none; stroke: #7a7a7a; stroke-width: 3; stroke-linecap: square"/>
   </g>
   <g id="line2d_22">
    <path clip-path="url(#p257df1d83e)" style="fill: none; stroke: #7a7a7a; stroke-width: 3; stroke-linecap: square"/>
   </g>
   <g id="line2d_23">
    <path d="M 648.504802 859.27778 
L 640.383322 847.322894 
L 634.066615 833.705407 
L 629.554682 818.979521 
L 626.997919 803.541092 
L 626.321129 787.865148 
L 627.524312 772.426719 
L 630.682665 757.700833 
L 635.796189 744.083346 
L 642.789686 732.049289 
L 651.813553 722.15286 
L 765.063082 611.075341 
" clip-path="url(#p257df1d83e)" style="fill: none; stroke: #7a7a7a; stroke-width: 3; stroke-linecap: square"/>
   </g>
   <g id="line2d_24">
    <path d="M 673.01964 835.209664 
L 663.920574 824.838207 
L 660.010232 820.00875 
L 657.152674 815.891835 
L 653.768724 809.320606 
L 652.339945 804.887006 
L 651.738354 801.640977 
L 651.663155 797.91992 
L 651.888752 793.882177 
L 653.467929 786.677577 
L 655.799094 781.056405 
L 660.085431 774.168491 
L 666.552536 766.251347 
L 737.164294 698.638945 
L 793.187467 643.693971 
" clip-path="url(#p257df1d83e)" style="fill: none; stroke: #7a7a7a; stroke-width: 3; stroke-linecap: square"/>
   </g>
   <g id="line2d_25">
    <path d="M 727.012443 947.395583 
L 726.711648 947.078898 
L 648.504802 859.27778 
" clip-path="url(#p257df1d83e)" style="fill: none; stroke: #7a7a7a; stroke-width: 3; stroke-linecap: square"/>
   </g>
   <g id="line2d_26">
    <path d="M 771.379789 947.395583 
L 771.154192 947.158069 
L 768.59743 944.387069 
L 673.470834 835.684693 
L 673.01964 835.209664 
" clip-path="url(#p257df1d83e)" style="fill: none; stroke: #7a7a7a; stroke-width: 3; stroke-linecap: square"/>
   </g>
   <g id="line2d_27">
    <path d="M 438.023108 932.194668 
L 432.307992 937.895012 
L 431.7816 938.37004 
L 431.556003 938.607554 
L 431.405606 938.845069 
L 431.10481 939.082583 
" clip-path="url(#p257df1d83e)" style="fill: none; stroke: #7a7a7a; stroke-width: 3; stroke-linecap: square"/>
   </g>
   <g id="line2d_28">
    <path d="M 436.368732 878.041409 
L 432.307992 882.079152 
L 431.7816 882.554181 
L 431.556003 882.712524 
L 431.405606 882.950038 
L 431.10481 883.266724 
" clip-path="url(#p257df1d83e)" style="fill: none; stroke: #7a7a7a; stroke-width: 3; stroke-linecap: square"/>
   </g>
   <g id="line2d_29">
    <path d="M 682.870695 947.395583 
L 682.569899 947.078898 
L 679.937938 944.149555 
L 666.627734 929.265325 
L 625.042748 882.316666 
" clip-path="url(#p257df1d83e)" style="fill: none; stroke: #7a7a7a; stroke-width: 3; stroke-linecap: square"/>
   </g>
   <g id="line2d_30">
    <path d="M 727.012443 947.395583 
L 726.711648 947.078898 
L 648.504802 859.27778 
" clip-path="url(#p257df1d83e)" style="fill: none; stroke: #7a7a7a; stroke-width: 3; stroke-linecap: square"/>
   </g>
   <g id="line2d_31">
    <path d="M 730.020399 1001.073814 
L 682.870695 947.395583 
" clip-path="url(#p257df1d83e)" style="fill: none; stroke: #7a7a7a; stroke-width: 3; stroke-linecap: square"/>
   </g>
   <g id="line2d_32">
    <path d="M 755.437624 980.41007 
L 727.012443 947.395583 
" clip-path="url(#p257df1d83e)" style="fill: none; stroke: #7a7a7a; stroke-width: 3; stroke-linecap: square"/>
   </g>
   <g id="line2d_33">
    <path d="M 765.063082 611.075341 
L 882.298152 497.622679 
" clip-path="url(#p257df1d83e)" style="fill: none; stroke: #7a7a7a; stroke-width: 3; stroke-linecap: square"/>
   </g>
   <g id="line2d_34">
    <path d="M 793.187467 643.693971 
L 882.298152 557.476282 
" clip-path="url(#p257df1d83e)" style="fill: none; stroke: #7a7a7a; stroke-width: 3; stroke-linecap: square"/>
   </g>
   <g id="line2d_35">
    <path d="M 882.298152 497.622679 
L 765.063082 611.075341 
" clip-path="url(#p257df1d83e)" style="fill: none; stroke: #7a7a7a; stroke-width: 3; stroke-linecap: square"/>
   </g>
   <g id="line2d_36">
    <path d="M 882.298152 443.46942 
L 739.871454 581.781911 
" clip-path="url(#p257df1d83e)" style="fill: none; stroke: #7a7a7a; stroke-width: 3; stroke-linecap: square"/>
   </g>
   <g id="line2d_37">
    <path d="M 431.10481 939.082583 
L 431.405606 938.845069 
L 431.556003 938.607554 
L 431.7816 938.37004 
L 432.307992 937.895012 
L 438.023108 932.194668 
" clip-path="url(#p257df1d83e)" style="fill: none; stroke: #7a7a7a; stroke-width: 3; stroke-linecap: square"/>
   </g>
   <g id="line2d_38">
    <path d="M 431.10481 998.0653 
L 431.330407 997.827785 
L 431.556003 997.669443 
L 431.7816 997.352757 
L 432.383191 996.798557 
L 465.621101 964.417441 
" clip-path="url(#p257df1d83e)" style="fill: none; stroke: #7a7a7a; stroke-width: 3; stroke-linecap: square"/>
   </g>
   <g id="line2d_39">
    <path d="M 340.941341 509.102537 
L 497.054237 684.54643 
" clip-path="url(#p257df1d83e)" style="fill: none; stroke: #7a7a7a; stroke-width: 3; stroke-linecap: square"/>
   </g>
   <g id="line2d_40">
    <path d="M 326.879148 544.333824 
L 330.413496 547.97571 
L 349.81481 570.381225 
L 471.937808 709.722945 
" clip-path="url(#p257df1d83e)" style="fill: none; stroke: #7a7a7a; stroke-width: 3; stroke-linecap: square"/>
   </g>
   <g id="line2d_41">
    <path clip-path="url(#p257df1d83e)" style="fill: none; stroke: #7a7a7a; stroke-width: 3; stroke-linecap: square"/>
   </g>
   <g id="line2d_42">
    <path d="M 1438.09315 234.852697 
L 1441 237.900692 
" clip-path="url(#p257df1d83e)" style="fill: none; stroke: #7a7a7a; stroke-width: 3; stroke-linecap: square"/>
   </g>
   <g id="line2d_43">
    <path clip-path="url(#p257df1d83e)" style="fill: none; stroke: #7a7a7a; stroke-width: 3; stroke-linecap: square"/>
   </g>
   <g id="line2d_44">
    <path clip-path="url(#p257df1d83e)" style="fill: none; stroke: #7a7a7a; stroke-width: 3; stroke-linecap: square"/>
   </g>
   <g id="line2d_45">
    <path d="M 497.054237 684.54643 
L 510.289242 701.251602 
L 523.449047 715.185774 
L 536.458455 726.507289 
L 549.317466 735.216146 
L 562.101277 741.391518 
L 574.734691 745.270918 
L 587.292905 746.854347 
L 599.700722 746.300147 
L 612.03334 743.608318 
L 624.21556 739.016375 
L 636.322582 732.445146 
L 648.279205 724.211317 
L 660.16063 714.235717 
L 671.891657 702.676688 
L 683.547485 689.692573 
L 765.063082 611.075341 
" clip-path="url(#p257df1d83e)" style="fill: none; stroke: #7a7a7a; stroke-width: 3; stroke-linecap: square"/>
   </g>
   <g id="line2d_46">
    <path d="M 471.937808 709.722945 
L 497.956624 739.016375 
L 503.370944 744.320861 
L 514.650777 753.979775 
L 526.306605 762.688633 
L 538.263229 770.130748 
L 550.595847 776.385291 
L 563.22926 781.373091 
L 576.013072 784.856634 
L 589.097679 786.915091 
L 602.332683 787.310948 
L 615.793285 786.044205 
L 629.329085 782.956519 
L 642.940084 778.047891 
L 656.701481 771.159976 
L 670.462878 762.213604 
L 672.34285 760.709347 
L 707.61113 726.903146 
L 711.67187 722.311203 
L 793.187467 643.693971 
" clip-path="url(#p257df1d83e)" style="fill: none; stroke: #7a7a7a; stroke-width: 3; stroke-linecap: square"/>
   </g>
   <g id="line2d_47">
    <path d="M 765.063082 611.075341 
L 438.023108 932.194668 
" clip-path="url(#p257df1d83e)" style="fill: none; stroke: #7a7a7a; stroke-width: 3; stroke-linecap: square"/>
   </g>
   <g id="line2d_48">
    <path d="M 739.871454 581.781911 
L 606.995014 712.414774 
L 601.731092 716.61086 
L 508.710065 807.420492 
L 504.649325 811.695749 
L 494.873469 820.958807 
L 436.368732 878.041409 
" clip-path="url(#p257df1d83e)" style="fill: none; stroke: #7a7a7a; stroke-width: 3; stroke-linecap: square"/>
   </g>
   <g id="line2d_49">
    <path d="M 438.023108 932.194668 
L 486.526392 886.671095 
L 496.603044 876.378809 
L 506.3037 865.849009 
L 515.553164 855.002522 
L 524.050638 843.839351 
L 531.570528 832.438664 
L 538.037632 820.642121 
L 543.151157 808.608063 
L 546.760703 796.178149 
L 548.640676 783.431548 
L 548.565477 770.368262 
L 546.459908 756.98829 
L 541.947974 743.212461 
L 534.954478 729.119946 
L 497.054237 684.54643 
" clip-path="url(#p257df1d83e)" style="fill: none; stroke: #7a7a7a; stroke-width: 3; stroke-linecap: square"/>
   </g>
   <g id="line2d_50">
    <path d="M 465.621101 964.417441 
L 472.238603 958.083727 
L 505.250916 925.781782 
L 520.516291 910.501696 
L 524.351434 906.226439 
L 532.548113 895.854981 
L 540.519195 884.691809 
L 548.114283 872.895266 
L 555.10778 860.544523 
L 561.424487 847.560408 
L 566.914006 834.180436 
L 571.425939 820.404607 
L 574.885088 806.23292 
L 577.065856 791.82372 
L 577.968243 777.177005 
L 577.366652 762.451119 
L 575.110685 747.646061 
L 571.125144 732.761832 
L 565.184431 718.035945 
L 559.394117 707.347802 
L 556.235764 704.022602 
L 519.989898 660.874172 
" clip-path="url(#p257df1d83e)" style="fill: none; stroke: #7a7a7a; stroke-width: 3; stroke-linecap: square"/>
   </g>
   <g id="line2d_51">
    <path d="M 497.054237 684.54643 
L 534.954478 729.119946 
L 541.947974 743.212461 
L 546.459908 756.98829 
L 548.565477 770.368262 
L 548.640676 783.431548 
L 546.760703 796.178149 
L 543.151157 808.608063 
L 538.037632 820.642121 
L 531.570528 832.438664 
L 524.050638 843.839351 
L 515.553164 855.002522 
L 506.3037 865.849009 
L 496.603044 876.378809 
L 486.526392 886.671095 
L 438.023108 932.194668 
" clip-path="url(#p257df1d83e)" style="fill: none; stroke: #7a7a7a; stroke-width: 3; stroke-linecap: square"/>
   </g>
   <g id="line2d_52">
    <path d="M 471.937808 709.722945 
L 511.943617 754.77149 
L 518.335523 763.559519 
L 520.59149 767.597262 
L 521.26828 768.468147 
L 522.997854 774.089319 
L 523.674644 778.918776 
L 523.749843 782.956519 
L 523.29865 786.202548 
L 521.493876 791.507034 
L 518.485921 796.336491 
L 512.846004 803.145235 
L 504.649325 811.695749 
L 499.460601 816.604378 
L 497.054237 819.137864 
L 481.187271 835.051322 
L 461.033968 854.527494 
L 436.368732 878.041409 
" clip-path="url(#p257df1d83e)" style="fill: none; stroke: #7a7a7a; stroke-width: 3; stroke-linecap: square"/>
   </g>
   <g id="line2d_53">
    <path d="M 1382.596369 127.971264 
L 1373.422104 114.353778 
L 1367.406193 100.023749 
L 1364.323039 85.297863 
L 1363.947044 70.492805 
L 1366.052613 56.004433 
L 1370.489348 42.149432 
L 1376.956452 29.244489 
L 1385.303529 17.68546 
" clip-path="url(#p257df1d83e)" style="fill: none; stroke: #7a7a7a; stroke-width: 3; stroke-linecap: square"/>
   </g>
   <g id="line2d_54">
    <path d="M 1405.156036 107.307521 
L 1400.644103 101.844692 
L 1399.140125 100.182092 
L 1398.237738 98.44032 
L 1391.018645 83.239405 
L 1390.116258 80.785091 
L 1389.213871 77.064034 
L 1389.138672 69.305233 
L 1390.341855 62.49649 
L 1392.748219 55.29189 
L 1397.861744 45.949661 
L 1404.028053 38.349203 
" clip-path="url(#p257df1d83e)" style="fill: none; stroke: #7a7a7a; stroke-width: 3; stroke-linecap: square"/>
   </g>
   <g id="line2d_55">
    <path d="M 625.042748 882.316666 
L 615.191694 869.965923 
L 609.401379 865.37398 
L 608.047799 864.107237 
L 603.159871 860.465351 
L 589.398474 853.73578 
L 574.584293 849.777208 
L 559.318918 848.431294 
L 544.203941 849.618865 
L 529.765754 853.181579 
L 516.681147 859.119437 
L 505.476513 867.274094 
L 496.82864 877.56638 
L 438.023108 932.194668 
" clip-path="url(#p257df1d83e)" style="fill: none; stroke: #7a7a7a; stroke-width: 3; stroke-linecap: square"/>
   </g>
   <g id="line2d_56">
    <path d="M 648.504802 859.27778 
L 637.375366 846.610351 
L 625.117947 835.922207 
L 611.882942 827.055007 
L 598.046347 820.087921 
L 583.683358 815.020949 
L 569.094774 811.695749 
L 554.355791 810.270663 
L 539.842405 810.587349 
L 525.629815 812.724978 
L 511.943617 816.604378 
L 499.084607 822.22555 
L 487.127983 829.509321 
L 478.480111 836.793093 
L 474.569769 840.593322 
L 467.04988 849.223008 
L 436.368732 878.041409 
" clip-path="url(#p257df1d83e)" style="fill: none; stroke: #7a7a7a; stroke-width: 3; stroke-linecap: square"/>
   </g>
   <g id="line2d_57">
    <path d="M 765.063082 611.075341 
L 683.547485 689.692573 
L 671.891657 702.676688 
L 660.16063 714.235717 
L 648.279205 724.211317 
L 636.322582 732.445146 
L 624.21556 739.016375 
L 612.03334 743.608318 
L 599.700722 746.300147 
L 587.292905 746.854347 
L 574.734691 745.270918 
L 562.101277 741.391518 
L 549.317466 735.216146 
L 536.458455 726.507289 
L 523.449047 715.185774 
L 510.289242 701.251602 
L 497.054237 684.54643 
" clip-path="url(#p257df1d83e)" style="fill: none; stroke: #7a7a7a; stroke-width: 3; stroke-linecap: square"/>
   </g>
   <g id="line2d_58">
    <path d="M 739.871454 581.781911 
L 612.03334 707.268631 
L 606.995014 712.414774 
L 601.355098 716.927545 
L 596.391971 719.777717 
L 590.601656 721.757003 
L 585.563331 722.232031 
L 582.104182 721.915346 
L 578.720232 721.202803 
L 575.561878 720.094403 
L 572.478724 718.590145 
L 566.688409 714.473231 
L 559.394117 707.268631 
L 556.235764 704.022602 
L 547.437493 693.41363 
L 540.744792 686.525716 
L 530.893738 674.887515 
L 519.989898 660.874172 
" clip-path="url(#p257df1d83e)" style="fill: none; stroke: #7a7a7a; stroke-width: 3; stroke-linecap: square"/>
   </g>
   <g id="line2d_59">
    <path d="M 1385.303529 17.68546 
L 1371.316535 25.919289 
L 1356.878348 31.144603 
L 1342.289764 33.598918 
L 1328.001975 33.440575 
L 1314.315777 30.907089 
L 1301.607164 26.156803 
L 1290.327331 19.427231 
L 1280.777072 10.876717 
" clip-path="url(#p257df1d83e)" style="fill: none; stroke: #7a7a7a; stroke-width: 3; stroke-linecap: square"/>
   </g>
   <g id="line2d_60">
    <path d="M 1348.306763 -1 
L 1347.704084 -0.444798 
L 1344.696128 1.851173 
L 1341.913769 3.434602 
L 1338.45462 4.543002 
L 1335.371466 4.938859 
L 1331.987516 5.018031 
L 1327.550781 4.622174 
L 1323.414842 3.909631 
L 1319.730097 2.326202 
L 1315.894953 -0.919827 
" clip-path="url(#p257df1d83e)" style="fill: none; stroke: #7a7a7a; stroke-width: 3; stroke-linecap: square"/>
   </g>
   <g id="line2d_61">
    <path d="M 1382.596369 127.971264 
L 1280.777072 10.876717 
" clip-path="url(#p257df1d83e)" style="fill: none; stroke: #7a7a7a; stroke-width: 3; stroke-linecap: square"/>
   </g>
   <g id="line2d_62">
    <path d="M 1405.156036 107.307521 
L 1399.140125 100.182092 
L 1315.894953 -0.919827 
" clip-path="url(#p257df1d83e)" style="fill: none; stroke: #7a7a7a; stroke-width: 3; stroke-linecap: square"/>
   </g>
   <g id="line2d_63">
    <path d="M 1441 194.878375 
L 1382.596369 127.971264 
" clip-path="url(#p257df1d83e)" style="fill: none; stroke: #7a7a7a; stroke-width: 3; stroke-linecap: square"/>
   </g>
   <g id="line2d_64">
    <path d="M 1441 150.201343 
L 1405.156036 107.307521 
" clip-path="url(#p257df1d83e)" style="fill: none; stroke: #7a7a7a; stroke-width: 3; stroke-linecap: square"/>
   </g>
   <g id="line2d_65">
    <path d="M 1285.5898 113.007864 
L 1298.072816 104.219835 
L 1310.931827 98.99452 
L 1323.941235 96.936063 
L 1336.800245 97.806949 
L 1349.132863 101.290492 
L 1360.788691 107.070006 
L 1371.391734 114.828807 
L 1382.596369 127.971264 
" clip-path="url(#p257df1d83e)" style="fill: none; stroke: #7a7a7a; stroke-width: 3; stroke-linecap: square"/>
   </g>
   <g id="line2d_66">
    <path d="M 1311.458219 138.81775 
L 1317.098136 133.196579 
L 1322.662853 128.28795 
L 1326.94919 125.596121 
L 1330.483538 124.804407 
L 1334.093085 125.200264 
L 1338.379421 127.337893 
L 1342.139366 130.267236 
L 1359.134315 148.159979 
L 1359.961503 149.030865 
" clip-path="url(#p257df1d83e)" style="fill: none; stroke: #7a7a7a; stroke-width: 3; stroke-linecap: square"/>
   </g>
   <g id="line2d_67">
    <path d="M 1285.5898 113.007864 
L 1385.303529 17.68546 
" clip-path="url(#p257df1d83e)" style="fill: none; stroke: #7a7a7a; stroke-width: 3; stroke-linecap: square"/>
   </g>
   <g id="line2d_68">
    <path d="M 1311.458219 138.81775 
L 1317.098136 133.196579 
L 1404.028053 38.349203 
" clip-path="url(#p257df1d83e)" style="fill: none; stroke: #7a7a7a; stroke-width: 3; stroke-linecap: square"/>
   </g>
   <g id="line2d_69">
    <path d="M 1280.777072 10.876717 
L 1290.327331 19.427231 
L 1301.607164 26.156803 
L 1314.315777 30.907089 
L 1328.001975 33.440575 
L 1342.289764 33.598918 
L 1356.878348 31.144603 
L 1371.316535 25.919289 
L 1385.303529 17.68546 
" clip-path="url(#p257df1d83e)" style="fill: none; stroke: #7a7a7a; stroke-width: 3; stroke-linecap: square"/>
   </g>
   <g id="line2d_70">
    <path d="M 1255.359847 32.253003 
L 1265.511697 41.199375 
L 1277.242724 48.720661 
L 1290.252132 54.816861 
L 1304.163926 59.250461 
L 1318.752511 62.100633 
L 1333.641891 63.129862 
L 1348.681669 62.258976 
L 1363.57105 59.408804 
L 1377.934038 54.579347 
L 1391.469838 47.612261 
L 1404.028053 38.349203 
" clip-path="url(#p257df1d83e)" style="fill: none; stroke: #7a7a7a; stroke-width: 3; stroke-linecap: square"/>
   </g>
   <g id="line2d_71">
    <path d="M 1285.5898 113.007864 
L 882.899743 497.068479 
L 882.298152 497.622679 
" clip-path="url(#p257df1d83e)" style="fill: none; stroke: #7a7a7a; stroke-width: 3; stroke-linecap: square"/>
   </g>
   <g id="line2d_72">
    <path d="M 1253.78067 81.576805 
L 1222.121937 109.603492 
L 1107.970022 222.026925 
L 1070.069781 260.108384 
L 984.493444 341.259102 
L 936.215756 390.503732 
L 883.050141 442.756877 
L 882.899743 442.91522 
L 882.298152 443.46942 
" clip-path="url(#p257df1d83e)" style="fill: none; stroke: #7a7a7a; stroke-width: 3; stroke-linecap: square"/>
   </g>
   <g id="line2d_73">
    <path d="M 1280.777072 10.876717 
L 1286.717784 18.398003 
L 1292.282502 29.87786 
L 1295.516054 42.228604 
L 1296.944833 49.908233 
L 1297.997617 60.358862 
L 1298.373612 73.422148 
L 1297.095231 85.772891 
L 1294.46327 97.569434 
L 1290.252132 107.149178 
L 1285.5898 113.007864 
" clip-path="url(#p257df1d83e)" style="fill: none; stroke: #7a7a7a; stroke-width: 3; stroke-linecap: square"/>
   </g>
   <g id="line2d_74">
    <path d="M 1255.359847 32.253003 
L 1257.991808 35.182346 
L 1262.729338 41.516061 
L 1265.812492 47.216404 
L 1267.391669 52.837576 
L 1267.767663 56.083604 
L 1267.767663 58.933776 
L 1266.790078 64.238262 
L 1264.534111 69.14689 
L 1260.54857 74.372205 
L 1253.78067 81.576805 
" clip-path="url(#p257df1d83e)" style="fill: none; stroke: #7a7a7a; stroke-width: 3; stroke-linecap: square"/>
   </g>
   <g id="line2d_75">
    <path d="M 1280.777072 10.876717 
L 1272.596853 -1 
" clip-path="url(#p257df1d83e)" style="fill: none; stroke: #7a7a7a; stroke-width: 3; stroke-linecap: square"/>
   </g>
   <g id="line2d_76">
    <path d="M 1315.894953 -0.919827 
L 1315.832648 -1 
" clip-path="url(#p257df1d83e)" style="fill: none; stroke: #7a7a7a; stroke-width: 3; stroke-linecap: square"/>
   </g>
   <g id="line2d_77">
    <path d="M 1382.596369 127.971264 
L 1441 194.878375 
" clip-path="url(#p257df1d83e)" style="fill: none; stroke: #7a7a7a; stroke-width: 3; stroke-linecap: square"/>
   </g>
   <g id="line2d_78">
    <path d="M 1359.961503 149.030865 
L 1371.01574 160.669066 
L 1386.882706 179.036838 
L 1437.792354 234.536011 
L 1438.09315 234.852697 
" clip-path="url(#p257df1d83e)" style="fill: none; stroke: #7a7a7a; stroke-width: 3; stroke-linecap: square"/>
   </g>
   <g id="line2d_79">
    <path d="M 1385.303529 17.68546 
L 1376.956452 29.244489 
L 1370.489348 42.149432 
L 1366.052613 56.004433 
L 1363.947044 70.492805 
L 1364.323039 85.297863 
L 1367.406193 100.023749 
L 1373.422104 114.353778 
L 1382.596369 127.971264 
" clip-path="url(#p257df1d83e)" style="fill: none; stroke: #7a7a7a; stroke-width: 3; stroke-linecap: square"/>
   </g>
   <g id="line2d_80">
    <path d="M 1351.542466 -1 
L 1350.411244 0.584431 
L 1343.568145 14.201917 
L 1338.45462 29.086146 
L 1334.995471 44.920432 
L 1333.265897 61.229747 
L 1333.341096 77.697405 
L 1335.07067 94.00672 
L 1338.605018 109.603492 
L 1343.944139 124.250207 
L 1351.012835 137.551008 
L 1359.961503 149.030865 
" clip-path="url(#p257df1d83e)" style="fill: none; stroke: #7a7a7a; stroke-width: 3; stroke-linecap: square"/>
   </g>
   <g id="line2d_81">
    <path d="M 1382.596369 127.971264 
L 1371.391734 114.828807 
L 1360.788691 107.070006 
L 1349.132863 101.290492 
L 1336.800245 97.806949 
L 1323.941235 96.936063 
L 1310.931827 98.99452 
L 1298.072816 104.219835 
L 1285.5898 113.007864 
" clip-path="url(#p257df1d83e)" style="fill: none; stroke: #7a7a7a; stroke-width: 3; stroke-linecap: square"/>
   </g>
   <g id="line2d_82">
    <path d="M 1405.156036 107.307521 
L 1394.0266 94.165063 
L 1384.025148 84.506148 
L 1372.143723 76.668176 
L 1358.758321 70.651148 
L 1344.470532 66.455062 
L 1329.505952 63.921576 
L 1314.541373 63.129862 
L 1299.87759 63.842405 
L 1286.040994 66.059205 
L 1273.40758 69.859433 
L 1262.503741 75.005576 
L 1253.78067 81.576805 
" clip-path="url(#p257df1d83e)" style="fill: none; stroke: #7a7a7a; stroke-width: 3; stroke-linecap: square"/>
   </g>
   <g id="line2d_83">
    <path clip-path="url(#p257df1d83e)" style="fill: none; stroke: #7a7a7a; stroke-width: 3; stroke-linecap: square"/>
   </g>
   <g id="line2d_84">
    <path clip-path="url(#p257df1d83e)" style="fill: none; stroke: #7a7a7a; stroke-width: 3; stroke-linecap: square"/>
   </g>
   <g id="line2d_85">
    <path clip-path="url(#p257df1d83e)" style="fill: none; stroke: #7a7a7a; stroke-width: 3; stroke-linecap: square"/>
   </g>
   <g id="line2d_86">
    <path clip-path="url(#p257df1d83e)" style="fill: none; stroke: #7a7a7a; stroke-width: 3; stroke-linecap: square"/>
   </g>
   <g id="line2d_87">
    <path d="M 1285.5898 113.007864 
L 1290.252132 107.149178 
L 1294.46327 97.569434 
L 1297.095231 85.772891 
L 1298.373612 73.422148 
L 1297.997617 60.358862 
L 1296.944833 49.908233 
L 1295.516054 42.228604 
L 1292.282502 29.87786 
L 1286.717784 18.398003 
L 1280.777072 10.876717 
" clip-path="url(#p257df1d83e)" style="fill: none; stroke: #7a7a7a; stroke-width: 3; stroke-linecap: square"/>
   </g>
   <g id="line2d_88">
    <path d="M 1311.458219 138.81775 
L 1320.256489 124.566893 
L 1326.573196 109.128464 
L 1330.558737 92.977491 
L 1332.513908 76.509834 
L 1332.589107 60.27969 
L 1331.00993 44.603747 
L 1328.152372 29.957032 
L 1324.091632 16.814574 
L 1319.203704 5.651402 
L 1315.894953 -0.919827 
" clip-path="url(#p257df1d83e)" style="fill: none; stroke: #7a7a7a; stroke-width: 3; stroke-linecap: square"/>
   </g>
   <g id="line2d_89">
    <path d="M 1280.777072 10.876717 
L 1382.596369 127.971264 
" clip-path="url(#p257df1d83e)" style="fill: none; stroke: #7a7a7a; stroke-width: 3; stroke-linecap: square"/>
   </g>
   <g id="line2d_90">
    <path d="M 1255.359847 32.253003 
L 1342.139366 130.267236 
L 1359.961503 149.030865 
" clip-path="url(#p257df1d83e)" style="fill: none; stroke: #7a7a7a; stroke-width: 3; stroke-linecap: square"/>
   </g>
   <g id="line2d_91">
    <path d="M 1385.303529 17.68546 
L 1404.871932 -1 
" clip-path="url(#p257df1d83e)" style="fill: none; stroke: #7a7a7a; stroke-width: 3; stroke-linecap: square"/>
   </g>
   <g id="line2d_92">
    <path d="M 1404.028053 38.349203 
L 1440.12664 -1 
" clip-path="url(#p257df1d83e)" style="fill: none; stroke: #7a7a7a; stroke-width: 3; stroke-linecap: square"/>
   </g>
   <g id="line2d_93">
    <path d="M 1385.303529 17.68546 
L 1285.5898 113.007864 
" clip-path="url(#p257df1d83e)" style="fill: none; stroke: #7a7a7a; stroke-width: 3; stroke-linecap: square"/>
   </g>
   <g id="line2d_94">
    <path d="M 1348.306763 -1 
L 1347.704084 -0.444798 
L 1344.696128 1.851173 
L 1253.78067 81.576805 
" clip-path="url(#p257df1d83e)" style="fill: none; stroke: #7a7a7a; stroke-width: 3; stroke-linecap: square"/>
   </g>
   <g id="line2d_95">
    <path d="M 1272.596853 -1 
L 1280.777072 10.876717 
" clip-path="url(#p257df1d83e)" style="fill: none; stroke: #7a7a7a; stroke-width: 3; stroke-linecap: square"/>
   </g>
   <g id="line2d_96">
    <path d="M 1225.207764 -1 
L 1255.359847 32.253003 
" clip-path="url(#p257df1d83e)" style="fill: none; stroke: #7a7a7a; stroke-width: 3; stroke-linecap: square"/>
   </g>
   <g id="line2d_97">
    <path clip-path="url(#p257df1d83e)" style="fill: none; stroke: #7a7a7a; stroke-width: 3; stroke-linecap: square"/>
   </g>
   <g id="line2d_98">
    <path clip-path="url(#p257df1d83e)" style="fill: none; stroke: #7a7a7a; stroke-width: 3; stroke-linecap: square"/>
   </g>
   <g id="line2d_99">
    <path d="M 613.40337 741.735419 
L 150.397781 1202.485705 
" clip-path="url(#p257df1d83e)" style="fill: none; stroke-dasharray: 32,8,5,8; stroke-dashoffset: 0; stroke: #1e90ff; stroke-width: 5"/>
   </g>
   <g id="line2d_100">
    <path d="M 728.700379 606.434612 
L 723.550651 609.507917 
" clip-path="url(#p257df1d83e)" style="fill: none; stroke-dasharray: 32,8,5,8; stroke-dashoffset: 0; stroke: #1e90ff; stroke-width: 5"/>
   </g>
   <g id="line2d_101">
    <path d="M 1327.201665 39.585716 
L 1320.983436 42.848445 
" clip-path="url(#p257df1d83e)" style="fill: none; stroke-dasharray: 32,8,5,8; stroke-dashoffset: 0; stroke: #1e90ff; stroke-width: 5"/>
   </g>
   <g id="line2d_102">
    <path d="M 936.374893 490.09745 
L 950.318632 481.509592 
" clip-path="url(#p257df1d83e)" style="fill: none; stroke-dasharray: 32,8,5,8; stroke-dashoffset: 0; stroke: #1e90ff; stroke-width: 5"/>
   </g>
   <g id="line2d_103">
    <path d="M 973.53372 456.899957 
L 978.674269 451.501377 
" clip-path="url(#p257df1d83e)" style="fill: none; stroke-dasharray: 32,8,5,8; stroke-dashoffset: 0; stroke: #1e90ff; stroke-width: 5"/>
   </g>
   <g id="line2d_104">
    <path d="M 881.778589 550.322633 
L 885.059361 547.875586 
" clip-path="url(#p257df1d83e)" style="fill: none; stroke-dasharray: 32,8,5,8; stroke-dashoffset: 0; stroke: #1e90ff; stroke-width: 5"/>
   </g>
   <g id="line2d_105">
    <path d="M 1158.771572 190.278176 
L 1156.282077 191.457243 
" clip-path="url(#p257df1d83e)" style="fill: none; stroke-dasharray: 32,8,5,8; stroke-dashoffset: 0; stroke: #1e90ff; stroke-width: 5"/>
   </g>
   <g id="line2d_106">
    <path d="M 1303.81951 138.677577 
L 1302.851985 135.71638 
" clip-path="url(#p257df1d83e)" style="fill: none; stroke-dasharray: 32,8,5,8; stroke-dashoffset: 0; stroke: #1e90ff; stroke-width: 5"/>
   </g>
   <g id="line2d_107">
    <path d="M 1038.444168 312.023581 
L 1037.394027 312.717491 
" clip-path="url(#p257df1d83e)" style="fill: none; stroke-dasharray: 32,8,5,8; stroke-dashoffset: 0; stroke: #1e90ff; stroke-width: 5"/>
   </g>
   <g id="line2d_108">
    <path d="M 341.89058 1047.067313 
L 599.184244 807.034454 
" clip-path="url(#p257df1d83e)" style="fill: none; stroke-dasharray: 32,8,5,8; stroke-dashoffset: 0; stroke: #1e90ff; stroke-width: 5"/>
   </g>
   <g id="line2d_109">
    <path d="M 472.049284 932.808015 
L 726.089715 687.861733 
" clip-path="url(#p257df1d83e)" style="fill: none; stroke-dasharray: 32,8,5,8; stroke-dashoffset: 0; stroke: #1e90ff; stroke-width: 5"/>
   </g>
   <g id="line2d_110">
    <path d="M 1121.379585 240.181692 
L 818.289135 531.382182 
" clip-path="url(#p257df1d83e)" style="fill: none; stroke-dasharray: 32,8,5,8; stroke-dashoffset: 0; stroke: #1e90ff; stroke-width: 5"/>
   </g>
   <g id="line2d_111">
    <path d="M 613.40337 741.735419 
" clip-path="url(#p257df1d83e)" style="fill: none; stroke: #0000ff; stroke-width: 1.5; stroke-linecap: square"/>
    <defs>
     <path id="m8ba682a852" d="M 0 10 
C 2.652031 10 5.195799 8.946337 7.071068 7.071068 
C 8.946337 5.195799 10 2.652031 10 0 
C 10 -2.652031 8.946337 -5.195799 7.071068 -7.071068 
C 5.195799 -8.946337 2.652031 -10 0 -10 
C -2.652031 -10 -5.195799 -8.946337 -7.071068 -7.071068 
C -8.946337 -5.195799 -10 -2.652031 -10 0 
C -10 2.652031 -8.946337 5.195799 -7.071068 7.071068 
C -5.195799 8.946337 -2.652031 10 0 10 
z
" style="stroke: #0000ff"/>
    </defs>
    <g clip-path="url(#p257df1d83e)">
     <use xlink:href="#m8ba682a852" x="613.40337" y="741.735419" style="fill: #0000ff; stroke: #0000ff"/>
    </g>
   </g>
   <g id="line2d_112">
    <path d="M 728.700379 606.434612 
" clip-path="url(#p257df1d83e)" style="fill: none; stroke: #0000ff; stroke-width: 1.5; stroke-linecap: square"/>
    <g clip-path="url(#p257df1d83e)">
     <use xlink:href="#m8ba682a852" x="728.700379" y="606.434612" style="fill: #0000ff; stroke: #0000ff"/>
    </g>
   </g>
   <g id="line2d_113">
    <path d="M 1327.201665 39.585716 
" clip-path="url(#p257df1d83e)" style="fill: none; stroke: #0000ff; stroke-width: 1.5; stroke-linecap: square"/>
    <g clip-path="url(#p257df1d83e)">
     <use xlink:href="#m8ba682a852" x="1327.201665" y="39.585716" style="fill: #0000ff; stroke: #0000ff"/>
    </g>
   </g>
   <g id="line2d_114">
    <path d="M 936.374893 490.09745 
" clip-path="url(#p257df1d83e)" style="fill: none; stroke: #0000ff; stroke-width: 1.5; stroke-linecap: square"/>
    <g clip-path="url(#p257df1d83e)">
     <use xlink:href="#m8ba682a852" x="936.374893" y="490.09745" style="fill: #0000ff; stroke: #0000ff"/>
    </g>
   </g>
   <g id="line2d_115">
    <path d="M 973.53372 456.899957 
" clip-path="url(#p257df1d83e)" style="fill: none; stroke: #0000ff; stroke-width: 1.5; stroke-linecap: square"/>
    <g clip-path="url(#p257df1d83e)">
     <use xlink:href="#m8ba682a852" x="973.53372" y="456.899957" style="fill: #0000ff; stroke: #0000ff"/>
    </g>
   </g>
   <g id="line2d_116">
    <path d="M 881.778589 550.322633 
" clip-path="url(#p257df1d83e)" style="fill: none; stroke: #0000ff; stroke-width: 1.5; stroke-linecap: square"/>
    <g clip-path="url(#p257df1d83e)">
     <use xlink:href="#m8ba682a852" x="881.778589" y="550.322633" style="fill: #0000ff; stroke: #0000ff"/>
    </g>
   </g>
   <g id="line2d_117">
    <path d="M 1158.771572 190.278176 
" clip-path="url(#p257df1d83e)" style="fill: none; stroke: #0000ff; stroke-width: 1.5; stroke-linecap: square"/>
    <g clip-path="url(#p257df1d83e)">
     <use xlink:href="#m8ba682a852" x="1158.771572" y="190.278176" style="fill: #0000ff; stroke: #0000ff"/>
    </g>
   </g>
   <g id="line2d_118">
    <path d="M 1303.81951 138.677577 
" clip-path="url(#p257df1d83e)" style="fill: none; stroke: #0000ff; stroke-width: 1.5; stroke-linecap: square"/>
    <g clip-path="url(#p257df1d83e)">
     <use xlink:href="#m8ba682a852" x="1303.81951" y="138.677577" style="fill: #0000ff; stroke: #0000ff"/>
    </g>
   </g>
   <g id="line2d_119">
    <path d="M 1038.444168 312.023581 
" clip-path="url(#p257df1d83e)" style="fill: none; stroke: #0000ff; stroke-width: 1.5; stroke-linecap: square"/>
    <g clip-path="url(#p257df1d83e)">
     <use xlink:href="#m8ba682a852" x="1038.444168" y="312.023581" style="fill: #0000ff; stroke: #0000ff"/>
    </g>
   </g>
   <g id="line2d_120">
    <path d="M 341.89058 1047.067313 
" clip-path="url(#p257df1d83e)" style="fill: none; stroke: #0000ff; stroke-width: 1.5; stroke-linecap: square"/>
    <g clip-path="url(#p257df1d83e)">
     <use xlink:href="#m8ba682a852" x="341.89058" y="1047.067313" style="fill: #0000ff; stroke: #0000ff"/>
    </g>
   </g>
   <g id="line2d_121">
    <path d="M 472.049284 932.808015 
" clip-path="url(#p257df1d83e)" style="fill: none; stroke: #0000ff; stroke-width: 1.5; stroke-linecap: square"/>
    <g clip-path="url(#p257df1d83e)">
     <use xlink:href="#m8ba682a852" x="472.049284" y="932.808015" style="fill: #0000ff; stroke: #0000ff"/>
    </g>
   </g>
   <g id="line2d_122">
    <path d="M 1121.379585 240.181692 
" clip-path="url(#p257df1d83e)" style="fill: none; stroke: #0000ff; stroke-width: 1.5; stroke-linecap: square"/>
    <g clip-path="url(#p257df1d83e)">
     <use xlink:href="#m8ba682a852" x="1121.379585" y="240.181692" style="fill: #0000ff; stroke: #0000ff"/>
    </g>
   </g>
   <g id="line2d_123">
    <path d="M 150.397781 1202.485705 
" clip-path="url(#p257df1d83e)" style="fill: none; stroke: #ff0000; stroke-width: 1.5; stroke-linecap: square"/>
    <defs>
     <path id="mbdbe977569" d="M 0 -10 
L -2.24514 -3.09017 
L -9.510565 -3.09017 
L -3.632713 1.18034 
L -5.877853 8.09017 
L -0 3.81966 
L 5.877853 8.09017 
L 3.632713 1.18034 
L 9.510565 -3.09017 
L 2.24514 -3.09017 
z
" style="stroke: #ff0000; stroke-linejoin: bevel"/>
    </defs>
    <g clip-path="url(#p257df1d83e)">
     <use xlink:href="#mbdbe977569" x="150.397781" y="1202.485705" style="fill: #ff0000; stroke: #ff0000; stroke-linejoin: bevel"/>
    </g>
   </g>
   <g id="line2d_124">
    <path d="M 723.550651 609.507917 
" clip-path="url(#p257df1d83e)" style="fill: none; stroke: #ff0000; stroke-width: 1.5; stroke-linecap: square"/>
    <g clip-path="url(#p257df1d83e)">
     <use xlink:href="#mbdbe977569" x="723.550651" y="609.507917" style="fill: #ff0000; stroke: #ff0000; stroke-linejoin: bevel"/>
    </g>
   </g>
   <g id="line2d_125">
    <path d="M 1320.983436 42.848445 
" clip-path="url(#p257df1d83e)" style="fill: none; stroke: #ff0000; stroke-width: 1.5; stroke-linecap: square"/>
    <g clip-path="url(#p257df1d83e)">
     <use xlink:href="#mbdbe977569" x="1320.983436" y="42.848445" style="fill: #ff0000; stroke: #ff0000; stroke-linejoin: bevel"/>
    </g>
   </g>
   <g id="line2d_126">
    <path d="M 950.318632 481.509592 
" clip-path="url(#p257df1d83e)" style="fill: none; stroke: #ff0000; stroke-width: 1.5; stroke-linecap: square"/>
    <g clip-path="url(#p257df1d83e)">
     <use xlink:href="#mbdbe977569" x="950.318632" y="481.509592" style="fill: #ff0000; stroke: #ff0000; stroke-linejoin: bevel"/>
    </g>
   </g>
   <g id="line2d_127">
    <path d="M 978.674269 451.501377 
" clip-path="url(#p257df1d83e)" style="fill: none; stroke: #ff0000; stroke-width: 1.5; stroke-linecap: square"/>
    <g clip-path="url(#p257df1d83e)">
     <use xlink:href="#mbdbe977569" x="978.674269" y="451.501377" style="fill: #ff0000; stroke: #ff0000; stroke-linejoin: bevel"/>
    </g>
   </g>
   <g id="line2d_128">
    <path d="M 885.059361 547.875586 
" clip-path="url(#p257df1d83e)" style="fill: none; stroke: #ff0000; stroke-width: 1.5; stroke-linecap: square"/>
    <g clip-path="url(#p257df1d83e)">
     <use xlink:href="#mbdbe977569" x="885.059361" y="547.875586" style="fill: #ff0000; stroke: #ff0000; stroke-linejoin: bevel"/>
    </g>
   </g>
   <g id="line2d_129">
    <path d="M 1156.282077 191.457243 
" clip-path="url(#p257df1d83e)" style="fill: none; stroke: #ff0000; stroke-width: 1.5; stroke-linecap: square"/>
    <g clip-path="url(#p257df1d83e)">
     <use xlink:href="#mbdbe977569" x="1156.282077" y="191.457243" style="fill: #ff0000; stroke: #ff0000; stroke-linejoin: bevel"/>
    </g>
   </g>
   <g id="line2d_130">
    <path d="M 1302.851985 135.71638 
" clip-path="url(#p257df1d83e)" style="fill: none; stroke: #ff0000; stroke-width: 1.5; stroke-linecap: square"/>
    <g clip-path="url(#p257df1d83e)">
     <use xlink:href="#mbdbe977569" x="1302.851985" y="135.71638" style="fill: #ff0000; stroke: #ff0000; stroke-linejoin: bevel"/>
    </g>
   </g>
   <g id="line2d_131">
    <path d="M 1037.394027 312.717491 
" clip-path="url(#p257df1d83e)" style="fill: none; stroke: #ff0000; stroke-width: 1.5; stroke-linecap: square"/>
    <g clip-path="url(#p257df1d83e)">
     <use xlink:href="#mbdbe977569" x="1037.394027" y="312.717491" style="fill: #ff0000; stroke: #ff0000; stroke-linejoin: bevel"/>
    </g>
   </g>
   <g id="line2d_132">
    <path d="M 599.184244 807.034454 
" clip-path="url(#p257df1d83e)" style="fill: none; stroke: #ff0000; stroke-width: 1.5; stroke-linecap: square"/>
    <g clip-path="url(#p257df1d83e)">
     <use xlink:href="#mbdbe977569" x="599.184244" y="807.034454" style="fill: #ff0000; stroke: #ff0000; stroke-linejoin: bevel"/>
    </g>
   </g>
   <g id="line2d_133">
    <path d="M 726.089715 687.861733 
" clip-path="url(#p257df1d83e)" style="fill: none; stroke: #ff0000; stroke-width: 1.5; stroke-linecap: square"/>
    <g clip-path="url(#p257df1d83e)">
     <use xlink:href="#mbdbe977569" x="726.089715" y="687.861733" style="fill: #ff0000; stroke: #ff0000; stroke-linejoin: bevel"/>
    </g>
   </g>
   <g id="line2d_134">
    <path d="M 818.289135 531.382182 
" clip-path="url(#p257df1d83e)" style="fill: none; stroke: #ff0000; stroke-width: 1.5; stroke-linecap: square"/>
    <g clip-path="url(#p257df1d83e)">
     <use xlink:href="#mbdbe977569" x="818.289135" y="531.382182" style="fill: #ff0000; stroke: #ff0000; stroke-linejoin: bevel"/>
    </g>
   </g>
  </g>
 </g>
 <defs>
  <clipPath id="p257df1d83e">
   <rect x="0" y="0" width="1440" height="1440"/>
  </clipPath>
 </defs>
</svg>
