<?xml version="1.0" encoding="utf-8" standalone="no"?>
<!DOCTYPE svg PUBLIC "-//W3C//DTD SVG 1.1//EN"
  "http://www.w3.org/Graphics/SVG/1.1/DTD/svg11.dtd">
<svg xmlns:xlink="http://www.w3.org/1999/xlink" width="1440pt" height="1440pt" viewBox="0 0 1440 1440" xmlns="http://www.w3.org/2000/svg" version="1.1">
 <metadata>
  <rdf:RDF xmlns:dc="http://purl.org/dc/elements/1.1/" xmlns:cc="http://creativecommons.org/ns#" xmlns:rdf="http://www.w3.org/1999/02/22-rdf-syntax-ns#">
   <cc:Work>
    <dc:type rdf:resource="http://purl.org/dc/dcmitype/StillImage"/>
    <dc:date>2026-02-27T11:08:03.983664</dc:date>
    <dc:format>image/svg+xml</dc:format>
    <dc:creator>
     <cc:Agent>
      <dc:title>Matplotlib v3.7.3, https://matplotlib.org/</dc:title>
     </cc:Agent>
    </dc:creator>
   </cc:Work>
  </rdf:RDF>
 </metadata>
 <defs>
  <style type="text/css">*{stroke-linejoin: round; stroke-linecap: butt}</style>
 </defs>
 <g id="figure_1">
  <g id="patch_1">
   <path d="M 0 1440 
L 1440 1440 
L 1440 0 
L 0 0 
z
" style="fill: #ffffff"/>
  </g>
  <g id="axes_1">
   <g id="line2d_1">
    <path d="M 187.986898 907.815374 
L 169.110975 916.917343 
L 152.472199 920.899455 
L 137.790925 920.046146 
L 124.857423 914.784069 
L 113.671691 905.539881 
L 103.884175 892.740236 
L 95.355054 876.811789 
L 88.014418 858.323413 
L 81.512711 837.417326 
L 75.849934 814.804619 
L 70.746444 790.76973 
L 66.132329 765.881532 
L 48.095337 666.755391 
" clip-path="url(#p877a92d5fe)" style="fill: none; stroke: #7a7a7a; stroke-width: 3; stroke-linecap: square"/>
   </g>
   <g id="line2d_2">
    <path d="M 180.436529 859.745595 
L 179.597599 860.030032 
L 163.937574 871.407494 
L 156.876581 875.816261 
L 151.563358 877.807317 
L 146.250135 878.091753 
L 139.538696 876.242916 
L 137.441371 875.247388 
L 136.322798 875.531824 
L 132.128149 872.687459 
L 125.766263 867.852037 
L 119.054824 860.741123 
L 112.692939 851.92359 
L 107.309806 842.110529 
L 103.115156 831.728595 
L 99.479793 820.066696 
L 95.704609 804.422685 
L 69.627871 656.373457 
" clip-path="url(#p877a92d5fe)" style="fill: none; stroke: #7a7a7a; stroke-width: 3; stroke-linecap: square"/>
   </g>
   <g id="line2d_3">
    <path d="M 434.422557 729.758089 
L 433.933181 730.184744 
L 433.02434 730.753617 
L 187.986898 907.815374 
" clip-path="url(#p877a92d5fe)" style="fill: none; stroke: #7a7a7a; stroke-width: 3; stroke-linecap: square"/>
   </g>
   <g id="line2d_4">
    <path d="M 434.422557 675.999579 
L 433.933181 676.426234 
L 433.02434 676.995107 
L 180.436529 859.745595 
" clip-path="url(#p877a92d5fe)" style="fill: none; stroke: #7a7a7a; stroke-width: 3; stroke-linecap: square"/>
   </g>
   <g id="line2d_5">
    <path d="M 195.677089 956.738461 
L -1 1098.141436 
" clip-path="url(#p877a92d5fe)" style="fill: none; stroke: #7a7a7a; stroke-width: 3; stroke-linecap: square"/>
   </g>
   <g id="line2d_6">
    <path d="M 187.986898 907.815374 
L -1 1044.155129 
" clip-path="url(#p877a92d5fe)" style="fill: none; stroke: #7a7a7a; stroke-width: 3; stroke-linecap: square"/>
   </g>
   <g id="line2d_7">
    <path d="M 434.422557 784.938781 
L 433.933181 785.223217 
L 433.02434 785.934309 
L 195.677089 956.738461 
" clip-path="url(#p877a92d5fe)" style="fill: none; stroke: #7a7a7a; stroke-width: 3; stroke-linecap: square"/>
   </g>
   <g id="line2d_8">
    <path d="M 434.422557 729.758089 
L 433.933181 730.184744 
L 433.02434 730.753617 
L 187.986898 907.815374 
" clip-path="url(#p877a92d5fe)" style="fill: none; stroke: #7a7a7a; stroke-width: 3; stroke-linecap: square"/>
   </g>
   <g id="line2d_9">
    <path d="M 195.677089 956.738461 
L 187.3577 963.138284 
L 172.187051 979.777823 
L 159.39337 994.141869 
L 148.697014 1006.799295 
L 139.748428 1018.745631 
L 132.128149 1030.691966 
L 125.556531 1043.491611 
L 119.684022 1057.997876 
L 114.161066 1075.064069 
L 108.5682 1095.401283 
L 103.324889 1119.57839 
L 97.52229 1147.879828 
L 81.932176 1233.63745 
" clip-path="url(#p877a92d5fe)" style="fill: none; stroke: #7a7a7a; stroke-width: 3; stroke-linecap: square"/>
   </g>
   <g id="line2d_10">
    <path d="M 187.986898 907.815374 
L 179.66751 914.072978 
L 167.712759 924.881567 
L 157.016402 934.979065 
L 147.438619 945.076563 
L 138.839588 955.316279 
L 131.079486 966.267086 
L 123.878671 978.35564 
L 117.167232 992.150813 
L 110.735436 1007.794823 
L 104.373551 1026.140981 
L 97.941755 1047.189287 
L 91.300227 1071.793049 
L 84.309144 1100.094486 
L 76.688864 1132.520254 
L 68.299565 1169.781443 
L 59.001425 1212.020271 
L 48.444891 1264.356598 
" clip-path="url(#p877a92d5fe)" style="fill: none; stroke: #7a7a7a; stroke-width: 3; stroke-linecap: square"/>
   </g>
   <g id="line2d_11">
    <path d="M 203.367279 1005.519331 
L 433.02434 840.546128 
L 433.933181 839.977255 
L 434.422557 839.5506 
" clip-path="url(#p877a92d5fe)" style="fill: none; stroke: #7a7a7a; stroke-width: 3; stroke-linecap: square"/>
   </g>
   <g id="line2d_12">
    <path d="M 210.917649 1053.731327 
L 433.02434 894.020201 
L 433.933181 893.309109 
L 434.422557 893.024673 
" clip-path="url(#p877a92d5fe)" style="fill: none; stroke: #7a7a7a; stroke-width: 3; stroke-linecap: square"/>
   </g>
   <g id="line2d_13">
    <path d="M -1 1153.340982 
L 203.367279 1005.519331 
" clip-path="url(#p877a92d5fe)" style="fill: none; stroke: #7a7a7a; stroke-width: 3; stroke-linecap: square"/>
   </g>
   <g id="line2d_14">
    <path d="M -1 1206.791321 
L 146.040403 1100.521141 
L 147.718263 1099.098958 
L 210.917649 1053.731327 
" clip-path="url(#p877a92d5fe)" style="fill: none; stroke: #7a7a7a; stroke-width: 3; stroke-linecap: square"/>
   </g>
   <g id="line2d_15">
    <path d="M 195.677089 956.738461 
L 433.02434 785.934309 
L 433.933181 785.223217 
L 434.422557 784.938781 
" clip-path="url(#p877a92d5fe)" style="fill: none; stroke: #7a7a7a; stroke-width: 3; stroke-linecap: square"/>
   </g>
   <g id="line2d_16">
    <path d="M 203.367279 1005.519331 
L 433.02434 840.546128 
L 433.933181 839.977255 
L 434.422557 839.5506 
" clip-path="url(#p877a92d5fe)" style="fill: none; stroke: #7a7a7a; stroke-width: 3; stroke-linecap: square"/>
   </g>
   <g id="line2d_17">
    <path d="M -1 1098.141436 
L 195.677089 956.738461 
" clip-path="url(#p877a92d5fe)" style="fill: none; stroke: #7a7a7a; stroke-width: 3; stroke-linecap: square"/>
   </g>
   <g id="line2d_18">
    <path d="M -1 1153.340982 
L 203.367279 1005.519331 
" clip-path="url(#p877a92d5fe)" style="fill: none; stroke: #7a7a7a; stroke-width: 3; stroke-linecap: square"/>
   </g>
   <g id="line2d_19">
    <path d="M 187.986898 907.815374 
L -1 1044.155129 
" clip-path="url(#p877a92d5fe)" style="fill: none; stroke: #7a7a7a; stroke-width: 3; stroke-linecap: square"/>
   </g>
   <g id="line2d_20">
    <path d="M 180.436529 859.745595 
L 22.787618 974.942401 
L 19.292077 978.213421 
L -1 992.665501 
" clip-path="url(#p877a92d5fe)" style="fill: none; stroke: #7a7a7a; stroke-width: 3; stroke-linecap: square"/>
   </g>
   <g id="line2d_21">
    <path d="M 81.932176 1233.63745 
L 100.318723 1155.13296 
L 108.078825 1117.445116 
L 115.908837 1090.850298 
L 124.018493 1072.646358 
L 132.687435 1060.13115 
L 142.125397 1050.744744 
L 152.61202 1041.784992 
L 203.367279 1005.519331 
" clip-path="url(#p877a92d5fe)" style="fill: none; stroke: #7a7a7a; stroke-width: 3; stroke-linecap: square"/>
   </g>
   <g id="line2d_22">
    <path d="M 110.735436 1213.015799 
L 129.68127 1134.369091 
L 131.149397 1127.684832 
L 133.246722 1120.4317 
L 135.973244 1113.889659 
L 138.490034 1109.196456 
L 141.286467 1105.214344 
L 144.502365 1101.801106 
L 147.718263 1099.098958 
L 160.162389 1089.85477 
L 210.917649 1053.731327 
" clip-path="url(#p877a92d5fe)" style="fill: none; stroke: #7a7a7a; stroke-width: 3; stroke-linecap: square"/>
   </g>
   <g id="line2d_23">
    <path d="M 1011.955884 368.239225 
L 1145.835115 271.673014 
L 1157.859777 261.433297 
L 1168.626044 246.642596 
L 1178.064005 227.869784 
L 1186.033839 205.825951 
L 1192.325813 181.222188 
L 1196.800106 154.769589 
L 1199.386807 126.894806 
L 1199.876183 98.593368 
L 1198.128412 70.291931 
L 1186.000478 -1 
" clip-path="url(#p877a92d5fe)" style="fill: none; stroke: #7a7a7a; stroke-width: 3; stroke-linecap: square"/>
   </g>
   <g id="line2d_24">
    <path d="M 1019.436343 417.731186 
L 1153.315573 321.022756 
L 1165.130502 311.209695 
L 1176.316234 298.267832 
L 1186.732947 282.623821 
L 1196.380641 264.419881 
L 1205.049584 243.940449 
L 1212.809685 221.754398 
L 1219.521124 198.146163 
L 1224.974169 173.257965 
L 1229.30864 147.516456 
L 1232.244895 121.348293 
L 1233.782933 94.895693 
L 1233.782933 68.72753 
L 1232.314805 42.986022 
L 1224.930936 -1 
" clip-path="url(#p877a92d5fe)" style="fill: none; stroke: #7a7a7a; stroke-width: 3; stroke-linecap: square"/>
   </g>
   <g id="line2d_25">
    <path clip-path="url(#p877a92d5fe)" style="fill: none; stroke: #7a7a7a; stroke-width: 3; stroke-linecap: square"/>
   </g>
   <g id="line2d_26">
    <path clip-path="url(#p877a92d5fe)" style="fill: none; stroke: #7a7a7a; stroke-width: 3; stroke-linecap: square"/>
   </g>
   <g id="line2d_27">
    <path d="M 1403.736149 670.16863 
L 1296.283211 569.620307 
L 1279.993988 551.558586 
" clip-path="url(#p877a92d5fe)" style="fill: none; stroke: #7a7a7a; stroke-width: 3; stroke-linecap: square"/>
   </g>
   <g id="line2d_28">
    <path d="M 1413.663486 628.783111 
L 1347.318113 563.362703 
L 1302.784917 517.995072 
L 1295.444281 508.608666 
L 1289.641682 500.928879 
" clip-path="url(#p877a92d5fe)" style="fill: none; stroke: #7a7a7a; stroke-width: 3; stroke-linecap: square"/>
   </g>
   <g id="line2d_29">
    <path d="M 1244.828843 421.144424 
L 1201.414221 91.909109 
L 1197.708947 62.327707 
L 1187.362145 3.022685 
L 1186.62882 -1 
" clip-path="url(#p877a92d5fe)" style="fill: none; stroke: #7a7a7a; stroke-width: 3; stroke-linecap: square"/>
   </g>
   <g id="line2d_30">
    <path d="M 1266.57111 395.971789 
L 1264.963161 386.016509 
L 1264.124231 377.483413 
L 1263.704766 369.519189 
L 1263.774677 367.81257 
L 1220.90232 -1 
" clip-path="url(#p877a92d5fe)" style="fill: none; stroke: #7a7a7a; stroke-width: 3; stroke-linecap: square"/>
   </g>
   <g id="line2d_31">
    <path d="M 1216.864513 452.8591 
L 1210.083163 428.681993 
L 1202.952259 407.207033 
L 1195.40189 388.292002 
L 1187.362145 371.794682 
L 1178.833024 357.715072 
L 1169.814528 346.053173 
L 1160.166834 336.666767 
L 1149.820032 329.698071 
L 1138.913943 324.86265 
L 1127.238835 322.302721 
L 1114.794708 321.876066 
L 1101.511651 323.440467 
L 1087.389665 327.138142 
L 1072.428748 332.826873 
L 1056.48908 340.50666 
L 1039.57066 350.035285 
L 1021.673489 361.270529 
L 1011.955884 368.239225 
" clip-path="url(#p877a92d5fe)" style="fill: none; stroke: #7a7a7a; stroke-width: 3; stroke-linecap: square"/>
   </g>
   <g id="line2d_32">
    <path d="M 1244.828843 421.144424 
L 1237.488206 401.518302 
L 1229.937837 382.603271 
L 1222.107825 364.683768 
L 1213.998169 347.902011 
L 1205.469049 332.115782 
L 1196.520463 317.893954 
L 1187.152412 305.094309 
L 1177.155164 293.859065 
L 1166.59863 284.33044 
L 1155.342987 276.650653 
L 1143.388236 270.961922 
L 1130.594555 267.548683 
L 1117.031855 266.268719 
L 1102.490403 267.264247 
L 1087.040111 270.961922 
L 1070.611067 277.219526 
L 1053.063449 286.179278 
L 1034.397259 298.125613 
L 1014.542585 313.058533 
L 1004.82498 320.027228 
" clip-path="url(#p877a92d5fe)" style="fill: none; stroke: #7a7a7a; stroke-width: 3; stroke-linecap: square"/>
   </g>
   <g id="line2d_33">
    <path d="M 1004.82498 320.027228 
L 435.401308 729.046997 
L 434.842022 729.473652 
L 434.422557 729.758089 
" clip-path="url(#p877a92d5fe)" style="fill: none; stroke: #7a7a7a; stroke-width: 3; stroke-linecap: square"/>
   </g>
   <g id="line2d_34">
    <path d="M 997.554254 270.819704 
L 638.142702 530.510281 
L 435.401308 675.288488 
L 434.842022 675.715143 
L 434.422557 675.999579 
" clip-path="url(#p877a92d5fe)" style="fill: none; stroke: #7a7a7a; stroke-width: 3; stroke-linecap: square"/>
   </g>
   <g id="line2d_35">
    <path d="M 1289.641682 500.928879 
L 1283.839084 492.822437 
L 1276.917912 483.43603 
L 1270.276384 473.054096 
L 1265.102982 463.66769 
L 1261.817174 456.98343 
" clip-path="url(#p877a92d5fe)" style="fill: none; stroke: #7a7a7a; stroke-width: 3; stroke-linecap: square"/>
   </g>
   <g id="line2d_36">
    <path d="M 1297.821249 458.121177 
L 1293.137223 453.427974 
L 1287.474447 447.170369 
L 1282.510778 440.48611 
L 1279.434702 435.366252 
L 1276.218804 429.108648 
" clip-path="url(#p877a92d5fe)" style="fill: none; stroke: #7a7a7a; stroke-width: 3; stroke-linecap: square"/>
   </g>
   <g id="line2d_37">
    <path d="M 1294.675262 163.444904 
L 1146.604134 270.393049 
L 1011.955884 368.239225 
" clip-path="url(#p877a92d5fe)" style="fill: none; stroke: #7a7a7a; stroke-width: 3; stroke-linecap: square"/>
   </g>
   <g id="line2d_38">
    <path d="M 1286.355873 111.961887 
L 1163.592464 200.706092 
L 1004.82498 320.027228 
" clip-path="url(#p877a92d5fe)" style="fill: none; stroke: #7a7a7a; stroke-width: 3; stroke-linecap: square"/>
   </g>
   <g id="line2d_39">
    <path d="M 1185.061195 -1 
L 1194.702781 62.469926 
L 1198.82752 95.464566 
L 1197.289482 119.783892 
L 1193.024922 142.538817 
L 1185.963928 163.444904 
L 1175.96668 182.359935 
L 1162.963267 198.857255 
L 1146.883777 212.794646 
L 1004.82498 320.027228 
" clip-path="url(#p877a92d5fe)" style="fill: none; stroke: #7a7a7a; stroke-width: 3; stroke-linecap: square"/>
   </g>
   <g id="line2d_40">
    <path d="M 1160.497423 -1 
L 1168.066757 40.994966 
L 1168.486222 47.537006 
L 1170.443725 60.621088 
L 1171.212744 90.913581 
L 1168.066757 119.072801 
L 1161.704872 142.25438 
L 1152.127089 157.898391 
L 1149.330656 159.178355 
L 1147.512974 161.169411 
L 1135.977688 170.840254 
L 997.554254 270.819704 
" clip-path="url(#p877a92d5fe)" style="fill: none; stroke: #7a7a7a; stroke-width: 3; stroke-linecap: square"/>
   </g>
   <g id="line2d_41">
    <path d="M 1186.16064 -1 
L 1197.918679 66.878692 
L 1203.09208 88.780307 
L 1210.922093 109.117521 
L 1220.779519 127.605897 
L 1232.174984 143.534345 
L 1244.619111 156.33399 
L 1257.622524 165.293741 
L 1270.625938 169.844726 
L 1283.139975 169.418071 
L 1294.675262 163.444904 
" clip-path="url(#p877a92d5fe)" style="fill: none; stroke: #7a7a7a; stroke-width: 3; stroke-linecap: square"/>
   </g>
   <g id="line2d_42">
    <path d="M 1160.497423 -1 
L 1168.066757 40.994966 
L 1168.486222 47.537006 
L 1168.486222 49.101408 
L 1174.708285 84.087104 
L 1178.833024 107.55312 
L 1185.124998 129.454735 
L 1193.374476 149.64973 
L 1203.161991 167.85367 
L 1214.277813 183.782117 
L 1226.372385 197.292854 
L 1239.166066 208.101443 
L 1252.309301 215.923448 
L 1265.592358 220.616651 
L 1278.595772 221.896616 
L 1291.039899 219.336687 
L 1303.064561 214.785702 
" clip-path="url(#p877a92d5fe)" style="fill: none; stroke: #7a7a7a; stroke-width: 3; stroke-linecap: square"/>
   </g>
   <g id="line2d_43">
    <path d="M 48.095337 666.755391 
L 62.007591 752.370795 
L 68.299565 785.223217 
L 74.941093 815.089056 
L 82.002087 841.968311 
L 89.482545 866.0032 
L 97.312558 887.051505 
L 105.562035 905.539881 
L 114.161066 921.183892 
L 123.179563 934.267973 
L 132.477703 944.649908 
L 142.195307 952.614131 
L 152.192555 958.160644 
L 162.609268 961.147228 
L 173.305625 962.000538 
L 184.351535 960.436137 
L 195.677089 956.738461 
" clip-path="url(#p877a92d5fe)" style="fill: none; stroke: #7a7a7a; stroke-width: 3; stroke-linecap: square"/>
   </g>
   <g id="line2d_44">
    <path d="M 28.03093 681.261656 
L 36.699872 727.767033 
L 42.782114 760.903892 
L 48.584712 792.191913 
L 55.855438 822.342188 
L 63.475718 850.785844 
L 71.445552 877.096225 
L 79.76494 901.273333 
L 88.363972 923.317166 
L 97.382468 943.227725 
L 106.680608 960.862791 
L 116.328302 976.080147 
L 126.255639 989.022011 
L 136.46262 999.261727 
L 146.949243 1007.083732 
L 157.715511 1012.345808 
L 168.761421 1014.763519 
L 180.017064 1014.621301 
L 191.55235 1011.492499 
L 203.367279 1005.519331 
" clip-path="url(#p877a92d5fe)" style="fill: none; stroke: #7a7a7a; stroke-width: 3; stroke-linecap: square"/>
   </g>
   <g id="line2d_45">
    <path d="M 1286.355873 111.961887 
L 1280.693096 116.086217 
L 1267.340129 122.486039 
L 1253.84734 123.481567 
L 1240.634194 119.357237 
L 1228.190067 110.82414 
L 1216.794602 98.308932 
L 1207.076998 82.522703 
L 1199.316896 63.74989 
L 1187.020953 -1 
" clip-path="url(#p877a92d5fe)" style="fill: none; stroke: #7a7a7a; stroke-width: 3; stroke-linecap: square"/>
   </g>
   <g id="line2d_46">
    <path d="M 1278.805504 67.163129 
L 1278.106396 67.732002 
L 1277.127644 68.443093 
L 1273.142727 71.287459 
L 1272.163976 71.571896 
L 1269.297632 73.562951 
L 1264.194142 74.558479 
L 1262.865836 74.985134 
L 1261.257887 74.274043 
L 1256.154397 72.994078 
L 1252.798677 70.860804 
L 1251.889836 70.576368 
L 1251.470372 70.149713 
L 1249.023493 68.585312 
L 1244.758932 64.460982 
L 1241.19348 59.198905 
L 1237.628028 51.803555 
L 1234.901506 43.98155 
L 1233.5732 41.137184 
L 1230.497124 25.77761 
L 1225.727856 -1 
" clip-path="url(#p877a92d5fe)" style="fill: none; stroke: #7a7a7a; stroke-width: 3; stroke-linecap: square"/>
   </g>
   <g id="line2d_47">
    <path d="M 1185.985003 -1 
L 1186.523215 2.169376 
L 1194.003673 48.532534 
L 1199.107163 84.513759 
L 1200.715112 119.783892 
L 1200.016004 150.645258 
L 1197.499214 177.666731 
L 1193.514297 201.417184 
L 1188.480718 222.465489 
L 1182.74803 241.238302 
L 1176.665789 258.446714 
L 1170.723368 274.375161 
L 1165.200413 289.876953 
L 1160.516388 305.236527 
L 1157.090757 321.022756 
L 1155.203165 337.804513 
L 1155.412898 356.292889 
L 1157.929687 376.772321 
L 1163.24291 399.811682 
L 1171.70212 426.122064 
" clip-path="url(#p877a92d5fe)" style="fill: none; stroke: #7a7a7a; stroke-width: 3; stroke-linecap: square"/>
   </g>
   <g id="line2d_48">
    <path d="M 1160.309231 -1 
L 1168.066757 40.994966 
L 1168.486222 47.537006 
L 1168.695954 61.474398 
L 1167.577381 68.300875 
L 1167.157916 69.865276 
L 1165.200413 103.002135 
L 1165.549967 112.388542 
L 1164.850859 123.339349 
L 1163.802197 129.88139 
L 1162.893356 133.010192 
L 1162.683623 135.427903 
L 1158.768617 160.316101 
L 1153.665127 182.928808 
L 1147.792618 203.834895 
L 1141.430733 223.461017 
L 1128.49723 260.864424 
L 1122.694631 279.637237 
L 1117.661052 298.978923 
L 1113.815957 319.600573 
L 1111.508899 341.928843 
L 1111.019524 366.532605 
L 1112.697383 393.696297 
L 1116.822122 423.98879 
L 1123.813205 457.978958 
" clip-path="url(#p877a92d5fe)" style="fill: none; stroke: #7a7a7a; stroke-width: 3; stroke-linecap: square"/>
   </g>
   <g id="line2d_49">
    <path d="M 1286.355873 111.961887 
L 1163.592464 200.706092 
L 1004.82498 320.027228 
" clip-path="url(#p877a92d5fe)" style="fill: none; stroke: #7a7a7a; stroke-width: 3; stroke-linecap: square"/>
   </g>
   <g id="line2d_50">
    <path d="M 1278.805504 67.163129 
L 1135.977688 170.840254 
L 997.554254 270.819704 
" clip-path="url(#p877a92d5fe)" style="fill: none; stroke: #7a7a7a; stroke-width: 3; stroke-linecap: square"/>
   </g>
   <g id="line2d_51">
    <path d="M 434.422557 784.938781 
L 434.772111 784.654344 
L 435.401308 784.227689 
L 1011.955884 368.239225 
" clip-path="url(#p877a92d5fe)" style="fill: none; stroke: #7a7a7a; stroke-width: 3; stroke-linecap: square"/>
   </g>
   <g id="line2d_52">
    <path d="M 434.422557 839.5506 
L 434.772111 839.266163 
L 435.401308 838.839508 
L 1019.436343 417.731186 
" clip-path="url(#p877a92d5fe)" style="fill: none; stroke: #7a7a7a; stroke-width: 3; stroke-linecap: square"/>
   </g>
   <g id="line2d_53">
    <path d="M 434.422557 839.5506 
L 434.772111 839.266163 
L 435.401308 838.839508 
L 1019.436343 417.731186 
" clip-path="url(#p877a92d5fe)" style="fill: none; stroke: #7a7a7a; stroke-width: 3; stroke-linecap: square"/>
   </g>
   <g id="line2d_54">
    <path d="M 434.422557 893.024673 
L 434.772111 892.740236 
L 435.401308 892.313581 
L 484.129154 856.90123 
L 524.887165 827.888701 
L 1026.707068 466.369837 
" clip-path="url(#p877a92d5fe)" style="fill: none; stroke: #7a7a7a; stroke-width: 3; stroke-linecap: square"/>
   </g>
   <g id="line2d_55">
    <path d="M 1413.663486 628.783111 
L 1347.318113 563.362703 
L 1302.784917 517.995072 
L 1295.444281 508.608666 
L 1289.641682 500.928879 
" clip-path="url(#p877a92d5fe)" style="fill: none; stroke: #7a7a7a; stroke-width: 3; stroke-linecap: square"/>
   </g>
   <g id="line2d_56">
    <path d="M 1424.499664 583.557698 
L 1382.343436 540.892215 
L 1338.229706 498.226731 
L 1297.821249 458.121177 
" clip-path="url(#p877a92d5fe)" style="fill: none; stroke: #7a7a7a; stroke-width: 3; stroke-linecap: square"/>
   </g>
   <g id="line2d_57">
    <path d="M 1261.817174 456.98343 
L 1244.828843 421.144424 
" clip-path="url(#p877a92d5fe)" style="fill: none; stroke: #7a7a7a; stroke-width: 3; stroke-linecap: square"/>
   </g>
   <g id="line2d_58">
    <path d="M 1276.218804 429.108648 
L 1271.255135 416.166785 
L 1269.297632 409.624744 
L 1267.479951 401.944957 
L 1266.57111 395.971789 
" clip-path="url(#p877a92d5fe)" style="fill: none; stroke: #7a7a7a; stroke-width: 3; stroke-linecap: square"/>
   </g>
   <g id="line2d_59">
    <path d="M 1019.436343 417.731186 
L 1286.216052 224.8832 
L 1303.064561 214.785702 
" clip-path="url(#p877a92d5fe)" style="fill: none; stroke: #7a7a7a; stroke-width: 3; stroke-linecap: square"/>
   </g>
   <g id="line2d_60">
    <path d="M 1026.707068 466.369837 
L 1053.97229 446.743714 
L 1293.137223 270.108612 
L 1296.492943 266.97981 
L 1309.845911 257.593404 
" clip-path="url(#p877a92d5fe)" style="fill: none; stroke: #7a7a7a; stroke-width: 3; stroke-linecap: square"/>
   </g>
   <g id="line2d_61">
    <path clip-path="url(#p877a92d5fe)" style="fill: none; stroke: #7a7a7a; stroke-width: 3; stroke-linecap: square"/>
   </g>
   <g id="line2d_62">
    <path clip-path="url(#p877a92d5fe)" style="fill: none; stroke: #7a7a7a; stroke-width: 3; stroke-linecap: square"/>
   </g>
   <g id="line2d_63">
    <path d="M 1279.993988 551.558586 
L 1271.185224 542.456616 
L 1262.37646 531.079154 
L 1253.987161 519.701691 
L 1247.695187 509.88863 
L 1240.424461 498.226731 
" clip-path="url(#p877a92d5fe)" style="fill: none; stroke: #7a7a7a; stroke-width: 3; stroke-linecap: square"/>
   </g>
   <g id="line2d_64">
    <path d="M 1289.641682 500.928879 
L 1283.839084 492.822437 
L 1276.917912 483.43603 
L 1270.276384 473.054096 
L 1265.102982 463.66769 
L 1261.817174 456.98343 
" clip-path="url(#p877a92d5fe)" style="fill: none; stroke: #7a7a7a; stroke-width: 3; stroke-linecap: square"/>
   </g>
   <g id="line2d_65">
    <path d="M 1011.955884 368.239225 
L 435.401308 784.227689 
L 434.772111 784.654344 
L 434.422557 784.938781 
" clip-path="url(#p877a92d5fe)" style="fill: none; stroke: #7a7a7a; stroke-width: 3; stroke-linecap: square"/>
   </g>
   <g id="line2d_66">
    <path d="M 1004.82498 320.027228 
L 435.401308 729.046997 
L 434.842022 729.473652 
L 434.422557 729.758089 
" clip-path="url(#p877a92d5fe)" style="fill: none; stroke: #7a7a7a; stroke-width: 3; stroke-linecap: square"/>
   </g>
   <g id="line2d_67">
    <path d="M 1279.993988 551.558586 
L 1296.283211 569.620307 
L 1403.736149 670.16863 
" clip-path="url(#p877a92d5fe)" style="fill: none; stroke: #7a7a7a; stroke-width: 3; stroke-linecap: square"/>
   </g>
   <g id="line2d_68">
    <path d="M 1270.346294 598.348399 
L 1361.579921 685.670422 
L 1392.83006 715.962916 
" clip-path="url(#p877a92d5fe)" style="fill: none; stroke: #7a7a7a; stroke-width: 3; stroke-linecap: square"/>
   </g>
   <g id="line2d_69">
    <path d="M 1011.955884 368.239225 
L 1146.604134 270.393049 
L 1294.675262 163.444904 
" clip-path="url(#p877a92d5fe)" style="fill: none; stroke: #7a7a7a; stroke-width: 3; stroke-linecap: square"/>
   </g>
   <g id="line2d_70">
    <path d="M 1019.436343 417.731186 
L 1286.216052 224.8832 
L 1303.064561 214.785702 
" clip-path="url(#p877a92d5fe)" style="fill: none; stroke: #7a7a7a; stroke-width: 3; stroke-linecap: square"/>
   </g>
   <g id="line2d_71">
    <path d="M 1019.436343 417.731186 
L 1043.415756 400.380556 
L 1060.543908 390.283058 
L 1076.413665 383.172144 
L 1091.094938 378.905596 
L 1104.79746 377.625631 
L 1117.52123 379.047814 
L 1129.406071 383.172144 
L 1140.661714 389.998621 
L 1151.427981 399.527246 
L 1161.704872 411.473581 
L 1171.70212 426.122064 
" clip-path="url(#p877a92d5fe)" style="fill: none; stroke: #7a7a7a; stroke-width: 3; stroke-linecap: square"/>
   </g>
   <g id="line2d_72">
    <path d="M 1026.707068 466.369837 
L 1061.732392 441.054983 
L 1072.149105 433.232978 
L 1077.042863 430.530831 
L 1081.866709 428.397556 
L 1086.550735 428.11312 
L 1092.003779 429.677521 
L 1092.213512 429.819739 
L 1097.526734 433.232978 
L 1098.645308 434.228506 
L 1103.818709 438.779491 
L 1107.873536 442.619384 
L 1112.208008 446.743714 
L 1115.284084 449.730298 
L 1123.813205 457.978958 
" clip-path="url(#p877a92d5fe)" style="fill: none; stroke: #7a7a7a; stroke-width: 3; stroke-linecap: square"/>
   </g>
   <g id="line2d_73">
    <path d="M 1240.424461 498.226731 
L 1233.223646 485.569304 
L 1225.88301 471.06304 
L 1216.864513 452.8591 
" clip-path="url(#p877a92d5fe)" style="fill: none; stroke: #7a7a7a; stroke-width: 3; stroke-linecap: square"/>
   </g>
   <g id="line2d_74">
    <path d="M 1261.817174 456.98343 
L 1244.828843 421.144424 
" clip-path="url(#p877a92d5fe)" style="fill: none; stroke: #7a7a7a; stroke-width: 3; stroke-linecap: square"/>
   </g>
   <g id="line2d_75">
    <path d="M 1171.70212 426.122064 
L 1231.266143 508.608666 
L 1279.993988 551.558586 
" clip-path="url(#p877a92d5fe)" style="fill: none; stroke: #7a7a7a; stroke-width: 3; stroke-linecap: square"/>
   </g>
   <g id="line2d_76">
    <path d="M 1123.813205 457.978958 
L 1209.174322 539.61225 
L 1270.346294 598.348399 
" clip-path="url(#p877a92d5fe)" style="fill: none; stroke: #7a7a7a; stroke-width: 3; stroke-linecap: square"/>
   </g>
   <g id="line2d_77">
    <path d="M 1244.828843 421.144424 
L 1239.166066 397.393972 
L 1236.159901 372.505773 
L 1235.810347 347.333138 
L 1237.76785 322.444939 
L 1242.03241 298.836705 
L 1248.394295 276.93509 
L 1256.713683 257.735622 
L 1266.780842 241.949393 
L 1278.525861 230.145276 
L 1303.064561 214.785702 
" clip-path="url(#p877a92d5fe)" style="fill: none; stroke: #7a7a7a; stroke-width: 3; stroke-linecap: square"/>
   </g>
   <g id="line2d_78">
    <path d="M 1266.57111 395.971789 
L 1264.963161 386.016509 
L 1264.124231 377.483413 
L 1263.704766 369.519189 
L 1263.774677 367.81257 
L 1263.495033 365.537077 
L 1264.124231 337.377858 
L 1268.179059 312.489659 
L 1275.449785 291.299136 
L 1285.726676 274.659597 
L 1309.845911 257.593404 
" clip-path="url(#p877a92d5fe)" style="fill: none; stroke: #7a7a7a; stroke-width: 3; stroke-linecap: square"/>
   </g>
   <g id="line2d_79">
    <path d="M 1244.828843 421.144424 
L 1238.257226 392.985205 
L 1234.062576 364.541549 
L 1232.244895 336.38233 
L 1232.66436 308.649766 
L 1235.111238 282.054948 
L 1239.585531 256.882313 
L 1245.877506 233.558515 
L 1253.987161 212.794646 
L 1263.634855 194.732925 
L 1274.820587 179.942224 
L 1287.334625 168.70698 
L 1294.675262 163.444904 
" clip-path="url(#p877a92d5fe)" style="fill: none; stroke: #7a7a7a; stroke-width: 3; stroke-linecap: square"/>
   </g>
   <g id="line2d_80">
    <path d="M 1266.57111 395.971789 
L 1262.026906 369.519189 
L 1260.488868 342.071061 
L 1261.53753 314.90737 
L 1264.963161 289.023643 
L 1270.346294 265.557628 
L 1277.477199 245.50485 
L 1286.07623 230.003058 
L 1295.793835 220.047778 
L 1303.064561 214.785702 
" clip-path="url(#p877a92d5fe)" style="fill: none; stroke: #7a7a7a; stroke-width: 3; stroke-linecap: square"/>
   </g>
   <g id="line2d_81">
    <path d="M 758.985611 494.945694 
L 744.96675 510.732365 
" clip-path="url(#p877a92d5fe)" style="fill: none; stroke-dasharray: 32,8,5,8; stroke-dashoffset: 0; stroke: #1e90ff; stroke-width: 5"/>
   </g>
   <g id="line2d_82">
    <path d="M 974.379567 503.33435 
L 981.777723 504.61665 
" clip-path="url(#p877a92d5fe)" style="fill: none; stroke-dasharray: 32,8,5,8; stroke-dashoffset: 0; stroke: #1e90ff; stroke-width: 5"/>
   </g>
   <g id="line2d_83">
    <path d="M 1325.674636 626.159395 
L 1335.133762 619.521775 
" clip-path="url(#p877a92d5fe)" style="fill: none; stroke-dasharray: 32,8,5,8; stroke-dashoffset: 0; stroke: #1e90ff; stroke-width: 5"/>
   </g>
   <g id="line2d_84">
    <path d="M 253.198456 904.509858 
L 139.82165 1013.345164 
" clip-path="url(#p877a92d5fe)" style="fill: none; stroke-dasharray: 32,8,5,8; stroke-dashoffset: 0; stroke: #1e90ff; stroke-width: 5"/>
   </g>
   <g id="line2d_85">
    <path d="M 1281.359093 71.109139 
L 871.265366 344.62369 
" clip-path="url(#p877a92d5fe)" style="fill: none; stroke-dasharray: 32,8,5,8; stroke-dashoffset: 0; stroke: #1e90ff; stroke-width: 5"/>
   </g>
   <g id="line2d_86">
    <path d="M 1304.172278 196.951136 
L 1296.926882 191.450637 
" clip-path="url(#p877a92d5fe)" style="fill: none; stroke-dasharray: 32,8,5,8; stroke-dashoffset: 0; stroke: #1e90ff; stroke-width: 5"/>
   </g>
   <g id="line2d_87">
    <path d="M 676.965842 709.415658 
L 864.776939 564.034924 
" clip-path="url(#p877a92d5fe)" style="fill: none; stroke-dasharray: 32,8,5,8; stroke-dashoffset: 0; stroke: #1e90ff; stroke-width: 5"/>
   </g>
   <g id="line2d_88">
    <path d="M 758.985611 494.945694 
" clip-path="url(#p877a92d5fe)" style="fill: none; stroke: #0000ff; stroke-width: 1.5; stroke-linecap: square"/>
    <defs>
     <path id="m5044eea3db" d="M 0 10 
C 2.652031 10 5.195799 8.946337 7.071068 7.071068 
C 8.946337 5.195799 10 2.652031 10 0 
C 10 -2.652031 8.946337 -5.195799 7.071068 -7.071068 
C 5.195799 -8.946337 2.652031 -10 0 -10 
C -2.652031 -10 -5.195799 -8.946337 -7.071068 -7.071068 
C -8.946337 -5.195799 -10 -2.652031 -10 0 
C -10 2.652031 -8.946337 5.195799 -7.071068 7.071068 
C -5.195799 8.946337 -2.652031 10 0 10 
z
" style="stroke: #0000ff"/>
    </defs>
    <g clip-path="url(#p877a92d5fe)">
     <use xlink:href="#m5044eea3db" x="758.985611" y="494.945694" style="fill: #0000ff; stroke: #0000ff"/>
    </g>
   </g>
   <g id="line2d_89">
    <path d="M 974.379567 503.33435 
" clip-path="url(#p877a92d5fe)" style="fill: none; stroke: #0000ff; stroke-width: 1.5; stroke-linecap: square"/>
    <g clip-path="url(#p877a92d5fe)">
     <use xlink:href="#m5044eea3db" x="974.379567" y="503.33435" style="fill: #0000ff; stroke: #0000ff"/>
    </g>
   </g>
   <g id="line2d_90">
    <path d="M 1325.674636 626.159395 
" clip-path="url(#p877a92d5fe)" style="fill: none; stroke: #0000ff; stroke-width: 1.5; stroke-linecap: square"/>
    <g clip-path="url(#p877a92d5fe)">
     <use xlink:href="#m5044eea3db" x="1325.674636" y="626.159395" style="fill: #0000ff; stroke: #0000ff"/>
    </g>
   </g>
   <g id="line2d_91">
    <path d="M 253.198456 904.509858 
" clip-path="url(#p877a92d5fe)" style="fill: none; stroke: #0000ff; stroke-width: 1.5; stroke-linecap: square"/>
    <g clip-path="url(#p877a92d5fe)">
     <use xlink:href="#m5044eea3db" x="253.198456" y="904.509858" style="fill: #0000ff; stroke: #0000ff"/>
    </g>
   </g>
   <g id="line2d_92">
    <path d="M 1281.359093 71.109139 
" clip-path="url(#p877a92d5fe)" style="fill: none; stroke: #0000ff; stroke-width: 1.5; stroke-linecap: square"/>
    <g clip-path="url(#p877a92d5fe)">
     <use xlink:href="#m5044eea3db" x="1281.359093" y="71.109139" style="fill: #0000ff; stroke: #0000ff"/>
    </g>
   </g>
   <g id="line2d_93">
    <path d="M 1304.172278 196.951136 
" clip-path="url(#p877a92d5fe)" style="fill: none; stroke: #0000ff; stroke-width: 1.5; stroke-linecap: square"/>
    <g clip-path="url(#p877a92d5fe)">
     <use xlink:href="#m5044eea3db" x="1304.172278" y="196.951136" style="fill: #0000ff; stroke: #0000ff"/>
    </g>
   </g>
   <g id="line2d_94">
    <path d="M 676.965842 709.415658 
" clip-path="url(#p877a92d5fe)" style="fill: none; stroke: #0000ff; stroke-width: 1.5; stroke-linecap: square"/>
    <g clip-path="url(#p877a92d5fe)">
     <use xlink:href="#m5044eea3db" x="676.965842" y="709.415658" style="fill: #0000ff; stroke: #0000ff"/>
    </g>
   </g>
   <g id="line2d_95">
    <path d="M 744.96675 510.732365 
" clip-path="url(#p877a92d5fe)" style="fill: none; stroke: #ff0000; stroke-width: 1.5; stroke-linecap: square"/>
    <defs>
     <path id="mae45a938ee" d="M 0 -10 
L -2.24514 -3.09017 
L -9.510565 -3.09017 
L -3.632713 1.18034 
L -5.877853 8.09017 
L -0 3.81966 
L 5.877853 8.09017 
L 3.632713 1.18034 
L 9.510565 -3.09017 
L 2.24514 -3.09017 
z
" style="stroke: #ff0000; stroke-linejoin: bevel"/>
    </defs>
    <g clip-path="url(#p877a92d5fe)">
     <use xlink:href="#mae45a938ee" x="744.96675" y="510.732365" style="fill: #ff0000; stroke: #ff0000; stroke-linejoin: bevel"/>
    </g>
   </g>
   <g id="line2d_96">
    <path d="M 981.777723 504.61665 
" clip-path="url(#p877a92d5fe)" style="fill: none; stroke: #ff0000; stroke-width: 1.5; stroke-linecap: square"/>
    <g clip-path="url(#p877a92d5fe)">
     <use xlink:href="#mae45a938ee" x="981.777723" y="504.61665" style="fill: #ff0000; stroke: #ff0000; stroke-linejoin: bevel"/>
    </g>
   </g>
   <g id="line2d_97">
    <path d="M 1335.133762 619.521775 
" clip-path="url(#p877a92d5fe)" style="fill: none; stroke: #ff0000; stroke-width: 1.5; stroke-linecap: square"/>
    <g clip-path="url(#p877a92d5fe)">
     <use xlink:href="#mae45a938ee" x="1335.133762" y="619.521775" style="fill: #ff0000; stroke: #ff0000; stroke-linejoin: bevel"/>
    </g>
   </g>
   <g id="line2d_98">
    <path d="M 139.82165 1013.345164 
" clip-path="url(#p877a92d5fe)" style="fill: none; stroke: #ff0000; stroke-width: 1.5; stroke-linecap: square"/>
    <g clip-path="url(#p877a92d5fe)">
     <use xlink:href="#mae45a938ee" x="139.82165" y="1013.345164" style="fill: #ff0000; stroke: #ff0000; stroke-linejoin: bevel"/>
    </g>
   </g>
   <g id="line2d_99">
    <path d="M 871.265366 344.62369 
" clip-path="url(#p877a92d5fe)" style="fill: none; stroke: #ff0000; stroke-width: 1.5; stroke-linecap: square"/>
    <g clip-path="url(#p877a92d5fe)">
     <use xlink:href="#mae45a938ee" x="871.265366" y="344.62369" style="fill: #ff0000; stroke: #ff0000; stroke-linejoin: bevel"/>
    </g>
   </g>
   <g id="line2d_100">
    <path d="M 1296.926882 191.450637 
" clip-path="url(#p877a92d5fe)" style="fill: none; stroke: #ff0000; stroke-width: 1.5; stroke-linecap: square"/>
    <g clip-path="url(#p877a92d5fe)">
     <use xlink:href="#mae45a938ee" x="1296.926882" y="191.450637" style="fill: #ff0000; stroke: #ff0000; stroke-linejoin: bevel"/>
    </g>
   </g>
   <g id="line2d_101">
    <path d="M 864.776939 564.034924 
" clip-path="url(#p877a92d5fe)" style="fill: none; stroke: #ff0000; stroke-width: 1.5; stroke-linecap: square"/>
    <g clip-path="url(#p877a92d5fe)">
     <use xlink:href="#mae45a938ee" x="864.776939" y="564.034924" style="fill: #ff0000; stroke: #ff0000; stroke-linejoin: bevel"/>
    </g>
   </g>
  </g>
 </g>
 <defs>
  <clipPath id="p877a92d5fe">
   <rect x="0" y="0" width="1440" height="1440"/>
  </clipPath>
 </defs>
</svg>
