<?xml version="1.0" encoding="utf-8" standalone="no"?>
<!DOCTYPE svg PUBLIC "-//W3C//DTD SVG 1.1//EN"
  "http://www.w3.org/Graphics/SVG/1.1/DTD/svg11.dtd">
<svg xmlns:xlink="http://www.w3.org/1999/xlink" width="1440pt" height="1440pt" viewBox="0 0 1440 1440" xmlns="http://www.w3.org/2000/svg" version="1.1">
 <metadata>
  <rdf:RDF xmlns:dc="http://purl.org/dc/elements/1.1/" xmlns:cc="http://creativecommons.org/ns#" xmlns:rdf="http://www.w3.org/1999/02/22-rdf-syntax-ns#">
   <cc:Work>
    <dc:type rdf:resource="http://purl.org/dc/dcmitype/StillImage"/>
    <dc:date>2026-02-27T11:07:43.157846</dc:date>
    <dc:format>image/svg+xml</dc:format>
    <dc:creator>
     <cc:Agent>
      <dc:title>Matplotlib v3.7.3, https://matplotlib.org/</dc:title>
     </cc:Agent>
    </dc:creator>
   </cc:Work>
  </rdf:RDF>
 </metadata>
 <defs>
  <style type="text/css">*{stroke-linejoin: round; stroke-linecap: butt}</style>
 </defs>
 <g id="figure_1">
  <g id="patch_1">
   <path d="M 0 1440 
L 1440 1440 
L 1440 0 
L 0 0 
z
" style="fill: #ffffff"/>
  </g>
  <g id="axes_1">
   <g id="line2d_1">
    <path d="M 567.6521 754.389978 
L 391.028975 1239.466143 
" clip-path="url(#p8628dc1ff2)" style="fill: none; stroke: #7a7a7a; stroke-width: 3; stroke-linecap: square"/>
   </g>
   <g id="line2d_2">
    <path d="M 535.088699 754.389978 
L 524.61509 780.944641 
L 519.949574 793.809633 
L 498.811928 854.423536 
L 488.623963 878.669098 
L 347.801536 1228.085574 
" clip-path="url(#p8628dc1ff2)" style="fill: none; stroke: #7a7a7a; stroke-width: 3; stroke-linecap: square"/>
   </g>
   <g id="line2d_3">
    <path d="M 449.871612 1254.88764 
L 631.826756 754.389978 
" clip-path="url(#p8628dc1ff2)" style="fill: none; stroke: #7a7a7a; stroke-width: 3; stroke-linecap: square"/>
   </g>
   <g id="line2d_4">
    <path d="M 481.006793 1264.536384 
L 604.1193 907.862733 
L 660.105498 754.389978 
" clip-path="url(#p8628dc1ff2)" style="fill: none; stroke: #7a7a7a; stroke-width: 3; stroke-linecap: square"/>
   </g>
   <g id="line2d_5">
    <path d="M 599.929857 754.389978 
L 420.259864 1247.135658 
" clip-path="url(#p8628dc1ff2)" style="fill: none; stroke: #7a7a7a; stroke-width: 3; stroke-linecap: square"/>
   </g>
   <g id="line2d_6">
    <path d="M 567.6521 754.389978 
L 391.028975 1239.466143 
" clip-path="url(#p8628dc1ff2)" style="fill: none; stroke: #7a7a7a; stroke-width: 3; stroke-linecap: square"/>
   </g>
   <g id="line2d_7">
    <path d="M 1441 676.466115 
L 1059.149982 575.022304 
" clip-path="url(#p8628dc1ff2)" style="fill: none; stroke: #7a7a7a; stroke-width: 3; stroke-linecap: square"/>
   </g>
   <g id="line2d_8">
    <path d="M 1441 649.488728 
L 1058.864338 549.374789 
" clip-path="url(#p8628dc1ff2)" style="fill: none; stroke: #7a7a7a; stroke-width: 3; stroke-linecap: square"/>
   </g>
   <g id="line2d_9">
    <path d="M 420.259864 1247.135658 
L 599.929857 754.389978 
" clip-path="url(#p8628dc1ff2)" style="fill: none; stroke: #7a7a7a; stroke-width: 3; stroke-linecap: square"/>
   </g>
   <g id="line2d_10">
    <path d="M 449.871612 1254.88764 
L 631.826756 754.389978 
" clip-path="url(#p8628dc1ff2)" style="fill: none; stroke: #7a7a7a; stroke-width: 3; stroke-linecap: square"/>
   </g>
   <g id="line2d_11">
    <path d="M 1441 702.838383 
L 1059.340411 601.412031 
" clip-path="url(#p8628dc1ff2)" style="fill: none; stroke: #7a7a7a; stroke-width: 3; stroke-linecap: square"/>
   </g>
   <g id="line2d_12">
    <path d="M 1441 676.466115 
L 1059.149982 575.022304 
" clip-path="url(#p8628dc1ff2)" style="fill: none; stroke: #7a7a7a; stroke-width: 3; stroke-linecap: square"/>
   </g>
   <g id="line2d_13">
    <path d="M 1441 761.88284 
L 1059.911699 660.211641 
" clip-path="url(#p8628dc1ff2)" style="fill: none; stroke: #7a7a7a; stroke-width: 3; stroke-linecap: square"/>
   </g>
   <g id="line2d_14">
    <path d="M 1441 730.504417 
L 1059.626055 628.626437 
" clip-path="url(#p8628dc1ff2)" style="fill: none; stroke: #7a7a7a; stroke-width: 3; stroke-linecap: square"/>
   </g>
   <g id="line2d_15">
    <path d="M 1441 730.504417 
L 1059.626055 628.626437 
" clip-path="url(#p8628dc1ff2)" style="fill: none; stroke: #7a7a7a; stroke-width: 3; stroke-linecap: square"/>
   </g>
   <g id="line2d_16">
    <path d="M 1441 702.838383 
L 1059.340411 601.412031 
" clip-path="url(#p8628dc1ff2)" style="fill: none; stroke: #7a7a7a; stroke-width: 3; stroke-linecap: square"/>
   </g>
   <g id="line2d_17">
    <path d="M 563.462656 441.836652 
L 193.934706 342.132966 
" clip-path="url(#p8628dc1ff2)" style="fill: none; stroke: #7a7a7a; stroke-width: 3; stroke-linecap: square"/>
   </g>
   <g id="line2d_18">
    <path d="M 571.270255 418.168366 
L 489.956968 396.809181 
L 485.767524 395.407227 
L 193.934706 314.91856 
" clip-path="url(#p8628dc1ff2)" style="fill: none; stroke: #7a7a7a; stroke-width: 3; stroke-linecap: square"/>
   </g>
   <g id="line2d_19">
    <path d="M 616.68763 617.493271 
L 568.223388 752.905556 
L 567.842529 753.977639 
L 567.6521 754.389978 
" clip-path="url(#p8628dc1ff2)" style="fill: none; stroke: #7a7a7a; stroke-width: 3; stroke-linecap: square"/>
   </g>
   <g id="line2d_20">
    <path d="M 586.314166 609.411417 
L 535.659987 752.905556 
L 535.279128 753.977639 
L 535.088699 754.389978 
" clip-path="url(#p8628dc1ff2)" style="fill: none; stroke: #7a7a7a; stroke-width: 3; stroke-linecap: square"/>
   </g>
   <g id="line2d_21">
    <path d="M 818.256987 564.054074 
L 546.990527 491.31739 
" clip-path="url(#p8628dc1ff2)" style="fill: none; stroke: #7a7a7a; stroke-width: 3; stroke-linecap: square"/>
   </g>
   <g id="line2d_22">
    <path d="M 827.778449 538.571494 
L 555.178984 466.741957 
" clip-path="url(#p8628dc1ff2)" style="fill: none; stroke: #7a7a7a; stroke-width: 3; stroke-linecap: square"/>
   </g>
   <g id="line2d_23">
    <path d="M 808.164237 590.773673 
L 778.838133 582.609351 
L 571.36547 525.376631 
L 563.653086 523.06753 
L 538.706854 516.305162 
" clip-path="url(#p8628dc1ff2)" style="fill: none; stroke: #7a7a7a; stroke-width: 3; stroke-linecap: square"/>
   </g>
   <g id="line2d_24">
    <path d="M 818.256987 564.054074 
L 546.990527 491.31739 
" clip-path="url(#p8628dc1ff2)" style="fill: none; stroke: #7a7a7a; stroke-width: 3; stroke-linecap: square"/>
   </g>
   <g id="line2d_25">
    <path d="M 555.178984 466.741957 
L 193.934706 369.842179 
" clip-path="url(#p8628dc1ff2)" style="fill: none; stroke: #7a7a7a; stroke-width: 3; stroke-linecap: square"/>
   </g>
   <g id="line2d_26">
    <path d="M 563.462656 441.836652 
L 193.934706 342.132966 
" clip-path="url(#p8628dc1ff2)" style="fill: none; stroke: #7a7a7a; stroke-width: 3; stroke-linecap: square"/>
   </g>
   <g id="line2d_27">
    <path d="M 1050.86631 599.10293 
L 1049.818949 598.855526 
L 1047.15294 598.113315 
L 1046.296008 597.94838 
L 827.778449 538.571494 
" clip-path="url(#p8628dc1ff2)" style="fill: none; stroke: #7a7a7a; stroke-width: 3; stroke-linecap: square"/>
   </g>
   <g id="line2d_28">
    <path d="M 1050.86631 572.878139 
L 1049.818949 572.630735 
L 1047.057725 571.888524 
L 1046.296008 571.641121 
L 836.538194 515.150612 
" clip-path="url(#p8628dc1ff2)" style="fill: none; stroke: #7a7a7a; stroke-width: 3; stroke-linecap: square"/>
   </g>
   <g id="line2d_29">
    <path d="M 733.135114 379.243519 
L 645.252017 625.822528 
" clip-path="url(#p8628dc1ff2)" style="fill: none; stroke: #7a7a7a; stroke-width: 3; stroke-linecap: square"/>
   </g>
   <g id="line2d_30">
    <path d="M 704.570727 371.326601 
L 616.68763 617.493271 
" clip-path="url(#p8628dc1ff2)" style="fill: none; stroke: #7a7a7a; stroke-width: 3; stroke-linecap: square"/>
   </g>
   <g id="line2d_31">
    <path d="M 836.538194 515.150612 
L 563.462656 441.836652 
" clip-path="url(#p8628dc1ff2)" style="fill: none; stroke: #7a7a7a; stroke-width: 3; stroke-linecap: square"/>
   </g>
   <g id="line2d_32">
    <path d="M 843.774506 492.88428 
L 807.40252 482.823197 
L 611.165182 428.559321 
L 571.270255 418.168366 
" clip-path="url(#p8628dc1ff2)" style="fill: none; stroke: #7a7a7a; stroke-width: 3; stroke-linecap: square"/>
   </g>
   <g id="line2d_33">
    <path d="M 599.929857 754.389978 
L 600.120286 753.977639 
L 600.501145 752.823088 
L 645.252017 625.822528 
" clip-path="url(#p8628dc1ff2)" style="fill: none; stroke: #7a7a7a; stroke-width: 3; stroke-linecap: square"/>
   </g>
   <g id="line2d_34">
    <path d="M 631.826756 754.389978 
L 632.017185 753.977639 
L 632.398043 752.823088 
L 675.149409 633.162171 
" clip-path="url(#p8628dc1ff2)" style="fill: none; stroke: #7a7a7a; stroke-width: 3; stroke-linecap: square"/>
   </g>
   <g id="line2d_35">
    <path d="M 546.990527 491.31739 
L 193.934706 396.314374 
" clip-path="url(#p8628dc1ff2)" style="fill: none; stroke: #7a7a7a; stroke-width: 3; stroke-linecap: square"/>
   </g>
   <g id="line2d_36">
    <path d="M 555.178984 466.741957 
L 193.934706 369.842179 
" clip-path="url(#p8628dc1ff2)" style="fill: none; stroke: #7a7a7a; stroke-width: 3; stroke-linecap: square"/>
   </g>
   <g id="line2d_37">
    <path d="M 733.135114 379.243519 
L 849.963456 51.763504 
" clip-path="url(#p8628dc1ff2)" style="fill: none; stroke: #7a7a7a; stroke-width: 3; stroke-linecap: square"/>
   </g>
   <g id="line2d_38">
    <path d="M 762.651647 387.490309 
L 879.765633 59.185614 
" clip-path="url(#p8628dc1ff2)" style="fill: none; stroke: #7a7a7a; stroke-width: 3; stroke-linecap: square"/>
   </g>
   <g id="line2d_39">
    <path d="M 1050.86631 657.820072 
L 1049.818949 657.490201 
L 1047.15294 656.830457 
L 1046.391223 656.583054 
L 883.098145 611.390647 
L 877.956555 609.658821 
L 842.63193 600.422416 
L 808.164237 590.773673 
" clip-path="url(#p8628dc1ff2)" style="fill: none; stroke: #7a7a7a; stroke-width: 3; stroke-linecap: square"/>
   </g>
   <g id="line2d_40">
    <path d="M 1050.86631 626.317336 
L 1049.818949 626.069932 
L 1047.15294 625.327721 
L 1046.391223 625.162785 
L 818.256987 564.054074 
" clip-path="url(#p8628dc1ff2)" style="fill: none; stroke: #7a7a7a; stroke-width: 3; stroke-linecap: square"/>
   </g>
   <g id="line2d_41">
    <path d="M 827.778449 538.571494 
L 555.178984 466.741957 
" clip-path="url(#p8628dc1ff2)" style="fill: none; stroke: #7a7a7a; stroke-width: 3; stroke-linecap: square"/>
   </g>
   <g id="line2d_42">
    <path d="M 836.538194 515.150612 
L 563.462656 441.836652 
" clip-path="url(#p8628dc1ff2)" style="fill: none; stroke: #7a7a7a; stroke-width: 3; stroke-linecap: square"/>
   </g>
   <g id="line2d_43">
    <path d="M 538.706854 516.305162 
L 453.204123 493.131684 
L 193.934706 425.755413 
" clip-path="url(#p8628dc1ff2)" style="fill: none; stroke: #7a7a7a; stroke-width: 3; stroke-linecap: square"/>
   </g>
   <g id="line2d_44">
    <path d="M 546.990527 491.31739 
L 193.934706 396.314374 
" clip-path="url(#p8628dc1ff2)" style="fill: none; stroke: #7a7a7a; stroke-width: 3; stroke-linecap: square"/>
   </g>
   <g id="line2d_45">
    <path d="M 1050.86631 572.878139 
L 1049.818949 572.630735 
L 1047.057725 571.888524 
L 1046.296008 571.641121 
L 836.538194 515.150612 
" clip-path="url(#p8628dc1ff2)" style="fill: none; stroke: #7a7a7a; stroke-width: 3; stroke-linecap: square"/>
   </g>
   <g id="line2d_46">
    <path d="M 1050.86631 547.230623 
L 1049.914164 546.98322 
L 1047.057725 546.241009 
L 1046.200794 546.076073 
L 915.566331 511.604492 
L 843.774506 492.88428 
" clip-path="url(#p8628dc1ff2)" style="fill: none; stroke: #7a7a7a; stroke-width: 3; stroke-linecap: square"/>
   </g>
   <g id="line2d_47">
    <path d="M 704.570727 371.326601 
L 616.68763 617.493271 
" clip-path="url(#p8628dc1ff2)" style="fill: none; stroke: #7a7a7a; stroke-width: 3; stroke-linecap: square"/>
   </g>
   <g id="line2d_48">
    <path d="M 672.388185 362.74994 
L 586.314166 609.411417 
" clip-path="url(#p8628dc1ff2)" style="fill: none; stroke: #7a7a7a; stroke-width: 3; stroke-linecap: square"/>
   </g>
   <g id="line2d_49">
    <path d="M 645.252017 625.822528 
L 733.135114 379.243519 
" clip-path="url(#p8628dc1ff2)" style="fill: none; stroke: #7a7a7a; stroke-width: 3; stroke-linecap: square"/>
   </g>
   <g id="line2d_50">
    <path d="M 675.149409 633.162171 
L 762.651647 387.490309 
" clip-path="url(#p8628dc1ff2)" style="fill: none; stroke: #7a7a7a; stroke-width: 3; stroke-linecap: square"/>
   </g>
   <g id="line2d_51">
    <path d="M 1059.626055 628.626437 
L 1050.86631 626.317336 
" clip-path="url(#p8628dc1ff2)" style="fill: none; stroke: #7a7a7a; stroke-width: 3; stroke-linecap: square"/>
   </g>
   <g id="line2d_52">
    <path d="M 1059.340411 601.412031 
L 1050.86631 599.10293 
" clip-path="url(#p8628dc1ff2)" style="fill: none; stroke: #7a7a7a; stroke-width: 3; stroke-linecap: square"/>
   </g>
   <g id="line2d_53">
    <path d="M 1050.86631 626.317336 
L 1049.818949 626.069932 
L 1047.15294 625.327721 
L 1046.391223 625.162785 
L 818.256987 564.054074 
" clip-path="url(#p8628dc1ff2)" style="fill: none; stroke: #7a7a7a; stroke-width: 3; stroke-linecap: square"/>
   </g>
   <g id="line2d_54">
    <path d="M 1050.86631 599.10293 
L 1049.818949 598.855526 
L 1047.15294 598.113315 
L 1046.296008 597.94838 
L 827.778449 538.571494 
" clip-path="url(#p8628dc1ff2)" style="fill: none; stroke: #7a7a7a; stroke-width: 3; stroke-linecap: square"/>
   </g>
   <g id="line2d_55">
    <path d="M 675.149409 633.162171 
L 762.651647 387.490309 
" clip-path="url(#p8628dc1ff2)" style="fill: none; stroke: #7a7a7a; stroke-width: 3; stroke-linecap: square"/>
   </g>
   <g id="line2d_56">
    <path d="M 700.381284 639.924539 
L 711.616609 609.411417 
L 773.410899 430.785954 
L 776.743411 420.807339 
L 786.455303 394.170208 
" clip-path="url(#p8628dc1ff2)" style="fill: none; stroke: #7a7a7a; stroke-width: 3; stroke-linecap: square"/>
   </g>
   <g id="line2d_57">
    <path d="M 762.651647 387.490309 
L 879.765633 59.185614 
" clip-path="url(#p8628dc1ff2)" style="fill: none; stroke: #7a7a7a; stroke-width: 3; stroke-linecap: square"/>
   </g>
   <g id="line2d_58">
    <path d="M 786.455303 394.170208 
L 795.024619 370.336986 
L 906.140084 62.48433 
" clip-path="url(#p8628dc1ff2)" style="fill: none; stroke: #7a7a7a; stroke-width: 3; stroke-linecap: square"/>
   </g>
   <g id="line2d_59">
    <path d="M 645.252017 625.822528 
L 600.501145 752.823088 
L 600.120286 753.977639 
L 599.929857 754.389978 
" clip-path="url(#p8628dc1ff2)" style="fill: none; stroke: #7a7a7a; stroke-width: 3; stroke-linecap: square"/>
   </g>
   <g id="line2d_60">
    <path d="M 616.68763 617.493271 
L 568.223388 752.905556 
L 567.842529 753.977639 
L 567.6521 754.389978 
" clip-path="url(#p8628dc1ff2)" style="fill: none; stroke: #7a7a7a; stroke-width: 3; stroke-linecap: square"/>
   </g>
   <g id="line2d_61">
    <path d="M 1059.911699 660.211641 
L 1050.86631 657.820072 
" clip-path="url(#p8628dc1ff2)" style="fill: none; stroke: #7a7a7a; stroke-width: 3; stroke-linecap: square"/>
   </g>
   <g id="line2d_62">
    <path d="M 1059.626055 628.626437 
L 1050.86631 626.317336 
" clip-path="url(#p8628dc1ff2)" style="fill: none; stroke: #7a7a7a; stroke-width: 3; stroke-linecap: square"/>
   </g>
   <g id="line2d_63">
    <path d="M 836.538194 515.150612 
L 807.878593 506.491483 
L 785.503157 497.502482 
L 768.745383 488.101142 
L 757.033984 478.204994 
L 749.702458 467.731572 
L 746.084303 456.598406 
L 745.703444 444.723029 
L 747.798166 431.940505 
L 751.701965 418.250834 
L 762.651647 387.490309 
" clip-path="url(#p8628dc1ff2)" style="fill: none; stroke: #7a7a7a; stroke-width: 3; stroke-linecap: square"/>
   </g>
   <g id="line2d_64">
    <path d="M 843.774506 492.88428 
L 839.394633 491.729729 
L 807.40252 482.823197 
L 798.357131 479.771884 
L 792.453824 477.21538 
L 787.502664 474.246535 
L 782.837147 470.370544 
L 781.504142 468.886122 
L 777.409914 465.422471 
L 772.744397 456.515938 
L 770.364032 445.630175 
L 771.411392 441.506781 
L 772.173109 436.146367 
L 773.410899 430.785954 
L 776.743411 420.807339 
L 786.455303 394.170208 
" clip-path="url(#p8628dc1ff2)" style="fill: none; stroke: #7a7a7a; stroke-width: 3; stroke-linecap: square"/>
   </g>
   <g id="line2d_65">
    <path d="M 645.252017 625.822528 
L 648.870173 611.308179 
L 649.346246 596.628893 
L 646.680237 582.279479 
L 640.872145 568.754744 
L 632.017185 556.219624 
L 620.115357 545.251394 
L 605.261876 536.179925 
L 587.456741 529.417558 
L 538.706854 516.305162 
" clip-path="url(#p8628dc1ff2)" style="fill: none; stroke: #7a7a7a; stroke-width: 3; stroke-linecap: square"/>
   </g>
   <g id="line2d_66">
    <path d="M 675.149409 633.162171 
L 680.195784 614.359491 
L 681.814432 596.628893 
L 680.290998 580.135314 
L 675.720697 564.878753 
L 668.293956 550.941679 
L 658.296421 538.489026 
L 645.823305 527.520796 
L 631.065039 518.119456 
L 614.307265 510.449942 
L 595.740413 504.429785 
L 546.990527 491.31739 
" clip-path="url(#p8628dc1ff2)" style="fill: none; stroke: #7a7a7a; stroke-width: 3; stroke-linecap: square"/>
   </g>
   <g id="line2d_67">
    <path d="M 631.826756 754.389978 
L 632.017185 753.977639 
L 632.398043 752.823088 
L 675.149409 633.162171 
" clip-path="url(#p8628dc1ff2)" style="fill: none; stroke: #7a7a7a; stroke-width: 3; stroke-linecap: square"/>
   </g>
   <g id="line2d_68">
    <path d="M 660.105498 754.389978 
L 660.200713 753.977639 
L 660.676786 752.823088 
L 690.764607 666.314265 
L 700.381284 639.924539 
" clip-path="url(#p8628dc1ff2)" style="fill: none; stroke: #7a7a7a; stroke-width: 3; stroke-linecap: square"/>
   </g>
   <g id="line2d_69">
    <path d="M 1059.149982 575.022304 
L 1050.86631 572.878139 
" clip-path="url(#p8628dc1ff2)" style="fill: none; stroke: #7a7a7a; stroke-width: 3; stroke-linecap: square"/>
   </g>
   <g id="line2d_70">
    <path d="M 1058.864338 549.374789 
L 1050.86631 547.230623 
" clip-path="url(#p8628dc1ff2)" style="fill: none; stroke: #7a7a7a; stroke-width: 3; stroke-linecap: square"/>
   </g>
   <g id="line2d_71">
    <path d="M 808.164237 590.773673 
L 778.838133 582.609351 
L 774.934333 581.702204 
L 755.129692 576.259323 
L 738.657562 573.372947 
L 721.804574 573.702818 
L 705.142015 576.919066 
L 689.241173 582.691819 
L 674.76855 590.773673 
L 662.20022 600.917224 
L 652.10747 612.710133 
L 645.252017 625.822528 
" clip-path="url(#p8628dc1ff2)" style="fill: none; stroke: #7a7a7a; stroke-width: 3; stroke-linecap: square"/>
   </g>
   <g id="line2d_72">
    <path d="M 818.256987 564.054074 
L 765.127227 549.539725 
L 746.274732 546.158541 
L 727.327022 545.663733 
L 708.760171 547.725431 
L 690.859822 552.261165 
L 674.006833 558.941065 
L 658.48685 567.600194 
L 644.68073 577.991149 
L 632.874116 589.948994 
L 623.447869 603.226325 
L 616.68763 617.493271 
" clip-path="url(#p8628dc1ff2)" style="fill: none; stroke: #7a7a7a; stroke-width: 3; stroke-linecap: square"/>
   </g>
   <g id="line2d_73">
    <path d="M 821.303855 44.671265 
L 704.570727 371.326601 
" clip-path="url(#p8628dc1ff2)" style="fill: none; stroke: #7a7a7a; stroke-width: 3; stroke-linecap: square"/>
   </g>
   <g id="line2d_74">
    <path d="M 795.595907 38.321237 
L 672.388185 362.74994 
" clip-path="url(#p8628dc1ff2)" style="fill: none; stroke: #7a7a7a; stroke-width: 3; stroke-linecap: square"/>
   </g>
   <g id="line2d_75">
    <path d="M 849.963456 51.763504 
L 733.135114 379.243519 
" clip-path="url(#p8628dc1ff2)" style="fill: none; stroke: #7a7a7a; stroke-width: 3; stroke-linecap: square"/>
   </g>
   <g id="line2d_76">
    <path d="M 821.303855 44.671265 
L 704.570727 371.326601 
" clip-path="url(#p8628dc1ff2)" style="fill: none; stroke: #7a7a7a; stroke-width: 3; stroke-linecap: square"/>
   </g>
   <g id="line2d_77">
    <path d="M 704.570727 371.326601 
L 699.619567 385.428611 
L 694.668406 398.953346 
L 689.050744 411.653402 
L 682.38572 423.198908 
L 674.102048 433.177523 
L 663.818869 441.259377 
L 650.86968 447.114598 
L 634.873623 450.495781 
L 615.354626 450.990589 
L 591.646185 448.18668 
L 563.462656 441.836652 
" clip-path="url(#p8628dc1ff2)" style="fill: none; stroke: #7a7a7a; stroke-width: 3; stroke-linecap: square"/>
   </g>
   <g id="line2d_78">
    <path d="M 672.388185 362.74994 
L 660.010284 397.386456 
L 656.582557 405.303374 
L 653.154831 410.828723 
L 648.298885 416.106669 
L 642.586008 420.559935 
L 634.778409 424.600862 
L 626.97081 427.157367 
L 618.687138 428.559321 
L 611.165182 428.559321 
L 571.270255 418.168366 
" clip-path="url(#p8628dc1ff2)" style="fill: none; stroke: #7a7a7a; stroke-width: 3; stroke-linecap: square"/>
   </g>
   <g id="line2d_79">
    <path d="M 1059.340411 601.412031 
L 1050.86631 599.10293 
" clip-path="url(#p8628dc1ff2)" style="fill: none; stroke: #7a7a7a; stroke-width: 3; stroke-linecap: square"/>
   </g>
   <g id="line2d_80">
    <path d="M 1059.149982 575.022304 
L 1050.86631 572.878139 
" clip-path="url(#p8628dc1ff2)" style="fill: none; stroke: #7a7a7a; stroke-width: 3; stroke-linecap: square"/>
   </g>
   <g id="line2d_81">
    <path d="M 909.608525 541.004801 
L 831.834903 517.685372 
" clip-path="url(#p8628dc1ff2)" style="fill: none; stroke-dasharray: 32,8,5,8; stroke-dashoffset: 0; stroke: #1e90ff; stroke-width: 5"/>
   </g>
   <g id="line2d_82">
    <path d="M 1276.028204 623.523534 
L 1270.652623 625.436242 
" clip-path="url(#p8628dc1ff2)" style="fill: none; stroke-dasharray: 32,8,5,8; stroke-dashoffset: 0; stroke: #1e90ff; stroke-width: 5"/>
   </g>
   <g id="line2d_83">
    <path d="M 560.842546 665.195895 
L 589.741962 622.38195 
" clip-path="url(#p8628dc1ff2)" style="fill: none; stroke-dasharray: 32,8,5,8; stroke-dashoffset: 0; stroke: #1e90ff; stroke-width: 5"/>
   </g>
   <g id="line2d_84">
    <path d="M 508.360599 838.004492 
L 373.066804 1192.596312 
" clip-path="url(#p8628dc1ff2)" style="fill: none; stroke-dasharray: 32,8,5,8; stroke-dashoffset: 0; stroke: #1e90ff; stroke-width: 5"/>
   </g>
   <g id="line2d_85">
    <path d="M 1172.194636 588.736418 
L 1170.547674 588.119821 
" clip-path="url(#p8628dc1ff2)" style="fill: none; stroke-dasharray: 32,8,5,8; stroke-dashoffset: 0; stroke: #1e90ff; stroke-width: 5"/>
   </g>
   <g id="line2d_86">
    <path d="M 948.419932 541.401939 
L 937.979391 543.113309 
" clip-path="url(#p8628dc1ff2)" style="fill: none; stroke-dasharray: 32,8,5,8; stroke-dashoffset: 0; stroke: #1e90ff; stroke-width: 5"/>
   </g>
   <g id="line2d_87">
    <path d="M 526.843301 782.644192 
L 540.009698 768.380931 
" clip-path="url(#p8628dc1ff2)" style="fill: none; stroke-dasharray: 32,8,5,8; stroke-dashoffset: 0; stroke: #1e90ff; stroke-width: 5"/>
   </g>
   <g id="line2d_88">
    <path d="M 604.694796 563.640184 
L 482.866396 970.514858 
" clip-path="url(#p8628dc1ff2)" style="fill: none; stroke-dasharray: 32,8,5,8; stroke-dashoffset: 0; stroke: #1e90ff; stroke-width: 5"/>
   </g>
   <g id="line2d_89">
    <path d="M 373.672937 388.052121 
L 190.429245 386.848122 
" clip-path="url(#p8628dc1ff2)" style="fill: none; stroke-dasharray: 32,8,5,8; stroke-dashoffset: 0; stroke: #1e90ff; stroke-width: 5"/>
   </g>
   <g id="line2d_90">
    <path d="M 810.454037 202.40976 
L 852.940598 41.233948 
" clip-path="url(#p8628dc1ff2)" style="fill: none; stroke-dasharray: 32,8,5,8; stroke-dashoffset: 0; stroke: #1e90ff; stroke-width: 5"/>
   </g>
   <g id="line2d_91">
    <path d="M 842.705491 514.388468 
L 716.441801 355.100197 
" clip-path="url(#p8628dc1ff2)" style="fill: none; stroke-dasharray: 32,8,5,8; stroke-dashoffset: 0; stroke: #1e90ff; stroke-width: 5"/>
   </g>
   <g id="line2d_92">
    <path d="M 909.608525 541.004801 
" clip-path="url(#p8628dc1ff2)" style="fill: none; stroke: #0000ff; stroke-width: 1.5; stroke-linecap: square"/>
    <defs>
     <path id="m9ac28f0813" d="M 0 10 
C 2.652031 10 5.195799 8.946337 7.071068 7.071068 
C 8.946337 5.195799 10 2.652031 10 0 
C 10 -2.652031 8.946337 -5.195799 7.071068 -7.071068 
C 5.195799 -8.946337 2.652031 -10 0 -10 
C -2.652031 -10 -5.195799 -8.946337 -7.071068 -7.071068 
C -8.946337 -5.195799 -10 -2.652031 -10 0 
C -10 2.652031 -8.946337 5.195799 -7.071068 7.071068 
C -5.195799 8.946337 -2.652031 10 0 10 
z
" style="stroke: #0000ff"/>
    </defs>
    <g clip-path="url(#p8628dc1ff2)">
     <use xlink:href="#m9ac28f0813" x="909.608525" y="541.004801" style="fill: #0000ff; stroke: #0000ff"/>
    </g>
   </g>
   <g id="line2d_93">
    <path d="M 1276.028204 623.523534 
" clip-path="url(#p8628dc1ff2)" style="fill: none; stroke: #0000ff; stroke-width: 1.5; stroke-linecap: square"/>
    <g clip-path="url(#p8628dc1ff2)">
     <use xlink:href="#m9ac28f0813" x="1276.028204" y="623.523534" style="fill: #0000ff; stroke: #0000ff"/>
    </g>
   </g>
   <g id="line2d_94">
    <path d="M 560.842546 665.195895 
" clip-path="url(#p8628dc1ff2)" style="fill: none; stroke: #0000ff; stroke-width: 1.5; stroke-linecap: square"/>
    <g clip-path="url(#p8628dc1ff2)">
     <use xlink:href="#m9ac28f0813" x="560.842546" y="665.195895" style="fill: #0000ff; stroke: #0000ff"/>
    </g>
   </g>
   <g id="line2d_95">
    <path d="M 508.360599 838.004492 
" clip-path="url(#p8628dc1ff2)" style="fill: none; stroke: #0000ff; stroke-width: 1.5; stroke-linecap: square"/>
    <g clip-path="url(#p8628dc1ff2)">
     <use xlink:href="#m9ac28f0813" x="508.360599" y="838.004492" style="fill: #0000ff; stroke: #0000ff"/>
    </g>
   </g>
   <g id="line2d_96">
    <path d="M 1172.194636 588.736418 
" clip-path="url(#p8628dc1ff2)" style="fill: none; stroke: #0000ff; stroke-width: 1.5; stroke-linecap: square"/>
    <g clip-path="url(#p8628dc1ff2)">
     <use xlink:href="#m9ac28f0813" x="1172.194636" y="588.736418" style="fill: #0000ff; stroke: #0000ff"/>
    </g>
   </g>
   <g id="line2d_97">
    <path d="M 948.419932 541.401939 
" clip-path="url(#p8628dc1ff2)" style="fill: none; stroke: #0000ff; stroke-width: 1.5; stroke-linecap: square"/>
    <g clip-path="url(#p8628dc1ff2)">
     <use xlink:href="#m9ac28f0813" x="948.419932" y="541.401939" style="fill: #0000ff; stroke: #0000ff"/>
    </g>
   </g>
   <g id="line2d_98">
    <path d="M 526.843301 782.644192 
" clip-path="url(#p8628dc1ff2)" style="fill: none; stroke: #0000ff; stroke-width: 1.5; stroke-linecap: square"/>
    <g clip-path="url(#p8628dc1ff2)">
     <use xlink:href="#m9ac28f0813" x="526.843301" y="782.644192" style="fill: #0000ff; stroke: #0000ff"/>
    </g>
   </g>
   <g id="line2d_99">
    <path d="M 604.694796 563.640184 
" clip-path="url(#p8628dc1ff2)" style="fill: none; stroke: #0000ff; stroke-width: 1.5; stroke-linecap: square"/>
    <g clip-path="url(#p8628dc1ff2)">
     <use xlink:href="#m9ac28f0813" x="604.694796" y="563.640184" style="fill: #0000ff; stroke: #0000ff"/>
    </g>
   </g>
   <g id="line2d_100">
    <path d="M 373.672937 388.052121 
" clip-path="url(#p8628dc1ff2)" style="fill: none; stroke: #0000ff; stroke-width: 1.5; stroke-linecap: square"/>
    <g clip-path="url(#p8628dc1ff2)">
     <use xlink:href="#m9ac28f0813" x="373.672937" y="388.052121" style="fill: #0000ff; stroke: #0000ff"/>
    </g>
   </g>
   <g id="line2d_101">
    <path d="M 810.454037 202.40976 
" clip-path="url(#p8628dc1ff2)" style="fill: none; stroke: #0000ff; stroke-width: 1.5; stroke-linecap: square"/>
    <g clip-path="url(#p8628dc1ff2)">
     <use xlink:href="#m9ac28f0813" x="810.454037" y="202.40976" style="fill: #0000ff; stroke: #0000ff"/>
    </g>
   </g>
   <g id="line2d_102">
    <path d="M 842.705491 514.388468 
" clip-path="url(#p8628dc1ff2)" style="fill: none; stroke: #0000ff; stroke-width: 1.5; stroke-linecap: square"/>
    <g clip-path="url(#p8628dc1ff2)">
     <use xlink:href="#m9ac28f0813" x="842.705491" y="514.388468" style="fill: #0000ff; stroke: #0000ff"/>
    </g>
   </g>
   <g id="line2d_103">
    <path d="M 831.834903 517.685372 
" clip-path="url(#p8628dc1ff2)" style="fill: none; stroke: #ff0000; stroke-width: 1.5; stroke-linecap: square"/>
    <defs>
     <path id="m96f7cc1e5e" d="M 0 -10 
L -2.24514 -3.09017 
L -9.510565 -3.09017 
L -3.632713 1.18034 
L -5.877853 8.09017 
L -0 3.81966 
L 5.877853 8.09017 
L 3.632713 1.18034 
L 9.510565 -3.09017 
L 2.24514 -3.09017 
z
" style="stroke: #ff0000; stroke-linejoin: bevel"/>
    </defs>
    <g clip-path="url(#p8628dc1ff2)">
     <use xlink:href="#m96f7cc1e5e" x="831.834903" y="517.685372" style="fill: #ff0000; stroke: #ff0000; stroke-linejoin: bevel"/>
    </g>
   </g>
   <g id="line2d_104">
    <path d="M 1270.652623 625.436242 
" clip-path="url(#p8628dc1ff2)" style="fill: none; stroke: #ff0000; stroke-width: 1.5; stroke-linecap: square"/>
    <g clip-path="url(#p8628dc1ff2)">
     <use xlink:href="#m96f7cc1e5e" x="1270.652623" y="625.436242" style="fill: #ff0000; stroke: #ff0000; stroke-linejoin: bevel"/>
    </g>
   </g>
   <g id="line2d_105">
    <path d="M 589.741962 622.38195 
" clip-path="url(#p8628dc1ff2)" style="fill: none; stroke: #ff0000; stroke-width: 1.5; stroke-linecap: square"/>
    <g clip-path="url(#p8628dc1ff2)">
     <use xlink:href="#m96f7cc1e5e" x="589.741962" y="622.38195" style="fill: #ff0000; stroke: #ff0000; stroke-linejoin: bevel"/>
    </g>
   </g>
   <g id="line2d_106">
    <path d="M 373.066804 1192.596312 
" clip-path="url(#p8628dc1ff2)" style="fill: none; stroke: #ff0000; stroke-width: 1.5; stroke-linecap: square"/>
    <g clip-path="url(#p8628dc1ff2)">
     <use xlink:href="#m96f7cc1e5e" x="373.066804" y="1192.596312" style="fill: #ff0000; stroke: #ff0000; stroke-linejoin: bevel"/>
    </g>
   </g>
   <g id="line2d_107">
    <path d="M 1170.547674 588.119821 
" clip-path="url(#p8628dc1ff2)" style="fill: none; stroke: #ff0000; stroke-width: 1.5; stroke-linecap: square"/>
    <g clip-path="url(#p8628dc1ff2)">
     <use xlink:href="#m96f7cc1e5e" x="1170.547674" y="588.119821" style="fill: #ff0000; stroke: #ff0000; stroke-linejoin: bevel"/>
    </g>
   </g>
   <g id="line2d_108">
    <path d="M 937.979391 543.113309 
" clip-path="url(#p8628dc1ff2)" style="fill: none; stroke: #ff0000; stroke-width: 1.5; stroke-linecap: square"/>
    <g clip-path="url(#p8628dc1ff2)">
     <use xlink:href="#m96f7cc1e5e" x="937.979391" y="543.113309" style="fill: #ff0000; stroke: #ff0000; stroke-linejoin: bevel"/>
    </g>
   </g>
   <g id="line2d_109">
    <path d="M 540.009698 768.380931 
" clip-path="url(#p8628dc1ff2)" style="fill: none; stroke: #ff0000; stroke-width: 1.5; stroke-linecap: square"/>
    <g clip-path="url(#p8628dc1ff2)">
     <use xlink:href="#m96f7cc1e5e" x="540.009698" y="768.380931" style="fill: #ff0000; stroke: #ff0000; stroke-linejoin: bevel"/>
    </g>
   </g>
   <g id="line2d_110">
    <path d="M 482.866396 970.514858 
" clip-path="url(#p8628dc1ff2)" style="fill: none; stroke: #ff0000; stroke-width: 1.5; stroke-linecap: square"/>
    <g clip-path="url(#p8628dc1ff2)">
     <use xlink:href="#m96f7cc1e5e" x="482.866396" y="970.514858" style="fill: #ff0000; stroke: #ff0000; stroke-linejoin: bevel"/>
    </g>
   </g>
   <g id="line2d_111">
    <path d="M 190.429245 386.848122 
" clip-path="url(#p8628dc1ff2)" style="fill: none; stroke: #ff0000; stroke-width: 1.5; stroke-linecap: square"/>
    <g clip-path="url(#p8628dc1ff2)">
     <use xlink:href="#m96f7cc1e5e" x="190.429245" y="386.848122" style="fill: #ff0000; stroke: #ff0000; stroke-linejoin: bevel"/>
    </g>
   </g>
   <g id="line2d_112">
    <path d="M 852.940598 41.233948 
" clip-path="url(#p8628dc1ff2)" style="fill: none; stroke: #ff0000; stroke-width: 1.5; stroke-linecap: square"/>
    <g clip-path="url(#p8628dc1ff2)">
     <use xlink:href="#m96f7cc1e5e" x="852.940598" y="41.233948" style="fill: #ff0000; stroke: #ff0000; stroke-linejoin: bevel"/>
    </g>
   </g>
   <g id="line2d_113">
    <path d="M 716.441801 355.100197 
" clip-path="url(#p8628dc1ff2)" style="fill: none; stroke: #ff0000; stroke-width: 1.5; stroke-linecap: square"/>
    <g clip-path="url(#p8628dc1ff2)">
     <use xlink:href="#m96f7cc1e5e" x="716.441801" y="355.100197" style="fill: #ff0000; stroke: #ff0000; stroke-linejoin: bevel"/>
    </g>
   </g>
  </g>
 </g>
 <defs>
  <clipPath id="p8628dc1ff2">
   <rect x="0" y="0" width="1440" height="1440"/>
  </clipPath>
 </defs>
</svg>
