<?xml version="1.0" encoding="utf-8" standalone="no"?>
<!DOCTYPE svg PUBLIC "-//W3C//DTD SVG 1.1//EN"
  "http://www.w3.org/Graphics/SVG/1.1/DTD/svg11.dtd">
<svg xmlns:xlink="http://www.w3.org/1999/xlink" width="1440pt" height="1440pt" viewBox="0 0 1440 1440" xmlns="http://www.w3.org/2000/svg" version="1.1">
 <metadata>
  <rdf:RDF xmlns:dc="http://purl.org/dc/elements/1.1/" xmlns:cc="http://creativecommons.org/ns#" xmlns:rdf="http://www.w3.org/1999/02/22-rdf-syntax-ns#">
   <cc:Work>
    <dc:type rdf:resource="http://purl.org/dc/dcmitype/StillImage"/>
    <dc:date>2026-02-27T11:08:20.570173</dc:date>
    <dc:format>image/svg+xml</dc:format>
    <dc:creator>
     <cc:Agent>
      <dc:title>Matplotlib v3.7.3, https://matplotlib.org/</dc:title>
     </cc:Agent>
    </dc:creator>
   </cc:Work>
  </rdf:RDF>
 </metadata>
 <defs>
  <style type="text/css">*{stroke-linejoin: round; stroke-linecap: butt}</style>
 </defs>
 <g id="figure_1">
  <g id="patch_1">
   <path d="M 0 1440 
L 1440 1440 
L 1440 0 
L 0 0 
z
" style="fill: #ffffff"/>
  </g>
  <g id="axes_1">
   <g id="line2d_1">
    <path d="M 704.97846 13.78781 
L 698.145338 198.865434 
L 698.005886 200.214293 
" clip-path="url(#pd8c8de86fa)" style="fill: none; stroke: #7a7a7a; stroke-width: 3; stroke-linecap: square"/>
   </g>
   <g id="line2d_2">
    <path d="M 607.920227 33.878707 
L 607.920227 34.091685 
L 610.569805 37.357343 
L 615.72951 47.651265 
L 616.705671 57.73221 
L 615.72951 198.865434 
L 615.590059 200.214293 
" clip-path="url(#pd8c8de86fa)" style="fill: none; stroke: #7a7a7a; stroke-width: 3; stroke-linecap: square"/>
   </g>
   <g id="line2d_3">
    <path d="M 744.164328 200.214293 
L 752.670868 2.99694 
" clip-path="url(#pd8c8de86fa)" style="fill: none; stroke: #7a7a7a; stroke-width: 3; stroke-linecap: square"/>
   </g>
   <g id="line2d_4">
    <path d="M 783.071292 200.214293 
L 783.210743 198.865434 
L 787.254836 60.003972 
L 789.625512 9.173294 
L 790.188427 -1 
" clip-path="url(#pd8c8de86fa)" style="fill: none; stroke: #7a7a7a; stroke-width: 3; stroke-linecap: square"/>
   </g>
   <g id="line2d_5">
    <path d="M 698.005886 200.214293 
L 698.145338 198.865434 
L 704.97846 13.78781 
" clip-path="url(#pd8c8de86fa)" style="fill: none; stroke: #7a7a7a; stroke-width: 3; stroke-linecap: square"/>
   </g>
   <g id="line2d_6">
    <path d="M 744.164328 200.214293 
L 752.670868 2.99694 
" clip-path="url(#pd8c8de86fa)" style="fill: none; stroke: #7a7a7a; stroke-width: 3; stroke-linecap: square"/>
   </g>
   <g id="line2d_7">
    <path d="M 1060.021941 790.588485 
L 1060.719198 790.588485 
L 1441 794.634718 
" clip-path="url(#pd8c8de86fa)" style="fill: none; stroke: #7a7a7a; stroke-width: 3; stroke-linecap: square"/>
   </g>
   <g id="line2d_8">
    <path d="M 1060.021941 818.346579 
L 1060.719198 818.346579 
L 1441 821.734157 
" clip-path="url(#pd8c8de86fa)" style="fill: none; stroke: #7a7a7a; stroke-width: 3; stroke-linecap: square"/>
   </g>
   <g id="line2d_9">
    <path d="M 1441 794.634718 
L 1060.719198 790.588485 
L 1060.021941 790.588485 
" clip-path="url(#pd8c8de86fa)" style="fill: none; stroke: #7a7a7a; stroke-width: 3; stroke-linecap: square"/>
   </g>
   <g id="line2d_10">
    <path d="M 1441 771.346863 
L 1400.144112 770.852552 
L 1060.719198 767.160938 
L 1060.021941 767.160938 
" clip-path="url(#pd8c8de86fa)" style="fill: none; stroke: #7a7a7a; stroke-width: 3; stroke-linecap: square"/>
   </g>
   <g id="line2d_11">
    <path d="M 669.976138 893.030761 
L 677.645969 690.06301 
" clip-path="url(#pd8c8de86fa)" style="fill: none; stroke: #7a7a7a; stroke-width: 3; stroke-linecap: square"/>
   </g>
   <g id="line2d_12">
    <path d="M 752.391965 893.314731 
L 721.712639 741.532621 
L 719.760318 690.772935 
" clip-path="url(#pd8c8de86fa)" style="fill: none; stroke: #7a7a7a; stroke-width: 3; stroke-linecap: square"/>
   </g>
   <g id="line2d_13">
    <path d="M 687.965379 437.755424 
L 698.005886 200.214293 
" clip-path="url(#pd8c8de86fa)" style="fill: none; stroke: #7a7a7a; stroke-width: 3; stroke-linecap: square"/>
   </g>
   <g id="line2d_14">
    <path d="M 732.1715 436.903513 
L 744.164328 200.214293 
" clip-path="url(#pd8c8de86fa)" style="fill: none; stroke: #7a7a7a; stroke-width: 3; stroke-linecap: square"/>
   </g>
   <g id="line2d_15">
    <path d="M 669.976138 893.030761 
L 669.139429 879.613165 
L 671.09175 866.692518 
L 675.8331 854.339811 
L 683.224029 842.69703 
L 693.403987 831.835167 
L 706.233524 821.9672 
L 721.712639 813.093129 
L 739.70188 805.283947 
L 760.3407 798.752631 
L 783.629098 793.570173 
L 809.427622 789.807567 
L 837.736274 787.606798 
L 868.415601 787.038857 
L 901.744505 788.174738 
L 921.267713 788.387716 
" clip-path="url(#pd8c8de86fa)" style="fill: none; stroke: #7a7a7a; stroke-width: 3; stroke-linecap: square"/>
   </g>
   <g id="line2d_16">
    <path d="M 752.391965 893.314731 
L 752.391965 876.560485 
L 754.344286 862.432964 
L 754.902092 861.013113 
L 755.320446 858.670358 
L 756.854413 854.268819 
L 759.085636 850.71919 
L 759.922345 849.654302 
L 767.452726 841.206186 
L 780.282262 833.538989 
L 798.410955 827.575613 
L 822.814965 822.961096 
L 854.052098 819.48246 
L 893.377416 816.926728 
L 912.900624 817.210698 
" clip-path="url(#pd8c8de86fa)" style="fill: none; stroke: #7a7a7a; stroke-width: 3; stroke-linecap: square"/>
   </g>
   <g id="line2d_17">
    <path d="M 677.645969 690.06301 
L 669.976138 893.030761 
" clip-path="url(#pd8c8de86fa)" style="fill: none; stroke: #7a7a7a; stroke-width: 3; stroke-linecap: square"/>
   </g>
   <g id="line2d_18">
    <path d="M 595.509045 689.282091 
L 594.811787 720.944777 
L 592.998918 728.966937 
L 587.281407 859.735246 
L 587.141956 865.414652 
L 586.026344 892.391827 
" clip-path="url(#pd8c8de86fa)" style="fill: none; stroke: #7a7a7a; stroke-width: 3; stroke-linecap: square"/>
   </g>
   <g id="line2d_19">
    <path d="M 729.243019 498.241092 
L 732.1715 436.903513 
" clip-path="url(#pd8c8de86fa)" style="fill: none; stroke: #7a7a7a; stroke-width: 3; stroke-linecap: square"/>
   </g>
   <g id="line2d_20">
    <path d="M 769.126143 499.30598 
L 772.054625 436.193588 
" clip-path="url(#pd8c8de86fa)" style="fill: none; stroke: #7a7a7a; stroke-width: 3; stroke-linecap: square"/>
   </g>
   <g id="line2d_21">
    <path d="M 698.005886 200.214293 
L 687.965379 437.755424 
" clip-path="url(#pd8c8de86fa)" style="fill: none; stroke: #7a7a7a; stroke-width: 3; stroke-linecap: square"/>
   </g>
   <g id="line2d_22">
    <path d="M 615.590059 200.214293 
L 614.892801 233.5808 
L 612.801029 277.880162 
L 612.661577 289.664928 
L 611.96432 296.977163 
L 610.709257 312.66652 
L 605.131197 439.246268 
" clip-path="url(#pd8c8de86fa)" style="fill: none; stroke: #7a7a7a; stroke-width: 3; stroke-linecap: square"/>
   </g>
   <g id="line2d_23">
    <path d="M 921.267713 788.387716 
L 890.309484 787.819775 
L 855.167709 785.19305 
L 823.372771 781.217466 
L 794.785217 775.964016 
L 769.544498 768.722775 
L 745.977197 759.848704 
L 729.243019 746.573093 
L 723.386056 738.195971 
L 720.736478 724.210435 
L 720.178672 707.953137 
L 719.760318 690.772935 
" clip-path="url(#pd8c8de86fa)" style="fill: none; stroke: #7a7a7a; stroke-width: 3; stroke-linecap: square"/>
   </g>
   <g id="line2d_24">
    <path d="M 929.774254 765.883072 
L 896.724252 765.102154 
L 893.656319 764.605206 
L 889.193872 764.321235 
L 875.248723 762.617414 
L 863.953153 760.558629 
L 851.960325 757.931904 
L 840.804207 755.092202 
L 827.556315 751.045625 
L 818.073615 747.425004 
L 807.893656 742.952473 
L 801.618339 739.686814 
L 797.853149 737.912 
L 784.326355 728.611974 
L 774.006945 717.892096 
L 768.986692 710.153906 
L 766.476565 705.82336 
L 765.779308 704.261523 
L 765.779308 704.048545 
L 765.221502 702.770679 
L 760.898506 692.192787 
" clip-path="url(#pd8c8de86fa)" style="fill: none; stroke: #7a7a7a; stroke-width: 3; stroke-linecap: square"/>
   </g>
   <g id="line2d_25">
    <path d="M 921.267713 788.387716 
L 463.58794 781.927392 
" clip-path="url(#pd8c8de86fa)" style="fill: none; stroke: #7a7a7a; stroke-width: 3; stroke-linecap: square"/>
   </g>
   <g id="line2d_26">
    <path d="M 929.774254 765.883072 
L 901.186699 765.102154 
L 895.748092 764.747191 
L 464.843004 758.286867 
" clip-path="url(#pd8c8de86fa)" style="fill: none; stroke: #7a7a7a; stroke-width: 3; stroke-linecap: square"/>
   </g>
   <g id="line2d_27">
    <path d="M 732.1715 436.903513 
L 744.164328 200.214293 
" clip-path="url(#pd8c8de86fa)" style="fill: none; stroke: #7a7a7a; stroke-width: 3; stroke-linecap: square"/>
   </g>
   <g id="line2d_28">
    <path d="M 772.054625 436.193588 
L 775.959266 338.294837 
L 783.071292 200.214293 
" clip-path="url(#pd8c8de86fa)" style="fill: none; stroke: #7a7a7a; stroke-width: 3; stroke-linecap: square"/>
   </g>
   <g id="line2d_29">
    <path d="M 463.58794 781.927392 
L 405.855026 781.288459 
" clip-path="url(#pd8c8de86fa)" style="fill: none; stroke: #7a7a7a; stroke-width: 3; stroke-linecap: square"/>
   </g>
   <g id="line2d_30">
    <path d="M 464.843004 758.286867 
L 406.27338 757.434956 
" clip-path="url(#pd8c8de86fa)" style="fill: none; stroke: #7a7a7a; stroke-width: 3; stroke-linecap: square"/>
   </g>
   <g id="line2d_31">
    <path d="M 686.431413 497.176203 
L 677.645969 690.06301 
" clip-path="url(#pd8c8de86fa)" style="fill: none; stroke: #7a7a7a; stroke-width: 3; stroke-linecap: square"/>
   </g>
   <g id="line2d_32">
    <path d="M 603.039425 498.809032 
L 601.784362 535.299212 
L 596.206302 655.702607 
L 596.206302 678.349236 
L 595.509045 689.282091 
" clip-path="url(#pd8c8de86fa)" style="fill: none; stroke: #7a7a7a; stroke-width: 3; stroke-linecap: square"/>
   </g>
   <g id="line2d_33">
    <path d="M 223.313032 779.158682 
L 224.010289 779.158682 
L 405.855026 781.288459 
" clip-path="url(#pd8c8de86fa)" style="fill: none; stroke: #7a7a7a; stroke-width: 3; stroke-linecap: square"/>
   </g>
   <g id="line2d_34">
    <path d="M 223.313032 819.056505 
L 224.010289 819.056505 
L 403.48435 820.902312 
" clip-path="url(#pd8c8de86fa)" style="fill: none; stroke: #7a7a7a; stroke-width: 3; stroke-linecap: square"/>
   </g>
   <g id="line2d_35">
    <path d="M 669.976138 893.030761 
L 652.405251 1263.753949 
L 652.265799 1264.88983 
L 652.265799 1265.102807 
" clip-path="url(#pd8c8de86fa)" style="fill: none; stroke: #7a7a7a; stroke-width: 3; stroke-linecap: square"/>
   </g>
   <g id="line2d_36">
    <path d="M 586.026344 892.391827 
L 578.774867 1071.36409 
L 569.571069 1263.753949 
L 569.431617 1264.88983 
L 569.431617 1265.102807 
" clip-path="url(#pd8c8de86fa)" style="fill: none; stroke: #7a7a7a; stroke-width: 3; stroke-linecap: square"/>
   </g>
   <g id="line2d_37">
    <path d="M 687.965379 437.755424 
L 686.431413 497.176203 
" clip-path="url(#pd8c8de86fa)" style="fill: none; stroke: #7a7a7a; stroke-width: 3; stroke-linecap: square"/>
   </g>
   <g id="line2d_38">
    <path d="M 605.131197 439.246268 
L 603.039425 498.809032 
" clip-path="url(#pd8c8de86fa)" style="fill: none; stroke: #7a7a7a; stroke-width: 3; stroke-linecap: square"/>
   </g>
   <g id="line2d_39">
    <path d="M 463.58794 781.927392 
L 481.716633 782.211362 
L 516.300601 783.489229 
L 546.840477 786.257939 
L 573.615162 790.4465 
L 596.624657 795.983921 
L 616.147865 802.728214 
L 632.463688 810.750375 
L 645.572128 819.837423 
L 655.752086 829.918368 
L 663.282466 840.993208 
L 668.30272 852.91996 
L 670.952298 865.627629 
L 671.370653 879.045225 
L 669.976138 893.030761 
" clip-path="url(#pd8c8de86fa)" style="fill: none; stroke: #7a7a7a; stroke-width: 3; stroke-linecap: square"/>
   </g>
   <g id="line2d_40">
    <path d="M 462.890683 821.257275 
L 507.375706 820.689334 
L 540.286257 823.032089 
L 563.435203 828.001569 
L 578.356512 835.100825 
L 586.723601 843.903904 
L 590.070437 854.126833 
L 590.070437 865.272667 
L 586.305247 888.771206 
L 586.026344 892.391827 
" clip-path="url(#pd8c8de86fa)" style="fill: none; stroke: #7a7a7a; stroke-width: 3; stroke-linecap: square"/>
   </g>
   <g id="line2d_41">
    <path d="M 1060.021941 790.588485 
L 921.267713 788.387716 
" clip-path="url(#pd8c8de86fa)" style="fill: none; stroke: #7a7a7a; stroke-width: 3; stroke-linecap: square"/>
   </g>
   <g id="line2d_42">
    <path d="M 1060.021941 767.160938 
L 929.774254 765.883072 
" clip-path="url(#pd8c8de86fa)" style="fill: none; stroke: #7a7a7a; stroke-width: 3; stroke-linecap: square"/>
   </g>
   <g id="line2d_43">
    <path d="M 921.267713 788.387716 
L 901.744505 788.174738 
L 868.415601 787.038857 
L 837.736274 787.606798 
L 809.427622 789.807567 
L 783.629098 793.570173 
L 760.3407 798.752631 
L 739.70188 805.283947 
L 721.712639 813.093129 
L 706.233524 821.9672 
L 693.403987 831.835167 
L 683.224029 842.69703 
L 675.8331 854.339811 
L 671.09175 866.692518 
L 669.139429 879.613165 
L 669.976138 893.030761 
" clip-path="url(#pd8c8de86fa)" style="fill: none; stroke: #7a7a7a; stroke-width: 3; stroke-linecap: square"/>
   </g>
   <g id="line2d_44">
    <path d="M 929.774254 765.883072 
L 871.901888 765.173146 
L 841.640915 765.386124 
L 812.495555 766.592998 
L 784.465807 768.651782 
L 757.830573 771.704462 
L 732.729306 775.751039 
L 709.022553 780.791511 
L 687.12867 786.896872 
L 667.047657 794.067121 
L 648.918963 802.302259 
L 632.742591 811.602285 
L 618.797443 822.109185 
L 607.22297 833.751967 
L 598.019172 846.530629 
L 591.3255 860.587157 
L 587.281407 875.850559 
L 586.026344 892.391827 
" clip-path="url(#pd8c8de86fa)" style="fill: none; stroke: #7a7a7a; stroke-width: 3; stroke-linecap: square"/>
   </g>
   <g id="line2d_45">
    <path d="M 677.645969 690.06301 
L 675.693649 704.474501 
L 671.789007 717.892096 
L 665.374239 730.457781 
L 656.170441 742.029569 
L 643.89871 752.394484 
L 628.280144 761.552525 
L 609.17529 769.219723 
L 586.444698 775.254091 
L 559.670013 779.513645 
L 528.711784 781.927392 
L 493.570009 782.211362 
L 463.58794 781.927392 
" clip-path="url(#pd8c8de86fa)" style="fill: none; stroke: #7a7a7a; stroke-width: 3; stroke-linecap: square"/>
   </g>
   <g id="line2d_46">
    <path d="M 595.509045 689.282091 
L 597.87972 711.218795 
L 594.253981 728.186018 
L 592.720015 730.457781 
L 590.767694 734.220387 
L 588.257568 737.486045 
L 586.863053 738.763911 
L 585.607989 740.68071 
L 572.49955 749.483789 
L 567.897651 751.045625 
L 561.343431 753.601358 
L 555.207566 755.447164 
L 549.490055 756.796023 
L 541.680772 757.931904 
L 528.293429 758.712823 
L 525.783302 758.712823 
L 515.463893 759.280763 
L 493.151655 759.138778 
L 470.281611 758.35786 
L 464.843004 758.286867 
" clip-path="url(#pd8c8de86fa)" style="fill: none; stroke: #7a7a7a; stroke-width: 3; stroke-linecap: square"/>
   </g>
   <g id="line2d_47">
    <path d="M 921.267713 788.387716 
L 1060.021941 790.588485 
" clip-path="url(#pd8c8de86fa)" style="fill: none; stroke: #7a7a7a; stroke-width: 3; stroke-linecap: square"/>
   </g>
   <g id="line2d_48">
    <path d="M 912.900624 817.210698 
L 1060.021941 818.346579 
" clip-path="url(#pd8c8de86fa)" style="fill: none; stroke: #7a7a7a; stroke-width: 3; stroke-linecap: square"/>
   </g>
   <g id="line2d_49">
    <path d="M 463.58794 781.927392 
L 493.570009 782.211362 
L 528.711784 781.927392 
L 559.670013 779.513645 
L 586.444698 775.254091 
L 609.17529 769.219723 
L 628.280144 761.552525 
L 643.89871 752.394484 
L 656.170441 742.029569 
L 665.374239 730.457781 
L 671.789007 717.892096 
L 675.693649 704.474501 
L 677.645969 690.06301 
" clip-path="url(#pd8c8de86fa)" style="fill: none; stroke: #7a7a7a; stroke-width: 3; stroke-linecap: square"/>
   </g>
   <g id="line2d_50">
    <path d="M 462.890683 821.257275 
L 492.733301 821.541245 
L 522.436467 820.902312 
L 551.442376 818.488564 
L 579.751027 814.441988 
L 606.804615 808.97556 
L 632.60314 802.160274 
L 656.728247 794.209106 
L 674.717488 786.257939 
L 692.70673 774.189202 
L 709.162005 756.44106 
L 719.341963 735.214283 
L 719.760318 690.772935 
" clip-path="url(#pd8c8de86fa)" style="fill: none; stroke: #7a7a7a; stroke-width: 3; stroke-linecap: square"/>
   </g>
   <g id="line2d_51">
    <path d="M 652.265799 1265.102807 
L 652.265799 1264.88983 
L 652.405251 1263.753949 
L 669.976138 893.030761 
" clip-path="url(#pd8c8de86fa)" style="fill: none; stroke: #7a7a7a; stroke-width: 3; stroke-linecap: square"/>
   </g>
   <g id="line2d_52">
    <path d="M 736.633947 1265.102807 
L 736.633947 1264.88983 
L 736.633947 1263.753949 
L 752.391965 893.314731 
" clip-path="url(#pd8c8de86fa)" style="fill: none; stroke: #7a7a7a; stroke-width: 3; stroke-linecap: square"/>
   </g>
   <g id="line2d_53">
    <path d="M 669.976138 893.030761 
L 671.370653 879.045225 
L 670.952298 865.627629 
L 668.30272 852.91996 
L 663.282466 840.993208 
L 655.752086 829.918368 
L 645.572128 819.837423 
L 632.463688 810.750375 
L 616.147865 802.728214 
L 596.624657 795.983921 
L 573.615162 790.4465 
L 546.840477 786.257939 
L 516.300601 783.489229 
L 481.716633 782.211362 
L 463.58794 781.927392 
" clip-path="url(#pd8c8de86fa)" style="fill: none; stroke: #7a7a7a; stroke-width: 3; stroke-linecap: square"/>
   </g>
   <g id="line2d_54">
    <path d="M 752.391965 893.314731 
L 753.368126 874.998648 
L 750.857999 858.315395 
L 745.001037 843.051993 
L 736.076141 829.279435 
L 724.362217 816.855735 
L 710.138165 805.851887 
L 693.543439 796.125906 
L 674.996391 787.606798 
L 654.497023 780.365556 
L 632.60314 774.189202 
L 609.454193 769.14873 
L 585.189635 765.173146 
L 560.088368 762.120466 
L 534.568746 760.061681 
L 508.770221 758.9258 
L 464.843004 758.286867 
" clip-path="url(#pd8c8de86fa)" style="fill: none; stroke: #7a7a7a; stroke-width: 3; stroke-linecap: square"/>
   </g>
   <g id="line2d_55">
    <path d="M 686.431413 497.176203 
L 687.965379 437.755424 
" clip-path="url(#pd8c8de86fa)" style="fill: none; stroke: #7a7a7a; stroke-width: 3; stroke-linecap: square"/>
   </g>
   <g id="line2d_56">
    <path d="M 729.243019 498.241092 
L 732.1715 436.903513 
" clip-path="url(#pd8c8de86fa)" style="fill: none; stroke: #7a7a7a; stroke-width: 3; stroke-linecap: square"/>
   </g>
   <g id="line2d_57">
    <path d="M 463.58794 781.927392 
L 921.267713 788.387716 
" clip-path="url(#pd8c8de86fa)" style="fill: none; stroke: #7a7a7a; stroke-width: 3; stroke-linecap: square"/>
   </g>
   <g id="line2d_58">
    <path d="M 462.890683 821.257275 
L 912.900624 817.210698 
" clip-path="url(#pd8c8de86fa)" style="fill: none; stroke: #7a7a7a; stroke-width: 3; stroke-linecap: square"/>
   </g>
   <g id="line2d_59">
    <path d="M 677.645969 690.06301 
L 686.431413 497.176203 
" clip-path="url(#pd8c8de86fa)" style="fill: none; stroke: #7a7a7a; stroke-width: 3; stroke-linecap: square"/>
   </g>
   <g id="line2d_60">
    <path d="M 719.760318 690.772935 
L 719.620866 661.31102 
L 729.243019 498.241092 
" clip-path="url(#pd8c8de86fa)" style="fill: none; stroke: #7a7a7a; stroke-width: 3; stroke-linecap: square"/>
   </g>
   <g id="line2d_61">
    <path d="M 677.645969 690.06301 
L 678.62213 701.918768 
L 682.945126 713.277579 
L 689.9177 724.210435 
L 699.958207 734.717335 
L 712.787744 744.585302 
L 728.685213 753.743343 
L 747.511163 762.120466 
L 769.544498 769.574685 
L 794.785217 775.964016 
L 823.372771 781.217466 
L 855.167709 785.19305 
L 890.309484 787.819775 
L 921.267713 788.387716 
" clip-path="url(#pd8c8de86fa)" style="fill: none; stroke: #7a7a7a; stroke-width: 3; stroke-linecap: square"/>
   </g>
   <g id="line2d_62">
    <path d="M 595.509045 689.282091 
L 595.369593 694.322564 
L 595.230142 703.409612 
L 596.485205 710.650854 
L 600.947653 721.299739 
L 608.059678 731.948625 
L 617.681831 742.313539 
L 629.953562 752.394484 
L 644.735419 762.120466 
L 661.887952 771.420492 
L 681.411159 780.081585 
L 703.305043 788.032753 
L 727.569601 795.273995 
L 754.065383 801.663326 
L 782.792389 807.058761 
L 813.750618 811.389308 
L 846.80062 814.583973 
L 881.942395 816.571765 
L 912.900624 817.210698 
" clip-path="url(#pd8c8de86fa)" style="fill: none; stroke: #7a7a7a; stroke-width: 3; stroke-linecap: square"/>
   </g>
   <g id="line2d_63">
    <path d="M 719.760318 690.772935 
L 719.620866 661.31102 
L 729.243019 498.241092 
" clip-path="url(#pd8c8de86fa)" style="fill: none; stroke: #7a7a7a; stroke-width: 3; stroke-linecap: square"/>
   </g>
   <g id="line2d_64">
    <path d="M 760.898506 692.192787 
L 761.31686 683.957649 
L 760.759054 678.349236 
L 761.456312 646.757543 
L 764.384793 583.574158 
L 769.126143 499.30598 
" clip-path="url(#pd8c8de86fa)" style="fill: none; stroke: #7a7a7a; stroke-width: 3; stroke-linecap: square"/>
   </g>
   <g id="line2d_65">
    <path d="M 669.976138 893.030761 
L 719.760318 690.772935 
" clip-path="url(#pd8c8de86fa)" style="fill: none; stroke: #7a7a7a; stroke-width: 3; stroke-linecap: square"/>
   </g>
   <g id="line2d_66">
    <path d="M 752.391965 893.314731 
L 760.898506 692.192787 
" clip-path="url(#pd8c8de86fa)" style="fill: none; stroke: #7a7a7a; stroke-width: 3; stroke-linecap: square"/>
   </g>
   <g id="line2d_67">
    <path d="M 405.855026 781.288459 
L 463.58794 781.927392 
" clip-path="url(#pd8c8de86fa)" style="fill: none; stroke: #7a7a7a; stroke-width: 3; stroke-linecap: square"/>
   </g>
   <g id="line2d_68">
    <path d="M 403.48435 820.902312 
L 447.411568 821.257275 
L 462.890683 821.257275 
" clip-path="url(#pd8c8de86fa)" style="fill: none; stroke: #7a7a7a; stroke-width: 3; stroke-linecap: square"/>
   </g>
   <g id="line2d_69">
    <path d="M 405.855026 781.288459 
L 224.010289 779.158682 
L 223.313032 779.158682 
" clip-path="url(#pd8c8de86fa)" style="fill: none; stroke: #7a7a7a; stroke-width: 3; stroke-linecap: square"/>
   </g>
   <g id="line2d_70">
    <path d="M 406.27338 757.434956 
L 224.010289 754.879224 
L 223.313032 754.879224 
" clip-path="url(#pd8c8de86fa)" style="fill: none; stroke: #7a7a7a; stroke-width: 3; stroke-linecap: square"/>
   </g>
   <g id="line2d_71">
    <path d="M 778.87195 43.84779 
L 784.366938 35.496284 
" clip-path="url(#pd8c8de86fa)" style="fill: none; stroke-dasharray: 32,8,5,8; stroke-dashoffset: 0; stroke: #1e90ff; stroke-width: 5"/>
   </g>
   <g id="line2d_72">
    <path d="M 777.836959 189.366088 
L 791.121619 190.734463 
" clip-path="url(#pd8c8de86fa)" style="fill: none; stroke-dasharray: 32,8,5,8; stroke-dashoffset: 0; stroke: #1e90ff; stroke-width: 5"/>
   </g>
   <g id="line2d_73">
    <path d="M 785.701532 102.632444 
L 782.266314 93.416062 
" clip-path="url(#pd8c8de86fa)" style="fill: none; stroke-dasharray: 32,8,5,8; stroke-dashoffset: 0; stroke: #1e90ff; stroke-width: 5"/>
   </g>
   <g id="line2d_74">
    <path d="M 779.927369 371.550591 
L 779.709476 371.851304 
" clip-path="url(#pd8c8de86fa)" style="fill: none; stroke-dasharray: 32,8,5,8; stroke-dashoffset: 0; stroke: #1e90ff; stroke-width: 5"/>
   </g>
   <g id="line2d_75">
    <path d="M 636.12143 240.444859 
L 621.98903 253.970884 
" clip-path="url(#pd8c8de86fa)" style="fill: none; stroke-dasharray: 32,8,5,8; stroke-dashoffset: 0; stroke: #1e90ff; stroke-width: 5"/>
   </g>
   <g id="line2d_76">
    <path d="M 630.827312 352.794584 
L 632.138075 350.806584 
" clip-path="url(#pd8c8de86fa)" style="fill: none; stroke-dasharray: 32,8,5,8; stroke-dashoffset: 0; stroke: #1e90ff; stroke-width: 5"/>
   </g>
   <g id="line2d_77">
    <path d="M 709.793077 452.041188 
L 707.168148 452.524756 
" clip-path="url(#pd8c8de86fa)" style="fill: none; stroke-dasharray: 32,8,5,8; stroke-dashoffset: 0; stroke: #1e90ff; stroke-width: 5"/>
   </g>
   <g id="line2d_78">
    <path d="M 707.937583 618.806126 
L 711.852847 619.156236 
" clip-path="url(#pd8c8de86fa)" style="fill: none; stroke-dasharray: 32,8,5,8; stroke-dashoffset: 0; stroke: #1e90ff; stroke-width: 5"/>
   </g>
   <g id="line2d_79">
    <path d="M 628.181956 516.373003 
L 627.834689 514.432666 
" clip-path="url(#pd8c8de86fa)" style="fill: none; stroke-dasharray: 32,8,5,8; stroke-dashoffset: 0; stroke: #1e90ff; stroke-width: 5"/>
   </g>
   <g id="line2d_80">
    <path d="M 734.694155 218.193819 
L 736.372612 217.970234 
" clip-path="url(#pd8c8de86fa)" style="fill: none; stroke-dasharray: 32,8,5,8; stroke-dashoffset: 0; stroke: #1e90ff; stroke-width: 5"/>
   </g>
   <g id="line2d_81">
    <path d="M 611.002459 639.407144 
L 610.75052 638.798784 
" clip-path="url(#pd8c8de86fa)" style="fill: none; stroke-dasharray: 32,8,5,8; stroke-dashoffset: 0; stroke: #1e90ff; stroke-width: 5"/>
   </g>
   <g id="line2d_82">
    <path d="M 705.387554 656.208082 
L 705.714394 655.477531 
" clip-path="url(#pd8c8de86fa)" style="fill: none; stroke-dasharray: 32,8,5,8; stroke-dashoffset: 0; stroke: #1e90ff; stroke-width: 5"/>
   </g>
   <g id="line2d_83">
    <path d="M 724.439569 1026.190979 
L 720.80348 1025.528023 
" clip-path="url(#pd8c8de86fa)" style="fill: none; stroke-dasharray: 32,8,5,8; stroke-dashoffset: 0; stroke: #1e90ff; stroke-width: 5"/>
   </g>
   <g id="line2d_84">
    <path d="M 604.312465 1005.706087 
L 602.930206 1010.157855 
" clip-path="url(#pd8c8de86fa)" style="fill: none; stroke-dasharray: 32,8,5,8; stroke-dashoffset: 0; stroke: #1e90ff; stroke-width: 5"/>
   </g>
   <g id="line2d_85">
    <path d="M 712.972953 1227.022297 
L 725.202194 1057.204297 
" clip-path="url(#pd8c8de86fa)" style="fill: none; stroke-dasharray: 32,8,5,8; stroke-dashoffset: 0; stroke: #1e90ff; stroke-width: 5"/>
   </g>
   <g id="line2d_86">
    <path d="M 662.166446 463.7846 
L 665.359939 729.634087 
" clip-path="url(#pd8c8de86fa)" style="fill: none; stroke-dasharray: 32,8,5,8; stroke-dashoffset: 0; stroke: #1e90ff; stroke-width: 5"/>
   </g>
   <g id="line2d_87">
    <path d="M 778.87195 43.84779 
" clip-path="url(#pd8c8de86fa)" style="fill: none; stroke: #0000ff; stroke-width: 1.5; stroke-linecap: square"/>
    <defs>
     <path id="mb9a0d778ea" d="M 0 10 
C 2.652031 10 5.195799 8.946337 7.071068 7.071068 
C 8.946337 5.195799 10 2.652031 10 0 
C 10 -2.652031 8.946337 -5.195799 7.071068 -7.071068 
C 5.195799 -8.946337 2.652031 -10 0 -10 
C -2.652031 -10 -5.195799 -8.946337 -7.071068 -7.071068 
C -8.946337 -5.195799 -10 -2.652031 -10 0 
C -10 2.652031 -8.946337 5.195799 -7.071068 7.071068 
C -5.195799 8.946337 -2.652031 10 0 10 
z
" style="stroke: #0000ff"/>
    </defs>
    <g clip-path="url(#pd8c8de86fa)">
     <use xlink:href="#mb9a0d778ea" x="778.87195" y="43.84779" style="fill: #0000ff; stroke: #0000ff"/>
    </g>
   </g>
   <g id="line2d_88">
    <path d="M 777.836959 189.366088 
" clip-path="url(#pd8c8de86fa)" style="fill: none; stroke: #0000ff; stroke-width: 1.5; stroke-linecap: square"/>
    <g clip-path="url(#pd8c8de86fa)">
     <use xlink:href="#mb9a0d778ea" x="777.836959" y="189.366088" style="fill: #0000ff; stroke: #0000ff"/>
    </g>
   </g>
   <g id="line2d_89">
    <path d="M 785.701532 102.632444 
" clip-path="url(#pd8c8de86fa)" style="fill: none; stroke: #0000ff; stroke-width: 1.5; stroke-linecap: square"/>
    <g clip-path="url(#pd8c8de86fa)">
     <use xlink:href="#mb9a0d778ea" x="785.701532" y="102.632444" style="fill: #0000ff; stroke: #0000ff"/>
    </g>
   </g>
   <g id="line2d_90">
    <path d="M 779.927369 371.550591 
" clip-path="url(#pd8c8de86fa)" style="fill: none; stroke: #0000ff; stroke-width: 1.5; stroke-linecap: square"/>
    <g clip-path="url(#pd8c8de86fa)">
     <use xlink:href="#mb9a0d778ea" x="779.927369" y="371.550591" style="fill: #0000ff; stroke: #0000ff"/>
    </g>
   </g>
   <g id="line2d_91">
    <path d="M 636.12143 240.444859 
" clip-path="url(#pd8c8de86fa)" style="fill: none; stroke: #0000ff; stroke-width: 1.5; stroke-linecap: square"/>
    <g clip-path="url(#pd8c8de86fa)">
     <use xlink:href="#mb9a0d778ea" x="636.12143" y="240.444859" style="fill: #0000ff; stroke: #0000ff"/>
    </g>
   </g>
   <g id="line2d_92">
    <path d="M 630.827312 352.794584 
" clip-path="url(#pd8c8de86fa)" style="fill: none; stroke: #0000ff; stroke-width: 1.5; stroke-linecap: square"/>
    <g clip-path="url(#pd8c8de86fa)">
     <use xlink:href="#mb9a0d778ea" x="630.827312" y="352.794584" style="fill: #0000ff; stroke: #0000ff"/>
    </g>
   </g>
   <g id="line2d_93">
    <path d="M 709.793077 452.041188 
" clip-path="url(#pd8c8de86fa)" style="fill: none; stroke: #0000ff; stroke-width: 1.5; stroke-linecap: square"/>
    <g clip-path="url(#pd8c8de86fa)">
     <use xlink:href="#mb9a0d778ea" x="709.793077" y="452.041188" style="fill: #0000ff; stroke: #0000ff"/>
    </g>
   </g>
   <g id="line2d_94">
    <path d="M 707.937583 618.806126 
" clip-path="url(#pd8c8de86fa)" style="fill: none; stroke: #0000ff; stroke-width: 1.5; stroke-linecap: square"/>
    <g clip-path="url(#pd8c8de86fa)">
     <use xlink:href="#mb9a0d778ea" x="707.937583" y="618.806126" style="fill: #0000ff; stroke: #0000ff"/>
    </g>
   </g>
   <g id="line2d_95">
    <path d="M 628.181956 516.373003 
" clip-path="url(#pd8c8de86fa)" style="fill: none; stroke: #0000ff; stroke-width: 1.5; stroke-linecap: square"/>
    <g clip-path="url(#pd8c8de86fa)">
     <use xlink:href="#mb9a0d778ea" x="628.181956" y="516.373003" style="fill: #0000ff; stroke: #0000ff"/>
    </g>
   </g>
   <g id="line2d_96">
    <path d="M 734.694155 218.193819 
" clip-path="url(#pd8c8de86fa)" style="fill: none; stroke: #0000ff; stroke-width: 1.5; stroke-linecap: square"/>
    <g clip-path="url(#pd8c8de86fa)">
     <use xlink:href="#mb9a0d778ea" x="734.694155" y="218.193819" style="fill: #0000ff; stroke: #0000ff"/>
    </g>
   </g>
   <g id="line2d_97">
    <path d="M 611.002459 639.407144 
" clip-path="url(#pd8c8de86fa)" style="fill: none; stroke: #0000ff; stroke-width: 1.5; stroke-linecap: square"/>
    <g clip-path="url(#pd8c8de86fa)">
     <use xlink:href="#mb9a0d778ea" x="611.002459" y="639.407144" style="fill: #0000ff; stroke: #0000ff"/>
    </g>
   </g>
   <g id="line2d_98">
    <path d="M 705.387554 656.208082 
" clip-path="url(#pd8c8de86fa)" style="fill: none; stroke: #0000ff; stroke-width: 1.5; stroke-linecap: square"/>
    <g clip-path="url(#pd8c8de86fa)">
     <use xlink:href="#mb9a0d778ea" x="705.387554" y="656.208082" style="fill: #0000ff; stroke: #0000ff"/>
    </g>
   </g>
   <g id="line2d_99">
    <path d="M 724.439569 1026.190979 
" clip-path="url(#pd8c8de86fa)" style="fill: none; stroke: #0000ff; stroke-width: 1.5; stroke-linecap: square"/>
    <g clip-path="url(#pd8c8de86fa)">
     <use xlink:href="#mb9a0d778ea" x="724.439569" y="1026.190979" style="fill: #0000ff; stroke: #0000ff"/>
    </g>
   </g>
   <g id="line2d_100">
    <path d="M 604.312465 1005.706087 
" clip-path="url(#pd8c8de86fa)" style="fill: none; stroke: #0000ff; stroke-width: 1.5; stroke-linecap: square"/>
    <g clip-path="url(#pd8c8de86fa)">
     <use xlink:href="#mb9a0d778ea" x="604.312465" y="1005.706087" style="fill: #0000ff; stroke: #0000ff"/>
    </g>
   </g>
   <g id="line2d_101">
    <path d="M 712.972953 1227.022297 
" clip-path="url(#pd8c8de86fa)" style="fill: none; stroke: #0000ff; stroke-width: 1.5; stroke-linecap: square"/>
    <g clip-path="url(#pd8c8de86fa)">
     <use xlink:href="#mb9a0d778ea" x="712.972953" y="1227.022297" style="fill: #0000ff; stroke: #0000ff"/>
    </g>
   </g>
   <g id="line2d_102">
    <path d="M 662.166446 463.7846 
" clip-path="url(#pd8c8de86fa)" style="fill: none; stroke: #0000ff; stroke-width: 1.5; stroke-linecap: square"/>
    <g clip-path="url(#pd8c8de86fa)">
     <use xlink:href="#mb9a0d778ea" x="662.166446" y="463.7846" style="fill: #0000ff; stroke: #0000ff"/>
    </g>
   </g>
   <g id="line2d_103">
    <path d="M 784.366938 35.496284 
" clip-path="url(#pd8c8de86fa)" style="fill: none; stroke: #ff0000; stroke-width: 1.5; stroke-linecap: square"/>
    <defs>
     <path id="m88406f4fc6" d="M 0 -10 
L -2.24514 -3.09017 
L -9.510565 -3.09017 
L -3.632713 1.18034 
L -5.877853 8.09017 
L -0 3.81966 
L 5.877853 8.09017 
L 3.632713 1.18034 
L 9.510565 -3.09017 
L 2.24514 -3.09017 
z
" style="stroke: #ff0000; stroke-linejoin: bevel"/>
    </defs>
    <g clip-path="url(#pd8c8de86fa)">
     <use xlink:href="#m88406f4fc6" x="784.366938" y="35.496284" style="fill: #ff0000; stroke: #ff0000; stroke-linejoin: bevel"/>
    </g>
   </g>
   <g id="line2d_104">
    <path d="M 791.121619 190.734463 
" clip-path="url(#pd8c8de86fa)" style="fill: none; stroke: #ff0000; stroke-width: 1.5; stroke-linecap: square"/>
    <g clip-path="url(#pd8c8de86fa)">
     <use xlink:href="#m88406f4fc6" x="791.121619" y="190.734463" style="fill: #ff0000; stroke: #ff0000; stroke-linejoin: bevel"/>
    </g>
   </g>
   <g id="line2d_105">
    <path d="M 782.266314 93.416062 
" clip-path="url(#pd8c8de86fa)" style="fill: none; stroke: #ff0000; stroke-width: 1.5; stroke-linecap: square"/>
    <g clip-path="url(#pd8c8de86fa)">
     <use xlink:href="#m88406f4fc6" x="782.266314" y="93.416062" style="fill: #ff0000; stroke: #ff0000; stroke-linejoin: bevel"/>
    </g>
   </g>
   <g id="line2d_106">
    <path d="M 779.709476 371.851304 
" clip-path="url(#pd8c8de86fa)" style="fill: none; stroke: #ff0000; stroke-width: 1.5; stroke-linecap: square"/>
    <g clip-path="url(#pd8c8de86fa)">
     <use xlink:href="#m88406f4fc6" x="779.709476" y="371.851304" style="fill: #ff0000; stroke: #ff0000; stroke-linejoin: bevel"/>
    </g>
   </g>
   <g id="line2d_107">
    <path d="M 621.98903 253.970884 
" clip-path="url(#pd8c8de86fa)" style="fill: none; stroke: #ff0000; stroke-width: 1.5; stroke-linecap: square"/>
    <g clip-path="url(#pd8c8de86fa)">
     <use xlink:href="#m88406f4fc6" x="621.98903" y="253.970884" style="fill: #ff0000; stroke: #ff0000; stroke-linejoin: bevel"/>
    </g>
   </g>
   <g id="line2d_108">
    <path d="M 632.138075 350.806584 
" clip-path="url(#pd8c8de86fa)" style="fill: none; stroke: #ff0000; stroke-width: 1.5; stroke-linecap: square"/>
    <g clip-path="url(#pd8c8de86fa)">
     <use xlink:href="#m88406f4fc6" x="632.138075" y="350.806584" style="fill: #ff0000; stroke: #ff0000; stroke-linejoin: bevel"/>
    </g>
   </g>
   <g id="line2d_109">
    <path d="M 707.168148 452.524756 
" clip-path="url(#pd8c8de86fa)" style="fill: none; stroke: #ff0000; stroke-width: 1.5; stroke-linecap: square"/>
    <g clip-path="url(#pd8c8de86fa)">
     <use xlink:href="#m88406f4fc6" x="707.168148" y="452.524756" style="fill: #ff0000; stroke: #ff0000; stroke-linejoin: bevel"/>
    </g>
   </g>
   <g id="line2d_110">
    <path d="M 711.852847 619.156236 
" clip-path="url(#pd8c8de86fa)" style="fill: none; stroke: #ff0000; stroke-width: 1.5; stroke-linecap: square"/>
    <g clip-path="url(#pd8c8de86fa)">
     <use xlink:href="#m88406f4fc6" x="711.852847" y="619.156236" style="fill: #ff0000; stroke: #ff0000; stroke-linejoin: bevel"/>
    </g>
   </g>
   <g id="line2d_111">
    <path d="M 627.834689 514.432666 
" clip-path="url(#pd8c8de86fa)" style="fill: none; stroke: #ff0000; stroke-width: 1.5; stroke-linecap: square"/>
    <g clip-path="url(#pd8c8de86fa)">
     <use xlink:href="#m88406f4fc6" x="627.834689" y="514.432666" style="fill: #ff0000; stroke: #ff0000; stroke-linejoin: bevel"/>
    </g>
   </g>
   <g id="line2d_112">
    <path d="M 736.372612 217.970234 
" clip-path="url(#pd8c8de86fa)" style="fill: none; stroke: #ff0000; stroke-width: 1.5; stroke-linecap: square"/>
    <g clip-path="url(#pd8c8de86fa)">
     <use xlink:href="#m88406f4fc6" x="736.372612" y="217.970234" style="fill: #ff0000; stroke: #ff0000; stroke-linejoin: bevel"/>
    </g>
   </g>
   <g id="line2d_113">
    <path d="M 610.75052 638.798784 
" clip-path="url(#pd8c8de86fa)" style="fill: none; stroke: #ff0000; stroke-width: 1.5; stroke-linecap: square"/>
    <g clip-path="url(#pd8c8de86fa)">
     <use xlink:href="#m88406f4fc6" x="610.75052" y="638.798784" style="fill: #ff0000; stroke: #ff0000; stroke-linejoin: bevel"/>
    </g>
   </g>
   <g id="line2d_114">
    <path d="M 705.714394 655.477531 
" clip-path="url(#pd8c8de86fa)" style="fill: none; stroke: #ff0000; stroke-width: 1.5; stroke-linecap: square"/>
    <g clip-path="url(#pd8c8de86fa)">
     <use xlink:href="#m88406f4fc6" x="705.714394" y="655.477531" style="fill: #ff0000; stroke: #ff0000; stroke-linejoin: bevel"/>
    </g>
   </g>
   <g id="line2d_115">
    <path d="M 720.80348 1025.528023 
" clip-path="url(#pd8c8de86fa)" style="fill: none; stroke: #ff0000; stroke-width: 1.5; stroke-linecap: square"/>
    <g clip-path="url(#pd8c8de86fa)">
     <use xlink:href="#m88406f4fc6" x="720.80348" y="1025.528023" style="fill: #ff0000; stroke: #ff0000; stroke-linejoin: bevel"/>
    </g>
   </g>
   <g id="line2d_116">
    <path d="M 602.930206 1010.157855 
" clip-path="url(#pd8c8de86fa)" style="fill: none; stroke: #ff0000; stroke-width: 1.5; stroke-linecap: square"/>
    <g clip-path="url(#pd8c8de86fa)">
     <use xlink:href="#m88406f4fc6" x="602.930206" y="1010.157855" style="fill: #ff0000; stroke: #ff0000; stroke-linejoin: bevel"/>
    </g>
   </g>
   <g id="line2d_117">
    <path d="M 725.202194 1057.204297 
" clip-path="url(#pd8c8de86fa)" style="fill: none; stroke: #ff0000; stroke-width: 1.5; stroke-linecap: square"/>
    <g clip-path="url(#pd8c8de86fa)">
     <use xlink:href="#m88406f4fc6" x="725.202194" y="1057.204297" style="fill: #ff0000; stroke: #ff0000; stroke-linejoin: bevel"/>
    </g>
   </g>
   <g id="line2d_118">
    <path d="M 665.359939 729.634087 
" clip-path="url(#pd8c8de86fa)" style="fill: none; stroke: #ff0000; stroke-width: 1.5; stroke-linecap: square"/>
    <g clip-path="url(#pd8c8de86fa)">
     <use xlink:href="#m88406f4fc6" x="665.359939" y="729.634087" style="fill: #ff0000; stroke: #ff0000; stroke-linejoin: bevel"/>
    </g>
   </g>
  </g>
 </g>
 <defs>
  <clipPath id="pd8c8de86fa">
   <rect x="0" y="0" width="1440" height="1440"/>
  </clipPath>
 </defs>
</svg>
