<?xml version="1.0" encoding="utf-8" standalone="no"?>
<!DOCTYPE svg PUBLIC "-//W3C//DTD SVG 1.1//EN"
  "http://www.w3.org/Graphics/SVG/1.1/DTD/svg11.dtd">
<svg xmlns:xlink="http://www.w3.org/1999/xlink" width="1440pt" height="1440pt" viewBox="0 0 1440 1440" xmlns="http://www.w3.org/2000/svg" version="1.1">
 <metadata>
  <rdf:RDF xmlns:dc="http://purl.org/dc/elements/1.1/" xmlns:cc="http://creativecommons.org/ns#" xmlns:rdf="http://www.w3.org/1999/02/22-rdf-syntax-ns#">
   <cc:Work>
    <dc:type rdf:resource="http://purl.org/dc/dcmitype/StillImage"/>
    <dc:date>2026-02-27T11:08:14.615817</dc:date>
    <dc:format>image/svg+xml</dc:format>
    <dc:creator>
     <cc:Agent>
      <dc:title>Matplotlib v3.7.3, https://matplotlib.org/</dc:title>
     </cc:Agent>
    </dc:creator>
   </cc:Work>
  </rdf:RDF>
 </metadata>
 <defs>
  <style type="text/css">*{stroke-linejoin: round; stroke-linecap: butt}</style>
 </defs>
 <g id="figure_1">
  <g id="patch_1">
   <path d="M 0 1440 
L 1440 1440 
L 1440 0 
L 0 0 
z
" style="fill: #ffffff"/>
  </g>
  <g id="axes_1">
   <g id="line2d_1">
    <path d="M 206.272629 789.772134 
L 189.523521 919.044401 
" clip-path="url(#p6a82ebdba2)" style="fill: none; stroke: #7a7a7a; stroke-width: 3; stroke-linecap: square"/>
   </g>
   <g id="line2d_2">
    <path d="M 174.266907 789.772134 
L 160.00529 895.806637 
" clip-path="url(#p6a82ebdba2)" style="fill: none; stroke: #7a7a7a; stroke-width: 3; stroke-linecap: square"/>
   </g>
   <g id="line2d_3">
    <path d="M 1149.943933 379.303396 
L 1141.901044 436.323792 
L 1136.096898 472.059177 
L 1126.976096 510.137866 
L 1119.928204 524.58824 
L 1107.988245 528.884297 
L 1093.892461 522.244936 
L 1074.490029 510.918967 
L 1059.979662 501.936302 
" clip-path="url(#p6a82ebdba2)" style="fill: none; stroke: #7a7a7a; stroke-width: 3; stroke-linecap: square"/>
   </g>
   <g id="line2d_4">
    <path d="M 1130.790249 368.172703 
L 1128.136925 389.067163 
L 1124.405688 417.18681 
L 1122.747361 425.583649 
L 1120.757368 432.418285 
L 1118.850291 438.08127 
L 1114.704472 444.525356 
L 1107.076165 453.703296 
L 1102.018266 457.804078 
L 1099.116193 458.97573 
L 1098.535778 459.171005 
L 1093.892461 459.366281 
L 1091.239137 458.585179 
L 1087.259151 457.218252 
L 1082.615834 454.874948 
L 1068.354217 444.525356 
" clip-path="url(#p6a82ebdba2)" style="fill: none; stroke: #7a7a7a; stroke-width: 3; stroke-linecap: square"/>
   </g>
   <g id="line2d_5">
    <path d="M 1192.14837 413.086028 
L 1109.48074 1037.381249 
" clip-path="url(#p6a82ebdba2)" style="fill: none; stroke: #7a7a7a; stroke-width: 3; stroke-linecap: square"/>
   </g>
   <g id="line2d_6">
    <path d="M 1162.630139 391.801017 
L 1080.957506 1017.072615 
" clip-path="url(#p6a82ebdba2)" style="fill: none; stroke: #7a7a7a; stroke-width: 3; stroke-linecap: square"/>
   </g>
   <g id="line2d_7">
    <path d="M 1036.265578 688.033689 
L 1262.793124 856.556296 
" clip-path="url(#p6a82ebdba2)" style="fill: none; stroke: #7a7a7a; stroke-width: 3; stroke-linecap: square"/>
   </g>
   <g id="line2d_8">
    <path d="M 1029.300602 740.953302 
L 1254.998984 908.108983 
" clip-path="url(#p6a82ebdba2)" style="fill: none; stroke: #7a7a7a; stroke-width: 3; stroke-linecap: square"/>
   </g>
   <g id="line2d_9">
    <path d="M 212.823023 936.814456 
L 233.220452 789.772134 
" clip-path="url(#p6a82ebdba2)" style="fill: none; stroke: #7a7a7a; stroke-width: 3; stroke-linecap: square"/>
   </g>
   <g id="line2d_10">
    <path d="M 234.215449 953.803409 
L 256.768704 799.926451 
L 258.261199 789.772134 
" clip-path="url(#p6a82ebdba2)" style="fill: none; stroke: #7a7a7a; stroke-width: 3; stroke-linecap: square"/>
   </g>
   <g id="line2d_11">
    <path d="M 1059.979662 501.936302 
L 762.061114 284.399587 
L 761.729449 284.204312 
" clip-path="url(#p6a82ebdba2)" style="fill: none; stroke: #7a7a7a; stroke-width: 3; stroke-linecap: square"/>
   </g>
   <g id="line2d_12">
    <path d="M 1068.354217 444.525356 
L 762.144031 219.372903 
L 761.729449 219.177628 
" clip-path="url(#p6a82ebdba2)" style="fill: none; stroke: #7a7a7a; stroke-width: 3; stroke-linecap: square"/>
   </g>
   <g id="line2d_13">
    <path d="M 1021.838128 797.778423 
L 1246.209848 966.30103 
" clip-path="url(#p6a82ebdba2)" style="fill: none; stroke: #7a7a7a; stroke-width: 3; stroke-linecap: square"/>
   </g>
   <g id="line2d_14">
    <path d="M 1013.463574 861.82873 
L 1237.586545 1023.321426 
" clip-path="url(#p6a82ebdba2)" style="fill: none; stroke: #7a7a7a; stroke-width: 3; stroke-linecap: square"/>
   </g>
   <g id="line2d_15">
    <path d="M 189.523521 919.044401 
L 206.272629 789.772134 
" clip-path="url(#p6a82ebdba2)" style="fill: none; stroke: #7a7a7a; stroke-width: 3; stroke-linecap: square"/>
   </g>
   <g id="line2d_16">
    <path d="M 212.823023 936.814456 
L 233.220452 789.772134 
" clip-path="url(#p6a82ebdba2)" style="fill: none; stroke: #7a7a7a; stroke-width: 3; stroke-linecap: square"/>
   </g>
   <g id="line2d_17">
    <path d="M 1280.703062 721.230494 
L 1051.522192 559.542523 
" clip-path="url(#p6a82ebdba2)" style="fill: none; stroke: #7a7a7a; stroke-width: 3; stroke-linecap: square"/>
   </g>
   <g id="line2d_18">
    <path d="M 1288.082619 668.310881 
L 1059.979662 501.936302 
" clip-path="url(#p6a82ebdba2)" style="fill: none; stroke: #7a7a7a; stroke-width: 3; stroke-linecap: square"/>
   </g>
   <g id="line2d_19">
    <path d="M 1218.432862 432.22301 
L 1136.013981 1056.322956 
" clip-path="url(#p6a82ebdba2)" style="fill: none; stroke: #7a7a7a; stroke-width: 3; stroke-linecap: square"/>
   </g>
   <g id="line2d_20">
    <path d="M 1192.14837 413.086028 
L 1109.48074 1037.381249 
" clip-path="url(#p6a82ebdba2)" style="fill: none; stroke: #7a7a7a; stroke-width: 3; stroke-linecap: square"/>
   </g>
   <g id="line2d_21">
    <path d="M 1262.046877 463.467062 
L 1258.978971 483.775696 
L 1255.911065 508.380388 
L 1255.745232 511.504793 
L 1180.45716 1088.152834 
" clip-path="url(#p6a82ebdba2)" style="fill: none; stroke: #7a7a7a; stroke-width: 3; stroke-linecap: square"/>
   </g>
   <g id="line2d_22">
    <path d="M 1218.432862 432.22301 
L 1136.013981 1056.322956 
" clip-path="url(#p6a82ebdba2)" style="fill: none; stroke: #7a7a7a; stroke-width: 3; stroke-linecap: square"/>
   </g>
   <g id="line2d_23">
    <path d="M 761.729449 490.024507 
L 1033.861003 686.862037 
L 1036.265578 688.033689 
" clip-path="url(#p6a82ebdba2)" style="fill: none; stroke: #7a7a7a; stroke-width: 3; stroke-linecap: square"/>
   </g>
   <g id="line2d_24">
    <path d="M 761.729449 546.849627 
L 1029.300602 740.953302 
" clip-path="url(#p6a82ebdba2)" style="fill: none; stroke: #7a7a7a; stroke-width: 3; stroke-linecap: square"/>
   </g>
   <g id="line2d_25">
    <path d="M 433.214757 45.382587 
L 418.870224 35.032994 
L 399.219042 21.949547 
L 383.216181 3.203116 
L 380.925821 -1 
" clip-path="url(#p6a82ebdba2)" style="fill: none; stroke: #7a7a7a; stroke-width: 3; stroke-linecap: square"/>
   </g>
   <g id="line2d_26">
    <path clip-path="url(#p6a82ebdba2)" style="fill: none; stroke: #7a7a7a; stroke-width: 3; stroke-linecap: square"/>
   </g>
   <g id="line2d_27">
    <path d="M 1109.48074 1037.381249 
L 1056.223773 1441 
" clip-path="url(#p6a82ebdba2)" style="fill: none; stroke: #7a7a7a; stroke-width: 3; stroke-linecap: square"/>
   </g>
   <g id="line2d_28">
    <path d="M 1080.957506 1017.072615 
L 1024.574927 1441 
" clip-path="url(#p6a82ebdba2)" style="fill: none; stroke: #7a7a7a; stroke-width: 3; stroke-linecap: square"/>
   </g>
   <g id="line2d_29">
    <path d="M 1021.838128 797.778423 
L 1061.803823 826.874446 
L 1076.480022 843.472849 
L 1089.166228 866.905889 
L 1099.447858 895.611362 
L 1106.993249 928.417617 
L 1111.470733 963.762451 
L 1112.382813 1000.669488 
L 1109.48074 1037.381249 
" clip-path="url(#p6a82ebdba2)" style="fill: none; stroke: #7a7a7a; stroke-width: 3; stroke-linecap: square"/>
   </g>
   <g id="line2d_30">
    <path d="M 1013.463574 861.82873 
L 1053.429268 890.924754 
L 1064.37423 901.079071 
L 1073.329199 923.926284 
L 1079.71376 954.19396 
L 1082.532917 987.000215 
L 1080.957506 1017.072615 
" clip-path="url(#p6a82ebdba2)" style="fill: none; stroke: #7a7a7a; stroke-width: 3; stroke-linecap: square"/>
   </g>
   <g id="line2d_31">
    <path d="M 761.729449 546.849627 
L 1029.300602 740.953302 
" clip-path="url(#p6a82ebdba2)" style="fill: none; stroke: #7a7a7a; stroke-width: 3; stroke-linecap: square"/>
   </g>
   <g id="line2d_32">
    <path d="M 761.729449 611.876311 
L 1021.838128 797.778423 
" clip-path="url(#p6a82ebdba2)" style="fill: none; stroke: #7a7a7a; stroke-width: 3; stroke-linecap: square"/>
   </g>
   <g id="line2d_33">
    <path d="M 1080.957506 1017.072615 
L 1024.574927 1441 
" clip-path="url(#p6a82ebdba2)" style="fill: none; stroke: #7a7a7a; stroke-width: 3; stroke-linecap: square"/>
   </g>
   <g id="line2d_34">
    <path d="M 1066.530056 1006.723023 
L 1030.129766 1280.694307 
L 1008.693715 1441 
" clip-path="url(#p6a82ebdba2)" style="fill: none; stroke: #7a7a7a; stroke-width: 3; stroke-linecap: square"/>
   </g>
   <g id="line2d_35">
    <path d="M 712.974618 310.957032 
L 519.613624 167.234391 
" clip-path="url(#p6a82ebdba2)" style="fill: none; stroke: #7a7a7a; stroke-width: 3; stroke-linecap: square"/>
   </g>
   <g id="line2d_36">
    <path d="M 718.530016 253.741361 
L 527.905262 112.362024 
" clip-path="url(#p6a82ebdba2)" style="fill: none; stroke: #7a7a7a; stroke-width: 3; stroke-linecap: square"/>
   </g>
   <g id="line2d_37">
    <path clip-path="url(#p6a82ebdba2)" style="fill: none; stroke: #7a7a7a; stroke-width: 3; stroke-linecap: square"/>
   </g>
   <g id="line2d_38">
    <path clip-path="url(#p6a82ebdba2)" style="fill: none; stroke: #7a7a7a; stroke-width: 3; stroke-linecap: square"/>
   </g>
   <g id="line2d_39">
    <path d="M 1180.45716 1088.152834 
L 1171.668024 1152.788968 
L 1133.150628 1441 
" clip-path="url(#p6a82ebdba2)" style="fill: none; stroke: #7a7a7a; stroke-width: 3; stroke-linecap: square"/>
   </g>
   <g id="line2d_40">
    <path d="M 1136.013981 1056.322956 
L 1085.136816 1441 
" clip-path="url(#p6a82ebdba2)" style="fill: none; stroke: #7a7a7a; stroke-width: 3; stroke-linecap: square"/>
   </g>
   <g id="line2d_41">
    <path d="M 1188.2513 203.946152 
L 1162.630139 391.801017 
" clip-path="url(#p6a82ebdba2)" style="fill: none; stroke: #7a7a7a; stroke-width: 3; stroke-linecap: square"/>
   </g>
   <g id="line2d_42">
    <path d="M 1172.663021 203.946152 
L 1150.026849 379.303396 
" clip-path="url(#p6a82ebdba2)" style="fill: none; stroke: #7a7a7a; stroke-width: 3; stroke-linecap: square"/>
   </g>
   <g id="line2d_43">
    <path d="M 1136.013981 1056.322956 
L 1085.136816 1441 
" clip-path="url(#p6a82ebdba2)" style="fill: none; stroke: #7a7a7a; stroke-width: 3; stroke-linecap: square"/>
   </g>
   <g id="line2d_44">
    <path d="M 1109.48074 1037.381249 
L 1056.223773 1441 
" clip-path="url(#p6a82ebdba2)" style="fill: none; stroke: #7a7a7a; stroke-width: 3; stroke-linecap: square"/>
   </g>
   <g id="line2d_45">
    <path d="M 500.874522 218.396527 
L 410.24692 148.292684 
" clip-path="url(#p6a82ebdba2)" style="fill: none; stroke: #7a7a7a; stroke-width: 3; stroke-linecap: square"/>
   </g>
   <g id="line2d_46">
    <path d="M 519.613624 167.234391 
L 421.93813 94.006143 
" clip-path="url(#p6a82ebdba2)" style="fill: none; stroke: #7a7a7a; stroke-width: 3; stroke-linecap: square"/>
   </g>
   <g id="line2d_47">
    <path d="M 1273.323504 774.931209 
L 1043.728052 612.852688 
" clip-path="url(#p6a82ebdba2)" style="fill: none; stroke: #7a7a7a; stroke-width: 3; stroke-linecap: square"/>
   </g>
   <g id="line2d_48">
    <path d="M 1280.703062 721.230494 
L 1051.522192 559.542523 
" clip-path="url(#p6a82ebdba2)" style="fill: none; stroke: #7a7a7a; stroke-width: 3; stroke-linecap: square"/>
   </g>
   <g id="line2d_49">
    <path d="M 1051.522192 559.542523 
L 762.061114 345.911315 
L 761.729449 345.71604 
" clip-path="url(#p6a82ebdba2)" style="fill: none; stroke: #7a7a7a; stroke-width: 3; stroke-linecap: square"/>
   </g>
   <g id="line2d_50">
    <path d="M 1059.979662 501.936302 
L 762.061114 284.399587 
L 761.729449 284.204312 
" clip-path="url(#p6a82ebdba2)" style="fill: none; stroke: #7a7a7a; stroke-width: 3; stroke-linecap: square"/>
   </g>
   <g id="line2d_51">
    <path d="M 1264.285619 840.153169 
L 1246.044016 826.679171 
L 1230.538653 819.844535 
L 1214.618708 817.891781 
L 1198.367098 820.235085 
L 1182.115488 826.679171 
L 1166.195543 836.833488 
L 1150.856013 850.502761 
L 1136.26273 867.491715 
L 1122.747361 887.214523 
L 1110.64157 909.47591 
L 1100.111189 933.885326 
L 1091.487886 960.05222 
L 1085.020409 987.976591 
L 1080.957506 1017.072615 
" clip-path="url(#p6a82ebdba2)" style="fill: none; stroke: #7a7a7a; stroke-width: 3; stroke-linecap: square"/>
   </g>
   <g id="line2d_52">
    <path d="M 1273.323504 774.931209 
L 1255.081901 761.457212 
L 1240.488618 753.646199 
L 1225.397837 750.326518 
L 1209.809558 751.302895 
L 1194.055446 756.575329 
L 1178.301334 765.362718 
L 1162.713055 777.860339 
L 1147.622274 793.677641 
L 1133.111908 812.424072 
L 1119.430706 834.099634 
L 1106.827416 858.118499 
L 1095.384956 884.480668 
L 1085.517907 912.79559 
L 1077.226269 942.672715 
L 1070.841708 974.112043 
L 1066.530056 1006.723023 
" clip-path="url(#p6a82ebdba2)" style="fill: none; stroke: #7a7a7a; stroke-width: 3; stroke-linecap: square"/>
   </g>
   <g id="line2d_53">
    <path d="M 410.24692 148.292684 
L 208.89946 -1 
" clip-path="url(#p6a82ebdba2)" style="fill: none; stroke: #7a7a7a; stroke-width: 3; stroke-linecap: square"/>
   </g>
   <g id="line2d_54">
    <path d="M 421.93813 94.006143 
L 284.525652 -1 
" clip-path="url(#p6a82ebdba2)" style="fill: none; stroke: #7a7a7a; stroke-width: 3; stroke-linecap: square"/>
   </g>
   <g id="line2d_55">
    <path d="M 1288.082619 668.310881 
L 1059.979662 501.936302 
" clip-path="url(#p6a82ebdba2)" style="fill: none; stroke: #7a7a7a; stroke-width: 3; stroke-linecap: square"/>
   </g>
   <g id="line2d_56">
    <path d="M 1296.291341 608.751906 
L 1083.693747 455.460774 
L 1082.615834 454.874948 
L 1068.354217 444.525356 
" clip-path="url(#p6a82ebdba2)" style="fill: none; stroke: #7a7a7a; stroke-width: 3; stroke-linecap: square"/>
   </g>
   <g id="line2d_57">
    <path d="M 519.613624 167.234391 
L 421.93813 94.006143 
" clip-path="url(#p6a82ebdba2)" style="fill: none; stroke: #7a7a7a; stroke-width: 3; stroke-linecap: square"/>
   </g>
   <g id="line2d_58">
    <path d="M 527.905262 112.362024 
L 433.214757 45.382587 
" clip-path="url(#p6a82ebdba2)" style="fill: none; stroke: #7a7a7a; stroke-width: 3; stroke-linecap: square"/>
   </g>
   <g id="line2d_59">
    <path d="M 15.482043 70.768379 
L 15.979541 71.15893 
L 179.24189 189.300503 
" clip-path="url(#p6a82ebdba2)" style="fill: none; stroke: #7a7a7a; stroke-width: 3; stroke-linecap: square"/>
   </g>
   <g id="line2d_60">
    <path d="M 15.482043 135.795063 
L 15.979541 136.185614 
L 173.852325 247.883101 
" clip-path="url(#p6a82ebdba2)" style="fill: none; stroke: #7a7a7a; stroke-width: 3; stroke-linecap: square"/>
   </g>
   <g id="line2d_61">
    <path d="M 1162.630139 391.801017 
L 1080.957506 1017.072615 
" clip-path="url(#p6a82ebdba2)" style="fill: none; stroke: #7a7a7a; stroke-width: 3; stroke-linecap: square"/>
   </g>
   <g id="line2d_62">
    <path d="M 1150.026849 379.303396 
L 1066.530056 1006.723023 
" clip-path="url(#p6a82ebdba2)" style="fill: none; stroke: #7a7a7a; stroke-width: 3; stroke-linecap: square"/>
   </g>
   <g id="line2d_63">
    <path d="M 1264.285619 840.153169 
L 1258.398556 835.857111 
L 1256.159814 836.052387 
L 1251.267747 833.709083 
L 1238.996123 837.809865 
L 1227.553663 851.283862 
L 1217.272032 872.568873 
L 1208.39998 900.493245 
L 1201.269171 933.885326 
L 1180.45716 1088.152834 
" clip-path="url(#p6a82ebdba2)" style="fill: none; stroke: #7a7a7a; stroke-width: 3; stroke-linecap: square"/>
   </g>
   <g id="line2d_64">
    <path d="M 1273.323504 774.931209 
L 1255.993981 765.557994 
L 1238.913207 763.800516 
L 1222.329931 768.877674 
L 1206.824569 780.203643 
L 1192.562951 796.802046 
L 1180.042578 817.891781 
L 1169.595115 843.082299 
L 1161.718059 871.397221 
L 1156.743076 902.055447 
L 1136.013981 1056.322956 
" clip-path="url(#p6a82ebdba2)" style="fill: none; stroke: #7a7a7a; stroke-width: 3; stroke-linecap: square"/>
   </g>
   <g id="line2d_65">
    <path d="M 328.862221 -1 
L 331.144695 31.713314 
L 335.953845 70.573104 
L 342.421323 106.503764 
L 350.381295 138.919469 
L 359.750846 167.624942 
L 370.281226 192.229633 
L 381.806603 212.342992 
L 391.756568 224.450062 
L 393.08323 227.379192 
L 407.261931 237.533509 
" clip-path="url(#p6a82ebdba2)" style="fill: none; stroke: #7a7a7a; stroke-width: 3; stroke-linecap: square"/>
   </g>
   <g id="line2d_66">
    <path d="M 281.792474 -1 
L 282.306948 3.984217 
L 287.447764 38.743226 
L 293.998158 72.721133 
L 301.792297 105.527388 
L 310.747266 136.966715 
L 320.945981 166.258014 
L 332.139692 193.59656 
L 344.245483 218.201251 
L 357.263355 239.876813 
L 371.11039 258.232693 
L 385.703672 273.073618 
L 400.960286 284.009037 
" clip-path="url(#p6a82ebdba2)" style="fill: none; stroke: #7a7a7a; stroke-width: 3; stroke-linecap: square"/>
   </g>
   <g id="line2d_67">
    <path d="M 1043.728052 612.852688 
L 1040.825979 609.728283 
L 762.061114 407.618319 
L 761.729449 407.423043 
" clip-path="url(#p6a82ebdba2)" style="fill: none; stroke: #7a7a7a; stroke-width: 3; stroke-linecap: square"/>
   </g>
   <g id="line2d_68">
    <path d="M 1051.522192 559.542523 
L 762.061114 345.911315 
L 761.729449 345.71604 
" clip-path="url(#p6a82ebdba2)" style="fill: none; stroke: #7a7a7a; stroke-width: 3; stroke-linecap: square"/>
   </g>
   <g id="line2d_69">
    <path d="M 399.219042 204.336703 
L 386.44992 194.377661 
L 371.276223 185.004446 
L 356.185442 182.661142 
L 339.850915 187.152474 
L 323.516389 197.111516 
L 307.762277 211.757166 
L 293.003161 231.089423 
L 279.902374 254.522462 
L 270.781572 291.429499 
L 259.256195 379.693947 
L 255.93954 416.210433 
" clip-path="url(#p6a82ebdba2)" style="fill: none; stroke: #7a7a7a; stroke-width: 3; stroke-linecap: square"/>
   </g>
   <g id="line2d_70">
    <path d="M 410.24692 148.292684 
L 380.977439 126.812398 
L 364.974578 117.243907 
L 350.96171 115.486429 
L 335.207598 120.758863 
L 319.619319 130.522629 
L 304.445622 144.582453 
L 290.018172 162.547783 
L 276.502802 184.223344 
L 264.231178 209.023311 
L 253.452049 236.557132 
L 244.49708 266.629533 
L 237.61502 298.654686 
L 233.05462 332.632593 
L 225.757978 407.618319 
" clip-path="url(#p6a82ebdba2)" style="fill: none; stroke: #7a7a7a; stroke-width: 3; stroke-linecap: square"/>
   </g>
   <g id="line2d_71">
    <path d="M 1029.300602 740.953302 
L 1254.998984 908.108983 
" clip-path="url(#p6a82ebdba2)" style="fill: none; stroke: #7a7a7a; stroke-width: 3; stroke-linecap: square"/>
   </g>
   <g id="line2d_72">
    <path d="M 1021.838128 797.778423 
L 1246.209848 966.30103 
" clip-path="url(#p6a82ebdba2)" style="fill: none; stroke: #7a7a7a; stroke-width: 3; stroke-linecap: square"/>
   </g>
   <g id="line2d_73">
    <path d="M 527.905262 112.362024 
L 433.214757 45.382587 
" clip-path="url(#p6a82ebdba2)" style="fill: none; stroke: #7a7a7a; stroke-width: 3; stroke-linecap: square"/>
   </g>
   <g id="line2d_74">
    <path d="M 537.440645 58.075483 
L 479.813762 17.067664 
L 455.581585 -1 
" clip-path="url(#p6a82ebdba2)" style="fill: none; stroke: #7a7a7a; stroke-width: 3; stroke-linecap: square"/>
   </g>
   <g id="line2d_75">
    <path d="M 191.513514 69.401452 
L 392.419899 226.012264 
L 393.08323 227.379192 
L 407.261931 237.533509 
" clip-path="url(#p6a82ebdba2)" style="fill: none; stroke: #7a7a7a; stroke-width: 3; stroke-linecap: square"/>
   </g>
   <g id="line2d_76">
    <path d="M 185.8752 128.960427 
L 400.960286 284.009037 
" clip-path="url(#p6a82ebdba2)" style="fill: none; stroke: #7a7a7a; stroke-width: 3; stroke-linecap: square"/>
   </g>
   <g id="line2d_77">
    <path d="M 433.214757 45.382587 
L 368.716604 -1 
" clip-path="url(#p6a82ebdba2)" style="fill: none; stroke: #7a7a7a; stroke-width: 3; stroke-linecap: square"/>
   </g>
   <g id="line2d_78">
    <path clip-path="url(#p6a82ebdba2)" style="fill: none; stroke: #7a7a7a; stroke-width: 3; stroke-linecap: square"/>
   </g>
   <g id="line2d_79">
    <path d="M 15.482043 6.132246 
L 15.896624 6.522797 
L 185.8752 128.960427 
" clip-path="url(#p6a82ebdba2)" style="fill: none; stroke: #7a7a7a; stroke-width: 3; stroke-linecap: square"/>
   </g>
   <g id="line2d_80">
    <path d="M 15.482043 70.768379 
L 15.979541 71.15893 
L 179.24189 189.300503 
" clip-path="url(#p6a82ebdba2)" style="fill: none; stroke: #7a7a7a; stroke-width: 3; stroke-linecap: square"/>
   </g>
   <g id="line2d_81">
    <path d="M 206.272629 789.772134 
L 206.770128 786.452454 
L 255.93954 416.210433 
" clip-path="url(#p6a82ebdba2)" style="fill: none; stroke: #7a7a7a; stroke-width: 3; stroke-linecap: square"/>
   </g>
   <g id="line2d_82">
    <path d="M 233.220452 789.772134 
L 233.635034 786.452454 
L 279.487792 434.566314 
" clip-path="url(#p6a82ebdba2)" style="fill: none; stroke: #7a7a7a; stroke-width: 3; stroke-linecap: square"/>
   </g>
   <g id="line2d_83">
    <path d="M 710.818792 372.664035 
L 683.290555 358.018386 
L 659.161889 347.473518 
L 646.558599 343.177461 
L 497.474951 274.440546 
" clip-path="url(#p6a82ebdba2)" style="fill: none; stroke: #7a7a7a; stroke-width: 3; stroke-linecap: square"/>
   </g>
   <g id="line2d_84">
    <path d="M 712.974618 310.957032 
L 500.874522 218.396527 
" clip-path="url(#p6a82ebdba2)" style="fill: none; stroke: #7a7a7a; stroke-width: 3; stroke-linecap: square"/>
   </g>
   <g id="line2d_85">
    <path d="M 197.400577 18.434592 
L 215.393431 28.979459 
L 232.557121 36.399922 
L 248.725815 40.500704 
L 263.899512 40.891254 
L 277.995297 37.376298 
L 290.930252 29.760561 
L 302.704378 18.044041 
L 313.317674 1.640913 
L 314.459615 -1 
" clip-path="url(#p6a82ebdba2)" style="fill: none; stroke: #7a7a7a; stroke-width: 3; stroke-linecap: square"/>
   </g>
   <g id="line2d_86">
    <path d="M 191.513514 69.401452 
L 214.315518 82.484899 
L 235.79086 91.467564 
L 255.856624 96.739998 
L 274.429893 97.91165 
L 291.593583 95.568346 
L 307.347695 89.319535 
L 321.692228 79.751044 
L 334.627183 66.472322 
L 346.069644 49.873919 
L 356.185442 29.955836 
L 364.808745 6.913347 
L 366.965232 -1 
" clip-path="url(#p6a82ebdba2)" style="fill: none; stroke: #7a7a7a; stroke-width: 3; stroke-linecap: square"/>
   </g>
   <g id="line2d_87">
    <path d="M 92.119303 -1 
L 191.513514 69.401452 
" clip-path="url(#p6a82ebdba2)" style="fill: none; stroke: #7a7a7a; stroke-width: 3; stroke-linecap: square"/>
   </g>
   <g id="line2d_88">
    <path d="M 15.482043 6.132246 
L 15.896624 6.522797 
L 185.8752 128.960427 
" clip-path="url(#p6a82ebdba2)" style="fill: none; stroke: #7a7a7a; stroke-width: 3; stroke-linecap: square"/>
   </g>
   <g id="line2d_89">
    <path d="M 761.729449 611.876311 
L 1021.838128 797.778423 
" clip-path="url(#p6a82ebdba2)" style="fill: none; stroke: #7a7a7a; stroke-width: 3; stroke-linecap: square"/>
   </g>
   <g id="line2d_90">
    <path d="M 761.729449 677.684096 
L 1013.463574 861.82873 
" clip-path="url(#p6a82ebdba2)" style="fill: none; stroke: #7a7a7a; stroke-width: 3; stroke-linecap: square"/>
   </g>
   <g id="line2d_91">
    <path clip-path="url(#p6a82ebdba2)" style="fill: none; stroke: #7a7a7a; stroke-width: 3; stroke-linecap: square"/>
   </g>
   <g id="line2d_92">
    <path clip-path="url(#p6a82ebdba2)" style="fill: none; stroke: #7a7a7a; stroke-width: 3; stroke-linecap: square"/>
   </g>
   <g id="line2d_93">
    <path d="M 255.93954 416.210433 
L 316.496084 -1 
" clip-path="url(#p6a82ebdba2)" style="fill: none; stroke: #7a7a7a; stroke-width: 3; stroke-linecap: square"/>
   </g>
   <g id="line2d_94">
    <path d="M 279.487792 434.566314 
L 285.540687 373.445137 
L 355.324205 -1 
" clip-path="url(#p6a82ebdba2)" style="fill: none; stroke: #7a7a7a; stroke-width: 3; stroke-linecap: square"/>
   </g>
   <g id="line2d_95">
    <path d="M 185.8752 128.960427 
L 400.960286 284.009037 
" clip-path="url(#p6a82ebdba2)" style="fill: none; stroke: #7a7a7a; stroke-width: 3; stroke-linecap: square"/>
   </g>
   <g id="line2d_96">
    <path d="M 179.24189 189.300503 
L 391.590735 343.177461 
" clip-path="url(#p6a82ebdba2)" style="fill: none; stroke: #7a7a7a; stroke-width: 3; stroke-linecap: square"/>
   </g>
   <g id="line2d_97">
    <path d="M 421.93813 94.006143 
L 284.525652 -1 
" clip-path="url(#p6a82ebdba2)" style="fill: none; stroke: #7a7a7a; stroke-width: 3; stroke-linecap: square"/>
   </g>
   <g id="line2d_98">
    <path d="M 433.214757 45.382587 
L 368.716604 -1 
" clip-path="url(#p6a82ebdba2)" style="fill: none; stroke: #7a7a7a; stroke-width: 3; stroke-linecap: square"/>
   </g>
   <g id="line2d_99">
    <path d="M 255.93954 416.210433 
L 206.770128 786.452454 
L 206.272629 789.772134 
" clip-path="url(#p6a82ebdba2)" style="fill: none; stroke: #7a7a7a; stroke-width: 3; stroke-linecap: square"/>
   </g>
   <g id="line2d_100">
    <path d="M 225.757978 407.618319 
L 175.013155 784.304425 
L 174.847322 785.866628 
L 174.764406 786.452454 
L 174.266907 789.772134 
" clip-path="url(#p6a82ebdba2)" style="fill: none; stroke: #7a7a7a; stroke-width: 3; stroke-linecap: square"/>
   </g>
   <g id="line2d_101">
    <path d="M 761.729449 345.71604 
L 761.4807 345.520765 
L 759.241958 343.763287 
L 758.329877 343.177461 
L 757.998212 342.982185 
L 712.974618 310.957032 
" clip-path="url(#p6a82ebdba2)" style="fill: none; stroke: #7a7a7a; stroke-width: 3; stroke-linecap: square"/>
   </g>
   <g id="line2d_102">
    <path d="M 761.729449 284.204312 
L 761.4807 284.009037 
L 759.324874 282.446834 
L 758.329877 281.665733 
L 758.081128 281.470457 
L 718.530016 253.741361 
" clip-path="url(#p6a82ebdba2)" style="fill: none; stroke: #7a7a7a; stroke-width: 3; stroke-linecap: square"/>
   </g>
   <g id="line2d_103">
    <path d="M 179.24189 189.300503 
L 391.590735 343.177461 
" clip-path="url(#p6a82ebdba2)" style="fill: none; stroke: #7a7a7a; stroke-width: 3; stroke-linecap: square"/>
   </g>
   <g id="line2d_104">
    <path d="M 173.852325 247.883101 
L 178.246894 250.03113 
L 188.694357 257.451592 
L 192.259761 261.552374 
L 381.64077 401.564784 
" clip-path="url(#p6a82ebdba2)" style="fill: none; stroke: #7a7a7a; stroke-width: 3; stroke-linecap: square"/>
   </g>
   <g id="line2d_105">
    <path d="M 761.729449 284.204312 
L 761.4807 284.009037 
L 759.324874 282.446834 
L 758.329877 281.665733 
L 758.081128 281.470457 
L 718.530016 253.741361 
" clip-path="url(#p6a82ebdba2)" style="fill: none; stroke: #7a7a7a; stroke-width: 3; stroke-linecap: square"/>
   </g>
   <g id="line2d_106">
    <path d="M 761.729449 219.177628 
L 761.4807 218.982353 
L 759.324874 217.42015 
L 758.412794 216.639049 
L 758.081128 216.443773 
L 726.158323 194.768212 
" clip-path="url(#p6a82ebdba2)" style="fill: none; stroke: #7a7a7a; stroke-width: 3; stroke-linecap: square"/>
   </g>
   <g id="line2d_107">
    <path d="M 311.35901 -1 
L 255.93954 416.210433 
" clip-path="url(#p6a82ebdba2)" style="fill: none; stroke: #7a7a7a; stroke-width: 3; stroke-linecap: square"/>
   </g>
   <g id="line2d_108">
    <path d="M 265.351305 -1 
L 225.757978 407.618319 
" clip-path="url(#p6a82ebdba2)" style="fill: none; stroke: #7a7a7a; stroke-width: 3; stroke-linecap: square"/>
   </g>
   <g id="line2d_109">
    <path clip-path="url(#p6a82ebdba2)" style="fill: none; stroke: #7a7a7a; stroke-width: 3; stroke-linecap: square"/>
   </g>
   <g id="line2d_110">
    <path clip-path="url(#p6a82ebdba2)" style="fill: none; stroke: #7a7a7a; stroke-width: 3; stroke-linecap: square"/>
   </g>
   <g id="line2d_111">
    <path d="M 391.590735 343.177461 
L 761.729449 611.876311 
" clip-path="url(#p6a82ebdba2)" style="fill: none; stroke: #7a7a7a; stroke-width: 3; stroke-linecap: square"/>
   </g>
   <g id="line2d_112">
    <path d="M 381.64077 401.564784 
L 761.729449 677.684096 
" clip-path="url(#p6a82ebdba2)" style="fill: none; stroke: #7a7a7a; stroke-width: 3; stroke-linecap: square"/>
   </g>
   <g id="line2d_113">
    <path d="M 1248.614423 203.946152 
L 1248.531507 204.727254 
L 1218.432862 432.22301 
" clip-path="url(#p6a82ebdba2)" style="fill: none; stroke: #7a7a7a; stroke-width: 3; stroke-linecap: square"/>
   </g>
   <g id="line2d_114">
    <path d="M 1220.422855 203.946152 
L 1220.339938 204.531978 
L 1192.14837 413.086028 
" clip-path="url(#p6a82ebdba2)" style="fill: none; stroke: #7a7a7a; stroke-width: 3; stroke-linecap: square"/>
   </g>
   <g id="line2d_115">
    <path d="M 1220.422855 203.946152 
L 1220.339938 204.531978 
L 1192.14837 413.086028 
" clip-path="url(#p6a82ebdba2)" style="fill: none; stroke: #7a7a7a; stroke-width: 3; stroke-linecap: square"/>
   </g>
   <g id="line2d_116">
    <path d="M 1188.2513 203.946152 
L 1162.630139 391.801017 
" clip-path="url(#p6a82ebdba2)" style="fill: none; stroke: #7a7a7a; stroke-width: 3; stroke-linecap: square"/>
   </g>
   <g id="line2d_117">
    <path clip-path="url(#p6a82ebdba2)" style="fill: none; stroke: #7a7a7a; stroke-width: 3; stroke-linecap: square"/>
   </g>
   <g id="line2d_118">
    <path clip-path="url(#p6a82ebdba2)" style="fill: none; stroke: #7a7a7a; stroke-width: 3; stroke-linecap: square"/>
   </g>
   <g id="line2d_119">
    <path clip-path="url(#p6a82ebdba2)" style="fill: none; stroke: #7a7a7a; stroke-width: 3; stroke-linecap: square"/>
   </g>
   <g id="line2d_120">
    <path clip-path="url(#p6a82ebdba2)" style="fill: none; stroke: #7a7a7a; stroke-width: 3; stroke-linecap: square"/>
   </g>
   <g id="line2d_121">
    <path d="M 710.818792 372.664035 
L 500.874522 218.396527 
" clip-path="url(#p6a82ebdba2)" style="fill: none; stroke: #7a7a7a; stroke-width: 3; stroke-linecap: square"/>
   </g>
   <g id="line2d_122">
    <path d="M 712.974618 310.957032 
L 519.613624 167.234391 
" clip-path="url(#p6a82ebdba2)" style="fill: none; stroke: #7a7a7a; stroke-width: 3; stroke-linecap: square"/>
   </g>
   <g id="line2d_123">
    <path d="M 233.220452 789.772134 
L 233.635034 786.452454 
L 279.487792 434.566314 
" clip-path="url(#p6a82ebdba2)" style="fill: none; stroke: #7a7a7a; stroke-width: 3; stroke-linecap: square"/>
   </g>
   <g id="line2d_124">
    <path d="M 258.261199 789.772134 
L 258.758697 786.452454 
L 259.007446 784.694976 
L 269.703659 699.945484 
L 278.658628 630.818018 
L 297.895228 488.267029 
L 302.538545 452.336369 
" clip-path="url(#p6a82ebdba2)" style="fill: none; stroke: #7a7a7a; stroke-width: 3; stroke-linecap: square"/>
   </g>
   <g id="line2d_125">
    <path d="M 1021.838128 797.778423 
L 1029.798101 803.636682 
L 1040.328481 811.25242 
L 1052.848854 825.312244 
L 1064.042565 847.18308 
L 1073.246283 875.302728 
L 1080.128342 908.108983 
L 1084.025412 943.844367 
L 1084.52291 980.751404 
L 1080.957506 1017.072615 
" clip-path="url(#p6a82ebdba2)" style="fill: none; stroke: #7a7a7a; stroke-width: 3; stroke-linecap: square"/>
   </g>
   <g id="line2d_126">
    <path d="M 1013.463574 861.82873 
L 1031.953926 875.302728 
L 1045.635129 890.534203 
L 1056.663007 914.748344 
L 1064.291314 944.625469 
L 1067.856718 976.455347 
L 1066.530056 1006.723023 
" clip-path="url(#p6a82ebdba2)" style="fill: none; stroke: #7a7a7a; stroke-width: 3; stroke-linecap: square"/>
   </g>
   <g id="line2d_127">
    <path clip-path="url(#p6a82ebdba2)" style="fill: none; stroke: #7a7a7a; stroke-width: 3; stroke-linecap: square"/>
   </g>
   <g id="line2d_128">
    <path clip-path="url(#p6a82ebdba2)" style="fill: none; stroke: #7a7a7a; stroke-width: 3; stroke-linecap: square"/>
   </g>
   <g id="line2d_129">
    <path d="M 407.261931 237.533509 
L 518.701544 317.596393 
L 558.003907 343.372736 
L 591.170458 366.6105 
L 595.565026 370.125456 
L 601.369173 373.835687 
L 614.138295 382.818352 
L 636.940299 400.588407 
L 761.729449 490.024507 
" clip-path="url(#p6a82ebdba2)" style="fill: none; stroke: #7a7a7a; stroke-width: 3; stroke-linecap: square"/>
   </g>
   <g id="line2d_130">
    <path d="M 400.960286 284.009037 
L 761.729449 546.849627 
" clip-path="url(#p6a82ebdba2)" style="fill: none; stroke: #7a7a7a; stroke-width: 3; stroke-linecap: square"/>
   </g>
   <g id="line2d_131">
    <path d="M 279.487792 434.566314 
L 287.281931 378.912846 
L 294.329823 349.035721 
L 303.036043 325.016855 
L 315.888082 309.590105 
L 333.715103 303.341294 
L 369.783728 327.360159 
L 391.590735 343.177461 
" clip-path="url(#p6a82ebdba2)" style="fill: none; stroke: #7a7a7a; stroke-width: 3; stroke-linecap: square"/>
   </g>
   <g id="line2d_132">
    <path d="M 302.538545 452.336369 
L 306.269782 422.459244 
L 307.347695 418.358462 
L 310.083935 404.689189 
L 313.732256 392.191568 
L 317.712242 383.794729 
L 320.365566 378.32702 
L 325.755131 372.46876 
L 331.890943 370.516007 
L 337.943838 370.320731 
L 350.04963 376.569542 
L 359.833762 385.747482 
L 367.876651 391.605742 
L 381.64077 401.564784 
" clip-path="url(#p6a82ebdba2)" style="fill: none; stroke: #7a7a7a; stroke-width: 3; stroke-linecap: square"/>
   </g>
   <g id="line2d_133">
    <path d="M 400.960286 284.009037 
L 761.729449 546.849627 
" clip-path="url(#p6a82ebdba2)" style="fill: none; stroke: #7a7a7a; stroke-width: 3; stroke-linecap: square"/>
   </g>
   <g id="line2d_134">
    <path d="M 391.590735 343.177461 
L 761.729449 611.876311 
" clip-path="url(#p6a82ebdba2)" style="fill: none; stroke: #7a7a7a; stroke-width: 3; stroke-linecap: square"/>
   </g>
   <g id="line2d_135">
    <path d="M 497.474951 274.440546 
L 399.219042 204.336703 
" clip-path="url(#p6a82ebdba2)" style="fill: none; stroke: #7a7a7a; stroke-width: 3; stroke-linecap: square"/>
   </g>
   <g id="line2d_136">
    <path d="M 500.874522 218.396527 
L 410.24692 148.292684 
" clip-path="url(#p6a82ebdba2)" style="fill: none; stroke: #7a7a7a; stroke-width: 3; stroke-linecap: square"/>
   </g>
   <g id="line2d_137">
    <path d="M 255.93954 416.210433 
L 265.060342 321.697175 
L 267.216168 289.672021 
L 269.786575 259.013795 
L 270.698656 226.793366 
L 269.869492 193.59656 
L 267.133251 160.399755 
L 262.489934 127.5935 
L 255.690791 96.154172 
L 246.818739 66.667597 
L 235.707944 39.914878 
L 222.27549 16.677114 
L 207.493411 -1 
" clip-path="url(#p6a82ebdba2)" style="fill: none; stroke: #7a7a7a; stroke-width: 3; stroke-linecap: square"/>
   </g>
   <g id="line2d_138">
    <path d="M 279.487792 434.566314 
L 290.184004 340.834157 
L 293.003161 310.175931 
L 296.402733 279.127153 
L 298.558559 246.516174 
L 299.304806 212.733542 
L 298.475642 178.56036 
L 295.988151 144.191902 
L 291.676499 110.604546 
L 285.374855 77.993566 
L 276.917384 47.33534 
L 266.138255 18.825142 
L 255.998383 -1 
" clip-path="url(#p6a82ebdba2)" style="fill: none; stroke: #7a7a7a; stroke-width: 3; stroke-linecap: square"/>
   </g>
   <g id="line2d_139">
    <path d="M 171.220854 -1 
L 197.400577 18.434592 
" clip-path="url(#p6a82ebdba2)" style="fill: none; stroke: #7a7a7a; stroke-width: 3; stroke-linecap: square"/>
   </g>
   <g id="line2d_140">
    <path d="M 92.119303 -1 
L 191.513514 69.401452 
" clip-path="url(#p6a82ebdba2)" style="fill: none; stroke: #7a7a7a; stroke-width: 3; stroke-linecap: square"/>
   </g>
   <g id="line2d_141">
    <path d="M 1262.046877 463.467062 
L 1258.978971 483.775696 
L 1255.911065 508.380388 
L 1255.745232 511.504793 
L 1230.289904 706.584845 
L 1227.304914 745.63991 
L 1230.289904 784.4997 
L 1237.91821 818.868158 
L 1249.111922 844.253951 
L 1255.828148 851.479138 
L 1257.983974 853.04134 
L 1262.793124 856.556296 
" clip-path="url(#p6a82ebdba2)" style="fill: none; stroke: #7a7a7a; stroke-width: 3; stroke-linecap: square"/>
   </g>
   <g id="line2d_142">
    <path d="M 1218.432862 432.22301 
L 1186.675889 675.145517 
L 1184.105481 703.85099 
L 1185.183394 736.266695 
L 1189.660878 770.830428 
L 1197.372101 805.39416 
L 1207.985398 838.395691 
L 1221.252018 867.68699 
L 1237.00613 891.51058 
L 1254.998984 908.108983 
" clip-path="url(#p6a82ebdba2)" style="fill: none; stroke: #7a7a7a; stroke-width: 3; stroke-linecap: square"/>
   </g>
   <g id="line2d_143">
    <path d="M 718.530016 253.741361 
L 527.905262 112.362024 
" clip-path="url(#p6a82ebdba2)" style="fill: none; stroke: #7a7a7a; stroke-width: 3; stroke-linecap: square"/>
   </g>
   <g id="line2d_144">
    <path d="M 726.158323 194.768212 
L 706.921723 181.684765 
L 612.89455 112.752575 
L 537.440645 58.075483 
" clip-path="url(#p6a82ebdba2)" style="fill: none; stroke: #7a7a7a; stroke-width: 3; stroke-linecap: square"/>
   </g>
   <g id="line2d_145">
    <path d="M 179.24189 189.300503 
L 199.722236 204.141428 
L 213.403438 216.834324 
L 225.923811 236.361857 
L 236.785857 261.357099 
L 245.574993 290.453122 
L 251.710805 322.478276 
L 256.685788 354.698705 
L 256.602871 390.238815 
L 255.93954 416.210433 
" clip-path="url(#p6a82ebdba2)" style="fill: none; stroke: #7a7a7a; stroke-width: 3; stroke-linecap: square"/>
   </g>
   <g id="line2d_146">
    <path d="M 173.852325 247.883101 
L 178.246894 250.03113 
L 188.694357 257.451592 
L 191.347681 260.380722 
L 194.332671 262.724026 
L 205.775131 272.683068 
L 215.559264 295.725556 
L 222.855905 328.141261 
L 226.587142 366.415225 
L 225.757978 407.618319 
" clip-path="url(#p6a82ebdba2)" style="fill: none; stroke: #7a7a7a; stroke-width: 3; stroke-linecap: square"/>
   </g>
   <g id="line2d_147">
    <path d="M 761.729449 407.423043 
L 761.397783 407.227768 
L 759.159041 405.665566 
L 758.246961 404.884464 
L 757.998212 404.689189 
L 713.140451 373.835687 
L 710.818792 372.664035 
" clip-path="url(#p6a82ebdba2)" style="fill: none; stroke: #7a7a7a; stroke-width: 3; stroke-linecap: square"/>
   </g>
   <g id="line2d_148">
    <path d="M 761.729449 345.71604 
L 761.4807 345.520765 
L 759.241958 343.763287 
L 758.329877 343.177461 
L 757.998212 342.982185 
L 712.974618 310.957032 
" clip-path="url(#p6a82ebdba2)" style="fill: none; stroke: #7a7a7a; stroke-width: 3; stroke-linecap: square"/>
   </g>
   <g id="line2d_149">
    <path d="M 1193.06045 203.946152 
L 1149.943933 379.303396 
" clip-path="url(#p6a82ebdba2)" style="fill: none; stroke: #7a7a7a; stroke-width: 3; stroke-linecap: square"/>
   </g>
   <g id="line2d_150">
    <path d="M 1161.718059 203.946152 
L 1130.790249 368.172703 
" clip-path="url(#p6a82ebdba2)" style="fill: none; stroke: #7a7a7a; stroke-width: 3; stroke-linecap: square"/>
   </g>
   <g id="line2d_151">
    <path d="M 437.673881 284.863128 
L 781.092124 568.891056 
" clip-path="url(#p6a82ebdba2)" style="fill: none; stroke-dasharray: 32,8,5,8; stroke-dashoffset: 0; stroke: #1e90ff; stroke-width: 5"/>
   </g>
   <g id="line2d_152">
    <path d="M 969.100862 742.535505 
L 1060.116061 802.717587 
" clip-path="url(#p6a82ebdba2)" style="fill: none; stroke-dasharray: 32,8,5,8; stroke-dashoffset: 0; stroke: #1e90ff; stroke-width: 5"/>
   </g>
   <g id="line2d_153">
    <path d="M 767.006613 639.297561 
L 963.015739 799.164038 
" clip-path="url(#p6a82ebdba2)" style="fill: none; stroke-dasharray: 32,8,5,8; stroke-dashoffset: 0; stroke: #1e90ff; stroke-width: 5"/>
   </g>
   <g id="line2d_154">
    <path d="M 1299.748646 600.525861 
L 1315.625432 601.015122 
" clip-path="url(#p6a82ebdba2)" style="fill: none; stroke-dasharray: 32,8,5,8; stroke-dashoffset: 0; stroke: #1e90ff; stroke-width: 5"/>
   </g>
   <g id="line2d_155">
    <path d="M 165.832757 97.637664 
L 180.64032 112.221336 
" clip-path="url(#p6a82ebdba2)" style="fill: none; stroke-dasharray: 32,8,5,8; stroke-dashoffset: 0; stroke: #1e90ff; stroke-width: 5"/>
   </g>
   <g id="line2d_156">
    <path d="M 1285.754989 838.416954 
L 1287.911908 854.174018 
" clip-path="url(#p6a82ebdba2)" style="fill: none; stroke-dasharray: 32,8,5,8; stroke-dashoffset: 0; stroke: #1e90ff; stroke-width: 5"/>
   </g>
   <g id="line2d_157">
    <path d="M 524.470133 470.479871 
L 669.529513 590.681644 
" clip-path="url(#p6a82ebdba2)" style="fill: none; stroke-dasharray: 32,8,5,8; stroke-dashoffset: 0; stroke: #1e90ff; stroke-width: 5"/>
   </g>
   <g id="line2d_158">
    <path d="M 437.673881 284.863128 
" clip-path="url(#p6a82ebdba2)" style="fill: none; stroke: #0000ff; stroke-width: 1.5; stroke-linecap: square"/>
    <defs>
     <path id="m037dafd971" d="M 0 10 
C 2.652031 10 5.195799 8.946337 7.071068 7.071068 
C 8.946337 5.195799 10 2.652031 10 0 
C 10 -2.652031 8.946337 -5.195799 7.071068 -7.071068 
C 5.195799 -8.946337 2.652031 -10 0 -10 
C -2.652031 -10 -5.195799 -8.946337 -7.071068 -7.071068 
C -8.946337 -5.195799 -10 -2.652031 -10 0 
C -10 2.652031 -8.946337 5.195799 -7.071068 7.071068 
C -5.195799 8.946337 -2.652031 10 0 10 
z
" style="stroke: #0000ff"/>
    </defs>
    <g clip-path="url(#p6a82ebdba2)">
     <use xlink:href="#m037dafd971" x="437.673881" y="284.863128" style="fill: #0000ff; stroke: #0000ff"/>
    </g>
   </g>
   <g id="line2d_159">
    <path d="M 969.100862 742.535505 
" clip-path="url(#p6a82ebdba2)" style="fill: none; stroke: #0000ff; stroke-width: 1.5; stroke-linecap: square"/>
    <g clip-path="url(#p6a82ebdba2)">
     <use xlink:href="#m037dafd971" x="969.100862" y="742.535505" style="fill: #0000ff; stroke: #0000ff"/>
    </g>
   </g>
   <g id="line2d_160">
    <path d="M 767.006613 639.297561 
" clip-path="url(#p6a82ebdba2)" style="fill: none; stroke: #0000ff; stroke-width: 1.5; stroke-linecap: square"/>
    <g clip-path="url(#p6a82ebdba2)">
     <use xlink:href="#m037dafd971" x="767.006613" y="639.297561" style="fill: #0000ff; stroke: #0000ff"/>
    </g>
   </g>
   <g id="line2d_161">
    <path d="M 1299.748646 600.525861 
" clip-path="url(#p6a82ebdba2)" style="fill: none; stroke: #0000ff; stroke-width: 1.5; stroke-linecap: square"/>
    <g clip-path="url(#p6a82ebdba2)">
     <use xlink:href="#m037dafd971" x="1299.748646" y="600.525861" style="fill: #0000ff; stroke: #0000ff"/>
    </g>
   </g>
   <g id="line2d_162">
    <path d="M 165.832757 97.637664 
" clip-path="url(#p6a82ebdba2)" style="fill: none; stroke: #0000ff; stroke-width: 1.5; stroke-linecap: square"/>
    <g clip-path="url(#p6a82ebdba2)">
     <use xlink:href="#m037dafd971" x="165.832757" y="97.637664" style="fill: #0000ff; stroke: #0000ff"/>
    </g>
   </g>
   <g id="line2d_163">
    <path d="M 1285.754989 838.416954 
" clip-path="url(#p6a82ebdba2)" style="fill: none; stroke: #0000ff; stroke-width: 1.5; stroke-linecap: square"/>
    <g clip-path="url(#p6a82ebdba2)">
     <use xlink:href="#m037dafd971" x="1285.754989" y="838.416954" style="fill: #0000ff; stroke: #0000ff"/>
    </g>
   </g>
   <g id="line2d_164">
    <path d="M 524.470133 470.479871 
" clip-path="url(#p6a82ebdba2)" style="fill: none; stroke: #0000ff; stroke-width: 1.5; stroke-linecap: square"/>
    <g clip-path="url(#p6a82ebdba2)">
     <use xlink:href="#m037dafd971" x="524.470133" y="470.479871" style="fill: #0000ff; stroke: #0000ff"/>
    </g>
   </g>
   <g id="line2d_165">
    <path d="M 781.092124 568.891056 
" clip-path="url(#p6a82ebdba2)" style="fill: none; stroke: #ff0000; stroke-width: 1.5; stroke-linecap: square"/>
    <defs>
     <path id="m3a1e85dcfc" d="M 0 -10 
L -2.24514 -3.09017 
L -9.510565 -3.09017 
L -3.632713 1.18034 
L -5.877853 8.09017 
L -0 3.81966 
L 5.877853 8.09017 
L 3.632713 1.18034 
L 9.510565 -3.09017 
L 2.24514 -3.09017 
z
" style="stroke: #ff0000; stroke-linejoin: bevel"/>
    </defs>
    <g clip-path="url(#p6a82ebdba2)">
     <use xlink:href="#m3a1e85dcfc" x="781.092124" y="568.891056" style="fill: #ff0000; stroke: #ff0000; stroke-linejoin: bevel"/>
    </g>
   </g>
   <g id="line2d_166">
    <path d="M 1060.116061 802.717587 
" clip-path="url(#p6a82ebdba2)" style="fill: none; stroke: #ff0000; stroke-width: 1.5; stroke-linecap: square"/>
    <g clip-path="url(#p6a82ebdba2)">
     <use xlink:href="#m3a1e85dcfc" x="1060.116061" y="802.717587" style="fill: #ff0000; stroke: #ff0000; stroke-linejoin: bevel"/>
    </g>
   </g>
   <g id="line2d_167">
    <path d="M 963.015739 799.164038 
" clip-path="url(#p6a82ebdba2)" style="fill: none; stroke: #ff0000; stroke-width: 1.5; stroke-linecap: square"/>
    <g clip-path="url(#p6a82ebdba2)">
     <use xlink:href="#m3a1e85dcfc" x="963.015739" y="799.164038" style="fill: #ff0000; stroke: #ff0000; stroke-linejoin: bevel"/>
    </g>
   </g>
   <g id="line2d_168">
    <path d="M 1315.625432 601.015122 
" clip-path="url(#p6a82ebdba2)" style="fill: none; stroke: #ff0000; stroke-width: 1.5; stroke-linecap: square"/>
    <g clip-path="url(#p6a82ebdba2)">
     <use xlink:href="#m3a1e85dcfc" x="1315.625432" y="601.015122" style="fill: #ff0000; stroke: #ff0000; stroke-linejoin: bevel"/>
    </g>
   </g>
   <g id="line2d_169">
    <path d="M 180.64032 112.221336 
" clip-path="url(#p6a82ebdba2)" style="fill: none; stroke: #ff0000; stroke-width: 1.5; stroke-linecap: square"/>
    <g clip-path="url(#p6a82ebdba2)">
     <use xlink:href="#m3a1e85dcfc" x="180.64032" y="112.221336" style="fill: #ff0000; stroke: #ff0000; stroke-linejoin: bevel"/>
    </g>
   </g>
   <g id="line2d_170">
    <path d="M 1287.911908 854.174018 
" clip-path="url(#p6a82ebdba2)" style="fill: none; stroke: #ff0000; stroke-width: 1.5; stroke-linecap: square"/>
    <g clip-path="url(#p6a82ebdba2)">
     <use xlink:href="#m3a1e85dcfc" x="1287.911908" y="854.174018" style="fill: #ff0000; stroke: #ff0000; stroke-linejoin: bevel"/>
    </g>
   </g>
   <g id="line2d_171">
    <path d="M 669.529513 590.681644 
" clip-path="url(#p6a82ebdba2)" style="fill: none; stroke: #ff0000; stroke-width: 1.5; stroke-linecap: square"/>
    <g clip-path="url(#p6a82ebdba2)">
     <use xlink:href="#m3a1e85dcfc" x="669.529513" y="590.681644" style="fill: #ff0000; stroke: #ff0000; stroke-linejoin: bevel"/>
    </g>
   </g>
  </g>
 </g>
 <defs>
  <clipPath id="p6a82ebdba2">
   <rect x="0" y="0" width="1440" height="1440"/>
  </clipPath>
 </defs>
</svg>
