<?xml version="1.0" encoding="utf-8" standalone="no"?>
<!DOCTYPE svg PUBLIC "-//W3C//DTD SVG 1.1//EN"
  "http://www.w3.org/Graphics/SVG/1.1/DTD/svg11.dtd">
<svg xmlns:xlink="http://www.w3.org/1999/xlink" width="1440pt" height="1440pt" viewBox="0 0 1440 1440" xmlns="http://www.w3.org/2000/svg" version="1.1">
 <metadata>
  <rdf:RDF xmlns:dc="http://purl.org/dc/elements/1.1/" xmlns:cc="http://creativecommons.org/ns#" xmlns:rdf="http://www.w3.org/1999/02/22-rdf-syntax-ns#">
   <cc:Work>
    <dc:type rdf:resource="http://purl.org/dc/dcmitype/StillImage"/>
    <dc:date>2026-02-27T11:07:59.079147</dc:date>
    <dc:format>image/svg+xml</dc:format>
    <dc:creator>
     <cc:Agent>
      <dc:title>Matplotlib v3.7.3, https://matplotlib.org/</dc:title>
     </cc:Agent>
    </dc:creator>
   </cc:Work>
  </rdf:RDF>
 </metadata>
 <defs>
  <style type="text/css">*{stroke-linejoin: round; stroke-linecap: butt}</style>
 </defs>
 <g id="figure_1">
  <g id="patch_1">
   <path d="M 0 1440 
L 1440 1440 
L 1440 0 
L 0 0 
z
" style="fill: #ffffff"/>
  </g>
  <g id="axes_1">
   <g id="line2d_1">
    <path d="M 243.046367 1159.743646 
L 400.394688 999.537721 
L 400.582454 999.327844 
L 400.770221 999.117967 
" clip-path="url(#pdd2cc00103)" style="fill: none; stroke: #7a7a7a; stroke-width: 3; stroke-linecap: square"/>
   </g>
   <g id="line2d_2">
    <path d="M 256.190021 1174.085225 
L 338.807278 1088.105713 
L 400.394688 1025.142685 
L 400.582454 1024.932808 
L 400.770221 1024.722932 
" clip-path="url(#pdd2cc00103)" style="fill: none; stroke: #7a7a7a; stroke-width: 3; stroke-linecap: square"/>
   </g>
   <g id="line2d_3">
    <path d="M 126.568552 1252.649091 
L 229.777535 1145.122232 
" clip-path="url(#pdd2cc00103)" style="fill: none; stroke: #7a7a7a; stroke-width: 3; stroke-linecap: square"/>
   </g>
   <g id="line2d_4">
    <path d="M 139.086318 1267.760218 
L 243.046367 1159.743646 
" clip-path="url(#pdd2cc00103)" style="fill: none; stroke: #7a7a7a; stroke-width: 3; stroke-linecap: square"/>
   </g>
   <g id="line2d_5">
    <path d="M -1 1384.673098 
L 126.568552 1252.649091 
" clip-path="url(#pdd2cc00103)" style="fill: none; stroke: #7a7a7a; stroke-width: 3; stroke-linecap: square"/>
   </g>
   <g id="line2d_6">
    <path d="M -1 1412.54989 
L 139.086318 1267.760218 
" clip-path="url(#pdd2cc00103)" style="fill: none; stroke: #7a7a7a; stroke-width: 3; stroke-linecap: square"/>
   </g>
   <g id="line2d_7">
    <path d="M 114.36373 1122.525501 
L 20.230128 1008.282586 
" clip-path="url(#pdd2cc00103)" style="fill: none; stroke: #7a7a7a; stroke-width: 3; stroke-linecap: square"/>
   </g>
   <g id="line2d_8">
    <path d="M 135.393577 1101.607784 
L 71.55297 1024.16326 
L 59.598503 1009.821682 
L 48.645458 996.31961 
L 41.885864 988.064458 
" clip-path="url(#pdd2cc00103)" style="fill: none; stroke: #7a7a7a; stroke-width: 3; stroke-linecap: square"/>
   </g>
   <g id="line2d_9">
    <path d="M -1 1412.54989 
L 139.086318 1267.760218 
" clip-path="url(#pdd2cc00103)" style="fill: none; stroke: #7a7a7a; stroke-width: 3; stroke-linecap: square"/>
   </g>
   <g id="line2d_10">
    <path d="M -1 1439.391361 
L -0.173831 1438.52994 
L 58.284137 1378.505187 
L 125.003831 1309.665611 
L 151.353729 1282.871345 
L 151.478907 1282.801386 
" clip-path="url(#pdd2cc00103)" style="fill: none; stroke: #7a7a7a; stroke-width: 3; stroke-linecap: square"/>
   </g>
   <g id="line2d_11">
    <path d="M 400.770221 939.512968 
L 400.582454 939.722844 
L 400.394688 939.862762 
L 216.508702 1130.640736 
" clip-path="url(#pdd2cc00103)" style="fill: none; stroke: #7a7a7a; stroke-width: 3; stroke-linecap: square"/>
   </g>
   <g id="line2d_12">
    <path d="M 400.770221 917.33599 
L 400.582454 917.475908 
L 400.394688 917.685785 
L 358.460171 960.150849 
L 205.743423 1118.817678 
" clip-path="url(#pdd2cc00103)" style="fill: none; stroke: #7a7a7a; stroke-width: 3; stroke-linecap: square"/>
   </g>
   <g id="line2d_13">
    <path d="M 114.301141 1237.8178 
L -1 1356.865294 
" clip-path="url(#pdd2cc00103)" style="fill: none; stroke: #7a7a7a; stroke-width: 3; stroke-linecap: square"/>
   </g>
   <g id="line2d_14">
    <path d="M 103.222918 1224.385688 
L -1 1332.146184 
" clip-path="url(#pdd2cc00103)" style="fill: none; stroke: #7a7a7a; stroke-width: 3; stroke-linecap: square"/>
   </g>
   <g id="line2d_15">
    <path d="M 400.770221 969.035632 
L 400.582454 969.245508 
L 400.394688 969.455385 
L 229.777535 1145.122232 
" clip-path="url(#pdd2cc00103)" style="fill: none; stroke: #7a7a7a; stroke-width: 3; stroke-linecap: square"/>
   </g>
   <g id="line2d_16">
    <path d="M 400.770221 939.512968 
L 400.582454 939.722844 
L 400.394688 939.862762 
L 216.508702 1130.640736 
" clip-path="url(#pdd2cc00103)" style="fill: none; stroke: #7a7a7a; stroke-width: 3; stroke-linecap: square"/>
   </g>
   <g id="line2d_17">
    <path d="M 20.230128 1008.282586 
L 114.36373 1122.525501 
" clip-path="url(#pdd2cc00103)" style="fill: none; stroke: #7a7a7a; stroke-width: 3; stroke-linecap: square"/>
   </g>
   <g id="line2d_18">
    <path d="M -0.924897 1028.011001 
L 93.709416 1143.093423 
" clip-path="url(#pdd2cc00103)" style="fill: none; stroke: #7a7a7a; stroke-width: 3; stroke-linecap: square"/>
   </g>
   <g id="line2d_19">
    <path d="M 229.777535 1145.122232 
L 400.394688 969.455385 
L 400.582454 969.245508 
L 400.770221 969.035632 
" clip-path="url(#pdd2cc00103)" style="fill: none; stroke: #7a7a7a; stroke-width: 3; stroke-linecap: square"/>
   </g>
   <g id="line2d_20">
    <path d="M 243.046367 1159.743646 
L 400.394688 999.537721 
L 400.582454 999.327844 
L 400.770221 999.117967 
" clip-path="url(#pdd2cc00103)" style="fill: none; stroke: #7a7a7a; stroke-width: 3; stroke-linecap: square"/>
   </g>
   <g id="line2d_21">
    <path d="M 126.568552 1252.649091 
L -1 1384.673098 
" clip-path="url(#pdd2cc00103)" style="fill: none; stroke: #7a7a7a; stroke-width: 3; stroke-linecap: square"/>
   </g>
   <g id="line2d_22">
    <path d="M 114.301141 1237.8178 
L -1 1356.865294 
" clip-path="url(#pdd2cc00103)" style="fill: none; stroke: #7a7a7a; stroke-width: 3; stroke-linecap: square"/>
   </g>
   <g id="line2d_23">
    <path d="M 114.36373 1122.525501 
L 125.817486 1136.447326 
L 134.517334 1146.871205 
L 144.34378 1154.98644 
L 154.921293 1160.862989 
L 166.062105 1164.500853 
L 177.453272 1166.109908 
L 188.907028 1165.620195 
L 200.04784 1163.241592 
L 210.813119 1158.974098 
L 220.764743 1152.887672 
L 229.777535 1145.122232 
" clip-path="url(#pdd2cc00103)" style="fill: none; stroke: #7a7a7a; stroke-width: 3; stroke-linecap: square"/>
   </g>
   <g id="line2d_24">
    <path d="M 93.709416 1143.093423 
L 105.163172 1157.015248 
L 113.487486 1166.249826 
L 122.875811 1174.085225 
L 133.015202 1180.451486 
L 143.84307 1185.41857 
L 155.171648 1188.846557 
L 166.81317 1190.735448 
L 178.579871 1191.155201 
L 190.346571 1189.965899 
L 201.925505 1187.167543 
L 213.191494 1182.760131 
L 223.894184 1176.743664 
L 233.908397 1169.048183 
L 243.046367 1159.743646 
" clip-path="url(#pdd2cc00103)" style="fill: none; stroke: #7a7a7a; stroke-width: 3; stroke-linecap: square"/>
   </g>
   <g id="line2d_25">
    <path d="M 139.086318 1267.760218 
L 243.046367 1159.743646 
" clip-path="url(#pdd2cc00103)" style="fill: none; stroke: #7a7a7a; stroke-width: 3; stroke-linecap: square"/>
   </g>
   <g id="line2d_26">
    <path d="M 151.478907 1282.801386 
L 256.190021 1174.085225 
" clip-path="url(#pdd2cc00103)" style="fill: none; stroke: #7a7a7a; stroke-width: 3; stroke-linecap: square"/>
   </g>
   <g id="line2d_27">
    <path d="M 229.777535 1145.122232 
L 126.568552 1252.649091 
" clip-path="url(#pdd2cc00103)" style="fill: none; stroke: #7a7a7a; stroke-width: 3; stroke-linecap: square"/>
   </g>
   <g id="line2d_28">
    <path d="M 216.508702 1130.640736 
L 114.301141 1237.8178 
" clip-path="url(#pdd2cc00103)" style="fill: none; stroke: #7a7a7a; stroke-width: 3; stroke-linecap: square"/>
   </g>
   <g id="line2d_29">
    <path d="M 216.508702 1130.640736 
L 202.551393 1145.402068 
L 189.470327 1155.196316 
L 178.016571 1160.862989 
L 167.439059 1162.542003 
L 157.988145 1161.772455 
L 149.16312 1158.274509 
L 140.58845 1152.188083 
L 132.138958 1144.072848 
L 123.501699 1134.068723 
L 114.36373 1122.525501 
" clip-path="url(#pdd2cc00103)" style="fill: none; stroke: #7a7a7a; stroke-width: 3; stroke-linecap: square"/>
   </g>
   <g id="line2d_30">
    <path d="M 205.743423 1118.817678 
L 196.542865 1128.40205 
L 191.535759 1133.019339 
L 186.09053 1136.727162 
L 181.897079 1138.266258 
L 179.643881 1138.406176 
L 176.639617 1138.686011 
L 175.763373 1138.546094 
L 170.818856 1137.916463 
L 170.06779 1137.706587 
L 168.503069 1137.216874 
L 167.626825 1136.797121 
L 165.999516 1136.097531 
L 161.931242 1133.299175 
L 157.550024 1128.751845 
L 155.672359 1126.443201 
L 154.733526 1125.463776 
L 145.97109 1114.760061 
L 135.393577 1101.607784 
" clip-path="url(#pdd2cc00103)" style="fill: none; stroke: #7a7a7a; stroke-width: 3; stroke-linecap: square"/>
   </g>
   <g id="line2d_31">
    <path d="M 126.568552 1252.649091 
L 139.274085 1239.426856 
L 144.030836 1232.151128 
L 147.598399 1220.957701 
L 149.663831 1207.175794 
L 150.039364 1192.134626 
L 148.412054 1177.093458 
L 144.531547 1163.311551 
L 138.147486 1152.188083 
L 114.36373 1122.525501 
" clip-path="url(#pdd2cc00103)" style="fill: none; stroke: #7a7a7a; stroke-width: 3; stroke-linecap: square"/>
   </g>
   <g id="line2d_32">
    <path d="M 139.086318 1267.760218 
L 151.85444 1254.607941 
L 158.989567 1244.95361 
L 164.559973 1233.34043 
L 168.503069 1220.258112 
L 171.006622 1206.196369 
L 172.070632 1191.644914 
L 171.820277 1177.303335 
L 170.380734 1163.521428 
L 167.689414 1150.858863 
L 163.934084 1139.945272 
L 159.239922 1131.200407 
L 135.393577 1101.607784 
" clip-path="url(#pdd2cc00103)" style="fill: none; stroke: #7a7a7a; stroke-width: 3; stroke-linecap: square"/>
   </g>
   <g id="line2d_33">
    <path d="M 216.508702 1130.640736 
L 114.301141 1237.8178 
" clip-path="url(#pdd2cc00103)" style="fill: none; stroke: #7a7a7a; stroke-width: 3; stroke-linecap: square"/>
   </g>
   <g id="line2d_34">
    <path d="M 205.743423 1118.817678 
L 196.542865 1128.40205 
L 195.416266 1129.451434 
L 118.932715 1208.155219 
L 118.11906 1209.204602 
L 103.222918 1224.385688 
" clip-path="url(#pdd2cc00103)" style="fill: none; stroke: #7a7a7a; stroke-width: 3; stroke-linecap: square"/>
   </g>
   <g id="line2d_35">
    <path d="M 114.36373 1122.525501 
L 139.336674 1154.007015 
L 145.908501 1166.59962 
L 148.537232 1178.982349 
L 148.474643 1189.825982 
L 145.282613 1200.179902 
L 140.150328 1209.414479 
L 134.016623 1217.459755 
L 114.301141 1237.8178 
" clip-path="url(#pdd2cc00103)" style="fill: none; stroke: #7a7a7a; stroke-width: 3; stroke-linecap: square"/>
   </g>
   <g id="line2d_36">
    <path d="M 93.709416 1143.093423 
L 101.220076 1152.607836 
L 116.053629 1169.397977 
L 120.059314 1174.854773 
L 123.188755 1180.521445 
L 124.878654 1185.908282 
L 125.379364 1190.875365 
L 125.191598 1194.44327 
L 124.690887 1197.03175 
L 123.752055 1200.179902 
L 122.437689 1202.978258 
L 120.372258 1206.266328 
L 118.11906 1209.204602 
L 103.222918 1224.385688 
" clip-path="url(#pdd2cc00103)" style="fill: none; stroke: #7a7a7a; stroke-width: 3; stroke-linecap: square"/>
   </g>
   <g id="line2d_37">
    <path d="M 400.770221 999.117967 
L 400.957987 998.978049 
L 401.083165 998.838131 
L 401.270932 998.628255 
L 629.469809 762.58686 
L 713.776965 674.018868 
" clip-path="url(#pdd2cc00103)" style="fill: none; stroke: #7a7a7a; stroke-width: 3; stroke-linecap: square"/>
   </g>
   <g id="line2d_38">
    <path d="M 400.770221 1024.722932 
L 400.957987 1024.513055 
L 401.083165 1024.443096 
L 401.33352 1024.16326 
L 490.522605 932.167281 
L 516.121436 906.212522 
L 529.953568 892.010861 
L 598.175394 820.442887 
L 641.361687 775.949014 
L 694.624783 721.381057 
L 713.714376 702.841943 
L 727.546508 689.829584 
" clip-path="url(#pdd2cc00103)" style="fill: none; stroke: #7a7a7a; stroke-width: 3; stroke-linecap: square"/>
   </g>
   <g id="line2d_39">
    <path d="M 776.303207 551.800636 
L 776.115441 551.940554 
L 775.990263 552.15043 
L 687.740011 644.14641 
" clip-path="url(#pdd2cc00103)" style="fill: none; stroke: #7a7a7a; stroke-width: 3; stroke-linecap: square"/>
   </g>
   <g id="line2d_40">
    <path d="M 776.303207 529.203905 
L 776.115441 529.413782 
L 775.990263 529.553699 
L 677.350265 631.273968 
" clip-path="url(#pdd2cc00103)" style="fill: none; stroke: #7a7a7a; stroke-width: 3; stroke-linecap: square"/>
   </g>
   <g id="line2d_41">
    <path d="M 701.259199 659.047659 
L 775.990263 582.022889 
L 776.115441 581.882971 
L 776.303207 581.743053 
" clip-path="url(#pdd2cc00103)" style="fill: none; stroke: #7a7a7a; stroke-width: 3; stroke-linecap: square"/>
   </g>
   <g id="line2d_42">
    <path d="M 713.776965 674.018868 
L 775.990263 609.376827 
L 776.115441 609.236909 
L 776.303207 609.027032 
" clip-path="url(#pdd2cc00103)" style="fill: none; stroke: #7a7a7a; stroke-width: 3; stroke-linecap: square"/>
   </g>
   <g id="line2d_43">
    <path d="M 687.740011 644.14641 
L 540.343314 795.957265 
L 486.704686 852.134277 
L 401.270932 938.953296 
L 401.083165 939.163173 
L 400.957987 939.303091 
L 400.770221 939.512968 
" clip-path="url(#pdd2cc00103)" style="fill: none; stroke: #7a7a7a; stroke-width: 3; stroke-linecap: square"/>
   </g>
   <g id="line2d_44">
    <path d="M 677.350265 631.273968 
L 565.75438 746.636227 
L 546.101487 766.784395 
L 428.872606 887.673408 
L 401.270932 916.776319 
L 401.083165 916.986196 
L 400.957987 917.126113 
L 400.770221 917.33599 
" clip-path="url(#pdd2cc00103)" style="fill: none; stroke: #7a7a7a; stroke-width: 3; stroke-linecap: square"/>
   </g>
   <g id="line2d_45">
    <path d="M 701.259199 659.047659 
L 401.270932 968.47596 
L 401.083165 968.685837 
L 400.957987 968.825755 
L 400.770221 969.035632 
" clip-path="url(#pdd2cc00103)" style="fill: none; stroke: #7a7a7a; stroke-width: 3; stroke-linecap: square"/>
   </g>
   <g id="line2d_46">
    <path d="M 687.740011 644.14641 
L 540.343314 795.957265 
L 486.704686 852.134277 
L 401.270932 938.953296 
L 401.083165 939.163173 
L 400.957987 939.303091 
L 400.770221 939.512968 
" clip-path="url(#pdd2cc00103)" style="fill: none; stroke: #7a7a7a; stroke-width: 3; stroke-linecap: square"/>
   </g>
   <g id="line2d_47">
    <path d="M 713.776965 674.018868 
L 776.115441 624.278076 
L 776.303207 624.138159 
" clip-path="url(#pdd2cc00103)" style="fill: none; stroke: #7a7a7a; stroke-width: 3; stroke-linecap: square"/>
   </g>
   <g id="line2d_48">
    <path d="M 727.546508 689.829584 
L 742.94336 676.537389 
L 751.142497 670.03121 
L 776.115441 652.261644 
L 776.303207 652.121726 
" clip-path="url(#pdd2cc00103)" style="fill: none; stroke: #7a7a7a; stroke-width: 3; stroke-linecap: square"/>
   </g>
   <g id="line2d_49">
    <path d="M 776.303207 581.743053 
L 776.115441 581.882971 
L 775.990263 582.022889 
L 701.259199 659.047659 
" clip-path="url(#pdd2cc00103)" style="fill: none; stroke: #7a7a7a; stroke-width: 3; stroke-linecap: square"/>
   </g>
   <g id="line2d_50">
    <path d="M 776.303207 551.800636 
L 776.115441 551.940554 
L 775.990263 552.15043 
L 687.740011 644.14641 
" clip-path="url(#pdd2cc00103)" style="fill: none; stroke: #7a7a7a; stroke-width: 3; stroke-linecap: square"/>
   </g>
   <g id="line2d_51">
    <path d="M 400.770221 969.035632 
L 400.957987 968.825755 
L 401.083165 968.685837 
L 401.270932 968.47596 
L 701.259199 659.047659 
" clip-path="url(#pdd2cc00103)" style="fill: none; stroke: #7a7a7a; stroke-width: 3; stroke-linecap: square"/>
   </g>
   <g id="line2d_52">
    <path d="M 400.770221 999.117967 
L 400.957987 998.978049 
L 401.083165 998.838131 
L 401.270932 998.628255 
L 629.469809 762.58686 
L 713.776965 674.018868 
" clip-path="url(#pdd2cc00103)" style="fill: none; stroke: #7a7a7a; stroke-width: 3; stroke-linecap: square"/>
   </g>
   <g id="line2d_53">
    <path d="M 713.776965 674.018868 
L 775.990263 609.376827 
L 776.115441 609.236909 
L 776.303207 609.027032 
" clip-path="url(#pdd2cc00103)" style="fill: none; stroke: #7a7a7a; stroke-width: 3; stroke-linecap: square"/>
   </g>
   <g id="line2d_54">
    <path d="M 727.546508 689.829584 
L 775.990263 639.808957 
L 776.115441 639.669039 
L 776.303207 639.459162 
" clip-path="url(#pdd2cc00103)" style="fill: none; stroke: #7a7a7a; stroke-width: 3; stroke-linecap: square"/>
   </g>
   <g id="line2d_55">
    <path d="M 988.354167 391.174957 
L 1370.110901 -1 
" clip-path="url(#pdd2cc00103)" style="fill: none; stroke: #7a7a7a; stroke-width: 3; stroke-linecap: square"/>
   </g>
   <g id="line2d_56">
    <path d="M 999.745334 406.845755 
L 1202.34538 197.878462 
L 1219.557308 180.108897 
L 1233.076496 166.257031 
L 1264.621267 133.726133 
L 1334.59558 60.968857 
L 1377.030807 17.454409 
L 1379.096239 15.355641 
L 1395.061541 -1 
" clip-path="url(#pdd2cc00103)" style="fill: none; stroke: #7a7a7a; stroke-width: 3; stroke-linecap: square"/>
   </g>
   <g id="line2d_57">
    <path d="M 951.051223 481.142127 
L 965.321477 498.002227 
" clip-path="url(#pdd2cc00103)" style="fill: none; stroke: #7a7a7a; stroke-width: 3; stroke-linecap: square"/>
   </g>
   <g id="line2d_58">
    <path d="M 916.251833 513.32323 
L 932.524929 532.981687 
" clip-path="url(#pdd2cc00103)" style="fill: none; stroke: #7a7a7a; stroke-width: 3; stroke-linecap: square"/>
   </g>
   <g id="line2d_59">
    <path d="M 976.337111 375.923912 
L 872.126707 483.52073 
" clip-path="url(#pdd2cc00103)" style="fill: none; stroke: #7a7a7a; stroke-width: 3; stroke-linecap: square"/>
   </g>
   <g id="line2d_60">
    <path d="M 963.694167 359.90332 
L 858.795286 467.290261 
" clip-path="url(#pdd2cc00103)" style="fill: none; stroke: #7a7a7a; stroke-width: 3; stroke-linecap: square"/>
   </g>
   <g id="line2d_61">
    <path d="M 963.694167 359.90332 
L 950.17498 373.965063 
L 938.220513 384.598818 
L 927.455234 391.944505 
L 917.628788 396.072081 
L 908.490818 397.121465 
L 899.728382 395.162615 
L 891.091123 390.265491 
L 879.324423 377.882762 
L 857.731276 352.907428 
" clip-path="url(#pdd2cc00103)" style="fill: none; stroke: #7a7a7a; stroke-width: 3; stroke-linecap: square"/>
   </g>
   <g id="line2d_62">
    <path d="M 953.36701 347.310714 
L 932.149396 368.088513 
L 930.522087 369.487692 
L 928.519244 370.607034 
L 925.01427 371.936254 
L 922.072595 372.286048 
L 918.442442 372.495925 
L 915.563356 371.796336 
L 912.809448 371.096747 
L 910.243306 369.837486 
L 905.236199 366.199622 
L 899.728382 359.973279 
L 877.196403 332.479423 
" clip-path="url(#pdd2cc00103)" style="fill: none; stroke: #7a7a7a; stroke-width: 3; stroke-linecap: square"/>
   </g>
   <g id="line2d_63">
    <path d="M 965.321477 498.002227 
L 971.58036 505.907585 
L 1036.484978 572.368558 
" clip-path="url(#pdd2cc00103)" style="fill: none; stroke: #7a7a7a; stroke-width: 3; stroke-linecap: square"/>
   </g>
   <g id="line2d_64">
    <path d="M 932.524929 532.981687 
L 995.426705 598.323317 
L 995.927415 598.673112 
L 1002.561831 605.389168 
L 1003.18772 606.158716 
" clip-path="url(#pdd2cc00103)" style="fill: none; stroke: #7a7a7a; stroke-width: 3; stroke-linecap: square"/>
   </g>
   <g id="line2d_65">
    <path d="M 872.126707 483.52073 
L 776.803918 581.253341 
L 776.553562 581.463218 
L 776.303207 581.743053 
" clip-path="url(#pdd2cc00103)" style="fill: none; stroke: #7a7a7a; stroke-width: 3; stroke-linecap: square"/>
   </g>
   <g id="line2d_66">
    <path d="M 858.795286 467.290261 
L 776.803918 551.240965 
L 776.553562 551.5208 
L 776.303207 551.800636 
" clip-path="url(#pdd2cc00103)" style="fill: none; stroke: #7a7a7a; stroke-width: 3; stroke-linecap: square"/>
   </g>
   <g id="line2d_67">
    <path d="M 955.995741 477.08451 
L 944.854929 464.282028 
L 933.839295 455.956916 
L 923.011427 451.689422 
L 912.934625 451.059792 
L 903.921834 453.508354 
L 896.473763 458.475437 
L 872.126707 483.52073 
" clip-path="url(#pdd2cc00103)" style="fill: none; stroke: #7a7a7a; stroke-width: 3; stroke-linecap: square"/>
   </g>
   <g id="line2d_68">
    <path d="M 991.984319 439.936324 
L 985.725436 431.331377 
L 977.213355 424.825197 
L 966.886198 420.417785 
L 955.244675 417.969223 
L 942.726909 417.47951 
L 929.771021 418.878689 
L 916.877722 422.166758 
L 904.547722 427.133841 
L 893.093966 433.849898 
L 883.142342 442.244968 
L 858.795286 467.290261 
" clip-path="url(#pdd2cc00103)" style="fill: none; stroke: #7a7a7a; stroke-width: 3; stroke-linecap: square"/>
   </g>
   <g id="line2d_69">
    <path d="M 976.337111 375.923912 
L 943.165031 410.063865 
L 937.156503 416.709962 
L 933.526351 426.57417 
L 932.712696 438.816981 
L 935.091071 452.598888 
L 941.03701 466.940467 
L 947.796604 476.524838 
L 948.109548 477.71414 
L 951.051223 481.142127 
" clip-path="url(#pdd2cc00103)" style="fill: none; stroke: #7a7a7a; stroke-width: 3; stroke-linecap: square"/>
   </g>
   <g id="line2d_70">
    <path d="M 963.694167 359.90332 
L 930.459498 393.973314 
L 921.071173 404.956864 
L 913.685691 416.779921 
L 908.240463 429.302568 
L 904.610311 442.175009 
L 902.670057 455.257327 
L 902.357113 468.199727 
L 903.608889 480.792333 
L 906.300209 492.755308 
L 910.305894 503.948735 
L 916.251833 513.32323 
" clip-path="url(#pdd2cc00103)" style="fill: none; stroke: #7a7a7a; stroke-width: 3; stroke-linecap: square"/>
   </g>
   <g id="line2d_71">
    <path d="M 857.731276 352.907428 
L 867.432545 364.660526 
L 885.020007 390.685244 
L 889.025692 402.928055 
L 890.152291 414.681154 
L 888.462392 425.94454 
L 884.331529 436.858131 
L 877.822291 447.351969 
L 869.247621 457.426053 
L 858.795286 467.290261 
" clip-path="url(#pdd2cc00103)" style="fill: none; stroke: #7a7a7a; stroke-width: 3; stroke-linecap: square"/>
   </g>
   <g id="line2d_72">
    <path d="M 836.889196 374.874528 
L 856.291733 398.590602 
L 864.303104 409.154399 
L 866.305946 412.512427 
L 867.18219 414.611195 
L 868.371378 418.878689 
L 868.997266 423.915731 
L 868.872088 427.483636 
L 867.995845 431.1215 
L 866.61889 434.33961 
L 864.678637 437.55772 
L 861.611784 441.47542 
L 858.482342 444.833448 
L 848.718485 454.837573 
" clip-path="url(#pdd2cc00103)" style="fill: none; stroke: #7a7a7a; stroke-width: 3; stroke-linecap: square"/>
   </g>
   <g id="line2d_73">
    <path d="M 857.731276 352.907428 
L 947.859193 476.734715 
L 948.109548 477.71414 
L 951.051223 481.142127 
" clip-path="url(#pdd2cc00103)" style="fill: none; stroke: #7a7a7a; stroke-width: 3; stroke-linecap: square"/>
   </g>
   <g id="line2d_74">
    <path d="M 836.889196 374.874528 
L 856.291733 398.590602 
L 864.303104 409.154399 
L 866.305946 412.512427 
L 867.18219 414.611195 
L 916.251833 513.32323 
" clip-path="url(#pdd2cc00103)" style="fill: none; stroke: #7a7a7a; stroke-width: 3; stroke-linecap: square"/>
   </g>
   <g id="line2d_75">
    <path d="M 857.731276 352.907428 
L 768.041481 244.471103 
" clip-path="url(#pdd2cc00103)" style="fill: none; stroke: #7a7a7a; stroke-width: 3; stroke-linecap: square"/>
   </g>
   <g id="line2d_76">
    <path d="M 877.196403 332.479423 
L 789.634628 225.792071 
" clip-path="url(#pdd2cc00103)" style="fill: none; stroke: #7a7a7a; stroke-width: 3; stroke-linecap: square"/>
   </g>
   <g id="line2d_77">
    <path d="M 1339.602686 285.327112 
L 1312.001012 287.565797 
L 1287.716545 290.57403 
L 1269.941317 294.771566 
L 1249.537359 301.207786 
L 1224.376648 312.121378 
L 1190.703857 334.088478 
L 1170.112132 351.228414 
L 1140.820559 379.072064 
L 1113.594418 406.635878 
L 1079.107972 443.014516 
" clip-path="url(#pdd2cc00103)" style="fill: none; stroke: #7a7a7a; stroke-width: 3; stroke-linecap: square"/>
   </g>
   <g id="line2d_78">
    <path d="M 1339.602686 256.92379 
L 1300.484667 259.372352 
L 1263.056546 265.738614 
L 1237.207359 273.853849 
L 1214.299847 283.298303 
L 1183.756497 298.409429 
L 1158.908731 315.409447 
L 1123.921575 346.401248 
L 1058.516246 414.611195 
" clip-path="url(#pdd2cc00103)" style="fill: none; stroke: #7a7a7a; stroke-width: 3; stroke-linecap: square"/>
   </g>
   <g id="line2d_79">
    <path d="M 857.731276 352.907428 
L 869.185032 366.829253 
L 878.698535 379.771653 
L 888.900514 389.63586 
L 899.665793 396.561794 
L 910.681427 400.829288 
L 921.75965 402.718178 
L 932.650107 402.438343 
L 943.165031 400.129698 
L 953.054066 396.14204 
L 962.004269 390.615285 
L 969.827873 383.82927 
L 976.337111 375.923912 
" clip-path="url(#pdd2cc00103)" style="fill: none; stroke: #7a7a7a; stroke-width: 3; stroke-linecap: square"/>
   </g>
   <g id="line2d_80">
    <path d="M 836.889196 374.874528 
L 856.291733 398.590602 
L 860.047063 403.557685 
L 862.550616 406.146165 
L 871.751174 413.00214 
L 882.015743 418.528894 
L 893.156555 422.65647 
L 904.985844 425.244951 
L 917.253255 426.154416 
L 929.771021 425.314909 
L 942.288787 422.65647 
L 954.618787 418.039182 
L 966.573253 411.323126 
L 977.901832 402.438343 
L 988.354167 391.174957 
" clip-path="url(#pdd2cc00103)" style="fill: none; stroke: #7a7a7a; stroke-width: 3; stroke-linecap: square"/>
   </g>
   <g id="line2d_81">
    <path d="M 1342.589842 -1 
L 976.337111 375.923912 
" clip-path="url(#pdd2cc00103)" style="fill: none; stroke: #7a7a7a; stroke-width: 3; stroke-linecap: square"/>
   </g>
   <g id="line2d_82">
    <path d="M 1313.999019 -1 
L 963.694167 359.90332 
" clip-path="url(#pdd2cc00103)" style="fill: none; stroke: #7a7a7a; stroke-width: 3; stroke-linecap: square"/>
   </g>
   <g id="line2d_83">
    <path d="M 872.126707 483.52073 
L 976.337111 375.923912 
" clip-path="url(#pdd2cc00103)" style="fill: none; stroke: #7a7a7a; stroke-width: 3; stroke-linecap: square"/>
   </g>
   <g id="line2d_84">
    <path d="M 884.206352 498.282062 
L 988.354167 391.174957 
" clip-path="url(#pdd2cc00103)" style="fill: none; stroke: #7a7a7a; stroke-width: 3; stroke-linecap: square"/>
   </g>
   <g id="line2d_85">
    <path d="M 858.795286 467.290261 
L 776.803918 551.240965 
L 776.553562 551.5208 
L 776.303207 551.800636 
" clip-path="url(#pdd2cc00103)" style="fill: none; stroke: #7a7a7a; stroke-width: 3; stroke-linecap: square"/>
   </g>
   <g id="line2d_86">
    <path d="M 848.718485 454.837573 
L 776.803918 528.714192 
L 776.553562 528.924069 
L 776.303207 529.203905 
" clip-path="url(#pdd2cc00103)" style="fill: none; stroke: #7a7a7a; stroke-width: 3; stroke-linecap: square"/>
   </g>
   <g id="line2d_87">
    <path d="M 776.303207 609.027032 
L 776.553562 608.817155 
L 776.803918 608.53732 
L 884.206352 498.282062 
" clip-path="url(#pdd2cc00103)" style="fill: none; stroke: #7a7a7a; stroke-width: 3; stroke-linecap: square"/>
   </g>
   <g id="line2d_88">
    <path d="M 776.303207 639.459162 
L 776.553562 639.249285 
L 776.741329 639.039408 
L 861.048484 552.919979 
L 897.537773 515.421998 
" clip-path="url(#pdd2cc00103)" style="fill: none; stroke: #7a7a7a; stroke-width: 3; stroke-linecap: square"/>
   </g>
   <g id="line2d_89">
    <path d="M 776.303207 624.138159 
L 776.553562 623.928282 
L 776.741329 623.788364 
L 820.803866 593.775988 
L 850.220617 579.154573 
L 861.987317 574.957038 
L 876.946047 569.710119 
L 904.985844 563.483775 
L 916.627366 560.335624 
L 925.264625 557.887062 
L 928.331478 557.117514 
L 931.335742 556.278007 
" clip-path="url(#pdd2cc00103)" style="fill: none; stroke: #7a7a7a; stroke-width: 3; stroke-linecap: square"/>
   </g>
   <g id="line2d_90">
    <path d="M 776.303207 652.121726 
L 776.553562 651.981809 
L 776.741329 651.841891 
L 783.438334 647.504438 
L 788.570618 644.286327 
L 799.085542 637.710189 
L 808.2861 632.323352 
L 818.049957 626.936515 
L 837.389906 617.56202 
L 845.276099 614.623746 
L 855.665845 610.776005 
L 862.613205 608.677237 
L 875.443915 604.759538 
L 878.448179 603.850072 
L 890.653001 600.352126 
L 928.957366 591.04759 
L 929.082544 591.04759 
L 936.906148 589.578452 
" clip-path="url(#pdd2cc00103)" style="fill: none; stroke: #7a7a7a; stroke-width: 3; stroke-linecap: square"/>
   </g>
   <g id="line2d_91">
    <path d="M 970.203406 492.055719 
L 960.126604 482.471347 
L 955.995741 477.08451 
" clip-path="url(#pdd2cc00103)" style="fill: none; stroke: #7a7a7a; stroke-width: 3; stroke-linecap: square"/>
   </g>
   <g id="line2d_92">
    <path d="M 1003.250308 454.347861 
L 1000.558989 450.709997 
L 997.366958 447.91164 
L 997.179192 447.701764 
L 994.174928 444.273777 
L 991.984319 439.936324 
" clip-path="url(#pdd2cc00103)" style="fill: none; stroke: #7a7a7a; stroke-width: 3; stroke-linecap: square"/>
   </g>
   <g id="line2d_93">
    <path d="M 776.303207 581.743053 
L 776.553562 581.463218 
L 776.803918 581.253341 
L 872.126707 483.52073 
" clip-path="url(#pdd2cc00103)" style="fill: none; stroke: #7a7a7a; stroke-width: 3; stroke-linecap: square"/>
   </g>
   <g id="line2d_94">
    <path d="M 776.303207 609.027032 
L 776.553562 608.817155 
L 776.803918 608.53732 
L 884.206352 498.282062 
" clip-path="url(#pdd2cc00103)" style="fill: none; stroke: #7a7a7a; stroke-width: 3; stroke-linecap: square"/>
   </g>
   <g id="line2d_95">
    <path d="M 931.335742 556.278007 
L 939.159345 557.047555 
L 945.418229 557.957021 
L 953.679954 558.65661 
L 964.257467 558.65661 
L 976.962999 558.446733 
L 988.667111 557.537267 
L 999.307212 557.607226 
L 1009.133659 558.936446 
L 1018.334217 561.664844 
L 1027.409597 566.072255 
L 1036.484978 572.368558 
" clip-path="url(#pdd2cc00103)" style="fill: none; stroke: #7a7a7a; stroke-width: 3; stroke-linecap: square"/>
   </g>
   <g id="line2d_96">
    <path d="M 936.906148 589.578452 
L 939.660056 589.368576 
L 950.926046 587.619603 
L 961.190614 587.549644 
L 961.503558 587.619603 
L 971.517771 588.179274 
L 979.278786 589.928247 
L 985.47508 592.726604 
L 990.169243 594.475577 
L 995.927415 598.673112 
L 1002.561831 605.389168 
L 1003.18772 606.158716 
" clip-path="url(#pdd2cc00103)" style="fill: none; stroke: #7a7a7a; stroke-width: 3; stroke-linecap: square"/>
   </g>
   <g id="line2d_97">
    <path d="M 931.335742 556.278007 
L 939.597467 557.327391 
L 945.793762 557.467308 
L 955.369853 552.710102 
L 1079.107972 443.014516 
" clip-path="url(#pdd2cc00103)" style="fill: none; stroke: #7a7a7a; stroke-width: 3; stroke-linecap: square"/>
   </g>
   <g id="line2d_98">
    <path d="M 936.906148 589.578452 
L 964.007111 583.212191 
L 972.769548 578.10519 
L 1068.280104 501.360255 
L 1099.762286 472.117427 
" clip-path="url(#pdd2cc00103)" style="fill: none; stroke: #7a7a7a; stroke-width: 3; stroke-linecap: square"/>
   </g>
   <g id="line2d_99">
    <path d="M 965.321477 498.002227 
L 967.762441 502.409639 
L 971.768126 506.327338 
L 977.964421 510.524873 
L 984.97437 511.574257 
L 996.428126 511.994011 
L 1007.631527 508.705941 
L 1017.708328 502.059844 
L 1079.107972 443.014516 
" clip-path="url(#pdd2cc00103)" style="fill: none; stroke: #7a7a7a; stroke-width: 3; stroke-linecap: square"/>
   </g>
   <g id="line2d_100">
    <path d="M 932.524929 532.981687 
L 948.046959 548.93232 
L 956.496452 553.549609 
L 967.324319 556.417925 
L 978.840664 557.327391 
L 990.920309 556.278007 
L 1003.18772 553.199814 
L 1015.392542 548.022854 
L 1027.28442 540.677168 
L 1038.612998 531.162755 
L 1064.149241 506.607174 
L 1064.337008 506.18742 
L 1065.839139 503.878776 
L 1068.280104 501.360255 
L 1069.657058 500.520748 
L 1079.17056 492.195636 
L 1099.762286 472.117427 
" clip-path="url(#pdd2cc00103)" style="fill: none; stroke: #7a7a7a; stroke-width: 3; stroke-linecap: square"/>
   </g>
   <g id="line2d_101">
    <path d="M 768.041481 244.471103 
L 857.731276 352.907428 
" clip-path="url(#pdd2cc00103)" style="fill: none; stroke: #7a7a7a; stroke-width: 3; stroke-linecap: square"/>
   </g>
   <g id="line2d_102">
    <path d="M 745.509502 263.42997 
L 772.798233 296.380621 
L 795.830922 324.92386 
L 836.889196 374.874528 
" clip-path="url(#pdd2cc00103)" style="fill: none; stroke: #7a7a7a; stroke-width: 3; stroke-linecap: square"/>
   </g>
   <g id="line2d_103">
    <path d="M 1036.484978 572.368558 
L 970.203406 492.055719 
" clip-path="url(#pdd2cc00103)" style="fill: none; stroke: #7a7a7a; stroke-width: 3; stroke-linecap: square"/>
   </g>
   <g id="line2d_104">
    <path d="M 1069.406703 539.417907 
L 1065.401018 535.010495 
L 1003.250308 454.347861 
" clip-path="url(#pdd2cc00103)" style="fill: none; stroke: #7a7a7a; stroke-width: 3; stroke-linecap: square"/>
   </g>
   <g id="line2d_105">
    <path d="M 955.995741 477.08451 
L 949.736858 468.899316 
L 949.298736 469.249111 
L 857.731276 352.907428 
" clip-path="url(#pdd2cc00103)" style="fill: none; stroke: #7a7a7a; stroke-width: 3; stroke-linecap: square"/>
   </g>
   <g id="line2d_106">
    <path d="M 991.984319 439.936324 
L 905.361377 365.779869 
L 899.728382 359.973279 
L 877.196403 332.479423 
" clip-path="url(#pdd2cc00103)" style="fill: none; stroke: #7a7a7a; stroke-width: 3; stroke-linecap: square"/>
   </g>
   <g id="line2d_107">
    <path d="M 1079.107972 443.014516 
L 1113.594418 406.635878 
L 1140.820559 379.072064 
L 1170.112132 351.228414 
L 1190.703857 334.088478 
L 1224.376648 312.121378 
L 1249.537359 301.207786 
L 1269.941317 294.771566 
L 1287.716545 290.57403 
L 1312.001012 287.565797 
L 1339.602686 285.327112 
" clip-path="url(#pdd2cc00103)" style="fill: none; stroke: #7a7a7a; stroke-width: 3; stroke-linecap: square"/>
   </g>
   <g id="line2d_108">
    <path d="M 1099.762286 472.117427 
L 1151.961371 418.668812 
L 1180.439289 390.125573 
L 1193.332588 377.882762 
L 1206.351065 366.549417 
L 1217.053755 358.224306 
L 1230.510354 349.479441 
L 1237.708069 345.491782 
L 1244.592841 342.133754 
L 1252.479034 338.49589 
L 1262.493247 334.438273 
L 1275.949845 329.681066 
L 1289.907155 325.133737 
L 1308.621215 321.285996 
L 1332.46756 318.277763 
L 1339.602686 317.78805 
" clip-path="url(#pdd2cc00103)" style="fill: none; stroke: #7a7a7a; stroke-width: 3; stroke-linecap: square"/>
   </g>
   <g id="line2d_109">
    <path d="M 1313.999019 -1 
L 963.694167 359.90332 
" clip-path="url(#pdd2cc00103)" style="fill: none; stroke: #7a7a7a; stroke-width: 3; stroke-linecap: square"/>
   </g>
   <g id="line2d_110">
    <path d="M 1291.867464 -1 
L 1275.824668 15.355641 
L 1183.193198 110.849566 
L 1059.079546 238.524594 
L 1020.524826 278.611055 
L 953.36701 347.310714 
" clip-path="url(#pdd2cc00103)" style="fill: none; stroke: #7a7a7a; stroke-width: 3; stroke-linecap: square"/>
   </g>
   <g id="line2d_111">
    <path d="M 1079.107972 443.014516 
L 1043.056805 477.294387 
L 1033.981424 488.207978 
L 1027.159242 500.310871 
L 1022.46508 513.882902 
L 1020.399648 528.084562 
L 1020.83777 542.006387 
L 1023.779445 554.598993 
L 1028.974318 565.092831 
L 1036.484978 572.368558 
" clip-path="url(#pdd2cc00103)" style="fill: none; stroke: #7a7a7a; stroke-width: 3; stroke-linecap: square"/>
   </g>
   <g id="line2d_112">
    <path d="M 1058.516246 414.611195 
L 1039.426653 434.829322 
L 1036.860511 437.277885 
L 1013.139344 462.18326 
L 1004.689852 470.228536 
L 997.742491 480.232661 
L 992.234674 491.915801 
L 988.103811 504.788242 
L 985.412492 518.50019 
L 984.098126 532.701851 
L 984.035537 546.903512 
L 985.349903 560.895295 
L 987.978634 574.18749 
L 991.796552 586.360342 
L 996.866248 597.203975 
L 1003.18772 606.158716 
" clip-path="url(#pdd2cc00103)" style="fill: none; stroke: #7a7a7a; stroke-width: 3; stroke-linecap: square"/>
   </g>
   <g id="line2d_113">
    <path d="M 955.995741 477.08451 
L 951.927467 470.858166 
L 949.924624 462.463096 
L 950.112391 452.45897 
L 952.678533 441.195584 
L 958.061172 428.812855 
L 966.573253 415.59062 
L 978.590309 401.808712 
L 988.354167 391.174957 
" clip-path="url(#pdd2cc00103)" style="fill: none; stroke: #7a7a7a; stroke-width: 3; stroke-linecap: square"/>
   </g>
   <g id="line2d_114">
    <path d="M 991.984319 439.936324 
L 985.349903 431.891048 
L 984.473659 424.825197 
L 989.981476 417.339593 
L 999.745334 406.845755 
" clip-path="url(#pdd2cc00103)" style="fill: none; stroke: #7a7a7a; stroke-width: 3; stroke-linecap: square"/>
   </g>
   <g id="line2d_115">
    <path d="M 1079.107972 443.014516 
L 1036.672744 480.30262 
L 1022.089547 491.216212 
L 1008.695537 498.701816 
L 996.553304 502.759433 
L 985.913202 503.249146 
L 976.775233 500.240912 
L 970.203406 492.055719 
" clip-path="url(#pdd2cc00103)" style="fill: none; stroke: #7a7a7a; stroke-width: 3; stroke-linecap: square"/>
   </g>
   <g id="line2d_116">
    <path d="M 1058.516246 414.611195 
L 1039.989952 435.66883 
L 1032.854826 442.384886 
L 1024.906044 449.590654 
L 1020.211882 452.878724 
L 1014.265943 454.41782 
L 1009.634369 454.627697 
L 1003.250308 454.347861 
" clip-path="url(#pdd2cc00103)" style="fill: none; stroke: #7a7a7a; stroke-width: 3; stroke-linecap: square"/>
   </g>
   <g id="line2d_117">
    <path d="M 976.337111 375.923912 
L 1342.589842 -1 
" clip-path="url(#pdd2cc00103)" style="fill: none; stroke: #7a7a7a; stroke-width: 3; stroke-linecap: square"/>
   </g>
   <g id="line2d_118">
    <path d="M 988.354167 391.174957 
L 1370.110901 -1 
" clip-path="url(#pdd2cc00103)" style="fill: none; stroke: #7a7a7a; stroke-width: 3; stroke-linecap: square"/>
   </g>
   <g id="line2d_119">
    <path d="M 884.206352 498.282062 
L 988.354167 391.174957 
" clip-path="url(#pdd2cc00103)" style="fill: none; stroke: #7a7a7a; stroke-width: 3; stroke-linecap: square"/>
   </g>
   <g id="line2d_120">
    <path d="M 897.537773 515.421998 
L 999.745334 406.845755 
" clip-path="url(#pdd2cc00103)" style="fill: none; stroke: #7a7a7a; stroke-width: 3; stroke-linecap: square"/>
   </g>
   <g id="line2d_121">
    <path d="M 1036.484978 572.368558 
L 1071.72249 615.183417 
" clip-path="url(#pdd2cc00103)" style="fill: none; stroke: #7a7a7a; stroke-width: 3; stroke-linecap: square"/>
   </g>
   <g id="line2d_122">
    <path d="M 1003.18772 606.158716 
L 1036.547567 646.175218 
" clip-path="url(#pdd2cc00103)" style="fill: none; stroke: #7a7a7a; stroke-width: 3; stroke-linecap: square"/>
   </g>
   <g id="line2d_123">
    <path d="M 1036.484978 572.368558 
L 1028.974318 565.092831 
L 1023.779445 554.598993 
L 1020.83777 542.006387 
L 1020.399648 528.084562 
L 1022.46508 513.882902 
L 1027.159242 500.310871 
L 1033.981424 488.207978 
L 1043.056805 477.294387 
L 1079.107972 443.014516 
" clip-path="url(#pdd2cc00103)" style="fill: none; stroke: #7a7a7a; stroke-width: 3; stroke-linecap: square"/>
   </g>
   <g id="line2d_124">
    <path d="M 1069.406703 539.417907 
L 1063.773708 531.932303 
L 1061.896043 526.755343 
L 1060.832033 521.858218 
L 1060.206145 515.561916 
L 1062.396754 507.586599 
L 1065.839139 502.619515 
L 1088.371119 484.080402 
L 1099.762286 472.117427 
" clip-path="url(#pdd2cc00103)" style="fill: none; stroke: #7a7a7a; stroke-width: 3; stroke-linecap: square"/>
   </g>
   <g id="line2d_125">
    <path d="M 963.694167 359.90332 
L 858.795286 467.290261 
" clip-path="url(#pdd2cc00103)" style="fill: none; stroke: #7a7a7a; stroke-width: 3; stroke-linecap: square"/>
   </g>
   <g id="line2d_126">
    <path d="M 953.36701 347.310714 
L 861.611784 441.47542 
L 858.482342 444.833448 
L 848.718485 454.837573 
" clip-path="url(#pdd2cc00103)" style="fill: none; stroke: #7a7a7a; stroke-width: 3; stroke-linecap: square"/>
   </g>
   <g id="line2d_127">
    <path d="M 1071.72249 615.183417 
L 1036.484978 572.368558 
" clip-path="url(#pdd2cc00103)" style="fill: none; stroke: #7a7a7a; stroke-width: 3; stroke-linecap: square"/>
   </g>
   <g id="line2d_128">
    <path d="M 1106.960001 584.121657 
L 1069.406703 539.417907 
" clip-path="url(#pdd2cc00103)" style="fill: none; stroke: #7a7a7a; stroke-width: 3; stroke-linecap: square"/>
   </g>
   <g id="line2d_129">
    <path d="M 610.221238 815.59444 
L 981.102847 412.952335 
" clip-path="url(#pdd2cc00103)" style="fill: none; stroke-dasharray: 32,8,5,8; stroke-dashoffset: 0; stroke: #1e90ff; stroke-width: 5"/>
   </g>
   <g id="line2d_130">
    <path d="M 955.012962 431.547983 
L 1234.369102 132.004761 
" clip-path="url(#pdd2cc00103)" style="fill: none; stroke-dasharray: 32,8,5,8; stroke-dashoffset: 0; stroke: #1e90ff; stroke-width: 5"/>
   </g>
   <g id="line2d_131">
    <path d="M 650.479181 651.190979 
L 649.310224 662.215999 
" clip-path="url(#pdd2cc00103)" style="fill: none; stroke-dasharray: 32,8,5,8; stroke-dashoffset: 0; stroke: #1e90ff; stroke-width: 5"/>
   </g>
   <g id="line2d_132">
    <path d="M 481.591716 843.981091 
L 125.177662 1230.123242 
" clip-path="url(#pdd2cc00103)" style="fill: none; stroke-dasharray: 32,8,5,8; stroke-dashoffset: 0; stroke: #1e90ff; stroke-width: 5"/>
   </g>
   <g id="line2d_133">
    <path d="M 833.780719 494.443545 
L 421.239947 924.743847 
" clip-path="url(#pdd2cc00103)" style="fill: none; stroke-dasharray: 32,8,5,8; stroke-dashoffset: 0; stroke: #1e90ff; stroke-width: 5"/>
   </g>
   <g id="line2d_134">
    <path d="M 417.02712 990.950332 
L 772.875796 621.916177 
" clip-path="url(#pdd2cc00103)" style="fill: none; stroke-dasharray: 32,8,5,8; stroke-dashoffset: 0; stroke: #1e90ff; stroke-width: 5"/>
   </g>
   <g id="line2d_135">
    <path d="M 610.221238 815.59444 
" clip-path="url(#pdd2cc00103)" style="fill: none; stroke: #0000ff; stroke-width: 1.5; stroke-linecap: square"/>
    <defs>
     <path id="ma3638a2a4f" d="M 0 10 
C 2.652031 10 5.195799 8.946337 7.071068 7.071068 
C 8.946337 5.195799 10 2.652031 10 0 
C 10 -2.652031 8.946337 -5.195799 7.071068 -7.071068 
C 5.195799 -8.946337 2.652031 -10 0 -10 
C -2.652031 -10 -5.195799 -8.946337 -7.071068 -7.071068 
C -8.946337 -5.195799 -10 -2.652031 -10 0 
C -10 2.652031 -8.946337 5.195799 -7.071068 7.071068 
C -5.195799 8.946337 -2.652031 10 0 10 
z
" style="stroke: #0000ff"/>
    </defs>
    <g clip-path="url(#pdd2cc00103)">
     <use xlink:href="#ma3638a2a4f" x="610.221238" y="815.59444" style="fill: #0000ff; stroke: #0000ff"/>
    </g>
   </g>
   <g id="line2d_136">
    <path d="M 955.012962 431.547983 
" clip-path="url(#pdd2cc00103)" style="fill: none; stroke: #0000ff; stroke-width: 1.5; stroke-linecap: square"/>
    <g clip-path="url(#pdd2cc00103)">
     <use xlink:href="#ma3638a2a4f" x="955.012962" y="431.547983" style="fill: #0000ff; stroke: #0000ff"/>
    </g>
   </g>
   <g id="line2d_137">
    <path d="M 650.479181 651.190979 
" clip-path="url(#pdd2cc00103)" style="fill: none; stroke: #0000ff; stroke-width: 1.5; stroke-linecap: square"/>
    <g clip-path="url(#pdd2cc00103)">
     <use xlink:href="#ma3638a2a4f" x="650.479181" y="651.190979" style="fill: #0000ff; stroke: #0000ff"/>
    </g>
   </g>
   <g id="line2d_138">
    <path d="M 481.591716 843.981091 
" clip-path="url(#pdd2cc00103)" style="fill: none; stroke: #0000ff; stroke-width: 1.5; stroke-linecap: square"/>
    <g clip-path="url(#pdd2cc00103)">
     <use xlink:href="#ma3638a2a4f" x="481.591716" y="843.981091" style="fill: #0000ff; stroke: #0000ff"/>
    </g>
   </g>
   <g id="line2d_139">
    <path d="M 833.780719 494.443545 
" clip-path="url(#pdd2cc00103)" style="fill: none; stroke: #0000ff; stroke-width: 1.5; stroke-linecap: square"/>
    <g clip-path="url(#pdd2cc00103)">
     <use xlink:href="#ma3638a2a4f" x="833.780719" y="494.443545" style="fill: #0000ff; stroke: #0000ff"/>
    </g>
   </g>
   <g id="line2d_140">
    <path d="M 417.02712 990.950332 
" clip-path="url(#pdd2cc00103)" style="fill: none; stroke: #0000ff; stroke-width: 1.5; stroke-linecap: square"/>
    <g clip-path="url(#pdd2cc00103)">
     <use xlink:href="#ma3638a2a4f" x="417.02712" y="990.950332" style="fill: #0000ff; stroke: #0000ff"/>
    </g>
   </g>
   <g id="line2d_141">
    <path d="M 981.102847 412.952335 
" clip-path="url(#pdd2cc00103)" style="fill: none; stroke: #ff0000; stroke-width: 1.5; stroke-linecap: square"/>
    <defs>
     <path id="m26b525cb88" d="M 0 -10 
L -2.24514 -3.09017 
L -9.510565 -3.09017 
L -3.632713 1.18034 
L -5.877853 8.09017 
L -0 3.81966 
L 5.877853 8.09017 
L 3.632713 1.18034 
L 9.510565 -3.09017 
L 2.24514 -3.09017 
z
" style="stroke: #ff0000; stroke-linejoin: bevel"/>
    </defs>
    <g clip-path="url(#pdd2cc00103)">
     <use xlink:href="#m26b525cb88" x="981.102847" y="412.952335" style="fill: #ff0000; stroke: #ff0000; stroke-linejoin: bevel"/>
    </g>
   </g>
   <g id="line2d_142">
    <path d="M 1234.369102 132.004761 
" clip-path="url(#pdd2cc00103)" style="fill: none; stroke: #ff0000; stroke-width: 1.5; stroke-linecap: square"/>
    <g clip-path="url(#pdd2cc00103)">
     <use xlink:href="#m26b525cb88" x="1234.369102" y="132.004761" style="fill: #ff0000; stroke: #ff0000; stroke-linejoin: bevel"/>
    </g>
   </g>
   <g id="line2d_143">
    <path d="M 649.310224 662.215999 
" clip-path="url(#pdd2cc00103)" style="fill: none; stroke: #ff0000; stroke-width: 1.5; stroke-linecap: square"/>
    <g clip-path="url(#pdd2cc00103)">
     <use xlink:href="#m26b525cb88" x="649.310224" y="662.215999" style="fill: #ff0000; stroke: #ff0000; stroke-linejoin: bevel"/>
    </g>
   </g>
   <g id="line2d_144">
    <path d="M 125.177662 1230.123242 
" clip-path="url(#pdd2cc00103)" style="fill: none; stroke: #ff0000; stroke-width: 1.5; stroke-linecap: square"/>
    <g clip-path="url(#pdd2cc00103)">
     <use xlink:href="#m26b525cb88" x="125.177662" y="1230.123242" style="fill: #ff0000; stroke: #ff0000; stroke-linejoin: bevel"/>
    </g>
   </g>
   <g id="line2d_145">
    <path d="M 421.239947 924.743847 
" clip-path="url(#pdd2cc00103)" style="fill: none; stroke: #ff0000; stroke-width: 1.5; stroke-linecap: square"/>
    <g clip-path="url(#pdd2cc00103)">
     <use xlink:href="#m26b525cb88" x="421.239947" y="924.743847" style="fill: #ff0000; stroke: #ff0000; stroke-linejoin: bevel"/>
    </g>
   </g>
   <g id="line2d_146">
    <path d="M 772.875796 621.916177 
" clip-path="url(#pdd2cc00103)" style="fill: none; stroke: #ff0000; stroke-width: 1.5; stroke-linecap: square"/>
    <g clip-path="url(#pdd2cc00103)">
     <use xlink:href="#m26b525cb88" x="772.875796" y="621.916177" style="fill: #ff0000; stroke: #ff0000; stroke-linejoin: bevel"/>
    </g>
   </g>
  </g>
 </g>
 <defs>
  <clipPath id="pdd2cc00103">
   <rect x="0" y="0" width="1440" height="1440"/>
  </clipPath>
 </defs>
</svg>
