<?xml version="1.0" encoding="utf-8" standalone="no"?>
<!DOCTYPE svg PUBLIC "-//W3C//DTD SVG 1.1//EN"
  "http://www.w3.org/Graphics/SVG/1.1/DTD/svg11.dtd">
<svg xmlns:xlink="http://www.w3.org/1999/xlink" width="1440pt" height="1440pt" viewBox="0 0 1440 1440" xmlns="http://www.w3.org/2000/svg" version="1.1">
 <metadata>
  <rdf:RDF xmlns:dc="http://purl.org/dc/elements/1.1/" xmlns:cc="http://creativecommons.org/ns#" xmlns:rdf="http://www.w3.org/1999/02/22-rdf-syntax-ns#">
   <cc:Work>
    <dc:type rdf:resource="http://purl.org/dc/dcmitype/StillImage"/>
    <dc:date>2026-02-27T11:07:36.620610</dc:date>
    <dc:format>image/svg+xml</dc:format>
    <dc:creator>
     <cc:Agent>
      <dc:title>Matplotlib v3.7.3, https://matplotlib.org/</dc:title>
     </cc:Agent>
    </dc:creator>
   </cc:Work>
  </rdf:RDF>
 </metadata>
 <defs>
  <style type="text/css">*{stroke-linejoin: round; stroke-linecap: butt}</style>
 </defs>
 <g id="figure_1">
  <g id="patch_1">
   <path d="M 0 1440 
L 1440 1440 
L 1440 0 
L 0 0 
z
" style="fill: #ffffff"/>
  </g>
  <g id="axes_1">
   <g id="line2d_1">
    <path d="M 1310.075541 1289.14728 
L 1127.582618 1441 
" clip-path="url(#p4f0149e28f)" style="fill: none; stroke: #7a7a7a; stroke-width: 3; stroke-linecap: square"/>
   </g>
   <g id="line2d_2">
    <path d="M 1286.828674 1266.5546 
L 1076.718863 1441 
" clip-path="url(#p4f0149e28f)" style="fill: none; stroke: #7a7a7a; stroke-width: 3; stroke-linecap: square"/>
   </g>
   <g id="line2d_3">
    <path clip-path="url(#p4f0149e28f)" style="fill: none; stroke: #7a7a7a; stroke-width: 3; stroke-linecap: square"/>
   </g>
   <g id="line2d_4">
    <path clip-path="url(#p4f0149e28f)" style="fill: none; stroke: #7a7a7a; stroke-width: 3; stroke-linecap: square"/>
   </g>
   <g id="line2d_5">
    <path d="M 1127.582618 1441 
L 1310.075541 1289.14728 
" clip-path="url(#p4f0149e28f)" style="fill: none; stroke: #7a7a7a; stroke-width: 3; stroke-linecap: square"/>
   </g>
   <g id="line2d_6">
    <path d="M 1178.869774 1441 
L 1333.796833 1312.272806 
" clip-path="url(#p4f0149e28f)" style="fill: none; stroke: #7a7a7a; stroke-width: 3; stroke-linecap: square"/>
   </g>
   <g id="line2d_7">
    <path d="M 844.070756 659.323047 
L 844.782394 659.962463 
L 845.019607 660.175601 
L 845.25682 660.495309 
L 845.968459 661.134724 
L 846.442885 661.667571 
L 846.798704 661.987278 
L 1017.829221 831.752084 
" clip-path="url(#p4f0149e28f)" style="fill: none; stroke: #7a7a7a; stroke-width: 3; stroke-linecap: square"/>
   </g>
   <g id="line2d_8">
    <path d="M 783.93728 659.323047 
L 784.530312 659.962463 
L 784.767525 660.175601 
L 785.123344 660.495309 
L 785.834983 661.241294 
L 786.309409 661.77414 
L 786.546622 662.093848 
L 979.519334 862.01775 
" clip-path="url(#p4f0149e28f)" style="fill: none; stroke: #7a7a7a; stroke-width: 3; stroke-linecap: square"/>
   </g>
   <g id="line2d_9">
    <path d="M 1108.444557 916.90091 
L 1286.828674 1091.035055 
" clip-path="url(#p4f0149e28f)" style="fill: none; stroke: #7a7a7a; stroke-width: 3; stroke-linecap: square"/>
   </g>
   <g id="line2d_10">
    <path d="M 1068.355573 946.953437 
L 1247.688542 1122.259844 
" clip-path="url(#p4f0149e28f)" style="fill: none; stroke: #7a7a7a; stroke-width: 3; stroke-linecap: square"/>
   </g>
   <g id="line2d_11">
    <path d="M 1178.869774 1441 
L 1333.796833 1312.272806 
" clip-path="url(#p4f0149e28f)" style="fill: none; stroke: #7a7a7a; stroke-width: 3; stroke-linecap: square"/>
   </g>
   <g id="line2d_12">
    <path d="M 1228.696378 1441 
L 1306.991773 1376.001214 
L 1357.043699 1335.291763 
L 1357.280912 1335.078624 
" clip-path="url(#p4f0149e28f)" style="fill: none; stroke: #7a7a7a; stroke-width: 3; stroke-linecap: square"/>
   </g>
   <g id="line2d_13">
    <path d="M 1108.444557 916.90091 
L 1017.829221 831.752084 
" clip-path="url(#p4f0149e28f)" style="fill: none; stroke: #7a7a7a; stroke-width: 3; stroke-linecap: square"/>
   </g>
   <g id="line2d_14">
    <path d="M 1149.482393 885.99583 
L 1139.638056 876.617736 
L 1132.640275 870.330151 
L 1129.319294 866.813366 
L 1080.809252 820.882021 
L 1073.337045 814.274728 
L 1058.511237 799.781311 
" clip-path="url(#p4f0149e28f)" style="fill: none; stroke: #7a7a7a; stroke-width: 3; stroke-linecap: square"/>
   </g>
   <g id="line2d_15">
    <path d="M 1154.93829 829.300992 
L 1139.400843 841.769593 
L 1127.421591 852.319948 
L 1125.998313 854.87761 
L 1125.7611 855.730164 
L 1008.340704 961.766562 
" clip-path="url(#p4f0149e28f)" style="fill: none; stroke: #7a7a7a; stroke-width: 3; stroke-linecap: square"/>
   </g>
   <g id="line2d_16">
    <path d="M 1122.0843 797.969634 
L 1093.381537 820.455744 
L 1089.704736 822.693699 
L 1088.874491 822.800268 
L 963.626068 916.048356 
" clip-path="url(#p4f0149e28f)" style="fill: none; stroke: #7a7a7a; stroke-width: 3; stroke-linecap: square"/>
   </g>
   <g id="line2d_17">
    <path clip-path="url(#p4f0149e28f)" style="fill: none; stroke: #7a7a7a; stroke-width: 3; stroke-linecap: square"/>
   </g>
   <g id="line2d_18">
    <path clip-path="url(#p4f0149e28f)" style="fill: none; stroke: #7a7a7a; stroke-width: 3; stroke-linecap: square"/>
   </g>
   <g id="line2d_19">
    <path d="M 1286.828674 1091.035055 
L 1108.444557 916.90091 
" clip-path="url(#p4f0149e28f)" style="fill: none; stroke: #7a7a7a; stroke-width: 3; stroke-linecap: square"/>
   </g>
   <g id="line2d_20">
    <path d="M 1326.799052 1059.064282 
L 1205.701855 941.092129 
L 1183.048021 919.245434 
L 1162.29189 898.67757 
L 1149.482393 885.99583 
" clip-path="url(#p4f0149e28f)" style="fill: none; stroke: #7a7a7a; stroke-width: 3; stroke-linecap: square"/>
   </g>
   <g id="line2d_21">
    <path d="M 1121.965694 798.076203 
L 1246.146658 701.20476 
L 1281.847203 673.177049 
" clip-path="url(#p4f0149e28f)" style="fill: none; stroke: #7a7a7a; stroke-width: 3; stroke-linecap: square"/>
   </g>
   <g id="line2d_22">
    <path d="M 1155.056896 829.300992 
L 1328.222329 686.178497 
" clip-path="url(#p4f0149e28f)" style="fill: none; stroke: #7a7a7a; stroke-width: 3; stroke-linecap: square"/>
   </g>
   <g id="line2d_23">
    <path d="M 1108.444557 916.90091 
L 1094.330388 910.187048 
L 1076.776632 910.187048 
L 1060.053121 920.204557 
L 1042.736578 934.165128 
L 1041.550513 934.378266 
L 1038.348139 936.935928 
L 1035.976009 939.49359 
L 1008.340704 961.766562 
" clip-path="url(#p4f0149e28f)" style="fill: none; stroke: #7a7a7a; stroke-width: 3; stroke-linecap: square"/>
   </g>
   <g id="line2d_24">
    <path d="M 1149.482393 885.99583 
L 1133.589127 872.568105 
L 1113.900454 863.616288 
L 1092.076865 858.820672 
L 1069.660244 857.75498 
L 1048.311081 860.312642 
L 1029.689867 865.960812 
L 1015.338485 874.486351 
L 963.626068 916.048356 
" clip-path="url(#p4f0149e28f)" style="fill: none; stroke: #7a7a7a; stroke-width: 3; stroke-linecap: square"/>
   </g>
   <g id="line2d_25">
    <path clip-path="url(#p4f0149e28f)" style="fill: none; stroke: #7a7a7a; stroke-width: 3; stroke-linecap: square"/>
   </g>
   <g id="line2d_26">
    <path clip-path="url(#p4f0149e28f)" style="fill: none; stroke: #7a7a7a; stroke-width: 3; stroke-linecap: square"/>
   </g>
   <g id="line2d_27">
    <path d="M 838.259039 1020.059939 
L 934.448879 940.452713 
L 963.507462 916.261495 
" clip-path="url(#p4f0149e28f)" style="fill: none; stroke: #7a7a7a; stroke-width: 3; stroke-linecap: square"/>
   </g>
   <g id="line2d_28">
    <path d="M 886.650475 1060.662821 
L 976.909992 986.277488 
L 1008.222098 961.873131 
" clip-path="url(#p4f0149e28f)" style="fill: none; stroke: #7a7a7a; stroke-width: 3; stroke-linecap: square"/>
   </g>
   <g id="line2d_29">
    <path d="M 1286.828674 1266.5546 
L 1076.718863 1441 
" clip-path="url(#p4f0149e28f)" style="fill: none; stroke: #7a7a7a; stroke-width: 3; stroke-linecap: square"/>
   </g>
   <g id="line2d_30">
    <path d="M 1265.716724 1246.093306 
L 1031.287183 1441 
" clip-path="url(#p4f0149e28f)" style="fill: none; stroke: #7a7a7a; stroke-width: 3; stroke-linecap: square"/>
   </g>
   <g id="line2d_31">
    <path d="M 1328.222329 686.178497 
L 1154.93829 829.300992 
" clip-path="url(#p4f0149e28f)" style="fill: none; stroke: #7a7a7a; stroke-width: 3; stroke-linecap: square"/>
   </g>
   <g id="line2d_32">
    <path d="M 1281.847203 673.177049 
L 1246.146658 701.20476 
L 1122.0843 797.969634 
" clip-path="url(#p4f0149e28f)" style="fill: none; stroke: #7a7a7a; stroke-width: 3; stroke-linecap: square"/>
   </g>
   <g id="line2d_33">
    <path clip-path="url(#p4f0149e28f)" style="fill: none; stroke: #7a7a7a; stroke-width: 3; stroke-linecap: square"/>
   </g>
   <g id="line2d_34">
    <path clip-path="url(#p4f0149e28f)" style="fill: none; stroke: #7a7a7a; stroke-width: 3; stroke-linecap: square"/>
   </g>
   <g id="line2d_35">
    <path d="M 1310.075541 1289.14728 
L 1441 1179.50493 
" clip-path="url(#p4f0149e28f)" style="fill: none; stroke: #7a7a7a; stroke-width: 3; stroke-linecap: square"/>
   </g>
   <g id="line2d_36">
    <path d="M 1333.796833 1312.272806 
L 1441 1222.676521 
" clip-path="url(#p4f0149e28f)" style="fill: none; stroke: #7a7a7a; stroke-width: 3; stroke-linecap: square"/>
   </g>
   <g id="line2d_37">
    <path d="M 1008.340704 961.766562 
L 976.909992 986.277488 
L 886.650475 1060.662821 
" clip-path="url(#p4f0149e28f)" style="fill: none; stroke: #7a7a7a; stroke-width: 3; stroke-linecap: square"/>
   </g>
   <g id="line2d_38">
    <path d="M 963.626068 916.048356 
L 934.448879 940.452713 
L 838.259039 1020.059939 
" clip-path="url(#p4f0149e28f)" style="fill: none; stroke: #7a7a7a; stroke-width: 3; stroke-linecap: square"/>
   </g>
   <g id="line2d_39">
    <path d="M 1017.829221 831.752084 
L 846.798704 661.987278 
L 846.442885 661.667571 
L 845.968459 661.134724 
L 845.25682 660.495309 
L 845.019607 660.175601 
L 844.782394 659.962463 
L 844.070756 659.323047 
" clip-path="url(#p4f0149e28f)" style="fill: none; stroke: #7a7a7a; stroke-width: 3; stroke-linecap: square"/>
   </g>
   <g id="line2d_40">
    <path d="M 1058.511237 799.781311 
L 918.911432 661.880709 
L 918.555613 661.667571 
L 918.081187 661.134724 
L 917.488155 660.495309 
L 917.132336 660.175601 
L 916.895123 659.962463 
L 916.30209 659.323047 
" clip-path="url(#p4f0149e28f)" style="fill: none; stroke: #7a7a7a; stroke-width: 3; stroke-linecap: square"/>
   </g>
   <g id="line2d_41">
    <path d="M 1017.829221 831.752084 
L 1108.444557 916.90091 
" clip-path="url(#p4f0149e28f)" style="fill: none; stroke: #7a7a7a; stroke-width: 3; stroke-linecap: square"/>
   </g>
   <g id="line2d_42">
    <path d="M 979.519334 862.01775 
L 990.312522 871.82212 
L 993.752109 875.125767 
L 994.345142 876.191459 
L 1063.018283 941.838113 
L 1065.153199 943.543221 
L 1068.355573 946.953437 
" clip-path="url(#p4f0149e28f)" style="fill: none; stroke: #7a7a7a; stroke-width: 3; stroke-linecap: square"/>
   </g>
   <g id="line2d_43">
    <path d="M 1441 1133.56799 
L 1429.156427 1140.696323 
L 1407.570052 1149.435001 
L 1387.52556 1151.886094 
L 1369.615984 1150.820401 
L 1352.773867 1145.38537 
L 1336.643388 1136.220415 
L 1320.631516 1123.751813 
L 1304.145218 1108.512411 
L 1286.828674 1091.035055 
" clip-path="url(#p4f0149e28f)" style="fill: none; stroke: #7a7a7a; stroke-width: 3; stroke-linecap: square"/>
   </g>
   <g id="line2d_44">
    <path d="M 1441 1101.230403 
L 1433.189047 1107.020442 
L 1422.870285 1112.668612 
L 1414.923652 1114.906566 
L 1410.535213 1115.226274 
L 1404.842103 1115.652551 
L 1403.181613 1115.439412 
L 1393.811702 1114.480289 
L 1392.507031 1114.054012 
L 1389.54187 1113.414597 
L 1387.881379 1112.775181 
L 1384.679005 1111.602919 
L 1376.969585 1107.34015 
L 1368.785739 1100.519718 
L 1365.227545 1097.002933 
L 1363.329842 1095.404394 
L 1346.843544 1079.205869 
L 1326.799052 1059.064282 
" clip-path="url(#p4f0149e28f)" style="fill: none; stroke: #7a7a7a; stroke-width: 3; stroke-linecap: square"/>
   </g>
   <g id="line2d_45">
    <path d="M 518.140201 339.615315 
L 518.85184 340.361299 
L 519.326265 340.894146 
L 520.156511 341.64013 
L 520.630937 342.172977 
L 520.986756 342.492684 
L 623.937164 447.037113 
" clip-path="url(#p4f0149e28f)" style="fill: none; stroke: #7a7a7a; stroke-width: 3; stroke-linecap: square"/>
   </g>
   <g id="line2d_46">
    <path d="M 442.232066 339.615315 
L 442.943705 340.361299 
L 443.536737 340.894146 
L 444.366982 341.7467 
L 444.960014 342.279546 
L 445.315834 342.599254 
L 545.419687 440.003543 
L 600.808904 464.834177 
L 603.181033 466.858992 
" clip-path="url(#p4f0149e28f)" style="fill: none; stroke: #7a7a7a; stroke-width: 3; stroke-linecap: square"/>
   </g>
   <g id="line2d_47">
    <path d="M 1441 1179.50493 
L 1310.075541 1289.14728 
" clip-path="url(#p4f0149e28f)" style="fill: none; stroke: #7a7a7a; stroke-width: 3; stroke-linecap: square"/>
   </g>
   <g id="line2d_48">
    <path d="M 1441 1136.597586 
L 1286.828674 1266.5546 
" clip-path="url(#p4f0149e28f)" style="fill: none; stroke: #7a7a7a; stroke-width: 3; stroke-linecap: square"/>
   </g>
   <g id="line2d_49">
    <path d="M 1017.829221 831.752084 
L 1032.655029 848.163748 
L 1042.262152 865.534535 
L 1046.887804 883.544737 
L 1046.531984 901.874647 
L 1041.076087 920.311126 
L 1030.757325 938.427898 
L 1015.694305 955.905254 
L 1008.340704 961.766562 
" clip-path="url(#p4f0149e28f)" style="fill: none; stroke: #7a7a7a; stroke-width: 3; stroke-linecap: square"/>
   </g>
   <g id="line2d_50">
    <path d="M 979.519334 862.01775 
L 986.872935 868.625043 
L 990.312522 871.82212 
L 990.905554 872.354966 
L 992.210225 873.633797 
L 993.752109 875.125767 
L 995.887026 878.429413 
L 996.005632 879.068829 
L 996.124239 879.495106 
L 997.191697 883.011891 
L 996.717271 887.487799 
L 993.870716 890.898015 
L 992.091619 892.283415 
L 991.854406 892.496553 
L 963.626068 916.048356 
" clip-path="url(#p4f0149e28f)" style="fill: none; stroke: #7a7a7a; stroke-width: 3; stroke-linecap: square"/>
   </g>
   <g id="line2d_51">
    <path d="M 808.72603 620.958119 
L 843.477723 658.683632 
L 844.070756 659.323047 
" clip-path="url(#p4f0149e28f)" style="fill: none; stroke: #7a7a7a; stroke-width: 3; stroke-linecap: square"/>
   </g>
   <g id="line2d_52">
    <path d="M 780.734905 643.44423 
L 783.462854 658.790201 
L 783.93728 659.323047 
" clip-path="url(#p4f0149e28f)" style="fill: none; stroke: #7a7a7a; stroke-width: 3; stroke-linecap: square"/>
   </g>
   <g id="line2d_53">
    <path d="M 963.507462 916.261495 
L 1010.950046 878.003136 
L 1023.759544 865.108258 
L 1026.368886 848.376886 
L 1017.829221 831.752084 
" clip-path="url(#p4f0149e28f)" style="fill: none; stroke: #7a7a7a; stroke-width: 3; stroke-linecap: square"/>
   </g>
   <g id="line2d_54">
    <path d="M 1008.222098 961.873131 
L 1036.094616 939.49359 
L 1038.348139 936.935928 
L 1041.550513 934.378266 
L 1042.736578 934.165128 
L 1055.664682 923.721342 
L 1068.592786 911.572448 
L 1077.606877 895.160785 
L 1082.588349 875.978321 
L 1083.299987 855.410456 
L 1079.623187 834.842592 
L 1071.439341 815.766698 
L 1058.511237 799.781311 
" clip-path="url(#p4f0149e28f)" style="fill: none; stroke: #7a7a7a; stroke-width: 3; stroke-linecap: square"/>
   </g>
   <g id="line2d_55">
    <path d="M 808.72603 620.958119 
L 787.495474 606.997548 
L 767.213769 599.324563 
L 747.999522 597.299747 
L 729.496914 600.070547 
L 711.468732 606.78441 
L 693.79637 616.908488 
L 676.242613 629.483659 
L 658.807464 643.870507 
L 641.016494 659.216478 
" clip-path="url(#p4f0149e28f)" style="fill: none; stroke: #7a7a7a; stroke-width: 3; stroke-linecap: square"/>
   </g>
   <g id="line2d_56">
    <path d="M 846.324278 590.905592 
L 824.026264 572.149406 
L 800.067759 561.279343 
L 775.160402 556.910004 
L 749.778619 558.082265 
L 724.634049 563.517297 
L 700.556938 572.255975 
L 678.140317 582.912899 
L 657.858612 594.635516 
L 640.542069 606.038425 
L 626.902326 616.055934 
L 617.532415 623.515781 
L 613.02537 627.245705 
" clip-path="url(#p4f0149e28f)" style="fill: none; stroke: #7a7a7a; stroke-width: 3; stroke-linecap: square"/>
   </g>
   <g id="line2d_57">
    <path d="M 1017.829221 831.752084 
L 1038.110926 842.515578 
L 1060.053121 840.917039 
L 1079.741794 831.752084 
L 1121.965694 798.076203 
" clip-path="url(#p4f0149e28f)" style="fill: none; stroke: #7a7a7a; stroke-width: 3; stroke-linecap: square"/>
   </g>
   <g id="line2d_58">
    <path d="M 979.519334 862.01775 
L 994.700961 872.887813 
L 1013.677995 879.708244 
L 1035.145764 882.692183 
L 1057.325172 882.159337 
L 1078.792942 878.535982 
L 1097.769976 872.035259 
L 1112.71439 862.976873 
L 1155.056896 829.300992 
" clip-path="url(#p4f0149e28f)" style="fill: none; stroke: #7a7a7a; stroke-width: 3; stroke-linecap: square"/>
   </g>
   <g id="line2d_59">
    <path d="M 963.507462 916.261495 
L 1088.874491 822.800268 
L 1089.704736 822.693699 
L 1093.381537 820.455744 
L 1121.965694 798.076203 
" clip-path="url(#p4f0149e28f)" style="fill: none; stroke: #7a7a7a; stroke-width: 3; stroke-linecap: square"/>
   </g>
   <g id="line2d_60">
    <path d="M 1008.222098 961.873131 
L 1125.7611 855.730164 
L 1125.998313 854.87761 
L 1127.421591 852.319948 
L 1139.400843 841.769593 
L 1155.056896 829.300992 
" clip-path="url(#p4f0149e28f)" style="fill: none; stroke: #7a7a7a; stroke-width: 3; stroke-linecap: square"/>
   </g>
   <g id="line2d_61">
    <path d="M 1441 1136.597586 
L 1286.828674 1266.5546 
" clip-path="url(#p4f0149e28f)" style="fill: none; stroke: #7a7a7a; stroke-width: 3; stroke-linecap: square"/>
   </g>
   <g id="line2d_62">
    <path d="M 1441 1101.176854 
L 1440.424041 1101.58541 
L 1295.605552 1221.47581 
L 1294.063668 1223.074349 
L 1265.716724 1246.093306 
" clip-path="url(#p4f0149e28f)" style="fill: none; stroke: #7a7a7a; stroke-width: 3; stroke-linecap: square"/>
   </g>
   <g id="line2d_63">
    <path d="M 1154.93829 829.300992 
L 1147.22887 835.482008 
L 1146.635837 836.014854 
L 1126.235526 849.549148 
L 1106.072428 858.287826 
L 1086.620968 862.337457 
L 1067.999754 861.484903 
L 1050.208785 856.156441 
L 1033.485274 846.138932 
L 1017.829221 831.752084 
" clip-path="url(#p4f0149e28f)" style="fill: none; stroke: #7a7a7a; stroke-width: 3; stroke-linecap: square"/>
   </g>
   <g id="line2d_64">
    <path d="M 1122.0843 797.969634 
L 1114.137667 804.363789 
L 1100.379318 815.020713 
L 1093.381537 820.455744 
L 1089.704736 822.693699 
L 1086.146542 822.906837 
L 1082.706955 822.373991 
L 1079.741794 820.029467 
L 1078.19991 818.644067 
L 1073.337045 814.274728 
L 1058.511237 799.781311 
" clip-path="url(#p4f0149e28f)" style="fill: none; stroke: #7a7a7a; stroke-width: 3; stroke-linecap: square"/>
   </g>
   <g id="line2d_65">
    <path d="M 1310.075541 1289.14728 
L 1334.152652 1269.112262 
L 1343.166743 1257.922492 
L 1349.927312 1240.871413 
L 1353.841325 1219.877271 
L 1354.434357 1196.964884 
L 1351.350589 1174.052496 
L 1343.996989 1153.164925 
L 1331.899129 1136.220415 
L 1286.828674 1091.035055 
" clip-path="url(#p4f0149e28f)" style="fill: none; stroke: #7a7a7a; stroke-width: 3; stroke-linecap: square"/>
   </g>
   <g id="line2d_66">
    <path d="M 1333.796833 1312.272806 
L 1357.873944 1292.131219 
L 1371.513687 1277.531233 
L 1381.951056 1259.840738 
L 1389.54187 1239.912289 
L 1394.286128 1218.385302 
L 1396.302438 1196.325469 
L 1395.828012 1174.372204 
L 1392.981457 1153.378063 
L 1387.999986 1134.195599 
L 1380.883598 1117.464228 
L 1371.869507 1104.249642 
L 1326.799052 1059.064282 
" clip-path="url(#p4f0149e28f)" style="fill: none; stroke: #7a7a7a; stroke-width: 3; stroke-linecap: square"/>
   </g>
   <g id="line2d_67">
    <path d="M 832.803142 500.108596 
L 805.642262 530.161123 
L 790.460635 554.032634 
L 784.886132 573.001959 
L 786.309409 588.028223 
L 792.476945 600.283686 
L 808.72603 620.958119 
" clip-path="url(#p4f0149e28f)" style="fill: none; stroke: #7a7a7a; stroke-width: 3; stroke-linecap: square"/>
   </g>
   <g id="line2d_68">
    <path d="M 801.253823 472.080885 
L 772.788273 499.469181 
L 754.285665 524.512953 
L 744.322722 547.318772 
L 741.120347 567.780067 
L 743.37387 585.896838 
L 749.304193 601.882225 
L 757.606646 615.523088 
L 766.620737 627.032566 
L 774.923189 636.30409 
L 780.734905 643.44423 
" clip-path="url(#p4f0149e28f)" style="fill: none; stroke: #7a7a7a; stroke-width: 3; stroke-linecap: square"/>
   </g>
   <g id="line2d_69">
    <path d="M 1333.796833 1312.272806 
L 1441 1222.676521 
" clip-path="url(#p4f0149e28f)" style="fill: none; stroke: #7a7a7a; stroke-width: 3; stroke-linecap: square"/>
   </g>
   <g id="line2d_70">
    <path d="M 1357.280912 1335.078624 
L 1441 1265.209837 
" clip-path="url(#p4f0149e28f)" style="fill: none; stroke: #7a7a7a; stroke-width: 3; stroke-linecap: square"/>
   </g>
   <g id="line2d_71">
    <path d="M 623.937164 447.037113 
L 665.686638 486.148025 
L 680.03802 505.330489 
L 687.866047 522.274999 
L 690.000963 537.834109 
L 686.917195 552.220957 
L 679.089168 566.181528 
L 667.228522 580.142099 
L 651.928289 594.635516 
L 633.662894 610.194626 
L 613.02537 627.245705 
" clip-path="url(#p4f0149e28f)" style="fill: none; stroke: #7a7a7a; stroke-width: 3; stroke-linecap: square"/>
   </g>
   <g id="line2d_72">
    <path d="M 603.181033 466.858992 
L 635.679204 504.477935 
L 644.693295 519.717337 
L 646.472392 532.612216 
L 641.372314 545.080818 
L 629.630274 558.82825 
L 611.364879 575.879329 
L 586.813342 597.939163 
" clip-path="url(#p4f0149e28f)" style="fill: none; stroke: #7a7a7a; stroke-width: 3; stroke-linecap: square"/>
   </g>
   <g id="line2d_73">
    <path d="M 1108.444557 916.90091 
L 1095.990879 903.366616 
L 1086.858181 887.914076 
L 1081.758103 870.862997 
L 1081.52089 853.172502 
L 1086.858181 835.268869 
L 1098.363008 818.004652 
L 1117.102829 802.019265 
L 1121.965694 798.076203 
" clip-path="url(#p4f0149e28f)" style="fill: none; stroke: #7a7a7a; stroke-width: 3; stroke-linecap: square"/>
   </g>
   <g id="line2d_74">
    <path d="M 1149.482393 885.99583 
L 1135.961256 873.633797 
L 1132.877488 870.649858 
L 1132.640275 870.330151 
L 1129.556507 867.239643 
L 1127.540197 864.468842 
L 1126.947165 863.722858 
L 1126.709952 863.40315 
L 1125.405281 860.099503 
L 1125.523887 857.222134 
L 1125.998313 854.87761 
L 1127.421591 852.319948 
L 1128.251836 851.573964 
L 1129.200688 850.72141 
L 1139.400843 841.769593 
L 1155.056896 829.300992 
" clip-path="url(#p4f0149e28f)" style="fill: none; stroke: #7a7a7a; stroke-width: 3; stroke-linecap: square"/>
   </g>
   <g id="line2d_75">
    <path d="M 1154.93829 829.300992 
L 1109.156196 866.280519 
L 1099.549072 882.159337 
L 1098.837434 901.022093 
L 1108.444557 916.90091 
" clip-path="url(#p4f0149e28f)" style="fill: none; stroke: #7a7a7a; stroke-width: 3; stroke-linecap: square"/>
   </g>
   <g id="line2d_76">
    <path d="M 1122.0843 797.969634 
L 1076.302206 834.842592 
L 1063.136889 850.508271 
L 1054.478617 869.477597 
L 1050.683211 890.258599 
L 1051.632062 911.039602 
L 1057.443779 930.541774 
L 1068.355573 946.953437 
" clip-path="url(#p4f0149e28f)" style="fill: none; stroke: #7a7a7a; stroke-width: 3; stroke-linecap: square"/>
   </g>
   <g id="line2d_77">
    <path d="M 963.507462 916.261495 
L 977.147205 905.178293 
L 995.531206 895.160785 
L 1015.457092 888.979768 
L 1036.094616 886.741814 
L 1056.494927 888.340353 
L 1075.946387 893.881954 
L 1093.500143 903.366616 
L 1108.444557 916.90091 
" clip-path="url(#p4f0149e28f)" style="fill: none; stroke: #7a7a7a; stroke-width: 3; stroke-linecap: square"/>
   </g>
   <g id="line2d_78">
    <path d="M 1008.222098 961.873131 
L 1021.861841 950.896499 
L 1035.501584 940.026436 
L 1038.348139 936.935928 
L 1041.550513 934.378266 
L 1046.531984 933.312574 
L 1047.718049 933.525712 
L 1049.971572 933.84542 
L 1051.276243 933.951989 
L 1055.308863 935.657097 
L 1065.153199 943.543221 
L 1068.355573 946.953437 
" clip-path="url(#p4f0149e28f)" style="fill: none; stroke: #7a7a7a; stroke-width: 3; stroke-linecap: square"/>
   </g>
   <g id="line2d_79">
    <path d="M 641.016494 659.216478 
L -1 1191.662759 
" clip-path="url(#p4f0149e28f)" style="fill: none; stroke: #7a7a7a; stroke-width: 3; stroke-linecap: square"/>
   </g>
   <g id="line2d_80">
    <path d="M 613.02537 627.245705 
L -1 1138.322505 
" clip-path="url(#p4f0149e28f)" style="fill: none; stroke: #7a7a7a; stroke-width: 3; stroke-linecap: square"/>
   </g>
   <g id="line2d_81">
    <path d="M 1286.828674 1091.035055 
L 1308.533657 1112.242335 
L 1325.138561 1128.121152 
L 1343.759776 1140.483185 
L 1363.804267 1149.328432 
L 1384.797611 1154.976602 
L 1406.383987 1157.321125 
L 1428.088969 1156.68171 
L 1441 1154.478223 
" clip-path="url(#p4f0149e28f)" style="fill: none; stroke: #7a7a7a; stroke-width: 3; stroke-linecap: square"/>
   </g>
   <g id="line2d_82">
    <path d="M 1247.688542 1122.259844 
L 1269.393525 1143.573693 
L 1285.28679 1157.640833 
L 1302.959153 1169.576588 
L 1322.292006 1179.274389 
L 1342.810924 1186.734237 
L 1364.278693 1191.95613 
L 1386.220889 1194.940068 
L 1408.63751 1195.472915 
L 1430.935524 1193.661237 
L 1441 1191.754866 
" clip-path="url(#p4f0149e28f)" style="fill: none; stroke: #7a7a7a; stroke-width: 3; stroke-linecap: square"/>
   </g>
   <g id="line2d_83">
    <path d="M 623.937164 447.037113 
L 520.986756 342.492684 
L 520.630937 342.172977 
L 520.156511 341.64013 
L 519.326265 340.894146 
L 518.85184 340.361299 
L 518.140201 339.615315 
" clip-path="url(#p4f0149e28f)" style="fill: none; stroke: #7a7a7a; stroke-width: 3; stroke-linecap: square"/>
   </g>
   <g id="line2d_84">
    <path d="M 649.55616 426.895526 
L 647.777063 424.657572 
L 635.323384 386.399213 
L 589.778503 342.492684 
L 589.422684 342.172977 
L 588.948258 341.64013 
L 588.118013 340.894146 
L 587.762193 340.574438 
L 587.524981 340.361299 
L 586.813342 339.615315 
" clip-path="url(#p4f0149e28f)" style="fill: none; stroke: #7a7a7a; stroke-width: 3; stroke-linecap: square"/>
   </g>
   <g id="line2d_85">
    <path d="M 801.253823 472.080885 
L 784.767525 482.098394 
L 766.027704 489.77138 
L 745.745999 494.566996 
L 724.515443 496.378673 
L 703.047674 494.673565 
L 682.172936 489.025395 
L 662.721477 479.327594 
L 623.937164 447.037113 
" clip-path="url(#p4f0149e28f)" style="fill: none; stroke: #7a7a7a; stroke-width: 3; stroke-linecap: square"/>
   </g>
   <g id="line2d_86">
    <path d="M 765.790491 443.307189 
L 750.490258 456.202068 
L 732.462076 462.91593 
L 712.298977 463.235638 
L 691.305634 457.26776 
L 670.193684 444.799159 
L 649.55616 426.895526 
" clip-path="url(#p4f0149e28f)" style="fill: none; stroke: #7a7a7a; stroke-width: 3; stroke-linecap: square"/>
   </g>
   <g id="line2d_87">
    <path d="M 832.803142 500.108596 
L 641.016494 659.216478 
" clip-path="url(#p4f0149e28f)" style="fill: none; stroke: #7a7a7a; stroke-width: 3; stroke-linecap: square"/>
   </g>
   <g id="line2d_88">
    <path d="M 801.253823 472.080885 
L 613.02537 627.245705 
" clip-path="url(#p4f0149e28f)" style="fill: none; stroke: #7a7a7a; stroke-width: 3; stroke-linecap: square"/>
   </g>
   <g id="line2d_89">
    <path d="M 1286.828674 1091.035055 
L 1334.152652 1138.991215 
L 1346.606331 1158.173679 
L 1351.587802 1176.929866 
L 1351.587802 1193.448099 
L 1345.420266 1209.220347 
L 1335.813143 1223.287487 
L 1324.071103 1235.64952 
L 1286.828674 1266.5546 
" clip-path="url(#p4f0149e28f)" style="fill: none; stroke: #7a7a7a; stroke-width: 3; stroke-linecap: square"/>
   </g>
   <g id="line2d_90">
    <path d="M 1247.688542 1122.259844 
L 1262.039924 1136.85983 
L 1290.031049 1162.436449 
L 1297.740469 1170.74885 
L 1303.670792 1179.380959 
L 1306.873166 1187.480221 
L 1307.703411 1195.153207 
L 1307.347592 1200.588238 
L 1306.517347 1204.5313 
L 1304.73825 1209.220347 
L 1302.247514 1213.483117 
L 1298.333501 1218.598441 
L 1294.063668 1223.074349 
L 1265.716724 1246.093306 
" clip-path="url(#p4f0149e28f)" style="fill: none; stroke: #7a7a7a; stroke-width: 3; stroke-linecap: square"/>
   </g>
   <g id="line2d_91">
    <path d="M 844.070756 659.323047 
L 843.477723 658.683632 
L 808.72603 620.958119 
" clip-path="url(#p4f0149e28f)" style="fill: none; stroke: #7a7a7a; stroke-width: 3; stroke-linecap: square"/>
   </g>
   <g id="line2d_92">
    <path d="M 916.30209 659.323047 
L 915.590452 658.577063 
L 846.324278 590.905592 
" clip-path="url(#p4f0149e28f)" style="fill: none; stroke: #7a7a7a; stroke-width: 3; stroke-linecap: square"/>
   </g>
   <g id="line2d_93">
    <path d="M 808.72603 620.958119 
L 623.937164 447.037113 
" clip-path="url(#p4f0149e28f)" style="fill: none; stroke: #7a7a7a; stroke-width: 3; stroke-linecap: square"/>
   </g>
   <g id="line2d_94">
    <path d="M 846.324278 590.905592 
L 649.55616 426.895526 
" clip-path="url(#p4f0149e28f)" style="fill: none; stroke: #7a7a7a; stroke-width: 3; stroke-linecap: square"/>
   </g>
   <g id="line2d_95">
    <path d="M 960.186481 339.615315 
L 959.474842 340.148161 
L 959.237629 340.361299 
L 958.763203 340.787576 
L 958.170171 341.320423 
L 957.458532 341.853269 
L 957.102713 342.172977 
L 801.253823 472.080885 
" clip-path="url(#p4f0149e28f)" style="fill: none; stroke: #7a7a7a; stroke-width: 3; stroke-linecap: square"/>
   </g>
   <g id="line2d_96">
    <path d="M 895.783173 339.615315 
L 895.071534 340.148161 
L 894.834321 340.467869 
L 894.359895 340.787576 
L 893.52965 341.426992 
L 892.936618 341.959838 
L 892.580798 342.172977 
L 765.790491 443.307189 
" clip-path="url(#p4f0149e28f)" style="fill: none; stroke: #7a7a7a; stroke-width: 3; stroke-linecap: square"/>
   </g>
   <g id="line2d_97">
    <path d="M 623.937164 447.037113 
L 808.72603 620.958119 
" clip-path="url(#p4f0149e28f)" style="fill: none; stroke: #7a7a7a; stroke-width: 3; stroke-linecap: square"/>
   </g>
   <g id="line2d_98">
    <path d="M 603.181033 466.858992 
L 780.734905 643.44423 
" clip-path="url(#p4f0149e28f)" style="fill: none; stroke: #7a7a7a; stroke-width: 3; stroke-linecap: square"/>
   </g>
   <g id="line2d_99">
    <path d="M 1024.352576 339.615315 
L 1023.759544 340.148161 
L 1023.522331 340.361299 
L 1022.929299 340.787576 
L 1022.454873 341.213853 
L 1021.861841 341.7467 
L 1021.506021 342.066407 
L 832.803142 500.108596 
" clip-path="url(#p4f0149e28f)" style="fill: none; stroke: #7a7a7a; stroke-width: 3; stroke-linecap: square"/>
   </g>
   <g id="line2d_100">
    <path d="M 960.186481 339.615315 
L 959.474842 340.148161 
L 959.237629 340.361299 
L 958.763203 340.787576 
L 958.170171 341.320423 
L 957.458532 341.853269 
L 957.102713 342.172977 
L 801.253823 472.080885 
" clip-path="url(#p4f0149e28f)" style="fill: none; stroke: #7a7a7a; stroke-width: 3; stroke-linecap: square"/>
   </g>
   <g id="line2d_101">
    <path d="M 613.02537 627.245705 
L -1 1138.322505 
" clip-path="url(#p4f0149e28f)" style="fill: none; stroke: #7a7a7a; stroke-width: 3; stroke-linecap: square"/>
   </g>
   <g id="line2d_102">
    <path d="M 586.813342 597.939163 
L -1 1088.099185 
" clip-path="url(#p4f0149e28f)" style="fill: none; stroke: #7a7a7a; stroke-width: 3; stroke-linecap: square"/>
   </g>
   <g id="line2d_103">
    <path d="M 801.253823 472.080885 
L 613.02537 627.245705 
" clip-path="url(#p4f0149e28f)" style="fill: none; stroke: #7a7a7a; stroke-width: 3; stroke-linecap: square"/>
   </g>
   <g id="line2d_104">
    <path d="M 765.790491 443.307189 
L 586.813342 597.939163 
" clip-path="url(#p4f0149e28f)" style="fill: none; stroke: #7a7a7a; stroke-width: 3; stroke-linecap: square"/>
   </g>
   <g id="line2d_105">
    <path d="M 1434.608231 -1 
L 1025.420034 338.762761 
L 1024.352576 339.615315 
" clip-path="url(#p4f0149e28f)" style="fill: none; stroke: #7a7a7a; stroke-width: 3; stroke-linecap: square"/>
   </g>
   <g id="line2d_106">
    <path d="M 1369.96272 -1 
L 961.016726 338.86933 
L 960.186481 339.615315 
" clip-path="url(#p4f0149e28f)" style="fill: none; stroke: #7a7a7a; stroke-width: 3; stroke-linecap: square"/>
   </g>
   <g id="line2d_107">
    <path d="M 1369.96272 -1 
L 961.016726 338.86933 
L 960.186481 339.615315 
" clip-path="url(#p4f0149e28f)" style="fill: none; stroke: #7a7a7a; stroke-width: 3; stroke-linecap: square"/>
   </g>
   <g id="line2d_108">
    <path d="M 1306.066238 -1 
L 896.613418 338.975899 
L 895.783173 339.615315 
" clip-path="url(#p4f0149e28f)" style="fill: none; stroke: #7a7a7a; stroke-width: 3; stroke-linecap: square"/>
   </g>
   <g id="line2d_109">
    <path d="M 1253.50466 53.284622 
L 1245.072482 57.506023 
" clip-path="url(#p4f0149e28f)" style="fill: none; stroke-dasharray: 32,8,5,8; stroke-dashoffset: 0; stroke: #1e90ff; stroke-width: 5"/>
   </g>
   <g id="line2d_110">
    <path d="M 1070.174283 200.198495 
L 1068.853859 205.517851 
" clip-path="url(#p4f0149e28f)" style="fill: none; stroke-dasharray: 32,8,5,8; stroke-dashoffset: 0; stroke: #1e90ff; stroke-width: 5"/>
   </g>
   <g id="line2d_111">
    <path d="M 941.001538 794.16072 
L 942.104787 794.61213 
" clip-path="url(#p4f0149e28f)" style="fill: none; stroke-dasharray: 32,8,5,8; stroke-dashoffset: 0; stroke: #1e90ff; stroke-width: 5"/>
   </g>
   <g id="line2d_112">
    <path d="M 1250.394715 1105.689731 
L 1262.090309 1120.292268 
" clip-path="url(#p4f0149e28f)" style="fill: none; stroke-dasharray: 32,8,5,8; stroke-dashoffset: 0; stroke: #1e90ff; stroke-width: 5"/>
   </g>
   <g id="line2d_113">
    <path d="M 238.556511 889.916932 
L 237.212922 884.186494 
" clip-path="url(#p4f0149e28f)" style="fill: none; stroke-dasharray: 32,8,5,8; stroke-dashoffset: 0; stroke: #1e90ff; stroke-width: 5"/>
   </g>
   <g id="line2d_114">
    <path d="M 513.534703 657.914179 
L 509.446023 656.755082 
" clip-path="url(#p4f0149e28f)" style="fill: none; stroke-dasharray: 32,8,5,8; stroke-dashoffset: 0; stroke: #1e90ff; stroke-width: 5"/>
   </g>
   <g id="line2d_115">
    <path d="M 1208.830332 965.880041 
L 1206.791784 966.560409 
" clip-path="url(#p4f0149e28f)" style="fill: none; stroke-dasharray: 32,8,5,8; stroke-dashoffset: 0; stroke: #1e90ff; stroke-width: 5"/>
   </g>
   <g id="line2d_116">
    <path d="M 811.156999 500.429241 
L 805.883992 505.471506 
" clip-path="url(#p4f0149e28f)" style="fill: none; stroke-dasharray: 32,8,5,8; stroke-dashoffset: 0; stroke: #1e90ff; stroke-width: 5"/>
   </g>
   <g id="line2d_117">
    <path d="M 1253.50466 53.284622 
" clip-path="url(#p4f0149e28f)" style="fill: none; stroke: #0000ff; stroke-width: 1.5; stroke-linecap: square"/>
    <defs>
     <path id="m5709288fbb" d="M 0 10 
C 2.652031 10 5.195799 8.946337 7.071068 7.071068 
C 8.946337 5.195799 10 2.652031 10 0 
C 10 -2.652031 8.946337 -5.195799 7.071068 -7.071068 
C 5.195799 -8.946337 2.652031 -10 0 -10 
C -2.652031 -10 -5.195799 -8.946337 -7.071068 -7.071068 
C -8.946337 -5.195799 -10 -2.652031 -10 0 
C -10 2.652031 -8.946337 5.195799 -7.071068 7.071068 
C -5.195799 8.946337 -2.652031 10 0 10 
z
" style="stroke: #0000ff"/>
    </defs>
    <g clip-path="url(#p4f0149e28f)">
     <use xlink:href="#m5709288fbb" x="1253.50466" y="53.284622" style="fill: #0000ff; stroke: #0000ff"/>
    </g>
   </g>
   <g id="line2d_118">
    <path d="M 1070.174283 200.198495 
" clip-path="url(#p4f0149e28f)" style="fill: none; stroke: #0000ff; stroke-width: 1.5; stroke-linecap: square"/>
    <g clip-path="url(#p4f0149e28f)">
     <use xlink:href="#m5709288fbb" x="1070.174283" y="200.198495" style="fill: #0000ff; stroke: #0000ff"/>
    </g>
   </g>
   <g id="line2d_119">
    <path d="M 941.001538 794.16072 
" clip-path="url(#p4f0149e28f)" style="fill: none; stroke: #0000ff; stroke-width: 1.5; stroke-linecap: square"/>
    <g clip-path="url(#p4f0149e28f)">
     <use xlink:href="#m5709288fbb" x="941.001538" y="794.16072" style="fill: #0000ff; stroke: #0000ff"/>
    </g>
   </g>
   <g id="line2d_120">
    <path d="M 1250.394715 1105.689731 
" clip-path="url(#p4f0149e28f)" style="fill: none; stroke: #0000ff; stroke-width: 1.5; stroke-linecap: square"/>
    <g clip-path="url(#p4f0149e28f)">
     <use xlink:href="#m5709288fbb" x="1250.394715" y="1105.689731" style="fill: #0000ff; stroke: #0000ff"/>
    </g>
   </g>
   <g id="line2d_121">
    <path d="M 238.556511 889.916932 
" clip-path="url(#p4f0149e28f)" style="fill: none; stroke: #0000ff; stroke-width: 1.5; stroke-linecap: square"/>
    <g clip-path="url(#p4f0149e28f)">
     <use xlink:href="#m5709288fbb" x="238.556511" y="889.916932" style="fill: #0000ff; stroke: #0000ff"/>
    </g>
   </g>
   <g id="line2d_122">
    <path d="M 513.534703 657.914179 
" clip-path="url(#p4f0149e28f)" style="fill: none; stroke: #0000ff; stroke-width: 1.5; stroke-linecap: square"/>
    <g clip-path="url(#p4f0149e28f)">
     <use xlink:href="#m5709288fbb" x="513.534703" y="657.914179" style="fill: #0000ff; stroke: #0000ff"/>
    </g>
   </g>
   <g id="line2d_123">
    <path d="M 1208.830332 965.880041 
" clip-path="url(#p4f0149e28f)" style="fill: none; stroke: #0000ff; stroke-width: 1.5; stroke-linecap: square"/>
    <g clip-path="url(#p4f0149e28f)">
     <use xlink:href="#m5709288fbb" x="1208.830332" y="965.880041" style="fill: #0000ff; stroke: #0000ff"/>
    </g>
   </g>
   <g id="line2d_124">
    <path d="M 811.156999 500.429241 
" clip-path="url(#p4f0149e28f)" style="fill: none; stroke: #0000ff; stroke-width: 1.5; stroke-linecap: square"/>
    <g clip-path="url(#p4f0149e28f)">
     <use xlink:href="#m5709288fbb" x="811.156999" y="500.429241" style="fill: #0000ff; stroke: #0000ff"/>
    </g>
   </g>
   <g id="line2d_125">
    <path d="M 1245.072482 57.506023 
" clip-path="url(#p4f0149e28f)" style="fill: none; stroke: #ff0000; stroke-width: 1.5; stroke-linecap: square"/>
    <defs>
     <path id="m9763aa018a" d="M 0 -10 
L -2.24514 -3.09017 
L -9.510565 -3.09017 
L -3.632713 1.18034 
L -5.877853 8.09017 
L -0 3.81966 
L 5.877853 8.09017 
L 3.632713 1.18034 
L 9.510565 -3.09017 
L 2.24514 -3.09017 
z
" style="stroke: #ff0000; stroke-linejoin: bevel"/>
    </defs>
    <g clip-path="url(#p4f0149e28f)">
     <use xlink:href="#m9763aa018a" x="1245.072482" y="57.506023" style="fill: #ff0000; stroke: #ff0000; stroke-linejoin: bevel"/>
    </g>
   </g>
   <g id="line2d_126">
    <path d="M 1068.853859 205.517851 
" clip-path="url(#p4f0149e28f)" style="fill: none; stroke: #ff0000; stroke-width: 1.5; stroke-linecap: square"/>
    <g clip-path="url(#p4f0149e28f)">
     <use xlink:href="#m9763aa018a" x="1068.853859" y="205.517851" style="fill: #ff0000; stroke: #ff0000; stroke-linejoin: bevel"/>
    </g>
   </g>
   <g id="line2d_127">
    <path d="M 942.104787 794.61213 
" clip-path="url(#p4f0149e28f)" style="fill: none; stroke: #ff0000; stroke-width: 1.5; stroke-linecap: square"/>
    <g clip-path="url(#p4f0149e28f)">
     <use xlink:href="#m9763aa018a" x="942.104787" y="794.61213" style="fill: #ff0000; stroke: #ff0000; stroke-linejoin: bevel"/>
    </g>
   </g>
   <g id="line2d_128">
    <path d="M 1262.090309 1120.292268 
" clip-path="url(#p4f0149e28f)" style="fill: none; stroke: #ff0000; stroke-width: 1.5; stroke-linecap: square"/>
    <g clip-path="url(#p4f0149e28f)">
     <use xlink:href="#m9763aa018a" x="1262.090309" y="1120.292268" style="fill: #ff0000; stroke: #ff0000; stroke-linejoin: bevel"/>
    </g>
   </g>
   <g id="line2d_129">
    <path d="M 237.212922 884.186494 
" clip-path="url(#p4f0149e28f)" style="fill: none; stroke: #ff0000; stroke-width: 1.5; stroke-linecap: square"/>
    <g clip-path="url(#p4f0149e28f)">
     <use xlink:href="#m9763aa018a" x="237.212922" y="884.186494" style="fill: #ff0000; stroke: #ff0000; stroke-linejoin: bevel"/>
    </g>
   </g>
   <g id="line2d_130">
    <path d="M 509.446023 656.755082 
" clip-path="url(#p4f0149e28f)" style="fill: none; stroke: #ff0000; stroke-width: 1.5; stroke-linecap: square"/>
    <g clip-path="url(#p4f0149e28f)">
     <use xlink:href="#m9763aa018a" x="509.446023" y="656.755082" style="fill: #ff0000; stroke: #ff0000; stroke-linejoin: bevel"/>
    </g>
   </g>
   <g id="line2d_131">
    <path d="M 1206.791784 966.560409 
" clip-path="url(#p4f0149e28f)" style="fill: none; stroke: #ff0000; stroke-width: 1.5; stroke-linecap: square"/>
    <g clip-path="url(#p4f0149e28f)">
     <use xlink:href="#m9763aa018a" x="1206.791784" y="966.560409" style="fill: #ff0000; stroke: #ff0000; stroke-linejoin: bevel"/>
    </g>
   </g>
   <g id="line2d_132">
    <path d="M 805.883992 505.471506 
" clip-path="url(#p4f0149e28f)" style="fill: none; stroke: #ff0000; stroke-width: 1.5; stroke-linecap: square"/>
    <g clip-path="url(#p4f0149e28f)">
     <use xlink:href="#m9763aa018a" x="805.883992" y="505.471506" style="fill: #ff0000; stroke: #ff0000; stroke-linejoin: bevel"/>
    </g>
   </g>
  </g>
 </g>
 <defs>
  <clipPath id="p4f0149e28f">
   <rect x="0" y="0" width="1440" height="1440"/>
  </clipPath>
 </defs>
</svg>
