<?xml version="1.0" encoding="utf-8" standalone="no"?>
<!DOCTYPE svg PUBLIC "-//W3C//DTD SVG 1.1//EN"
  "http://www.w3.org/Graphics/SVG/1.1/DTD/svg11.dtd">
<svg xmlns:xlink="http://www.w3.org/1999/xlink" width="1440pt" height="1440pt" viewBox="0 0 1440 1440" xmlns="http://www.w3.org/2000/svg" version="1.1">
 <metadata>
  <rdf:RDF xmlns:dc="http://purl.org/dc/elements/1.1/" xmlns:cc="http://creativecommons.org/ns#" xmlns:rdf="http://www.w3.org/1999/02/22-rdf-syntax-ns#">
   <cc:Work>
    <dc:type rdf:resource="http://purl.org/dc/dcmitype/StillImage"/>
    <dc:date>2025-05-12T02:14:04.304975</dc:date>
    <dc:format>image/svg+xml</dc:format>
    <dc:creator>
     <cc:Agent>
      <dc:title>Matplotlib v3.7.3, https://matplotlib.org/</dc:title>
     </cc:Agent>
    </dc:creator>
   </cc:Work>
  </rdf:RDF>
 </metadata>
 <defs>
  <style type="text/css">*{stroke-linejoin: round; stroke-linecap: butt}</style>
 </defs>
 <g id="figure_1">
  <g id="patch_1">
   <path d="M 0 1440 
L 1440 1440 
L 1440 0 
L 0 0 
z
" style="fill: #ffffff"/>
  </g>
  <g id="axes_1">
   <g id="line2d_1">
    <path d="M 1355.029243 76.57069 
L 1416.196536 -1 
" clip-path="url(#peeffdc7527)" style="fill: none; stroke: #e0e0e0; stroke-width: 3; stroke-linecap: square"/>
   </g>
   <g id="line2d_2">
    <path d="M 1372.842292 97.651491 
L 1441 13.486109 
" clip-path="url(#peeffdc7527)" style="fill: none; stroke: #e0e0e0; stroke-width: 3; stroke-linecap: square"/>
   </g>
   <g id="line2d_3">
    <path d="M 187.190635 1406.142497 
L 174.938273 1418.563077 
" clip-path="url(#peeffdc7527)" style="fill: none; stroke: #e0e0e0; stroke-width: 3; stroke-linecap: square"/>
   </g>
   <g id="line2d_4">
    <path d="M 140.820157 1406.142497 
L 132.714748 1414.346917 
" clip-path="url(#peeffdc7527)" style="fill: none; stroke: #e0e0e0; stroke-width: 3; stroke-linecap: square"/>
   </g>
   <g id="line2d_5">
    <path clip-path="url(#peeffdc7527)" style="fill: none; stroke: #e0e0e0; stroke-width: 3; stroke-linecap: square"/>
   </g>
   <g id="line2d_6">
    <path d="M 1409.693628 298.431875 
L 1441 334.646189 
" clip-path="url(#peeffdc7527)" style="fill: none; stroke: #e0e0e0; stroke-width: 3; stroke-linecap: square"/>
   </g>
   <g id="line2d_7">
    <path d="M 1202.44021 270.172207 
L 1202.722957 269.830356 
L 1256.444852 202.485744 
" clip-path="url(#peeffdc7527)" style="fill: none; stroke: #e0e0e0; stroke-width: 3; stroke-linecap: square"/>
   </g>
   <g id="line2d_8">
    <path d="M 1202.44021 321.791681 
L 1202.722957 321.449831 
L 1276.331378 228.922207 
" clip-path="url(#peeffdc7527)" style="fill: none; stroke: #e0e0e0; stroke-width: 3; stroke-linecap: square"/>
   </g>
   <g id="line2d_9">
    <path d="M 1256.444852 202.485744 
L 1202.722957 269.830356 
L 1202.44021 270.172207 
" clip-path="url(#peeffdc7527)" style="fill: none; stroke: #e0e0e0; stroke-width: 3; stroke-linecap: square"/>
   </g>
   <g id="line2d_10">
    <path d="M 1236.087081 175.479528 
L 1202.722957 218.096931 
L 1202.44021 218.438782 
" clip-path="url(#peeffdc7527)" style="fill: none; stroke: #e0e0e0; stroke-width: 3; stroke-linecap: square"/>
   </g>
   <g id="line2d_11">
    <path d="M 174.938273 1418.563077 
L 187.190635 1406.142497 
" clip-path="url(#peeffdc7527)" style="fill: none; stroke: #e0e0e0; stroke-width: 3; stroke-linecap: square"/>
   </g>
   <g id="line2d_12">
    <path d="M 221.685747 1417.423574 
L 232.901371 1406.142497 
" clip-path="url(#peeffdc7527)" style="fill: none; stroke: #e0e0e0; stroke-width: 3; stroke-linecap: square"/>
   </g>
   <g id="line2d_13">
    <path d="M 1355.029243 76.57069 
L 1256.444852 202.485744 
" clip-path="url(#peeffdc7527)" style="fill: none; stroke: #e0e0e0; stroke-width: 3; stroke-linecap: square"/>
   </g>
   <g id="line2d_14">
    <path d="M 1332.974991 50.590027 
L 1236.087081 175.479528 
" clip-path="url(#peeffdc7527)" style="fill: none; stroke: #e0e0e0; stroke-width: 3; stroke-linecap: square"/>
   </g>
   <g id="line2d_15">
    <path d="M 1256.444852 202.485744 
L 1355.029243 76.57069 
" clip-path="url(#peeffdc7527)" style="fill: none; stroke: #e0e0e0; stroke-width: 3; stroke-linecap: square"/>
   </g>
   <g id="line2d_16">
    <path d="M 1276.331378 228.922207 
L 1372.842292 97.651491 
" clip-path="url(#peeffdc7527)" style="fill: none; stroke: #e0e0e0; stroke-width: 3; stroke-linecap: square"/>
   </g>
   <g id="line2d_17">
    <path d="M 446.280969 1132.661837 
L 328.846791 1259.602443 
" clip-path="url(#peeffdc7527)" style="fill: none; stroke: #e0e0e0; stroke-width: 3; stroke-linecap: square"/>
   </g>
   <g id="line2d_18">
    <path d="M 429.31616 1106.225373 
L 337.234946 1204.678411 
L 308.300522 1234.989184 
" clip-path="url(#peeffdc7527)" style="fill: none; stroke: #e0e0e0; stroke-width: 3; stroke-linecap: square"/>
   </g>
   <g id="line2d_19">
    <path d="M 635.155844 1163.998163 
L 822.522735 1403.065839 
L 823.182478 1403.977442 
L 824.030718 1405.116944 
L 824.313465 1405.458795 
L 825.255955 1406.142497 
" clip-path="url(#peeffdc7527)" style="fill: none; stroke: #e0e0e0; stroke-width: 3; stroke-linecap: square"/>
   </g>
   <g id="line2d_20">
    <path d="M 594.723049 1211.173577 
L 716.304181 1368.424956 
L 743.730622 1403.29374 
L 744.296116 1404.205342 
L 745.238605 1405.458795 
L 745.804099 1406.142497 
" clip-path="url(#peeffdc7527)" style="fill: none; stroke: #e0e0e0; stroke-width: 3; stroke-linecap: square"/>
   </g>
   <g id="line2d_21">
    <path d="M 580.585708 984.070679 
L 446.280969 1132.661837 
" clip-path="url(#peeffdc7527)" style="fill: none; stroke: #e0e0e0; stroke-width: 3; stroke-linecap: square"/>
   </g>
   <g id="line2d_22">
    <path d="M 562.207165 958.659767 
L 527.240808 995.921507 
L 480.399085 1047.882833 
L 429.31616 1106.225373 
" clip-path="url(#peeffdc7527)" style="fill: none; stroke: #e0e0e0; stroke-width: 3; stroke-linecap: square"/>
   </g>
   <g id="line2d_23">
    <path d="M 446.280969 1132.661837 
L 463.340027 1120.355207 
L 477.948613 1113.518191 
L 497.835139 1107.706727 
L 516.025184 1105.313771 
L 533.555487 1105.085871 
L 549.29506 1107.706727 
L 562.961156 1111.125235 
L 578.889227 1115.797196 
L 593.969057 1122.862114 
L 608.106398 1132.206036 
L 621.489748 1145.424268 
L 635.155844 1163.998163 
" clip-path="url(#peeffdc7527)" style="fill: none; stroke: #e0e0e0; stroke-width: 3; stroke-linecap: square"/>
   </g>
   <g id="line2d_24">
    <path d="M 467.486981 1158.186699 
L 487.279258 1142.575511 
L 513.103467 1144.170815 
L 532.236002 1148.728826 
L 548.918064 1160.351754 
L 562.866907 1172.430483 
L 594.723049 1211.173577 
" clip-path="url(#peeffdc7527)" style="fill: none; stroke: #e0e0e0; stroke-width: 3; stroke-linecap: square"/>
   </g>
   <g id="line2d_25">
    <path d="M 187.190635 1406.142497 
L 271.637685 1321.363492 
L 328.846791 1259.602443 
" clip-path="url(#peeffdc7527)" style="fill: none; stroke: #e0e0e0; stroke-width: 3; stroke-linecap: square"/>
   </g>
   <g id="line2d_26">
    <path d="M 232.901371 1406.142497 
L 350.052802 1285.127305 
" clip-path="url(#peeffdc7527)" style="fill: none; stroke: #e0e0e0; stroke-width: 3; stroke-linecap: square"/>
   </g>
   <g id="line2d_27">
    <path d="M 923.746096 607.578971 
L 1124.402088 368.511294 
" clip-path="url(#peeffdc7527)" style="fill: none; stroke: #e0e0e0; stroke-width: 3; stroke-linecap: square"/>
   </g>
   <g id="line2d_28">
    <path d="M 933.736484 640.852451 
L 1053.244139 502.858668 
L 1117.898911 427.423586 
L 1139.764665 399.84762 
" clip-path="url(#peeffdc7527)" style="fill: none; stroke: #e0e0e0; stroke-width: 3; stroke-linecap: square"/>
   </g>
   <g id="line2d_29">
    <path d="M 1256.444852 202.485744 
L 1284.813783 188.69776 
L 1303.192326 184.025799 
L 1324.963831 182.430495 
L 1351.259285 187.216407 
L 1375.575512 199.295136 
L 1392.63457 208.980909 
L 1410.164872 223.224694 
L 1427.977922 239.861434 
L 1436.837322 251.712262 
L 1437.874061 253.421516 
L 1441 257.519629 
" clip-path="url(#peeffdc7527)" style="fill: none; stroke: #e0e0e0; stroke-width: 3; stroke-linecap: square"/>
   </g>
   <g id="line2d_30">
    <path d="M 1276.331378 228.922207 
L 1295.181166 219.350384 
L 1308.658765 217.64113 
L 1321.288123 218.780633 
L 1341.92864 228.580357 
L 1358.422205 241.000937 
L 1377.743237 261.398036 
L 1393.011565 280.655632 
L 1409.693628 298.431875 
" clip-path="url(#peeffdc7527)" style="fill: none; stroke: #e0e0e0; stroke-width: 3; stroke-linecap: square"/>
   </g>
   <g id="line2d_31">
    <path d="M 1202.44021 270.172207 
L 1124.402088 368.511294 
" clip-path="url(#peeffdc7527)" style="fill: none; stroke: #e0e0e0; stroke-width: 3; stroke-linecap: square"/>
   </g>
   <g id="line2d_32">
    <path d="M 1202.44021 218.438782 
L 1116.956422 327.489195 
L 1108.474017 337.516819 
" clip-path="url(#peeffdc7527)" style="fill: none; stroke: #e0e0e0; stroke-width: 3; stroke-linecap: square"/>
   </g>
   <g id="line2d_33">
    <path d="M 580.585708 984.070679 
L 577.286995 1006.974684 
L 577.852489 1030.904242 
L 579.737467 1051.871092 
L 582.847682 1073.977446 
L 589.633606 1095.855898 
L 599.718243 1115.911147 
L 635.155844 1163.998163 
" clip-path="url(#peeffdc7527)" style="fill: none; stroke: #e0e0e0; stroke-width: 3; stroke-linecap: square"/>
   </g>
   <g id="line2d_34">
    <path d="M 562.207165 958.659767 
L 555.51549 970.282695 
L 549.483558 982.361425 
L 543.357377 1000.023717 
L 537.419694 1025.092778 
L 533.838234 1053.694297 
L 531.670508 1074.889048 
L 532.236002 1095.627998 
L 535.251968 1115.569296 
L 540.718407 1134.371091 
L 548.352571 1151.463632 
L 558.060211 1166.619019 
L 594.723049 1211.173577 
" clip-path="url(#peeffdc7527)" style="fill: none; stroke: #e0e0e0; stroke-width: 3; stroke-linecap: square"/>
   </g>
   <g id="line2d_35">
    <path d="M 923.746096 607.578971 
L 895.659912 636.978142 
L 849.289434 688.141815 
L 800.939728 743.635599 
" clip-path="url(#peeffdc7527)" style="fill: none; stroke: #e0e0e0; stroke-width: 3; stroke-linecap: square"/>
   </g>
   <g id="line2d_36">
    <path d="M 904.048068 579.205352 
L 837.037072 653.614882 
L 779.922215 717.313085 
" clip-path="url(#peeffdc7527)" style="fill: none; stroke: #e0e0e0; stroke-width: 3; stroke-linecap: square"/>
   </g>
   <g id="line2d_37">
    <path d="M 958.146959 857.927725 
L 925.442577 816.107974 
L 913.472962 797.87593 
L 906.49854 779.643886 
L 901.691844 760.50024 
L 898.48738 736.114881 
L 897.450642 708.880765 
L 898.204634 680.848997 
L 900.466608 660.793749 
L 904.330815 643.245407 
L 910.174249 629.001622 
L 916.017683 618.860048 
L 923.746096 607.578971 
" clip-path="url(#peeffdc7527)" style="fill: none; stroke: #e0e0e0; stroke-width: 3; stroke-linecap: square"/>
   </g>
   <g id="line2d_38">
    <path d="M 1000.653231 810.068609 
L 965.686874 765.286151 
L 951.455284 744.0914 
L 942.690133 727.56861 
L 934.207728 709.678417 
L 930.437771 689.509218 
L 928.364294 669.56792 
L 933.736484 640.852451 
" clip-path="url(#peeffdc7527)" style="fill: none; stroke: #e0e0e0; stroke-width: 3; stroke-linecap: square"/>
   </g>
   <g id="line2d_39">
    <path d="M 958.146959 857.927725 
L 922.615109 812.917366 
L 891.701457 775.655626 
L 873.794158 759.930488 
L 857.112096 750.472615 
L 834.775097 742.268196 
L 816.585052 741.470544 
L 800.939728 743.635599 
" clip-path="url(#peeffdc7527)" style="fill: none; stroke: #e0e0e0; stroke-width: 3; stroke-linecap: square"/>
   </g>
   <g id="line2d_40">
    <path d="M 1000.653231 810.068609 
L 937.129446 729.733665 
L 921.766868 717.768886 
L 906.121545 707.513362 
L 889.62798 700.790295 
L 873.888407 694.52303 
L 855.981109 693.155627 
L 836.28308 694.067229 
L 818.752778 697.371787 
L 800.091488 705.120406 
L 779.922215 717.313085 
" clip-path="url(#peeffdc7527)" style="fill: none; stroke: #e0e0e0; stroke-width: 3; stroke-linecap: square"/>
   </g>
   <g id="line2d_41">
    <path d="M 800.939728 743.635599 
L 849.289434 688.141815 
L 895.659912 636.978142 
L 923.746096 607.578971 
" clip-path="url(#peeffdc7527)" style="fill: none; stroke: #e0e0e0; stroke-width: 3; stroke-linecap: square"/>
   </g>
   <g id="line2d_42">
    <path d="M 820.920503 771.895267 
L 889.250984 694.067229 
L 906.969785 674.239881 
L 933.736484 640.852451 
" clip-path="url(#peeffdc7527)" style="fill: none; stroke: #e0e0e0; stroke-width: 3; stroke-linecap: square"/>
   </g>
   <g id="line2d_43">
    <path d="M 1355.029243 76.57069 
L 1350.128298 91.042375 
L 1350.316796 107.679115 
L 1352.484521 122.3787 
L 1356.725724 136.280634 
L 1363.605896 153.942927 
L 1388.016372 189.723313 
L 1441 257.655231 
" clip-path="url(#peeffdc7527)" style="fill: none; stroke: #e0e0e0; stroke-width: 3; stroke-linecap: square"/>
   </g>
   <g id="line2d_44">
    <path d="M 1332.974991 50.590027 
L 1323.361599 75.203287 
L 1319.780139 101.5258 
L 1319.120397 126.594861 
L 1320.439882 144.712954 
L 1325.812072 162.717098 
L 1330.901514 177.986435 
L 1336.744949 190.407014 
L 1342.494134 201.574141 
L 1350.693792 216.501627 
L 1361.815166 233.138368 
L 1409.693628 298.431875 
" clip-path="url(#peeffdc7527)" style="fill: none; stroke: #e0e0e0; stroke-width: 3; stroke-linecap: square"/>
   </g>
   <g id="line2d_45">
    <path d="M 446.280969 1132.661837 
L 580.585708 984.070679 
" clip-path="url(#peeffdc7527)" style="fill: none; stroke: #e0e0e0; stroke-width: 3; stroke-linecap: square"/>
   </g>
   <g id="line2d_46">
    <path d="M 467.486981 1158.186699 
L 602.357213 1009.253689 
" clip-path="url(#peeffdc7527)" style="fill: none; stroke: #e0e0e0; stroke-width: 3; stroke-linecap: square"/>
   </g>
   <g id="line2d_47">
    <path d="M 800.939728 743.635599 
L 675.305892 881.857282 
" clip-path="url(#peeffdc7527)" style="fill: none; stroke: #e0e0e0; stroke-width: 3; stroke-linecap: square"/>
   </g>
   <g id="line2d_48">
    <path d="M 779.922215 717.313085 
L 741.939892 759.588637 
L 658.435332 851.77441 
" clip-path="url(#peeffdc7527)" style="fill: none; stroke: #e0e0e0; stroke-width: 3; stroke-linecap: square"/>
   </g>
   <g id="line2d_49">
    <path d="M 1121.951616 1065.659076 
L 958.146959 857.927725 
" clip-path="url(#peeffdc7527)" style="fill: none; stroke: #e0e0e0; stroke-width: 3; stroke-linecap: square"/>
   </g>
   <g id="line2d_50">
    <path d="M 1160.68793 1014.837253 
L 1000.653231 810.068609 
" clip-path="url(#peeffdc7527)" style="fill: none; stroke: #e0e0e0; stroke-width: 3; stroke-linecap: square"/>
   </g>
   <g id="line2d_51">
    <path d="M 580.585708 984.070679 
L 616.211807 946.808939 
L 675.305892 881.857282 
" clip-path="url(#peeffdc7527)" style="fill: none; stroke: #e0e0e0; stroke-width: 3; stroke-linecap: square"/>
   </g>
   <g id="line2d_52">
    <path d="M 602.357213 1009.253689 
L 694.532676 907.610044 
" clip-path="url(#peeffdc7527)" style="fill: none; stroke: #e0e0e0; stroke-width: 3; stroke-linecap: square"/>
   </g>
   <g id="line2d_53">
    <path d="M 779.922215 717.313085 
L 741.939892 759.588637 
L 658.435332 851.77441 
" clip-path="url(#peeffdc7527)" style="fill: none; stroke: #e0e0e0; stroke-width: 3; stroke-linecap: square"/>
   </g>
   <g id="line2d_54">
    <path d="M 769.272085 702.6135 
L 662.959281 820.552034 
L 645.900223 842.430487 
" clip-path="url(#peeffdc7527)" style="fill: none; stroke: #e0e0e0; stroke-width: 3; stroke-linecap: square"/>
   </g>
   <g id="line2d_55">
    <path d="M 675.305892 881.857282 
L 616.211807 946.808939 
L 580.585708 984.070679 
" clip-path="url(#peeffdc7527)" style="fill: none; stroke: #e0e0e0; stroke-width: 3; stroke-linecap: square"/>
   </g>
   <g id="line2d_56">
    <path d="M 658.435332 851.77441 
L 595.948285 919.574823 
L 562.207165 958.659767 
" clip-path="url(#peeffdc7527)" style="fill: none; stroke: #e0e0e0; stroke-width: 3; stroke-linecap: square"/>
   </g>
   <g id="line2d_57">
    <path d="M 562.207165 958.659767 
L 527.240808 995.921507 
L 480.399085 1047.882833 
L 429.31616 1106.225373 
" clip-path="url(#peeffdc7527)" style="fill: none; stroke: #e0e0e0; stroke-width: 3; stroke-linecap: square"/>
   </g>
   <g id="line2d_58">
    <path d="M 552.311026 946.467088 
L 418.289034 1093.690843 
" clip-path="url(#peeffdc7527)" style="fill: none; stroke: #e0e0e0; stroke-width: 3; stroke-linecap: square"/>
   </g>
   <g id="line2d_59">
    <path d="M 1202.44021 218.438782 
L 1116.956422 327.489195 
L 1108.474017 337.516819 
" clip-path="url(#peeffdc7527)" style="fill: none; stroke: #e0e0e0; stroke-width: 3; stroke-linecap: square"/>
   </g>
   <g id="line2d_60">
    <path d="M 1202.44021 193.369722 
L 1144.66561 266.639748 
L 1102.91333 318.487123 
L 1099.991613 320.880079 
L 1099.614617 320.880079 
" clip-path="url(#peeffdc7527)" style="fill: none; stroke: #e0e0e0; stroke-width: 3; stroke-linecap: square"/>
   </g>
   <g id="line2d_61">
    <path d="M 904.048068 579.205352 
L 837.037072 653.614882 
L 779.922215 717.313085 
" clip-path="url(#peeffdc7527)" style="fill: none; stroke: #e0e0e0; stroke-width: 3; stroke-linecap: square"/>
   </g>
   <g id="line2d_62">
    <path d="M 893.115191 561.77096 
L 799.431745 669.34002 
L 769.272085 702.6135 
" clip-path="url(#peeffdc7527)" style="fill: none; stroke: #e0e0e0; stroke-width: 3; stroke-linecap: square"/>
   </g>
   <g id="line2d_63">
    <path d="M 1108.474017 337.516819 
L 904.048068 579.205352 
" clip-path="url(#peeffdc7527)" style="fill: none; stroke: #e0e0e0; stroke-width: 3; stroke-linecap: square"/>
   </g>
   <g id="line2d_64">
    <path d="M 1099.614617 320.880079 
L 1093.394187 328.400797 
L 1074.355901 350.1653 
L 984.536662 456.936707 
L 893.115191 561.77096 
" clip-path="url(#peeffdc7527)" style="fill: none; stroke: #e0e0e0; stroke-width: 3; stroke-linecap: square"/>
   </g>
   <g id="line2d_65">
    <path d="M 1124.402088 368.511294 
L 1202.44021 270.172207 
" clip-path="url(#peeffdc7527)" style="fill: none; stroke: #e0e0e0; stroke-width: 3; stroke-linecap: square"/>
   </g>
   <g id="line2d_66">
    <path d="M 1139.764665 399.84762 
L 1202.44021 321.791681 
" clip-path="url(#peeffdc7527)" style="fill: none; stroke: #e0e0e0; stroke-width: 3; stroke-linecap: square"/>
   </g>
   <g id="line2d_67">
    <path d="M 429.31616 1106.225373 
L 337.234946 1204.678411 
L 308.300522 1234.989184 
" clip-path="url(#peeffdc7527)" style="fill: none; stroke: #e0e0e0; stroke-width: 3; stroke-linecap: square"/>
   </g>
   <g id="line2d_68">
    <path d="M 418.289034 1093.690843 
L 308.960265 1213.566532 
L 307.829277 1214.250234 
L 292.372451 1228.380068 
" clip-path="url(#peeffdc7527)" style="fill: none; stroke: #e0e0e0; stroke-width: 3; stroke-linecap: square"/>
   </g>
   <g id="line2d_69">
    <path d="M 328.846791 1259.602443 
L 446.280969 1132.661837 
" clip-path="url(#peeffdc7527)" style="fill: none; stroke: #e0e0e0; stroke-width: 3; stroke-linecap: square"/>
   </g>
   <g id="line2d_70">
    <path d="M 350.052802 1285.127305 
L 365.038384 1269.857968 
L 467.486981 1158.186699 
" clip-path="url(#peeffdc7527)" style="fill: none; stroke: #e0e0e0; stroke-width: 3; stroke-linecap: square"/>
   </g>
   <g id="line2d_71">
    <path d="M 675.305892 881.857282 
L 800.939728 743.635599 
" clip-path="url(#peeffdc7527)" style="fill: none; stroke: #e0e0e0; stroke-width: 3; stroke-linecap: square"/>
   </g>
   <g id="line2d_72">
    <path d="M 694.532676 907.610044 
L 820.920503 771.895267 
" clip-path="url(#peeffdc7527)" style="fill: none; stroke: #e0e0e0; stroke-width: 3; stroke-linecap: square"/>
   </g>
   <g id="line2d_73">
    <path d="M 1124.402088 368.511294 
L 923.746096 607.578971 
" clip-path="url(#peeffdc7527)" style="fill: none; stroke: #e0e0e0; stroke-width: 3; stroke-linecap: square"/>
   </g>
   <g id="line2d_74">
    <path d="M 1108.474017 337.516819 
L 904.048068 579.205352 
" clip-path="url(#peeffdc7527)" style="fill: none; stroke: #e0e0e0; stroke-width: 3; stroke-linecap: square"/>
   </g>
   <g id="line2d_75">
    <path d="M 308.300522 1234.989184 
L 277.38687 1267.578963 
L 230.2624 1314.526476 
L 140.820157 1406.142497 
" clip-path="url(#peeffdc7527)" style="fill: none; stroke: #e0e0e0; stroke-width: 3; stroke-linecap: square"/>
   </g>
   <g id="line2d_76">
    <path d="M 292.372451 1228.380068 
L 115.184445 1406.142497 
" clip-path="url(#peeffdc7527)" style="fill: none; stroke: #e0e0e0; stroke-width: 3; stroke-linecap: square"/>
   </g>
   <g id="line2d_77">
    <path d="M 658.435332 851.77441 
L 595.948285 919.574823 
L 562.207165 958.659767 
" clip-path="url(#peeffdc7527)" style="fill: none; stroke: #e0e0e0; stroke-width: 3; stroke-linecap: square"/>
   </g>
   <g id="line2d_78">
    <path d="M 645.900223 842.430487 
L 639.114299 851.090708 
L 586.61764 908.749547 
L 552.311026 946.467088 
" clip-path="url(#peeffdc7527)" style="fill: none; stroke: #e0e0e0; stroke-width: 3; stroke-linecap: square"/>
   </g>
   <g id="line2d_79">
    <path d="M 328.846791 1259.602443 
L 271.637685 1321.363492 
L 187.190635 1406.142497 
" clip-path="url(#peeffdc7527)" style="fill: none; stroke: #e0e0e0; stroke-width: 3; stroke-linecap: square"/>
   </g>
   <g id="line2d_80">
    <path d="M 308.300522 1234.989184 
L 277.38687 1267.578963 
L 230.2624 1314.526476 
L 140.820157 1406.142497 
" clip-path="url(#peeffdc7527)" style="fill: none; stroke: #e0e0e0; stroke-width: 3; stroke-linecap: square"/>
   </g>
   <g id="line2d_81">
    <path d="M 1332.974991 50.590027 
L 1236.087081 175.479528 
" clip-path="url(#peeffdc7527)" style="fill: none; stroke: #e0e0e0; stroke-width: 3; stroke-linecap: square"/>
   </g>
   <g id="line2d_82">
    <path d="M 1324.681084 38.055497 
L 1226.285192 162.944998 
" clip-path="url(#peeffdc7527)" style="fill: none; stroke: #e0e0e0; stroke-width: 3; stroke-linecap: square"/>
   </g>
   <g id="line2d_83">
    <path d="M 1416.196536 -1 
L 1355.029243 76.57069 
" clip-path="url(#peeffdc7527)" style="fill: none; stroke: #e0e0e0; stroke-width: 3; stroke-linecap: square"/>
   </g>
   <g id="line2d_84">
    <path d="M 1373.902608 -1 
L 1332.974991 50.590027 
" clip-path="url(#peeffdc7527)" style="fill: none; stroke: #e0e0e0; stroke-width: 3; stroke-linecap: square"/>
   </g>
   <g id="line2d_85">
    <path d="M 1373.902608 -1 
L 1332.974991 50.590027 
" clip-path="url(#peeffdc7527)" style="fill: none; stroke: #e0e0e0; stroke-width: 3; stroke-linecap: square"/>
   </g>
   <g id="line2d_86">
    <path d="M 1354.711253 -1 
L 1354.557998 -0.801547 
L 1335.802459 23.128011 
L 1324.681084 38.055497 
" clip-path="url(#peeffdc7527)" style="fill: none; stroke: #e0e0e0; stroke-width: 3; stroke-linecap: square"/>
   </g>
   <g id="line2d_87">
    <path d="M 958.146959 857.927725 
L 923.180603 812.689465 
L 865.971496 738.393886 
L 858.808577 729.847616 
L 845.142481 719.478141 
L 825.538701 711.501621 
L 802.918956 709.564467 
L 779.922215 717.313085 
" clip-path="url(#peeffdc7527)" style="fill: none; stroke: #e0e0e0; stroke-width: 3; stroke-linecap: square"/>
   </g>
   <g id="line2d_88">
    <path d="M 1000.653231 810.068609 
L 907.912274 692.357975 
L 901.597595 684.495406 
L 891.135963 677.65839 
L 876.715875 670.935323 
L 858.902826 666.263362 
L 838.545055 665.23781 
L 816.302305 669.795821 
L 792.928568 681.646649 
L 769.272085 702.6135 
" clip-path="url(#peeffdc7527)" style="fill: none; stroke: #e0e0e0; stroke-width: 3; stroke-linecap: square"/>
   </g>
   <g id="line2d_89">
    <path d="M 1236.087081 175.479528 
L 1202.722957 218.096931 
L 1202.44021 218.438782 
" clip-path="url(#peeffdc7527)" style="fill: none; stroke: #e0e0e0; stroke-width: 3; stroke-linecap: square"/>
   </g>
   <g id="line2d_90">
    <path d="M 1226.285192 162.944998 
L 1202.722957 193.027871 
L 1202.44021 193.369722 
" clip-path="url(#peeffdc7527)" style="fill: none; stroke: #e0e0e0; stroke-width: 3; stroke-linecap: square"/>
   </g>
   <g id="line2d_91">
    <path d="M 202.964134 1441 
L 204.249693 1438.162524 
L 221.685747 1417.423574 
" clip-path="url(#peeffdc7527)" style="fill: none; stroke: #e0e0e0; stroke-width: 3; stroke-linecap: square"/>
   </g>
   <g id="line2d_92">
    <path d="M 231.85009 1441 
L 236.294332 1430.413905 
" clip-path="url(#peeffdc7527)" style="fill: none; stroke: #e0e0e0; stroke-width: 3; stroke-linecap: square"/>
   </g>
   <g id="line2d_93">
    <path d="M 602.357213 1009.253689 
L 694.532676 907.610044 
" clip-path="url(#peeffdc7527)" style="fill: none; stroke: #e0e0e0; stroke-width: 3; stroke-linecap: square"/>
   </g>
   <g id="line2d_94">
    <path d="M 619.981765 1020.078966 
L 622.243739 1017.57206 
L 707.256282 923.107282 
" clip-path="url(#peeffdc7527)" style="fill: none; stroke: #e0e0e0; stroke-width: 3; stroke-linecap: square"/>
   </g>
   <g id="line2d_95">
    <path d="M 1202.44021 321.791681 
L 1202.722957 321.449831 
L 1276.331378 228.922207 
" clip-path="url(#peeffdc7527)" style="fill: none; stroke: #e0e0e0; stroke-width: 3; stroke-linecap: square"/>
   </g>
   <g id="line2d_96">
    <path d="M 1202.44021 350.849001 
L 1202.722957 350.507151 
L 1214.786821 335.351764 
L 1228.452917 318.487123 
L 1263.513523 273.704665 
L 1274.823395 259.574831 
L 1286.698762 245.217097 
" clip-path="url(#peeffdc7527)" style="fill: none; stroke: #e0e0e0; stroke-width: 3; stroke-linecap: square"/>
   </g>
   <g id="line2d_97">
    <path d="M 694.532676 907.610044 
L 820.920503 771.895267 
" clip-path="url(#peeffdc7527)" style="fill: none; stroke: #e0e0e0; stroke-width: 3; stroke-linecap: square"/>
   </g>
   <g id="line2d_98">
    <path d="M 707.256282 923.107282 
L 831.85338 786.139051 
" clip-path="url(#peeffdc7527)" style="fill: none; stroke: #e0e0e0; stroke-width: 3; stroke-linecap: square"/>
   </g>
   <g id="line2d_99">
    <path d="M 221.685747 1417.423574 
L 232.901371 1406.142497 
" clip-path="url(#peeffdc7527)" style="fill: none; stroke: #e0e0e0; stroke-width: 3; stroke-linecap: square"/>
   </g>
   <g id="line2d_100">
    <path d="M 236.294332 1430.413905 
L 259.479571 1406.142497 
" clip-path="url(#peeffdc7527)" style="fill: none; stroke: #e0e0e0; stroke-width: 3; stroke-linecap: square"/>
   </g>
   <g id="line2d_101">
    <path d="M 467.486981 1158.186699 
L 484.357541 1142.689461 
L 501.699346 1131.522334 
L 519.323897 1124.229517 
L 536.8542 1120.469158 
L 554.101756 1119.785456 
L 570.59532 1121.836561 
L 586.146395 1126.280622 
L 600.377985 1132.547887 
L 613.101592 1140.410456 
L 623.845971 1149.412528 
L 635.155844 1163.998163 
" clip-path="url(#peeffdc7527)" style="fill: none; stroke: #e0e0e0; stroke-width: 3; stroke-linecap: square"/>
   </g>
   <g id="line2d_102">
    <path d="M 479.268098 1173.911837 
L 486.713764 1169.695676 
L 498.117886 1165.365566 
L 512.537974 1162.630759 
L 529.125787 1162.85866 
L 547.033085 1167.530621 
L 565.411629 1178.355897 
L 583.413176 1196.587941 
L 594.723049 1211.173577 
" clip-path="url(#peeffdc7527)" style="fill: none; stroke: #e0e0e0; stroke-width: 3; stroke-linecap: square"/>
   </g>
   <g id="line2d_103">
    <path d="M 933.736484 640.852451 
L 1053.244139 502.858668 
L 1117.898911 427.423586 
L 1139.764665 399.84762 
" clip-path="url(#peeffdc7527)" style="fill: none; stroke: #e0e0e0; stroke-width: 3; stroke-linecap: square"/>
   </g>
   <g id="line2d_104">
    <path d="M 947.496829 653.956733 
L 952.869018 647.803418 
L 1149.566555 416.59831 
" clip-path="url(#peeffdc7527)" style="fill: none; stroke: #e0e0e0; stroke-width: 3; stroke-linecap: square"/>
   </g>
   <g id="line2d_105">
    <path d="M 198.494777 1441 
L 221.685747 1417.423574 
" clip-path="url(#peeffdc7527)" style="fill: none; stroke: #e0e0e0; stroke-width: 3; stroke-linecap: square"/>
   </g>
   <g id="line2d_106">
    <path d="M 225.814006 1441 
L 236.294332 1430.413905 
" clip-path="url(#peeffdc7527)" style="fill: none; stroke: #e0e0e0; stroke-width: 3; stroke-linecap: square"/>
   </g>
   <g id="line2d_107">
    <path d="M 958.146959 857.927725 
L 916.30043 803.573443 
L 905.6503 782.264742 
L 900.466608 757.081731 
L 899.618368 731.55687 
L 902.351587 706.82966 
L 907.912274 684.267506 
L 915.357941 668.542368 
L 922.992105 654.868335 
L 933.736484 640.852451 
" clip-path="url(#peeffdc7527)" style="fill: none; stroke: #e0e0e0; stroke-width: 3; stroke-linecap: square"/>
   </g>
   <g id="line2d_108">
    <path d="M 1000.653231 810.068609 
L 972.2843 775.199825 
L 956.638976 753.663223 
L 943.538373 726.657008 
L 937.977686 698.169439 
L 940.145412 675.265434 
L 944.857859 659.768197 
L 947.496829 653.956733 
" clip-path="url(#peeffdc7527)" style="fill: none; stroke: #e0e0e0; stroke-width: 3; stroke-linecap: square"/>
   </g>
   <g id="line2d_109">
    <path d="M 1276.331378 228.922207 
L 1372.842292 97.651491 
" clip-path="url(#peeffdc7527)" style="fill: none; stroke: #e0e0e0; stroke-width: 3; stroke-linecap: square"/>
   </g>
   <g id="line2d_110">
    <path d="M 1286.698762 245.217097 
L 1409.976374 142.661849 
" clip-path="url(#peeffdc7527)" style="fill: none; stroke: #e0e0e0; stroke-width: 3; stroke-linecap: square"/>
   </g>
   <g id="line2d_111">
    <path d="M 1139.764665 399.84762 
L 1202.44021 321.791681 
" clip-path="url(#peeffdc7527)" style="fill: none; stroke: #e0e0e0; stroke-width: 3; stroke-linecap: square"/>
   </g>
   <g id="line2d_112">
    <path d="M 1149.566555 416.59831 
L 1173.034541 388.110741 
L 1202.44021 350.849001 
" clip-path="url(#peeffdc7527)" style="fill: none; stroke: #e0e0e0; stroke-width: 3; stroke-linecap: square"/>
   </g>
   <g id="line2d_113">
    <path d="M 1276.331378 228.922207 
L 1291.505458 219.236434 
L 1308.470267 211.601766 
L 1326.566063 207.385605 
L 1345.321602 206.132152 
L 1363.982892 207.613506 
L 1382.172937 211.943616 
L 1399.137746 219.008533 
L 1414.406075 228.694307 
L 1427.22393 240.886986 
L 1441 257.882651 
" clip-path="url(#peeffdc7527)" style="fill: none; stroke: #e0e0e0; stroke-width: 3; stroke-linecap: square"/>
   </g>
   <g id="line2d_114">
    <path d="M 1286.698762 245.217097 
L 1300.647605 238.949832 
L 1316.010182 236.670826 
L 1332.126751 238.15218 
L 1348.431817 243.052041 
L 1364.077141 251.142511 
L 1378.591478 262.081737 
L 1391.315084 275.75577 
L 1409.693628 298.431875 
" clip-path="url(#peeffdc7527)" style="fill: none; stroke: #e0e0e0; stroke-width: 3; stroke-linecap: square"/>
   </g>
   <g id="line2d_115">
    <path d="M 467.486981 1158.186699 
L 602.357213 1009.253689 
" clip-path="url(#peeffdc7527)" style="fill: none; stroke: #e0e0e0; stroke-width: 3; stroke-linecap: square"/>
   </g>
   <g id="line2d_116">
    <path d="M 479.268098 1173.911837 
L 619.981765 1020.078966 
" clip-path="url(#peeffdc7527)" style="fill: none; stroke: #e0e0e0; stroke-width: 3; stroke-linecap: square"/>
   </g>
   <g id="line2d_117">
    <path d="M 350.052802 1285.127305 
L 365.038384 1269.857968 
L 467.486981 1158.186699 
" clip-path="url(#peeffdc7527)" style="fill: none; stroke: #e0e0e0; stroke-width: 3; stroke-linecap: square"/>
   </g>
   <g id="line2d_118">
    <path d="M 364.378641 1296.864183 
L 433.274616 1223.138355 
L 479.268098 1173.911837 
" clip-path="url(#peeffdc7527)" style="fill: none; stroke: #e0e0e0; stroke-width: 3; stroke-linecap: square"/>
   </g>
   <g id="line2d_119">
    <path d="M 820.920503 771.895267 
L 889.250984 694.067229 
L 906.969785 674.239881 
L 933.736484 640.852451 
" clip-path="url(#peeffdc7527)" style="fill: none; stroke: #e0e0e0; stroke-width: 3; stroke-linecap: square"/>
   </g>
   <g id="line2d_120">
    <path d="M 831.85338 786.139051 
L 947.496829 653.956733 
" clip-path="url(#peeffdc7527)" style="fill: none; stroke: #e0e0e0; stroke-width: 3; stroke-linecap: square"/>
   </g>
   <g id="line2d_121">
    <path d="M 232.901371 1406.142497 
L 350.052802 1285.127305 
" clip-path="url(#peeffdc7527)" style="fill: none; stroke: #e0e0e0; stroke-width: 3; stroke-linecap: square"/>
   </g>
   <g id="line2d_122">
    <path d="M 259.479571 1406.142497 
L 313.578463 1349.39526 
L 364.378641 1296.864183 
" clip-path="url(#peeffdc7527)" style="fill: none; stroke: #e0e0e0; stroke-width: 3; stroke-linecap: square"/>
   </g>
   <g id="line2d_123">
    <path d="M 1256.444852 202.485744 
L 1372.842292 97.651491 
" clip-path="url(#peeffdc7527)" style="fill: none; stroke: #e0e0e0; stroke-width: 3; stroke-linecap: square"/>
   </g>
   <g id="line2d_124">
    <path d="M 1276.331378 228.922207 
L 1409.976374 142.661849 
" clip-path="url(#peeffdc7527)" style="fill: none; stroke: #e0e0e0; stroke-width: 3; stroke-linecap: square"/>
   </g>
   <g id="line2d_125">
    <path d="M 1372.842292 97.651491 
L 1441 13.486109 
" clip-path="url(#peeffdc7527)" style="fill: none; stroke: #e0e0e0; stroke-width: 3; stroke-linecap: square"/>
   </g>
   <g id="line2d_126">
    <path d="M 1409.976374 142.661849 
L 1441 107.482632 
" clip-path="url(#peeffdc7527)" style="fill: none; stroke: #e0e0e0; stroke-width: 3; stroke-linecap: square"/>
   </g>
   <g id="line2d_127">
    <path d="M 213.339469 1347.697078 
L 210.691019 1350.730837 
L 207.932121 1354.002456 
L 205.141008 1357.50359 
L 202.326886 1361.237715 
L 199.519666 1365.15406 
L 196.717049 1369.267926 
L 193.923636 1373.62313 
L 191.176242 1378.215499 
L 188.497879 1383.024863 
" clip-path="url(#peeffdc7527)" style="fill: none; stroke: #1e90ff; stroke-width: 10; stroke-linecap: square"/>
   </g>
   <g id="line2d_128">
    <defs>
     <path id="mff08fbe017" d="M 0 10 
C 2.652031 10 5.195799 8.946337 7.071068 7.071068 
C 8.946337 5.195799 10 2.652031 10 0 
C 10 -2.652031 8.946337 -5.195799 7.071068 -7.071068 
C 5.195799 -8.946337 2.652031 -10 0 -10 
C -2.652031 -10 -5.195799 -8.946337 -7.071068 -7.071068 
C -8.946337 -5.195799 -10 -2.652031 -10 0 
C -10 2.652031 -8.946337 5.195799 -7.071068 7.071068 
C -5.195799 8.946337 -2.652031 10 0 10 
z
" style="stroke: #0000ff"/>
    </defs>
    <g clip-path="url(#peeffdc7527)">
     <use xlink:href="#mff08fbe017" x="213.339469" y="1347.697078" style="fill: #0000ff; stroke: #0000ff"/>
    </g>
   </g>
   <g id="line2d_129">
    <path d="M 478.363989 1039.438772 
L 475.588984 1042.322304 
L 472.696628 1045.436741 
L 469.762853 1048.779301 
L 466.796865 1052.354157 
L 463.828576 1056.111233 
L 460.857985 1060.065831 
L 457.887395 1064.262461 
L 454.951319 1068.701125 
L 452.077371 1073.359566 
" clip-path="url(#peeffdc7527)" style="fill: none; stroke: #1e90ff; stroke-width: 10; stroke-linecap: square"/>
   </g>
   <g id="line2d_130">
    <g clip-path="url(#peeffdc7527)">
     <use xlink:href="#mff08fbe017" x="478.363989" y="1039.438772" style="fill: #0000ff; stroke: #0000ff"/>
    </g>
   </g>
   <g id="line2d_131">
    <path d="M 603.973251 984.719828 
L 606.492845 981.509413 
L 609.111383 978.055573 
L 611.750629 974.369438 
L 614.403682 970.446833 
L 617.042928 966.343399 
L 619.668368 962.042444 
L 622.2731 957.500846 
L 624.822607 952.724171 
L 627.293881 947.734674 
" clip-path="url(#peeffdc7527)" style="fill: none; stroke: #1e90ff; stroke-width: 10; stroke-linecap: square"/>
   </g>
   <g id="line2d_132">
    <g clip-path="url(#peeffdc7527)">
     <use xlink:href="#mff08fbe017" x="603.973251" y="984.719828" style="fill: #0000ff; stroke: #0000ff"/>
    </g>
   </g>
   <g id="line2d_133">
    <path d="M 718.514705 846.19207 
L 714.897534 845.701049 
L 711.059466 845.260104 
L 707.058028 844.940175 
L 702.893219 844.745436 
L 698.617962 844.673104 
L 694.220752 844.735699 
L 689.678579 844.959649 
L 685.014453 845.376947 
L 680.258287 846.000113 
" clip-path="url(#peeffdc7527)" style="fill: none; stroke: #1e90ff; stroke-width: 10; stroke-linecap: square"/>
   </g>
   <g id="line2d_134">
    <g clip-path="url(#peeffdc7527)">
     <use xlink:href="#mff08fbe017" x="718.514705" y="846.19207" style="fill: #0000ff; stroke: #0000ff"/>
    </g>
   </g>
   <g id="line2d_135">
    <path d="M 830.814985 791.936327 
L 832.260013 787.908007 
L 833.728051 783.609834 
L 835.150068 779.086319 
L 836.521464 774.337464 
L 837.826131 769.424471 
L 839.061767 764.334822 
L 840.212267 759.028178 
L 841.245416 753.525403 
L 842.142806 747.8571 
" clip-path="url(#peeffdc7527)" style="fill: none; stroke: #1e90ff; stroke-width: 10; stroke-linecap: square"/>
   </g>
   <g id="line2d_136">
    <g clip-path="url(#peeffdc7527)">
     <use xlink:href="#mff08fbe017" x="830.814985" y="791.936327" style="fill: #0000ff; stroke: #0000ff"/>
    </g>
   </g>
   <g id="line2d_137">
    <path d="M 847.039333 714.254845 
L 849.471489 710.945669 
L 851.997987 707.386114 
L 854.53829 703.594262 
L 857.087798 699.565942 
L 859.616596 695.356793 
L 862.126986 690.951513 
L 864.609765 686.305591 
L 867.032717 681.425982 
L 869.368232 676.336333 
" clip-path="url(#peeffdc7527)" style="fill: none; stroke: #1e90ff; stroke-width: 10; stroke-linecap: square"/>
   </g>
   <g id="line2d_138">
    <g clip-path="url(#peeffdc7527)">
     <use xlink:href="#mff08fbe017" x="847.039333" y="714.254845" style="fill: #0000ff; stroke: #0000ff"/>
    </g>
   </g>
   <g id="line2d_139">
    <path d="M 995.835766 888.763459 
L 993.102179 885.779776 
L 990.1592 882.682031 
L 987.025239 879.564812 
L 983.693392 876.435074 
L 980.209679 873.327592 
L 976.564895 870.243757 
L 972.717624 867.189133 
L 968.677069 864.208232 
L 964.461638 861.328873 
" clip-path="url(#peeffdc7527)" style="fill: none; stroke: #1e90ff; stroke-width: 10; stroke-linecap: square"/>
   </g>
   <g id="line2d_140">
    <g clip-path="url(#peeffdc7527)">
     <use xlink:href="#mff08fbe017" x="995.835766" y="888.763459" style="fill: #0000ff; stroke: #0000ff"/>
    </g>
   </g>
   <g id="line2d_141">
    <path d="M 1036.657798 893.636113 
L 1034.039261 890.538368 
L 1031.222837 887.316825 
L 1028.21313 884.067461 
L 1025.007838 880.795842 
L 1021.652981 877.539524 
L 1018.134752 874.298506 
L 1014.416337 871.075572 
L 1010.504638 867.916623 
L 1006.413461 864.852262 
" clip-path="url(#peeffdc7527)" style="fill: none; stroke: #1e90ff; stroke-width: 10; stroke-linecap: square"/>
   </g>
   <g id="line2d_142">
    <g clip-path="url(#peeffdc7527)">
     <use xlink:href="#mff08fbe017" x="1036.657798" y="893.636113" style="fill: #0000ff; stroke: #0000ff"/>
    </g>
   </g>
   <g id="line2d_143">
    <path d="M 1167.534048 357.421618 
L 1169.862659 354.065148 
L 1172.278709 350.45969 
L 1174.703962 346.621936 
L 1177.131517 342.551886 
L 1179.536061 338.302397 
L 1181.915294 333.859561 
L 1184.262314 329.180255 
L 1186.544905 324.271435 
L 1188.737758 319.158139 
" clip-path="url(#peeffdc7527)" style="fill: none; stroke: #1e90ff; stroke-width: 10; stroke-linecap: square"/>
   </g>
   <g id="line2d_144">
    <g clip-path="url(#peeffdc7527)">
     <use xlink:href="#mff08fbe017" x="1167.534048" y="357.421618" style="fill: #0000ff; stroke: #0000ff"/>
    </g>
   </g>
   <g id="line2d_145">
    <path d="M 1298.626591 56.975137 
L 1296.178327 60.239802 
L 1293.635723 63.749281 
L 1291.077012 67.492447 
L 1288.506795 71.469301 
L 1285.957288 75.625593 
L 1283.423887 79.979406 
L 1280.915798 84.571079 
L 1278.465233 89.396439 
L 1276.099806 94.431839 
" clip-path="url(#peeffdc7527)" style="fill: none; stroke: #1e90ff; stroke-width: 10; stroke-linecap: square"/>
   </g>
   <g id="line2d_146">
    <g clip-path="url(#peeffdc7527)">
     <use xlink:href="#mff08fbe017" x="1298.626591" y="56.975137" style="fill: #0000ff; stroke: #0000ff"/>
    </g>
   </g>
  </g>
 </g>
 <defs>
  <clipPath id="peeffdc7527">
   <rect x="0" y="0" width="1440" height="1440"/>
  </clipPath>
 </defs>
</svg>
