<?xml version="1.0" encoding="utf-8" standalone="no"?>
<!DOCTYPE svg PUBLIC "-//W3C//DTD SVG 1.1//EN"
  "http://www.w3.org/Graphics/SVG/1.1/DTD/svg11.dtd">
<svg xmlns:xlink="http://www.w3.org/1999/xlink" width="1440pt" height="1440pt" viewBox="0 0 1440 1440" xmlns="http://www.w3.org/2000/svg" version="1.1">
 <metadata>
  <rdf:RDF xmlns:dc="http://purl.org/dc/elements/1.1/" xmlns:cc="http://creativecommons.org/ns#" xmlns:rdf="http://www.w3.org/1999/02/22-rdf-syntax-ns#">
   <cc:Work>
    <dc:type rdf:resource="http://purl.org/dc/dcmitype/StillImage"/>
    <dc:date>2025-05-12T02:14:08.595103</dc:date>
    <dc:format>image/svg+xml</dc:format>
    <dc:creator>
     <cc:Agent>
      <dc:title>Matplotlib v3.7.3, https://matplotlib.org/</dc:title>
     </cc:Agent>
    </dc:creator>
   </cc:Work>
  </rdf:RDF>
 </metadata>
 <defs>
  <style type="text/css">*{stroke-linejoin: round; stroke-linecap: butt}</style>
 </defs>
 <g id="figure_1">
  <g id="patch_1">
   <path d="M 0 1440 
L 1440 1440 
L 1440 0 
L 0 0 
z
" style="fill: #ffffff"/>
  </g>
  <g id="axes_1">
   <g id="line2d_1">
    <path d="M 1289.548808 79.489729 
L 1349.002187 -1 
" clip-path="url(#p217df0ec5d)" style="fill: none; stroke: #e0e0e0; stroke-width: 3; stroke-linecap: square"/>
   </g>
   <g id="line2d_2">
    <path d="M 1306.507108 100.914523 
L 1373.712219 12.320105 
" clip-path="url(#p217df0ec5d)" style="fill: none; stroke: #e0e0e0; stroke-width: 3; stroke-linecap: square"/>
   </g>
   <g id="line2d_3">
    <path d="M 177.748361 1430.757278 
L 168.28364 1441 
" clip-path="url(#p217df0ec5d)" style="fill: none; stroke: #e0e0e0; stroke-width: 3; stroke-linecap: square"/>
   </g>
   <g id="line2d_4">
    <path d="M 133.602948 1430.757278 
L 125.886473 1439.095576 
" clip-path="url(#p217df0ec5d)" style="fill: none; stroke: #e0e0e0; stroke-width: 3; stroke-linecap: square"/>
   </g>
   <g id="line2d_5">
    <path d="M 1375.865654 269.649252 
L 1393.093132 293.853479 
L 1401.527419 305.666068 
L 1405.116477 310.645885 
" clip-path="url(#p217df0ec5d)" style="fill: none; stroke: #e0e0e0; stroke-width: 3; stroke-linecap: square"/>
   </g>
   <g id="line2d_6">
    <path d="M 1341.59015 304.97121 
L 1372.725228 343.420029 
" clip-path="url(#p217df0ec5d)" style="fill: none; stroke: #e0e0e0; stroke-width: 3; stroke-linecap: square"/>
   </g>
   <g id="line2d_7">
    <path d="M 1144.281685 276.250405 
L 1144.550865 275.902976 
L 1195.694941 207.459445 
" clip-path="url(#p217df0ec5d)" style="fill: none; stroke: #e0e0e0; stroke-width: 3; stroke-linecap: square"/>
   </g>
   <g id="line2d_8">
    <path d="M 1144.281685 328.712198 
L 1144.550865 328.364769 
L 1214.627222 234.327295 
" clip-path="url(#p217df0ec5d)" style="fill: none; stroke: #e0e0e0; stroke-width: 3; stroke-linecap: square"/>
   </g>
   <g id="line2d_9">
    <path d="M 1195.694941 207.459445 
L 1144.550865 275.902976 
L 1144.281685 276.250405 
" clip-path="url(#p217df0ec5d)" style="fill: none; stroke: #e0e0e0; stroke-width: 3; stroke-linecap: square"/>
   </g>
   <g id="line2d_10">
    <path d="M 1176.314028 180.012547 
L 1144.550865 223.325373 
L 1144.281685 223.672802 
" clip-path="url(#p217df0ec5d)" style="fill: none; stroke: #e0e0e0; stroke-width: 3; stroke-linecap: square"/>
   </g>
   <g id="line2d_11">
    <path d="M 168.28364 1441 
L 177.748361 1430.757278 
" clip-path="url(#p217df0ec5d)" style="fill: none; stroke: #e0e0e0; stroke-width: 3; stroke-linecap: square"/>
   </g>
   <g id="line2d_12">
    <path d="M 211.726692 1441 
L 221.26569 1430.757278 
" clip-path="url(#p217df0ec5d)" style="fill: none; stroke: #e0e0e0; stroke-width: 3; stroke-linecap: square"/>
   </g>
   <g id="line2d_13">
    <path d="M 1289.548808 79.489729 
L 1195.694941 207.459445 
" clip-path="url(#p217df0ec5d)" style="fill: none; stroke: #e0e0e0; stroke-width: 3; stroke-linecap: square"/>
   </g>
   <g id="line2d_14">
    <path d="M 1268.552819 53.085118 
L 1176.314028 180.012547 
" clip-path="url(#p217df0ec5d)" style="fill: none; stroke: #e0e0e0; stroke-width: 3; stroke-linecap: square"/>
   </g>
   <g id="line2d_15">
    <path d="M 1195.694941 207.459445 
L 1289.548808 79.489729 
" clip-path="url(#p217df0ec5d)" style="fill: none; stroke: #e0e0e0; stroke-width: 3; stroke-linecap: square"/>
   </g>
   <g id="line2d_16">
    <path d="M 1214.627222 234.327295 
L 1306.507108 100.914523 
" clip-path="url(#p217df0ec5d)" style="fill: none; stroke: #e0e0e0; stroke-width: 3; stroke-linecap: square"/>
   </g>
   <g id="line2d_17">
    <path d="M 424.406373 1152.814004 
L 312.607216 1281.826007 
" clip-path="url(#p217df0ec5d)" style="fill: none; stroke: #e0e0e0; stroke-width: 3; stroke-linecap: square"/>
   </g>
   <g id="line2d_18">
    <path d="M 408.255612 1125.946154 
L 320.59287 1226.005733 
L 293.04685 1256.811112 
" clip-path="url(#p217df0ec5d)" style="fill: none; stroke: #e0e0e0; stroke-width: 3; stroke-linecap: square"/>
   </g>
   <g id="line2d_19">
    <path d="M 604.21818 1184.661671 
L 782.594363 1427.630416 
L 783.222449 1428.556894 
L 784.029987 1429.714991 
L 784.299166 1430.06242 
L 785.196431 1430.757278 
" clip-path="url(#p217df0ec5d)" style="fill: none; stroke: #e0e0e0; stroke-width: 3; stroke-linecap: square"/>
   </g>
   <g id="line2d_20">
    <path d="M 565.725533 1232.606886 
L 681.472654 1392.424268 
L 707.583051 1427.862035 
L 708.12141 1428.788513 
L 709.018674 1430.06242 
L 709.557033 1430.757278 
" clip-path="url(#p217df0ec5d)" style="fill: none; stroke: #e0e0e0; stroke-width: 3; stroke-linecap: square"/>
   </g>
   <g id="line2d_21">
    <path d="M 552.266565 1001.798159 
L 424.406373 1152.814004 
" clip-path="url(#p217df0ec5d)" style="fill: none; stroke: #e0e0e0; stroke-width: 3; stroke-linecap: square"/>
   </g>
   <g id="line2d_22">
    <path d="M 534.769907 975.972596 
L 501.481394 1013.842367 
L 456.887348 1066.651589 
L 408.255612 1125.946154 
" clip-path="url(#p217df0ec5d)" style="fill: none; stroke: #e0e0e0; stroke-width: 3; stroke-linecap: square"/>
   </g>
   <g id="line2d_23">
    <path d="M 424.406373 1152.814004 
L 440.646861 1140.306557 
L 454.554461 1133.357975 
L 473.486742 1127.45168 
L 490.803947 1125.019677 
L 507.493066 1124.788057 
L 522.477384 1127.45168 
L 535.487719 1130.925971 
L 550.651489 1135.674169 
L 565.007721 1142.85437 
L 578.466689 1152.350765 
L 591.207845 1165.78469 
L 604.21818 1184.661671 
" clip-path="url(#p217df0ec5d)" style="fill: none; stroke: #e0e0e0; stroke-width: 3; stroke-linecap: square"/>
   </g>
   <g id="line2d_24">
    <path d="M 444.594825 1178.755376 
L 463.437379 1162.889448 
L 488.022427 1164.510784 
L 506.236896 1169.143172 
L 522.118478 1180.955761 
L 535.397993 1193.231589 
L 565.725533 1232.606886 
" clip-path="url(#p217df0ec5d)" style="fill: none; stroke: #e0e0e0; stroke-width: 3; stroke-linecap: square"/>
   </g>
   <g id="line2d_25">
    <path d="M 177.748361 1430.757278 
L 258.143261 1344.594863 
L 312.607216 1281.826007 
" clip-path="url(#p217df0ec5d)" style="fill: none; stroke: #e0e0e0; stroke-width: 3; stroke-linecap: square"/>
   </g>
   <g id="line2d_26">
    <path d="M 221.26569 1430.757278 
L 332.795668 1307.767379 
" clip-path="url(#p217df0ec5d)" style="fill: none; stroke: #e0e0e0; stroke-width: 3; stroke-linecap: square"/>
   </g>
   <g id="line2d_27">
    <path d="M 878.960571 619.162919 
L 1069.988184 376.194174 
" clip-path="url(#p217df0ec5d)" style="fill: none; stroke: #e0e0e0; stroke-width: 3; stroke-linecap: square"/>
   </g>
   <g id="line2d_28">
    <path d="M 888.471575 652.97935 
L 1002.244714 512.733807 
L 1063.797059 436.067787 
L 1084.613596 408.041841 
" clip-path="url(#p217df0ec5d)" style="fill: none; stroke: #e0e0e0; stroke-width: 3; stroke-linecap: square"/>
   </g>
   <g id="line2d_29">
    <path d="M 1195.694941 207.459445 
L 1222.702603 193.446471 
L 1240.199261 188.698274 
L 1260.926071 187.076938 
L 1285.95975 191.940945 
L 1309.109175 204.216773 
L 1325.349662 214.060598 
L 1342.038782 228.53681 
L 1358.997081 245.445026 
L 1367.431367 257.489234 
L 1368.418358 259.22638 
L 1375.865654 269.649252 
" clip-path="url(#p217df0ec5d)" style="fill: none; stroke: #e0e0e0; stroke-width: 3; stroke-linecap: square"/>
   </g>
   <g id="line2d_30">
    <path d="M 1214.627222 234.327295 
L 1232.572512 224.59928 
L 1245.403395 222.862135 
L 1257.426739 224.020232 
L 1277.076832 233.979865 
L 1292.778961 246.603122 
L 1311.172883 267.333058 
L 1325.708568 286.904897 
L 1341.59015 304.97121 
" clip-path="url(#p217df0ec5d)" style="fill: none; stroke: #e0e0e0; stroke-width: 3; stroke-linecap: square"/>
   </g>
   <g id="line2d_31">
    <path d="M 1144.281685 276.250405 
L 1069.988184 376.194174 
" clip-path="url(#p217df0ec5d)" style="fill: none; stroke: #e0e0e0; stroke-width: 3; stroke-linecap: square"/>
   </g>
   <g id="line2d_32">
    <path d="M 1144.281685 223.672802 
L 1062.899795 334.502683 
L 1054.824414 344.693936 
" clip-path="url(#p217df0ec5d)" style="fill: none; stroke: #e0e0e0; stroke-width: 3; stroke-linecap: square"/>
   </g>
   <g id="line2d_33">
    <path d="M 552.266565 1001.798159 
L 549.126139 1025.075908 
L 549.664498 1049.395944 
L 551.459027 1070.704929 
L 554.42 1093.17201 
L 560.880304 1115.407472 
L 570.481035 1135.789979 
L 604.21818 1184.661671 
" clip-path="url(#p217df0ec5d)" style="fill: none; stroke: #e0e0e0; stroke-width: 3; stroke-linecap: square"/>
   </g>
   <g id="line2d_34">
    <path d="M 534.769907 975.972596 
L 528.399329 987.785185 
L 522.656837 1000.061013 
L 516.824617 1018.011516 
L 511.171851 1043.48965 
L 507.762246 1072.557884 
L 505.698537 1094.098488 
L 506.236896 1115.175853 
L 509.108143 1135.44255 
L 514.312277 1154.55115 
L 521.580119 1171.922604 
L 530.821944 1187.325294 
L 565.725533 1232.606886 
" clip-path="url(#p217df0ec5d)" style="fill: none; stroke: #e0e0e0; stroke-width: 3; stroke-linecap: square"/>
   </g>
   <g id="line2d_35">
    <path d="M 878.960571 619.162919 
L 852.222089 649.041821 
L 808.076675 701.040375 
L 762.047006 757.439697 
" clip-path="url(#p217df0ec5d)" style="fill: none; stroke: #e0e0e0; stroke-width: 3; stroke-linecap: square"/>
   </g>
   <g id="line2d_36">
    <path d="M 860.207743 590.326304 
L 796.412237 665.950037 
L 742.038008 730.687657 
" clip-path="url(#p217df0ec5d)" style="fill: none; stroke: #e0e0e0; stroke-width: 3; stroke-linecap: square"/>
   </g>
   <g id="line2d_37">
    <path d="M 911.710726 873.596824 
L 880.575647 831.094665 
L 869.180388 812.565113 
L 862.540631 794.035562 
L 857.964582 774.579533 
L 854.913883 749.796257 
L 853.926892 722.11774 
L 854.644703 693.628554 
L 856.798138 673.246048 
L 860.476922 655.411354 
L 866.039962 640.935142 
L 871.603002 630.628079 
L 878.960571 619.162919 
" clip-path="url(#p217df0ec5d)" style="fill: none; stroke: #e0e0e0; stroke-width: 3; stroke-linecap: square"/>
   </g>
   <g id="line2d_38">
    <path d="M 952.177355 824.956751 
L 918.888842 779.44354 
L 905.340148 757.902936 
L 896.995588 741.11053 
L 888.920207 722.928408 
L 885.331149 702.430091 
L 883.357167 682.163394 
L 888.471575 652.97935 
" clip-path="url(#p217df0ec5d)" style="fill: none; stroke: #e0e0e0; stroke-width: 3; stroke-linecap: square"/>
   </g>
   <g id="line2d_39">
    <path d="M 911.710726 873.596824 
L 877.883854 827.851993 
L 848.453578 789.982222 
L 831.405553 774.000484 
L 815.523971 764.388279 
L 794.258802 756.049981 
L 776.941597 755.239313 
L 762.047006 757.439697 
" clip-path="url(#p217df0ec5d)" style="fill: none; stroke: #e0e0e0; stroke-width: 3; stroke-linecap: square"/>
   </g>
   <g id="line2d_40">
    <path d="M 952.177355 824.956751 
L 891.701727 743.310914 
L 877.076316 731.150896 
L 862.181725 720.728023 
L 846.479596 713.895251 
L 831.495279 707.525718 
L 814.447253 706.136002 
L 795.694425 707.062479 
L 779.005305 710.42096 
L 761.239468 718.29602 
L 742.038008 730.687657 
" clip-path="url(#p217df0ec5d)" style="fill: none; stroke: #e0e0e0; stroke-width: 3; stroke-linecap: square"/>
   </g>
   <g id="line2d_41">
    <path d="M 762.047006 757.439697 
L 808.076675 701.040375 
L 852.222089 649.041821 
L 878.960571 619.162919 
" clip-path="url(#p217df0ec5d)" style="fill: none; stroke: #e0e0e0; stroke-width: 3; stroke-linecap: square"/>
   </g>
   <g id="line2d_42">
    <path d="M 781.069014 786.160502 
L 846.12069 707.062479 
L 862.989263 686.911592 
L 888.471575 652.97935 
" clip-path="url(#p217df0ec5d)" style="fill: none; stroke: #e0e0e0; stroke-width: 3; stroke-linecap: square"/>
   </g>
   <g id="line2d_43">
    <path d="M 1289.548808 79.489729 
L 1284.883033 94.197561 
L 1285.062486 111.105777 
L 1287.126194 126.045228 
L 1291.163885 140.174011 
L 1297.713915 158.124514 
L 1320.953066 194.488759 
L 1375.865654 269.649252 
" clip-path="url(#p217df0ec5d)" style="fill: none; stroke: #e0e0e0; stroke-width: 3; stroke-linecap: square"/>
   </g>
   <g id="line2d_44">
    <path d="M 1268.552819 53.085118 
L 1259.400721 78.100013 
L 1255.991116 104.852053 
L 1255.363031 130.330186 
L 1256.619201 148.743928 
L 1261.733609 167.04186 
L 1266.578837 182.56036 
L 1272.141877 195.183617 
L 1277.615191 206.532967 
L 1285.421392 221.704038 
L 1296.009113 238.612253 
L 1341.59015 304.97121 
" clip-path="url(#p217df0ec5d)" style="fill: none; stroke: #e0e0e0; stroke-width: 3; stroke-linecap: square"/>
   </g>
   <g id="line2d_45">
    <path d="M 424.406373 1152.814004 
L 552.266565 1001.798159 
" clip-path="url(#p217df0ec5d)" style="fill: none; stroke: #e0e0e0; stroke-width: 3; stroke-linecap: square"/>
   </g>
   <g id="line2d_46">
    <path d="M 444.594825 1178.755376 
L 572.993375 1027.392102 
" clip-path="url(#p217df0ec5d)" style="fill: none; stroke: #e0e0e0; stroke-width: 3; stroke-linecap: square"/>
   </g>
   <g id="line2d_47">
    <path d="M 762.047006 757.439697 
L 642.441648 897.91686 
" clip-path="url(#p217df0ec5d)" style="fill: none; stroke: #e0e0e0; stroke-width: 3; stroke-linecap: square"/>
   </g>
   <g id="line2d_48">
    <path d="M 742.038008 730.687657 
L 705.878248 773.653055 
L 626.380613 867.3431 
" clip-path="url(#p217df0ec5d)" style="fill: none; stroke: #e0e0e0; stroke-width: 3; stroke-linecap: square"/>
   </g>
   <g id="line2d_49">
    <path d="M 1067.655297 1084.717902 
L 911.710726 873.596824 
" clip-path="url(#p217df0ec5d)" style="fill: none; stroke: #e0e0e0; stroke-width: 3; stroke-linecap: square"/>
   </g>
   <g id="line2d_50">
    <path d="M 1104.532868 1033.066777 
L 952.177355 824.956751 
" clip-path="url(#p217df0ec5d)" style="fill: none; stroke: #e0e0e0; stroke-width: 3; stroke-linecap: square"/>
   </g>
   <g id="line2d_51">
    <path d="M 552.266565 1001.798159 
L 586.183164 963.928388 
L 642.441648 897.91686 
" clip-path="url(#p217df0ec5d)" style="fill: none; stroke: #e0e0e0; stroke-width: 3; stroke-linecap: square"/>
   </g>
   <g id="line2d_52">
    <path d="M 572.993375 1027.392102 
L 660.745844 924.089852 
" clip-path="url(#p217df0ec5d)" style="fill: none; stroke: #e0e0e0; stroke-width: 3; stroke-linecap: square"/>
   </g>
   <g id="line2d_53">
    <path d="M 742.038008 730.687657 
L 705.878248 773.653055 
L 626.380613 867.3431 
" clip-path="url(#p217df0ec5d)" style="fill: none; stroke: #e0e0e0; stroke-width: 3; stroke-linecap: square"/>
   </g>
   <g id="line2d_54">
    <path d="M 731.898919 715.748206 
L 630.687483 835.611243 
L 614.446995 857.846705 
" clip-path="url(#p217df0ec5d)" style="fill: none; stroke: #e0e0e0; stroke-width: 3; stroke-linecap: square"/>
   </g>
   <g id="line2d_55">
    <path d="M 642.441648 897.91686 
L 586.183164 963.928388 
L 552.266565 1001.798159 
" clip-path="url(#p217df0ec5d)" style="fill: none; stroke: #e0e0e0; stroke-width: 3; stroke-linecap: square"/>
   </g>
   <g id="line2d_56">
    <path d="M 626.380613 867.3431 
L 566.891977 936.24987 
L 534.769907 975.972596 
" clip-path="url(#p217df0ec5d)" style="fill: none; stroke: #e0e0e0; stroke-width: 3; stroke-linecap: square"/>
   </g>
   <g id="line2d_57">
    <path d="M 534.769907 975.972596 
L 501.481394 1013.842367 
L 456.887348 1066.651589 
L 408.255612 1125.946154 
" clip-path="url(#p217df0ec5d)" style="fill: none; stroke: #e0e0e0; stroke-width: 3; stroke-linecap: square"/>
   </g>
   <g id="line2d_58">
    <path d="M 525.34863 963.580959 
L 397.757618 1113.207088 
" clip-path="url(#p217df0ec5d)" style="fill: none; stroke: #e0e0e0; stroke-width: 3; stroke-linecap: square"/>
   </g>
   <g id="line2d_59">
    <path d="M 1144.281685 223.672802 
L 1062.899795 334.502683 
L 1054.824414 344.693936 
" clip-path="url(#p217df0ec5d)" style="fill: none; stroke: #e0e0e0; stroke-width: 3; stroke-linecap: square"/>
   </g>
   <g id="line2d_60">
    <path d="M 1144.281685 198.194669 
L 1089.279371 272.660304 
L 1049.530554 325.353717 
L 1046.749034 327.78572 
L 1046.390128 327.78572 
" clip-path="url(#p217df0ec5d)" style="fill: none; stroke: #e0e0e0; stroke-width: 3; stroke-linecap: square"/>
   </g>
   <g id="line2d_61">
    <path d="M 860.207743 590.326304 
L 796.412237 665.950037 
L 742.038008 730.687657 
" clip-path="url(#p217df0ec5d)" style="fill: none; stroke: #e0e0e0; stroke-width: 3; stroke-linecap: square"/>
   </g>
   <g id="line2d_62">
    <path d="M 849.799475 572.607421 
L 760.611383 681.931775 
L 731.898919 715.748206 
" clip-path="url(#p217df0ec5d)" style="fill: none; stroke: #e0e0e0; stroke-width: 3; stroke-linecap: square"/>
   </g>
   <g id="line2d_63">
    <path d="M 1054.824414 344.693936 
L 860.207743 590.326304 
" clip-path="url(#p217df0ec5d)" style="fill: none; stroke: #e0e0e0; stroke-width: 3; stroke-linecap: square"/>
   </g>
   <g id="line2d_64">
    <path d="M 1046.390128 327.78572 
L 1040.468182 335.42916 
L 1022.343439 357.548813 
L 936.834132 466.062499 
L 849.799475 572.607421 
" clip-path="url(#p217df0ec5d)" style="fill: none; stroke: #e0e0e0; stroke-width: 3; stroke-linecap: square"/>
   </g>
   <g id="line2d_65">
    <path d="M 1069.988184 376.194174 
L 1144.281685 276.250405 
" clip-path="url(#p217df0ec5d)" style="fill: none; stroke: #e0e0e0; stroke-width: 3; stroke-linecap: square"/>
   </g>
   <g id="line2d_66">
    <path d="M 1084.613596 408.041841 
L 1144.281685 328.712198 
" clip-path="url(#p217df0ec5d)" style="fill: none; stroke: #e0e0e0; stroke-width: 3; stroke-linecap: square"/>
   </g>
   <g id="line2d_67">
    <path d="M 408.255612 1125.946154 
L 320.59287 1226.005733 
L 293.04685 1256.811112 
" clip-path="url(#p217df0ec5d)" style="fill: none; stroke: #e0e0e0; stroke-width: 3; stroke-linecap: square"/>
   </g>
   <g id="line2d_68">
    <path d="M 397.757618 1113.207088 
L 293.674935 1235.038889 
L 292.598218 1235.733747 
L 277.88308 1250.09415 
" clip-path="url(#p217df0ec5d)" style="fill: none; stroke: #e0e0e0; stroke-width: 3; stroke-linecap: square"/>
   </g>
   <g id="line2d_69">
    <path d="M 312.607216 1281.826007 
L 424.406373 1152.814004 
" clip-path="url(#p217df0ec5d)" style="fill: none; stroke: #e0e0e0; stroke-width: 3; stroke-linecap: square"/>
   </g>
   <g id="line2d_70">
    <path d="M 332.795668 1307.767379 
L 347.062173 1292.24888 
L 444.594825 1178.755376 
" clip-path="url(#p217df0ec5d)" style="fill: none; stroke: #e0e0e0; stroke-width: 3; stroke-linecap: square"/>
   </g>
   <g id="line2d_71">
    <path d="M 642.441648 897.91686 
L 762.047006 757.439697 
" clip-path="url(#p217df0ec5d)" style="fill: none; stroke: #e0e0e0; stroke-width: 3; stroke-linecap: square"/>
   </g>
   <g id="line2d_72">
    <path d="M 660.745844 924.089852 
L 781.069014 786.160502 
" clip-path="url(#p217df0ec5d)" style="fill: none; stroke: #e0e0e0; stroke-width: 3; stroke-linecap: square"/>
   </g>
   <g id="line2d_73">
    <path d="M 1069.988184 376.194174 
L 878.960571 619.162919 
" clip-path="url(#p217df0ec5d)" style="fill: none; stroke: #e0e0e0; stroke-width: 3; stroke-linecap: square"/>
   </g>
   <g id="line2d_74">
    <path d="M 1054.824414 344.693936 
L 860.207743 590.326304 
" clip-path="url(#p217df0ec5d)" style="fill: none; stroke: #e0e0e0; stroke-width: 3; stroke-linecap: square"/>
   </g>
   <g id="line2d_75">
    <path d="M 293.04685 1256.811112 
L 263.616574 1289.932686 
L 218.753349 1337.646281 
L 133.602948 1430.757278 
" clip-path="url(#p217df0ec5d)" style="fill: none; stroke: #e0e0e0; stroke-width: 3; stroke-linecap: square"/>
   </g>
   <g id="line2d_76">
    <path d="M 277.88308 1250.09415 
L 109.197353 1430.757278 
" clip-path="url(#p217df0ec5d)" style="fill: none; stroke: #e0e0e0; stroke-width: 3; stroke-linecap: square"/>
   </g>
   <g id="line2d_77">
    <path d="M 626.380613 867.3431 
L 566.891977 936.24987 
L 534.769907 975.972596 
" clip-path="url(#p217df0ec5d)" style="fill: none; stroke: #e0e0e0; stroke-width: 3; stroke-linecap: square"/>
   </g>
   <g id="line2d_78">
    <path d="M 614.446995 857.846705 
L 607.986691 866.648242 
L 558.009058 925.247949 
L 525.34863 963.580959 
" clip-path="url(#p217df0ec5d)" style="fill: none; stroke: #e0e0e0; stroke-width: 3; stroke-linecap: square"/>
   </g>
   <g id="line2d_79">
    <path d="M 312.607216 1281.826007 
L 258.143261 1344.594863 
L 177.748361 1430.757278 
" clip-path="url(#p217df0ec5d)" style="fill: none; stroke: #e0e0e0; stroke-width: 3; stroke-linecap: square"/>
   </g>
   <g id="line2d_80">
    <path d="M 293.04685 1256.811112 
L 263.616574 1289.932686 
L 218.753349 1337.646281 
L 133.602948 1430.757278 
" clip-path="url(#p217df0ec5d)" style="fill: none; stroke: #e0e0e0; stroke-width: 3; stroke-linecap: square"/>
   </g>
   <g id="line2d_81">
    <path d="M 1268.552819 53.085118 
L 1176.314028 180.012547 
" clip-path="url(#p217df0ec5d)" style="fill: none; stroke: #e0e0e0; stroke-width: 3; stroke-linecap: square"/>
   </g>
   <g id="line2d_82">
    <path d="M 1260.656891 40.346052 
L 1166.982477 167.27348 
" clip-path="url(#p217df0ec5d)" style="fill: none; stroke: #e0e0e0; stroke-width: 3; stroke-linecap: square"/>
   </g>
   <g id="line2d_83">
    <path d="M 1349.002187 -1 
L 1289.548808 79.489729 
" clip-path="url(#p217df0ec5d)" style="fill: none; stroke: #e0e0e0; stroke-width: 3; stroke-linecap: square"/>
   </g>
   <g id="line2d_84">
    <path d="M 1308.745127 -1 
L 1268.552819 53.085118 
" clip-path="url(#p217df0ec5d)" style="fill: none; stroke: #e0e0e0; stroke-width: 3; stroke-linecap: square"/>
   </g>
   <g id="line2d_85">
    <path d="M 1308.745127 -1 
L 1268.552819 53.085118 
" clip-path="url(#p217df0ec5d)" style="fill: none; stroke: #e0e0e0; stroke-width: 3; stroke-linecap: square"/>
   </g>
   <g id="line2d_86">
    <path d="M 1290.442019 -1 
L 1289.100176 0.854945 
L 1271.244613 25.174981 
L 1260.656891 40.346052 
" clip-path="url(#p217df0ec5d)" style="fill: none; stroke: #e0e0e0; stroke-width: 3; stroke-linecap: square"/>
   </g>
   <g id="line2d_87">
    <path d="M 911.710726 873.596824 
L 878.422213 827.620374 
L 823.958257 752.112451 
L 817.139047 743.426724 
L 804.128712 732.888042 
L 785.46561 724.781363 
L 763.931262 722.812598 
L 742.038008 730.687657 
" clip-path="url(#p217df0ec5d)" style="fill: none; stroke: #e0e0e0; stroke-width: 3; stroke-linecap: square"/>
   </g>
   <g id="line2d_88">
    <path d="M 952.177355 824.956751 
L 863.886528 705.325334 
L 857.874855 697.334465 
L 847.915219 690.385883 
L 834.187072 683.553111 
L 817.228773 678.804913 
L 797.84786 677.762626 
L 776.672418 682.395014 
L 754.420258 694.439222 
L 731.898919 715.748206 
" clip-path="url(#p217df0ec5d)" style="fill: none; stroke: #e0e0e0; stroke-width: 3; stroke-linecap: square"/>
   </g>
   <g id="line2d_89">
    <path d="M 1176.314028 180.012547 
L 1144.550865 223.325373 
L 1144.281685 223.672802 
" clip-path="url(#p217df0ec5d)" style="fill: none; stroke: #e0e0e0; stroke-width: 3; stroke-linecap: square"/>
   </g>
   <g id="line2d_90">
    <path d="M 1166.982477 167.27348 
L 1144.550865 197.84724 
L 1144.281685 198.194669 
" clip-path="url(#p217df0ec5d)" style="fill: none; stroke: #e0e0e0; stroke-width: 3; stroke-linecap: square"/>
   </g>
   <g id="line2d_91">
    <path clip-path="url(#p217df0ec5d)" style="fill: none; stroke: #e0e0e0; stroke-width: 3; stroke-linecap: square"/>
   </g>
   <g id="line2d_92">
    <path clip-path="url(#p217df0ec5d)" style="fill: none; stroke: #e0e0e0; stroke-width: 3; stroke-linecap: square"/>
   </g>
   <g id="line2d_93">
    <path d="M 572.993375 1027.392102 
L 660.745844 924.089852 
" clip-path="url(#p217df0ec5d)" style="fill: none; stroke: #e0e0e0; stroke-width: 3; stroke-linecap: square"/>
   </g>
   <g id="line2d_94">
    <path d="M 589.772222 1038.394023 
L 591.925656 1035.84621 
L 672.858915 939.839971 
" clip-path="url(#p217df0ec5d)" style="fill: none; stroke: #e0e0e0; stroke-width: 3; stroke-linecap: square"/>
   </g>
   <g id="line2d_95">
    <path d="M 1144.281685 328.712198 
L 1144.550865 328.364769 
L 1214.627222 234.327295 
" clip-path="url(#p217df0ec5d)" style="fill: none; stroke: #e0e0e0; stroke-width: 3; stroke-linecap: square"/>
   </g>
   <g id="line2d_96">
    <path d="M 1144.281685 358.243671 
L 1144.550865 357.896242 
L 1156.03585 342.493552 
L 1169.046185 325.353717 
L 1202.424425 279.840506 
L 1213.191599 265.480103 
L 1224.497132 250.888081 
" clip-path="url(#p217df0ec5d)" style="fill: none; stroke: #e0e0e0; stroke-width: 3; stroke-linecap: square"/>
   </g>
   <g id="line2d_97">
    <path d="M 660.745844 924.089852 
L 781.069014 786.160502 
" clip-path="url(#p217df0ec5d)" style="fill: none; stroke: #e0e0e0; stroke-width: 3; stroke-linecap: square"/>
   </g>
   <g id="line2d_98">
    <path d="M 672.858915 939.839971 
L 791.477282 800.636715 
" clip-path="url(#p217df0ec5d)" style="fill: none; stroke: #e0e0e0; stroke-width: 3; stroke-linecap: square"/>
   </g>
   <g id="line2d_99">
    <path d="M 211.726692 1441 
L 221.26569 1430.757278 
" clip-path="url(#p217df0ec5d)" style="fill: none; stroke: #e0e0e0; stroke-width: 3; stroke-linecap: square"/>
   </g>
   <g id="line2d_100">
    <path d="M 237.403253 1441 
L 246.568549 1430.757278 
" clip-path="url(#p217df0ec5d)" style="fill: none; stroke: #e0e0e0; stroke-width: 3; stroke-linecap: square"/>
   </g>
   <g id="line2d_101">
    <path d="M 444.594825 1178.755376 
L 460.655859 1163.005258 
L 477.165526 1151.655907 
L 493.944372 1144.244087 
L 510.633492 1140.422367 
L 527.053433 1139.727508 
L 542.755562 1141.812083 
L 557.560426 1146.328661 
L 571.10912 1152.698194 
L 583.222191 1160.689064 
L 593.451006 1169.83803 
L 604.21818 1184.661671 
" clip-path="url(#p217df0ec5d)" style="fill: none; stroke: #e0e0e0; stroke-width: 3; stroke-linecap: square"/>
   </g>
   <g id="line2d_102">
    <path d="M 455.810631 1194.737115 
L 462.899021 1190.452156 
L 473.755921 1186.051387 
L 487.484068 1183.271955 
L 503.275923 1183.503574 
L 520.323949 1188.251772 
L 537.820607 1199.253693 
L 554.958359 1217.783244 
L 565.725533 1232.606886 
" clip-path="url(#p217df0ec5d)" style="fill: none; stroke: #e0e0e0; stroke-width: 3; stroke-linecap: square"/>
   </g>
   <g id="line2d_103">
    <path d="M 888.471575 652.97935 
L 1002.244714 512.733807 
L 1063.797059 436.067787 
L 1084.613596 408.041841 
" clip-path="url(#p217df0ec5d)" style="fill: none; stroke: #e0e0e0; stroke-width: 3; stroke-linecap: square"/>
   </g>
   <g id="line2d_104">
    <path d="M 901.571637 666.297466 
L 906.686044 660.043742 
L 1093.945146 425.065866 
" clip-path="url(#p217df0ec5d)" style="fill: none; stroke: #e0e0e0; stroke-width: 3; stroke-linecap: square"/>
   </g>
   <g id="line2d_105">
    <path clip-path="url(#p217df0ec5d)" style="fill: none; stroke: #e0e0e0; stroke-width: 3; stroke-linecap: square"/>
   </g>
   <g id="line2d_106">
    <path clip-path="url(#p217df0ec5d)" style="fill: none; stroke: #e0e0e0; stroke-width: 3; stroke-linecap: square"/>
   </g>
   <g id="line2d_107">
    <path d="M 911.710726 873.596824 
L 871.872182 818.355598 
L 861.733093 796.699185 
L 856.798138 771.105242 
L 855.9906 745.16387 
L 858.592667 720.033165 
L 863.886528 697.102845 
L 870.974917 681.121107 
L 878.24276 667.223943 
L 888.471575 652.97935 
" clip-path="url(#p217df0ec5d)" style="fill: none; stroke: #e0e0e0; stroke-width: 3; stroke-linecap: square"/>
   </g>
   <g id="line2d_108">
    <path d="M 952.177355 824.956751 
L 925.169693 789.518984 
L 910.275102 767.630951 
L 897.803126 740.184053 
L 892.509265 711.231628 
L 894.572974 687.953879 
L 899.059296 672.20376 
L 901.571637 666.297466 
" clip-path="url(#p217df0ec5d)" style="fill: none; stroke: #e0e0e0; stroke-width: 3; stroke-linecap: square"/>
   </g>
   <g id="line2d_109">
    <path d="M 1214.627222 234.327295 
L 1306.507108 100.914523 
" clip-path="url(#p217df0ec5d)" style="fill: none; stroke: #e0e0e0; stroke-width: 3; stroke-linecap: square"/>
   </g>
   <g id="line2d_110">
    <path d="M 1224.497132 250.888081 
L 1341.859329 146.659354 
" clip-path="url(#p217df0ec5d)" style="fill: none; stroke: #e0e0e0; stroke-width: 3; stroke-linecap: square"/>
   </g>
   <g id="line2d_111">
    <path d="M 1084.613596 408.041841 
L 1144.281685 328.712198 
" clip-path="url(#p217df0ec5d)" style="fill: none; stroke: #e0e0e0; stroke-width: 3; stroke-linecap: square"/>
   </g>
   <g id="line2d_112">
    <path d="M 1093.945146 425.065866 
L 1116.287033 396.113442 
L 1144.281685 358.243671 
" clip-path="url(#p217df0ec5d)" style="fill: none; stroke: #e0e0e0; stroke-width: 3; stroke-linecap: square"/>
   </g>
   <g id="line2d_113">
    <path d="M 1214.627222 234.327295 
L 1229.073181 224.48347 
L 1245.223942 216.724221 
L 1262.45142 212.439262 
L 1280.306984 211.165355 
L 1298.072821 212.670881 
L 1315.390026 217.07165 
L 1331.540787 224.251851 
L 1346.076472 234.095675 
L 1358.279269 246.487313 
L 1375.865654 269.649252 
" clip-path="url(#p217df0ec5d)" style="fill: none; stroke: #e0e0e0; stroke-width: 3; stroke-linecap: square"/>
   </g>
   <g id="line2d_114">
    <path d="M 1224.497132 250.888081 
L 1237.776647 244.518548 
L 1252.402058 242.202354 
L 1267.745281 243.70788 
L 1283.267957 248.687697 
L 1298.162548 256.910186 
L 1311.980421 268.027917 
L 1324.093492 281.92508 
L 1341.59015 304.97121 
" clip-path="url(#p217df0ec5d)" style="fill: none; stroke: #e0e0e0; stroke-width: 3; stroke-linecap: square"/>
   </g>
   <g id="line2d_115">
    <path d="M 444.594825 1178.755376 
L 572.993375 1027.392102 
" clip-path="url(#p217df0ec5d)" style="fill: none; stroke: #e0e0e0; stroke-width: 3; stroke-linecap: square"/>
   </g>
   <g id="line2d_116">
    <path d="M 455.810631 1194.737115 
L 589.772222 1038.394023 
" clip-path="url(#p217df0ec5d)" style="fill: none; stroke: #e0e0e0; stroke-width: 3; stroke-linecap: square"/>
   </g>
   <g id="line2d_117">
    <path d="M 332.795668 1307.767379 
L 347.062173 1292.24888 
L 444.594825 1178.755376 
" clip-path="url(#p217df0ec5d)" style="fill: none; stroke: #e0e0e0; stroke-width: 3; stroke-linecap: square"/>
   </g>
   <g id="line2d_118">
    <path d="M 346.434088 1319.695778 
L 412.024123 1244.766904 
L 455.810631 1194.737115 
" clip-path="url(#p217df0ec5d)" style="fill: none; stroke: #e0e0e0; stroke-width: 3; stroke-linecap: square"/>
   </g>
   <g id="line2d_119">
    <path d="M 781.069014 786.160502 
L 846.12069 707.062479 
L 862.989263 686.911592 
L 888.471575 652.97935 
" clip-path="url(#p217df0ec5d)" style="fill: none; stroke: #e0e0e0; stroke-width: 3; stroke-linecap: square"/>
   </g>
   <g id="line2d_120">
    <path d="M 791.477282 800.636715 
L 901.571637 666.297466 
" clip-path="url(#p217df0ec5d)" style="fill: none; stroke: #e0e0e0; stroke-width: 3; stroke-linecap: square"/>
   </g>
   <g id="line2d_121">
    <path d="M 221.26569 1430.757278 
L 332.795668 1307.767379 
" clip-path="url(#p217df0ec5d)" style="fill: none; stroke: #e0e0e0; stroke-width: 3; stroke-linecap: square"/>
   </g>
   <g id="line2d_122">
    <path d="M 246.568549 1430.757278 
L 298.071531 1373.084049 
L 346.434088 1319.695778 
" clip-path="url(#p217df0ec5d)" style="fill: none; stroke: #e0e0e0; stroke-width: 3; stroke-linecap: square"/>
   </g>
   <g id="line2d_123">
    <path d="M 1195.694941 207.459445 
L 1306.507108 100.914523 
" clip-path="url(#p217df0ec5d)" style="fill: none; stroke: #e0e0e0; stroke-width: 3; stroke-linecap: square"/>
   </g>
   <g id="line2d_124">
    <path d="M 1214.627222 234.327295 
L 1341.859329 146.659354 
" clip-path="url(#p217df0ec5d)" style="fill: none; stroke: #e0e0e0; stroke-width: 3; stroke-linecap: square"/>
   </g>
   <g id="line2d_125">
    <path d="M 1306.507108 100.914523 
L 1373.712219 12.320105 
" clip-path="url(#p217df0ec5d)" style="fill: none; stroke: #e0e0e0; stroke-width: 3; stroke-linecap: square"/>
   </g>
   <g id="line2d_126">
    <path d="M 1341.859329 146.659354 
L 1412.653498 60.960178 
" clip-path="url(#p217df0ec5d)" style="fill: none; stroke: #e0e0e0; stroke-width: 3; stroke-linecap: square"/>
   </g>
   <g id="line2d_127">
    <path d="M 336.06674 1198.319355 
L 333.547565 1201.469062 
L 330.923241 1204.863338 
L 328.274821 1208.495114 
L 325.602305 1212.365805 
L 322.93636 1216.421689 
L 320.281369 1220.681145 
L 317.635139 1225.187997 
L 315.032722 1229.938004 
L 312.502594 1234.909961 
" clip-path="url(#p217df0ec5d)" style="fill: none; stroke: #1e90ff; stroke-width: 10; stroke-linecap: square"/>
   </g>
   <g id="line2d_128">
    <defs>
     <path id="m91235b2f34" d="M 0 10 
C 2.652031 10 5.195799 8.946337 7.071068 7.071068 
C 8.946337 5.195799 10 2.652031 10 0 
C 10 -2.652031 8.946337 -5.195799 7.071068 -7.071068 
C 5.195799 -8.946337 2.652031 -10 0 -10 
C -2.652031 -10 -5.195799 -8.946337 -7.071068 -7.071068 
C -8.946337 -5.195799 -10 -2.652031 -10 0 
C -10 2.652031 -8.946337 5.195799 -7.071068 7.071068 
C -5.195799 8.946337 -2.652031 10 0 10 
z
" style="stroke: #0000ff"/>
    </defs>
    <g clip-path="url(#p217df0ec5d)">
     <use xlink:href="#m91235b2f34" x="336.06674" y="1198.319355" style="fill: #0000ff; stroke: #0000ff"/>
    </g>
   </g>
   <g id="line2d_129">
    <path d="M 394.781048 1146.204991 
L 392.193964 1149.235948 
L 389.49297 1152.507233 
L 386.763499 1156.013191 
L 384.003359 1159.756649 
L 381.24541 1163.6853 
L 378.491842 1167.817524 
L 375.742655 1172.19573 
L 373.030708 1176.818504 
L 370.382288 1181.664643 
" clip-path="url(#p217df0ec5d)" style="fill: none; stroke: #1e90ff; stroke-width: 10; stroke-linecap: square"/>
   </g>
   <g id="line2d_130">
    <g clip-path="url(#p217df0ec5d)">
     <use xlink:href="#m91235b2f34" x="394.781048" y="1146.204991" style="fill: #0000ff; stroke: #0000ff"/>
    </g>
   </g>
   <g id="line2d_131">
    <path d="M 499.074903 1128.556453 
L 501.559029 1125.446329 
L 504.148303 1122.09305 
L 506.761673 1118.507926 
L 509.39914 1114.685301 
L 512.027845 1110.678896 
L 514.647787 1106.471747 
L 517.258967 1102.021443 
L 519.824145 1097.330811 
L 522.321414 1092.421057 
" clip-path="url(#p217df0ec5d)" style="fill: none; stroke: #1e90ff; stroke-width: 10; stroke-linecap: square"/>
   </g>
   <g id="line2d_132">
    <g clip-path="url(#p217df0ec5d)">
     <use xlink:href="#m91235b2f34" x="499.074903" y="1128.556453" style="fill: #0000ff; stroke: #0000ff"/>
    </g>
   </g>
   <g id="line2d_133">
    <path d="M 710.519139 631.574235 
L 712.996693 628.441492 
L 715.575014 625.065594 
L 718.179622 621.455023 
L 720.806136 617.608366 
L 723.423888 613.576515 
L 726.032877 609.343919 
L 728.630913 604.868168 
L 731.182947 600.150676 
L 733.664883 595.215475 
" clip-path="url(#p217df0ec5d)" style="fill: none; stroke: #1e90ff; stroke-width: 10; stroke-linecap: square"/>
   </g>
   <g id="line2d_134">
    <g clip-path="url(#p217df0ec5d)">
     <use xlink:href="#m91235b2f34" x="710.519139" y="631.574235" style="fill: #0000ff; stroke: #0000ff"/>
    </g>
   </g>
   <g id="line2d_135">
    <path d="M 815.218252 737.74679 
L 817.673901 734.625357 
L 820.230316 731.263596 
L 822.813018 727.669989 
L 825.415436 723.838882 
L 828.009091 719.825409 
L 830.593984 715.612605 
L 833.167924 711.15806 
L 835.695861 706.4646 
L 838.1537 701.553432 
" clip-path="url(#p217df0ec5d)" style="fill: none; stroke: #1e90ff; stroke-width: 10; stroke-linecap: square"/>
   </g>
   <g id="line2d_136">
    <g clip-path="url(#p217df0ec5d)">
     <use xlink:href="#m91235b2f34" x="815.218252" y="737.74679" style="fill: #0000ff; stroke: #0000ff"/>
    </g>
   </g>
   <g id="line2d_137">
    <path d="M 955.488121 883.871711 
L 952.907609 880.883165 
L 950.134326 877.778696 
L 947.177033 874.657263 
L 944.03354 871.523107 
L 940.74985 868.412983 
L 937.312819 865.326892 
L 933.687397 862.269075 
L 929.877966 859.287597 
L 925.904241 856.407905 
" clip-path="url(#p217df0ec5d)" style="fill: none; stroke: #1e90ff; stroke-width: 10; stroke-linecap: square"/>
   </g>
   <g id="line2d_138">
    <g clip-path="url(#p217df0ec5d)">
     <use xlink:href="#m91235b2f34" x="955.488121" y="883.871711" style="fill: #0000ff; stroke: #0000ff"/>
    </g>
   </g>
   <g id="line2d_139">
    <path d="M 1071.751344 290.92804 
L 1069.367985 294.219116 
L 1066.888241 297.760416 
L 1064.393162 301.539217 
L 1061.882749 305.556931 
L 1059.38767 309.759839 
L 1056.907925 314.163492 
L 1054.447896 318.811713 
L 1052.042631 323.698848 
L 1049.714037 328.803692 
" clip-path="url(#p217df0ec5d)" style="fill: none; stroke: #1e90ff; stroke-width: 10; stroke-linecap: square"/>
   </g>
   <g id="line2d_140">
    <g clip-path="url(#p217df0ec5d)">
     <use xlink:href="#m91235b2f34" x="1071.751344" y="290.92804" style="fill: #0000ff; stroke: #0000ff"/>
    </g>
   </g>
   <g id="line2d_141">
    <path d="M 1138.40434 208.292053 
L 1136.034124 211.602921 
L 1133.571905 215.16684 
L 1131.09216 218.966846 
L 1128.601462 223.007179 
L 1126.126099 227.231293 
L 1123.66826 231.656151 
L 1121.230136 236.326991 
L 1118.846778 241.236745 
L 1116.54228 246.361381 
" clip-path="url(#p217df0ec5d)" style="fill: none; stroke: #1e90ff; stroke-width: 10; stroke-linecap: square"/>
   </g>
   <g id="line2d_142">
    <g clip-path="url(#p217df0ec5d)">
     <use xlink:href="#m91235b2f34" x="1138.40434" y="208.292053" style="fill: #0000ff; stroke: #0000ff"/>
    </g>
   </g>
   <g id="line2d_143">
    <path d="M 1207.403454 189.325953 
L 1209.907296 186.210175 
L 1212.511904 182.854069 
L 1215.144989 179.261876 
L 1217.802172 175.433596 
L 1220.450592 171.418709 
L 1223.090249 167.204492 
L 1225.721144 162.745705 
L 1228.308228 158.043764 
L 1230.827403 153.1227 
" clip-path="url(#p217df0ec5d)" style="fill: none; stroke: #1e90ff; stroke-width: 10; stroke-linecap: square"/>
   </g>
   <g id="line2d_144">
    <g clip-path="url(#p217df0ec5d)">
     <use xlink:href="#m91235b2f34" x="1207.403454" y="189.325953" style="fill: #0000ff; stroke: #0000ff"/>
    </g>
   </g>
   <g id="line2d_145">
    <path d="M 1284.46393 96.112718 
L 1286.748712 92.77499 
L 1289.118928 89.188452 
L 1291.504477 85.365827 
L 1293.896598 81.305702 
L 1296.269004 77.064624 
L 1298.623885 72.62563 
L 1300.952479 67.944893 
L 1303.221928 63.029484 
L 1305.410324 57.904849 
" clip-path="url(#p217df0ec5d)" style="fill: none; stroke: #1e90ff; stroke-width: 10; stroke-linecap: square"/>
   </g>
   <g id="line2d_146">
    <g clip-path="url(#p217df0ec5d)">
     <use xlink:href="#m91235b2f34" x="1284.46393" y="96.112718" style="fill: #0000ff; stroke: #0000ff"/>
    </g>
   </g>
  </g>
 </g>
 <defs>
  <clipPath id="p217df0ec5d">
   <rect x="0" y="0" width="1440" height="1440"/>
  </clipPath>
 </defs>
</svg>
