<?xml version="1.0" encoding="utf-8" standalone="no"?>
<!DOCTYPE svg PUBLIC "-//W3C//DTD SVG 1.1//EN"
  "http://www.w3.org/Graphics/SVG/1.1/DTD/svg11.dtd">
<svg xmlns:xlink="http://www.w3.org/1999/xlink" width="1440pt" height="1440pt" viewBox="0 0 1440 1440" xmlns="http://www.w3.org/2000/svg" version="1.1">
 <metadata>
  <rdf:RDF xmlns:dc="http://purl.org/dc/elements/1.1/" xmlns:cc="http://creativecommons.org/ns#" xmlns:rdf="http://www.w3.org/1999/02/22-rdf-syntax-ns#">
   <cc:Work>
    <dc:type rdf:resource="http://purl.org/dc/dcmitype/StillImage"/>
    <dc:date>2026-02-27T11:12:12.380007</dc:date>
    <dc:format>image/svg+xml</dc:format>
    <dc:creator>
     <cc:Agent>
      <dc:title>Matplotlib v3.7.3, https://matplotlib.org/</dc:title>
     </cc:Agent>
    </dc:creator>
   </cc:Work>
  </rdf:RDF>
 </metadata>
 <defs>
  <style type="text/css">*{stroke-linejoin: round; stroke-linecap: butt}</style>
 </defs>
 <g id="figure_1">
  <g id="patch_1">
   <path d="M 0 1440 
L 1440 1440 
L 1440 0 
L 0 0 
z
" style="fill: #ffffff"/>
  </g>
  <g id="axes_1">
   <g id="line2d_1">
    <path clip-path="url(#p7476c9ae35)" style="fill: none; stroke: #7a7a7a; stroke-width: 3; stroke-linecap: square"/>
   </g>
   <g id="line2d_2">
    <path clip-path="url(#p7476c9ae35)" style="fill: none; stroke: #7a7a7a; stroke-width: 3; stroke-linecap: square"/>
   </g>
   <g id="line2d_3">
    <path clip-path="url(#p7476c9ae35)" style="fill: none; stroke: #7a7a7a; stroke-width: 3; stroke-linecap: square"/>
   </g>
   <g id="line2d_4">
    <path clip-path="url(#p7476c9ae35)" style="fill: none; stroke: #7a7a7a; stroke-width: 3; stroke-linecap: square"/>
   </g>
   <g id="line2d_5">
    <path clip-path="url(#p7476c9ae35)" style="fill: none; stroke: #7a7a7a; stroke-width: 3; stroke-linecap: square"/>
   </g>
   <g id="line2d_6">
    <path clip-path="url(#p7476c9ae35)" style="fill: none; stroke: #7a7a7a; stroke-width: 3; stroke-linecap: square"/>
   </g>
   <g id="line2d_7">
    <path clip-path="url(#p7476c9ae35)" style="fill: none; stroke: #7a7a7a; stroke-width: 3; stroke-linecap: square"/>
   </g>
   <g id="line2d_8">
    <path clip-path="url(#p7476c9ae35)" style="fill: none; stroke: #7a7a7a; stroke-width: 3; stroke-linecap: square"/>
   </g>
   <g id="line2d_9">
    <path clip-path="url(#p7476c9ae35)" style="fill: none; stroke: #7a7a7a; stroke-width: 3; stroke-linecap: square"/>
   </g>
   <g id="line2d_10">
    <path clip-path="url(#p7476c9ae35)" style="fill: none; stroke: #7a7a7a; stroke-width: 3; stroke-linecap: square"/>
   </g>
   <g id="line2d_11">
    <path clip-path="url(#p7476c9ae35)" style="fill: none; stroke: #7a7a7a; stroke-width: 3; stroke-linecap: square"/>
   </g>
   <g id="line2d_12">
    <path clip-path="url(#p7476c9ae35)" style="fill: none; stroke: #7a7a7a; stroke-width: 3; stroke-linecap: square"/>
   </g>
   <g id="line2d_13">
    <path d="M 1441 1097.060411 
L 1396.252012 1067.97121 
" clip-path="url(#p7476c9ae35)" style="fill: none; stroke: #7a7a7a; stroke-width: 3; stroke-linecap: square"/>
   </g>
   <g id="line2d_14">
    <path d="M 1441 1035.507219 
L 1407.783889 1009.913611 
" clip-path="url(#p7476c9ae35)" style="fill: none; stroke: #7a7a7a; stroke-width: 3; stroke-linecap: square"/>
   </g>
   <g id="line2d_15">
    <path d="M 1262.658683 966.963473 
L 1176.894287 900.790297 
" clip-path="url(#p7476c9ae35)" style="fill: none; stroke: #7a7a7a; stroke-width: 3; stroke-linecap: square"/>
   </g>
   <g id="line2d_16">
    <path d="M 1274.505639 908.031889 
L 1238.019536 880.189213 
L 1213.821499 861.211245 
L 1188.678227 840.984727 
" clip-path="url(#p7476c9ae35)" style="fill: none; stroke: #7a7a7a; stroke-width: 3; stroke-linecap: square"/>
   </g>
   <g id="line2d_17">
    <path d="M 1176.894287 900.790297 
L 1185.779504 907.657324 
L 1193.656469 921.39138 
L 1200.147088 940.119638 
L 1204.810251 962.094126 
L 1207.015802 985.192311 
L 1206.511676 1007.791075 
L 1199.264868 1046.121576 
" clip-path="url(#p7476c9ae35)" style="fill: none; stroke: #7a7a7a; stroke-width: 3; stroke-linecap: square"/>
   </g>
   <g id="line2d_18">
    <path d="M 1164.417174 964.091807 
L 1173.932548 975.453617 
L 1178.784758 993.183034 
L 1177.902538 1009.289336 
L 1174.499689 1027.518173 
" clip-path="url(#p7476c9ae35)" style="fill: none; stroke: #7a7a7a; stroke-width: 3; stroke-linecap: square"/>
   </g>
   <g id="line2d_19">
    <path d="M 521.845865 395.377051 
L 910.904927 695.154028 
L 1176.894287 900.790297 
" clip-path="url(#p7476c9ae35)" style="fill: none; stroke: #7a7a7a; stroke-width: 3; stroke-linecap: square"/>
   </g>
   <g id="line2d_20">
    <path d="M 521.845865 467.668125 
L 1164.417174 964.091807 
" clip-path="url(#p7476c9ae35)" style="fill: none; stroke: #7a7a7a; stroke-width: 3; stroke-linecap: square"/>
   </g>
   <g id="line2d_21">
    <path d="M 1262.658683 966.963473 
L 1252.450137 959.347315 
L 1240.414134 959.846736 
L 1228.126068 966.963473 
L 1217.098317 979.448979 
L 1208.969289 995.680135 
L 1205.188346 1014.283538 
L 1199.264868 1046.121576 
" clip-path="url(#p7476c9ae35)" style="fill: none; stroke: #7a7a7a; stroke-width: 3; stroke-linecap: square"/>
   </g>
   <g id="line2d_22">
    <path d="M 1274.505639 908.031889 
L 1260.831228 897.544065 
L 1255.033781 895.546384 
L 1243.438888 896.545225 
L 1231.402886 901.789137 
L 1219.366883 910.778701 
L 1208.024053 923.014496 
L 1197.878522 938.121957 
L 1189.497431 955.601664 
L 1183.510938 974.954197 
L 1180.360151 995.680135 
L 1174.499689 1027.518173 
" clip-path="url(#p7476c9ae35)" style="fill: none; stroke: #7a7a7a; stroke-width: 3; stroke-linecap: square"/>
   </g>
   <g id="line2d_23">
    <path d="M 1176.894287 900.790297 
L 1262.658683 966.963473 
" clip-path="url(#p7476c9ae35)" style="fill: none; stroke: #7a7a7a; stroke-width: 3; stroke-linecap: square"/>
   </g>
   <g id="line2d_24">
    <path d="M 1164.417174 964.091807 
L 1252.702199 1032.13781 
" clip-path="url(#p7476c9ae35)" style="fill: none; stroke: #7a7a7a; stroke-width: 3; stroke-linecap: square"/>
   </g>
   <g id="line2d_25">
    <path d="M 1262.658683 966.963473 
L 1341.491351 1029.390999 
L 1396.252012 1067.97121 
" clip-path="url(#p7476c9ae35)" style="fill: none; stroke: #7a7a7a; stroke-width: 3; stroke-linecap: square"/>
   </g>
   <g id="line2d_26">
    <path d="M 1252.702199 1032.13781 
L 1253.14331 1032.262665 
L 1259.507897 1036.133172 
L 1275.261828 1049.242952 
L 1278.538645 1051.740053 
L 1335.378826 1095.938741 
L 1365.563356 1119.910911 
L 1383.018711 1133.395256 
" clip-path="url(#p7476c9ae35)" style="fill: none; stroke: #7a7a7a; stroke-width: 3; stroke-linecap: square"/>
   </g>
   <g id="line2d_27">
    <path d="M 1199.264868 1046.121576 
L 1205.188346 1014.283538 
L 1208.969289 995.680135 
L 1217.098317 979.448979 
L 1228.126068 966.963473 
L 1240.414134 959.846736 
L 1252.450137 959.347315 
L 1262.658683 966.963473 
" clip-path="url(#p7476c9ae35)" style="fill: none; stroke: #7a7a7a; stroke-width: 3; stroke-linecap: square"/>
   </g>
   <g id="line2d_28">
    <path d="M 1224.597188 1065.099543 
L 1229.323367 1044.373605 
L 1233.230342 1033.760926 
L 1241.485401 1028.517014 
L 1252.702199 1032.13781 
" clip-path="url(#p7476c9ae35)" style="fill: none; stroke: #7a7a7a; stroke-width: 3; stroke-linecap: square"/>
   </g>
   <g id="line2d_29">
    <path d="M 1136.753272 1358.508913 
L 1137.257398 1356.136667 
L 1137.320414 1355.512392 
L 1137.572477 1354.388696 
L 1199.264868 1046.121576 
" clip-path="url(#p7476c9ae35)" style="fill: none; stroke: #7a7a7a; stroke-width: 3; stroke-linecap: square"/>
   </g>
   <g id="line2d_30">
    <path d="M 1166.118598 1358.508913 
L 1166.559709 1356.136667 
L 1166.68574 1355.512392 
L 1166.874787 1354.388696 
L 1191.13584 1234.777557 
L 1192.522186 1227.036544 
L 1197.185349 1204.312925 
L 1203.297874 1173.099162 
L 1214.388641 1114.791854 
L 1223.399889 1069.844035 
L 1224.597188 1065.099543 
" clip-path="url(#p7476c9ae35)" style="fill: none; stroke: #7a7a7a; stroke-width: 3; stroke-linecap: square"/>
   </g>
   <g id="line2d_31">
    <path d="M 1176.894287 900.790297 
L 910.904927 695.154028 
L 521.845865 395.377051 
" clip-path="url(#p7476c9ae35)" style="fill: none; stroke: #7a7a7a; stroke-width: 3; stroke-linecap: square"/>
   </g>
   <g id="line2d_32">
    <path d="M 1188.678227 840.984727 
L 1172.609218 828.124657 
L 1032.525269 721.873009 
L 1012.675317 705.142432 
L 819.280069 555.690936 
L 521.845865 324.084817 
" clip-path="url(#p7476c9ae35)" style="fill: none; stroke: #7a7a7a; stroke-width: 3; stroke-linecap: square"/>
   </g>
   <g id="line2d_33">
    <path d="M 1199.264868 1046.121576 
L 1206.511676 1007.791075 
L 1207.015802 985.192311 
L 1204.810251 962.094126 
L 1200.147088 940.119638 
L 1193.656469 921.39138 
L 1185.779504 907.657324 
L 1176.894287 900.790297 
" clip-path="url(#p7476c9ae35)" style="fill: none; stroke: #7a7a7a; stroke-width: 3; stroke-linecap: square"/>
   </g>
   <g id="line2d_34">
    <path d="M 1224.597188 1065.099543 
L 1234.112562 1022.773681 
L 1236.381128 998.177236 
L 1236.255096 972.207386 
L 1233.923515 946.11268 
L 1229.701461 920.767105 
L 1223.777983 897.294355 
L 1216.46816 876.568417 
L 1208.024053 859.58813 
L 1201.911528 851.722262 
L 1188.678227 840.984727 
" clip-path="url(#p7476c9ae35)" style="fill: none; stroke: #7a7a7a; stroke-width: 3; stroke-linecap: square"/>
   </g>
   <g id="line2d_35">
    <path d="M 1199.264868 1046.121576 
L 1137.572477 1354.388696 
L 1137.320414 1355.512392 
L 1137.257398 1356.136667 
L 1136.753272 1358.508913 
" clip-path="url(#p7476c9ae35)" style="fill: none; stroke: #7a7a7a; stroke-width: 3; stroke-linecap: square"/>
   </g>
   <g id="line2d_36">
    <path d="M 1174.499689 1027.518173 
L 1173.869532 1031.13897 
L 1164.48019 1077.210483 
L 1109.719528 1354.263841 
L 1109.467465 1355.512392 
L 1109.341434 1356.011812 
L 1108.837308 1358.508913 
" clip-path="url(#p7476c9ae35)" style="fill: none; stroke: #7a7a7a; stroke-width: 3; stroke-linecap: square"/>
   </g>
   <g id="line2d_37">
    <path d="M 159.379436 118.073983 
L 198.008073 145.791804 
L 216.282632 153.907382 
L 228.570698 156.903904 
L 239.724481 155.405643 
L 252.705719 147.16521 
L 267.325366 131.183763 
L 277.218835 117.574563 
L 284.276595 98.97116 
L 290.452136 78.370077 
L 295.871488 56.021023 
" clip-path="url(#p7476c9ae35)" style="fill: none; stroke: #7a7a7a; stroke-width: 3; stroke-linecap: square"/>
   </g>
   <g id="line2d_38">
    <path d="M 144.822804 177.130422 
L 170.470203 200.353461 
L 185.720007 210.46672 
L 200.276639 217.458603 
L 214.077082 221.453965 
L 227.121336 222.452805 
L 239.409402 220.704835 
L 251.004295 216.334908 
L 261.842999 209.343025 
L 271.925514 199.978896 
L 281.251841 188.242521 
L 289.758963 174.258756 
L 297.572913 158.152454 
L 304.630673 140.048472 
L 310.932246 120.071664 
L 316.414613 98.346885 
L 321.140792 74.874135 
" clip-path="url(#p7476c9ae35)" style="fill: none; stroke: #7a7a7a; stroke-width: 3; stroke-linecap: square"/>
   </g>
   <g id="line2d_39">
    <path d="M 295.871488 56.021023 
L 287.238334 100.219711 
L 283.457391 123.94217 
L 282.638187 147.41492 
L 284.465643 169.763974 
L 288.62468 190.240202 
L 294.800221 208.46904 
L 302.677186 223.451646 
L 311.940497 234.6886 
" clip-path="url(#p7476c9ae35)" style="fill: none; stroke: #7a7a7a; stroke-width: 3; stroke-linecap: square"/>
   </g>
   <g id="line2d_40">
    <path d="M 270.413137 36.9182 
L 258.503166 97.847465 
L 255.037301 124.941011 
L 253.776986 151.285426 
L 254.407144 176.381292 
L 256.801741 199.978896 
L 260.897763 221.953385 
L 266.506162 241.805338 
L 273.374876 259.4099 
L 281.440888 274.517362 
L 290.515152 286.753156 
L 300.471636 295.867575 
" clip-path="url(#p7476c9ae35)" style="fill: none; stroke: #7a7a7a; stroke-width: 3; stroke-linecap: square"/>
   </g>
   <g id="line2d_41">
    <path d="M 311.940497 234.6886 
L 520.081424 394.003645 
L 520.207456 394.1285 
L 520.459519 394.253355 
L 521.845865 395.377051 
" clip-path="url(#p7476c9ae35)" style="fill: none; stroke: #7a7a7a; stroke-width: 3; stroke-linecap: square"/>
   </g>
   <g id="line2d_42">
    <path d="M 300.471636 295.867575 
L 333.932984 322.087136 
L 360.273555 342.688219 
L 464.123464 422.470597 
L 520.018409 466.29472 
L 520.14444 466.419575 
L 520.459519 466.669285 
L 521.845865 467.668125 
" clip-path="url(#p7476c9ae35)" style="fill: none; stroke: #7a7a7a; stroke-width: 3; stroke-linecap: square"/>
   </g>
   <g id="line2d_43">
    <path d="M 176.708759 274.267651 
L 184.522709 241.555628 
L 188.492699 233.065485 
L 280.117558 115.951447 
L 283.016281 112.08094 
L 285.221831 106.212753 
L 295.871488 56.021023 
" clip-path="url(#p7476c9ae35)" style="fill: none; stroke: #7a7a7a; stroke-width: 3; stroke-linecap: square"/>
   </g>
   <g id="line2d_44">
    <path d="M 202.545205 294.619025 
L 205.506944 280.635259 
L 208.468683 270.522 
L 211.115343 263.530117 
L 213.951051 257.41222 
L 216.471679 253.042293 
L 219.11834 249.671206 
L 295.619425 152.783687 
L 303.244328 143.169848 
L 307.214318 136.55253 
L 310.050025 129.810358 
L 314.083032 111.456665 
L 315.532393 103.341087 
L 321.140792 74.874135 
" clip-path="url(#p7476c9ae35)" style="fill: none; stroke: #7a7a7a; stroke-width: 3; stroke-linecap: square"/>
   </g>
   <g id="line2d_45">
    <path d="M 295.871488 56.021023 
L 285.221831 106.212753 
L 283.016281 112.08094 
L 280.117558 115.951447 
L 188.492699 233.065485 
L 184.522709 241.555628 
L 176.708759 274.267651 
" clip-path="url(#p7476c9ae35)" style="fill: none; stroke: #7a7a7a; stroke-width: 3; stroke-linecap: square"/>
   </g>
   <g id="line2d_46">
    <path d="M 270.413137 36.9182 
L 262.788235 71.627904 
L 261.023794 78.370077 
L 259.133323 84.363119 
L 256.360631 90.730727 
L 253.398892 95.974639 
L 249.491917 100.719131 
L 168.768778 196.233245 
L 165.554977 203.349983 
L 161.521971 213.338387 
L 156.606744 236.561426 
L 152.636754 255.414539 
" clip-path="url(#p7476c9ae35)" style="fill: none; stroke: #7a7a7a; stroke-width: 3; stroke-linecap: square"/>
   </g>
   <g id="line2d_47">
    <path d="M 295.871488 56.021023 
L 290.452136 78.370077 
L 284.276595 98.97116 
L 277.218835 117.574563 
L 267.325366 131.183763 
L 252.705719 147.16521 
L 239.724481 155.405643 
L 228.570698 156.903904 
L 216.282632 153.907382 
L 198.008073 145.791804 
L 159.379436 118.073983 
" clip-path="url(#p7476c9ae35)" style="fill: none; stroke: #7a7a7a; stroke-width: 3; stroke-linecap: square"/>
   </g>
   <g id="line2d_48">
    <path d="M 270.413137 36.9182 
L 262.788235 71.627904 
L 261.023794 78.370077 
L 259.133323 84.363119 
L 256.360631 90.730727 
L 253.398892 95.974639 
L 249.491917 100.719131 
L 246.278116 103.465942 
L 243.064314 104.964202 
L 240.480669 105.338768 
L 238.212103 105.213913 
L 234.683223 103.965362 
L 229.263871 100.843986 
L 213.825019 89.107611 
L 172.108612 55.896167 
" clip-path="url(#p7476c9ae35)" style="fill: none; stroke: #7a7a7a; stroke-width: 3; stroke-linecap: square"/>
   </g>
   <g id="line2d_49">
    <path d="M 521.845865 395.377051 
L 520.459519 394.253355 
L 520.207456 394.1285 
L 520.081424 394.003645 
L 311.940497 234.6886 
" clip-path="url(#p7476c9ae35)" style="fill: none; stroke: #7a7a7a; stroke-width: 3; stroke-linecap: square"/>
   </g>
   <g id="line2d_50">
    <path d="M 521.845865 324.084817 
L 520.522534 322.961121 
L 520.081424 322.711411 
L 379.115256 214.212372 
L 353.530873 194.859839 
L 333.996 180.751218 
L 330.656166 178.254117 
L 326.875223 174.508466 
L 325.614909 173.010205 
" clip-path="url(#p7476c9ae35)" style="fill: none; stroke: #7a7a7a; stroke-width: 3; stroke-linecap: square"/>
   </g>
   <g id="line2d_51">
    <path d="M 176.708759 274.267651 
L 182.632237 245.675845 
L 189.563966 223.201936 
L 197.3149 206.346504 
L 206.01107 194.610129 
L 215.526444 187.493391 
L 225.798006 184.621725 
L 236.762742 185.370855 
L 248.42065 189.241362 
L 260.771731 195.858679 
L 311.940497 234.6886 
" clip-path="url(#p7476c9ae35)" style="fill: none; stroke: #7a7a7a; stroke-width: 3; stroke-linecap: square"/>
   </g>
   <g id="line2d_52">
    <path d="M 202.545205 294.619025 
L 205.506944 280.635259 
L 208.468683 270.522 
L 211.115343 263.530117 
L 213.951051 257.41222 
L 216.471679 253.042293 
L 219.11834 249.671206 
L 221.701984 247.29896 
L 224.85277 245.426135 
L 227.751494 244.552149 
L 230.713232 244.427294 
L 235.817506 246.175265 
L 243.757487 251.544032 
L 300.471636 295.867575 
" clip-path="url(#p7476c9ae35)" style="fill: none; stroke: #7a7a7a; stroke-width: 3; stroke-linecap: square"/>
   </g>
   <g id="line2d_53">
    <path d="M 311.940497 234.6886 
L 302.677186 223.451646 
L 294.800221 208.46904 
L 288.62468 190.240202 
L 284.465643 169.763974 
L 282.638187 147.41492 
L 283.457391 123.94217 
L 287.238334 100.219711 
L 295.871488 56.021023 
" clip-path="url(#p7476c9ae35)" style="fill: none; stroke: #7a7a7a; stroke-width: 3; stroke-linecap: square"/>
   </g>
   <g id="line2d_54">
    <path d="M 325.614909 173.010205 
L 323.913484 170.887669 
L 320.699682 165.893467 
L 318.116038 160.77441 
L 316.16255 155.780208 
L 314.587157 150.161731 
L 313.704937 145.167529 
L 312.885733 138.050791 
L 312.570654 129.810358 
L 312.696686 126.189561 
L 312.507639 119.197678 
L 315.532393 103.341087 
L 321.140792 74.874135 
" clip-path="url(#p7476c9ae35)" style="fill: none; stroke: #7a7a7a; stroke-width: 3; stroke-linecap: square"/>
   </g>
   <g id="line2d_55">
    <path d="M 311.940497 234.6886 
L 159.379436 118.073983 
" clip-path="url(#p7476c9ae35)" style="fill: none; stroke: #7a7a7a; stroke-width: 3; stroke-linecap: square"/>
   </g>
   <g id="line2d_56">
    <path d="M 325.614909 173.010205 
L 236.888773 104.714492 
L 234.683223 103.965362 
L 229.263871 100.843986 
L 213.825019 89.107611 
L 172.108612 55.896167 
" clip-path="url(#p7476c9ae35)" style="fill: none; stroke: #7a7a7a; stroke-width: 3; stroke-linecap: square"/>
   </g>
   <g id="line2d_57">
    <path d="M 311.940497 234.6886 
L 260.771731 195.858679 
L 248.42065 189.241362 
L 236.762742 185.370855 
L 225.798006 184.621725 
L 215.526444 187.493391 
L 206.01107 194.610129 
L 197.3149 206.346504 
L 189.563966 223.201936 
L 182.632237 245.675845 
L 176.708759 274.267651 
" clip-path="url(#p7476c9ae35)" style="fill: none; stroke: #7a7a7a; stroke-width: 3; stroke-linecap: square"/>
   </g>
   <g id="line2d_58">
    <path d="M 325.614909 173.010205 
L 274.383127 134.180284 
L 260.771731 125.315576 
L 247.853509 119.946809 
L 235.628459 117.949128 
L 224.096582 119.322533 
L 213.257878 123.817315 
L 203.175362 131.308618 
L 193.78602 141.546732 
L 185.08985 154.531658 
L 177.149869 170.138539 
L 169.903061 188.242521 
L 163.412442 208.46904 
L 157.678012 230.942949 
L 157.047854 233.93947 
L 156.606744 236.561426 
L 152.636754 255.414539 
" clip-path="url(#p7476c9ae35)" style="fill: none; stroke: #7a7a7a; stroke-width: 3; stroke-linecap: square"/>
   </g>
   <g id="line2d_59">
    <path d="M 159.379436 118.073983 
L 311.940497 234.6886 
" clip-path="url(#p7476c9ae35)" style="fill: none; stroke: #7a7a7a; stroke-width: 3; stroke-linecap: square"/>
   </g>
   <g id="line2d_60">
    <path d="M 144.822804 177.130422 
L 233.485924 245.426135 
L 235.817506 246.175265 
L 243.757487 251.544032 
L 300.471636 295.867575 
" clip-path="url(#p7476c9ae35)" style="fill: none; stroke: #7a7a7a; stroke-width: 3; stroke-linecap: square"/>
   </g>
   <g id="line2d_61">
    <path d="M 1396.252012 1067.97121 
L 1441 1112.219573 
" clip-path="url(#p7476c9ae35)" style="fill: none; stroke: #7a7a7a; stroke-width: 3; stroke-linecap: square"/>
   </g>
   <g id="line2d_62">
    <path d="M 1383.018711 1133.395256 
L 1441 1177.948783 
" clip-path="url(#p7476c9ae35)" style="fill: none; stroke: #7a7a7a; stroke-width: 3; stroke-linecap: square"/>
   </g>
   <g id="line2d_63">
    <path d="M 1396.252012 1067.97121 
L 1341.491351 1029.390999 
L 1262.658683 966.963473 
" clip-path="url(#p7476c9ae35)" style="fill: none; stroke: #7a7a7a; stroke-width: 3; stroke-linecap: square"/>
   </g>
   <g id="line2d_64">
    <path d="M 1407.783889 1009.913611 
L 1372.43207 982.69521 
L 1274.505639 908.031889 
" clip-path="url(#p7476c9ae35)" style="fill: none; stroke: #7a7a7a; stroke-width: 3; stroke-linecap: square"/>
   </g>
   <g id="line2d_65">
    <path d="M 1396.252012 1067.97121 
L 1441 1097.060411 
" clip-path="url(#p7476c9ae35)" style="fill: none; stroke: #7a7a7a; stroke-width: 3; stroke-linecap: square"/>
   </g>
   <g id="line2d_66">
    <path d="M 1383.018711 1133.395256 
L 1441 1152.867979 
" clip-path="url(#p7476c9ae35)" style="fill: none; stroke: #7a7a7a; stroke-width: 3; stroke-linecap: square"/>
   </g>
   <g id="line2d_67">
    <path d="M 1329.31787 1065.434847 
L 1345.476418 1009.990792 
" clip-path="url(#p7476c9ae35)" style="fill: none; stroke-dasharray: 32,8,5,8; stroke-dashoffset: 0; stroke: #1e90ff; stroke-width: 5"/>
   </g>
   <g id="line2d_68">
    <path d="M 706.553005 576.104249 
L 1021.963921 795.71014 
" clip-path="url(#p7476c9ae35)" style="fill: none; stroke-dasharray: 32,8,5,8; stroke-dashoffset: 0; stroke: #1e90ff; stroke-width: 5"/>
   </g>
   <g id="line2d_69">
    <path d="M 301.326225 172.541389 
L 211.434976 86.444443 
" clip-path="url(#p7476c9ae35)" style="fill: none; stroke-dasharray: 32,8,5,8; stroke-dashoffset: 0; stroke: #1e90ff; stroke-width: 5"/>
   </g>
   <g id="line2d_70">
    <path d="M 574.335376 399.045399 
L 365.157335 236.669821 
" clip-path="url(#p7476c9ae35)" style="fill: none; stroke-dasharray: 32,8,5,8; stroke-dashoffset: 0; stroke: #1e90ff; stroke-width: 5"/>
   </g>
   <g id="line2d_71">
    <path d="M 1002.666895 731.21897 
L 691.176 485.245985 
" clip-path="url(#p7476c9ae35)" style="fill: none; stroke-dasharray: 32,8,5,8; stroke-dashoffset: 0; stroke: #1e90ff; stroke-width: 5"/>
   </g>
   <g id="line2d_72">
    <path d="M 1329.31787 1065.434847 
" clip-path="url(#p7476c9ae35)" style="fill: none; stroke: #0000ff; stroke-width: 1.5; stroke-linecap: square"/>
    <defs>
     <path id="m074ff7fc90" d="M 0 10 
C 2.652031 10 5.195799 8.946337 7.071068 7.071068 
C 8.946337 5.195799 10 2.652031 10 0 
C 10 -2.652031 8.946337 -5.195799 7.071068 -7.071068 
C 5.195799 -8.946337 2.652031 -10 0 -10 
C -2.652031 -10 -5.195799 -8.946337 -7.071068 -7.071068 
C -8.946337 -5.195799 -10 -2.652031 -10 0 
C -10 2.652031 -8.946337 5.195799 -7.071068 7.071068 
C -5.195799 8.946337 -2.652031 10 0 10 
z
" style="stroke: #0000ff"/>
    </defs>
    <g clip-path="url(#p7476c9ae35)">
     <use xlink:href="#m074ff7fc90" x="1329.31787" y="1065.434847" style="fill: #0000ff; stroke: #0000ff"/>
    </g>
   </g>
   <g id="line2d_73">
    <path d="M 706.553005 576.104249 
" clip-path="url(#p7476c9ae35)" style="fill: none; stroke: #0000ff; stroke-width: 1.5; stroke-linecap: square"/>
    <g clip-path="url(#p7476c9ae35)">
     <use xlink:href="#m074ff7fc90" x="706.553005" y="576.104249" style="fill: #0000ff; stroke: #0000ff"/>
    </g>
   </g>
   <g id="line2d_74">
    <path d="M 301.326225 172.541389 
" clip-path="url(#p7476c9ae35)" style="fill: none; stroke: #0000ff; stroke-width: 1.5; stroke-linecap: square"/>
    <g clip-path="url(#p7476c9ae35)">
     <use xlink:href="#m074ff7fc90" x="301.326225" y="172.541389" style="fill: #0000ff; stroke: #0000ff"/>
    </g>
   </g>
   <g id="line2d_75">
    <path d="M 574.335376 399.045399 
" clip-path="url(#p7476c9ae35)" style="fill: none; stroke: #0000ff; stroke-width: 1.5; stroke-linecap: square"/>
    <g clip-path="url(#p7476c9ae35)">
     <use xlink:href="#m074ff7fc90" x="574.335376" y="399.045399" style="fill: #0000ff; stroke: #0000ff"/>
    </g>
   </g>
   <g id="line2d_76">
    <path d="M 1002.666895 731.21897 
" clip-path="url(#p7476c9ae35)" style="fill: none; stroke: #0000ff; stroke-width: 1.5; stroke-linecap: square"/>
    <g clip-path="url(#p7476c9ae35)">
     <use xlink:href="#m074ff7fc90" x="1002.666895" y="731.21897" style="fill: #0000ff; stroke: #0000ff"/>
    </g>
   </g>
   <g id="line2d_77">
    <path d="M 1345.476418 1009.990792 
" clip-path="url(#p7476c9ae35)" style="fill: none; stroke: #ff0000; stroke-width: 1.5; stroke-linecap: square"/>
    <defs>
     <path id="mb5055b409e" d="M 0 -10 
L -2.24514 -3.09017 
L -9.510565 -3.09017 
L -3.632713 1.18034 
L -5.877853 8.09017 
L -0 3.81966 
L 5.877853 8.09017 
L 3.632713 1.18034 
L 9.510565 -3.09017 
L 2.24514 -3.09017 
z
" style="stroke: #ff0000; stroke-linejoin: bevel"/>
    </defs>
    <g clip-path="url(#p7476c9ae35)">
     <use xlink:href="#mb5055b409e" x="1345.476418" y="1009.990792" style="fill: #ff0000; stroke: #ff0000; stroke-linejoin: bevel"/>
    </g>
   </g>
   <g id="line2d_78">
    <path d="M 1021.963921 795.71014 
" clip-path="url(#p7476c9ae35)" style="fill: none; stroke: #ff0000; stroke-width: 1.5; stroke-linecap: square"/>
    <g clip-path="url(#p7476c9ae35)">
     <use xlink:href="#mb5055b409e" x="1021.963921" y="795.71014" style="fill: #ff0000; stroke: #ff0000; stroke-linejoin: bevel"/>
    </g>
   </g>
   <g id="line2d_79">
    <path d="M 211.434976 86.444443 
" clip-path="url(#p7476c9ae35)" style="fill: none; stroke: #ff0000; stroke-width: 1.5; stroke-linecap: square"/>
    <g clip-path="url(#p7476c9ae35)">
     <use xlink:href="#mb5055b409e" x="211.434976" y="86.444443" style="fill: #ff0000; stroke: #ff0000; stroke-linejoin: bevel"/>
    </g>
   </g>
   <g id="line2d_80">
    <path d="M 365.157335 236.669821 
" clip-path="url(#p7476c9ae35)" style="fill: none; stroke: #ff0000; stroke-width: 1.5; stroke-linecap: square"/>
    <g clip-path="url(#p7476c9ae35)">
     <use xlink:href="#mb5055b409e" x="365.157335" y="236.669821" style="fill: #ff0000; stroke: #ff0000; stroke-linejoin: bevel"/>
    </g>
   </g>
   <g id="line2d_81">
    <path d="M 691.176 485.245985 
" clip-path="url(#p7476c9ae35)" style="fill: none; stroke: #ff0000; stroke-width: 1.5; stroke-linecap: square"/>
    <g clip-path="url(#p7476c9ae35)">
     <use xlink:href="#mb5055b409e" x="691.176" y="485.245985" style="fill: #ff0000; stroke: #ff0000; stroke-linejoin: bevel"/>
    </g>
   </g>
  </g>
 </g>
 <defs>
  <clipPath id="p7476c9ae35">
   <rect x="0" y="0" width="1440" height="1440"/>
  </clipPath>
 </defs>
</svg>
