<?xml version="1.0" encoding="utf-8" standalone="no"?>
<!DOCTYPE svg PUBLIC "-//W3C//DTD SVG 1.1//EN"
  "http://www.w3.org/Graphics/SVG/1.1/DTD/svg11.dtd">
<svg xmlns:xlink="http://www.w3.org/1999/xlink" width="1440pt" height="1440pt" viewBox="0 0 1440 1440" xmlns="http://www.w3.org/2000/svg" version="1.1">
 <metadata>
  <rdf:RDF xmlns:dc="http://purl.org/dc/elements/1.1/" xmlns:cc="http://creativecommons.org/ns#" xmlns:rdf="http://www.w3.org/1999/02/22-rdf-syntax-ns#">
   <cc:Work>
    <dc:type rdf:resource="http://purl.org/dc/dcmitype/StillImage"/>
    <dc:date>2026-02-27T11:12:15.048026</dc:date>
    <dc:format>image/svg+xml</dc:format>
    <dc:creator>
     <cc:Agent>
      <dc:title>Matplotlib v3.7.3, https://matplotlib.org/</dc:title>
     </cc:Agent>
    </dc:creator>
   </cc:Work>
  </rdf:RDF>
 </metadata>
 <defs>
  <style type="text/css">*{stroke-linejoin: round; stroke-linecap: butt}</style>
 </defs>
 <g id="figure_1">
  <g id="patch_1">
   <path d="M 0 1440 
L 1440 1440 
L 1440 0 
L 0 0 
z
" style="fill: #ffffff"/>
  </g>
  <g id="axes_1">
   <g id="line2d_1">
    <path d="M 1082.616476 187.336135 
L 1316.97905 -1 
" clip-path="url(#pc7979d5d4d)" style="fill: none; stroke: #7a7a7a; stroke-width: 3; stroke-linecap: square"/>
   </g>
   <g id="line2d_2">
    <path d="M 1082.616476 232.206924 
L 1367.238366 2.937359 
" clip-path="url(#pc7979d5d4d)" style="fill: none; stroke: #7a7a7a; stroke-width: 3; stroke-linecap: square"/>
   </g>
   <g id="line2d_3">
    <path d="M 1082.616476 232.206924 
L 1367.238366 2.937359 
" clip-path="url(#pc7979d5d4d)" style="fill: none; stroke: #7a7a7a; stroke-width: 3; stroke-linecap: square"/>
   </g>
   <g id="line2d_4">
    <path d="M 1082.616476 280.480834 
L 1380.474607 42.010237 
" clip-path="url(#pc7979d5d4d)" style="fill: none; stroke: #7a7a7a; stroke-width: 3; stroke-linecap: square"/>
   </g>
   <g id="line2d_5">
    <path d="M 1082.616476 280.480834 
L 1380.474607 42.010237 
" clip-path="url(#pc7979d5d4d)" style="fill: none; stroke: #7a7a7a; stroke-width: 3; stroke-linecap: square"/>
   </g>
   <g id="line2d_6">
    <path d="M 1082.616476 329.384953 
L 1393.113083 78.184159 
" clip-path="url(#pc7979d5d4d)" style="fill: none; stroke: #7a7a7a; stroke-width: 3; stroke-linecap: square"/>
   </g>
   <g id="line2d_7">
    <path d="M 549.921802 511.514981 
L 648.55315 823.341756 
" clip-path="url(#pc7979d5d4d)" style="fill: none; stroke: #7a7a7a; stroke-width: 3; stroke-linecap: square"/>
   </g>
   <g id="line2d_8">
    <path d="M 524.559456 531.933711 
L 621.995272 842.752153 
" clip-path="url(#pc7979d5d4d)" style="fill: none; stroke: #7a7a7a; stroke-width: 3; stroke-linecap: square"/>
   </g>
   <g id="line2d_9">
    <path d="M 766.227607 493.869165 
L 909.349805 370.978661 
L 1082.616476 232.206924 
" clip-path="url(#pc7979d5d4d)" style="fill: none; stroke: #7a7a7a; stroke-width: 3; stroke-linecap: square"/>
   </g>
   <g id="line2d_10">
    <path d="M 778.780687 530.673295 
L 918.657872 413.076536 
L 1082.616476 280.480834 
" clip-path="url(#pc7979d5d4d)" style="fill: none; stroke: #7a7a7a; stroke-width: 3; stroke-linecap: square"/>
   </g>
   <g id="line2d_11">
    <path d="M 524.559456 531.933711 
L 621.995272 842.752153 
" clip-path="url(#pc7979d5d4d)" style="fill: none; stroke: #7a7a7a; stroke-width: 3; stroke-linecap: square"/>
   </g>
   <g id="line2d_12">
    <path d="M 492.621686 557.520144 
L 591.509219 865.061506 
" clip-path="url(#pc7979d5d4d)" style="fill: none; stroke: #7a7a7a; stroke-width: 3; stroke-linecap: square"/>
   </g>
   <g id="line2d_13">
    <path d="M 478.019123 96.082058 
L 598.340828 472.694186 
" clip-path="url(#pc7979d5d4d)" style="fill: none; stroke: #7a7a7a; stroke-width: 3; stroke-linecap: square"/>
   </g>
   <g id="line2d_14">
    <path d="M 449.240972 96.082058 
L 573.576247 492.608749 
" clip-path="url(#pc7979d5d4d)" style="fill: none; stroke: #7a7a7a; stroke-width: 3; stroke-linecap: square"/>
   </g>
   <g id="line2d_15">
    <path d="M 598.340828 472.694186 
L 607.563499 492.356666 
L 620.62895 507.733735 
L 636.000069 517.943099 
L 652.481325 522.732678 
L 668.621 521.472263 
L 682.967378 513.657687 
L 752.3936 455.300453 
" clip-path="url(#pc7979d5d4d)" style="fill: none; stroke: #7a7a7a; stroke-width: 3; stroke-linecap: square"/>
   </g>
   <g id="line2d_16">
    <path d="M 573.576247 492.608749 
L 581.432596 512.397272 
L 592.36317 529.286838 
L 605.770202 543.151408 
L 620.799741 553.738897 
L 636.854021 560.923265 
L 653.164486 564.452428 
L 669.047976 564.326387 
L 683.821329 560.293058 
L 696.88678 552.226399 
L 766.227607 493.869165 
" clip-path="url(#pc7979d5d4d)" style="fill: none; stroke: #7a7a7a; stroke-width: 3; stroke-linecap: square"/>
   </g>
   <g id="line2d_17">
    <path d="M 460.513126 719.987691 
L 492.792476 686.082516 
L 494.073403 684.570018 
L 523.022344 653.68984 
L 752.3936 455.300453 
" clip-path="url(#pc7979d5d4d)" style="fill: none; stroke: #7a7a7a; stroke-width: 3; stroke-linecap: square"/>
   </g>
   <g id="line2d_18">
    <path d="M 474.261738 755.531406 
L 538.222673 688.603347 
L 644.36879 599.74406 
L 712.087109 540.252452 
L 766.227607 493.869165 
" clip-path="url(#pc7979d5d4d)" style="fill: none; stroke: #7a7a7a; stroke-width: 3; stroke-linecap: square"/>
   </g>
   <g id="line2d_19">
    <path d="M 573.576247 492.608749 
L 663.582689 775.067845 
L 666.486122 784.773044 
L 673.146941 805.317815 
" clip-path="url(#pc7979d5d4d)" style="fill: none; stroke: #7a7a7a; stroke-width: 3; stroke-linecap: square"/>
   </g>
   <g id="line2d_20">
    <path d="M 549.921802 511.514981 
L 648.55315 823.341756 
" clip-path="url(#pc7979d5d4d)" style="fill: none; stroke: #7a7a7a; stroke-width: 3; stroke-linecap: square"/>
   </g>
   <g id="line2d_21">
    <path d="M 840.435954 1230.455936 
L 729.336921 874.766705 
L 701.498116 790.570955 
" clip-path="url(#pc7979d5d4d)" style="fill: none; stroke: #7a7a7a; stroke-width: 3; stroke-linecap: square"/>
   </g>
   <g id="line2d_22">
    <path d="M 873.825441 1230.455936 
L 726.860463 772.673056 
" clip-path="url(#pc7979d5d4d)" style="fill: none; stroke: #7a7a7a; stroke-width: 3; stroke-linecap: square"/>
   </g>
   <g id="line2d_23">
    <path d="M 752.3936 455.300453 
L 1082.616476 187.336135 
" clip-path="url(#pc7979d5d4d)" style="fill: none; stroke: #7a7a7a; stroke-width: 3; stroke-linecap: square"/>
   </g>
   <g id="line2d_24">
    <path d="M 766.227607 493.869165 
L 909.349805 370.978661 
L 1082.616476 232.206924 
" clip-path="url(#pc7979d5d4d)" style="fill: none; stroke: #7a7a7a; stroke-width: 3; stroke-linecap: square"/>
   </g>
   <g id="line2d_25">
    <path d="M 701.498116 790.570955 
L 598.340828 472.694186 
" clip-path="url(#pc7979d5d4d)" style="fill: none; stroke: #7a7a7a; stroke-width: 3; stroke-linecap: square"/>
   </g>
   <g id="line2d_26">
    <path d="M 726.860463 772.673056 
L 624.215545 451.897331 
" clip-path="url(#pc7979d5d4d)" style="fill: none; stroke: #7a7a7a; stroke-width: 3; stroke-linecap: square"/>
   </g>
   <g id="line2d_27">
    <path d="M 648.55315 823.341756 
L 778.353712 1230.455936 
" clip-path="url(#pc7979d5d4d)" style="fill: none; stroke: #7a7a7a; stroke-width: 3; stroke-linecap: square"/>
   </g>
   <g id="line2d_28">
    <path d="M 621.995272 842.752153 
L 745.903571 1230.455936 
" clip-path="url(#pc7979d5d4d)" style="fill: none; stroke: #7a7a7a; stroke-width: 3; stroke-linecap: square"/>
   </g>
   <g id="line2d_29">
    <path d="M 673.146941 805.317815 
L 680.14934 826.744877 
L 703.120623 907.663547 
L 710.464602 932.997897 
L 723.700844 973.961398 
L 731.557194 996.648876 
L 747.355288 1041.393623 
L 767.423138 1102.145647 
L 808.92516 1230.455936 
" clip-path="url(#pc7979d5d4d)" style="fill: none; stroke: #7a7a7a; stroke-width: 3; stroke-linecap: square"/>
   </g>
   <g id="line2d_30">
    <path d="M 648.55315 823.341756 
L 778.353712 1230.455936 
" clip-path="url(#pc7979d5d4d)" style="fill: none; stroke: #7a7a7a; stroke-width: 3; stroke-linecap: square"/>
   </g>
   <g id="line2d_31">
    <path d="M 382.974369 96.082058 
L 524.559456 531.933711 
" clip-path="url(#pc7979d5d4d)" style="fill: none; stroke: #7a7a7a; stroke-width: 3; stroke-linecap: square"/>
   </g>
   <g id="line2d_32">
    <path d="M 344.973547 96.082058 
L 492.621686 557.520144 
" clip-path="url(#pc7979d5d4d)" style="fill: none; stroke: #7a7a7a; stroke-width: 3; stroke-linecap: square"/>
   </g>
   <g id="line2d_33">
    <path d="M 488.01035 791.453246 
L 501.758962 778.72305 
L 516.617711 770.908474 
L 532.245015 767.631394 
L 548.128505 768.513685 
L 563.670414 773.177222 
L 578.529163 781.243881 
L 592.106985 792.335536 
L 604.0623 805.948023 
L 613.797342 821.955299 
L 620.970531 839.727156 
L 621.995272 842.752153 
" clip-path="url(#pc7979d5d4d)" style="fill: none; stroke: #7a7a7a; stroke-width: 3; stroke-linecap: square"/>
   </g>
   <g id="line2d_34">
    <path d="M 501.758962 826.240711 
L 510.896239 819.938634 
L 519.521144 816.409471 
L 525.498802 814.896972 
L 531.561854 814.266765 
L 539.759785 814.644889 
L 547.957715 817.039679 
L 556.582621 821.451133 
L 565.805292 828.131334 
L 575.198754 836.954242 
L 581.347201 844.642776 
L 585.958537 852.079227 
L 589.801317 860.145886 
L 591.509219 865.061506 
" clip-path="url(#pc7979d5d4d)" style="fill: none; stroke: #7a7a7a; stroke-width: 3; stroke-linecap: square"/>
   </g>
   <g id="line2d_35">
    <path d="M 752.478995 754.397032 
L 648.980126 431.982768 
" clip-path="url(#pc7979d5d4d)" style="fill: none; stroke: #7a7a7a; stroke-width: 3; stroke-linecap: square"/>
   </g>
   <g id="line2d_36">
    <path d="M 784.84374 731.457472 
L 691.250703 442.696299 
L 690.225962 440.175468 
L 679.807759 407.278626 
" clip-path="url(#pc7979d5d4d)" style="fill: none; stroke: #7a7a7a; stroke-width: 3; stroke-linecap: square"/>
   </g>
   <g id="line2d_37">
    <path d="M 474.261738 755.531406 
L 538.222673 688.603347 
L 644.36879 599.74406 
L 712.087109 540.252452 
L 766.227607 493.869165 
" clip-path="url(#pc7979d5d4d)" style="fill: none; stroke: #7a7a7a; stroke-width: 3; stroke-linecap: square"/>
   </g>
   <g id="line2d_38">
    <path d="M 488.01035 791.453246 
L 551.971285 724.525187 
L 660.59386 629.99403 
L 778.780687 530.673295 
" clip-path="url(#pc7979d5d4d)" style="fill: none; stroke: #7a7a7a; stroke-width: 3; stroke-linecap: square"/>
   </g>
   <g id="line2d_39">
    <path d="M 624.215545 451.897331 
L 510.042288 96.082058 
" clip-path="url(#pc7979d5d4d)" style="fill: none; stroke: #7a7a7a; stroke-width: 3; stroke-linecap: square"/>
   </g>
   <g id="line2d_40">
    <path d="M 648.980126 431.982768 
L 542.236243 96.082058 
" clip-path="url(#pc7979d5d4d)" style="fill: none; stroke: #7a7a7a; stroke-width: 3; stroke-linecap: square"/>
   </g>
   <g id="line2d_41">
    <path d="M 726.860463 772.673056 
L 624.215545 451.897331 
" clip-path="url(#pc7979d5d4d)" style="fill: none; stroke: #7a7a7a; stroke-width: 3; stroke-linecap: square"/>
   </g>
   <g id="line2d_42">
    <path d="M 752.478995 754.397032 
L 648.980126 431.982768 
" clip-path="url(#pc7979d5d4d)" style="fill: none; stroke: #7a7a7a; stroke-width: 3; stroke-linecap: square"/>
   </g>
   <g id="line2d_43">
    <path d="M 57.875199 1128.488329 
L 80.761088 1107.31335 
L 111.503326 1077.945671 
L 135.413956 1054.249861 
L 243.780346 943.081221 
L 281.866563 903.252093 
L 369.908918 814.266765 
L 407.055789 776.076177 
L 460.513126 719.987691 
" clip-path="url(#pc7979d5d4d)" style="fill: none; stroke: #7a7a7a; stroke-width: 3; stroke-linecap: square"/>
   </g>
   <g id="line2d_44">
    <path d="M 57.875199 1181.551818 
L 58.131384 1181.299735 
L 154.286274 1087.398786 
L 233.105957 1008.244698 
L 474.261738 755.531406 
" clip-path="url(#pc7979d5d4d)" style="fill: none; stroke: #7a7a7a; stroke-width: 3; stroke-linecap: square"/>
   </g>
   <g id="line2d_45">
    <path d="M 57.875199 1181.551818 
L 58.131384 1181.299735 
L 154.286274 1087.398786 
L 233.105957 1008.244698 
L 474.261738 755.531406 
" clip-path="url(#pc7979d5d4d)" style="fill: none; stroke: #7a7a7a; stroke-width: 3; stroke-linecap: square"/>
   </g>
   <g id="line2d_46">
    <path d="M 57.875199 1229.321563 
L 58.131384 1229.069479 
L 168.376467 1123.320626 
L 254.198549 1035.973837 
L 488.01035 791.453246 
" clip-path="url(#pc7979d5d4d)" style="fill: none; stroke: #7a7a7a; stroke-width: 3; stroke-linecap: square"/>
   </g>
   <g id="line2d_47">
    <path d="M 778.780687 530.673295 
L 918.657872 413.076536 
L 1082.616476 280.480834 
" clip-path="url(#pc7979d5d4d)" style="fill: none; stroke: #7a7a7a; stroke-width: 3; stroke-linecap: square"/>
   </g>
   <g id="line2d_48">
    <path d="M 790.565212 564.956595 
L 847.182168 517.817058 
L 1082.616476 329.384953 
" clip-path="url(#pc7979d5d4d)" style="fill: none; stroke: #7a7a7a; stroke-width: 3; stroke-linecap: square"/>
   </g>
   <g id="line2d_49">
    <path d="M 488.01035 791.453246 
L 551.971285 724.525187 
L 660.59386 629.99403 
L 778.780687 530.673295 
" clip-path="url(#pc7979d5d4d)" style="fill: none; stroke: #7a7a7a; stroke-width: 3; stroke-linecap: square"/>
   </g>
   <g id="line2d_50">
    <path d="M 501.758962 826.240711 
L 652.993696 684.443976 
L 776.389624 576.930541 
L 790.565212 564.956595 
" clip-path="url(#pc7979d5d4d)" style="fill: none; stroke: #7a7a7a; stroke-width: 3; stroke-linecap: square"/>
   </g>
   <g id="line2d_51">
    <path d="M 57.875199 1229.321563 
L 58.131384 1229.069479 
L 168.376467 1123.320626 
L 254.198549 1035.973837 
L 488.01035 791.453246 
" clip-path="url(#pc7979d5d4d)" style="fill: none; stroke: #7a7a7a; stroke-width: 3; stroke-linecap: square"/>
   </g>
   <g id="line2d_52">
    <path d="M 57.875199 1275.326725 
L 58.131384 1275.074642 
L 116.370847 1225.162192 
L 184.345352 1152.814347 
L 239.766776 1101.767522 
L 488.266535 839.475073 
L 501.758962 826.240711 
" clip-path="url(#pc7979d5d4d)" style="fill: none; stroke: #7a7a7a; stroke-width: 3; stroke-linecap: square"/>
   </g>
   <g id="line2d_53">
    <path d="M 573.576247 492.608749 
L 449.497157 96.082058 
" clip-path="url(#pc7979d5d4d)" style="fill: none; stroke: #7a7a7a; stroke-width: 3; stroke-linecap: square"/>
   </g>
   <g id="line2d_54">
    <path d="M 598.340828 472.694186 
L 478.189913 96.082058 
" clip-path="url(#pc7979d5d4d)" style="fill: none; stroke: #7a7a7a; stroke-width: 3; stroke-linecap: square"/>
   </g>
   <g id="line2d_55">
    <path d="M 648.980126 431.982768 
L 542.236243 96.082058 
" clip-path="url(#pc7979d5d4d)" style="fill: none; stroke: #7a7a7a; stroke-width: 3; stroke-linecap: square"/>
   </g>
   <g id="line2d_56">
    <path d="M 679.807759 407.278626 
L 602.952163 169.564277 
L 580.15167 96.082058 
" clip-path="url(#pc7979d5d4d)" style="fill: none; stroke: #7a7a7a; stroke-width: 3; stroke-linecap: square"/>
   </g>
   <g id="line2d_57">
    <path d="M 873.825441 1230.455936 
L 726.860463 772.673056 
" clip-path="url(#pc7979d5d4d)" style="fill: none; stroke: #7a7a7a; stroke-width: 3; stroke-linecap: square"/>
   </g>
   <g id="line2d_58">
    <path d="M 904.90926 1230.455936 
L 752.478995 754.397032 
" clip-path="url(#pc7979d5d4d)" style="fill: none; stroke: #7a7a7a; stroke-width: 3; stroke-linecap: square"/>
   </g>
   <g id="line2d_59">
    <path d="M 621.995272 842.752153 
L 745.903571 1230.455936 
" clip-path="url(#pc7979d5d4d)" style="fill: none; stroke: #7a7a7a; stroke-width: 3; stroke-linecap: square"/>
   </g>
   <g id="line2d_60">
    <path d="M 591.509219 865.061506 
L 594.583443 873.506289 
L 635.146118 999.799915 
L 680.576315 1139.958109 
L 697.399151 1193.651806 
L 711.745529 1230.455936 
" clip-path="url(#pc7979d5d4d)" style="fill: none; stroke: #7a7a7a; stroke-width: 3; stroke-linecap: square"/>
   </g>
   <g id="line2d_61">
    <path d="M 416.449251 96.082058 
L 479.043864 295.983944 
L 549.921802 511.514981 
" clip-path="url(#pc7979d5d4d)" style="fill: none; stroke: #7a7a7a; stroke-width: 3; stroke-linecap: square"/>
   </g>
   <g id="line2d_62">
    <path d="M 382.974369 96.082058 
L 524.559456 531.933711 
" clip-path="url(#pc7979d5d4d)" style="fill: none; stroke: #7a7a7a; stroke-width: 3; stroke-linecap: square"/>
   </g>
   <g id="line2d_63">
    <path d="M 598.340828 472.694186 
L 478.189913 96.082058 
" clip-path="url(#pc7979d5d4d)" style="fill: none; stroke: #7a7a7a; stroke-width: 3; stroke-linecap: square"/>
   </g>
   <g id="line2d_64">
    <path d="M 624.215545 451.897331 
L 510.042288 96.082058 
" clip-path="url(#pc7979d5d4d)" style="fill: none; stroke: #7a7a7a; stroke-width: 3; stroke-linecap: square"/>
   </g>
   <g id="line2d_65">
    <path d="M 460.513126 719.987691 
L 492.792476 686.082516 
L 496.549861 681.671062 
L 522.936949 653.68984 
L 547.786925 625.582576 
L 567.598589 601.004476 
L 582.798918 579.32533 
L 593.985677 560.167016 
L 601.415051 543.025366 
L 605.514017 527.522257 
L 606.880338 513.279562 
L 605.855597 499.667076 
L 602.866768 486.306672 
L 598.340828 472.694186 
" clip-path="url(#pc7979d5d4d)" style="fill: none; stroke: #7a7a7a; stroke-width: 3; stroke-linecap: square"/>
   </g>
   <g id="line2d_66">
    <path d="M 474.261738 755.531406 
L 536.685561 689.359597 
L 563.499624 657.849211 
L 585.531562 630.120072 
L 603.037558 605.668013 
L 616.44459 583.988867 
L 626.350422 564.830553 
L 632.925846 547.688903 
L 636.768625 532.311835 
L 638.134947 518.069141 
L 637.622577 504.708737 
L 635.573094 491.8525 
L 632.32808 479.122304 
L 624.215545 451.897331 
" clip-path="url(#pc7979d5d4d)" style="fill: none; stroke: #7a7a7a; stroke-width: 3; stroke-linecap: square"/>
   </g>
   <g id="line2d_67">
    <path d="M 449.240972 96.082058 
L 573.576247 492.608749 
" clip-path="url(#pc7979d5d4d)" style="fill: none; stroke: #7a7a7a; stroke-width: 3; stroke-linecap: square"/>
   </g>
   <g id="line2d_68">
    <path d="M 416.449251 96.082058 
L 479.043864 295.983944 
L 549.921802 511.514981 
" clip-path="url(#pc7979d5d4d)" style="fill: none; stroke: #7a7a7a; stroke-width: 3; stroke-linecap: square"/>
   </g>
   <g id="line2d_69">
    <path d="M 752.478995 754.397032 
L 737.107875 706.879371 
L 731.557194 685.956475 
L 728.397575 664.403371 
L 727.714414 642.598184 
L 729.593106 621.045081 
L 734.119047 600.248226 
L 741.206841 580.333663 
L 751.027278 561.805556 
L 763.494963 545.168072 
L 778.780687 530.673295 
" clip-path="url(#pc7979d5d4d)" style="fill: none; stroke: #7a7a7a; stroke-width: 3; stroke-linecap: square"/>
   </g>
   <g id="line2d_70">
    <path d="M 784.84374 731.457472 
L 764.861285 668.310659 
L 761.616271 656.840879 
L 758.969023 644.866932 
L 757.602701 635.287775 
L 757.261121 628.229449 
L 757.773491 619.784665 
L 759.054418 611.465924 
L 761.189295 603.273223 
L 764.092729 595.458648 
L 767.423138 589.030529 
L 771.778289 582.60241 
L 776.389624 576.930541 
L 790.565212 564.956595 
" clip-path="url(#pc7979d5d4d)" style="fill: none; stroke: #7a7a7a; stroke-width: 3; stroke-linecap: square"/>
   </g>
   <g id="line2d_71">
    <path d="M 904.90926 1230.455936 
L 752.478995 754.397032 
" clip-path="url(#pc7979d5d4d)" style="fill: none; stroke: #7a7a7a; stroke-width: 3; stroke-linecap: square"/>
   </g>
   <g id="line2d_72">
    <path d="M 937.444795 1230.455936 
L 930.015421 1207.768459 
L 899.956343 1114.245635 
L 896.369749 1101.263356 
L 891.673018 1068.996721 
L 888.769584 1056.140484 
L 864.94435 977.616603 
L 787.576383 740.28038 
L 784.84374 731.457472 
" clip-path="url(#pc7979d5d4d)" style="fill: none; stroke: #7a7a7a; stroke-width: 3; stroke-linecap: square"/>
   </g>
   <g id="line2d_73">
    <path d="M 170.790213 1061.875374 
L 292.620009 905.535858 
" clip-path="url(#pc7979d5d4d)" style="fill: none; stroke-dasharray: 32,8,5,8; stroke-dashoffset: 0; stroke: #1e90ff; stroke-width: 5"/>
   </g>
   <g id="line2d_74">
    <path d="M 950.579296 318.156424 
L 1311.90734 63.020771 
" clip-path="url(#pc7979d5d4d)" style="fill: none; stroke-dasharray: 32,8,5,8; stroke-dashoffset: 0; stroke: #1e90ff; stroke-width: 5"/>
   </g>
   <g id="line2d_75">
    <path d="M 170.790213 1061.875374 
" clip-path="url(#pc7979d5d4d)" style="fill: none; stroke: #0000ff; stroke-width: 1.5; stroke-linecap: square"/>
    <defs>
     <path id="md7d0ab859d" d="M 0 10 
C 2.652031 10 5.195799 8.946337 7.071068 7.071068 
C 8.946337 5.195799 10 2.652031 10 0 
C 10 -2.652031 8.946337 -5.195799 7.071068 -7.071068 
C 5.195799 -8.946337 2.652031 -10 0 -10 
C -2.652031 -10 -5.195799 -8.946337 -7.071068 -7.071068 
C -8.946337 -5.195799 -10 -2.652031 -10 0 
C -10 2.652031 -8.946337 5.195799 -7.071068 7.071068 
C -5.195799 8.946337 -2.652031 10 0 10 
z
" style="stroke: #0000ff"/>
    </defs>
    <g clip-path="url(#pc7979d5d4d)">
     <use xlink:href="#md7d0ab859d" x="170.790213" y="1061.875374" style="fill: #0000ff; stroke: #0000ff"/>
    </g>
   </g>
   <g id="line2d_76">
    <path d="M 950.579296 318.156424 
" clip-path="url(#pc7979d5d4d)" style="fill: none; stroke: #0000ff; stroke-width: 1.5; stroke-linecap: square"/>
    <g clip-path="url(#pc7979d5d4d)">
     <use xlink:href="#md7d0ab859d" x="950.579296" y="318.156424" style="fill: #0000ff; stroke: #0000ff"/>
    </g>
   </g>
   <g id="line2d_77">
    <path d="M 292.620009 905.535858 
" clip-path="url(#pc7979d5d4d)" style="fill: none; stroke: #ff0000; stroke-width: 1.5; stroke-linecap: square"/>
    <defs>
     <path id="ma615c2d0ed" d="M 0 -10 
L -2.24514 -3.09017 
L -9.510565 -3.09017 
L -3.632713 1.18034 
L -5.877853 8.09017 
L -0 3.81966 
L 5.877853 8.09017 
L 3.632713 1.18034 
L 9.510565 -3.09017 
L 2.24514 -3.09017 
z
" style="stroke: #ff0000; stroke-linejoin: bevel"/>
    </defs>
    <g clip-path="url(#pc7979d5d4d)">
     <use xlink:href="#ma615c2d0ed" x="292.620009" y="905.535858" style="fill: #ff0000; stroke: #ff0000; stroke-linejoin: bevel"/>
    </g>
   </g>
   <g id="line2d_78">
    <path d="M 1311.90734 63.020771 
" clip-path="url(#pc7979d5d4d)" style="fill: none; stroke: #ff0000; stroke-width: 1.5; stroke-linecap: square"/>
    <g clip-path="url(#pc7979d5d4d)">
     <use xlink:href="#ma615c2d0ed" x="1311.90734" y="63.020771" style="fill: #ff0000; stroke: #ff0000; stroke-linejoin: bevel"/>
    </g>
   </g>
  </g>
 </g>
 <defs>
  <clipPath id="pc7979d5d4d">
   <rect x="0" y="0" width="1440" height="1440"/>
  </clipPath>
 </defs>
</svg>
